  0
SECTION
  2
HEADER
  9
$ACADVER
  1
AC1009
  9
$INSUNITS
 70
     4
  0
ENDSEC
  0
SECTION
  2
TABLES
  0
TABLE
  2
LTYPE
 70
     2
  0
LTYPE
  2
CONTINUOUS
 70
     0
  3
Solid line
 72
    65
 73
     0
 40
0.0
  0
LTYPE
  2
DASHED
 70
     0
  3
__ __ __ __
 72
    65
 73
     2
 40
100.0
 49
75.0
 49
-25.0
  0
ENDTAB
  0
TABLE
  2
LAYER
 70
12
  0
LAYER
  2
0
 70
     0
 62
7
  6
CONTINUOUS
  0
LAYER
  2
KEDI_YOLU_REFERANS
 70
     0
 62
8
  6
DASHED
  0
LAYER
  2
TASICI_BORULAR_SILINDIRLER
 70
     0
 62
4
  6
CONTINUOUS
  0
LAYER
  2
CELIK_KIRISLER_HEB200
 70
     0
 62
1
  6
CONTINUOUS
  0
LAYER
  2
PLATFORM_TABLALARI
 70
     0
 62
7
  6
CONTINUOUS
  0
LAYER
  2
GUVENLIK_KORKULUKLARI
 70
     0
 62
2
  6
CONTINUOUS
  0
LAYER
  2
FLANSLI_POL_DONANIMI
 70
     0
 62
3
  6
CONTINUOUS
  0
LAYER
  2
KABINLER_42U_20U
 70
     0
 62
6
  6
CONTINUOUS
  0
LAYER
  2
POI_MODULLERI
 70
     0
 62
30
  6
CONTINUOUS
  0
LAYER
  2
RRU_EKIPMANLARI
 70
     0
 62
5
  6
CONTINUOUS
  0
LAYER
  2
OLCUKLER
 70
     0
 62
2
  6
CONTINUOUS
  0
LAYER
  2
YAZILAR_ETIKETLER
 70
     0
 62
7
  6
CONTINUOUS
  0
ENDTAB
  0
ENDSEC
  0
SECTION
  2
BLOCKS
  0
ENDSEC
  0
SECTION
  2
ENTITIES
  0
LINE
  8
KEDI_YOLU_REFERANS
 10
-11000.0
 20
550.0
 30
0.0
 11
11000.0
 21
550.0
 31
0.0
  0
LINE
  8
KEDI_YOLU_REFERANS
 10
-11000.0
 20
-550.0
 30
0.0
 11
11000.0
 21
-550.0
 31
0.0
  0
LINE
  8
KEDI_YOLU_REFERANS
 10
-11000.0
 20
0.0
 30
0.0
 11
11000.0
 21
0.0
 31
0.0
  0
LINE
  8
KEDI_YOLU_REFERANS
 10
-11000.0
 20
-550.0
 30
0.0
 11
-11000.0
 21
550.0
 31
0.0
  0
LINE
  8
KEDI_YOLU_REFERANS
 10
-10000.0
 20
-550.0
 30
0.0
 11
-10000.0
 21
550.0
 31
0.0
  0
LINE
  8
KEDI_YOLU_REFERANS
 10
-9000.0
 20
-550.0
 30
0.0
 11
-9000.0
 21
550.0
 31
0.0
  0
LINE
  8
KEDI_YOLU_REFERANS
 10
-8000.0
 20
-550.0
 30
0.0
 11
-8000.0
 21
550.0
 31
0.0
  0
LINE
  8
KEDI_YOLU_REFERANS
 10
-7000.0
 20
-550.0
 30
0.0
 11
-7000.0
 21
550.0
 31
0.0
  0
LINE
  8
KEDI_YOLU_REFERANS
 10
-6000.0
 20
-550.0
 30
0.0
 11
-6000.0
 21
550.0
 31
0.0
  0
LINE
  8
KEDI_YOLU_REFERANS
 10
-5000.0
 20
-550.0
 30
0.0
 11
-5000.0
 21
550.0
 31
0.0
  0
LINE
  8
KEDI_YOLU_REFERANS
 10
-4000.0
 20
-550.0
 30
0.0
 11
-4000.0
 21
550.0
 31
0.0
  0
LINE
  8
KEDI_YOLU_REFERANS
 10
-3000.0
 20
-550.0
 30
0.0
 11
-3000.0
 21
550.0
 31
0.0
  0
LINE
  8
KEDI_YOLU_REFERANS
 10
-2000.0
 20
-550.0
 30
0.0
 11
-2000.0
 21
550.0
 31
0.0
  0
LINE
  8
KEDI_YOLU_REFERANS
 10
-1000.0
 20
-550.0
 30
0.0
 11
-1000.0
 21
550.0
 31
0.0
  0
LINE
  8
KEDI_YOLU_REFERANS
 10
0.0
 20
-550.0
 30
0.0
 11
0.0
 21
550.0
 31
0.0
  0
LINE
  8
KEDI_YOLU_REFERANS
 10
1000.0
 20
-550.0
 30
0.0
 11
1000.0
 21
550.0
 31
0.0
  0
LINE
  8
KEDI_YOLU_REFERANS
 10
2000.0
 20
-550.0
 30
0.0
 11
2000.0
 21
550.0
 31
0.0
  0
LINE
  8
KEDI_YOLU_REFERANS
 10
3000.0
 20
-550.0
 30
0.0
 11
3000.0
 21
550.0
 31
0.0
  0
LINE
  8
KEDI_YOLU_REFERANS
 10
4000.0
 20
-550.0
 30
0.0
 11
4000.0
 21
550.0
 31
0.0
  0
LINE
  8
KEDI_YOLU_REFERANS
 10
5000.0
 20
-550.0
 30
0.0
 11
5000.0
 21
550.0
 31
0.0
  0
LINE
  8
KEDI_YOLU_REFERANS
 10
6000.0
 20
-550.0
 30
0.0
 11
6000.0
 21
550.0
 31
0.0
  0
LINE
  8
KEDI_YOLU_REFERANS
 10
7000.0
 20
-550.0
 30
0.0
 11
7000.0
 21
550.0
 31
0.0
  0
LINE
  8
KEDI_YOLU_REFERANS
 10
8000.0
 20
-550.0
 30
0.0
 11
8000.0
 21
550.0
 31
0.0
  0
LINE
  8
KEDI_YOLU_REFERANS
 10
9000.0
 20
-550.0
 30
0.0
 11
9000.0
 21
550.0
 31
0.0
  0
LINE
  8
KEDI_YOLU_REFERANS
 10
10000.0
 20
-550.0
 30
0.0
 11
10000.0
 21
550.0
 31
0.0
  0
LINE
  8
KEDI_YOLU_REFERANS
 10
11000.0
 20
-550.0
 30
0.0
 11
11000.0
 21
550.0
 31
0.0
  0
TEXT
  8
KEDI_YOLU_REFERANS
 10
-1200.0
 20
20.0
 30
0.0
 40
90.0
  1
MEVCUT KEDI YOLU HATTI (W=1100mm)
  0
CIRCLE
  8
TASICI_BORULAR_SILINDIRLER
 10
-8243.0
 20
-1670.0
 30
0.0
 40
750.0
  0
LINE
  8
TASICI_BORULAR_SILINDIRLER
 10
-9743.0
 20
-1670.0
 30
0.0
 11
-6743.0
 21
-1670.0
 31
0.0
  0
TEXT
  8
TASICI_BORULAR_SILINDIRLER
 10
-8743.0
 20
-2490.0
 30
0.0
 40
80.0
  1
SILINDIR 1 (O 1500mm)
  0
CIRCLE
  8
TASICI_BORULAR_SILINDIRLER
 10
-8243.0
 20
550.0
 30
0.0
 40
750.0
  0
LINE
  8
TASICI_BORULAR_SILINDIRLER
 10
-9743.0
 20
550.0
 30
0.0
 11
-6743.0
 21
550.0
 31
0.0
  0
TEXT
  8
TASICI_BORULAR_SILINDIRLER
 10
-8743.0
 20
1320.0
 30
0.0
 40
80.0
  1
SILINDIR 2 (O 1500mm)
  0
CIRCLE
  8
CELIK_KIRISLER_HEB200
 10
-8243.0
 20
-1670.0
 30
0.0
 40
770.0
  0
CIRCLE
  8
CELIK_KIRISLER_HEB200
 10
-8243.0
 20
550.0
 30
0.0
 40
770.0
  0
LINE
  8
CELIK_KIRISLER_HEB200
 10
-8693.0
 20
-2450.0
 30
0.0
 11
-8693.0
 21
1350.0
 31
0.0
  0
LINE
  8
CELIK_KIRISLER_HEB200
 10
-8493.0
 20
-2450.0
 30
0.0
 11
-8493.0
 21
1350.0
 31
0.0
  0
LINE
  8
CELIK_KIRISLER_HEB200
 10
-8693.0
 20
-2450.0
 30
0.0
 11
-8493.0
 21
-2450.0
 31
0.0
  0
LINE
  8
CELIK_KIRISLER_HEB200
 10
-8693.0
 20
1350.0
 30
0.0
 11
-8493.0
 21
1350.0
 31
0.0
  0
LINE
  8
CELIK_KIRISLER_HEB200
 10
-7993.0
 20
-2450.0
 30
0.0
 11
-7993.0
 21
1350.0
 31
0.0
  0
LINE
  8
CELIK_KIRISLER_HEB200
 10
-7793.0
 20
-2450.0
 30
0.0
 11
-7793.0
 21
1350.0
 31
0.0
  0
LINE
  8
CELIK_KIRISLER_HEB200
 10
-7993.0
 20
-2450.0
 30
0.0
 11
-7793.0
 21
-2450.0
 31
0.0
  0
LINE
  8
CELIK_KIRISLER_HEB200
 10
-7993.0
 20
1350.0
 30
0.0
 11
-7793.0
 21
1350.0
 31
0.0
  0
LINE
  8
CELIK_KIRISLER_HEB200
 10
-8493.0
 20
-2240.0
 30
0.0
 11
-7993.0
 21
-2240.0
 31
0.0
  0
LINE
  8
CELIK_KIRISLER_HEB200
 10
-7993.0
 20
-2240.0
 30
0.0
 11
-7993.0
 21
-2160.0
 31
0.0
  0
LINE
  8
CELIK_KIRISLER_HEB200
 10
-7993.0
 20
-2160.0
 30
0.0
 11
-8493.0
 21
-2160.0
 31
0.0
  0
LINE
  8
CELIK_KIRISLER_HEB200
 10
-8493.0
 20
-2160.0
 30
0.0
 11
-8493.0
 21
-2240.0
 31
0.0
  0
LINE
  8
CELIK_KIRISLER_HEB200
 10
-8493.0
 20
-1590.0
 30
0.0
 11
-7993.0
 21
-1590.0
 31
0.0
  0
LINE
  8
CELIK_KIRISLER_HEB200
 10
-7993.0
 20
-1590.0
 30
0.0
 11
-7993.0
 21
-1510.0
 31
0.0
  0
LINE
  8
CELIK_KIRISLER_HEB200
 10
-7993.0
 20
-1510.0
 30
0.0
 11
-8493.0
 21
-1510.0
 31
0.0
  0
LINE
  8
CELIK_KIRISLER_HEB200
 10
-8493.0
 20
-1510.0
 30
0.0
 11
-8493.0
 21
-1590.0
 31
0.0
  0
LINE
  8
CELIK_KIRISLER_HEB200
 10
-8493.0
 20
-590.0
 30
0.0
 11
-7993.0
 21
-590.0
 31
0.0
  0
LINE
  8
CELIK_KIRISLER_HEB200
 10
-7993.0
 20
-590.0
 30
0.0
 11
-7993.0
 21
-510.0
 31
0.0
  0
LINE
  8
CELIK_KIRISLER_HEB200
 10
-7993.0
 20
-510.0
 30
0.0
 11
-8493.0
 21
-510.0
 31
0.0
  0
LINE
  8
CELIK_KIRISLER_HEB200
 10
-8493.0
 20
-510.0
 30
0.0
 11
-8493.0
 21
-590.0
 31
0.0
  0
LINE
  8
CELIK_KIRISLER_HEB200
 10
-8493.0
 20
410.0
 30
0.0
 11
-7993.0
 21
410.0
 31
0.0
  0
LINE
  8
CELIK_KIRISLER_HEB200
 10
-7993.0
 20
410.0
 30
0.0
 11
-7993.0
 21
490.0
 31
0.0
  0
LINE
  8
CELIK_KIRISLER_HEB200
 10
-7993.0
 20
490.0
 30
0.0
 11
-8493.0
 21
490.0
 31
0.0
  0
LINE
  8
CELIK_KIRISLER_HEB200
 10
-8493.0
 20
490.0
 30
0.0
 11
-8493.0
 21
410.0
 31
0.0
  0
LINE
  8
CELIK_KIRISLER_HEB200
 10
-8493.0
 20
1110.0
 30
0.0
 11
-7993.0
 21
1110.0
 31
0.0
  0
LINE
  8
CELIK_KIRISLER_HEB200
 10
-7993.0
 20
1110.0
 30
0.0
 11
-7993.0
 21
1190.0
 31
0.0
  0
LINE
  8
CELIK_KIRISLER_HEB200
 10
-7993.0
 20
1190.0
 30
0.0
 11
-8493.0
 21
1190.0
 31
0.0
  0
LINE
  8
CELIK_KIRISLER_HEB200
 10
-8493.0
 20
1190.0
 30
0.0
 11
-8493.0
 21
1110.0
 31
0.0
  0
TEXT
  8
CELIK_KIRISLER_HEB200
 10
-8693.0
 20
-2570.0
 30
0.0
 40
80.0
  1
2x HEB 200 KIRIS (L=3800mm)
  0
LINE
  8
PLATFORM_TABLALARI
 10
-8843.0
 20
-1850.0
 30
0.0
 11
-7643.0
 21
-1850.0
 31
0.0
  0
LINE
  8
PLATFORM_TABLALARI
 10
-7643.0
 20
-1850.0
 30
0.0
 11
-7643.0
 21
750.0
 31
0.0
  0
LINE
  8
PLATFORM_TABLALARI
 10
-7643.0
 20
750.0
 30
0.0
 11
-8843.0
 21
750.0
 31
0.0
  0
LINE
  8
PLATFORM_TABLALARI
 10
-8843.0
 20
750.0
 30
0.0
 11
-8843.0
 21
-1850.0
 31
0.0
  0
LINE
  8
PLATFORM_TABLALARI
 10
-8843.0
 20
-1050.0
 30
0.0
 11
-7643.0
 21
-1050.0
 31
0.0
  0
LINE
  8
PLATFORM_TABLALARI
 10
-8843.0
 20
-150.0
 30
0.0
 11
-7643.0
 21
-150.0
 31
0.0
  0
TEXT
  8
PLATFORM_TABLALARI
 10
-8793.0
 20
-1450.0
 30
0.0
 40
50.0
  1
ON TABLA (800x1200)
  0
TEXT
  8
PLATFORM_TABLALARI
 10
-8793.0
 20
-600.0
 30
0.0
 40
50.0
  1
ORTA TABLA (900x1200)
  0
TEXT
  8
PLATFORM_TABLALARI
 10
-8793.0
 20
300.0
 30
0.0
 40
50.0
  1
ARKA TABLA (900x1200)
  0
LINE
  8
GUVENLIK_KORKULUKLARI
 10
-8863.0
 20
-1870.0
 30
0.0
 11
-7623.0
 21
-1870.0
 31
0.0
  0
LINE
  8
GUVENLIK_KORKULUKLARI
 10
-7623.0
 20
-1870.0
 30
0.0
 11
-7623.0
 21
770.0
 31
0.0
  0
LINE
  8
GUVENLIK_KORKULUKLARI
 10
-7623.0
 20
770.0
 30
0.0
 11
-8863.0
 21
770.0
 31
0.0
  0
LINE
  8
GUVENLIK_KORKULUKLARI
 10
-8863.0
 20
770.0
 30
0.0
 11
-8863.0
 21
-1870.0
 31
0.0
  0
CIRCLE
  8
GUVENLIK_KORKULUKLARI
 10
-8843.0
 20
-1850.0
 30
0.0
 40
20.0
  0
CIRCLE
  8
GUVENLIK_KORKULUKLARI
 10
-8843.0
 20
-1200.0
 30
0.0
 40
20.0
  0
CIRCLE
  8
GUVENLIK_KORKULUKLARI
 10
-8843.0
 20
-550.0
 30
0.0
 40
20.0
  0
CIRCLE
  8
GUVENLIK_KORKULUKLARI
 10
-8843.0
 20
100.0
 30
0.0
 40
20.0
  0
CIRCLE
  8
GUVENLIK_KORKULUKLARI
 10
-8843.0
 20
750.0
 30
0.0
 40
20.0
  0
CIRCLE
  8
GUVENLIK_KORKULUKLARI
 10
-8243.0
 20
-1850.0
 30
0.0
 40
20.0
  0
CIRCLE
  8
GUVENLIK_KORKULUKLARI
 10
-8243.0
 20
-1200.0
 30
0.0
 40
20.0
  0
CIRCLE
  8
GUVENLIK_KORKULUKLARI
 10
-8243.0
 20
-550.0
 30
0.0
 40
20.0
  0
CIRCLE
  8
GUVENLIK_KORKULUKLARI
 10
-8243.0
 20
100.0
 30
0.0
 40
20.0
  0
CIRCLE
  8
GUVENLIK_KORKULUKLARI
 10
-8243.0
 20
750.0
 30
0.0
 40
20.0
  0
CIRCLE
  8
GUVENLIK_KORKULUKLARI
 10
-7643.0
 20
-1850.0
 30
0.0
 40
20.0
  0
CIRCLE
  8
GUVENLIK_KORKULUKLARI
 10
-7643.0
 20
-1200.0
 30
0.0
 40
20.0
  0
CIRCLE
  8
GUVENLIK_KORKULUKLARI
 10
-7643.0
 20
-550.0
 30
0.0
 40
20.0
  0
CIRCLE
  8
GUVENLIK_KORKULUKLARI
 10
-7643.0
 20
100.0
 30
0.0
 40
20.0
  0
CIRCLE
  8
GUVENLIK_KORKULUKLARI
 10
-7643.0
 20
750.0
 30
0.0
 40
20.0
  0
LINE
  8
FLANSLI_POL_DONANIMI
 10
-8343.0
 20
-1750.0
 30
0.0
 11
-8143.0
 21
-1750.0
 31
0.0
  0
LINE
  8
FLANSLI_POL_DONANIMI
 10
-8143.0
 20
-1750.0
 30
0.0
 11
-8143.0
 21
-1550.0
 31
0.0
  0
LINE
  8
FLANSLI_POL_DONANIMI
 10
-8143.0
 20
-1550.0
 30
0.0
 11
-8343.0
 21
-1550.0
 31
0.0
  0
LINE
  8
FLANSLI_POL_DONANIMI
 10
-8343.0
 20
-1550.0
 30
0.0
 11
-8343.0
 21
-1750.0
 31
0.0
  0
CIRCLE
  8
FLANSLI_POL_DONANIMI
 10
-8243.0
 20
-1650.0
 30
0.0
 40
31.8
  0
CIRCLE
  8
FLANSLI_POL_DONANIMI
 10
-8318.0
 20
-1725.0
 30
0.0
 40
14.0
  0
CIRCLE
  8
FLANSLI_POL_DONANIMI
 10
-8318.0
 20
-1575.0
 30
0.0
 40
14.0
  0
CIRCLE
  8
FLANSLI_POL_DONANIMI
 10
-8168.0
 20
-1725.0
 30
0.0
 40
14.0
  0
CIRCLE
  8
FLANSLI_POL_DONANIMI
 10
-8168.0
 20
-1575.0
 30
0.0
 40
14.0
  0
TEXT
  8
FLANSLI_POL_DONANIMI
 10
-8123.0
 20
-1640.0
 30
0.0
 40
60.0
  1
FLANSLI POL (O 2.5" H=2.0m)
  0
LINE
  8
KABINLER_42U_20U
 10
-8543.0
 20
-76.0
 30
0.0
 11
-7943.0
 21
-76.0
 31
0.0
  0
LINE
  8
KABINLER_42U_20U
 10
-7943.0
 20
-76.0
 30
0.0
 11
-7943.0
 21
624.0
 31
0.0
  0
LINE
  8
KABINLER_42U_20U
 10
-7943.0
 20
624.0
 30
0.0
 11
-8543.0
 21
624.0
 31
0.0
  0
LINE
  8
KABINLER_42U_20U
 10
-8543.0
 20
624.0
 30
0.0
 11
-8543.0
 21
-76.0
 31
0.0
  0
LINE
  8
POI_MODULLERI
 10
-8443.0
 20
144.0
 30
0.0
 11
-8043.0
 21
144.0
 31
0.0
  0
LINE
  8
POI_MODULLERI
 10
-8043.0
 20
144.0
 30
0.0
 11
-8043.0
 21
404.0
 31
0.0
  0
LINE
  8
POI_MODULLERI
 10
-8043.0
 20
404.0
 30
0.0
 11
-8443.0
 21
404.0
 31
0.0
  0
LINE
  8
POI_MODULLERI
 10
-8443.0
 20
404.0
 30
0.0
 11
-8443.0
 21
144.0
 31
0.0
  0
TEXT
  8
KABINLER_42U_20U
 10
-8643.0
 20
694.0
 30
0.0
 40
60.0
  1
CANOVATE 42U RACK KABIN (CSL-X-42YYA2)
  0
TEXT
  8
POI_MODULLERI
 10
-8643.0
 20
764.0
 30
0.0
 40
50.0
  1
6x PROSE 5G NR POI (CB-12-POI-64F-A12)
  0
LINE
  8
RRU_EKIPMANLARI
 10
-8643.0
 20
-1598.4
 30
0.0
 11
-7843.0
 21
-1598.4
 31
0.0
  0
LINE
  8
RRU_EKIPMANLARI
 10
-7843.0
 20
-1598.4
 30
0.0
 11
-7843.0
 21
-1098.4
 31
0.0
  0
LINE
  8
RRU_EKIPMANLARI
 10
-7843.0
 20
-1098.4
 30
0.0
 11
-8643.0
 21
-1098.4
 31
0.0
  0
LINE
  8
RRU_EKIPMANLARI
 10
-8643.0
 20
-1098.4
 30
0.0
 11
-8643.0
 21
-1598.4
 31
0.0
  0
CIRCLE
  8
RRU_EKIPMANLARI
 10
-8483.0
 20
-1348.4
 30
0.0
 40
25.0
  0
LINE
  8
RRU_EKIPMANLARI
 10
-8553.0
 20
-1278.4
 30
0.0
 11
-8413.0
 21
-1278.4
 31
0.0
  0
LINE
  8
RRU_EKIPMANLARI
 10
-8413.0
 20
-1278.4
 30
0.0
 11
-8413.0
 21
-1178.4
 31
0.0
  0
LINE
  8
RRU_EKIPMANLARI
 10
-8413.0
 20
-1178.4
 30
0.0
 11
-8553.0
 21
-1178.4
 31
0.0
  0
LINE
  8
RRU_EKIPMANLARI
 10
-8553.0
 20
-1178.4
 30
0.0
 11
-8553.0
 21
-1278.4
 31
0.0
  0
CIRCLE
  8
RRU_EKIPMANLARI
 10
-8323.0
 20
-1348.4
 30
0.0
 40
25.0
  0
LINE
  8
RRU_EKIPMANLARI
 10
-8393.0
 20
-1278.4
 30
0.0
 11
-8253.0
 21
-1278.4
 31
0.0
  0
LINE
  8
RRU_EKIPMANLARI
 10
-8253.0
 20
-1278.4
 30
0.0
 11
-8253.0
 21
-1178.4
 31
0.0
  0
LINE
  8
RRU_EKIPMANLARI
 10
-8253.0
 20
-1178.4
 30
0.0
 11
-8393.0
 21
-1178.4
 31
0.0
  0
LINE
  8
RRU_EKIPMANLARI
 10
-8393.0
 20
-1178.4
 30
0.0
 11
-8393.0
 21
-1278.4
 31
0.0
  0
CIRCLE
  8
RRU_EKIPMANLARI
 10
-8163.0
 20
-1348.4
 30
0.0
 40
25.0
  0
LINE
  8
RRU_EKIPMANLARI
 10
-8233.0
 20
-1278.4
 30
0.0
 11
-8093.0
 21
-1278.4
 31
0.0
  0
LINE
  8
RRU_EKIPMANLARI
 10
-8093.0
 20
-1278.4
 30
0.0
 11
-8093.0
 21
-1178.4
 31
0.0
  0
LINE
  8
RRU_EKIPMANLARI
 10
-8093.0
 20
-1178.4
 30
0.0
 11
-8233.0
 21
-1178.4
 31
0.0
  0
LINE
  8
RRU_EKIPMANLARI
 10
-8233.0
 20
-1178.4
 30
0.0
 11
-8233.0
 21
-1278.4
 31
0.0
  0
CIRCLE
  8
RRU_EKIPMANLARI
 10
-8003.0
 20
-1348.4
 30
0.0
 40
25.0
  0
LINE
  8
RRU_EKIPMANLARI
 10
-8073.0
 20
-1278.4
 30
0.0
 11
-7933.0
 21
-1278.4
 31
0.0
  0
LINE
  8
RRU_EKIPMANLARI
 10
-7933.0
 20
-1278.4
 30
0.0
 11
-7933.0
 21
-1178.4
 31
0.0
  0
LINE
  8
RRU_EKIPMANLARI
 10
-7933.0
 20
-1178.4
 30
0.0
 11
-8073.0
 21
-1178.4
 31
0.0
  0
LINE
  8
RRU_EKIPMANLARI
 10
-8073.0
 20
-1178.4
 30
0.0
 11
-8073.0
 21
-1278.4
 31
0.0
  0
TEXT
  8
RRU_EKIPMANLARI
 10
-8693.0
 20
-1528.4
 30
0.0
 40
55.0
  1
KARMA RRU (7 RRU: 2x TCELL + 2x TT + 3x VODA)
  0
LINE
  8
OLCUKLER
 10
-8843.0
 20
-2000.0
 30
0.0
 11
-7643.0
 21
-2000.0
 31
0.0
  0
LINE
  8
OLCUKLER
 10
-8843.0
 20
-2040.0
 30
0.0
 11
-8843.0
 21
-1960.0
 31
0.0
  0
LINE
  8
OLCUKLER
 10
-7643.0
 20
-2040.0
 30
0.0
 11
-7643.0
 21
-1960.0
 31
0.0
  0
LINE
  8
OLCUKLER
 10
-8863.0
 20
-2020.0
 30
0.0
 11
-8823.0
 21
-1980.0
 31
0.0
  0
LINE
  8
OLCUKLER
 10
-7663.0
 20
-2020.0
 30
0.0
 11
-7623.0
 21
-1980.0
 31
0.0
  0
TEXT
  8
OLCUKLER
 10
-8563.0
 20
-1975.0
 30
0.0
 40
60.0
  1
PLATFORM: 1200mm
  0
LINE
  8
OLCUKLER
 10
-7443.0
 20
-1850.0
 30
0.0
 11
-7443.0
 21
750.0
 31
0.0
  0
LINE
  8
OLCUKLER
 10
-7483.0
 20
-1850.0
 30
0.0
 11
-7403.0
 21
-1850.0
 31
0.0
  0
LINE
  8
OLCUKLER
 10
-7483.0
 20
750.0
 30
0.0
 11
-7403.0
 21
750.0
 31
0.0
  0
LINE
  8
OLCUKLER
 10
-7463.0
 20
-1870.0
 30
0.0
 11
-7423.0
 21
-1830.0
 31
0.0
  0
LINE
  8
OLCUKLER
 10
-7463.0
 20
730.0
 30
0.0
 11
-7423.0
 21
770.0
 31
0.0
  0
TEXT
  8
OLCUKLER
 10
-7418.0
 20
-580.0
 30
0.0
 40
60.0
  1
PLATFORM: 2600mm
 50
90.0
  0
LINE
  8
OLCUKLER
 10
-9043.0
 20
-2450.0
 30
0.0
 11
-9043.0
 21
1350.0
 31
0.0
  0
LINE
  8
OLCUKLER
 10
-9083.0
 20
-2450.0
 30
0.0
 11
-9003.0
 21
-2450.0
 31
0.0
  0
LINE
  8
OLCUKLER
 10
-9083.0
 20
1350.0
 30
0.0
 11
-9003.0
 21
1350.0
 31
0.0
  0
LINE
  8
OLCUKLER
 10
-9063.0
 20
-2470.0
 30
0.0
 11
-9023.0
 21
-2430.0
 31
0.0
  0
LINE
  8
OLCUKLER
 10
-9063.0
 20
1330.0
 30
0.0
 11
-9023.0
 21
1370.0
 31
0.0
  0
TEXT
  8
OLCUKLER
 10
-9018.0
 20
-580.0
 30
0.0
 40
60.0
  1
HEB 200: 3800mm
 50
90.0
  0
LINE
  8
OLCUKLER
 10
-9293.0
 20
-1670.0
 30
0.0
 11
-9293.0
 21
550.0
 31
0.0
  0
LINE
  8
OLCUKLER
 10
-9333.0
 20
-1670.0
 30
0.0
 11
-9253.0
 21
-1670.0
 31
0.0
  0
LINE
  8
OLCUKLER
 10
-9333.0
 20
550.0
 30
0.0
 11
-9253.0
 21
550.0
 31
0.0
  0
LINE
  8
OLCUKLER
 10
-9313.0
 20
-1690.0
 30
0.0
 11
-9273.0
 21
-1650.0
 31
0.0
  0
LINE
  8
OLCUKLER
 10
-9313.0
 20
530.0
 30
0.0
 11
-9273.0
 21
570.0
 31
0.0
  0
TEXT
  8
OLCUKLER
 10
-9268.0
 20
-590.0
 30
0.0
 40
60.0
  1
AKSLAR: 2220mm
 50
90.0
  0
TEXT
  8
YAZILAR_ETIKETLER
 10
-8943.0
 20
1150.0
 30
0.0
 40
100.0
  1
OZEL ALAN 4 KOMPLEKSI - BLOK 1 (SOL)
  0
CIRCLE
  8
TASICI_BORULAR_SILINDIRLER
 10
8308.0
 20
-1670.0
 30
0.0
 40
750.0
  0
LINE
  8
TASICI_BORULAR_SILINDIRLER
 10
6808.0
 20
-1670.0
 30
0.0
 11
9808.0
 21
-1670.0
 31
0.0
  0
TEXT
  8
TASICI_BORULAR_SILINDIRLER
 10
7808.0
 20
-2490.0
 30
0.0
 40
80.0
  1
SILINDIR 1 (O 1500mm)
  0
CIRCLE
  8
TASICI_BORULAR_SILINDIRLER
 10
8308.0
 20
550.0
 30
0.0
 40
750.0
  0
LINE
  8
TASICI_BORULAR_SILINDIRLER
 10
6808.0
 20
550.0
 30
0.0
 11
9808.0
 21
550.0
 31
0.0
  0
TEXT
  8
TASICI_BORULAR_SILINDIRLER
 10
7808.0
 20
1320.0
 30
0.0
 40
80.0
  1
SILINDIR 2 (O 1500mm)
  0
CIRCLE
  8
CELIK_KIRISLER_HEB200
 10
8308.0
 20
-1670.0
 30
0.0
 40
770.0
  0
CIRCLE
  8
CELIK_KIRISLER_HEB200
 10
8308.0
 20
550.0
 30
0.0
 40
770.0
  0
LINE
  8
CELIK_KIRISLER_HEB200
 10
7858.0
 20
-2450.0
 30
0.0
 11
7858.0
 21
1350.0
 31
0.0
  0
LINE
  8
CELIK_KIRISLER_HEB200
 10
8058.0
 20
-2450.0
 30
0.0
 11
8058.0
 21
1350.0
 31
0.0
  0
LINE
  8
CELIK_KIRISLER_HEB200
 10
7858.0
 20
-2450.0
 30
0.0
 11
8058.0
 21
-2450.0
 31
0.0
  0
LINE
  8
CELIK_KIRISLER_HEB200
 10
7858.0
 20
1350.0
 30
0.0
 11
8058.0
 21
1350.0
 31
0.0
  0
LINE
  8
CELIK_KIRISLER_HEB200
 10
8558.0
 20
-2450.0
 30
0.0
 11
8558.0
 21
1350.0
 31
0.0
  0
LINE
  8
CELIK_KIRISLER_HEB200
 10
8758.0
 20
-2450.0
 30
0.0
 11
8758.0
 21
1350.0
 31
0.0
  0
LINE
  8
CELIK_KIRISLER_HEB200
 10
8558.0
 20
-2450.0
 30
0.0
 11
8758.0
 21
-2450.0
 31
0.0
  0
LINE
  8
CELIK_KIRISLER_HEB200
 10
8558.0
 20
1350.0
 30
0.0
 11
8758.0
 21
1350.0
 31
0.0
  0
LINE
  8
CELIK_KIRISLER_HEB200
 10
8058.0
 20
-2240.0
 30
0.0
 11
8558.0
 21
-2240.0
 31
0.0
  0
LINE
  8
CELIK_KIRISLER_HEB200
 10
8558.0
 20
-2240.0
 30
0.0
 11
8558.0
 21
-2160.0
 31
0.0
  0
LINE
  8
CELIK_KIRISLER_HEB200
 10
8558.0
 20
-2160.0
 30
0.0
 11
8058.0
 21
-2160.0
 31
0.0
  0
LINE
  8
CELIK_KIRISLER_HEB200
 10
8058.0
 20
-2160.0
 30
0.0
 11
8058.0
 21
-2240.0
 31
0.0
  0
LINE
  8
CELIK_KIRISLER_HEB200
 10
8058.0
 20
-1590.0
 30
0.0
 11
8558.0
 21
-1590.0
 31
0.0
  0
LINE
  8
CELIK_KIRISLER_HEB200
 10
8558.0
 20
-1590.0
 30
0.0
 11
8558.0
 21
-1510.0
 31
0.0
  0
LINE
  8
CELIK_KIRISLER_HEB200
 10
8558.0
 20
-1510.0
 30
0.0
 11
8058.0
 21
-1510.0
 31
0.0
  0
LINE
  8
CELIK_KIRISLER_HEB200
 10
8058.0
 20
-1510.0
 30
0.0
 11
8058.0
 21
-1590.0
 31
0.0
  0
LINE
  8
CELIK_KIRISLER_HEB200
 10
8058.0
 20
-590.0
 30
0.0
 11
8558.0
 21
-590.0
 31
0.0
  0
LINE
  8
CELIK_KIRISLER_HEB200
 10
8558.0
 20
-590.0
 30
0.0
 11
8558.0
 21
-510.0
 31
0.0
  0
LINE
  8
CELIK_KIRISLER_HEB200
 10
8558.0
 20
-510.0
 30
0.0
 11
8058.0
 21
-510.0
 31
0.0
  0
LINE
  8
CELIK_KIRISLER_HEB200
 10
8058.0
 20
-510.0
 30
0.0
 11
8058.0
 21
-590.0
 31
0.0
  0
LINE
  8
CELIK_KIRISLER_HEB200
 10
8058.0
 20
410.0
 30
0.0
 11
8558.0
 21
410.0
 31
0.0
  0
LINE
  8
CELIK_KIRISLER_HEB200
 10
8558.0
 20
410.0
 30
0.0
 11
8558.0
 21
490.0
 31
0.0
  0
LINE
  8
CELIK_KIRISLER_HEB200
 10
8558.0
 20
490.0
 30
0.0
 11
8058.0
 21
490.0
 31
0.0
  0
LINE
  8
CELIK_KIRISLER_HEB200
 10
8058.0
 20
490.0
 30
0.0
 11
8058.0
 21
410.0
 31
0.0
  0
LINE
  8
CELIK_KIRISLER_HEB200
 10
8058.0
 20
1110.0
 30
0.0
 11
8558.0
 21
1110.0
 31
0.0
  0
LINE
  8
CELIK_KIRISLER_HEB200
 10
8558.0
 20
1110.0
 30
0.0
 11
8558.0
 21
1190.0
 31
0.0
  0
LINE
  8
CELIK_KIRISLER_HEB200
 10
8558.0
 20
1190.0
 30
0.0
 11
8058.0
 21
1190.0
 31
0.0
  0
LINE
  8
CELIK_KIRISLER_HEB200
 10
8058.0
 20
1190.0
 30
0.0
 11
8058.0
 21
1110.0
 31
0.0
  0
TEXT
  8
CELIK_KIRISLER_HEB200
 10
7858.0
 20
-2570.0
 30
0.0
 40
80.0
  1
2x HEB 200 KIRIS (L=3800mm)
  0
LINE
  8
PLATFORM_TABLALARI
 10
7708.0
 20
-1850.0
 30
0.0
 11
8908.0
 21
-1850.0
 31
0.0
  0
LINE
  8
PLATFORM_TABLALARI
 10
8908.0
 20
-1850.0
 30
0.0
 11
8908.0
 21
750.0
 31
0.0
  0
LINE
  8
PLATFORM_TABLALARI
 10
8908.0
 20
750.0
 30
0.0
 11
7708.0
 21
750.0
 31
0.0
  0
LINE
  8
PLATFORM_TABLALARI
 10
7708.0
 20
750.0
 30
0.0
 11
7708.0
 21
-1850.0
 31
0.0
  0
LINE
  8
PLATFORM_TABLALARI
 10
7708.0
 20
-1050.0
 30
0.0
 11
8908.0
 21
-1050.0
 31
0.0
  0
LINE
  8
PLATFORM_TABLALARI
 10
7708.0
 20
-150.0
 30
0.0
 11
8908.0
 21
-150.0
 31
0.0
  0
TEXT
  8
PLATFORM_TABLALARI
 10
7758.0
 20
-1450.0
 30
0.0
 40
50.0
  1
ON TABLA (800x1200)
  0
TEXT
  8
PLATFORM_TABLALARI
 10
7758.0
 20
-600.0
 30
0.0
 40
50.0
  1
ORTA TABLA (900x1200)
  0
TEXT
  8
PLATFORM_TABLALARI
 10
7758.0
 20
300.0
 30
0.0
 40
50.0
  1
ARKA TABLA (900x1200)
  0
LINE
  8
GUVENLIK_KORKULUKLARI
 10
7688.0
 20
-1870.0
 30
0.0
 11
8928.0
 21
-1870.0
 31
0.0
  0
LINE
  8
GUVENLIK_KORKULUKLARI
 10
8928.0
 20
-1870.0
 30
0.0
 11
8928.0
 21
770.0
 31
0.0
  0
LINE
  8
GUVENLIK_KORKULUKLARI
 10
8928.0
 20
770.0
 30
0.0
 11
7688.0
 21
770.0
 31
0.0
  0
LINE
  8
GUVENLIK_KORKULUKLARI
 10
7688.0
 20
770.0
 30
0.0
 11
7688.0
 21
-1870.0
 31
0.0
  0
CIRCLE
  8
GUVENLIK_KORKULUKLARI
 10
7708.0
 20
-1850.0
 30
0.0
 40
20.0
  0
CIRCLE
  8
GUVENLIK_KORKULUKLARI
 10
7708.0
 20
-1200.0
 30
0.0
 40
20.0
  0
CIRCLE
  8
GUVENLIK_KORKULUKLARI
 10
7708.0
 20
-550.0
 30
0.0
 40
20.0
  0
CIRCLE
  8
GUVENLIK_KORKULUKLARI
 10
7708.0
 20
100.0
 30
0.0
 40
20.0
  0
CIRCLE
  8
GUVENLIK_KORKULUKLARI
 10
7708.0
 20
750.0
 30
0.0
 40
20.0
  0
CIRCLE
  8
GUVENLIK_KORKULUKLARI
 10
8308.0
 20
-1850.0
 30
0.0
 40
20.0
  0
CIRCLE
  8
GUVENLIK_KORKULUKLARI
 10
8308.0
 20
-1200.0
 30
0.0
 40
20.0
  0
CIRCLE
  8
GUVENLIK_KORKULUKLARI
 10
8308.0
 20
-550.0
 30
0.0
 40
20.0
  0
CIRCLE
  8
GUVENLIK_KORKULUKLARI
 10
8308.0
 20
100.0
 30
0.0
 40
20.0
  0
CIRCLE
  8
GUVENLIK_KORKULUKLARI
 10
8308.0
 20
750.0
 30
0.0
 40
20.0
  0
CIRCLE
  8
GUVENLIK_KORKULUKLARI
 10
8908.0
 20
-1850.0
 30
0.0
 40
20.0
  0
CIRCLE
  8
GUVENLIK_KORKULUKLARI
 10
8908.0
 20
-1200.0
 30
0.0
 40
20.0
  0
CIRCLE
  8
GUVENLIK_KORKULUKLARI
 10
8908.0
 20
-550.0
 30
0.0
 40
20.0
  0
CIRCLE
  8
GUVENLIK_KORKULUKLARI
 10
8908.0
 20
100.0
 30
0.0
 40
20.0
  0
CIRCLE
  8
GUVENLIK_KORKULUKLARI
 10
8908.0
 20
750.0
 30
0.0
 40
20.0
  0
LINE
  8
FLANSLI_POL_DONANIMI
 10
8208.0
 20
-1750.0
 30
0.0
 11
8408.0
 21
-1750.0
 31
0.0
  0
LINE
  8
FLANSLI_POL_DONANIMI
 10
8408.0
 20
-1750.0
 30
0.0
 11
8408.0
 21
-1550.0
 31
0.0
  0
LINE
  8
FLANSLI_POL_DONANIMI
 10
8408.0
 20
-1550.0
 30
0.0
 11
8208.0
 21
-1550.0
 31
0.0
  0
LINE
  8
FLANSLI_POL_DONANIMI
 10
8208.0
 20
-1550.0
 30
0.0
 11
8208.0
 21
-1750.0
 31
0.0
  0
CIRCLE
  8
FLANSLI_POL_DONANIMI
 10
8308.0
 20
-1650.0
 30
0.0
 40
31.8
  0
CIRCLE
  8
FLANSLI_POL_DONANIMI
 10
8233.0
 20
-1725.0
 30
0.0
 40
14.0
  0
CIRCLE
  8
FLANSLI_POL_DONANIMI
 10
8233.0
 20
-1575.0
 30
0.0
 40
14.0
  0
CIRCLE
  8
FLANSLI_POL_DONANIMI
 10
8383.0
 20
-1725.0
 30
0.0
 40
14.0
  0
CIRCLE
  8
FLANSLI_POL_DONANIMI
 10
8383.0
 20
-1575.0
 30
0.0
 40
14.0
  0
TEXT
  8
FLANSLI_POL_DONANIMI
 10
8428.0
 20
-1640.0
 30
0.0
 40
60.0
  1
FLANSLI POL (O 2.5" H=2.0m)
  0
LINE
  8
KABINLER_42U_20U
 10
8008.0
 20
-76.0
 30
0.0
 11
8608.0
 21
-76.0
 31
0.0
  0
LINE
  8
KABINLER_42U_20U
 10
8608.0
 20
-76.0
 30
0.0
 11
8608.0
 21
624.0
 31
0.0
  0
LINE
  8
KABINLER_42U_20U
 10
8608.0
 20
624.0
 30
0.0
 11
8008.0
 21
624.0
 31
0.0
  0
LINE
  8
KABINLER_42U_20U
 10
8008.0
 20
624.0
 30
0.0
 11
8008.0
 21
-76.0
 31
0.0
  0
LINE
  8
POI_MODULLERI
 10
8108.0
 20
144.0
 30
0.0
 11
8508.0
 21
144.0
 31
0.0
  0
LINE
  8
POI_MODULLERI
 10
8508.0
 20
144.0
 30
0.0
 11
8508.0
 21
404.0
 31
0.0
  0
LINE
  8
POI_MODULLERI
 10
8508.0
 20
404.0
 30
0.0
 11
8108.0
 21
404.0
 31
0.0
  0
LINE
  8
POI_MODULLERI
 10
8108.0
 20
404.0
 30
0.0
 11
8108.0
 21
144.0
 31
0.0
  0
TEXT
  8
KABINLER_42U_20U
 10
7908.0
 20
694.0
 30
0.0
 40
60.0
  1
CANOVATE 42U RACK KABIN (CSL-X-42YYA2)
  0
TEXT
  8
POI_MODULLERI
 10
7908.0
 20
764.0
 30
0.0
 40
50.0
  1
6x PROSE 5G NR POI (CB-12-POI-64F-A12)
  0
LINE
  8
RRU_EKIPMANLARI
 10
7908.0
 20
-1598.4
 30
0.0
 11
8708.0
 21
-1598.4
 31
0.0
  0
LINE
  8
RRU_EKIPMANLARI
 10
8708.0
 20
-1598.4
 30
0.0
 11
8708.0
 21
-1098.4
 31
0.0
  0
LINE
  8
RRU_EKIPMANLARI
 10
8708.0
 20
-1098.4
 30
0.0
 11
7908.0
 21
-1098.4
 31
0.0
  0
LINE
  8
RRU_EKIPMANLARI
 10
7908.0
 20
-1098.4
 30
0.0
 11
7908.0
 21
-1598.4
 31
0.0
  0
CIRCLE
  8
RRU_EKIPMANLARI
 10
8068.0
 20
-1348.4
 30
0.0
 40
25.0
  0
LINE
  8
RRU_EKIPMANLARI
 10
7998.0
 20
-1278.4
 30
0.0
 11
8138.0
 21
-1278.4
 31
0.0
  0
LINE
  8
RRU_EKIPMANLARI
 10
8138.0
 20
-1278.4
 30
0.0
 11
8138.0
 21
-1178.4
 31
0.0
  0
LINE
  8
RRU_EKIPMANLARI
 10
8138.0
 20
-1178.4
 30
0.0
 11
7998.0
 21
-1178.4
 31
0.0
  0
LINE
  8
RRU_EKIPMANLARI
 10
7998.0
 20
-1178.4
 30
0.0
 11
7998.0
 21
-1278.4
 31
0.0
  0
CIRCLE
  8
RRU_EKIPMANLARI
 10
8228.0
 20
-1348.4
 30
0.0
 40
25.0
  0
LINE
  8
RRU_EKIPMANLARI
 10
8158.0
 20
-1278.4
 30
0.0
 11
8298.0
 21
-1278.4
 31
0.0
  0
LINE
  8
RRU_EKIPMANLARI
 10
8298.0
 20
-1278.4
 30
0.0
 11
8298.0
 21
-1178.4
 31
0.0
  0
LINE
  8
RRU_EKIPMANLARI
 10
8298.0
 20
-1178.4
 30
0.0
 11
8158.0
 21
-1178.4
 31
0.0
  0
LINE
  8
RRU_EKIPMANLARI
 10
8158.0
 20
-1178.4
 30
0.0
 11
8158.0
 21
-1278.4
 31
0.0
  0
CIRCLE
  8
RRU_EKIPMANLARI
 10
8388.0
 20
-1348.4
 30
0.0
 40
25.0
  0
LINE
  8
RRU_EKIPMANLARI
 10
8318.0
 20
-1278.4
 30
0.0
 11
8458.0
 21
-1278.4
 31
0.0
  0
LINE
  8
RRU_EKIPMANLARI
 10
8458.0
 20
-1278.4
 30
0.0
 11
8458.0
 21
-1178.4
 31
0.0
  0
LINE
  8
RRU_EKIPMANLARI
 10
8458.0
 20
-1178.4
 30
0.0
 11
8318.0
 21
-1178.4
 31
0.0
  0
LINE
  8
RRU_EKIPMANLARI
 10
8318.0
 20
-1178.4
 30
0.0
 11
8318.0
 21
-1278.4
 31
0.0
  0
CIRCLE
  8
RRU_EKIPMANLARI
 10
8548.0
 20
-1348.4
 30
0.0
 40
25.0
  0
LINE
  8
RRU_EKIPMANLARI
 10
8478.0
 20
-1278.4
 30
0.0
 11
8618.0
 21
-1278.4
 31
0.0
  0
LINE
  8
RRU_EKIPMANLARI
 10
8618.0
 20
-1278.4
 30
0.0
 11
8618.0
 21
-1178.4
 31
0.0
  0
LINE
  8
RRU_EKIPMANLARI
 10
8618.0
 20
-1178.4
 30
0.0
 11
8478.0
 21
-1178.4
 31
0.0
  0
LINE
  8
RRU_EKIPMANLARI
 10
8478.0
 20
-1178.4
 30
0.0
 11
8478.0
 21
-1278.4
 31
0.0
  0
TEXT
  8
RRU_EKIPMANLARI
 10
7858.0
 20
-1528.4
 30
0.0
 40
55.0
  1
KARMA RRU (7 RRU: 2x TCELL + 2x TT + 3x VODA)
  0
LINE
  8
OLCUKLER
 10
7708.0
 20
-2000.0
 30
0.0
 11
8908.0
 21
-2000.0
 31
0.0
  0
LINE
  8
OLCUKLER
 10
7708.0
 20
-2040.0
 30
0.0
 11
7708.0
 21
-1960.0
 31
0.0
  0
LINE
  8
OLCUKLER
 10
8908.0
 20
-2040.0
 30
0.0
 11
8908.0
 21
-1960.0
 31
0.0
  0
LINE
  8
OLCUKLER
 10
7688.0
 20
-2020.0
 30
0.0
 11
7728.0
 21
-1980.0
 31
0.0
  0
LINE
  8
OLCUKLER
 10
8888.0
 20
-2020.0
 30
0.0
 11
8928.0
 21
-1980.0
 31
0.0
  0
TEXT
  8
OLCUKLER
 10
7988.0
 20
-1975.0
 30
0.0
 40
60.0
  1
PLATFORM: 1200mm
  0
LINE
  8
OLCUKLER
 10
9108.0
 20
-1850.0
 30
0.0
 11
9108.0
 21
750.0
 31
0.0
  0
LINE
  8
OLCUKLER
 10
9068.0
 20
-1850.0
 30
0.0
 11
9148.0
 21
-1850.0
 31
0.0
  0
LINE
  8
OLCUKLER
 10
9068.0
 20
750.0
 30
0.0
 11
9148.0
 21
750.0
 31
0.0
  0
LINE
  8
OLCUKLER
 10
9088.0
 20
-1870.0
 30
0.0
 11
9128.0
 21
-1830.0
 31
0.0
  0
LINE
  8
OLCUKLER
 10
9088.0
 20
730.0
 30
0.0
 11
9128.0
 21
770.0
 31
0.0
  0
TEXT
  8
OLCUKLER
 10
9133.0
 20
-580.0
 30
0.0
 40
60.0
  1
PLATFORM: 2600mm
 50
90.0
  0
LINE
  8
OLCUKLER
 10
7508.0
 20
-2450.0
 30
0.0
 11
7508.0
 21
1350.0
 31
0.0
  0
LINE
  8
OLCUKLER
 10
7468.0
 20
-2450.0
 30
0.0
 11
7548.0
 21
-2450.0
 31
0.0
  0
LINE
  8
OLCUKLER
 10
7468.0
 20
1350.0
 30
0.0
 11
7548.0
 21
1350.0
 31
0.0
  0
LINE
  8
OLCUKLER
 10
7488.0
 20
-2470.0
 30
0.0
 11
7528.0
 21
-2430.0
 31
0.0
  0
LINE
  8
OLCUKLER
 10
7488.0
 20
1330.0
 30
0.0
 11
7528.0
 21
1370.0
 31
0.0
  0
TEXT
  8
OLCUKLER
 10
7533.0
 20
-580.0
 30
0.0
 40
60.0
  1
HEB 200: 3800mm
 50
90.0
  0
LINE
  8
OLCUKLER
 10
7258.0
 20
-1670.0
 30
0.0
 11
7258.0
 21
550.0
 31
0.0
  0
LINE
  8
OLCUKLER
 10
7218.0
 20
-1670.0
 30
0.0
 11
7298.0
 21
-1670.0
 31
0.0
  0
LINE
  8
OLCUKLER
 10
7218.0
 20
550.0
 30
0.0
 11
7298.0
 21
550.0
 31
0.0
  0
LINE
  8
OLCUKLER
 10
7238.0
 20
-1690.0
 30
0.0
 11
7278.0
 21
-1650.0
 31
0.0
  0
LINE
  8
OLCUKLER
 10
7238.0
 20
530.0
 30
0.0
 11
7278.0
 21
570.0
 31
0.0
  0
TEXT
  8
OLCUKLER
 10
7283.0
 20
-590.0
 30
0.0
 40
60.0
  1
AKSLAR: 2220mm
 50
90.0
  0
TEXT
  8
YAZILAR_ETIKETLER
 10
7608.0
 20
1150.0
 30
0.0
 40
100.0
  1
OZEL ALAN 4 KOMPLEKSI - BLOK 2 (SAG)
  0
ENDSEC
  0
EOF
