  0
SECTION
  2
HEADER
  9
$ACADVER
  1
AC1009
  9
$INSUNITS
 70
     4
  0
ENDSEC
  0
SECTION
  2
TABLES
  0
TABLE
  2
LTYPE
 70
     2
  0
LTYPE
  2
CONTINUOUS
 70
     0
  3
Solid line
 72
    65
 73
     0
 40
0.0
  0
LTYPE
  2
DASHED
 70
     0
  3
__ __ __ __
 72
    65
 73
     2
 40
100.0
 49
75.0
 49
-25.0
  0
ENDTAB
  0
TABLE
  2
LAYER
 70
12
  0
LAYER
  2
0
 70
     0
 62
7
  6
CONTINUOUS
  0
LAYER
  2
KEDI_YOLU_REFERANS
 70
     0
 62
8
  6
DASHED
  0
LAYER
  2
TASICI_BORULAR_SILINDIRLER
 70
     0
 62
4
  6
CONTINUOUS
  0
LAYER
  2
CELIK_KIRISLER_HEB200
 70
     0
 62
1
  6
CONTINUOUS
  0
LAYER
  2
PLATFORM_TABLALARI
 70
     0
 62
7
  6
CONTINUOUS
  0
LAYER
  2
GUVENLIK_KORKULUKLARI
 70
     0
 62
2
  6
CONTINUOUS
  0
LAYER
  2
FLANSLI_POL_DONANIMI
 70
     0
 62
3
  6
CONTINUOUS
  0
LAYER
  2
KABINLER_42U_20U
 70
     0
 62
6
  6
CONTINUOUS
  0
LAYER
  2
POI_MODULLERI
 70
     0
 62
30
  6
CONTINUOUS
  0
LAYER
  2
RRU_EKIPMANLARI
 70
     0
 62
5
  6
CONTINUOUS
  0
LAYER
  2
OLCUKLER
 70
     0
 62
2
  6
CONTINUOUS
  0
LAYER
  2
YAZILAR_ETIKETLER
 70
     0
 62
7
  6
CONTINUOUS
  0
ENDTAB
  0
ENDSEC
  0
SECTION
  2
BLOCKS
  0
ENDSEC
  0
SECTION
  2
ENTITIES
  0
LINE
  8
KEDI_YOLU_REFERANS
 10
-3500.0
 20
550.0
 30
0.0
 11
3500.0
 21
550.0
 31
0.0
  0
LINE
  8
KEDI_YOLU_REFERANS
 10
-3500.0
 20
-550.0
 30
0.0
 11
3500.0
 21
-550.0
 31
0.0
  0
LINE
  8
KEDI_YOLU_REFERANS
 10
-3500.0
 20
0.0
 30
0.0
 11
3500.0
 21
0.0
 31
0.0
  0
LINE
  8
KEDI_YOLU_REFERANS
 10
-3000.0
 20
-550.0
 30
0.0
 11
-3000.0
 21
550.0
 31
0.0
  0
LINE
  8
KEDI_YOLU_REFERANS
 10
-2000.0
 20
-550.0
 30
0.0
 11
-2000.0
 21
550.0
 31
0.0
  0
LINE
  8
KEDI_YOLU_REFERANS
 10
-1000.0
 20
-550.0
 30
0.0
 11
-1000.0
 21
550.0
 31
0.0
  0
LINE
  8
KEDI_YOLU_REFERANS
 10
0.0
 20
-550.0
 30
0.0
 11
0.0
 21
550.0
 31
0.0
  0
LINE
  8
KEDI_YOLU_REFERANS
 10
1000.0
 20
-550.0
 30
0.0
 11
1000.0
 21
550.0
 31
0.0
  0
LINE
  8
KEDI_YOLU_REFERANS
 10
2000.0
 20
-550.0
 30
0.0
 11
2000.0
 21
550.0
 31
0.0
  0
LINE
  8
KEDI_YOLU_REFERANS
 10
3000.0
 20
-550.0
 30
0.0
 11
3000.0
 21
550.0
 31
0.0
  0
TEXT
  8
KEDI_YOLU_REFERANS
 10
-1200.0
 20
20.0
 30
0.0
 40
90.0
  1
MEVCUT KEDI YOLU HATTI (W=1100mm)
  0
LINE
  8
TASICI_BORULAR_SILINDIRLER
 10
-3000.0
 20
-1420.5
 30
0.0
 11
3000.0
 21
-1420.5
 31
0.0
  0
LINE
  8
TASICI_BORULAR_SILINDIRLER
 10
-3000.0
 20
-950.5
 30
0.0
 11
3000.0
 21
-950.5
 31
0.0
  0
LINE
  8
TASICI_BORULAR_SILINDIRLER
 10
-3000.0
 20
-1185.5
 30
0.0
 11
3000.0
 21
-1185.5
 31
0.0
  0
TEXT
  8
TASICI_BORULAR_SILINDIRLER
 10
-1200.0
 20
-1585.5
 30
0.0
 40
80.0
  1
ALAN 1 TASICI BORU (O 470mm)
  0
LINE
  8
CELIK_KIRISLER_HEB200
 10
447.5
 20
-1785.5
 30
0.0
 11
447.5
 21
-585.5
 31
0.0
  0
LINE
  8
CELIK_KIRISLER_HEB200
 10
527.5
 20
-1785.5
 30
0.0
 11
527.5
 21
-585.5
 31
0.0
  0
LINE
  8
CELIK_KIRISLER_HEB200
 10
447.5
 20
-1785.5
 30
0.0
 11
527.5
 21
-1785.5
 31
0.0
  0
LINE
  8
CELIK_KIRISLER_HEB200
 10
447.5
 20
-585.5
 30
0.0
 11
527.5
 21
-585.5
 31
0.0
  0
LINE
  8
CELIK_KIRISLER_HEB200
 10
-352.5
 20
-1785.5
 30
0.0
 11
-352.5
 21
-585.5
 31
0.0
  0
LINE
  8
CELIK_KIRISLER_HEB200
 10
-272.5
 20
-1785.5
 30
0.0
 11
-272.5
 21
-585.5
 31
0.0
  0
LINE
  8
CELIK_KIRISLER_HEB200
 10
-352.5
 20
-1785.5
 30
0.0
 11
-272.5
 21
-1785.5
 31
0.0
  0
LINE
  8
CELIK_KIRISLER_HEB200
 10
-352.5
 20
-585.5
 30
0.0
 11
-272.5
 21
-585.5
 31
0.0
  0
LINE
  8
CELIK_KIRISLER_HEB200
 10
-1152.5
 20
-1785.5
 30
0.0
 11
-1152.5
 21
-585.5
 31
0.0
  0
LINE
  8
CELIK_KIRISLER_HEB200
 10
-1072.5
 20
-1785.5
 30
0.0
 11
-1072.5
 21
-585.5
 31
0.0
  0
LINE
  8
CELIK_KIRISLER_HEB200
 10
-1152.5
 20
-1785.5
 30
0.0
 11
-1072.5
 21
-1785.5
 31
0.0
  0
LINE
  8
CELIK_KIRISLER_HEB200
 10
-1152.5
 20
-585.5
 30
0.0
 11
-1072.5
 21
-585.5
 31
0.0
  0
LINE
  8
CELIK_KIRISLER_HEB200
 10
-1952.5
 20
-1785.5
 30
0.0
 11
-1952.5
 21
-585.5
 31
0.0
  0
LINE
  8
CELIK_KIRISLER_HEB200
 10
-1872.5
 20
-1785.5
 30
0.0
 11
-1872.5
 21
-585.5
 31
0.0
  0
LINE
  8
CELIK_KIRISLER_HEB200
 10
-1952.5
 20
-1785.5
 30
0.0
 11
-1872.5
 21
-1785.5
 31
0.0
  0
LINE
  8
CELIK_KIRISLER_HEB200
 10
-1952.5
 20
-585.5
 30
0.0
 11
-1872.5
 21
-585.5
 31
0.0
  0
LINE
  8
PLATFORM_TABLALARI
 10
-1912.5
 20
-1785.5
 30
0.0
 11
487.5
 21
-1785.5
 31
0.0
  0
LINE
  8
PLATFORM_TABLALARI
 10
487.5
 20
-1785.5
 30
0.0
 11
487.5
 21
-585.5
 31
0.0
  0
LINE
  8
PLATFORM_TABLALARI
 10
487.5
 20
-585.5
 30
0.0
 11
-1912.5
 21
-585.5
 31
0.0
  0
LINE
  8
PLATFORM_TABLALARI
 10
-1912.5
 20
-585.5
 30
0.0
 11
-1912.5
 21
-1785.5
 31
0.0
  0
TEXT
  8
PLATFORM_TABLALARI
 10
-1212.5
 20
-1685.5
 30
0.0
 40
70.0
  1
RRU SAHA TABLASI (120cm)
  0
LINE
  8
GUVENLIK_KORKULUKLARI
 10
-1937.5
 20
-1810.5
 30
0.0
 11
512.5
 21
-1810.5
 31
0.0
  0
LINE
  8
GUVENLIK_KORKULUKLARI
 10
512.5
 20
-1810.5
 30
0.0
 11
512.5
 21
-560.5
 31
0.0
  0
LINE
  8
GUVENLIK_KORKULUKLARI
 10
512.5
 20
-560.5
 30
0.0
 11
-1937.5
 21
-560.5
 31
0.0
  0
LINE
  8
GUVENLIK_KORKULUKLARI
 10
-1937.5
 20
-560.5
 30
0.0
 11
-1937.5
 21
-1810.5
 31
0.0
  0
LINE
  8
FLANSLI_POL_DONANIMI
 10
387.5
 20
-1285.5
 30
0.0
 11
587.5
 21
-1285.5
 31
0.0
  0
LINE
  8
FLANSLI_POL_DONANIMI
 10
587.5
 20
-1285.5
 30
0.0
 11
587.5
 21
-1085.5
 31
0.0
  0
LINE
  8
FLANSLI_POL_DONANIMI
 10
587.5
 20
-1085.5
 30
0.0
 11
387.5
 21
-1085.5
 31
0.0
  0
LINE
  8
FLANSLI_POL_DONANIMI
 10
387.5
 20
-1085.5
 30
0.0
 11
387.5
 21
-1285.5
 31
0.0
  0
CIRCLE
  8
FLANSLI_POL_DONANIMI
 10
487.5
 20
-1185.5
 30
0.0
 40
31.8
  0
CIRCLE
  8
FLANSLI_POL_DONANIMI
 10
427.5
 20
-1245.5
 30
0.0
 40
10.0
  0
CIRCLE
  8
FLANSLI_POL_DONANIMI
 10
427.5
 20
-1125.5
 30
0.0
 40
10.0
  0
CIRCLE
  8
FLANSLI_POL_DONANIMI
 10
547.5
 20
-1245.5
 30
0.0
 40
10.0
  0
CIRCLE
  8
FLANSLI_POL_DONANIMI
 10
547.5
 20
-1125.5
 30
0.0
 40
10.0
  0
TEXT
  8
FLANSLI_POL_DONANIMI
 10
487.5
 20
-1025.5
 30
0.0
 40
60.0
  1
FLANSLI POL (O 2.5" H=2.0m)
  0
LINE
  8
RRU_EKIPMANLARI
 10
-234.2
 20
-1435.5
 30
0.0
 11
565.8
 21
-1435.5
 31
0.0
  0
LINE
  8
RRU_EKIPMANLARI
 10
565.8
 20
-1435.5
 30
0.0
 11
565.8
 21
-935.5
 31
0.0
  0
LINE
  8
RRU_EKIPMANLARI
 10
565.8
 20
-935.5
 30
0.0
 11
-234.2
 21
-935.5
 31
0.0
  0
LINE
  8
RRU_EKIPMANLARI
 10
-234.2
 20
-935.5
 30
0.0
 11
-234.2
 21
-1435.5
 31
0.0
  0
TEXT
  8
RRU_EKIPMANLARI
 10
-184.2
 20
-1365.5
 30
0.0
 40
60.0
  1
KARMA RRU BLOGU (4 BORULU - 7 RRU)
  0
CIRCLE
  8
RRU_EKIPMANLARI
 10
-74.2
 20
-1185.5
 30
0.0
 40
25.0
  0
LINE
  8
RRU_EKIPMANLARI
 10
-144.2
 20
-1115.5
 30
0.0
 11
-4.2
 21
-1115.5
 31
0.0
  0
LINE
  8
RRU_EKIPMANLARI
 10
-4.2
 20
-1115.5
 30
0.0
 11
-4.2
 21
-1015.5
 31
0.0
  0
LINE
  8
RRU_EKIPMANLARI
 10
-4.2
 20
-1015.5
 30
0.0
 11
-144.2
 21
-1015.5
 31
0.0
  0
LINE
  8
RRU_EKIPMANLARI
 10
-144.2
 20
-1015.5
 30
0.0
 11
-144.2
 21
-1115.5
 31
0.0
  0
CIRCLE
  8
RRU_EKIPMANLARI
 10
85.8
 20
-1185.5
 30
0.0
 40
25.0
  0
LINE
  8
RRU_EKIPMANLARI
 10
15.8
 20
-1115.5
 30
0.0
 11
155.8
 21
-1115.5
 31
0.0
  0
LINE
  8
RRU_EKIPMANLARI
 10
155.8
 20
-1115.5
 30
0.0
 11
155.8
 21
-1015.5
 31
0.0
  0
LINE
  8
RRU_EKIPMANLARI
 10
155.8
 20
-1015.5
 30
0.0
 11
15.8
 21
-1015.5
 31
0.0
  0
LINE
  8
RRU_EKIPMANLARI
 10
15.8
 20
-1015.5
 30
0.0
 11
15.8
 21
-1115.5
 31
0.0
  0
CIRCLE
  8
RRU_EKIPMANLARI
 10
245.8
 20
-1185.5
 30
0.0
 40
25.0
  0
LINE
  8
RRU_EKIPMANLARI
 10
175.8
 20
-1115.5
 30
0.0
 11
315.8
 21
-1115.5
 31
0.0
  0
LINE
  8
RRU_EKIPMANLARI
 10
315.8
 20
-1115.5
 30
0.0
 11
315.8
 21
-1015.5
 31
0.0
  0
LINE
  8
RRU_EKIPMANLARI
 10
315.8
 20
-1015.5
 30
0.0
 11
175.8
 21
-1015.5
 31
0.0
  0
LINE
  8
RRU_EKIPMANLARI
 10
175.8
 20
-1015.5
 30
0.0
 11
175.8
 21
-1115.5
 31
0.0
  0
CIRCLE
  8
RRU_EKIPMANLARI
 10
405.8
 20
-1185.5
 30
0.0
 40
25.0
  0
LINE
  8
RRU_EKIPMANLARI
 10
335.8
 20
-1115.5
 30
0.0
 11
475.8
 21
-1115.5
 31
0.0
  0
LINE
  8
RRU_EKIPMANLARI
 10
475.8
 20
-1115.5
 30
0.0
 11
475.8
 21
-1015.5
 31
0.0
  0
LINE
  8
RRU_EKIPMANLARI
 10
475.8
 20
-1015.5
 30
0.0
 11
335.8
 21
-1015.5
 31
0.0
  0
LINE
  8
RRU_EKIPMANLARI
 10
335.8
 20
-1015.5
 30
0.0
 11
335.8
 21
-1115.5
 31
0.0
  0
TEXT
  8
RRU_EKIPMANLARI
 10
-214.2
 20
-1165.5
 30
0.0
 40
50.0
  1
4x Alt Kot RRU (Turkcell 5301/5502 + TT 5527/5818W)
  0
TEXT
  8
RRU_EKIPMANLARI
 10
-214.2
 20
-1105.5
 30
0.0
 40
50.0
  1
3x Ust Kot RRU (Vodafone 5526t x3)
  0
LINE
  8
KABINLER_42U_20U
 10
-1862.7
 20
-1279.9
 30
0.0
 11
-1262.7
 21
-1279.9
 31
0.0
  0
LINE
  8
KABINLER_42U_20U
 10
-1262.7
 20
-1279.9
 30
0.0
 11
-1262.7
 21
-679.9
 31
0.0
  0
LINE
  8
KABINLER_42U_20U
 10
-1262.7
 20
-679.9
 30
0.0
 11
-1862.7
 21
-679.9
 31
0.0
  0
LINE
  8
KABINLER_42U_20U
 10
-1862.7
 20
-679.9
 30
0.0
 11
-1862.7
 21
-1279.9
 31
0.0
  0
LINE
  8
POI_MODULLERI
 10
-1762.7
 20
-1109.9
 30
0.0
 11
-1362.7
 21
-1109.9
 31
0.0
  0
LINE
  8
POI_MODULLERI
 10
-1362.7
 20
-1109.9
 30
0.0
 11
-1362.7
 21
-849.9
 31
0.0
  0
LINE
  8
POI_MODULLERI
 10
-1362.7
 20
-849.9
 30
0.0
 11
-1762.7
 21
-849.9
 31
0.0
  0
LINE
  8
POI_MODULLERI
 10
-1762.7
 20
-849.9
 30
0.0
 11
-1762.7
 21
-1109.9
 31
0.0
  0
TEXT
  8
KABINLER_42U_20U
 10
-1812.7
 20
-1159.9
 30
0.0
 40
60.0
  1
20U POI KABIN 1
  0
TEXT
  8
POI_MODULLERI
 10
-1842.7
 20
-1229.9
 30
0.0
 40
50.0
  1
3x PROSE POI (CB-12-POI-64F-A12)
  0
LINE
  8
KABINLER_42U_20U
 10
-1867.3
 20
-1760.6
 30
0.0
 11
-1267.3
 21
-1760.6
 31
0.0
  0
LINE
  8
KABINLER_42U_20U
 10
-1267.3
 20
-1760.6
 30
0.0
 11
-1267.3
 21
-1160.6
 31
0.0
  0
LINE
  8
KABINLER_42U_20U
 10
-1267.3
 20
-1160.6
 30
0.0
 11
-1867.3
 21
-1160.6
 31
0.0
  0
LINE
  8
KABINLER_42U_20U
 10
-1867.3
 20
-1160.6
 30
0.0
 11
-1867.3
 21
-1760.6
 31
0.0
  0
LINE
  8
POI_MODULLERI
 10
-1767.3
 20
-1590.6
 30
0.0
 11
-1367.3
 21
-1590.6
 31
0.0
  0
LINE
  8
POI_MODULLERI
 10
-1367.3
 20
-1590.6
 30
0.0
 11
-1367.3
 21
-1330.6
 31
0.0
  0
LINE
  8
POI_MODULLERI
 10
-1367.3
 20
-1330.6
 30
0.0
 11
-1767.3
 21
-1330.6
 31
0.0
  0
LINE
  8
POI_MODULLERI
 10
-1767.3
 20
-1330.6
 30
0.0
 11
-1767.3
 21
-1590.6
 31
0.0
  0
TEXT
  8
KABINLER_42U_20U
 10
-1817.3
 20
-1640.6
 30
0.0
 40
60.0
  1
20U POI KABIN 2
  0
TEXT
  8
POI_MODULLERI
 10
-1847.3
 20
-1710.6
 30
0.0
 40
50.0
  1
3x PROSE POI (CB-12-POI-64F-A12)
  0
LINE
  8
OLCUKLER
 10
-1867.3
 20
-1985.5
 30
0.0
 11
687.5
 21
-1985.5
 31
0.0
  0
LINE
  8
OLCUKLER
 10
-1867.3
 20
-2025.5
 30
0.0
 11
-1867.3
 21
-1945.5
 31
0.0
  0
LINE
  8
OLCUKLER
 10
687.5
 20
-2025.5
 30
0.0
 11
687.5
 21
-1945.5
 31
0.0
  0
LINE
  8
OLCUKLER
 10
-1887.3
 20
-2005.5
 30
0.0
 11
-1847.3
 21
-1965.5
 31
0.0
  0
LINE
  8
OLCUKLER
 10
667.5
 20
-2005.5
 30
0.0
 11
707.5
 21
-1965.5
 31
0.0
  0
TEXT
  8
OLCUKLER
 10
-669.9
 20
-1960.5
 30
0.0
 40
60.0
  1
2555
  0
LINE
  8
OLCUKLER
 10
987.5
 20
-1785.5
 30
0.0
 11
987.5
 21
-585.5
 31
0.0
  0
LINE
  8
OLCUKLER
 10
947.5
 20
-1785.5
 30
0.0
 11
1027.5
 21
-1785.5
 31
0.0
  0
LINE
  8
OLCUKLER
 10
947.5
 20
-585.5
 30
0.0
 11
1027.5
 21
-585.5
 31
0.0
  0
LINE
  8
OLCUKLER
 10
967.5
 20
-1805.5
 30
0.0
 11
1007.5
 21
-1765.5
 31
0.0
  0
LINE
  8
OLCUKLER
 10
967.5
 20
-605.5
 30
0.0
 11
1007.5
 21
-565.5
 31
0.0
  0
TEXT
  8
OLCUKLER
 10
1012.5
 20
-1215.5
 30
0.0
 40
60.0
  1
1200
 50
90.0
  0
ENDSEC
  0
EOF
