0
SECTION
2
HEADER
9
$HANDSEED
5
C3C4
9
$INSUNITS
70
6
9
$ACADVER
1
AC1021
9
$DWGCODEPAGE
3
UTF-8
0
ENDSEC
0
SECTION
2
CLASSES
0
ENDSEC
0
SECTION
2
TABLES
0
TABLE
2
LTYPE
5
C3C2
330
0
100
AcDbSymbolTable
70
5
0
LTYPE
5
C2B5
330
C3C2
100
AcDbSymbolTableRecord
100
AcDbLinetypeTableRecord
2
CONTINUOUS
3
______
70
0
72
65
73
0
40
0
0
LTYPE
5
C2B6
330
C3C2
100
AcDbSymbolTableRecord
100
AcDbLinetypeTableRecord
2
DASHED
3
_ _ _ 
70
0
72
65
73
2
40
10
49
5
74
0
49
-5
74
0
0
LTYPE
5
C2B7
330
C3C2
100
AcDbSymbolTableRecord
100
AcDbLinetypeTableRecord
2
DOTTED
3
. . . 
70
0
72
65
73
2
40
5
49
0
74
0
49
-5
74
0
0
LTYPE
5
C2B9
330
C3C2
100
AcDbSymbolTableRecord
100
AcDbLinetypeTableRecord
2
ByBlock
3

70
0
72
65
73
0
40
0
0
LTYPE
5
C2BA
330
C3C2
100
AcDbSymbolTableRecord
100
AcDbLinetypeTableRecord
2
ByLayer
3

70
0
72
65
73
0
40
0
0
ENDTAB
0
TABLE
2
LAYER
5
C3C3
330
0
100
AcDbSymbolTable
70
21
0
LAYER
5
C2B8
330
C3C3
100
AcDbSymbolTableRecord
100
AcDbLayerTableRecord
2
0
62
7
70
0
6
CONTINUOUS
390
1
0
LAYER
5
C2CB
330
C3C3
100
AcDbSymbolTableRecord
100
AcDbLayerTableRecord
2
ZEMIN_PLATFORM
62
8
70
0
6
CONTINUOUS
390
1
0
LAYER
5
C2CC
330
C3C3
100
AcDbSymbolTableRecord
100
AcDbLayerTableRecord
2
KORKULUK_KAPI
62
4
70
0
6
CONTINUOUS
390
1
0
LAYER
5
C2CD
330
C3C3
100
AcDbSymbolTableRecord
100
AcDbLayerTableRecord
2
CELIK_KIRIS_KOLON
62
9
70
0
6
CONTINUOUS
390
1
0
LAYER
5
C2CE
330
C3C3
100
AcDbSymbolTableRecord
100
AcDbLayerTableRecord
2
MONTAJ_BORULARI
62
2
70
0
6
CONTINUOUS
390
1
0
LAYER
5
C2CF
330
C3C3
100
AcDbSymbolTableRecord
100
AcDbLayerTableRecord
2
KABLO_TAVALARI
62
6
70
0
6
CONTINUOUS
390
1
0
LAYER
5
C2D0
330
C3C3
100
AcDbSymbolTableRecord
100
AcDbLayerTableRecord
2
YURUYUS_KORIDORU
62
3
70
0
6
DASHED
390
1
0
LAYER
5
C2D1
330
C3C3
100
AcDbSymbolTableRecord
100
AcDbLayerTableRecord
2
OLCULER
62
1
70
0
6
CONTINUOUS
390
1
0
LAYER
5
C2D2
330
C3C3
100
AcDbSymbolTableRecord
100
AcDbLayerTableRecord
2
METIN_BILGI
62
7
70
0
6
CONTINUOUS
390
1
0
LAYER
5
C2D3
330
C3C3
100
AcDbSymbolTableRecord
100
AcDbLayerTableRecord
2
EKP_TURKCELL_RRU
62
5
70
0
6
CONTINUOUS
390
1
0
LAYER
5
C2D4
330
C3C3
100
AcDbSymbolTableRecord
100
AcDbLayerTableRecord
2
EKP_VODAFONE_RRU
62
1
70
0
6
CONTINUOUS
390
1
0
LAYER
5
C2D5
330
C3C3
100
AcDbSymbolTableRecord
100
AcDbLayerTableRecord
2
EKP_TURK_TELEKOM_RRU
62
4
70
0
6
CONTINUOUS
390
1
0
LAYER
5
C2D6
330
C3C3
100
AcDbSymbolTableRecord
100
AcDbLayerTableRecord
2
EKP_POI_TASIYICI_SASE
62
30
70
0
6
CONTINUOUS
390
1
0
LAYER
5
C2D7
330
C3C3
100
AcDbSymbolTableRecord
100
AcDbLayerTableRecord
2
EKP_POI_MODULLERI
62
40
70
0
6
CONTINUOUS
390
1
0
LAYER
5
C2D8
330
C3C3
100
AcDbSymbolTableRecord
100
AcDbLayerTableRecord
2
EKP_RECTIFIER_ELTEK_20U
62
3
70
0
6
CONTINUOUS
390
1
0
LAYER
5
C2D9
330
C3C3
100
AcDbSymbolTableRecord
100
AcDbLayerTableRecord
2
EKP_RECTIFIER_MTS9304A
62
94
70
0
6
CONTINUOUS
390
1
0
LAYER
5
C2DA
330
C3C3
100
AcDbSymbolTableRecord
100
AcDbLayerTableRecord
2
BLOK_OZEL_PLATFORM
62
140
70
0
6
CONTINUOUS
390
1
0
LAYER
5
C2DB
330
C3C3
100
AcDbSymbolTableRecord
100
AcDbLayerTableRecord
2
EKP_MATSING_ANTEN
62
2
70
0
6
CONTINUOUS
390
1
0
LAYER
5
C2DC
330
C3C3
100
AcDbSymbolTableRecord
100
AcDbLayerTableRecord
2
EKP_PANEL_ANTEN
62
6
70
0
6
CONTINUOUS
390
1
0
LAYER
5
C2DD
330
C3C3
100
AcDbSymbolTableRecord
100
AcDbLayerTableRecord
2
EKP_ANTEN_TASIYICI_KOL
62
141
70
0
6
CONTINUOUS
390
1
0
LAYER
5
C2DE
330
C3C3
100
AcDbSymbolTableRecord
100
AcDbLayerTableRecord
2
EKP_DIGER_EKIPMANLAR
62
7
70
0
6
CONTINUOUS
390
1
0
ENDTAB
0
TABLE
2
VPORT
5
C2BB
330
0
100
AcDbSymbolTable
70
1
0
VPORT
5
C2C1
330
C2BB
100
AcDbSymbolTableRecord
100
AcDbViewportTableRecord
2
*ACTIVE
40
1000
70
0
0
ENDTAB
0
TABLE
2
STYLE
5
C2BC
330
0
100
AcDbSymbolTable
70
3
0
STYLE
5
C2C2
330
C2BC
100
AcDbSymbolTableRecord
100
AcDbTextStyleTableRecord
2
standard
70
0
40
0
41
1
50
0
71
0
42
1
3
calibrib.ttf
4

1001
ACAD
1000
Calibri
1071
33554466
0
STYLE
5
C2C3
330
C2BC
100
AcDbSymbolTableRecord
100
AcDbTextStyleTableRecord
2
STANDARD
70
0
40
0
41
1
50
0
71
0
42
1
3
calibrib.ttf
4

1001
ACAD
1000
Calibri
1071
33554466
0
STYLE
5
C2C4
330
C2BC
100
AcDbSymbolTableRecord
100
AcDbTextStyleTableRecord
2
CALIBRI_BOLD
70
0
40
0
41
1
50
0
71
0
42
1
3
calibrib.ttf
4

1001
ACAD
1000
Calibri
1071
33554466
0
ENDTAB
0
TABLE
2
VIEW
5
C2BD
330
0
100
AcDbSymbolTable
70
0
0
ENDTAB
0
TABLE
2
UCS
5
C2BE
330
0
100
AcDbSymbolTable
70
0
0
ENDTAB
0
TABLE
2
APPID
5
C2BF
330
0
100
AcDbSymbolTable
70
1
0
APPID
5
C2C5
330
C2BF
100
AcDbSymbolTableRecord
100
AcDbRegAppTableRecord
2
ACAD
70
0
0
ENDTAB
0
TABLE
2
DIMSTYLE
5
C2C0
330
0
100
AcDbSymbolTable
100
AcDbDimStyleTable
70
0
71
1
0
ENDTAB
0
TABLE
2
BLOCK_RECORD
5
C3BF
330
0
100
AcDbSymbolTable
70
2
0
BLOCK_RECORD
5
C3C0
330
C3BF
100
AcDbSymbolTableRecord
100
AcDbBlockTableRecord
2
*Model_Space
70
0
280
0
281
1
0
BLOCK_RECORD
5
C3C1
330
C3BF
100
AcDbSymbolTableRecord
100
AcDbBlockTableRecord
2
*Paper_Space
70
0
280
0
281
1
0
ENDTAB
0
ENDSEC
0
SECTION
2
BLOCKS
0
BLOCK
5
C2C6
330
0
100
AcDbEntity
100
AcDbBlockBegin
2
*Model_Space
70
0
10
0
20
0
30
0
3
*Model_Space
1

0
ENDBLK
5
C2C7
330
0
100
AcDbEntity
100
AcDbBlockEnd
0
BLOCK
5
C2C8
330
0
100
AcDbEntity
100
AcDbBlockBegin
2
*Paper_Space
70
0
10
0
20
0
30
0
3
*Paper_Space
1

0
ENDBLK
5
C2C9
330
0
100
AcDbEntity
100
AcDbBlockEnd
0
ENDSEC
0
SECTION
2
ENTITIES
0
LWPOLYLINE
5
C2DF
330
C2C6
100
AcDbEntity
100
AcDbPolyline
8
ZEMIN_PLATFORM
6
ByLayer
62
256
370
-1
90
4
70
1
10
-12.5
20
0
10
-12.5
20
2
10
12.5
20
2
10
12.5
20
0
0
LINE
5
C2E0
330
C2C6
100
AcDbEntity
100
AcDbLine
8
ZEMIN_PLATFORM
10
-12
20
0
30
0
11
-12
21
2
31
0
0
LINE
5
C2E1
330
C2C6
100
AcDbEntity
100
AcDbLine
8
ZEMIN_PLATFORM
10
-11
20
0
30
0
11
-11
21
2
31
0
0
LINE
5
C2E2
330
C2C6
100
AcDbEntity
100
AcDbLine
8
ZEMIN_PLATFORM
10
-10
20
0
30
0
11
-10
21
2
31
0
0
LINE
5
C2E3
330
C2C6
100
AcDbEntity
100
AcDbLine
8
ZEMIN_PLATFORM
10
-9
20
0
30
0
11
-9
21
2
31
0
0
LINE
5
C2E4
330
C2C6
100
AcDbEntity
100
AcDbLine
8
ZEMIN_PLATFORM
10
-8
20
0
30
0
11
-8
21
2
31
0
0
LINE
5
C2E5
330
C2C6
100
AcDbEntity
100
AcDbLine
8
ZEMIN_PLATFORM
10
-7
20
0
30
0
11
-7
21
2
31
0
0
LINE
5
C2E6
330
C2C6
100
AcDbEntity
100
AcDbLine
8
ZEMIN_PLATFORM
10
-6
20
0
30
0
11
-6
21
2
31
0
0
LINE
5
C2E7
330
C2C6
100
AcDbEntity
100
AcDbLine
8
ZEMIN_PLATFORM
10
-5
20
0
30
0
11
-5
21
2
31
0
0
LINE
5
C2E8
330
C2C6
100
AcDbEntity
100
AcDbLine
8
ZEMIN_PLATFORM
10
-4
20
0
30
0
11
-4
21
2
31
0
0
LINE
5
C2E9
330
C2C6
100
AcDbEntity
100
AcDbLine
8
ZEMIN_PLATFORM
10
-3
20
0
30
0
11
-3
21
2
31
0
0
LINE
5
C2EA
330
C2C6
100
AcDbEntity
100
AcDbLine
8
ZEMIN_PLATFORM
10
-2
20
0
30
0
11
-2
21
2
31
0
0
LINE
5
C2EB
330
C2C6
100
AcDbEntity
100
AcDbLine
8
ZEMIN_PLATFORM
10
-1
20
0
30
0
11
-1
21
2
31
0
0
LINE
5
C2EC
330
C2C6
100
AcDbEntity
100
AcDbLine
8
ZEMIN_PLATFORM
10
0
20
0
30
0
11
0
21
2
31
0
0
LINE
5
C2ED
330
C2C6
100
AcDbEntity
100
AcDbLine
8
ZEMIN_PLATFORM
10
1
20
0
30
0
11
1
21
2
31
0
0
LINE
5
C2EE
330
C2C6
100
AcDbEntity
100
AcDbLine
8
ZEMIN_PLATFORM
10
2
20
0
30
0
11
2
21
2
31
0
0
LINE
5
C2EF
330
C2C6
100
AcDbEntity
100
AcDbLine
8
ZEMIN_PLATFORM
10
3
20
0
30
0
11
3
21
2
31
0
0
LINE
5
C2F0
330
C2C6
100
AcDbEntity
100
AcDbLine
8
ZEMIN_PLATFORM
10
4
20
0
30
0
11
4
21
2
31
0
0
LINE
5
C2F1
330
C2C6
100
AcDbEntity
100
AcDbLine
8
ZEMIN_PLATFORM
10
5
20
0
30
0
11
5
21
2
31
0
0
LINE
5
C2F2
330
C2C6
100
AcDbEntity
100
AcDbLine
8
ZEMIN_PLATFORM
10
6
20
0
30
0
11
6
21
2
31
0
0
LINE
5
C2F3
330
C2C6
100
AcDbEntity
100
AcDbLine
8
ZEMIN_PLATFORM
10
7
20
0
30
0
11
7
21
2
31
0
0
LINE
5
C2F4
330
C2C6
100
AcDbEntity
100
AcDbLine
8
ZEMIN_PLATFORM
10
8
20
0
30
0
11
8
21
2
31
0
0
LINE
5
C2F5
330
C2C6
100
AcDbEntity
100
AcDbLine
8
ZEMIN_PLATFORM
10
9
20
0
30
0
11
9
21
2
31
0
0
LINE
5
C2F6
330
C2C6
100
AcDbEntity
100
AcDbLine
8
ZEMIN_PLATFORM
10
10
20
0
30
0
11
10
21
2
31
0
0
LINE
5
C2F7
330
C2C6
100
AcDbEntity
100
AcDbLine
8
ZEMIN_PLATFORM
10
11
20
0
30
0
11
11
21
2
31
0
0
LINE
5
C2F8
330
C2C6
100
AcDbEntity
100
AcDbLine
8
ZEMIN_PLATFORM
10
12
20
0
30
0
11
12
21
2
31
0
0
LWPOLYLINE
5
C372
330
C2C6
100
AcDbEntity
100
AcDbPolyline
8
ZEMIN_PLATFORM
6
ByLayer
62
256
370
-1
90
4
70
1
10
-12.5
20
-6.4
10
-12.5
20
-6
10
12.5
20
-6
10
12.5
20
-6.4
0
LINE
5
C373
330
C2C6
100
AcDbEntity
100
AcDbLine
8
ZEMIN_PLATFORM
10
-12.5
20
-6
30
0
11
12.5
21
-6
31
0
0
LWPOLYLINE
5
C2F9
330
C2C6
100
AcDbEntity
100
AcDbPolyline
8
KORKULUK_KAPI
6
ByLayer
62
256
370
-1
90
4
70
1
10
-4.3
20
0.05
10
-4.3
20
1.9500000000000002
10
-1.7999999999999998
20
1.9500000000000002
10
-1.7999999999999998
20
0.05
0
LWPOLYLINE
5
C2FA
330
C2C6
100
AcDbEntity
100
AcDbPolyline
8
KORKULUK_KAPI
6
ByLayer
62
256
370
-1
90
4
70
1
10
-4.15
20
0.04
10
-4.15
20
0.065
10
-3.0500000000000003
20
0.065
10
-3.0500000000000003
20
0.04
0
LWPOLYLINE
5
C2FB
330
C2C6
100
AcDbEntity
100
AcDbPolyline
8
KORKULUK_KAPI
6
ByLayer
62
256
370
-1
90
4
70
1
10
-3.0500000000000003
20
0.07
10
-3.0500000000000003
20
0.095
10
-1.9500000000000002
20
0.095
10
-1.9500000000000002
20
0.07
0
TEXT
5
C2FC
330
C2C6
100
AcDbEntity
100
AcDbText
8
KORKULUK_KAPI
10
-3.0500000000000003
20
1
30
0
40
0.16
1
2.50m OZEL KORUMALI ALAN (110cm KAYAR KAPILAR)
50
0
7
STANDARD
72
1
11
-3.0500000000000003
21
1
31
0
100
AcDbText
73
0
0
LINE
5
C2FD
330
C2C6
100
AcDbEntity
100
AcDbLine
8
KORKULUK_KAPI
10
-12.5
20
0.05
30
0
11
-4.3
21
0.05
31
0
0
LINE
5
C2FE
330
C2C6
100
AcDbEntity
100
AcDbLine
8
KORKULUK_KAPI
10
-1.8
20
0.05
30
0
11
12.5
21
0.05
31
0
0
LINE
5
C2FF
330
C2C6
100
AcDbEntity
100
AcDbLine
8
KORKULUK_KAPI
10
-12.5
20
1.95
30
0
11
-4.3
21
1.95
31
0
0
LINE
5
C300
330
C2C6
100
AcDbEntity
100
AcDbLine
8
KORKULUK_KAPI
10
-1.8
20
1.95
30
0
11
12.5
21
1.95
31
0
0
LINE
5
C374
330
C2C6
100
AcDbEntity
100
AcDbLine
8
KORKULUK_KAPI
10
-12.5
20
-4.9
30
0
11
12.5
21
-4.9
31
0
0
LWPOLYLINE
5
C375
330
C2C6
100
AcDbEntity
100
AcDbPolyline
8
KORKULUK_KAPI
6
ByLayer
62
256
370
-1
90
4
70
1
10
-4.3
20
-6
10
-4.3
20
-4.3
10
-1.7999999999999998
20
-4.3
10
-1.7999999999999998
20
-6
0
CIRCLE
5
C301
330
C2C6
100
AcDbEntity
100
AcDbCircle
8
MONTAJ_BORULARI
10
-10
20
1.35
30
0
40
0.2
0
CIRCLE
5
C302
330
C2C6
100
AcDbEntity
100
AcDbCircle
8
MONTAJ_BORULARI
10
-10
20
1.35
30
0
40
0.27
0
CIRCLE
5
C303
330
C2C6
100
AcDbEntity
100
AcDbCircle
8
MONTAJ_BORULARI
10
-5
20
1.35
30
0
40
0.2
0
CIRCLE
5
C304
330
C2C6
100
AcDbEntity
100
AcDbCircle
8
MONTAJ_BORULARI
10
-5
20
1.35
30
0
40
0.27
0
CIRCLE
5
C305
330
C2C6
100
AcDbEntity
100
AcDbCircle
8
MONTAJ_BORULARI
10
0
20
1.35
30
0
40
0.2
0
CIRCLE
5
C306
330
C2C6
100
AcDbEntity
100
AcDbCircle
8
MONTAJ_BORULARI
10
0
20
1.35
30
0
40
0.27
0
CIRCLE
5
C307
330
C2C6
100
AcDbEntity
100
AcDbCircle
8
MONTAJ_BORULARI
10
5
20
1.35
30
0
40
0.2
0
CIRCLE
5
C308
330
C2C6
100
AcDbEntity
100
AcDbCircle
8
MONTAJ_BORULARI
10
5
20
1.35
30
0
40
0.27
0
CIRCLE
5
C309
330
C2C6
100
AcDbEntity
100
AcDbCircle
8
MONTAJ_BORULARI
10
10
20
1.35
30
0
40
0.2
0
CIRCLE
5
C30A
330
C2C6
100
AcDbEntity
100
AcDbCircle
8
MONTAJ_BORULARI
10
10
20
1.35
30
0
40
0.27
0
LWPOLYLINE
5
C37E
330
C2C6
100
AcDbEntity
100
AcDbPolyline
8
MONTAJ_BORULARI
6
ByLayer
62
256
370
-1
90
4
70
1
10
-2.4899999999999998
20
-6
10
-2.4899999999999998
20
-5.985
10
-2.31
20
-5.985
10
-2.31
20
-6
0
LWPOLYLINE
5
C37F
330
C2C6
100
AcDbEntity
100
AcDbPolyline
8
MONTAJ_BORULARI
6
ByLayer
62
256
370
-1
90
4
70
1
10
-2.4299999999999997
20
-5.985
10
-2.4299999999999997
20
-4.3
10
-2.37
20
-4.3
10
-2.37
20
-5.985
0
LWPOLYLINE
5
C380
330
C2C6
100
AcDbEntity
100
AcDbPolyline
8
MONTAJ_BORULARI
6
ByLayer
62
256
370
-1
90
4
70
1
10
-2.4499999999999997
20
-5.208
10
-2.4499999999999997
20
-5.112
10
-2.4299999999999997
20
-5.112
10
-2.4299999999999997
20
-5.208
0
LWPOLYLINE
5
C384
330
C2C6
100
AcDbEntity
100
AcDbPolyline
8
MONTAJ_BORULARI
6
ByLayer
62
256
370
-1
90
4
70
1
10
-2.4499999999999997
20
-4.428
10
-2.4499999999999997
20
-4.332
10
-2.4299999999999997
20
-4.332
10
-2.4299999999999997
20
-4.428
0
LINE
5
C354
330
C2C6
100
AcDbEntity
100
AcDbLine
8
OLCULER
10
-12.5
20
0
30
0
11
-12.5
21
-1.04
31
0
0
LINE
5
C355
330
C2C6
100
AcDbEntity
100
AcDbLine
8
OLCULER
10
12.5
20
0
30
0
11
12.5
21
-1.04
31
0
0
LINE
5
C356
330
C2C6
100
AcDbEntity
100
AcDbLine
8
OLCULER
10
-12.5
20
-1
30
0
11
12.5
21
-1
31
0
0
LINE
5
C357
330
C2C6
100
AcDbEntity
100
AcDbLine
8
OLCULER
10
-12.528
20
-1.028
30
0
11
-12.472
21
-0.972
31
0
0
LINE
5
C358
330
C2C6
100
AcDbEntity
100
AcDbLine
8
OLCULER
10
12.472
20
-1.028
30
0
11
12.528
21
-0.972
31
0
0
TEXT
5
C359
330
C2C6
100
AcDbEntity
100
AcDbText
8
OLCULER
10
0
20
-1.084
30
0
40
0.06
1
25000 mm (TOPLAM BETON KAIDE BOYU)
50
0
7
STANDARD
72
1
11
0
21
-1.084
31
0
100
AcDbText
73
2
0
LINE
5
C35A
330
C2C6
100
AcDbEntity
100
AcDbLine
8
OLCULER
10
-4.3
20
0
30
0
11
-4.3
21
-0.54
31
0
0
LINE
5
C35B
330
C2C6
100
AcDbEntity
100
AcDbLine
8
OLCULER
10
-1.8
20
0
30
0
11
-1.8
21
-0.54
31
0
0
LINE
5
C35C
330
C2C6
100
AcDbEntity
100
AcDbLine
8
OLCULER
10
-4.3
20
-0.5
30
0
11
-1.8
21
-0.5
31
0
0
LINE
5
C35D
330
C2C6
100
AcDbEntity
100
AcDbLine
8
OLCULER
10
-4.327999999999999
20
-0.528
30
0
11
-4.272
21
-0.472
31
0
0
LINE
5
C35E
330
C2C6
100
AcDbEntity
100
AcDbLine
8
OLCULER
10
-1.828
20
-0.528
30
0
11
-1.772
21
-0.472
31
0
0
TEXT
5
C35F
330
C2C6
100
AcDbEntity
100
AcDbText
8
OLCULER
10
-3.05
20
-0.584
30
0
40
0.06
1
2500 mm (KORUMALI ALAN)
50
0
7
STANDARD
72
1
11
-3.05
21
-0.584
31
0
100
AcDbText
73
2
0
LINE
5
C360
330
C2C6
100
AcDbEntity
100
AcDbLine
8
OLCULER
10
-4.15
20
0
30
0
11
-4.15
21
-0.29
31
0
0
LINE
5
C361
330
C2C6
100
AcDbEntity
100
AcDbLine
8
OLCULER
10
-3.0500000000000003
20
0
30
0
11
-3.0500000000000003
21
-0.29
31
0
0
LINE
5
C362
330
C2C6
100
AcDbEntity
100
AcDbLine
8
OLCULER
10
-4.15
20
-0.25
30
0
11
-3.0500000000000003
21
-0.25
31
0
0
LINE
5
C363
330
C2C6
100
AcDbEntity
100
AcDbLine
8
OLCULER
10
-4.178
20
-0.278
30
0
11
-4.122000000000001
21
-0.222
31
0
0
LINE
5
C364
330
C2C6
100
AcDbEntity
100
AcDbLine
8
OLCULER
10
-3.0780000000000003
20
-0.278
30
0
11
-3.0220000000000002
21
-0.222
31
0
0
TEXT
5
C365
330
C2C6
100
AcDbEntity
100
AcDbText
8
OLCULER
10
-3.6000000000000005
20
-0.33399999999999996
30
0
40
0.06
1
1100 mm (KAPI 1)
50
0
7
STANDARD
72
1
11
-3.6000000000000005
21
-0.33399999999999996
31
0
100
AcDbText
73
2
0
LINE
5
C366
330
C2C6
100
AcDbEntity
100
AcDbLine
8
OLCULER
10
-3.0500000000000003
20
0
30
0
11
-3.0500000000000003
21
-0.29
31
0
0
LINE
5
C367
330
C2C6
100
AcDbEntity
100
AcDbLine
8
OLCULER
10
-1.95
20
0
30
0
11
-1.95
21
-0.29
31
0
0
LINE
5
C368
330
C2C6
100
AcDbEntity
100
AcDbLine
8
OLCULER
10
-3.0500000000000003
20
-0.25
30
0
11
-1.95
21
-0.25
31
0
0
LINE
5
C369
330
C2C6
100
AcDbEntity
100
AcDbLine
8
OLCULER
10
-3.0780000000000003
20
-0.278
30
0
11
-3.0220000000000002
21
-0.222
31
0
0
LINE
5
C36A
330
C2C6
100
AcDbEntity
100
AcDbLine
8
OLCULER
10
-1.978
20
-0.278
30
0
11
-1.922
21
-0.222
31
0
0
TEXT
5
C36B
330
C2C6
100
AcDbEntity
100
AcDbText
8
OLCULER
10
-2.5
20
-0.33399999999999996
30
0
40
0.06
1
1100 mm (KAPI 2)
50
0
7
STANDARD
72
1
11
-2.5
21
-0.33399999999999996
31
0
100
AcDbText
73
2
0
LINE
5
C36C
330
C2C6
100
AcDbEntity
100
AcDbLine
8
OLCULER
10
-12.5
20
0
30
0
11
-13.139999999999999
21
0
31
0
0
LINE
5
C36D
330
C2C6
100
AcDbEntity
100
AcDbLine
8
OLCULER
10
-12.5
20
2
30
0
11
-13.139999999999999
21
2
31
0
0
LINE
5
C36E
330
C2C6
100
AcDbEntity
100
AcDbLine
8
OLCULER
10
-13.1
20
0
30
0
11
-13.1
21
2
31
0
0
LINE
5
C36F
330
C2C6
100
AcDbEntity
100
AcDbLine
8
OLCULER
10
-13.128
20
-0.027999999999999997
30
0
11
-13.072
21
0.027999999999999997
31
0
0
LINE
5
C370
330
C2C6
100
AcDbEntity
100
AcDbLine
8
OLCULER
10
-13.128
20
1.972
30
0
11
-13.072
21
2.028
31
0
0
TEXT
5
C371
330
C2C6
100
AcDbEntity
100
AcDbText
8
OLCULER
10
-13.142
20
1
30
0
40
0.06
1
2000 mm
50
90
7
STANDARD
72
1
11
-13.142
21
1
31
0
100
AcDbText
73
2
0
LWPOLYLINE
5
C388
330
C2C6
100
AcDbEntity
100
AcDbPolyline
8
METIN_BILGI
6
ByLayer
62
256
370
-1
90
4
70
1
10
-12.5
20
3.5
10
-12.5
20
5.7
10
-4.5
20
5.7
10
-4.5
20
3.5
0
LINE
5
C389
330
C2C6
100
AcDbEntity
100
AcDbLine
8
METIN_BILGI
10
-12.5
20
4.9
30
0
11
-4.5
21
4.9
31
0
0
LINE
5
C38A
330
C2C6
100
AcDbEntity
100
AcDbLine
8
METIN_BILGI
10
-12.5
20
4.2
30
0
11
-4.5
21
4.2
31
0
0
LINE
5
C38B
330
C2C6
100
AcDbEntity
100
AcDbLine
8
METIN_BILGI
10
-8
20
3.5
30
0
11
-8
21
4.9
31
0
0
TEXT
5
C38C
330
C2C6
100
AcDbEntity
100
AcDbText
8
METIN_BILGI
10
-12.3
20
5.15
30
0
40
0.32
1
GALATASARAY STADYUMU GSM ALTYAPI PROJESI
50
0
7
STANDARD
100
AcDbText
0
TEXT
5
C38D
330
C2C6
100
AcDbEntity
100
AcDbText
8
METIN_BILGI
10
-12.3
20
4.45
30
0
40
0.26
1
ALAN: CAPRAZ KOSE TRIBUN (DETAYLI YERLESIM) (ALAN 4)
50
0
7
STANDARD
100
AcDbText
0
TEXT
5
C38E
330
C2C6
100
AcDbEntity
100
AcDbText
8
METIN_BILGI
10
-12.3
20
3.7800000000000002
30
0
40
0.2
1
OLCEK: 1:1 m (1:1 m)
50
0
7
STANDARD
100
AcDbText
0
TEXT
5
C38F
330
C2C6
100
AcDbEntity
100
AcDbText
8
METIN_BILGI
10
-7.8
20
4.45
30
0
40
0.18
1
CIZIM: ANTIGRAVITY CAD / BIM
50
0
7
STANDARD
100
AcDbText
0
TEXT
5
C390
330
C2C6
100
AcDbEntity
100
AcDbText
8
METIN_BILGI
10
-7.8
20
3.7800000000000002
30
0
40
0.18
1
TARIH: 2026-10-05
50
0
7
STANDARD
100
AcDbText
0
CIRCLE
5
C391
330
C2C6
100
AcDbEntity
100
AcDbCircle
8
METIN_BILGI
10
-14
20
4.6
30
0
40
0.8
0
LINE
5
C392
330
C2C6
100
AcDbEntity
100
AcDbLine
8
METIN_BILGI
10
-14
20
3.8799999999999994
30
0
11
-14
21
5.319999999999999
31
0
0
LINE
5
C393
330
C2C6
100
AcDbEntity
100
AcDbLine
8
METIN_BILGI
10
-14
20
5.319999999999999
30
0
11
-14.25
21
4.8999999999999995
31
0
0
LINE
5
C394
330
C2C6
100
AcDbEntity
100
AcDbLine
8
METIN_BILGI
10
-14
20
5.319999999999999
30
0
11
-13.75
21
4.8999999999999995
31
0
0
TEXT
5
C395
330
C2C6
100
AcDbEntity
100
AcDbText
8
METIN_BILGI
10
-14
20
5.6
30
0
40
0.3
1
K
50
0
7
STANDARD
72
1
11
-14
21
5.6
31
0
100
AcDbText
73
2
0
LWPOLYLINE
5
C396
330
C2C6
100
AcDbEntity
100
AcDbPolyline
8
METIN_BILGI
6
ByLayer
62
256
370
-1
90
4
70
1
10
-3
20
3.2
10
-3
20
6.4
10
8.2
20
6.4
10
8.2
20
3.2
0
TEXT
5
C397
330
C2C6
100
AcDbEntity
100
AcDbText
8
METIN_BILGI
10
-2.8
20
6.1000000000000005
30
0
40
0.24
1
EKIPMAN VE ALTYAPI YERLESIM CETVELI (BOM)
50
0
7
STANDARD
100
AcDbText
0
LINE
5
C398
330
C2C6
100
AcDbEntity
100
AcDbLine
8
METIN_BILGI
10
-3
20
6
30
0
11
8.2
21
6
31
0
0
LINE
5
C399
330
C2C6
100
AcDbEntity
100
AcDbLine
8
METIN_BILGI
10
-3
20
5.6
30
0
11
8.2
21
5.6
31
0
0
LINE
5
C39A
330
C2C6
100
AcDbEntity
100
AcDbLine
8
METIN_BILGI
10
-1.8
20
3.2
30
0
11
-1.8
21
6
31
0
0
LINE
5
C39B
330
C2C6
100
AcDbEntity
100
AcDbLine
8
METIN_BILGI
10
4.2
20
3.2
30
0
11
4.2
21
6
31
0
0
LINE
5
C39C
330
C2C6
100
AcDbEntity
100
AcDbLine
8
METIN_BILGI
10
6.7
20
3.2
30
0
11
6.7
21
6
31
0
0
TEXT
5
C39D
330
C2C6
100
AcDbEntity
100
AcDbText
8
METIN_BILGI
10
-2.9
20
5.72
30
0
40
0.18
1
NO
50
0
7
STANDARD
100
AcDbText
0
TEXT
5
C39E
330
C2C6
100
AcDbEntity
100
AcDbText
8
METIN_BILGI
10
-1.7
20
5.72
30
0
40
0.18
1
EKIPMAN TANIMI
50
0
7
STANDARD
100
AcDbText
0
TEXT
5
C39F
330
C2C6
100
AcDbEntity
100
AcDbText
8
METIN_BILGI
10
4.3
20
5.72
30
0
40
0.18
1
BOYUTLAR (GxDxY)
50
0
7
STANDARD
100
AcDbText
0
TEXT
5
C3A0
330
C2C6
100
AcDbEntity
100
AcDbText
8
METIN_BILGI
10
6.8
20
5.72
30
0
40
0.18
1
ADET
50
0
7
STANDARD
100
AcDbText
0
LINE
5
C3A1
330
C2C6
100
AcDbEntity
100
AcDbLine
8
METIN_BILGI
10
-3
20
5.2
30
0
11
8.2
21
5.2
31
0
0
TEXT
5
C3A2
330
C2C6
100
AcDbEntity
100
AcDbText
8
METIN_BILGI
10
-2.9
20
5.32
30
0
40
0.16
1
1
50
0
7
STANDARD
100
AcDbText
0
TEXT
5
C3A3
330
C2C6
100
AcDbEntity
100
AcDbText
8
METIN_BILGI
10
-1.7
20
5.32
30
0
40
0.16
1
Beton Kaide Tablasi (Alan 4)
50
0
7
STANDARD
100
AcDbText
0
TEXT
5
C3A4
330
C2C6
100
AcDbEntity
100
AcDbText
8
METIN_BILGI
10
4.3
20
5.32
30
0
40
0.16
1
25000x2000x400 mm
50
0
7
STANDARD
100
AcDbText
0
TEXT
5
C3A5
330
C2C6
100
AcDbEntity
100
AcDbText
8
METIN_BILGI
10
6.8
20
5.32
30
0
40
0.16
1
1
50
0
7
STANDARD
100
AcDbText
0
LINE
5
C3A6
330
C2C6
100
AcDbEntity
100
AcDbLine
8
METIN_BILGI
10
-3
20
4.8
30
0
11
8.2
21
4.8
31
0
0
TEXT
5
C3A7
330
C2C6
100
AcDbEntity
100
AcDbText
8
METIN_BILGI
10
-2.9
20
4.92
30
0
40
0.16
1
2
50
0
7
STANDARD
100
AcDbText
0
TEXT
5
C3A8
330
C2C6
100
AcDbEntity
100
AcDbText
8
METIN_BILGI
10
-1.7
20
4.92
30
0
40
0.16
1
2.50m Korumali Panel ve Kayar Kapi
50
0
7
STANDARD
100
AcDbText
0
TEXT
5
C3A9
330
C2C6
100
AcDbEntity
100
AcDbText
8
METIN_BILGI
10
4.3
20
4.92
30
0
40
0.16
1
2500x1700 mm
50
0
7
STANDARD
100
AcDbText
0
TEXT
5
C3AA
330
C2C6
100
AcDbEntity
100
AcDbText
8
METIN_BILGI
10
6.8
20
4.92
30
0
40
0.16
1
1
50
0
7
STANDARD
100
AcDbText
0
LINE
5
C3AB
330
C2C6
100
AcDbEntity
100
AcDbLine
8
METIN_BILGI
10
-3
20
4.4
30
0
11
8.2
21
4.4
31
0
0
TEXT
5
C3AC
330
C2C6
100
AcDbEntity
100
AcDbText
8
METIN_BILGI
10
-2.9
20
4.5200000000000005
30
0
40
0.16
1
3
50
0
7
STANDARD
100
AcDbText
0
TEXT
5
C3AD
330
C2C6
100
AcDbEntity
100
AcDbText
8
METIN_BILGI
10
-1.7
20
4.5200000000000005
30
0
40
0.16
1
Canovate 19" 2'li POI Kucuk Rack Sasesi
50
0
7
STANDARD
100
AcDbText
0
TEXT
5
C3AE
330
C2C6
100
AcDbEntity
100
AcDbText
8
METIN_BILGI
10
4.3
20
4.5200000000000005
30
0
40
0.16
1
600x700x1000 mm
50
0
7
STANDARD
100
AcDbText
0
TEXT
5
C3AF
330
C2C6
100
AcDbEntity
100
AcDbText
8
METIN_BILGI
10
6.8
20
4.5200000000000005
30
0
40
0.16
1
1
50
0
7
STANDARD
100
AcDbText
0
LINE
5
C3B0
330
C2C6
100
AcDbEntity
100
AcDbLine
8
METIN_BILGI
10
-3
20
4
30
0
11
8.2
21
4
31
0
0
TEXT
5
C3B1
330
C2C6
100
AcDbEntity
100
AcDbText
8
METIN_BILGI
10
-2.9
20
4.12
30
0
40
0.16
1
4
50
0
7
STANDARD
100
AcDbText
0
TEXT
5
C3B2
330
C2C6
100
AcDbEntity
100
AcDbText
8
METIN_BILGI
10
-1.7
20
4.12
30
0
40
0.16
1
Prose CB-12-POI-64F-A12 Modulleri
50
0
7
STANDARD
100
AcDbText
0
TEXT
5
C3B3
330
C2C6
100
AcDbEntity
100
AcDbText
8
METIN_BILGI
10
4.3
20
4.12
30
0
40
0.16
1
400x350x260 mm
50
0
7
STANDARD
100
AcDbText
0
TEXT
5
C3B4
330
C2C6
100
AcDbEntity
100
AcDbText
8
METIN_BILGI
10
6.8
20
4.12
30
0
40
0.16
1
2
50
0
7
STANDARD
100
AcDbText
0
LINE
5
C3B5
330
C2C6
100
AcDbEntity
100
AcDbLine
8
METIN_BILGI
10
-3
20
3.5999999999999996
30
0
11
8.2
21
3.5999999999999996
31
0
0
TEXT
5
C3B6
330
C2C6
100
AcDbEntity
100
AcDbText
8
METIN_BILGI
10
-2.9
20
3.7199999999999998
30
0
40
0.16
1
5
50
0
7
STANDARD
100
AcDbText
0
TEXT
5
C3B7
330
C2C6
100
AcDbEntity
100
AcDbText
8
METIN_BILGI
10
-1.7
20
3.7199999999999998
30
0
40
0.16
1
Tek Tek RRU Modulleri (7 Adet Bagimsiz)
50
0
7
STANDARD
100
AcDbText
0
TEXT
5
C3B8
330
C2C6
100
AcDbEntity
100
AcDbText
8
METIN_BILGI
10
4.3
20
3.7199999999999998
30
0
40
0.16
1
398x145x533 mm
50
0
7
STANDARD
100
AcDbText
0
TEXT
5
C3B9
330
C2C6
100
AcDbEntity
100
AcDbText
8
METIN_BILGI
10
6.8
20
3.7199999999999998
30
0
40
0.16
1
7
50
0
7
STANDARD
100
AcDbText
0
LINE
5
C3BA
330
C2C6
100
AcDbEntity
100
AcDbLine
8
METIN_BILGI
10
-3
20
3.1999999999999997
30
0
11
8.2
21
3.1999999999999997
31
0
0
TEXT
5
C3BB
330
C2C6
100
AcDbEntity
100
AcDbText
8
METIN_BILGI
10
-2.9
20
3.32
30
0
40
0.16
1
6
50
0
7
STANDARD
100
AcDbText
0
TEXT
5
C3BC
330
C2C6
100
AcDbEntity
100
AcDbText
8
METIN_BILGI
10
-1.7
20
3.32
30
0
40
0.16
1
Spot Beam 30/30 Panel Antenler ve Askilari
50
0
7
STANDARD
100
AcDbText
0
TEXT
5
C3BD
330
C2C6
100
AcDbEntity
100
AcDbText
8
METIN_BILGI
10
4.3
20
3.32
30
0
40
0.16
1
990x1130x2810 mm
50
0
7
STANDARD
100
AcDbText
0
TEXT
5
C3BE
330
C2C6
100
AcDbEntity
100
AcDbText
8
METIN_BILGI
10
6.8
20
3.32
30
0
40
0.16
1
2
50
0
7
STANDARD
100
AcDbText
0
LWPOLYLINE
5
C331
330
C2C6
100
AcDbEntity
100
AcDbPolyline
8
EKP_TURKCELL_RRU
6
ByLayer
62
256
370
-1
90
4
70
1
10
-2.6855680490707305
20
0.9827264834778792
10
-2.6855680490707305
20
1.4927264857875593
10
-2.545568048474684
20
1.4927264857875593
10
-2.545568048474684
20
0.9827264834778792
0
LINE
5
C332
330
C2C6
100
AcDbEntity
100
AcDbLine
8
EKP_TURKCELL_RRU
10
-2.6603680489634423
20
0.9827264834778792
30
0
11
-2.6603680489634423
21
1.4927264857875593
31
0
0
LINE
5
C333
330
C2C6
100
AcDbEntity
100
AcDbLine
8
EKP_TURKCELL_RRU
10
-2.6435680488919164
20
1.2377264846327192
30
0
11
-2.587568048653498
21
1.2377264846327192
31
0
0
LINE
5
C334
330
C2C6
100
AcDbEntity
100
AcDbLine
8
EKP_TURKCELL_RRU
10
-2.6155680487727073
20
1.2097264845135098
30
0
11
-2.6155680487727073
21
1.2657264847519285
31
0
0
TEXT
5
C335
330
C2C6
100
AcDbEntity
100
AcDbText
8
EKP_TURKCELL_RRU
10
-2.6155680487727073
20
1.261246484732855
30
0
40
0.03920000016689301
1
Turkcell RRU5301 (Alt Kot)
50
0
7
STANDARD
72
1
11
-2.6155680487727073
21
1.261246484732855
31
0
100
AcDbText
73
2
0
LWPOLYLINE
5
C336
330
C2C6
100
AcDbEntity
100
AcDbPolyline
8
EKP_TURKCELL_RRU
6
ByLayer
62
256
370
-1
90
4
70
1
10
-2.525568049070731
20
0.9827264834778792
10
-2.525568049070731
20
1.4927264857875593
10
-2.3855680484746844
20
1.4927264857875593
10
-2.3855680484746844
20
0.9827264834778792
0
LINE
5
C337
330
C2C6
100
AcDbEntity
100
AcDbLine
8
EKP_TURKCELL_RRU
10
-2.5003680489634426
20
0.9827264834778792
30
0
11
-2.5003680489634426
21
1.4927264857875593
31
0
0
LINE
5
C338
330
C2C6
100
AcDbEntity
100
AcDbLine
8
EKP_TURKCELL_RRU
10
-2.4835680488919167
20
1.2377264846327192
30
0
11
-2.4275680486534985
21
1.2377264846327192
31
0
0
LINE
5
C339
330
C2C6
100
AcDbEntity
100
AcDbLine
8
EKP_TURKCELL_RRU
10
-2.4555680487727076
20
1.2097264845135098
30
0
11
-2.4555680487727076
21
1.2657264847519285
31
0
0
TEXT
5
C33A
330
C2C6
100
AcDbEntity
100
AcDbText
8
EKP_TURKCELL_RRU
10
-2.4555680487727076
20
1.261246484732855
30
0
40
0.03920000016689301
1
Turkcell RRU5502 (Alt Kot)
50
0
7
STANDARD
72
1
11
-2.4555680487727076
21
1.261246484732855
31
0
100
AcDbText
73
2
0
LWPOLYLINE
5
C381
330
C2C6
100
AcDbEntity
100
AcDbPolyline
8
EKP_TURKCELL_RRU
6
ByLayer
62
256
370
-1
90
4
70
1
10
-2.8299999999999996
20
-5.4
10
-2.8299999999999996
20
-4.92
10
-2.4499999999999997
20
-4.92
10
-2.4499999999999997
20
-5.4
0
LWPOLYLINE
5
C382
330
C2C6
100
AcDbEntity
100
AcDbPolyline
8
EKP_TURKCELL_RRU
6
ByLayer
62
256
370
-1
90
4
70
1
10
-2.7159999999999997
20
-4.92
10
-2.7159999999999997
20
-4.89
10
-2.5639999999999996
20
-4.89
10
-2.5639999999999996
20
-4.92
0
TEXT
5
C383
330
C2C6
100
AcDbEntity
100
AcDbText
8
EKP_TURKCELL_RRU
10
-2.6399999999999997
20
-5.16
30
0
40
0.045
1
TCELL
50
0
7
STANDARD
72
1
11
-2.6399999999999997
21
-5.16
31
0
100
AcDbText
73
2
0
LWPOLYLINE
5
C345
330
C2C6
100
AcDbEntity
100
AcDbPolyline
8
EKP_VODAFONE_RRU
6
ByLayer
62
256
370
-1
90
4
70
1
10
-2.6830680514549163
20
0.9667264808552748
10
-2.6830680514549163
20
1.5087264857875593
10
-2.5480680460904983
20
1.5087264857875593
10
-2.5480680460904983
20
0.9667264808552748
0
LINE
5
C346
330
C2C6
100
AcDbEntity
100
AcDbLine
8
EKP_VODAFONE_RRU
10
-2.658768050489321
20
0.9667264808552748
30
0
11
-2.658768050489321
21
1.5087264857875593
31
0
0
LINE
5
C347
330
C2C6
100
AcDbEntity
100
AcDbLine
8
EKP_VODAFONE_RRU
10
-2.642568049845591
20
1.237726483321417
30
0
11
-2.5885680476998236
21
1.237726483321417
31
0
0
LINE
5
C348
330
C2C6
100
AcDbEntity
100
AcDbLine
8
EKP_VODAFONE_RRU
10
-2.6155680487727073
20
1.2107264822485333
30
0
11
-2.6155680487727073
21
1.2647264843943007
31
0
0
TEXT
5
C349
330
C2C6
100
AcDbEntity
100
AcDbText
8
EKP_VODAFONE_RRU
10
-2.6155680487727073
20
1.2604064842226392
30
0
40
0.03780000150203705
1
Vodafone RRU5526t (Ust Kot 1)
50
0
7
STANDARD
72
1
11
-2.6155680487727073
21
1.2604064842226392
31
0
100
AcDbText
73
2
0
LWPOLYLINE
5
C34A
330
C2C6
100
AcDbEntity
100
AcDbPolyline
8
EKP_VODAFONE_RRU
6
ByLayer
62
256
370
-1
90
4
70
1
10
-2.5230680514549166
20
0.9667264808552748
10
-2.5230680514549166
20
1.5087264857875593
10
-2.3880680460904986
20
1.5087264857875593
10
-2.3880680460904986
20
0.9667264808552748
0
LINE
5
C34B
330
C2C6
100
AcDbEntity
100
AcDbLine
8
EKP_VODAFONE_RRU
10
-2.4987680504893213
20
0.9667264808552748
30
0
11
-2.4987680504893213
21
1.5087264857875593
31
0
0
LINE
5
C34C
330
C2C6
100
AcDbEntity
100
AcDbLine
8
EKP_VODAFONE_RRU
10
-2.4825680498455913
20
1.237726483321417
30
0
11
-2.428568047699824
21
1.237726483321417
31
0
0
LINE
5
C34D
330
C2C6
100
AcDbEntity
100
AcDbLine
8
EKP_VODAFONE_RRU
10
-2.4555680487727076
20
1.2107264822485333
30
0
11
-2.4555680487727076
21
1.2647264843943007
31
0
0
TEXT
5
C34E
330
C2C6
100
AcDbEntity
100
AcDbText
8
EKP_VODAFONE_RRU
10
-2.4555680487727076
20
1.2604064842226392
30
0
40
0.03780000150203705
1
Vodafone RRU5526t (Ust Kot 2)
50
0
7
STANDARD
72
1
11
-2.4555680487727076
21
1.2604064842226392
31
0
100
AcDbText
73
2
0
LWPOLYLINE
5
C34F
330
C2C6
100
AcDbEntity
100
AcDbPolyline
8
EKP_VODAFONE_RRU
6
ByLayer
62
256
370
-1
90
4
70
1
10
-2.363068051454917
20
0.9667264808552748
10
-2.363068051454917
20
1.5087264857875593
10
-2.228068046090499
20
1.5087264857875593
10
-2.228068046090499
20
0.9667264808552748
0
LINE
5
C350
330
C2C6
100
AcDbEntity
100
AcDbLine
8
EKP_VODAFONE_RRU
10
-2.3387680504893216
20
0.9667264808552748
30
0
11
-2.3387680504893216
21
1.5087264857875593
31
0
0
LINE
5
C351
330
C2C6
100
AcDbEntity
100
AcDbLine
8
EKP_VODAFONE_RRU
10
-2.3225680498455916
20
1.237726483321417
30
0
11
-2.2685680476998242
21
1.237726483321417
31
0
0
LINE
5
C352
330
C2C6
100
AcDbEntity
100
AcDbLine
8
EKP_VODAFONE_RRU
10
-2.295568048772708
20
1.2107264822485333
30
0
11
-2.295568048772708
21
1.2647264843943007
31
0
0
TEXT
5
C353
330
C2C6
100
AcDbEntity
100
AcDbText
8
EKP_VODAFONE_RRU
10
-2.295568048772708
20
1.2604064842226392
30
0
40
0.03780000150203705
1
Vodafone RRU5526t (Ust Kot 3)
50
0
7
STANDARD
72
1
11
-2.295568048772708
21
1.2604064842226392
31
0
100
AcDbText
73
2
0
LWPOLYLINE
5
C385
330
C2C6
100
AcDbEntity
100
AcDbPolyline
8
EKP_VODAFONE_RRU
6
ByLayer
62
256
370
-1
90
4
70
1
10
-2.8299999999999996
20
-4.62
10
-2.8299999999999996
20
-4.140000000000001
10
-2.4499999999999997
20
-4.140000000000001
10
-2.4499999999999997
20
-4.62
0
LWPOLYLINE
5
C386
330
C2C6
100
AcDbEntity
100
AcDbPolyline
8
EKP_VODAFONE_RRU
6
ByLayer
62
256
370
-1
90
4
70
1
10
-2.7159999999999997
20
-4.140000000000001
10
-2.7159999999999997
20
-4.11
10
-2.5639999999999996
20
-4.11
10
-2.5639999999999996
20
-4.140000000000001
0
TEXT
5
C387
330
C2C6
100
AcDbEntity
100
AcDbText
8
EKP_VODAFONE_RRU
10
-2.6399999999999997
20
-4.38
30
0
40
0.045
1
VODA
50
0
7
STANDARD
72
1
11
-2.6399999999999997
21
-4.38
31
0
100
AcDbText
73
2
0
LWPOLYLINE
5
C33B
330
C2C6
100
AcDbEntity
100
AcDbPolyline
8
EKP_TURK_TELEKOM_RRU
6
ByLayer
62
256
370
-1
90
4
70
1
10
-2.365568049070731
20
1.00472648335867
10
-2.365568049070731
20
1.4707264857875593
10
-2.2255680484746847
20
1.4707264857875593
10
-2.2255680484746847
20
1.00472648335867
0
LINE
5
C33C
330
C2C6
100
AcDbEntity
100
AcDbLine
8
EKP_TURK_TELEKOM_RRU
10
-2.340368048963443
20
1.00472648335867
30
0
11
-2.340368048963443
21
1.4707264857875593
31
0
0
LINE
5
C33D
330
C2C6
100
AcDbEntity
100
AcDbLine
8
EKP_TURK_TELEKOM_RRU
10
-2.323568048891917
20
1.2377264845731146
30
0
11
-2.267568048653499
21
1.2377264845731146
31
0
0
LINE
5
C33E
330
C2C6
100
AcDbEntity
100
AcDbLine
8
EKP_TURK_TELEKOM_RRU
10
-2.295568048772708
20
1.2097264844539053
30
0
11
-2.295568048772708
21
1.265726484692324
31
0
0
TEXT
5
C33F
330
C2C6
100
AcDbEntity
100
AcDbText
8
EKP_TURK_TELEKOM_RRU
10
-2.295568048772708
20
1.2612464846732505
30
0
40
0.03920000016689301
1
TT RRU5527 (Alt Kot)
50
0
7
STANDARD
72
1
11
-2.295568048772708
21
1.2612464846732505
31
0
100
AcDbText
73
2
0
LWPOLYLINE
5
C340
330
C2C6
100
AcDbEntity
100
AcDbPolyline
8
EKP_TURK_TELEKOM_RRU
6
ByLayer
62
256
370
-1
90
4
70
1
10
-2.205568049070731
20
1.00472648335867
10
-2.205568049070731
20
1.4707264857875593
10
-2.0655680484746846
20
1.4707264857875593
10
-2.0655680484746846
20
1.00472648335867
0
LINE
5
C341
330
C2C6
100
AcDbEntity
100
AcDbLine
8
EKP_TURK_TELEKOM_RRU
10
-2.1803680489634427
20
1.00472648335867
30
0
11
-2.1803680489634427
21
1.4707264857875593
31
0
0
LINE
5
C342
330
C2C6
100
AcDbEntity
100
AcDbLine
8
EKP_TURK_TELEKOM_RRU
10
-2.163568048891917
20
1.2377264845731146
30
0
11
-2.1075680486534987
21
1.2377264845731146
31
0
0
LINE
5
C343
330
C2C6
100
AcDbEntity
100
AcDbLine
8
EKP_TURK_TELEKOM_RRU
10
-2.135568048772708
20
1.2097264844539053
30
0
11
-2.135568048772708
21
1.265726484692324
31
0
0
TEXT
5
C344
330
C2C6
100
AcDbEntity
100
AcDbText
8
EKP_TURK_TELEKOM_RRU
10
-2.135568048772708
20
1.2612464846732505
30
0
40
0.03920000016689301
1
TT RRU5818W (Alt Kot)
50
0
7
STANDARD
72
1
11
-2.135568048772708
21
1.2612464846732505
31
0
100
AcDbText
73
2
0
LWPOLYLINE
5
C31F
330
C2C6
100
AcDbEntity
100
AcDbPolyline
8
EKP_POI_TASIYICI_SASE
6
ByLayer
62
256
370
-1
90
4
70
1
10
-4.034126808828715
20
0.9234661973048301
10
-4.034126808828715
20
1.6234661853839012
10
-3.414126808232668
20
1.6234661853839012
10
-3.414126808232668
20
0.9234661973048301
0
LWPOLYLINE
5
C320
330
C2C6
100
AcDbEntity
100
AcDbPolyline
8
EKP_POI_TASIYICI_SASE
6
ByLayer
62
256
370
-1
90
4
70
1
10
-4.034126808828715
20
0.9234661973048301
10
-4.034126808828715
20
0.9834661973048302
10
-3.9741268088287147
20
0.9834661973048302
10
-3.9741268088287147
20
0.9234661973048301
0
LWPOLYLINE
5
C321
330
C2C6
100
AcDbEntity
100
AcDbPolyline
8
EKP_POI_TASIYICI_SASE
6
ByLayer
62
256
370
-1
90
4
70
1
10
-3.474126808232668
20
0.9234661973048301
10
-3.474126808232668
20
0.9834661973048302
10
-3.414126808232668
20
0.9834661973048302
10
-3.414126808232668
20
0.9234661973048301
0
LWPOLYLINE
5
C322
330
C2C6
100
AcDbEntity
100
AcDbPolyline
8
EKP_POI_TASIYICI_SASE
6
ByLayer
62
256
370
-1
90
4
70
1
10
-4.034126808828715
20
1.5634661853839011
10
-4.034126808828715
20
1.6234661853839012
10
-3.9741268088287147
20
1.6234661853839012
10
-3.9741268088287147
20
1.5634661853839011
0
LWPOLYLINE
5
C323
330
C2C6
100
AcDbEntity
100
AcDbPolyline
8
EKP_POI_TASIYICI_SASE
6
ByLayer
62
256
370
-1
90
4
70
1
10
-3.474126808232668
20
1.5634661853839011
10
-3.474126808232668
20
1.6234661853839012
10
-3.414126808232668
20
1.6234661853839012
10
-3.414126808232668
20
1.5634661853839011
0
LWPOLYLINE
5
C324
330
C2C6
100
AcDbEntity
100
AcDbPolyline
8
EKP_POI_TASIYICI_SASE
6
ByLayer
62
256
370
-1
90
4
70
1
10
-3.990426808530691
20
0.9834661973048302
10
-3.990426808530691
20
1.5634661853839011
10
-3.965426808530691
20
1.5634661853839011
10
-3.965426808530691
20
0.9834661973048302
0
LWPOLYLINE
5
C325
330
C2C6
100
AcDbEntity
100
AcDbPolyline
8
EKP_POI_TASIYICI_SASE
6
ByLayer
62
256
370
-1
90
4
70
1
10
-3.4828268085306915
20
0.9834661973048302
10
-3.4828268085306915
20
1.5634661853839011
10
-3.4578268085306916
20
1.5634661853839011
10
-3.4578268085306916
20
0.9834661973048302
0
TEXT
5
C326
330
C2C6
100
AcDbEntity
100
AcDbText
8
EKP_POI_TASIYICI_SASE
10
-3.7241268085306913
20
1.2734661913443657
30
0
40
0.055
1
2'li POI Kucuk Rack Blogu (2x POI Dolu) (Alan 3)
50
0
7
STANDARD
72
1
11
-3.7241268085306913
21
1.2734661913443657
31
0
100
AcDbText
73
2
0
LWPOLYLINE
5
C376
330
C2C6
100
AcDbEntity
100
AcDbPolyline
8
EKP_POI_TASIYICI_SASE
6
ByLayer
62
256
370
-1
90
4
70
1
10
-3.72
20
-6
10
-3.72
20
-5.9
10
-3.12
20
-5.9
10
-3.12
20
-6
0
LWPOLYLINE
5
C377
330
C2C6
100
AcDbEntity
100
AcDbPolyline
8
EKP_POI_TASIYICI_SASE
6
ByLayer
62
256
370
-1
90
4
70
1
10
-3.72
20
-5.06
10
-3.72
20
-5
10
-3.12
20
-5
10
-3.12
20
-5.06
0
LWPOLYLINE
5
C378
330
C2C6
100
AcDbEntity
100
AcDbPolyline
8
EKP_POI_TASIYICI_SASE
6
ByLayer
62
256
370
-1
90
4
70
1
10
-3.72
20
-5.9
10
-3.72
20
-5.06
10
-3.6700000000000004
20
-5.06
10
-3.6700000000000004
20
-5.9
0
LWPOLYLINE
5
C379
330
C2C6
100
AcDbEntity
100
AcDbPolyline
8
EKP_POI_TASIYICI_SASE
6
ByLayer
62
256
370
-1
90
4
70
1
10
-3.17
20
-5.9
10
-3.17
20
-5.06
10
-3.12
20
-5.06
10
-3.12
20
-5.9
0
LWPOLYLINE
5
C327
330
C2C6
100
AcDbEntity
100
AcDbPolyline
8
EKP_POI_MODULLERI
6
ByLayer
62
256
370
-1
90
4
70
1
10
-3.964126808083656
20
1.0734661911581012
10
-3.964126808083656
20
1.4484661883641334
10
-3.484126808977725
20
1.4484661883641334
10
-3.484126808977725
20
1.0734661911581012
0
LINE
5
C328
330
C2C6
100
AcDbEntity
100
AcDbLine
8
EKP_POI_MODULLERI
10
-3.964126808083656
20
1.129716190739006
30
0
11
-3.484126808977725
21
1.129716190739006
31
0
0
LINE
5
C329
330
C2C6
100
AcDbEntity
100
AcDbLine
8
EKP_POI_MODULLERI
10
-3.791626808027776
20
1.2609661897611173
30
0
11
-3.6566268090336047
21
1.2609661897611173
31
0
0
LINE
5
C32A
330
C2C6
100
AcDbEntity
100
AcDbLine
8
EKP_POI_MODULLERI
10
-3.7241268085306904
20
1.1934661902640316
30
0
11
-3.7241268085306904
21
1.328466189258203
31
0
0
TEXT
5
C32B
330
C2C6
100
AcDbEntity
100
AcDbText
8
EKP_POI_MODULLERI
10
-3.7241268085306904
20
1.2879661897611172
30
0
40
0.045
1
CB-12-POI-64F-A12 (5G NR POI)
50
0
7
STANDARD
72
1
11
-3.7241268085306904
21
1.2879661897611172
31
0
100
AcDbText
73
2
0
LWPOLYLINE
5
C32C
330
C2C6
100
AcDbEntity
100
AcDbPolyline
8
EKP_POI_MODULLERI
6
ByLayer
62
256
370
-1
90
4
70
1
10
-3.964126808083656
20
1.0734661911581012
10
-3.964126808083656
20
1.4484661883641334
10
-3.484126808977725
20
1.4484661883641334
10
-3.484126808977725
20
1.0734661911581012
0
LINE
5
C32D
330
C2C6
100
AcDbEntity
100
AcDbLine
8
EKP_POI_MODULLERI
10
-3.964126808083656
20
1.129716190739006
30
0
11
-3.484126808977725
21
1.129716190739006
31
0
0
LINE
5
C32E
330
C2C6
100
AcDbEntity
100
AcDbLine
8
EKP_POI_MODULLERI
10
-3.791626808027776
20
1.2609661897611173
30
0
11
-3.6566268090336047
21
1.2609661897611173
31
0
0
LINE
5
C32F
330
C2C6
100
AcDbEntity
100
AcDbLine
8
EKP_POI_MODULLERI
10
-3.7241268085306904
20
1.1934661902640316
30
0
11
-3.7241268085306904
21
1.328466189258203
31
0
0
TEXT
5
C330
330
C2C6
100
AcDbEntity
100
AcDbText
8
EKP_POI_MODULLERI
10
-3.7241268085306904
20
1.2879661897611172
30
0
40
0.045
1
CB-12-POI-64F-A12 (5G NR POI)
50
0
7
STANDARD
72
1
11
-3.7241268085306904
21
1.2879661897611172
31
0
100
AcDbText
73
2
0
LWPOLYLINE
5
C37A
330
C2C6
100
AcDbEntity
100
AcDbPolyline
8
EKP_POI_MODULLERI
6
ByLayer
62
256
370
-1
90
4
70
1
10
-3.6600000000000006
20
-5.885000000000001
10
-3.6600000000000006
20
-5.625000000000001
10
-3.1800000000000006
20
-5.625000000000001
10
-3.1800000000000006
20
-5.885000000000001
0
TEXT
5
C37B
330
C2C6
100
AcDbEntity
100
AcDbText
8
EKP_POI_MODULLERI
10
-3.4200000000000004
20
-5.755000000000001
30
0
40
0.04
1
POI-1
50
0
7
STANDARD
72
1
11
-3.4200000000000004
21
-5.755000000000001
31
0
100
AcDbText
73
2
0
LWPOLYLINE
5
C37C
330
C2C6
100
AcDbEntity
100
AcDbPolyline
8
EKP_POI_MODULLERI
6
ByLayer
62
256
370
-1
90
4
70
1
10
-3.6600000000000006
20
-5.57
10
-3.6600000000000006
20
-5.3100000000000005
10
-3.1800000000000006
20
-5.3100000000000005
10
-3.1800000000000006
20
-5.57
0
TEXT
5
C37D
330
C2C6
100
AcDbEntity
100
AcDbText
8
EKP_POI_MODULLERI
10
-3.4200000000000004
20
-5.44
30
0
40
0.04
1
POI-2
50
0
7
STANDARD
72
1
11
-3.4200000000000004
21
-5.44
31
0
100
AcDbText
73
2
0
LWPOLYLINE
5
C30B
330
C2C6
100
AcDbEntity
100
AcDbPolyline
8
EKP_PANEL_ANTEN
6
ByLayer
62
256
370
-1
90
4
70
1
10
-3.2663090024664094
20
-32.11361903145745
10
-3.2663090024664094
20
-30.981648612882328
10
-2.278648612882328
20
-30.981648612882328
10
-2.278648612882328
20
-32.11361903145745
0
LINE
5
C30C
330
C2C6
100
AcDbEntity
100
AcDbLine
8
EKP_PANEL_ANTEN
10
-2.970010885591185
20
-31.547633822169892
30
0
11
-2.5749467297575523
21
-31.547633822169892
31
0
0
LINE
5
C30D
330
C2C6
100
AcDbEntity
100
AcDbLine
8
EKP_PANEL_ANTEN
10
-2.7724788076743687
20
-31.774027905884918
30
0
11
-2.7724788076743687
21
-31.321239738454867
31
0
0
LINE
5
C30E
330
C2C6
100
AcDbEntity
100
AcDbLine
8
EKP_PANEL_ANTEN
10
-2.7724788076743687
20
-31.88722494774243
30
0
11
-2.7724788076743687
21
-31.208042696597353
31
0
0
TEXT
5
C30F
330
C2C6
100
AcDbEntity
100
AcDbText
8
EKP_PANEL_ANTEN
10
-2.7724788076743687
20
-31.547633822169892
30
0
40
0.06
1
Spot Beam 30/30 Panel Anten Cati Tasiyicisi Asili Montaji (Alan 3 - Anten 1)
50
0
7
STANDARD
72
1
11
-2.7724788076743687
21
-31.547633822169892
31
0
100
AcDbText
73
2
0
LWPOLYLINE
5
C310
330
C2C6
100
AcDbEntity
100
AcDbPolyline
8
EKP_PANEL_ANTEN
6
ByLayer
62
256
370
-1
90
4
70
1
10
-3.2663090024664094
20
-31.969309002466417
10
-3.2663090024664094
20
-30.98164861288233
10
-2.278648612882328
20
-30.98164861288233
10
-2.278648612882328
20
-31.969309002466417
0
LINE
5
C311
330
C2C6
100
AcDbEntity
100
AcDbLine
8
EKP_PANEL_ANTEN
10
-2.970010885591185
20
-31.475478807674374
30
0
11
-2.5749467297575523
21
-31.475478807674374
31
0
0
LINE
5
C312
330
C2C6
100
AcDbEntity
100
AcDbLine
8
EKP_PANEL_ANTEN
10
-2.7724788076743687
20
-31.673010885591193
30
0
11
-2.7724788076743687
21
-31.277946729757556
31
0
0
LINE
5
C313
330
C2C6
100
AcDbEntity
100
AcDbLine
8
EKP_PANEL_ANTEN
10
-2.7724788076743687
20
-31.7717769245496
30
0
11
-2.7724788076743687
21
-31.17918069079915
31
0
0
TEXT
5
C314
330
C2C6
100
AcDbEntity
100
AcDbText
8
EKP_PANEL_ANTEN
10
-2.7724788076743687
20
-31.475478807674374
30
0
40
0.06
1
Spot Beam 30/30 4-Port Panel Anten (DOY15X3030MD4TRE)
50
0
7
STANDARD
72
1
11
-2.7724788076743687
21
-31.475478807674374
31
0
100
AcDbText
73
2
0
LWPOLYLINE
5
C315
330
C2C6
100
AcDbEntity
100
AcDbPolyline
8
EKP_PANEL_ANTEN
6
ByLayer
62
256
370
-1
90
4
70
1
10
-3.2663090024664094
20
-33.10461903145746
10
-3.2663090024664094
20
-31.972648612882335
10
-2.278648612882328
20
-31.972648612882335
10
-2.278648612882328
20
-33.10461903145746
0
LINE
5
C316
330
C2C6
100
AcDbEntity
100
AcDbLine
8
EKP_PANEL_ANTEN
10
-2.970010885591185
20
-32.5386338221699
30
0
11
-2.5749467297575523
21
-32.5386338221699
31
0
0
LINE
5
C317
330
C2C6
100
AcDbEntity
100
AcDbLine
8
EKP_PANEL_ANTEN
10
-2.7724788076743687
20
-32.76502790588492
30
0
11
-2.7724788076743687
21
-32.31223973845488
31
0
0
LINE
5
C318
330
C2C6
100
AcDbEntity
100
AcDbLine
8
EKP_PANEL_ANTEN
10
-2.7724788076743687
20
-32.87822494774244
30
0
11
-2.7724788076743687
21
-32.19904269659736
31
0
0
TEXT
5
C319
330
C2C6
100
AcDbEntity
100
AcDbText
8
EKP_PANEL_ANTEN
10
-2.7724788076743687
20
-32.5386338221699
30
0
40
0.06
1
Spot Beam 30/30 Panel Anten Cati Tasiyicisi Asili Montaji (Alan 3 - Anten 2)
50
0
7
STANDARD
72
1
11
-2.7724788076743687
21
-32.5386338221699
31
0
100
AcDbText
73
2
0
LWPOLYLINE
5
C31A
330
C2C6
100
AcDbEntity
100
AcDbPolyline
8
EKP_PANEL_ANTEN
6
ByLayer
62
256
370
-1
90
4
70
1
10
-3.2663090024664094
20
-32.96030900246641
10
-3.2663090024664094
20
-31.972648612882328
10
-2.278648612882328
20
-31.972648612882328
10
-2.278648612882328
20
-32.96030900246641
0
LINE
5
C31B
330
C2C6
100
AcDbEntity
100
AcDbLine
8
EKP_PANEL_ANTEN
10
-2.970010885591185
20
-32.46647880767437
30
0
11
-2.5749467297575523
21
-32.46647880767437
31
0
0
LINE
5
C31C
330
C2C6
100
AcDbEntity
100
AcDbLine
8
EKP_PANEL_ANTEN
10
-2.7724788076743687
20
-32.66401088559119
30
0
11
-2.7724788076743687
21
-32.26894672975755
31
0
0
LINE
5
C31D
330
C2C6
100
AcDbEntity
100
AcDbLine
8
EKP_PANEL_ANTEN
10
-2.7724788076743687
20
-32.76277692454959
30
0
11
-2.7724788076743687
21
-32.17018069079914
31
0
0
TEXT
5
C31E
330
C2C6
100
AcDbEntity
100
AcDbText
8
EKP_PANEL_ANTEN
10
-2.7724788076743687
20
-32.46647880767437
30
0
40
0.06
1
Spot Beam 30/30 4-Port Panel Anten (DOY15X3030MD4TRE)
50
0
7
STANDARD
72
1
11
-2.7724788076743687
21
-32.46647880767437
31
0
100
AcDbText
73
2
0
ENDSEC
0
SECTION
2
OBJECTS
0
DICTIONARY
5
C2B4
330
0
100
AcDbDictionary
281
1
3
ACAD_GROUP
350
C2CA
0
DICTIONARY
5
C2CA
330
C2B4
100
AcDbDictionary
281
1
0
ENDSEC
0
EOF