0
SECTION
2
HEADER
9
$HANDSEED
5
BF03
9
$INSUNITS
70
6
9
$ACADVER
1
AC1021
9
$DWGCODEPAGE
3
UTF-8
0
ENDSEC
0
SECTION
2
CLASSES
0
ENDSEC
0
SECTION
2
TABLES
0
TABLE
2
LTYPE
5
BF01
330
0
100
AcDbSymbolTable
70
5
0
LTYPE
5
BDF4
330
BF01
100
AcDbSymbolTableRecord
100
AcDbLinetypeTableRecord
2
CONTINUOUS
3
______
70
0
72
65
73
0
40
0
0
LTYPE
5
BDF5
330
BF01
100
AcDbSymbolTableRecord
100
AcDbLinetypeTableRecord
2
DASHED
3
_ _ _ 
70
0
72
65
73
2
40
10
49
5
74
0
49
-5
74
0
0
LTYPE
5
BDF6
330
BF01
100
AcDbSymbolTableRecord
100
AcDbLinetypeTableRecord
2
DOTTED
3
. . . 
70
0
72
65
73
2
40
5
49
0
74
0
49
-5
74
0
0
LTYPE
5
BDF8
330
BF01
100
AcDbSymbolTableRecord
100
AcDbLinetypeTableRecord
2
ByBlock
3

70
0
72
65
73
0
40
0
0
LTYPE
5
BDF9
330
BF01
100
AcDbSymbolTableRecord
100
AcDbLinetypeTableRecord
2
ByLayer
3

70
0
72
65
73
0
40
0
0
ENDTAB
0
TABLE
2
LAYER
5
BF02
330
0
100
AcDbSymbolTable
70
21
0
LAYER
5
BDF7
330
BF02
100
AcDbSymbolTableRecord
100
AcDbLayerTableRecord
2
0
62
7
70
0
6
CONTINUOUS
390
1
0
LAYER
5
BE0A
330
BF02
100
AcDbSymbolTableRecord
100
AcDbLayerTableRecord
2
ZEMIN_PLATFORM
62
8
70
0
6
CONTINUOUS
390
1
0
LAYER
5
BE0B
330
BF02
100
AcDbSymbolTableRecord
100
AcDbLayerTableRecord
2
KORKULUK_KAPI
62
4
70
0
6
CONTINUOUS
390
1
0
LAYER
5
BE0C
330
BF02
100
AcDbSymbolTableRecord
100
AcDbLayerTableRecord
2
CELIK_KIRIS_KOLON
62
9
70
0
6
CONTINUOUS
390
1
0
LAYER
5
BE0D
330
BF02
100
AcDbSymbolTableRecord
100
AcDbLayerTableRecord
2
MONTAJ_BORULARI
62
2
70
0
6
CONTINUOUS
390
1
0
LAYER
5
BE0E
330
BF02
100
AcDbSymbolTableRecord
100
AcDbLayerTableRecord
2
KABLO_TAVALARI
62
6
70
0
6
CONTINUOUS
390
1
0
LAYER
5
BE0F
330
BF02
100
AcDbSymbolTableRecord
100
AcDbLayerTableRecord
2
YURUYUS_KORIDORU
62
3
70
0
6
DASHED
390
1
0
LAYER
5
BE10
330
BF02
100
AcDbSymbolTableRecord
100
AcDbLayerTableRecord
2
OLCULER
62
1
70
0
6
CONTINUOUS
390
1
0
LAYER
5
BE11
330
BF02
100
AcDbSymbolTableRecord
100
AcDbLayerTableRecord
2
METIN_BILGI
62
7
70
0
6
CONTINUOUS
390
1
0
LAYER
5
BE12
330
BF02
100
AcDbSymbolTableRecord
100
AcDbLayerTableRecord
2
EKP_TURKCELL_RRU
62
5
70
0
6
CONTINUOUS
390
1
0
LAYER
5
BE13
330
BF02
100
AcDbSymbolTableRecord
100
AcDbLayerTableRecord
2
EKP_VODAFONE_RRU
62
1
70
0
6
CONTINUOUS
390
1
0
LAYER
5
BE14
330
BF02
100
AcDbSymbolTableRecord
100
AcDbLayerTableRecord
2
EKP_TURK_TELEKOM_RRU
62
4
70
0
6
CONTINUOUS
390
1
0
LAYER
5
BE15
330
BF02
100
AcDbSymbolTableRecord
100
AcDbLayerTableRecord
2
EKP_POI_TASIYICI_SASE
62
30
70
0
6
CONTINUOUS
390
1
0
LAYER
5
BE16
330
BF02
100
AcDbSymbolTableRecord
100
AcDbLayerTableRecord
2
EKP_POI_MODULLERI
62
40
70
0
6
CONTINUOUS
390
1
0
LAYER
5
BE17
330
BF02
100
AcDbSymbolTableRecord
100
AcDbLayerTableRecord
2
EKP_RECTIFIER_ELTEK_20U
62
3
70
0
6
CONTINUOUS
390
1
0
LAYER
5
BE18
330
BF02
100
AcDbSymbolTableRecord
100
AcDbLayerTableRecord
2
EKP_RECTIFIER_MTS9304A
62
94
70
0
6
CONTINUOUS
390
1
0
LAYER
5
BE19
330
BF02
100
AcDbSymbolTableRecord
100
AcDbLayerTableRecord
2
BLOK_OZEL_PLATFORM
62
140
70
0
6
CONTINUOUS
390
1
0
LAYER
5
BE1A
330
BF02
100
AcDbSymbolTableRecord
100
AcDbLayerTableRecord
2
EKP_MATSING_ANTEN
62
2
70
0
6
CONTINUOUS
390
1
0
LAYER
5
BE1B
330
BF02
100
AcDbSymbolTableRecord
100
AcDbLayerTableRecord
2
EKP_PANEL_ANTEN
62
6
70
0
6
CONTINUOUS
390
1
0
LAYER
5
BE1C
330
BF02
100
AcDbSymbolTableRecord
100
AcDbLayerTableRecord
2
EKP_ANTEN_TASIYICI_KOL
62
141
70
0
6
CONTINUOUS
390
1
0
LAYER
5
BE1D
330
BF02
100
AcDbSymbolTableRecord
100
AcDbLayerTableRecord
2
EKP_DIGER_EKIPMANLAR
62
7
70
0
6
CONTINUOUS
390
1
0
ENDTAB
0
TABLE
2
VPORT
5
BDFA
330
0
100
AcDbSymbolTable
70
1
0
VPORT
5
BE00
330
BDFA
100
AcDbSymbolTableRecord
100
AcDbViewportTableRecord
2
*ACTIVE
40
1000
70
0
0
ENDTAB
0
TABLE
2
STYLE
5
BDFB
330
0
100
AcDbSymbolTable
70
3
0
STYLE
5
BE01
330
BDFB
100
AcDbSymbolTableRecord
100
AcDbTextStyleTableRecord
2
standard
70
0
40
0
41
1
50
0
71
0
42
1
3
calibrib.ttf
4

1001
ACAD
1000
Calibri
1071
33554466
0
STYLE
5
BE02
330
BDFB
100
AcDbSymbolTableRecord
100
AcDbTextStyleTableRecord
2
STANDARD
70
0
40
0
41
1
50
0
71
0
42
1
3
calibrib.ttf
4

1001
ACAD
1000
Calibri
1071
33554466
0
STYLE
5
BE03
330
BDFB
100
AcDbSymbolTableRecord
100
AcDbTextStyleTableRecord
2
CALIBRI_BOLD
70
0
40
0
41
1
50
0
71
0
42
1
3
calibrib.ttf
4

1001
ACAD
1000
Calibri
1071
33554466
0
ENDTAB
0
TABLE
2
VIEW
5
BDFC
330
0
100
AcDbSymbolTable
70
0
0
ENDTAB
0
TABLE
2
UCS
5
BDFD
330
0
100
AcDbSymbolTable
70
0
0
ENDTAB
0
TABLE
2
APPID
5
BDFE
330
0
100
AcDbSymbolTable
70
1
0
APPID
5
BE04
330
BDFE
100
AcDbSymbolTableRecord
100
AcDbRegAppTableRecord
2
ACAD
70
0
0
ENDTAB
0
TABLE
2
DIMSTYLE
5
BDFF
330
0
100
AcDbSymbolTable
100
AcDbDimStyleTable
70
0
71
1
0
ENDTAB
0
TABLE
2
BLOCK_RECORD
5
BEFE
330
0
100
AcDbSymbolTable
70
2
0
BLOCK_RECORD
5
BEFF
330
BEFE
100
AcDbSymbolTableRecord
100
AcDbBlockTableRecord
2
*Model_Space
70
0
280
0
281
1
0
BLOCK_RECORD
5
BF00
330
BEFE
100
AcDbSymbolTableRecord
100
AcDbBlockTableRecord
2
*Paper_Space
70
0
280
0
281
1
0
ENDTAB
0
ENDSEC
0
SECTION
2
BLOCKS
0
BLOCK
5
BE05
330
0
100
AcDbEntity
100
AcDbBlockBegin
2
*Model_Space
70
0
10
0
20
0
30
0
3
*Model_Space
1

0
ENDBLK
5
BE06
330
0
100
AcDbEntity
100
AcDbBlockEnd
0
BLOCK
5
BE07
330
0
100
AcDbEntity
100
AcDbBlockBegin
2
*Paper_Space
70
0
10
0
20
0
30
0
3
*Paper_Space
1

0
ENDBLK
5
BE08
330
0
100
AcDbEntity
100
AcDbBlockEnd
0
ENDSEC
0
SECTION
2
ENTITIES
0
LWPOLYLINE
5
BE1E
330
BE05
100
AcDbEntity
100
AcDbPolyline
8
ZEMIN_PLATFORM
6
ByLayer
62
256
370
-1
90
4
70
1
10
-12.5
20
0
10
-12.5
20
2
10
12.5
20
2
10
12.5
20
0
0
LINE
5
BE1F
330
BE05
100
AcDbEntity
100
AcDbLine
8
ZEMIN_PLATFORM
10
-12
20
0
30
0
11
-12
21
2
31
0
0
LINE
5
BE20
330
BE05
100
AcDbEntity
100
AcDbLine
8
ZEMIN_PLATFORM
10
-11
20
0
30
0
11
-11
21
2
31
0
0
LINE
5
BE21
330
BE05
100
AcDbEntity
100
AcDbLine
8
ZEMIN_PLATFORM
10
-10
20
0
30
0
11
-10
21
2
31
0
0
LINE
5
BE22
330
BE05
100
AcDbEntity
100
AcDbLine
8
ZEMIN_PLATFORM
10
-9
20
0
30
0
11
-9
21
2
31
0
0
LINE
5
BE23
330
BE05
100
AcDbEntity
100
AcDbLine
8
ZEMIN_PLATFORM
10
-8
20
0
30
0
11
-8
21
2
31
0
0
LINE
5
BE24
330
BE05
100
AcDbEntity
100
AcDbLine
8
ZEMIN_PLATFORM
10
-7
20
0
30
0
11
-7
21
2
31
0
0
LINE
5
BE25
330
BE05
100
AcDbEntity
100
AcDbLine
8
ZEMIN_PLATFORM
10
-6
20
0
30
0
11
-6
21
2
31
0
0
LINE
5
BE26
330
BE05
100
AcDbEntity
100
AcDbLine
8
ZEMIN_PLATFORM
10
-5
20
0
30
0
11
-5
21
2
31
0
0
LINE
5
BE27
330
BE05
100
AcDbEntity
100
AcDbLine
8
ZEMIN_PLATFORM
10
-4
20
0
30
0
11
-4
21
2
31
0
0
LINE
5
BE28
330
BE05
100
AcDbEntity
100
AcDbLine
8
ZEMIN_PLATFORM
10
-3
20
0
30
0
11
-3
21
2
31
0
0
LINE
5
BE29
330
BE05
100
AcDbEntity
100
AcDbLine
8
ZEMIN_PLATFORM
10
-2
20
0
30
0
11
-2
21
2
31
0
0
LINE
5
BE2A
330
BE05
100
AcDbEntity
100
AcDbLine
8
ZEMIN_PLATFORM
10
-1
20
0
30
0
11
-1
21
2
31
0
0
LINE
5
BE2B
330
BE05
100
AcDbEntity
100
AcDbLine
8
ZEMIN_PLATFORM
10
0
20
0
30
0
11
0
21
2
31
0
0
LINE
5
BE2C
330
BE05
100
AcDbEntity
100
AcDbLine
8
ZEMIN_PLATFORM
10
1
20
0
30
0
11
1
21
2
31
0
0
LINE
5
BE2D
330
BE05
100
AcDbEntity
100
AcDbLine
8
ZEMIN_PLATFORM
10
2
20
0
30
0
11
2
21
2
31
0
0
LINE
5
BE2E
330
BE05
100
AcDbEntity
100
AcDbLine
8
ZEMIN_PLATFORM
10
3
20
0
30
0
11
3
21
2
31
0
0
LINE
5
BE2F
330
BE05
100
AcDbEntity
100
AcDbLine
8
ZEMIN_PLATFORM
10
4
20
0
30
0
11
4
21
2
31
0
0
LINE
5
BE30
330
BE05
100
AcDbEntity
100
AcDbLine
8
ZEMIN_PLATFORM
10
5
20
0
30
0
11
5
21
2
31
0
0
LINE
5
BE31
330
BE05
100
AcDbEntity
100
AcDbLine
8
ZEMIN_PLATFORM
10
6
20
0
30
0
11
6
21
2
31
0
0
LINE
5
BE32
330
BE05
100
AcDbEntity
100
AcDbLine
8
ZEMIN_PLATFORM
10
7
20
0
30
0
11
7
21
2
31
0
0
LINE
5
BE33
330
BE05
100
AcDbEntity
100
AcDbLine
8
ZEMIN_PLATFORM
10
8
20
0
30
0
11
8
21
2
31
0
0
LINE
5
BE34
330
BE05
100
AcDbEntity
100
AcDbLine
8
ZEMIN_PLATFORM
10
9
20
0
30
0
11
9
21
2
31
0
0
LINE
5
BE35
330
BE05
100
AcDbEntity
100
AcDbLine
8
ZEMIN_PLATFORM
10
10
20
0
30
0
11
10
21
2
31
0
0
LINE
5
BE36
330
BE05
100
AcDbEntity
100
AcDbLine
8
ZEMIN_PLATFORM
10
11
20
0
30
0
11
11
21
2
31
0
0
LINE
5
BE37
330
BE05
100
AcDbEntity
100
AcDbLine
8
ZEMIN_PLATFORM
10
12
20
0
30
0
11
12
21
2
31
0
0
LWPOLYLINE
5
BEB1
330
BE05
100
AcDbEntity
100
AcDbPolyline
8
ZEMIN_PLATFORM
6
ByLayer
62
256
370
-1
90
4
70
1
10
-12.5
20
-6.4
10
-12.5
20
-6
10
12.5
20
-6
10
12.5
20
-6.4
0
LINE
5
BEB2
330
BE05
100
AcDbEntity
100
AcDbLine
8
ZEMIN_PLATFORM
10
-12.5
20
-6
30
0
11
12.5
21
-6
31
0
0
LWPOLYLINE
5
BE38
330
BE05
100
AcDbEntity
100
AcDbPolyline
8
KORKULUK_KAPI
6
ByLayer
62
256
370
-1
90
4
70
1
10
-4.3
20
0.05
10
-4.3
20
1.9500000000000002
10
-1.7999999999999998
20
1.9500000000000002
10
-1.7999999999999998
20
0.05
0
LWPOLYLINE
5
BE39
330
BE05
100
AcDbEntity
100
AcDbPolyline
8
KORKULUK_KAPI
6
ByLayer
62
256
370
-1
90
4
70
1
10
-4.15
20
0.04
10
-4.15
20
0.065
10
-3.0500000000000003
20
0.065
10
-3.0500000000000003
20
0.04
0
LWPOLYLINE
5
BE3A
330
BE05
100
AcDbEntity
100
AcDbPolyline
8
KORKULUK_KAPI
6
ByLayer
62
256
370
-1
90
4
70
1
10
-3.0500000000000003
20
0.07
10
-3.0500000000000003
20
0.095
10
-1.9500000000000002
20
0.095
10
-1.9500000000000002
20
0.07
0
TEXT
5
BE3B
330
BE05
100
AcDbEntity
100
AcDbText
8
KORKULUK_KAPI
10
-3.0500000000000003
20
1
30
0
40
0.16
1
2.50m OZEL KORUMALI ALAN (110cm KAYAR KAPILAR)
50
0
7
STANDARD
72
1
11
-3.0500000000000003
21
1
31
0
100
AcDbText
73
0
0
LINE
5
BE3C
330
BE05
100
AcDbEntity
100
AcDbLine
8
KORKULUK_KAPI
10
-12.5
20
0.05
30
0
11
-4.3
21
0.05
31
0
0
LINE
5
BE3D
330
BE05
100
AcDbEntity
100
AcDbLine
8
KORKULUK_KAPI
10
-1.8
20
0.05
30
0
11
12.5
21
0.05
31
0
0
LINE
5
BE3E
330
BE05
100
AcDbEntity
100
AcDbLine
8
KORKULUK_KAPI
10
-12.5
20
1.95
30
0
11
-4.3
21
1.95
31
0
0
LINE
5
BE3F
330
BE05
100
AcDbEntity
100
AcDbLine
8
KORKULUK_KAPI
10
-1.8
20
1.95
30
0
11
12.5
21
1.95
31
0
0
LINE
5
BEB3
330
BE05
100
AcDbEntity
100
AcDbLine
8
KORKULUK_KAPI
10
-12.5
20
-4.9
30
0
11
12.5
21
-4.9
31
0
0
LWPOLYLINE
5
BEB4
330
BE05
100
AcDbEntity
100
AcDbPolyline
8
KORKULUK_KAPI
6
ByLayer
62
256
370
-1
90
4
70
1
10
-4.3
20
-6
10
-4.3
20
-4.3
10
-1.7999999999999998
20
-4.3
10
-1.7999999999999998
20
-6
0
CIRCLE
5
BE40
330
BE05
100
AcDbEntity
100
AcDbCircle
8
MONTAJ_BORULARI
10
-10
20
1.35
30
0
40
0.2
0
CIRCLE
5
BE41
330
BE05
100
AcDbEntity
100
AcDbCircle
8
MONTAJ_BORULARI
10
-10
20
1.35
30
0
40
0.27
0
CIRCLE
5
BE42
330
BE05
100
AcDbEntity
100
AcDbCircle
8
MONTAJ_BORULARI
10
-5
20
1.35
30
0
40
0.2
0
CIRCLE
5
BE43
330
BE05
100
AcDbEntity
100
AcDbCircle
8
MONTAJ_BORULARI
10
-5
20
1.35
30
0
40
0.27
0
CIRCLE
5
BE44
330
BE05
100
AcDbEntity
100
AcDbCircle
8
MONTAJ_BORULARI
10
0
20
1.35
30
0
40
0.2
0
CIRCLE
5
BE45
330
BE05
100
AcDbEntity
100
AcDbCircle
8
MONTAJ_BORULARI
10
0
20
1.35
30
0
40
0.27
0
CIRCLE
5
BE46
330
BE05
100
AcDbEntity
100
AcDbCircle
8
MONTAJ_BORULARI
10
5
20
1.35
30
0
40
0.2
0
CIRCLE
5
BE47
330
BE05
100
AcDbEntity
100
AcDbCircle
8
MONTAJ_BORULARI
10
5
20
1.35
30
0
40
0.27
0
CIRCLE
5
BE48
330
BE05
100
AcDbEntity
100
AcDbCircle
8
MONTAJ_BORULARI
10
10
20
1.35
30
0
40
0.2
0
CIRCLE
5
BE49
330
BE05
100
AcDbEntity
100
AcDbCircle
8
MONTAJ_BORULARI
10
10
20
1.35
30
0
40
0.27
0
LWPOLYLINE
5
BEBD
330
BE05
100
AcDbEntity
100
AcDbPolyline
8
MONTAJ_BORULARI
6
ByLayer
62
256
370
-1
90
4
70
1
10
-2.4899999999999998
20
-6
10
-2.4899999999999998
20
-5.985
10
-2.31
20
-5.985
10
-2.31
20
-6
0
LWPOLYLINE
5
BEBE
330
BE05
100
AcDbEntity
100
AcDbPolyline
8
MONTAJ_BORULARI
6
ByLayer
62
256
370
-1
90
4
70
1
10
-2.4299999999999997
20
-5.985
10
-2.4299999999999997
20
-4.3
10
-2.37
20
-4.3
10
-2.37
20
-5.985
0
LWPOLYLINE
5
BEBF
330
BE05
100
AcDbEntity
100
AcDbPolyline
8
MONTAJ_BORULARI
6
ByLayer
62
256
370
-1
90
4
70
1
10
-2.4499999999999997
20
-5.208
10
-2.4499999999999997
20
-5.112
10
-2.4299999999999997
20
-5.112
10
-2.4299999999999997
20
-5.208
0
LWPOLYLINE
5
BEC3
330
BE05
100
AcDbEntity
100
AcDbPolyline
8
MONTAJ_BORULARI
6
ByLayer
62
256
370
-1
90
4
70
1
10
-2.4499999999999997
20
-4.428
10
-2.4499999999999997
20
-4.332
10
-2.4299999999999997
20
-4.332
10
-2.4299999999999997
20
-4.428
0
LINE
5
BE93
330
BE05
100
AcDbEntity
100
AcDbLine
8
OLCULER
10
-12.5
20
0
30
0
11
-12.5
21
-1.04
31
0
0
LINE
5
BE94
330
BE05
100
AcDbEntity
100
AcDbLine
8
OLCULER
10
12.5
20
0
30
0
11
12.5
21
-1.04
31
0
0
LINE
5
BE95
330
BE05
100
AcDbEntity
100
AcDbLine
8
OLCULER
10
-12.5
20
-1
30
0
11
12.5
21
-1
31
0
0
LINE
5
BE96
330
BE05
100
AcDbEntity
100
AcDbLine
8
OLCULER
10
-12.528
20
-1.028
30
0
11
-12.472
21
-0.972
31
0
0
LINE
5
BE97
330
BE05
100
AcDbEntity
100
AcDbLine
8
OLCULER
10
12.472
20
-1.028
30
0
11
12.528
21
-0.972
31
0
0
TEXT
5
BE98
330
BE05
100
AcDbEntity
100
AcDbText
8
OLCULER
10
0
20
-1.084
30
0
40
0.06
1
25000 mm (TOPLAM BETON KAIDE BOYU)
50
0
7
STANDARD
72
1
11
0
21
-1.084
31
0
100
AcDbText
73
2
0
LINE
5
BE99
330
BE05
100
AcDbEntity
100
AcDbLine
8
OLCULER
10
-4.3
20
0
30
0
11
-4.3
21
-0.54
31
0
0
LINE
5
BE9A
330
BE05
100
AcDbEntity
100
AcDbLine
8
OLCULER
10
-1.8
20
0
30
0
11
-1.8
21
-0.54
31
0
0
LINE
5
BE9B
330
BE05
100
AcDbEntity
100
AcDbLine
8
OLCULER
10
-4.3
20
-0.5
30
0
11
-1.8
21
-0.5
31
0
0
LINE
5
BE9C
330
BE05
100
AcDbEntity
100
AcDbLine
8
OLCULER
10
-4.327999999999999
20
-0.528
30
0
11
-4.272
21
-0.472
31
0
0
LINE
5
BE9D
330
BE05
100
AcDbEntity
100
AcDbLine
8
OLCULER
10
-1.828
20
-0.528
30
0
11
-1.772
21
-0.472
31
0
0
TEXT
5
BE9E
330
BE05
100
AcDbEntity
100
AcDbText
8
OLCULER
10
-3.05
20
-0.584
30
0
40
0.06
1
2500 mm (KORUMALI ALAN)
50
0
7
STANDARD
72
1
11
-3.05
21
-0.584
31
0
100
AcDbText
73
2
0
LINE
5
BE9F
330
BE05
100
AcDbEntity
100
AcDbLine
8
OLCULER
10
-4.15
20
0
30
0
11
-4.15
21
-0.29
31
0
0
LINE
5
BEA0
330
BE05
100
AcDbEntity
100
AcDbLine
8
OLCULER
10
-3.0500000000000003
20
0
30
0
11
-3.0500000000000003
21
-0.29
31
0
0
LINE
5
BEA1
330
BE05
100
AcDbEntity
100
AcDbLine
8
OLCULER
10
-4.15
20
-0.25
30
0
11
-3.0500000000000003
21
-0.25
31
0
0
LINE
5
BEA2
330
BE05
100
AcDbEntity
100
AcDbLine
8
OLCULER
10
-4.178
20
-0.278
30
0
11
-4.122000000000001
21
-0.222
31
0
0
LINE
5
BEA3
330
BE05
100
AcDbEntity
100
AcDbLine
8
OLCULER
10
-3.0780000000000003
20
-0.278
30
0
11
-3.0220000000000002
21
-0.222
31
0
0
TEXT
5
BEA4
330
BE05
100
AcDbEntity
100
AcDbText
8
OLCULER
10
-3.6000000000000005
20
-0.33399999999999996
30
0
40
0.06
1
1100 mm (KAPI 1)
50
0
7
STANDARD
72
1
11
-3.6000000000000005
21
-0.33399999999999996
31
0
100
AcDbText
73
2
0
LINE
5
BEA5
330
BE05
100
AcDbEntity
100
AcDbLine
8
OLCULER
10
-3.0500000000000003
20
0
30
0
11
-3.0500000000000003
21
-0.29
31
0
0
LINE
5
BEA6
330
BE05
100
AcDbEntity
100
AcDbLine
8
OLCULER
10
-1.95
20
0
30
0
11
-1.95
21
-0.29
31
0
0
LINE
5
BEA7
330
BE05
100
AcDbEntity
100
AcDbLine
8
OLCULER
10
-3.0500000000000003
20
-0.25
30
0
11
-1.95
21
-0.25
31
0
0
LINE
5
BEA8
330
BE05
100
AcDbEntity
100
AcDbLine
8
OLCULER
10
-3.0780000000000003
20
-0.278
30
0
11
-3.0220000000000002
21
-0.222
31
0
0
LINE
5
BEA9
330
BE05
100
AcDbEntity
100
AcDbLine
8
OLCULER
10
-1.978
20
-0.278
30
0
11
-1.922
21
-0.222
31
0
0
TEXT
5
BEAA
330
BE05
100
AcDbEntity
100
AcDbText
8
OLCULER
10
-2.5
20
-0.33399999999999996
30
0
40
0.06
1
1100 mm (KAPI 2)
50
0
7
STANDARD
72
1
11
-2.5
21
-0.33399999999999996
31
0
100
AcDbText
73
2
0
LINE
5
BEAB
330
BE05
100
AcDbEntity
100
AcDbLine
8
OLCULER
10
-12.5
20
0
30
0
11
-13.139999999999999
21
0
31
0
0
LINE
5
BEAC
330
BE05
100
AcDbEntity
100
AcDbLine
8
OLCULER
10
-12.5
20
2
30
0
11
-13.139999999999999
21
2
31
0
0
LINE
5
BEAD
330
BE05
100
AcDbEntity
100
AcDbLine
8
OLCULER
10
-13.1
20
0
30
0
11
-13.1
21
2
31
0
0
LINE
5
BEAE
330
BE05
100
AcDbEntity
100
AcDbLine
8
OLCULER
10
-13.128
20
-0.027999999999999997
30
0
11
-13.072
21
0.027999999999999997
31
0
0
LINE
5
BEAF
330
BE05
100
AcDbEntity
100
AcDbLine
8
OLCULER
10
-13.128
20
1.972
30
0
11
-13.072
21
2.028
31
0
0
TEXT
5
BEB0
330
BE05
100
AcDbEntity
100
AcDbText
8
OLCULER
10
-13.142
20
1
30
0
40
0.06
1
2000 mm
50
90
7
STANDARD
72
1
11
-13.142
21
1
31
0
100
AcDbText
73
2
0
LWPOLYLINE
5
BEC7
330
BE05
100
AcDbEntity
100
AcDbPolyline
8
METIN_BILGI
6
ByLayer
62
256
370
-1
90
4
70
1
10
-12.5
20
3.5
10
-12.5
20
5.7
10
-4.5
20
5.7
10
-4.5
20
3.5
0
LINE
5
BEC8
330
BE05
100
AcDbEntity
100
AcDbLine
8
METIN_BILGI
10
-12.5
20
4.9
30
0
11
-4.5
21
4.9
31
0
0
LINE
5
BEC9
330
BE05
100
AcDbEntity
100
AcDbLine
8
METIN_BILGI
10
-12.5
20
4.2
30
0
11
-4.5
21
4.2
31
0
0
LINE
5
BECA
330
BE05
100
AcDbEntity
100
AcDbLine
8
METIN_BILGI
10
-8
20
3.5
30
0
11
-8
21
4.9
31
0
0
TEXT
5
BECB
330
BE05
100
AcDbEntity
100
AcDbText
8
METIN_BILGI
10
-12.3
20
5.15
30
0
40
0.32
1
GALATASARAY STADYUMU GSM ALTYAPI PROJESI
50
0
7
STANDARD
100
AcDbText
0
TEXT
5
BECC
330
BE05
100
AcDbEntity
100
AcDbText
8
METIN_BILGI
10
-12.3
20
4.45
30
0
40
0.26
1
ALAN: CAPRAZ KOSE TRIBUN (DETAYLI YERLESIM) (ALAN 4)
50
0
7
STANDARD
100
AcDbText
0
TEXT
5
BECD
330
BE05
100
AcDbEntity
100
AcDbText
8
METIN_BILGI
10
-12.3
20
3.7800000000000002
30
0
40
0.2
1
OLCEK: 1:1 m (1:1 m)
50
0
7
STANDARD
100
AcDbText
0
TEXT
5
BECE
330
BE05
100
AcDbEntity
100
AcDbText
8
METIN_BILGI
10
-7.8
20
4.45
30
0
40
0.18
1
CIZIM: ANTIGRAVITY CAD / BIM
50
0
7
STANDARD
100
AcDbText
0
TEXT
5
BECF
330
BE05
100
AcDbEntity
100
AcDbText
8
METIN_BILGI
10
-7.8
20
3.7800000000000002
30
0
40
0.18
1
TARIH: 2026-10-04
50
0
7
STANDARD
100
AcDbText
0
CIRCLE
5
BED0
330
BE05
100
AcDbEntity
100
AcDbCircle
8
METIN_BILGI
10
-14
20
4.6
30
0
40
0.8
0
LINE
5
BED1
330
BE05
100
AcDbEntity
100
AcDbLine
8
METIN_BILGI
10
-14
20
3.8799999999999994
30
0
11
-14
21
5.319999999999999
31
0
0
LINE
5
BED2
330
BE05
100
AcDbEntity
100
AcDbLine
8
METIN_BILGI
10
-14
20
5.319999999999999
30
0
11
-14.25
21
4.8999999999999995
31
0
0
LINE
5
BED3
330
BE05
100
AcDbEntity
100
AcDbLine
8
METIN_BILGI
10
-14
20
5.319999999999999
30
0
11
-13.75
21
4.8999999999999995
31
0
0
TEXT
5
BED4
330
BE05
100
AcDbEntity
100
AcDbText
8
METIN_BILGI
10
-14
20
5.6
30
0
40
0.3
1
K
50
0
7
STANDARD
72
1
11
-14
21
5.6
31
0
100
AcDbText
73
2
0
LWPOLYLINE
5
BED5
330
BE05
100
AcDbEntity
100
AcDbPolyline
8
METIN_BILGI
6
ByLayer
62
256
370
-1
90
4
70
1
10
-3
20
3.2
10
-3
20
6.4
10
8.2
20
6.4
10
8.2
20
3.2
0
TEXT
5
BED6
330
BE05
100
AcDbEntity
100
AcDbText
8
METIN_BILGI
10
-2.8
20
6.1000000000000005
30
0
40
0.24
1
EKIPMAN VE ALTYAPI YERLESIM CETVELI (BOM)
50
0
7
STANDARD
100
AcDbText
0
LINE
5
BED7
330
BE05
100
AcDbEntity
100
AcDbLine
8
METIN_BILGI
10
-3
20
6
30
0
11
8.2
21
6
31
0
0
LINE
5
BED8
330
BE05
100
AcDbEntity
100
AcDbLine
8
METIN_BILGI
10
-3
20
5.6
30
0
11
8.2
21
5.6
31
0
0
LINE
5
BED9
330
BE05
100
AcDbEntity
100
AcDbLine
8
METIN_BILGI
10
-1.8
20
3.2
30
0
11
-1.8
21
6
31
0
0
LINE
5
BEDA
330
BE05
100
AcDbEntity
100
AcDbLine
8
METIN_BILGI
10
4.2
20
3.2
30
0
11
4.2
21
6
31
0
0
LINE
5
BEDB
330
BE05
100
AcDbEntity
100
AcDbLine
8
METIN_BILGI
10
6.7
20
3.2
30
0
11
6.7
21
6
31
0
0
TEXT
5
BEDC
330
BE05
100
AcDbEntity
100
AcDbText
8
METIN_BILGI
10
-2.9
20
5.72
30
0
40
0.18
1
NO
50
0
7
STANDARD
100
AcDbText
0
TEXT
5
BEDD
330
BE05
100
AcDbEntity
100
AcDbText
8
METIN_BILGI
10
-1.7
20
5.72
30
0
40
0.18
1
EKIPMAN TANIMI
50
0
7
STANDARD
100
AcDbText
0
TEXT
5
BEDE
330
BE05
100
AcDbEntity
100
AcDbText
8
METIN_BILGI
10
4.3
20
5.72
30
0
40
0.18
1
BOYUTLAR (GxDxY)
50
0
7
STANDARD
100
AcDbText
0
TEXT
5
BEDF
330
BE05
100
AcDbEntity
100
AcDbText
8
METIN_BILGI
10
6.8
20
5.72
30
0
40
0.18
1
ADET
50
0
7
STANDARD
100
AcDbText
0
LINE
5
BEE0
330
BE05
100
AcDbEntity
100
AcDbLine
8
METIN_BILGI
10
-3
20
5.2
30
0
11
8.2
21
5.2
31
0
0
TEXT
5
BEE1
330
BE05
100
AcDbEntity
100
AcDbText
8
METIN_BILGI
10
-2.9
20
5.32
30
0
40
0.16
1
1
50
0
7
STANDARD
100
AcDbText
0
TEXT
5
BEE2
330
BE05
100
AcDbEntity
100
AcDbText
8
METIN_BILGI
10
-1.7
20
5.32
30
0
40
0.16
1
Beton Kaide Tablasi (Alan 4)
50
0
7
STANDARD
100
AcDbText
0
TEXT
5
BEE3
330
BE05
100
AcDbEntity
100
AcDbText
8
METIN_BILGI
10
4.3
20
5.32
30
0
40
0.16
1
25000x2000x400 mm
50
0
7
STANDARD
100
AcDbText
0
TEXT
5
BEE4
330
BE05
100
AcDbEntity
100
AcDbText
8
METIN_BILGI
10
6.8
20
5.32
30
0
40
0.16
1
1
50
0
7
STANDARD
100
AcDbText
0
LINE
5
BEE5
330
BE05
100
AcDbEntity
100
AcDbLine
8
METIN_BILGI
10
-3
20
4.8
30
0
11
8.2
21
4.8
31
0
0
TEXT
5
BEE6
330
BE05
100
AcDbEntity
100
AcDbText
8
METIN_BILGI
10
-2.9
20
4.92
30
0
40
0.16
1
2
50
0
7
STANDARD
100
AcDbText
0
TEXT
5
BEE7
330
BE05
100
AcDbEntity
100
AcDbText
8
METIN_BILGI
10
-1.7
20
4.92
30
0
40
0.16
1
2.50m Korumali Panel ve Kayar Kapi
50
0
7
STANDARD
100
AcDbText
0
TEXT
5
BEE8
330
BE05
100
AcDbEntity
100
AcDbText
8
METIN_BILGI
10
4.3
20
4.92
30
0
40
0.16
1
2500x1700 mm
50
0
7
STANDARD
100
AcDbText
0
TEXT
5
BEE9
330
BE05
100
AcDbEntity
100
AcDbText
8
METIN_BILGI
10
6.8
20
4.92
30
0
40
0.16
1
1
50
0
7
STANDARD
100
AcDbText
0
LINE
5
BEEA
330
BE05
100
AcDbEntity
100
AcDbLine
8
METIN_BILGI
10
-3
20
4.4
30
0
11
8.2
21
4.4
31
0
0
TEXT
5
BEEB
330
BE05
100
AcDbEntity
100
AcDbText
8
METIN_BILGI
10
-2.9
20
4.5200000000000005
30
0
40
0.16
1
3
50
0
7
STANDARD
100
AcDbText
0
TEXT
5
BEEC
330
BE05
100
AcDbEntity
100
AcDbText
8
METIN_BILGI
10
-1.7
20
4.5200000000000005
30
0
40
0.16
1
Canovate 19" 2'li POI Kucuk Rack Sasesi
50
0
7
STANDARD
100
AcDbText
0
TEXT
5
BEED
330
BE05
100
AcDbEntity
100
AcDbText
8
METIN_BILGI
10
4.3
20
4.5200000000000005
30
0
40
0.16
1
600x700x1000 mm
50
0
7
STANDARD
100
AcDbText
0
TEXT
5
BEEE
330
BE05
100
AcDbEntity
100
AcDbText
8
METIN_BILGI
10
6.8
20
4.5200000000000005
30
0
40
0.16
1
1
50
0
7
STANDARD
100
AcDbText
0
LINE
5
BEEF
330
BE05
100
AcDbEntity
100
AcDbLine
8
METIN_BILGI
10
-3
20
4
30
0
11
8.2
21
4
31
0
0
TEXT
5
BEF0
330
BE05
100
AcDbEntity
100
AcDbText
8
METIN_BILGI
10
-2.9
20
4.12
30
0
40
0.16
1
4
50
0
7
STANDARD
100
AcDbText
0
TEXT
5
BEF1
330
BE05
100
AcDbEntity
100
AcDbText
8
METIN_BILGI
10
-1.7
20
4.12
30
0
40
0.16
1
Prose CB-12-POI-64F-A12 Modulleri
50
0
7
STANDARD
100
AcDbText
0
TEXT
5
BEF2
330
BE05
100
AcDbEntity
100
AcDbText
8
METIN_BILGI
10
4.3
20
4.12
30
0
40
0.16
1
400x350x260 mm
50
0
7
STANDARD
100
AcDbText
0
TEXT
5
BEF3
330
BE05
100
AcDbEntity
100
AcDbText
8
METIN_BILGI
10
6.8
20
4.12
30
0
40
0.16
1
2
50
0
7
STANDARD
100
AcDbText
0
LINE
5
BEF4
330
BE05
100
AcDbEntity
100
AcDbLine
8
METIN_BILGI
10
-3
20
3.5999999999999996
30
0
11
8.2
21
3.5999999999999996
31
0
0
TEXT
5
BEF5
330
BE05
100
AcDbEntity
100
AcDbText
8
METIN_BILGI
10
-2.9
20
3.7199999999999998
30
0
40
0.16
1
5
50
0
7
STANDARD
100
AcDbText
0
TEXT
5
BEF6
330
BE05
100
AcDbEntity
100
AcDbText
8
METIN_BILGI
10
-1.7
20
3.7199999999999998
30
0
40
0.16
1
Tek Tek RRU Modulleri (7 Adet Bagimsiz)
50
0
7
STANDARD
100
AcDbText
0
TEXT
5
BEF7
330
BE05
100
AcDbEntity
100
AcDbText
8
METIN_BILGI
10
4.3
20
3.7199999999999998
30
0
40
0.16
1
398x145x533 mm
50
0
7
STANDARD
100
AcDbText
0
TEXT
5
BEF8
330
BE05
100
AcDbEntity
100
AcDbText
8
METIN_BILGI
10
6.8
20
3.7199999999999998
30
0
40
0.16
1
7
50
0
7
STANDARD
100
AcDbText
0
LINE
5
BEF9
330
BE05
100
AcDbEntity
100
AcDbLine
8
METIN_BILGI
10
-3
20
3.1999999999999997
30
0
11
8.2
21
3.1999999999999997
31
0
0
TEXT
5
BEFA
330
BE05
100
AcDbEntity
100
AcDbText
8
METIN_BILGI
10
-2.9
20
3.32
30
0
40
0.16
1
6
50
0
7
STANDARD
100
AcDbText
0
TEXT
5
BEFB
330
BE05
100
AcDbEntity
100
AcDbText
8
METIN_BILGI
10
-1.7
20
3.32
30
0
40
0.16
1
Spot Beam 30/30 Panel Antenler ve Askilari
50
0
7
STANDARD
100
AcDbText
0
TEXT
5
BEFC
330
BE05
100
AcDbEntity
100
AcDbText
8
METIN_BILGI
10
4.3
20
3.32
30
0
40
0.16
1
990x1130x2810 mm
50
0
7
STANDARD
100
AcDbText
0
TEXT
5
BEFD
330
BE05
100
AcDbEntity
100
AcDbText
8
METIN_BILGI
10
6.8
20
3.32
30
0
40
0.16
1
2
50
0
7
STANDARD
100
AcDbText
0
LWPOLYLINE
5
BE70
330
BE05
100
AcDbEntity
100
AcDbPolyline
8
EKP_TURKCELL_RRU
6
ByLayer
62
256
370
-1
90
4
70
1
10
-2.6855680490707305
20
0.9827264834778792
10
-2.6855680490707305
20
1.4927264857875593
10
-2.545568048474684
20
1.4927264857875593
10
-2.545568048474684
20
0.9827264834778792
0
LINE
5
BE71
330
BE05
100
AcDbEntity
100
AcDbLine
8
EKP_TURKCELL_RRU
10
-2.6603680489634423
20
0.9827264834778792
30
0
11
-2.6603680489634423
21
1.4927264857875593
31
0
0
LINE
5
BE72
330
BE05
100
AcDbEntity
100
AcDbLine
8
EKP_TURKCELL_RRU
10
-2.6435680488919164
20
1.2377264846327192
30
0
11
-2.587568048653498
21
1.2377264846327192
31
0
0
LINE
5
BE73
330
BE05
100
AcDbEntity
100
AcDbLine
8
EKP_TURKCELL_RRU
10
-2.6155680487727073
20
1.2097264845135098
30
0
11
-2.6155680487727073
21
1.2657264847519285
31
0
0
TEXT
5
BE74
330
BE05
100
AcDbEntity
100
AcDbText
8
EKP_TURKCELL_RRU
10
-2.6155680487727073
20
1.261246484732855
30
0
40
0.03920000016689301
1
Turkcell RRU5301 (Alt Kot)
50
0
7
STANDARD
72
1
11
-2.6155680487727073
21
1.261246484732855
31
0
100
AcDbText
73
2
0
LWPOLYLINE
5
BE75
330
BE05
100
AcDbEntity
100
AcDbPolyline
8
EKP_TURKCELL_RRU
6
ByLayer
62
256
370
-1
90
4
70
1
10
-2.525568049070731
20
0.9827264834778792
10
-2.525568049070731
20
1.4927264857875593
10
-2.3855680484746844
20
1.4927264857875593
10
-2.3855680484746844
20
0.9827264834778792
0
LINE
5
BE76
330
BE05
100
AcDbEntity
100
AcDbLine
8
EKP_TURKCELL_RRU
10
-2.5003680489634426
20
0.9827264834778792
30
0
11
-2.5003680489634426
21
1.4927264857875593
31
0
0
LINE
5
BE77
330
BE05
100
AcDbEntity
100
AcDbLine
8
EKP_TURKCELL_RRU
10
-2.4835680488919167
20
1.2377264846327192
30
0
11
-2.4275680486534985
21
1.2377264846327192
31
0
0
LINE
5
BE78
330
BE05
100
AcDbEntity
100
AcDbLine
8
EKP_TURKCELL_RRU
10
-2.4555680487727076
20
1.2097264845135098
30
0
11
-2.4555680487727076
21
1.2657264847519285
31
0
0
TEXT
5
BE79
330
BE05
100
AcDbEntity
100
AcDbText
8
EKP_TURKCELL_RRU
10
-2.4555680487727076
20
1.261246484732855
30
0
40
0.03920000016689301
1
Turkcell RRU5502 (Alt Kot)
50
0
7
STANDARD
72
1
11
-2.4555680487727076
21
1.261246484732855
31
0
100
AcDbText
73
2
0
LWPOLYLINE
5
BEC0
330
BE05
100
AcDbEntity
100
AcDbPolyline
8
EKP_TURKCELL_RRU
6
ByLayer
62
256
370
-1
90
4
70
1
10
-2.8299999999999996
20
-5.4
10
-2.8299999999999996
20
-4.92
10
-2.4499999999999997
20
-4.92
10
-2.4499999999999997
20
-5.4
0
LWPOLYLINE
5
BEC1
330
BE05
100
AcDbEntity
100
AcDbPolyline
8
EKP_TURKCELL_RRU
6
ByLayer
62
256
370
-1
90
4
70
1
10
-2.7159999999999997
20
-4.92
10
-2.7159999999999997
20
-4.89
10
-2.5639999999999996
20
-4.89
10
-2.5639999999999996
20
-4.92
0
TEXT
5
BEC2
330
BE05
100
AcDbEntity
100
AcDbText
8
EKP_TURKCELL_RRU
10
-2.6399999999999997
20
-5.16
30
0
40
0.045
1
TCELL
50
0
7
STANDARD
72
1
11
-2.6399999999999997
21
-5.16
31
0
100
AcDbText
73
2
0
LWPOLYLINE
5
BE84
330
BE05
100
AcDbEntity
100
AcDbPolyline
8
EKP_VODAFONE_RRU
6
ByLayer
62
256
370
-1
90
4
70
1
10
-2.6830680514549163
20
0.9667264808552748
10
-2.6830680514549163
20
1.5087264857875593
10
-2.5480680460904983
20
1.5087264857875593
10
-2.5480680460904983
20
0.9667264808552748
0
LINE
5
BE85
330
BE05
100
AcDbEntity
100
AcDbLine
8
EKP_VODAFONE_RRU
10
-2.658768050489321
20
0.9667264808552748
30
0
11
-2.658768050489321
21
1.5087264857875593
31
0
0
LINE
5
BE86
330
BE05
100
AcDbEntity
100
AcDbLine
8
EKP_VODAFONE_RRU
10
-2.642568049845591
20
1.237726483321417
30
0
11
-2.5885680476998236
21
1.237726483321417
31
0
0
LINE
5
BE87
330
BE05
100
AcDbEntity
100
AcDbLine
8
EKP_VODAFONE_RRU
10
-2.6155680487727073
20
1.2107264822485333
30
0
11
-2.6155680487727073
21
1.2647264843943007
31
0
0
TEXT
5
BE88
330
BE05
100
AcDbEntity
100
AcDbText
8
EKP_VODAFONE_RRU
10
-2.6155680487727073
20
1.2604064842226392
30
0
40
0.03780000150203705
1
Vodafone RRU5526t (Ust Kot 1)
50
0
7
STANDARD
72
1
11
-2.6155680487727073
21
1.2604064842226392
31
0
100
AcDbText
73
2
0
LWPOLYLINE
5
BE89
330
BE05
100
AcDbEntity
100
AcDbPolyline
8
EKP_VODAFONE_RRU
6
ByLayer
62
256
370
-1
90
4
70
1
10
-2.5230680514549166
20
0.9667264808552748
10
-2.5230680514549166
20
1.5087264857875593
10
-2.3880680460904986
20
1.5087264857875593
10
-2.3880680460904986
20
0.9667264808552748
0
LINE
5
BE8A
330
BE05
100
AcDbEntity
100
AcDbLine
8
EKP_VODAFONE_RRU
10
-2.4987680504893213
20
0.9667264808552748
30
0
11
-2.4987680504893213
21
1.5087264857875593
31
0
0
LINE
5
BE8B
330
BE05
100
AcDbEntity
100
AcDbLine
8
EKP_VODAFONE_RRU
10
-2.4825680498455913
20
1.237726483321417
30
0
11
-2.428568047699824
21
1.237726483321417
31
0
0
LINE
5
BE8C
330
BE05
100
AcDbEntity
100
AcDbLine
8
EKP_VODAFONE_RRU
10
-2.4555680487727076
20
1.2107264822485333
30
0
11
-2.4555680487727076
21
1.2647264843943007
31
0
0
TEXT
5
BE8D
330
BE05
100
AcDbEntity
100
AcDbText
8
EKP_VODAFONE_RRU
10
-2.4555680487727076
20
1.2604064842226392
30
0
40
0.03780000150203705
1
Vodafone RRU5526t (Ust Kot 2)
50
0
7
STANDARD
72
1
11
-2.4555680487727076
21
1.2604064842226392
31
0
100
AcDbText
73
2
0
LWPOLYLINE
5
BE8E
330
BE05
100
AcDbEntity
100
AcDbPolyline
8
EKP_VODAFONE_RRU
6
ByLayer
62
256
370
-1
90
4
70
1
10
-2.363068051454917
20
0.9667264808552748
10
-2.363068051454917
20
1.5087264857875593
10
-2.228068046090499
20
1.5087264857875593
10
-2.228068046090499
20
0.9667264808552748
0
LINE
5
BE8F
330
BE05
100
AcDbEntity
100
AcDbLine
8
EKP_VODAFONE_RRU
10
-2.3387680504893216
20
0.9667264808552748
30
0
11
-2.3387680504893216
21
1.5087264857875593
31
0
0
LINE
5
BE90
330
BE05
100
AcDbEntity
100
AcDbLine
8
EKP_VODAFONE_RRU
10
-2.3225680498455916
20
1.237726483321417
30
0
11
-2.2685680476998242
21
1.237726483321417
31
0
0
LINE
5
BE91
330
BE05
100
AcDbEntity
100
AcDbLine
8
EKP_VODAFONE_RRU
10
-2.295568048772708
20
1.2107264822485333
30
0
11
-2.295568048772708
21
1.2647264843943007
31
0
0
TEXT
5
BE92
330
BE05
100
AcDbEntity
100
AcDbText
8
EKP_VODAFONE_RRU
10
-2.295568048772708
20
1.2604064842226392
30
0
40
0.03780000150203705
1
Vodafone RRU5526t (Ust Kot 3)
50
0
7
STANDARD
72
1
11
-2.295568048772708
21
1.2604064842226392
31
0
100
AcDbText
73
2
0
LWPOLYLINE
5
BEC4
330
BE05
100
AcDbEntity
100
AcDbPolyline
8
EKP_VODAFONE_RRU
6
ByLayer
62
256
370
-1
90
4
70
1
10
-2.8299999999999996
20
-4.62
10
-2.8299999999999996
20
-4.140000000000001
10
-2.4499999999999997
20
-4.140000000000001
10
-2.4499999999999997
20
-4.62
0
LWPOLYLINE
5
BEC5
330
BE05
100
AcDbEntity
100
AcDbPolyline
8
EKP_VODAFONE_RRU
6
ByLayer
62
256
370
-1
90
4
70
1
10
-2.7159999999999997
20
-4.140000000000001
10
-2.7159999999999997
20
-4.11
10
-2.5639999999999996
20
-4.11
10
-2.5639999999999996
20
-4.140000000000001
0
TEXT
5
BEC6
330
BE05
100
AcDbEntity
100
AcDbText
8
EKP_VODAFONE_RRU
10
-2.6399999999999997
20
-4.38
30
0
40
0.045
1
VODA
50
0
7
STANDARD
72
1
11
-2.6399999999999997
21
-4.38
31
0
100
AcDbText
73
2
0
LWPOLYLINE
5
BE7A
330
BE05
100
AcDbEntity
100
AcDbPolyline
8
EKP_TURK_TELEKOM_RRU
6
ByLayer
62
256
370
-1
90
4
70
1
10
-2.365568049070731
20
1.00472648335867
10
-2.365568049070731
20
1.4707264857875593
10
-2.2255680484746847
20
1.4707264857875593
10
-2.2255680484746847
20
1.00472648335867
0
LINE
5
BE7B
330
BE05
100
AcDbEntity
100
AcDbLine
8
EKP_TURK_TELEKOM_RRU
10
-2.340368048963443
20
1.00472648335867
30
0
11
-2.340368048963443
21
1.4707264857875593
31
0
0
LINE
5
BE7C
330
BE05
100
AcDbEntity
100
AcDbLine
8
EKP_TURK_TELEKOM_RRU
10
-2.323568048891917
20
1.2377264845731146
30
0
11
-2.267568048653499
21
1.2377264845731146
31
0
0
LINE
5
BE7D
330
BE05
100
AcDbEntity
100
AcDbLine
8
EKP_TURK_TELEKOM_RRU
10
-2.295568048772708
20
1.2097264844539053
30
0
11
-2.295568048772708
21
1.265726484692324
31
0
0
TEXT
5
BE7E
330
BE05
100
AcDbEntity
100
AcDbText
8
EKP_TURK_TELEKOM_RRU
10
-2.295568048772708
20
1.2612464846732505
30
0
40
0.03920000016689301
1
TT RRU5527 (Alt Kot)
50
0
7
STANDARD
72
1
11
-2.295568048772708
21
1.2612464846732505
31
0
100
AcDbText
73
2
0
LWPOLYLINE
5
BE7F
330
BE05
100
AcDbEntity
100
AcDbPolyline
8
EKP_TURK_TELEKOM_RRU
6
ByLayer
62
256
370
-1
90
4
70
1
10
-2.205568049070731
20
1.00472648335867
10
-2.205568049070731
20
1.4707264857875593
10
-2.0655680484746846
20
1.4707264857875593
10
-2.0655680484746846
20
1.00472648335867
0
LINE
5
BE80
330
BE05
100
AcDbEntity
100
AcDbLine
8
EKP_TURK_TELEKOM_RRU
10
-2.1803680489634427
20
1.00472648335867
30
0
11
-2.1803680489634427
21
1.4707264857875593
31
0
0
LINE
5
BE81
330
BE05
100
AcDbEntity
100
AcDbLine
8
EKP_TURK_TELEKOM_RRU
10
-2.163568048891917
20
1.2377264845731146
30
0
11
-2.1075680486534987
21
1.2377264845731146
31
0
0
LINE
5
BE82
330
BE05
100
AcDbEntity
100
AcDbLine
8
EKP_TURK_TELEKOM_RRU
10
-2.135568048772708
20
1.2097264844539053
30
0
11
-2.135568048772708
21
1.265726484692324
31
0
0
TEXT
5
BE83
330
BE05
100
AcDbEntity
100
AcDbText
8
EKP_TURK_TELEKOM_RRU
10
-2.135568048772708
20
1.2612464846732505
30
0
40
0.03920000016689301
1
TT RRU5818W (Alt Kot)
50
0
7
STANDARD
72
1
11
-2.135568048772708
21
1.2612464846732505
31
0
100
AcDbText
73
2
0
LWPOLYLINE
5
BE5E
330
BE05
100
AcDbEntity
100
AcDbPolyline
8
EKP_POI_TASIYICI_SASE
6
ByLayer
62
256
370
-1
90
4
70
1
10
-4.034126808828715
20
0.9234661973048301
10
-4.034126808828715
20
1.6234661853839012
10
-3.414126808232668
20
1.6234661853839012
10
-3.414126808232668
20
0.9234661973048301
0
LWPOLYLINE
5
BE5F
330
BE05
100
AcDbEntity
100
AcDbPolyline
8
EKP_POI_TASIYICI_SASE
6
ByLayer
62
256
370
-1
90
4
70
1
10
-4.034126808828715
20
0.9234661973048301
10
-4.034126808828715
20
0.9834661973048302
10
-3.9741268088287147
20
0.9834661973048302
10
-3.9741268088287147
20
0.9234661973048301
0
LWPOLYLINE
5
BE60
330
BE05
100
AcDbEntity
100
AcDbPolyline
8
EKP_POI_TASIYICI_SASE
6
ByLayer
62
256
370
-1
90
4
70
1
10
-3.474126808232668
20
0.9234661973048301
10
-3.474126808232668
20
0.9834661973048302
10
-3.414126808232668
20
0.9834661973048302
10
-3.414126808232668
20
0.9234661973048301
0
LWPOLYLINE
5
BE61
330
BE05
100
AcDbEntity
100
AcDbPolyline
8
EKP_POI_TASIYICI_SASE
6
ByLayer
62
256
370
-1
90
4
70
1
10
-4.034126808828715
20
1.5634661853839011
10
-4.034126808828715
20
1.6234661853839012
10
-3.9741268088287147
20
1.6234661853839012
10
-3.9741268088287147
20
1.5634661853839011
0
LWPOLYLINE
5
BE62
330
BE05
100
AcDbEntity
100
AcDbPolyline
8
EKP_POI_TASIYICI_SASE
6
ByLayer
62
256
370
-1
90
4
70
1
10
-3.474126808232668
20
1.5634661853839011
10
-3.474126808232668
20
1.6234661853839012
10
-3.414126808232668
20
1.6234661853839012
10
-3.414126808232668
20
1.5634661853839011
0
LWPOLYLINE
5
BE63
330
BE05
100
AcDbEntity
100
AcDbPolyline
8
EKP_POI_TASIYICI_SASE
6
ByLayer
62
256
370
-1
90
4
70
1
10
-3.990426808530691
20
0.9834661973048302
10
-3.990426808530691
20
1.5634661853839011
10
-3.965426808530691
20
1.5634661853839011
10
-3.965426808530691
20
0.9834661973048302
0
LWPOLYLINE
5
BE64
330
BE05
100
AcDbEntity
100
AcDbPolyline
8
EKP_POI_TASIYICI_SASE
6
ByLayer
62
256
370
-1
90
4
70
1
10
-3.4828268085306915
20
0.9834661973048302
10
-3.4828268085306915
20
1.5634661853839011
10
-3.4578268085306916
20
1.5634661853839011
10
-3.4578268085306916
20
0.9834661973048302
0
TEXT
5
BE65
330
BE05
100
AcDbEntity
100
AcDbText
8
EKP_POI_TASIYICI_SASE
10
-3.7241268085306913
20
1.2734661913443657
30
0
40
0.055
1
2'li POI Kucuk Rack Blogu (2x POI Dolu) (Alan 3)
50
0
7
STANDARD
72
1
11
-3.7241268085306913
21
1.2734661913443657
31
0
100
AcDbText
73
2
0
LWPOLYLINE
5
BEB5
330
BE05
100
AcDbEntity
100
AcDbPolyline
8
EKP_POI_TASIYICI_SASE
6
ByLayer
62
256
370
-1
90
4
70
1
10
-3.72
20
-6
10
-3.72
20
-5.9
10
-3.12
20
-5.9
10
-3.12
20
-6
0
LWPOLYLINE
5
BEB6
330
BE05
100
AcDbEntity
100
AcDbPolyline
8
EKP_POI_TASIYICI_SASE
6
ByLayer
62
256
370
-1
90
4
70
1
10
-3.72
20
-5.06
10
-3.72
20
-5
10
-3.12
20
-5
10
-3.12
20
-5.06
0
LWPOLYLINE
5
BEB7
330
BE05
100
AcDbEntity
100
AcDbPolyline
8
EKP_POI_TASIYICI_SASE
6
ByLayer
62
256
370
-1
90
4
70
1
10
-3.72
20
-5.9
10
-3.72
20
-5.06
10
-3.6700000000000004
20
-5.06
10
-3.6700000000000004
20
-5.9
0
LWPOLYLINE
5
BEB8
330
BE05
100
AcDbEntity
100
AcDbPolyline
8
EKP_POI_TASIYICI_SASE
6
ByLayer
62
256
370
-1
90
4
70
1
10
-3.17
20
-5.9
10
-3.17
20
-5.06
10
-3.12
20
-5.06
10
-3.12
20
-5.9
0
LWPOLYLINE
5
BE66
330
BE05
100
AcDbEntity
100
AcDbPolyline
8
EKP_POI_MODULLERI
6
ByLayer
62
256
370
-1
90
4
70
1
10
-3.964126808083656
20
1.0734661911581012
10
-3.964126808083656
20
1.4484661883641334
10
-3.484126808977725
20
1.4484661883641334
10
-3.484126808977725
20
1.0734661911581012
0
LINE
5
BE67
330
BE05
100
AcDbEntity
100
AcDbLine
8
EKP_POI_MODULLERI
10
-3.964126808083656
20
1.129716190739006
30
0
11
-3.484126808977725
21
1.129716190739006
31
0
0
LINE
5
BE68
330
BE05
100
AcDbEntity
100
AcDbLine
8
EKP_POI_MODULLERI
10
-3.791626808027776
20
1.2609661897611173
30
0
11
-3.6566268090336047
21
1.2609661897611173
31
0
0
LINE
5
BE69
330
BE05
100
AcDbEntity
100
AcDbLine
8
EKP_POI_MODULLERI
10
-3.7241268085306904
20
1.1934661902640316
30
0
11
-3.7241268085306904
21
1.328466189258203
31
0
0
TEXT
5
BE6A
330
BE05
100
AcDbEntity
100
AcDbText
8
EKP_POI_MODULLERI
10
-3.7241268085306904
20
1.2879661897611172
30
0
40
0.045
1
CB-12-POI-64F-A12 (5G NR POI)
50
0
7
STANDARD
72
1
11
-3.7241268085306904
21
1.2879661897611172
31
0
100
AcDbText
73
2
0
LWPOLYLINE
5
BE6B
330
BE05
100
AcDbEntity
100
AcDbPolyline
8
EKP_POI_MODULLERI
6
ByLayer
62
256
370
-1
90
4
70
1
10
-3.964126808083656
20
1.0734661911581012
10
-3.964126808083656
20
1.4484661883641334
10
-3.484126808977725
20
1.4484661883641334
10
-3.484126808977725
20
1.0734661911581012
0
LINE
5
BE6C
330
BE05
100
AcDbEntity
100
AcDbLine
8
EKP_POI_MODULLERI
10
-3.964126808083656
20
1.129716190739006
30
0
11
-3.484126808977725
21
1.129716190739006
31
0
0
LINE
5
BE6D
330
BE05
100
AcDbEntity
100
AcDbLine
8
EKP_POI_MODULLERI
10
-3.791626808027776
20
1.2609661897611173
30
0
11
-3.6566268090336047
21
1.2609661897611173
31
0
0
LINE
5
BE6E
330
BE05
100
AcDbEntity
100
AcDbLine
8
EKP_POI_MODULLERI
10
-3.7241268085306904
20
1.1934661902640316
30
0
11
-3.7241268085306904
21
1.328466189258203
31
0
0
TEXT
5
BE6F
330
BE05
100
AcDbEntity
100
AcDbText
8
EKP_POI_MODULLERI
10
-3.7241268085306904
20
1.2879661897611172
30
0
40
0.045
1
CB-12-POI-64F-A12 (5G NR POI)
50
0
7
STANDARD
72
1
11
-3.7241268085306904
21
1.2879661897611172
31
0
100
AcDbText
73
2
0
LWPOLYLINE
5
BEB9
330
BE05
100
AcDbEntity
100
AcDbPolyline
8
EKP_POI_MODULLERI
6
ByLayer
62
256
370
-1
90
4
70
1
10
-3.6600000000000006
20
-5.885000000000001
10
-3.6600000000000006
20
-5.625000000000001
10
-3.1800000000000006
20
-5.625000000000001
10
-3.1800000000000006
20
-5.885000000000001
0
TEXT
5
BEBA
330
BE05
100
AcDbEntity
100
AcDbText
8
EKP_POI_MODULLERI
10
-3.4200000000000004
20
-5.755000000000001
30
0
40
0.04
1
POI-1
50
0
7
STANDARD
72
1
11
-3.4200000000000004
21
-5.755000000000001
31
0
100
AcDbText
73
2
0
LWPOLYLINE
5
BEBB
330
BE05
100
AcDbEntity
100
AcDbPolyline
8
EKP_POI_MODULLERI
6
ByLayer
62
256
370
-1
90
4
70
1
10
-3.6600000000000006
20
-5.57
10
-3.6600000000000006
20
-5.3100000000000005
10
-3.1800000000000006
20
-5.3100000000000005
10
-3.1800000000000006
20
-5.57
0
TEXT
5
BEBC
330
BE05
100
AcDbEntity
100
AcDbText
8
EKP_POI_MODULLERI
10
-3.4200000000000004
20
-5.44
30
0
40
0.04
1
POI-2
50
0
7
STANDARD
72
1
11
-3.4200000000000004
21
-5.44
31
0
100
AcDbText
73
2
0
LWPOLYLINE
5
BE4A
330
BE05
100
AcDbEntity
100
AcDbPolyline
8
EKP_PANEL_ANTEN
6
ByLayer
62
256
370
-1
90
4
70
1
10
-3.2663090024664094
20
-32.11361903145745
10
-3.2663090024664094
20
-30.981648612882328
10
-2.278648612882328
20
-30.981648612882328
10
-2.278648612882328
20
-32.11361903145745
0
LINE
5
BE4B
330
BE05
100
AcDbEntity
100
AcDbLine
8
EKP_PANEL_ANTEN
10
-2.970010885591185
20
-31.547633822169892
30
0
11
-2.5749467297575523
21
-31.547633822169892
31
0
0
LINE
5
BE4C
330
BE05
100
AcDbEntity
100
AcDbLine
8
EKP_PANEL_ANTEN
10
-2.7724788076743687
20
-31.774027905884918
30
0
11
-2.7724788076743687
21
-31.321239738454867
31
0
0
LINE
5
BE4D
330
BE05
100
AcDbEntity
100
AcDbLine
8
EKP_PANEL_ANTEN
10
-2.7724788076743687
20
-31.88722494774243
30
0
11
-2.7724788076743687
21
-31.208042696597353
31
0
0
TEXT
5
BE4E
330
BE05
100
AcDbEntity
100
AcDbText
8
EKP_PANEL_ANTEN
10
-2.7724788076743687
20
-31.547633822169892
30
0
40
0.06
1
Spot Beam 30/30 Panel Anten Cati Tasiyicisi Asili Montaji (Alan 3 - Anten 1)
50
0
7
STANDARD
72
1
11
-2.7724788076743687
21
-31.547633822169892
31
0
100
AcDbText
73
2
0
LWPOLYLINE
5
BE4F
330
BE05
100
AcDbEntity
100
AcDbPolyline
8
EKP_PANEL_ANTEN
6
ByLayer
62
256
370
-1
90
4
70
1
10
-3.2663090024664094
20
-31.969309002466417
10
-3.2663090024664094
20
-30.98164861288233
10
-2.278648612882328
20
-30.98164861288233
10
-2.278648612882328
20
-31.969309002466417
0
LINE
5
BE50
330
BE05
100
AcDbEntity
100
AcDbLine
8
EKP_PANEL_ANTEN
10
-2.970010885591185
20
-31.475478807674374
30
0
11
-2.5749467297575523
21
-31.475478807674374
31
0
0
LINE
5
BE51
330
BE05
100
AcDbEntity
100
AcDbLine
8
EKP_PANEL_ANTEN
10
-2.7724788076743687
20
-31.673010885591193
30
0
11
-2.7724788076743687
21
-31.277946729757556
31
0
0
LINE
5
BE52
330
BE05
100
AcDbEntity
100
AcDbLine
8
EKP_PANEL_ANTEN
10
-2.7724788076743687
20
-31.7717769245496
30
0
11
-2.7724788076743687
21
-31.17918069079915
31
0
0
TEXT
5
BE53
330
BE05
100
AcDbEntity
100
AcDbText
8
EKP_PANEL_ANTEN
10
-2.7724788076743687
20
-31.475478807674374
30
0
40
0.06
1
Spot Beam 30/30 4-Port Panel Anten (DOY15X3030MD4TRE)
50
0
7
STANDARD
72
1
11
-2.7724788076743687
21
-31.475478807674374
31
0
100
AcDbText
73
2
0
LWPOLYLINE
5
BE54
330
BE05
100
AcDbEntity
100
AcDbPolyline
8
EKP_PANEL_ANTEN
6
ByLayer
62
256
370
-1
90
4
70
1
10
-3.2663090024664094
20
-33.10461903145746
10
-3.2663090024664094
20
-31.972648612882335
10
-2.278648612882328
20
-31.972648612882335
10
-2.278648612882328
20
-33.10461903145746
0
LINE
5
BE55
330
BE05
100
AcDbEntity
100
AcDbLine
8
EKP_PANEL_ANTEN
10
-2.970010885591185
20
-32.5386338221699
30
0
11
-2.5749467297575523
21
-32.5386338221699
31
0
0
LINE
5
BE56
330
BE05
100
AcDbEntity
100
AcDbLine
8
EKP_PANEL_ANTEN
10
-2.7724788076743687
20
-32.76502790588492
30
0
11
-2.7724788076743687
21
-32.31223973845488
31
0
0
LINE
5
BE57
330
BE05
100
AcDbEntity
100
AcDbLine
8
EKP_PANEL_ANTEN
10
-2.7724788076743687
20
-32.87822494774244
30
0
11
-2.7724788076743687
21
-32.19904269659736
31
0
0
TEXT
5
BE58
330
BE05
100
AcDbEntity
100
AcDbText
8
EKP_PANEL_ANTEN
10
-2.7724788076743687
20
-32.5386338221699
30
0
40
0.06
1
Spot Beam 30/30 Panel Anten Cati Tasiyicisi Asili Montaji (Alan 3 - Anten 2)
50
0
7
STANDARD
72
1
11
-2.7724788076743687
21
-32.5386338221699
31
0
100
AcDbText
73
2
0
LWPOLYLINE
5
BE59
330
BE05
100
AcDbEntity
100
AcDbPolyline
8
EKP_PANEL_ANTEN
6
ByLayer
62
256
370
-1
90
4
70
1
10
-3.2663090024664094
20
-32.96030900246641
10
-3.2663090024664094
20
-31.972648612882328
10
-2.278648612882328
20
-31.972648612882328
10
-2.278648612882328
20
-32.96030900246641
0
LINE
5
BE5A
330
BE05
100
AcDbEntity
100
AcDbLine
8
EKP_PANEL_ANTEN
10
-2.970010885591185
20
-32.46647880767437
30
0
11
-2.5749467297575523
21
-32.46647880767437
31
0
0
LINE
5
BE5B
330
BE05
100
AcDbEntity
100
AcDbLine
8
EKP_PANEL_ANTEN
10
-2.7724788076743687
20
-32.66401088559119
30
0
11
-2.7724788076743687
21
-32.26894672975755
31
0
0
LINE
5
BE5C
330
BE05
100
AcDbEntity
100
AcDbLine
8
EKP_PANEL_ANTEN
10
-2.7724788076743687
20
-32.76277692454959
30
0
11
-2.7724788076743687
21
-32.17018069079914
31
0
0
TEXT
5
BE5D
330
BE05
100
AcDbEntity
100
AcDbText
8
EKP_PANEL_ANTEN
10
-2.7724788076743687
20
-32.46647880767437
30
0
40
0.06
1
Spot Beam 30/30 4-Port Panel Anten (DOY15X3030MD4TRE)
50
0
7
STANDARD
72
1
11
-2.7724788076743687
21
-32.46647880767437
31
0
100
AcDbText
73
2
0
ENDSEC
0
SECTION
2
OBJECTS
0
DICTIONARY
5
BDF3
330
0
100
AcDbDictionary
281
1
3
ACAD_GROUP
350
BE09
0
DICTIONARY
5
BE09
330
BDF3
100
AcDbDictionary
281
1
0
ENDSEC
0
EOF