0
SECTION
2
HEADER
9
$HANDSEED
5
CFE1
9
$INSUNITS
70
6
9
$ACADVER
1
AC1021
9
$DWGCODEPAGE
3
UTF-8
0
ENDSEC
0
SECTION
2
CLASSES
0
ENDSEC
0
SECTION
2
TABLES
0
TABLE
2
LTYPE
5
CFDF
330
0
100
AcDbSymbolTable
70
5
0
LTYPE
5
CE5A
330
CFDF
100
AcDbSymbolTableRecord
100
AcDbLinetypeTableRecord
2
CONTINUOUS
3
______
70
0
72
65
73
0
40
0
0
LTYPE
5
CE5B
330
CFDF
100
AcDbSymbolTableRecord
100
AcDbLinetypeTableRecord
2
DASHED
3
_ _ _ 
70
0
72
65
73
2
40
10
49
5
74
0
49
-5
74
0
0
LTYPE
5
CE5C
330
CFDF
100
AcDbSymbolTableRecord
100
AcDbLinetypeTableRecord
2
DOTTED
3
. . . 
70
0
72
65
73
2
40
5
49
0
74
0
49
-5
74
0
0
LTYPE
5
CE5E
330
CFDF
100
AcDbSymbolTableRecord
100
AcDbLinetypeTableRecord
2
ByBlock
3

70
0
72
65
73
0
40
0
0
LTYPE
5
CE5F
330
CFDF
100
AcDbSymbolTableRecord
100
AcDbLinetypeTableRecord
2
ByLayer
3

70
0
72
65
73
0
40
0
0
ENDTAB
0
TABLE
2
LAYER
5
CFE0
330
0
100
AcDbSymbolTable
70
21
0
LAYER
5
CE5D
330
CFE0
100
AcDbSymbolTableRecord
100
AcDbLayerTableRecord
2
0
62
7
70
0
6
CONTINUOUS
390
1
0
LAYER
5
CE70
330
CFE0
100
AcDbSymbolTableRecord
100
AcDbLayerTableRecord
2
ZEMIN_PLATFORM
62
8
70
0
6
CONTINUOUS
390
1
0
LAYER
5
CE71
330
CFE0
100
AcDbSymbolTableRecord
100
AcDbLayerTableRecord
2
KORKULUK_KAPI
62
4
70
0
6
CONTINUOUS
390
1
0
LAYER
5
CE72
330
CFE0
100
AcDbSymbolTableRecord
100
AcDbLayerTableRecord
2
CELIK_KIRIS_KOLON
62
9
70
0
6
CONTINUOUS
390
1
0
LAYER
5
CE73
330
CFE0
100
AcDbSymbolTableRecord
100
AcDbLayerTableRecord
2
MONTAJ_BORULARI
62
2
70
0
6
CONTINUOUS
390
1
0
LAYER
5
CE74
330
CFE0
100
AcDbSymbolTableRecord
100
AcDbLayerTableRecord
2
KABLO_TAVALARI
62
6
70
0
6
CONTINUOUS
390
1
0
LAYER
5
CE75
330
CFE0
100
AcDbSymbolTableRecord
100
AcDbLayerTableRecord
2
YURUYUS_KORIDORU
62
3
70
0
6
DASHED
390
1
0
LAYER
5
CE76
330
CFE0
100
AcDbSymbolTableRecord
100
AcDbLayerTableRecord
2
OLCULER
62
1
70
0
6
CONTINUOUS
390
1
0
LAYER
5
CE77
330
CFE0
100
AcDbSymbolTableRecord
100
AcDbLayerTableRecord
2
METIN_BILGI
62
7
70
0
6
CONTINUOUS
390
1
0
LAYER
5
CE78
330
CFE0
100
AcDbSymbolTableRecord
100
AcDbLayerTableRecord
2
EKP_TURKCELL_RRU
62
5
70
0
6
CONTINUOUS
390
1
0
LAYER
5
CE79
330
CFE0
100
AcDbSymbolTableRecord
100
AcDbLayerTableRecord
2
EKP_VODAFONE_RRU
62
1
70
0
6
CONTINUOUS
390
1
0
LAYER
5
CE7A
330
CFE0
100
AcDbSymbolTableRecord
100
AcDbLayerTableRecord
2
EKP_TURK_TELEKOM_RRU
62
4
70
0
6
CONTINUOUS
390
1
0
LAYER
5
CE7B
330
CFE0
100
AcDbSymbolTableRecord
100
AcDbLayerTableRecord
2
EKP_POI_TASIYICI_SASE
62
30
70
0
6
CONTINUOUS
390
1
0
LAYER
5
CE7C
330
CFE0
100
AcDbSymbolTableRecord
100
AcDbLayerTableRecord
2
EKP_POI_MODULLERI
62
40
70
0
6
CONTINUOUS
390
1
0
LAYER
5
CE7D
330
CFE0
100
AcDbSymbolTableRecord
100
AcDbLayerTableRecord
2
EKP_RECTIFIER_ELTEK_20U
62
3
70
0
6
CONTINUOUS
390
1
0
LAYER
5
CE7E
330
CFE0
100
AcDbSymbolTableRecord
100
AcDbLayerTableRecord
2
EKP_RECTIFIER_MTS9304A
62
94
70
0
6
CONTINUOUS
390
1
0
LAYER
5
CE7F
330
CFE0
100
AcDbSymbolTableRecord
100
AcDbLayerTableRecord
2
BLOK_OZEL_PLATFORM
62
140
70
0
6
CONTINUOUS
390
1
0
LAYER
5
CE80
330
CFE0
100
AcDbSymbolTableRecord
100
AcDbLayerTableRecord
2
EKP_MATSING_ANTEN
62
2
70
0
6
CONTINUOUS
390
1
0
LAYER
5
CE81
330
CFE0
100
AcDbSymbolTableRecord
100
AcDbLayerTableRecord
2
EKP_PANEL_ANTEN
62
6
70
0
6
CONTINUOUS
390
1
0
LAYER
5
CE82
330
CFE0
100
AcDbSymbolTableRecord
100
AcDbLayerTableRecord
2
EKP_ANTEN_TASIYICI_KOL
62
141
70
0
6
CONTINUOUS
390
1
0
LAYER
5
CE83
330
CFE0
100
AcDbSymbolTableRecord
100
AcDbLayerTableRecord
2
EKP_DIGER_EKIPMANLAR
62
7
70
0
6
CONTINUOUS
390
1
0
ENDTAB
0
TABLE
2
VPORT
5
CE60
330
0
100
AcDbSymbolTable
70
1
0
VPORT
5
CE66
330
CE60
100
AcDbSymbolTableRecord
100
AcDbViewportTableRecord
2
*ACTIVE
40
1000
70
0
0
ENDTAB
0
TABLE
2
STYLE
5
CE61
330
0
100
AcDbSymbolTable
70
3
0
STYLE
5
CE67
330
CE61
100
AcDbSymbolTableRecord
100
AcDbTextStyleTableRecord
2
standard
70
0
40
0
41
1
50
0
71
0
42
1
3
calibrib.ttf
4

1001
ACAD
1000
Calibri
1071
33554466
0
STYLE
5
CE68
330
CE61
100
AcDbSymbolTableRecord
100
AcDbTextStyleTableRecord
2
STANDARD
70
0
40
0
41
1
50
0
71
0
42
1
3
calibrib.ttf
4

1001
ACAD
1000
Calibri
1071
33554466
0
STYLE
5
CE69
330
CE61
100
AcDbSymbolTableRecord
100
AcDbTextStyleTableRecord
2
CALIBRI_BOLD
70
0
40
0
41
1
50
0
71
0
42
1
3
calibrib.ttf
4

1001
ACAD
1000
Calibri
1071
33554466
0
ENDTAB
0
TABLE
2
VIEW
5
CE62
330
0
100
AcDbSymbolTable
70
0
0
ENDTAB
0
TABLE
2
UCS
5
CE63
330
0
100
AcDbSymbolTable
70
0
0
ENDTAB
0
TABLE
2
APPID
5
CE64
330
0
100
AcDbSymbolTable
70
1
0
APPID
5
CE6A
330
CE64
100
AcDbSymbolTableRecord
100
AcDbRegAppTableRecord
2
ACAD
70
0
0
ENDTAB
0
TABLE
2
DIMSTYLE
5
CE65
330
0
100
AcDbSymbolTable
100
AcDbDimStyleTable
70
0
71
1
0
ENDTAB
0
TABLE
2
BLOCK_RECORD
5
CFDC
330
0
100
AcDbSymbolTable
70
2
0
BLOCK_RECORD
5
CFDD
330
CFDC
100
AcDbSymbolTableRecord
100
AcDbBlockTableRecord
2
*Model_Space
70
0
280
0
281
1
0
BLOCK_RECORD
5
CFDE
330
CFDC
100
AcDbSymbolTableRecord
100
AcDbBlockTableRecord
2
*Paper_Space
70
0
280
0
281
1
0
ENDTAB
0
ENDSEC
0
SECTION
2
BLOCKS
0
BLOCK
5
CE6B
330
0
100
AcDbEntity
100
AcDbBlockBegin
2
*Model_Space
70
0
10
0
20
0
30
0
3
*Model_Space
1

0
ENDBLK
5
CE6C
330
0
100
AcDbEntity
100
AcDbBlockEnd
0
BLOCK
5
CE6D
330
0
100
AcDbEntity
100
AcDbBlockBegin
2
*Paper_Space
70
0
10
0
20
0
30
0
3
*Paper_Space
1

0
ENDBLK
5
CE6E
330
0
100
AcDbEntity
100
AcDbBlockEnd
0
ENDSEC
0
SECTION
2
ENTITIES
0
CIRCLE
5
CE8C
330
CE6B
100
AcDbEntity
100
AcDbCircle
8
MONTAJ_BORULARI
10
-0.8
20
-0.54
30
0
40
0.025
0
LWPOLYLINE
5
CE8D
330
CE6B
100
AcDbEntity
100
AcDbPolyline
8
MONTAJ_BORULARI
6
ByLayer
62
256
370
-1
90
4
70
1
10
-0.88
20
-0.62
10
-0.88
20
-0.45999999999999996
10
-0.72
20
-0.45999999999999996
10
-0.72
20
-0.62
0
TEXT
5
CE8E
330
CE6B
100
AcDbEntity
100
AcDbText
8
MONTAJ_BORULARI
10
-0.8
20
-0.66
30
0
40
0.07
1
POL 1
50
0
7
STANDARD
72
1
11
-0.8
21
-0.66
31
0
100
AcDbText
73
0
0
CIRCLE
5
CE8F
330
CE6B
100
AcDbEntity
100
AcDbCircle
8
MONTAJ_BORULARI
10
-0.8
20
-0.36
30
0
40
0.025
0
LWPOLYLINE
5
CE90
330
CE6B
100
AcDbEntity
100
AcDbPolyline
8
MONTAJ_BORULARI
6
ByLayer
62
256
370
-1
90
4
70
1
10
-0.88
20
-0.44
10
-0.88
20
-0.28
10
-0.72
20
-0.28
10
-0.72
20
-0.44
0
TEXT
5
CE91
330
CE6B
100
AcDbEntity
100
AcDbText
8
MONTAJ_BORULARI
10
-0.8
20
-0.48
30
0
40
0.07
1
POL 2
50
0
7
STANDARD
72
1
11
-0.8
21
-0.48
31
0
100
AcDbText
73
0
0
CIRCLE
5
CE92
330
CE6B
100
AcDbEntity
100
AcDbCircle
8
MONTAJ_BORULARI
10
-0.8
20
-0.18
30
0
40
0.025
0
LWPOLYLINE
5
CE93
330
CE6B
100
AcDbEntity
100
AcDbPolyline
8
MONTAJ_BORULARI
6
ByLayer
62
256
370
-1
90
4
70
1
10
-0.88
20
-0.26
10
-0.88
20
-0.1
10
-0.72
20
-0.1
10
-0.72
20
-0.26
0
TEXT
5
CE94
330
CE6B
100
AcDbEntity
100
AcDbText
8
MONTAJ_BORULARI
10
-0.8
20
-0.3
30
0
40
0.07
1
POL 3
50
0
7
STANDARD
72
1
11
-0.8
21
-0.3
31
0
100
AcDbText
73
0
0
CIRCLE
5
CE95
330
CE6B
100
AcDbEntity
100
AcDbCircle
8
MONTAJ_BORULARI
10
-0.8
20
0
30
0
40
0.025
0
LWPOLYLINE
5
CE96
330
CE6B
100
AcDbEntity
100
AcDbPolyline
8
MONTAJ_BORULARI
6
ByLayer
62
256
370
-1
90
4
70
1
10
-0.88
20
-0.08
10
-0.88
20
0.08
10
-0.72
20
0.08
10
-0.72
20
-0.08
0
TEXT
5
CE97
330
CE6B
100
AcDbEntity
100
AcDbText
8
MONTAJ_BORULARI
10
-0.8
20
-0.12
30
0
40
0.07
1
POL 4
50
0
7
STANDARD
72
1
11
-0.8
21
-0.12
31
0
100
AcDbText
73
0
0
CIRCLE
5
CE98
330
CE6B
100
AcDbEntity
100
AcDbCircle
8
MONTAJ_BORULARI
10
-0.8
20
0.18
30
0
40
0.025
0
LWPOLYLINE
5
CE99
330
CE6B
100
AcDbEntity
100
AcDbPolyline
8
MONTAJ_BORULARI
6
ByLayer
62
256
370
-1
90
4
70
1
10
-0.88
20
0.1
10
-0.88
20
0.26
10
-0.72
20
0.26
10
-0.72
20
0.1
0
TEXT
5
CE9A
330
CE6B
100
AcDbEntity
100
AcDbText
8
MONTAJ_BORULARI
10
-0.8
20
0.06
30
0
40
0.07
1
POL 5
50
0
7
STANDARD
72
1
11
-0.8
21
0.06
31
0
100
AcDbText
73
0
0
CIRCLE
5
CE9B
330
CE6B
100
AcDbEntity
100
AcDbCircle
8
MONTAJ_BORULARI
10
-0.8
20
0.36
30
0
40
0.025
0
LWPOLYLINE
5
CE9C
330
CE6B
100
AcDbEntity
100
AcDbPolyline
8
MONTAJ_BORULARI
6
ByLayer
62
256
370
-1
90
4
70
1
10
-0.88
20
0.28
10
-0.88
20
0.44000000000000006
10
-0.72
20
0.44000000000000006
10
-0.72
20
0.28
0
TEXT
5
CE9D
330
CE6B
100
AcDbEntity
100
AcDbText
8
MONTAJ_BORULARI
10
-0.8
20
0.24
30
0
40
0.07
1
POL 6
50
0
7
STANDARD
72
1
11
-0.8
21
0.24
31
0
100
AcDbText
73
0
0
CIRCLE
5
CE9E
330
CE6B
100
AcDbEntity
100
AcDbCircle
8
MONTAJ_BORULARI
10
-0.8
20
0.54
30
0
40
0.025
0
LWPOLYLINE
5
CE9F
330
CE6B
100
AcDbEntity
100
AcDbPolyline
8
MONTAJ_BORULARI
6
ByLayer
62
256
370
-1
90
4
70
1
10
-0.88
20
0.46
10
-0.88
20
0.62
10
-0.72
20
0.62
10
-0.72
20
0.46
0
TEXT
5
CEA0
330
CE6B
100
AcDbEntity
100
AcDbText
8
MONTAJ_BORULARI
10
-0.8
20
0.42
30
0
40
0.07
1
POL 7
50
0
7
STANDARD
72
1
11
-0.8
21
0.42
31
0
100
AcDbText
73
0
0
LWPOLYLINE
5
CF2C
330
CE6B
100
AcDbEntity
100
AcDbPolyline
8
MONTAJ_BORULARI
6
ByLayer
62
256
370
-1
90
4
70
1
10
-0.89
20
-3.5
10
-0.89
20
-3.485
10
-0.7100000000000001
20
-3.485
10
-0.7100000000000001
20
-3.5
0
LWPOLYLINE
5
CF2D
330
CE6B
100
AcDbEntity
100
AcDbPolyline
8
MONTAJ_BORULARI
6
ByLayer
62
256
370
-1
90
4
70
1
10
-0.8300000000000001
20
-3.485
10
-0.8300000000000001
20
-1.65
10
-0.77
20
-1.65
10
-0.77
20
-3.485
0
LWPOLYLINE
5
CF2E
330
CE6B
100
AcDbEntity
100
AcDbPolyline
8
MONTAJ_BORULARI
6
ByLayer
62
256
370
-1
90
4
70
1
10
-0.77
20
-2.558
10
-0.77
20
-2.462
10
-0.75
20
-2.462
10
-0.75
20
-2.558
0
LWPOLYLINE
5
CF32
330
CE6B
100
AcDbEntity
100
AcDbPolyline
8
MONTAJ_BORULARI
6
ByLayer
62
256
370
-1
90
4
70
1
10
-0.77
20
-1.8579999999999999
10
-0.77
20
-1.7619999999999998
10
-0.75
20
-1.7619999999999998
10
-0.75
20
-1.8579999999999999
0
LWPOLYLINE
5
CF36
330
CE6B
100
AcDbEntity
100
AcDbPolyline
8
MONTAJ_BORULARI
6
ByLayer
62
256
370
-1
90
4
70
1
10
-0.63
20
-3.5
10
-0.63
20
-3.485
10
-0.45000000000000007
20
-3.485
10
-0.45000000000000007
20
-3.5
0
LWPOLYLINE
5
CF37
330
CE6B
100
AcDbEntity
100
AcDbPolyline
8
MONTAJ_BORULARI
6
ByLayer
62
256
370
-1
90
4
70
1
10
-0.5700000000000001
20
-3.485
10
-0.5700000000000001
20
-1.65
10
-0.51
20
-1.65
10
-0.51
20
-3.485
0
LWPOLYLINE
5
CF38
330
CE6B
100
AcDbEntity
100
AcDbPolyline
8
MONTAJ_BORULARI
6
ByLayer
62
256
370
-1
90
4
70
1
10
-0.51
20
-2.558
10
-0.51
20
-2.462
10
-0.49
20
-2.462
10
-0.49
20
-2.558
0
LWPOLYLINE
5
CF3C
330
CE6B
100
AcDbEntity
100
AcDbPolyline
8
MONTAJ_BORULARI
6
ByLayer
62
256
370
-1
90
4
70
1
10
-0.51
20
-1.8579999999999999
10
-0.51
20
-1.7619999999999998
10
-0.49
20
-1.7619999999999998
10
-0.49
20
-1.8579999999999999
0
LWPOLYLINE
5
CF40
330
CE6B
100
AcDbEntity
100
AcDbPolyline
8
MONTAJ_BORULARI
6
ByLayer
62
256
370
-1
90
4
70
1
10
-0.37
20
-3.5
10
-0.37
20
-3.485
10
-0.19000000000000003
20
-3.485
10
-0.19000000000000003
20
-3.5
0
LWPOLYLINE
5
CF41
330
CE6B
100
AcDbEntity
100
AcDbPolyline
8
MONTAJ_BORULARI
6
ByLayer
62
256
370
-1
90
4
70
1
10
-0.31000000000000005
20
-3.485
10
-0.31000000000000005
20
-1.65
10
-0.25
20
-1.65
10
-0.25
20
-3.485
0
LWPOLYLINE
5
CF42
330
CE6B
100
AcDbEntity
100
AcDbPolyline
8
MONTAJ_BORULARI
6
ByLayer
62
256
370
-1
90
4
70
1
10
-0.25
20
-2.558
10
-0.25
20
-2.462
10
-0.23
20
-2.462
10
-0.23
20
-2.558
0
LWPOLYLINE
5
CF46
330
CE6B
100
AcDbEntity
100
AcDbPolyline
8
MONTAJ_BORULARI
6
ByLayer
62
256
370
-1
90
4
70
1
10
-0.25
20
-1.8579999999999999
10
-0.25
20
-1.7619999999999998
10
-0.23
20
-1.7619999999999998
10
-0.23
20
-1.8579999999999999
0
LWPOLYLINE
5
CF4A
330
CE6B
100
AcDbEntity
100
AcDbPolyline
8
MONTAJ_BORULARI
6
ByLayer
62
256
370
-1
90
4
70
1
10
-0.11
20
-3.5
10
-0.11
20
-3.485
10
0.06999999999999999
20
-3.485
10
0.06999999999999999
20
-3.5
0
LWPOLYLINE
5
CF4B
330
CE6B
100
AcDbEntity
100
AcDbPolyline
8
MONTAJ_BORULARI
6
ByLayer
62
256
370
-1
90
4
70
1
10
-0.05
20
-3.485
10
-0.05
20
-1.65
10
0.009999999999999995
20
-1.65
10
0.009999999999999995
20
-3.485
0
LWPOLYLINE
5
CF4C
330
CE6B
100
AcDbEntity
100
AcDbPolyline
8
MONTAJ_BORULARI
6
ByLayer
62
256
370
-1
90
4
70
1
10
0.009999999999999998
20
-2.558
10
0.009999999999999998
20
-2.462
10
0.03
20
-2.462
10
0.03
20
-2.558
0
LWPOLYLINE
5
CF50
330
CE6B
100
AcDbEntity
100
AcDbPolyline
8
MONTAJ_BORULARI
6
ByLayer
62
256
370
-1
90
4
70
1
10
0.009999999999999998
20
-1.8579999999999999
10
0.009999999999999998
20
-1.7619999999999998
10
0.03
20
-1.7619999999999998
10
0.03
20
-1.8579999999999999
0
LWPOLYLINE
5
CF54
330
CE6B
100
AcDbEntity
100
AcDbPolyline
8
MONTAJ_BORULARI
6
ByLayer
62
256
370
-1
90
4
70
1
10
0.15
20
-3.5
10
0.15
20
-3.485
10
0.32999999999999996
20
-3.485
10
0.32999999999999996
20
-3.5
0
LWPOLYLINE
5
CF55
330
CE6B
100
AcDbEntity
100
AcDbPolyline
8
MONTAJ_BORULARI
6
ByLayer
62
256
370
-1
90
4
70
1
10
0.21
20
-3.485
10
0.21
20
-1.65
10
0.27
20
-1.65
10
0.27
20
-3.485
0
LWPOLYLINE
5
CF56
330
CE6B
100
AcDbEntity
100
AcDbPolyline
8
MONTAJ_BORULARI
6
ByLayer
62
256
370
-1
90
4
70
1
10
0.27
20
-2.558
10
0.27
20
-2.462
10
0.29000000000000004
20
-2.462
10
0.29000000000000004
20
-2.558
0
LWPOLYLINE
5
CF5A
330
CE6B
100
AcDbEntity
100
AcDbPolyline
8
MONTAJ_BORULARI
6
ByLayer
62
256
370
-1
90
4
70
1
10
0.27
20
-1.8579999999999999
10
0.27
20
-1.7619999999999998
10
0.29000000000000004
20
-1.7619999999999998
10
0.29000000000000004
20
-1.8579999999999999
0
LWPOLYLINE
5
CF5E
330
CE6B
100
AcDbEntity
100
AcDbPolyline
8
MONTAJ_BORULARI
6
ByLayer
62
256
370
-1
90
4
70
1
10
0.41000000000000003
20
-3.5
10
0.41000000000000003
20
-3.485
10
0.59
20
-3.485
10
0.59
20
-3.5
0
LWPOLYLINE
5
CF5F
330
CE6B
100
AcDbEntity
100
AcDbPolyline
8
MONTAJ_BORULARI
6
ByLayer
62
256
370
-1
90
4
70
1
10
0.47
20
-3.485
10
0.47
20
-1.65
10
0.53
20
-1.65
10
0.53
20
-3.485
0
LWPOLYLINE
5
CF60
330
CE6B
100
AcDbEntity
100
AcDbPolyline
8
MONTAJ_BORULARI
6
ByLayer
62
256
370
-1
90
4
70
1
10
0.53
20
-2.558
10
0.53
20
-2.462
10
0.55
20
-2.462
10
0.55
20
-2.558
0
LWPOLYLINE
5
CF64
330
CE6B
100
AcDbEntity
100
AcDbPolyline
8
MONTAJ_BORULARI
6
ByLayer
62
256
370
-1
90
4
70
1
10
0.53
20
-1.8579999999999999
10
0.53
20
-1.7619999999999998
10
0.55
20
-1.7619999999999998
10
0.55
20
-1.8579999999999999
0
LWPOLYLINE
5
CF68
330
CE6B
100
AcDbEntity
100
AcDbPolyline
8
MONTAJ_BORULARI
6
ByLayer
62
256
370
-1
90
4
70
1
10
0.67
20
-3.5
10
0.67
20
-3.485
10
0.85
20
-3.485
10
0.85
20
-3.5
0
LWPOLYLINE
5
CF69
330
CE6B
100
AcDbEntity
100
AcDbPolyline
8
MONTAJ_BORULARI
6
ByLayer
62
256
370
-1
90
4
70
1
10
0.73
20
-3.485
10
0.73
20
-1.65
10
0.79
20
-1.65
10
0.79
20
-3.485
0
LWPOLYLINE
5
CF6A
330
CE6B
100
AcDbEntity
100
AcDbPolyline
8
MONTAJ_BORULARI
6
ByLayer
62
256
370
-1
90
4
70
1
10
0.79
20
-2.558
10
0.79
20
-2.462
10
0.81
20
-2.462
10
0.81
20
-2.558
0
LWPOLYLINE
5
CF6E
330
CE6B
100
AcDbEntity
100
AcDbPolyline
8
MONTAJ_BORULARI
6
ByLayer
62
256
370
-1
90
4
70
1
10
0.79
20
-1.8579999999999999
10
0.79
20
-1.7619999999999998
10
0.81
20
-1.7619999999999998
10
0.81
20
-1.8579999999999999
0
LINE
5
CF8E
330
CE6B
100
AcDbEntity
100
AcDbLine
8
OLCULER
10
-1.3
20
-0.7000000000000001
30
0
11
-1.3
21
-1.1400000000000001
31
0
0
LINE
5
CF8F
330
CE6B
100
AcDbEntity
100
AcDbLine
8
OLCULER
10
1.3
20
-0.7000000000000001
30
0
11
1.3
21
-1.1400000000000001
31
0
0
LINE
5
CF90
330
CE6B
100
AcDbEntity
100
AcDbLine
8
OLCULER
10
-1.3
20
-1.1
30
0
11
1.3
21
-1.1
31
0
0
LINE
5
CF91
330
CE6B
100
AcDbEntity
100
AcDbLine
8
OLCULER
10
-1.328
20
-1.1280000000000001
30
0
11
-1.272
21
-1.072
31
0
0
LINE
5
CF92
330
CE6B
100
AcDbEntity
100
AcDbLine
8
OLCULER
10
1.272
20
-1.1280000000000001
30
0
11
1.328
21
-1.072
31
0
0
TEXT
5
CF93
330
CE6B
100
AcDbEntity
100
AcDbText
8
OLCULER
10
0
20
-1.1840000000000002
30
0
40
0.06
1
2600 mm (PLATFORM GENISLIGI)
50
0
7
STANDARD
72
1
11
0
21
-1.1840000000000002
31
0
100
AcDbText
73
2
0
LINE
5
CF94
330
CE6B
100
AcDbEntity
100
AcDbLine
8
OLCULER
10
-1.3
20
-0.7000000000000001
30
0
11
-1.7400000000000002
21
-0.7000000000000001
31
0
0
LINE
5
CF95
330
CE6B
100
AcDbEntity
100
AcDbLine
8
OLCULER
10
-1.3
20
0.7000000000000001
30
0
11
-1.7400000000000002
21
0.7000000000000001
31
0
0
LINE
5
CF96
330
CE6B
100
AcDbEntity
100
AcDbLine
8
OLCULER
10
-1.7000000000000002
20
-0.7000000000000001
30
0
11
-1.7000000000000002
21
0.7000000000000001
31
0
0
LINE
5
CF97
330
CE6B
100
AcDbEntity
100
AcDbLine
8
OLCULER
10
-1.7280000000000002
20
-0.7280000000000001
30
0
11
-1.6720000000000002
21
-0.672
31
0
0
LINE
5
CF98
330
CE6B
100
AcDbEntity
100
AcDbLine
8
OLCULER
10
-1.7280000000000002
20
0.672
30
0
11
-1.6720000000000002
21
0.7280000000000001
31
0
0
TEXT
5
CF99
330
CE6B
100
AcDbEntity
100
AcDbText
8
OLCULER
10
-1.7420000000000002
20
0
30
0
40
0.06
1
1400 mm (PLATFORM DERINLIGI)
50
90
7
STANDARD
72
1
11
-1.7420000000000002
21
0
31
0
100
AcDbText
73
2
0
LINE
5
CF9A
330
CE6B
100
AcDbEntity
100
AcDbLine
8
OLCULER
10
-1.3
20
-3.5
30
0
11
-1.7400000000000002
21
-3.5
31
0
0
LINE
5
CF9B
330
CE6B
100
AcDbEntity
100
AcDbLine
8
OLCULER
10
-1.3
20
-1.65
30
0
11
-1.7400000000000002
21
-1.65
31
0
0
LINE
5
CF9C
330
CE6B
100
AcDbEntity
100
AcDbLine
8
OLCULER
10
-1.7000000000000002
20
-3.5
30
0
11
-1.7000000000000002
21
-1.65
31
0
0
LINE
5
CF9D
330
CE6B
100
AcDbEntity
100
AcDbLine
8
OLCULER
10
-1.7280000000000002
20
-3.528
30
0
11
-1.6720000000000002
21
-3.472
31
0
0
LINE
5
CF9E
330
CE6B
100
AcDbEntity
100
AcDbLine
8
OLCULER
10
-1.7280000000000002
20
-1.678
30
0
11
-1.6720000000000002
21
-1.6219999999999999
31
0
0
TEXT
5
CF9F
330
CE6B
100
AcDbEntity
100
AcDbText
8
OLCULER
10
-1.7420000000000002
20
-2.575
30
0
40
0.06
1
1850 mm (BORU BOYU)
50
90
7
STANDARD
72
1
11
-1.7420000000000002
21
-2.575
31
0
100
AcDbText
73
2
0
TEXT
5
CE84
330
CE6B
100
AcDbEntity
100
AcDbText
8
METIN_BILGI
10
0
20
2.4
30
0
40
0.18
1
ALAN 1 OZEL 7 BORULU TEK CEPHE KOMPLEKS (13 RRU + 10 POI + 140cm PLATFORM)
50
0
7
STANDARD
72
1
11
0
21
2.4
31
0
100
AcDbText
73
0
0
LWPOLYLINE
5
CFA0
330
CE6B
100
AcDbEntity
100
AcDbPolyline
8
METIN_BILGI
6
ByLayer
62
256
370
-1
90
4
70
1
10
-1.5
20
2.6
10
-1.5
20
4.800000000000001
10
6.5
20
4.800000000000001
10
6.5
20
2.6
0
LINE
5
CFA1
330
CE6B
100
AcDbEntity
100
AcDbLine
8
METIN_BILGI
10
-1.5
20
4
30
0
11
6.5
21
4
31
0
0
LINE
5
CFA2
330
CE6B
100
AcDbEntity
100
AcDbLine
8
METIN_BILGI
10
-1.5
20
3.3000000000000003
30
0
11
6.5
21
3.3000000000000003
31
0
0
LINE
5
CFA3
330
CE6B
100
AcDbEntity
100
AcDbLine
8
METIN_BILGI
10
3
20
2.6
30
0
11
3
21
4
31
0
0
TEXT
5
CFA4
330
CE6B
100
AcDbEntity
100
AcDbText
8
METIN_BILGI
10
-1.3
20
4.25
30
0
40
0.32
1
GALATASARAY STADYUMU GSM ALTYAPI PROJESI
50
0
7
STANDARD
100
AcDbText
0
TEXT
5
CFA5
330
CE6B
100
AcDbEntity
100
AcDbText
8
METIN_BILGI
10
-1.3
20
3.5500000000000003
30
0
40
0.26
1
ALAN: OZEL 7 BORULU KARMA KOMPLEKS DETAYI (ALAN 1)
50
0
7
STANDARD
100
AcDbText
0
TEXT
5
CFA6
330
CE6B
100
AcDbEntity
100
AcDbText
8
METIN_BILGI
10
-1.3
20
2.88
30
0
40
0.2
1
OLCEK: 1:1 m (1:1 m)
50
0
7
STANDARD
100
AcDbText
0
TEXT
5
CFA7
330
CE6B
100
AcDbEntity
100
AcDbText
8
METIN_BILGI
10
3.2
20
3.5500000000000003
30
0
40
0.18
1
CIZIM: ANTIGRAVITY CAD / BIM
50
0
7
STANDARD
100
AcDbText
0
TEXT
5
CFA8
330
CE6B
100
AcDbEntity
100
AcDbText
8
METIN_BILGI
10
3.2
20
2.88
30
0
40
0.18
1
TARIH: 2026-10-04
50
0
7
STANDARD
100
AcDbText
0
CIRCLE
5
CFA9
330
CE6B
100
AcDbEntity
100
AcDbCircle
8
METIN_BILGI
10
-3
20
3.7
30
0
40
0.8
0
LINE
5
CFAA
330
CE6B
100
AcDbEntity
100
AcDbLine
8
METIN_BILGI
10
-3
20
2.98
30
0
11
-3
21
4.42
31
0
0
LINE
5
CFAB
330
CE6B
100
AcDbEntity
100
AcDbLine
8
METIN_BILGI
10
-3
20
4.42
30
0
11
-3.25
21
4
31
0
0
LINE
5
CFAC
330
CE6B
100
AcDbEntity
100
AcDbLine
8
METIN_BILGI
10
-3
20
4.42
30
0
11
-2.75
21
4
31
0
0
TEXT
5
CFAD
330
CE6B
100
AcDbEntity
100
AcDbText
8
METIN_BILGI
10
-3
20
4.7
30
0
40
0.3
1
K
50
0
7
STANDARD
72
1
11
-3
21
4.7
31
0
100
AcDbText
73
2
0
LWPOLYLINE
5
CFAE
330
CE6B
100
AcDbEntity
100
AcDbPolyline
8
METIN_BILGI
6
ByLayer
62
256
370
-1
90
4
70
1
10
-1.5
20
-2.2
10
-1.5
20
1.4
10
9.7
20
1.4
10
9.7
20
-2.2
0
TEXT
5
CFAF
330
CE6B
100
AcDbEntity
100
AcDbText
8
METIN_BILGI
10
-1.3
20
1.0999999999999999
30
0
40
0.24
1
EKIPMAN VE ALTYAPI YERLESIM CETVELI (BOM)
50
0
7
STANDARD
100
AcDbText
0
LINE
5
CFB0
330
CE6B
100
AcDbEntity
100
AcDbLine
8
METIN_BILGI
10
-1.5
20
0.9999999999999999
30
0
11
9.7
21
0.9999999999999999
31
0
0
LINE
5
CFB1
330
CE6B
100
AcDbEntity
100
AcDbLine
8
METIN_BILGI
10
-1.5
20
0.5999999999999999
30
0
11
9.7
21
0.5999999999999999
31
0
0
LINE
5
CFB2
330
CE6B
100
AcDbEntity
100
AcDbLine
8
METIN_BILGI
10
-0.30000000000000004
20
-2.2
30
0
11
-0.30000000000000004
21
0.9999999999999999
31
0
0
LINE
5
CFB3
330
CE6B
100
AcDbEntity
100
AcDbLine
8
METIN_BILGI
10
5.7
20
-2.2
30
0
11
5.7
21
0.9999999999999999
31
0
0
LINE
5
CFB4
330
CE6B
100
AcDbEntity
100
AcDbLine
8
METIN_BILGI
10
8.2
20
-2.2
30
0
11
8.2
21
0.9999999999999999
31
0
0
TEXT
5
CFB5
330
CE6B
100
AcDbEntity
100
AcDbText
8
METIN_BILGI
10
-1.4
20
0.7199999999999999
30
0
40
0.18
1
NO
50
0
7
STANDARD
100
AcDbText
0
TEXT
5
CFB6
330
CE6B
100
AcDbEntity
100
AcDbText
8
METIN_BILGI
10
-0.20000000000000004
20
0.7199999999999999
30
0
40
0.18
1
EKIPMAN TANIMI
50
0
7
STANDARD
100
AcDbText
0
TEXT
5
CFB7
330
CE6B
100
AcDbEntity
100
AcDbText
8
METIN_BILGI
10
5.8
20
0.7199999999999999
30
0
40
0.18
1
BOYUTLAR (GxDxY)
50
0
7
STANDARD
100
AcDbText
0
TEXT
5
CFB8
330
CE6B
100
AcDbEntity
100
AcDbText
8
METIN_BILGI
10
8.299999999999999
20
0.7199999999999999
30
0
40
0.18
1
ADET
50
0
7
STANDARD
100
AcDbText
0
LINE
5
CFB9
330
CE6B
100
AcDbEntity
100
AcDbLine
8
METIN_BILGI
10
-1.5
20
0.19999999999999984
30
0
11
9.7
21
0.19999999999999984
31
0
0
TEXT
5
CFBA
330
CE6B
100
AcDbEntity
100
AcDbText
8
METIN_BILGI
10
-1.4
20
0.31999999999999984
30
0
40
0.16
1
1
50
0
7
STANDARD
100
AcDbText
0
TEXT
5
CFBB
330
CE6B
100
AcDbEntity
100
AcDbText
8
METIN_BILGI
10
-0.20000000000000004
20
0.31999999999999984
30
0
40
0.16
1
Tek Tek Turkcell RRU (Alt Kot)
50
0
7
STANDARD
100
AcDbText
0
TEXT
5
CFBC
330
CE6B
100
AcDbEntity
100
AcDbText
8
METIN_BILGI
10
5.8
20
0.31999999999999984
30
0
40
0.16
1
398x145x533 mm
50
0
7
STANDARD
100
AcDbText
0
TEXT
5
CFBD
330
CE6B
100
AcDbEntity
100
AcDbText
8
METIN_BILGI
10
8.299999999999999
20
0.31999999999999984
30
0
40
0.16
1
4
50
0
7
STANDARD
100
AcDbText
0
LINE
5
CFBE
330
CE6B
100
AcDbEntity
100
AcDbLine
8
METIN_BILGI
10
-1.5
20
-0.2000000000000003
30
0
11
9.7
21
-0.2000000000000003
31
0
0
TEXT
5
CFBF
330
CE6B
100
AcDbEntity
100
AcDbText
8
METIN_BILGI
10
-1.4
20
-0.0800000000000003
30
0
40
0.16
1
2
50
0
7
STANDARD
100
AcDbText
0
TEXT
5
CFC0
330
CE6B
100
AcDbEntity
100
AcDbText
8
METIN_BILGI
10
-0.20000000000000004
20
-0.0800000000000003
30
0
40
0.16
1
Tek Tek Vodafone RRU (Ust Kot)
50
0
7
STANDARD
100
AcDbText
0
TEXT
5
CFC1
330
CE6B
100
AcDbEntity
100
AcDbText
8
METIN_BILGI
10
5.8
20
-0.0800000000000003
30
0
40
0.16
1
432x135x480 mm
50
0
7
STANDARD
100
AcDbText
0
TEXT
5
CFC2
330
CE6B
100
AcDbEntity
100
AcDbText
8
METIN_BILGI
10
8.299999999999999
20
-0.0800000000000003
30
0
40
0.16
1
5
50
0
7
STANDARD
100
AcDbText
0
LINE
5
CFC3
330
CE6B
100
AcDbEntity
100
AcDbLine
8
METIN_BILGI
10
-1.5
20
-0.6000000000000002
30
0
11
9.7
21
-0.6000000000000002
31
0
0
TEXT
5
CFC4
330
CE6B
100
AcDbEntity
100
AcDbText
8
METIN_BILGI
10
-1.4
20
-0.4800000000000002
30
0
40
0.16
1
3
50
0
7
STANDARD
100
AcDbText
0
TEXT
5
CFC5
330
CE6B
100
AcDbEntity
100
AcDbText
8
METIN_BILGI
10
-0.20000000000000004
20
-0.4800000000000002
30
0
40
0.16
1
Tek Tek Turk Telekom RRU (Alt/Ust Kot)
50
0
7
STANDARD
100
AcDbText
0
TEXT
5
CFC6
330
CE6B
100
AcDbEntity
100
AcDbText
8
METIN_BILGI
10
5.8
20
-0.4800000000000002
30
0
40
0.16
1
356x140x480 mm
50
0
7
STANDARD
100
AcDbText
0
TEXT
5
CFC7
330
CE6B
100
AcDbEntity
100
AcDbText
8
METIN_BILGI
10
8.299999999999999
20
-0.4800000000000002
30
0
40
0.16
1
4
50
0
7
STANDARD
100
AcDbText
0
LINE
5
CFC8
330
CE6B
100
AcDbEntity
100
AcDbLine
8
METIN_BILGI
10
-1.5
20
-1
30
0
11
9.7
21
-1
31
0
0
TEXT
5
CFC9
330
CE6B
100
AcDbEntity
100
AcDbText
8
METIN_BILGI
10
-1.4
20
-0.88
30
0
40
0.16
1
4
50
0
7
STANDARD
100
AcDbText
0
TEXT
5
CFCA
330
CE6B
100
AcDbEntity
100
AcDbText
8
METIN_BILGI
10
-0.20000000000000004
20
-0.88
30
0
40
0.16
1
Canovate 19" 36U POI Rack Tasiyici Sase
50
0
7
STANDARD
100
AcDbText
0
TEXT
5
CFCB
330
CE6B
100
AcDbEntity
100
AcDbText
8
METIN_BILGI
10
5.8
20
-0.88
30
0
40
0.16
1
600x700x1780 mm
50
0
7
STANDARD
100
AcDbText
0
TEXT
5
CFCC
330
CE6B
100
AcDbEntity
100
AcDbText
8
METIN_BILGI
10
8.299999999999999
20
-0.88
30
0
40
0.16
1
2
50
0
7
STANDARD
100
AcDbText
0
LINE
5
CFCD
330
CE6B
100
AcDbEntity
100
AcDbLine
8
METIN_BILGI
10
-1.5
20
-1.4000000000000004
30
0
11
9.7
21
-1.4000000000000004
31
0
0
TEXT
5
CFCE
330
CE6B
100
AcDbEntity
100
AcDbText
8
METIN_BILGI
10
-1.4
20
-1.2800000000000002
30
0
40
0.16
1
5
50
0
7
STANDARD
100
AcDbText
0
TEXT
5
CFCF
330
CE6B
100
AcDbEntity
100
AcDbText
8
METIN_BILGI
10
-0.20000000000000004
20
-1.2800000000000002
30
0
40
0.16
1
Prose CB-12-POI-64F-A12 Modulleri
50
0
7
STANDARD
100
AcDbText
0
TEXT
5
CFD0
330
CE6B
100
AcDbEntity
100
AcDbText
8
METIN_BILGI
10
5.8
20
-1.2800000000000002
30
0
40
0.16
1
400x350x260 mm
50
0
7
STANDARD
100
AcDbText
0
TEXT
5
CFD1
330
CE6B
100
AcDbEntity
100
AcDbText
8
METIN_BILGI
10
8.299999999999999
20
-1.2800000000000002
30
0
40
0.16
1
10
50
0
7
STANDARD
100
AcDbText
0
LINE
5
CFD2
330
CE6B
100
AcDbEntity
100
AcDbLine
8
METIN_BILGI
10
-1.5
20
-1.8000000000000003
30
0
11
9.7
21
-1.8000000000000003
31
0
0
TEXT
5
CFD3
330
CE6B
100
AcDbEntity
100
AcDbText
8
METIN_BILGI
10
-1.4
20
-1.6800000000000002
30
0
40
0.16
1
6
50
0
7
STANDARD
100
AcDbText
0
TEXT
5
CFD4
330
CE6B
100
AcDbEntity
100
AcDbText
8
METIN_BILGI
10
-0.20000000000000004
20
-1.6800000000000002
30
0
40
0.16
1
RRU Saha Blok 140cm Celik Tabla
50
0
7
STANDARD
100
AcDbText
0
TEXT
5
CFD5
330
CE6B
100
AcDbEntity
100
AcDbText
8
METIN_BILGI
10
5.8
20
-1.6800000000000002
30
0
40
0.16
1
2600x1400x50 mm
50
0
7
STANDARD
100
AcDbText
0
TEXT
5
CFD6
330
CE6B
100
AcDbEntity
100
AcDbText
8
METIN_BILGI
10
8.299999999999999
20
-1.6800000000000002
30
0
40
0.16
1
1
50
0
7
STANDARD
100
AcDbText
0
LINE
5
CFD7
330
CE6B
100
AcDbEntity
100
AcDbLine
8
METIN_BILGI
10
-1.5
20
-2.2
30
0
11
9.7
21
-2.2
31
0
0
TEXT
5
CFD8
330
CE6B
100
AcDbEntity
100
AcDbText
8
METIN_BILGI
10
-1.4
20
-2.08
30
0
40
0.16
1
7
50
0
7
STANDARD
100
AcDbText
0
TEXT
5
CFD9
330
CE6B
100
AcDbEntity
100
AcDbText
8
METIN_BILGI
10
-0.20000000000000004
20
-2.08
30
0
40
0.16
1
Dia 50mm Flansli Boru Polleri (H=1.85m)
50
0
7
STANDARD
100
AcDbText
0
TEXT
5
CFDA
330
CE6B
100
AcDbEntity
100
AcDbText
8
METIN_BILGI
10
5.8
20
-2.08
30
0
40
0.16
1
Dia 50mm x 1850mm
50
0
7
STANDARD
100
AcDbText
0
TEXT
5
CFDB
330
CE6B
100
AcDbEntity
100
AcDbText
8
METIN_BILGI
10
8.299999999999999
20
-2.08
30
0
40
0.16
1
7
50
0
7
STANDARD
100
AcDbText
0
LWPOLYLINE
5
CEA1
330
CE6B
100
AcDbEntity
100
AcDbPolyline
8
EKP_TURKCELL_RRU
6
ByLayer
62
256
370
-1
90
4
70
1
10
-1.9475151510877655
20
1.9054999997019768
10
-1.9475151510877655
20
2.0455000002980235
10
-1.4325151479585216
20
2.0455000002980235
10
-1.4325151479585216
20
1.9054999997019768
0
LINE
5
CEA2
330
CE6B
100
AcDbEntity
100
AcDbLine
8
EKP_TURKCELL_RRU
10
-1.9475151510877655
20
1.9306999998092653
30
0
11
-1.4325151479585216
21
1.9306999998092653
31
0
0
LINE
5
CEA3
330
CE6B
100
AcDbEntity
100
AcDbLine
8
EKP_TURKCELL_RRU
10
-1.7180151496423528
20
1.9755000000000003
30
0
11
-1.6620151494039341
21
1.9755000000000003
31
0
0
LINE
5
CEA4
330
CE6B
100
AcDbEntity
100
AcDbLine
8
EKP_TURKCELL_RRU
10
-1.6900151495231435
20
1.947499999880791
30
0
11
-1.6900151495231435
21
2.0035000001192094
31
0
0
TEXT
5
CEA5
330
CE6B
100
AcDbEntity
100
AcDbText
8
EKP_TURKCELL_RRU
10
-1.6900151495231435
20
1.9990200001001361
30
0
40
0.039200000166893074
1
Turkcell RRU 5301 (Alt Kot)
50
0
7
STANDARD
72
1
11
-1.6900151495231435
21
1.9990200001001361
31
0
100
AcDbText
73
2
0
LWPOLYLINE
5
CEA6
330
CE6B
100
AcDbEntity
100
AcDbPolyline
8
EKP_TURKCELL_RRU
6
ByLayer
62
256
370
-1
90
4
70
1
10
-1.9475151510877655
20
1.7254999997019769
10
-1.9475151510877655
20
1.8655000002980233
10
-1.4325151479585216
20
1.8655000002980233
10
-1.4325151479585216
20
1.7254999997019769
0
LINE
5
CEA7
330
CE6B
100
AcDbEntity
100
AcDbLine
8
EKP_TURKCELL_RRU
10
-1.9475151510877655
20
1.7506999998092652
30
0
11
-1.4325151479585216
21
1.7506999998092652
31
0
0
LINE
5
CEA8
330
CE6B
100
AcDbEntity
100
AcDbLine
8
EKP_TURKCELL_RRU
10
-1.7180151496423528
20
1.7955
30
0
11
-1.6620151494039341
21
1.7955
31
0
0
LINE
5
CEA9
330
CE6B
100
AcDbEntity
100
AcDbLine
8
EKP_TURKCELL_RRU
10
-1.6900151495231435
20
1.7674999998807908
30
0
11
-1.6900151495231435
21
1.8235000001192094
31
0
0
TEXT
5
CEAA
330
CE6B
100
AcDbEntity
100
AcDbText
8
EKP_TURKCELL_RRU
10
-1.6900151495231435
20
1.819020000100136
30
0
40
0.03920000016689301
1
Turkcell RRU 5502 (Alt Kot)
50
0
7
STANDARD
72
1
11
-1.6900151495231435
21
1.819020000100136
31
0
100
AcDbText
73
2
0
LWPOLYLINE
5
CEAB
330
CE6B
100
AcDbEntity
100
AcDbPolyline
8
EKP_TURKCELL_RRU
6
ByLayer
62
256
370
-1
90
4
70
1
10
-1.9475151510877657
20
1.5430000020861625
10
-1.9475151510877657
20
1.6879999979138374
10
-1.43451514998508
20
1.6879999979138374
10
-1.43451514998508
20
1.5430000020861625
0
LINE
5
CEAC
330
CE6B
100
AcDbEntity
100
AcDbLine
8
EKP_TURKCELL_RRU
10
-1.9475151510877657
20
1.569100001335144
30
0
11
-1.43451514998508
21
1.569100001335144
31
0
0
LINE
5
CEAD
330
CE6B
100
AcDbEntity
100
AcDbLine
8
EKP_TURKCELL_RRU
10
-1.7200151497019578
20
1.6155
30
0
11
-1.6620151513708878
21
1.6155
31
0
0
LINE
5
CEAE
330
CE6B
100
AcDbEntity
100
AcDbLine
8
EKP_TURKCELL_RRU
10
-1.6910151505364228
20
1.586500000834465
30
0
11
-1.6910151505364228
21
1.644499999165535
31
0
0
TEXT
5
CEAF
330
CE6B
100
AcDbEntity
100
AcDbText
8
EKP_TURKCELL_RRU
10
-1.6910151505364228
20
1.6398599992990492
30
0
40
0.04059999883174897
1
Turkcell LTE RRU4485 (Alt Kot)
50
0
7
STANDARD
72
1
11
-1.6910151505364228
21
1.6398599992990492
31
0
100
AcDbText
73
2
0
LWPOLYLINE
5
CEB0
330
CE6B
100
AcDbEntity
100
AcDbPolyline
8
EKP_TURKCELL_RRU
6
ByLayer
62
256
370
-1
90
4
70
1
10
-1.9475151510877655
20
1.3585000004172325
10
-1.9475151510877655
20
1.5124999995827675
10
-1.4895151535613582
20
1.5124999995827675
10
-1.4895151535613582
20
1.3585000004172325
0
LINE
5
CEB1
330
CE6B
100
AcDbEntity
100
AcDbLine
8
EKP_TURKCELL_RRU
10
-1.9475151510877655
20
1.3862200002670289
30
0
11
-1.4895151535613582
21
1.3862200002670289
31
0
0
LINE
5
CEB2
330
CE6B
100
AcDbEntity
100
AcDbLine
8
EKP_TURKCELL_RRU
10
-1.7493151521576689
20
1.4355
30
0
11
-1.6877151524914549
21
1.4355
31
0
0
LINE
5
CEB3
330
CE6B
100
AcDbEntity
100
AcDbLine
8
EKP_TURKCELL_RRU
10
-1.7185151523245619
20
1.404700000166893
30
0
11
-1.7185151523245619
21
1.466299999833107
31
0
0
TEXT
5
CEB4
330
CE6B
100
AcDbEntity
100
AcDbText
8
EKP_TURKCELL_RRU
10
-1.7185151523245619
20
1.4613719998598098
30
0
40
0.043119999766349795
1
Turkcell GSM 2219 B8 (Alt Kot)
50
0
7
STANDARD
72
1
11
-1.7185151523245619
21
1.4613719998598098
31
0
100
AcDbText
73
2
0
LWPOLYLINE
5
CF2F
330
CE6B
100
AcDbEntity
100
AcDbPolyline
8
EKP_TURKCELL_RRU
6
ByLayer
62
256
370
-1
90
4
70
1
10
-0.75
20
-2.75
10
-0.75
20
-2.27
10
-0.39999999999999997
20
-2.27
10
-0.39999999999999997
20
-2.75
0
LWPOLYLINE
5
CF30
330
CE6B
100
AcDbEntity
100
AcDbPolyline
8
EKP_TURKCELL_RRU
6
ByLayer
62
256
370
-1
90
4
70
1
10
-0.645
20
-2.27
10
-0.645
20
-2.24
10
-0.505
20
-2.24
10
-0.505
20
-2.27
0
TEXT
5
CF31
330
CE6B
100
AcDbEntity
100
AcDbText
8
EKP_TURKCELL_RRU
10
-0.575
20
-2.51
30
0
40
0.045
1
TCELL
50
0
7
STANDARD
72
1
11
-0.575
21
-2.51
31
0
100
AcDbText
73
2
0
LWPOLYLINE
5
CF39
330
CE6B
100
AcDbEntity
100
AcDbPolyline
8
EKP_TURKCELL_RRU
6
ByLayer
62
256
370
-1
90
4
70
1
10
-0.49
20
-2.75
10
-0.49
20
-2.27
10
-0.13999999999999996
20
-2.27
10
-0.13999999999999996
20
-2.75
0
LWPOLYLINE
5
CF3A
330
CE6B
100
AcDbEntity
100
AcDbPolyline
8
EKP_TURKCELL_RRU
6
ByLayer
62
256
370
-1
90
4
70
1
10
-0.385
20
-2.27
10
-0.385
20
-2.24
10
-0.245
20
-2.24
10
-0.245
20
-2.27
0
TEXT
5
CF3B
330
CE6B
100
AcDbEntity
100
AcDbText
8
EKP_TURKCELL_RRU
10
-0.31499999999999995
20
-2.51
30
0
40
0.045
1
TCELL
50
0
7
STANDARD
72
1
11
-0.31499999999999995
21
-2.51
31
0
100
AcDbText
73
2
0
LWPOLYLINE
5
CF43
330
CE6B
100
AcDbEntity
100
AcDbPolyline
8
EKP_TURKCELL_RRU
6
ByLayer
62
256
370
-1
90
4
70
1
10
-0.23
20
-2.75
10
-0.23
20
-2.27
10
0.12000000000000002
20
-2.27
10
0.12000000000000002
20
-2.75
0
LWPOLYLINE
5
CF44
330
CE6B
100
AcDbEntity
100
AcDbPolyline
8
EKP_TURKCELL_RRU
6
ByLayer
62
256
370
-1
90
4
70
1
10
-0.125
20
-2.27
10
-0.125
20
-2.24
10
0.014999999999999986
20
-2.24
10
0.014999999999999986
20
-2.27
0
TEXT
5
CF45
330
CE6B
100
AcDbEntity
100
AcDbText
8
EKP_TURKCELL_RRU
10
-0.05499999999999999
20
-2.51
30
0
40
0.045
1
TCELL
50
0
7
STANDARD
72
1
11
-0.05499999999999999
21
-2.51
31
0
100
AcDbText
73
2
0
LWPOLYLINE
5
CEC4
330
CE6B
100
AcDbEntity
100
AcDbPolyline
8
EKP_VODAFONE_RRU
6
ByLayer
62
256
370
-1
90
4
70
1
10
-1.9475151510877655
20
1.907999997317791
10
-1.9475151510877655
20
2.0430000026822093
10
-1.4005151453359173
20
2.0430000026822093
10
-1.4005151453359173
20
1.907999997317791
0
LINE
5
CEC5
330
CE6B
100
AcDbEntity
100
AcDbLine
8
EKP_VODAFONE_RRU
10
-1.9475151510877655
20
1.9322999982833864
30
0
11
-1.4005151453359173
21
1.9322999982833864
31
0
0
LINE
5
CEC6
330
CE6B
100
AcDbEntity
100
AcDbLine
8
EKP_VODAFONE_RRU
10
-1.701015149284725
20
1.9755000000000003
30
0
11
-1.6470151471389576
21
1.9755000000000003
31
0
0
LINE
5
CEC7
330
CE6B
100
AcDbEntity
100
AcDbLine
8
EKP_VODAFONE_RRU
10
-1.6740151482118413
20
1.9484999989271166
30
0
11
-1.6740151482118413
21
2.002500001072884
31
0
0
TEXT
5
CEC8
330
CE6B
100
AcDbEntity
100
AcDbText
8
EKP_VODAFONE_RRU
10
-1.6740151482118413
20
1.9981800009012225
30
0
40
0.03780000150203711
1
Vodafone RRU5526t (#1) (Ust Kot)
50
0
7
STANDARD
72
1
11
-1.6740151482118413
21
1.9981800009012225
31
0
100
AcDbText
73
2
0
LWPOLYLINE
5
CEC9
330
CE6B
100
AcDbEntity
100
AcDbPolyline
8
EKP_VODAFONE_RRU
6
ByLayer
62
256
370
-1
90
4
70
1
10
-1.9475151510877655
20
1.727999997317791
10
-1.9475151510877655
20
1.863000002682209
10
-1.4005151453359173
20
1.863000002682209
10
-1.4005151453359173
20
1.727999997317791
0
LINE
5
CECA
330
CE6B
100
AcDbEntity
100
AcDbLine
8
EKP_VODAFONE_RRU
10
-1.9475151510877655
20
1.7522999982833862
30
0
11
-1.4005151453359173
21
1.7522999982833862
31
0
0
LINE
5
CECB
330
CE6B
100
AcDbEntity
100
AcDbLine
8
EKP_VODAFONE_RRU
10
-1.701015149284725
20
1.7955
30
0
11
-1.6470151471389576
21
1.7955
31
0
0
LINE
5
CECC
330
CE6B
100
AcDbEntity
100
AcDbLine
8
EKP_VODAFONE_RRU
10
-1.6740151482118413
20
1.7684999989271164
30
0
11
-1.6740151482118413
21
1.8225000010728838
31
0
0
TEXT
5
CECD
330
CE6B
100
AcDbEntity
100
AcDbText
8
EKP_VODAFONE_RRU
10
-1.6740151482118413
20
1.8181800009012223
30
0
40
0.03780000150203705
1
Vodafone RRU5526t (#2) (Ust Kot)
50
0
7
STANDARD
72
1
11
-1.6740151482118413
21
1.8181800009012223
31
0
100
AcDbText
73
2
0
LWPOLYLINE
5
CECE
330
CE6B
100
AcDbEntity
100
AcDbPolyline
8
EKP_VODAFONE_RRU
6
ByLayer
62
256
370
-1
90
4
70
1
10
-1.9475151510877655
20
1.547999997317791
10
-1.9475151510877655
20
1.683000002682209
10
-1.4005151453359173
20
1.683000002682209
10
-1.4005151453359173
20
1.547999997317791
0
LINE
5
CECF
330
CE6B
100
AcDbEntity
100
AcDbLine
8
EKP_VODAFONE_RRU
10
-1.9475151510877655
20
1.572299998283386
30
0
11
-1.4005151453359173
21
1.572299998283386
31
0
0
LINE
5
CED0
330
CE6B
100
AcDbEntity
100
AcDbLine
8
EKP_VODAFONE_RRU
10
-1.701015149284725
20
1.6155
30
0
11
-1.6470151471389576
21
1.6155
31
0
0
LINE
5
CED1
330
CE6B
100
AcDbEntity
100
AcDbLine
8
EKP_VODAFONE_RRU
10
-1.6740151482118413
20
1.5884999989271162
30
0
11
-1.6740151482118413
21
1.6425000010728836
31
0
0
TEXT
5
CED2
330
CE6B
100
AcDbEntity
100
AcDbText
8
EKP_VODAFONE_RRU
10
-1.6740151482118413
20
1.6381800009012222
30
0
40
0.03780000150203705
1
Vodafone RRU5526t (#3) (Ust Kot)
50
0
7
STANDARD
72
1
11
-1.6740151482118413
21
1.6381800009012222
31
0
100
AcDbText
73
2
0
LWPOLYLINE
5
CED3
330
CE6B
100
AcDbEntity
100
AcDbPolyline
8
EKP_VODAFONE_RRU
6
ByLayer
62
256
370
-1
90
4
70
1
10
-1.9475151510877657
20
1.3654999997019768
10
-1.9475151510877657
20
1.5055000002980232
10
-1.4765151478393126
20
1.5055000002980232
10
-1.4765151478393126
20
1.3654999997019768
0
LINE
5
CED4
330
CE6B
100
AcDbEntity
100
AcDbLine
8
EKP_VODAFONE_RRU
10
-1.9475151510877657
20
1.390699999809265
30
0
11
-1.4765151478393126
21
1.390699999809265
31
0
0
LINE
5
CED5
330
CE6B
100
AcDbEntity
100
AcDbLine
8
EKP_VODAFONE_RRU
10
-1.7400151495827485
20
1.4355
30
0
11
-1.6840151493443298
21
1.4355
31
0
0
LINE
5
CED6
330
CE6B
100
AcDbEntity
100
AcDbLine
8
EKP_VODAFONE_RRU
10
-1.7120151494635392
20
1.4074999998807907
30
0
11
-1.7120151494635392
21
1.4635000001192093
31
0
0
TEXT
5
CED7
330
CE6B
100
AcDbEntity
100
AcDbText
8
EKP_VODAFONE_RRU
10
-1.7120151494635392
20
1.4590200001001359
30
0
40
0.03920000016689301
1
Vodafone NR RRU5818w (#4) (Ust Kot)
50
0
7
STANDARD
72
1
11
-1.7120151494635392
21
1.4590200001001359
31
0
100
AcDbText
73
2
0
LWPOLYLINE
5
CED8
330
CE6B
100
AcDbEntity
100
AcDbPolyline
8
EKP_VODAFONE_RRU
6
ByLayer
62
256
370
-1
90
4
70
1
10
-1.9475151510877657
20
1.193
10
-1.9475151510877657
20
1.318
10
-1.4765151478393126
20
1.318
10
-1.4765151478393126
20
1.193
0
LINE
5
CED9
330
CE6B
100
AcDbEntity
100
AcDbLine
8
EKP_VODAFONE_RRU
10
-1.9475151510877657
20
1.2155
30
0
11
-1.4765151478393126
21
1.2155
31
0
0
LINE
5
CEDA
330
CE6B
100
AcDbEntity
100
AcDbLine
8
EKP_VODAFONE_RRU
10
-1.737015149463539
20
1.2555
30
0
11
-1.6870151494635393
21
1.2555
31
0
0
LINE
5
CEDB
330
CE6B
100
AcDbEntity
100
AcDbLine
8
EKP_VODAFONE_RRU
10
-1.7120151494635392
20
1.2305000000000001
30
0
11
-1.7120151494635392
21
1.2805
31
0
0
TEXT
5
CEDC
330
CE6B
100
AcDbEntity
100
AcDbText
8
EKP_VODAFONE_RRU
10
-1.7120151494635392
20
1.2765
30
0
40
0.035
1
Vodafone RRU5526et (#5) (Ust Kot)
50
0
7
STANDARD
72
1
11
-1.7120151494635392
21
1.2765
31
0
100
AcDbText
73
2
0
LWPOLYLINE
5
CF33
330
CE6B
100
AcDbEntity
100
AcDbPolyline
8
EKP_VODAFONE_RRU
6
ByLayer
62
256
370
-1
90
4
70
1
10
-0.75
20
-2.05
10
-0.75
20
-1.5699999999999998
10
-0.39999999999999997
20
-1.5699999999999998
10
-0.39999999999999997
20
-2.05
0
LWPOLYLINE
5
CF34
330
CE6B
100
AcDbEntity
100
AcDbPolyline
8
EKP_VODAFONE_RRU
6
ByLayer
62
256
370
-1
90
4
70
1
10
-0.645
20
-1.5699999999999998
10
-0.645
20
-1.5399999999999998
10
-0.505
20
-1.5399999999999998
10
-0.505
20
-1.5699999999999998
0
TEXT
5
CF35
330
CE6B
100
AcDbEntity
100
AcDbText
8
EKP_VODAFONE_RRU
10
-0.575
20
-1.8099999999999998
30
0
40
0.045
1
VODA
50
0
7
STANDARD
72
1
11
-0.575
21
-1.8099999999999998
31
0
100
AcDbText
73
2
0
LWPOLYLINE
5
CF3D
330
CE6B
100
AcDbEntity
100
AcDbPolyline
8
EKP_VODAFONE_RRU
6
ByLayer
62
256
370
-1
90
4
70
1
10
-0.49
20
-2.05
10
-0.49
20
-1.5699999999999998
10
-0.13999999999999996
20
-1.5699999999999998
10
-0.13999999999999996
20
-2.05
0
LWPOLYLINE
5
CF3E
330
CE6B
100
AcDbEntity
100
AcDbPolyline
8
EKP_VODAFONE_RRU
6
ByLayer
62
256
370
-1
90
4
70
1
10
-0.385
20
-1.5699999999999998
10
-0.385
20
-1.5399999999999998
10
-0.245
20
-1.5399999999999998
10
-0.245
20
-1.5699999999999998
0
TEXT
5
CF3F
330
CE6B
100
AcDbEntity
100
AcDbText
8
EKP_VODAFONE_RRU
10
-0.31499999999999995
20
-1.8099999999999998
30
0
40
0.045
1
VODA
50
0
7
STANDARD
72
1
11
-0.31499999999999995
21
-1.8099999999999998
31
0
100
AcDbText
73
2
0
LWPOLYLINE
5
CF47
330
CE6B
100
AcDbEntity
100
AcDbPolyline
8
EKP_VODAFONE_RRU
6
ByLayer
62
256
370
-1
90
4
70
1
10
-0.23
20
-2.05
10
-0.23
20
-1.5699999999999998
10
0.12000000000000002
20
-1.5699999999999998
10
0.12000000000000002
20
-2.05
0
LWPOLYLINE
5
CF48
330
CE6B
100
AcDbEntity
100
AcDbPolyline
8
EKP_VODAFONE_RRU
6
ByLayer
62
256
370
-1
90
4
70
1
10
-0.125
20
-1.5699999999999998
10
-0.125
20
-1.5399999999999998
10
0.014999999999999986
20
-1.5399999999999998
10
0.014999999999999986
20
-1.5699999999999998
0
TEXT
5
CF49
330
CE6B
100
AcDbEntity
100
AcDbText
8
EKP_VODAFONE_RRU
10
-0.05499999999999999
20
-1.8099999999999998
30
0
40
0.045
1
VODA
50
0
7
STANDARD
72
1
11
-0.05499999999999999
21
-1.8099999999999998
31
0
100
AcDbText
73
2
0
LWPOLYLINE
5
CF51
330
CE6B
100
AcDbEntity
100
AcDbPolyline
8
EKP_VODAFONE_RRU
6
ByLayer
62
256
370
-1
90
4
70
1
10
0.03
20
-2.05
10
0.03
20
-1.5699999999999998
10
0.38
20
-1.5699999999999998
10
0.38
20
-2.05
0
LWPOLYLINE
5
CF52
330
CE6B
100
AcDbEntity
100
AcDbPolyline
8
EKP_VODAFONE_RRU
6
ByLayer
62
256
370
-1
90
4
70
1
10
0.135
20
-1.5699999999999998
10
0.135
20
-1.5399999999999998
10
0.275
20
-1.5399999999999998
10
0.275
20
-1.5699999999999998
0
TEXT
5
CF53
330
CE6B
100
AcDbEntity
100
AcDbText
8
EKP_VODAFONE_RRU
10
0.20500000000000002
20
-1.8099999999999998
30
0
40
0.045
1
VODA
50
0
7
STANDARD
72
1
11
0.20500000000000002
21
-1.8099999999999998
31
0
100
AcDbText
73
2
0
LWPOLYLINE
5
CF5B
330
CE6B
100
AcDbEntity
100
AcDbPolyline
8
EKP_VODAFONE_RRU
6
ByLayer
62
256
370
-1
90
4
70
1
10
0.29000000000000004
20
-2.05
10
0.29000000000000004
20
-1.5699999999999998
10
0.6400000000000001
20
-1.5699999999999998
10
0.6400000000000001
20
-2.05
0
LWPOLYLINE
5
CF5C
330
CE6B
100
AcDbEntity
100
AcDbPolyline
8
EKP_VODAFONE_RRU
6
ByLayer
62
256
370
-1
90
4
70
1
10
0.395
20
-1.5699999999999998
10
0.395
20
-1.5399999999999998
10
0.535
20
-1.5399999999999998
10
0.535
20
-1.5699999999999998
0
TEXT
5
CF5D
330
CE6B
100
AcDbEntity
100
AcDbText
8
EKP_VODAFONE_RRU
10
0.4650000000000001
20
-1.8099999999999998
30
0
40
0.045
1
VODA
50
0
7
STANDARD
72
1
11
0.4650000000000001
21
-1.8099999999999998
31
0
100
AcDbText
73
2
0
LWPOLYLINE
5
CF65
330
CE6B
100
AcDbEntity
100
AcDbPolyline
8
EKP_VODAFONE_RRU
6
ByLayer
62
256
370
-1
90
4
70
1
10
0.55
20
-2.05
10
0.55
20
-1.5699999999999998
10
0.9000000000000001
20
-1.5699999999999998
10
0.9000000000000001
20
-2.05
0
LWPOLYLINE
5
CF66
330
CE6B
100
AcDbEntity
100
AcDbPolyline
8
EKP_VODAFONE_RRU
6
ByLayer
62
256
370
-1
90
4
70
1
10
0.655
20
-1.5699999999999998
10
0.655
20
-1.5399999999999998
10
0.795
20
-1.5399999999999998
10
0.795
20
-1.5699999999999998
0
TEXT
5
CF67
330
CE6B
100
AcDbEntity
100
AcDbText
8
EKP_VODAFONE_RRU
10
0.7250000000000001
20
-1.8099999999999998
30
0
40
0.045
1
VODA
50
0
7
STANDARD
72
1
11
0.7250000000000001
21
-1.8099999999999998
31
0
100
AcDbText
73
2
0
LWPOLYLINE
5
CF6F
330
CE6B
100
AcDbEntity
100
AcDbPolyline
8
EKP_VODAFONE_RRU
6
ByLayer
62
256
370
-1
90
4
70
1
10
0.81
20
-2.05
10
0.81
20
-1.5699999999999998
10
1.1600000000000001
20
-1.5699999999999998
10
1.1600000000000001
20
-2.05
0
LWPOLYLINE
5
CF70
330
CE6B
100
AcDbEntity
100
AcDbPolyline
8
EKP_VODAFONE_RRU
6
ByLayer
62
256
370
-1
90
4
70
1
10
0.915
20
-1.5699999999999998
10
0.915
20
-1.5399999999999998
10
1.0550000000000002
20
-1.5399999999999998
10
1.0550000000000002
20
-1.5699999999999998
0
TEXT
5
CF71
330
CE6B
100
AcDbEntity
100
AcDbText
8
EKP_VODAFONE_RRU
10
0.9850000000000001
20
-1.8099999999999998
30
0
40
0.045
1
VODA
50
0
7
STANDARD
72
1
11
0.9850000000000001
21
-1.8099999999999998
31
0
100
AcDbText
73
2
0
LWPOLYLINE
5
CEB5
330
CE6B
100
AcDbEntity
100
AcDbPolyline
8
EKP_TURK_TELEKOM_RRU
6
ByLayer
62
256
370
-1
90
4
70
1
10
-1.9475151510877657
20
1.1854999997019768
10
-1.9475151510877657
20
1.3255000002980233
10
-1.4765151478393126
20
1.3255000002980233
10
-1.4765151478393126
20
1.1854999997019768
0
LINE
5
CEB6
330
CE6B
100
AcDbEntity
100
AcDbLine
8
EKP_TURK_TELEKOM_RRU
10
-1.9475151510877657
20
1.2106999998092651
30
0
11
-1.4765151478393126
21
1.2106999998092651
31
0
0
LINE
5
CEB7
330
CE6B
100
AcDbEntity
100
AcDbLine
8
EKP_TURK_TELEKOM_RRU
10
-1.7400151495827485
20
1.2555
30
0
11
-1.6840151493443298
21
1.2555
31
0
0
LINE
5
CEB8
330
CE6B
100
AcDbEntity
100
AcDbLine
8
EKP_TURK_TELEKOM_RRU
10
-1.7120151494635392
20
1.2274999998807907
30
0
11
-1.7120151494635392
21
1.2835000001192094
31
0
0
TEXT
5
CEB9
330
CE6B
100
AcDbEntity
100
AcDbText
8
EKP_TURK_TELEKOM_RRU
10
-1.7120151494635392
20
1.279020000100136
30
0
40
0.03920000016689301
1
Turk Telekom RRU5527 (#1) (Alt Kot)
50
0
7
STANDARD
72
1
11
-1.7120151494635392
21
1.279020000100136
31
0
100
AcDbText
73
2
0
LWPOLYLINE
5
CEBA
330
CE6B
100
AcDbEntity
100
AcDbPolyline
8
EKP_TURK_TELEKOM_RRU
6
ByLayer
62
256
370
-1
90
4
70
1
10
-1.9475151510877657
20
1.005499999701977
10
-1.9475151510877657
20
1.1455000002980233
10
-1.4765151478393126
20
1.1455000002980233
10
-1.4765151478393126
20
1.005499999701977
0
LINE
5
CEBB
330
CE6B
100
AcDbEntity
100
AcDbLine
8
EKP_TURK_TELEKOM_RRU
10
-1.9475151510877657
20
1.0306999998092652
30
0
11
-1.4765151478393126
21
1.0306999998092652
31
0
0
LINE
5
CEBC
330
CE6B
100
AcDbEntity
100
AcDbLine
8
EKP_TURK_TELEKOM_RRU
10
-1.7400151495827485
20
1.0755000000000001
30
0
11
-1.6840151493443298
21
1.0755000000000001
31
0
0
LINE
5
CEBD
330
CE6B
100
AcDbEntity
100
AcDbLine
8
EKP_TURK_TELEKOM_RRU
10
-1.7120151494635392
20
1.0474999998807908
30
0
11
-1.7120151494635392
21
1.1035000001192095
31
0
0
TEXT
5
CEBE
330
CE6B
100
AcDbEntity
100
AcDbText
8
EKP_TURK_TELEKOM_RRU
10
-1.7120151494635392
20
1.099020000100136
30
0
40
0.03920000016689301
1
Turk Telekom NR RRU5818W (#1) (Alt Kot)
50
0
7
STANDARD
72
1
11
-1.7120151494635392
21
1.099020000100136
31
0
100
AcDbText
73
2
0
LWPOLYLINE
5
CEBF
330
CE6B
100
AcDbEntity
100
AcDbPolyline
8
EKP_TURK_TELEKOM_RRU
6
ByLayer
62
256
370
-1
90
4
70
1
10
-1.9475151510877657
20
0.8254999997019767
10
-1.9475151510877657
20
0.9655000002980232
10
-1.4765151478393126
20
0.9655000002980232
10
-1.4765151478393126
20
0.8254999997019767
0
LINE
5
CEC0
330
CE6B
100
AcDbEntity
100
AcDbLine
8
EKP_TURK_TELEKOM_RRU
10
-1.9475151510877657
20
0.8506999998092651
30
0
11
-1.4765151478393126
21
0.8506999998092651
31
0
0
LINE
5
CEC1
330
CE6B
100
AcDbEntity
100
AcDbLine
8
EKP_TURK_TELEKOM_RRU
10
-1.7400151495827485
20
0.8955
30
0
11
-1.6840151493443298
21
0.8955
31
0
0
LINE
5
CEC2
330
CE6B
100
AcDbEntity
100
AcDbLine
8
EKP_TURK_TELEKOM_RRU
10
-1.7120151494635392
20
0.8674999998807906
30
0
11
-1.7120151494635392
21
0.9235000001192093
31
0
0
TEXT
5
CEC3
330
CE6B
100
AcDbEntity
100
AcDbText
8
EKP_TURK_TELEKOM_RRU
10
-1.7120151494635392
20
0.9190200001001357
30
0
40
0.03920000016689301
1
Turk Telekom RRU5527 (#2) (Alt Kot)
50
0
7
STANDARD
72
1
11
-1.7120151494635392
21
0.9190200001001357
31
0
100
AcDbText
73
2
0
LWPOLYLINE
5
CEDD
330
CE6B
100
AcDbEntity
100
AcDbPolyline
8
EKP_TURK_TELEKOM_RRU
6
ByLayer
62
256
370
-1
90
4
70
1
10
-1.9475151510877657
20
1.005499999701977
10
-1.9475151510877657
20
1.1455000002980233
10
-1.4765151478393126
20
1.1455000002980233
10
-1.4765151478393126
20
1.005499999701977
0
LINE
5
CEDE
330
CE6B
100
AcDbEntity
100
AcDbLine
8
EKP_TURK_TELEKOM_RRU
10
-1.9475151510877657
20
1.0306999998092652
30
0
11
-1.4765151478393126
21
1.0306999998092652
31
0
0
LINE
5
CEDF
330
CE6B
100
AcDbEntity
100
AcDbLine
8
EKP_TURK_TELEKOM_RRU
10
-1.7400151495827485
20
1.0755000000000001
30
0
11
-1.6840151493443298
21
1.0755000000000001
31
0
0
LINE
5
CEE0
330
CE6B
100
AcDbEntity
100
AcDbLine
8
EKP_TURK_TELEKOM_RRU
10
-1.7120151494635392
20
1.0474999998807908
30
0
11
-1.7120151494635392
21
1.1035000001192095
31
0
0
TEXT
5
CEE1
330
CE6B
100
AcDbEntity
100
AcDbText
8
EKP_TURK_TELEKOM_RRU
10
-1.7120151494635392
20
1.099020000100136
30
0
40
0.03920000016689301
1
Turk Telekom NR RRU5818W (#2) (Ust Kot)
50
0
7
STANDARD
72
1
11
-1.7120151494635392
21
1.099020000100136
31
0
100
AcDbText
73
2
0
LWPOLYLINE
5
CF4D
330
CE6B
100
AcDbEntity
100
AcDbPolyline
8
EKP_TURK_TELEKOM_RRU
6
ByLayer
62
256
370
-1
90
4
70
1
10
0.03
20
-2.75
10
0.03
20
-2.27
10
0.38
20
-2.27
10
0.38
20
-2.75
0
LWPOLYLINE
5
CF4E
330
CE6B
100
AcDbEntity
100
AcDbPolyline
8
EKP_TURK_TELEKOM_RRU
6
ByLayer
62
256
370
-1
90
4
70
1
10
0.135
20
-2.27
10
0.135
20
-2.24
10
0.275
20
-2.24
10
0.275
20
-2.27
0
TEXT
5
CF4F
330
CE6B
100
AcDbEntity
100
AcDbText
8
EKP_TURK_TELEKOM_RRU
10
0.20500000000000002
20
-2.51
30
0
40
0.045
1
TT
50
0
7
STANDARD
72
1
11
0.20500000000000002
21
-2.51
31
0
100
AcDbText
73
2
0
LWPOLYLINE
5
CF57
330
CE6B
100
AcDbEntity
100
AcDbPolyline
8
EKP_TURK_TELEKOM_RRU
6
ByLayer
62
256
370
-1
90
4
70
1
10
0.29000000000000004
20
-2.75
10
0.29000000000000004
20
-2.27
10
0.6400000000000001
20
-2.27
10
0.6400000000000001
20
-2.75
0
LWPOLYLINE
5
CF58
330
CE6B
100
AcDbEntity
100
AcDbPolyline
8
EKP_TURK_TELEKOM_RRU
6
ByLayer
62
256
370
-1
90
4
70
1
10
0.395
20
-2.27
10
0.395
20
-2.24
10
0.535
20
-2.24
10
0.535
20
-2.27
0
TEXT
5
CF59
330
CE6B
100
AcDbEntity
100
AcDbText
8
EKP_TURK_TELEKOM_RRU
10
0.4650000000000001
20
-2.51
30
0
40
0.045
1
TT
50
0
7
STANDARD
72
1
11
0.4650000000000001
21
-2.51
31
0
100
AcDbText
73
2
0
LWPOLYLINE
5
CF61
330
CE6B
100
AcDbEntity
100
AcDbPolyline
8
EKP_TURK_TELEKOM_RRU
6
ByLayer
62
256
370
-1
90
4
70
1
10
0.55
20
-2.75
10
0.55
20
-2.27
10
0.9000000000000001
20
-2.27
10
0.9000000000000001
20
-2.75
0
LWPOLYLINE
5
CF62
330
CE6B
100
AcDbEntity
100
AcDbPolyline
8
EKP_TURK_TELEKOM_RRU
6
ByLayer
62
256
370
-1
90
4
70
1
10
0.655
20
-2.27
10
0.655
20
-2.24
10
0.795
20
-2.24
10
0.795
20
-2.27
0
TEXT
5
CF63
330
CE6B
100
AcDbEntity
100
AcDbText
8
EKP_TURK_TELEKOM_RRU
10
0.7250000000000001
20
-2.51
30
0
40
0.045
1
TT
50
0
7
STANDARD
72
1
11
0.7250000000000001
21
-2.51
31
0
100
AcDbText
73
2
0
LWPOLYLINE
5
CF6B
330
CE6B
100
AcDbEntity
100
AcDbPolyline
8
EKP_TURK_TELEKOM_RRU
6
ByLayer
62
256
370
-1
90
4
70
1
10
0.81
20
-2.75
10
0.81
20
-2.27
10
1.1600000000000001
20
-2.27
10
1.1600000000000001
20
-2.75
0
LWPOLYLINE
5
CF6C
330
CE6B
100
AcDbEntity
100
AcDbPolyline
8
EKP_TURK_TELEKOM_RRU
6
ByLayer
62
256
370
-1
90
4
70
1
10
0.915
20
-2.27
10
0.915
20
-2.24
10
1.0550000000000002
20
-2.24
10
1.0550000000000002
20
-2.27
0
TEXT
5
CF6D
330
CE6B
100
AcDbEntity
100
AcDbText
8
EKP_TURK_TELEKOM_RRU
10
0.9850000000000001
20
-2.51
30
0
40
0.045
1
TT
50
0
7
STANDARD
72
1
11
0.9850000000000001
21
-2.51
31
0
100
AcDbText
73
2
0
LWPOLYLINE
5
CEE2
330
CE6B
100
AcDbEntity
100
AcDbPolyline
8
EKP_POI_TASIYICI_SASE
6
ByLayer
62
256
370
-1
90
4
70
1
10
-0.2625151449782895
20
1.4254999997019768
10
-0.2625151449782895
20
2.0455000002980235
10
0.4374848431007817
20
2.0455000002980235
10
0.4374848431007817
20
1.4254999997019768
0
LWPOLYLINE
5
CEE3
330
CE6B
100
AcDbEntity
100
AcDbPolyline
8
EKP_POI_TASIYICI_SASE
6
ByLayer
62
256
370
-1
90
4
70
1
10
-0.2625151449782895
20
1.4254999997019768
10
-0.2625151449782895
20
1.4854999997019769
10
-0.20251514497828949
20
1.4854999997019769
10
-0.20251514497828949
20
1.4254999997019768
0
LWPOLYLINE
5
CEE4
330
CE6B
100
AcDbEntity
100
AcDbPolyline
8
EKP_POI_TASIYICI_SASE
6
ByLayer
62
256
370
-1
90
4
70
1
10
0.3774848431007817
20
1.4254999997019768
10
0.3774848431007817
20
1.4854999997019769
10
0.4374848431007817
20
1.4854999997019769
10
0.4374848431007817
20
1.4254999997019768
0
LWPOLYLINE
5
CEE5
330
CE6B
100
AcDbEntity
100
AcDbPolyline
8
EKP_POI_TASIYICI_SASE
6
ByLayer
62
256
370
-1
90
4
70
1
10
-0.2625151449782895
20
1.9855000002980234
10
-0.2625151449782895
20
2.0455000002980235
10
-0.20251514497828949
20
2.0455000002980235
10
-0.20251514497828949
20
1.9855000002980234
0
LWPOLYLINE
5
CEE6
330
CE6B
100
AcDbEntity
100
AcDbPolyline
8
EKP_POI_TASIYICI_SASE
6
ByLayer
62
256
370
-1
90
4
70
1
10
0.3774848431007817
20
1.9855000002980234
10
0.3774848431007817
20
2.0455000002980235
10
0.4374848431007817
20
2.0455000002980235
10
0.4374848431007817
20
1.9855000002980234
0
LWPOLYLINE
5
CEE7
330
CE6B
100
AcDbEntity
100
AcDbPolyline
8
EKP_POI_TASIYICI_SASE
6
ByLayer
62
256
370
-1
90
4
70
1
10
-0.1788151509387539
20
1.4854999997019769
10
-0.1788151509387539
20
1.9855000002980234
10
-0.1538151509387539
20
1.9855000002980234
10
-0.1538151509387539
20
1.4854999997019769
0
LWPOLYLINE
5
CEE8
330
CE6B
100
AcDbEntity
100
AcDbPolyline
8
EKP_POI_TASIYICI_SASE
6
ByLayer
62
256
370
-1
90
4
70
1
10
0.32878484906124605
20
1.4854999997019769
10
0.32878484906124605
20
1.9855000002980234
10
0.3537848490612461
20
1.9855000002980234
10
0.3537848490612461
20
1.4854999997019769
0
TEXT
5
CEE9
330
CE6B
100
AcDbEntity
100
AcDbText
8
EKP_POI_TASIYICI_SASE
10
0.0874848490612461
20
1.7355
30
0
40
0.055
1
POI Rack Blok (5x POI Dolu)
50
0
7
STANDARD
72
1
11
0.0874848490612461
21
1.7355
31
0
100
AcDbText
73
2
0
LWPOLYLINE
5
CF03
330
CE6B
100
AcDbEntity
100
AcDbPolyline
8
EKP_POI_TASIYICI_SASE
6
ByLayer
62
256
370
-1
90
4
70
1
10
-0.2625151449782895
20
0.8254999997019767
10
-0.2625151449782895
20
1.4455000002980234
10
0.4374848431007817
20
1.4455000002980234
10
0.4374848431007817
20
0.8254999997019767
0
LWPOLYLINE
5
CF04
330
CE6B
100
AcDbEntity
100
AcDbPolyline
8
EKP_POI_TASIYICI_SASE
6
ByLayer
62
256
370
-1
90
4
70
1
10
-0.2625151449782895
20
0.8254999997019767
10
-0.2625151449782895
20
0.8854999997019768
10
-0.20251514497828949
20
0.8854999997019768
10
-0.20251514497828949
20
0.8254999997019767
0
LWPOLYLINE
5
CF05
330
CE6B
100
AcDbEntity
100
AcDbPolyline
8
EKP_POI_TASIYICI_SASE
6
ByLayer
62
256
370
-1
90
4
70
1
10
0.3774848431007817
20
0.8254999997019767
10
0.3774848431007817
20
0.8854999997019768
10
0.4374848431007817
20
0.8854999997019768
10
0.4374848431007817
20
0.8254999997019767
0
LWPOLYLINE
5
CF06
330
CE6B
100
AcDbEntity
100
AcDbPolyline
8
EKP_POI_TASIYICI_SASE
6
ByLayer
62
256
370
-1
90
4
70
1
10
-0.2625151449782895
20
1.3855000002980233
10
-0.2625151449782895
20
1.4455000002980234
10
-0.20251514497828949
20
1.4455000002980234
10
-0.20251514497828949
20
1.3855000002980233
0
LWPOLYLINE
5
CF07
330
CE6B
100
AcDbEntity
100
AcDbPolyline
8
EKP_POI_TASIYICI_SASE
6
ByLayer
62
256
370
-1
90
4
70
1
10
0.3774848431007817
20
1.3855000002980233
10
0.3774848431007817
20
1.4455000002980234
10
0.4374848431007817
20
1.4455000002980234
10
0.4374848431007817
20
1.3855000002980233
0
LWPOLYLINE
5
CF08
330
CE6B
100
AcDbEntity
100
AcDbPolyline
8
EKP_POI_TASIYICI_SASE
6
ByLayer
62
256
370
-1
90
4
70
1
10
-0.1788151509387539
20
0.8854999997019768
10
-0.1788151509387539
20
1.3855000002980233
10
-0.1538151509387539
20
1.3855000002980233
10
-0.1538151509387539
20
0.8854999997019768
0
LWPOLYLINE
5
CF09
330
CE6B
100
AcDbEntity
100
AcDbPolyline
8
EKP_POI_TASIYICI_SASE
6
ByLayer
62
256
370
-1
90
4
70
1
10
0.32878484906124605
20
0.8854999997019768
10
0.32878484906124605
20
1.3855000002980233
10
0.3537848490612461
20
1.3855000002980233
10
0.3537848490612461
20
0.8854999997019768
0
TEXT
5
CF0A
330
CE6B
100
AcDbEntity
100
AcDbText
8
EKP_POI_TASIYICI_SASE
10
0.0874848490612461
20
1.1355
30
0
40
0.055
1
POI Rack Blok (5x POI Dolu)
50
0
7
STANDARD
72
1
11
0.0874848490612461
21
1.1355
31
0
100
AcDbText
73
2
0
LWPOLYLINE
5
CF72
330
CE6B
100
AcDbEntity
100
AcDbPolyline
8
EKP_POI_TASIYICI_SASE
6
ByLayer
62
256
370
-1
90
4
70
1
10
0.2
20
-3.5
10
0.2
20
-3.4
10
0.8
20
-3.4
10
0.8
20
-3.5
0
LWPOLYLINE
5
CF73
330
CE6B
100
AcDbEntity
100
AcDbPolyline
8
EKP_POI_TASIYICI_SASE
6
ByLayer
62
256
370
-1
90
4
70
1
10
0.2
20
-1.78
10
0.2
20
-1.72
10
0.8
20
-1.72
10
0.8
20
-1.78
0
LWPOLYLINE
5
CF74
330
CE6B
100
AcDbEntity
100
AcDbPolyline
8
EKP_POI_TASIYICI_SASE
6
ByLayer
62
256
370
-1
90
4
70
1
10
0.2
20
-3.4
10
0.2
20
-1.78
10
0.25
20
-1.78
10
0.25
20
-3.4
0
LWPOLYLINE
5
CF75
330
CE6B
100
AcDbEntity
100
AcDbPolyline
8
EKP_POI_TASIYICI_SASE
6
ByLayer
62
256
370
-1
90
4
70
1
10
0.75
20
-3.4
10
0.75
20
-1.78
10
0.8
20
-1.78
10
0.8
20
-3.4
0
LWPOLYLINE
5
CF80
330
CE6B
100
AcDbEntity
100
AcDbPolyline
8
EKP_POI_TASIYICI_SASE
6
ByLayer
62
256
370
-1
90
4
70
1
10
0.9
20
-3.5
10
0.9
20
-3.4
10
1.5
20
-3.4
10
1.5
20
-3.5
0
LWPOLYLINE
5
CF81
330
CE6B
100
AcDbEntity
100
AcDbPolyline
8
EKP_POI_TASIYICI_SASE
6
ByLayer
62
256
370
-1
90
4
70
1
10
0.9
20
-1.78
10
0.9
20
-1.72
10
1.5
20
-1.72
10
1.5
20
-1.78
0
LWPOLYLINE
5
CF82
330
CE6B
100
AcDbEntity
100
AcDbPolyline
8
EKP_POI_TASIYICI_SASE
6
ByLayer
62
256
370
-1
90
4
70
1
10
0.9
20
-3.4
10
0.9
20
-1.78
10
0.9500000000000001
20
-1.78
10
0.9500000000000001
20
-3.4
0
LWPOLYLINE
5
CF83
330
CE6B
100
AcDbEntity
100
AcDbPolyline
8
EKP_POI_TASIYICI_SASE
6
ByLayer
62
256
370
-1
90
4
70
1
10
1.45
20
-3.4
10
1.45
20
-1.78
10
1.5
20
-1.78
10
1.5
20
-3.4
0
LWPOLYLINE
5
CEEA
330
CE6B
100
AcDbEntity
100
AcDbPolyline
8
EKP_POI_MODULLERI
6
ByLayer
62
256
370
-1
90
4
70
1
10
-0.11251515112501848
20
1.495500000447035
10
-0.11251515112501848
20
1.9754999995529652
10
0.26248484608101397
20
1.9754999995529652
10
0.26248484608101397
20
1.495500000447035
0
LINE
5
CEEB
330
CE6B
100
AcDbEntity
100
AcDbLine
8
EKP_POI_MODULLERI
10
-0.05626515154411361
20
1.495500000447035
30
0
11
-0.05626515154411361
21
1.9754999995529652
31
0
0
LINE
5
CEEC
330
CE6B
100
AcDbEntity
100
AcDbLine
8
EKP_POI_MODULLERI
10
0.00748484798091191
20
1.7355
30
0
11
0.14248484697508357
21
1.7355
31
0
0
LINE
5
CEED
330
CE6B
100
AcDbEntity
100
AcDbLine
8
EKP_POI_MODULLERI
10
0.07498484747799775
20
1.6680000005029143
30
0
11
0.07498484747799775
21
1.8029999994970858
31
0
0
TEXT
5
CEEE
330
CE6B
100
AcDbEntity
100
AcDbText
8
EKP_POI_MODULLERI
10
0.07498484747799775
20
1.7625
30
0
40
0.045
1
POI Modul 1 (CB-12-POI-64F-A12)
50
0
7
STANDARD
72
1
11
0.07498484747799775
21
1.7625
31
0
100
AcDbText
73
2
0
LWPOLYLINE
5
CEEF
330
CE6B
100
AcDbEntity
100
AcDbPolyline
8
EKP_POI_MODULLERI
6
ByLayer
62
256
370
-1
90
4
70
1
10
-0.11251515112501848
20
1.495500000447035
10
-0.11251515112501848
20
1.9754999995529652
10
0.26248484608101397
20
1.9754999995529652
10
0.26248484608101397
20
1.495500000447035
0
LINE
5
CEF0
330
CE6B
100
AcDbEntity
100
AcDbLine
8
EKP_POI_MODULLERI
10
-0.05626515154411361
20
1.495500000447035
30
0
11
-0.05626515154411361
21
1.9754999995529652
31
0
0
LINE
5
CEF1
330
CE6B
100
AcDbEntity
100
AcDbLine
8
EKP_POI_MODULLERI
10
0.00748484798091191
20
1.7355
30
0
11
0.14248484697508357
21
1.7355
31
0
0
LINE
5
CEF2
330
CE6B
100
AcDbEntity
100
AcDbLine
8
EKP_POI_MODULLERI
10
0.07498484747799775
20
1.6680000005029143
30
0
11
0.07498484747799775
21
1.8029999994970858
31
0
0
TEXT
5
CEF3
330
CE6B
100
AcDbEntity
100
AcDbText
8
EKP_POI_MODULLERI
10
0.07498484747799775
20
1.7625
30
0
40
0.045
1
POI Modul 2 (CB-12-POI-64F-A12)
50
0
7
STANDARD
72
1
11
0.07498484747799775
21
1.7625
31
0
100
AcDbText
73
2
0
LWPOLYLINE
5
CEF4
330
CE6B
100
AcDbEntity
100
AcDbPolyline
8
EKP_POI_MODULLERI
6
ByLayer
62
256
370
-1
90
4
70
1
10
-0.11251515112501848
20
1.495500000447035
10
-0.11251515112501848
20
1.9754999995529652
10
0.26248484608101397
20
1.9754999995529652
10
0.26248484608101397
20
1.495500000447035
0
LINE
5
CEF5
330
CE6B
100
AcDbEntity
100
AcDbLine
8
EKP_POI_MODULLERI
10
-0.05626515154411361
20
1.495500000447035
30
0
11
-0.05626515154411361
21
1.9754999995529652
31
0
0
LINE
5
CEF6
330
CE6B
100
AcDbEntity
100
AcDbLine
8
EKP_POI_MODULLERI
10
0.00748484798091191
20
1.7355
30
0
11
0.14248484697508357
21
1.7355
31
0
0
LINE
5
CEF7
330
CE6B
100
AcDbEntity
100
AcDbLine
8
EKP_POI_MODULLERI
10
0.07498484747799775
20
1.6680000005029143
30
0
11
0.07498484747799775
21
1.8029999994970858
31
0
0
TEXT
5
CEF8
330
CE6B
100
AcDbEntity
100
AcDbText
8
EKP_POI_MODULLERI
10
0.07498484747799775
20
1.7625
30
0
40
0.045
1
POI Modul 3 (CB-12-POI-64F-A12)
50
0
7
STANDARD
72
1
11
0.07498484747799775
21
1.7625
31
0
100
AcDbText
73
2
0
LWPOLYLINE
5
CEF9
330
CE6B
100
AcDbEntity
100
AcDbPolyline
8
EKP_POI_MODULLERI
6
ByLayer
62
256
370
-1
90
4
70
1
10
-0.11251515112501848
20
1.495500000447035
10
-0.11251515112501848
20
1.9754999995529652
10
0.26248484608101397
20
1.9754999995529652
10
0.26248484608101397
20
1.495500000447035
0
LINE
5
CEFA
330
CE6B
100
AcDbEntity
100
AcDbLine
8
EKP_POI_MODULLERI
10
-0.05626515154411361
20
1.495500000447035
30
0
11
-0.05626515154411361
21
1.9754999995529652
31
0
0
LINE
5
CEFB
330
CE6B
100
AcDbEntity
100
AcDbLine
8
EKP_POI_MODULLERI
10
0.00748484798091191
20
1.7355
30
0
11
0.14248484697508357
21
1.7355
31
0
0
LINE
5
CEFC
330
CE6B
100
AcDbEntity
100
AcDbLine
8
EKP_POI_MODULLERI
10
0.07498484747799775
20
1.6680000005029143
30
0
11
0.07498484747799775
21
1.8029999994970858
31
0
0
TEXT
5
CEFD
330
CE6B
100
AcDbEntity
100
AcDbText
8
EKP_POI_MODULLERI
10
0.07498484747799775
20
1.7625
30
0
40
0.045
1
POI Modul 4 (CB-12-POI-64F-A12)
50
0
7
STANDARD
72
1
11
0.07498484747799775
21
1.7625
31
0
100
AcDbText
73
2
0
LWPOLYLINE
5
CEFE
330
CE6B
100
AcDbEntity
100
AcDbPolyline
8
EKP_POI_MODULLERI
6
ByLayer
62
256
370
-1
90
4
70
1
10
-0.11251515112501848
20
1.495500000447035
10
-0.11251515112501848
20
1.9754999995529652
10
0.26248484608101397
20
1.9754999995529652
10
0.26248484608101397
20
1.495500000447035
0
LINE
5
CEFF
330
CE6B
100
AcDbEntity
100
AcDbLine
8
EKP_POI_MODULLERI
10
-0.05626515154411361
20
1.495500000447035
30
0
11
-0.05626515154411361
21
1.9754999995529652
31
0
0
LINE
5
CF00
330
CE6B
100
AcDbEntity
100
AcDbLine
8
EKP_POI_MODULLERI
10
0.00748484798091191
20
1.7355
30
0
11
0.14248484697508357
21
1.7355
31
0
0
LINE
5
CF01
330
CE6B
100
AcDbEntity
100
AcDbLine
8
EKP_POI_MODULLERI
10
0.07498484747799775
20
1.6680000005029143
30
0
11
0.07498484747799775
21
1.8029999994970858
31
0
0
TEXT
5
CF02
330
CE6B
100
AcDbEntity
100
AcDbText
8
EKP_POI_MODULLERI
10
0.07498484747799775
20
1.7625
30
0
40
0.045
1
POI Modul 5 (CB-12-POI-64F-A12)
50
0
7
STANDARD
72
1
11
0.07498484747799775
21
1.7625
31
0
100
AcDbText
73
2
0
LWPOLYLINE
5
CF0B
330
CE6B
100
AcDbEntity
100
AcDbPolyline
8
EKP_POI_MODULLERI
6
ByLayer
62
256
370
-1
90
4
70
1
10
-0.11251515112501848
20
0.8955000004470348
10
-0.11251515112501848
20
1.375499999552965
10
0.26248484608101397
20
1.375499999552965
10
0.26248484608101397
20
0.8955000004470348
0
LINE
5
CF0C
330
CE6B
100
AcDbEntity
100
AcDbLine
8
EKP_POI_MODULLERI
10
-0.05626515154411361
20
0.8955000004470348
30
0
11
-0.05626515154411361
21
1.375499999552965
31
0
0
LINE
5
CF0D
330
CE6B
100
AcDbEntity
100
AcDbLine
8
EKP_POI_MODULLERI
10
0.00748484798091191
20
1.1355
30
0
11
0.14248484697508357
21
1.1355
31
0
0
LINE
5
CF0E
330
CE6B
100
AcDbEntity
100
AcDbLine
8
EKP_POI_MODULLERI
10
0.07498484747799775
20
1.0680000005029142
30
0
11
0.07498484747799775
21
1.2029999994970857
31
0
0
TEXT
5
CF0F
330
CE6B
100
AcDbEntity
100
AcDbText
8
EKP_POI_MODULLERI
10
0.07498484747799775
20
1.1624999999999999
30
0
40
0.045
1
POI Modul 1 (CB-12-POI-64F-A12)
50
0
7
STANDARD
72
1
11
0.07498484747799775
21
1.1624999999999999
31
0
100
AcDbText
73
2
0
LWPOLYLINE
5
CF10
330
CE6B
100
AcDbEntity
100
AcDbPolyline
8
EKP_POI_MODULLERI
6
ByLayer
62
256
370
-1
90
4
70
1
10
-0.11251515112501848
20
0.8955000004470348
10
-0.11251515112501848
20
1.375499999552965
10
0.26248484608101397
20
1.375499999552965
10
0.26248484608101397
20
0.8955000004470348
0
LINE
5
CF11
330
CE6B
100
AcDbEntity
100
AcDbLine
8
EKP_POI_MODULLERI
10
-0.05626515154411361
20
0.8955000004470348
30
0
11
-0.05626515154411361
21
1.375499999552965
31
0
0
LINE
5
CF12
330
CE6B
100
AcDbEntity
100
AcDbLine
8
EKP_POI_MODULLERI
10
0.00748484798091191
20
1.1355
30
0
11
0.14248484697508357
21
1.1355
31
0
0
LINE
5
CF13
330
CE6B
100
AcDbEntity
100
AcDbLine
8
EKP_POI_MODULLERI
10
0.07498484747799775
20
1.0680000005029142
30
0
11
0.07498484747799775
21
1.2029999994970857
31
0
0
TEXT
5
CF14
330
CE6B
100
AcDbEntity
100
AcDbText
8
EKP_POI_MODULLERI
10
0.07498484747799775
20
1.1624999999999999
30
0
40
0.045
1
POI Modul 2 (CB-12-POI-64F-A12)
50
0
7
STANDARD
72
1
11
0.07498484747799775
21
1.1624999999999999
31
0
100
AcDbText
73
2
0
LWPOLYLINE
5
CF15
330
CE6B
100
AcDbEntity
100
AcDbPolyline
8
EKP_POI_MODULLERI
6
ByLayer
62
256
370
-1
90
4
70
1
10
-0.11251515112501848
20
0.8955000004470348
10
-0.11251515112501848
20
1.375499999552965
10
0.26248484608101397
20
1.375499999552965
10
0.26248484608101397
20
0.8955000004470348
0
LINE
5
CF16
330
CE6B
100
AcDbEntity
100
AcDbLine
8
EKP_POI_MODULLERI
10
-0.05626515154411361
20
0.8955000004470348
30
0
11
-0.05626515154411361
21
1.375499999552965
31
0
0
LINE
5
CF17
330
CE6B
100
AcDbEntity
100
AcDbLine
8
EKP_POI_MODULLERI
10
0.00748484798091191
20
1.1355
30
0
11
0.14248484697508357
21
1.1355
31
0
0
LINE
5
CF18
330
CE6B
100
AcDbEntity
100
AcDbLine
8
EKP_POI_MODULLERI
10
0.07498484747799775
20
1.0680000005029142
30
0
11
0.07498484747799775
21
1.2029999994970857
31
0
0
TEXT
5
CF19
330
CE6B
100
AcDbEntity
100
AcDbText
8
EKP_POI_MODULLERI
10
0.07498484747799775
20
1.1624999999999999
30
0
40
0.045
1
POI Modul 3 (CB-12-POI-64F-A12)
50
0
7
STANDARD
72
1
11
0.07498484747799775
21
1.1624999999999999
31
0
100
AcDbText
73
2
0
LWPOLYLINE
5
CF1A
330
CE6B
100
AcDbEntity
100
AcDbPolyline
8
EKP_POI_MODULLERI
6
ByLayer
62
256
370
-1
90
4
70
1
10
-0.11251515112501848
20
0.8955000004470348
10
-0.11251515112501848
20
1.375499999552965
10
0.26248484608101397
20
1.375499999552965
10
0.26248484608101397
20
0.8955000004470348
0
LINE
5
CF1B
330
CE6B
100
AcDbEntity
100
AcDbLine
8
EKP_POI_MODULLERI
10
-0.05626515154411361
20
0.8955000004470348
30
0
11
-0.05626515154411361
21
1.375499999552965
31
0
0
LINE
5
CF1C
330
CE6B
100
AcDbEntity
100
AcDbLine
8
EKP_POI_MODULLERI
10
0.00748484798091191
20
1.1355
30
0
11
0.14248484697508357
21
1.1355
31
0
0
LINE
5
CF1D
330
CE6B
100
AcDbEntity
100
AcDbLine
8
EKP_POI_MODULLERI
10
0.07498484747799775
20
1.0680000005029142
30
0
11
0.07498484747799775
21
1.2029999994970857
31
0
0
TEXT
5
CF1E
330
CE6B
100
AcDbEntity
100
AcDbText
8
EKP_POI_MODULLERI
10
0.07498484747799775
20
1.1624999999999999
30
0
40
0.045
1
POI Modul 4 (CB-12-POI-64F-A12)
50
0
7
STANDARD
72
1
11
0.07498484747799775
21
1.1624999999999999
31
0
100
AcDbText
73
2
0
LWPOLYLINE
5
CF1F
330
CE6B
100
AcDbEntity
100
AcDbPolyline
8
EKP_POI_MODULLERI
6
ByLayer
62
256
370
-1
90
4
70
1
10
-0.11251515112501848
20
0.8955000004470348
10
-0.11251515112501848
20
1.375499999552965
10
0.26248484608101397
20
1.375499999552965
10
0.26248484608101397
20
0.8955000004470348
0
LINE
5
CF20
330
CE6B
100
AcDbEntity
100
AcDbLine
8
EKP_POI_MODULLERI
10
-0.05626515154411361
20
0.8955000004470348
30
0
11
-0.05626515154411361
21
1.375499999552965
31
0
0
LINE
5
CF21
330
CE6B
100
AcDbEntity
100
AcDbLine
8
EKP_POI_MODULLERI
10
0.00748484798091191
20
1.1355
30
0
11
0.14248484697508357
21
1.1355
31
0
0
LINE
5
CF22
330
CE6B
100
AcDbEntity
100
AcDbLine
8
EKP_POI_MODULLERI
10
0.07498484747799775
20
1.0680000005029142
30
0
11
0.07498484747799775
21
1.2029999994970857
31
0
0
TEXT
5
CF23
330
CE6B
100
AcDbEntity
100
AcDbText
8
EKP_POI_MODULLERI
10
0.07498484747799775
20
1.1624999999999999
30
0
40
0.045
1
POI Modul 5 (CB-12-POI-64F-A12)
50
0
7
STANDARD
72
1
11
0.07498484747799775
21
1.1624999999999999
31
0
100
AcDbText
73
2
0
LWPOLYLINE
5
CF76
330
CE6B
100
AcDbEntity
100
AcDbPolyline
8
EKP_POI_MODULLERI
6
ByLayer
62
256
370
-1
90
4
70
1
10
0.26
20
-3.385
10
0.26
20
-3.125
10
0.74
20
-3.125
10
0.74
20
-3.385
0
TEXT
5
CF77
330
CE6B
100
AcDbEntity
100
AcDbText
8
EKP_POI_MODULLERI
10
0.5
20
-3.255
30
0
40
0.04
1
POI-1
50
0
7
STANDARD
72
1
11
0.5
21
-3.255
31
0
100
AcDbText
73
2
0
LWPOLYLINE
5
CF78
330
CE6B
100
AcDbEntity
100
AcDbPolyline
8
EKP_POI_MODULLERI
6
ByLayer
62
256
370
-1
90
4
70
1
10
0.26
20
-3.07
10
0.26
20
-2.8099999999999996
10
0.74
20
-2.8099999999999996
10
0.74
20
-3.07
0
TEXT
5
CF79
330
CE6B
100
AcDbEntity
100
AcDbText
8
EKP_POI_MODULLERI
10
0.5
20
-2.94
30
0
40
0.04
1
POI-2
50
0
7
STANDARD
72
1
11
0.5
21
-2.94
31
0
100
AcDbText
73
2
0
LWPOLYLINE
5
CF7A
330
CE6B
100
AcDbEntity
100
AcDbPolyline
8
EKP_POI_MODULLERI
6
ByLayer
62
256
370
-1
90
4
70
1
10
0.26
20
-2.755
10
0.26
20
-2.495
10
0.74
20
-2.495
10
0.74
20
-2.755
0
TEXT
5
CF7B
330
CE6B
100
AcDbEntity
100
AcDbText
8
EKP_POI_MODULLERI
10
0.5
20
-2.625
30
0
40
0.04
1
POI-3
50
0
7
STANDARD
72
1
11
0.5
21
-2.625
31
0
100
AcDbText
73
2
0
LWPOLYLINE
5
CF7C
330
CE6B
100
AcDbEntity
100
AcDbPolyline
8
EKP_POI_MODULLERI
6
ByLayer
62
256
370
-1
90
4
70
1
10
0.26
20
-2.4399999999999995
10
0.26
20
-2.1799999999999997
10
0.74
20
-2.1799999999999997
10
0.74
20
-2.4399999999999995
0
TEXT
5
CF7D
330
CE6B
100
AcDbEntity
100
AcDbText
8
EKP_POI_MODULLERI
10
0.5
20
-2.3099999999999996
30
0
40
0.04
1
POI-4
50
0
7
STANDARD
72
1
11
0.5
21
-2.3099999999999996
31
0
100
AcDbText
73
2
0
LWPOLYLINE
5
CF7E
330
CE6B
100
AcDbEntity
100
AcDbPolyline
8
EKP_POI_MODULLERI
6
ByLayer
62
256
370
-1
90
4
70
1
10
0.26
20
-2.125
10
0.26
20
-1.865
10
0.74
20
-1.865
10
0.74
20
-2.125
0
TEXT
5
CF7F
330
CE6B
100
AcDbEntity
100
AcDbText
8
EKP_POI_MODULLERI
10
0.5
20
-1.995
30
0
40
0.04
1
POI-5
50
0
7
STANDARD
72
1
11
0.5
21
-1.995
31
0
100
AcDbText
73
2
0
LWPOLYLINE
5
CF84
330
CE6B
100
AcDbEntity
100
AcDbPolyline
8
EKP_POI_MODULLERI
6
ByLayer
62
256
370
-1
90
4
70
1
10
0.9600000000000001
20
-3.385
10
0.9600000000000001
20
-3.125
10
1.44
20
-3.125
10
1.44
20
-3.385
0
TEXT
5
CF85
330
CE6B
100
AcDbEntity
100
AcDbText
8
EKP_POI_MODULLERI
10
1.2
20
-3.255
30
0
40
0.04
1
POI-1
50
0
7
STANDARD
72
1
11
1.2
21
-3.255
31
0
100
AcDbText
73
2
0
LWPOLYLINE
5
CF86
330
CE6B
100
AcDbEntity
100
AcDbPolyline
8
EKP_POI_MODULLERI
6
ByLayer
62
256
370
-1
90
4
70
1
10
0.9600000000000001
20
-3.07
10
0.9600000000000001
20
-2.8099999999999996
10
1.44
20
-2.8099999999999996
10
1.44
20
-3.07
0
TEXT
5
CF87
330
CE6B
100
AcDbEntity
100
AcDbText
8
EKP_POI_MODULLERI
10
1.2
20
-2.94
30
0
40
0.04
1
POI-2
50
0
7
STANDARD
72
1
11
1.2
21
-2.94
31
0
100
AcDbText
73
2
0
LWPOLYLINE
5
CF88
330
CE6B
100
AcDbEntity
100
AcDbPolyline
8
EKP_POI_MODULLERI
6
ByLayer
62
256
370
-1
90
4
70
1
10
0.9600000000000001
20
-2.755
10
0.9600000000000001
20
-2.495
10
1.44
20
-2.495
10
1.44
20
-2.755
0
TEXT
5
CF89
330
CE6B
100
AcDbEntity
100
AcDbText
8
EKP_POI_MODULLERI
10
1.2
20
-2.625
30
0
40
0.04
1
POI-3
50
0
7
STANDARD
72
1
11
1.2
21
-2.625
31
0
100
AcDbText
73
2
0
LWPOLYLINE
5
CF8A
330
CE6B
100
AcDbEntity
100
AcDbPolyline
8
EKP_POI_MODULLERI
6
ByLayer
62
256
370
-1
90
4
70
1
10
0.9600000000000001
20
-2.4399999999999995
10
0.9600000000000001
20
-2.1799999999999997
10
1.44
20
-2.1799999999999997
10
1.44
20
-2.4399999999999995
0
TEXT
5
CF8B
330
CE6B
100
AcDbEntity
100
AcDbText
8
EKP_POI_MODULLERI
10
1.2
20
-2.3099999999999996
30
0
40
0.04
1
POI-4
50
0
7
STANDARD
72
1
11
1.2
21
-2.3099999999999996
31
0
100
AcDbText
73
2
0
LWPOLYLINE
5
CF8C
330
CE6B
100
AcDbEntity
100
AcDbPolyline
8
EKP_POI_MODULLERI
6
ByLayer
62
256
370
-1
90
4
70
1
10
0.9600000000000001
20
-2.125
10
0.9600000000000001
20
-1.865
10
1.44
20
-1.865
10
1.44
20
-2.125
0
TEXT
5
CF8D
330
CE6B
100
AcDbEntity
100
AcDbText
8
EKP_POI_MODULLERI
10
1.2
20
-1.995
30
0
40
0.04
1
POI-5
50
0
7
STANDARD
72
1
11
1.2
21
-1.995
31
0
100
AcDbText
73
2
0
LWPOLYLINE
5
CE85
330
CE6B
100
AcDbEntity
100
AcDbPolyline
8
BLOK_OZEL_PLATFORM
6
ByLayer
62
256
370
-1
90
4
70
1
10
-1.3
20
-0.7000000000000001
10
-1.3
20
0.7000000000000001
10
1.3
20
0.7000000000000001
10
1.3
20
-0.7000000000000001
0
LINE
5
CE86
330
CE6B
100
AcDbEntity
100
AcDbLine
8
BLOK_OZEL_PLATFORM
10
-0.65
20
-0.7000000000000001
30
0
11
-0.65
21
0.7000000000000001
31
0
0
LINE
5
CE87
330
CE6B
100
AcDbEntity
100
AcDbLine
8
BLOK_OZEL_PLATFORM
10
0
20
-0.7000000000000001
30
0
11
0
21
0.7000000000000001
31
0
0
LINE
5
CE88
330
CE6B
100
AcDbEntity
100
AcDbLine
8
BLOK_OZEL_PLATFORM
10
0.6500000000000001
20
-0.7000000000000001
30
0
11
0.6500000000000001
21
0.7000000000000001
31
0
0
LINE
5
CE89
330
CE6B
100
AcDbEntity
100
AcDbLine
8
BLOK_OZEL_PLATFORM
10
-1.3
20
-0.23333333333333334
30
0
11
1.3
21
-0.23333333333333334
31
0
0
LINE
5
CE8A
330
CE6B
100
AcDbEntity
100
AcDbLine
8
BLOK_OZEL_PLATFORM
10
-1.3
20
0.2333333333333334
30
0
11
1.3
21
0.2333333333333334
31
0
0
TEXT
5
CE8B
330
CE6B
100
AcDbEntity
100
AcDbText
8
BLOK_OZEL_PLATFORM
10
0
20
0
30
0
40
0.075
1
140cm KEDI YOLU TABLASI
50
0
7
STANDARD
72
1
11
0
21
0
31
0
100
AcDbText
73
2
0
LWPOLYLINE
5
CF24
330
CE6B
100
AcDbEntity
100
AcDbPolyline
8
BLOK_OZEL_PLATFORM
6
ByLayer
62
256
370
-1
90
4
70
1
10
-2.01251515242887
20
0.6
10
-2.01251515242887
20
2.1
10
0.5874848505513621
20
2.1
10
0.5874848505513621
20
0.6
0
LINE
5
CF25
330
CE6B
100
AcDbEntity
100
AcDbLine
8
BLOK_OZEL_PLATFORM
10
-1.3625151516838119
20
0.6
30
0
11
-1.3625151516838119
21
2.1
31
0
0
LINE
5
CF26
330
CE6B
100
AcDbEntity
100
AcDbLine
8
BLOK_OZEL_PLATFORM
10
-0.712515150938754
20
0.6
30
0
11
-0.712515150938754
21
2.1
31
0
0
LINE
5
CF27
330
CE6B
100
AcDbEntity
100
AcDbLine
8
BLOK_OZEL_PLATFORM
10
-0.06251515019369602
20
0.6
30
0
11
-0.06251515019369602
21
2.1
31
0
0
LINE
5
CF28
330
CE6B
100
AcDbEntity
100
AcDbLine
8
BLOK_OZEL_PLATFORM
10
-2.01251515242887
20
1.1
30
0
11
0.5874848505513621
21
1.1
31
0
0
LINE
5
CF29
330
CE6B
100
AcDbEntity
100
AcDbLine
8
BLOK_OZEL_PLATFORM
10
-2.01251515242887
20
1.6
30
0
11
0.5874848505513621
21
1.6
31
0
0
TEXT
5
CF2A
330
CE6B
100
AcDbEntity
100
AcDbText
8
BLOK_OZEL_PLATFORM
10
-0.712515150938754
20
1.35
30
0
40
0.075
1
RRU Saha Blok 140cm (Alan 1)
50
0
7
STANDARD
72
1
11
-0.712515150938754
21
1.35
31
0
100
AcDbText
73
2
0
LWPOLYLINE
5
CF2B
330
CE6B
100
AcDbEntity
100
AcDbPolyline
8
BLOK_OZEL_PLATFORM
6
ByLayer
62
256
370
-1
90
4
70
1
10
-1.3
20
-3.6
10
-1.3
20
-3.5
10
1.3
20
-3.5
10
1.3
20
-3.6
0
ENDSEC
0
SECTION
2
OBJECTS
0
DICTIONARY
5
CE59
330
0
100
AcDbDictionary
281
1
3
ACAD_GROUP
350
CE6F
0
DICTIONARY
5
CE6F
330
CE59
100
AcDbDictionary
281
1
0
ENDSEC
0
EOF