0
SECTION
2
HEADER
9
$HANDSEED
5
E1B7
9
$INSUNITS
70
6
9
$ACADVER
1
AC1021
9
$DWGCODEPAGE
3
UTF-8
0
ENDSEC
0
SECTION
2
CLASSES
0
ENDSEC
0
SECTION
2
TABLES
0
TABLE
2
LTYPE
5
E1B5
330
0
100
AcDbSymbolTable
70
5
0
LTYPE
5
E0F2
330
E1B5
100
AcDbSymbolTableRecord
100
AcDbLinetypeTableRecord
2
CONTINUOUS
3
______
70
0
72
65
73
0
40
0
0
LTYPE
5
E0F3
330
E1B5
100
AcDbSymbolTableRecord
100
AcDbLinetypeTableRecord
2
DASHED
3
_ _ _ 
70
0
72
65
73
2
40
10
49
5
74
0
49
-5
74
0
0
LTYPE
5
E0F4
330
E1B5
100
AcDbSymbolTableRecord
100
AcDbLinetypeTableRecord
2
DOTTED
3
. . . 
70
0
72
65
73
2
40
5
49
0
74
0
49
-5
74
0
0
LTYPE
5
E0F6
330
E1B5
100
AcDbSymbolTableRecord
100
AcDbLinetypeTableRecord
2
ByBlock
3

70
0
72
65
73
0
40
0
0
LTYPE
5
E0F7
330
E1B5
100
AcDbSymbolTableRecord
100
AcDbLinetypeTableRecord
2
ByLayer
3

70
0
72
65
73
0
40
0
0
ENDTAB
0
TABLE
2
LAYER
5
E1B6
330
0
100
AcDbSymbolTable
70
21
0
LAYER
5
E0F5
330
E1B6
100
AcDbSymbolTableRecord
100
AcDbLayerTableRecord
2
0
62
7
70
0
6
CONTINUOUS
390
1
0
LAYER
5
E108
330
E1B6
100
AcDbSymbolTableRecord
100
AcDbLayerTableRecord
2
ZEMIN_PLATFORM
62
8
70
0
6
CONTINUOUS
390
1
0
LAYER
5
E109
330
E1B6
100
AcDbSymbolTableRecord
100
AcDbLayerTableRecord
2
KORKULUK_KAPI
62
4
70
0
6
CONTINUOUS
390
1
0
LAYER
5
E10A
330
E1B6
100
AcDbSymbolTableRecord
100
AcDbLayerTableRecord
2
CELIK_KIRIS_KOLON
62
9
70
0
6
CONTINUOUS
390
1
0
LAYER
5
E10B
330
E1B6
100
AcDbSymbolTableRecord
100
AcDbLayerTableRecord
2
MONTAJ_BORULARI
62
2
70
0
6
CONTINUOUS
390
1
0
LAYER
5
E10C
330
E1B6
100
AcDbSymbolTableRecord
100
AcDbLayerTableRecord
2
KABLO_TAVALARI
62
6
70
0
6
CONTINUOUS
390
1
0
LAYER
5
E10D
330
E1B6
100
AcDbSymbolTableRecord
100
AcDbLayerTableRecord
2
YURUYUS_KORIDORU
62
3
70
0
6
DASHED
390
1
0
LAYER
5
E10E
330
E1B6
100
AcDbSymbolTableRecord
100
AcDbLayerTableRecord
2
OLCULER
62
1
70
0
6
CONTINUOUS
390
1
0
LAYER
5
E10F
330
E1B6
100
AcDbSymbolTableRecord
100
AcDbLayerTableRecord
2
METIN_BILGI
62
7
70
0
6
CONTINUOUS
390
1
0
LAYER
5
E110
330
E1B6
100
AcDbSymbolTableRecord
100
AcDbLayerTableRecord
2
EKP_TURKCELL_RRU
62
5
70
0
6
CONTINUOUS
390
1
0
LAYER
5
E111
330
E1B6
100
AcDbSymbolTableRecord
100
AcDbLayerTableRecord
2
EKP_VODAFONE_RRU
62
1
70
0
6
CONTINUOUS
390
1
0
LAYER
5
E112
330
E1B6
100
AcDbSymbolTableRecord
100
AcDbLayerTableRecord
2
EKP_TURK_TELEKOM_RRU
62
4
70
0
6
CONTINUOUS
390
1
0
LAYER
5
E113
330
E1B6
100
AcDbSymbolTableRecord
100
AcDbLayerTableRecord
2
EKP_POI_TASIYICI_SASE
62
30
70
0
6
CONTINUOUS
390
1
0
LAYER
5
E114
330
E1B6
100
AcDbSymbolTableRecord
100
AcDbLayerTableRecord
2
EKP_POI_MODULLERI
62
40
70
0
6
CONTINUOUS
390
1
0
LAYER
5
E115
330
E1B6
100
AcDbSymbolTableRecord
100
AcDbLayerTableRecord
2
EKP_RECTIFIER_ELTEK_20U
62
3
70
0
6
CONTINUOUS
390
1
0
LAYER
5
E116
330
E1B6
100
AcDbSymbolTableRecord
100
AcDbLayerTableRecord
2
EKP_RECTIFIER_MTS9304A
62
94
70
0
6
CONTINUOUS
390
1
0
LAYER
5
E117
330
E1B6
100
AcDbSymbolTableRecord
100
AcDbLayerTableRecord
2
BLOK_OZEL_PLATFORM
62
140
70
0
6
CONTINUOUS
390
1
0
LAYER
5
E118
330
E1B6
100
AcDbSymbolTableRecord
100
AcDbLayerTableRecord
2
EKP_MATSING_ANTEN
62
2
70
0
6
CONTINUOUS
390
1
0
LAYER
5
E119
330
E1B6
100
AcDbSymbolTableRecord
100
AcDbLayerTableRecord
2
EKP_PANEL_ANTEN
62
6
70
0
6
CONTINUOUS
390
1
0
LAYER
5
E11A
330
E1B6
100
AcDbSymbolTableRecord
100
AcDbLayerTableRecord
2
EKP_ANTEN_TASIYICI_KOL
62
141
70
0
6
CONTINUOUS
390
1
0
LAYER
5
E11B
330
E1B6
100
AcDbSymbolTableRecord
100
AcDbLayerTableRecord
2
EKP_DIGER_EKIPMANLAR
62
7
70
0
6
CONTINUOUS
390
1
0
ENDTAB
0
TABLE
2
VPORT
5
E0F8
330
0
100
AcDbSymbolTable
70
1
0
VPORT
5
E0FE
330
E0F8
100
AcDbSymbolTableRecord
100
AcDbViewportTableRecord
2
*ACTIVE
40
1000
70
0
0
ENDTAB
0
TABLE
2
STYLE
5
E0F9
330
0
100
AcDbSymbolTable
70
3
0
STYLE
5
E0FF
330
E0F9
100
AcDbSymbolTableRecord
100
AcDbTextStyleTableRecord
2
standard
70
0
40
0
41
1
50
0
71
0
42
1
3
calibrib.ttf
4

1001
ACAD
1000
Calibri
1071
33554466
0
STYLE
5
E100
330
E0F9
100
AcDbSymbolTableRecord
100
AcDbTextStyleTableRecord
2
STANDARD
70
0
40
0
41
1
50
0
71
0
42
1
3
calibrib.ttf
4

1001
ACAD
1000
Calibri
1071
33554466
0
STYLE
5
E101
330
E0F9
100
AcDbSymbolTableRecord
100
AcDbTextStyleTableRecord
2
CALIBRI_BOLD
70
0
40
0
41
1
50
0
71
0
42
1
3
calibrib.ttf
4

1001
ACAD
1000
Calibri
1071
33554466
0
ENDTAB
0
TABLE
2
VIEW
5
E0FA
330
0
100
AcDbSymbolTable
70
0
0
ENDTAB
0
TABLE
2
UCS
5
E0FB
330
0
100
AcDbSymbolTable
70
0
0
ENDTAB
0
TABLE
2
APPID
5
E0FC
330
0
100
AcDbSymbolTable
70
1
0
APPID
5
E102
330
E0FC
100
AcDbSymbolTableRecord
100
AcDbRegAppTableRecord
2
ACAD
70
0
0
ENDTAB
0
TABLE
2
DIMSTYLE
5
E0FD
330
0
100
AcDbSymbolTable
100
AcDbDimStyleTable
70
0
71
1
0
ENDTAB
0
TABLE
2
BLOCK_RECORD
5
E1B2
330
0
100
AcDbSymbolTable
70
2
0
BLOCK_RECORD
5
E1B3
330
E1B2
100
AcDbSymbolTableRecord
100
AcDbBlockTableRecord
2
*Model_Space
70
0
280
0
281
1
0
BLOCK_RECORD
5
E1B4
330
E1B2
100
AcDbSymbolTableRecord
100
AcDbBlockTableRecord
2
*Paper_Space
70
0
280
0
281
1
0
ENDTAB
0
ENDSEC
0
SECTION
2
BLOCKS
0
BLOCK
5
E103
330
0
100
AcDbEntity
100
AcDbBlockBegin
2
*Model_Space
70
0
10
0
20
0
30
0
3
*Model_Space
1

0
ENDBLK
5
E104
330
0
100
AcDbEntity
100
AcDbBlockEnd
0
BLOCK
5
E105
330
0
100
AcDbEntity
100
AcDbBlockBegin
2
*Paper_Space
70
0
10
0
20
0
30
0
3
*Paper_Space
1

0
ENDBLK
5
E106
330
0
100
AcDbEntity
100
AcDbBlockEnd
0
ENDSEC
0
SECTION
2
ENTITIES
0
LINE
5
E11C
330
E103
100
AcDbEntity
100
AcDbLine
8
ZEMIN_PLATFORM
10
-44.9
20
29.650855969088262
30
0
11
-38.98041215766273
21
29.648484522183466
31
0
0
LINE
5
E11D
330
E103
100
AcDbEntity
100
AcDbLine
8
ZEMIN_PLATFORM
10
-38.98041215766273
20
29.648484522183466
30
0
11
-38.41033076972107
21
29.44237184404058
31
0
0
LINE
5
E11E
330
E103
100
AcDbEntity
100
AcDbLine
8
ZEMIN_PLATFORM
10
-38.41033076972107
20
29.44237184404058
30
0
11
-38.12214439811348
21
29.44237184404058
31
0
0
LINE
5
E11F
330
E103
100
AcDbEntity
100
AcDbLine
8
ZEMIN_PLATFORM
10
-38.12214439811348
20
29.44237184404058
30
0
11
-38.12214390400061
21
29.751191513581627
31
0
0
LINE
5
E120
330
E103
100
AcDbEntity
100
AcDbLine
8
ZEMIN_PLATFORM
10
-38.12214390400061
20
29.751191513581627
30
0
11
-38.12214199568362
21
33.7683568153948
31
0
0
LINE
5
E121
330
E103
100
AcDbEntity
100
AcDbLine
8
ZEMIN_PLATFORM
10
-38.12214199568362
20
33.7683568153948
30
0
11
-38.80480028965371
21
33.768358794261744
31
0
0
LINE
5
E122
330
E103
100
AcDbEntity
100
AcDbLine
8
ZEMIN_PLATFORM
10
-38.80480028965371
20
33.768358794261744
30
0
11
-38.7897763674453
21
34.89831697047488
31
0
0
LINE
5
E123
330
E103
100
AcDbEntity
100
AcDbLine
8
ZEMIN_PLATFORM
10
-38.7897763674453
20
34.89831697047488
30
0
11
-38.50413957505826
21
34.9
31
0
0
LINE
5
E124
330
E103
100
AcDbEntity
100
AcDbLine
8
ZEMIN_PLATFORM
10
-38.50413957505826
20
34.9
30
0
11
-38.52722365982439
21
34.04461940479638
31
0
0
LINE
5
E125
330
E103
100
AcDbEntity
100
AcDbLine
8
ZEMIN_PLATFORM
10
-38.52722365982439
20
34.04461940479638
30
0
11
-37.813856943083024
21
34.045340626192576
31
0
0
LINE
5
E126
330
E103
100
AcDbEntity
100
AcDbLine
8
ZEMIN_PLATFORM
10
-37.813856943083024
20
34.045340626192576
30
0
11
-37.81696011849262
21
29.439270581498025
31
0
0
LINE
5
E127
330
E103
100
AcDbEntity
100
AcDbLine
8
ZEMIN_PLATFORM
10
-37.81696011849262
20
29.439270581498025
30
0
11
-37.166185093703106
21
29.43899197913887
31
0
0
LINE
5
E128
330
E103
100
AcDbEntity
100
AcDbLine
8
ZEMIN_PLATFORM
10
-37.166185093703106
20
29.43899197913887
30
0
11
-37.166185079682194
21
29.579196020928393
31
0
0
LINE
5
E129
330
E103
100
AcDbEntity
100
AcDbLine
8
ZEMIN_PLATFORM
10
-37.166185079682194
20
29.579196020928393
30
0
11
-35.06246966516282
21
29.582624304424137
31
0
0
LINE
5
E12A
330
E103
100
AcDbEntity
100
AcDbLine
8
ZEMIN_PLATFORM
10
-35.06246966516282
20
29.582624304424137
30
0
11
-35.06281071993348
21
29.44238182338951
31
0
0
LINE
5
E12B
330
E103
100
AcDbEntity
100
AcDbLine
8
ZEMIN_PLATFORM
10
-35.06281071993348
20
29.44238182338951
30
0
11
-16.052224608385878
21
29.440488578472632
31
0
0
LINE
5
E12C
330
E103
100
AcDbEntity
100
AcDbLine
8
ZEMIN_PLATFORM
10
-16.052224608385878
20
29.440488578472632
30
0
11
-16.054473092641643
21
29.582624304424137
31
0
0
LINE
5
E12D
330
E103
100
AcDbEntity
100
AcDbLine
8
ZEMIN_PLATFORM
10
-16.054473092641643
20
29.582624304424137
30
0
11
-13.947315070661368
21
29.582624304424137
31
0
0
LINE
5
E12E
330
E103
100
AcDbEntity
100
AcDbLine
8
ZEMIN_PLATFORM
10
-13.947315070661368
20
29.582624304424137
30
0
11
-13.947312341875659
21
29.44237184404058
31
0
0
LINE
5
E12F
330
E103
100
AcDbEntity
100
AcDbLine
8
ZEMIN_PLATFORM
10
-13.947312341875659
20
29.44237184404058
30
0
11
-13.286276030889418
21
29.44237204811165
31
0
0
LINE
5
E130
330
E103
100
AcDbEntity
100
AcDbLine
8
ZEMIN_PLATFORM
10
-13.286276030889418
20
29.44237204811165
30
0
11
-13.286276030889418
21
34.74673844067327
31
0
0
LINE
5
E131
330
E103
100
AcDbEntity
100
AcDbLine
8
ZEMIN_PLATFORM
10
-13.286276030889418
20
34.74673844067327
30
0
11
-13.011604801676462
21
34.74673844067327
31
0
0
LINE
5
E132
330
E103
100
AcDbEntity
100
AcDbLine
8
ZEMIN_PLATFORM
10
-13.011604801676462
20
34.74673844067327
30
0
11
-13.011604801676462
21
29.4392410364388
31
0
0
LINE
5
E133
330
E103
100
AcDbEntity
100
AcDbLine
8
ZEMIN_PLATFORM
10
-13.011604801676462
20
29.4392410364388
30
0
11
-12.706294782564747
21
29.44038098931462
31
0
0
LINE
5
E134
330
E103
100
AcDbEntity
100
AcDbLine
8
ZEMIN_PLATFORM
10
-12.706294782564747
20
29.44038098931462
30
0
11
-12.136961169435295
21
29.650855979190844
31
0
0
LINE
5
E135
330
E103
100
AcDbEntity
100
AcDbLine
8
ZEMIN_PLATFORM
10
-12.136961169435295
20
29.650855979190844
30
0
11
-6.2188502047305505
21
29.648948522431958
31
0
0
LINE
5
E136
330
E103
100
AcDbEntity
100
AcDbLine
8
ZEMIN_PLATFORM
10
-6.2188502047305505
20
29.648948522431958
30
0
11
-6.216942758189617
21
-0.6508561731592977
31
0
0
LINE
5
E137
330
E103
100
AcDbEntity
100
AcDbLine
8
ZEMIN_PLATFORM
10
-6.216942758189617
20
-0.6508561731592977
30
0
11
-12.135498442928963
21
-0.6508561832619151
31
0
0
LINE
5
E138
330
E103
100
AcDbEntity
100
AcDbLine
8
ZEMIN_PLATFORM
10
-12.135498442928963
20
-0.6508561832619151
30
0
11
-12.706611279896777
21
-0.44237204811165753
31
0
0
LINE
5
E139
330
E103
100
AcDbEntity
100
AcDbLine
8
ZEMIN_PLATFORM
10
-12.706611279896777
20
-0.44237204811165753
30
0
11
-12.994798359691544
21
-0.44237204811165753
31
0
0
LINE
5
E13A
330
E103
100
AcDbEntity
100
AcDbLine
8
ZEMIN_PLATFORM
10
-12.994798359691544
20
-0.44237204811165753
30
0
11
-12.991912306272418
21
-4.763229947766511
31
0
0
LINE
5
E13B
330
E103
100
AcDbEntity
100
AcDbLine
8
ZEMIN_PLATFORM
10
-12.991912306272418
20
-4.763229947766511
30
0
11
-12.312142468153375
21
-4.768358794261744
31
0
0
LINE
5
E13C
330
E103
100
AcDbEntity
100
AcDbLine
8
ZEMIN_PLATFORM
10
-12.312142468153375
20
-4.768358794261744
30
0
11
-12.328211701131053
21
-5.900000000000006
31
0
0
LINE
5
E13D
330
E103
100
AcDbEntity
100
AcDbLine
8
ZEMIN_PLATFORM
10
-12.328211701131053
20
-5.900000000000006
30
0
11
-12.612803182746191
21
-5.900000000000006
31
0
0
LINE
5
E13E
330
E103
100
AcDbEntity
100
AcDbLine
8
ZEMIN_PLATFORM
10
-12.612803182746191
20
-5.900000000000006
30
0
11
-12.594207064161637
21
-5.053032832799566
31
0
0
LINE
5
E13F
330
E103
100
AcDbEntity
100
AcDbLine
8
ZEMIN_PLATFORM
10
-12.594207064161637
20
-5.053032832799566
30
0
11
-13.30308580883198
21
-5.045340626192214
31
0
0
LINE
5
E140
330
E103
100
AcDbEntity
100
AcDbLine
8
ZEMIN_PLATFORM
10
-13.30308580883198
20
-5.045340626192214
30
0
11
-13.303083906675525
21
-0.44237204811165753
31
0
0
LINE
5
E141
330
E103
100
AcDbEntity
100
AcDbLine
8
ZEMIN_PLATFORM
10
-13.303083906675525
20
-0.44237204811165753
30
0
11
-13.947312451031095
21
-0.44237204811165753
31
0
0
LINE
5
E142
330
E103
100
AcDbEntity
100
AcDbLine
8
ZEMIN_PLATFORM
10
-13.947312451031095
20
-0.44237204811165753
30
0
11
-13.94731506678194
21
-0.582624508495222
31
0
0
LINE
5
E143
330
E103
100
AcDbEntity
100
AcDbLine
8
ZEMIN_PLATFORM
10
-13.94731506678194
20
-0.582624508495222
30
0
11
-16.05447309379238
21
-0.582624508495222
31
0
0
LINE
5
E144
330
E103
100
AcDbEntity
100
AcDbLine
8
ZEMIN_PLATFORM
10
-16.05447309379238
20
-0.582624508495222
30
0
11
-16.054132037870986
21
-0.4423820222570001
31
0
0
LINE
5
E145
330
E103
100
AcDbEntity
100
AcDbLine
8
ZEMIN_PLATFORM
10
-16.054132037870986
20
-0.4423820222570001
30
0
11
-35.06281071993348
21
-0.4423820222570001
31
0
0
LINE
5
E146
330
E103
100
AcDbEntity
100
AcDbLine
8
ZEMIN_PLATFORM
10
-35.06281071993348
20
-0.4423820222570001
30
0
11
-35.0647184479026
21
-0.582624508495222
31
0
0
LINE
5
E147
330
E103
100
AcDbEntity
100
AcDbLine
8
ZEMIN_PLATFORM
10
-35.0647184479026
20
-0.582624508495222
30
0
11
-37.16962769102252
21
-0.582624508495222
31
0
0
LINE
5
E148
330
E103
100
AcDbEntity
100
AcDbLine
8
ZEMIN_PLATFORM
10
-37.16962769102252
20
-0.582624508495222
30
0
11
-37.16964302968565
21
-0.44237204811165753
31
0
0
LINE
5
E149
330
E103
100
AcDbEntity
100
AcDbLine
8
ZEMIN_PLATFORM
10
-37.16964302968565
20
-0.44237204811165753
30
0
11
-37.83066672691506
21
-0.44237204811165753
31
0
0
LINE
5
E14A
330
E103
100
AcDbEntity
100
AcDbLine
8
ZEMIN_PLATFORM
10
-37.83066672691506
20
-0.44237204811165753
30
0
11
-37.83066672691506
21
-5.746738440673283
31
0
0
LINE
5
E14B
330
E103
100
AcDbEntity
100
AcDbLine
8
ZEMIN_PLATFORM
10
-37.83066672691506
20
-5.746738440673283
30
0
11
-38.105337956128
21
-5.746738440673283
31
0
0
LINE
5
E14C
330
E103
100
AcDbEntity
100
AcDbLine
8
ZEMIN_PLATFORM
10
-38.105337956128
20
-5.746738440673283
30
0
11
-38.105337956128
21
-0.44237204811165753
31
0
0
LINE
5
E14D
330
E103
100
AcDbEntity
100
AcDbLine
8
ZEMIN_PLATFORM
10
-38.105337956128
20
-0.44237204811165753
30
0
11
-38.410940631738185
21
-0.44251876601438767
31
0
0
LINE
5
E14E
330
E103
100
AcDbEntity
100
AcDbLine
8
ZEMIN_PLATFORM
10
-38.410940631738185
20
-0.44251876601438767
30
0
11
-38.98041242379762
21
-0.6484848234588938
31
0
0
LINE
5
E14F
330
E103
100
AcDbEntity
100
AcDbLine
8
ZEMIN_PLATFORM
10
-38.98041242379762
20
-0.6484848234588938
30
0
11
-44.899999999614835
21
-0.6508561731592977
31
0
0
LINE
5
E150
330
E103
100
AcDbEntity
100
AcDbLine
8
ZEMIN_PLATFORM
10
-44.899999999614835
20
-0.6508561731592977
30
0
11
-44.899999986535576
21
29.650855955623825
31
0
0
LINE
5
E151
330
E103
100
AcDbEntity
100
AcDbLine
8
ZEMIN_PLATFORM
10
-44.6234013141425
20
29.34252497028359
30
0
11
-41.37601296618186
21
29.341287216365004
31
0
0
LINE
5
E152
330
E103
100
AcDbEntity
100
AcDbLine
8
ZEMIN_PLATFORM
10
-41.37601296618186
20
29.341287216365004
30
0
11
-41.37702817149655
21
-0.342525174354698
31
0
0
LINE
5
E153
330
E103
100
AcDbEntity
100
AcDbLine
8
ZEMIN_PLATFORM
10
-41.37702817149655
20
-0.342525174354698
30
0
11
-44.625951231938885
21
-0.342525174354698
31
0
0
LINE
5
E154
330
E103
100
AcDbEntity
100
AcDbLine
8
ZEMIN_PLATFORM
10
-44.625951231938885
20
-0.342525174354698
30
0
11
-44.6234013141425
21
29.34252497028359
31
0
0
LINE
5
E155
330
E103
100
AcDbEntity
100
AcDbLine
8
ZEMIN_PLATFORM
10
-41.06644912185051
20
29.34252497028359
30
0
11
-39.037017411236775
21
29.34252497028359
31
0
0
LINE
5
E156
330
E103
100
AcDbEntity
100
AcDbLine
8
ZEMIN_PLATFORM
10
-39.037017411236775
20
29.34252497028359
30
0
11
-38.46472843889046
21
29.134091516237334
31
0
0
LINE
5
E157
330
E103
100
AcDbEntity
100
AcDbLine
8
ZEMIN_PLATFORM
10
-38.46472843889046
20
29.134091516237334
30
0
11
-38.1221459100391
21
29.134091516237334
31
0
0
LINE
5
E158
330
E103
100
AcDbEntity
100
AcDbLine
8
ZEMIN_PLATFORM
10
-38.1221459100391
20
29.134091516237334
30
0
11
-38.122159921168695
21
-0.13384755954590588
31
0
0
LINE
5
E159
330
E103
100
AcDbEntity
100
AcDbLine
8
ZEMIN_PLATFORM
10
-38.122159921168695
20
-0.13384755954590588
30
0
11
-38.4681864442062
21
-0.13719298271243474
31
0
0
LINE
5
E15A
330
E103
100
AcDbEntity
100
AcDbLine
8
ZEMIN_PLATFORM
10
-38.4681864442062
20
-0.13719298271243474
30
0
11
-39.04567424422621
21
-0.3456264367586499
31
0
0
LINE
5
E15B
330
E103
100
AcDbEntity
100
AcDbLine
8
ZEMIN_PLATFORM
10
-39.04567424422621
20
-0.3456264367586499
30
0
11
-41.06644912348719
21
-0.342525174354698
31
0
0
LINE
5
E15C
330
E103
100
AcDbEntity
100
AcDbLine
8
ZEMIN_PLATFORM
10
-41.06644912348719
20
-0.342525174354698
30
0
11
-41.06644912185051
21
29.34252497028359
31
0
0
LINE
5
E15D
330
E103
100
AcDbEntity
100
AcDbLine
8
ZEMIN_PLATFORM
10
-6.499256609212708
20
29.34252497028359
30
0
11
-9.746644957173345
21
29.341287216365004
31
0
0
LINE
5
E15E
330
E103
100
AcDbEntity
100
AcDbLine
8
ZEMIN_PLATFORM
10
-9.746644957173345
20
29.341287216365004
30
0
11
-9.745629751858672
21
-0.342525174354698
31
0
0
LINE
5
E15F
330
E103
100
AcDbEntity
100
AcDbLine
8
ZEMIN_PLATFORM
10
-9.745629751858672
20
-0.342525174354698
30
0
11
-6.496706691416328
21
-0.342525174354698
31
0
0
LINE
5
E160
330
E103
100
AcDbEntity
100
AcDbLine
8
ZEMIN_PLATFORM
10
-6.496706691416328
20
-0.342525174354698
30
0
11
-6.499256609212708
21
29.34252497028359
31
0
0
LINE
5
E161
330
E103
100
AcDbEntity
100
AcDbLine
8
ZEMIN_PLATFORM
10
-10.056208801504695
20
29.34252497028359
30
0
11
-12.085640512118445
21
29.34252497028359
31
0
0
LINE
5
E162
330
E103
100
AcDbEntity
100
AcDbLine
8
ZEMIN_PLATFORM
10
-12.085640512118445
20
29.34252497028359
30
0
11
-12.657929484464766
21
29.134091516237334
31
0
0
LINE
5
E163
330
E103
100
AcDbEntity
100
AcDbLine
8
ZEMIN_PLATFORM
10
-12.657929484464766
20
29.134091516237334
30
0
11
-13.000512013316111
21
29.134091516237334
31
0
0
LINE
5
E164
330
E103
100
AcDbEntity
100
AcDbLine
8
ZEMIN_PLATFORM
10
-13.000512013316111
20
29.134091516237334
30
0
11
-13.000498002186518
21
-0.13384755954590588
31
0
0
LINE
5
E165
330
E103
100
AcDbEntity
100
AcDbLine
8
ZEMIN_PLATFORM
10
-13.000498002186518
20
-0.13384755954590588
30
0
11
-12.65447147914901
21
-0.13719298271243474
31
0
0
LINE
5
E166
330
E103
100
AcDbEntity
100
AcDbLine
8
ZEMIN_PLATFORM
10
-12.65447147914901
20
-0.13719298271243474
30
0
11
-12.076983679128993
21
-0.3456264367586499
31
0
0
LINE
5
E167
330
E103
100
AcDbEntity
100
AcDbLine
8
ZEMIN_PLATFORM
10
-12.076983679128993
20
-0.3456264367586499
30
0
11
-10.056208799868024
21
-0.342525174354698
31
0
0
LINE
5
E168
330
E103
100
AcDbEntity
100
AcDbLine
8
ZEMIN_PLATFORM
10
-10.056208799868024
20
-0.342525174354698
30
0
11
-10.056208801504695
21
29.34252497028359
31
0
0
LINE
5
E169
330
E103
100
AcDbEntity
100
AcDbLine
8
ZEMIN_PLATFORM
10
-37.81367392073056
20
3.855169820642061
30
0
11
-13.30447639133373
21
3.855169820642061
31
0
0
LINE
5
E16A
330
E103
100
AcDbEntity
100
AcDbLine
8
ZEMIN_PLATFORM
10
-13.30447639133373
20
3.855169820642061
30
0
11
-13.30447639133373
21
25.143300124066762
31
0
0
LINE
5
E16B
330
E103
100
AcDbEntity
100
AcDbLine
8
ZEMIN_PLATFORM
10
-13.30447639133373
20
25.143300124066762
30
0
11
-37.813601345461635
21
25.143300124066762
31
0
0
LINE
5
E16C
330
E103
100
AcDbEntity
100
AcDbLine
8
ZEMIN_PLATFORM
10
-37.813601345461635
20
25.143300124066762
30
0
11
-37.813872517187505
21
3.855177712444302
31
0
0
LINE
5
E16D
330
E103
100
AcDbEntity
100
AcDbLine
8
ZEMIN_PLATFORM
10
-37.519201200408
20
13.041373751019666
30
0
11
-37.40699923210115
21
13.041373751019666
31
0
0
LINE
5
E16E
330
E103
100
AcDbEntity
100
AcDbLine
8
ZEMIN_PLATFORM
10
-37.40699923210115
20
13.041373751019666
30
0
11
-37.40699923210175
21
15.958624965004017
31
0
0
LINE
5
E16F
330
E103
100
AcDbEntity
100
AcDbLine
8
ZEMIN_PLATFORM
10
-37.40699923210175
20
15.958624965004017
30
0
11
-37.519201200408
21
15.95862492699775
31
0
0
LINE
5
E170
330
E103
100
AcDbEntity
100
AcDbLine
8
ZEMIN_PLATFORM
10
-37.519201200408
20
15.95862492699775
30
0
11
-37.519201200408
21
13.041373751019666
31
0
0
LINE
5
E171
330
E103
100
AcDbEntity
100
AcDbLine
8
ZEMIN_PLATFORM
10
-13.70994352570333
20
13.041373789025911
30
0
11
-13.597741557396482
21
13.041373789025911
31
0
0
LINE
5
E172
330
E103
100
AcDbEntity
100
AcDbLine
8
ZEMIN_PLATFORM
10
-13.597741557396482
20
13.041373789025911
30
0
11
-13.597741557397086
21
15.95862500301023
31
0
0
LINE
5
E173
330
E103
100
AcDbEntity
100
AcDbLine
8
ZEMIN_PLATFORM
10
-13.597741557397086
20
15.95862500301023
30
0
11
-13.70994352570333
21
15.95862496500397
31
0
0
LINE
5
E174
330
E103
100
AcDbEntity
100
AcDbLine
8
ZEMIN_PLATFORM
10
-13.70994352570333
20
15.95862496500397
30
0
11
-13.70994352570333
21
13.041373789025911
31
0
0
LINE
5
E175
330
E103
100
AcDbEntity
100
AcDbLine
8
ZEMIN_PLATFORM
10
-37.81385909896295
20
29.134086294557786
30
0
11
-13.303083658841508
21
29.134086294557786
31
0
0
LINE
5
E176
330
E103
100
AcDbEntity
100
AcDbLine
8
ZEMIN_PLATFORM
10
-13.303083658841508
20
29.134086294557786
30
0
11
-13.303087497374513
21
25.453107612298005
31
0
0
LINE
5
E177
330
E103
100
AcDbEntity
100
AcDbLine
8
ZEMIN_PLATFORM
10
-13.303087497374513
20
25.453107612298005
30
0
11
-37.81385526042993
21
25.453107612298005
31
0
0
LINE
5
E178
330
E103
100
AcDbEntity
100
AcDbLine
8
ZEMIN_PLATFORM
10
-37.81385526042993
20
25.453107612298005
30
0
11
-37.81385526042993
21
29.134082456019904
31
0
0
LINE
5
E179
330
E103
100
AcDbEntity
100
AcDbLine
8
ZEMIN_PLATFORM
10
-37.81385909896295
20
3.5469220672277118
30
0
11
-13.303083658841508
21
3.5469220672277118
31
0
0
LINE
5
E17A
330
E103
100
AcDbEntity
100
AcDbLine
8
ZEMIN_PLATFORM
10
-13.303083658841508
20
3.5469220672277118
30
0
11
-13.303087497374513
21
-0.13405661503205835
31
0
0
LINE
5
E17B
330
E103
100
AcDbEntity
100
AcDbLine
8
ZEMIN_PLATFORM
10
-13.303087497374513
20
-0.13405661503205835
30
0
11
-37.81385526042993
21
-0.13405661503205835
31
0
0
LINE
5
E17C
330
E103
100
AcDbEntity
100
AcDbLine
8
ZEMIN_PLATFORM
10
-37.81385526042993
20
-0.13405661503205835
30
0
11
-37.81385526042993
21
3.546918228689819
31
0
0
LINE
5
E17D
330
E103
100
AcDbEntity
100
AcDbLine
8
ZEMIN_PLATFORM
10
-38.12214723303055
20
12.08047669648407
30
0
11
-38.28708514181523
21
12.080476516625506
31
0
0
LINE
5
E17E
330
E103
100
AcDbEntity
100
AcDbLine
8
ZEMIN_PLATFORM
10
-38.28708514181523
20
12.080476516625506
30
0
11
-38.28708514181523
21
13.553464230100577
31
0
0
LINE
5
E17F
330
E103
100
AcDbEntity
100
AcDbLine
8
ZEMIN_PLATFORM
10
-38.28708514181523
20
13.553464230100577
30
0
11
-38.122153368787394
21
13.553464050246099
31
0
0
LINE
5
E180
330
E103
100
AcDbEntity
100
AcDbLine
8
ZEMIN_PLATFORM
10
-38.12214891951996
20
14.23395842517193
30
0
11
-38.317395406829746
21
14.233956005691368
31
0
0
LINE
5
E181
330
E103
100
AcDbEntity
100
AcDbLine
8
ZEMIN_PLATFORM
10
-38.317395406829746
20
14.233956005691368
30
0
11
-38.317395406829746
21
14.786022155591855
31
0
0
LINE
5
E182
330
E103
100
AcDbEntity
100
AcDbLine
8
ZEMIN_PLATFORM
10
-38.317395406829746
20
14.786022155591855
30
0
11
-38.122149668457475
21
14.783522162052474
31
0
0
LINE
5
E183
330
E103
100
AcDbEntity
100
AcDbLine
8
ZEMIN_PLATFORM
10
-38.122152432243055
20
15.509817574742268
30
0
11
-38.223802973058
21
15.509817574742268
31
0
0
LINE
5
E184
330
E103
100
AcDbEntity
100
AcDbLine
8
ZEMIN_PLATFORM
10
-38.223802973058
20
15.509817574742268
30
0
11
-38.223802973058
21
16.856241194424452
31
0
0
LINE
5
E185
330
E103
100
AcDbEntity
100
AcDbLine
8
ZEMIN_PLATFORM
10
-38.223802973058
20
16.856241194424452
30
0
11
-38.122151787683975
21
16.856241194424452
31
0
0
LINE
5
E186
330
E103
100
AcDbEntity
100
AcDbLine
8
ZEMIN_PLATFORM
10
-25.690157670121916
20
25.453110609780452
30
0
11
-25.69015777908538
21
25.57418244767351
31
0
0
LINE
5
E187
330
E103
100
AcDbEntity
100
AcDbLine
8
ZEMIN_PLATFORM
10
-25.69015777908538
20
25.57418244767351
30
0
11
-25.791139214856955
21
25.574181420907262
31
0
0
LINE
5
E188
330
E103
100
AcDbEntity
100
AcDbLine
8
ZEMIN_PLATFORM
10
-25.791139214856955
20
25.574181420907262
30
0
11
-25.791139507336652
21
25.81519153952243
31
0
0
LINE
5
E189
330
E103
100
AcDbEntity
100
AcDbLine
8
ZEMIN_PLATFORM
10
-25.791139507336652
20
25.81519153952243
30
0
11
-25.325803250467768
21
25.81519153952243
31
0
0
LINE
5
E18A
330
E103
100
AcDbEntity
100
AcDbLine
8
ZEMIN_PLATFORM
10
-25.325803250467768
20
25.81519153952243
30
0
11
-25.32580354294749
21
25.574181418432854
31
0
0
LINE
5
E18B
330
E103
100
AcDbEntity
100
AcDbLine
8
ZEMIN_PLATFORM
10
-25.32580354294749
20
25.574181418432854
30
0
11
-25.426783949489966
21
25.574181418432854
31
0
0
LINE
5
E18C
330
E103
100
AcDbEntity
100
AcDbLine
8
ZEMIN_PLATFORM
10
-25.426783949489966
20
25.574181418432854
30
0
11
-25.426785087682504
21
25.453110609780527
31
0
0
LINE
5
E18D
330
E103
100
AcDbEntity
100
AcDbLine
8
ZEMIN_PLATFORM
10
-25.426785087682504
20
3.546889317490894
30
0
11
-25.42678497871907
21
3.425817479597839
31
0
0
LINE
5
E18E
330
E103
100
AcDbEntity
100
AcDbLine
8
ZEMIN_PLATFORM
10
-25.42678497871907
20
3.425817479597839
30
0
11
-25.32580354294749
21
3.4258185063640667
31
0
0
LINE
5
E18F
330
E103
100
AcDbEntity
100
AcDbLine
8
ZEMIN_PLATFORM
10
-25.32580354294749
20
3.4258185063640667
30
0
11
-25.325803250467768
21
3.184808387748909
31
0
0
LINE
5
E190
330
E103
100
AcDbEntity
100
AcDbLine
8
ZEMIN_PLATFORM
10
-25.325803250467768
20
3.184808387748909
30
0
11
-25.791139507336652
21
3.184808387748909
31
0
0
LINE
5
E191
330
E103
100
AcDbEntity
100
AcDbLine
8
ZEMIN_PLATFORM
10
-25.791139507336652
20
3.184808387748909
30
0
11
-25.791139214856955
21
3.425818508838482
31
0
0
LINE
5
E192
330
E103
100
AcDbEntity
100
AcDbLine
8
ZEMIN_PLATFORM
10
-25.791139214856955
20
3.425818508838482
30
0
11
-25.690158808314457
21
3.425818508838482
31
0
0
LINE
5
E193
330
E103
100
AcDbEntity
100
AcDbLine
8
ZEMIN_PLATFORM
10
-25.690158808314457
20
3.425818508838482
30
0
11
-25.690157670121916
21
3.5468893174908303
31
0
0
LINE
5
E194
330
E103
100
AcDbEntity
100
AcDbLine
8
ZEMIN_PLATFORM
10
-13.005341641461222
20
12.080296013936806
30
0
11
-13.0053378753748
21
12.080296017810625
31
0
0
LINE
5
E195
330
E103
100
AcDbEntity
100
AcDbLine
8
ZEMIN_PLATFORM
10
-13.000503849336113
20
12.080300990084837
30
0
11
-12.829857615989212
21
12.080476516625506
31
0
0
LINE
5
E196
330
E103
100
AcDbEntity
100
AcDbLine
8
ZEMIN_PLATFORM
10
-12.829857615989212
20
12.080476516625506
30
0
11
-12.829857615989212
21
13.553464226733649
31
0
0
LINE
5
E197
330
E103
100
AcDbEntity
100
AcDbLine
8
ZEMIN_PLATFORM
10
-12.829857615989212
20
13.553464226733649
30
0
11
-13.000504555008945
21
13.554385509040745
31
0
0
LINE
5
E198
330
E103
100
AcDbEntity
100
AcDbLine
8
ZEMIN_PLATFORM
10
-13.000504880230991
20
14.233743935121357
30
0
11
-12.79954735097467
21
14.233956004565513
31
0
0
LINE
5
E199
330
E103
100
AcDbEntity
100
AcDbLine
8
ZEMIN_PLATFORM
10
-12.79954735097467
20
14.233956004565513
30
0
11
-12.799547485574926
21
14.783524934541635
31
0
0
LINE
5
E19A
330
E103
100
AcDbEntity
100
AcDbLine
8
ZEMIN_PLATFORM
10
-12.799547485574926
20
14.783524934541635
30
0
11
-13.000505143421087
21
14.783523437594628
31
0
0
LINE
5
E19B
330
E103
100
AcDbEntity
100
AcDbLine
8
ZEMIN_PLATFORM
10
-13.000505491112172
20
15.509817574742268
30
0
11
-12.893139784746438
21
15.509817574742268
31
0
0
LINE
5
E19C
330
E103
100
AcDbEntity
100
AcDbLine
8
ZEMIN_PLATFORM
10
-12.893139784746438
20
15.509817574742268
30
0
11
-12.893139784746438
21
16.856241194424452
31
0
0
LINE
5
E19D
330
E103
100
AcDbEntity
100
AcDbLine
8
ZEMIN_PLATFORM
10
-12.893139784746438
20
16.856241194424452
30
0
11
-13.000506135671252
21
16.856241194424452
31
0
0
CIRCLE
5
E19E
330
E103
100
AcDbEntity
100
AcDbCircle
8
METIN_BILGI
10
0
20
85
30
0
40
3
0
TEXT
5
E19F
330
E103
100
AcDbEntity
100
AcDbText
8
METIN_BILGI
10
0
20
85
30
0
40
1.8
1
ALAN 1 & 3: MARATON
50
0
7
STANDARD
72
1
11
0
21
85
31
0
100
AcDbText
73
0
0
CIRCLE
5
E1A0
330
E103
100
AcDbEntity
100
AcDbCircle
8
METIN_BILGI
10
-110
20
0
30
0
40
3
0
TEXT
5
E1A1
330
E103
100
AcDbEntity
100
AcDbText
8
METIN_BILGI
10
-110
20
0
30
0
40
1.8
1
ALAN 2: SCOREBOARD
50
0
7
STANDARD
72
1
11
-110
21
0
31
0
100
AcDbText
73
0
0
CIRCLE
5
E1A2
330
E103
100
AcDbEntity
100
AcDbCircle
8
METIN_BILGI
10
-80
20
-60
30
0
40
3
0
TEXT
5
E1A3
330
E103
100
AcDbEntity
100
AcDbText
8
METIN_BILGI
10
-80
20
-60
30
0
40
1.8
1
ALAN 4: CAPRAZ KOSE
50
0
7
STANDARD
72
1
11
-80
21
-60
31
0
100
AcDbText
73
0
0
LWPOLYLINE
5
E1A4
330
E103
100
AcDbEntity
100
AcDbPolyline
8
METIN_BILGI
6
ByLayer
62
256
370
-1
90
4
70
1
10
-150
20
-120
10
-150
20
-117.8
10
-142
20
-117.8
10
-142
20
-120
0
LINE
5
E1A5
330
E103
100
AcDbEntity
100
AcDbLine
8
METIN_BILGI
10
-150
20
-118.6
30
0
11
-142
21
-118.6
31
0
0
LINE
5
E1A6
330
E103
100
AcDbEntity
100
AcDbLine
8
METIN_BILGI
10
-150
20
-119.3
30
0
11
-142
21
-119.3
31
0
0
LINE
5
E1A7
330
E103
100
AcDbEntity
100
AcDbLine
8
METIN_BILGI
10
-145.5
20
-120
30
0
11
-145.5
21
-118.6
31
0
0
TEXT
5
E1A8
330
E103
100
AcDbEntity
100
AcDbText
8
METIN_BILGI
10
-149.8
20
-118.35
30
0
40
0.32
1
GALATASARAY STADYUMU GSM ALTYAPI PROJESI
50
0
7
STANDARD
100
AcDbText
0
TEXT
5
E1A9
330
E103
100
AcDbEntity
100
AcDbText
8
METIN_BILGI
10
-149.8
20
-119.05
30
0
40
0.26
1
ALAN: SEYRANTEPE STADYUMU GENEL KEDI YOLU CATI RING HATTI (GENEL VAZIYET)
50
0
7
STANDARD
100
AcDbText
0
TEXT
5
E1AA
330
E103
100
AcDbEntity
100
AcDbText
8
METIN_BILGI
10
-149.8
20
-119.72
30
0
40
0.2
1
OLCEK: 1:1 m (1:1 m)
50
0
7
STANDARD
100
AcDbText
0
TEXT
5
E1AB
330
E103
100
AcDbEntity
100
AcDbText
8
METIN_BILGI
10
-145.3
20
-119.05
30
0
40
0.18
1
CIZIM: ANTIGRAVITY CAD / BIM
50
0
7
STANDARD
100
AcDbText
0
TEXT
5
E1AC
330
E103
100
AcDbEntity
100
AcDbText
8
METIN_BILGI
10
-145.3
20
-119.72
30
0
40
0.18
1
TARIH: 2026-10-04
50
0
7
STANDARD
100
AcDbText
0
CIRCLE
5
E1AD
330
E103
100
AcDbEntity
100
AcDbCircle
8
METIN_BILGI
10
-151.5
20
-118.9
30
0
40
0.8
0
LINE
5
E1AE
330
E103
100
AcDbEntity
100
AcDbLine
8
METIN_BILGI
10
-151.5
20
-119.62
30
0
11
-151.5
21
-118.18
31
0
0
LINE
5
E1AF
330
E103
100
AcDbEntity
100
AcDbLine
8
METIN_BILGI
10
-151.5
20
-118.18
30
0
11
-151.75
21
-118.60000000000001
31
0
0
LINE
5
E1B0
330
E103
100
AcDbEntity
100
AcDbLine
8
METIN_BILGI
10
-151.5
20
-118.18
30
0
11
-151.25
21
-118.60000000000001
31
0
0
TEXT
5
E1B1
330
E103
100
AcDbEntity
100
AcDbText
8
METIN_BILGI
10
-151.5
20
-117.9
30
0
40
0.3
1
K
50
0
7
STANDARD
72
1
11
-151.5
21
-117.9
31
0
100
AcDbText
73
2
0
ENDSEC
0
SECTION
2
OBJECTS
0
DICTIONARY
5
E0F1
330
0
100
AcDbDictionary
281
1
3
ACAD_GROUP
350
E107
0
DICTIONARY
5
E107
330
E0F1
100
AcDbDictionary
281
1
0
ENDSEC
0
EOF