0
SECTION
2
HEADER
9
$HANDSEED
5
E8AD
9
$INSUNITS
70
6
9
$ACADVER
1
AC1021
9
$DWGCODEPAGE
3
UTF-8
0
ENDSEC
0
SECTION
2
CLASSES
0
ENDSEC
0
SECTION
2
TABLES
0
TABLE
2
LTYPE
5
E8AB
330
0
100
AcDbSymbolTable
70
5
0
LTYPE
5
E533
330
E8AB
100
AcDbSymbolTableRecord
100
AcDbLinetypeTableRecord
2
CONTINUOUS
3
______
70
0
72
65
73
0
40
0
0
LTYPE
5
E534
330
E8AB
100
AcDbSymbolTableRecord
100
AcDbLinetypeTableRecord
2
DASHED
3
_ _ _ 
70
0
72
65
73
2
40
10
49
5
74
0
49
-5
74
0
0
LTYPE
5
E535
330
E8AB
100
AcDbSymbolTableRecord
100
AcDbLinetypeTableRecord
2
DOTTED
3
. . . 
70
0
72
65
73
2
40
5
49
0
74
0
49
-5
74
0
0
LTYPE
5
E537
330
E8AB
100
AcDbSymbolTableRecord
100
AcDbLinetypeTableRecord
2
ByBlock
3

70
0
72
65
73
0
40
0
0
LTYPE
5
E538
330
E8AB
100
AcDbSymbolTableRecord
100
AcDbLinetypeTableRecord
2
ByLayer
3

70
0
72
65
73
0
40
0
0
ENDTAB
0
TABLE
2
LAYER
5
E8AC
330
0
100
AcDbSymbolTable
70
21
0
LAYER
5
E536
330
E8AC
100
AcDbSymbolTableRecord
100
AcDbLayerTableRecord
2
0
62
7
70
0
6
CONTINUOUS
390
1
0
LAYER
5
E549
330
E8AC
100
AcDbSymbolTableRecord
100
AcDbLayerTableRecord
2
ZEMIN_PLATFORM
62
8
70
0
6
CONTINUOUS
390
1
0
LAYER
5
E54A
330
E8AC
100
AcDbSymbolTableRecord
100
AcDbLayerTableRecord
2
KORKULUK_KAPI
62
4
70
0
6
CONTINUOUS
390
1
0
LAYER
5
E54B
330
E8AC
100
AcDbSymbolTableRecord
100
AcDbLayerTableRecord
2
CELIK_KIRIS_KOLON
62
9
70
0
6
CONTINUOUS
390
1
0
LAYER
5
E54C
330
E8AC
100
AcDbSymbolTableRecord
100
AcDbLayerTableRecord
2
MONTAJ_BORULARI
62
2
70
0
6
CONTINUOUS
390
1
0
LAYER
5
E54D
330
E8AC
100
AcDbSymbolTableRecord
100
AcDbLayerTableRecord
2
KABLO_TAVALARI
62
6
70
0
6
CONTINUOUS
390
1
0
LAYER
5
E54E
330
E8AC
100
AcDbSymbolTableRecord
100
AcDbLayerTableRecord
2
YURUYUS_KORIDORU
62
3
70
0
6
DASHED
390
1
0
LAYER
5
E54F
330
E8AC
100
AcDbSymbolTableRecord
100
AcDbLayerTableRecord
2
OLCULER
62
1
70
0
6
CONTINUOUS
390
1
0
LAYER
5
E550
330
E8AC
100
AcDbSymbolTableRecord
100
AcDbLayerTableRecord
2
METIN_BILGI
62
7
70
0
6
CONTINUOUS
390
1
0
LAYER
5
E551
330
E8AC
100
AcDbSymbolTableRecord
100
AcDbLayerTableRecord
2
EKP_TURKCELL_RRU
62
5
70
0
6
CONTINUOUS
390
1
0
LAYER
5
E552
330
E8AC
100
AcDbSymbolTableRecord
100
AcDbLayerTableRecord
2
EKP_VODAFONE_RRU
62
1
70
0
6
CONTINUOUS
390
1
0
LAYER
5
E553
330
E8AC
100
AcDbSymbolTableRecord
100
AcDbLayerTableRecord
2
EKP_TURK_TELEKOM_RRU
62
4
70
0
6
CONTINUOUS
390
1
0
LAYER
5
E554
330
E8AC
100
AcDbSymbolTableRecord
100
AcDbLayerTableRecord
2
EKP_POI_TASIYICI_SASE
62
30
70
0
6
CONTINUOUS
390
1
0
LAYER
5
E555
330
E8AC
100
AcDbSymbolTableRecord
100
AcDbLayerTableRecord
2
EKP_POI_MODULLERI
62
40
70
0
6
CONTINUOUS
390
1
0
LAYER
5
E556
330
E8AC
100
AcDbSymbolTableRecord
100
AcDbLayerTableRecord
2
EKP_RECTIFIER_ELTEK_20U
62
3
70
0
6
CONTINUOUS
390
1
0
LAYER
5
E557
330
E8AC
100
AcDbSymbolTableRecord
100
AcDbLayerTableRecord
2
EKP_RECTIFIER_MTS9304A
62
94
70
0
6
CONTINUOUS
390
1
0
LAYER
5
E558
330
E8AC
100
AcDbSymbolTableRecord
100
AcDbLayerTableRecord
2
BLOK_OZEL_PLATFORM
62
140
70
0
6
CONTINUOUS
390
1
0
LAYER
5
E559
330
E8AC
100
AcDbSymbolTableRecord
100
AcDbLayerTableRecord
2
EKP_MATSING_ANTEN
62
2
70
0
6
CONTINUOUS
390
1
0
LAYER
5
E55A
330
E8AC
100
AcDbSymbolTableRecord
100
AcDbLayerTableRecord
2
EKP_PANEL_ANTEN
62
6
70
0
6
CONTINUOUS
390
1
0
LAYER
5
E55B
330
E8AC
100
AcDbSymbolTableRecord
100
AcDbLayerTableRecord
2
EKP_ANTEN_TASIYICI_KOL
62
141
70
0
6
CONTINUOUS
390
1
0
LAYER
5
E55C
330
E8AC
100
AcDbSymbolTableRecord
100
AcDbLayerTableRecord
2
EKP_DIGER_EKIPMANLAR
62
7
70
0
6
CONTINUOUS
390
1
0
ENDTAB
0
TABLE
2
VPORT
5
E539
330
0
100
AcDbSymbolTable
70
1
0
VPORT
5
E53F
330
E539
100
AcDbSymbolTableRecord
100
AcDbViewportTableRecord
2
*ACTIVE
40
1000
70
0
0
ENDTAB
0
TABLE
2
STYLE
5
E53A
330
0
100
AcDbSymbolTable
70
3
0
STYLE
5
E540
330
E53A
100
AcDbSymbolTableRecord
100
AcDbTextStyleTableRecord
2
standard
70
0
40
0
41
1
50
0
71
0
42
1
3
calibrib.ttf
4

1001
ACAD
1000
Calibri
1071
33554466
0
STYLE
5
E541
330
E53A
100
AcDbSymbolTableRecord
100
AcDbTextStyleTableRecord
2
STANDARD
70
0
40
0
41
1
50
0
71
0
42
1
3
calibrib.ttf
4

1001
ACAD
1000
Calibri
1071
33554466
0
STYLE
5
E542
330
E53A
100
AcDbSymbolTableRecord
100
AcDbTextStyleTableRecord
2
CALIBRI_BOLD
70
0
40
0
41
1
50
0
71
0
42
1
3
calibrib.ttf
4

1001
ACAD
1000
Calibri
1071
33554466
0
ENDTAB
0
TABLE
2
VIEW
5
E53B
330
0
100
AcDbSymbolTable
70
0
0
ENDTAB
0
TABLE
2
UCS
5
E53C
330
0
100
AcDbSymbolTable
70
0
0
ENDTAB
0
TABLE
2
APPID
5
E53D
330
0
100
AcDbSymbolTable
70
1
0
APPID
5
E543
330
E53D
100
AcDbSymbolTableRecord
100
AcDbRegAppTableRecord
2
ACAD
70
0
0
ENDTAB
0
TABLE
2
DIMSTYLE
5
E53E
330
0
100
AcDbSymbolTable
100
AcDbDimStyleTable
70
0
71
1
0
ENDTAB
0
TABLE
2
BLOCK_RECORD
5
E8A8
330
0
100
AcDbSymbolTable
70
2
0
BLOCK_RECORD
5
E8A9
330
E8A8
100
AcDbSymbolTableRecord
100
AcDbBlockTableRecord
2
*Model_Space
70
0
280
0
281
1
0
BLOCK_RECORD
5
E8AA
330
E8A8
100
AcDbSymbolTableRecord
100
AcDbBlockTableRecord
2
*Paper_Space
70
0
280
0
281
1
0
ENDTAB
0
ENDSEC
0
SECTION
2
BLOCKS
0
BLOCK
5
E544
330
0
100
AcDbEntity
100
AcDbBlockBegin
2
*Model_Space
70
0
10
0
20
0
30
0
3
*Model_Space
1

0
ENDBLK
5
E545
330
0
100
AcDbEntity
100
AcDbBlockEnd
0
BLOCK
5
E546
330
0
100
AcDbEntity
100
AcDbBlockBegin
2
*Paper_Space
70
0
10
0
20
0
30
0
3
*Paper_Space
1

0
ENDBLK
5
E547
330
0
100
AcDbEntity
100
AcDbBlockEnd
0
ENDSEC
0
SECTION
2
ENTITIES
0
LWPOLYLINE
5
E827
330
E544
100
AcDbEntity
100
AcDbPolyline
8
ZEMIN_PLATFORM
6
ByLayer
62
256
370
-1
90
4
70
1
10
4.85168417362831
20
2
10
4.85168417362831
20
2.045
10
5.75168417362831
20
2.045
10
5.75168417362831
20
2
0
LWPOLYLINE
5
E828
330
E544
100
AcDbEntity
100
AcDbPolyline
8
ZEMIN_PLATFORM
6
ByLayer
62
256
370
-1
90
4
70
1
10
5.73168417362831
20
2.045
10
5.73168417362831
20
2.195
10
5.75168417362831
20
2.195
10
5.75168417362831
20
2.045
0
LWPOLYLINE
5
E829
330
E544
100
AcDbEntity
100
AcDbPolyline
8
ZEMIN_PLATFORM
6
ByLayer
62
256
370
-1
90
4
70
1
10
4.85168417362831
20
2.045
10
4.85168417362831
20
2.195
10
4.871684173628309
20
2.195
10
4.871684173628309
20
2.045
0
LWPOLYLINE
5
E56D
330
E544
100
AcDbEntity
100
AcDbPolyline
8
CELIK_KIRIS_KOLON
6
ByLayer
62
256
370
-1
90
4
70
1
10
-18.27765
20
17.8175
10
-18.27765
20
17.8525
10
-17.722350000000002
20
17.8525
10
-17.722350000000002
20
17.8175
0
LWPOLYLINE
5
E56E
330
E544
100
AcDbEntity
100
AcDbPolyline
8
CELIK_KIRIS_KOLON
6
ByLayer
62
256
370
-1
90
4
70
1
10
-18.27765
20
16.1475
10
-18.27765
20
16.1825
10
-17.722350000000002
20
16.1825
10
-17.722350000000002
20
16.1475
0
LWPOLYLINE
5
E56F
330
E544
100
AcDbEntity
100
AcDbPolyline
8
CELIK_KIRIS_KOLON
6
ByLayer
62
256
370
-1
90
4
70
1
10
-18.333499999999997
20
16.39775
10
-18.333499999999997
20
16.457749999999997
10
-18.3085
20
16.457749999999997
10
-18.3085
20
16.39775
0
LWPOLYLINE
5
E570
330
E544
100
AcDbEntity
100
AcDbPolyline
8
CELIK_KIRIS_KOLON
6
ByLayer
62
256
370
-1
90
4
70
1
10
-17.6915
20
16.39775
10
-17.6915
20
16.457749999999997
10
-17.666500000000003
20
16.457749999999997
10
-17.666500000000003
20
16.39775
0
CIRCLE
5
E571
330
E544
100
AcDbEntity
100
AcDbCircle
8
CELIK_KIRIS_KOLON
10
-18.3205
20
16.42775
30
0
40
0.006
0
CIRCLE
5
E572
330
E544
100
AcDbEntity
100
AcDbCircle
8
CELIK_KIRIS_KOLON
10
-17.6795
20
16.42775
30
0
40
0.006
0
LWPOLYLINE
5
E573
330
E544
100
AcDbEntity
100
AcDbPolyline
8
CELIK_KIRIS_KOLON
6
ByLayer
62
256
370
-1
90
4
70
1
10
-18.333499999999997
20
17.54225
10
-18.333499999999997
20
17.602249999999998
10
-18.3085
20
17.602249999999998
10
-18.3085
20
17.54225
0
LWPOLYLINE
5
E574
330
E544
100
AcDbEntity
100
AcDbPolyline
8
CELIK_KIRIS_KOLON
6
ByLayer
62
256
370
-1
90
4
70
1
10
-17.6915
20
17.54225
10
-17.6915
20
17.602249999999998
10
-17.666500000000003
20
17.602249999999998
10
-17.666500000000003
20
17.54225
0
CIRCLE
5
E575
330
E544
100
AcDbEntity
100
AcDbCircle
8
CELIK_KIRIS_KOLON
10
-18.3205
20
17.57225
30
0
40
0.006
0
CIRCLE
5
E576
330
E544
100
AcDbEntity
100
AcDbCircle
8
CELIK_KIRIS_KOLON
10
-17.6795
20
17.57225
30
0
40
0.006
0
LINE
5
E586
330
E544
100
AcDbEntity
100
AcDbLine
8
CELIK_KIRIS_KOLON
10
-11.71989732630248
20
17.818210934180485
30
0
11
-11.705755190678747
21
17.804068798556752
31
0
0
LINE
5
E587
330
E544
100
AcDbEntity
100
AcDbLine
8
CELIK_KIRIS_KOLON
10
-11.71989732630248
20
17.818210934180485
30
0
11
-12.818210934180485
21
16.71989732630248
31
0
0
LINE
5
E588
330
E544
100
AcDbEntity
100
AcDbLine
8
CELIK_KIRIS_KOLON
10
-12.818210934180485
20
16.71989732630248
30
0
11
-12.804068798556752
21
16.705755190678747
31
0
0
LINE
5
E58C
330
E544
100
AcDbEntity
100
AcDbLine
8
CELIK_KIRIS_KOLON
10
-12.50673039706781
20
17.031377863415155
30
0
11
-12.436019718949156
21
17.10208854153381
31
0
0
LINE
5
E58D
330
E544
100
AcDbEntity
100
AcDbLine
8
CELIK_KIRIS_KOLON
10
-12.436019718949156
20
17.10208854153381
30
0
11
-12.521721060828964
21
17.159505612166157
31
0
0
LINE
5
E58E
330
E544
100
AcDbEntity
100
AcDbLine
8
CELIK_KIRIS_KOLON
10
-12.521721060828964
20
17.159505612166157
30
0
11
-12.564147467700158
21
17.117079205294964
31
0
0
LINE
5
E58F
330
E544
100
AcDbEntity
100
AcDbLine
8
CELIK_KIRIS_KOLON
10
-12.564147467700158
20
17.117079205294964
30
0
11
-12.50673039706781
21
17.031377863415155
31
0
0
CIRCLE
5
E590
330
E544
100
AcDbEntity
100
AcDbCircle
8
CELIK_KIRIS_KOLON
10
-12.498315826371691
20
17.09367397083769
30
0
40
0.0461
0
LINE
5
E591
330
E544
100
AcDbEntity
100
AcDbLine
8
CELIK_KIRIS_KOLON
10
-12.102088541533808
20
17.436019718949154
30
0
11
-12.031377863415154
21
17.50673039706781
31
0
0
LINE
5
E592
330
E544
100
AcDbEntity
100
AcDbLine
8
CELIK_KIRIS_KOLON
10
-12.031377863415154
20
17.50673039706781
30
0
11
-12.117079205294962
21
17.56414746770016
31
0
0
LINE
5
E593
330
E544
100
AcDbEntity
100
AcDbLine
8
CELIK_KIRIS_KOLON
10
-12.117079205294962
20
17.56414746770016
30
0
11
-12.159505612166155
21
17.521721060828966
31
0
0
LINE
5
E594
330
E544
100
AcDbEntity
100
AcDbLine
8
CELIK_KIRIS_KOLON
10
-12.159505612166155
20
17.521721060828966
30
0
11
-12.102088541533808
21
17.436019718949154
31
0
0
CIRCLE
5
E595
330
E544
100
AcDbEntity
100
AcDbCircle
8
CELIK_KIRIS_KOLON
10
-12.093673970837688
20
17.49831582637169
30
0
40
0.0461
0
LWPOLYLINE
5
E596
330
E544
100
AcDbEntity
100
AcDbPolyline
8
CELIK_KIRIS_KOLON
6
ByLayer
62
256
370
-1
90
4
70
1
10
-12.568315826371691
20
17.03367397083769
10
-12.568315826371691
20
17.15367397083769
10
-12.42831582637169
20
17.15367397083769
10
-12.42831582637169
20
17.03367397083769
0
LWPOLYLINE
5
E597
330
E544
100
AcDbEntity
100
AcDbPolyline
8
CELIK_KIRIS_KOLON
6
ByLayer
62
256
370
-1
90
4
70
1
10
-12.163673970837689
20
17.438315826371692
10
-12.163673970837689
20
17.558315826371693
10
-12.023673970837688
20
17.558315826371693
10
-12.023673970837688
20
17.438315826371692
0
LWPOLYLINE
5
E59A
330
E544
100
AcDbEntity
100
AcDbPolyline
8
CELIK_KIRIS_KOLON
6
ByLayer
62
256
370
-1
90
4
70
1
10
-12.578315826371691
20
19.38
10
-12.578315826371691
20
19.419999999999998
10
-12.013673970837688
20
19.419999999999998
10
-12.013673970837688
20
19.38
0
CIRCLE
5
E59C
330
E544
100
AcDbEntity
100
AcDbCircle
8
CELIK_KIRIS_KOLON
10
-12.29599489860469
20
19.56
30
0
40
0.15500000000000003
0
LWPOLYLINE
5
E59D
330
E544
100
AcDbEntity
100
AcDbPolyline
8
CELIK_KIRIS_KOLON
6
ByLayer
62
256
370
-1
90
4
70
1
10
-12.49599489860469
20
19.529999999999998
10
-12.49599489860469
20
19.589999999999996
10
-12.455994898604692
20
19.589999999999996
10
-12.455994898604692
20
19.529999999999998
0
LWPOLYLINE
5
E59E
330
E544
100
AcDbEntity
100
AcDbPolyline
8
CELIK_KIRIS_KOLON
6
ByLayer
62
256
370
-1
90
4
70
1
10
-12.13599489860469
20
19.529999999999998
10
-12.13599489860469
20
19.589999999999996
10
-12.09599489860469
20
19.589999999999996
10
-12.09599489860469
20
19.529999999999998
0
LINE
5
E59F
330
E544
100
AcDbEntity
100
AcDbLine
8
CELIK_KIRIS_KOLON
10
-12.498315826371691
20
17.19367397083769
30
0
11
-12.29599489860469
21
19.419999999999998
31
0
0
LWPOLYLINE
5
E5D4
330
E544
100
AcDbEntity
100
AcDbPolyline
8
CELIK_KIRIS_KOLON
6
ByLayer
62
256
370
-1
90
4
70
1
10
-6.075
20
16.5744
10
-6.075
20
16.5984
10
-5.925
20
16.5984
10
-5.925
20
16.5744
0
CIRCLE
5
E5D5
330
E544
100
AcDbEntity
100
AcDbCircle
8
CELIK_KIRIS_KOLON
10
-6.055
20
16.5864
30
0
40
0.006
0
CIRCLE
5
E5D6
330
E544
100
AcDbEntity
100
AcDbCircle
8
CELIK_KIRIS_KOLON
10
-5.945
20
16.5864
30
0
40
0.006
0
LWPOLYLINE
5
E5FE
330
E544
100
AcDbEntity
100
AcDbPolyline
8
CELIK_KIRIS_KOLON
6
ByLayer
62
256
370
-1
90
4
70
1
10
7.522349999999999
20
17.8175
10
7.522349999999999
20
17.8525
10
8.07765
20
17.8525
10
8.07765
20
17.8175
0
LWPOLYLINE
5
E5FF
330
E544
100
AcDbEntity
100
AcDbPolyline
8
CELIK_KIRIS_KOLON
6
ByLayer
62
256
370
-1
90
4
70
1
10
7.522349999999999
20
16.1475
10
7.522349999999999
20
16.1825
10
8.07765
20
16.1825
10
8.07765
20
16.1475
0
LWPOLYLINE
5
E600
330
E544
100
AcDbEntity
100
AcDbPolyline
8
CELIK_KIRIS_KOLON
6
ByLayer
62
256
370
-1
90
4
70
1
10
7.4665
20
16.39775
10
7.4665
20
16.457749999999997
10
7.4915
20
16.457749999999997
10
7.4915
20
16.39775
0
LWPOLYLINE
5
E601
330
E544
100
AcDbEntity
100
AcDbPolyline
8
CELIK_KIRIS_KOLON
6
ByLayer
62
256
370
-1
90
4
70
1
10
8.1085
20
16.39775
10
8.1085
20
16.457749999999997
10
8.1335
20
16.457749999999997
10
8.1335
20
16.39775
0
CIRCLE
5
E602
330
E544
100
AcDbEntity
100
AcDbCircle
8
CELIK_KIRIS_KOLON
10
7.479500000000001
20
16.42775
30
0
40
0.006
0
CIRCLE
5
E603
330
E544
100
AcDbEntity
100
AcDbCircle
8
CELIK_KIRIS_KOLON
10
8.1205
20
16.42775
30
0
40
0.006
0
LWPOLYLINE
5
E604
330
E544
100
AcDbEntity
100
AcDbPolyline
8
CELIK_KIRIS_KOLON
6
ByLayer
62
256
370
-1
90
4
70
1
10
7.4665
20
17.54225
10
7.4665
20
17.602249999999998
10
7.4915
20
17.602249999999998
10
7.4915
20
17.54225
0
LWPOLYLINE
5
E605
330
E544
100
AcDbEntity
100
AcDbPolyline
8
CELIK_KIRIS_KOLON
6
ByLayer
62
256
370
-1
90
4
70
1
10
8.1085
20
17.54225
10
8.1085
20
17.602249999999998
10
8.1335
20
17.602249999999998
10
8.1335
20
17.54225
0
CIRCLE
5
E606
330
E544
100
AcDbEntity
100
AcDbCircle
8
CELIK_KIRIS_KOLON
10
7.479500000000001
20
17.57225
30
0
40
0.006
0
CIRCLE
5
E607
330
E544
100
AcDbEntity
100
AcDbCircle
8
CELIK_KIRIS_KOLON
10
8.1205
20
17.57225
30
0
40
0.006
0
LWPOLYLINE
5
E61C
330
E544
100
AcDbEntity
100
AcDbPolyline
8
CELIK_KIRIS_KOLON
6
ByLayer
62
256
370
-1
90
4
70
1
10
8.92235
20
17.8175
10
8.92235
20
17.8525
10
9.47765
20
17.8525
10
9.47765
20
17.8175
0
LWPOLYLINE
5
E61D
330
E544
100
AcDbEntity
100
AcDbPolyline
8
CELIK_KIRIS_KOLON
6
ByLayer
62
256
370
-1
90
4
70
1
10
8.92235
20
16.1475
10
8.92235
20
16.1825
10
9.47765
20
16.1825
10
9.47765
20
16.1475
0
LWPOLYLINE
5
E61E
330
E544
100
AcDbEntity
100
AcDbPolyline
8
CELIK_KIRIS_KOLON
6
ByLayer
62
256
370
-1
90
4
70
1
10
8.866499999999998
20
16.39775
10
8.866499999999998
20
16.457749999999997
10
8.891499999999999
20
16.457749999999997
10
8.891499999999999
20
16.39775
0
LWPOLYLINE
5
E61F
330
E544
100
AcDbEntity
100
AcDbPolyline
8
CELIK_KIRIS_KOLON
6
ByLayer
62
256
370
-1
90
4
70
1
10
9.5085
20
16.39775
10
9.5085
20
16.457749999999997
10
9.5335
20
16.457749999999997
10
9.5335
20
16.39775
0
CIRCLE
5
E620
330
E544
100
AcDbEntity
100
AcDbCircle
8
CELIK_KIRIS_KOLON
10
8.879499999999998
20
16.42775
30
0
40
0.006
0
CIRCLE
5
E621
330
E544
100
AcDbEntity
100
AcDbCircle
8
CELIK_KIRIS_KOLON
10
9.5205
20
16.42775
30
0
40
0.006
0
LWPOLYLINE
5
E622
330
E544
100
AcDbEntity
100
AcDbPolyline
8
CELIK_KIRIS_KOLON
6
ByLayer
62
256
370
-1
90
4
70
1
10
8.866499999999998
20
17.54225
10
8.866499999999998
20
17.602249999999998
10
8.891499999999999
20
17.602249999999998
10
8.891499999999999
20
17.54225
0
LWPOLYLINE
5
E623
330
E544
100
AcDbEntity
100
AcDbPolyline
8
CELIK_KIRIS_KOLON
6
ByLayer
62
256
370
-1
90
4
70
1
10
9.5085
20
17.54225
10
9.5085
20
17.602249999999998
10
9.5335
20
17.602249999999998
10
9.5335
20
17.54225
0
CIRCLE
5
E624
330
E544
100
AcDbEntity
100
AcDbCircle
8
CELIK_KIRIS_KOLON
10
8.879499999999998
20
17.57225
30
0
40
0.006
0
CIRCLE
5
E625
330
E544
100
AcDbEntity
100
AcDbCircle
8
CELIK_KIRIS_KOLON
10
9.5205
20
17.57225
30
0
40
0.006
0
LWPOLYLINE
5
E62A
330
E544
100
AcDbEntity
100
AcDbPolyline
8
CELIK_KIRIS_KOLON
6
ByLayer
62
256
370
-1
90
4
70
1
10
7.25
20
18.05
10
7.25
20
18.17
10
9.75
20
18.17
10
9.75
20
18.05
0
TEXT
5
E62B
330
E544
100
AcDbEntity
100
AcDbText
8
CELIK_KIRIS_KOLON
10
8.5
20
18.11
30
0
40
0.045
1
AGIR HIZMET CELIK TRAVERS (120x80x6mm, L=2500mm)
50
0
7
STANDARD
72
1
11
8.5
21
18.11
31
0
100
AcDbText
73
2
0
LINE
5
E64B
330
E544
100
AcDbEntity
100
AcDbLine
8
CELIK_KIRIS_KOLON
10
17.78010267369752
20
17.818210934180485
30
0
11
17.794244809321253
21
17.804068798556752
31
0
0
LINE
5
E64C
330
E544
100
AcDbEntity
100
AcDbLine
8
CELIK_KIRIS_KOLON
10
17.78010267369752
20
17.818210934180485
30
0
11
16.681789065819515
21
16.71989732630248
31
0
0
LINE
5
E64D
330
E544
100
AcDbEntity
100
AcDbLine
8
CELIK_KIRIS_KOLON
10
16.681789065819515
20
16.71989732630248
30
0
11
16.695931201443248
21
16.705755190678747
31
0
0
LINE
5
E651
330
E544
100
AcDbEntity
100
AcDbLine
8
CELIK_KIRIS_KOLON
10
16.99326960293219
20
17.031377863415155
30
0
11
17.063980281050846
21
17.10208854153381
31
0
0
LINE
5
E652
330
E544
100
AcDbEntity
100
AcDbLine
8
CELIK_KIRIS_KOLON
10
17.063980281050846
20
17.10208854153381
30
0
11
16.978278939171034
21
17.159505612166157
31
0
0
LINE
5
E653
330
E544
100
AcDbEntity
100
AcDbLine
8
CELIK_KIRIS_KOLON
10
16.978278939171034
20
17.159505612166157
30
0
11
16.93585253229984
21
17.117079205294964
31
0
0
LINE
5
E654
330
E544
100
AcDbEntity
100
AcDbLine
8
CELIK_KIRIS_KOLON
10
16.93585253229984
20
17.117079205294964
30
0
11
16.99326960293219
21
17.031377863415155
31
0
0
CIRCLE
5
E655
330
E544
100
AcDbEntity
100
AcDbCircle
8
CELIK_KIRIS_KOLON
10
17.00168417362831
20
17.09367397083769
30
0
40
0.0461
0
LINE
5
E656
330
E544
100
AcDbEntity
100
AcDbLine
8
CELIK_KIRIS_KOLON
10
17.39791145846619
20
17.436019718949154
30
0
11
17.468622136584845
21
17.50673039706781
31
0
0
LINE
5
E657
330
E544
100
AcDbEntity
100
AcDbLine
8
CELIK_KIRIS_KOLON
10
17.468622136584845
20
17.50673039706781
30
0
11
17.382920794705036
21
17.56414746770016
31
0
0
LINE
5
E658
330
E544
100
AcDbEntity
100
AcDbLine
8
CELIK_KIRIS_KOLON
10
17.382920794705036
20
17.56414746770016
30
0
11
17.340494387833843
21
17.521721060828966
31
0
0
LINE
5
E659
330
E544
100
AcDbEntity
100
AcDbLine
8
CELIK_KIRIS_KOLON
10
17.340494387833843
20
17.521721060828966
30
0
11
17.39791145846619
21
17.436019718949154
31
0
0
CIRCLE
5
E65A
330
E544
100
AcDbEntity
100
AcDbCircle
8
CELIK_KIRIS_KOLON
10
17.40632602916231
20
17.49831582637169
30
0
40
0.0461
0
LWPOLYLINE
5
E65B
330
E544
100
AcDbEntity
100
AcDbPolyline
8
CELIK_KIRIS_KOLON
6
ByLayer
62
256
370
-1
90
4
70
1
10
16.93168417362831
20
17.03367397083769
10
16.93168417362831
20
17.15367397083769
10
17.07168417362831
20
17.15367397083769
10
17.07168417362831
20
17.03367397083769
0
LWPOLYLINE
5
E65C
330
E544
100
AcDbEntity
100
AcDbPolyline
8
CELIK_KIRIS_KOLON
6
ByLayer
62
256
370
-1
90
4
70
1
10
17.33632602916231
20
17.438315826371692
10
17.33632602916231
20
17.558315826371693
10
17.476326029162312
20
17.558315826371693
10
17.476326029162312
20
17.438315826371692
0
LWPOLYLINE
5
E65F
330
E544
100
AcDbEntity
100
AcDbPolyline
8
CELIK_KIRIS_KOLON
6
ByLayer
62
256
370
-1
90
4
70
1
10
16.92168417362831
20
19.38
10
16.92168417362831
20
19.419999999999998
10
17.486326029162313
20
19.419999999999998
10
17.486326029162313
20
19.38
0
CIRCLE
5
E661
330
E544
100
AcDbEntity
100
AcDbCircle
8
CELIK_KIRIS_KOLON
10
17.20400510139531
20
19.56
30
0
40
0.15500000000000003
0
LWPOLYLINE
5
E662
330
E544
100
AcDbEntity
100
AcDbPolyline
8
CELIK_KIRIS_KOLON
6
ByLayer
62
256
370
-1
90
4
70
1
10
17.00400510139531
20
19.529999999999998
10
17.00400510139531
20
19.589999999999996
10
17.04400510139531
20
19.589999999999996
10
17.04400510139531
20
19.529999999999998
0
LWPOLYLINE
5
E663
330
E544
100
AcDbEntity
100
AcDbPolyline
8
CELIK_KIRIS_KOLON
6
ByLayer
62
256
370
-1
90
4
70
1
10
17.36400510139531
20
19.529999999999998
10
17.36400510139531
20
19.589999999999996
10
17.40400510139531
20
19.589999999999996
10
17.40400510139531
20
19.529999999999998
0
LINE
5
E664
330
E544
100
AcDbEntity
100
AcDbLine
8
CELIK_KIRIS_KOLON
10
17.00168417362831
20
17.19367397083769
30
0
11
17.20400510139531
21
19.419999999999998
31
0
0
LWPOLYLINE
5
E6A1
330
E544
100
AcDbEntity
100
AcDbPolyline
8
CELIK_KIRIS_KOLON
6
ByLayer
62
256
370
-1
90
4
70
1
10
-8.57765
20
9.3175
10
-8.57765
20
9.352500000000001
10
-8.02235
20
9.352500000000001
10
-8.02235
20
9.3175
0
LWPOLYLINE
5
E6A2
330
E544
100
AcDbEntity
100
AcDbPolyline
8
CELIK_KIRIS_KOLON
6
ByLayer
62
256
370
-1
90
4
70
1
10
-8.57765
20
7.6475
10
-8.57765
20
7.6825
10
-8.02235
20
7.6825
10
-8.02235
20
7.6475
0
LWPOLYLINE
5
E6A3
330
E544
100
AcDbEntity
100
AcDbPolyline
8
CELIK_KIRIS_KOLON
6
ByLayer
62
256
370
-1
90
4
70
1
10
-8.633500000000002
20
7.897749999999999
10
-8.633500000000002
20
7.957749999999999
10
-8.608500000000001
20
7.957749999999999
10
-8.608500000000001
20
7.897749999999999
0
LWPOLYLINE
5
E6A4
330
E544
100
AcDbEntity
100
AcDbPolyline
8
CELIK_KIRIS_KOLON
6
ByLayer
62
256
370
-1
90
4
70
1
10
-7.9915
20
7.897749999999999
10
-7.9915
20
7.957749999999999
10
-7.9665
20
7.957749999999999
10
-7.9665
20
7.897749999999999
0
CIRCLE
5
E6A5
330
E544
100
AcDbEntity
100
AcDbCircle
8
CELIK_KIRIS_KOLON
10
-8.620500000000002
20
7.92775
30
0
40
0.006
0
CIRCLE
5
E6A6
330
E544
100
AcDbEntity
100
AcDbCircle
8
CELIK_KIRIS_KOLON
10
-7.979500000000001
20
7.92775
30
0
40
0.006
0
LWPOLYLINE
5
E6A7
330
E544
100
AcDbEntity
100
AcDbPolyline
8
CELIK_KIRIS_KOLON
6
ByLayer
62
256
370
-1
90
4
70
1
10
-8.633500000000002
20
9.042250000000001
10
-8.633500000000002
20
9.102250000000002
10
-8.608500000000001
20
9.102250000000002
10
-8.608500000000001
20
9.042250000000001
0
LWPOLYLINE
5
E6A8
330
E544
100
AcDbEntity
100
AcDbPolyline
8
CELIK_KIRIS_KOLON
6
ByLayer
62
256
370
-1
90
4
70
1
10
-7.9915
20
9.042250000000001
10
-7.9915
20
9.102250000000002
10
-7.9665
20
9.102250000000002
10
-7.9665
20
9.042250000000001
0
CIRCLE
5
E6A9
330
E544
100
AcDbEntity
100
AcDbCircle
8
CELIK_KIRIS_KOLON
10
-8.620500000000002
20
9.07225
30
0
40
0.006
0
CIRCLE
5
E6AA
330
E544
100
AcDbEntity
100
AcDbCircle
8
CELIK_KIRIS_KOLON
10
-7.979500000000001
20
9.07225
30
0
40
0.006
0
LWPOLYLINE
5
E6BF
330
E544
100
AcDbEntity
100
AcDbPolyline
8
CELIK_KIRIS_KOLON
6
ByLayer
62
256
370
-1
90
4
70
1
10
-7.27765
20
9.3175
10
-7.27765
20
9.352500000000001
10
-6.7223500000000005
20
9.352500000000001
10
-6.7223500000000005
20
9.3175
0
LWPOLYLINE
5
E6C0
330
E544
100
AcDbEntity
100
AcDbPolyline
8
CELIK_KIRIS_KOLON
6
ByLayer
62
256
370
-1
90
4
70
1
10
-7.27765
20
7.6475
10
-7.27765
20
7.6825
10
-6.7223500000000005
20
7.6825
10
-6.7223500000000005
20
7.6475
0
LWPOLYLINE
5
E6C1
330
E544
100
AcDbEntity
100
AcDbPolyline
8
CELIK_KIRIS_KOLON
6
ByLayer
62
256
370
-1
90
4
70
1
10
-7.333500000000001
20
7.897749999999999
10
-7.333500000000001
20
7.957749999999999
10
-7.3085
20
7.957749999999999
10
-7.3085
20
7.897749999999999
0
LWPOLYLINE
5
E6C2
330
E544
100
AcDbEntity
100
AcDbPolyline
8
CELIK_KIRIS_KOLON
6
ByLayer
62
256
370
-1
90
4
70
1
10
-6.6915
20
7.897749999999999
10
-6.6915
20
7.957749999999999
10
-6.666499999999999
20
7.957749999999999
10
-6.666499999999999
20
7.897749999999999
0
CIRCLE
5
E6C3
330
E544
100
AcDbEntity
100
AcDbCircle
8
CELIK_KIRIS_KOLON
10
-7.3205
20
7.92775
30
0
40
0.006
0
CIRCLE
5
E6C4
330
E544
100
AcDbEntity
100
AcDbCircle
8
CELIK_KIRIS_KOLON
10
-6.6795
20
7.92775
30
0
40
0.006
0
LWPOLYLINE
5
E6C5
330
E544
100
AcDbEntity
100
AcDbPolyline
8
CELIK_KIRIS_KOLON
6
ByLayer
62
256
370
-1
90
4
70
1
10
-7.333500000000001
20
9.042250000000001
10
-7.333500000000001
20
9.102250000000002
10
-7.3085
20
9.102250000000002
10
-7.3085
20
9.042250000000001
0
LWPOLYLINE
5
E6C6
330
E544
100
AcDbEntity
100
AcDbPolyline
8
CELIK_KIRIS_KOLON
6
ByLayer
62
256
370
-1
90
4
70
1
10
-6.6915
20
9.042250000000001
10
-6.6915
20
9.102250000000002
10
-6.666499999999999
20
9.102250000000002
10
-6.666499999999999
20
9.042250000000001
0
CIRCLE
5
E6C7
330
E544
100
AcDbEntity
100
AcDbCircle
8
CELIK_KIRIS_KOLON
10
-7.3205
20
9.07225
30
0
40
0.006
0
CIRCLE
5
E6C8
330
E544
100
AcDbEntity
100
AcDbCircle
8
CELIK_KIRIS_KOLON
10
-6.6795
20
9.07225
30
0
40
0.006
0
LWPOLYLINE
5
E6DD
330
E544
100
AcDbEntity
100
AcDbPolyline
8
CELIK_KIRIS_KOLON
6
ByLayer
62
256
370
-1
90
4
70
1
10
-5.977650000000001
20
9.3175
10
-5.977650000000001
20
9.352500000000001
10
-5.422350000000001
20
9.352500000000001
10
-5.422350000000001
20
9.3175
0
LWPOLYLINE
5
E6DE
330
E544
100
AcDbEntity
100
AcDbPolyline
8
CELIK_KIRIS_KOLON
6
ByLayer
62
256
370
-1
90
4
70
1
10
-5.977650000000001
20
7.6475
10
-5.977650000000001
20
7.6825
10
-5.422350000000001
20
7.6825
10
-5.422350000000001
20
7.6475
0
LWPOLYLINE
5
E6DF
330
E544
100
AcDbEntity
100
AcDbPolyline
8
CELIK_KIRIS_KOLON
6
ByLayer
62
256
370
-1
90
4
70
1
10
-6.0335
20
7.897749999999999
10
-6.0335
20
7.957749999999999
10
-6.0085
20
7.957749999999999
10
-6.0085
20
7.897749999999999
0
LWPOLYLINE
5
E6E0
330
E544
100
AcDbEntity
100
AcDbPolyline
8
CELIK_KIRIS_KOLON
6
ByLayer
62
256
370
-1
90
4
70
1
10
-5.391500000000001
20
7.897749999999999
10
-5.391500000000001
20
7.957749999999999
10
-5.3665
20
7.957749999999999
10
-5.3665
20
7.897749999999999
0
CIRCLE
5
E6E1
330
E544
100
AcDbEntity
100
AcDbCircle
8
CELIK_KIRIS_KOLON
10
-6.020499999999999
20
7.92775
30
0
40
0.006
0
CIRCLE
5
E6E2
330
E544
100
AcDbEntity
100
AcDbCircle
8
CELIK_KIRIS_KOLON
10
-5.379500000000001
20
7.92775
30
0
40
0.006
0
LWPOLYLINE
5
E6E3
330
E544
100
AcDbEntity
100
AcDbPolyline
8
CELIK_KIRIS_KOLON
6
ByLayer
62
256
370
-1
90
4
70
1
10
-6.0335
20
9.042250000000001
10
-6.0335
20
9.102250000000002
10
-6.0085
20
9.102250000000002
10
-6.0085
20
9.042250000000001
0
LWPOLYLINE
5
E6E4
330
E544
100
AcDbEntity
100
AcDbPolyline
8
CELIK_KIRIS_KOLON
6
ByLayer
62
256
370
-1
90
4
70
1
10
-5.391500000000001
20
9.042250000000001
10
-5.391500000000001
20
9.102250000000002
10
-5.3665
20
9.102250000000002
10
-5.3665
20
9.042250000000001
0
CIRCLE
5
E6E5
330
E544
100
AcDbEntity
100
AcDbCircle
8
CELIK_KIRIS_KOLON
10
-6.020499999999999
20
9.07225
30
0
40
0.006
0
CIRCLE
5
E6E6
330
E544
100
AcDbEntity
100
AcDbCircle
8
CELIK_KIRIS_KOLON
10
-5.379500000000001
20
9.07225
30
0
40
0.006
0
LWPOLYLINE
5
E6EB
330
E544
100
AcDbEntity
100
AcDbPolyline
8
CELIK_KIRIS_KOLON
6
ByLayer
62
256
370
-1
90
4
70
1
10
-8.9
20
9.55
10
-8.9
20
9.690000000000001
10
-5.1
20
9.690000000000001
10
-5.1
20
9.55
0
TEXT
5
E6EC
330
E544
100
AcDbEntity
100
AcDbText
8
CELIK_KIRIS_KOLON
10
-7
20
9.620000000000001
30
0
40
0.045
1
AGIR HIZMET 3'LU KAFES TRAVERS (140x100x8mm, L=3800mm)
50
0
7
STANDARD
72
1
11
-7
21
9.620000000000001
31
0
100
AcDbText
73
2
0
LINE
5
E6ED
330
E544
100
AcDbEntity
100
AcDbLine
8
CELIK_KIRIS_KOLON
10
-8.8
20
9.690000000000001
30
0
11
-8.3
21
10.75
31
0
0
LINE
5
E6EE
330
E544
100
AcDbEntity
100
AcDbLine
8
CELIK_KIRIS_KOLON
10
-5.199999999999999
20
9.690000000000001
30
0
11
-5.7
21
10.75
31
0
0
LWPOLYLINE
5
E70B
330
E544
100
AcDbEntity
100
AcDbPolyline
8
CELIK_KIRIS_KOLON
6
ByLayer
62
256
370
-1
90
4
70
1
10
2.717952442945597
20
8.388493078246842
10
2.717952442945597
20
8.412493078246841
10
2.867952442945597
20
8.412493078246841
10
2.867952442945597
20
8.388493078246842
0
CIRCLE
5
E70C
330
E544
100
AcDbEntity
100
AcDbCircle
8
CELIK_KIRIS_KOLON
10
2.737952442945597
20
8.400493078246843
30
0
40
0.006
0
CIRCLE
5
E70D
330
E544
100
AcDbEntity
100
AcDbCircle
8
CELIK_KIRIS_KOLON
10
2.8479524429455974
20
8.400493078246843
30
0
40
0.006
0
LWPOLYLINE
5
E72D
330
E544
100
AcDbEntity
100
AcDbPolyline
8
CELIK_KIRIS_KOLON
6
ByLayer
62
256
370
-1
90
4
70
1
10
3.925
20
8.074399999999999
10
3.925
20
8.098399999999998
10
4.075
20
8.098399999999998
10
4.075
20
8.074399999999999
0
CIRCLE
5
E72E
330
E544
100
AcDbEntity
100
AcDbCircle
8
CELIK_KIRIS_KOLON
10
3.945
20
8.0864
30
0
40
0.006
0
CIRCLE
5
E72F
330
E544
100
AcDbEntity
100
AcDbCircle
8
CELIK_KIRIS_KOLON
10
4.055
20
8.0864
30
0
40
0.006
0
LWPOLYLINE
5
E74F
330
E544
100
AcDbEntity
100
AcDbPolyline
8
CELIK_KIRIS_KOLON
6
ByLayer
62
256
370
-1
90
4
70
1
10
5.132047557054402
20
8.388493078246842
10
5.132047557054402
20
8.412493078246841
10
5.282047557054402
20
8.412493078246841
10
5.282047557054402
20
8.388493078246842
0
CIRCLE
5
E750
330
E544
100
AcDbEntity
100
AcDbCircle
8
CELIK_KIRIS_KOLON
10
5.152047557054402
20
8.400493078246843
30
0
40
0.006
0
CIRCLE
5
E751
330
E544
100
AcDbEntity
100
AcDbCircle
8
CELIK_KIRIS_KOLON
10
5.262047557054402
20
8.400493078246843
30
0
40
0.006
0
LINE
5
E774
330
E544
100
AcDbEntity
100
AcDbLine
8
CELIK_KIRIS_KOLON
10
-13.71989732630248
20
0.818210934180484
30
0
11
-13.705755190678747
21
0.804068798556753
31
0
0
LINE
5
E775
330
E544
100
AcDbEntity
100
AcDbLine
8
CELIK_KIRIS_KOLON
10
-13.71989732630248
20
0.818210934180484
30
0
11
-14.818210934180485
21
-0.28010267369752123
31
0
0
LINE
5
E776
330
E544
100
AcDbEntity
100
AcDbLine
8
CELIK_KIRIS_KOLON
10
-14.818210934180485
20
-0.28010267369752123
30
0
11
-14.804068798556752
21
-0.29424480932125224
31
0
0
LINE
5
E77A
330
E544
100
AcDbEntity
100
AcDbLine
8
CELIK_KIRIS_KOLON
10
-14.50673039706781
20
0.03137786341515306
30
0
11
-14.436019718949156
21
0.10208854153380781
31
0
0
LINE
5
E77B
330
E544
100
AcDbEntity
100
AcDbLine
8
CELIK_KIRIS_KOLON
10
-14.436019718949156
20
0.10208854153380781
30
0
11
-14.521721060828964
21
0.15950561216615547
31
0
0
LINE
5
E77C
330
E544
100
AcDbEntity
100
AcDbLine
8
CELIK_KIRIS_KOLON
10
-14.521721060828964
20
0.15950561216615547
30
0
11
-14.564147467700158
21
0.11707920529496257
31
0
0
LINE
5
E77D
330
E544
100
AcDbEntity
100
AcDbLine
8
CELIK_KIRIS_KOLON
10
-14.564147467700158
20
0.11707920529496257
30
0
11
-14.50673039706781
21
0.03137786341515306
31
0
0
CIRCLE
5
E77E
330
E544
100
AcDbEntity
100
AcDbCircle
8
CELIK_KIRIS_KOLON
10
-14.498315826371691
20
0.09367397083768791
30
0
40
0.0461
0
LINE
5
E77F
330
E544
100
AcDbEntity
100
AcDbLine
8
CELIK_KIRIS_KOLON
10
-14.102088541533808
20
0.43601971894915487
30
0
11
-14.031377863415154
21
0.5067303970678096
31
0
0
LINE
5
E780
330
E544
100
AcDbEntity
100
AcDbLine
8
CELIK_KIRIS_KOLON
10
-14.031377863415154
20
0.5067303970678096
30
0
11
-14.117079205294962
21
0.5641474677001572
31
0
0
LINE
5
E781
330
E544
100
AcDbEntity
100
AcDbLine
8
CELIK_KIRIS_KOLON
10
-14.117079205294962
20
0.5641474677001572
30
0
11
-14.159505612166155
21
0.5217210608289644
31
0
0
LINE
5
E782
330
E544
100
AcDbEntity
100
AcDbLine
8
CELIK_KIRIS_KOLON
10
-14.159505612166155
20
0.5217210608289644
30
0
11
-14.102088541533808
21
0.43601971894915487
31
0
0
CIRCLE
5
E783
330
E544
100
AcDbEntity
100
AcDbCircle
8
CELIK_KIRIS_KOLON
10
-14.093673970837688
20
0.4983158263716897
30
0
40
0.0461
0
LWPOLYLINE
5
E784
330
E544
100
AcDbEntity
100
AcDbPolyline
8
CELIK_KIRIS_KOLON
6
ByLayer
62
256
370
-1
90
4
70
1
10
-14.568315826371691
20
0.03367397083768792
10
-14.568315826371691
20
0.1536739708376879
10
-14.42831582637169
20
0.1536739708376879
10
-14.42831582637169
20
0.03367397083768792
0
LWPOLYLINE
5
E785
330
E544
100
AcDbEntity
100
AcDbPolyline
8
CELIK_KIRIS_KOLON
6
ByLayer
62
256
370
-1
90
4
70
1
10
-14.163673970837689
20
0.4383158263716897
10
-14.163673970837689
20
0.5583158263716896
10
-14.023673970837688
20
0.5583158263716896
10
-14.023673970837688
20
0.4383158263716897
0
LWPOLYLINE
5
E788
330
E544
100
AcDbEntity
100
AcDbPolyline
8
CELIK_KIRIS_KOLON
6
ByLayer
62
256
370
-1
90
4
70
1
10
-14.578315826371691
20
2.38
10
-14.578315826371691
20
2.42
10
-14.013673970837688
20
2.42
10
-14.013673970837688
20
2.38
0
CIRCLE
5
E78A
330
E544
100
AcDbEntity
100
AcDbCircle
8
CELIK_KIRIS_KOLON
10
-14.29599489860469
20
2.56
30
0
40
0.15500000000000003
0
LWPOLYLINE
5
E78B
330
E544
100
AcDbEntity
100
AcDbPolyline
8
CELIK_KIRIS_KOLON
6
ByLayer
62
256
370
-1
90
4
70
1
10
-14.49599489860469
20
2.5300000000000002
10
-14.49599489860469
20
2.5900000000000003
10
-14.455994898604692
20
2.5900000000000003
10
-14.455994898604692
20
2.5300000000000002
0
LWPOLYLINE
5
E78C
330
E544
100
AcDbEntity
100
AcDbPolyline
8
CELIK_KIRIS_KOLON
6
ByLayer
62
256
370
-1
90
4
70
1
10
-14.13599489860469
20
2.5300000000000002
10
-14.13599489860469
20
2.5900000000000003
10
-14.09599489860469
20
2.5900000000000003
10
-14.09599489860469
20
2.5300000000000002
0
LINE
5
E78D
330
E544
100
AcDbEntity
100
AcDbLine
8
CELIK_KIRIS_KOLON
10
-14.498315826371691
20
0.19367397083768792
30
0
11
-14.29599489860469
21
2.42
31
0
0
LINE
5
E7C3
330
E544
100
AcDbEntity
100
AcDbLine
8
CELIK_KIRIS_KOLON
10
-3.719897326302479
20
0.818210934180484
30
0
11
-3.7057551906787483
21
0.804068798556753
31
0
0
LINE
5
E7C4
330
E544
100
AcDbEntity
100
AcDbLine
8
CELIK_KIRIS_KOLON
10
-3.719897326302479
20
0.818210934180484
30
0
11
-4.818210934180484
21
-0.28010267369752123
31
0
0
LINE
5
E7C5
330
E544
100
AcDbEntity
100
AcDbLine
8
CELIK_KIRIS_KOLON
10
-4.818210934180484
20
-0.28010267369752123
30
0
11
-4.804068798556753
21
-0.29424480932125224
31
0
0
LINE
5
E7C9
330
E544
100
AcDbEntity
100
AcDbLine
8
CELIK_KIRIS_KOLON
10
-4.50673039706781
20
0.03137786341515306
30
0
11
-4.436019718949154
21
0.10208854153380781
31
0
0
LINE
5
E7CA
330
E544
100
AcDbEntity
100
AcDbLine
8
CELIK_KIRIS_KOLON
10
-4.436019718949154
20
0.10208854153380781
30
0
11
-4.521721060828964
21
0.15950561216615547
31
0
0
LINE
5
E7CB
330
E544
100
AcDbEntity
100
AcDbLine
8
CELIK_KIRIS_KOLON
10
-4.521721060828964
20
0.15950561216615547
30
0
11
-4.564147467700157
21
0.11707920529496257
31
0
0
LINE
5
E7CC
330
E544
100
AcDbEntity
100
AcDbLine
8
CELIK_KIRIS_KOLON
10
-4.564147467700157
20
0.11707920529496257
30
0
11
-4.50673039706781
21
0.03137786341515306
31
0
0
CIRCLE
5
E7CD
330
E544
100
AcDbEntity
100
AcDbCircle
8
CELIK_KIRIS_KOLON
10
-4.49831582637169
20
0.09367397083768791
30
0
40
0.0461
0
LINE
5
E7CE
330
E544
100
AcDbEntity
100
AcDbLine
8
CELIK_KIRIS_KOLON
10
-4.102088541533808
20
0.43601971894915487
30
0
11
-4.031377863415153
21
0.5067303970678096
31
0
0
LINE
5
E7CF
330
E544
100
AcDbEntity
100
AcDbLine
8
CELIK_KIRIS_KOLON
10
-4.031377863415153
20
0.5067303970678096
30
0
11
-4.117079205294963
21
0.5641474677001572
31
0
0
LINE
5
E7D0
330
E544
100
AcDbEntity
100
AcDbLine
8
CELIK_KIRIS_KOLON
10
-4.117079205294963
20
0.5641474677001572
30
0
11
-4.159505612166155
21
0.5217210608289644
31
0
0
LINE
5
E7D1
330
E544
100
AcDbEntity
100
AcDbLine
8
CELIK_KIRIS_KOLON
10
-4.159505612166155
20
0.5217210608289644
30
0
11
-4.102088541533808
21
0.43601971894915487
31
0
0
CIRCLE
5
E7D2
330
E544
100
AcDbEntity
100
AcDbCircle
8
CELIK_KIRIS_KOLON
10
-4.0936739708376875
20
0.4983158263716897
30
0
40
0.0461
0
LWPOLYLINE
5
E7D3
330
E544
100
AcDbEntity
100
AcDbPolyline
8
CELIK_KIRIS_KOLON
6
ByLayer
62
256
370
-1
90
4
70
1
10
-4.56831582637169
20
0.03367397083768792
10
-4.56831582637169
20
0.1536739708376879
10
-4.428315826371691
20
0.1536739708376879
10
-4.428315826371691
20
0.03367397083768792
0
LWPOLYLINE
5
E7D4
330
E544
100
AcDbEntity
100
AcDbPolyline
8
CELIK_KIRIS_KOLON
6
ByLayer
62
256
370
-1
90
4
70
1
10
-4.163673970837688
20
0.4383158263716897
10
-4.163673970837688
20
0.5583158263716896
10
-4.023673970837688
20
0.5583158263716896
10
-4.023673970837688
20
0.4383158263716897
0
LWPOLYLINE
5
E7D7
330
E544
100
AcDbEntity
100
AcDbPolyline
8
CELIK_KIRIS_KOLON
6
ByLayer
62
256
370
-1
90
4
70
1
10
-4.57831582637169
20
2.38
10
-4.57831582637169
20
2.42
10
-4.013673970837687
20
2.42
10
-4.013673970837687
20
2.38
0
CIRCLE
5
E7D9
330
E544
100
AcDbEntity
100
AcDbCircle
8
CELIK_KIRIS_KOLON
10
-4.64831582637169
20
3.15
30
0
40
0.795
0
LWPOLYLINE
5
E7DB
330
E544
100
AcDbEntity
100
AcDbPolyline
8
CELIK_KIRIS_KOLON
6
ByLayer
62
256
370
-1
90
4
70
1
10
-4.49831582637169
20
0.46331582637168967
10
-4.49831582637169
20
0.5333158263716897
10
-4.023673970837687
20
0.5333158263716897
10
-4.023673970837687
20
0.46331582637168967
0
LINE
5
E812
330
E544
100
AcDbEntity
100
AcDbLine
8
CELIK_KIRIS_KOLON
10
6.280102673697521
20
0.818210934180484
30
0
11
6.294244809321252
21
0.804068798556753
31
0
0
LINE
5
E813
330
E544
100
AcDbEntity
100
AcDbLine
8
CELIK_KIRIS_KOLON
10
6.280102673697521
20
0.818210934180484
30
0
11
5.181789065819516
21
-0.28010267369752123
31
0
0
LINE
5
E814
330
E544
100
AcDbEntity
100
AcDbLine
8
CELIK_KIRIS_KOLON
10
5.181789065819516
20
-0.28010267369752123
30
0
11
5.195931201443247
21
-0.29424480932125224
31
0
0
LINE
5
E818
330
E544
100
AcDbEntity
100
AcDbLine
8
CELIK_KIRIS_KOLON
10
5.49326960293219
20
0.03137786341515306
30
0
11
5.563980281050846
21
0.10208854153380781
31
0
0
LINE
5
E819
330
E544
100
AcDbEntity
100
AcDbLine
8
CELIK_KIRIS_KOLON
10
5.563980281050846
20
0.10208854153380781
30
0
11
5.478278939171036
21
0.15950561216615547
31
0
0
LINE
5
E81A
330
E544
100
AcDbEntity
100
AcDbLine
8
CELIK_KIRIS_KOLON
10
5.478278939171036
20
0.15950561216615547
30
0
11
5.435852532299843
21
0.11707920529496257
31
0
0
LINE
5
E81B
330
E544
100
AcDbEntity
100
AcDbLine
8
CELIK_KIRIS_KOLON
10
5.435852532299843
20
0.11707920529496257
30
0
11
5.49326960293219
21
0.03137786341515306
31
0
0
CIRCLE
5
E81C
330
E544
100
AcDbEntity
100
AcDbCircle
8
CELIK_KIRIS_KOLON
10
5.50168417362831
20
0.09367397083768791
30
0
40
0.0461
0
LINE
5
E81D
330
E544
100
AcDbEntity
100
AcDbLine
8
CELIK_KIRIS_KOLON
10
5.897911458466192
20
0.43601971894915487
30
0
11
5.968622136584847
21
0.5067303970678096
31
0
0
LINE
5
E81E
330
E544
100
AcDbEntity
100
AcDbLine
8
CELIK_KIRIS_KOLON
10
5.968622136584847
20
0.5067303970678096
30
0
11
5.882920794705037
21
0.5641474677001572
31
0
0
LINE
5
E81F
330
E544
100
AcDbEntity
100
AcDbLine
8
CELIK_KIRIS_KOLON
10
5.882920794705037
20
0.5641474677001572
30
0
11
5.840494387833845
21
0.5217210608289644
31
0
0
LINE
5
E820
330
E544
100
AcDbEntity
100
AcDbLine
8
CELIK_KIRIS_KOLON
10
5.840494387833845
20
0.5217210608289644
30
0
11
5.897911458466192
21
0.43601971894915487
31
0
0
CIRCLE
5
E821
330
E544
100
AcDbEntity
100
AcDbCircle
8
CELIK_KIRIS_KOLON
10
5.9063260291623125
20
0.4983158263716897
30
0
40
0.0461
0
LWPOLYLINE
5
E822
330
E544
100
AcDbEntity
100
AcDbPolyline
8
CELIK_KIRIS_KOLON
6
ByLayer
62
256
370
-1
90
4
70
1
10
5.43168417362831
20
0.03367397083768792
10
5.43168417362831
20
0.1536739708376879
10
5.571684173628309
20
0.1536739708376879
10
5.571684173628309
20
0.03367397083768792
0
LWPOLYLINE
5
E823
330
E544
100
AcDbEntity
100
AcDbPolyline
8
CELIK_KIRIS_KOLON
6
ByLayer
62
256
370
-1
90
4
70
1
10
5.836326029162312
20
0.4383158263716897
10
5.836326029162312
20
0.5583158263716896
10
5.976326029162312
20
0.5583158263716896
10
5.976326029162312
20
0.4383158263716897
0
LWPOLYLINE
5
E826
330
E544
100
AcDbEntity
100
AcDbPolyline
8
CELIK_KIRIS_KOLON
6
ByLayer
62
256
370
-1
90
4
70
1
10
5.42168417362831
20
2.38
10
5.42168417362831
20
2.42
10
5.986326029162313
20
2.42
10
5.986326029162313
20
2.38
0
LINE
5
E82A
330
E544
100
AcDbEntity
100
AcDbLine
8
CELIK_KIRIS_KOLON
10
5.74168417362831
20
2.045
30
0
11
5.74168417362831
21
3.145
31
0
0
LINE
5
E82B
330
E544
100
AcDbEntity
100
AcDbLine
8
CELIK_KIRIS_KOLON
10
4.86168417362831
20
2.045
30
0
11
4.86168417362831
21
3.145
31
0
0
LINE
5
E82C
330
E544
100
AcDbEntity
100
AcDbLine
8
CELIK_KIRIS_KOLON
10
4.86168417362831
20
3.145
30
0
11
5.74168417362831
21
3.145
31
0
0
LINE
5
E82D
330
E544
100
AcDbEntity
100
AcDbLine
8
CELIK_KIRIS_KOLON
10
4.86168417362831
20
2.5949999999999998
30
0
11
5.74168417362831
21
2.5949999999999998
31
0
0
LWPOLYLINE
5
E55D
330
E544
100
AcDbEntity
100
AcDbPolyline
8
MONTAJ_BORULARI
6
ByLayer
62
256
370
-1
90
4
70
1
10
-18.0381
20
16.1
10
-18.0381
20
17.900000000000002
10
-17.9619
20
17.900000000000002
10
-17.9619
20
16.1
0
LINE
5
E55E
330
E544
100
AcDbEntity
100
AcDbLine
8
MONTAJ_BORULARI
10
-18
20
16
30
0
11
-18
21
18
31
0
0
LINE
5
E589
330
E544
100
AcDbEntity
100
AcDbLine
8
MONTAJ_BORULARI
10
-11.66209134694048
20
17.876016913542486
30
0
11
-12.876016913542484
21
16.66209134694048
31
0
0
LINE
5
E58A
330
E544
100
AcDbEntity
100
AcDbLine
8
MONTAJ_BORULARI
10
-11.715972883666895
20
17.9298984502689
30
0
11
-12.9298984502689
21
16.715972883666893
31
0
0
LINE
5
E58B
330
E544
100
AcDbEntity
100
AcDbLine
8
MONTAJ_BORULARI
10
-11.689032115303688
20
17.902957681905693
30
0
11
-12.902957681905692
21
16.689032115303686
31
0
0
LWPOLYLINE
5
E598
330
E544
100
AcDbEntity
100
AcDbPolyline
8
MONTAJ_BORULARI
6
ByLayer
62
256
370
-1
90
4
70
1
10
-12.533315826371691
20
17.09367397083769
10
-12.533315826371691
20
19.4
10
-12.46331582637169
20
19.4
10
-12.46331582637169
20
17.09367397083769
0
LWPOLYLINE
5
E599
330
E544
100
AcDbEntity
100
AcDbPolyline
8
MONTAJ_BORULARI
6
ByLayer
62
256
370
-1
90
4
70
1
10
-12.128673970837689
20
17.49831582637169
10
-12.128673970837689
20
19.4
10
-12.058673970837688
20
19.4
10
-12.058673970837688
20
17.49831582637169
0
CIRCLE
5
E59B
330
E544
100
AcDbEntity
100
AcDbCircle
8
MONTAJ_BORULARI
10
-12.29599489860469
20
19.56
30
0
40
0.14
0
CIRCLE
5
E5D3
330
E544
100
AcDbEntity
100
AcDbCircle
8
MONTAJ_BORULARI
10
-6
20
16.5864
30
0
40
0.0381
0
LWPOLYLINE
5
E5EE
330
E544
100
AcDbEntity
100
AcDbPolyline
8
MONTAJ_BORULARI
6
ByLayer
62
256
370
-1
90
4
70
1
10
7.7619
20
16.1
10
7.7619
20
17.900000000000002
10
7.8381
20
17.900000000000002
10
7.8381
20
16.1
0
LINE
5
E5EF
330
E544
100
AcDbEntity
100
AcDbLine
8
MONTAJ_BORULARI
10
7.8
20
16
30
0
11
7.8
21
18
31
0
0
LWPOLYLINE
5
E60C
330
E544
100
AcDbEntity
100
AcDbPolyline
8
MONTAJ_BORULARI
6
ByLayer
62
256
370
-1
90
4
70
1
10
9.1619
20
16.1
10
9.1619
20
17.900000000000002
10
9.2381
20
17.900000000000002
10
9.2381
20
16.1
0
LINE
5
E60D
330
E544
100
AcDbEntity
100
AcDbLine
8
MONTAJ_BORULARI
10
9.2
20
16
30
0
11
9.2
21
18
31
0
0
LINE
5
E64E
330
E544
100
AcDbEntity
100
AcDbLine
8
MONTAJ_BORULARI
10
17.83790865305952
20
17.876016913542486
30
0
11
16.623983086457514
21
16.66209134694048
31
0
0
LINE
5
E64F
330
E544
100
AcDbEntity
100
AcDbLine
8
MONTAJ_BORULARI
10
17.784027116333107
20
17.9298984502689
30
0
11
16.5701015497311
21
16.715972883666893
31
0
0
LINE
5
E650
330
E544
100
AcDbEntity
100
AcDbLine
8
MONTAJ_BORULARI
10
17.810967884696314
20
17.902957681905693
30
0
11
16.597042318094307
21
16.689032115303686
31
0
0
LWPOLYLINE
5
E65D
330
E544
100
AcDbEntity
100
AcDbPolyline
8
MONTAJ_BORULARI
6
ByLayer
62
256
370
-1
90
4
70
1
10
16.96668417362831
20
17.09367397083769
10
16.96668417362831
20
19.4
10
17.03668417362831
20
19.4
10
17.03668417362831
20
17.09367397083769
0
LWPOLYLINE
5
E65E
330
E544
100
AcDbEntity
100
AcDbPolyline
8
MONTAJ_BORULARI
6
ByLayer
62
256
370
-1
90
4
70
1
10
17.37132602916231
20
17.49831582637169
10
17.37132602916231
20
19.4
10
17.441326029162312
20
19.4
10
17.441326029162312
20
17.49831582637169
0
CIRCLE
5
E660
330
E544
100
AcDbEntity
100
AcDbCircle
8
MONTAJ_BORULARI
10
17.20400510139531
20
19.56
30
0
40
0.14
0
LWPOLYLINE
5
E691
330
E544
100
AcDbEntity
100
AcDbPolyline
8
MONTAJ_BORULARI
6
ByLayer
62
256
370
-1
90
4
70
1
10
-8.3381
20
7.6
10
-8.3381
20
9.4
10
-8.2619
20
9.4
10
-8.2619
20
7.6
0
LINE
5
E692
330
E544
100
AcDbEntity
100
AcDbLine
8
MONTAJ_BORULARI
10
-8.3
20
7.5
30
0
11
-8.3
21
9.5
31
0
0
LWPOLYLINE
5
E6AF
330
E544
100
AcDbEntity
100
AcDbPolyline
8
MONTAJ_BORULARI
6
ByLayer
62
256
370
-1
90
4
70
1
10
-7.0381
20
7.6
10
-7.0381
20
9.4
10
-6.9619
20
9.4
10
-6.9619
20
7.6
0
LINE
5
E6B0
330
E544
100
AcDbEntity
100
AcDbLine
8
MONTAJ_BORULARI
10
-7
20
7.5
30
0
11
-7
21
9.5
31
0
0
LWPOLYLINE
5
E6CD
330
E544
100
AcDbEntity
100
AcDbPolyline
8
MONTAJ_BORULARI
6
ByLayer
62
256
370
-1
90
4
70
1
10
-5.7381
20
7.6
10
-5.7381
20
9.4
10
-5.6619
20
9.4
10
-5.6619
20
7.6
0
LINE
5
E6CE
330
E544
100
AcDbEntity
100
AcDbLine
8
MONTAJ_BORULARI
10
-5.7
20
7.5
30
0
11
-5.7
21
9.5
31
0
0
CIRCLE
5
E70A
330
E544
100
AcDbEntity
100
AcDbCircle
8
MONTAJ_BORULARI
10
2.792952442945597
20
8.400493078246843
30
0
40
0.0381
0
CIRCLE
5
E72C
330
E544
100
AcDbEntity
100
AcDbCircle
8
MONTAJ_BORULARI
10
4
20
8.0864
30
0
40
0.0381
0
CIRCLE
5
E74E
330
E544
100
AcDbEntity
100
AcDbCircle
8
MONTAJ_BORULARI
10
5.207047557054402
20
8.400493078246843
30
0
40
0.0381
0
LINE
5
E777
330
E544
100
AcDbEntity
100
AcDbLine
8
MONTAJ_BORULARI
10
-13.66209134694048
20
0.876016913542484
30
0
11
-14.876016913542484
21
-0.3379086530595214
31
0
0
LINE
5
E778
330
E544
100
AcDbEntity
100
AcDbLine
8
MONTAJ_BORULARI
10
-13.715972883666895
20
0.929898450268899
30
0
11
-14.9298984502689
21
-0.2840271163331065
31
0
0
LINE
5
E779
330
E544
100
AcDbEntity
100
AcDbLine
8
MONTAJ_BORULARI
10
-13.689032115303688
20
0.9029576819056915
30
0
11
-14.902957681905692
21
-0.3109678846963139
31
0
0
LWPOLYLINE
5
E786
330
E544
100
AcDbEntity
100
AcDbPolyline
8
MONTAJ_BORULARI
6
ByLayer
62
256
370
-1
90
4
70
1
10
-14.533315826371691
20
0.09367397083768791
10
-14.533315826371691
20
2.4
10
-14.46331582637169
20
2.4
10
-14.46331582637169
20
0.09367397083768791
0
LWPOLYLINE
5
E787
330
E544
100
AcDbEntity
100
AcDbPolyline
8
MONTAJ_BORULARI
6
ByLayer
62
256
370
-1
90
4
70
1
10
-14.128673970837689
20
0.4983158263716897
10
-14.128673970837689
20
2.4
10
-14.058673970837688
20
2.4
10
-14.058673970837688
20
0.4983158263716897
0
CIRCLE
5
E789
330
E544
100
AcDbEntity
100
AcDbCircle
8
MONTAJ_BORULARI
10
-14.29599489860469
20
2.56
30
0
40
0.14
0
LINE
5
E7C6
330
E544
100
AcDbEntity
100
AcDbLine
8
MONTAJ_BORULARI
10
-3.6620913469404783
20
0.876016913542484
30
0
11
-4.876016913542484
21
-0.3379086530595214
31
0
0
LINE
5
E7C7
330
E544
100
AcDbEntity
100
AcDbLine
8
MONTAJ_BORULARI
10
-3.7159728836668933
20
0.929898450268899
30
0
11
-4.929898450268899
21
-0.2840271163331065
31
0
0
LINE
5
E7C8
330
E544
100
AcDbEntity
100
AcDbLine
8
MONTAJ_BORULARI
10
-3.689032115303686
20
0.9029576819056915
30
0
11
-4.902957681905692
21
-0.3109678846963139
31
0
0
LWPOLYLINE
5
E7D5
330
E544
100
AcDbEntity
100
AcDbPolyline
8
MONTAJ_BORULARI
6
ByLayer
62
256
370
-1
90
4
70
1
10
-4.53331582637169
20
0.09367397083768791
10
-4.53331582637169
20
2.4
10
-4.46331582637169
20
2.4
10
-4.46331582637169
20
0.09367397083768791
0
LWPOLYLINE
5
E7D6
330
E544
100
AcDbEntity
100
AcDbPolyline
8
MONTAJ_BORULARI
6
ByLayer
62
256
370
-1
90
4
70
1
10
-4.128673970837688
20
0.4983158263716897
10
-4.128673970837688
20
2.4
10
-4.058673970837687
20
2.4
10
-4.058673970837687
20
0.4983158263716897
0
CIRCLE
5
E7D8
330
E544
100
AcDbEntity
100
AcDbCircle
8
MONTAJ_BORULARI
10
-4.64831582637169
20
3.15
30
0
40
0.75
0
LWPOLYLINE
5
E7DA
330
E544
100
AcDbEntity
100
AcDbPolyline
8
MONTAJ_BORULARI
6
ByLayer
62
256
370
-1
90
4
70
1
10
-4.55531582637169
20
0.013673970837687913
10
-4.55531582637169
20
2.4
10
-4.4413158263716905
20
2.4
10
-4.4413158263716905
20
0.013673970837687913
0
LINE
5
E815
330
E544
100
AcDbEntity
100
AcDbLine
8
MONTAJ_BORULARI
10
6.337908653059522
20
0.876016913542484
30
0
11
5.123983086457516
21
-0.3379086530595214
31
0
0
LINE
5
E816
330
E544
100
AcDbEntity
100
AcDbLine
8
MONTAJ_BORULARI
10
6.284027116333107
20
0.929898450268899
30
0
11
5.070101549731101
21
-0.2840271163331065
31
0
0
LINE
5
E817
330
E544
100
AcDbEntity
100
AcDbLine
8
MONTAJ_BORULARI
10
6.310967884696314
20
0.9029576819056915
30
0
11
5.097042318094308
21
-0.3109678846963139
31
0
0
LWPOLYLINE
5
E824
330
E544
100
AcDbEntity
100
AcDbPolyline
8
MONTAJ_BORULARI
6
ByLayer
62
256
370
-1
90
4
70
1
10
5.46668417362831
20
0.09367397083768791
10
5.46668417362831
20
2.4
10
5.53668417362831
20
2.4
10
5.53668417362831
20
0.09367397083768791
0
LWPOLYLINE
5
E825
330
E544
100
AcDbEntity
100
AcDbPolyline
8
MONTAJ_BORULARI
6
ByLayer
62
256
370
-1
90
4
70
1
10
5.871326029162312
20
0.4983158263716897
10
5.871326029162312
20
2.4
10
5.941326029162313
20
2.4
10
5.941326029162313
20
0.4983158263716897
0
CIRCLE
5
E82E
330
E544
100
AcDbEntity
100
AcDbCircle
8
MONTAJ_BORULARI
10
5.12168417362831
20
1.7
30
0
40
0.2285
0
CIRCLE
5
E82F
330
E544
100
AcDbEntity
100
AcDbCircle
8
MONTAJ_BORULARI
10
5.12168417362831
20
1.7
30
0
40
0.2435
0
LWPOLYLINE
5
E830
330
E544
100
AcDbEntity
100
AcDbPolyline
8
MONTAJ_BORULARI
6
ByLayer
62
256
370
-1
90
4
70
1
10
5.46668417362831
20
0.09367397083768791
10
5.46668417362831
20
2
10
5.53668417362831
20
2
10
5.53668417362831
20
0.09367397083768791
0
LWPOLYLINE
5
E831
330
E544
100
AcDbEntity
100
AcDbPolyline
8
MONTAJ_BORULARI
6
ByLayer
62
256
370
-1
90
4
70
1
10
5.871326029162312
20
0.4983158263716897
10
5.871326029162312
20
2
10
5.941326029162313
20
2
10
5.941326029162313
20
0.4983158263716897
0
CIRCLE
5
E5A3
330
E544
100
AcDbEntity
100
AcDbCircle
8
KABLO_TAVALARI
10
-12.429567369570826
20
16.967119534674826
30
0
40
0.01
0
LINE
5
E5A4
330
E544
100
AcDbEntity
100
AcDbLine
8
KABLO_TAVALARI
10
-12.429567369570826
20
16.967119534674826
30
0
11
-12.489567369570826
21
16.887119534674827
31
0
0
LINE
5
E5A5
330
E544
100
AcDbEntity
100
AcDbLine
8
KABLO_TAVALARI
10
-12.489567369570826
20
16.887119534674827
30
0
11
-12.578315826371691
21
17.09367397083769
31
0
0
CIRCLE
5
E5A6
330
E544
100
AcDbEntity
100
AcDbCircle
8
KABLO_TAVALARI
10
-12.358856691452173
20
17.00954594154602
30
0
40
0.01
0
LINE
5
E5A7
330
E544
100
AcDbEntity
100
AcDbLine
8
KABLO_TAVALARI
10
-12.358856691452173
20
17.00954594154602
30
0
11
-12.418856691452174
21
16.92954594154602
31
0
0
LINE
5
E5A8
330
E544
100
AcDbEntity
100
AcDbLine
8
KABLO_TAVALARI
10
-12.418856691452174
20
16.92954594154602
30
0
11
-12.578315826371691
21
17.14367397083769
31
0
0
CIRCLE
5
E5A9
330
E544
100
AcDbEntity
100
AcDbCircle
8
KABLO_TAVALARI
10
-12.288146013333519
20
17.05197234841721
30
0
40
0.01
0
LINE
5
E5AA
330
E544
100
AcDbEntity
100
AcDbLine
8
KABLO_TAVALARI
10
-12.288146013333519
20
17.05197234841721
30
0
11
-12.348146013333519
21
16.97197234841721
31
0
0
LINE
5
E5AB
330
E544
100
AcDbEntity
100
AcDbLine
8
KABLO_TAVALARI
10
-12.348146013333519
20
16.97197234841721
30
0
11
-12.578315826371691
21
17.19367397083769
31
0
0
CIRCLE
5
E5AC
330
E544
100
AcDbEntity
100
AcDbCircle
8
KABLO_TAVALARI
10
-12.217435335214864
20
17.094398755288406
30
0
40
0.01
0
LINE
5
E5AD
330
E544
100
AcDbEntity
100
AcDbLine
8
KABLO_TAVALARI
10
-12.217435335214864
20
17.094398755288406
30
0
11
-12.277435335214864
21
17.014398755288408
31
0
0
LINE
5
E5AE
330
E544
100
AcDbEntity
100
AcDbLine
8
KABLO_TAVALARI
10
-12.277435335214864
20
17.014398755288408
30
0
11
-12.578315826371691
21
17.243673970837687
31
0
0
CIRCLE
5
E5AF
330
E544
100
AcDbEntity
100
AcDbCircle
8
KABLO_TAVALARI
10
-12.14672465709621
20
17.136825162159596
30
0
40
0.01
0
LINE
5
E5B0
330
E544
100
AcDbEntity
100
AcDbLine
8
KABLO_TAVALARI
10
-12.14672465709621
20
17.136825162159596
30
0
11
-12.20672465709621
21
17.056825162159598
31
0
0
LINE
5
E5B1
330
E544
100
AcDbEntity
100
AcDbLine
8
KABLO_TAVALARI
10
-12.20672465709621
20
17.056825162159598
30
0
11
-12.578315826371691
21
17.293673970837688
31
0
0
CIRCLE
5
E5B2
330
E544
100
AcDbEntity
100
AcDbCircle
8
KABLO_TAVALARI
10
-12.076013978977553
20
17.17925156903079
30
0
40
0.01
0
LINE
5
E5B3
330
E544
100
AcDbEntity
100
AcDbLine
8
KABLO_TAVALARI
10
-12.076013978977553
20
17.17925156903079
30
0
11
-12.136013978977553
21
17.09925156903079
31
0
0
LINE
5
E5B4
330
E544
100
AcDbEntity
100
AcDbLine
8
KABLO_TAVALARI
10
-12.136013978977553
20
17.09925156903079
30
0
11
-12.578315826371691
21
17.34367397083769
31
0
0
CIRCLE
5
E5B5
330
E544
100
AcDbEntity
100
AcDbCircle
8
KABLO_TAVALARI
10
-12.005303300858898
20
17.221677975901983
30
0
40
0.01
0
LINE
5
E5B6
330
E544
100
AcDbEntity
100
AcDbLine
8
KABLO_TAVALARI
10
-12.005303300858898
20
17.221677975901983
30
0
11
-12.065303300858899
21
17.141677975901985
31
0
0
LINE
5
E5B7
330
E544
100
AcDbEntity
100
AcDbLine
8
KABLO_TAVALARI
10
-12.065303300858899
20
17.141677975901985
30
0
11
-12.578315826371691
21
17.39367397083769
31
0
0
LINE
5
E5B8
330
E544
100
AcDbEntity
100
AcDbLine
8
KABLO_TAVALARI
10
-12.578315826371691
20
17.09367397083769
30
0
11
-12.578315826371691
21
19.2
31
0
0
LINE
5
E5B9
330
E544
100
AcDbEntity
100
AcDbLine
8
KABLO_TAVALARI
10
-12.548315826371692
20
17.09367397083769
30
0
11
-12.548315826371692
21
19.2
31
0
0
TEXT
5
E5BA
330
E544
100
AcDbEntity
100
AcDbText
8
KABLO_TAVALARI
10
-12.59831582637169
20
17.21367397083769
30
0
40
0.035
1
28x 1/2" FEEDER KABLO DEMETI (4.3-10 DIN)
50
0
7
STANDARD
72
2
11
-12.59831582637169
21
17.21367397083769
31
0
100
AcDbText
73
2
0
LWPOLYLINE
5
E62C
330
E544
100
AcDbEntity
100
AcDbPolyline
8
KABLO_TAVALARI
6
ByLayer
62
256
370
-1
90
4
70
1
10
7.25
20
17.970000000000002
10
7.25
20
18.03
10
9.75
20
18.03
10
9.75
20
17.970000000000002
0
TEXT
5
E62D
330
E544
100
AcDbEntity
100
AcDbText
8
KABLO_TAVALARI
10
8.5
20
18
30
0
40
0.035
1
2x 28 = 56 ADET FEEDER KABLO TAVASI (500x100mm)
50
0
7
STANDARD
72
1
11
8.5
21
18
31
0
100
AcDbText
73
2
0
CIRCLE
5
E668
330
E544
100
AcDbEntity
100
AcDbCircle
8
KABLO_TAVALARI
10
17.07043263042917
20
16.967119534674826
30
0
40
0.01
0
LINE
5
E669
330
E544
100
AcDbEntity
100
AcDbLine
8
KABLO_TAVALARI
10
17.07043263042917
20
16.967119534674826
30
0
11
17.01043263042917
21
16.887119534674827
31
0
0
LINE
5
E66A
330
E544
100
AcDbEntity
100
AcDbLine
8
KABLO_TAVALARI
10
17.01043263042917
20
16.887119534674827
30
0
11
16.92168417362831
21
17.09367397083769
31
0
0
CIRCLE
5
E66B
330
E544
100
AcDbEntity
100
AcDbCircle
8
KABLO_TAVALARI
10
17.14114330854783
20
17.00954594154602
30
0
40
0.01
0
LINE
5
E66C
330
E544
100
AcDbEntity
100
AcDbLine
8
KABLO_TAVALARI
10
17.14114330854783
20
17.00954594154602
30
0
11
17.08114330854783
21
16.92954594154602
31
0
0
LINE
5
E66D
330
E544
100
AcDbEntity
100
AcDbLine
8
KABLO_TAVALARI
10
17.08114330854783
20
16.92954594154602
30
0
11
16.92168417362831
21
17.14367397083769
31
0
0
CIRCLE
5
E66E
330
E544
100
AcDbEntity
100
AcDbCircle
8
KABLO_TAVALARI
10
17.21185398666648
20
17.05197234841721
30
0
40
0.01
0
LINE
5
E66F
330
E544
100
AcDbEntity
100
AcDbLine
8
KABLO_TAVALARI
10
17.21185398666648
20
17.05197234841721
30
0
11
17.15185398666648
21
16.97197234841721
31
0
0
LINE
5
E670
330
E544
100
AcDbEntity
100
AcDbLine
8
KABLO_TAVALARI
10
17.15185398666648
20
16.97197234841721
30
0
11
16.92168417362831
21
17.19367397083769
31
0
0
CIRCLE
5
E671
330
E544
100
AcDbEntity
100
AcDbCircle
8
KABLO_TAVALARI
10
17.282564664785138
20
17.094398755288406
30
0
40
0.01
0
LINE
5
E672
330
E544
100
AcDbEntity
100
AcDbLine
8
KABLO_TAVALARI
10
17.282564664785138
20
17.094398755288406
30
0
11
17.22256466478514
21
17.014398755288408
31
0
0
LINE
5
E673
330
E544
100
AcDbEntity
100
AcDbLine
8
KABLO_TAVALARI
10
17.22256466478514
20
17.014398755288408
30
0
11
16.92168417362831
21
17.243673970837687
31
0
0
CIRCLE
5
E674
330
E544
100
AcDbEntity
100
AcDbCircle
8
KABLO_TAVALARI
10
17.353275342903792
20
17.136825162159596
30
0
40
0.01
0
LINE
5
E675
330
E544
100
AcDbEntity
100
AcDbLine
8
KABLO_TAVALARI
10
17.353275342903792
20
17.136825162159596
30
0
11
17.293275342903794
21
17.056825162159598
31
0
0
LINE
5
E676
330
E544
100
AcDbEntity
100
AcDbLine
8
KABLO_TAVALARI
10
17.293275342903794
20
17.056825162159598
30
0
11
16.92168417362831
21
17.293673970837688
31
0
0
CIRCLE
5
E677
330
E544
100
AcDbEntity
100
AcDbCircle
8
KABLO_TAVALARI
10
17.423986021022444
20
17.17925156903079
30
0
40
0.01
0
LINE
5
E678
330
E544
100
AcDbEntity
100
AcDbLine
8
KABLO_TAVALARI
10
17.423986021022444
20
17.17925156903079
30
0
11
17.363986021022445
21
17.09925156903079
31
0
0
LINE
5
E679
330
E544
100
AcDbEntity
100
AcDbLine
8
KABLO_TAVALARI
10
17.363986021022445
20
17.09925156903079
30
0
11
16.92168417362831
21
17.34367397083769
31
0
0
CIRCLE
5
E67A
330
E544
100
AcDbEntity
100
AcDbCircle
8
KABLO_TAVALARI
10
17.4946966991411
20
17.221677975901983
30
0
40
0.01
0
LINE
5
E67B
330
E544
100
AcDbEntity
100
AcDbLine
8
KABLO_TAVALARI
10
17.4946966991411
20
17.221677975901983
30
0
11
17.434696699141103
21
17.141677975901985
31
0
0
LINE
5
E67C
330
E544
100
AcDbEntity
100
AcDbLine
8
KABLO_TAVALARI
10
17.434696699141103
20
17.141677975901985
30
0
11
16.92168417362831
21
17.39367397083769
31
0
0
LINE
5
E67D
330
E544
100
AcDbEntity
100
AcDbLine
8
KABLO_TAVALARI
10
16.92168417362831
20
17.09367397083769
30
0
11
16.92168417362831
21
19.2
31
0
0
LINE
5
E67E
330
E544
100
AcDbEntity
100
AcDbLine
8
KABLO_TAVALARI
10
16.95168417362831
20
17.09367397083769
30
0
11
16.95168417362831
21
19.2
31
0
0
TEXT
5
E67F
330
E544
100
AcDbEntity
100
AcDbText
8
KABLO_TAVALARI
10
16.901684173628308
20
17.21367397083769
30
0
40
0.035
1
28x 1/2" FEEDER KABLO DEMETI (4.3-10 DIN)
50
0
7
STANDARD
72
2
11
16.901684173628308
21
17.21367397083769
31
0
100
AcDbText
73
2
0
CIRCLE
5
E791
330
E544
100
AcDbEntity
100
AcDbCircle
8
KABLO_TAVALARI
10
-14.429567369570826
20
-0.032880465325174524
30
0
40
0.01
0
LINE
5
E792
330
E544
100
AcDbEntity
100
AcDbLine
8
KABLO_TAVALARI
10
-14.429567369570826
20
-0.032880465325174524
30
0
11
-14.489567369570826
21
-0.11288046532517453
31
0
0
LINE
5
E793
330
E544
100
AcDbEntity
100
AcDbLine
8
KABLO_TAVALARI
10
-14.489567369570826
20
-0.11288046532517453
30
0
11
-14.578315826371691
21
0.09367397083768791
31
0
0
CIRCLE
5
E794
330
E544
100
AcDbEntity
100
AcDbCircle
8
KABLO_TAVALARI
10
-14.358856691452173
20
0.009545941546018316
30
0
40
0.01
0
LINE
5
E795
330
E544
100
AcDbEntity
100
AcDbLine
8
KABLO_TAVALARI
10
-14.358856691452173
20
0.009545941546018316
30
0
11
-14.418856691452174
21
-0.07045405845398169
31
0
0
LINE
5
E796
330
E544
100
AcDbEntity
100
AcDbLine
8
KABLO_TAVALARI
10
-14.418856691452174
20
-0.07045405845398169
30
0
11
-14.578315826371691
21
0.1436739708376879
31
0
0
CIRCLE
5
E797
330
E544
100
AcDbEntity
100
AcDbCircle
8
KABLO_TAVALARI
10
-14.288146013333519
20
0.0519723484172112
30
0
40
0.01
0
LINE
5
E798
330
E544
100
AcDbEntity
100
AcDbLine
8
KABLO_TAVALARI
10
-14.288146013333519
20
0.0519723484172112
30
0
11
-14.348146013333519
21
-0.028027651582788804
31
0
0
LINE
5
E799
330
E544
100
AcDbEntity
100
AcDbLine
8
KABLO_TAVALARI
10
-14.348146013333519
20
-0.028027651582788804
30
0
11
-14.578315826371691
21
0.19367397083768792
31
0
0
CIRCLE
5
E79A
330
E544
100
AcDbEntity
100
AcDbCircle
8
KABLO_TAVALARI
10
-14.217435335214864
20
0.09439875528840404
30
0
40
0.01
0
LINE
5
E79B
330
E544
100
AcDbEntity
100
AcDbLine
8
KABLO_TAVALARI
10
-14.217435335214864
20
0.09439875528840404
30
0
11
-14.277435335214864
21
0.014398755288404036
31
0
0
LINE
5
E79C
330
E544
100
AcDbEntity
100
AcDbLine
8
KABLO_TAVALARI
10
-14.277435335214864
20
0.014398755288404036
30
0
11
-14.578315826371691
21
0.2436739708376879
31
0
0
CIRCLE
5
E79D
330
E544
100
AcDbEntity
100
AcDbCircle
8
KABLO_TAVALARI
10
-14.14672465709621
20
0.1368251621595969
30
0
40
0.01
0
LINE
5
E79E
330
E544
100
AcDbEntity
100
AcDbLine
8
KABLO_TAVALARI
10
-14.14672465709621
20
0.1368251621595969
30
0
11
-14.20672465709621
21
0.05682516215959689
31
0
0
LINE
5
E79F
330
E544
100
AcDbEntity
100
AcDbLine
8
KABLO_TAVALARI
10
-14.20672465709621
20
0.05682516215959689
30
0
11
-14.578315826371691
21
0.2936739708376879
31
0
0
CIRCLE
5
E7A0
330
E544
100
AcDbEntity
100
AcDbCircle
8
KABLO_TAVALARI
10
-14.076013978977553
20
0.1792515690307898
30
0
40
0.01
0
LINE
5
E7A1
330
E544
100
AcDbEntity
100
AcDbLine
8
KABLO_TAVALARI
10
-14.076013978977553
20
0.1792515690307898
30
0
11
-14.136013978977553
21
0.09925156903078979
31
0
0
LINE
5
E7A2
330
E544
100
AcDbEntity
100
AcDbLine
8
KABLO_TAVALARI
10
-14.136013978977553
20
0.09925156903078979
30
0
11
-14.578315826371691
21
0.3436739708376879
31
0
0
CIRCLE
5
E7A3
330
E544
100
AcDbEntity
100
AcDbCircle
8
KABLO_TAVALARI
10
-14.005303300858898
20
0.22167797590198263
30
0
40
0.01
0
LINE
5
E7A4
330
E544
100
AcDbEntity
100
AcDbLine
8
KABLO_TAVALARI
10
-14.005303300858898
20
0.22167797590198263
30
0
11
-14.065303300858899
21
0.1416779759019826
31
0
0
LINE
5
E7A5
330
E544
100
AcDbEntity
100
AcDbLine
8
KABLO_TAVALARI
10
-14.065303300858899
20
0.1416779759019826
30
0
11
-14.578315826371691
21
0.3936739708376879
31
0
0
LINE
5
E7A6
330
E544
100
AcDbEntity
100
AcDbLine
8
KABLO_TAVALARI
10
-14.578315826371691
20
0.09367397083768791
30
0
11
-14.578315826371691
21
2.2
31
0
0
LINE
5
E7A7
330
E544
100
AcDbEntity
100
AcDbLine
8
KABLO_TAVALARI
10
-14.548315826371692
20
0.09367397083768791
30
0
11
-14.548315826371692
21
2.2
31
0
0
TEXT
5
E7A8
330
E544
100
AcDbEntity
100
AcDbText
8
KABLO_TAVALARI
10
-14.59831582637169
20
0.2136739708376879
30
0
40
0.035
1
28x 1/2" FEEDER KABLO DEMETI (4.3-10 DIN)
50
0
7
STANDARD
72
2
11
-14.59831582637169
21
0.2136739708376879
31
0
100
AcDbText
73
2
0
CIRCLE
5
E7E0
330
E544
100
AcDbEntity
100
AcDbCircle
8
KABLO_TAVALARI
10
-4.429567369570828
20
-0.032880465325174524
30
0
40
0.01
0
LINE
5
E7E1
330
E544
100
AcDbEntity
100
AcDbLine
8
KABLO_TAVALARI
10
-4.429567369570828
20
-0.032880465325174524
30
0
11
-4.489567369570827
21
-0.11288046532517453
31
0
0
LINE
5
E7E2
330
E544
100
AcDbEntity
100
AcDbLine
8
KABLO_TAVALARI
10
-4.489567369570827
20
-0.11288046532517453
30
0
11
-4.57831582637169
21
0.09367397083768791
31
0
0
CIRCLE
5
E7E3
330
E544
100
AcDbEntity
100
AcDbCircle
8
KABLO_TAVALARI
10
-4.358856691452172
20
0.009545941546018316
30
0
40
0.01
0
LINE
5
E7E4
330
E544
100
AcDbEntity
100
AcDbLine
8
KABLO_TAVALARI
10
-4.358856691452172
20
0.009545941546018316
30
0
11
-4.418856691452172
21
-0.07045405845398169
31
0
0
LINE
5
E7E5
330
E544
100
AcDbEntity
100
AcDbLine
8
KABLO_TAVALARI
10
-4.418856691452172
20
-0.07045405845398169
30
0
11
-4.57831582637169
21
0.1436739708376879
31
0
0
CIRCLE
5
E7E6
330
E544
100
AcDbEntity
100
AcDbCircle
8
KABLO_TAVALARI
10
-4.2881460133335185
20
0.0519723484172112
30
0
40
0.01
0
LINE
5
E7E7
330
E544
100
AcDbEntity
100
AcDbLine
8
KABLO_TAVALARI
10
-4.2881460133335185
20
0.0519723484172112
30
0
11
-4.348146013333518
21
-0.028027651582788804
31
0
0
LINE
5
E7E8
330
E544
100
AcDbEntity
100
AcDbLine
8
KABLO_TAVALARI
10
-4.348146013333518
20
-0.028027651582788804
30
0
11
-4.57831582637169
21
0.19367397083768792
31
0
0
CIRCLE
5
E7E9
330
E544
100
AcDbEntity
100
AcDbCircle
8
KABLO_TAVALARI
10
-4.217435335214864
20
0.09439875528840404
30
0
40
0.01
0
LINE
5
E7EA
330
E544
100
AcDbEntity
100
AcDbLine
8
KABLO_TAVALARI
10
-4.217435335214864
20
0.09439875528840404
30
0
11
-4.2774353352148635
21
0.014398755288404036
31
0
0
LINE
5
E7EB
330
E544
100
AcDbEntity
100
AcDbLine
8
KABLO_TAVALARI
10
-4.2774353352148635
20
0.014398755288404036
30
0
11
-4.57831582637169
21
0.2436739708376879
31
0
0
CIRCLE
5
E7EC
330
E544
100
AcDbEntity
100
AcDbCircle
8
KABLO_TAVALARI
10
-4.146724657096208
20
0.1368251621595969
30
0
40
0.01
0
LINE
5
E7ED
330
E544
100
AcDbEntity
100
AcDbLine
8
KABLO_TAVALARI
10
-4.146724657096208
20
0.1368251621595969
30
0
11
-4.206724657096208
21
0.05682516215959689
31
0
0
LINE
5
E7EE
330
E544
100
AcDbEntity
100
AcDbLine
8
KABLO_TAVALARI
10
-4.206724657096208
20
0.05682516215959689
30
0
11
-4.57831582637169
21
0.2936739708376879
31
0
0
CIRCLE
5
E7EF
330
E544
100
AcDbEntity
100
AcDbCircle
8
KABLO_TAVALARI
10
-4.076013978977554
20
0.1792515690307898
30
0
40
0.01
0
LINE
5
E7F0
330
E544
100
AcDbEntity
100
AcDbLine
8
KABLO_TAVALARI
10
-4.076013978977554
20
0.1792515690307898
30
0
11
-4.136013978977553
21
0.09925156903078979
31
0
0
LINE
5
E7F1
330
E544
100
AcDbEntity
100
AcDbLine
8
KABLO_TAVALARI
10
-4.136013978977553
20
0.09925156903078979
30
0
11
-4.57831582637169
21
0.3436739708376879
31
0
0
CIRCLE
5
E7F2
330
E544
100
AcDbEntity
100
AcDbCircle
8
KABLO_TAVALARI
10
-4.005303300858899
20
0.22167797590198263
30
0
40
0.01
0
LINE
5
E7F3
330
E544
100
AcDbEntity
100
AcDbLine
8
KABLO_TAVALARI
10
-4.005303300858899
20
0.22167797590198263
30
0
11
-4.065303300858899
21
0.1416779759019826
31
0
0
LINE
5
E7F4
330
E544
100
AcDbEntity
100
AcDbLine
8
KABLO_TAVALARI
10
-4.065303300858899
20
0.1416779759019826
30
0
11
-4.57831582637169
21
0.3936739708376879
31
0
0
LINE
5
E7F5
330
E544
100
AcDbEntity
100
AcDbLine
8
KABLO_TAVALARI
10
-4.57831582637169
20
0.09367397083768791
30
0
11
-4.57831582637169
21
2.2
31
0
0
LINE
5
E7F6
330
E544
100
AcDbEntity
100
AcDbLine
8
KABLO_TAVALARI
10
-4.54831582637169
20
0.09367397083768791
30
0
11
-4.54831582637169
21
2.2
31
0
0
TEXT
5
E7F7
330
E544
100
AcDbEntity
100
AcDbText
8
KABLO_TAVALARI
10
-4.59831582637169
20
0.2136739708376879
30
0
40
0.035
1
28x 1/2" FEEDER KABLO DEMETI (4.3-10 DIN)
50
0
7
STANDARD
72
2
11
-4.59831582637169
21
0.2136739708376879
31
0
100
AcDbText
73
2
0
CIRCLE
5
E834
330
E544
100
AcDbEntity
100
AcDbCircle
8
KABLO_TAVALARI
10
5.570432630429172
20
-0.032880465325174524
30
0
40
0.01
0
LINE
5
E835
330
E544
100
AcDbEntity
100
AcDbLine
8
KABLO_TAVALARI
10
5.570432630429172
20
-0.032880465325174524
30
0
11
5.510432630429173
21
-0.11288046532517453
31
0
0
LINE
5
E836
330
E544
100
AcDbEntity
100
AcDbLine
8
KABLO_TAVALARI
10
5.510432630429173
20
-0.11288046532517453
30
0
11
5.42168417362831
21
0.09367397083768791
31
0
0
CIRCLE
5
E837
330
E544
100
AcDbEntity
100
AcDbCircle
8
KABLO_TAVALARI
10
5.641143308547828
20
0.009545941546018316
30
0
40
0.01
0
LINE
5
E838
330
E544
100
AcDbEntity
100
AcDbLine
8
KABLO_TAVALARI
10
5.641143308547828
20
0.009545941546018316
30
0
11
5.581143308547828
21
-0.07045405845398169
31
0
0
LINE
5
E839
330
E544
100
AcDbEntity
100
AcDbLine
8
KABLO_TAVALARI
10
5.581143308547828
20
-0.07045405845398169
30
0
11
5.42168417362831
21
0.1436739708376879
31
0
0
CIRCLE
5
E83A
330
E544
100
AcDbEntity
100
AcDbCircle
8
KABLO_TAVALARI
10
5.7118539866664815
20
0.0519723484172112
30
0
40
0.01
0
LINE
5
E83B
330
E544
100
AcDbEntity
100
AcDbLine
8
KABLO_TAVALARI
10
5.7118539866664815
20
0.0519723484172112
30
0
11
5.651853986666482
21
-0.028027651582788804
31
0
0
LINE
5
E83C
330
E544
100
AcDbEntity
100
AcDbLine
8
KABLO_TAVALARI
10
5.651853986666482
20
-0.028027651582788804
30
0
11
5.42168417362831
21
0.19367397083768792
31
0
0
CIRCLE
5
E83D
330
E544
100
AcDbEntity
100
AcDbCircle
8
KABLO_TAVALARI
10
5.782564664785136
20
0.09439875528840404
30
0
40
0.01
0
LINE
5
E83E
330
E544
100
AcDbEntity
100
AcDbLine
8
KABLO_TAVALARI
10
5.782564664785136
20
0.09439875528840404
30
0
11
5.7225646647851365
21
0.014398755288404036
31
0
0
LINE
5
E83F
330
E544
100
AcDbEntity
100
AcDbLine
8
KABLO_TAVALARI
10
5.7225646647851365
20
0.014398755288404036
30
0
11
5.42168417362831
21
0.2436739708376879
31
0
0
CIRCLE
5
E840
330
E544
100
AcDbEntity
100
AcDbCircle
8
KABLO_TAVALARI
10
5.853275342903792
20
0.1368251621595969
30
0
40
0.01
0
LINE
5
E841
330
E544
100
AcDbEntity
100
AcDbLine
8
KABLO_TAVALARI
10
5.853275342903792
20
0.1368251621595969
30
0
11
5.793275342903792
21
0.05682516215959689
31
0
0
LINE
5
E842
330
E544
100
AcDbEntity
100
AcDbLine
8
KABLO_TAVALARI
10
5.793275342903792
20
0.05682516215959689
30
0
11
5.42168417362831
21
0.2936739708376879
31
0
0
CIRCLE
5
E843
330
E544
100
AcDbEntity
100
AcDbCircle
8
KABLO_TAVALARI
10
5.923986021022446
20
0.1792515690307898
30
0
40
0.01
0
LINE
5
E844
330
E544
100
AcDbEntity
100
AcDbLine
8
KABLO_TAVALARI
10
5.923986021022446
20
0.1792515690307898
30
0
11
5.863986021022447
21
0.09925156903078979
31
0
0
LINE
5
E845
330
E544
100
AcDbEntity
100
AcDbLine
8
KABLO_TAVALARI
10
5.863986021022447
20
0.09925156903078979
30
0
11
5.42168417362831
21
0.3436739708376879
31
0
0
CIRCLE
5
E846
330
E544
100
AcDbEntity
100
AcDbCircle
8
KABLO_TAVALARI
10
5.994696699141101
20
0.22167797590198263
30
0
40
0.01
0
LINE
5
E847
330
E544
100
AcDbEntity
100
AcDbLine
8
KABLO_TAVALARI
10
5.994696699141101
20
0.22167797590198263
30
0
11
5.934696699141101
21
0.1416779759019826
31
0
0
LINE
5
E848
330
E544
100
AcDbEntity
100
AcDbLine
8
KABLO_TAVALARI
10
5.934696699141101
20
0.1416779759019826
30
0
11
5.42168417362831
21
0.3936739708376879
31
0
0
LINE
5
E849
330
E544
100
AcDbEntity
100
AcDbLine
8
KABLO_TAVALARI
10
5.42168417362831
20
0.09367397083768791
30
0
11
5.42168417362831
21
2.2
31
0
0
LINE
5
E84A
330
E544
100
AcDbEntity
100
AcDbLine
8
KABLO_TAVALARI
10
5.45168417362831
20
0.09367397083768791
30
0
11
5.45168417362831
21
2.2
31
0
0
TEXT
5
E84B
330
E544
100
AcDbEntity
100
AcDbText
8
KABLO_TAVALARI
10
5.40168417362831
20
0.2136739708376879
30
0
40
0.035
1
28x 1/2" FEEDER KABLO DEMETI (4.3-10 DIN)
50
0
7
STANDARD
72
2
11
5.40168417362831
21
0.2136739708376879
31
0
100
AcDbText
73
2
0
LINE
5
E5BB
330
E544
100
AcDbEntity
100
AcDbLine
8
OLCULER
10
-12
20
17
30
0
11
-11
21
17
31
0
0
LINE
5
E5BC
330
E544
100
AcDbEntity
100
AcDbLine
8
OLCULER
10
-12
20
17
30
0
11
-11.292893218813452
21
16.292893218813454
31
0
0
LINE
5
E5BD
330
E544
100
AcDbEntity
100
AcDbLine
8
OLCULER
10
-11.292893218813452
20
16.292893218813454
30
0
11
-11.352893218813453
21
16.312893218813453
31
0
0
LINE
5
E5BE
330
E544
100
AcDbEntity
100
AcDbLine
8
OLCULER
10
-11.292893218813452
20
16.292893218813454
30
0
11
-11.312893218813452
21
16.352893218813453
31
0
0
TEXT
5
E5BF
330
E544
100
AcDbEntity
100
AcDbText
8
OLCULER
10
-11.52
20
16.82
30
0
40
0.045
1
45° DOWNTILT (YERE VE SAHAYA EGIM)
50
0
7
STANDARD
72
0
11
-11.52
21
16.82
31
0
100
AcDbText
73
2
0
LINE
5
E5C0
330
E544
100
AcDbEntity
100
AcDbLine
8
OLCULER
10
-12.804687516990292
20
16.648567929750286
30
0
11
-12.981464212286928
21
16.825344625046924
31
0
0
LINE
5
E5C1
330
E544
100
AcDbEntity
100
AcDbLine
8
OLCULER
10
-11.648567929750286
20
17.804687516990292
30
0
11
-11.825344625046922
21
17.98146421228693
31
0
0
LINE
5
E5C2
330
E544
100
AcDbEntity
100
AcDbLine
8
OLCULER
10
-12.981464212286928
20
16.825344625046924
30
0
11
-11.825344625046922
21
17.98146421228693
31
0
0
TEXT
5
E5C3
330
E544
100
AcDbEntity
100
AcDbText
8
OLCULER
10
-12.443404418666924
20
17.443404418666926
30
0
40
0.045
1
1635 mm (BOY)
50
45
7
STANDARD
72
1
11
-12.443404418666924
21
17.443404418666926
31
0
100
AcDbText
73
2
0
LINE
5
E5C4
330
E544
100
AcDbEntity
100
AcDbLine
8
OLCULER
10
-11.705755190678747
20
17.804068798556752
30
0
11
-11.578475970065169
21
17.93134801917033
31
0
0
LINE
5
E5C5
330
E544
100
AcDbEntity
100
AcDbLine
8
OLCULER
10
-11.253737180805247
20
17.23643882995925
30
0
11
-11.126457960191669
21
17.363718050572828
31
0
0
LINE
5
E5C6
330
E544
100
AcDbEntity
100
AcDbLine
8
OLCULER
10
-11.578475970065169
20
17.93134801917033
30
0
11
-11.126457960191669
21
17.363718050572828
31
0
0
TEXT
5
E5C7
330
E544
100
AcDbEntity
100
AcDbText
8
OLCULER
10
-11.33246696512842
20
17.687533034871578
30
0
40
0.045
1
721 mm (DERINLIK)
50
-45
7
STANDARD
72
1
11
-11.33246696512842
21
17.687533034871578
31
0
100
AcDbText
73
2
0
LINE
5
E5D7
330
E544
100
AcDbEntity
100
AcDbLine
8
OLCULER
10
-6
20
17
30
0
11
-6.45
21
17.779422863405994
31
0
0
TEXT
5
E5D8
330
E544
100
AcDbEntity
100
AcDbText
8
OLCULER
10
-6.45
20
17.779422863405994
30
0
40
0.03
1
BEAM 1
50
0
7
STANDARD
72
1
11
-6.45
21
17.779422863405994
31
0
100
AcDbText
73
2
0
LINE
5
E5D9
330
E544
100
AcDbEntity
100
AcDbLine
8
OLCULER
10
-6
20
17
30
0
11
-6.156283359900237
21
17.886326977710986
31
0
0
TEXT
5
E5DA
330
E544
100
AcDbEntity
100
AcDbText
8
OLCULER
10
-6.156283359900237
20
17.886326977710986
30
0
40
0.03
1
BEAM 2
50
0
7
STANDARD
72
1
11
-6.156283359900237
21
17.886326977710986
31
0
100
AcDbText
73
2
0
LINE
5
E5DB
330
E544
100
AcDbEntity
100
AcDbLine
8
OLCULER
10
-6
20
17
30
0
11
-5.843716640099763
21
17.886326977710986
31
0
0
TEXT
5
E5DC
330
E544
100
AcDbEntity
100
AcDbText
8
OLCULER
10
-5.843716640099763
20
17.886326977710986
30
0
40
0.03
1
BEAM 3
50
0
7
STANDARD
72
1
11
-5.843716640099763
21
17.886326977710986
31
0
100
AcDbText
73
2
0
LINE
5
E5DD
330
E544
100
AcDbEntity
100
AcDbLine
8
OLCULER
10
-6
20
17
30
0
11
-5.55
21
17.779422863405994
31
0
0
TEXT
5
E5DE
330
E544
100
AcDbEntity
100
AcDbText
8
OLCULER
10
-5.55
20
17.779422863405994
30
0
40
0.03
1
BEAM 4
50
0
7
STANDARD
72
1
11
-5.55
21
17.779422863405994
31
0
100
AcDbText
73
2
0
LINE
5
E5DF
330
E544
100
AcDbEntity
100
AcDbLine
8
OLCULER
10
-6.3085
20
16.739500000000003
30
0
11
-6.3085
21
16.579500000000003
31
0
0
LINE
5
E5E0
330
E544
100
AcDbEntity
100
AcDbLine
8
OLCULER
10
-5.6915
20
16.739500000000003
30
0
11
-5.6915
21
16.579500000000003
31
0
0
LINE
5
E5E1
330
E544
100
AcDbEntity
100
AcDbLine
8
OLCULER
10
-6.3085
20
16.619500000000002
30
0
11
-5.6915
21
16.619500000000002
31
0
0
LINE
5
E5E2
330
E544
100
AcDbEntity
100
AcDbLine
8
OLCULER
10
-6.3365
20
16.591500000000003
30
0
11
-6.280500000000001
21
16.6475
31
0
0
LINE
5
E5E3
330
E544
100
AcDbEntity
100
AcDbLine
8
OLCULER
10
-5.719499999999999
20
16.591500000000003
30
0
11
-5.6635
21
16.6475
31
0
0
TEXT
5
E5E4
330
E544
100
AcDbEntity
100
AcDbText
8
OLCULER
10
-6
20
16.535500000000003
30
0
40
0.06
1
617 mm (GENISLIK)
50
0
7
STANDARD
72
1
11
-6
21
16.535500000000003
31
0
100
AcDbText
73
2
0
LINE
5
E5E5
330
E544
100
AcDbEntity
100
AcDbLine
8
OLCULER
10
-6.21
20
16.6395
30
0
11
-6.37
21
16.6395
31
0
0
LINE
5
E5E6
330
E544
100
AcDbEntity
100
AcDbLine
8
OLCULER
10
-6.08
20
17.3605
30
0
11
-6.37
21
17.3605
31
0
0
LINE
5
E5E7
330
E544
100
AcDbEntity
100
AcDbLine
8
OLCULER
10
-6.33
20
16.6395
30
0
11
-6.33
21
17.3605
31
0
0
LINE
5
E5E8
330
E544
100
AcDbEntity
100
AcDbLine
8
OLCULER
10
-6.358
20
16.611500000000003
30
0
11
-6.3020000000000005
21
16.6675
31
0
0
LINE
5
E5E9
330
E544
100
AcDbEntity
100
AcDbLine
8
OLCULER
10
-6.358
20
17.3325
30
0
11
-6.3020000000000005
21
17.388499999999997
31
0
0
TEXT
5
E5EA
330
E544
100
AcDbEntity
100
AcDbText
8
OLCULER
10
-6.372
20
17
30
0
40
0.06
1
721 mm (DERINLIK)
50
90
7
STANDARD
72
1
11
-6.372
21
17
31
0
100
AcDbText
73
2
0
LINE
5
E62E
330
E544
100
AcDbEntity
100
AcDbLine
8
OLCULER
10
7.8
20
16
30
0
11
7.8
21
15.66
31
0
0
LINE
5
E62F
330
E544
100
AcDbEntity
100
AcDbLine
8
OLCULER
10
9.2
20
16
30
0
11
9.2
21
15.66
31
0
0
LINE
5
E630
330
E544
100
AcDbEntity
100
AcDbLine
8
OLCULER
10
7.8
20
15.7
30
0
11
9.2
21
15.7
31
0
0
LINE
5
E631
330
E544
100
AcDbEntity
100
AcDbLine
8
OLCULER
10
7.772
20
15.671999999999999
30
0
11
7.827999999999999
21
15.728
31
0
0
LINE
5
E632
330
E544
100
AcDbEntity
100
AcDbLine
8
OLCULER
10
9.171999999999999
20
15.671999999999999
30
0
11
9.228
21
15.728
31
0
0
TEXT
5
E633
330
E544
100
AcDbEntity
100
AcDbText
8
OLCULER
10
8.5
20
15.616
30
0
40
0.06
1
1400 mm (ANTEN AKS ARALIGI)
50
0
7
STANDARD
72
1
11
8.5
21
15.616
31
0
100
AcDbText
73
2
0
LINE
5
E634
330
E544
100
AcDbEntity
100
AcDbLine
8
OLCULER
10
8.1085
20
18.2
30
0
11
8.1085
21
18.49
31
0
0
LINE
5
E635
330
E544
100
AcDbEntity
100
AcDbLine
8
OLCULER
10
8.891499999999999
20
18.2
30
0
11
8.891499999999999
21
18.49
31
0
0
LINE
5
E636
330
E544
100
AcDbEntity
100
AcDbLine
8
OLCULER
10
8.1085
20
18.45
30
0
11
8.891499999999999
21
18.45
31
0
0
LINE
5
E637
330
E544
100
AcDbEntity
100
AcDbLine
8
OLCULER
10
8.080499999999999
20
18.422
30
0
11
8.1365
21
18.477999999999998
31
0
0
LINE
5
E638
330
E544
100
AcDbEntity
100
AcDbLine
8
OLCULER
10
8.863499999999998
20
18.422
30
0
11
8.9195
21
18.477999999999998
31
0
0
TEXT
5
E639
330
E544
100
AcDbEntity
100
AcDbText
8
OLCULER
10
8.5
20
18.474
30
0
40
0.06
1
783 mm (NET RF ACIKLIGI)
50
0
7
STANDARD
72
1
11
8.5
21
18.474
31
0
100
AcDbText
73
2
0
LINE
5
E63A
330
E544
100
AcDbEntity
100
AcDbLine
8
OLCULER
10
7.25
20
18.25
30
0
11
7.25
21
18.59
31
0
0
LINE
5
E63B
330
E544
100
AcDbEntity
100
AcDbLine
8
OLCULER
10
9.75
20
18.25
30
0
11
9.75
21
18.59
31
0
0
LINE
5
E63C
330
E544
100
AcDbEntity
100
AcDbLine
8
OLCULER
10
7.25
20
18.55
30
0
11
9.75
21
18.55
31
0
0
LINE
5
E63D
330
E544
100
AcDbEntity
100
AcDbLine
8
OLCULER
10
7.222
20
18.522000000000002
30
0
11
7.278
21
18.578
31
0
0
LINE
5
E63E
330
E544
100
AcDbEntity
100
AcDbLine
8
OLCULER
10
9.722
20
18.522000000000002
30
0
11
9.778
21
18.578
31
0
0
TEXT
5
E63F
330
E544
100
AcDbEntity
100
AcDbText
8
OLCULER
10
8.5
20
18.574
30
0
40
0.06
1
2500 mm (TRAVERS TOPLAM BOYU)
50
0
7
STANDARD
72
1
11
8.5
21
18.574
31
0
100
AcDbText
73
2
0
LINE
5
E680
330
E544
100
AcDbEntity
100
AcDbLine
8
OLCULER
10
17.5
20
17
30
0
11
18.5
21
17
31
0
0
LINE
5
E681
330
E544
100
AcDbEntity
100
AcDbLine
8
OLCULER
10
17.5
20
17
30
0
11
18.207106781186546
21
16.292893218813454
31
0
0
LINE
5
E682
330
E544
100
AcDbEntity
100
AcDbLine
8
OLCULER
10
18.207106781186546
20
16.292893218813454
30
0
11
18.147106781186547
21
16.312893218813453
31
0
0
LINE
5
E683
330
E544
100
AcDbEntity
100
AcDbLine
8
OLCULER
10
18.207106781186546
20
16.292893218813454
30
0
11
18.187106781186547
21
16.352893218813453
31
0
0
TEXT
5
E684
330
E544
100
AcDbEntity
100
AcDbText
8
OLCULER
10
17.98
20
16.82
30
0
40
0.045
1
45° DOWNTILT (YERE VE SAHAYA EGIM)
50
0
7
STANDARD
72
0
11
17.98
21
16.82
31
0
100
AcDbText
73
2
0
LINE
5
E685
330
E544
100
AcDbEntity
100
AcDbLine
8
OLCULER
10
16.695312483009708
20
16.648567929750286
30
0
11
16.51853578771307
21
16.825344625046924
31
0
0
LINE
5
E686
330
E544
100
AcDbEntity
100
AcDbLine
8
OLCULER
10
17.851432070249714
20
17.804687516990292
30
0
11
17.674655374953076
21
17.98146421228693
31
0
0
LINE
5
E687
330
E544
100
AcDbEntity
100
AcDbLine
8
OLCULER
10
16.51853578771307
20
16.825344625046924
30
0
11
17.674655374953076
21
17.98146421228693
31
0
0
TEXT
5
E688
330
E544
100
AcDbEntity
100
AcDbText
8
OLCULER
10
17.056595581333074
20
17.443404418666926
30
0
40
0.045
1
1635 mm (BOY)
50
45
7
STANDARD
72
1
11
17.056595581333074
21
17.443404418666926
31
0
100
AcDbText
73
2
0
LINE
5
E689
330
E544
100
AcDbEntity
100
AcDbLine
8
OLCULER
10
17.794244809321253
20
17.804068798556752
30
0
11
17.92152402993483
21
17.93134801917033
31
0
0
LINE
5
E68A
330
E544
100
AcDbEntity
100
AcDbLine
8
OLCULER
10
18.24626281919475
20
17.23643882995925
30
0
11
18.373542039808328
21
17.363718050572828
31
0
0
LINE
5
E68B
330
E544
100
AcDbEntity
100
AcDbLine
8
OLCULER
10
17.92152402993483
20
17.93134801917033
30
0
11
18.373542039808328
21
17.363718050572828
31
0
0
TEXT
5
E68C
330
E544
100
AcDbEntity
100
AcDbText
8
OLCULER
10
18.167533034871578
20
17.687533034871578
30
0
40
0.045
1
721 mm (DERINLIK)
50
-45
7
STANDARD
72
1
11
18.167533034871578
21
17.687533034871578
31
0
100
AcDbText
73
2
0
LINE
5
E6EF
330
E544
100
AcDbEntity
100
AcDbLine
8
OLCULER
10
-8.3
20
7.5
30
0
11
-8.3
21
7.16
31
0
0
LINE
5
E6F0
330
E544
100
AcDbEntity
100
AcDbLine
8
OLCULER
10
-7
20
7.5
30
0
11
-7
21
7.16
31
0
0
LINE
5
E6F1
330
E544
100
AcDbEntity
100
AcDbLine
8
OLCULER
10
-8.3
20
7.2
30
0
11
-7
21
7.2
31
0
0
LINE
5
E6F2
330
E544
100
AcDbEntity
100
AcDbLine
8
OLCULER
10
-8.328000000000001
20
7.172000000000001
30
0
11
-8.272
21
7.228
31
0
0
LINE
5
E6F3
330
E544
100
AcDbEntity
100
AcDbLine
8
OLCULER
10
-7.028
20
7.172000000000001
30
0
11
-6.972
21
7.228
31
0
0
TEXT
5
E6F4
330
E544
100
AcDbEntity
100
AcDbText
8
OLCULER
10
-7.65
20
7.1160000000000005
30
0
40
0.06
1
1300 mm
50
0
7
STANDARD
72
1
11
-7.65
21
7.1160000000000005
31
0
100
AcDbText
73
2
0
LINE
5
E6F5
330
E544
100
AcDbEntity
100
AcDbLine
8
OLCULER
10
-7
20
7.5
30
0
11
-7
21
7.16
31
0
0
LINE
5
E6F6
330
E544
100
AcDbEntity
100
AcDbLine
8
OLCULER
10
-5.7
20
7.5
30
0
11
-5.7
21
7.16
31
0
0
LINE
5
E6F7
330
E544
100
AcDbEntity
100
AcDbLine
8
OLCULER
10
-7
20
7.2
30
0
11
-5.7
21
7.2
31
0
0
LINE
5
E6F8
330
E544
100
AcDbEntity
100
AcDbLine
8
OLCULER
10
-7.028
20
7.172000000000001
30
0
11
-6.972
21
7.228
31
0
0
LINE
5
E6F9
330
E544
100
AcDbEntity
100
AcDbLine
8
OLCULER
10
-5.728
20
7.172000000000001
30
0
11
-5.672000000000001
21
7.228
31
0
0
TEXT
5
E6FA
330
E544
100
AcDbEntity
100
AcDbText
8
OLCULER
10
-6.35
20
7.1160000000000005
30
0
40
0.06
1
1300 mm
50
0
7
STANDARD
72
1
11
-6.35
21
7.1160000000000005
31
0
100
AcDbText
73
2
0
LINE
5
E6FB
330
E544
100
AcDbEntity
100
AcDbLine
8
OLCULER
10
-8.3
20
7.5
30
0
11
-8.3
21
6.76
31
0
0
LINE
5
E6FC
330
E544
100
AcDbEntity
100
AcDbLine
8
OLCULER
10
-5.7
20
7.5
30
0
11
-5.7
21
6.76
31
0
0
LINE
5
E6FD
330
E544
100
AcDbEntity
100
AcDbLine
8
OLCULER
10
-8.3
20
6.8
30
0
11
-5.7
21
6.8
31
0
0
LINE
5
E6FE
330
E544
100
AcDbEntity
100
AcDbLine
8
OLCULER
10
-8.328000000000001
20
6.772
30
0
11
-8.272
21
6.827999999999999
31
0
0
LINE
5
E6FF
330
E544
100
AcDbEntity
100
AcDbLine
8
OLCULER
10
-5.728
20
6.772
30
0
11
-5.672000000000001
21
6.827999999999999
31
0
0
TEXT
5
E700
330
E544
100
AcDbEntity
100
AcDbText
8
OLCULER
10
-7
20
6.716
30
0
40
0.06
1
2600 mm (TOPLAM AKS ACIKLIGI)
50
0
7
STANDARD
72
1
11
-7
21
6.716
31
0
100
AcDbText
73
2
0
LINE
5
E70E
330
E544
100
AcDbEntity
100
AcDbLine
8
OLCULER
10
2.9
20
8.8
30
0
11
2.263603896932107
21
9.436396103067894
31
0
0
TEXT
5
E70F
330
E544
100
AcDbEntity
100
AcDbText
8
OLCULER
10
2.263603896932107
20
9.436396103067894
30
0
40
0.03
1
BEAM 1
50
0
7
STANDARD
72
1
11
2.263603896932107
21
9.436396103067894
31
0
100
AcDbText
73
2
0
LINE
5
E710
330
E544
100
AcDbEntity
100
AcDbLine
8
OLCULER
10
2.9
20
8.8
30
0
11
2.5196435644333706
21
9.615677008332986
31
0
0
TEXT
5
E711
330
E544
100
AcDbEntity
100
AcDbText
8
OLCULER
10
2.5196435644333706
20
9.615677008332986
30
0
40
0.03
1
BEAM 2
50
0
7
STANDARD
72
1
11
2.5196435644333706
21
9.615677008332986
31
0
100
AcDbText
73
2
0
LINE
5
E712
330
E544
100
AcDbEntity
100
AcDbLine
8
OLCULER
10
2.9
20
8.8
30
0
11
2.8215598315271078
21
9.696575228282573
31
0
0
TEXT
5
E713
330
E544
100
AcDbEntity
100
AcDbText
8
OLCULER
10
2.8215598315271078
20
9.696575228282573
30
0
40
0.03
1
BEAM 3
50
0
7
STANDARD
72
1
11
2.8215598315271078
21
9.696575228282573
31
0
100
AcDbText
73
2
0
LINE
5
E714
330
E544
100
AcDbEntity
100
AcDbLine
8
OLCULER
10
2.9
20
8.8
30
0
11
3.1329371405922686
21
9.669333243660162
31
0
0
TEXT
5
E715
330
E544
100
AcDbEntity
100
AcDbText
8
OLCULER
10
3.1329371405922686
20
9.669333243660162
30
0
40
0.03
1
BEAM 4
50
0
7
STANDARD
72
1
11
3.1329371405922686
21
9.669333243660162
31
0
100
AcDbText
73
2
0
LINE
5
E716
330
E544
100
AcDbEntity
100
AcDbLine
8
OLCULER
10
2.555295044948817
20
8.625496063768951
30
0
11
2.555295044948817
21
8.465496063768953
31
0
0
LINE
5
E717
330
E544
100
AcDbEntity
100
AcDbLine
8
OLCULER
10
3.1512712797691727
20
8.465804712940697
30
0
11
3.1512712797691727
21
8.465496063768953
31
0
0
LINE
5
E718
330
E544
100
AcDbEntity
100
AcDbLine
8
OLCULER
10
2.555295044948817
20
8.505496063768952
30
0
11
3.1512712797691727
21
8.505496063768952
31
0
0
LINE
5
E719
330
E544
100
AcDbEntity
100
AcDbLine
8
OLCULER
10
2.527295044948817
20
8.477496063768951
30
0
11
2.5832950449488172
21
8.533496063768952
31
0
0
LINE
5
E71A
330
E544
100
AcDbEntity
100
AcDbLine
8
OLCULER
10
3.1232712797691726
20
8.477496063768951
30
0
11
3.1792712797691727
21
8.533496063768952
31
0
0
TEXT
5
E71B
330
E544
100
AcDbEntity
100
AcDbText
8
OLCULER
10
2.853283162358995
20
8.421496063768952
30
0
40
0.06
1
617 mm (GENISLIK)
50
0
7
STANDARD
72
1
11
2.853283162358995
21
8.421496063768952
31
0
100
AcDbText
73
2
0
LINE
5
E71C
330
E544
100
AcDbEntity
100
AcDbLine
8
OLCULER
10
2.6011253768229623
20
8.48543021548612
30
0
11
2.441125376822962
21
8.48543021548612
31
0
0
LINE
5
E71D
330
E544
100
AcDbEntity
100
AcDbLine
8
OLCULER
10
2.9133042657594586
20
9.14821626037721
30
0
11
2.441125376822962
21
9.14821626037721
31
0
0
LINE
5
E71E
330
E544
100
AcDbEntity
100
AcDbLine
8
OLCULER
10
2.481125376822962
20
8.48543021548612
30
0
11
2.481125376822962
21
9.14821626037721
31
0
0
LINE
5
E71F
330
E544
100
AcDbEntity
100
AcDbLine
8
OLCULER
10
2.453125376822962
20
8.45743021548612
30
0
11
2.509125376822962
21
8.513430215486121
31
0
0
LINE
5
E720
330
E544
100
AcDbEntity
100
AcDbLine
8
OLCULER
10
2.453125376822962
20
9.120216260377209
30
0
11
2.509125376822962
21
9.17621626037721
31
0
0
TEXT
5
E721
330
E544
100
AcDbEntity
100
AcDbText
8
OLCULER
10
2.4391253768229624
20
8.816823237931665
30
0
40
0.06
1
721 mm (DERINLIK)
50
90
7
STANDARD
72
1
11
2.4391253768229624
21
8.816823237931665
31
0
100
AcDbText
73
2
0
LINE
5
E730
330
E544
100
AcDbEntity
100
AcDbLine
8
OLCULER
10
4
20
8.5
30
0
11
3.55
21
9.279422863405994
31
0
0
TEXT
5
E731
330
E544
100
AcDbEntity
100
AcDbText
8
OLCULER
10
3.55
20
9.279422863405994
30
0
40
0.03
1
BEAM 1
50
0
7
STANDARD
72
1
11
3.55
21
9.279422863405994
31
0
100
AcDbText
73
2
0
LINE
5
E732
330
E544
100
AcDbEntity
100
AcDbLine
8
OLCULER
10
4
20
8.5
30
0
11
3.8437166400997627
21
9.386326977710986
31
0
0
TEXT
5
E733
330
E544
100
AcDbEntity
100
AcDbText
8
OLCULER
10
3.8437166400997627
20
9.386326977710986
30
0
40
0.03
1
BEAM 2
50
0
7
STANDARD
72
1
11
3.8437166400997627
21
9.386326977710986
31
0
100
AcDbText
73
2
0
LINE
5
E734
330
E544
100
AcDbEntity
100
AcDbLine
8
OLCULER
10
4
20
8.5
30
0
11
4.156283359900237
21
9.386326977710986
31
0
0
TEXT
5
E735
330
E544
100
AcDbEntity
100
AcDbText
8
OLCULER
10
4.156283359900237
20
9.386326977710986
30
0
40
0.03
1
BEAM 3
50
0
7
STANDARD
72
1
11
4.156283359900237
21
9.386326977710986
31
0
100
AcDbText
73
2
0
LINE
5
E736
330
E544
100
AcDbEntity
100
AcDbLine
8
OLCULER
10
4
20
8.5
30
0
11
4.45
21
9.279422863405994
31
0
0
TEXT
5
E737
330
E544
100
AcDbEntity
100
AcDbText
8
OLCULER
10
4.45
20
9.279422863405994
30
0
40
0.03
1
BEAM 4
50
0
7
STANDARD
72
1
11
4.45
21
9.279422863405994
31
0
100
AcDbText
73
2
0
LINE
5
E738
330
E544
100
AcDbEntity
100
AcDbLine
8
OLCULER
10
3.6915
20
8.2395
30
0
11
3.6915
21
8.079500000000001
31
0
0
LINE
5
E739
330
E544
100
AcDbEntity
100
AcDbLine
8
OLCULER
10
4.3085
20
8.2395
30
0
11
4.3085
21
8.079500000000001
31
0
0
LINE
5
E73A
330
E544
100
AcDbEntity
100
AcDbLine
8
OLCULER
10
3.6915
20
8.1195
30
0
11
4.3085
21
8.1195
31
0
0
LINE
5
E73B
330
E544
100
AcDbEntity
100
AcDbLine
8
OLCULER
10
3.6635
20
8.0915
30
0
11
3.7195
21
8.1475
31
0
0
LINE
5
E73C
330
E544
100
AcDbEntity
100
AcDbLine
8
OLCULER
10
4.280500000000001
20
8.0915
30
0
11
4.3365
21
8.1475
31
0
0
TEXT
5
E73D
330
E544
100
AcDbEntity
100
AcDbText
8
OLCULER
10
4
20
8.0355
30
0
40
0.06
1
617 mm (GENISLIK)
50
0
7
STANDARD
72
1
11
4
21
8.0355
31
0
100
AcDbText
73
2
0
LINE
5
E73E
330
E544
100
AcDbEntity
100
AcDbLine
8
OLCULER
10
3.79
20
8.1395
30
0
11
3.63
21
8.1395
31
0
0
LINE
5
E73F
330
E544
100
AcDbEntity
100
AcDbLine
8
OLCULER
10
3.92
20
8.8605
30
0
11
3.63
21
8.8605
31
0
0
LINE
5
E740
330
E544
100
AcDbEntity
100
AcDbLine
8
OLCULER
10
3.67
20
8.1395
30
0
11
3.67
21
8.8605
31
0
0
LINE
5
E741
330
E544
100
AcDbEntity
100
AcDbLine
8
OLCULER
10
3.642
20
8.1115
30
0
11
3.698
21
8.1675
31
0
0
LINE
5
E742
330
E544
100
AcDbEntity
100
AcDbLine
8
OLCULER
10
3.642
20
8.8325
30
0
11
3.698
21
8.8885
31
0
0
TEXT
5
E743
330
E544
100
AcDbEntity
100
AcDbText
8
OLCULER
10
3.628
20
8.5
30
0
40
0.06
1
721 mm (DERINLIK)
50
90
7
STANDARD
72
1
11
3.628
21
8.5
31
0
100
AcDbText
73
2
0
LINE
5
E752
330
E544
100
AcDbEntity
100
AcDbLine
8
OLCULER
10
5.1
20
8.8
30
0
11
4.867062859407731
21
9.669333243660162
31
0
0
TEXT
5
E753
330
E544
100
AcDbEntity
100
AcDbText
8
OLCULER
10
4.867062859407731
20
9.669333243660162
30
0
40
0.03
1
BEAM 1
50
0
7
STANDARD
72
1
11
4.867062859407731
21
9.669333243660162
31
0
100
AcDbText
73
2
0
LINE
5
E754
330
E544
100
AcDbEntity
100
AcDbLine
8
OLCULER
10
5.1
20
8.8
30
0
11
5.178440168472892
21
9.696575228282573
31
0
0
TEXT
5
E755
330
E544
100
AcDbEntity
100
AcDbText
8
OLCULER
10
5.178440168472892
20
9.696575228282573
30
0
40
0.03
1
BEAM 2
50
0
7
STANDARD
72
1
11
5.178440168472892
21
9.696575228282573
31
0
100
AcDbText
73
2
0
LINE
5
E756
330
E544
100
AcDbEntity
100
AcDbLine
8
OLCULER
10
5.1
20
8.8
30
0
11
5.480356435566629
21
9.615677008332986
31
0
0
TEXT
5
E757
330
E544
100
AcDbEntity
100
AcDbText
8
OLCULER
10
5.480356435566629
20
9.615677008332986
30
0
40
0.03
1
BEAM 3
50
0
7
STANDARD
72
1
11
5.480356435566629
21
9.615677008332986
31
0
100
AcDbText
73
2
0
LINE
5
E758
330
E544
100
AcDbEntity
100
AcDbLine
8
OLCULER
10
5.1
20
8.8
30
0
11
5.736396103067892
21
9.436396103067894
31
0
0
TEXT
5
E759
330
E544
100
AcDbEntity
100
AcDbText
8
OLCULER
10
5.736396103067892
20
9.436396103067894
30
0
40
0.03
1
BEAM 4
50
0
7
STANDARD
72
1
11
5.736396103067892
21
9.436396103067894
31
0
100
AcDbText
73
2
0
LINE
5
E75A
330
E544
100
AcDbEntity
100
AcDbLine
8
OLCULER
10
4.848728720230827
20
8.465804712940697
30
0
11
4.848728720230827
21
8.305804712940699
31
0
0
LINE
5
E75B
330
E544
100
AcDbEntity
100
AcDbLine
8
OLCULER
10
5.444704955051183
20
8.625496063768951
30
0
11
5.444704955051183
21
8.305804712940699
31
0
0
LINE
5
E75C
330
E544
100
AcDbEntity
100
AcDbLine
8
OLCULER
10
4.848728720230827
20
8.345804712940698
30
0
11
5.444704955051183
21
8.345804712940698
31
0
0
LINE
5
E75D
330
E544
100
AcDbEntity
100
AcDbLine
8
OLCULER
10
4.820728720230828
20
8.317804712940697
30
0
11
4.876728720230827
21
8.373804712940698
31
0
0
LINE
5
E75E
330
E544
100
AcDbEntity
100
AcDbLine
8
OLCULER
10
5.416704955051183
20
8.317804712940697
30
0
11
5.472704955051182
21
8.373804712940698
31
0
0
TEXT
5
E75F
330
E544
100
AcDbEntity
100
AcDbText
8
OLCULER
10
5.146716837641005
20
8.261804712940698
30
0
40
0.06
1
617 mm (GENISLIK)
50
0
7
STANDARD
72
1
11
5.146716837641005
21
8.261804712940698
31
0
100
AcDbText
73
2
0
LINE
5
E760
330
E544
100
AcDbEntity
100
AcDbLine
8
OLCULER
10
4.9877339083418795
20
8.418137263759464
30
0
11
4.827733908341879
21
8.418137263759464
31
0
0
LINE
5
E761
330
E544
100
AcDbEntity
100
AcDbLine
8
OLCULER
10
4.926695734240541
20
9.14821626037721
30
0
11
4.827733908341879
21
9.14821626037721
31
0
0
LINE
5
E762
330
E544
100
AcDbEntity
100
AcDbLine
8
OLCULER
10
4.867733908341879
20
8.418137263759464
30
0
11
4.867733908341879
21
9.14821626037721
31
0
0
LINE
5
E763
330
E544
100
AcDbEntity
100
AcDbLine
8
OLCULER
10
4.83973390834188
20
8.390137263759463
30
0
11
4.895733908341879
21
8.446137263759464
31
0
0
LINE
5
E764
330
E544
100
AcDbEntity
100
AcDbLine
8
OLCULER
10
4.83973390834188
20
9.120216260377209
30
0
11
4.895733908341879
21
9.17621626037721
31
0
0
TEXT
5
E765
330
E544
100
AcDbEntity
100
AcDbText
8
OLCULER
10
4.8257339083418795
20
8.783176762068337
30
0
40
0.06
1
721 mm (DERINLIK)
50
90
7
STANDARD
72
1
11
4.8257339083418795
21
8.783176762068337
31
0
100
AcDbText
73
2
0
LINE
5
E7A9
330
E544
100
AcDbEntity
100
AcDbLine
8
OLCULER
10
-14
20
0
30
0
11
-13
21
0
31
0
0
LINE
5
E7AA
330
E544
100
AcDbEntity
100
AcDbLine
8
OLCULER
10
-14
20
0
30
0
11
-13.292893218813452
21
-0.7071067811865475
31
0
0
LINE
5
E7AB
330
E544
100
AcDbEntity
100
AcDbLine
8
OLCULER
10
-13.292893218813452
20
-0.7071067811865475
30
0
11
-13.352893218813453
21
-0.6871067811865474
31
0
0
LINE
5
E7AC
330
E544
100
AcDbEntity
100
AcDbLine
8
OLCULER
10
-13.292893218813452
20
-0.7071067811865475
30
0
11
-13.312893218813452
21
-0.6471067811865474
31
0
0
TEXT
5
E7AD
330
E544
100
AcDbEntity
100
AcDbText
8
OLCULER
10
-13.52
20
-0.18
30
0
40
0.045
1
45° DOWNTILT (YERE VE SAHAYA EGIM)
50
0
7
STANDARD
72
0
11
-13.52
21
-0.18
31
0
100
AcDbText
73
2
0
LINE
5
E7AE
330
E544
100
AcDbEntity
100
AcDbLine
8
OLCULER
10
-14.804687516990292
20
-0.3514320702497141
30
0
11
-14.981464212286928
21
-0.17465537495307726
31
0
0
LINE
5
E7AF
330
E544
100
AcDbEntity
100
AcDbLine
8
OLCULER
10
-13.648567929750286
20
0.8046875169902911
30
0
11
-13.825344625046922
21
0.9814642122869279
31
0
0
LINE
5
E7B0
330
E544
100
AcDbEntity
100
AcDbLine
8
OLCULER
10
-14.981464212286928
20
-0.17465537495307726
30
0
11
-13.825344625046922
21
0.9814642122869279
31
0
0
TEXT
5
E7B1
330
E544
100
AcDbEntity
100
AcDbText
8
OLCULER
10
-14.443404418666924
20
0.4434044186669253
30
0
40
0.045
1
1635 mm (BOY)
50
45
7
STANDARD
72
1
11
-14.443404418666924
21
0.4434044186669253
31
0
100
AcDbText
73
2
0
LINE
5
E7B2
330
E544
100
AcDbEntity
100
AcDbLine
8
OLCULER
10
-13.705755190678747
20
0.804068798556753
30
0
11
-13.578475970065169
21
0.9313480191703315
31
0
0
LINE
5
E7B3
330
E544
100
AcDbEntity
100
AcDbLine
8
OLCULER
10
-13.253737180805247
20
0.23643882995925192
30
0
11
-13.126457960191669
21
0.36371805057283046
31
0
0
LINE
5
E7B4
330
E544
100
AcDbEntity
100
AcDbLine
8
OLCULER
10
-13.578475970065169
20
0.9313480191703315
30
0
11
-13.126457960191669
21
0.36371805057283046
31
0
0
TEXT
5
E7B5
330
E544
100
AcDbEntity
100
AcDbText
8
OLCULER
10
-13.33246696512842
20
0.687533034871581
30
0
40
0.045
1
721 mm (DERINLIK)
50
-45
7
STANDARD
72
1
11
-13.33246696512842
21
0.687533034871581
31
0
100
AcDbText
73
2
0
LINE
5
E7F8
330
E544
100
AcDbEntity
100
AcDbLine
8
OLCULER
10
-4
20
0
30
0
11
-3
21
0
31
0
0
LINE
5
E7F9
330
E544
100
AcDbEntity
100
AcDbLine
8
OLCULER
10
-4
20
0
30
0
11
-3.2928932188134525
21
-0.7071067811865475
31
0
0
LINE
5
E7FA
330
E544
100
AcDbEntity
100
AcDbLine
8
OLCULER
10
-3.2928932188134525
20
-0.7071067811865475
30
0
11
-3.3528932188134526
21
-0.6871067811865474
31
0
0
LINE
5
E7FB
330
E544
100
AcDbEntity
100
AcDbLine
8
OLCULER
10
-3.2928932188134525
20
-0.7071067811865475
30
0
11
-3.3128932188134526
21
-0.6471067811865474
31
0
0
TEXT
5
E7FC
330
E544
100
AcDbEntity
100
AcDbText
8
OLCULER
10
-3.52
20
-0.18
30
0
40
0.045
1
45° DOWNTILT (YERE VE SAHAYA EGIM)
50
0
7
STANDARD
72
0
11
-3.52
21
-0.18
31
0
100
AcDbText
73
2
0
LINE
5
E7FD
330
E544
100
AcDbEntity
100
AcDbLine
8
OLCULER
10
-4.804687516990291
20
-0.3514320702497141
30
0
11
-4.9814642122869275
21
-0.17465537495307726
31
0
0
LINE
5
E7FE
330
E544
100
AcDbEntity
100
AcDbLine
8
OLCULER
10
-3.648567929750286
20
0.8046875169902911
30
0
11
-3.825344625046923
21
0.9814642122869279
31
0
0
LINE
5
E7FF
330
E544
100
AcDbEntity
100
AcDbLine
8
OLCULER
10
-4.9814642122869275
20
-0.17465537495307726
30
0
11
-3.825344625046923
21
0.9814642122869279
31
0
0
TEXT
5
E800
330
E544
100
AcDbEntity
100
AcDbText
8
OLCULER
10
-4.443404418666925
20
0.4434044186669253
30
0
40
0.045
1
1635 mm (BOY)
50
45
7
STANDARD
72
1
11
-4.443404418666925
21
0.4434044186669253
31
0
100
AcDbText
73
2
0
LINE
5
E801
330
E544
100
AcDbEntity
100
AcDbLine
8
OLCULER
10
-3.7057551906787483
20
0.804068798556753
30
0
11
-3.5784759700651696
21
0.9313480191703315
31
0
0
LINE
5
E802
330
E544
100
AcDbEntity
100
AcDbLine
8
OLCULER
10
-3.2537371808052473
20
0.23643882995925192
30
0
11
-3.1264579601916687
21
0.36371805057283046
31
0
0
LINE
5
E803
330
E544
100
AcDbEntity
100
AcDbLine
8
OLCULER
10
-3.5784759700651696
20
0.9313480191703315
30
0
11
-3.1264579601916687
21
0.36371805057283046
31
0
0
TEXT
5
E804
330
E544
100
AcDbEntity
100
AcDbText
8
OLCULER
10
-3.332466965128419
20
0.687533034871581
30
0
40
0.045
1
721 mm (DERINLIK)
50
-45
7
STANDARD
72
1
11
-3.332466965128419
21
0.687533034871581
31
0
100
AcDbText
73
2
0
LINE
5
E84C
330
E544
100
AcDbEntity
100
AcDbLine
8
OLCULER
10
6
20
0
30
0
11
7
21
0
31
0
0
LINE
5
E84D
330
E544
100
AcDbEntity
100
AcDbLine
8
OLCULER
10
6
20
0
30
0
11
6.707106781186548
21
-0.7071067811865475
31
0
0
LINE
5
E84E
330
E544
100
AcDbEntity
100
AcDbLine
8
OLCULER
10
6.707106781186548
20
-0.7071067811865475
30
0
11
6.647106781186548
21
-0.6871067811865474
31
0
0
LINE
5
E84F
330
E544
100
AcDbEntity
100
AcDbLine
8
OLCULER
10
6.707106781186548
20
-0.7071067811865475
30
0
11
6.687106781186548
21
-0.6471067811865474
31
0
0
TEXT
5
E850
330
E544
100
AcDbEntity
100
AcDbText
8
OLCULER
10
6.48
20
-0.18
30
0
40
0.045
1
45° DOWNTILT (YERE VE SAHAYA EGIM)
50
0
7
STANDARD
72
0
11
6.48
21
-0.18
31
0
100
AcDbText
73
2
0
LINE
5
E851
330
E544
100
AcDbEntity
100
AcDbLine
8
OLCULER
10
5.195312483009709
20
-0.3514320702497141
30
0
11
5.0185357877130725
21
-0.17465537495307726
31
0
0
LINE
5
E852
330
E544
100
AcDbEntity
100
AcDbLine
8
OLCULER
10
6.351432070249714
20
0.8046875169902911
30
0
11
6.174655374953077
21
0.9814642122869279
31
0
0
LINE
5
E853
330
E544
100
AcDbEntity
100
AcDbLine
8
OLCULER
10
5.0185357877130725
20
-0.17465537495307726
30
0
11
6.174655374953077
21
0.9814642122869279
31
0
0
TEXT
5
E854
330
E544
100
AcDbEntity
100
AcDbText
8
OLCULER
10
5.556595581333075
20
0.4434044186669253
30
0
40
0.045
1
1635 mm (BOY)
50
45
7
STANDARD
72
1
11
5.556595581333075
21
0.4434044186669253
31
0
100
AcDbText
73
2
0
LINE
5
E855
330
E544
100
AcDbEntity
100
AcDbLine
8
OLCULER
10
6.294244809321252
20
0.804068798556753
30
0
11
6.42152402993483
21
0.9313480191703315
31
0
0
LINE
5
E856
330
E544
100
AcDbEntity
100
AcDbLine
8
OLCULER
10
6.746262819194753
20
0.23643882995925192
30
0
11
6.873542039808331
21
0.36371805057283046
31
0
0
LINE
5
E857
330
E544
100
AcDbEntity
100
AcDbLine
8
OLCULER
10
6.42152402993483
20
0.9313480191703315
30
0
11
6.873542039808331
21
0.36371805057283046
31
0
0
TEXT
5
E858
330
E544
100
AcDbEntity
100
AcDbText
8
OLCULER
10
6.66753303487158
20
0.687533034871581
30
0
40
0.045
1
721 mm (DERINLIK)
50
-45
7
STANDARD
72
1
11
6.66753303487158
21
0.687533034871581
31
0
100
AcDbText
73
2
0
LINE
5
E577
330
E544
100
AcDbEntity
100
AcDbLine
8
METIN_BILGI
10
-18.06
20
17
30
0
11
-17.94
21
17
31
0
0
LINE
5
E578
330
E544
100
AcDbEntity
100
AcDbLine
8
METIN_BILGI
10
-18
20
16.94
30
0
11
-18
21
17.06
31
0
0
TEXT
5
E579
330
E544
100
AcDbEntity
100
AcDbText
8
METIN_BILGI
10
-18
20
16.0925
30
0
40
0.045
1
1.1 TEKLI ANTEN: ON KESIT / GORUNUS
50
0
7
STANDARD
72
1
11
-18
21
16.0925
31
0
100
AcDbText
73
2
0
TEXT
5
E57A
330
E544
100
AcDbEntity
100
AcDbText
8
METIN_BILGI
10
-18
20
16.0375
30
0
40
0.035
1
617 x 1635 mm (GxY) - 51 kg
50
0
7
STANDARD
72
1
11
-18
21
16.0375
31
0
100
AcDbText
73
2
0
TEXT
5
E5A0
330
E544
100
AcDbEntity
100
AcDbText
8
METIN_BILGI
10
-12.085994898604689
20
19.56
30
0
40
0.04
1
CATI MAKASI ANA BORUSU (Ø280mm)
50
0
7
STANDARD
72
0
11
-12.085994898604689
21
19.56
31
0
100
AcDbText
73
2
0
TEXT
5
E5A1
330
E544
100
AcDbEntity
100
AcDbText
8
METIN_BILGI
10
-12.548315826371692
20
18.246836985418845
30
0
40
0.035
1
2x Ø70mm OFSET DUSEY BORU
50
0
7
STANDARD
72
2
11
-12.548315826371692
21
18.246836985418845
31
0
100
AcDbText
73
2
0
TEXT
5
E5A2
330
E544
100
AcDbEntity
100
AcDbText
8
METIN_BILGI
10
-12.013673970837688
20
17.49831582637169
30
0
40
0.032
1
CAPRAZ GECIS KELEPCESI (M14)
50
0
7
STANDARD
72
0
11
-12.013673970837688
21
17.49831582637169
31
0
100
AcDbText
73
2
0
TEXT
5
E5C8
330
E544
100
AcDbEntity
100
AcDbText
8
METIN_BILGI
10
-12
20
15.932500000000001
30
0
40
0.045
1
1.2 TEKLI ANTEN: YAN KESIT (45° DOWNTILT)
50
0
7
STANDARD
72
1
11
-12
21
15.932500000000001
31
0
100
AcDbText
73
2
0
TEXT
5
E5C9
330
E544
100
AcDbEntity
100
AcDbText
8
METIN_BILGI
10
-12
20
15.8725
30
0
40
0.035
1
Mekanik Imalat ve Tasiyici Aski Profili (One ve Yere 45° Egim)
50
0
7
STANDARD
72
1
11
-12
21
15.8725
31
0
100
AcDbText
73
2
0
TEXT
5
E5EB
330
E544
100
AcDbEntity
100
AcDbText
8
METIN_BILGI
10
-6
20
16.459500000000002
30
0
40
0.045
1
1.3 TEKLI ANTEN: USTTEN PLAN KESITI
50
0
7
STANDARD
72
1
11
-6
21
16.459500000000002
31
0
100
AcDbText
73
2
0
LWPOLYLINE
5
E5EC
330
E544
100
AcDbEntity
100
AcDbPolyline
8
METIN_BILGI
6
ByLayer
62
256
370
-1
90
4
70
1
10
-21.5
20
14.4
10
-21.5
20
19.8
10
-3
20
19.8
10
-3
20
14.4
0
TEXT
5
E5ED
330
E544
100
AcDbEntity
100
AcDbText
8
METIN_BILGI
10
-21
20
19.5
30
0
40
0.18
1
BOLUM 1: TEKLI (SINGLE) MATSING 4-BEAM LENS ANTENI KESITLERI (1:1 OLCEK)
50
0
7
STANDARD
100
AcDbText
0
LINE
5
E608
330
E544
100
AcDbEntity
100
AcDbLine
8
METIN_BILGI
10
7.74
20
17
30
0
11
7.859999999999999
21
17
31
0
0
LINE
5
E609
330
E544
100
AcDbEntity
100
AcDbLine
8
METIN_BILGI
10
7.8
20
16.94
30
0
11
7.8
21
17.06
31
0
0
TEXT
5
E60A
330
E544
100
AcDbEntity
100
AcDbText
8
METIN_BILGI
10
7.8
20
16.0925
30
0
40
0.045
1
SOL ANTEN (ANT-1)
50
0
7
STANDARD
72
1
11
7.8
21
16.0925
31
0
100
AcDbText
73
2
0
TEXT
5
E60B
330
E544
100
AcDbEntity
100
AcDbText
8
METIN_BILGI
10
7.8
20
16.0375
30
0
40
0.035
1
617 x 1635 mm (GxY) - 51 kg
50
0
7
STANDARD
72
1
11
7.8
21
16.0375
31
0
100
AcDbText
73
2
0
LINE
5
E626
330
E544
100
AcDbEntity
100
AcDbLine
8
METIN_BILGI
10
9.139999999999999
20
17
30
0
11
9.26
21
17
31
0
0
LINE
5
E627
330
E544
100
AcDbEntity
100
AcDbLine
8
METIN_BILGI
10
9.2
20
16.94
30
0
11
9.2
21
17.06
31
0
0
TEXT
5
E628
330
E544
100
AcDbEntity
100
AcDbText
8
METIN_BILGI
10
9.2
20
16.0925
30
0
40
0.045
1
SAG ANTEN (ANT-2)
50
0
7
STANDARD
72
1
11
9.2
21
16.0925
31
0
100
AcDbText
73
2
0
TEXT
5
E629
330
E544
100
AcDbEntity
100
AcDbText
8
METIN_BILGI
10
9.2
20
16.0375
30
0
40
0.035
1
617 x 1635 mm (GxY) - 51 kg
50
0
7
STANDARD
72
1
11
9.2
21
16.0375
31
0
100
AcDbText
73
2
0
TEXT
5
E665
330
E544
100
AcDbEntity
100
AcDbText
8
METIN_BILGI
10
17.41400510139531
20
19.56
30
0
40
0.04
1
CATI MAKASI ANA BORUSU (Ø280mm)
50
0
7
STANDARD
72
0
11
17.41400510139531
21
19.56
31
0
100
AcDbText
73
2
0
TEXT
5
E666
330
E544
100
AcDbEntity
100
AcDbText
8
METIN_BILGI
10
16.95168417362831
20
18.246836985418845
30
0
40
0.035
1
2x Ø70mm OFSET DUSEY BORU
50
0
7
STANDARD
72
2
11
16.95168417362831
21
18.246836985418845
31
0
100
AcDbText
73
2
0
TEXT
5
E667
330
E544
100
AcDbEntity
100
AcDbText
8
METIN_BILGI
10
17.48632602916231
20
17.49831582637169
30
0
40
0.032
1
CAPRAZ GECIS KELEPCESI (M14)
50
0
7
STANDARD
72
0
11
17.48632602916231
21
17.49831582637169
31
0
100
AcDbText
73
2
0
TEXT
5
E68D
330
E544
100
AcDbEntity
100
AcDbText
8
METIN_BILGI
10
17.5
20
15.932500000000001
30
0
40
0.045
1
2.2 IKILI SISTEM: YAN KESIT (PROFIL)
50
0
7
STANDARD
72
1
11
17.5
21
15.932500000000001
31
0
100
AcDbText
73
2
0
TEXT
5
E68E
330
E544
100
AcDbEntity
100
AcDbText
8
METIN_BILGI
10
17.5
20
15.8725
30
0
40
0.035
1
Mekanik Imalat ve Tasiyici Aski Profili (One ve Yere 45° Egim)
50
0
7
STANDARD
72
1
11
17.5
21
15.8725
31
0
100
AcDbText
73
2
0
LWPOLYLINE
5
E68F
330
E544
100
AcDbEntity
100
AcDbPolyline
8
METIN_BILGI
6
ByLayer
62
256
370
-1
90
4
70
1
10
6.45
20
14.4
10
6.45
20
19.8
10
20.95
20
19.8
10
20.95
20
14.4
0
TEXT
5
E690
330
E544
100
AcDbEntity
100
AcDbText
8
METIN_BILGI
10
6.85
20
19.5
30
0
40
0.18
1
BOLUM 2: 2'LI (DUAL) MATSING ANTEN KESIT VE TRAVERS MONTAJ PLANI
50
0
7
STANDARD
100
AcDbText
0
LINE
5
E6AB
330
E544
100
AcDbEntity
100
AcDbLine
8
METIN_BILGI
10
-8.360000000000001
20
8.5
30
0
11
-8.24
21
8.5
31
0
0
LINE
5
E6AC
330
E544
100
AcDbEntity
100
AcDbLine
8
METIN_BILGI
10
-8.3
20
8.44
30
0
11
-8.3
21
8.56
31
0
0
TEXT
5
E6AD
330
E544
100
AcDbEntity
100
AcDbText
8
METIN_BILGI
10
-8.3
20
7.5925
30
0
40
0.045
1
SEKTOR 1 (SOL)
50
0
7
STANDARD
72
1
11
-8.3
21
7.5925
31
0
100
AcDbText
73
2
0
TEXT
5
E6AE
330
E544
100
AcDbEntity
100
AcDbText
8
METIN_BILGI
10
-8.3
20
7.5375000000000005
30
0
40
0.035
1
617 x 1635 mm (GxY) - 51 kg
50
0
7
STANDARD
72
1
11
-8.3
21
7.5375000000000005
31
0
100
AcDbText
73
2
0
LINE
5
E6C9
330
E544
100
AcDbEntity
100
AcDbLine
8
METIN_BILGI
10
-7.06
20
8.5
30
0
11
-6.94
21
8.5
31
0
0
LINE
5
E6CA
330
E544
100
AcDbEntity
100
AcDbLine
8
METIN_BILGI
10
-7
20
8.44
30
0
11
-7
21
8.56
31
0
0
TEXT
5
E6CB
330
E544
100
AcDbEntity
100
AcDbText
8
METIN_BILGI
10
-7
20
7.5925
30
0
40
0.045
1
SEKTOR 2 (MERKEZ)
50
0
7
STANDARD
72
1
11
-7
21
7.5925
31
0
100
AcDbText
73
2
0
TEXT
5
E6CC
330
E544
100
AcDbEntity
100
AcDbText
8
METIN_BILGI
10
-7
20
7.5375000000000005
30
0
40
0.035
1
617 x 1635 mm (GxY) - 51 kg
50
0
7
STANDARD
72
1
11
-7
21
7.5375000000000005
31
0
100
AcDbText
73
2
0
LINE
5
E6E7
330
E544
100
AcDbEntity
100
AcDbLine
8
METIN_BILGI
10
-5.76
20
8.5
30
0
11
-5.640000000000001
21
8.5
31
0
0
LINE
5
E6E8
330
E544
100
AcDbEntity
100
AcDbLine
8
METIN_BILGI
10
-5.7
20
8.44
30
0
11
-5.7
21
8.56
31
0
0
TEXT
5
E6E9
330
E544
100
AcDbEntity
100
AcDbText
8
METIN_BILGI
10
-5.7
20
7.5925
30
0
40
0.045
1
SEKTOR 3 (SAG)
50
0
7
STANDARD
72
1
11
-5.7
21
7.5925
31
0
100
AcDbText
73
2
0
TEXT
5
E6EA
330
E544
100
AcDbEntity
100
AcDbText
8
METIN_BILGI
10
-5.7
20
7.5375000000000005
30
0
40
0.035
1
617 x 1635 mm (GxY) - 51 kg
50
0
7
STANDARD
72
1
11
-5.7
21
7.5375000000000005
31
0
100
AcDbText
73
2
0
TEXT
5
E722
330
E544
100
AcDbEntity
100
AcDbText
8
METIN_BILGI
10
2.9
20
8.259500000000001
30
0
40
0.045
1
ANT-1 (-15°)
50
0
7
STANDARD
72
1
11
2.9
21
8.259500000000001
31
0
100
AcDbText
73
2
0
TEXT
5
E744
330
E544
100
AcDbEntity
100
AcDbText
8
METIN_BILGI
10
4
20
7.9595
30
0
40
0.045
1
ANT-2 (0°)
50
0
7
STANDARD
72
1
11
4
21
7.9595
31
0
100
AcDbText
73
2
0
TEXT
5
E766
330
E544
100
AcDbEntity
100
AcDbText
8
METIN_BILGI
10
5.1
20
8.259500000000001
30
0
40
0.045
1
ANT-3 (+15°)
50
0
7
STANDARD
72
1
11
5.1
21
8.259500000000001
31
0
100
AcDbText
73
2
0
LWPOLYLINE
5
E767
330
E544
100
AcDbEntity
100
AcDbPolyline
8
METIN_BILGI
6
ByLayer
62
256
370
-1
90
4
70
1
10
-9.5
20
5.9
10
-9.5
20
11.3
10
9
20
11.3
10
9
20
5.9
0
TEXT
5
E768
330
E544
100
AcDbEntity
100
AcDbText
8
METIN_BILGI
10
-9.200000000000001
20
11
30
0
40
0.18
1
BOLUM 3: 3'LU (TRIPLE) MATSING ANTEN KESIT, DIZI VE ACISAL KAPSAMA PLANI
50
0
7
STANDARD
100
AcDbText
0
TEXT
5
E78E
330
E544
100
AcDbEntity
100
AcDbText
8
METIN_BILGI
10
-14.085994898604689
20
2.56
30
0
40
0.04
1
CATI MAKASI ANA BORUSU (Ø280mm)
50
0
7
STANDARD
72
0
11
-14.085994898604689
21
2.56
31
0
100
AcDbText
73
2
0
TEXT
5
E78F
330
E544
100
AcDbEntity
100
AcDbText
8
METIN_BILGI
10
-14.548315826371692
20
1.246836985418844
30
0
40
0.035
1
2x Ø70mm OFSET DUSEY BORU
50
0
7
STANDARD
72
2
11
-14.548315826371692
21
1.246836985418844
31
0
100
AcDbText
73
2
0
TEXT
5
E790
330
E544
100
AcDbEntity
100
AcDbText
8
METIN_BILGI
10
-14.013673970837688
20
0.4983158263716897
30
0
40
0.032
1
CAPRAZ GECIS KELEPCESI (M14)
50
0
7
STANDARD
72
0
11
-14.013673970837688
21
0.4983158263716897
31
0
100
AcDbText
73
2
0
TEXT
5
E7B6
330
E544
100
AcDbEntity
100
AcDbText
8
METIN_BILGI
10
-14
20
-1.0675
30
0
40
0.045
1
LOKASYON A: 45m CATI MAKASI ASKILI KESIT
50
0
7
STANDARD
72
1
11
-14
21
-1.0675
31
0
100
AcDbText
73
2
0
TEXT
5
E7B7
330
E544
100
AcDbEntity
100
AcDbText
8
METIN_BILGI
10
-14
20
-1.1275
30
0
40
0.035
1
Mekanik Imalat ve Tasiyici Aski Profili (One ve Yere 45° Egim)
50
0
7
STANDARD
72
1
11
-14
21
-1.1275
31
0
100
AcDbText
73
2
0
TEXT
5
E7DC
330
E544
100
AcDbEntity
100
AcDbText
8
METIN_BILGI
10
-4.64831582637169
20
3.15
30
0
40
0.06
1
SKORBOARD DEV BORU (Ø1500mm)
50
0
7
STANDARD
72
1
11
-4.64831582637169
21
3.15
31
0
100
AcDbText
73
2
0
TEXT
5
E7DD
330
E544
100
AcDbEntity
100
AcDbText
8
METIN_BILGI
10
-4.64831582637169
20
3.05
30
0
40
0.04
1
360° Cember Kelepce Bilezigi (M24 Civatali)
50
0
7
STANDARD
72
1
11
-4.64831582637169
21
3.05
31
0
100
AcDbText
73
2
0
TEXT
5
E7DE
330
E544
100
AcDbEntity
100
AcDbText
8
METIN_BILGI
10
-4.57831582637169
20
1.246836985418844
30
0
40
0.035
1
Ø114mm x 2090mm TASIYICI BORU
50
0
7
STANDARD
72
2
11
-4.57831582637169
21
1.246836985418844
31
0
100
AcDbText
73
2
0
TEXT
5
E7DF
330
E544
100
AcDbEntity
100
AcDbText
8
METIN_BILGI
10
-4.013673970837687
20
0.4983158263716897
30
0
40
0.032
1
MAFSALLI SABITLEME KELEPCESI
50
0
7
STANDARD
72
0
11
-4.013673970837687
21
0.4983158263716897
31
0
100
AcDbText
73
2
0
TEXT
5
E805
330
E544
100
AcDbEntity
100
AcDbText
8
METIN_BILGI
10
-4
20
-1.0675
30
0
40
0.045
1
LOKASYON B: SKORBOARD Ø1500mm BORU CEMBER KESITI
50
0
7
STANDARD
72
1
11
-4
21
-1.0675
31
0
100
AcDbText
73
2
0
TEXT
5
E806
330
E544
100
AcDbEntity
100
AcDbText
8
METIN_BILGI
10
-4
20
-1.1275
30
0
40
0.035
1
Mekanik Imalat ve Tasiyici Aski Profili (One ve Yere 45° Egim)
50
0
7
STANDARD
72
1
11
-4
21
-1.1275
31
0
100
AcDbText
73
2
0
TEXT
5
E832
330
E544
100
AcDbEntity
100
AcDbText
8
METIN_BILGI
10
5.30168417362831
20
2.6
30
0
40
0.04
1
KEDI YOLU PLATFORMU (900mm)
50
0
7
STANDARD
72
1
11
5.30168417362831
21
2.6
31
0
100
AcDbText
73
2
0
TEXT
5
E833
330
E544
100
AcDbEntity
100
AcDbText
8
METIN_BILGI
10
5.12168417362831
20
1.4115
30
0
40
0.035
1
Ø45.7cm SILINDIR TASIYICI BORU
50
0
7
STANDARD
72
1
11
5.12168417362831
21
1.4115
31
0
100
AcDbText
73
2
0
TEXT
5
E859
330
E544
100
AcDbEntity
100
AcDbText
8
METIN_BILGI
10
6
20
-1.0675
30
0
40
0.045
1
LOKASYON C: CATI UCU KEDI YOLU & Ø45.7cm SILINDIR KESITI
50
0
7
STANDARD
72
1
11
6
21
-1.0675
31
0
100
AcDbText
73
2
0
TEXT
5
E85A
330
E544
100
AcDbEntity
100
AcDbText
8
METIN_BILGI
10
6
20
-1.1275
30
0
40
0.035
1
Mekanik Imalat ve Tasiyici Aski Profili (One ve Yere 45° Egim)
50
0
7
STANDARD
72
1
11
6
21
-1.1275
31
0
100
AcDbText
73
2
0
LWPOLYLINE
5
E85B
330
E544
100
AcDbEntity
100
AcDbPolyline
8
METIN_BILGI
6
ByLayer
62
256
370
-1
90
4
70
1
10
-18
20
-2.6
10
-18
20
4.199999999999999
10
8
20
4.199999999999999
10
8
20
-2.6
0
TEXT
5
E85C
330
E544
100
AcDbEntity
100
AcDbText
8
METIN_BILGI
10
-17.5
20
3.9
30
0
40
0.18
1
BOLUM 4: LOKASYON BAZLI MONTAJ VE ASKI SISTEMI KESITLERI (TUM TRIBUN VE CATILAR)
50
0
7
STANDARD
100
AcDbText
0
LWPOLYLINE
5
E85D
330
E544
100
AcDbEntity
100
AcDbPolyline
8
METIN_BILGI
6
ByLayer
62
256
370
-1
90
4
70
1
10
13.5
20
1.4000000000000001
10
13.5
20
6.200000000000001
10
24.7
20
6.200000000000001
10
24.7
20
1.4000000000000001
0
TEXT
5
E85E
330
E544
100
AcDbEntity
100
AcDbText
8
METIN_BILGI
10
13.7
20
5.900000000000001
30
0
40
0.24
1
EKIPMAN VE ALTYAPI YERLESIM CETVELI (BOM)
50
0
7
STANDARD
100
AcDbText
0
LINE
5
E85F
330
E544
100
AcDbEntity
100
AcDbLine
8
METIN_BILGI
10
13.5
20
5.800000000000001
30
0
11
24.7
21
5.800000000000001
31
0
0
LINE
5
E860
330
E544
100
AcDbEntity
100
AcDbLine
8
METIN_BILGI
10
13.5
20
5.4
30
0
11
24.7
21
5.4
31
0
0
LINE
5
E861
330
E544
100
AcDbEntity
100
AcDbLine
8
METIN_BILGI
10
14.7
20
1.4000000000000001
30
0
11
14.7
21
5.800000000000001
31
0
0
LINE
5
E862
330
E544
100
AcDbEntity
100
AcDbLine
8
METIN_BILGI
10
20.7
20
1.4000000000000001
30
0
11
20.7
21
5.800000000000001
31
0
0
LINE
5
E863
330
E544
100
AcDbEntity
100
AcDbLine
8
METIN_BILGI
10
23.2
20
1.4000000000000001
30
0
11
23.2
21
5.800000000000001
31
0
0
TEXT
5
E864
330
E544
100
AcDbEntity
100
AcDbText
8
METIN_BILGI
10
13.6
20
5.5200000000000005
30
0
40
0.18
1
NO
50
0
7
STANDARD
100
AcDbText
0
TEXT
5
E865
330
E544
100
AcDbEntity
100
AcDbText
8
METIN_BILGI
10
14.799999999999999
20
5.5200000000000005
30
0
40
0.18
1
EKIPMAN TANIMI
50
0
7
STANDARD
100
AcDbText
0
TEXT
5
E866
330
E544
100
AcDbEntity
100
AcDbText
8
METIN_BILGI
10
20.8
20
5.5200000000000005
30
0
40
0.18
1
BOYUTLAR (GxDxY)
50
0
7
STANDARD
100
AcDbText
0
TEXT
5
E867
330
E544
100
AcDbEntity
100
AcDbText
8
METIN_BILGI
10
23.3
20
5.5200000000000005
30
0
40
0.18
1
ADET
50
0
7
STANDARD
100
AcDbText
0
LINE
5
E868
330
E544
100
AcDbEntity
100
AcDbLine
8
METIN_BILGI
10
13.5
20
5.000000000000001
30
0
11
24.7
21
5.000000000000001
31
0
0
TEXT
5
E869
330
E544
100
AcDbEntity
100
AcDbText
8
METIN_BILGI
10
13.6
20
5.120000000000001
30
0
40
0.16
1
1
50
0
7
STANDARD
100
AcDbText
0
TEXT
5
E86A
330
E544
100
AcDbEntity
100
AcDbText
8
METIN_BILGI
10
14.799999999999999
20
5.120000000000001
30
0
40
0.16
1
Matsing 4-Beam Cok Huzmeli Lens Anteni (MS-MBA-4.4.2)
50
0
7
STANDARD
100
AcDbText
0
TEXT
5
E86B
330
E544
100
AcDbEntity
100
AcDbText
8
METIN_BILGI
10
20.8
20
5.120000000000001
30
0
40
0.16
1
617x721x1635 mm
50
0
7
STANDARD
100
AcDbText
0
TEXT
5
E86C
330
E544
100
AcDbEntity
100
AcDbText
8
METIN_BILGI
10
23.3
20
5.120000000000001
30
0
40
0.16
1
Tipik
50
0
7
STANDARD
100
AcDbText
0
LINE
5
E86D
330
E544
100
AcDbEntity
100
AcDbLine
8
METIN_BILGI
10
13.5
20
4.6000000000000005
30
0
11
24.7
21
4.6000000000000005
31
0
0
TEXT
5
E86E
330
E544
100
AcDbEntity
100
AcDbText
8
METIN_BILGI
10
13.6
20
4.720000000000001
30
0
40
0.16
1
2
50
0
7
STANDARD
100
AcDbText
0
TEXT
5
E86F
330
E544
100
AcDbEntity
100
AcDbText
8
METIN_BILGI
10
14.799999999999999
20
4.720000000000001
30
0
40
0.16
1
Tekli Aski Borusu (3" Galvanizli Celik Direk)
50
0
7
STANDARD
100
AcDbText
0
TEXT
5
E870
330
E544
100
AcDbEntity
100
AcDbText
8
METIN_BILGI
10
20.8
20
4.720000000000001
30
0
40
0.16
1
Ø76.2mm x 1800mm
50
0
7
STANDARD
100
AcDbText
0
TEXT
5
E871
330
E544
100
AcDbEntity
100
AcDbText
8
METIN_BILGI
10
23.3
20
4.720000000000001
30
0
40
0.16
1
1 / Anten
50
0
7
STANDARD
100
AcDbText
0
LINE
5
E872
330
E544
100
AcDbEntity
100
AcDbLine
8
METIN_BILGI
10
13.5
20
4.200000000000001
30
0
11
24.7
21
4.200000000000001
31
0
0
TEXT
5
E873
330
E544
100
AcDbEntity
100
AcDbText
8
METIN_BILGI
10
13.6
20
4.320000000000001
30
0
40
0.16
1
3
50
0
7
STANDARD
100
AcDbText
0
TEXT
5
E874
330
E544
100
AcDbEntity
100
AcDbText
8
METIN_BILGI
10
14.799999999999999
20
4.320000000000001
30
0
40
0.16
1
Cift Dusey Ofset Aski Borulari (Alt: 1.15m, Ust: 1.55m)
50
0
7
STANDARD
100
AcDbText
0
TEXT
5
E875
330
E544
100
AcDbEntity
100
AcDbText
8
METIN_BILGI
10
20.8
20
4.320000000000001
30
0
40
0.16
1
Ø70mm Galvaniz Celik
50
0
7
STANDARD
100
AcDbText
0
TEXT
5
E876
330
E544
100
AcDbEntity
100
AcDbText
8
METIN_BILGI
10
23.3
20
4.320000000000001
30
0
40
0.16
1
2 / Anten
50
0
7
STANDARD
100
AcDbText
0
LINE
5
E877
330
E544
100
AcDbEntity
100
AcDbLine
8
METIN_BILGI
10
13.5
20
3.8000000000000007
30
0
11
24.7
21
3.8000000000000007
31
0
0
TEXT
5
E878
330
E544
100
AcDbEntity
100
AcDbText
8
METIN_BILGI
10
13.6
20
3.920000000000001
30
0
40
0.16
1
4
50
0
7
STANDARD
100
AcDbText
0
TEXT
5
E879
330
E544
100
AcDbEntity
100
AcDbText
8
METIN_BILGI
10
14.799999999999999
20
3.920000000000001
30
0
40
0.16
1
Agir Hizmet Capraz Gecis Kelepceleri (Crossover Clamps)
50
0
7
STANDARD
100
AcDbText
0
TEXT
5
E87A
330
E544
100
AcDbEntity
100
AcDbText
8
METIN_BILGI
10
20.8
20
3.920000000000001
30
0
40
0.16
1
160x120x160 mm / M14
50
0
7
STANDARD
100
AcDbText
0
TEXT
5
E87B
330
E544
100
AcDbEntity
100
AcDbText
8
METIN_BILGI
10
23.3
20
3.920000000000001
30
0
40
0.16
1
2 / Anten
50
0
7
STANDARD
100
AcDbText
0
LINE
5
E87C
330
E544
100
AcDbEntity
100
AcDbLine
8
METIN_BILGI
10
13.5
20
3.4000000000000004
30
0
11
24.7
21
3.4000000000000004
31
0
0
TEXT
5
E87D
330
E544
100
AcDbEntity
100
AcDbText
8
METIN_BILGI
10
13.6
20
3.5200000000000005
30
0
40
0.16
1
5
50
0
7
STANDARD
100
AcDbText
0
TEXT
5
E87E
330
E544
100
AcDbEntity
100
AcDbText
8
METIN_BILGI
10
14.799999999999999
20
3.5200000000000005
30
0
40
0.16
1
Anten Sirti Mafsalli Egim Kelepcesi (0-45° Tilt)
50
0
7
STANDARD
100
AcDbText
0
TEXT
5
E87F
330
E544
100
AcDbEntity
100
AcDbText
8
METIN_BILGI
10
20.8
20
3.5200000000000005
30
0
40
0.16
1
Ø76.2mm U-Boltlu
50
0
7
STANDARD
100
AcDbText
0
TEXT
5
E880
330
E544
100
AcDbEntity
100
AcDbText
8
METIN_BILGI
10
23.3
20
3.5200000000000005
30
0
40
0.16
1
2 / Anten
50
0
7
STANDARD
100
AcDbText
0
LINE
5
E881
330
E544
100
AcDbEntity
100
AcDbLine
8
METIN_BILGI
10
13.5
20
3.0000000000000004
30
0
11
24.7
21
3.0000000000000004
31
0
0
TEXT
5
E882
330
E544
100
AcDbEntity
100
AcDbText
8
METIN_BILGI
10
13.6
20
3.1200000000000006
30
0
40
0.16
1
6
50
0
7
STANDARD
100
AcDbText
0
TEXT
5
E883
330
E544
100
AcDbEntity
100
AcDbText
8
METIN_BILGI
10
14.799999999999999
20
3.1200000000000006
30
0
40
0.16
1
2'li Ikili Montaj Traversi (Kutu Profil)
50
0
7
STANDARD
100
AcDbText
0
TEXT
5
E884
330
E544
100
AcDbEntity
100
AcDbText
8
METIN_BILGI
10
20.8
20
3.1200000000000006
30
0
40
0.16
1
120x80x6mm x 2500mm
50
0
7
STANDARD
100
AcDbText
0
TEXT
5
E885
330
E544
100
AcDbEntity
100
AcDbText
8
METIN_BILGI
10
23.3
20
3.1200000000000006
30
0
40
0.16
1
Opsiyon
50
0
7
STANDARD
100
AcDbText
0
LINE
5
E886
330
E544
100
AcDbEntity
100
AcDbLine
8
METIN_BILGI
10
13.5
20
2.6000000000000005
30
0
11
24.7
21
2.6000000000000005
31
0
0
TEXT
5
E887
330
E544
100
AcDbEntity
100
AcDbText
8
METIN_BILGI
10
13.6
20
2.7200000000000006
30
0
40
0.16
1
7
50
0
7
STANDARD
100
AcDbText
0
TEXT
5
E888
330
E544
100
AcDbEntity
100
AcDbText
8
METIN_BILGI
10
14.799999999999999
20
2.7200000000000006
30
0
40
0.16
1
3'lu Moduler Kafes Kiris Sasisi (Agir Hizmet)
50
0
7
STANDARD
100
AcDbText
0
TEXT
5
E889
330
E544
100
AcDbEntity
100
AcDbText
8
METIN_BILGI
10
20.8
20
2.7200000000000006
30
0
40
0.16
1
140x100x8mm x 3800mm
50
0
7
STANDARD
100
AcDbText
0
TEXT
5
E88A
330
E544
100
AcDbEntity
100
AcDbText
8
METIN_BILGI
10
23.3
20
2.7200000000000006
30
0
40
0.16
1
Opsiyon
50
0
7
STANDARD
100
AcDbText
0
LINE
5
E88B
330
E544
100
AcDbEntity
100
AcDbLine
8
METIN_BILGI
10
13.5
20
2.2000000000000006
30
0
11
24.7
21
2.2000000000000006
31
0
0
TEXT
5
E88C
330
E544
100
AcDbEntity
100
AcDbText
8
METIN_BILGI
10
13.6
20
2.3200000000000007
30
0
40
0.16
1
8
50
0
7
STANDARD
100
AcDbText
0
TEXT
5
E88D
330
E544
100
AcDbEntity
100
AcDbText
8
METIN_BILGI
10
14.799999999999999
20
2.3200000000000007
30
0
40
0.16
1
Skorboard Ø1500mm 360° Cember Kelepce Bilezigi
50
0
7
STANDARD
100
AcDbText
0
TEXT
5
E88E
330
E544
100
AcDbEntity
100
AcDbText
8
METIN_BILGI
10
20.8
20
2.3200000000000007
30
0
40
0.16
1
Ø1590x200x20 mm
50
0
7
STANDARD
100
AcDbText
0
TEXT
5
E88F
330
E544
100
AcDbEntity
100
AcDbText
8
METIN_BILGI
10
23.3
20
2.3200000000000007
30
0
40
0.16
1
Skorboard
50
0
7
STANDARD
100
AcDbText
0
LINE
5
E890
330
E544
100
AcDbEntity
100
AcDbLine
8
METIN_BILGI
10
13.5
20
1.8000000000000007
30
0
11
24.7
21
1.8000000000000007
31
0
0
TEXT
5
E891
330
E544
100
AcDbEntity
100
AcDbText
8
METIN_BILGI
10
13.6
20
1.9200000000000008
30
0
40
0.16
1
9
50
0
7
STANDARD
100
AcDbText
0
TEXT
5
E892
330
E544
100
AcDbEntity
100
AcDbText
8
METIN_BILGI
10
14.799999999999999
20
1.9200000000000008
30
0
40
0.16
1
Skorboard Ana Dusey Tasiyici Boru
50
0
7
STANDARD
100
AcDbText
0
TEXT
5
E893
330
E544
100
AcDbEntity
100
AcDbText
8
METIN_BILGI
10
20.8
20
1.9200000000000008
30
0
40
0.16
1
Ø114mm x 2090mm
50
0
7
STANDARD
100
AcDbText
0
TEXT
5
E894
330
E544
100
AcDbEntity
100
AcDbText
8
METIN_BILGI
10
23.3
20
1.9200000000000008
30
0
40
0.16
1
Skorboard
50
0
7
STANDARD
100
AcDbText
0
LINE
5
E895
330
E544
100
AcDbEntity
100
AcDbLine
8
METIN_BILGI
10
13.5
20
1.4000000000000004
30
0
11
24.7
21
1.4000000000000004
31
0
0
TEXT
5
E896
330
E544
100
AcDbEntity
100
AcDbText
8
METIN_BILGI
10
13.6
20
1.5200000000000005
30
0
40
0.16
1
10
50
0
7
STANDARD
100
AcDbText
0
TEXT
5
E897
330
E544
100
AcDbEntity
100
AcDbText
8
METIN_BILGI
10
14.799999999999999
20
1.5200000000000005
30
0
40
0.16
1
1/2" Feeder Jumper Kablo Seti (4.3-10 DIN Disi)
50
0
7
STANDARD
100
AcDbText
0
TEXT
5
E898
330
E544
100
AcDbEntity
100
AcDbText
8
METIN_BILGI
10
20.8
20
1.5200000000000005
30
0
40
0.16
1
28 Port / Anten
50
0
7
STANDARD
100
AcDbText
0
TEXT
5
E899
330
E544
100
AcDbEntity
100
AcDbText
8
METIN_BILGI
10
23.3
20
1.5200000000000005
30
0
40
0.16
1
28 / Anten
50
0
7
STANDARD
100
AcDbText
0
LWPOLYLINE
5
E89A
330
E544
100
AcDbEntity
100
AcDbPolyline
8
METIN_BILGI
6
ByLayer
62
256
370
-1
90
4
70
1
10
13.5
20
-2.4
10
13.5
20
-0.19999999999999973
10
21.5
20
-0.19999999999999973
10
21.5
20
-2.4
0
LINE
5
E89B
330
E544
100
AcDbEntity
100
AcDbLine
8
METIN_BILGI
10
13.5
20
-0.9999999999999998
30
0
11
21.5
21
-0.9999999999999998
31
0
0
LINE
5
E89C
330
E544
100
AcDbEntity
100
AcDbLine
8
METIN_BILGI
10
13.5
20
-1.6999999999999997
30
0
11
21.5
21
-1.6999999999999997
31
0
0
LINE
5
E89D
330
E544
100
AcDbEntity
100
AcDbLine
8
METIN_BILGI
10
18
20
-2.4
30
0
11
18
21
-0.9999999999999998
31
0
0
TEXT
5
E89E
330
E544
100
AcDbEntity
100
AcDbText
8
METIN_BILGI
10
13.7
20
-0.7499999999999998
30
0
40
0.32
1
GALATASARAY STADYUMU GSM ALTYAPI PROJESI
50
0
7
STANDARD
100
AcDbText
0
TEXT
5
E89F
330
E544
100
AcDbEntity
100
AcDbText
8
METIN_BILGI
10
13.7
20
-1.4499999999999997
30
0
40
0.26
1
ALAN: MATSING 4-BEAM LENS ANTENLERI TUM LOKASYONLAR KESITLERI (TEKLI, 2'LI, 3'LU) (DETAY KESIT PAFTASI)
50
0
7
STANDARD
100
AcDbText
0
TEXT
5
E8A0
330
E544
100
AcDbEntity
100
AcDbText
8
METIN_BILGI
10
13.7
20
-2.12
30
0
40
0.2
1
OLCEK: 1:1 m (1:1 m)
50
0
7
STANDARD
100
AcDbText
0
TEXT
5
E8A1
330
E544
100
AcDbEntity
100
AcDbText
8
METIN_BILGI
10
18.2
20
-1.4499999999999997
30
0
40
0.18
1
CIZIM: ANTIGRAVITY CAD / BIM
50
0
7
STANDARD
100
AcDbText
0
TEXT
5
E8A2
330
E544
100
AcDbEntity
100
AcDbText
8
METIN_BILGI
10
18.2
20
-2.12
30
0
40
0.18
1
TARIH: 2026-10-04
50
0
7
STANDARD
100
AcDbText
0
CIRCLE
5
E8A3
330
E544
100
AcDbEntity
100
AcDbCircle
8
METIN_BILGI
10
12
20
-1.2999999999999998
30
0
40
0.8
0
LINE
5
E8A4
330
E544
100
AcDbEntity
100
AcDbLine
8
METIN_BILGI
10
12
20
-2.02
30
0
11
12
21
-0.5799999999999997
31
0
0
LINE
5
E8A5
330
E544
100
AcDbEntity
100
AcDbLine
8
METIN_BILGI
10
12
20
-0.5799999999999997
30
0
11
11.75
21
-0.9999999999999998
31
0
0
LINE
5
E8A6
330
E544
100
AcDbEntity
100
AcDbLine
8
METIN_BILGI
10
12
20
-0.5799999999999997
30
0
11
12.25
21
-0.9999999999999998
31
0
0
TEXT
5
E8A7
330
E544
100
AcDbEntity
100
AcDbText
8
METIN_BILGI
10
12
20
-0.29999999999999977
30
0
40
0.3
1
K
50
0
7
STANDARD
72
1
11
12
21
-0.29999999999999977
31
0
100
AcDbText
73
2
0
LWPOLYLINE
5
E55F
330
E544
100
AcDbEntity
100
AcDbPolyline
8
EKP_MATSING_ANTEN
6
ByLayer
62
256
370
-1
90
4
70
1
10
-18.3085
20
16.1825
10
-18.3085
20
17.817500000000003
10
-17.691499999999998
20
17.817500000000003
10
-17.691499999999998
20
16.1825
0
LINE
5
E560
330
E544
100
AcDbEntity
100
AcDbLine
8
EKP_MATSING_ANTEN
10
-18.278499999999998
20
16.1825
30
0
11
-18.278499999999998
21
17.8175
31
0
0
LINE
5
E561
330
E544
100
AcDbEntity
100
AcDbLine
8
EKP_MATSING_ANTEN
10
-17.721500000000002
20
16.1825
30
0
11
-17.721500000000002
21
17.8175
31
0
0
CIRCLE
5
E562
330
E544
100
AcDbEntity
100
AcDbCircle
8
EKP_MATSING_ANTEN
10
-18
20
17
30
0
40
0.28382
0
CIRCLE
5
E563
330
E544
100
AcDbEntity
100
AcDbCircle
8
EKP_MATSING_ANTEN
10
-18
20
17
30
0
40
0.20435040000000002
0
CIRCLE
5
E564
330
E544
100
AcDbEntity
100
AcDbCircle
8
EKP_MATSING_ANTEN
10
-18
20
17
30
0
40
0.12488080000000001
0
LINE
5
E565
330
E544
100
AcDbEntity
100
AcDbLine
8
EKP_MATSING_ANTEN
10
-18.25914
20
16.5095
30
0
11
-17.74086
21
16.5095
31
0
0
TEXT
5
E566
330
E544
100
AcDbEntity
100
AcDbText
8
EKP_MATSING_ANTEN
10
-18
20
16.5295
30
0
40
0.032
1
BEAM 4 (HUZME 4)
50
0
7
STANDARD
72
1
11
-18
21
16.5295
31
0
100
AcDbText
73
2
0
LINE
5
E567
330
E544
100
AcDbEntity
100
AcDbLine
8
EKP_MATSING_ANTEN
10
-18.25914
20
16.8365
30
0
11
-17.74086
21
16.8365
31
0
0
TEXT
5
E568
330
E544
100
AcDbEntity
100
AcDbText
8
EKP_MATSING_ANTEN
10
-18
20
16.8565
30
0
40
0.032
1
BEAM 3 (HUZME 3)
50
0
7
STANDARD
72
1
11
-18
21
16.8565
31
0
100
AcDbText
73
2
0
LINE
5
E569
330
E544
100
AcDbEntity
100
AcDbLine
8
EKP_MATSING_ANTEN
10
-18.25914
20
17.1635
30
0
11
-17.74086
21
17.1635
31
0
0
TEXT
5
E56A
330
E544
100
AcDbEntity
100
AcDbText
8
EKP_MATSING_ANTEN
10
-18
20
17.1835
30
0
40
0.032
1
BEAM 2 (HUZME 2)
50
0
7
STANDARD
72
1
11
-18
21
17.1835
31
0
100
AcDbText
73
2
0
LINE
5
E56B
330
E544
100
AcDbEntity
100
AcDbLine
8
EKP_MATSING_ANTEN
10
-18.25914
20
17.4905
30
0
11
-17.74086
21
17.4905
31
0
0
TEXT
5
E56C
330
E544
100
AcDbEntity
100
AcDbText
8
EKP_MATSING_ANTEN
10
-18
20
17.5105
30
0
40
0.032
1
BEAM 1 (HUZME 1)
50
0
7
STANDARD
72
1
11
-18
21
17.5105
31
0
100
AcDbText
73
2
0
LINE
5
E57B
330
E544
100
AcDbEntity
100
AcDbLine
8
EKP_MATSING_ANTEN
10
-11.648567929750286
20
17.804687516990292
30
0
11
-11.202383550821574
21
17.35850313806158
31
0
0
LINE
5
E57C
330
E544
100
AcDbEntity
100
AcDbLine
8
EKP_MATSING_ANTEN
10
-11.202383550821574
20
17.35850313806158
30
0
11
-11.253737180805247
21
17.23643882995925
31
0
0
LINE
5
E57D
330
E544
100
AcDbEntity
100
AcDbLine
8
EKP_MATSING_ANTEN
10
-11.253737180805247
20
17.23643882995925
30
0
11
-11.716803734134787
21
16.71680373413479
31
0
0
LINE
5
E57E
330
E544
100
AcDbEntity
100
AcDbLine
8
EKP_MATSING_ANTEN
10
-11.716803734134787
20
16.71680373413479
30
0
11
-12.236438829959253
21
16.25373718080525
31
0
0
LINE
5
E57F
330
E544
100
AcDbEntity
100
AcDbLine
8
EKP_MATSING_ANTEN
10
-12.236438829959253
20
16.25373718080525
30
0
11
-12.35850313806158
21
16.202383550821573
31
0
0
LINE
5
E580
330
E544
100
AcDbEntity
100
AcDbLine
8
EKP_MATSING_ANTEN
10
-12.35850313806158
20
16.202383550821573
30
0
11
-12.804687516990292
21
16.648567929750286
31
0
0
LINE
5
E581
330
E544
100
AcDbEntity
100
AcDbLine
8
EKP_MATSING_ANTEN
10
-12.804687516990292
20
16.648567929750286
30
0
11
-12.804068798556752
21
16.705755190678747
31
0
0
LINE
5
E582
330
E544
100
AcDbEntity
100
AcDbLine
8
EKP_MATSING_ANTEN
10
-12.804068798556752
20
16.705755190678747
30
0
11
-11.705755190678747
21
17.804068798556752
31
0
0
LINE
5
E583
330
E544
100
AcDbEntity
100
AcDbLine
8
EKP_MATSING_ANTEN
10
-11.705755190678747
20
17.804068798556752
30
0
11
-11.648567929750286
21
17.804687516990292
31
0
0
LINE
5
E584
330
E544
100
AcDbEntity
100
AcDbLine
8
EKP_MATSING_ANTEN
10
-11.525708126519124
20
17.219379878863126
30
0
11
-11.821561603767575
21
16.821561603767574
31
0
0
LINE
5
E585
330
E544
100
AcDbEntity
100
AcDbLine
8
EKP_MATSING_ANTEN
10
-11.821561603767575
20
16.821561603767574
30
0
11
-12.219379878863126
21
16.525708126519124
31
0
0
LINE
5
E5CA
330
E544
100
AcDbEntity
100
AcDbLine
8
EKP_MATSING_ANTEN
10
-6.13
20
16.6395
30
0
11
-5.87
21
16.6395
31
0
0
LINE
5
E5CB
330
E544
100
AcDbEntity
100
AcDbLine
8
EKP_MATSING_ANTEN
10
-5.87
20
16.6395
30
0
11
-5.6915
21
16.8195
31
0
0
LINE
5
E5CC
330
E544
100
AcDbEntity
100
AcDbLine
8
EKP_MATSING_ANTEN
10
-5.6915
20
16.8195
30
0
11
-5.768625
21
17.234325
31
0
0
LINE
5
E5CD
330
E544
100
AcDbEntity
100
AcDbLine
8
EKP_MATSING_ANTEN
10
-5.768625
20
17.234325
30
0
11
-6
21
17.3605
31
0
0
LINE
5
E5CE
330
E544
100
AcDbEntity
100
AcDbLine
8
EKP_MATSING_ANTEN
10
-6
20
17.3605
30
0
11
-6.231375
21
17.234325
31
0
0
LINE
5
E5CF
330
E544
100
AcDbEntity
100
AcDbLine
8
EKP_MATSING_ANTEN
10
-6.231375
20
17.234325
30
0
11
-6.3085
21
16.8195
31
0
0
LINE
5
E5D0
330
E544
100
AcDbEntity
100
AcDbLine
8
EKP_MATSING_ANTEN
10
-6.3085
20
16.8195
30
0
11
-6.13
21
16.6395
31
0
0
CIRCLE
5
E5D1
330
E544
100
AcDbEntity
100
AcDbCircle
8
EKP_MATSING_ANTEN
10
-6
20
17
30
0
40
0.262225
0
CIRCLE
5
E5D2
330
E544
100
AcDbEntity
100
AcDbCircle
8
EKP_MATSING_ANTEN
10
-6
20
17
30
0
40
0.16967500000000002
0
LWPOLYLINE
5
E5F0
330
E544
100
AcDbEntity
100
AcDbPolyline
8
EKP_MATSING_ANTEN
6
ByLayer
62
256
370
-1
90
4
70
1
10
7.4915
20
16.1825
10
7.4915
20
17.817500000000003
10
8.1085
20
17.817500000000003
10
8.1085
20
16.1825
0
LINE
5
E5F1
330
E544
100
AcDbEntity
100
AcDbLine
8
EKP_MATSING_ANTEN
10
7.5215000000000005
20
16.1825
30
0
11
7.5215000000000005
21
17.8175
31
0
0
LINE
5
E5F2
330
E544
100
AcDbEntity
100
AcDbLine
8
EKP_MATSING_ANTEN
10
8.0785
20
16.1825
30
0
11
8.0785
21
17.8175
31
0
0
CIRCLE
5
E5F3
330
E544
100
AcDbEntity
100
AcDbCircle
8
EKP_MATSING_ANTEN
10
7.8
20
17
30
0
40
0.28382
0
CIRCLE
5
E5F4
330
E544
100
AcDbEntity
100
AcDbCircle
8
EKP_MATSING_ANTEN
10
7.8
20
17
30
0
40
0.20435040000000002
0
CIRCLE
5
E5F5
330
E544
100
AcDbEntity
100
AcDbCircle
8
EKP_MATSING_ANTEN
10
7.8
20
17
30
0
40
0.12488080000000001
0
LINE
5
E5F6
330
E544
100
AcDbEntity
100
AcDbLine
8
EKP_MATSING_ANTEN
10
7.5408599999999995
20
16.5095
30
0
11
8.05914
21
16.5095
31
0
0
TEXT
5
E5F7
330
E544
100
AcDbEntity
100
AcDbText
8
EKP_MATSING_ANTEN
10
7.8
20
16.5295
30
0
40
0.032
1
BEAM 4 (HUZME 4)
50
0
7
STANDARD
72
1
11
7.8
21
16.5295
31
0
100
AcDbText
73
2
0
LINE
5
E5F8
330
E544
100
AcDbEntity
100
AcDbLine
8
EKP_MATSING_ANTEN
10
7.5408599999999995
20
16.8365
30
0
11
8.05914
21
16.8365
31
0
0
TEXT
5
E5F9
330
E544
100
AcDbEntity
100
AcDbText
8
EKP_MATSING_ANTEN
10
7.8
20
16.8565
30
0
40
0.032
1
BEAM 3 (HUZME 3)
50
0
7
STANDARD
72
1
11
7.8
21
16.8565
31
0
100
AcDbText
73
2
0
LINE
5
E5FA
330
E544
100
AcDbEntity
100
AcDbLine
8
EKP_MATSING_ANTEN
10
7.5408599999999995
20
17.1635
30
0
11
8.05914
21
17.1635
31
0
0
TEXT
5
E5FB
330
E544
100
AcDbEntity
100
AcDbText
8
EKP_MATSING_ANTEN
10
7.8
20
17.1835
30
0
40
0.032
1
BEAM 2 (HUZME 2)
50
0
7
STANDARD
72
1
11
7.8
21
17.1835
31
0
100
AcDbText
73
2
0
LINE
5
E5FC
330
E544
100
AcDbEntity
100
AcDbLine
8
EKP_MATSING_ANTEN
10
7.5408599999999995
20
17.4905
30
0
11
8.05914
21
17.4905
31
0
0
TEXT
5
E5FD
330
E544
100
AcDbEntity
100
AcDbText
8
EKP_MATSING_ANTEN
10
7.8
20
17.5105
30
0
40
0.032
1
BEAM 1 (HUZME 1)
50
0
7
STANDARD
72
1
11
7.8
21
17.5105
31
0
100
AcDbText
73
2
0
LWPOLYLINE
5
E60E
330
E544
100
AcDbEntity
100
AcDbPolyline
8
EKP_MATSING_ANTEN
6
ByLayer
62
256
370
-1
90
4
70
1
10
8.891499999999999
20
16.1825
10
8.891499999999999
20
17.817500000000003
10
9.508499999999998
20
17.817500000000003
10
9.508499999999998
20
16.1825
0
LINE
5
E60F
330
E544
100
AcDbEntity
100
AcDbLine
8
EKP_MATSING_ANTEN
10
8.921499999999998
20
16.1825
30
0
11
8.921499999999998
21
17.8175
31
0
0
LINE
5
E610
330
E544
100
AcDbEntity
100
AcDbLine
8
EKP_MATSING_ANTEN
10
9.4785
20
16.1825
30
0
11
9.4785
21
17.8175
31
0
0
CIRCLE
5
E611
330
E544
100
AcDbEntity
100
AcDbCircle
8
EKP_MATSING_ANTEN
10
9.2
20
17
30
0
40
0.28382
0
CIRCLE
5
E612
330
E544
100
AcDbEntity
100
AcDbCircle
8
EKP_MATSING_ANTEN
10
9.2
20
17
30
0
40
0.20435040000000002
0
CIRCLE
5
E613
330
E544
100
AcDbEntity
100
AcDbCircle
8
EKP_MATSING_ANTEN
10
9.2
20
17
30
0
40
0.12488080000000001
0
LINE
5
E614
330
E544
100
AcDbEntity
100
AcDbLine
8
EKP_MATSING_ANTEN
10
8.940859999999999
20
16.5095
30
0
11
9.45914
21
16.5095
31
0
0
TEXT
5
E615
330
E544
100
AcDbEntity
100
AcDbText
8
EKP_MATSING_ANTEN
10
9.2
20
16.5295
30
0
40
0.032
1
BEAM 4 (HUZME 4)
50
0
7
STANDARD
72
1
11
9.2
21
16.5295
31
0
100
AcDbText
73
2
0
LINE
5
E616
330
E544
100
AcDbEntity
100
AcDbLine
8
EKP_MATSING_ANTEN
10
8.940859999999999
20
16.8365
30
0
11
9.45914
21
16.8365
31
0
0
TEXT
5
E617
330
E544
100
AcDbEntity
100
AcDbText
8
EKP_MATSING_ANTEN
10
9.2
20
16.8565
30
0
40
0.032
1
BEAM 3 (HUZME 3)
50
0
7
STANDARD
72
1
11
9.2
21
16.8565
31
0
100
AcDbText
73
2
0
LINE
5
E618
330
E544
100
AcDbEntity
100
AcDbLine
8
EKP_MATSING_ANTEN
10
8.940859999999999
20
17.1635
30
0
11
9.45914
21
17.1635
31
0
0
TEXT
5
E619
330
E544
100
AcDbEntity
100
AcDbText
8
EKP_MATSING_ANTEN
10
9.2
20
17.1835
30
0
40
0.032
1
BEAM 2 (HUZME 2)
50
0
7
STANDARD
72
1
11
9.2
21
17.1835
31
0
100
AcDbText
73
2
0
LINE
5
E61A
330
E544
100
AcDbEntity
100
AcDbLine
8
EKP_MATSING_ANTEN
10
8.940859999999999
20
17.4905
30
0
11
9.45914
21
17.4905
31
0
0
TEXT
5
E61B
330
E544
100
AcDbEntity
100
AcDbText
8
EKP_MATSING_ANTEN
10
9.2
20
17.5105
30
0
40
0.032
1
BEAM 1 (HUZME 1)
50
0
7
STANDARD
72
1
11
9.2
21
17.5105
31
0
100
AcDbText
73
2
0
LINE
5
E640
330
E544
100
AcDbEntity
100
AcDbLine
8
EKP_MATSING_ANTEN
10
17.851432070249714
20
17.804687516990292
30
0
11
18.297616449178427
21
17.35850313806158
31
0
0
LINE
5
E641
330
E544
100
AcDbEntity
100
AcDbLine
8
EKP_MATSING_ANTEN
10
18.297616449178427
20
17.35850313806158
30
0
11
18.24626281919475
21
17.23643882995925
31
0
0
LINE
5
E642
330
E544
100
AcDbEntity
100
AcDbLine
8
EKP_MATSING_ANTEN
10
18.24626281919475
20
17.23643882995925
30
0
11
17.78319626586521
21
16.71680373413479
31
0
0
LINE
5
E643
330
E544
100
AcDbEntity
100
AcDbLine
8
EKP_MATSING_ANTEN
10
17.78319626586521
20
16.71680373413479
30
0
11
17.26356117004075
21
16.25373718080525
31
0
0
LINE
5
E644
330
E544
100
AcDbEntity
100
AcDbLine
8
EKP_MATSING_ANTEN
10
17.26356117004075
20
16.25373718080525
30
0
11
17.14149686193842
21
16.202383550821573
31
0
0
LINE
5
E645
330
E544
100
AcDbEntity
100
AcDbLine
8
EKP_MATSING_ANTEN
10
17.14149686193842
20
16.202383550821573
30
0
11
16.695312483009708
21
16.648567929750286
31
0
0
LINE
5
E646
330
E544
100
AcDbEntity
100
AcDbLine
8
EKP_MATSING_ANTEN
10
16.695312483009708
20
16.648567929750286
30
0
11
16.695931201443248
21
16.705755190678747
31
0
0
LINE
5
E647
330
E544
100
AcDbEntity
100
AcDbLine
8
EKP_MATSING_ANTEN
10
16.695931201443248
20
16.705755190678747
30
0
11
17.794244809321253
21
17.804068798556752
31
0
0
LINE
5
E648
330
E544
100
AcDbEntity
100
AcDbLine
8
EKP_MATSING_ANTEN
10
17.794244809321253
20
17.804068798556752
30
0
11
17.851432070249714
21
17.804687516990292
31
0
0
LINE
5
E649
330
E544
100
AcDbEntity
100
AcDbLine
8
EKP_MATSING_ANTEN
10
17.974291873480876
20
17.219379878863126
30
0
11
17.678438396232426
21
16.821561603767574
31
0
0
LINE
5
E64A
330
E544
100
AcDbEntity
100
AcDbLine
8
EKP_MATSING_ANTEN
10
17.678438396232426
20
16.821561603767574
30
0
11
17.280620121136874
21
16.525708126519124
31
0
0
LWPOLYLINE
5
E693
330
E544
100
AcDbEntity
100
AcDbPolyline
8
EKP_MATSING_ANTEN
6
ByLayer
62
256
370
-1
90
4
70
1
10
-8.608500000000001
20
7.6825
10
-8.608500000000001
20
9.3175
10
-7.991500000000001
20
9.3175
10
-7.991500000000001
20
7.6825
0
LINE
5
E694
330
E544
100
AcDbEntity
100
AcDbLine
8
EKP_MATSING_ANTEN
10
-8.578500000000002
20
7.6825
30
0
11
-8.578500000000002
21
9.3175
31
0
0
LINE
5
E695
330
E544
100
AcDbEntity
100
AcDbLine
8
EKP_MATSING_ANTEN
10
-8.0215
20
7.6825
30
0
11
-8.0215
21
9.3175
31
0
0
CIRCLE
5
E696
330
E544
100
AcDbEntity
100
AcDbCircle
8
EKP_MATSING_ANTEN
10
-8.3
20
8.5
30
0
40
0.28382
0
CIRCLE
5
E697
330
E544
100
AcDbEntity
100
AcDbCircle
8
EKP_MATSING_ANTEN
10
-8.3
20
8.5
30
0
40
0.20435040000000002
0
CIRCLE
5
E698
330
E544
100
AcDbEntity
100
AcDbCircle
8
EKP_MATSING_ANTEN
10
-8.3
20
8.5
30
0
40
0.12488080000000001
0
LINE
5
E699
330
E544
100
AcDbEntity
100
AcDbLine
8
EKP_MATSING_ANTEN
10
-8.559140000000001
20
8.0095
30
0
11
-8.04086
21
8.0095
31
0
0
TEXT
5
E69A
330
E544
100
AcDbEntity
100
AcDbText
8
EKP_MATSING_ANTEN
10
-8.3
20
8.029499999999999
30
0
40
0.032
1
BEAM 4 (HUZME 4)
50
0
7
STANDARD
72
1
11
-8.3
21
8.029499999999999
31
0
100
AcDbText
73
2
0
LINE
5
E69B
330
E544
100
AcDbEntity
100
AcDbLine
8
EKP_MATSING_ANTEN
10
-8.559140000000001
20
8.3365
30
0
11
-8.04086
21
8.3365
31
0
0
TEXT
5
E69C
330
E544
100
AcDbEntity
100
AcDbText
8
EKP_MATSING_ANTEN
10
-8.3
20
8.356499999999999
30
0
40
0.032
1
BEAM 3 (HUZME 3)
50
0
7
STANDARD
72
1
11
-8.3
21
8.356499999999999
31
0
100
AcDbText
73
2
0
LINE
5
E69D
330
E544
100
AcDbEntity
100
AcDbLine
8
EKP_MATSING_ANTEN
10
-8.559140000000001
20
8.6635
30
0
11
-8.04086
21
8.6635
31
0
0
TEXT
5
E69E
330
E544
100
AcDbEntity
100
AcDbText
8
EKP_MATSING_ANTEN
10
-8.3
20
8.6835
30
0
40
0.032
1
BEAM 2 (HUZME 2)
50
0
7
STANDARD
72
1
11
-8.3
21
8.6835
31
0
100
AcDbText
73
2
0
LINE
5
E69F
330
E544
100
AcDbEntity
100
AcDbLine
8
EKP_MATSING_ANTEN
10
-8.559140000000001
20
8.9905
30
0
11
-8.04086
21
8.9905
31
0
0
TEXT
5
E6A0
330
E544
100
AcDbEntity
100
AcDbText
8
EKP_MATSING_ANTEN
10
-8.3
20
9.0105
30
0
40
0.032
1
BEAM 1 (HUZME 1)
50
0
7
STANDARD
72
1
11
-8.3
21
9.0105
31
0
100
AcDbText
73
2
0
LWPOLYLINE
5
E6B1
330
E544
100
AcDbEntity
100
AcDbPolyline
8
EKP_MATSING_ANTEN
6
ByLayer
62
256
370
-1
90
4
70
1
10
-7.3085
20
7.6825
10
-7.3085
20
9.3175
10
-6.6915000000000004
20
9.3175
10
-6.6915000000000004
20
7.6825
0
LINE
5
E6B2
330
E544
100
AcDbEntity
100
AcDbLine
8
EKP_MATSING_ANTEN
10
-7.2785
20
7.6825
30
0
11
-7.2785
21
9.3175
31
0
0
LINE
5
E6B3
330
E544
100
AcDbEntity
100
AcDbLine
8
EKP_MATSING_ANTEN
10
-6.7215
20
7.6825
30
0
11
-6.7215
21
9.3175
31
0
0
CIRCLE
5
E6B4
330
E544
100
AcDbEntity
100
AcDbCircle
8
EKP_MATSING_ANTEN
10
-7
20
8.5
30
0
40
0.28382
0
CIRCLE
5
E6B5
330
E544
100
AcDbEntity
100
AcDbCircle
8
EKP_MATSING_ANTEN
10
-7
20
8.5
30
0
40
0.20435040000000002
0
CIRCLE
5
E6B6
330
E544
100
AcDbEntity
100
AcDbCircle
8
EKP_MATSING_ANTEN
10
-7
20
8.5
30
0
40
0.12488080000000001
0
LINE
5
E6B7
330
E544
100
AcDbEntity
100
AcDbLine
8
EKP_MATSING_ANTEN
10
-7.25914
20
8.0095
30
0
11
-6.74086
21
8.0095
31
0
0
TEXT
5
E6B8
330
E544
100
AcDbEntity
100
AcDbText
8
EKP_MATSING_ANTEN
10
-7
20
8.029499999999999
30
0
40
0.032
1
BEAM 4 (HUZME 4)
50
0
7
STANDARD
72
1
11
-7
21
8.029499999999999
31
0
100
AcDbText
73
2
0
LINE
5
E6B9
330
E544
100
AcDbEntity
100
AcDbLine
8
EKP_MATSING_ANTEN
10
-7.25914
20
8.3365
30
0
11
-6.74086
21
8.3365
31
0
0
TEXT
5
E6BA
330
E544
100
AcDbEntity
100
AcDbText
8
EKP_MATSING_ANTEN
10
-7
20
8.356499999999999
30
0
40
0.032
1
BEAM 3 (HUZME 3)
50
0
7
STANDARD
72
1
11
-7
21
8.356499999999999
31
0
100
AcDbText
73
2
0
LINE
5
E6BB
330
E544
100
AcDbEntity
100
AcDbLine
8
EKP_MATSING_ANTEN
10
-7.25914
20
8.6635
30
0
11
-6.74086
21
8.6635
31
0
0
TEXT
5
E6BC
330
E544
100
AcDbEntity
100
AcDbText
8
EKP_MATSING_ANTEN
10
-7
20
8.6835
30
0
40
0.032
1
BEAM 2 (HUZME 2)
50
0
7
STANDARD
72
1
11
-7
21
8.6835
31
0
100
AcDbText
73
2
0
LINE
5
E6BD
330
E544
100
AcDbEntity
100
AcDbLine
8
EKP_MATSING_ANTEN
10
-7.25914
20
8.9905
30
0
11
-6.74086
21
8.9905
31
0
0
TEXT
5
E6BE
330
E544
100
AcDbEntity
100
AcDbText
8
EKP_MATSING_ANTEN
10
-7
20
9.0105
30
0
40
0.032
1
BEAM 1 (HUZME 1)
50
0
7
STANDARD
72
1
11
-7
21
9.0105
31
0
100
AcDbText
73
2
0
LWPOLYLINE
5
E6CF
330
E544
100
AcDbEntity
100
AcDbPolyline
8
EKP_MATSING_ANTEN
6
ByLayer
62
256
370
-1
90
4
70
1
10
-6.0085
20
7.6825
10
-6.0085
20
9.3175
10
-5.3915
20
9.3175
10
-5.3915
20
7.6825
0
LINE
5
E6D0
330
E544
100
AcDbEntity
100
AcDbLine
8
EKP_MATSING_ANTEN
10
-5.9784999999999995
20
7.6825
30
0
11
-5.9784999999999995
21
9.3175
31
0
0
LINE
5
E6D1
330
E544
100
AcDbEntity
100
AcDbLine
8
EKP_MATSING_ANTEN
10
-5.421500000000001
20
7.6825
30
0
11
-5.421500000000001
21
9.3175
31
0
0
CIRCLE
5
E6D2
330
E544
100
AcDbEntity
100
AcDbCircle
8
EKP_MATSING_ANTEN
10
-5.7
20
8.5
30
0
40
0.28382
0
CIRCLE
5
E6D3
330
E544
100
AcDbEntity
100
AcDbCircle
8
EKP_MATSING_ANTEN
10
-5.7
20
8.5
30
0
40
0.20435040000000002
0
CIRCLE
5
E6D4
330
E544
100
AcDbEntity
100
AcDbCircle
8
EKP_MATSING_ANTEN
10
-5.7
20
8.5
30
0
40
0.12488080000000001
0
LINE
5
E6D5
330
E544
100
AcDbEntity
100
AcDbLine
8
EKP_MATSING_ANTEN
10
-5.9591400000000005
20
8.0095
30
0
11
-5.44086
21
8.0095
31
0
0
TEXT
5
E6D6
330
E544
100
AcDbEntity
100
AcDbText
8
EKP_MATSING_ANTEN
10
-5.7
20
8.029499999999999
30
0
40
0.032
1
BEAM 4 (HUZME 4)
50
0
7
STANDARD
72
1
11
-5.7
21
8.029499999999999
31
0
100
AcDbText
73
2
0
LINE
5
E6D7
330
E544
100
AcDbEntity
100
AcDbLine
8
EKP_MATSING_ANTEN
10
-5.9591400000000005
20
8.3365
30
0
11
-5.44086
21
8.3365
31
0
0
TEXT
5
E6D8
330
E544
100
AcDbEntity
100
AcDbText
8
EKP_MATSING_ANTEN
10
-5.7
20
8.356499999999999
30
0
40
0.032
1
BEAM 3 (HUZME 3)
50
0
7
STANDARD
72
1
11
-5.7
21
8.356499999999999
31
0
100
AcDbText
73
2
0
LINE
5
E6D9
330
E544
100
AcDbEntity
100
AcDbLine
8
EKP_MATSING_ANTEN
10
-5.9591400000000005
20
8.6635
30
0
11
-5.44086
21
8.6635
31
0
0
TEXT
5
E6DA
330
E544
100
AcDbEntity
100
AcDbText
8
EKP_MATSING_ANTEN
10
-5.7
20
8.6835
30
0
40
0.032
1
BEAM 2 (HUZME 2)
50
0
7
STANDARD
72
1
11
-5.7
21
8.6835
31
0
100
AcDbText
73
2
0
LINE
5
E6DB
330
E544
100
AcDbEntity
100
AcDbLine
8
EKP_MATSING_ANTEN
10
-5.9591400000000005
20
8.9905
30
0
11
-5.44086
21
8.9905
31
0
0
TEXT
5
E6DC
330
E544
100
AcDbEntity
100
AcDbText
8
EKP_MATSING_ANTEN
10
-5.7
20
9.0105
30
0
40
0.032
1
BEAM 1 (HUZME 1)
50
0
7
STANDARD
72
1
11
-5.7
21
9.0105
31
0
100
AcDbText
73
2
0
LINE
5
E701
330
E544
100
AcDbEntity
100
AcDbLine
8
EKP_MATSING_ANTEN
10
2.6811253768229624
20
8.48543021548612
30
0
11
2.93226609165812
21
8.418137263759464
31
0
0
LINE
5
E702
330
E544
100
AcDbEntity
100
AcDbLine
8
EKP_MATSING_ANTEN
10
2.93226609165812
20
8.418137263759464
30
0
11
3.1512712797691727
21
8.545804712940697
31
0
0
LINE
5
E703
330
E544
100
AcDbEntity
100
AcDbLine
8
EKP_MATSING_ANTEN
10
3.1512712797691727
20
8.545804712940697
30
0
11
3.1841388608012813
21
8.966456312684592
31
0
0
LINE
5
E704
330
E544
100
AcDbEntity
100
AcDbLine
8
EKP_MATSING_ANTEN
10
3.1841388608012813
20
8.966456312684592
30
0
11
2.9933042657594586
21
9.14821626037721
31
0
0
LINE
5
E705
330
E544
100
AcDbEntity
100
AcDbLine
8
EKP_MATSING_ANTEN
10
2.9933042657594586
20
9.14821626037721
30
0
11
2.7371566846860147
21
9.086224825805783
31
0
0
LINE
5
E706
330
E544
100
AcDbEntity
100
AcDbLine
8
EKP_MATSING_ANTEN
10
2.7371566846860147
20
9.086224825805783
30
0
11
2.555295044948817
21
8.705496063768951
31
0
0
LINE
5
E707
330
E544
100
AcDbEntity
100
AcDbLine
8
EKP_MATSING_ANTEN
10
2.555295044948817
20
8.705496063768951
30
0
11
2.6811253768229624
21
8.48543021548612
31
0
0
CIRCLE
5
E708
330
E544
100
AcDbEntity
100
AcDbCircle
8
EKP_MATSING_ANTEN
10
2.9
20
8.8
30
0
40
0.262225
0
CIRCLE
5
E709
330
E544
100
AcDbEntity
100
AcDbCircle
8
EKP_MATSING_ANTEN
10
2.9
20
8.8
30
0
40
0.16967500000000002
0
LINE
5
E723
330
E544
100
AcDbEntity
100
AcDbLine
8
EKP_MATSING_ANTEN
10
3.87
20
8.1395
30
0
11
4.13
21
8.1395
31
0
0
LINE
5
E724
330
E544
100
AcDbEntity
100
AcDbLine
8
EKP_MATSING_ANTEN
10
4.13
20
8.1395
30
0
11
4.3085
21
8.3195
31
0
0
LINE
5
E725
330
E544
100
AcDbEntity
100
AcDbLine
8
EKP_MATSING_ANTEN
10
4.3085
20
8.3195
30
0
11
4.231375
21
8.734325
31
0
0
LINE
5
E726
330
E544
100
AcDbEntity
100
AcDbLine
8
EKP_MATSING_ANTEN
10
4.231375
20
8.734325
30
0
11
4
21
8.8605
31
0
0
LINE
5
E727
330
E544
100
AcDbEntity
100
AcDbLine
8
EKP_MATSING_ANTEN
10
4
20
8.8605
30
0
11
3.768625
21
8.734325
31
0
0
LINE
5
E728
330
E544
100
AcDbEntity
100
AcDbLine
8
EKP_MATSING_ANTEN
10
3.768625
20
8.734325
30
0
11
3.6915
21
8.3195
31
0
0
LINE
5
E729
330
E544
100
AcDbEntity
100
AcDbLine
8
EKP_MATSING_ANTEN
10
3.6915
20
8.3195
30
0
11
3.87
21
8.1395
31
0
0
CIRCLE
5
E72A
330
E544
100
AcDbEntity
100
AcDbCircle
8
EKP_MATSING_ANTEN
10
4
20
8.5
30
0
40
0.262225
0
CIRCLE
5
E72B
330
E544
100
AcDbEntity
100
AcDbCircle
8
EKP_MATSING_ANTEN
10
4
20
8.5
30
0
40
0.16967500000000002
0
LINE
5
E745
330
E544
100
AcDbEntity
100
AcDbLine
8
EKP_MATSING_ANTEN
10
5.0677339083418795
20
8.418137263759464
30
0
11
5.318874623177037
21
8.48543021548612
31
0
0
LINE
5
E746
330
E544
100
AcDbEntity
100
AcDbLine
8
EKP_MATSING_ANTEN
10
5.318874623177037
20
8.48543021548612
30
0
11
5.444704955051183
21
8.705496063768951
31
0
0
LINE
5
E747
330
E544
100
AcDbEntity
100
AcDbLine
8
EKP_MATSING_ANTEN
10
5.444704955051183
20
8.705496063768951
30
0
11
5.262843315313985
21
9.086224825805783
31
0
0
LINE
5
E748
330
E544
100
AcDbEntity
100
AcDbLine
8
EKP_MATSING_ANTEN
10
5.262843315313985
20
9.086224825805783
30
0
11
5.006695734240541
21
9.14821626037721
31
0
0
LINE
5
E749
330
E544
100
AcDbEntity
100
AcDbLine
8
EKP_MATSING_ANTEN
10
5.006695734240541
20
9.14821626037721
30
0
11
4.815861139198718
21
8.966456312684592
31
0
0
LINE
5
E74A
330
E544
100
AcDbEntity
100
AcDbLine
8
EKP_MATSING_ANTEN
10
4.815861139198718
20
8.966456312684592
30
0
11
4.848728720230827
21
8.545804712940697
31
0
0
LINE
5
E74B
330
E544
100
AcDbEntity
100
AcDbLine
8
EKP_MATSING_ANTEN
10
4.848728720230827
20
8.545804712940697
30
0
11
5.0677339083418795
21
8.418137263759464
31
0
0
CIRCLE
5
E74C
330
E544
100
AcDbEntity
100
AcDbCircle
8
EKP_MATSING_ANTEN
10
5.1
20
8.8
30
0
40
0.262225
0
CIRCLE
5
E74D
330
E544
100
AcDbEntity
100
AcDbCircle
8
EKP_MATSING_ANTEN
10
5.1
20
8.8
30
0
40
0.16967500000000002
0
LINE
5
E769
330
E544
100
AcDbEntity
100
AcDbLine
8
EKP_MATSING_ANTEN
10
-13.648567929750286
20
0.8046875169902911
30
0
11
-13.202383550821574
21
0.35850313806157963
31
0
0
LINE
5
E76A
330
E544
100
AcDbEntity
100
AcDbLine
8
EKP_MATSING_ANTEN
10
-13.202383550821574
20
0.35850313806157963
30
0
11
-13.253737180805247
21
0.23643882995925192
31
0
0
LINE
5
E76B
330
E544
100
AcDbEntity
100
AcDbLine
8
EKP_MATSING_ANTEN
10
-13.253737180805247
20
0.23643882995925192
30
0
11
-13.716803734134787
21
-0.28319626586521224
31
0
0
LINE
5
E76C
330
E544
100
AcDbEntity
100
AcDbLine
8
EKP_MATSING_ANTEN
10
-13.716803734134787
20
-0.28319626586521224
30
0
11
-14.236438829959253
21
-0.7462628191947526
31
0
0
LINE
5
E76D
330
E544
100
AcDbEntity
100
AcDbLine
8
EKP_MATSING_ANTEN
10
-14.236438829959253
20
-0.7462628191947526
30
0
11
-14.35850313806158
21
-0.7976164491784256
31
0
0
LINE
5
E76E
330
E544
100
AcDbEntity
100
AcDbLine
8
EKP_MATSING_ANTEN
10
-14.35850313806158
20
-0.7976164491784256
30
0
11
-14.804687516990292
21
-0.3514320702497141
31
0
0
LINE
5
E76F
330
E544
100
AcDbEntity
100
AcDbLine
8
EKP_MATSING_ANTEN
10
-14.804687516990292
20
-0.3514320702497141
30
0
11
-14.804068798556752
21
-0.29424480932125224
31
0
0
LINE
5
E770
330
E544
100
AcDbEntity
100
AcDbLine
8
EKP_MATSING_ANTEN
10
-14.804068798556752
20
-0.29424480932125224
30
0
11
-13.705755190678747
21
0.804068798556753
31
0
0
LINE
5
E771
330
E544
100
AcDbEntity
100
AcDbLine
8
EKP_MATSING_ANTEN
10
-13.705755190678747
20
0.804068798556753
30
0
11
-13.648567929750286
21
0.8046875169902911
31
0
0
LINE
5
E772
330
E544
100
AcDbEntity
100
AcDbLine
8
EKP_MATSING_ANTEN
10
-13.525708126519124
20
0.2193798788631264
30
0
11
-13.821561603767575
21
-0.17843839623242522
31
0
0
LINE
5
E773
330
E544
100
AcDbEntity
100
AcDbLine
8
EKP_MATSING_ANTEN
10
-13.821561603767575
20
-0.17843839623242522
30
0
11
-14.219379878863126
21
-0.47429187348087676
31
0
0
LINE
5
E7B8
330
E544
100
AcDbEntity
100
AcDbLine
8
EKP_MATSING_ANTEN
10
-3.648567929750286
20
0.8046875169902911
30
0
11
-3.2023835508215743
21
0.35850313806157963
31
0
0
LINE
5
E7B9
330
E544
100
AcDbEntity
100
AcDbLine
8
EKP_MATSING_ANTEN
10
-3.2023835508215743
20
0.35850313806157963
30
0
11
-3.2537371808052473
21
0.23643882995925192
31
0
0
LINE
5
E7BA
330
E544
100
AcDbEntity
100
AcDbLine
8
EKP_MATSING_ANTEN
10
-3.2537371808052473
20
0.23643882995925192
30
0
11
-3.7168037341347877
21
-0.28319626586521224
31
0
0
LINE
5
E7BB
330
E544
100
AcDbEntity
100
AcDbLine
8
EKP_MATSING_ANTEN
10
-3.7168037341347877
20
-0.28319626586521224
30
0
11
-4.236438829959252
21
-0.7462628191947526
31
0
0
LINE
5
E7BC
330
E544
100
AcDbEntity
100
AcDbLine
8
EKP_MATSING_ANTEN
10
-4.236438829959252
20
-0.7462628191947526
30
0
11
-4.35850313806158
21
-0.7976164491784256
31
0
0
LINE
5
E7BD
330
E544
100
AcDbEntity
100
AcDbLine
8
EKP_MATSING_ANTEN
10
-4.35850313806158
20
-0.7976164491784256
30
0
11
-4.804687516990291
21
-0.3514320702497141
31
0
0
LINE
5
E7BE
330
E544
100
AcDbEntity
100
AcDbLine
8
EKP_MATSING_ANTEN
10
-4.804687516990291
20
-0.3514320702497141
30
0
11
-4.804068798556753
21
-0.29424480932125224
31
0
0
LINE
5
E7BF
330
E544
100
AcDbEntity
100
AcDbLine
8
EKP_MATSING_ANTEN
10
-4.804068798556753
20
-0.29424480932125224
30
0
11
-3.7057551906787483
21
0.804068798556753
31
0
0
LINE
5
E7C0
330
E544
100
AcDbEntity
100
AcDbLine
8
EKP_MATSING_ANTEN
10
-3.7057551906787483
20
0.804068798556753
30
0
11
-3.648567929750286
21
0.8046875169902911
31
0
0
LINE
5
E7C1
330
E544
100
AcDbEntity
100
AcDbLine
8
EKP_MATSING_ANTEN
10
-3.525708126519123
20
0.2193798788631264
30
0
11
-3.8215616037675746
21
-0.17843839623242522
31
0
0
LINE
5
E7C2
330
E544
100
AcDbEntity
100
AcDbLine
8
EKP_MATSING_ANTEN
10
-3.8215616037675746
20
-0.17843839623242522
30
0
11
-4.219379878863126
21
-0.47429187348087676
31
0
0
LINE
5
E807
330
E544
100
AcDbEntity
100
AcDbLine
8
EKP_MATSING_ANTEN
10
6.351432070249714
20
0.8046875169902911
30
0
11
6.797616449178426
21
0.35850313806157963
31
0
0
LINE
5
E808
330
E544
100
AcDbEntity
100
AcDbLine
8
EKP_MATSING_ANTEN
10
6.797616449178426
20
0.35850313806157963
30
0
11
6.746262819194753
21
0.23643882995925192
31
0
0
LINE
5
E809
330
E544
100
AcDbEntity
100
AcDbLine
8
EKP_MATSING_ANTEN
10
6.746262819194753
20
0.23643882995925192
30
0
11
6.283196265865213
21
-0.28319626586521224
31
0
0
LINE
5
E80A
330
E544
100
AcDbEntity
100
AcDbLine
8
EKP_MATSING_ANTEN
10
6.283196265865213
20
-0.28319626586521224
30
0
11
5.763561170040749
21
-0.7462628191947526
31
0
0
LINE
5
E80B
330
E544
100
AcDbEntity
100
AcDbLine
8
EKP_MATSING_ANTEN
10
5.763561170040749
20
-0.7462628191947526
30
0
11
5.641496861938421
21
-0.7976164491784256
31
0
0
LINE
5
E80C
330
E544
100
AcDbEntity
100
AcDbLine
8
EKP_MATSING_ANTEN
10
5.641496861938421
20
-0.7976164491784256
30
0
11
5.195312483009709
21
-0.3514320702497141
31
0
0
LINE
5
E80D
330
E544
100
AcDbEntity
100
AcDbLine
8
EKP_MATSING_ANTEN
10
5.195312483009709
20
-0.3514320702497141
30
0
11
5.195931201443247
21
-0.29424480932125224
31
0
0
LINE
5
E80E
330
E544
100
AcDbEntity
100
AcDbLine
8
EKP_MATSING_ANTEN
10
5.195931201443247
20
-0.29424480932125224
30
0
11
6.294244809321252
21
0.804068798556753
31
0
0
LINE
5
E80F
330
E544
100
AcDbEntity
100
AcDbLine
8
EKP_MATSING_ANTEN
10
6.294244809321252
20
0.804068798556753
30
0
11
6.351432070249714
21
0.8046875169902911
31
0
0
LINE
5
E810
330
E544
100
AcDbEntity
100
AcDbLine
8
EKP_MATSING_ANTEN
10
6.474291873480876
20
0.2193798788631264
30
0
11
6.178438396232425
21
-0.17843839623242522
31
0
0
LINE
5
E811
330
E544
100
AcDbEntity
100
AcDbLine
8
EKP_MATSING_ANTEN
10
6.178438396232425
20
-0.17843839623242522
30
0
11
5.780620121136874
21
-0.47429187348087676
31
0
0
ENDSEC
0
SECTION
2
OBJECTS
0
DICTIONARY
5
E532
330
0
100
AcDbDictionary
281
1
3
ACAD_GROUP
350
E548
0
DICTIONARY
5
E548
330
E532
100
AcDbDictionary
281
1
0
ENDSEC
0
EOF