0
SECTION
2
HEADER
9
$HANDSEED
5
FD16
9
$INSUNITS
70
6
9
$ACADVER
1
AC1021
9
$DWGCODEPAGE
3
UTF-8
0
ENDSEC
0
SECTION
2
CLASSES
0
ENDSEC
0
SECTION
2
TABLES
0
TABLE
2
LTYPE
5
FD14
330
0
100
AcDbSymbolTable
70
5
0
LTYPE
5
F96E
330
FD14
100
AcDbSymbolTableRecord
100
AcDbLinetypeTableRecord
2
CONTINUOUS
3
______
70
0
72
65
73
0
40
0
0
LTYPE
5
F96F
330
FD14
100
AcDbSymbolTableRecord
100
AcDbLinetypeTableRecord
2
DASHED
3
_ _ _ 
70
0
72
65
73
2
40
10
49
5
74
0
49
-5
74
0
0
LTYPE
5
F970
330
FD14
100
AcDbSymbolTableRecord
100
AcDbLinetypeTableRecord
2
DOTTED
3
. . . 
70
0
72
65
73
2
40
5
49
0
74
0
49
-5
74
0
0
LTYPE
5
F972
330
FD14
100
AcDbSymbolTableRecord
100
AcDbLinetypeTableRecord
2
ByBlock
3

70
0
72
65
73
0
40
0
0
LTYPE
5
F973
330
FD14
100
AcDbSymbolTableRecord
100
AcDbLinetypeTableRecord
2
ByLayer
3

70
0
72
65
73
0
40
0
0
ENDTAB
0
TABLE
2
LAYER
5
FD15
330
0
100
AcDbSymbolTable
70
21
0
LAYER
5
F971
330
FD15
100
AcDbSymbolTableRecord
100
AcDbLayerTableRecord
2
0
62
7
70
0
6
CONTINUOUS
390
1
0
LAYER
5
F984
330
FD15
100
AcDbSymbolTableRecord
100
AcDbLayerTableRecord
2
ZEMIN_PLATFORM
62
8
70
0
6
CONTINUOUS
390
1
0
LAYER
5
F985
330
FD15
100
AcDbSymbolTableRecord
100
AcDbLayerTableRecord
2
KORKULUK_KAPI
62
4
70
0
6
CONTINUOUS
390
1
0
LAYER
5
F986
330
FD15
100
AcDbSymbolTableRecord
100
AcDbLayerTableRecord
2
CELIK_KIRIS_KOLON
62
9
70
0
6
CONTINUOUS
390
1
0
LAYER
5
F987
330
FD15
100
AcDbSymbolTableRecord
100
AcDbLayerTableRecord
2
MONTAJ_BORULARI
62
2
70
0
6
CONTINUOUS
390
1
0
LAYER
5
F988
330
FD15
100
AcDbSymbolTableRecord
100
AcDbLayerTableRecord
2
KABLO_TAVALARI
62
6
70
0
6
CONTINUOUS
390
1
0
LAYER
5
F989
330
FD15
100
AcDbSymbolTableRecord
100
AcDbLayerTableRecord
2
YURUYUS_KORIDORU
62
3
70
0
6
DASHED
390
1
0
LAYER
5
F98A
330
FD15
100
AcDbSymbolTableRecord
100
AcDbLayerTableRecord
2
OLCULER
62
1
70
0
6
CONTINUOUS
390
1
0
LAYER
5
F98B
330
FD15
100
AcDbSymbolTableRecord
100
AcDbLayerTableRecord
2
METIN_BILGI
62
7
70
0
6
CONTINUOUS
390
1
0
LAYER
5
F98C
330
FD15
100
AcDbSymbolTableRecord
100
AcDbLayerTableRecord
2
EKP_TURKCELL_RRU
62
5
70
0
6
CONTINUOUS
390
1
0
LAYER
5
F98D
330
FD15
100
AcDbSymbolTableRecord
100
AcDbLayerTableRecord
2
EKP_VODAFONE_RRU
62
1
70
0
6
CONTINUOUS
390
1
0
LAYER
5
F98E
330
FD15
100
AcDbSymbolTableRecord
100
AcDbLayerTableRecord
2
EKP_TURK_TELEKOM_RRU
62
4
70
0
6
CONTINUOUS
390
1
0
LAYER
5
F98F
330
FD15
100
AcDbSymbolTableRecord
100
AcDbLayerTableRecord
2
EKP_POI_TASIYICI_SASE
62
30
70
0
6
CONTINUOUS
390
1
0
LAYER
5
F990
330
FD15
100
AcDbSymbolTableRecord
100
AcDbLayerTableRecord
2
EKP_POI_MODULLERI
62
40
70
0
6
CONTINUOUS
390
1
0
LAYER
5
F991
330
FD15
100
AcDbSymbolTableRecord
100
AcDbLayerTableRecord
2
EKP_RECTIFIER_ELTEK_20U
62
3
70
0
6
CONTINUOUS
390
1
0
LAYER
5
F992
330
FD15
100
AcDbSymbolTableRecord
100
AcDbLayerTableRecord
2
EKP_RECTIFIER_MTS9304A
62
94
70
0
6
CONTINUOUS
390
1
0
LAYER
5
F993
330
FD15
100
AcDbSymbolTableRecord
100
AcDbLayerTableRecord
2
BLOK_OZEL_PLATFORM
62
140
70
0
6
CONTINUOUS
390
1
0
LAYER
5
F994
330
FD15
100
AcDbSymbolTableRecord
100
AcDbLayerTableRecord
2
EKP_MATSING_ANTEN
62
2
70
0
6
CONTINUOUS
390
1
0
LAYER
5
F995
330
FD15
100
AcDbSymbolTableRecord
100
AcDbLayerTableRecord
2
EKP_PANEL_ANTEN
62
6
70
0
6
CONTINUOUS
390
1
0
LAYER
5
F996
330
FD15
100
AcDbSymbolTableRecord
100
AcDbLayerTableRecord
2
EKP_ANTEN_TASIYICI_KOL
62
141
70
0
6
CONTINUOUS
390
1
0
LAYER
5
F997
330
FD15
100
AcDbSymbolTableRecord
100
AcDbLayerTableRecord
2
EKP_DIGER_EKIPMANLAR
62
7
70
0
6
CONTINUOUS
390
1
0
ENDTAB
0
TABLE
2
VPORT
5
F974
330
0
100
AcDbSymbolTable
70
1
0
VPORT
5
F97A
330
F974
100
AcDbSymbolTableRecord
100
AcDbViewportTableRecord
2
*ACTIVE
40
1000
70
0
0
ENDTAB
0
TABLE
2
STYLE
5
F975
330
0
100
AcDbSymbolTable
70
3
0
STYLE
5
F97B
330
F975
100
AcDbSymbolTableRecord
100
AcDbTextStyleTableRecord
2
standard
70
0
40
0
41
1
50
0
71
0
42
1
3
calibrib.ttf
4

1001
ACAD
1000
Calibri
1071
33554466
0
STYLE
5
F97C
330
F975
100
AcDbSymbolTableRecord
100
AcDbTextStyleTableRecord
2
STANDARD
70
0
40
0
41
1
50
0
71
0
42
1
3
calibrib.ttf
4

1001
ACAD
1000
Calibri
1071
33554466
0
STYLE
5
F97D
330
F975
100
AcDbSymbolTableRecord
100
AcDbTextStyleTableRecord
2
CALIBRI_BOLD
70
0
40
0
41
1
50
0
71
0
42
1
3
calibrib.ttf
4

1001
ACAD
1000
Calibri
1071
33554466
0
ENDTAB
0
TABLE
2
VIEW
5
F976
330
0
100
AcDbSymbolTable
70
0
0
ENDTAB
0
TABLE
2
UCS
5
F977
330
0
100
AcDbSymbolTable
70
0
0
ENDTAB
0
TABLE
2
APPID
5
F978
330
0
100
AcDbSymbolTable
70
1
0
APPID
5
F97E
330
F978
100
AcDbSymbolTableRecord
100
AcDbRegAppTableRecord
2
ACAD
70
0
0
ENDTAB
0
TABLE
2
DIMSTYLE
5
F979
330
0
100
AcDbSymbolTable
100
AcDbDimStyleTable
70
0
71
1
0
ENDTAB
0
TABLE
2
BLOCK_RECORD
5
FD11
330
0
100
AcDbSymbolTable
70
2
0
BLOCK_RECORD
5
FD12
330
FD11
100
AcDbSymbolTableRecord
100
AcDbBlockTableRecord
2
*Model_Space
70
0
280
0
281
1
0
BLOCK_RECORD
5
FD13
330
FD11
100
AcDbSymbolTableRecord
100
AcDbBlockTableRecord
2
*Paper_Space
70
0
280
0
281
1
0
ENDTAB
0
ENDSEC
0
SECTION
2
BLOCKS
0
BLOCK
5
F97F
330
0
100
AcDbEntity
100
AcDbBlockBegin
2
*Model_Space
70
0
10
0
20
0
30
0
3
*Model_Space
1

0
ENDBLK
5
F980
330
0
100
AcDbEntity
100
AcDbBlockEnd
0
BLOCK
5
F981
330
0
100
AcDbEntity
100
AcDbBlockBegin
2
*Paper_Space
70
0
10
0
20
0
30
0
3
*Paper_Space
1

0
ENDBLK
5
F982
330
0
100
AcDbEntity
100
AcDbBlockEnd
0
ENDSEC
0
SECTION
2
ENTITIES
0
LWPOLYLINE
5
FCA7
330
F97F
100
AcDbEntity
100
AcDbPolyline
8
ZEMIN_PLATFORM
6
ByLayer
62
256
370
-1
90
4
70
1
10
4.463432273295426
20
1.8
10
4.463432273295426
20
1.84
10
5.313432273295426
20
1.84
10
5.313432273295426
20
1.8
0
LWPOLYLINE
5
FCA8
330
F97F
100
AcDbEntity
100
AcDbPolyline
8
ZEMIN_PLATFORM
6
ByLayer
62
256
370
-1
90
4
70
1
10
5.293432273295426
20
1.84
10
5.293432273295426
20
1.99
10
5.313432273295426
20
1.99
10
5.313432273295426
20
1.84
0
LWPOLYLINE
5
FCA9
330
F97F
100
AcDbEntity
100
AcDbPolyline
8
ZEMIN_PLATFORM
6
ByLayer
62
256
370
-1
90
4
70
1
10
4.463432273295426
20
1.84
10
4.463432273295426
20
1.99
10
4.483432273295426
20
1.99
10
4.483432273295426
20
1.84
0
LWPOLYLINE
5
F99A
330
F97F
100
AcDbEntity
100
AcDbPolyline
8
CELIK_KIRIS_KOLON
6
ByLayer
62
256
370
-1
90
4
70
1
10
-18.356
20
16.644
10
-18.356
20
17.355999999999998
10
-17.644000000000002
20
17.355999999999998
10
-17.644000000000002
20
16.644
0
LWPOLYLINE
5
F9AB
330
F97F
100
AcDbEntity
100
AcDbPolyline
8
CELIK_KIRIS_KOLON
6
ByLayer
62
256
370
-1
90
4
70
1
10
-18.37
20
16.815
10
-18.37
20
16.865000000000002
10
-18.35
20
16.865000000000002
10
-18.35
20
16.815
0
LWPOLYLINE
5
F9AC
330
F97F
100
AcDbEntity
100
AcDbPolyline
8
CELIK_KIRIS_KOLON
6
ByLayer
62
256
370
-1
90
4
70
1
10
-17.65
20
16.815
10
-17.65
20
16.865000000000002
10
-17.63
20
16.865000000000002
10
-17.63
20
16.815
0
CIRCLE
5
F9AD
330
F97F
100
AcDbEntity
100
AcDbCircle
8
CELIK_KIRIS_KOLON
10
-18.360000000000003
20
16.84
30
0
40
0.005
0
CIRCLE
5
F9AE
330
F97F
100
AcDbEntity
100
AcDbCircle
8
CELIK_KIRIS_KOLON
10
-17.639999999999997
20
16.84
30
0
40
0.005
0
LWPOLYLINE
5
F9AF
330
F97F
100
AcDbEntity
100
AcDbPolyline
8
CELIK_KIRIS_KOLON
6
ByLayer
62
256
370
-1
90
4
70
1
10
-18.37
20
17.135
10
-18.37
20
17.185000000000002
10
-18.35
20
17.185000000000002
10
-18.35
20
17.135
0
LWPOLYLINE
5
F9B0
330
F97F
100
AcDbEntity
100
AcDbPolyline
8
CELIK_KIRIS_KOLON
6
ByLayer
62
256
370
-1
90
4
70
1
10
-17.65
20
17.135
10
-17.65
20
17.185000000000002
10
-17.63
20
17.185000000000002
10
-17.63
20
17.135
0
CIRCLE
5
F9B1
330
F97F
100
AcDbEntity
100
AcDbCircle
8
CELIK_KIRIS_KOLON
10
-18.360000000000003
20
17.16
30
0
40
0.005
0
CIRCLE
5
F9B2
330
F97F
100
AcDbEntity
100
AcDbCircle
8
CELIK_KIRIS_KOLON
10
-17.639999999999997
20
17.16
30
0
40
0.005
0
LINE
5
F9CB
330
F97F
100
AcDbEntity
100
AcDbLine
8
CELIK_KIRIS_KOLON
10
-11.833122799639975
20
17.298399061660724
30
0
11
-11.827465945390482
21
17.292742207411234
31
0
0
LINE
5
F9CC
330
F97F
100
AcDbEntity
100
AcDbLine
8
CELIK_KIRIS_KOLON
10
-11.833122799639975
20
17.298399061660724
30
0
11
-12.298399061660723
21
16.833122799639973
31
0
0
LINE
5
F9CD
330
F97F
100
AcDbEntity
100
AcDbLine
8
CELIK_KIRIS_KOLON
10
-12.298399061660723
20
16.833122799639973
30
0
11
-12.29274220741123
21
16.827465945390482
31
0
0
LINE
5
F9DF
330
F97F
100
AcDbEntity
100
AcDbLine
8
CELIK_KIRIS_KOLON
10
-11.904894137930409
20
17.22662772337029
30
0
11
-11.922571807460074
21
17.244305392899953
31
0
0
LINE
5
F9E0
330
F97F
100
AcDbEntity
100
AcDbLine
8
CELIK_KIRIS_KOLON
10
-11.922571807460074
20
17.244305392899953
30
0
11
-12.244305392899953
21
16.922571807460074
31
0
0
LINE
5
F9E1
330
F97F
100
AcDbEntity
100
AcDbLine
8
CELIK_KIRIS_KOLON
10
-12.244305392899953
20
16.922571807460074
30
0
11
-12.226627723370289
21
16.90489413793041
31
0
0
LINE
5
F9E2
330
F97F
100
AcDbEntity
100
AcDbLine
8
CELIK_KIRIS_KOLON
10
-12.04101219330882
20
17.125865007051207
30
0
11
-12.260922402257837
21
17.260922402257837
31
0
0
LINE
5
F9E3
330
F97F
100
AcDbEntity
100
AcDbLine
8
CELIK_KIRIS_KOLON
10
-12.125865007051207
20
17.04101219330882
30
0
11
-12.260922402257837
21
17.260922402257837
31
0
0
CIRCLE
5
F9E4
330
F97F
100
AcDbEntity
100
AcDbCircle
8
CELIK_KIRIS_KOLON
10
-12.260922402257837
20
17.260922402257837
30
0
40
0.022
0
CIRCLE
5
F9E5
330
F97F
100
AcDbEntity
100
AcDbCircle
8
CELIK_KIRIS_KOLON
10
-12.260922402257837
20
17.260922402257837
30
0
40
0.045
0
TEXT
5
F9E6
330
F97F
100
AcDbEntity
100
AcDbText
8
CELIK_KIRIS_KOLON
10
-12.290922402257836
20
17.295922402257837
30
0
40
0.026000000000000002
1
0-60° TILT MAFSALI
50
0
7
STANDARD
72
2
11
-12.290922402257836
21
17.295922402257837
31
0
100
AcDbText
73
2
0
CIRCLE
5
F9EA
330
F97F
100
AcDbEntity
100
AcDbCircle
8
CELIK_KIRIS_KOLON
10
-12.300449671326165
20
17.300449671326163
30
0
40
0.048100000000000004
0
LINE
5
F9EB
330
F97F
100
AcDbEntity
100
AcDbLine
8
CELIK_KIRIS_KOLON
10
-12.284964032818179
20
17.383958982184296
30
0
11
-12.383958982184295
21
17.28496403281818
31
0
0
LWPOLYLINE
5
F9EC
330
F97F
100
AcDbEntity
100
AcDbPolyline
8
CELIK_KIRIS_KOLON
6
ByLayer
62
256
370
-1
90
4
70
1
10
-12.501567726704575
20
17.109331615947752
10
-12.501567726704575
20
17.219331615947752
10
-12.371567726704574
20
17.219331615947752
10
-12.371567726704574
20
17.109331615947752
0
LWPOLYLINE
5
F9ED
330
F97F
100
AcDbEntity
100
AcDbPolyline
8
CELIK_KIRIS_KOLON
6
ByLayer
62
256
370
-1
90
4
70
1
10
-12.229331615947753
20
17.381567726704574
10
-12.229331615947753
20
17.491567726704574
10
-12.099331615947753
20
17.491567726704574
10
-12.099331615947753
20
17.381567726704574
0
LWPOLYLINE
5
F9F0
330
F97F
100
AcDbEntity
100
AcDbPolyline
8
CELIK_KIRIS_KOLON
6
ByLayer
62
256
370
-1
90
4
70
1
10
-12.506567726704576
20
19.18
10
-12.506567726704576
20
19.22
10
-12.094331615947754
20
19.22
10
-12.094331615947754
20
19.18
0
CIRCLE
5
F9F2
330
F97F
100
AcDbEntity
100
AcDbCircle
8
CELIK_KIRIS_KOLON
10
-12.300449671326165
20
19.36
30
0
40
0.15500000000000003
0
LWPOLYLINE
5
F9F3
330
F97F
100
AcDbEntity
100
AcDbPolyline
8
CELIK_KIRIS_KOLON
6
ByLayer
62
256
370
-1
90
4
70
1
10
-12.490449671326166
20
19.335
10
-12.490449671326166
20
19.385
10
-12.455449671326166
20
19.385
10
-12.455449671326166
20
19.335
0
LWPOLYLINE
5
F9F4
330
F97F
100
AcDbEntity
100
AcDbPolyline
8
CELIK_KIRIS_KOLON
6
ByLayer
62
256
370
-1
90
4
70
1
10
-12.145449671326164
20
19.335
10
-12.145449671326164
20
19.385
10
-12.110449671326164
20
19.385
10
-12.110449671326164
20
19.335
0
LINE
5
F9F5
330
F97F
100
AcDbEntity
100
AcDbLine
8
CELIK_KIRIS_KOLON
10
-12.436567726704576
20
17.24433161594775
30
0
11
-12.300449671326165
21
19.22
31
0
0
LINE
5
FA0F
330
F97F
100
AcDbEntity
100
AcDbLine
8
CELIK_KIRIS_KOLON
10
-6.329
20
16.907
30
0
11
-5.671
21
16.907
31
0
0
LWPOLYLINE
5
FA14
330
F97F
100
AcDbEntity
100
AcDbPolyline
8
CELIK_KIRIS_KOLON
6
ByLayer
62
256
370
-1
90
4
70
1
10
-6.07
20
16.89
10
-6.07
20
16.915
10
-5.930000000000001
20
16.915
10
-5.930000000000001
20
16.89
0
LINE
5
FA15
330
F97F
100
AcDbEntity
100
AcDbLine
8
CELIK_KIRIS_KOLON
10
-6.055
20
16.89
30
0
11
-6.055
21
16.639
31
0
0
LINE
5
FA16
330
F97F
100
AcDbEntity
100
AcDbLine
8
CELIK_KIRIS_KOLON
10
-5.945
20
16.89
30
0
11
-5.945
21
16.639
31
0
0
LINE
5
FA17
330
F97F
100
AcDbEntity
100
AcDbLine
8
CELIK_KIRIS_KOLON
10
-6.07
20
16.639
30
0
11
-5.93
21
16.639
31
0
0
LWPOLYLINE
5
FA19
330
F97F
100
AcDbEntity
100
AcDbPolyline
8
CELIK_KIRIS_KOLON
6
ByLayer
62
256
370
-1
90
4
70
1
10
-6.07
20
16.5631
10
-6.07
20
16.5871
10
-5.930000000000001
20
16.5871
10
-5.930000000000001
20
16.5631
0
CIRCLE
5
FA1A
330
F97F
100
AcDbEntity
100
AcDbCircle
8
CELIK_KIRIS_KOLON
10
-6.055
20
16.5751
30
0
40
0.006
0
CIRCLE
5
FA1B
330
F97F
100
AcDbEntity
100
AcDbCircle
8
CELIK_KIRIS_KOLON
10
-5.945
20
16.5751
30
0
40
0.006
0
LWPOLYLINE
5
FA33
330
F97F
100
AcDbEntity
100
AcDbPolyline
8
CELIK_KIRIS_KOLON
6
ByLayer
62
256
370
-1
90
4
70
1
10
7.644
20
16.644
10
7.644
20
17.355999999999998
10
8.356
20
17.355999999999998
10
8.356
20
16.644
0
LWPOLYLINE
5
FA44
330
F97F
100
AcDbEntity
100
AcDbPolyline
8
CELIK_KIRIS_KOLON
6
ByLayer
62
256
370
-1
90
4
70
1
10
7.630000000000001
20
16.815
10
7.630000000000001
20
16.865000000000002
10
7.65
20
16.865000000000002
10
7.65
20
16.815
0
LWPOLYLINE
5
FA45
330
F97F
100
AcDbEntity
100
AcDbPolyline
8
CELIK_KIRIS_KOLON
6
ByLayer
62
256
370
-1
90
4
70
1
10
8.35
20
16.815
10
8.35
20
16.865000000000002
10
8.37
20
16.865000000000002
10
8.37
20
16.815
0
CIRCLE
5
FA46
330
F97F
100
AcDbEntity
100
AcDbCircle
8
CELIK_KIRIS_KOLON
10
7.640000000000001
20
16.84
30
0
40
0.005
0
CIRCLE
5
FA47
330
F97F
100
AcDbEntity
100
AcDbCircle
8
CELIK_KIRIS_KOLON
10
8.36
20
16.84
30
0
40
0.005
0
LWPOLYLINE
5
FA48
330
F97F
100
AcDbEntity
100
AcDbPolyline
8
CELIK_KIRIS_KOLON
6
ByLayer
62
256
370
-1
90
4
70
1
10
7.630000000000001
20
17.135
10
7.630000000000001
20
17.185000000000002
10
7.65
20
17.185000000000002
10
7.65
20
17.135
0
LWPOLYLINE
5
FA49
330
F97F
100
AcDbEntity
100
AcDbPolyline
8
CELIK_KIRIS_KOLON
6
ByLayer
62
256
370
-1
90
4
70
1
10
8.35
20
17.135
10
8.35
20
17.185000000000002
10
8.37
20
17.185000000000002
10
8.37
20
17.135
0
CIRCLE
5
FA4A
330
F97F
100
AcDbEntity
100
AcDbCircle
8
CELIK_KIRIS_KOLON
10
7.640000000000001
20
17.16
30
0
40
0.005
0
CIRCLE
5
FA4B
330
F97F
100
AcDbEntity
100
AcDbCircle
8
CELIK_KIRIS_KOLON
10
8.36
20
17.16
30
0
40
0.005
0
LWPOLYLINE
5
FA5C
330
F97F
100
AcDbEntity
100
AcDbPolyline
8
CELIK_KIRIS_KOLON
6
ByLayer
62
256
370
-1
90
4
70
1
10
8.644
20
16.644
10
8.644
20
17.355999999999998
10
9.356
20
17.355999999999998
10
9.356
20
16.644
0
LWPOLYLINE
5
FA6D
330
F97F
100
AcDbEntity
100
AcDbPolyline
8
CELIK_KIRIS_KOLON
6
ByLayer
62
256
370
-1
90
4
70
1
10
8.63
20
16.815
10
8.63
20
16.865000000000002
10
8.65
20
16.865000000000002
10
8.65
20
16.815
0
LWPOLYLINE
5
FA6E
330
F97F
100
AcDbEntity
100
AcDbPolyline
8
CELIK_KIRIS_KOLON
6
ByLayer
62
256
370
-1
90
4
70
1
10
9.35
20
16.815
10
9.35
20
16.865000000000002
10
9.37
20
16.865000000000002
10
9.37
20
16.815
0
CIRCLE
5
FA6F
330
F97F
100
AcDbEntity
100
AcDbCircle
8
CELIK_KIRIS_KOLON
10
8.64
20
16.84
30
0
40
0.005
0
CIRCLE
5
FA70
330
F97F
100
AcDbEntity
100
AcDbCircle
8
CELIK_KIRIS_KOLON
10
9.36
20
16.84
30
0
40
0.005
0
LWPOLYLINE
5
FA71
330
F97F
100
AcDbEntity
100
AcDbPolyline
8
CELIK_KIRIS_KOLON
6
ByLayer
62
256
370
-1
90
4
70
1
10
8.63
20
17.135
10
8.63
20
17.185000000000002
10
8.65
20
17.185000000000002
10
8.65
20
17.135
0
LWPOLYLINE
5
FA72
330
F97F
100
AcDbEntity
100
AcDbPolyline
8
CELIK_KIRIS_KOLON
6
ByLayer
62
256
370
-1
90
4
70
1
10
9.35
20
17.135
10
9.35
20
17.185000000000002
10
9.37
20
17.185000000000002
10
9.37
20
17.135
0
CIRCLE
5
FA73
330
F97F
100
AcDbEntity
100
AcDbCircle
8
CELIK_KIRIS_KOLON
10
8.64
20
17.16
30
0
40
0.005
0
CIRCLE
5
FA74
330
F97F
100
AcDbEntity
100
AcDbCircle
8
CELIK_KIRIS_KOLON
10
9.36
20
17.16
30
0
40
0.005
0
LWPOLYLINE
5
FA83
330
F97F
100
AcDbEntity
100
AcDbPolyline
8
CELIK_KIRIS_KOLON
6
ByLayer
62
256
370
-1
90
4
70
1
10
7.5
20
17.55
10
7.5
20
17.650000000000002
10
9.5
20
17.650000000000002
10
9.5
20
17.55
0
TEXT
5
FA84
330
F97F
100
AcDbEntity
100
AcDbText
8
CELIK_KIRIS_KOLON
10
8.5
20
17.6
30
0
40
0.04
1
AGIR HIZMET CELIK TRAVERS (100x60x5mm, L=2000mm)
50
0
7
STANDARD
72
1
11
8.5
21
17.6
31
0
100
AcDbText
73
2
0
LINE
5
FAA3
330
F97F
100
AcDbEntity
100
AcDbLine
8
CELIK_KIRIS_KOLON
10
16.166877200360027
20
17.298399061660724
30
0
11
16.172534054609518
21
17.292742207411234
31
0
0
LINE
5
FAA4
330
F97F
100
AcDbEntity
100
AcDbLine
8
CELIK_KIRIS_KOLON
10
16.166877200360027
20
17.298399061660724
30
0
11
15.701600938339277
21
16.833122799639973
31
0
0
LINE
5
FAA5
330
F97F
100
AcDbEntity
100
AcDbLine
8
CELIK_KIRIS_KOLON
10
15.701600938339277
20
16.833122799639973
30
0
11
15.70725779258877
21
16.827465945390482
31
0
0
LINE
5
FAB7
330
F97F
100
AcDbEntity
100
AcDbLine
8
CELIK_KIRIS_KOLON
10
16.09510586206959
20
17.22662772337029
30
0
11
16.077428192539926
21
17.244305392899953
31
0
0
LINE
5
FAB8
330
F97F
100
AcDbEntity
100
AcDbLine
8
CELIK_KIRIS_KOLON
10
16.077428192539926
20
17.244305392899953
30
0
11
15.755694607100047
21
16.922571807460074
31
0
0
LINE
5
FAB9
330
F97F
100
AcDbEntity
100
AcDbLine
8
CELIK_KIRIS_KOLON
10
15.755694607100047
20
16.922571807460074
30
0
11
15.773372276629711
21
16.90489413793041
31
0
0
LINE
5
FABA
330
F97F
100
AcDbEntity
100
AcDbLine
8
CELIK_KIRIS_KOLON
10
15.95898780669118
20
17.125865007051207
30
0
11
15.739077597742163
21
17.260922402257837
31
0
0
LINE
5
FABB
330
F97F
100
AcDbEntity
100
AcDbLine
8
CELIK_KIRIS_KOLON
10
15.874134992948793
20
17.04101219330882
30
0
11
15.739077597742163
21
17.260922402257837
31
0
0
CIRCLE
5
FABC
330
F97F
100
AcDbEntity
100
AcDbCircle
8
CELIK_KIRIS_KOLON
10
15.739077597742163
20
17.260922402257837
30
0
40
0.022
0
CIRCLE
5
FABD
330
F97F
100
AcDbEntity
100
AcDbCircle
8
CELIK_KIRIS_KOLON
10
15.739077597742163
20
17.260922402257837
30
0
40
0.045
0
TEXT
5
FABE
330
F97F
100
AcDbEntity
100
AcDbText
8
CELIK_KIRIS_KOLON
10
15.709077597742164
20
17.295922402257837
30
0
40
0.026000000000000002
1
0-60° TILT MAFSALI
50
0
7
STANDARD
72
2
11
15.709077597742164
21
17.295922402257837
31
0
100
AcDbText
73
2
0
CIRCLE
5
FAC2
330
F97F
100
AcDbEntity
100
AcDbCircle
8
CELIK_KIRIS_KOLON
10
15.699550328673835
20
17.300449671326163
30
0
40
0.048100000000000004
0
LINE
5
FAC3
330
F97F
100
AcDbEntity
100
AcDbLine
8
CELIK_KIRIS_KOLON
10
15.715035967181821
20
17.383958982184296
30
0
11
15.616041017815705
21
17.28496403281818
31
0
0
LWPOLYLINE
5
FAC4
330
F97F
100
AcDbEntity
100
AcDbPolyline
8
CELIK_KIRIS_KOLON
6
ByLayer
62
256
370
-1
90
4
70
1
10
15.498432273295425
20
17.109331615947752
10
15.498432273295425
20
17.219331615947752
10
15.628432273295426
20
17.219331615947752
10
15.628432273295426
20
17.109331615947752
0
LWPOLYLINE
5
FAC5
330
F97F
100
AcDbEntity
100
AcDbPolyline
8
CELIK_KIRIS_KOLON
6
ByLayer
62
256
370
-1
90
4
70
1
10
15.770668384052247
20
17.381567726704574
10
15.770668384052247
20
17.491567726704574
10
15.900668384052247
20
17.491567726704574
10
15.900668384052247
20
17.381567726704574
0
LWPOLYLINE
5
FAC8
330
F97F
100
AcDbEntity
100
AcDbPolyline
8
CELIK_KIRIS_KOLON
6
ByLayer
62
256
370
-1
90
4
70
1
10
15.493432273295424
20
19.18
10
15.493432273295424
20
19.22
10
15.905668384052246
20
19.22
10
15.905668384052246
20
19.18
0
CIRCLE
5
FACA
330
F97F
100
AcDbEntity
100
AcDbCircle
8
CELIK_KIRIS_KOLON
10
15.699550328673835
20
19.36
30
0
40
0.15500000000000003
0
LWPOLYLINE
5
FACB
330
F97F
100
AcDbEntity
100
AcDbPolyline
8
CELIK_KIRIS_KOLON
6
ByLayer
62
256
370
-1
90
4
70
1
10
15.509550328673834
20
19.335
10
15.509550328673834
20
19.385
10
15.544550328673834
20
19.385
10
15.544550328673834
20
19.335
0
LWPOLYLINE
5
FACC
330
F97F
100
AcDbEntity
100
AcDbPolyline
8
CELIK_KIRIS_KOLON
6
ByLayer
62
256
370
-1
90
4
70
1
10
15.854550328673836
20
19.335
10
15.854550328673836
20
19.385
10
15.889550328673836
20
19.385
10
15.889550328673836
20
19.335
0
LINE
5
FACD
330
F97F
100
AcDbEntity
100
AcDbLine
8
CELIK_KIRIS_KOLON
10
15.563432273295424
20
17.24433161594775
30
0
11
15.699550328673835
21
19.22
31
0
0
LWPOLYLINE
5
FAE5
330
F97F
100
AcDbEntity
100
AcDbPolyline
8
CELIK_KIRIS_KOLON
6
ByLayer
62
256
370
-1
90
4
70
1
10
-8.256
20
8.144
10
-8.256
20
8.856
10
-7.5440000000000005
20
8.856
10
-7.5440000000000005
20
8.144
0
LWPOLYLINE
5
FAF6
330
F97F
100
AcDbEntity
100
AcDbPolyline
8
CELIK_KIRIS_KOLON
6
ByLayer
62
256
370
-1
90
4
70
1
10
-8.27
20
8.315
10
-8.27
20
8.365
10
-8.25
20
8.365
10
-8.25
20
8.315
0
LWPOLYLINE
5
FAF7
330
F97F
100
AcDbEntity
100
AcDbPolyline
8
CELIK_KIRIS_KOLON
6
ByLayer
62
256
370
-1
90
4
70
1
10
-7.550000000000001
20
8.315
10
-7.550000000000001
20
8.365
10
-7.530000000000001
20
8.365
10
-7.530000000000001
20
8.315
0
CIRCLE
5
FAF8
330
F97F
100
AcDbEntity
100
AcDbCircle
8
CELIK_KIRIS_KOLON
10
-8.26
20
8.34
30
0
40
0.005
0
CIRCLE
5
FAF9
330
F97F
100
AcDbEntity
100
AcDbCircle
8
CELIK_KIRIS_KOLON
10
-7.540000000000001
20
8.34
30
0
40
0.005
0
LWPOLYLINE
5
FAFA
330
F97F
100
AcDbEntity
100
AcDbPolyline
8
CELIK_KIRIS_KOLON
6
ByLayer
62
256
370
-1
90
4
70
1
10
-8.27
20
8.635
10
-8.27
20
8.685
10
-8.25
20
8.685
10
-8.25
20
8.635
0
LWPOLYLINE
5
FAFB
330
F97F
100
AcDbEntity
100
AcDbPolyline
8
CELIK_KIRIS_KOLON
6
ByLayer
62
256
370
-1
90
4
70
1
10
-7.550000000000001
20
8.635
10
-7.550000000000001
20
8.685
10
-7.530000000000001
20
8.685
10
-7.530000000000001
20
8.635
0
CIRCLE
5
FAFC
330
F97F
100
AcDbEntity
100
AcDbCircle
8
CELIK_KIRIS_KOLON
10
-8.26
20
8.66
30
0
40
0.005
0
CIRCLE
5
FAFD
330
F97F
100
AcDbEntity
100
AcDbCircle
8
CELIK_KIRIS_KOLON
10
-7.540000000000001
20
8.66
30
0
40
0.005
0
LWPOLYLINE
5
FB0E
330
F97F
100
AcDbEntity
100
AcDbPolyline
8
CELIK_KIRIS_KOLON
6
ByLayer
62
256
370
-1
90
4
70
1
10
-7.356
20
8.144
10
-7.356
20
8.856
10
-6.644
20
8.856
10
-6.644
20
8.144
0
LWPOLYLINE
5
FB1F
330
F97F
100
AcDbEntity
100
AcDbPolyline
8
CELIK_KIRIS_KOLON
6
ByLayer
62
256
370
-1
90
4
70
1
10
-7.369999999999999
20
8.315
10
-7.369999999999999
20
8.365
10
-7.35
20
8.365
10
-7.35
20
8.315
0
LWPOLYLINE
5
FB20
330
F97F
100
AcDbEntity
100
AcDbPolyline
8
CELIK_KIRIS_KOLON
6
ByLayer
62
256
370
-1
90
4
70
1
10
-6.65
20
8.315
10
-6.65
20
8.365
10
-6.630000000000001
20
8.365
10
-6.630000000000001
20
8.315
0
CIRCLE
5
FB21
330
F97F
100
AcDbEntity
100
AcDbCircle
8
CELIK_KIRIS_KOLON
10
-7.359999999999999
20
8.34
30
0
40
0.005
0
CIRCLE
5
FB22
330
F97F
100
AcDbEntity
100
AcDbCircle
8
CELIK_KIRIS_KOLON
10
-6.640000000000001
20
8.34
30
0
40
0.005
0
LWPOLYLINE
5
FB23
330
F97F
100
AcDbEntity
100
AcDbPolyline
8
CELIK_KIRIS_KOLON
6
ByLayer
62
256
370
-1
90
4
70
1
10
-7.369999999999999
20
8.635
10
-7.369999999999999
20
8.685
10
-7.35
20
8.685
10
-7.35
20
8.635
0
LWPOLYLINE
5
FB24
330
F97F
100
AcDbEntity
100
AcDbPolyline
8
CELIK_KIRIS_KOLON
6
ByLayer
62
256
370
-1
90
4
70
1
10
-6.65
20
8.635
10
-6.65
20
8.685
10
-6.630000000000001
20
8.685
10
-6.630000000000001
20
8.635
0
CIRCLE
5
FB25
330
F97F
100
AcDbEntity
100
AcDbCircle
8
CELIK_KIRIS_KOLON
10
-7.359999999999999
20
8.66
30
0
40
0.005
0
CIRCLE
5
FB26
330
F97F
100
AcDbEntity
100
AcDbCircle
8
CELIK_KIRIS_KOLON
10
-6.640000000000001
20
8.66
30
0
40
0.005
0
LWPOLYLINE
5
FB37
330
F97F
100
AcDbEntity
100
AcDbPolyline
8
CELIK_KIRIS_KOLON
6
ByLayer
62
256
370
-1
90
4
70
1
10
-6.4559999999999995
20
8.144
10
-6.4559999999999995
20
8.856
10
-5.744
20
8.856
10
-5.744
20
8.144
0
LWPOLYLINE
5
FB48
330
F97F
100
AcDbEntity
100
AcDbPolyline
8
CELIK_KIRIS_KOLON
6
ByLayer
62
256
370
-1
90
4
70
1
10
-6.469999999999999
20
8.315
10
-6.469999999999999
20
8.365
10
-6.449999999999999
20
8.365
10
-6.449999999999999
20
8.315
0
LWPOLYLINE
5
FB49
330
F97F
100
AcDbEntity
100
AcDbPolyline
8
CELIK_KIRIS_KOLON
6
ByLayer
62
256
370
-1
90
4
70
1
10
-5.75
20
8.315
10
-5.75
20
8.365
10
-5.73
20
8.365
10
-5.73
20
8.315
0
CIRCLE
5
FB4A
330
F97F
100
AcDbEntity
100
AcDbCircle
8
CELIK_KIRIS_KOLON
10
-6.459999999999999
20
8.34
30
0
40
0.005
0
CIRCLE
5
FB4B
330
F97F
100
AcDbEntity
100
AcDbCircle
8
CELIK_KIRIS_KOLON
10
-5.74
20
8.34
30
0
40
0.005
0
LWPOLYLINE
5
FB4C
330
F97F
100
AcDbEntity
100
AcDbPolyline
8
CELIK_KIRIS_KOLON
6
ByLayer
62
256
370
-1
90
4
70
1
10
-6.469999999999999
20
8.635
10
-6.469999999999999
20
8.685
10
-6.449999999999999
20
8.685
10
-6.449999999999999
20
8.635
0
LWPOLYLINE
5
FB4D
330
F97F
100
AcDbEntity
100
AcDbPolyline
8
CELIK_KIRIS_KOLON
6
ByLayer
62
256
370
-1
90
4
70
1
10
-5.75
20
8.635
10
-5.75
20
8.685
10
-5.73
20
8.685
10
-5.73
20
8.635
0
CIRCLE
5
FB4E
330
F97F
100
AcDbEntity
100
AcDbCircle
8
CELIK_KIRIS_KOLON
10
-6.459999999999999
20
8.66
30
0
40
0.005
0
CIRCLE
5
FB4F
330
F97F
100
AcDbEntity
100
AcDbCircle
8
CELIK_KIRIS_KOLON
10
-5.74
20
8.66
30
0
40
0.005
0
LWPOLYLINE
5
FB5E
330
F97F
100
AcDbEntity
100
AcDbPolyline
8
CELIK_KIRIS_KOLON
6
ByLayer
62
256
370
-1
90
4
70
1
10
-8.5
20
9.05
10
-8.5
20
9.17
10
-5.5
20
9.17
10
-5.5
20
9.05
0
TEXT
5
FB5F
330
F97F
100
AcDbEntity
100
AcDbText
8
CELIK_KIRIS_KOLON
10
-7
20
9.110000000000001
30
0
40
0.04
1
AGIR HIZMET 3'LU KAFES TRAVERS (120x80x6mm, L=3000mm)
50
0
7
STANDARD
72
1
11
-7
21
9.110000000000001
31
0
100
AcDbText
73
2
0
LINE
5
FB60
330
F97F
100
AcDbEntity
100
AcDbLine
8
CELIK_KIRIS_KOLON
10
-8.4
20
9.17
30
0
11
-7.9
21
9.850000000000001
31
0
0
LINE
5
FB61
330
F97F
100
AcDbEntity
100
AcDbLine
8
CELIK_KIRIS_KOLON
10
-5.6
20
9.17
30
0
11
-6.1
21
9.850000000000001
31
0
0
LINE
5
FB7A
330
F97F
100
AcDbEntity
100
AcDbLine
8
CELIK_KIRIS_KOLON
10
2.809033254432149
20
8.725133213421055
30
0
11
3.4273509989092763
21
8.500083959112766
31
0
0
LWPOLYLINE
5
FB7F
330
F97F
100
AcDbEntity
100
AcDbPolyline
8
CELIK_KIRIS_KOLON
6
ByLayer
62
256
370
-1
90
4
70
1
10
3.0465993007791625
20
8.620575221746344
10
3.0465993007791625
20
8.645575221746345
10
3.1865993007791626
20
8.645575221746345
10
3.1865993007791626
20
8.620575221746344
0
LINE
5
FB80
330
F97F
100
AcDbEntity
100
AcDbLine
8
CELIK_KIRIS_KOLON
10
3.0606946900909513
20
8.61544491959646
30
0
11
2.9748476341162085
21
8.379582071779197
31
0
0
LINE
5
FB81
330
F97F
100
AcDbEntity
100
AcDbLine
8
CELIK_KIRIS_KOLON
10
3.164060878377401
20
8.577822703830638
30
0
11
3.0782138224026583
21
8.341959856013375
31
0
0
LINE
5
FB82
330
F97F
100
AcDbEntity
100
AcDbLine
8
CELIK_KIRIS_KOLON
10
2.9607522448044197
20
8.384712373929082
30
0
11
3.092309211714447
21
8.33682955386349
31
0
0
LWPOLYLINE
5
FB84
330
F97F
100
AcDbEntity
100
AcDbPolyline
8
CELIK_KIRIS_KOLON
6
ByLayer
62
256
370
-1
90
4
70
1
10
2.9346756411009234
20
8.288724605428067
10
2.9346756411009234
20
8.312724605428066
10
3.0746756411009235
20
8.312724605428066
10
3.0746756411009235
20
8.288724605428067
0
CIRCLE
5
FB85
330
F97F
100
AcDbEntity
100
AcDbCircle
8
CELIK_KIRIS_KOLON
10
2.949675641100923
20
8.300724605428067
30
0
40
0.006
0
CIRCLE
5
FB86
330
F97F
100
AcDbEntity
100
AcDbCircle
8
CELIK_KIRIS_KOLON
10
3.0596756411009234
20
8.300724605428067
30
0
40
0.006
0
LINE
5
FBA0
330
F97F
100
AcDbEntity
100
AcDbLine
8
CELIK_KIRIS_KOLON
10
3.671
20
8.407
30
0
11
4.329
21
8.407
31
0
0
LWPOLYLINE
5
FBA5
330
F97F
100
AcDbEntity
100
AcDbPolyline
8
CELIK_KIRIS_KOLON
6
ByLayer
62
256
370
-1
90
4
70
1
10
3.93
20
8.39
10
3.93
20
8.415000000000001
10
4.07
20
8.415000000000001
10
4.07
20
8.39
0
LINE
5
FBA6
330
F97F
100
AcDbEntity
100
AcDbLine
8
CELIK_KIRIS_KOLON
10
3.945
20
8.39
30
0
11
3.945
21
8.139
31
0
0
LINE
5
FBA7
330
F97F
100
AcDbEntity
100
AcDbLine
8
CELIK_KIRIS_KOLON
10
4.055
20
8.39
30
0
11
4.055
21
8.139
31
0
0
LINE
5
FBA8
330
F97F
100
AcDbEntity
100
AcDbLine
8
CELIK_KIRIS_KOLON
10
3.93
20
8.139
30
0
11
4.07
21
8.139
31
0
0
LWPOLYLINE
5
FBAA
330
F97F
100
AcDbEntity
100
AcDbPolyline
8
CELIK_KIRIS_KOLON
6
ByLayer
62
256
370
-1
90
4
70
1
10
3.93
20
8.0631
10
3.93
20
8.0871
10
4.07
20
8.0871
10
4.07
20
8.0631
0
CIRCLE
5
FBAB
330
F97F
100
AcDbEntity
100
AcDbCircle
8
CELIK_KIRIS_KOLON
10
3.945
20
8.0751
30
0
40
0.006
0
CIRCLE
5
FBAC
330
F97F
100
AcDbEntity
100
AcDbCircle
8
CELIK_KIRIS_KOLON
10
4.055
20
8.0751
30
0
40
0.006
0
LINE
5
FBC6
330
F97F
100
AcDbEntity
100
AcDbLine
8
CELIK_KIRIS_KOLON
10
4.572649001090722
20
8.500083959112766
30
0
11
5.1909667455678505
21
8.725133213421055
31
0
0
LWPOLYLINE
5
FBCB
330
F97F
100
AcDbEntity
100
AcDbPolyline
8
CELIK_KIRIS_KOLON
6
ByLayer
62
256
370
-1
90
4
70
1
10
4.82184373231081
20
8.572692401680753
10
4.82184373231081
20
8.597692401680753
10
4.961843732310809
20
8.597692401680753
10
4.961843732310809
20
8.572692401680753
0
LINE
5
FBCC
330
F97F
100
AcDbEntity
100
AcDbLine
8
CELIK_KIRIS_KOLON
10
4.835939121622598
20
8.577822703830638
30
0
11
4.92178617759734
21
8.341959856013375
31
0
0
LINE
5
FBCD
330
F97F
100
AcDbEntity
100
AcDbLine
8
CELIK_KIRIS_KOLON
10
4.939305309909049
20
8.61544491959646
30
0
11
5.025152365883791
21
8.379582071779197
31
0
0
LINE
5
FBCE
330
F97F
100
AcDbEntity
100
AcDbLine
8
CELIK_KIRIS_KOLON
10
4.907690788285552
20
8.33682955386349
30
0
11
5.039247755195579
21
8.384712373929082
31
0
0
LWPOLYLINE
5
FBD0
330
F97F
100
AcDbEntity
100
AcDbPolyline
8
CELIK_KIRIS_KOLON
6
ByLayer
62
256
370
-1
90
4
70
1
10
4.925324358899076
20
8.288724605428067
10
4.925324358899076
20
8.312724605428066
10
5.065324358899075
20
8.312724605428066
10
5.065324358899075
20
8.288724605428067
0
CIRCLE
5
FBD1
330
F97F
100
AcDbEntity
100
AcDbCircle
8
CELIK_KIRIS_KOLON
10
4.940324358899076
20
8.300724605428067
30
0
40
0.006
0
CIRCLE
5
FBD2
330
F97F
100
AcDbEntity
100
AcDbCircle
8
CELIK_KIRIS_KOLON
10
5.050324358899076
20
8.300724605428067
30
0
40
0.006
0
LINE
5
FBF2
330
F97F
100
AcDbEntity
100
AcDbLine
8
CELIK_KIRIS_KOLON
10
-13.833122799639975
20
0.29839906166072305
30
0
11
-13.827465945390482
21
0.2927422074112307
31
0
0
LINE
5
FBF3
330
F97F
100
AcDbEntity
100
AcDbLine
8
CELIK_KIRIS_KOLON
10
-13.833122799639975
20
0.29839906166072305
30
0
11
-14.298399061660723
21
-0.16687720036002526
31
0
0
LINE
5
FBF4
330
F97F
100
AcDbEntity
100
AcDbLine
8
CELIK_KIRIS_KOLON
10
-14.298399061660723
20
-0.16687720036002526
30
0
11
-14.29274220741123
21
-0.17253405460951762
31
0
0
LINE
5
FC06
330
F97F
100
AcDbEntity
100
AcDbLine
8
CELIK_KIRIS_KOLON
10
-13.904894137930409
20
0.2266277233702885
30
0
11
-13.922571807460074
21
0.24430539289995218
31
0
0
LINE
5
FC07
330
F97F
100
AcDbEntity
100
AcDbLine
8
CELIK_KIRIS_KOLON
10
-13.922571807460074
20
0.24430539289995218
30
0
11
-14.244305392899953
21
-0.077428192539927
31
0
0
LINE
5
FC08
330
F97F
100
AcDbEntity
100
AcDbLine
8
CELIK_KIRIS_KOLON
10
-14.244305392899953
20
-0.077428192539927
30
0
11
-14.226627723370289
21
-0.09510586206959068
31
0
0
LINE
5
FC09
330
F97F
100
AcDbEntity
100
AcDbLine
8
CELIK_KIRIS_KOLON
10
-14.04101219330882
20
0.12586500705120546
30
0
11
-14.260922402257837
21
0.26092240225783603
31
0
0
LINE
5
FC0A
330
F97F
100
AcDbEntity
100
AcDbLine
8
CELIK_KIRIS_KOLON
10
-14.125865007051207
20
0.041012193308819736
30
0
11
-14.260922402257837
21
0.26092240225783603
31
0
0
CIRCLE
5
FC0B
330
F97F
100
AcDbEntity
100
AcDbCircle
8
CELIK_KIRIS_KOLON
10
-14.260922402257837
20
0.26092240225783603
30
0
40
0.022
0
CIRCLE
5
FC0C
330
F97F
100
AcDbEntity
100
AcDbCircle
8
CELIK_KIRIS_KOLON
10
-14.260922402257837
20
0.26092240225783603
30
0
40
0.045
0
TEXT
5
FC0D
330
F97F
100
AcDbEntity
100
AcDbText
8
CELIK_KIRIS_KOLON
10
-14.290922402257836
20
0.29592240225783606
30
0
40
0.026000000000000002
1
0-60° TILT MAFSALI
50
0
7
STANDARD
72
2
11
-14.290922402257836
21
0.29592240225783606
31
0
100
AcDbText
73
2
0
CIRCLE
5
FC11
330
F97F
100
AcDbEntity
100
AcDbCircle
8
CELIK_KIRIS_KOLON
10
-14.300449671326165
20
0.300449671326164
30
0
40
0.048100000000000004
0
LINE
5
FC12
330
F97F
100
AcDbEntity
100
AcDbLine
8
CELIK_KIRIS_KOLON
10
-14.284964032818179
20
0.3839589821842953
30
0
11
-14.383958982184295
21
0.28496403281817867
31
0
0
LWPOLYLINE
5
FC13
330
F97F
100
AcDbEntity
100
AcDbPolyline
8
CELIK_KIRIS_KOLON
6
ByLayer
62
256
370
-1
90
4
70
1
10
-14.501567726704575
20
0.10933161594775359
10
-14.501567726704575
20
0.21933161594775358
10
-14.371567726704574
20
0.21933161594775358
10
-14.371567726704574
20
0.10933161594775359
0
LWPOLYLINE
5
FC14
330
F97F
100
AcDbEntity
100
AcDbPolyline
8
CELIK_KIRIS_KOLON
6
ByLayer
62
256
370
-1
90
4
70
1
10
-14.229331615947753
20
0.38156772670457445
10
-14.229331615947753
20
0.49156772670457444
10
-14.099331615947753
20
0.49156772670457444
10
-14.099331615947753
20
0.38156772670457445
0
LWPOLYLINE
5
FC17
330
F97F
100
AcDbEntity
100
AcDbPolyline
8
CELIK_KIRIS_KOLON
6
ByLayer
62
256
370
-1
90
4
70
1
10
-14.506567726704576
20
2.18
10
-14.506567726704576
20
2.22
10
-14.094331615947754
20
2.22
10
-14.094331615947754
20
2.18
0
CIRCLE
5
FC19
330
F97F
100
AcDbEntity
100
AcDbCircle
8
CELIK_KIRIS_KOLON
10
-14.300449671326165
20
2.3600000000000003
30
0
40
0.15500000000000003
0
LWPOLYLINE
5
FC1A
330
F97F
100
AcDbEntity
100
AcDbPolyline
8
CELIK_KIRIS_KOLON
6
ByLayer
62
256
370
-1
90
4
70
1
10
-14.490449671326166
20
2.3350000000000004
10
-14.490449671326166
20
2.3850000000000002
10
-14.455449671326166
20
2.3850000000000002
10
-14.455449671326166
20
2.3350000000000004
0
LWPOLYLINE
5
FC1B
330
F97F
100
AcDbEntity
100
AcDbPolyline
8
CELIK_KIRIS_KOLON
6
ByLayer
62
256
370
-1
90
4
70
1
10
-14.145449671326164
20
2.3350000000000004
10
-14.145449671326164
20
2.3850000000000002
10
-14.110449671326164
20
2.3850000000000002
10
-14.110449671326164
20
2.3350000000000004
0
LINE
5
FC1C
330
F97F
100
AcDbEntity
100
AcDbLine
8
CELIK_KIRIS_KOLON
10
-14.436567726704576
20
0.2443316159477536
30
0
11
-14.300449671326165
21
2.22
31
0
0
LINE
5
FC3A
330
F97F
100
AcDbEntity
100
AcDbLine
8
CELIK_KIRIS_KOLON
10
-3.8331227996399746
20
0.29839906166072305
30
0
11
-3.827465945390482
21
0.2927422074112307
31
0
0
LINE
5
FC3B
330
F97F
100
AcDbEntity
100
AcDbLine
8
CELIK_KIRIS_KOLON
10
-3.8331227996399746
20
0.29839906166072305
30
0
11
-4.298399061660723
21
-0.16687720036002526
31
0
0
LINE
5
FC3C
330
F97F
100
AcDbEntity
100
AcDbLine
8
CELIK_KIRIS_KOLON
10
-4.298399061660723
20
-0.16687720036002526
30
0
11
-4.29274220741123
21
-0.17253405460951762
31
0
0
LINE
5
FC4E
330
F97F
100
AcDbEntity
100
AcDbLine
8
CELIK_KIRIS_KOLON
10
-3.9048941379304094
20
0.2266277233702885
30
0
11
-3.922571807460073
21
0.24430539289995218
31
0
0
LINE
5
FC4F
330
F97F
100
AcDbEntity
100
AcDbLine
8
CELIK_KIRIS_KOLON
10
-3.922571807460073
20
0.24430539289995218
30
0
11
-4.244305392899952
21
-0.077428192539927
31
0
0
LINE
5
FC50
330
F97F
100
AcDbEntity
100
AcDbLine
8
CELIK_KIRIS_KOLON
10
-4.244305392899952
20
-0.077428192539927
30
0
11
-4.226627723370289
21
-0.09510586206959068
31
0
0
LINE
5
FC51
330
F97F
100
AcDbEntity
100
AcDbLine
8
CELIK_KIRIS_KOLON
10
-4.04101219330882
20
0.12586500705120546
30
0
11
-4.260922402257836
21
0.26092240225783603
31
0
0
LINE
5
FC52
330
F97F
100
AcDbEntity
100
AcDbLine
8
CELIK_KIRIS_KOLON
10
-4.125865007051205
20
0.041012193308819736
30
0
11
-4.260922402257836
21
0.26092240225783603
31
0
0
CIRCLE
5
FC53
330
F97F
100
AcDbEntity
100
AcDbCircle
8
CELIK_KIRIS_KOLON
10
-4.260922402257836
20
0.26092240225783603
30
0
40
0.022
0
CIRCLE
5
FC54
330
F97F
100
AcDbEntity
100
AcDbCircle
8
CELIK_KIRIS_KOLON
10
-4.260922402257836
20
0.26092240225783603
30
0
40
0.045
0
TEXT
5
FC55
330
F97F
100
AcDbEntity
100
AcDbText
8
CELIK_KIRIS_KOLON
10
-4.290922402257836
20
0.29592240225783606
30
0
40
0.026000000000000002
1
0-60° TILT MAFSALI
50
0
7
STANDARD
72
2
11
-4.290922402257836
21
0.29592240225783606
31
0
100
AcDbText
73
2
0
CIRCLE
5
FC59
330
F97F
100
AcDbEntity
100
AcDbCircle
8
CELIK_KIRIS_KOLON
10
-4.300449671326164
20
0.300449671326164
30
0
40
0.048100000000000004
0
LINE
5
FC5A
330
F97F
100
AcDbEntity
100
AcDbLine
8
CELIK_KIRIS_KOLON
10
-4.284964032818178
20
0.3839589821842953
30
0
11
-4.3839589821842955
21
0.28496403281817867
31
0
0
LWPOLYLINE
5
FC5B
330
F97F
100
AcDbEntity
100
AcDbPolyline
8
CELIK_KIRIS_KOLON
6
ByLayer
62
256
370
-1
90
4
70
1
10
-4.501567726704574
20
0.10933161594775359
10
-4.501567726704574
20
0.21933161594775358
10
-4.3715677267045745
20
0.21933161594775358
10
-4.3715677267045745
20
0.10933161594775359
0
LWPOLYLINE
5
FC5C
330
F97F
100
AcDbEntity
100
AcDbPolyline
8
CELIK_KIRIS_KOLON
6
ByLayer
62
256
370
-1
90
4
70
1
10
-4.229331615947754
20
0.38156772670457445
10
-4.229331615947754
20
0.49156772670457444
10
-4.099331615947754
20
0.49156772670457444
10
-4.099331615947754
20
0.38156772670457445
0
LWPOLYLINE
5
FC5F
330
F97F
100
AcDbEntity
100
AcDbPolyline
8
CELIK_KIRIS_KOLON
6
ByLayer
62
256
370
-1
90
4
70
1
10
-4.506567726704574
20
2.18
10
-4.506567726704574
20
2.22
10
-4.0943316159477545
20
2.22
10
-4.0943316159477545
20
2.18
0
CIRCLE
5
FC61
330
F97F
100
AcDbEntity
100
AcDbCircle
8
CELIK_KIRIS_KOLON
10
-4.556567726704574
20
2.95
30
0
40
0.795
0
LWPOLYLINE
5
FC63
330
F97F
100
AcDbEntity
100
AcDbPolyline
8
CELIK_KIRIS_KOLON
6
ByLayer
62
256
370
-1
90
4
70
1
10
-4.436567726704574
20
0.4065677267045744
10
-4.436567726704574
20
0.4665677267045744
10
-4.104331615947754
20
0.4665677267045744
10
-4.104331615947754
20
0.4065677267045744
0
LINE
5
FC81
330
F97F
100
AcDbEntity
100
AcDbLine
8
CELIK_KIRIS_KOLON
10
5.666877200360025
20
0.29839906166072305
30
0
11
5.6725340546095175
21
0.2927422074112307
31
0
0
LINE
5
FC82
330
F97F
100
AcDbEntity
100
AcDbLine
8
CELIK_KIRIS_KOLON
10
5.666877200360025
20
0.29839906166072305
30
0
11
5.201600938339277
21
-0.16687720036002526
31
0
0
LINE
5
FC83
330
F97F
100
AcDbEntity
100
AcDbLine
8
CELIK_KIRIS_KOLON
10
5.201600938339277
20
-0.16687720036002526
30
0
11
5.20725779258877
21
-0.17253405460951762
31
0
0
LINE
5
FC95
330
F97F
100
AcDbEntity
100
AcDbLine
8
CELIK_KIRIS_KOLON
10
5.595105862069591
20
0.2266277233702885
30
0
11
5.577428192539927
21
0.24430539289995218
31
0
0
LINE
5
FC96
330
F97F
100
AcDbEntity
100
AcDbLine
8
CELIK_KIRIS_KOLON
10
5.577428192539927
20
0.24430539289995218
30
0
11
5.255694607100048
21
-0.077428192539927
31
0
0
LINE
5
FC97
330
F97F
100
AcDbEntity
100
AcDbLine
8
CELIK_KIRIS_KOLON
10
5.255694607100048
20
-0.077428192539927
30
0
11
5.273372276629711
21
-0.09510586206959068
31
0
0
LINE
5
FC98
330
F97F
100
AcDbEntity
100
AcDbLine
8
CELIK_KIRIS_KOLON
10
5.45898780669118
20
0.12586500705120546
30
0
11
5.239077597742164
21
0.26092240225783603
31
0
0
LINE
5
FC99
330
F97F
100
AcDbEntity
100
AcDbLine
8
CELIK_KIRIS_KOLON
10
5.374134992948795
20
0.041012193308819736
30
0
11
5.239077597742164
21
0.26092240225783603
31
0
0
CIRCLE
5
FC9A
330
F97F
100
AcDbEntity
100
AcDbCircle
8
CELIK_KIRIS_KOLON
10
5.239077597742164
20
0.26092240225783603
30
0
40
0.022
0
CIRCLE
5
FC9B
330
F97F
100
AcDbEntity
100
AcDbCircle
8
CELIK_KIRIS_KOLON
10
5.239077597742164
20
0.26092240225783603
30
0
40
0.045
0
TEXT
5
FC9C
330
F97F
100
AcDbEntity
100
AcDbText
8
CELIK_KIRIS_KOLON
10
5.209077597742164
20
0.29592240225783606
30
0
40
0.026000000000000002
1
0-60° TILT MAFSALI
50
0
7
STANDARD
72
2
11
5.209077597742164
21
0.29592240225783606
31
0
100
AcDbText
73
2
0
CIRCLE
5
FCA0
330
F97F
100
AcDbEntity
100
AcDbCircle
8
CELIK_KIRIS_KOLON
10
5.199550328673836
20
0.300449671326164
30
0
40
0.048100000000000004
0
LINE
5
FCA1
330
F97F
100
AcDbEntity
100
AcDbLine
8
CELIK_KIRIS_KOLON
10
5.215035967181822
20
0.3839589821842953
30
0
11
5.1160410178157045
21
0.28496403281817867
31
0
0
LWPOLYLINE
5
FCA2
330
F97F
100
AcDbEntity
100
AcDbPolyline
8
CELIK_KIRIS_KOLON
6
ByLayer
62
256
370
-1
90
4
70
1
10
4.998432273295426
20
0.10933161594775359
10
4.998432273295426
20
0.21933161594775358
10
5.1284322732954255
20
0.21933161594775358
10
5.1284322732954255
20
0.10933161594775359
0
LWPOLYLINE
5
FCA3
330
F97F
100
AcDbEntity
100
AcDbPolyline
8
CELIK_KIRIS_KOLON
6
ByLayer
62
256
370
-1
90
4
70
1
10
5.270668384052246
20
0.38156772670457445
10
5.270668384052246
20
0.49156772670457444
10
5.400668384052246
20
0.49156772670457444
10
5.400668384052246
20
0.38156772670457445
0
LWPOLYLINE
5
FCA6
330
F97F
100
AcDbEntity
100
AcDbPolyline
8
CELIK_KIRIS_KOLON
6
ByLayer
62
256
370
-1
90
4
70
1
10
4.993432273295426
20
2.18
10
4.993432273295426
20
2.22
10
5.4056683840522455
20
2.22
10
5.4056683840522455
20
2.18
0
LINE
5
FCAA
330
F97F
100
AcDbEntity
100
AcDbLine
8
CELIK_KIRIS_KOLON
10
5.303432273295426
20
1.84
30
0
11
5.303432273295426
21
2.9400000000000004
31
0
0
LINE
5
FCAB
330
F97F
100
AcDbEntity
100
AcDbLine
8
CELIK_KIRIS_KOLON
10
4.473432273295426
20
1.84
30
0
11
4.473432273295426
21
2.9400000000000004
31
0
0
LINE
5
FCAC
330
F97F
100
AcDbEntity
100
AcDbLine
8
CELIK_KIRIS_KOLON
10
4.473432273295426
20
2.9400000000000004
30
0
11
5.303432273295426
21
2.9400000000000004
31
0
0
LINE
5
FCAD
330
F97F
100
AcDbEntity
100
AcDbLine
8
CELIK_KIRIS_KOLON
10
4.473432273295426
20
2.39
30
0
11
5.303432273295426
21
2.39
31
0
0
LWPOLYLINE
5
F998
330
F97F
100
AcDbEntity
100
AcDbPolyline
8
MONTAJ_BORULARI
6
ByLayer
62
256
370
-1
90
4
70
1
10
-18.0381
20
16.525
10
-18.0381
20
17.474999999999998
10
-17.9619
20
17.474999999999998
10
-17.9619
20
16.525
0
LINE
5
F999
330
F97F
100
AcDbEntity
100
AcDbLine
8
MONTAJ_BORULARI
10
-18
20
16.445
30
0
11
-18
21
17.555
31
0
0
LINE
5
F9E7
330
F97F
100
AcDbEntity
100
AcDbLine
8
MONTAJ_BORULARI
10
-12.01583919189858
20
17.585060150753748
30
0
11
-12.58506015075375
21
17.01583919189858
31
0
0
LINE
5
F9E8
330
F97F
100
AcDbEntity
100
AcDbLine
8
MONTAJ_BORULARI
10
-12.042779960261788
20
17.612000919116955
30
0
11
-12.612000919116957
21
17.042779960261786
31
0
0
LINE
5
F9E9
330
F97F
100
AcDbEntity
100
AcDbLine
8
MONTAJ_BORULARI
10
-11.988898423535373
20
17.55811938239054
30
0
11
-12.558119382390542
21
16.98889842353537
31
0
0
LWPOLYLINE
5
F9EE
330
F97F
100
AcDbEntity
100
AcDbPolyline
8
MONTAJ_BORULARI
6
ByLayer
62
256
370
-1
90
4
70
1
10
-12.471567726704576
20
17.164331615947752
10
-12.471567726704576
20
19.2
10
-12.401567726704576
20
19.2
10
-12.401567726704576
20
17.164331615947752
0
LWPOLYLINE
5
F9EF
330
F97F
100
AcDbEntity
100
AcDbPolyline
8
MONTAJ_BORULARI
6
ByLayer
62
256
370
-1
90
4
70
1
10
-12.199331615947754
20
17.436567726704574
10
-12.199331615947754
20
19.2
10
-12.129331615947754
20
19.2
10
-12.129331615947754
20
17.436567726704574
0
CIRCLE
5
F9F1
330
F97F
100
AcDbEntity
100
AcDbCircle
8
MONTAJ_BORULARI
10
-12.300449671326165
20
19.36
30
0
40
0.14
0
CIRCLE
5
FA18
330
F97F
100
AcDbEntity
100
AcDbCircle
8
MONTAJ_BORULARI
10
-6
20
16.5751
30
0
40
0.0381
0
LWPOLYLINE
5
FA31
330
F97F
100
AcDbEntity
100
AcDbPolyline
8
MONTAJ_BORULARI
6
ByLayer
62
256
370
-1
90
4
70
1
10
7.9619
20
16.525
10
7.9619
20
17.474999999999998
10
8.0381
20
17.474999999999998
10
8.0381
20
16.525
0
LINE
5
FA32
330
F97F
100
AcDbEntity
100
AcDbLine
8
MONTAJ_BORULARI
10
8
20
16.445
30
0
11
8
21
17.555
31
0
0
LWPOLYLINE
5
FA5A
330
F97F
100
AcDbEntity
100
AcDbPolyline
8
MONTAJ_BORULARI
6
ByLayer
62
256
370
-1
90
4
70
1
10
8.9619
20
16.525
10
8.9619
20
17.474999999999998
10
9.0381
20
17.474999999999998
10
9.0381
20
16.525
0
LINE
5
FA5B
330
F97F
100
AcDbEntity
100
AcDbLine
8
MONTAJ_BORULARI
10
9
20
16.445
30
0
11
9
21
17.555
31
0
0
LINE
5
FABF
330
F97F
100
AcDbEntity
100
AcDbLine
8
MONTAJ_BORULARI
10
15.98416080810142
20
17.585060150753748
30
0
11
15.41493984924625
21
17.01583919189858
31
0
0
LINE
5
FAC0
330
F97F
100
AcDbEntity
100
AcDbLine
8
MONTAJ_BORULARI
10
15.957220039738212
20
17.612000919116955
30
0
11
15.387999080883043
21
17.042779960261786
31
0
0
LINE
5
FAC1
330
F97F
100
AcDbEntity
100
AcDbLine
8
MONTAJ_BORULARI
10
16.01110157646463
20
17.55811938239054
30
0
11
15.441880617609458
21
16.98889842353537
31
0
0
LWPOLYLINE
5
FAC6
330
F97F
100
AcDbEntity
100
AcDbPolyline
8
MONTAJ_BORULARI
6
ByLayer
62
256
370
-1
90
4
70
1
10
15.528432273295424
20
17.164331615947752
10
15.528432273295424
20
19.2
10
15.598432273295424
20
19.2
10
15.598432273295424
20
17.164331615947752
0
LWPOLYLINE
5
FAC7
330
F97F
100
AcDbEntity
100
AcDbPolyline
8
MONTAJ_BORULARI
6
ByLayer
62
256
370
-1
90
4
70
1
10
15.800668384052246
20
17.436567726704574
10
15.800668384052246
20
19.2
10
15.870668384052246
20
19.2
10
15.870668384052246
20
17.436567726704574
0
CIRCLE
5
FAC9
330
F97F
100
AcDbEntity
100
AcDbCircle
8
MONTAJ_BORULARI
10
15.699550328673835
20
19.36
30
0
40
0.14
0
LWPOLYLINE
5
FAE3
330
F97F
100
AcDbEntity
100
AcDbPolyline
8
MONTAJ_BORULARI
6
ByLayer
62
256
370
-1
90
4
70
1
10
-7.9381
20
8.025
10
-7.9381
20
8.975
10
-7.8619
20
8.975
10
-7.8619
20
8.025
0
LINE
5
FAE4
330
F97F
100
AcDbEntity
100
AcDbLine
8
MONTAJ_BORULARI
10
-7.9
20
7.945
30
0
11
-7.9
21
9.055
31
0
0
LWPOLYLINE
5
FB0C
330
F97F
100
AcDbEntity
100
AcDbPolyline
8
MONTAJ_BORULARI
6
ByLayer
62
256
370
-1
90
4
70
1
10
-7.0381
20
8.025
10
-7.0381
20
8.975
10
-6.9619
20
8.975
10
-6.9619
20
8.025
0
LINE
5
FB0D
330
F97F
100
AcDbEntity
100
AcDbLine
8
MONTAJ_BORULARI
10
-7
20
7.945
30
0
11
-7
21
9.055
31
0
0
LWPOLYLINE
5
FB35
330
F97F
100
AcDbEntity
100
AcDbPolyline
8
MONTAJ_BORULARI
6
ByLayer
62
256
370
-1
90
4
70
1
10
-6.1381
20
8.025
10
-6.1381
20
8.975
10
-6.0619
20
8.975
10
-6.0619
20
8.025
0
LINE
5
FB36
330
F97F
100
AcDbEntity
100
AcDbLine
8
MONTAJ_BORULARI
10
-6.1
20
7.945
30
0
11
-6.1
21
9.055
31
0
0
CIRCLE
5
FB83
330
F97F
100
AcDbEntity
100
AcDbCircle
8
MONTAJ_BORULARI
10
3.0046756411009232
20
8.300724605428067
30
0
40
0.0381
0
CIRCLE
5
FBA9
330
F97F
100
AcDbEntity
100
AcDbCircle
8
MONTAJ_BORULARI
10
4
20
8.0751
30
0
40
0.0381
0
CIRCLE
5
FBCF
330
F97F
100
AcDbEntity
100
AcDbCircle
8
MONTAJ_BORULARI
10
4.995324358899076
20
8.300724605428067
30
0
40
0.0381
0
LINE
5
FC0E
330
F97F
100
AcDbEntity
100
AcDbLine
8
MONTAJ_BORULARI
10
-14.01583919189858
20
0.5850601507537494
30
0
11
-14.58506015075375
21
0.015839191898578575
31
0
0
LINE
5
FC0F
330
F97F
100
AcDbEntity
100
AcDbLine
8
MONTAJ_BORULARI
10
-14.042779960261788
20
0.6120009191169569
30
0
11
-14.612000919116957
21
0.04277996026178604
31
0
0
LINE
5
FC10
330
F97F
100
AcDbEntity
100
AcDbLine
8
MONTAJ_BORULARI
10
-13.988898423535373
20
0.558119382390542
30
0
11
-14.558119382390542
21
-0.011101576464628837
31
0
0
LWPOLYLINE
5
FC15
330
F97F
100
AcDbEntity
100
AcDbPolyline
8
MONTAJ_BORULARI
6
ByLayer
62
256
370
-1
90
4
70
1
10
-14.471567726704576
20
0.16433161594775358
10
-14.471567726704576
20
2.2
10
-14.401567726704576
20
2.2
10
-14.401567726704576
20
0.16433161594775358
0
LWPOLYLINE
5
FC16
330
F97F
100
AcDbEntity
100
AcDbPolyline
8
MONTAJ_BORULARI
6
ByLayer
62
256
370
-1
90
4
70
1
10
-14.199331615947754
20
0.43656772670457444
10
-14.199331615947754
20
2.2
10
-14.129331615947754
20
2.2
10
-14.129331615947754
20
0.43656772670457444
0
CIRCLE
5
FC18
330
F97F
100
AcDbEntity
100
AcDbCircle
8
MONTAJ_BORULARI
10
-14.300449671326165
20
2.3600000000000003
30
0
40
0.14
0
LINE
5
FC56
330
F97F
100
AcDbEntity
100
AcDbLine
8
MONTAJ_BORULARI
10
-4.0158391918985785
20
0.5850601507537494
30
0
11
-4.585060150753749
21
0.015839191898578575
31
0
0
LINE
5
FC57
330
F97F
100
AcDbEntity
100
AcDbLine
8
MONTAJ_BORULARI
10
-4.042779960261786
20
0.6120009191169569
30
0
11
-4.612000919116957
21
0.04277996026178604
31
0
0
LINE
5
FC58
330
F97F
100
AcDbEntity
100
AcDbLine
8
MONTAJ_BORULARI
10
-3.988898423535371
20
0.558119382390542
30
0
11
-4.558119382390542
21
-0.011101576464628837
31
0
0
LWPOLYLINE
5
FC5D
330
F97F
100
AcDbEntity
100
AcDbPolyline
8
MONTAJ_BORULARI
6
ByLayer
62
256
370
-1
90
4
70
1
10
-4.471567726704574
20
0.16433161594775358
10
-4.471567726704574
20
2.2
10
-4.401567726704574
20
2.2
10
-4.401567726704574
20
0.16433161594775358
0
LWPOLYLINE
5
FC5E
330
F97F
100
AcDbEntity
100
AcDbPolyline
8
MONTAJ_BORULARI
6
ByLayer
62
256
370
-1
90
4
70
1
10
-4.199331615947754
20
0.43656772670457444
10
-4.199331615947754
20
2.2
10
-4.129331615947754
20
2.2
10
-4.129331615947754
20
0.43656772670457444
0
CIRCLE
5
FC60
330
F97F
100
AcDbEntity
100
AcDbCircle
8
MONTAJ_BORULARI
10
-4.556567726704574
20
2.95
30
0
40
0.75
0
LWPOLYLINE
5
FC62
330
F97F
100
AcDbEntity
100
AcDbPolyline
8
MONTAJ_BORULARI
6
ByLayer
62
256
370
-1
90
4
70
1
10
-4.493567726704574
20
0.10433161594775359
10
-4.493567726704574
20
2.2
10
-4.3795677267045745
20
2.2
10
-4.3795677267045745
20
0.10433161594775359
0
LINE
5
FC9D
330
F97F
100
AcDbEntity
100
AcDbLine
8
MONTAJ_BORULARI
10
5.4841608081014215
20
0.5850601507537494
30
0
11
4.914939849246251
21
0.015839191898578575
31
0
0
LINE
5
FC9E
330
F97F
100
AcDbEntity
100
AcDbLine
8
MONTAJ_BORULARI
10
5.457220039738214
20
0.6120009191169569
30
0
11
4.887999080883043
21
0.04277996026178604
31
0
0
LINE
5
FC9F
330
F97F
100
AcDbEntity
100
AcDbLine
8
MONTAJ_BORULARI
10
5.511101576464629
20
0.558119382390542
30
0
11
4.941880617609458
21
-0.011101576464628837
31
0
0
LWPOLYLINE
5
FCA4
330
F97F
100
AcDbEntity
100
AcDbPolyline
8
MONTAJ_BORULARI
6
ByLayer
62
256
370
-1
90
4
70
1
10
5.028432273295426
20
0.16433161594775358
10
5.028432273295426
20
2.2
10
5.098432273295426
20
2.2
10
5.098432273295426
20
0.16433161594775358
0
LWPOLYLINE
5
FCA5
330
F97F
100
AcDbEntity
100
AcDbPolyline
8
MONTAJ_BORULARI
6
ByLayer
62
256
370
-1
90
4
70
1
10
5.300668384052246
20
0.43656772670457444
10
5.300668384052246
20
2.2
10
5.370668384052246
20
2.2
10
5.370668384052246
20
0.43656772670457444
0
CIRCLE
5
FCAE
330
F97F
100
AcDbEntity
100
AcDbCircle
8
MONTAJ_BORULARI
10
4.713432273295426
20
1.52
30
0
40
0.2285
0
CIRCLE
5
FCAF
330
F97F
100
AcDbEntity
100
AcDbCircle
8
MONTAJ_BORULARI
10
4.713432273295426
20
1.52
30
0
40
0.2435
0
LWPOLYLINE
5
FCB0
330
F97F
100
AcDbEntity
100
AcDbPolyline
8
MONTAJ_BORULARI
6
ByLayer
62
256
370
-1
90
4
70
1
10
5.028432273295426
20
0.16433161594775358
10
5.028432273295426
20
1.7999999999999998
10
5.098432273295426
20
1.7999999999999998
10
5.098432273295426
20
0.16433161594775358
0
LWPOLYLINE
5
FCB1
330
F97F
100
AcDbEntity
100
AcDbPolyline
8
MONTAJ_BORULARI
6
ByLayer
62
256
370
-1
90
4
70
1
10
5.300668384052246
20
0.43656772670457444
10
5.300668384052246
20
1.8
10
5.370668384052246
20
1.8
10
5.370668384052246
20
0.43656772670457444
0
LINE
5
F9CE
330
F97F
100
AcDbEntity
100
AcDbLine
8
KABLO_TAVALARI
10
-11.97737258300203
20
17.154149278298668
30
0
11
-11.995050252531694
21
17.171826947828333
31
0
0
CIRCLE
5
F9CF
330
F97F
100
AcDbEntity
100
AcDbCircle
8
KABLO_TAVALARI
10
-11.995050252531694
20
17.171826947828333
30
0
40
0.008
0
LINE
5
F9D0
330
F97F
100
AcDbEntity
100
AcDbLine
8
KABLO_TAVALARI
10
-11.995050252531694
20
17.171826947828333
30
0
11
-12.035050252531693
21
17.111826947828334
31
0
0
LINE
5
F9D1
330
F97F
100
AcDbEntity
100
AcDbLine
8
KABLO_TAVALARI
10
-12.035050252531693
20
17.111826947828334
30
0
11
-12.3889087296526
21
17.106066017177984
31
0
0
LINE
5
F9D2
330
F97F
100
AcDbEntity
100
AcDbLine
8
KABLO_TAVALARI
10
-12.037476659402888
20
17.09404520189781
30
0
11
-12.055154328932552
21
17.111722871427475
31
0
0
CIRCLE
5
F9D3
330
F97F
100
AcDbEntity
100
AcDbCircle
8
KABLO_TAVALARI
10
-12.055154328932552
20
17.111722871427475
30
0
40
0.008
0
LINE
5
F9D4
330
F97F
100
AcDbEntity
100
AcDbLine
8
KABLO_TAVALARI
10
-12.055154328932552
20
17.111722871427475
30
0
11
-12.095154328932551
21
17.051722871427476
31
0
0
LINE
5
F9D5
330
F97F
100
AcDbEntity
100
AcDbLine
8
KABLO_TAVALARI
10
-12.095154328932551
20
17.051722871427476
30
0
11
-12.3889087296526
21
17.141066017177984
31
0
0
LINE
5
F9D6
330
F97F
100
AcDbEntity
100
AcDbLine
8
KABLO_TAVALARI
10
-12.097580735803744
20
17.033941125496955
30
0
11
-12.115258405333408
21
17.05161879502662
31
0
0
CIRCLE
5
F9D7
330
F97F
100
AcDbEntity
100
AcDbCircle
8
KABLO_TAVALARI
10
-12.115258405333408
20
17.05161879502662
30
0
40
0.008
0
LINE
5
F9D8
330
F97F
100
AcDbEntity
100
AcDbLine
8
KABLO_TAVALARI
10
-12.115258405333408
20
17.05161879502662
30
0
11
-12.155258405333408
21
16.99161879502662
31
0
0
LINE
5
F9D9
330
F97F
100
AcDbEntity
100
AcDbLine
8
KABLO_TAVALARI
10
-12.155258405333408
20
16.99161879502662
30
0
11
-12.3889087296526
21
17.176066017177984
31
0
0
LINE
5
F9DA
330
F97F
100
AcDbEntity
100
AcDbLine
8
KABLO_TAVALARI
10
-12.1576848122046
20
16.973837049096097
30
0
11
-12.175362481734265
21
16.991514718625762
31
0
0
CIRCLE
5
F9DB
330
F97F
100
AcDbEntity
100
AcDbCircle
8
KABLO_TAVALARI
10
-12.175362481734265
20
16.991514718625762
30
0
40
0.008
0
LINE
5
F9DC
330
F97F
100
AcDbEntity
100
AcDbLine
8
KABLO_TAVALARI
10
-12.175362481734265
20
16.991514718625762
30
0
11
-12.215362481734264
21
16.931514718625763
31
0
0
LINE
5
F9DD
330
F97F
100
AcDbEntity
100
AcDbLine
8
KABLO_TAVALARI
10
-12.215362481734264
20
16.931514718625763
30
0
11
-12.3889087296526
21
17.211066017177984
31
0
0
TEXT
5
F9DE
330
F97F
100
AcDbEntity
100
AcDbText
8
KABLO_TAVALARI
10
-12.243951839509359
20
16.989393398282203
30
0
40
0.03
1
4x 4.3-10 RF PORT (R1, Y1, Y2, P1)
50
0
7
STANDARD
72
2
11
-12.243951839509359
21
16.989393398282203
31
0
100
AcDbText
73
2
0
CIRCLE
5
FA10
330
F97F
100
AcDbEntity
100
AcDbCircle
8
KABLO_TAVALARI
10
-5.86
20
16.899
30
0
40
0.008
0
CIRCLE
5
FA11
330
F97F
100
AcDbEntity
100
AcDbCircle
8
KABLO_TAVALARI
10
-5.835
20
16.899
30
0
40
0.008
0
CIRCLE
5
FA12
330
F97F
100
AcDbEntity
100
AcDbCircle
8
KABLO_TAVALARI
10
-5.81
20
16.899
30
0
40
0.008
0
CIRCLE
5
FA13
330
F97F
100
AcDbEntity
100
AcDbCircle
8
KABLO_TAVALARI
10
-5.785
20
16.899
30
0
40
0.008
0
LWPOLYLINE
5
FA85
330
F97F
100
AcDbEntity
100
AcDbPolyline
8
KABLO_TAVALARI
6
ByLayer
62
256
370
-1
90
4
70
1
10
7.5
20
17.490000000000002
10
7.5
20
17.535000000000004
10
9.5
20
17.535000000000004
10
9.5
20
17.490000000000002
0
TEXT
5
FA86
330
F97F
100
AcDbEntity
100
AcDbText
8
KABLO_TAVALARI
10
8.5
20
17.515
30
0
40
0.03
1
2x 4 = 8 ADET 1/2" FEEDER KABLO TAVASI (300x60mm)
50
0
7
STANDARD
72
1
11
8.5
21
17.515
31
0
100
AcDbText
73
2
0
LINE
5
FAA6
330
F97F
100
AcDbEntity
100
AcDbLine
8
KABLO_TAVALARI
10
16.02262741699797
20
17.154149278298668
30
0
11
16.004949747468306
21
17.171826947828333
31
0
0
CIRCLE
5
FAA7
330
F97F
100
AcDbEntity
100
AcDbCircle
8
KABLO_TAVALARI
10
16.004949747468306
20
17.171826947828333
30
0
40
0.008
0
LINE
5
FAA8
330
F97F
100
AcDbEntity
100
AcDbLine
8
KABLO_TAVALARI
10
16.004949747468306
20
17.171826947828333
30
0
11
15.964949747468307
21
17.111826947828334
31
0
0
LINE
5
FAA9
330
F97F
100
AcDbEntity
100
AcDbLine
8
KABLO_TAVALARI
10
15.964949747468307
20
17.111826947828334
30
0
11
15.6110912703474
21
17.106066017177984
31
0
0
LINE
5
FAAA
330
F97F
100
AcDbEntity
100
AcDbLine
8
KABLO_TAVALARI
10
15.962523340597112
20
17.09404520189781
30
0
11
15.944845671067448
21
17.111722871427475
31
0
0
CIRCLE
5
FAAB
330
F97F
100
AcDbEntity
100
AcDbCircle
8
KABLO_TAVALARI
10
15.944845671067448
20
17.111722871427475
30
0
40
0.008
0
LINE
5
FAAC
330
F97F
100
AcDbEntity
100
AcDbLine
8
KABLO_TAVALARI
10
15.944845671067448
20
17.111722871427475
30
0
11
15.904845671067449
21
17.051722871427476
31
0
0
LINE
5
FAAD
330
F97F
100
AcDbEntity
100
AcDbLine
8
KABLO_TAVALARI
10
15.904845671067449
20
17.051722871427476
30
0
11
15.6110912703474
21
17.141066017177984
31
0
0
LINE
5
FAAE
330
F97F
100
AcDbEntity
100
AcDbLine
8
KABLO_TAVALARI
10
15.902419264196256
20
17.033941125496955
30
0
11
15.884741594666592
21
17.05161879502662
31
0
0
CIRCLE
5
FAAF
330
F97F
100
AcDbEntity
100
AcDbCircle
8
KABLO_TAVALARI
10
15.884741594666592
20
17.05161879502662
30
0
40
0.008
0
LINE
5
FAB0
330
F97F
100
AcDbEntity
100
AcDbLine
8
KABLO_TAVALARI
10
15.884741594666592
20
17.05161879502662
30
0
11
15.844741594666592
21
16.99161879502662
31
0
0
LINE
5
FAB1
330
F97F
100
AcDbEntity
100
AcDbLine
8
KABLO_TAVALARI
10
15.844741594666592
20
16.99161879502662
30
0
11
15.6110912703474
21
17.176066017177984
31
0
0
LINE
5
FAB2
330
F97F
100
AcDbEntity
100
AcDbLine
8
KABLO_TAVALARI
10
15.8423151877954
20
16.973837049096097
30
0
11
15.824637518265735
21
16.991514718625762
31
0
0
CIRCLE
5
FAB3
330
F97F
100
AcDbEntity
100
AcDbCircle
8
KABLO_TAVALARI
10
15.824637518265735
20
16.991514718625762
30
0
40
0.008
0
LINE
5
FAB4
330
F97F
100
AcDbEntity
100
AcDbLine
8
KABLO_TAVALARI
10
15.824637518265735
20
16.991514718625762
30
0
11
15.784637518265736
21
16.931514718625763
31
0
0
LINE
5
FAB5
330
F97F
100
AcDbEntity
100
AcDbLine
8
KABLO_TAVALARI
10
15.784637518265736
20
16.931514718625763
30
0
11
15.6110912703474
21
17.211066017177984
31
0
0
TEXT
5
FAB6
330
F97F
100
AcDbEntity
100
AcDbText
8
KABLO_TAVALARI
10
15.756048160490641
20
16.989393398282203
30
0
40
0.03
1
4x 4.3-10 RF PORT (R1, Y1, Y2, P1)
50
0
7
STANDARD
72
2
11
15.756048160490641
21
16.989393398282203
31
0
100
AcDbText
73
2
0
CIRCLE
5
FB7B
330
F97F
100
AcDbEntity
100
AcDbCircle
8
KABLO_TAVALARI
10
3.2470129324341346
20
8.557208225235028
30
0
40
0.008
0
CIRCLE
5
FB7C
330
F97F
100
AcDbEntity
100
AcDbCircle
8
KABLO_TAVALARI
10
3.270505247953782
20
8.548657721651887
30
0
40
0.008
0
CIRCLE
5
FB7D
330
F97F
100
AcDbEntity
100
AcDbCircle
8
KABLO_TAVALARI
10
3.2939975634734298
20
8.540107218068744
30
0
40
0.008
0
CIRCLE
5
FB7E
330
F97F
100
AcDbEntity
100
AcDbCircle
8
KABLO_TAVALARI
10
3.3174898789930776
20
8.531556714485603
30
0
40
0.008
0
CIRCLE
5
FBA1
330
F97F
100
AcDbEntity
100
AcDbCircle
8
KABLO_TAVALARI
10
4.14
20
8.399
30
0
40
0.008
0
CIRCLE
5
FBA2
330
F97F
100
AcDbEntity
100
AcDbCircle
8
KABLO_TAVALARI
10
4.165
20
8.399
30
0
40
0.008
0
CIRCLE
5
FBA3
330
F97F
100
AcDbEntity
100
AcDbCircle
8
KABLO_TAVALARI
10
4.19
20
8.399
30
0
40
0.008
0
CIRCLE
5
FBA4
330
F97F
100
AcDbEntity
100
AcDbCircle
8
KABLO_TAVALARI
10
4.215
20
8.399
30
0
40
0.008
0
CIRCLE
5
FBC7
330
F97F
100
AcDbEntity
100
AcDbCircle
8
KABLO_TAVALARI
10
5.01610100138592
20
8.652973865366215
30
0
40
0.008
0
CIRCLE
5
FBC8
330
F97F
100
AcDbEntity
100
AcDbCircle
8
KABLO_TAVALARI
10
5.0395933169055676
20
8.661524368949356
30
0
40
0.008
0
CIRCLE
5
FBC9
330
F97F
100
AcDbEntity
100
AcDbCircle
8
KABLO_TAVALARI
10
5.063085632425215
20
8.6700748725325
30
0
40
0.008
0
CIRCLE
5
FBCA
330
F97F
100
AcDbEntity
100
AcDbCircle
8
KABLO_TAVALARI
10
5.086577947944862
20
8.67862537611564
30
0
40
0.008
0
LINE
5
FBF5
330
F97F
100
AcDbEntity
100
AcDbLine
8
KABLO_TAVALARI
10
-13.97737258300203
20
0.15414927829866737
30
0
11
-13.995050252531694
21
0.17182694782833102
31
0
0
CIRCLE
5
FBF6
330
F97F
100
AcDbEntity
100
AcDbCircle
8
KABLO_TAVALARI
10
-13.995050252531694
20
0.17182694782833102
30
0
40
0.008
0
LINE
5
FBF7
330
F97F
100
AcDbEntity
100
AcDbLine
8
KABLO_TAVALARI
10
-13.995050252531694
20
0.17182694782833102
30
0
11
-14.035050252531693
21
0.11182694782833102
31
0
0
LINE
5
FBF8
330
F97F
100
AcDbEntity
100
AcDbLine
8
KABLO_TAVALARI
10
-14.035050252531693
20
0.11182694782833102
30
0
11
-14.3889087296526
21
0.10606601717798211
31
0
0
LINE
5
FBF9
330
F97F
100
AcDbEntity
100
AcDbLine
8
KABLO_TAVALARI
10
-14.037476659402888
20
0.0940452018978108
30
0
11
-14.055154328932552
21
0.11172287142747449
31
0
0
CIRCLE
5
FBFA
330
F97F
100
AcDbEntity
100
AcDbCircle
8
KABLO_TAVALARI
10
-14.055154328932552
20
0.11172287142747449
30
0
40
0.008
0
LINE
5
FBFB
330
F97F
100
AcDbEntity
100
AcDbLine
8
KABLO_TAVALARI
10
-14.055154328932552
20
0.11172287142747449
30
0
11
-14.095154328932551
21
0.05172287142747449
31
0
0
LINE
5
FBFC
330
F97F
100
AcDbEntity
100
AcDbLine
8
KABLO_TAVALARI
10
-14.095154328932551
20
0.05172287142747449
30
0
11
-14.3889087296526
21
0.14106601717798212
31
0
0
LINE
5
FBFD
330
F97F
100
AcDbEntity
100
AcDbLine
8
KABLO_TAVALARI
10
-14.097580735803744
20
0.03394112549695426
30
0
11
-14.115258405333408
21
0.05161879502661794
31
0
0
CIRCLE
5
FBFE
330
F97F
100
AcDbEntity
100
AcDbCircle
8
KABLO_TAVALARI
10
-14.115258405333408
20
0.05161879502661794
30
0
40
0.008
0
LINE
5
FBFF
330
F97F
100
AcDbEntity
100
AcDbLine
8
KABLO_TAVALARI
10
-14.115258405333408
20
0.05161879502661794
30
0
11
-14.155258405333408
21
-0.008381204973382059
31
0
0
LINE
5
FC00
330
F97F
100
AcDbEntity
100
AcDbLine
8
KABLO_TAVALARI
10
-14.155258405333408
20
-0.008381204973382059
30
0
11
-14.3889087296526
21
0.17606601717798212
31
0
0
LINE
5
FC01
330
F97F
100
AcDbEntity
100
AcDbLine
8
KABLO_TAVALARI
10
-14.1576848122046
20
-0.026162950903902277
30
0
11
-14.175362481734265
21
-0.008485281374238596
31
0
0
CIRCLE
5
FC02
330
F97F
100
AcDbEntity
100
AcDbCircle
8
KABLO_TAVALARI
10
-14.175362481734265
20
-0.008485281374238596
30
0
40
0.008
0
LINE
5
FC03
330
F97F
100
AcDbEntity
100
AcDbLine
8
KABLO_TAVALARI
10
-14.175362481734265
20
-0.008485281374238596
30
0
11
-14.215362481734264
21
-0.0684852813742386
31
0
0
LINE
5
FC04
330
F97F
100
AcDbEntity
100
AcDbLine
8
KABLO_TAVALARI
10
-14.215362481734264
20
-0.0684852813742386
30
0
11
-14.3889087296526
21
0.21106601717798212
31
0
0
TEXT
5
FC05
330
F97F
100
AcDbEntity
100
AcDbText
8
KABLO_TAVALARI
10
-14.243951839509359
20
-0.010606601717798217
30
0
40
0.03
1
4x 4.3-10 RF PORT (R1, Y1, Y2, P1)
50
0
7
STANDARD
72
2
11
-14.243951839509359
21
-0.010606601717798217
31
0
100
AcDbText
73
2
0
LINE
5
FC3D
330
F97F
100
AcDbEntity
100
AcDbLine
8
KABLO_TAVALARI
10
-3.9773725830020306
20
0.15414927829866737
30
0
11
-3.995050252531694
21
0.17182694782833102
31
0
0
CIRCLE
5
FC3E
330
F97F
100
AcDbEntity
100
AcDbCircle
8
KABLO_TAVALARI
10
-3.995050252531694
20
0.17182694782833102
30
0
40
0.008
0
LINE
5
FC3F
330
F97F
100
AcDbEntity
100
AcDbLine
8
KABLO_TAVALARI
10
-3.995050252531694
20
0.17182694782833102
30
0
11
-4.035050252531694
21
0.11182694782833102
31
0
0
LINE
5
FC40
330
F97F
100
AcDbEntity
100
AcDbLine
8
KABLO_TAVALARI
10
-4.035050252531694
20
0.11182694782833102
30
0
11
-4.388908729652601
21
0.10606601717798211
31
0
0
LINE
5
FC41
330
F97F
100
AcDbEntity
100
AcDbLine
8
KABLO_TAVALARI
10
-4.037476659402887
20
0.0940452018978108
30
0
11
-4.0551543289325505
21
0.11172287142747449
31
0
0
CIRCLE
5
FC42
330
F97F
100
AcDbEntity
100
AcDbCircle
8
KABLO_TAVALARI
10
-4.0551543289325505
20
0.11172287142747449
30
0
40
0.008
0
LINE
5
FC43
330
F97F
100
AcDbEntity
100
AcDbLine
8
KABLO_TAVALARI
10
-4.0551543289325505
20
0.11172287142747449
30
0
11
-4.0951543289325505
21
0.05172287142747449
31
0
0
LINE
5
FC44
330
F97F
100
AcDbEntity
100
AcDbLine
8
KABLO_TAVALARI
10
-4.0951543289325505
20
0.05172287142747449
30
0
11
-4.388908729652601
21
0.14106601717798212
31
0
0
LINE
5
FC45
330
F97F
100
AcDbEntity
100
AcDbLine
8
KABLO_TAVALARI
10
-4.097580735803743
20
0.03394112549695426
30
0
11
-4.115258405333407
21
0.05161879502661794
31
0
0
CIRCLE
5
FC46
330
F97F
100
AcDbEntity
100
AcDbCircle
8
KABLO_TAVALARI
10
-4.115258405333407
20
0.05161879502661794
30
0
40
0.008
0
LINE
5
FC47
330
F97F
100
AcDbEntity
100
AcDbLine
8
KABLO_TAVALARI
10
-4.115258405333407
20
0.05161879502661794
30
0
11
-4.155258405333407
21
-0.008381204973382059
31
0
0
LINE
5
FC48
330
F97F
100
AcDbEntity
100
AcDbLine
8
KABLO_TAVALARI
10
-4.155258405333407
20
-0.008381204973382059
30
0
11
-4.388908729652601
21
0.17606601717798212
31
0
0
LINE
5
FC49
330
F97F
100
AcDbEntity
100
AcDbLine
8
KABLO_TAVALARI
10
-4.1576848122046
20
-0.026162950903902277
30
0
11
-4.175362481734264
21
-0.008485281374238596
31
0
0
CIRCLE
5
FC4A
330
F97F
100
AcDbEntity
100
AcDbCircle
8
KABLO_TAVALARI
10
-4.175362481734264
20
-0.008485281374238596
30
0
40
0.008
0
LINE
5
FC4B
330
F97F
100
AcDbEntity
100
AcDbLine
8
KABLO_TAVALARI
10
-4.175362481734264
20
-0.008485281374238596
30
0
11
-4.215362481734264
21
-0.0684852813742386
31
0
0
LINE
5
FC4C
330
F97F
100
AcDbEntity
100
AcDbLine
8
KABLO_TAVALARI
10
-4.215362481734264
20
-0.0684852813742386
30
0
11
-4.388908729652601
21
0.21106601717798212
31
0
0
TEXT
5
FC4D
330
F97F
100
AcDbEntity
100
AcDbText
8
KABLO_TAVALARI
10
-4.243951839509359
20
-0.010606601717798217
30
0
40
0.03
1
4x 4.3-10 RF PORT (R1, Y1, Y2, P1)
50
0
7
STANDARD
72
2
11
-4.243951839509359
21
-0.010606601717798217
31
0
100
AcDbText
73
2
0
LINE
5
FC84
330
F97F
100
AcDbEntity
100
AcDbLine
8
KABLO_TAVALARI
10
5.522627416997969
20
0.15414927829866737
30
0
11
5.504949747468306
21
0.17182694782833102
31
0
0
CIRCLE
5
FC85
330
F97F
100
AcDbEntity
100
AcDbCircle
8
KABLO_TAVALARI
10
5.504949747468306
20
0.17182694782833102
30
0
40
0.008
0
LINE
5
FC86
330
F97F
100
AcDbEntity
100
AcDbLine
8
KABLO_TAVALARI
10
5.504949747468306
20
0.17182694782833102
30
0
11
5.464949747468306
21
0.11182694782833102
31
0
0
LINE
5
FC87
330
F97F
100
AcDbEntity
100
AcDbLine
8
KABLO_TAVALARI
10
5.464949747468306
20
0.11182694782833102
30
0
11
5.111091270347399
21
0.10606601717798211
31
0
0
LINE
5
FC88
330
F97F
100
AcDbEntity
100
AcDbLine
8
KABLO_TAVALARI
10
5.462523340597113
20
0.0940452018978108
30
0
11
5.4448456710674495
21
0.11172287142747449
31
0
0
CIRCLE
5
FC89
330
F97F
100
AcDbEntity
100
AcDbCircle
8
KABLO_TAVALARI
10
5.4448456710674495
20
0.11172287142747449
30
0
40
0.008
0
LINE
5
FC8A
330
F97F
100
AcDbEntity
100
AcDbLine
8
KABLO_TAVALARI
10
5.4448456710674495
20
0.11172287142747449
30
0
11
5.4048456710674495
21
0.05172287142747449
31
0
0
LINE
5
FC8B
330
F97F
100
AcDbEntity
100
AcDbLine
8
KABLO_TAVALARI
10
5.4048456710674495
20
0.05172287142747449
30
0
11
5.111091270347399
21
0.14106601717798212
31
0
0
LINE
5
FC8C
330
F97F
100
AcDbEntity
100
AcDbLine
8
KABLO_TAVALARI
10
5.402419264196257
20
0.03394112549695426
30
0
11
5.384741594666593
21
0.05161879502661794
31
0
0
CIRCLE
5
FC8D
330
F97F
100
AcDbEntity
100
AcDbCircle
8
KABLO_TAVALARI
10
5.384741594666593
20
0.05161879502661794
30
0
40
0.008
0
LINE
5
FC8E
330
F97F
100
AcDbEntity
100
AcDbLine
8
KABLO_TAVALARI
10
5.384741594666593
20
0.05161879502661794
30
0
11
5.344741594666593
21
-0.008381204973382059
31
0
0
LINE
5
FC8F
330
F97F
100
AcDbEntity
100
AcDbLine
8
KABLO_TAVALARI
10
5.344741594666593
20
-0.008381204973382059
30
0
11
5.111091270347399
21
0.17606601717798212
31
0
0
LINE
5
FC90
330
F97F
100
AcDbEntity
100
AcDbLine
8
KABLO_TAVALARI
10
5.3423151877954
20
-0.026162950903902277
30
0
11
5.324637518265736
21
-0.008485281374238596
31
0
0
CIRCLE
5
FC91
330
F97F
100
AcDbEntity
100
AcDbCircle
8
KABLO_TAVALARI
10
5.324637518265736
20
-0.008485281374238596
30
0
40
0.008
0
LINE
5
FC92
330
F97F
100
AcDbEntity
100
AcDbLine
8
KABLO_TAVALARI
10
5.324637518265736
20
-0.008485281374238596
30
0
11
5.284637518265736
21
-0.0684852813742386
31
0
0
LINE
5
FC93
330
F97F
100
AcDbEntity
100
AcDbLine
8
KABLO_TAVALARI
10
5.284637518265736
20
-0.0684852813742386
30
0
11
5.111091270347399
21
0.21106601717798212
31
0
0
TEXT
5
FC94
330
F97F
100
AcDbEntity
100
AcDbText
8
KABLO_TAVALARI
10
5.256048160490641
20
-0.010606601717798217
30
0
40
0.03
1
4x 4.3-10 RF PORT (R1, Y1, Y2, P1)
50
0
7
STANDARD
72
2
11
5.256048160490641
21
-0.010606601717798217
31
0
100
AcDbText
73
2
0
LINE
5
F9B3
330
F97F
100
AcDbEntity
100
AcDbLine
8
OLCULER
10
-18.35
20
16.57
30
0
11
-18.35
21
16.41
31
0
0
LINE
5
F9B4
330
F97F
100
AcDbEntity
100
AcDbLine
8
OLCULER
10
-17.65
20
16.57
30
0
11
-17.65
21
16.41
31
0
0
LINE
5
F9B5
330
F97F
100
AcDbEntity
100
AcDbLine
8
OLCULER
10
-18.35
20
16.45
30
0
11
-17.65
21
16.45
31
0
0
LINE
5
F9B6
330
F97F
100
AcDbEntity
100
AcDbLine
8
OLCULER
10
-18.378
20
16.422
30
0
11
-18.322000000000003
21
16.477999999999998
31
0
0
LINE
5
F9B7
330
F97F
100
AcDbEntity
100
AcDbLine
8
OLCULER
10
-17.677999999999997
20
16.422
30
0
11
-17.622
21
16.477999999999998
31
0
0
TEXT
5
F9B8
330
F97F
100
AcDbEntity
100
AcDbText
8
OLCULER
10
-18
20
16.366
30
0
40
0.06
1
700 mm (GENISLIK)
50
0
7
STANDARD
72
1
11
-18
21
16.366
31
0
100
AcDbText
73
2
0
LINE
5
F9B9
330
F97F
100
AcDbEntity
100
AcDbLine
8
OLCULER
10
-17.59
20
16.65
30
0
11
-17.43
21
16.65
31
0
0
LINE
5
F9BA
330
F97F
100
AcDbEntity
100
AcDbLine
8
OLCULER
10
-17.59
20
17.35
30
0
11
-17.43
21
17.35
31
0
0
LINE
5
F9BB
330
F97F
100
AcDbEntity
100
AcDbLine
8
OLCULER
10
-17.47
20
16.65
30
0
11
-17.47
21
17.35
31
0
0
LINE
5
F9BC
330
F97F
100
AcDbEntity
100
AcDbLine
8
OLCULER
10
-17.497999999999998
20
16.622
30
0
11
-17.442
21
16.677999999999997
31
0
0
LINE
5
F9BD
330
F97F
100
AcDbEntity
100
AcDbLine
8
OLCULER
10
-17.497999999999998
20
17.322000000000003
30
0
11
-17.442
21
17.378
31
0
0
TEXT
5
F9BE
330
F97F
100
AcDbEntity
100
AcDbText
8
OLCULER
10
-17.427999999999997
20
17
30
0
40
0.06
1
700 mm (YUKSEKLIK)
50
90
7
STANDARD
72
1
11
-17.427999999999997
21
17
31
0
100
AcDbText
73
2
0
LINE
5
F9F9
330
F97F
100
AcDbEntity
100
AcDbLine
8
OLCULER
10
-12
20
17
30
0
11
-11.15
21
17
31
0
0
LINE
5
F9FA
330
F97F
100
AcDbEntity
100
AcDbLine
8
OLCULER
10
-12
20
17
30
0
11
-11.398959235991434
21
16.398959235991434
31
0
0
LINE
5
F9FB
330
F97F
100
AcDbEntity
100
AcDbLine
8
OLCULER
10
-11.398959235991434
20
16.398959235991434
30
0
11
-11.448959235991435
21
16.413959235991435
31
0
0
LINE
5
F9FC
330
F97F
100
AcDbEntity
100
AcDbLine
8
OLCULER
10
-11.398959235991434
20
16.398959235991434
30
0
11
-11.413959235991435
21
16.448959235991435
31
0
0
TEXT
5
F9FD
330
F97F
100
AcDbEntity
100
AcDbText
8
OLCULER
10
-11.58
20
16.85
30
0
40
0.04
1
45° DOWNTILT (YERE VE SAHAYA EGIM)
50
0
7
STANDARD
72
0
11
-11.58
21
16.85
31
0
100
AcDbText
73
2
0
LINE
5
F9FE
330
F97F
100
AcDbEntity
100
AcDbLine
8
OLCULER
10
-12.316076731190385
20
16.812616702985565
30
0
11
-12.471640223051425
21
16.968180194846607
31
0
0
LINE
5
F9FF
330
F97F
100
AcDbEntity
100
AcDbLine
8
OLCULER
10
-11.812616702985565
20
17.316076731190385
30
0
11
-11.968180194846605
21
17.471640223051427
31
0
0
LINE
5
FA00
330
F97F
100
AcDbEntity
100
AcDbLine
8
OLCULER
10
-12.471640223051425
20
16.968180194846607
30
0
11
-11.968180194846605
21
17.471640223051427
31
0
0
TEXT
5
FA01
330
F97F
100
AcDbEntity
100
AcDbText
8
OLCULER
10
-12.254910208949015
20
17.254910208949017
30
0
40
0.04
1
700 mm (BOY)
50
45
7
STANDARD
72
1
11
-12.254910208949015
21
17.254910208949017
31
0
100
AcDbText
73
2
0
LINE
5
FA02
330
F97F
100
AcDbEntity
100
AcDbLine
8
OLCULER
10
-11.827465945390482
20
17.292742207411234
30
0
11
-11.728470996024365
21
17.39173715677735
31
0
0
LINE
5
FA03
330
F97F
100
AcDbEntity
100
AcDbLine
8
OLCULER
10
-11.703015151901651
20
17.176776695296635
30
0
11
-11.604020202535533
21
17.27577164466275
31
0
0
LINE
5
FA04
330
F97F
100
AcDbEntity
100
AcDbLine
8
OLCULER
10
-11.728470996024365
20
17.39173715677735
30
0
11
-11.604020202535533
21
17.27577164466275
31
0
0
TEXT
5
FA05
330
F97F
100
AcDbEntity
100
AcDbText
8
OLCULER
10
-11.666245599279948
20
17.36375440072005
30
0
40
0.036000000000000004
1
170 mm (GOVDE)
50
-45
7
STANDARD
72
1
11
-11.666245599279948
21
17.36375440072005
31
0
100
AcDbText
73
2
0
TEXT
5
FA06
330
F97F
100
AcDbEntity
100
AcDbText
8
OLCULER
10
-12.300449671326165
20
17.180449671326162
30
0
40
0.036000000000000004
1
463 mm (TOPLAM MONTAJ DERINLIGI)
50
0
7
STANDARD
72
1
11
-12.300449671326165
21
17.180449671326162
31
0
100
AcDbText
73
2
0
LINE
5
FA1C
330
F97F
100
AcDbEntity
100
AcDbLine
8
OLCULER
10
-6
20
17.085
30
0
11
-6
21
18.035
31
0
0
LINE
5
FA1D
330
F97F
100
AcDbEntity
100
AcDbLine
8
OLCULER
10
-6
20
17.085
30
0
11
-6.245878092847395
21
18.002629534974616
31
0
0
LINE
5
FA1E
330
F97F
100
AcDbEntity
100
AcDbLine
8
OLCULER
10
-6
20
17.085
30
0
11
-5.754121907152605
21
18.002629534974616
31
0
0
LINE
5
FA1F
330
F97F
100
AcDbEntity
100
AcDbLine
8
OLCULER
10
-6.245878092847395
20
18.002629534974616
30
0
11
-6
21
18.035
31
0
0
LINE
5
FA20
330
F97F
100
AcDbEntity
100
AcDbLine
8
OLCULER
10
-6
20
18.035
30
0
11
-5.754121907152605
21
18.002629534974616
31
0
0
TEXT
5
FA21
330
F97F
100
AcDbEntity
100
AcDbText
8
OLCULER
10
-6
20
18.06
30
0
40
0.032
1
30° SPOT BEAM (HPBW)
50
0
7
STANDARD
72
1
11
-6
21
18.06
31
0
100
AcDbText
73
2
0
LINE
5
FA22
330
F97F
100
AcDbEntity
100
AcDbLine
8
OLCULER
10
-6.35
20
17.145
30
0
11
-6.35
21
17.285
31
0
0
LINE
5
FA23
330
F97F
100
AcDbEntity
100
AcDbLine
8
OLCULER
10
-5.65
20
17.145
30
0
11
-5.65
21
17.285
31
0
0
LINE
5
FA24
330
F97F
100
AcDbEntity
100
AcDbLine
8
OLCULER
10
-6.35
20
17.245
30
0
11
-5.65
21
17.245
31
0
0
LINE
5
FA25
330
F97F
100
AcDbEntity
100
AcDbLine
8
OLCULER
10
-6.377999999999999
20
17.217000000000002
30
0
11
-6.322
21
17.273
31
0
0
LINE
5
FA26
330
F97F
100
AcDbEntity
100
AcDbLine
8
OLCULER
10
-5.678
20
17.217000000000002
30
0
11
-5.622000000000001
21
17.273
31
0
0
TEXT
5
FA27
330
F97F
100
AcDbEntity
100
AcDbText
8
OLCULER
10
-6
20
17.269000000000002
30
0
40
0.06
1
700 mm (GENISLIK)
50
0
7
STANDARD
72
1
11
-6
21
17.269000000000002
31
0
100
AcDbText
73
2
0
LINE
5
FA28
330
F97F
100
AcDbEntity
100
AcDbLine
8
OLCULER
10
-6.409999999999999
20
16.915
30
0
11
-6.409999999999999
21
16.755
31
0
0
LINE
5
FA29
330
F97F
100
AcDbEntity
100
AcDbLine
8
OLCULER
10
-6.06
20
17.103
30
0
11
-6.06
21
16.755
31
0
0
LINE
5
FA2A
330
F97F
100
AcDbEntity
100
AcDbLine
8
OLCULER
10
-6.409999999999999
20
16.794999999999998
30
0
11
-6.06
21
16.794999999999998
31
0
0
LINE
5
FA2B
330
F97F
100
AcDbEntity
100
AcDbLine
8
OLCULER
10
-6.437999999999999
20
16.767
30
0
11
-6.382
21
16.822999999999997
31
0
0
LINE
5
FA2C
330
F97F
100
AcDbEntity
100
AcDbLine
8
OLCULER
10
-6.087999999999999
20
16.767
30
0
11
-6.032
21
16.822999999999997
31
0
0
TEXT
5
FA2D
330
F97F
100
AcDbEntity
100
AcDbText
8
OLCULER
10
-6.234999999999999
20
16.711
30
0
40
0.06
1
463 mm (TOPLAM DERINLIK)
50
0
7
STANDARD
72
1
11
-6.234999999999999
21
16.711
31
0
100
AcDbText
73
2
0
LINE
5
FA4C
330
F97F
100
AcDbEntity
100
AcDbLine
8
OLCULER
10
7.65
20
16.57
30
0
11
7.65
21
16.41
31
0
0
LINE
5
FA4D
330
F97F
100
AcDbEntity
100
AcDbLine
8
OLCULER
10
8.35
20
16.57
30
0
11
8.35
21
16.41
31
0
0
LINE
5
FA4E
330
F97F
100
AcDbEntity
100
AcDbLine
8
OLCULER
10
7.65
20
16.45
30
0
11
8.35
21
16.45
31
0
0
LINE
5
FA4F
330
F97F
100
AcDbEntity
100
AcDbLine
8
OLCULER
10
7.622000000000001
20
16.422
30
0
11
7.678
21
16.477999999999998
31
0
0
LINE
5
FA50
330
F97F
100
AcDbEntity
100
AcDbLine
8
OLCULER
10
8.322
20
16.422
30
0
11
8.378
21
16.477999999999998
31
0
0
TEXT
5
FA51
330
F97F
100
AcDbEntity
100
AcDbText
8
OLCULER
10
8
20
16.366
30
0
40
0.06
1
700 mm (GENISLIK)
50
0
7
STANDARD
72
1
11
8
21
16.366
31
0
100
AcDbText
73
2
0
LINE
5
FA52
330
F97F
100
AcDbEntity
100
AcDbLine
8
OLCULER
10
8.41
20
16.65
30
0
11
8.569999999999999
21
16.65
31
0
0
LINE
5
FA53
330
F97F
100
AcDbEntity
100
AcDbLine
8
OLCULER
10
8.41
20
17.35
30
0
11
8.569999999999999
21
17.35
31
0
0
LINE
5
FA54
330
F97F
100
AcDbEntity
100
AcDbLine
8
OLCULER
10
8.53
20
16.65
30
0
11
8.53
21
17.35
31
0
0
LINE
5
FA55
330
F97F
100
AcDbEntity
100
AcDbLine
8
OLCULER
10
8.501999999999999
20
16.622
30
0
11
8.558
21
16.677999999999997
31
0
0
LINE
5
FA56
330
F97F
100
AcDbEntity
100
AcDbLine
8
OLCULER
10
8.501999999999999
20
17.322000000000003
30
0
11
8.558
21
17.378
31
0
0
TEXT
5
FA57
330
F97F
100
AcDbEntity
100
AcDbText
8
OLCULER
10
8.572
20
17
30
0
40
0.06
1
700 mm (YUKSEKLIK)
50
90
7
STANDARD
72
1
11
8.572
21
17
31
0
100
AcDbText
73
2
0
LINE
5
FA75
330
F97F
100
AcDbEntity
100
AcDbLine
8
OLCULER
10
8.65
20
16.57
30
0
11
8.65
21
16.41
31
0
0
LINE
5
FA76
330
F97F
100
AcDbEntity
100
AcDbLine
8
OLCULER
10
9.35
20
16.57
30
0
11
9.35
21
16.41
31
0
0
LINE
5
FA77
330
F97F
100
AcDbEntity
100
AcDbLine
8
OLCULER
10
8.65
20
16.45
30
0
11
9.35
21
16.45
31
0
0
LINE
5
FA78
330
F97F
100
AcDbEntity
100
AcDbLine
8
OLCULER
10
8.622
20
16.422
30
0
11
8.678
21
16.477999999999998
31
0
0
LINE
5
FA79
330
F97F
100
AcDbEntity
100
AcDbLine
8
OLCULER
10
9.322
20
16.422
30
0
11
9.378
21
16.477999999999998
31
0
0
TEXT
5
FA7A
330
F97F
100
AcDbEntity
100
AcDbText
8
OLCULER
10
9
20
16.366
30
0
40
0.06
1
700 mm (GENISLIK)
50
0
7
STANDARD
72
1
11
9
21
16.366
31
0
100
AcDbText
73
2
0
LINE
5
FA7B
330
F97F
100
AcDbEntity
100
AcDbLine
8
OLCULER
10
9.41
20
16.65
30
0
11
9.569999999999999
21
16.65
31
0
0
LINE
5
FA7C
330
F97F
100
AcDbEntity
100
AcDbLine
8
OLCULER
10
9.41
20
17.35
30
0
11
9.569999999999999
21
17.35
31
0
0
LINE
5
FA7D
330
F97F
100
AcDbEntity
100
AcDbLine
8
OLCULER
10
9.53
20
16.65
30
0
11
9.53
21
17.35
31
0
0
LINE
5
FA7E
330
F97F
100
AcDbEntity
100
AcDbLine
8
OLCULER
10
9.501999999999999
20
16.622
30
0
11
9.558
21
16.677999999999997
31
0
0
LINE
5
FA7F
330
F97F
100
AcDbEntity
100
AcDbLine
8
OLCULER
10
9.501999999999999
20
17.322000000000003
30
0
11
9.558
21
17.378
31
0
0
TEXT
5
FA80
330
F97F
100
AcDbEntity
100
AcDbText
8
OLCULER
10
9.572
20
17
30
0
40
0.06
1
700 mm (YUKSEKLIK)
50
90
7
STANDARD
72
1
11
9.572
21
17
31
0
100
AcDbText
73
2
0
LINE
5
FA87
330
F97F
100
AcDbEntity
100
AcDbLine
8
OLCULER
10
8
20
16.4
30
0
11
8
21
16.16
31
0
0
LINE
5
FA88
330
F97F
100
AcDbEntity
100
AcDbLine
8
OLCULER
10
9
20
16.4
30
0
11
9
21
16.16
31
0
0
LINE
5
FA89
330
F97F
100
AcDbEntity
100
AcDbLine
8
OLCULER
10
8
20
16.2
30
0
11
9
21
16.2
31
0
0
LINE
5
FA8A
330
F97F
100
AcDbEntity
100
AcDbLine
8
OLCULER
10
7.972
20
16.172
30
0
11
8.028
21
16.227999999999998
31
0
0
LINE
5
FA8B
330
F97F
100
AcDbEntity
100
AcDbLine
8
OLCULER
10
8.972
20
16.172
30
0
11
9.028
21
16.227999999999998
31
0
0
TEXT
5
FA8C
330
F97F
100
AcDbEntity
100
AcDbText
8
OLCULER
10
8.5
20
16.116
30
0
40
0.06
1
1000 mm (ANTEN AKS ARALIGI)
50
0
7
STANDARD
72
1
11
8.5
21
16.116
31
0
100
AcDbText
73
2
0
LINE
5
FA8D
330
F97F
100
AcDbEntity
100
AcDbLine
8
OLCULER
10
8.35
20
17.7
30
0
11
8.35
21
17.919999999999998
31
0
0
LINE
5
FA8E
330
F97F
100
AcDbEntity
100
AcDbLine
8
OLCULER
10
8.65
20
17.7
30
0
11
8.65
21
17.919999999999998
31
0
0
LINE
5
FA8F
330
F97F
100
AcDbEntity
100
AcDbLine
8
OLCULER
10
8.35
20
17.88
30
0
11
8.65
21
17.88
31
0
0
LINE
5
FA90
330
F97F
100
AcDbEntity
100
AcDbLine
8
OLCULER
10
8.322
20
17.852
30
0
11
8.378
21
17.907999999999998
31
0
0
LINE
5
FA91
330
F97F
100
AcDbEntity
100
AcDbLine
8
OLCULER
10
8.622
20
17.852
30
0
11
8.678
21
17.907999999999998
31
0
0
TEXT
5
FA92
330
F97F
100
AcDbEntity
100
AcDbText
8
OLCULER
10
8.5
20
17.904
30
0
40
0.06
1
300 mm (NET RF ACIKLIGI)
50
0
7
STANDARD
72
1
11
8.5
21
17.904
31
0
100
AcDbText
73
2
0
LINE
5
FA93
330
F97F
100
AcDbEntity
100
AcDbLine
8
OLCULER
10
7.5
20
17.7
30
0
11
7.5
21
17.939999999999998
31
0
0
LINE
5
FA94
330
F97F
100
AcDbEntity
100
AcDbLine
8
OLCULER
10
9.5
20
17.7
30
0
11
9.5
21
17.939999999999998
31
0
0
LINE
5
FA95
330
F97F
100
AcDbEntity
100
AcDbLine
8
OLCULER
10
7.5
20
17.9
30
0
11
9.5
21
17.9
31
0
0
LINE
5
FA96
330
F97F
100
AcDbEntity
100
AcDbLine
8
OLCULER
10
7.472
20
17.872
30
0
11
7.528
21
17.927999999999997
31
0
0
LINE
5
FA97
330
F97F
100
AcDbEntity
100
AcDbLine
8
OLCULER
10
9.472
20
17.872
30
0
11
9.528
21
17.927999999999997
31
0
0
TEXT
5
FA98
330
F97F
100
AcDbEntity
100
AcDbText
8
OLCULER
10
8.5
20
17.924
30
0
40
0.06
1
2000 mm (TRAVERS TOPLAM BOYU)
50
0
7
STANDARD
72
1
11
8.5
21
17.924
31
0
100
AcDbText
73
2
0
LINE
5
FAD1
330
F97F
100
AcDbEntity
100
AcDbLine
8
OLCULER
10
16
20
17
30
0
11
16.85
21
17
31
0
0
LINE
5
FAD2
330
F97F
100
AcDbEntity
100
AcDbLine
8
OLCULER
10
16
20
17
30
0
11
16.601040764008566
21
16.398959235991434
31
0
0
LINE
5
FAD3
330
F97F
100
AcDbEntity
100
AcDbLine
8
OLCULER
10
16.601040764008566
20
16.398959235991434
30
0
11
16.551040764008565
21
16.413959235991435
31
0
0
LINE
5
FAD4
330
F97F
100
AcDbEntity
100
AcDbLine
8
OLCULER
10
16.601040764008566
20
16.398959235991434
30
0
11
16.586040764008565
21
16.448959235991435
31
0
0
TEXT
5
FAD5
330
F97F
100
AcDbEntity
100
AcDbText
8
OLCULER
10
16.42
20
16.85
30
0
40
0.04
1
45° DOWNTILT (YERE VE SAHAYA EGIM)
50
0
7
STANDARD
72
0
11
16.42
21
16.85
31
0
100
AcDbText
73
2
0
LINE
5
FAD6
330
F97F
100
AcDbEntity
100
AcDbLine
8
OLCULER
10
15.683923268809615
20
16.812616702985565
30
0
11
15.528359776948575
21
16.968180194846607
31
0
0
LINE
5
FAD7
330
F97F
100
AcDbEntity
100
AcDbLine
8
OLCULER
10
16.187383297014435
20
17.316076731190385
30
0
11
16.031819805153393
21
17.471640223051427
31
0
0
LINE
5
FAD8
330
F97F
100
AcDbEntity
100
AcDbLine
8
OLCULER
10
15.528359776948575
20
16.968180194846607
30
0
11
16.031819805153393
21
17.471640223051427
31
0
0
TEXT
5
FAD9
330
F97F
100
AcDbEntity
100
AcDbText
8
OLCULER
10
15.745089791050985
20
17.254910208949017
30
0
40
0.04
1
700 mm (BOY)
50
45
7
STANDARD
72
1
11
15.745089791050985
21
17.254910208949017
31
0
100
AcDbText
73
2
0
LINE
5
FADA
330
F97F
100
AcDbEntity
100
AcDbLine
8
OLCULER
10
16.172534054609518
20
17.292742207411234
30
0
11
16.271529003975633
21
17.39173715677735
31
0
0
LINE
5
FADB
330
F97F
100
AcDbEntity
100
AcDbLine
8
OLCULER
10
16.29698484809835
20
17.176776695296635
30
0
11
16.395979797464467
21
17.27577164466275
31
0
0
LINE
5
FADC
330
F97F
100
AcDbEntity
100
AcDbLine
8
OLCULER
10
16.271529003975633
20
17.39173715677735
30
0
11
16.395979797464467
21
17.27577164466275
31
0
0
TEXT
5
FADD
330
F97F
100
AcDbEntity
100
AcDbText
8
OLCULER
10
16.33375440072005
20
17.36375440072005
30
0
40
0.036000000000000004
1
170 mm (GOVDE)
50
-45
7
STANDARD
72
1
11
16.33375440072005
21
17.36375440072005
31
0
100
AcDbText
73
2
0
TEXT
5
FADE
330
F97F
100
AcDbEntity
100
AcDbText
8
OLCULER
10
15.699550328673835
20
17.180449671326162
30
0
40
0.036000000000000004
1
463 mm (TOPLAM MONTAJ DERINLIGI)
50
0
7
STANDARD
72
1
11
15.699550328673835
21
17.180449671326162
31
0
100
AcDbText
73
2
0
LINE
5
FAFE
330
F97F
100
AcDbEntity
100
AcDbLine
8
OLCULER
10
-8.25
20
8.07
30
0
11
-8.25
21
7.91
31
0
0
LINE
5
FAFF
330
F97F
100
AcDbEntity
100
AcDbLine
8
OLCULER
10
-7.550000000000001
20
8.07
30
0
11
-7.550000000000001
21
7.91
31
0
0
LINE
5
FB00
330
F97F
100
AcDbEntity
100
AcDbLine
8
OLCULER
10
-8.25
20
7.95
30
0
11
-7.550000000000001
21
7.95
31
0
0
LINE
5
FB01
330
F97F
100
AcDbEntity
100
AcDbLine
8
OLCULER
10
-8.278
20
7.922000000000001
30
0
11
-8.222
21
7.978
31
0
0
LINE
5
FB02
330
F97F
100
AcDbEntity
100
AcDbLine
8
OLCULER
10
-7.578
20
7.922000000000001
30
0
11
-7.522000000000001
21
7.978
31
0
0
TEXT
5
FB03
330
F97F
100
AcDbEntity
100
AcDbText
8
OLCULER
10
-7.9
20
7.8660000000000005
30
0
40
0.06
1
700 mm (GENISLIK)
50
0
7
STANDARD
72
1
11
-7.9
21
7.8660000000000005
31
0
100
AcDbText
73
2
0
LINE
5
FB04
330
F97F
100
AcDbEntity
100
AcDbLine
8
OLCULER
10
-7.490000000000001
20
8.15
30
0
11
-7.330000000000001
21
8.15
31
0
0
LINE
5
FB05
330
F97F
100
AcDbEntity
100
AcDbLine
8
OLCULER
10
-7.490000000000001
20
8.85
30
0
11
-7.330000000000001
21
8.85
31
0
0
LINE
5
FB06
330
F97F
100
AcDbEntity
100
AcDbLine
8
OLCULER
10
-7.370000000000001
20
8.15
30
0
11
-7.370000000000001
21
8.85
31
0
0
LINE
5
FB07
330
F97F
100
AcDbEntity
100
AcDbLine
8
OLCULER
10
-7.398000000000001
20
8.122
30
0
11
-7.342000000000001
21
8.178
31
0
0
LINE
5
FB08
330
F97F
100
AcDbEntity
100
AcDbLine
8
OLCULER
10
-7.398000000000001
20
8.822
30
0
11
-7.342000000000001
21
8.878
31
0
0
TEXT
5
FB09
330
F97F
100
AcDbEntity
100
AcDbText
8
OLCULER
10
-7.328000000000001
20
8.5
30
0
40
0.06
1
700 mm (YUKSEKLIK)
50
90
7
STANDARD
72
1
11
-7.328000000000001
21
8.5
31
0
100
AcDbText
73
2
0
LINE
5
FB27
330
F97F
100
AcDbEntity
100
AcDbLine
8
OLCULER
10
-7.35
20
8.07
30
0
11
-7.35
21
7.91
31
0
0
LINE
5
FB28
330
F97F
100
AcDbEntity
100
AcDbLine
8
OLCULER
10
-6.65
20
8.07
30
0
11
-6.65
21
7.91
31
0
0
LINE
5
FB29
330
F97F
100
AcDbEntity
100
AcDbLine
8
OLCULER
10
-7.35
20
7.95
30
0
11
-6.65
21
7.95
31
0
0
LINE
5
FB2A
330
F97F
100
AcDbEntity
100
AcDbLine
8
OLCULER
10
-7.377999999999999
20
7.922000000000001
30
0
11
-7.322
21
7.978
31
0
0
LINE
5
FB2B
330
F97F
100
AcDbEntity
100
AcDbLine
8
OLCULER
10
-6.678
20
7.922000000000001
30
0
11
-6.622000000000001
21
7.978
31
0
0
TEXT
5
FB2C
330
F97F
100
AcDbEntity
100
AcDbText
8
OLCULER
10
-7
20
7.8660000000000005
30
0
40
0.06
1
700 mm (GENISLIK)
50
0
7
STANDARD
72
1
11
-7
21
7.8660000000000005
31
0
100
AcDbText
73
2
0
LINE
5
FB2D
330
F97F
100
AcDbEntity
100
AcDbLine
8
OLCULER
10
-6.590000000000001
20
8.15
30
0
11
-6.430000000000001
21
8.15
31
0
0
LINE
5
FB2E
330
F97F
100
AcDbEntity
100
AcDbLine
8
OLCULER
10
-6.590000000000001
20
8.85
30
0
11
-6.430000000000001
21
8.85
31
0
0
LINE
5
FB2F
330
F97F
100
AcDbEntity
100
AcDbLine
8
OLCULER
10
-6.470000000000001
20
8.15
30
0
11
-6.470000000000001
21
8.85
31
0
0
LINE
5
FB30
330
F97F
100
AcDbEntity
100
AcDbLine
8
OLCULER
10
-6.498
20
8.122
30
0
11
-6.442000000000001
21
8.178
31
0
0
LINE
5
FB31
330
F97F
100
AcDbEntity
100
AcDbLine
8
OLCULER
10
-6.498
20
8.822
30
0
11
-6.442000000000001
21
8.878
31
0
0
TEXT
5
FB32
330
F97F
100
AcDbEntity
100
AcDbText
8
OLCULER
10
-6.428000000000001
20
8.5
30
0
40
0.06
1
700 mm (YUKSEKLIK)
50
90
7
STANDARD
72
1
11
-6.428000000000001
21
8.5
31
0
100
AcDbText
73
2
0
LINE
5
FB50
330
F97F
100
AcDbEntity
100
AcDbLine
8
OLCULER
10
-6.449999999999999
20
8.07
30
0
11
-6.449999999999999
21
7.91
31
0
0
LINE
5
FB51
330
F97F
100
AcDbEntity
100
AcDbLine
8
OLCULER
10
-5.75
20
8.07
30
0
11
-5.75
21
7.91
31
0
0
LINE
5
FB52
330
F97F
100
AcDbEntity
100
AcDbLine
8
OLCULER
10
-6.449999999999999
20
7.95
30
0
11
-5.75
21
7.95
31
0
0
LINE
5
FB53
330
F97F
100
AcDbEntity
100
AcDbLine
8
OLCULER
10
-6.477999999999999
20
7.922000000000001
30
0
11
-6.422
21
7.978
31
0
0
LINE
5
FB54
330
F97F
100
AcDbEntity
100
AcDbLine
8
OLCULER
10
-5.778
20
7.922000000000001
30
0
11
-5.722
21
7.978
31
0
0
TEXT
5
FB55
330
F97F
100
AcDbEntity
100
AcDbText
8
OLCULER
10
-6.1
20
7.8660000000000005
30
0
40
0.06
1
700 mm (GENISLIK)
50
0
7
STANDARD
72
1
11
-6.1
21
7.8660000000000005
31
0
100
AcDbText
73
2
0
LINE
5
FB56
330
F97F
100
AcDbEntity
100
AcDbLine
8
OLCULER
10
-5.69
20
8.15
30
0
11
-5.53
21
8.15
31
0
0
LINE
5
FB57
330
F97F
100
AcDbEntity
100
AcDbLine
8
OLCULER
10
-5.69
20
8.85
30
0
11
-5.53
21
8.85
31
0
0
LINE
5
FB58
330
F97F
100
AcDbEntity
100
AcDbLine
8
OLCULER
10
-5.57
20
8.15
30
0
11
-5.57
21
8.85
31
0
0
LINE
5
FB59
330
F97F
100
AcDbEntity
100
AcDbLine
8
OLCULER
10
-5.598
20
8.122
30
0
11
-5.542000000000001
21
8.178
31
0
0
LINE
5
FB5A
330
F97F
100
AcDbEntity
100
AcDbLine
8
OLCULER
10
-5.598
20
8.822
30
0
11
-5.542000000000001
21
8.878
31
0
0
TEXT
5
FB5B
330
F97F
100
AcDbEntity
100
AcDbText
8
OLCULER
10
-5.5280000000000005
20
8.5
30
0
40
0.06
1
700 mm (YUKSEKLIK)
50
90
7
STANDARD
72
1
11
-5.5280000000000005
21
8.5
31
0
100
AcDbText
73
2
0
LINE
5
FB62
330
F97F
100
AcDbEntity
100
AcDbLine
8
OLCULER
10
-7.9
20
7.9
30
0
11
-7.9
21
7.66
31
0
0
LINE
5
FB63
330
F97F
100
AcDbEntity
100
AcDbLine
8
OLCULER
10
-7
20
7.9
30
0
11
-7
21
7.66
31
0
0
LINE
5
FB64
330
F97F
100
AcDbEntity
100
AcDbLine
8
OLCULER
10
-7.9
20
7.7
30
0
11
-7
21
7.7
31
0
0
LINE
5
FB65
330
F97F
100
AcDbEntity
100
AcDbLine
8
OLCULER
10
-7.928
20
7.672000000000001
30
0
11
-7.872000000000001
21
7.728
31
0
0
LINE
5
FB66
330
F97F
100
AcDbEntity
100
AcDbLine
8
OLCULER
10
-7.028
20
7.672000000000001
30
0
11
-6.972
21
7.728
31
0
0
TEXT
5
FB67
330
F97F
100
AcDbEntity
100
AcDbText
8
OLCULER
10
-7.45
20
7.6160000000000005
30
0
40
0.06
1
900 mm
50
0
7
STANDARD
72
1
11
-7.45
21
7.6160000000000005
31
0
100
AcDbText
73
2
0
LINE
5
FB68
330
F97F
100
AcDbEntity
100
AcDbLine
8
OLCULER
10
-7
20
7.9
30
0
11
-7
21
7.66
31
0
0
LINE
5
FB69
330
F97F
100
AcDbEntity
100
AcDbLine
8
OLCULER
10
-6.1
20
7.9
30
0
11
-6.1
21
7.66
31
0
0
LINE
5
FB6A
330
F97F
100
AcDbEntity
100
AcDbLine
8
OLCULER
10
-7
20
7.7
30
0
11
-6.1
21
7.7
31
0
0
LINE
5
FB6B
330
F97F
100
AcDbEntity
100
AcDbLine
8
OLCULER
10
-7.028
20
7.672000000000001
30
0
11
-6.972
21
7.728
31
0
0
LINE
5
FB6C
330
F97F
100
AcDbEntity
100
AcDbLine
8
OLCULER
10
-6.127999999999999
20
7.672000000000001
30
0
11
-6.072
21
7.728
31
0
0
TEXT
5
FB6D
330
F97F
100
AcDbEntity
100
AcDbText
8
OLCULER
10
-6.55
20
7.6160000000000005
30
0
40
0.06
1
900 mm
50
0
7
STANDARD
72
1
11
-6.55
21
7.6160000000000005
31
0
100
AcDbText
73
2
0
LINE
5
FB6E
330
F97F
100
AcDbEntity
100
AcDbLine
8
OLCULER
10
-7.9
20
7.9
30
0
11
-7.9
21
7.41
31
0
0
LINE
5
FB6F
330
F97F
100
AcDbEntity
100
AcDbLine
8
OLCULER
10
-6.1
20
7.9
30
0
11
-6.1
21
7.41
31
0
0
LINE
5
FB70
330
F97F
100
AcDbEntity
100
AcDbLine
8
OLCULER
10
-7.9
20
7.45
30
0
11
-6.1
21
7.45
31
0
0
LINE
5
FB71
330
F97F
100
AcDbEntity
100
AcDbLine
8
OLCULER
10
-7.928
20
7.422000000000001
30
0
11
-7.872000000000001
21
7.478
31
0
0
LINE
5
FB72
330
F97F
100
AcDbEntity
100
AcDbLine
8
OLCULER
10
-6.127999999999999
20
7.422000000000001
30
0
11
-6.072
21
7.478
31
0
0
TEXT
5
FB73
330
F97F
100
AcDbEntity
100
AcDbText
8
OLCULER
10
-7
20
7.3660000000000005
30
0
40
0.06
1
1800 mm (TOPLAM AKS ACIKLIGI)
50
0
7
STANDARD
72
1
11
-7
21
7.3660000000000005
31
0
100
AcDbText
73
2
0
LINE
5
FB87
330
F97F
100
AcDbEntity
100
AcDbLine
8
OLCULER
10
3.1790717121826817
20
8.779873872766801
30
0
11
3.503990848342067
21
9.672581862513415
31
0
0
LINE
5
FB88
330
F97F
100
AcDbEntity
100
AcDbLine
8
OLCULER
10
3.1790717121826817
20
8.779873872766801
30
0
11
3.261869667792957
21
9.72625883595396
31
0
0
LINE
5
FB89
330
F97F
100
AcDbEntity
100
AcDbLine
8
OLCULER
10
3.1790717121826817
20
8.779873872766801
30
0
11
3.7239693267161753
21
9.558068314841343
31
0
0
LINE
5
FB8A
330
F97F
100
AcDbEntity
100
AcDbLine
8
OLCULER
10
3.261869667792957
20
9.72625883595396
30
0
11
3.503990848342067
21
9.672581862513415
31
0
0
LINE
5
FB8B
330
F97F
100
AcDbEntity
100
AcDbLine
8
OLCULER
10
3.503990848342067
20
9.672581862513415
30
0
11
3.7239693267161753
21
9.558068314841343
31
0
0
TEXT
5
FB8C
330
F97F
100
AcDbEntity
100
AcDbText
8
OLCULER
10
3.503990848342067
20
9.697581862513415
30
0
40
0.032
1
30° SPOT BEAM (HPBW)
50
0
7
STANDARD
72
1
11
3.503990848342067
21
9.697581862513415
31
0
100
AcDbText
73
2
0
LINE
5
FB8D
330
F97F
100
AcDbEntity
100
AcDbLine
8
OLCULER
10
2.8501792949076137
20
8.959580922930785
30
0
11
2.8501792949076137
21
9.099580922930784
31
0
0
LINE
5
FB8E
330
F97F
100
AcDbEntity
100
AcDbLine
8
OLCULER
10
3.5079641294577497
20
8.720166822602819
30
0
11
3.5079641294577497
21
9.099580922930784
31
0
0
LINE
5
FB8F
330
F97F
100
AcDbEntity
100
AcDbLine
8
OLCULER
10
2.8501792949076137
20
9.059580922930785
30
0
11
3.5079641294577497
21
9.059580922930785
31
0
0
LINE
5
FB90
330
F97F
100
AcDbEntity
100
AcDbLine
8
OLCULER
10
2.8221792949076137
20
9.031580922930784
30
0
11
2.8781792949076137
21
9.087580922930785
31
0
0
LINE
5
FB91
330
F97F
100
AcDbEntity
100
AcDbLine
8
OLCULER
10
3.4799641294577497
20
9.031580922930784
30
0
11
3.5359641294577497
21
9.087580922930785
31
0
0
TEXT
5
FB92
330
F97F
100
AcDbEntity
100
AcDbText
8
OLCULER
10
3.1790717121826817
20
9.083580922930784
30
0
40
0.06
1
700 mm (GENISLIK)
50
0
7
STANDARD
72
1
11
3.1790717121826817
21
9.083580922930784
31
0
100
AcDbText
73
2
0
LINE
5
FB93
330
F97F
100
AcDbEntity
100
AcDbLine
8
OLCULER
10
2.73203587054225
20
8.73983317739718
30
0
11
2.73203587054225
21
8.579833177397182
31
0
0
LINE
5
FB94
330
F97F
100
AcDbEntity
100
AcDbLine
8
OLCULER
10
3.1252280747625436
20
8.796788339940948
30
0
11
3.1252280747625436
21
8.579833177397182
31
0
0
LINE
5
FB95
330
F97F
100
AcDbEntity
100
AcDbLine
8
OLCULER
10
2.73203587054225
20
8.619833177397181
30
0
11
3.1252280747625436
21
8.619833177397181
31
0
0
LINE
5
FB96
330
F97F
100
AcDbEntity
100
AcDbLine
8
OLCULER
10
2.70403587054225
20
8.59183317739718
30
0
11
2.76003587054225
21
8.647833177397182
31
0
0
LINE
5
FB97
330
F97F
100
AcDbEntity
100
AcDbLine
8
OLCULER
10
3.0972280747625436
20
8.59183317739718
30
0
11
3.1532280747625436
21
8.647833177397182
31
0
0
TEXT
5
FB98
330
F97F
100
AcDbEntity
100
AcDbText
8
OLCULER
10
2.928631972652397
20
8.535833177397182
30
0
40
0.06
1
463 mm (TOPLAM DERINLIK)
50
0
7
STANDARD
72
1
11
2.928631972652397
21
8.535833177397182
31
0
100
AcDbText
73
2
0
LINE
5
FBAD
330
F97F
100
AcDbEntity
100
AcDbLine
8
OLCULER
10
4
20
8.585
30
0
11
4
21
9.535
31
0
0
LINE
5
FBAE
330
F97F
100
AcDbEntity
100
AcDbLine
8
OLCULER
10
4
20
8.585
30
0
11
3.754121907152605
21
9.502629534974615
31
0
0
LINE
5
FBAF
330
F97F
100
AcDbEntity
100
AcDbLine
8
OLCULER
10
4
20
8.585
30
0
11
4.245878092847395
21
9.502629534974615
31
0
0
LINE
5
FBB0
330
F97F
100
AcDbEntity
100
AcDbLine
8
OLCULER
10
3.754121907152605
20
9.502629534974615
30
0
11
4
21
9.535
31
0
0
LINE
5
FBB1
330
F97F
100
AcDbEntity
100
AcDbLine
8
OLCULER
10
4
20
9.535
30
0
11
4.245878092847395
21
9.502629534974615
31
0
0
TEXT
5
FBB2
330
F97F
100
AcDbEntity
100
AcDbText
8
OLCULER
10
4
20
9.56
30
0
40
0.032
1
30° SPOT BEAM (HPBW)
50
0
7
STANDARD
72
1
11
4
21
9.56
31
0
100
AcDbText
73
2
0
LINE
5
FBB3
330
F97F
100
AcDbEntity
100
AcDbLine
8
OLCULER
10
3.65
20
8.645000000000001
30
0
11
3.65
21
8.785
31
0
0
LINE
5
FBB4
330
F97F
100
AcDbEntity
100
AcDbLine
8
OLCULER
10
4.35
20
8.645000000000001
30
0
11
4.35
21
8.785
31
0
0
LINE
5
FBB5
330
F97F
100
AcDbEntity
100
AcDbLine
8
OLCULER
10
3.65
20
8.745000000000001
30
0
11
4.35
21
8.745000000000001
31
0
0
LINE
5
FBB6
330
F97F
100
AcDbEntity
100
AcDbLine
8
OLCULER
10
3.622
20
8.717
30
0
11
3.678
21
8.773000000000001
31
0
0
LINE
5
FBB7
330
F97F
100
AcDbEntity
100
AcDbLine
8
OLCULER
10
4.322
20
8.717
30
0
11
4.377999999999999
21
8.773000000000001
31
0
0
TEXT
5
FBB8
330
F97F
100
AcDbEntity
100
AcDbText
8
OLCULER
10
4
20
8.769
30
0
40
0.06
1
700 mm (GENISLIK)
50
0
7
STANDARD
72
1
11
4
21
8.769
31
0
100
AcDbText
73
2
0
LINE
5
FBB9
330
F97F
100
AcDbEntity
100
AcDbLine
8
OLCULER
10
3.59
20
8.415
30
0
11
3.59
21
8.255
31
0
0
LINE
5
FBBA
330
F97F
100
AcDbEntity
100
AcDbLine
8
OLCULER
10
3.94
20
8.603
30
0
11
3.94
21
8.255
31
0
0
LINE
5
FBBB
330
F97F
100
AcDbEntity
100
AcDbLine
8
OLCULER
10
3.59
20
8.295
30
0
11
3.94
21
8.295
31
0
0
LINE
5
FBBC
330
F97F
100
AcDbEntity
100
AcDbLine
8
OLCULER
10
3.562
20
8.267
30
0
11
3.618
21
8.323
31
0
0
LINE
5
FBBD
330
F97F
100
AcDbEntity
100
AcDbLine
8
OLCULER
10
3.912
20
8.267
30
0
11
3.968
21
8.323
31
0
0
TEXT
5
FBBE
330
F97F
100
AcDbEntity
100
AcDbText
8
OLCULER
10
3.7649999999999997
20
8.211
30
0
40
0.06
1
463 mm (TOPLAM DERINLIK)
50
0
7
STANDARD
72
1
11
3.7649999999999997
21
8.211
31
0
100
AcDbText
73
2
0
LINE
5
FBD3
330
F97F
100
AcDbEntity
100
AcDbLine
8
OLCULER
10
4.820928287817318
20
8.779873872766801
30
0
11
4.496009151657932
21
9.672581862513415
31
0
0
LINE
5
FBD4
330
F97F
100
AcDbEntity
100
AcDbLine
8
OLCULER
10
4.820928287817318
20
8.779873872766801
30
0
11
4.276030673283824
21
9.558068314841343
31
0
0
LINE
5
FBD5
330
F97F
100
AcDbEntity
100
AcDbLine
8
OLCULER
10
4.820928287817318
20
8.779873872766801
30
0
11
4.738130332207042
21
9.72625883595396
31
0
0
LINE
5
FBD6
330
F97F
100
AcDbEntity
100
AcDbLine
8
OLCULER
10
4.276030673283824
20
9.558068314841343
30
0
11
4.496009151657932
21
9.672581862513415
31
0
0
LINE
5
FBD7
330
F97F
100
AcDbEntity
100
AcDbLine
8
OLCULER
10
4.496009151657932
20
9.672581862513415
30
0
11
4.738130332207042
21
9.72625883595396
31
0
0
TEXT
5
FBD8
330
F97F
100
AcDbEntity
100
AcDbText
8
OLCULER
10
4.496009151657932
20
9.697581862513415
30
0
40
0.032
1
30° SPOT BEAM (HPBW)
50
0
7
STANDARD
72
1
11
4.496009151657932
21
9.697581862513415
31
0
100
AcDbText
73
2
0
LINE
5
FBD9
330
F97F
100
AcDbEntity
100
AcDbLine
8
OLCULER
10
4.49203587054225
20
8.720166822602819
30
0
11
4.49203587054225
21
8.860166822602817
31
0
0
LINE
5
FBDA
330
F97F
100
AcDbEntity
100
AcDbLine
8
OLCULER
10
5.149820705092385
20
8.959580922930785
30
0
11
5.149820705092385
21
8.860166822602817
31
0
0
LINE
5
FBDB
330
F97F
100
AcDbEntity
100
AcDbLine
8
OLCULER
10
4.49203587054225
20
8.820166822602818
30
0
11
5.149820705092385
21
8.820166822602818
31
0
0
LINE
5
FBDC
330
F97F
100
AcDbEntity
100
AcDbLine
8
OLCULER
10
4.464035870542251
20
8.792166822602818
30
0
11
4.52003587054225
21
8.848166822602819
31
0
0
LINE
5
FBDD
330
F97F
100
AcDbEntity
100
AcDbLine
8
OLCULER
10
5.121820705092386
20
8.792166822602818
30
0
11
5.177820705092385
21
8.848166822602819
31
0
0
TEXT
5
FBDE
330
F97F
100
AcDbEntity
100
AcDbText
8
OLCULER
10
4.820928287817318
20
8.844166822602817
30
0
40
0.06
1
700 mm (GENISLIK)
50
0
7
STANDARD
72
1
11
4.820928287817318
21
8.844166822602817
31
0
100
AcDbText
73
2
0
LINE
5
FBDF
330
F97F
100
AcDbEntity
100
AcDbLine
8
OLCULER
10
4.490179294907614
20
8.500419077069214
30
0
11
4.330179294907614
21
8.500419077069214
31
0
0
LINE
5
FBE0
330
F97F
100
AcDbEntity
100
AcDbLine
8
OLCULER
10
4.754771925237456
20
8.796788339940948
30
0
11
4.330179294907614
21
8.796788339940948
31
0
0
LINE
5
FBE1
330
F97F
100
AcDbEntity
100
AcDbLine
8
OLCULER
10
4.370179294907614
20
8.500419077069214
30
0
11
4.370179294907614
21
8.796788339940948
31
0
0
LINE
5
FBE2
330
F97F
100
AcDbEntity
100
AcDbLine
8
OLCULER
10
4.342179294907615
20
8.472419077069214
30
0
11
4.398179294907614
21
8.528419077069215
31
0
0
LINE
5
FBE3
330
F97F
100
AcDbEntity
100
AcDbLine
8
OLCULER
10
4.342179294907615
20
8.768788339940947
30
0
11
4.398179294907614
21
8.824788339940948
31
0
0
TEXT
5
FBE4
330
F97F
100
AcDbEntity
100
AcDbText
8
OLCULER
10
4.328179294907614
20
8.648603708505082
30
0
40
0.06
1
463 mm (TOPLAM DERINLIK)
50
90
7
STANDARD
72
1
11
4.328179294907614
21
8.648603708505082
31
0
100
AcDbText
73
2
0
LINE
5
FC20
330
F97F
100
AcDbEntity
100
AcDbLine
8
OLCULER
10
-14
20
0
30
0
11
-13.15
21
0
31
0
0
LINE
5
FC21
330
F97F
100
AcDbEntity
100
AcDbLine
8
OLCULER
10
-14
20
0
30
0
11
-13.398959235991434
21
-0.6010407640085653
31
0
0
LINE
5
FC22
330
F97F
100
AcDbEntity
100
AcDbLine
8
OLCULER
10
-13.398959235991434
20
-0.6010407640085653
30
0
11
-13.448959235991435
21
-0.5860407640085653
31
0
0
LINE
5
FC23
330
F97F
100
AcDbEntity
100
AcDbLine
8
OLCULER
10
-13.398959235991434
20
-0.6010407640085653
30
0
11
-13.413959235991435
21
-0.5510407640085653
31
0
0
TEXT
5
FC24
330
F97F
100
AcDbEntity
100
AcDbText
8
OLCULER
10
-13.58
20
-0.15
30
0
40
0.04
1
45° DOWNTILT (YERE VE SAHAYA EGIM)
50
0
7
STANDARD
72
0
11
-13.58
21
-0.15
31
0
100
AcDbText
73
2
0
LINE
5
FC25
330
F97F
100
AcDbEntity
100
AcDbLine
8
OLCULER
10
-14.316076731190385
20
-0.18738329701443512
30
0
11
-14.471640223051425
21
-0.03181980515339469
31
0
0
LINE
5
FC26
330
F97F
100
AcDbEntity
100
AcDbLine
8
OLCULER
10
-13.812616702985565
20
0.3160767311903868
30
0
11
-13.968180194846605
21
0.4716402230514273
31
0
0
LINE
5
FC27
330
F97F
100
AcDbEntity
100
AcDbLine
8
OLCULER
10
-14.471640223051425
20
-0.03181980515339469
30
0
11
-13.968180194846605
21
0.4716402230514273
31
0
0
TEXT
5
FC28
330
F97F
100
AcDbEntity
100
AcDbText
8
OLCULER
10
-14.254910208949015
20
0.2549102089490163
30
0
40
0.04
1
700 mm (BOY)
50
45
7
STANDARD
72
1
11
-14.254910208949015
21
0.2549102089490163
31
0
100
AcDbText
73
2
0
LINE
5
FC29
330
F97F
100
AcDbEntity
100
AcDbLine
8
OLCULER
10
-13.827465945390482
20
0.2927422074112307
30
0
11
-13.728470996024365
21
0.39173715677734733
31
0
0
LINE
5
FC2A
330
F97F
100
AcDbEntity
100
AcDbLine
8
OLCULER
10
-13.703015151901651
20
0.1767766952966369
30
0
11
-13.604020202535533
21
0.27577164466275356
31
0
0
LINE
5
FC2B
330
F97F
100
AcDbEntity
100
AcDbLine
8
OLCULER
10
-13.728470996024365
20
0.39173715677734733
30
0
11
-13.604020202535533
21
0.27577164466275356
31
0
0
TEXT
5
FC2C
330
F97F
100
AcDbEntity
100
AcDbText
8
OLCULER
10
-13.666245599279948
20
0.3637544007200505
30
0
40
0.036000000000000004
1
170 mm (GOVDE)
50
-45
7
STANDARD
72
1
11
-13.666245599279948
21
0.3637544007200505
31
0
100
AcDbText
73
2
0
TEXT
5
FC2D
330
F97F
100
AcDbEntity
100
AcDbText
8
OLCULER
10
-14.300449671326165
20
0.18044967132616402
30
0
40
0.036000000000000004
1
463 mm (TOPLAM MONTAJ DERINLIGI)
50
0
7
STANDARD
72
1
11
-14.300449671326165
21
0.18044967132616402
31
0
100
AcDbText
73
2
0
LINE
5
FC67
330
F97F
100
AcDbEntity
100
AcDbLine
8
OLCULER
10
-4
20
0
30
0
11
-3.15
21
0
31
0
0
LINE
5
FC68
330
F97F
100
AcDbEntity
100
AcDbLine
8
OLCULER
10
-4
20
0
30
0
11
-3.3989592359914345
21
-0.6010407640085653
31
0
0
LINE
5
FC69
330
F97F
100
AcDbEntity
100
AcDbLine
8
OLCULER
10
-3.3989592359914345
20
-0.6010407640085653
30
0
11
-3.4489592359914343
21
-0.5860407640085653
31
0
0
LINE
5
FC6A
330
F97F
100
AcDbEntity
100
AcDbLine
8
OLCULER
10
-3.3989592359914345
20
-0.6010407640085653
30
0
11
-3.4139592359914346
21
-0.5510407640085653
31
0
0
TEXT
5
FC6B
330
F97F
100
AcDbEntity
100
AcDbText
8
OLCULER
10
-3.58
20
-0.15
30
0
40
0.04
1
45° DOWNTILT (YERE VE SAHAYA EGIM)
50
0
7
STANDARD
72
0
11
-3.58
21
-0.15
31
0
100
AcDbText
73
2
0
LINE
5
FC6C
330
F97F
100
AcDbEntity
100
AcDbLine
8
OLCULER
10
-4.316076731190387
20
-0.18738329701443512
30
0
11
-4.471640223051428
21
-0.03181980515339469
31
0
0
LINE
5
FC6D
330
F97F
100
AcDbEntity
100
AcDbLine
8
OLCULER
10
-3.812616702985565
20
0.3160767311903868
30
0
11
-3.968180194846606
21
0.4716402230514273
31
0
0
LINE
5
FC6E
330
F97F
100
AcDbEntity
100
AcDbLine
8
OLCULER
10
-4.471640223051428
20
-0.03181980515339469
30
0
11
-3.968180194846606
21
0.4716402230514273
31
0
0
TEXT
5
FC6F
330
F97F
100
AcDbEntity
100
AcDbText
8
OLCULER
10
-4.254910208949017
20
0.2549102089490163
30
0
40
0.04
1
700 mm (BOY)
50
45
7
STANDARD
72
1
11
-4.254910208949017
21
0.2549102089490163
31
0
100
AcDbText
73
2
0
LINE
5
FC70
330
F97F
100
AcDbEntity
100
AcDbLine
8
OLCULER
10
-3.827465945390482
20
0.2927422074112307
30
0
11
-3.7284709960243654
21
0.39173715677734733
31
0
0
LINE
5
FC71
330
F97F
100
AcDbEntity
100
AcDbLine
8
OLCULER
10
-3.70301515190165
20
0.1767766952966369
30
0
11
-3.6040202025355335
21
0.27577164466275356
31
0
0
LINE
5
FC72
330
F97F
100
AcDbEntity
100
AcDbLine
8
OLCULER
10
-3.7284709960243654
20
0.39173715677734733
30
0
11
-3.6040202025355335
21
0.27577164466275356
31
0
0
TEXT
5
FC73
330
F97F
100
AcDbEntity
100
AcDbText
8
OLCULER
10
-3.666245599279949
20
0.3637544007200505
30
0
40
0.036000000000000004
1
170 mm (GOVDE)
50
-45
7
STANDARD
72
1
11
-3.666245599279949
21
0.3637544007200505
31
0
100
AcDbText
73
2
0
TEXT
5
FC74
330
F97F
100
AcDbEntity
100
AcDbText
8
OLCULER
10
-4.300449671326164
20
0.18044967132616402
30
0
40
0.036000000000000004
1
463 mm (TOPLAM MONTAJ DERINLIGI)
50
0
7
STANDARD
72
1
11
-4.300449671326164
21
0.18044967132616402
31
0
100
AcDbText
73
2
0
LINE
5
FCB4
330
F97F
100
AcDbEntity
100
AcDbLine
8
OLCULER
10
5.5
20
0
30
0
11
6.35
21
0
31
0
0
LINE
5
FCB5
330
F97F
100
AcDbEntity
100
AcDbLine
8
OLCULER
10
5.5
20
0
30
0
11
6.101040764008565
21
-0.6010407640085653
31
0
0
LINE
5
FCB6
330
F97F
100
AcDbEntity
100
AcDbLine
8
OLCULER
10
6.101040764008565
20
-0.6010407640085653
30
0
11
6.051040764008565
21
-0.5860407640085653
31
0
0
LINE
5
FCB7
330
F97F
100
AcDbEntity
100
AcDbLine
8
OLCULER
10
6.101040764008565
20
-0.6010407640085653
30
0
11
6.086040764008565
21
-0.5510407640085653
31
0
0
TEXT
5
FCB8
330
F97F
100
AcDbEntity
100
AcDbText
8
OLCULER
10
5.92
20
-0.15
30
0
40
0.04
1
45° DOWNTILT (YERE VE SAHAYA EGIM)
50
0
7
STANDARD
72
0
11
5.92
21
-0.15
31
0
100
AcDbText
73
2
0
LINE
5
FCB9
330
F97F
100
AcDbEntity
100
AcDbLine
8
OLCULER
10
5.183923268809613
20
-0.18738329701443512
30
0
11
5.028359776948572
21
-0.03181980515339469
31
0
0
LINE
5
FCBA
330
F97F
100
AcDbEntity
100
AcDbLine
8
OLCULER
10
5.687383297014435
20
0.3160767311903868
30
0
11
5.531819805153394
21
0.4716402230514273
31
0
0
LINE
5
FCBB
330
F97F
100
AcDbEntity
100
AcDbLine
8
OLCULER
10
5.028359776948572
20
-0.03181980515339469
30
0
11
5.531819805153394
21
0.4716402230514273
31
0
0
TEXT
5
FCBC
330
F97F
100
AcDbEntity
100
AcDbText
8
OLCULER
10
5.245089791050983
20
0.2549102089490163
30
0
40
0.04
1
700 mm (BOY)
50
45
7
STANDARD
72
1
11
5.245089791050983
21
0.2549102089490163
31
0
100
AcDbText
73
2
0
LINE
5
FCBD
330
F97F
100
AcDbEntity
100
AcDbLine
8
OLCULER
10
5.6725340546095175
20
0.2927422074112307
30
0
11
5.771529003975634
21
0.39173715677734733
31
0
0
LINE
5
FCBE
330
F97F
100
AcDbEntity
100
AcDbLine
8
OLCULER
10
5.79698484809835
20
0.1767766952966369
30
0
11
5.8959797974644665
21
0.27577164466275356
31
0
0
LINE
5
FCBF
330
F97F
100
AcDbEntity
100
AcDbLine
8
OLCULER
10
5.771529003975634
20
0.39173715677734733
30
0
11
5.8959797974644665
21
0.27577164466275356
31
0
0
TEXT
5
FCC0
330
F97F
100
AcDbEntity
100
AcDbText
8
OLCULER
10
5.833754400720051
20
0.3637544007200505
30
0
40
0.036000000000000004
1
170 mm (GOVDE)
50
-45
7
STANDARD
72
1
11
5.833754400720051
21
0.3637544007200505
31
0
100
AcDbText
73
2
0
TEXT
5
FCC1
330
F97F
100
AcDbEntity
100
AcDbText
8
OLCULER
10
5.199550328673836
20
0.18044967132616402
30
0
40
0.036000000000000004
1
463 mm (TOPLAM MONTAJ DERINLIGI)
50
0
7
STANDARD
72
1
11
5.199550328673836
21
0.18044967132616402
31
0
100
AcDbText
73
2
0
LINE
5
F9A6
330
F97F
100
AcDbEntity
100
AcDbLine
8
METIN_BILGI
10
-18
20
17.32
30
0
11
-18.02
21
17.279999999999998
31
0
0
LINE
5
F9A7
330
F97F
100
AcDbEntity
100
AcDbLine
8
METIN_BILGI
10
-18
20
17.32
30
0
11
-17.98
21
17.279999999999998
31
0
0
LINE
5
F9A8
330
F97F
100
AcDbEntity
100
AcDbLine
8
METIN_BILGI
10
-18.02
20
17.279999999999998
30
0
11
-17.98
21
17.279999999999998
31
0
0
LINE
5
F9A9
330
F97F
100
AcDbEntity
100
AcDbLine
8
METIN_BILGI
10
-18
20
17.279999999999998
30
0
11
-18
21
17.265
31
0
0
TEXT
5
F9AA
330
F97F
100
AcDbEntity
100
AcDbText
8
METIN_BILGI
10
-18
20
17.24
30
0
40
0.026000000000000002
1
UP (YUKARI)
50
0
7
STANDARD
72
1
11
-18
21
17.24
31
0
100
AcDbText
73
2
0
TEXT
5
F9BF
330
F97F
100
AcDbEntity
100
AcDbText
8
METIN_BILGI
10
-18
20
16.369999999999997
30
0
40
0.045
1
1.1 TEKLI SPOT BEAM: ON KESIT / GORUNUS
50
0
7
STANDARD
72
1
11
-18
21
16.369999999999997
31
0
100
AcDbText
73
2
0
TEXT
5
F9C0
330
F97F
100
AcDbEntity
100
AcDbText
8
METIN_BILGI
10
-18
20
16.31
30
0
40
0.032
1
Spot Beam 30/30 (DOY15X3030MD4TRE) - 16.5 kg
50
0
7
STANDARD
72
1
11
-18
21
16.31
31
0
100
AcDbText
73
2
0
TEXT
5
F9F6
330
F97F
100
AcDbEntity
100
AcDbText
8
METIN_BILGI
10
-12.100449671326164
20
19.36
30
0
40
0.038
1
CATI MAKASI ANA BORUSU (Ø280mm)
50
0
7
STANDARD
72
0
11
-12.100449671326164
21
19.36
31
0
100
AcDbText
73
2
0
TEXT
5
F9F7
330
F97F
100
AcDbEntity
100
AcDbText
8
METIN_BILGI
10
-12.481567726704576
20
18.182165807973874
30
0
40
0.032
1
2x Ø70mm OFSET ASKI BORUSU
50
0
7
STANDARD
72
2
11
-12.481567726704576
21
18.182165807973874
31
0
100
AcDbText
73
2
0
TEXT
5
F9F8
330
F97F
100
AcDbEntity
100
AcDbText
8
METIN_BILGI
10
-12.094331615947754
20
17.436567726704574
30
0
40
0.028
1
CAPRAZ GECIS KELEPCESI (M14)
50
0
7
STANDARD
72
0
11
-12.094331615947754
21
17.436567726704574
31
0
100
AcDbText
73
2
0
TEXT
5
FA07
330
F97F
100
AcDbEntity
100
AcDbText
8
METIN_BILGI
10
-12
20
16.43
30
0
40
0.045
1
1.2 TEKLI SPOT BEAM: YAN KESIT (45° DOWNTILT)
50
0
7
STANDARD
72
1
11
-12
21
16.43
31
0
100
AcDbText
73
2
0
TEXT
5
FA08
330
F97F
100
AcDbEntity
100
AcDbText
8
METIN_BILGI
10
-12
20
16.369999999999997
30
0
40
0.032
1
Gamma Nu Spot Beam 30/30 (One ve Yere 45° Egim)
50
0
7
STANDARD
72
1
11
-12
21
16.369999999999997
31
0
100
AcDbText
73
2
0
TEXT
5
FA2E
330
F97F
100
AcDbEntity
100
AcDbText
8
METIN_BILGI
10
-6
20
16.416999999999998
30
0
40
0.042
1
1.3 TEKLI SPOT BEAM: USTTEN PLAN KESITI
50
0
7
STANDARD
72
1
11
-6
21
16.416999999999998
31
0
100
AcDbText
73
2
0
LWPOLYLINE
5
FA2F
330
F97F
100
AcDbEntity
100
AcDbPolyline
8
METIN_BILGI
6
ByLayer
62
256
370
-1
90
4
70
1
10
-21.5
20
14.4
10
-21.5
20
19.8
10
-3
20
19.8
10
-3
20
14.4
0
TEXT
5
FA30
330
F97F
100
AcDbEntity
100
AcDbText
8
METIN_BILGI
10
-21
20
19.5
30
0
40
0.18
1
BOLUM 1: TEKLI (SINGLE) GAMMA NU SPOT BEAM 30/30 PANEL ANTENI KESITLERI (1:1 OLCEK)
50
0
7
STANDARD
100
AcDbText
0
LINE
5
FA3F
330
F97F
100
AcDbEntity
100
AcDbLine
8
METIN_BILGI
10
8
20
17.32
30
0
11
7.98
21
17.279999999999998
31
0
0
LINE
5
FA40
330
F97F
100
AcDbEntity
100
AcDbLine
8
METIN_BILGI
10
8
20
17.32
30
0
11
8.02
21
17.279999999999998
31
0
0
LINE
5
FA41
330
F97F
100
AcDbEntity
100
AcDbLine
8
METIN_BILGI
10
7.98
20
17.279999999999998
30
0
11
8.02
21
17.279999999999998
31
0
0
LINE
5
FA42
330
F97F
100
AcDbEntity
100
AcDbLine
8
METIN_BILGI
10
8
20
17.279999999999998
30
0
11
8
21
17.265
31
0
0
TEXT
5
FA43
330
F97F
100
AcDbEntity
100
AcDbText
8
METIN_BILGI
10
8
20
17.24
30
0
40
0.026000000000000002
1
UP (YUKARI)
50
0
7
STANDARD
72
1
11
8
21
17.24
31
0
100
AcDbText
73
2
0
TEXT
5
FA58
330
F97F
100
AcDbEntity
100
AcDbText
8
METIN_BILGI
10
8
20
16.369999999999997
30
0
40
0.045
1
SOL ANTEN (ANT-1)
50
0
7
STANDARD
72
1
11
8
21
16.369999999999997
31
0
100
AcDbText
73
2
0
TEXT
5
FA59
330
F97F
100
AcDbEntity
100
AcDbText
8
METIN_BILGI
10
8
20
16.31
30
0
40
0.032
1
Spot Beam 30/30 (DOY15X3030MD4TRE) - 16.5 kg
50
0
7
STANDARD
72
1
11
8
21
16.31
31
0
100
AcDbText
73
2
0
LINE
5
FA68
330
F97F
100
AcDbEntity
100
AcDbLine
8
METIN_BILGI
10
9
20
17.32
30
0
11
8.98
21
17.279999999999998
31
0
0
LINE
5
FA69
330
F97F
100
AcDbEntity
100
AcDbLine
8
METIN_BILGI
10
9
20
17.32
30
0
11
9.02
21
17.279999999999998
31
0
0
LINE
5
FA6A
330
F97F
100
AcDbEntity
100
AcDbLine
8
METIN_BILGI
10
8.98
20
17.279999999999998
30
0
11
9.02
21
17.279999999999998
31
0
0
LINE
5
FA6B
330
F97F
100
AcDbEntity
100
AcDbLine
8
METIN_BILGI
10
9
20
17.279999999999998
30
0
11
9
21
17.265
31
0
0
TEXT
5
FA6C
330
F97F
100
AcDbEntity
100
AcDbText
8
METIN_BILGI
10
9
20
17.24
30
0
40
0.026000000000000002
1
UP (YUKARI)
50
0
7
STANDARD
72
1
11
9
21
17.24
31
0
100
AcDbText
73
2
0
TEXT
5
FA81
330
F97F
100
AcDbEntity
100
AcDbText
8
METIN_BILGI
10
9
20
16.369999999999997
30
0
40
0.045
1
SAG ANTEN (ANT-2)
50
0
7
STANDARD
72
1
11
9
21
16.369999999999997
31
0
100
AcDbText
73
2
0
TEXT
5
FA82
330
F97F
100
AcDbEntity
100
AcDbText
8
METIN_BILGI
10
9
20
16.31
30
0
40
0.032
1
Spot Beam 30/30 (DOY15X3030MD4TRE) - 16.5 kg
50
0
7
STANDARD
72
1
11
9
21
16.31
31
0
100
AcDbText
73
2
0
TEXT
5
FACE
330
F97F
100
AcDbEntity
100
AcDbText
8
METIN_BILGI
10
15.899550328673836
20
19.36
30
0
40
0.038
1
CATI MAKASI ANA BORUSU (Ø280mm)
50
0
7
STANDARD
72
0
11
15.899550328673836
21
19.36
31
0
100
AcDbText
73
2
0
TEXT
5
FACF
330
F97F
100
AcDbEntity
100
AcDbText
8
METIN_BILGI
10
15.518432273295424
20
18.182165807973874
30
0
40
0.032
1
2x Ø70mm OFSET ASKI BORUSU
50
0
7
STANDARD
72
2
11
15.518432273295424
21
18.182165807973874
31
0
100
AcDbText
73
2
0
TEXT
5
FAD0
330
F97F
100
AcDbEntity
100
AcDbText
8
METIN_BILGI
10
15.905668384052246
20
17.436567726704574
30
0
40
0.028
1
CAPRAZ GECIS KELEPCESI (M14)
50
0
7
STANDARD
72
0
11
15.905668384052246
21
17.436567726704574
31
0
100
AcDbText
73
2
0
TEXT
5
FADF
330
F97F
100
AcDbEntity
100
AcDbText
8
METIN_BILGI
10
16
20
16.43
30
0
40
0.045
1
2.2 IKILI SISTEM: YAN KESIT (PROFIL)
50
0
7
STANDARD
72
1
11
16
21
16.43
31
0
100
AcDbText
73
2
0
TEXT
5
FAE0
330
F97F
100
AcDbEntity
100
AcDbText
8
METIN_BILGI
10
16
20
16.369999999999997
30
0
40
0.032
1
Gamma Nu Spot Beam 30/30 (One ve Yere 45° Egim)
50
0
7
STANDARD
72
1
11
16
21
16.369999999999997
31
0
100
AcDbText
73
2
0
LWPOLYLINE
5
FAE1
330
F97F
100
AcDbEntity
100
AcDbPolyline
8
METIN_BILGI
6
ByLayer
62
256
370
-1
90
4
70
1
10
6.7
20
14.4
10
6.7
20
19.8
10
21.2
20
19.8
10
21.2
20
14.4
0
TEXT
5
FAE2
330
F97F
100
AcDbEntity
100
AcDbText
8
METIN_BILGI
10
7.1
20
19.5
30
0
40
0.18
1
BOLUM 2: 2'LI (DUAL) GAMMA NU SPOT BEAM ANTEN KESIT VE TRAVERS MONTAJ PLANI
50
0
7
STANDARD
100
AcDbText
0
LINE
5
FAF1
330
F97F
100
AcDbEntity
100
AcDbLine
8
METIN_BILGI
10
-7.9
20
8.82
30
0
11
-7.92
21
8.780000000000001
31
0
0
LINE
5
FAF2
330
F97F
100
AcDbEntity
100
AcDbLine
8
METIN_BILGI
10
-7.9
20
8.82
30
0
11
-7.880000000000001
21
8.780000000000001
31
0
0
LINE
5
FAF3
330
F97F
100
AcDbEntity
100
AcDbLine
8
METIN_BILGI
10
-7.92
20
8.780000000000001
30
0
11
-7.880000000000001
21
8.780000000000001
31
0
0
LINE
5
FAF4
330
F97F
100
AcDbEntity
100
AcDbLine
8
METIN_BILGI
10
-7.9
20
8.780000000000001
30
0
11
-7.9
21
8.765
31
0
0
TEXT
5
FAF5
330
F97F
100
AcDbEntity
100
AcDbText
8
METIN_BILGI
10
-7.9
20
8.74
30
0
40
0.026000000000000002
1
UP (YUKARI)
50
0
7
STANDARD
72
1
11
-7.9
21
8.74
31
0
100
AcDbText
73
2
0
TEXT
5
FB0A
330
F97F
100
AcDbEntity
100
AcDbText
8
METIN_BILGI
10
-7.9
20
7.87
30
0
40
0.045
1
SEKTOR 1 (SOL)
50
0
7
STANDARD
72
1
11
-7.9
21
7.87
31
0
100
AcDbText
73
2
0
TEXT
5
FB0B
330
F97F
100
AcDbEntity
100
AcDbText
8
METIN_BILGI
10
-7.9
20
7.8100000000000005
30
0
40
0.032
1
Spot Beam 30/30 (DOY15X3030MD4TRE) - 16.5 kg
50
0
7
STANDARD
72
1
11
-7.9
21
7.8100000000000005
31
0
100
AcDbText
73
2
0
LINE
5
FB1A
330
F97F
100
AcDbEntity
100
AcDbLine
8
METIN_BILGI
10
-7
20
8.82
30
0
11
-7.02
21
8.780000000000001
31
0
0
LINE
5
FB1B
330
F97F
100
AcDbEntity
100
AcDbLine
8
METIN_BILGI
10
-7
20
8.82
30
0
11
-6.98
21
8.780000000000001
31
0
0
LINE
5
FB1C
330
F97F
100
AcDbEntity
100
AcDbLine
8
METIN_BILGI
10
-7.02
20
8.780000000000001
30
0
11
-6.98
21
8.780000000000001
31
0
0
LINE
5
FB1D
330
F97F
100
AcDbEntity
100
AcDbLine
8
METIN_BILGI
10
-7
20
8.780000000000001
30
0
11
-7
21
8.765
31
0
0
TEXT
5
FB1E
330
F97F
100
AcDbEntity
100
AcDbText
8
METIN_BILGI
10
-7
20
8.74
30
0
40
0.026000000000000002
1
UP (YUKARI)
50
0
7
STANDARD
72
1
11
-7
21
8.74
31
0
100
AcDbText
73
2
0
TEXT
5
FB33
330
F97F
100
AcDbEntity
100
AcDbText
8
METIN_BILGI
10
-7
20
7.87
30
0
40
0.045
1
SEKTOR 2 (MERKEZ)
50
0
7
STANDARD
72
1
11
-7
21
7.87
31
0
100
AcDbText
73
2
0
TEXT
5
FB34
330
F97F
100
AcDbEntity
100
AcDbText
8
METIN_BILGI
10
-7
20
7.8100000000000005
30
0
40
0.032
1
Spot Beam 30/30 (DOY15X3030MD4TRE) - 16.5 kg
50
0
7
STANDARD
72
1
11
-7
21
7.8100000000000005
31
0
100
AcDbText
73
2
0
LINE
5
FB43
330
F97F
100
AcDbEntity
100
AcDbLine
8
METIN_BILGI
10
-6.1
20
8.82
30
0
11
-6.119999999999999
21
8.780000000000001
31
0
0
LINE
5
FB44
330
F97F
100
AcDbEntity
100
AcDbLine
8
METIN_BILGI
10
-6.1
20
8.82
30
0
11
-6.08
21
8.780000000000001
31
0
0
LINE
5
FB45
330
F97F
100
AcDbEntity
100
AcDbLine
8
METIN_BILGI
10
-6.119999999999999
20
8.780000000000001
30
0
11
-6.08
21
8.780000000000001
31
0
0
LINE
5
FB46
330
F97F
100
AcDbEntity
100
AcDbLine
8
METIN_BILGI
10
-6.1
20
8.780000000000001
30
0
11
-6.1
21
8.765
31
0
0
TEXT
5
FB47
330
F97F
100
AcDbEntity
100
AcDbText
8
METIN_BILGI
10
-6.1
20
8.74
30
0
40
0.026000000000000002
1
UP (YUKARI)
50
0
7
STANDARD
72
1
11
-6.1
21
8.74
31
0
100
AcDbText
73
2
0
TEXT
5
FB5C
330
F97F
100
AcDbEntity
100
AcDbText
8
METIN_BILGI
10
-6.1
20
7.87
30
0
40
0.045
1
SEKTOR 3 (SAG)
50
0
7
STANDARD
72
1
11
-6.1
21
7.87
31
0
100
AcDbText
73
2
0
TEXT
5
FB5D
330
F97F
100
AcDbEntity
100
AcDbText
8
METIN_BILGI
10
-6.1
20
7.8100000000000005
30
0
40
0.032
1
Spot Beam 30/30 (DOY15X3030MD4TRE) - 16.5 kg
50
0
7
STANDARD
72
1
11
-6.1
21
7.8100000000000005
31
0
100
AcDbText
73
2
0
TEXT
5
FB99
330
F97F
100
AcDbEntity
100
AcDbText
8
METIN_BILGI
10
3.15
20
8.117
30
0
40
0.042
1
ANT-1 (-20°)
50
0
7
STANDARD
72
1
11
3.15
21
8.117
31
0
100
AcDbText
73
2
0
TEXT
5
FBBF
330
F97F
100
AcDbEntity
100
AcDbText
8
METIN_BILGI
10
4
20
7.917000000000001
30
0
40
0.042
1
ANT-2 (0°)
50
0
7
STANDARD
72
1
11
4
21
7.917000000000001
31
0
100
AcDbText
73
2
0
TEXT
5
FBE5
330
F97F
100
AcDbEntity
100
AcDbText
8
METIN_BILGI
10
4.85
20
8.117
30
0
40
0.042
1
ANT-3 (+20°)
50
0
7
STANDARD
72
1
11
4.85
21
8.117
31
0
100
AcDbText
73
2
0
LWPOLYLINE
5
FBE6
330
F97F
100
AcDbEntity
100
AcDbPolyline
8
METIN_BILGI
6
ByLayer
62
256
370
-1
90
4
70
1
10
-9.1
20
5.9
10
-9.1
20
11.3
10
9.4
20
11.3
10
9.4
20
5.9
0
TEXT
5
FBE7
330
F97F
100
AcDbEntity
100
AcDbText
8
METIN_BILGI
10
-8.8
20
11
30
0
40
0.18
1
BOLUM 3: 3'LU (TRIPLE) GAMMA NU SPOT BEAM DIZI VE ACISAL KAPSAMA PLANI
50
0
7
STANDARD
100
AcDbText
0
TEXT
5
FC1D
330
F97F
100
AcDbEntity
100
AcDbText
8
METIN_BILGI
10
-14.100449671326164
20
2.3600000000000003
30
0
40
0.038
1
CATI MAKASI ANA BORUSU (Ø280mm)
50
0
7
STANDARD
72
0
11
-14.100449671326164
21
2.3600000000000003
31
0
100
AcDbText
73
2
0
TEXT
5
FC1E
330
F97F
100
AcDbEntity
100
AcDbText
8
METIN_BILGI
10
-14.481567726704576
20
1.1821658079738768
30
0
40
0.032
1
2x Ø70mm OFSET ASKI BORUSU
50
0
7
STANDARD
72
2
11
-14.481567726704576
21
1.1821658079738768
31
0
100
AcDbText
73
2
0
TEXT
5
FC1F
330
F97F
100
AcDbEntity
100
AcDbText
8
METIN_BILGI
10
-14.094331615947754
20
0.43656772670457444
30
0
40
0.028
1
CAPRAZ GECIS KELEPCESI (M14)
50
0
7
STANDARD
72
0
11
-14.094331615947754
21
0.43656772670457444
31
0
100
AcDbText
73
2
0
TEXT
5
FC2E
330
F97F
100
AcDbEntity
100
AcDbText
8
METIN_BILGI
10
-14
20
-0.5700000000000001
30
0
40
0.045
1
LOKASYON A: 45m CATI MAKASI ASKILI KESIT
50
0
7
STANDARD
72
1
11
-14
21
-0.5700000000000001
31
0
100
AcDbText
73
2
0
TEXT
5
FC2F
330
F97F
100
AcDbEntity
100
AcDbText
8
METIN_BILGI
10
-14
20
-0.6300000000000001
30
0
40
0.032
1
Gamma Nu Spot Beam 30/30 (One ve Yere 45° Egim)
50
0
7
STANDARD
72
1
11
-14
21
-0.6300000000000001
31
0
100
AcDbText
73
2
0
TEXT
5
FC64
330
F97F
100
AcDbEntity
100
AcDbText
8
METIN_BILGI
10
-4.556567726704574
20
2.95
30
0
40
0.055
1
SKORBOARD DEV BORU (Ø1500mm)
50
0
7
STANDARD
72
1
11
-4.556567726704574
21
2.95
31
0
100
AcDbText
73
2
0
TEXT
5
FC65
330
F97F
100
AcDbEntity
100
AcDbText
8
METIN_BILGI
10
-4.556567726704574
20
2.8600000000000003
30
0
40
0.036000000000000004
1
360° Cember Kelepce Bilezigi (M24)
50
0
7
STANDARD
72
1
11
-4.556567726704574
21
2.8600000000000003
31
0
100
AcDbText
73
2
0
TEXT
5
FC66
330
F97F
100
AcDbEntity
100
AcDbText
8
METIN_BILGI
10
-4.506567726704574
20
1.1821658079738768
30
0
40
0.032
1
Ø114mm x 2090mm TASIYICI BORU
50
0
7
STANDARD
72
2
11
-4.506567726704574
21
1.1821658079738768
31
0
100
AcDbText
73
2
0
TEXT
5
FC75
330
F97F
100
AcDbEntity
100
AcDbText
8
METIN_BILGI
10
-4
20
-0.5700000000000001
30
0
40
0.045
1
LOKASYON B: SKORBOARD Ø1500mm BORU CEMBER KESITI
50
0
7
STANDARD
72
1
11
-4
21
-0.5700000000000001
31
0
100
AcDbText
73
2
0
TEXT
5
FC76
330
F97F
100
AcDbEntity
100
AcDbText
8
METIN_BILGI
10
-4
20
-0.6300000000000001
30
0
40
0.032
1
Gamma Nu Spot Beam 30/30 (One ve Yere 45° Egim)
50
0
7
STANDARD
72
1
11
-4
21
-0.6300000000000001
31
0
100
AcDbText
73
2
0
TEXT
5
FCB2
330
F97F
100
AcDbEntity
100
AcDbText
8
METIN_BILGI
10
4.883432273295426
20
2.35
30
0
40
0.036000000000000004
1
KEDI YOLU (900mm)
50
0
7
STANDARD
72
1
11
4.883432273295426
21
2.35
31
0
100
AcDbText
73
2
0
TEXT
5
FCB3
330
F97F
100
AcDbEntity
100
AcDbText
8
METIN_BILGI
10
4.713432273295426
20
1.2415
30
0
40
0.03
1
Ø45.7cm SILINDIR BORU
50
0
7
STANDARD
72
1
11
4.713432273295426
21
1.2415
31
0
100
AcDbText
73
2
0
TEXT
5
FCC2
330
F97F
100
AcDbEntity
100
AcDbText
8
METIN_BILGI
10
5.5
20
-0.5700000000000001
30
0
40
0.045
1
LOKASYON C: CATI UCU KEDI YOLU & Ø45.7cm SILINDIR KESITI
50
0
7
STANDARD
72
1
11
5.5
21
-0.5700000000000001
31
0
100
AcDbText
73
2
0
TEXT
5
FCC3
330
F97F
100
AcDbEntity
100
AcDbText
8
METIN_BILGI
10
5.5
20
-0.6300000000000001
30
0
40
0.032
1
Gamma Nu Spot Beam 30/30 (One ve Yere 45° Egim)
50
0
7
STANDARD
72
1
11
5.5
21
-0.6300000000000001
31
0
100
AcDbText
73
2
0
LWPOLYLINE
5
FCC4
330
F97F
100
AcDbEntity
100
AcDbPolyline
8
METIN_BILGI
6
ByLayer
62
256
370
-1
90
4
70
1
10
-18
20
-2.6
10
-18
20
4.199999999999999
10
8
20
4.199999999999999
10
8
20
-2.6
0
TEXT
5
FCC5
330
F97F
100
AcDbEntity
100
AcDbText
8
METIN_BILGI
10
-17.5
20
3.9
30
0
40
0.18
1
BOLUM 4: LOKASYON BAZLI MONTAJ VE ASKI SISTEMI KESITLERI (TUM TRIBUN VE CATILAR)
50
0
7
STANDARD
100
AcDbText
0
LWPOLYLINE
5
FCC6
330
F97F
100
AcDbEntity
100
AcDbPolyline
8
METIN_BILGI
6
ByLayer
62
256
370
-1
90
4
70
1
10
13.5
20
1.4000000000000001
10
13.5
20
6.200000000000001
10
24.7
20
6.200000000000001
10
24.7
20
1.4000000000000001
0
TEXT
5
FCC7
330
F97F
100
AcDbEntity
100
AcDbText
8
METIN_BILGI
10
13.7
20
5.900000000000001
30
0
40
0.24
1
EKIPMAN VE ALTYAPI YERLESIM CETVELI (BOM)
50
0
7
STANDARD
100
AcDbText
0
LINE
5
FCC8
330
F97F
100
AcDbEntity
100
AcDbLine
8
METIN_BILGI
10
13.5
20
5.800000000000001
30
0
11
24.7
21
5.800000000000001
31
0
0
LINE
5
FCC9
330
F97F
100
AcDbEntity
100
AcDbLine
8
METIN_BILGI
10
13.5
20
5.4
30
0
11
24.7
21
5.4
31
0
0
LINE
5
FCCA
330
F97F
100
AcDbEntity
100
AcDbLine
8
METIN_BILGI
10
14.7
20
1.4000000000000001
30
0
11
14.7
21
5.800000000000001
31
0
0
LINE
5
FCCB
330
F97F
100
AcDbEntity
100
AcDbLine
8
METIN_BILGI
10
20.7
20
1.4000000000000001
30
0
11
20.7
21
5.800000000000001
31
0
0
LINE
5
FCCC
330
F97F
100
AcDbEntity
100
AcDbLine
8
METIN_BILGI
10
23.2
20
1.4000000000000001
30
0
11
23.2
21
5.800000000000001
31
0
0
TEXT
5
FCCD
330
F97F
100
AcDbEntity
100
AcDbText
8
METIN_BILGI
10
13.6
20
5.5200000000000005
30
0
40
0.18
1
NO
50
0
7
STANDARD
100
AcDbText
0
TEXT
5
FCCE
330
F97F
100
AcDbEntity
100
AcDbText
8
METIN_BILGI
10
14.799999999999999
20
5.5200000000000005
30
0
40
0.18
1
EKIPMAN TANIMI
50
0
7
STANDARD
100
AcDbText
0
TEXT
5
FCCF
330
F97F
100
AcDbEntity
100
AcDbText
8
METIN_BILGI
10
20.8
20
5.5200000000000005
30
0
40
0.18
1
BOYUTLAR (GxDxY)
50
0
7
STANDARD
100
AcDbText
0
TEXT
5
FCD0
330
F97F
100
AcDbEntity
100
AcDbText
8
METIN_BILGI
10
23.3
20
5.5200000000000005
30
0
40
0.18
1
ADET
50
0
7
STANDARD
100
AcDbText
0
LINE
5
FCD1
330
F97F
100
AcDbEntity
100
AcDbLine
8
METIN_BILGI
10
13.5
20
5.000000000000001
30
0
11
24.7
21
5.000000000000001
31
0
0
TEXT
5
FCD2
330
F97F
100
AcDbEntity
100
AcDbText
8
METIN_BILGI
10
13.6
20
5.120000000000001
30
0
40
0.16
1
1
50
0
7
STANDARD
100
AcDbText
0
TEXT
5
FCD3
330
F97F
100
AcDbEntity
100
AcDbText
8
METIN_BILGI
10
14.799999999999999
20
5.120000000000001
30
0
40
0.16
1
Gamma Nu Spot Beam 30/30 Panel Anten (DOY15X3030MD4TRE)
50
0
7
STANDARD
100
AcDbText
0
TEXT
5
FCD4
330
F97F
100
AcDbEntity
100
AcDbText
8
METIN_BILGI
10
20.8
20
5.120000000000001
30
0
40
0.16
1
700x700x170 mm
50
0
7
STANDARD
100
AcDbText
0
TEXT
5
FCD5
330
F97F
100
AcDbEntity
100
AcDbText
8
METIN_BILGI
10
23.3
20
5.120000000000001
30
0
40
0.16
1
Tipik
50
0
7
STANDARD
100
AcDbText
0
LINE
5
FCD6
330
F97F
100
AcDbEntity
100
AcDbLine
8
METIN_BILGI
10
13.5
20
4.6000000000000005
30
0
11
24.7
21
4.6000000000000005
31
0
0
TEXT
5
FCD7
330
F97F
100
AcDbEntity
100
AcDbText
8
METIN_BILGI
10
13.6
20
4.720000000000001
30
0
40
0.16
1
2
50
0
7
STANDARD
100
AcDbText
0
TEXT
5
FCD8
330
F97F
100
AcDbEntity
100
AcDbText
8
METIN_BILGI
10
14.799999999999999
20
4.720000000000001
30
0
40
0.16
1
Agir Hizmet Konsol Egim Braketi (0-60° Tilt, 251mm Ofset)
50
0
7
STANDARD
100
AcDbText
0
TEXT
5
FCD9
330
F97F
100
AcDbEntity
100
AcDbText
8
METIN_BILGI
10
20.8
20
4.720000000000001
30
0
40
0.16
1
140x455x251 mm
50
0
7
STANDARD
100
AcDbText
0
TEXT
5
FCDA
330
F97F
100
AcDbEntity
100
AcDbText
8
METIN_BILGI
10
23.3
20
4.720000000000001
30
0
40
0.16
1
1 / Anten
50
0
7
STANDARD
100
AcDbText
0
LINE
5
FCDB
330
F97F
100
AcDbEntity
100
AcDbLine
8
METIN_BILGI
10
13.5
20
4.200000000000001
30
0
11
24.7
21
4.200000000000001
31
0
0
TEXT
5
FCDC
330
F97F
100
AcDbEntity
100
AcDbText
8
METIN_BILGI
10
13.6
20
4.320000000000001
30
0
40
0.16
1
3
50
0
7
STANDARD
100
AcDbText
0
TEXT
5
FCDD
330
F97F
100
AcDbEntity
100
AcDbText
8
METIN_BILGI
10
14.799999999999999
20
4.320000000000001
30
0
40
0.16
1
Tasiyici Direk Borusu (3" Galvanizli Celik Direk)
50
0
7
STANDARD
100
AcDbText
0
TEXT
5
FCDE
330
F97F
100
AcDbEntity
100
AcDbText
8
METIN_BILGI
10
20.8
20
4.320000000000001
30
0
40
0.16
1
Ø76.2mm x 950mm
50
0
7
STANDARD
100
AcDbText
0
TEXT
5
FCDF
330
F97F
100
AcDbEntity
100
AcDbText
8
METIN_BILGI
10
23.3
20
4.320000000000001
30
0
40
0.16
1
1 / Anten
50
0
7
STANDARD
100
AcDbText
0
LINE
5
FCE0
330
F97F
100
AcDbEntity
100
AcDbLine
8
METIN_BILGI
10
13.5
20
3.8000000000000007
30
0
11
24.7
21
3.8000000000000007
31
0
0
TEXT
5
FCE1
330
F97F
100
AcDbEntity
100
AcDbText
8
METIN_BILGI
10
13.6
20
3.920000000000001
30
0
40
0.16
1
4
50
0
7
STANDARD
100
AcDbText
0
TEXT
5
FCE2
330
F97F
100
AcDbEntity
100
AcDbText
8
METIN_BILGI
10
14.799999999999999
20
3.920000000000001
30
0
40
0.16
1
Cift Dusey Ofset Aski Borusu (Galvaniz Celik)
50
0
7
STANDARD
100
AcDbText
0
TEXT
5
FCE3
330
F97F
100
AcDbEntity
100
AcDbText
8
METIN_BILGI
10
20.8
20
3.920000000000001
30
0
40
0.16
1
2x Ø70mm x 2200mm
50
0
7
STANDARD
100
AcDbText
0
TEXT
5
FCE4
330
F97F
100
AcDbEntity
100
AcDbText
8
METIN_BILGI
10
23.3
20
3.920000000000001
30
0
40
0.16
1
2 / Anten
50
0
7
STANDARD
100
AcDbText
0
LINE
5
FCE5
330
F97F
100
AcDbEntity
100
AcDbLine
8
METIN_BILGI
10
13.5
20
3.4000000000000004
30
0
11
24.7
21
3.4000000000000004
31
0
0
TEXT
5
FCE6
330
F97F
100
AcDbEntity
100
AcDbText
8
METIN_BILGI
10
13.6
20
3.5200000000000005
30
0
40
0.16
1
5
50
0
7
STANDARD
100
AcDbText
0
TEXT
5
FCE7
330
F97F
100
AcDbEntity
100
AcDbText
8
METIN_BILGI
10
14.799999999999999
20
3.5200000000000005
30
0
40
0.16
1
Agir Hizmet Capraz Gecis Kelepceleri (Crossover Clamps)
50
0
7
STANDARD
100
AcDbText
0
TEXT
5
FCE8
330
F97F
100
AcDbEntity
100
AcDbText
8
METIN_BILGI
10
20.8
20
3.5200000000000005
30
0
40
0.16
1
130x110x130 mm / M14
50
0
7
STANDARD
100
AcDbText
0
TEXT
5
FCE9
330
F97F
100
AcDbEntity
100
AcDbText
8
METIN_BILGI
10
23.3
20
3.5200000000000005
30
0
40
0.16
1
2 / Anten
50
0
7
STANDARD
100
AcDbText
0
LINE
5
FCEA
330
F97F
100
AcDbEntity
100
AcDbLine
8
METIN_BILGI
10
13.5
20
3.0000000000000004
30
0
11
24.7
21
3.0000000000000004
31
0
0
TEXT
5
FCEB
330
F97F
100
AcDbEntity
100
AcDbText
8
METIN_BILGI
10
13.6
20
3.1200000000000006
30
0
40
0.16
1
6
50
0
7
STANDARD
100
AcDbText
0
TEXT
5
FCEC
330
F97F
100
AcDbEntity
100
AcDbText
8
METIN_BILGI
10
14.799999999999999
20
3.1200000000000006
30
0
40
0.16
1
2'li Ikili Montaj Traversi (Kutu Profil)
50
0
7
STANDARD
100
AcDbText
0
TEXT
5
FCED
330
F97F
100
AcDbEntity
100
AcDbText
8
METIN_BILGI
10
20.8
20
3.1200000000000006
30
0
40
0.16
1
100x60x5mm x 2000mm
50
0
7
STANDARD
100
AcDbText
0
TEXT
5
FCEE
330
F97F
100
AcDbEntity
100
AcDbText
8
METIN_BILGI
10
23.3
20
3.1200000000000006
30
0
40
0.16
1
Opsiyon
50
0
7
STANDARD
100
AcDbText
0
LINE
5
FCEF
330
F97F
100
AcDbEntity
100
AcDbLine
8
METIN_BILGI
10
13.5
20
2.6000000000000005
30
0
11
24.7
21
2.6000000000000005
31
0
0
TEXT
5
FCF0
330
F97F
100
AcDbEntity
100
AcDbText
8
METIN_BILGI
10
13.6
20
2.7200000000000006
30
0
40
0.16
1
7
50
0
7
STANDARD
100
AcDbText
0
TEXT
5
FCF1
330
F97F
100
AcDbEntity
100
AcDbText
8
METIN_BILGI
10
14.799999999999999
20
2.7200000000000006
30
0
40
0.16
1
3'lu Moduler Kafes Kiris Sasisi (Agir Hizmet)
50
0
7
STANDARD
100
AcDbText
0
TEXT
5
FCF2
330
F97F
100
AcDbEntity
100
AcDbText
8
METIN_BILGI
10
20.8
20
2.7200000000000006
30
0
40
0.16
1
120x80x6mm x 3000mm
50
0
7
STANDARD
100
AcDbText
0
TEXT
5
FCF3
330
F97F
100
AcDbEntity
100
AcDbText
8
METIN_BILGI
10
23.3
20
2.7200000000000006
30
0
40
0.16
1
Opsiyon
50
0
7
STANDARD
100
AcDbText
0
LINE
5
FCF4
330
F97F
100
AcDbEntity
100
AcDbLine
8
METIN_BILGI
10
13.5
20
2.2000000000000006
30
0
11
24.7
21
2.2000000000000006
31
0
0
TEXT
5
FCF5
330
F97F
100
AcDbEntity
100
AcDbText
8
METIN_BILGI
10
13.6
20
2.3200000000000007
30
0
40
0.16
1
8
50
0
7
STANDARD
100
AcDbText
0
TEXT
5
FCF6
330
F97F
100
AcDbEntity
100
AcDbText
8
METIN_BILGI
10
14.799999999999999
20
2.3200000000000007
30
0
40
0.16
1
1/2" Feeder Jumper Kablo Seti (4.3-10 DIN Disi)
50
0
7
STANDARD
100
AcDbText
0
TEXT
5
FCF7
330
F97F
100
AcDbEntity
100
AcDbText
8
METIN_BILGI
10
20.8
20
2.3200000000000007
30
0
40
0.16
1
4 Port / Anten
50
0
7
STANDARD
100
AcDbText
0
TEXT
5
FCF8
330
F97F
100
AcDbEntity
100
AcDbText
8
METIN_BILGI
10
23.3
20
2.3200000000000007
30
0
40
0.16
1
4 / Anten
50
0
7
STANDARD
100
AcDbText
0
LINE
5
FCF9
330
F97F
100
AcDbEntity
100
AcDbLine
8
METIN_BILGI
10
13.5
20
1.8000000000000007
30
0
11
24.7
21
1.8000000000000007
31
0
0
TEXT
5
FCFA
330
F97F
100
AcDbEntity
100
AcDbText
8
METIN_BILGI
10
13.6
20
1.9200000000000008
30
0
40
0.16
1
9
50
0
7
STANDARD
100
AcDbText
0
TEXT
5
FCFB
330
F97F
100
AcDbEntity
100
AcDbText
8
METIN_BILGI
10
14.799999999999999
20
1.9200000000000008
30
0
40
0.16
1
Skorboard Ø1500mm 360° Cember Kelepce Bilezigi
50
0
7
STANDARD
100
AcDbText
0
TEXT
5
FCFC
330
F97F
100
AcDbEntity
100
AcDbText
8
METIN_BILGI
10
20.8
20
1.9200000000000008
30
0
40
0.16
1
Ø1590x200x20 mm
50
0
7
STANDARD
100
AcDbText
0
TEXT
5
FCFD
330
F97F
100
AcDbEntity
100
AcDbText
8
METIN_BILGI
10
23.3
20
1.9200000000000008
30
0
40
0.16
1
Skorboard
50
0
7
STANDARD
100
AcDbText
0
LINE
5
FCFE
330
F97F
100
AcDbEntity
100
AcDbLine
8
METIN_BILGI
10
13.5
20
1.4000000000000004
30
0
11
24.7
21
1.4000000000000004
31
0
0
TEXT
5
FCFF
330
F97F
100
AcDbEntity
100
AcDbText
8
METIN_BILGI
10
13.6
20
1.5200000000000005
30
0
40
0.16
1
10
50
0
7
STANDARD
100
AcDbText
0
TEXT
5
FD00
330
F97F
100
AcDbEntity
100
AcDbText
8
METIN_BILGI
10
14.799999999999999
20
1.5200000000000005
30
0
40
0.16
1
Skorboard Ana Dusey Tasiyici Boru
50
0
7
STANDARD
100
AcDbText
0
TEXT
5
FD01
330
F97F
100
AcDbEntity
100
AcDbText
8
METIN_BILGI
10
20.8
20
1.5200000000000005
30
0
40
0.16
1
Ø114mm x 2090mm
50
0
7
STANDARD
100
AcDbText
0
TEXT
5
FD02
330
F97F
100
AcDbEntity
100
AcDbText
8
METIN_BILGI
10
23.3
20
1.5200000000000005
30
0
40
0.16
1
Skorboard
50
0
7
STANDARD
100
AcDbText
0
LWPOLYLINE
5
FD03
330
F97F
100
AcDbEntity
100
AcDbPolyline
8
METIN_BILGI
6
ByLayer
62
256
370
-1
90
4
70
1
10
13.5
20
-2.4
10
13.5
20
-0.19999999999999973
10
21.5
20
-0.19999999999999973
10
21.5
20
-2.4
0
LINE
5
FD04
330
F97F
100
AcDbEntity
100
AcDbLine
8
METIN_BILGI
10
13.5
20
-0.9999999999999998
30
0
11
21.5
21
-0.9999999999999998
31
0
0
LINE
5
FD05
330
F97F
100
AcDbEntity
100
AcDbLine
8
METIN_BILGI
10
13.5
20
-1.6999999999999997
30
0
11
21.5
21
-1.6999999999999997
31
0
0
LINE
5
FD06
330
F97F
100
AcDbEntity
100
AcDbLine
8
METIN_BILGI
10
18
20
-2.4
30
0
11
18
21
-0.9999999999999998
31
0
0
TEXT
5
FD07
330
F97F
100
AcDbEntity
100
AcDbText
8
METIN_BILGI
10
13.7
20
-0.7499999999999998
30
0
40
0.32
1
GALATASARAY STADYUMU GSM ALTYAPI PROJESI
50
0
7
STANDARD
100
AcDbText
0
TEXT
5
FD08
330
F97F
100
AcDbEntity
100
AcDbText
8
METIN_BILGI
10
13.7
20
-1.4499999999999997
30
0
40
0.26
1
ALAN: GAMMA NU SPOT BEAM 30/30 PANEL ANTENLERI TUM LOKASYONLAR KESITLERI (TEKLI, 2'LI, 3'LU) (DETAY KESIT PAFTASI)
50
0
7
STANDARD
100
AcDbText
0
TEXT
5
FD09
330
F97F
100
AcDbEntity
100
AcDbText
8
METIN_BILGI
10
13.7
20
-2.12
30
0
40
0.2
1
OLCEK: 1:1 m (1:1 m)
50
0
7
STANDARD
100
AcDbText
0
TEXT
5
FD0A
330
F97F
100
AcDbEntity
100
AcDbText
8
METIN_BILGI
10
18.2
20
-1.4499999999999997
30
0
40
0.18
1
CIZIM: ANTIGRAVITY CAD / BIM
50
0
7
STANDARD
100
AcDbText
0
TEXT
5
FD0B
330
F97F
100
AcDbEntity
100
AcDbText
8
METIN_BILGI
10
18.2
20
-2.12
30
0
40
0.18
1
TARIH: 2026-10-05
50
0
7
STANDARD
100
AcDbText
0
CIRCLE
5
FD0C
330
F97F
100
AcDbEntity
100
AcDbCircle
8
METIN_BILGI
10
12
20
-1.2999999999999998
30
0
40
0.8
0
LINE
5
FD0D
330
F97F
100
AcDbEntity
100
AcDbLine
8
METIN_BILGI
10
12
20
-2.02
30
0
11
12
21
-0.5799999999999997
31
0
0
LINE
5
FD0E
330
F97F
100
AcDbEntity
100
AcDbLine
8
METIN_BILGI
10
12
20
-0.5799999999999997
30
0
11
11.75
21
-0.9999999999999998
31
0
0
LINE
5
FD0F
330
F97F
100
AcDbEntity
100
AcDbLine
8
METIN_BILGI
10
12
20
-0.5799999999999997
30
0
11
12.25
21
-0.9999999999999998
31
0
0
TEXT
5
FD10
330
F97F
100
AcDbEntity
100
AcDbText
8
METIN_BILGI
10
12
20
-0.29999999999999977
30
0
40
0.3
1
K
50
0
7
STANDARD
72
1
11
12
21
-0.29999999999999977
31
0
100
AcDbText
73
2
0
LWPOLYLINE
5
F99B
330
F97F
100
AcDbEntity
100
AcDbPolyline
8
EKP_PANEL_ANTEN
6
ByLayer
62
256
370
-1
90
4
70
1
10
-18.35
20
16.65
10
-18.35
20
17.349999999999998
10
-17.650000000000002
20
17.349999999999998
10
-17.650000000000002
20
16.65
0
LINE
5
F99C
330
F97F
100
AcDbEntity
100
AcDbLine
8
EKP_PANEL_ANTEN
10
-18.335
20
16.665
30
0
11
-17.665
21
17.335
31
0
0
LINE
5
F99D
330
F97F
100
AcDbEntity
100
AcDbLine
8
EKP_PANEL_ANTEN
10
-18.335
20
17.335
30
0
11
-17.665
21
16.665
31
0
0
LINE
5
F99E
330
F97F
100
AcDbEntity
100
AcDbLine
8
EKP_PANEL_ANTEN
10
-18.327
20
16.665
30
0
11
-17.665
21
17.327
31
0
0
LINE
5
F99F
330
F97F
100
AcDbEntity
100
AcDbLine
8
EKP_PANEL_ANTEN
10
-18.335
20
16.673
30
0
11
-17.673
21
17.335
31
0
0
LINE
5
F9A0
330
F97F
100
AcDbEntity
100
AcDbLine
8
EKP_PANEL_ANTEN
10
-18.327
20
17.335
30
0
11
-17.665
21
16.673
31
0
0
LINE
5
F9A1
330
F97F
100
AcDbEntity
100
AcDbLine
8
EKP_PANEL_ANTEN
10
-18.335
20
17.327
30
0
11
-17.673
21
16.665
31
0
0
CIRCLE
5
F9A2
330
F97F
100
AcDbEntity
100
AcDbCircle
8
EKP_PANEL_ANTEN
10
-18
20
17
30
0
40
0.018000000000000002
0
LINE
5
F9A3
330
F97F
100
AcDbEntity
100
AcDbLine
8
EKP_PANEL_ANTEN
10
-18.035
20
17
30
0
11
-17.965
21
17
31
0
0
LINE
5
F9A4
330
F97F
100
AcDbEntity
100
AcDbLine
8
EKP_PANEL_ANTEN
10
-18
20
16.965
30
0
11
-18
21
17.035
31
0
0
LWPOLYLINE
5
F9A5
330
F97F
100
AcDbEntity
100
AcDbPolyline
8
EKP_PANEL_ANTEN
6
ByLayer
62
256
370
-1
90
4
70
1
10
-18.335
20
16.665
10
-18.335
20
17.335
10
-17.665
20
17.335
10
-17.665
20
16.665
0
LINE
5
F9C1
330
F97F
100
AcDbEntity
100
AcDbLine
8
EKP_PANEL_ANTEN
10
-11.812616702985565
20
17.316076731190385
30
0
11
-11.679680628122494
21
17.183140656327314
31
0
0
LINE
5
F9C2
330
F97F
100
AcDbEntity
100
AcDbLine
8
EKP_PANEL_ANTEN
10
-11.679680628122494
20
17.183140656327314
30
0
11
-11.703015151901651
21
17.176776695296635
31
0
0
LINE
5
F9C3
330
F97F
100
AcDbEntity
100
AcDbLine
8
EKP_PANEL_ANTEN
10
-11.703015151901651
20
17.176776695296635
30
0
11
-11.927168001537785
21
16.927168001537787
31
0
0
LINE
5
F9C4
330
F97F
100
AcDbEntity
100
AcDbLine
8
EKP_PANEL_ANTEN
10
-11.927168001537785
20
16.927168001537787
30
0
11
-12.176776695296637
21
16.70301515190165
31
0
0
LINE
5
F9C5
330
F97F
100
AcDbEntity
100
AcDbLine
8
EKP_PANEL_ANTEN
10
-12.176776695296637
20
16.70301515190165
30
0
11
-12.183140656327314
21
16.679680628122494
31
0
0
LINE
5
F9C6
330
F97F
100
AcDbEntity
100
AcDbLine
8
EKP_PANEL_ANTEN
10
-12.183140656327314
20
16.679680628122494
30
0
11
-12.316076731190385
21
16.812616702985565
31
0
0
LINE
5
F9C7
330
F97F
100
AcDbEntity
100
AcDbLine
8
EKP_PANEL_ANTEN
10
-12.316076731190385
20
16.812616702985565
30
0
11
-12.29274220741123
21
16.827465945390482
31
0
0
LINE
5
F9C8
330
F97F
100
AcDbEntity
100
AcDbLine
8
EKP_PANEL_ANTEN
10
-12.29274220741123
20
16.827465945390482
30
0
11
-11.827465945390482
21
17.292742207411234
31
0
0
LINE
5
F9C9
330
F97F
100
AcDbEntity
100
AcDbLine
8
EKP_PANEL_ANTEN
10
-11.827465945390482
20
17.292742207411234
30
0
11
-11.812616702985565
21
17.316076731190385
31
0
0
LINE
5
F9CA
330
F97F
100
AcDbEntity
100
AcDbLine
8
EKP_PANEL_ANTEN
10
-11.692408550183853
20
17.187383297014435
30
0
11
-12.187383297014435
21
16.69240855018385
31
0
0
LINE
5
FA09
330
F97F
100
AcDbEntity
100
AcDbLine
8
EKP_PANEL_ANTEN
10
-6.35
20
16.915
30
0
11
-5.65
21
16.915
31
0
0
LINE
5
FA0A
330
F97F
100
AcDbEntity
100
AcDbLine
8
EKP_PANEL_ANTEN
10
-5.65
20
16.915
30
0
11
-5.65
21
17.085
31
0
0
LINE
5
FA0B
330
F97F
100
AcDbEntity
100
AcDbLine
8
EKP_PANEL_ANTEN
10
-5.65
20
17.085
30
0
11
-6
21
17.103
31
0
0
LINE
5
FA0C
330
F97F
100
AcDbEntity
100
AcDbLine
8
EKP_PANEL_ANTEN
10
-6
20
17.103
30
0
11
-6.35
21
17.085
31
0
0
LINE
5
FA0D
330
F97F
100
AcDbEntity
100
AcDbLine
8
EKP_PANEL_ANTEN
10
-6.35
20
17.085
30
0
11
-6.35
21
16.915
31
0
0
LINE
5
FA0E
330
F97F
100
AcDbEntity
100
AcDbLine
8
EKP_PANEL_ANTEN
10
-6
20
17.103
30
0
11
-6
21
16.915
31
0
0
LWPOLYLINE
5
FA34
330
F97F
100
AcDbEntity
100
AcDbPolyline
8
EKP_PANEL_ANTEN
6
ByLayer
62
256
370
-1
90
4
70
1
10
7.65
20
16.65
10
7.65
20
17.349999999999998
10
8.35
20
17.349999999999998
10
8.35
20
16.65
0
LINE
5
FA35
330
F97F
100
AcDbEntity
100
AcDbLine
8
EKP_PANEL_ANTEN
10
7.665
20
16.665
30
0
11
8.335
21
17.335
31
0
0
LINE
5
FA36
330
F97F
100
AcDbEntity
100
AcDbLine
8
EKP_PANEL_ANTEN
10
7.665
20
17.335
30
0
11
8.335
21
16.665
31
0
0
LINE
5
FA37
330
F97F
100
AcDbEntity
100
AcDbLine
8
EKP_PANEL_ANTEN
10
7.673
20
16.665
30
0
11
8.335
21
17.327
31
0
0
LINE
5
FA38
330
F97F
100
AcDbEntity
100
AcDbLine
8
EKP_PANEL_ANTEN
10
7.665
20
16.673
30
0
11
8.327000000000002
21
17.335
31
0
0
LINE
5
FA39
330
F97F
100
AcDbEntity
100
AcDbLine
8
EKP_PANEL_ANTEN
10
7.673
20
17.335
30
0
11
8.335
21
16.673
31
0
0
LINE
5
FA3A
330
F97F
100
AcDbEntity
100
AcDbLine
8
EKP_PANEL_ANTEN
10
7.665
20
17.327
30
0
11
8.327000000000002
21
16.665
31
0
0
CIRCLE
5
FA3B
330
F97F
100
AcDbEntity
100
AcDbCircle
8
EKP_PANEL_ANTEN
10
8
20
17
30
0
40
0.018000000000000002
0
LINE
5
FA3C
330
F97F
100
AcDbEntity
100
AcDbLine
8
EKP_PANEL_ANTEN
10
7.965
20
17
30
0
11
8.035
21
17
31
0
0
LINE
5
FA3D
330
F97F
100
AcDbEntity
100
AcDbLine
8
EKP_PANEL_ANTEN
10
8
20
16.965
30
0
11
8
21
17.035
31
0
0
LWPOLYLINE
5
FA3E
330
F97F
100
AcDbEntity
100
AcDbPolyline
8
EKP_PANEL_ANTEN
6
ByLayer
62
256
370
-1
90
4
70
1
10
7.665
20
16.665
10
7.665
20
17.335
10
8.335
20
17.335
10
8.335
20
16.665
0
LWPOLYLINE
5
FA5D
330
F97F
100
AcDbEntity
100
AcDbPolyline
8
EKP_PANEL_ANTEN
6
ByLayer
62
256
370
-1
90
4
70
1
10
8.65
20
16.65
10
8.65
20
17.349999999999998
10
9.35
20
17.349999999999998
10
9.35
20
16.65
0
LINE
5
FA5E
330
F97F
100
AcDbEntity
100
AcDbLine
8
EKP_PANEL_ANTEN
10
8.665
20
16.665
30
0
11
9.335
21
17.335
31
0
0
LINE
5
FA5F
330
F97F
100
AcDbEntity
100
AcDbLine
8
EKP_PANEL_ANTEN
10
8.665
20
17.335
30
0
11
9.335
21
16.665
31
0
0
LINE
5
FA60
330
F97F
100
AcDbEntity
100
AcDbLine
8
EKP_PANEL_ANTEN
10
8.672999999999998
20
16.665
30
0
11
9.335
21
17.327
31
0
0
LINE
5
FA61
330
F97F
100
AcDbEntity
100
AcDbLine
8
EKP_PANEL_ANTEN
10
8.665
20
16.673
30
0
11
9.327000000000002
21
17.335
31
0
0
LINE
5
FA62
330
F97F
100
AcDbEntity
100
AcDbLine
8
EKP_PANEL_ANTEN
10
8.672999999999998
20
17.335
30
0
11
9.335
21
16.673
31
0
0
LINE
5
FA63
330
F97F
100
AcDbEntity
100
AcDbLine
8
EKP_PANEL_ANTEN
10
8.665
20
17.327
30
0
11
9.327000000000002
21
16.665
31
0
0
CIRCLE
5
FA64
330
F97F
100
AcDbEntity
100
AcDbCircle
8
EKP_PANEL_ANTEN
10
9
20
17
30
0
40
0.018000000000000002
0
LINE
5
FA65
330
F97F
100
AcDbEntity
100
AcDbLine
8
EKP_PANEL_ANTEN
10
8.965
20
17
30
0
11
9.035
21
17
31
0
0
LINE
5
FA66
330
F97F
100
AcDbEntity
100
AcDbLine
8
EKP_PANEL_ANTEN
10
9
20
16.965
30
0
11
9
21
17.035
31
0
0
LWPOLYLINE
5
FA67
330
F97F
100
AcDbEntity
100
AcDbPolyline
8
EKP_PANEL_ANTEN
6
ByLayer
62
256
370
-1
90
4
70
1
10
8.665
20
16.665
10
8.665
20
17.335
10
9.334999999999999
20
17.335
10
9.334999999999999
20
16.665
0
LINE
5
FA99
330
F97F
100
AcDbEntity
100
AcDbLine
8
EKP_PANEL_ANTEN
10
16.187383297014435
20
17.316076731190385
30
0
11
16.320319371877506
21
17.183140656327314
31
0
0
LINE
5
FA9A
330
F97F
100
AcDbEntity
100
AcDbLine
8
EKP_PANEL_ANTEN
10
16.320319371877506
20
17.183140656327314
30
0
11
16.29698484809835
21
17.176776695296635
31
0
0
LINE
5
FA9B
330
F97F
100
AcDbEntity
100
AcDbLine
8
EKP_PANEL_ANTEN
10
16.29698484809835
20
17.176776695296635
30
0
11
16.072831998462213
21
16.927168001537787
31
0
0
LINE
5
FA9C
330
F97F
100
AcDbEntity
100
AcDbLine
8
EKP_PANEL_ANTEN
10
16.072831998462213
20
16.927168001537787
30
0
11
15.823223304703365
21
16.70301515190165
31
0
0
LINE
5
FA9D
330
F97F
100
AcDbEntity
100
AcDbLine
8
EKP_PANEL_ANTEN
10
15.823223304703365
20
16.70301515190165
30
0
11
15.816859343672686
21
16.679680628122494
31
0
0
LINE
5
FA9E
330
F97F
100
AcDbEntity
100
AcDbLine
8
EKP_PANEL_ANTEN
10
15.816859343672686
20
16.679680628122494
30
0
11
15.683923268809615
21
16.812616702985565
31
0
0
LINE
5
FA9F
330
F97F
100
AcDbEntity
100
AcDbLine
8
EKP_PANEL_ANTEN
10
15.683923268809615
20
16.812616702985565
30
0
11
15.70725779258877
21
16.827465945390482
31
0
0
LINE
5
FAA0
330
F97F
100
AcDbEntity
100
AcDbLine
8
EKP_PANEL_ANTEN
10
15.70725779258877
20
16.827465945390482
30
0
11
16.172534054609518
21
17.292742207411234
31
0
0
LINE
5
FAA1
330
F97F
100
AcDbEntity
100
AcDbLine
8
EKP_PANEL_ANTEN
10
16.172534054609518
20
17.292742207411234
30
0
11
16.187383297014435
21
17.316076731190385
31
0
0
LINE
5
FAA2
330
F97F
100
AcDbEntity
100
AcDbLine
8
EKP_PANEL_ANTEN
10
16.30759144981615
20
17.187383297014435
30
0
11
15.812616702985567
21
16.69240855018385
31
0
0
LWPOLYLINE
5
FAE6
330
F97F
100
AcDbEntity
100
AcDbPolyline
8
EKP_PANEL_ANTEN
6
ByLayer
62
256
370
-1
90
4
70
1
10
-8.25
20
8.15
10
-8.25
20
8.85
10
-7.55
20
8.85
10
-7.55
20
8.15
0
LINE
5
FAE7
330
F97F
100
AcDbEntity
100
AcDbLine
8
EKP_PANEL_ANTEN
10
-8.235000000000001
20
8.165
30
0
11
-7.565
21
8.835
31
0
0
LINE
5
FAE8
330
F97F
100
AcDbEntity
100
AcDbLine
8
EKP_PANEL_ANTEN
10
-8.235000000000001
20
8.835
30
0
11
-7.565
21
8.165
31
0
0
LINE
5
FAE9
330
F97F
100
AcDbEntity
100
AcDbLine
8
EKP_PANEL_ANTEN
10
-8.227000000000002
20
8.165
30
0
11
-7.565
21
8.827000000000002
31
0
0
LINE
5
FAEA
330
F97F
100
AcDbEntity
100
AcDbLine
8
EKP_PANEL_ANTEN
10
-8.235000000000001
20
8.172999999999998
30
0
11
-7.573
21
8.835
31
0
0
LINE
5
FAEB
330
F97F
100
AcDbEntity
100
AcDbLine
8
EKP_PANEL_ANTEN
10
-8.227000000000002
20
8.835
30
0
11
-7.565
21
8.172999999999998
31
0
0
LINE
5
FAEC
330
F97F
100
AcDbEntity
100
AcDbLine
8
EKP_PANEL_ANTEN
10
-8.235000000000001
20
8.827000000000002
30
0
11
-7.573
21
8.165
31
0
0
CIRCLE
5
FAED
330
F97F
100
AcDbEntity
100
AcDbCircle
8
EKP_PANEL_ANTEN
10
-7.9
20
8.5
30
0
40
0.018000000000000002
0
LINE
5
FAEE
330
F97F
100
AcDbEntity
100
AcDbLine
8
EKP_PANEL_ANTEN
10
-7.9350000000000005
20
8.5
30
0
11
-7.865
21
8.5
31
0
0
LINE
5
FAEF
330
F97F
100
AcDbEntity
100
AcDbLine
8
EKP_PANEL_ANTEN
10
-7.9
20
8.465
30
0
11
-7.9
21
8.535
31
0
0
LWPOLYLINE
5
FAF0
330
F97F
100
AcDbEntity
100
AcDbPolyline
8
EKP_PANEL_ANTEN
6
ByLayer
62
256
370
-1
90
4
70
1
10
-8.235000000000001
20
8.165
10
-8.235000000000001
20
8.834999999999999
10
-7.565000000000001
20
8.834999999999999
10
-7.565000000000001
20
8.165
0
LWPOLYLINE
5
FB0F
330
F97F
100
AcDbEntity
100
AcDbPolyline
8
EKP_PANEL_ANTEN
6
ByLayer
62
256
370
-1
90
4
70
1
10
-7.35
20
8.15
10
-7.35
20
8.85
10
-6.6499999999999995
20
8.85
10
-6.6499999999999995
20
8.15
0
LINE
5
FB10
330
F97F
100
AcDbEntity
100
AcDbLine
8
EKP_PANEL_ANTEN
10
-7.335
20
8.165
30
0
11
-6.665
21
8.835
31
0
0
LINE
5
FB11
330
F97F
100
AcDbEntity
100
AcDbLine
8
EKP_PANEL_ANTEN
10
-7.335
20
8.835
30
0
11
-6.665
21
8.165
31
0
0
LINE
5
FB12
330
F97F
100
AcDbEntity
100
AcDbLine
8
EKP_PANEL_ANTEN
10
-7.327
20
8.165
30
0
11
-6.665
21
8.827000000000002
31
0
0
LINE
5
FB13
330
F97F
100
AcDbEntity
100
AcDbLine
8
EKP_PANEL_ANTEN
10
-7.335
20
8.172999999999998
30
0
11
-6.673
21
8.835
31
0
0
LINE
5
FB14
330
F97F
100
AcDbEntity
100
AcDbLine
8
EKP_PANEL_ANTEN
10
-7.327
20
8.835
30
0
11
-6.665
21
8.172999999999998
31
0
0
LINE
5
FB15
330
F97F
100
AcDbEntity
100
AcDbLine
8
EKP_PANEL_ANTEN
10
-7.335
20
8.827000000000002
30
0
11
-6.673
21
8.165
31
0
0
CIRCLE
5
FB16
330
F97F
100
AcDbEntity
100
AcDbCircle
8
EKP_PANEL_ANTEN
10
-7
20
8.5
30
0
40
0.018000000000000002
0
LINE
5
FB17
330
F97F
100
AcDbEntity
100
AcDbLine
8
EKP_PANEL_ANTEN
10
-7.035
20
8.5
30
0
11
-6.965
21
8.5
31
0
0
LINE
5
FB18
330
F97F
100
AcDbEntity
100
AcDbLine
8
EKP_PANEL_ANTEN
10
-7
20
8.465
30
0
11
-7
21
8.535
31
0
0
LWPOLYLINE
5
FB19
330
F97F
100
AcDbEntity
100
AcDbPolyline
8
EKP_PANEL_ANTEN
6
ByLayer
62
256
370
-1
90
4
70
1
10
-7.335
20
8.165
10
-7.335
20
8.834999999999999
10
-6.665
20
8.834999999999999
10
-6.665
20
8.165
0
LWPOLYLINE
5
FB38
330
F97F
100
AcDbEntity
100
AcDbPolyline
8
EKP_PANEL_ANTEN
6
ByLayer
62
256
370
-1
90
4
70
1
10
-6.449999999999999
20
8.15
10
-6.449999999999999
20
8.85
10
-5.749999999999999
20
8.85
10
-5.749999999999999
20
8.15
0
LINE
5
FB39
330
F97F
100
AcDbEntity
100
AcDbLine
8
EKP_PANEL_ANTEN
10
-6.435
20
8.165
30
0
11
-5.765
21
8.835
31
0
0
LINE
5
FB3A
330
F97F
100
AcDbEntity
100
AcDbLine
8
EKP_PANEL_ANTEN
10
-6.435
20
8.835
30
0
11
-5.765
21
8.165
31
0
0
LINE
5
FB3B
330
F97F
100
AcDbEntity
100
AcDbLine
8
EKP_PANEL_ANTEN
10
-6.427
20
8.165
30
0
11
-5.765
21
8.827000000000002
31
0
0
LINE
5
FB3C
330
F97F
100
AcDbEntity
100
AcDbLine
8
EKP_PANEL_ANTEN
10
-6.435
20
8.172999999999998
30
0
11
-5.773
21
8.835
31
0
0
LINE
5
FB3D
330
F97F
100
AcDbEntity
100
AcDbLine
8
EKP_PANEL_ANTEN
10
-6.427
20
8.835
30
0
11
-5.765
21
8.172999999999998
31
0
0
LINE
5
FB3E
330
F97F
100
AcDbEntity
100
AcDbLine
8
EKP_PANEL_ANTEN
10
-6.435
20
8.827000000000002
30
0
11
-5.773
21
8.165
31
0
0
CIRCLE
5
FB3F
330
F97F
100
AcDbEntity
100
AcDbCircle
8
EKP_PANEL_ANTEN
10
-6.1
20
8.5
30
0
40
0.018000000000000002
0
LINE
5
FB40
330
F97F
100
AcDbEntity
100
AcDbLine
8
EKP_PANEL_ANTEN
10
-6.135
20
8.5
30
0
11
-6.0649999999999995
21
8.5
31
0
0
LINE
5
FB41
330
F97F
100
AcDbEntity
100
AcDbLine
8
EKP_PANEL_ANTEN
10
-6.1
20
8.465
30
0
11
-6.1
21
8.535
31
0
0
LWPOLYLINE
5
FB42
330
F97F
100
AcDbEntity
100
AcDbPolyline
8
EKP_PANEL_ANTEN
6
ByLayer
62
256
370
-1
90
4
70
1
10
-6.435
20
8.165
10
-6.435
20
8.834999999999999
10
-5.765
20
8.834999999999999
10
-5.765
20
8.165
0
LINE
5
FB74
330
F97F
100
AcDbEntity
100
AcDbLine
8
EKP_PANEL_ANTEN
10
2.79203587054225
20
8.73983317739718
30
0
11
3.449820705092386
21
8.500419077069214
31
0
0
LINE
5
FB75
330
F97F
100
AcDbEntity
100
AcDbLine
8
EKP_PANEL_ANTEN
10
3.449820705092386
20
8.500419077069214
30
0
11
3.5079641294577497
21
8.660166822602818
31
0
0
LINE
5
FB76
330
F97F
100
AcDbEntity
100
AcDbLine
8
EKP_PANEL_ANTEN
10
3.5079641294577497
20
8.660166822602818
30
0
11
3.1852280747625437
21
8.796788339940948
31
0
0
LINE
5
FB77
330
F97F
100
AcDbEntity
100
AcDbLine
8
EKP_PANEL_ANTEN
10
3.1852280747625437
20
8.796788339940948
30
0
11
2.8501792949076137
21
8.899580922930785
31
0
0
LINE
5
FB78
330
F97F
100
AcDbEntity
100
AcDbLine
8
EKP_PANEL_ANTEN
10
2.8501792949076137
20
8.899580922930785
30
0
11
2.79203587054225
21
8.73983317739718
31
0
0
LINE
5
FB79
330
F97F
100
AcDbEntity
100
AcDbLine
8
EKP_PANEL_ANTEN
10
3.1852280747625437
20
8.796788339940948
30
0
11
3.120928287817318
21
8.620126127233197
31
0
0
LINE
5
FB9A
330
F97F
100
AcDbEntity
100
AcDbLine
8
EKP_PANEL_ANTEN
10
3.65
20
8.415
30
0
11
4.35
21
8.415
31
0
0
LINE
5
FB9B
330
F97F
100
AcDbEntity
100
AcDbLine
8
EKP_PANEL_ANTEN
10
4.35
20
8.415
30
0
11
4.35
21
8.585
31
0
0
LINE
5
FB9C
330
F97F
100
AcDbEntity
100
AcDbLine
8
EKP_PANEL_ANTEN
10
4.35
20
8.585
30
0
11
4
21
8.603
31
0
0
LINE
5
FB9D
330
F97F
100
AcDbEntity
100
AcDbLine
8
EKP_PANEL_ANTEN
10
4
20
8.603
30
0
11
3.65
21
8.585
31
0
0
LINE
5
FB9E
330
F97F
100
AcDbEntity
100
AcDbLine
8
EKP_PANEL_ANTEN
10
3.65
20
8.585
30
0
11
3.65
21
8.415
31
0
0
LINE
5
FB9F
330
F97F
100
AcDbEntity
100
AcDbLine
8
EKP_PANEL_ANTEN
10
4
20
8.603
30
0
11
4
21
8.415
31
0
0
LINE
5
FBC0
330
F97F
100
AcDbEntity
100
AcDbLine
8
EKP_PANEL_ANTEN
10
4.550179294907614
20
8.500419077069214
30
0
11
5.207964129457749
21
8.73983317739718
31
0
0
LINE
5
FBC1
330
F97F
100
AcDbEntity
100
AcDbLine
8
EKP_PANEL_ANTEN
10
5.207964129457749
20
8.73983317739718
30
0
11
5.149820705092385
21
8.899580922930785
31
0
0
LINE
5
FBC2
330
F97F
100
AcDbEntity
100
AcDbLine
8
EKP_PANEL_ANTEN
10
5.149820705092385
20
8.899580922930785
30
0
11
4.814771925237456
21
8.796788339940948
31
0
0
LINE
5
FBC3
330
F97F
100
AcDbEntity
100
AcDbLine
8
EKP_PANEL_ANTEN
10
4.814771925237456
20
8.796788339940948
30
0
11
4.49203587054225
21
8.660166822602818
31
0
0
LINE
5
FBC4
330
F97F
100
AcDbEntity
100
AcDbLine
8
EKP_PANEL_ANTEN
10
4.49203587054225
20
8.660166822602818
30
0
11
4.550179294907614
21
8.500419077069214
31
0
0
LINE
5
FBC5
330
F97F
100
AcDbEntity
100
AcDbLine
8
EKP_PANEL_ANTEN
10
4.814771925237456
20
8.796788339940948
30
0
11
4.879071712182681
21
8.620126127233197
31
0
0
LINE
5
FBE8
330
F97F
100
AcDbEntity
100
AcDbLine
8
EKP_PANEL_ANTEN
10
-13.812616702985565
20
0.3160767311903868
30
0
11
-13.679680628122494
21
0.18314065632731585
31
0
0
LINE
5
FBE9
330
F97F
100
AcDbEntity
100
AcDbLine
8
EKP_PANEL_ANTEN
10
-13.679680628122494
20
0.18314065632731585
30
0
11
-13.703015151901651
21
0.1767766952966369
31
0
0
LINE
5
FBEA
330
F97F
100
AcDbEntity
100
AcDbLine
8
EKP_PANEL_ANTEN
10
-13.703015151901651
20
0.1767766952966369
30
0
11
-13.927168001537785
21
-0.0728319984622144
31
0
0
LINE
5
FBEB
330
F97F
100
AcDbEntity
100
AcDbLine
8
EKP_PANEL_ANTEN
10
-13.927168001537785
20
-0.0728319984622144
30
0
11
-14.176776695296637
21
-0.29698484809834996
31
0
0
LINE
5
FBEC
330
F97F
100
AcDbEntity
100
AcDbLine
8
EKP_PANEL_ANTEN
10
-14.176776695296637
20
-0.29698484809834996
30
0
11
-14.183140656327314
21
-0.3203193718775061
31
0
0
LINE
5
FBED
330
F97F
100
AcDbEntity
100
AcDbLine
8
EKP_PANEL_ANTEN
10
-14.183140656327314
20
-0.3203193718775061
30
0
11
-14.316076731190385
21
-0.18738329701443512
31
0
0
LINE
5
FBEE
330
F97F
100
AcDbEntity
100
AcDbLine
8
EKP_PANEL_ANTEN
10
-14.316076731190385
20
-0.18738329701443512
30
0
11
-14.29274220741123
21
-0.17253405460951762
31
0
0
LINE
5
FBEF
330
F97F
100
AcDbEntity
100
AcDbLine
8
EKP_PANEL_ANTEN
10
-14.29274220741123
20
-0.17253405460951762
30
0
11
-13.827465945390482
21
0.2927422074112307
31
0
0
LINE
5
FBF0
330
F97F
100
AcDbEntity
100
AcDbLine
8
EKP_PANEL_ANTEN
10
-13.827465945390482
20
0.2927422074112307
30
0
11
-13.812616702985565
21
0.3160767311903868
31
0
0
LINE
5
FBF1
330
F97F
100
AcDbEntity
100
AcDbLine
8
EKP_PANEL_ANTEN
10
-13.692408550183853
20
0.18738329701443512
30
0
11
-14.187383297014435
21
-0.3075914498161482
31
0
0
LINE
5
FC30
330
F97F
100
AcDbEntity
100
AcDbLine
8
EKP_PANEL_ANTEN
10
-3.812616702985565
20
0.3160767311903868
30
0
11
-3.679680628122494
21
0.18314065632731585
31
0
0
LINE
5
FC31
330
F97F
100
AcDbEntity
100
AcDbLine
8
EKP_PANEL_ANTEN
10
-3.679680628122494
20
0.18314065632731585
30
0
11
-3.70301515190165
21
0.1767766952966369
31
0
0
LINE
5
FC32
330
F97F
100
AcDbEntity
100
AcDbLine
8
EKP_PANEL_ANTEN
10
-3.70301515190165
20
0.1767766952966369
30
0
11
-3.9271680015377854
21
-0.0728319984622144
31
0
0
LINE
5
FC33
330
F97F
100
AcDbEntity
100
AcDbLine
8
EKP_PANEL_ANTEN
10
-3.9271680015377854
20
-0.0728319984622144
30
0
11
-4.1767766952966365
21
-0.29698484809834996
31
0
0
LINE
5
FC34
330
F97F
100
AcDbEntity
100
AcDbLine
8
EKP_PANEL_ANTEN
10
-4.1767766952966365
20
-0.29698484809834996
30
0
11
-4.183140656327316
21
-0.3203193718775061
31
0
0
LINE
5
FC35
330
F97F
100
AcDbEntity
100
AcDbLine
8
EKP_PANEL_ANTEN
10
-4.183140656327316
20
-0.3203193718775061
30
0
11
-4.316076731190387
21
-0.18738329701443512
31
0
0
LINE
5
FC36
330
F97F
100
AcDbEntity
100
AcDbLine
8
EKP_PANEL_ANTEN
10
-4.316076731190387
20
-0.18738329701443512
30
0
11
-4.29274220741123
21
-0.17253405460951762
31
0
0
LINE
5
FC37
330
F97F
100
AcDbEntity
100
AcDbLine
8
EKP_PANEL_ANTEN
10
-4.29274220741123
20
-0.17253405460951762
30
0
11
-3.827465945390482
21
0.2927422074112307
31
0
0
LINE
5
FC38
330
F97F
100
AcDbEntity
100
AcDbLine
8
EKP_PANEL_ANTEN
10
-3.827465945390482
20
0.2927422074112307
30
0
11
-3.812616702985565
21
0.3160767311903868
31
0
0
LINE
5
FC39
330
F97F
100
AcDbEntity
100
AcDbLine
8
EKP_PANEL_ANTEN
10
-3.6924085501838517
20
0.18738329701443512
30
0
11
-4.187383297014435
21
-0.3075914498161482
31
0
0
LINE
5
FC77
330
F97F
100
AcDbEntity
100
AcDbLine
8
EKP_PANEL_ANTEN
10
5.687383297014435
20
0.3160767311903868
30
0
11
5.820319371877506
21
0.18314065632731585
31
0
0
LINE
5
FC78
330
F97F
100
AcDbEntity
100
AcDbLine
8
EKP_PANEL_ANTEN
10
5.820319371877506
20
0.18314065632731585
30
0
11
5.79698484809835
21
0.1767766952966369
31
0
0
LINE
5
FC79
330
F97F
100
AcDbEntity
100
AcDbLine
8
EKP_PANEL_ANTEN
10
5.79698484809835
20
0.1767766952966369
30
0
11
5.572831998462214
21
-0.0728319984622144
31
0
0
LINE
5
FC7A
330
F97F
100
AcDbEntity
100
AcDbLine
8
EKP_PANEL_ANTEN
10
5.572831998462214
20
-0.0728319984622144
30
0
11
5.323223304703363
21
-0.29698484809834996
31
0
0
LINE
5
FC7B
330
F97F
100
AcDbEntity
100
AcDbLine
8
EKP_PANEL_ANTEN
10
5.323223304703363
20
-0.29698484809834996
30
0
11
5.316859343672684
21
-0.3203193718775061
31
0
0
LINE
5
FC7C
330
F97F
100
AcDbEntity
100
AcDbLine
8
EKP_PANEL_ANTEN
10
5.316859343672684
20
-0.3203193718775061
30
0
11
5.183923268809613
21
-0.18738329701443512
31
0
0
LINE
5
FC7D
330
F97F
100
AcDbEntity
100
AcDbLine
8
EKP_PANEL_ANTEN
10
5.183923268809613
20
-0.18738329701443512
30
0
11
5.20725779258877
21
-0.17253405460951762
31
0
0
LINE
5
FC7E
330
F97F
100
AcDbEntity
100
AcDbLine
8
EKP_PANEL_ANTEN
10
5.20725779258877
20
-0.17253405460951762
30
0
11
5.6725340546095175
21
0.2927422074112307
31
0
0
LINE
5
FC7F
330
F97F
100
AcDbEntity
100
AcDbLine
8
EKP_PANEL_ANTEN
10
5.6725340546095175
20
0.2927422074112307
30
0
11
5.687383297014435
21
0.3160767311903868
31
0
0
LINE
5
FC80
330
F97F
100
AcDbEntity
100
AcDbLine
8
EKP_PANEL_ANTEN
10
5.807591449816148
20
0.18738329701443512
30
0
11
5.312616702985564
21
-0.3075914498161482
31
0
0
ENDSEC
0
SECTION
2
OBJECTS
0
DICTIONARY
5
F96D
330
0
100
AcDbDictionary
281
1
3
ACAD_GROUP
350
F983
0
DICTIONARY
5
F983
330
F96D
100
AcDbDictionary
281
1
0
ENDSEC
0
EOF