0
SECTION
2
HEADER
9
$HANDSEED
5
FEB3
9
$INSUNITS
70
6
9
$ACADVER
1
AC1021
9
$DWGCODEPAGE
3
UTF-8
0
ENDSEC
0
SECTION
2
CLASSES
0
ENDSEC
0
SECTION
2
TABLES
0
TABLE
2
LTYPE
5
FEB1
330
0
100
AcDbSymbolTable
70
5
0
LTYPE
5
FB85
330
FEB1
100
AcDbSymbolTableRecord
100
AcDbLinetypeTableRecord
2
CONTINUOUS
3
______
70
0
72
65
73
0
40
0
0
LTYPE
5
FB86
330
FEB1
100
AcDbSymbolTableRecord
100
AcDbLinetypeTableRecord
2
DASHED
3
_ _ _ 
70
0
72
65
73
2
40
10
49
5
74
0
49
-5
74
0
0
LTYPE
5
FB87
330
FEB1
100
AcDbSymbolTableRecord
100
AcDbLinetypeTableRecord
2
DOTTED
3
. . . 
70
0
72
65
73
2
40
5
49
0
74
0
49
-5
74
0
0
LTYPE
5
FB89
330
FEB1
100
AcDbSymbolTableRecord
100
AcDbLinetypeTableRecord
2
ByBlock
3

70
0
72
65
73
0
40
0
0
LTYPE
5
FB8A
330
FEB1
100
AcDbSymbolTableRecord
100
AcDbLinetypeTableRecord
2
ByLayer
3

70
0
72
65
73
0
40
0
0
ENDTAB
0
TABLE
2
LAYER
5
FEB2
330
0
100
AcDbSymbolTable
70
21
0
LAYER
5
FB88
330
FEB2
100
AcDbSymbolTableRecord
100
AcDbLayerTableRecord
2
0
62
7
70
0
6
CONTINUOUS
390
1
0
LAYER
5
FB9B
330
FEB2
100
AcDbSymbolTableRecord
100
AcDbLayerTableRecord
2
ZEMIN_PLATFORM
62
8
70
0
6
CONTINUOUS
390
1
0
LAYER
5
FB9C
330
FEB2
100
AcDbSymbolTableRecord
100
AcDbLayerTableRecord
2
KORKULUK_KAPI
62
4
70
0
6
CONTINUOUS
390
1
0
LAYER
5
FB9D
330
FEB2
100
AcDbSymbolTableRecord
100
AcDbLayerTableRecord
2
CELIK_KIRIS_KOLON
62
9
70
0
6
CONTINUOUS
390
1
0
LAYER
5
FB9E
330
FEB2
100
AcDbSymbolTableRecord
100
AcDbLayerTableRecord
2
MONTAJ_BORULARI
62
2
70
0
6
CONTINUOUS
390
1
0
LAYER
5
FB9F
330
FEB2
100
AcDbSymbolTableRecord
100
AcDbLayerTableRecord
2
KABLO_TAVALARI
62
6
70
0
6
CONTINUOUS
390
1
0
LAYER
5
FBA0
330
FEB2
100
AcDbSymbolTableRecord
100
AcDbLayerTableRecord
2
YURUYUS_KORIDORU
62
3
70
0
6
DASHED
390
1
0
LAYER
5
FBA1
330
FEB2
100
AcDbSymbolTableRecord
100
AcDbLayerTableRecord
2
OLCULER
62
1
70
0
6
CONTINUOUS
390
1
0
LAYER
5
FBA2
330
FEB2
100
AcDbSymbolTableRecord
100
AcDbLayerTableRecord
2
METIN_BILGI
62
7
70
0
6
CONTINUOUS
390
1
0
LAYER
5
FBA3
330
FEB2
100
AcDbSymbolTableRecord
100
AcDbLayerTableRecord
2
EKP_TURKCELL_RRU
62
5
70
0
6
CONTINUOUS
390
1
0
LAYER
5
FBA4
330
FEB2
100
AcDbSymbolTableRecord
100
AcDbLayerTableRecord
2
EKP_VODAFONE_RRU
62
1
70
0
6
CONTINUOUS
390
1
0
LAYER
5
FBA5
330
FEB2
100
AcDbSymbolTableRecord
100
AcDbLayerTableRecord
2
EKP_TURK_TELEKOM_RRU
62
4
70
0
6
CONTINUOUS
390
1
0
LAYER
5
FBA6
330
FEB2
100
AcDbSymbolTableRecord
100
AcDbLayerTableRecord
2
EKP_POI_TASIYICI_SASE
62
30
70
0
6
CONTINUOUS
390
1
0
LAYER
5
FBA7
330
FEB2
100
AcDbSymbolTableRecord
100
AcDbLayerTableRecord
2
EKP_POI_MODULLERI
62
40
70
0
6
CONTINUOUS
390
1
0
LAYER
5
FBA8
330
FEB2
100
AcDbSymbolTableRecord
100
AcDbLayerTableRecord
2
EKP_RECTIFIER_ELTEK_20U
62
3
70
0
6
CONTINUOUS
390
1
0
LAYER
5
FBA9
330
FEB2
100
AcDbSymbolTableRecord
100
AcDbLayerTableRecord
2
EKP_RECTIFIER_MTS9304A
62
94
70
0
6
CONTINUOUS
390
1
0
LAYER
5
FBAA
330
FEB2
100
AcDbSymbolTableRecord
100
AcDbLayerTableRecord
2
BLOK_OZEL_PLATFORM
62
140
70
0
6
CONTINUOUS
390
1
0
LAYER
5
FBAB
330
FEB2
100
AcDbSymbolTableRecord
100
AcDbLayerTableRecord
2
EKP_MATSING_ANTEN
62
2
70
0
6
CONTINUOUS
390
1
0
LAYER
5
FBAC
330
FEB2
100
AcDbSymbolTableRecord
100
AcDbLayerTableRecord
2
EKP_PANEL_ANTEN
62
6
70
0
6
CONTINUOUS
390
1
0
LAYER
5
FBAD
330
FEB2
100
AcDbSymbolTableRecord
100
AcDbLayerTableRecord
2
EKP_ANTEN_TASIYICI_KOL
62
141
70
0
6
CONTINUOUS
390
1
0
LAYER
5
FBAE
330
FEB2
100
AcDbSymbolTableRecord
100
AcDbLayerTableRecord
2
EKP_DIGER_EKIPMANLAR
62
7
70
0
6
CONTINUOUS
390
1
0
ENDTAB
0
TABLE
2
VPORT
5
FB8B
330
0
100
AcDbSymbolTable
70
1
0
VPORT
5
FB91
330
FB8B
100
AcDbSymbolTableRecord
100
AcDbViewportTableRecord
2
*ACTIVE
40
1000
70
0
0
ENDTAB
0
TABLE
2
STYLE
5
FB8C
330
0
100
AcDbSymbolTable
70
3
0
STYLE
5
FB92
330
FB8C
100
AcDbSymbolTableRecord
100
AcDbTextStyleTableRecord
2
standard
70
0
40
0
41
1
50
0
71
0
42
1
3
calibrib.ttf
4

1001
ACAD
1000
Calibri
1071
33554466
0
STYLE
5
FB93
330
FB8C
100
AcDbSymbolTableRecord
100
AcDbTextStyleTableRecord
2
STANDARD
70
0
40
0
41
1
50
0
71
0
42
1
3
calibrib.ttf
4

1001
ACAD
1000
Calibri
1071
33554466
0
STYLE
5
FB94
330
FB8C
100
AcDbSymbolTableRecord
100
AcDbTextStyleTableRecord
2
CALIBRI_BOLD
70
0
40
0
41
1
50
0
71
0
42
1
3
calibrib.ttf
4

1001
ACAD
1000
Calibri
1071
33554466
0
ENDTAB
0
TABLE
2
VIEW
5
FB8D
330
0
100
AcDbSymbolTable
70
0
0
ENDTAB
0
TABLE
2
UCS
5
FB8E
330
0
100
AcDbSymbolTable
70
0
0
ENDTAB
0
TABLE
2
APPID
5
FB8F
330
0
100
AcDbSymbolTable
70
1
0
APPID
5
FB95
330
FB8F
100
AcDbSymbolTableRecord
100
AcDbRegAppTableRecord
2
ACAD
70
0
0
ENDTAB
0
TABLE
2
DIMSTYLE
5
FB90
330
0
100
AcDbSymbolTable
100
AcDbDimStyleTable
70
0
71
1
0
ENDTAB
0
TABLE
2
BLOCK_RECORD
5
FEAE
330
0
100
AcDbSymbolTable
70
2
0
BLOCK_RECORD
5
FEAF
330
FEAE
100
AcDbSymbolTableRecord
100
AcDbBlockTableRecord
2
*Model_Space
70
0
280
0
281
1
0
BLOCK_RECORD
5
FEB0
330
FEAE
100
AcDbSymbolTableRecord
100
AcDbBlockTableRecord
2
*Paper_Space
70
0
280
0
281
1
0
ENDTAB
0
ENDSEC
0
SECTION
2
BLOCKS
0
BLOCK
5
FB96
330
0
100
AcDbEntity
100
AcDbBlockBegin
2
*Model_Space
70
0
10
0
20
0
30
0
3
*Model_Space
1

0
ENDBLK
5
FB97
330
0
100
AcDbEntity
100
AcDbBlockEnd
0
BLOCK
5
FB98
330
0
100
AcDbEntity
100
AcDbBlockBegin
2
*Paper_Space
70
0
10
0
20
0
30
0
3
*Paper_Space
1

0
ENDBLK
5
FB99
330
0
100
AcDbEntity
100
AcDbBlockEnd
0
ENDSEC
0
SECTION
2
ENTITIES
0
3DFACE
5
FBBC
330
FB96
100
AcDbEntity
100
AcDbFace
8
CELIK_KIRIS_KOLON
10
-14.07
20
0.23864853865045982
30
-0.08308504678941936
11
-13.93
21
0.23864853865045982
31
-0.08308504678941936
12
-13.93
22
-0.08308504678941932
32
0.23864853865045982
13
-14.07
23
-0.08308504678941932
33
0.23864853865045982
0
3DFACE
5
FBBD
330
FB96
100
AcDbEntity
100
AcDbFace
8
CELIK_KIRIS_KOLON
10
-14.061
20
0.09899494936611666
30
0.0565685424949238
11
-14.049
21
0.09899494936611666
31
0.0565685424949238
12
-14.049
22
0.23405234457274723
32
0.27647875144394
13
-14.061
23
0.23405234457274723
33
0.27647875144394
0
3DFACE
5
FBBE
330
FB96
100
AcDbEntity
100
AcDbFace
8
CELIK_KIRIS_KOLON
10
-13.951
20
0.09899494936611666
30
0.0565685424949238
11
-13.939
21
0.09899494936611666
31
0.0565685424949238
12
-13.939
22
0.23405234457274723
32
0.27647875144394
13
-13.951
23
0.23405234457274723
33
0.27647875144394
0
3DFACE
5
FBEB
330
FB96
100
AcDbEntity
100
AcDbFace
8
CELIK_KIRIS_KOLON
10
-14.065
20
0.37156772670457444
30
0.10933161594775359
11
-13.935
21
0.37156772670457444
31
0.10933161594775359
12
-13.935
22
0.5015677267045744
32
0.10933161594775359
13
-14.065
23
0.5015677267045744
33
0.10933161594775359
0
3DFACE
5
FBEC
330
FB96
100
AcDbEntity
100
AcDbFace
8
CELIK_KIRIS_KOLON
10
-14.065
20
0.37156772670457444
30
0.21933161594775358
11
-13.935
21
0.37156772670457444
31
0.21933161594775358
12
-13.935
22
0.5015677267045744
32
0.21933161594775358
13
-14.065
23
0.5015677267045744
33
0.21933161594775358
0
3DFACE
5
FBED
330
FB96
100
AcDbEntity
100
AcDbFace
8
CELIK_KIRIS_KOLON
10
-14.065
20
0.37156772670457444
30
0.10933161594775359
11
-13.935
21
0.37156772670457444
31
0.10933161594775359
12
-13.935
22
0.37156772670457444
32
0.21933161594775358
13
-14.065
23
0.37156772670457444
33
0.21933161594775358
0
3DFACE
5
FBEE
330
FB96
100
AcDbEntity
100
AcDbFace
8
CELIK_KIRIS_KOLON
10
-14.065
20
0.5015677267045744
30
0.10933161594775359
11
-13.935
21
0.5015677267045744
31
0.10933161594775359
12
-13.935
22
0.5015677267045744
32
0.21933161594775358
13
-14.065
23
0.5015677267045744
33
0.21933161594775358
0
3DFACE
5
FBEF
330
FB96
100
AcDbEntity
100
AcDbFace
8
CELIK_KIRIS_KOLON
10
-14.065
20
0.37156772670457444
30
0.10933161594775359
11
-14.065
21
0.5015677267045744
31
0.10933161594775359
12
-14.065
22
0.5015677267045744
32
0.21933161594775358
13
-14.065
23
0.37156772670457444
33
0.21933161594775358
0
3DFACE
5
FBF0
330
FB96
100
AcDbEntity
100
AcDbFace
8
CELIK_KIRIS_KOLON
10
-13.935
20
0.37156772670457444
30
0.10933161594775359
11
-13.935
21
0.5015677267045744
31
0.10933161594775359
12
-13.935
22
0.5015677267045744
32
0.21933161594775358
13
-13.935
23
0.37156772670457444
33
0.21933161594775358
0
LINE
5
FBF1
330
FB96
100
AcDbEntity
100
AcDbLine
8
CELIK_KIRIS_KOLON
10
-14.065
20
0.37156772670457444
30
0.10933161594775359
11
-13.935
21
0.37156772670457444
31
0.10933161594775359
0
LINE
5
FBF2
330
FB96
100
AcDbEntity
100
AcDbLine
8
CELIK_KIRIS_KOLON
10
-13.935
20
0.37156772670457444
30
0.10933161594775359
11
-13.935
21
0.5015677267045744
31
0.10933161594775359
0
LINE
5
FBF3
330
FB96
100
AcDbEntity
100
AcDbLine
8
CELIK_KIRIS_KOLON
10
-13.935
20
0.5015677267045744
30
0.10933161594775359
11
-14.065
21
0.5015677267045744
31
0.10933161594775359
0
LINE
5
FBF4
330
FB96
100
AcDbEntity
100
AcDbLine
8
CELIK_KIRIS_KOLON
10
-14.065
20
0.5015677267045744
30
0.10933161594775359
11
-14.065
21
0.37156772670457444
31
0.10933161594775359
0
LINE
5
FBF5
330
FB96
100
AcDbEntity
100
AcDbLine
8
CELIK_KIRIS_KOLON
10
-14.065
20
0.37156772670457444
30
0.21933161594775358
11
-13.935
21
0.37156772670457444
31
0.21933161594775358
0
LINE
5
FBF6
330
FB96
100
AcDbEntity
100
AcDbLine
8
CELIK_KIRIS_KOLON
10
-13.935
20
0.37156772670457444
30
0.21933161594775358
11
-13.935
21
0.5015677267045744
31
0.21933161594775358
0
LINE
5
FBF7
330
FB96
100
AcDbEntity
100
AcDbLine
8
CELIK_KIRIS_KOLON
10
-13.935
20
0.5015677267045744
30
0.21933161594775358
11
-14.065
21
0.5015677267045744
31
0.21933161594775358
0
LINE
5
FBF8
330
FB96
100
AcDbEntity
100
AcDbLine
8
CELIK_KIRIS_KOLON
10
-14.065
20
0.5015677267045744
30
0.21933161594775358
11
-14.065
21
0.37156772670457444
31
0.21933161594775358
0
LINE
5
FBF9
330
FB96
100
AcDbEntity
100
AcDbLine
8
CELIK_KIRIS_KOLON
10
-14.065
20
0.37156772670457444
30
0.10933161594775359
11
-14.065
21
0.37156772670457444
31
0.21933161594775358
0
LINE
5
FBFA
330
FB96
100
AcDbEntity
100
AcDbLine
8
CELIK_KIRIS_KOLON
10
-13.935
20
0.37156772670457444
30
0.10933161594775359
11
-13.935
21
0.37156772670457444
31
0.21933161594775358
0
LINE
5
FBFB
330
FB96
100
AcDbEntity
100
AcDbLine
8
CELIK_KIRIS_KOLON
10
-13.935
20
0.5015677267045744
30
0.10933161594775359
11
-13.935
21
0.5015677267045744
31
0.21933161594775358
0
LINE
5
FBFC
330
FB96
100
AcDbEntity
100
AcDbLine
8
CELIK_KIRIS_KOLON
10
-14.065
20
0.5015677267045744
30
0.10933161594775359
11
-14.065
21
0.5015677267045744
31
0.21933161594775358
0
3DFACE
5
FBFD
330
FB96
100
AcDbEntity
100
AcDbFace
8
CELIK_KIRIS_KOLON
10
-14.065
20
0.09933161594775367
30
0.38156772670457445
11
-13.935
21
0.09933161594775367
31
0.38156772670457445
12
-13.935
22
0.22933161594775367
32
0.38156772670457445
13
-14.065
23
0.22933161594775367
33
0.38156772670457445
0
3DFACE
5
FBFE
330
FB96
100
AcDbEntity
100
AcDbFace
8
CELIK_KIRIS_KOLON
10
-14.065
20
0.09933161594775367
30
0.49156772670457444
11
-13.935
21
0.09933161594775367
31
0.49156772670457444
12
-13.935
22
0.22933161594775367
32
0.49156772670457444
13
-14.065
23
0.22933161594775367
33
0.49156772670457444
0
3DFACE
5
FBFF
330
FB96
100
AcDbEntity
100
AcDbFace
8
CELIK_KIRIS_KOLON
10
-14.065
20
0.09933161594775367
30
0.38156772670457445
11
-13.935
21
0.09933161594775367
31
0.38156772670457445
12
-13.935
22
0.09933161594775367
32
0.49156772670457444
13
-14.065
23
0.09933161594775367
33
0.49156772670457444
0
3DFACE
5
FC00
330
FB96
100
AcDbEntity
100
AcDbFace
8
CELIK_KIRIS_KOLON
10
-14.065
20
0.22933161594775367
30
0.38156772670457445
11
-13.935
21
0.22933161594775367
31
0.38156772670457445
12
-13.935
22
0.22933161594775367
32
0.49156772670457444
13
-14.065
23
0.22933161594775367
33
0.49156772670457444
0
3DFACE
5
FC01
330
FB96
100
AcDbEntity
100
AcDbFace
8
CELIK_KIRIS_KOLON
10
-14.065
20
0.09933161594775367
30
0.38156772670457445
11
-14.065
21
0.22933161594775367
31
0.38156772670457445
12
-14.065
22
0.22933161594775367
32
0.49156772670457444
13
-14.065
23
0.09933161594775367
33
0.49156772670457444
0
3DFACE
5
FC02
330
FB96
100
AcDbEntity
100
AcDbFace
8
CELIK_KIRIS_KOLON
10
-13.935
20
0.09933161594775367
30
0.38156772670457445
11
-13.935
21
0.22933161594775367
31
0.38156772670457445
12
-13.935
22
0.22933161594775367
32
0.49156772670457444
13
-13.935
23
0.09933161594775367
33
0.49156772670457444
0
LINE
5
FC03
330
FB96
100
AcDbEntity
100
AcDbLine
8
CELIK_KIRIS_KOLON
10
-14.065
20
0.09933161594775367
30
0.38156772670457445
11
-13.935
21
0.09933161594775367
31
0.38156772670457445
0
LINE
5
FC04
330
FB96
100
AcDbEntity
100
AcDbLine
8
CELIK_KIRIS_KOLON
10
-13.935
20
0.09933161594775367
30
0.38156772670457445
11
-13.935
21
0.22933161594775367
31
0.38156772670457445
0
LINE
5
FC05
330
FB96
100
AcDbEntity
100
AcDbLine
8
CELIK_KIRIS_KOLON
10
-13.935
20
0.22933161594775367
30
0.38156772670457445
11
-14.065
21
0.22933161594775367
31
0.38156772670457445
0
LINE
5
FC06
330
FB96
100
AcDbEntity
100
AcDbLine
8
CELIK_KIRIS_KOLON
10
-14.065
20
0.22933161594775367
30
0.38156772670457445
11
-14.065
21
0.09933161594775367
31
0.38156772670457445
0
LINE
5
FC07
330
FB96
100
AcDbEntity
100
AcDbLine
8
CELIK_KIRIS_KOLON
10
-14.065
20
0.09933161594775367
30
0.49156772670457444
11
-13.935
21
0.09933161594775367
31
0.49156772670457444
0
LINE
5
FC08
330
FB96
100
AcDbEntity
100
AcDbLine
8
CELIK_KIRIS_KOLON
10
-13.935
20
0.09933161594775367
30
0.49156772670457444
11
-13.935
21
0.22933161594775367
31
0.49156772670457444
0
LINE
5
FC09
330
FB96
100
AcDbEntity
100
AcDbLine
8
CELIK_KIRIS_KOLON
10
-13.935
20
0.22933161594775367
30
0.49156772670457444
11
-14.065
21
0.22933161594775367
31
0.49156772670457444
0
LINE
5
FC0A
330
FB96
100
AcDbEntity
100
AcDbLine
8
CELIK_KIRIS_KOLON
10
-14.065
20
0.22933161594775367
30
0.49156772670457444
11
-14.065
21
0.09933161594775367
31
0.49156772670457444
0
LINE
5
FC0B
330
FB96
100
AcDbEntity
100
AcDbLine
8
CELIK_KIRIS_KOLON
10
-14.065
20
0.09933161594775367
30
0.38156772670457445
11
-14.065
21
0.09933161594775367
31
0.49156772670457444
0
LINE
5
FC0C
330
FB96
100
AcDbEntity
100
AcDbLine
8
CELIK_KIRIS_KOLON
10
-13.935
20
0.09933161594775367
30
0.38156772670457445
11
-13.935
21
0.09933161594775367
31
0.49156772670457444
0
LINE
5
FC0D
330
FB96
100
AcDbEntity
100
AcDbLine
8
CELIK_KIRIS_KOLON
10
-13.935
20
0.22933161594775367
30
0.38156772670457445
11
-13.935
21
0.22933161594775367
31
0.49156772670457444
0
LINE
5
FC0E
330
FB96
100
AcDbEntity
100
AcDbLine
8
CELIK_KIRIS_KOLON
10
-14.065
20
0.22933161594775367
30
0.38156772670457445
11
-14.065
21
0.22933161594775367
31
0.49156772670457444
0
3DFACE
5
FC1D
330
FB96
100
AcDbEntity
100
AcDbFace
8
CELIK_KIRIS_KOLON
10
-4.57
20
0.23864853865045982
30
-0.08308504678941936
11
-4.43
21
0.23864853865045982
31
-0.08308504678941936
12
-4.43
22
-0.08308504678941932
32
0.23864853865045982
13
-4.57
23
-0.08308504678941932
33
0.23864853865045982
0
3DFACE
5
FC1E
330
FB96
100
AcDbEntity
100
AcDbFace
8
CELIK_KIRIS_KOLON
10
-4.561
20
0.09899494936611666
30
0.0565685424949238
11
-4.549
21
0.09899494936611666
31
0.0565685424949238
12
-4.549
22
0.23405234457274723
32
0.27647875144394
13
-4.561
23
0.23405234457274723
33
0.27647875144394
0
3DFACE
5
FC1F
330
FB96
100
AcDbEntity
100
AcDbFace
8
CELIK_KIRIS_KOLON
10
-4.451
20
0.09899494936611666
30
0.0565685424949238
11
-4.439
21
0.09899494936611666
31
0.0565685424949238
12
-4.439
22
0.23405234457274723
32
0.27647875144394
13
-4.451
23
0.23405234457274723
33
0.27647875144394
0
3DFACE
5
FC4C
330
FB96
100
AcDbEntity
100
AcDbFace
8
CELIK_KIRIS_KOLON
10
-4.565
20
0.37156772670457444
30
0.10933161594775359
11
-4.435
21
0.37156772670457444
31
0.10933161594775359
12
-4.435
22
0.5015677267045744
32
0.10933161594775359
13
-4.565
23
0.5015677267045744
33
0.10933161594775359
0
3DFACE
5
FC4D
330
FB96
100
AcDbEntity
100
AcDbFace
8
CELIK_KIRIS_KOLON
10
-4.565
20
0.37156772670457444
30
0.21933161594775358
11
-4.435
21
0.37156772670457444
31
0.21933161594775358
12
-4.435
22
0.5015677267045744
32
0.21933161594775358
13
-4.565
23
0.5015677267045744
33
0.21933161594775358
0
3DFACE
5
FC4E
330
FB96
100
AcDbEntity
100
AcDbFace
8
CELIK_KIRIS_KOLON
10
-4.565
20
0.37156772670457444
30
0.10933161594775359
11
-4.435
21
0.37156772670457444
31
0.10933161594775359
12
-4.435
22
0.37156772670457444
32
0.21933161594775358
13
-4.565
23
0.37156772670457444
33
0.21933161594775358
0
3DFACE
5
FC4F
330
FB96
100
AcDbEntity
100
AcDbFace
8
CELIK_KIRIS_KOLON
10
-4.565
20
0.5015677267045744
30
0.10933161594775359
11
-4.435
21
0.5015677267045744
31
0.10933161594775359
12
-4.435
22
0.5015677267045744
32
0.21933161594775358
13
-4.565
23
0.5015677267045744
33
0.21933161594775358
0
3DFACE
5
FC50
330
FB96
100
AcDbEntity
100
AcDbFace
8
CELIK_KIRIS_KOLON
10
-4.565
20
0.37156772670457444
30
0.10933161594775359
11
-4.565
21
0.5015677267045744
31
0.10933161594775359
12
-4.565
22
0.5015677267045744
32
0.21933161594775358
13
-4.565
23
0.37156772670457444
33
0.21933161594775358
0
3DFACE
5
FC51
330
FB96
100
AcDbEntity
100
AcDbFace
8
CELIK_KIRIS_KOLON
10
-4.435
20
0.37156772670457444
30
0.10933161594775359
11
-4.435
21
0.5015677267045744
31
0.10933161594775359
12
-4.435
22
0.5015677267045744
32
0.21933161594775358
13
-4.435
23
0.37156772670457444
33
0.21933161594775358
0
LINE
5
FC52
330
FB96
100
AcDbEntity
100
AcDbLine
8
CELIK_KIRIS_KOLON
10
-4.565
20
0.37156772670457444
30
0.10933161594775359
11
-4.435
21
0.37156772670457444
31
0.10933161594775359
0
LINE
5
FC53
330
FB96
100
AcDbEntity
100
AcDbLine
8
CELIK_KIRIS_KOLON
10
-4.435
20
0.37156772670457444
30
0.10933161594775359
11
-4.435
21
0.5015677267045744
31
0.10933161594775359
0
LINE
5
FC54
330
FB96
100
AcDbEntity
100
AcDbLine
8
CELIK_KIRIS_KOLON
10
-4.435
20
0.5015677267045744
30
0.10933161594775359
11
-4.565
21
0.5015677267045744
31
0.10933161594775359
0
LINE
5
FC55
330
FB96
100
AcDbEntity
100
AcDbLine
8
CELIK_KIRIS_KOLON
10
-4.565
20
0.5015677267045744
30
0.10933161594775359
11
-4.565
21
0.37156772670457444
31
0.10933161594775359
0
LINE
5
FC56
330
FB96
100
AcDbEntity
100
AcDbLine
8
CELIK_KIRIS_KOLON
10
-4.565
20
0.37156772670457444
30
0.21933161594775358
11
-4.435
21
0.37156772670457444
31
0.21933161594775358
0
LINE
5
FC57
330
FB96
100
AcDbEntity
100
AcDbLine
8
CELIK_KIRIS_KOLON
10
-4.435
20
0.37156772670457444
30
0.21933161594775358
11
-4.435
21
0.5015677267045744
31
0.21933161594775358
0
LINE
5
FC58
330
FB96
100
AcDbEntity
100
AcDbLine
8
CELIK_KIRIS_KOLON
10
-4.435
20
0.5015677267045744
30
0.21933161594775358
11
-4.565
21
0.5015677267045744
31
0.21933161594775358
0
LINE
5
FC59
330
FB96
100
AcDbEntity
100
AcDbLine
8
CELIK_KIRIS_KOLON
10
-4.565
20
0.5015677267045744
30
0.21933161594775358
11
-4.565
21
0.37156772670457444
31
0.21933161594775358
0
LINE
5
FC5A
330
FB96
100
AcDbEntity
100
AcDbLine
8
CELIK_KIRIS_KOLON
10
-4.565
20
0.37156772670457444
30
0.10933161594775359
11
-4.565
21
0.37156772670457444
31
0.21933161594775358
0
LINE
5
FC5B
330
FB96
100
AcDbEntity
100
AcDbLine
8
CELIK_KIRIS_KOLON
10
-4.435
20
0.37156772670457444
30
0.10933161594775359
11
-4.435
21
0.37156772670457444
31
0.21933161594775358
0
LINE
5
FC5C
330
FB96
100
AcDbEntity
100
AcDbLine
8
CELIK_KIRIS_KOLON
10
-4.435
20
0.5015677267045744
30
0.10933161594775359
11
-4.435
21
0.5015677267045744
31
0.21933161594775358
0
LINE
5
FC5D
330
FB96
100
AcDbEntity
100
AcDbLine
8
CELIK_KIRIS_KOLON
10
-4.565
20
0.5015677267045744
30
0.10933161594775359
11
-4.565
21
0.5015677267045744
31
0.21933161594775358
0
3DFACE
5
FC5E
330
FB96
100
AcDbEntity
100
AcDbFace
8
CELIK_KIRIS_KOLON
10
-4.565
20
0.09933161594775367
30
0.38156772670457445
11
-4.435
21
0.09933161594775367
31
0.38156772670457445
12
-4.435
22
0.22933161594775367
32
0.38156772670457445
13
-4.565
23
0.22933161594775367
33
0.38156772670457445
0
3DFACE
5
FC5F
330
FB96
100
AcDbEntity
100
AcDbFace
8
CELIK_KIRIS_KOLON
10
-4.565
20
0.09933161594775367
30
0.49156772670457444
11
-4.435
21
0.09933161594775367
31
0.49156772670457444
12
-4.435
22
0.22933161594775367
32
0.49156772670457444
13
-4.565
23
0.22933161594775367
33
0.49156772670457444
0
3DFACE
5
FC60
330
FB96
100
AcDbEntity
100
AcDbFace
8
CELIK_KIRIS_KOLON
10
-4.565
20
0.09933161594775367
30
0.38156772670457445
11
-4.435
21
0.09933161594775367
31
0.38156772670457445
12
-4.435
22
0.09933161594775367
32
0.49156772670457444
13
-4.565
23
0.09933161594775367
33
0.49156772670457444
0
3DFACE
5
FC61
330
FB96
100
AcDbEntity
100
AcDbFace
8
CELIK_KIRIS_KOLON
10
-4.565
20
0.22933161594775367
30
0.38156772670457445
11
-4.435
21
0.22933161594775367
31
0.38156772670457445
12
-4.435
22
0.22933161594775367
32
0.49156772670457444
13
-4.565
23
0.22933161594775367
33
0.49156772670457444
0
3DFACE
5
FC62
330
FB96
100
AcDbEntity
100
AcDbFace
8
CELIK_KIRIS_KOLON
10
-4.565
20
0.09933161594775367
30
0.38156772670457445
11
-4.565
21
0.22933161594775367
31
0.38156772670457445
12
-4.565
22
0.22933161594775367
32
0.49156772670457444
13
-4.565
23
0.09933161594775367
33
0.49156772670457444
0
3DFACE
5
FC63
330
FB96
100
AcDbEntity
100
AcDbFace
8
CELIK_KIRIS_KOLON
10
-4.435
20
0.09933161594775367
30
0.38156772670457445
11
-4.435
21
0.22933161594775367
31
0.38156772670457445
12
-4.435
22
0.22933161594775367
32
0.49156772670457444
13
-4.435
23
0.09933161594775367
33
0.49156772670457444
0
LINE
5
FC64
330
FB96
100
AcDbEntity
100
AcDbLine
8
CELIK_KIRIS_KOLON
10
-4.565
20
0.09933161594775367
30
0.38156772670457445
11
-4.435
21
0.09933161594775367
31
0.38156772670457445
0
LINE
5
FC65
330
FB96
100
AcDbEntity
100
AcDbLine
8
CELIK_KIRIS_KOLON
10
-4.435
20
0.09933161594775367
30
0.38156772670457445
11
-4.435
21
0.22933161594775367
31
0.38156772670457445
0
LINE
5
FC66
330
FB96
100
AcDbEntity
100
AcDbLine
8
CELIK_KIRIS_KOLON
10
-4.435
20
0.22933161594775367
30
0.38156772670457445
11
-4.565
21
0.22933161594775367
31
0.38156772670457445
0
LINE
5
FC67
330
FB96
100
AcDbEntity
100
AcDbLine
8
CELIK_KIRIS_KOLON
10
-4.565
20
0.22933161594775367
30
0.38156772670457445
11
-4.565
21
0.09933161594775367
31
0.38156772670457445
0
LINE
5
FC68
330
FB96
100
AcDbEntity
100
AcDbLine
8
CELIK_KIRIS_KOLON
10
-4.565
20
0.09933161594775367
30
0.49156772670457444
11
-4.435
21
0.09933161594775367
31
0.49156772670457444
0
LINE
5
FC69
330
FB96
100
AcDbEntity
100
AcDbLine
8
CELIK_KIRIS_KOLON
10
-4.435
20
0.09933161594775367
30
0.49156772670457444
11
-4.435
21
0.22933161594775367
31
0.49156772670457444
0
LINE
5
FC6A
330
FB96
100
AcDbEntity
100
AcDbLine
8
CELIK_KIRIS_KOLON
10
-4.435
20
0.22933161594775367
30
0.49156772670457444
11
-4.565
21
0.22933161594775367
31
0.49156772670457444
0
LINE
5
FC6B
330
FB96
100
AcDbEntity
100
AcDbLine
8
CELIK_KIRIS_KOLON
10
-4.565
20
0.22933161594775367
30
0.49156772670457444
11
-4.565
21
0.09933161594775367
31
0.49156772670457444
0
LINE
5
FC6C
330
FB96
100
AcDbEntity
100
AcDbLine
8
CELIK_KIRIS_KOLON
10
-4.565
20
0.09933161594775367
30
0.38156772670457445
11
-4.565
21
0.09933161594775367
31
0.49156772670457444
0
LINE
5
FC6D
330
FB96
100
AcDbEntity
100
AcDbLine
8
CELIK_KIRIS_KOLON
10
-4.435
20
0.09933161594775367
30
0.38156772670457445
11
-4.435
21
0.09933161594775367
31
0.49156772670457444
0
LINE
5
FC6E
330
FB96
100
AcDbEntity
100
AcDbLine
8
CELIK_KIRIS_KOLON
10
-4.435
20
0.22933161594775367
30
0.38156772670457445
11
-4.435
21
0.22933161594775367
31
0.49156772670457444
0
LINE
5
FC6F
330
FB96
100
AcDbEntity
100
AcDbLine
8
CELIK_KIRIS_KOLON
10
-4.565
20
0.22933161594775367
30
0.38156772670457445
11
-4.565
21
0.22933161594775367
31
0.49156772670457444
0
3DFACE
5
FC7E
330
FB96
100
AcDbEntity
100
AcDbFace
8
CELIK_KIRIS_KOLON
10
-3.57
20
0.23864853865045982
30
-0.08308504678941936
11
-3.43
21
0.23864853865045982
31
-0.08308504678941936
12
-3.43
22
-0.08308504678941932
32
0.23864853865045982
13
-3.57
23
-0.08308504678941932
33
0.23864853865045982
0
3DFACE
5
FC7F
330
FB96
100
AcDbEntity
100
AcDbFace
8
CELIK_KIRIS_KOLON
10
-3.561
20
0.09899494936611666
30
0.0565685424949238
11
-3.549
21
0.09899494936611666
31
0.0565685424949238
12
-3.549
22
0.23405234457274723
32
0.27647875144394
13
-3.561
23
0.23405234457274723
33
0.27647875144394
0
3DFACE
5
FC80
330
FB96
100
AcDbEntity
100
AcDbFace
8
CELIK_KIRIS_KOLON
10
-3.451
20
0.09899494936611666
30
0.0565685424949238
11
-3.439
21
0.09899494936611666
31
0.0565685424949238
12
-3.439
22
0.23405234457274723
32
0.27647875144394
13
-3.451
23
0.23405234457274723
33
0.27647875144394
0
3DFACE
5
FCAD
330
FB96
100
AcDbEntity
100
AcDbFace
8
CELIK_KIRIS_KOLON
10
-3.565
20
0.37156772670457444
30
0.10933161594775359
11
-3.435
21
0.37156772670457444
31
0.10933161594775359
12
-3.435
22
0.5015677267045744
32
0.10933161594775359
13
-3.565
23
0.5015677267045744
33
0.10933161594775359
0
3DFACE
5
FCAE
330
FB96
100
AcDbEntity
100
AcDbFace
8
CELIK_KIRIS_KOLON
10
-3.565
20
0.37156772670457444
30
0.21933161594775358
11
-3.435
21
0.37156772670457444
31
0.21933161594775358
12
-3.435
22
0.5015677267045744
32
0.21933161594775358
13
-3.565
23
0.5015677267045744
33
0.21933161594775358
0
3DFACE
5
FCAF
330
FB96
100
AcDbEntity
100
AcDbFace
8
CELIK_KIRIS_KOLON
10
-3.565
20
0.37156772670457444
30
0.10933161594775359
11
-3.435
21
0.37156772670457444
31
0.10933161594775359
12
-3.435
22
0.37156772670457444
32
0.21933161594775358
13
-3.565
23
0.37156772670457444
33
0.21933161594775358
0
3DFACE
5
FCB0
330
FB96
100
AcDbEntity
100
AcDbFace
8
CELIK_KIRIS_KOLON
10
-3.565
20
0.5015677267045744
30
0.10933161594775359
11
-3.435
21
0.5015677267045744
31
0.10933161594775359
12
-3.435
22
0.5015677267045744
32
0.21933161594775358
13
-3.565
23
0.5015677267045744
33
0.21933161594775358
0
3DFACE
5
FCB1
330
FB96
100
AcDbEntity
100
AcDbFace
8
CELIK_KIRIS_KOLON
10
-3.565
20
0.37156772670457444
30
0.10933161594775359
11
-3.565
21
0.5015677267045744
31
0.10933161594775359
12
-3.565
22
0.5015677267045744
32
0.21933161594775358
13
-3.565
23
0.37156772670457444
33
0.21933161594775358
0
3DFACE
5
FCB2
330
FB96
100
AcDbEntity
100
AcDbFace
8
CELIK_KIRIS_KOLON
10
-3.435
20
0.37156772670457444
30
0.10933161594775359
11
-3.435
21
0.5015677267045744
31
0.10933161594775359
12
-3.435
22
0.5015677267045744
32
0.21933161594775358
13
-3.435
23
0.37156772670457444
33
0.21933161594775358
0
LINE
5
FCB3
330
FB96
100
AcDbEntity
100
AcDbLine
8
CELIK_KIRIS_KOLON
10
-3.565
20
0.37156772670457444
30
0.10933161594775359
11
-3.435
21
0.37156772670457444
31
0.10933161594775359
0
LINE
5
FCB4
330
FB96
100
AcDbEntity
100
AcDbLine
8
CELIK_KIRIS_KOLON
10
-3.435
20
0.37156772670457444
30
0.10933161594775359
11
-3.435
21
0.5015677267045744
31
0.10933161594775359
0
LINE
5
FCB5
330
FB96
100
AcDbEntity
100
AcDbLine
8
CELIK_KIRIS_KOLON
10
-3.435
20
0.5015677267045744
30
0.10933161594775359
11
-3.565
21
0.5015677267045744
31
0.10933161594775359
0
LINE
5
FCB6
330
FB96
100
AcDbEntity
100
AcDbLine
8
CELIK_KIRIS_KOLON
10
-3.565
20
0.5015677267045744
30
0.10933161594775359
11
-3.565
21
0.37156772670457444
31
0.10933161594775359
0
LINE
5
FCB7
330
FB96
100
AcDbEntity
100
AcDbLine
8
CELIK_KIRIS_KOLON
10
-3.565
20
0.37156772670457444
30
0.21933161594775358
11
-3.435
21
0.37156772670457444
31
0.21933161594775358
0
LINE
5
FCB8
330
FB96
100
AcDbEntity
100
AcDbLine
8
CELIK_KIRIS_KOLON
10
-3.435
20
0.37156772670457444
30
0.21933161594775358
11
-3.435
21
0.5015677267045744
31
0.21933161594775358
0
LINE
5
FCB9
330
FB96
100
AcDbEntity
100
AcDbLine
8
CELIK_KIRIS_KOLON
10
-3.435
20
0.5015677267045744
30
0.21933161594775358
11
-3.565
21
0.5015677267045744
31
0.21933161594775358
0
LINE
5
FCBA
330
FB96
100
AcDbEntity
100
AcDbLine
8
CELIK_KIRIS_KOLON
10
-3.565
20
0.5015677267045744
30
0.21933161594775358
11
-3.565
21
0.37156772670457444
31
0.21933161594775358
0
LINE
5
FCBB
330
FB96
100
AcDbEntity
100
AcDbLine
8
CELIK_KIRIS_KOLON
10
-3.565
20
0.37156772670457444
30
0.10933161594775359
11
-3.565
21
0.37156772670457444
31
0.21933161594775358
0
LINE
5
FCBC
330
FB96
100
AcDbEntity
100
AcDbLine
8
CELIK_KIRIS_KOLON
10
-3.435
20
0.37156772670457444
30
0.10933161594775359
11
-3.435
21
0.37156772670457444
31
0.21933161594775358
0
LINE
5
FCBD
330
FB96
100
AcDbEntity
100
AcDbLine
8
CELIK_KIRIS_KOLON
10
-3.435
20
0.5015677267045744
30
0.10933161594775359
11
-3.435
21
0.5015677267045744
31
0.21933161594775358
0
LINE
5
FCBE
330
FB96
100
AcDbEntity
100
AcDbLine
8
CELIK_KIRIS_KOLON
10
-3.565
20
0.5015677267045744
30
0.10933161594775359
11
-3.565
21
0.5015677267045744
31
0.21933161594775358
0
3DFACE
5
FCBF
330
FB96
100
AcDbEntity
100
AcDbFace
8
CELIK_KIRIS_KOLON
10
-3.565
20
0.09933161594775367
30
0.38156772670457445
11
-3.435
21
0.09933161594775367
31
0.38156772670457445
12
-3.435
22
0.22933161594775367
32
0.38156772670457445
13
-3.565
23
0.22933161594775367
33
0.38156772670457445
0
3DFACE
5
FCC0
330
FB96
100
AcDbEntity
100
AcDbFace
8
CELIK_KIRIS_KOLON
10
-3.565
20
0.09933161594775367
30
0.49156772670457444
11
-3.435
21
0.09933161594775367
31
0.49156772670457444
12
-3.435
22
0.22933161594775367
32
0.49156772670457444
13
-3.565
23
0.22933161594775367
33
0.49156772670457444
0
3DFACE
5
FCC1
330
FB96
100
AcDbEntity
100
AcDbFace
8
CELIK_KIRIS_KOLON
10
-3.565
20
0.09933161594775367
30
0.38156772670457445
11
-3.435
21
0.09933161594775367
31
0.38156772670457445
12
-3.435
22
0.09933161594775367
32
0.49156772670457444
13
-3.565
23
0.09933161594775367
33
0.49156772670457444
0
3DFACE
5
FCC2
330
FB96
100
AcDbEntity
100
AcDbFace
8
CELIK_KIRIS_KOLON
10
-3.565
20
0.22933161594775367
30
0.38156772670457445
11
-3.435
21
0.22933161594775367
31
0.38156772670457445
12
-3.435
22
0.22933161594775367
32
0.49156772670457444
13
-3.565
23
0.22933161594775367
33
0.49156772670457444
0
3DFACE
5
FCC3
330
FB96
100
AcDbEntity
100
AcDbFace
8
CELIK_KIRIS_KOLON
10
-3.565
20
0.09933161594775367
30
0.38156772670457445
11
-3.565
21
0.22933161594775367
31
0.38156772670457445
12
-3.565
22
0.22933161594775367
32
0.49156772670457444
13
-3.565
23
0.09933161594775367
33
0.49156772670457444
0
3DFACE
5
FCC4
330
FB96
100
AcDbEntity
100
AcDbFace
8
CELIK_KIRIS_KOLON
10
-3.435
20
0.09933161594775367
30
0.38156772670457445
11
-3.435
21
0.22933161594775367
31
0.38156772670457445
12
-3.435
22
0.22933161594775367
32
0.49156772670457444
13
-3.435
23
0.09933161594775367
33
0.49156772670457444
0
LINE
5
FCC5
330
FB96
100
AcDbEntity
100
AcDbLine
8
CELIK_KIRIS_KOLON
10
-3.565
20
0.09933161594775367
30
0.38156772670457445
11
-3.435
21
0.09933161594775367
31
0.38156772670457445
0
LINE
5
FCC6
330
FB96
100
AcDbEntity
100
AcDbLine
8
CELIK_KIRIS_KOLON
10
-3.435
20
0.09933161594775367
30
0.38156772670457445
11
-3.435
21
0.22933161594775367
31
0.38156772670457445
0
LINE
5
FCC7
330
FB96
100
AcDbEntity
100
AcDbLine
8
CELIK_KIRIS_KOLON
10
-3.435
20
0.22933161594775367
30
0.38156772670457445
11
-3.565
21
0.22933161594775367
31
0.38156772670457445
0
LINE
5
FCC8
330
FB96
100
AcDbEntity
100
AcDbLine
8
CELIK_KIRIS_KOLON
10
-3.565
20
0.22933161594775367
30
0.38156772670457445
11
-3.565
21
0.09933161594775367
31
0.38156772670457445
0
LINE
5
FCC9
330
FB96
100
AcDbEntity
100
AcDbLine
8
CELIK_KIRIS_KOLON
10
-3.565
20
0.09933161594775367
30
0.49156772670457444
11
-3.435
21
0.09933161594775367
31
0.49156772670457444
0
LINE
5
FCCA
330
FB96
100
AcDbEntity
100
AcDbLine
8
CELIK_KIRIS_KOLON
10
-3.435
20
0.09933161594775367
30
0.49156772670457444
11
-3.435
21
0.22933161594775367
31
0.49156772670457444
0
LINE
5
FCCB
330
FB96
100
AcDbEntity
100
AcDbLine
8
CELIK_KIRIS_KOLON
10
-3.435
20
0.22933161594775367
30
0.49156772670457444
11
-3.565
21
0.22933161594775367
31
0.49156772670457444
0
LINE
5
FCCC
330
FB96
100
AcDbEntity
100
AcDbLine
8
CELIK_KIRIS_KOLON
10
-3.565
20
0.22933161594775367
30
0.49156772670457444
11
-3.565
21
0.09933161594775367
31
0.49156772670457444
0
LINE
5
FCCD
330
FB96
100
AcDbEntity
100
AcDbLine
8
CELIK_KIRIS_KOLON
10
-3.565
20
0.09933161594775367
30
0.38156772670457445
11
-3.565
21
0.09933161594775367
31
0.49156772670457444
0
LINE
5
FCCE
330
FB96
100
AcDbEntity
100
AcDbLine
8
CELIK_KIRIS_KOLON
10
-3.435
20
0.09933161594775367
30
0.38156772670457445
11
-3.435
21
0.09933161594775367
31
0.49156772670457444
0
LINE
5
FCCF
330
FB96
100
AcDbEntity
100
AcDbLine
8
CELIK_KIRIS_KOLON
10
-3.435
20
0.22933161594775367
30
0.38156772670457445
11
-3.435
21
0.22933161594775367
31
0.49156772670457444
0
LINE
5
FCD0
330
FB96
100
AcDbEntity
100
AcDbLine
8
CELIK_KIRIS_KOLON
10
-3.565
20
0.22933161594775367
30
0.38156772670457445
11
-3.565
21
0.22933161594775367
31
0.49156772670457444
0
3DFACE
5
FCD2
330
FB96
100
AcDbEntity
100
AcDbFace
8
CELIK_KIRIS_KOLON
10
-5
20
-0.05
30
0.55
11
-3
21
-0.05
31
0.55
12
-3
22
0.05
32
0.55
13
-5
23
0.05
33
0.55
0
3DFACE
5
FCD3
330
FB96
100
AcDbEntity
100
AcDbFace
8
CELIK_KIRIS_KOLON
10
-5
20
-0.05
30
0.65
11
-3
21
-0.05
31
0.65
12
-3
22
0.05
32
0.65
13
-5
23
0.05
33
0.65
0
3DFACE
5
FCD4
330
FB96
100
AcDbEntity
100
AcDbFace
8
CELIK_KIRIS_KOLON
10
-5
20
-0.05
30
0.55
11
-3
21
-0.05
31
0.55
12
-3
22
-0.05
32
0.65
13
-5
23
-0.05
33
0.65
0
3DFACE
5
FCD5
330
FB96
100
AcDbEntity
100
AcDbFace
8
CELIK_KIRIS_KOLON
10
-5
20
0.05
30
0.55
11
-3
21
0.05
31
0.55
12
-3
22
0.05
32
0.65
13
-5
23
0.05
33
0.65
0
3DFACE
5
FCD6
330
FB96
100
AcDbEntity
100
AcDbFace
8
CELIK_KIRIS_KOLON
10
-5
20
-0.05
30
0.55
11
-5
21
0.05
31
0.55
12
-5
22
0.05
32
0.65
13
-5
23
-0.05
33
0.65
0
3DFACE
5
FCD7
330
FB96
100
AcDbEntity
100
AcDbFace
8
CELIK_KIRIS_KOLON
10
-3
20
-0.05
30
0.55
11
-3
21
0.05
31
0.55
12
-3
22
0.05
32
0.65
13
-3
23
-0.05
33
0.65
0
LINE
5
FCD8
330
FB96
100
AcDbEntity
100
AcDbLine
8
CELIK_KIRIS_KOLON
10
-5
20
-0.05
30
0.55
11
-3
21
-0.05
31
0.55
0
LINE
5
FCD9
330
FB96
100
AcDbEntity
100
AcDbLine
8
CELIK_KIRIS_KOLON
10
-3
20
-0.05
30
0.55
11
-3
21
0.05
31
0.55
0
LINE
5
FCDA
330
FB96
100
AcDbEntity
100
AcDbLine
8
CELIK_KIRIS_KOLON
10
-3
20
0.05
30
0.55
11
-5
21
0.05
31
0.55
0
LINE
5
FCDB
330
FB96
100
AcDbEntity
100
AcDbLine
8
CELIK_KIRIS_KOLON
10
-5
20
0.05
30
0.55
11
-5
21
-0.05
31
0.55
0
LINE
5
FCDC
330
FB96
100
AcDbEntity
100
AcDbLine
8
CELIK_KIRIS_KOLON
10
-5
20
-0.05
30
0.65
11
-3
21
-0.05
31
0.65
0
LINE
5
FCDD
330
FB96
100
AcDbEntity
100
AcDbLine
8
CELIK_KIRIS_KOLON
10
-3
20
-0.05
30
0.65
11
-3
21
0.05
31
0.65
0
LINE
5
FCDE
330
FB96
100
AcDbEntity
100
AcDbLine
8
CELIK_KIRIS_KOLON
10
-3
20
0.05
30
0.65
11
-5
21
0.05
31
0.65
0
LINE
5
FCDF
330
FB96
100
AcDbEntity
100
AcDbLine
8
CELIK_KIRIS_KOLON
10
-5
20
0.05
30
0.65
11
-5
21
-0.05
31
0.65
0
LINE
5
FCE0
330
FB96
100
AcDbEntity
100
AcDbLine
8
CELIK_KIRIS_KOLON
10
-5
20
-0.05
30
0.55
11
-5
21
-0.05
31
0.65
0
LINE
5
FCE1
330
FB96
100
AcDbEntity
100
AcDbLine
8
CELIK_KIRIS_KOLON
10
-3
20
-0.05
30
0.55
11
-3
21
-0.05
31
0.65
0
LINE
5
FCE2
330
FB96
100
AcDbEntity
100
AcDbLine
8
CELIK_KIRIS_KOLON
10
-3
20
0.05
30
0.55
11
-3
21
0.05
31
0.65
0
LINE
5
FCE3
330
FB96
100
AcDbEntity
100
AcDbLine
8
CELIK_KIRIS_KOLON
10
-5
20
0.05
30
0.55
11
-5
21
0.05
31
0.65
0
3DFACE
5
FCF1
330
FB96
100
AcDbEntity
100
AcDbFace
8
CELIK_KIRIS_KOLON
10
6.115844123938678
20
0.3681976807639745
30
-0.08308504678941936
11
6.2474010908487045
21
0.3203148606983809
31
-0.08308504678941936
12
6.137361723843876
22
0.01798418460153392
32
0.23864853865045982
13
6.005804756933849
23
0.06586700466712755
33
0.23864853865045982
0
3DFACE
5
FCF2
330
FB96
100
AcDbEntity
100
AcDbFace
8
CELIK_KIRIS_KOLON
10
6.076537016902776
20
0.23388805215728026
30
0.0565685424949238
11
6.0878133283522065
21
0.22978381043737223
31
0.0565685424949238
12
6.13400567801797
22
0.3566962480956091
32
0.27647875144394
13
6.122729366568539
23
0.36080048981551716
33
0.27647875144394
0
3DFACE
5
FCF3
330
FB96
100
AcDbEntity
100
AcDbFace
8
CELIK_KIRIS_KOLON
10
6.179903205189226
20
0.1962658363914567
30
0.0565685424949238
11
6.191179516638656
21
0.19216159467154867
31
0.0565685424949238
12
6.23737186630442
22
0.3190740323297856
32
0.27647875144394
13
6.226095554854989
23
0.32317827404969357
33
0.27647875144394
0
3DFACE
5
FD20
330
FB96
100
AcDbEntity
100
AcDbFace
8
CELIK_KIRIS_KOLON
10
6.184314956458859
20
0.46523947125756776
30
0.10933161594775359
11
6.31431495645886
21
0.46523947125756776
31
0.10933161594775359
12
6.31431495645886
22
0.5952394712575677
32
0.10933161594775359
13
6.184314956458859
23
0.5952394712575677
33
0.10933161594775359
0
3DFACE
5
FD21
330
FB96
100
AcDbEntity
100
AcDbFace
8
CELIK_KIRIS_KOLON
10
6.184314956458859
20
0.46523947125756776
30
0.21933161594775358
11
6.31431495645886
21
0.46523947125756776
31
0.21933161594775358
12
6.31431495645886
22
0.5952394712575677
32
0.21933161594775358
13
6.184314956458859
23
0.5952394712575677
33
0.21933161594775358
0
3DFACE
5
FD22
330
FB96
100
AcDbEntity
100
AcDbFace
8
CELIK_KIRIS_KOLON
10
6.184314956458859
20
0.46523947125756776
30
0.10933161594775359
11
6.31431495645886
21
0.46523947125756776
31
0.10933161594775359
12
6.31431495645886
22
0.46523947125756776
32
0.21933161594775358
13
6.184314956458859
23
0.46523947125756776
33
0.21933161594775358
0
3DFACE
5
FD23
330
FB96
100
AcDbEntity
100
AcDbFace
8
CELIK_KIRIS_KOLON
10
6.184314956458859
20
0.5952394712575677
30
0.10933161594775359
11
6.31431495645886
21
0.5952394712575677
31
0.10933161594775359
12
6.31431495645886
22
0.5952394712575677
32
0.21933161594775358
13
6.184314956458859
23
0.5952394712575677
33
0.21933161594775358
0
3DFACE
5
FD24
330
FB96
100
AcDbEntity
100
AcDbFace
8
CELIK_KIRIS_KOLON
10
6.184314956458859
20
0.46523947125756776
30
0.10933161594775359
11
6.184314956458859
21
0.5952394712575677
31
0.10933161594775359
12
6.184314956458859
22
0.5952394712575677
32
0.21933161594775358
13
6.184314956458859
23
0.46523947125756776
33
0.21933161594775358
0
3DFACE
5
FD25
330
FB96
100
AcDbEntity
100
AcDbFace
8
CELIK_KIRIS_KOLON
10
6.31431495645886
20
0.46523947125756776
30
0.10933161594775359
11
6.31431495645886
21
0.5952394712575677
31
0.10933161594775359
12
6.31431495645886
22
0.5952394712575677
32
0.21933161594775358
13
6.31431495645886
23
0.46523947125756776
33
0.21933161594775358
0
LINE
5
FD26
330
FB96
100
AcDbEntity
100
AcDbLine
8
CELIK_KIRIS_KOLON
10
6.184314956458859
20
0.46523947125756776
30
0.10933161594775359
11
6.31431495645886
21
0.46523947125756776
31
0.10933161594775359
0
LINE
5
FD27
330
FB96
100
AcDbEntity
100
AcDbLine
8
CELIK_KIRIS_KOLON
10
6.31431495645886
20
0.46523947125756776
30
0.10933161594775359
11
6.31431495645886
21
0.5952394712575677
31
0.10933161594775359
0
LINE
5
FD28
330
FB96
100
AcDbEntity
100
AcDbLine
8
CELIK_KIRIS_KOLON
10
6.31431495645886
20
0.5952394712575677
30
0.10933161594775359
11
6.184314956458859
21
0.5952394712575677
31
0.10933161594775359
0
LINE
5
FD29
330
FB96
100
AcDbEntity
100
AcDbLine
8
CELIK_KIRIS_KOLON
10
6.184314956458859
20
0.5952394712575677
30
0.10933161594775359
11
6.184314956458859
21
0.46523947125756776
31
0.10933161594775359
0
LINE
5
FD2A
330
FB96
100
AcDbEntity
100
AcDbLine
8
CELIK_KIRIS_KOLON
10
6.184314956458859
20
0.46523947125756776
30
0.21933161594775358
11
6.31431495645886
21
0.46523947125756776
31
0.21933161594775358
0
LINE
5
FD2B
330
FB96
100
AcDbEntity
100
AcDbLine
8
CELIK_KIRIS_KOLON
10
6.31431495645886
20
0.46523947125756776
30
0.21933161594775358
11
6.31431495645886
21
0.5952394712575677
31
0.21933161594775358
0
LINE
5
FD2C
330
FB96
100
AcDbEntity
100
AcDbLine
8
CELIK_KIRIS_KOLON
10
6.31431495645886
20
0.5952394712575677
30
0.21933161594775358
11
6.184314956458859
21
0.5952394712575677
31
0.21933161594775358
0
LINE
5
FD2D
330
FB96
100
AcDbEntity
100
AcDbLine
8
CELIK_KIRIS_KOLON
10
6.184314956458859
20
0.5952394712575677
30
0.21933161594775358
11
6.184314956458859
21
0.46523947125756776
31
0.21933161594775358
0
LINE
5
FD2E
330
FB96
100
AcDbEntity
100
AcDbLine
8
CELIK_KIRIS_KOLON
10
6.184314956458859
20
0.46523947125756776
30
0.10933161594775359
11
6.184314956458859
21
0.46523947125756776
31
0.21933161594775358
0
LINE
5
FD2F
330
FB96
100
AcDbEntity
100
AcDbLine
8
CELIK_KIRIS_KOLON
10
6.31431495645886
20
0.46523947125756776
30
0.10933161594775359
11
6.31431495645886
21
0.46523947125756776
31
0.21933161594775358
0
LINE
5
FD30
330
FB96
100
AcDbEntity
100
AcDbLine
8
CELIK_KIRIS_KOLON
10
6.31431495645886
20
0.5952394712575677
30
0.10933161594775359
11
6.31431495645886
21
0.5952394712575677
31
0.21933161594775358
0
LINE
5
FD31
330
FB96
100
AcDbEntity
100
AcDbLine
8
CELIK_KIRIS_KOLON
10
6.184314956458859
20
0.5952394712575677
30
0.10933161594775359
11
6.184314956458859
21
0.5952394712575677
31
0.21933161594775358
0
3DFACE
5
FD32
330
FB96
100
AcDbEntity
100
AcDbFace
8
CELIK_KIRIS_KOLON
10
6.091204722839389
20
0.20942120686792803
30
0.38156772670457445
11
6.221204722839389
21
0.20942120686792803
31
0.38156772670457445
12
6.221204722839389
22
0.33942120686792804
32
0.38156772670457445
13
6.091204722839389
23
0.33942120686792804
33
0.38156772670457445
0
3DFACE
5
FD33
330
FB96
100
AcDbEntity
100
AcDbFace
8
CELIK_KIRIS_KOLON
10
6.091204722839389
20
0.20942120686792803
30
0.49156772670457444
11
6.221204722839389
21
0.20942120686792803
31
0.49156772670457444
12
6.221204722839389
22
0.33942120686792804
32
0.49156772670457444
13
6.091204722839389
23
0.33942120686792804
33
0.49156772670457444
0
3DFACE
5
FD34
330
FB96
100
AcDbEntity
100
AcDbFace
8
CELIK_KIRIS_KOLON
10
6.091204722839389
20
0.20942120686792803
30
0.38156772670457445
11
6.221204722839389
21
0.20942120686792803
31
0.38156772670457445
12
6.221204722839389
22
0.20942120686792803
32
0.49156772670457444
13
6.091204722839389
23
0.20942120686792803
33
0.49156772670457444
0
3DFACE
5
FD35
330
FB96
100
AcDbEntity
100
AcDbFace
8
CELIK_KIRIS_KOLON
10
6.091204722839389
20
0.33942120686792804
30
0.38156772670457445
11
6.221204722839389
21
0.33942120686792804
31
0.38156772670457445
12
6.221204722839389
22
0.33942120686792804
32
0.49156772670457444
13
6.091204722839389
23
0.33942120686792804
33
0.49156772670457444
0
3DFACE
5
FD36
330
FB96
100
AcDbEntity
100
AcDbFace
8
CELIK_KIRIS_KOLON
10
6.091204722839389
20
0.20942120686792803
30
0.38156772670457445
11
6.091204722839389
21
0.33942120686792804
31
0.38156772670457445
12
6.091204722839389
22
0.33942120686792804
32
0.49156772670457444
13
6.091204722839389
23
0.20942120686792803
33
0.49156772670457444
0
3DFACE
5
FD37
330
FB96
100
AcDbEntity
100
AcDbFace
8
CELIK_KIRIS_KOLON
10
6.221204722839389
20
0.20942120686792803
30
0.38156772670457445
11
6.221204722839389
21
0.33942120686792804
31
0.38156772670457445
12
6.221204722839389
22
0.33942120686792804
32
0.49156772670457444
13
6.221204722839389
23
0.20942120686792803
33
0.49156772670457444
0
LINE
5
FD38
330
FB96
100
AcDbEntity
100
AcDbLine
8
CELIK_KIRIS_KOLON
10
6.091204722839389
20
0.20942120686792803
30
0.38156772670457445
11
6.221204722839389
21
0.20942120686792803
31
0.38156772670457445
0
LINE
5
FD39
330
FB96
100
AcDbEntity
100
AcDbLine
8
CELIK_KIRIS_KOLON
10
6.221204722839389
20
0.20942120686792803
30
0.38156772670457445
11
6.221204722839389
21
0.33942120686792804
31
0.38156772670457445
0
LINE
5
FD3A
330
FB96
100
AcDbEntity
100
AcDbLine
8
CELIK_KIRIS_KOLON
10
6.221204722839389
20
0.33942120686792804
30
0.38156772670457445
11
6.091204722839389
21
0.33942120686792804
31
0.38156772670457445
0
LINE
5
FD3B
330
FB96
100
AcDbEntity
100
AcDbLine
8
CELIK_KIRIS_KOLON
10
6.091204722839389
20
0.33942120686792804
30
0.38156772670457445
11
6.091204722839389
21
0.20942120686792803
31
0.38156772670457445
0
LINE
5
FD3C
330
FB96
100
AcDbEntity
100
AcDbLine
8
CELIK_KIRIS_KOLON
10
6.091204722839389
20
0.20942120686792803
30
0.49156772670457444
11
6.221204722839389
21
0.20942120686792803
31
0.49156772670457444
0
LINE
5
FD3D
330
FB96
100
AcDbEntity
100
AcDbLine
8
CELIK_KIRIS_KOLON
10
6.221204722839389
20
0.20942120686792803
30
0.49156772670457444
11
6.221204722839389
21
0.33942120686792804
31
0.49156772670457444
0
LINE
5
FD3E
330
FB96
100
AcDbEntity
100
AcDbLine
8
CELIK_KIRIS_KOLON
10
6.221204722839389
20
0.33942120686792804
30
0.49156772670457444
11
6.091204722839389
21
0.33942120686792804
31
0.49156772670457444
0
LINE
5
FD3F
330
FB96
100
AcDbEntity
100
AcDbLine
8
CELIK_KIRIS_KOLON
10
6.091204722839389
20
0.33942120686792804
30
0.49156772670457444
11
6.091204722839389
21
0.20942120686792803
31
0.49156772670457444
0
LINE
5
FD40
330
FB96
100
AcDbEntity
100
AcDbLine
8
CELIK_KIRIS_KOLON
10
6.091204722839389
20
0.20942120686792803
30
0.38156772670457445
11
6.091204722839389
21
0.20942120686792803
31
0.49156772670457444
0
LINE
5
FD41
330
FB96
100
AcDbEntity
100
AcDbLine
8
CELIK_KIRIS_KOLON
10
6.221204722839389
20
0.20942120686792803
30
0.38156772670457445
11
6.221204722839389
21
0.20942120686792803
31
0.49156772670457444
0
LINE
5
FD42
330
FB96
100
AcDbEntity
100
AcDbLine
8
CELIK_KIRIS_KOLON
10
6.221204722839389
20
0.33942120686792804
30
0.38156772670457445
11
6.221204722839389
21
0.33942120686792804
31
0.49156772670457444
0
LINE
5
FD43
330
FB96
100
AcDbEntity
100
AcDbLine
8
CELIK_KIRIS_KOLON
10
6.091204722839389
20
0.33942120686792804
30
0.38156772670457445
11
6.091204722839389
21
0.33942120686792804
31
0.49156772670457444
0
3DFACE
5
FD52
330
FB96
100
AcDbEntity
100
AcDbFace
8
CELIK_KIRIS_KOLON
10
6.93
20
0.23864853865045982
30
-0.08308504678941936
11
7.07
21
0.23864853865045982
31
-0.08308504678941936
12
7.07
22
-0.08308504678941932
32
0.23864853865045982
13
6.93
23
-0.08308504678941932
33
0.23864853865045982
0
3DFACE
5
FD53
330
FB96
100
AcDbEntity
100
AcDbFace
8
CELIK_KIRIS_KOLON
10
6.939
20
0.09899494936611666
30
0.0565685424949238
11
6.951
21
0.09899494936611666
31
0.0565685424949238
12
6.951
22
0.23405234457274723
32
0.27647875144394
13
6.939
23
0.23405234457274723
33
0.27647875144394
0
3DFACE
5
FD54
330
FB96
100
AcDbEntity
100
AcDbFace
8
CELIK_KIRIS_KOLON
10
7.049
20
0.09899494936611666
30
0.0565685424949238
11
7.061
21
0.09899494936611666
31
0.0565685424949238
12
7.061
22
0.23405234457274723
32
0.27647875144394
13
7.049
23
0.23405234457274723
33
0.27647875144394
0
3DFACE
5
FD81
330
FB96
100
AcDbEntity
100
AcDbFace
8
CELIK_KIRIS_KOLON
10
6.935
20
0.37156772670457444
30
0.10933161594775359
11
7.065
21
0.37156772670457444
31
0.10933161594775359
12
7.065
22
0.5015677267045744
32
0.10933161594775359
13
6.935
23
0.5015677267045744
33
0.10933161594775359
0
3DFACE
5
FD82
330
FB96
100
AcDbEntity
100
AcDbFace
8
CELIK_KIRIS_KOLON
10
6.935
20
0.37156772670457444
30
0.21933161594775358
11
7.065
21
0.37156772670457444
31
0.21933161594775358
12
7.065
22
0.5015677267045744
32
0.21933161594775358
13
6.935
23
0.5015677267045744
33
0.21933161594775358
0
3DFACE
5
FD83
330
FB96
100
AcDbEntity
100
AcDbFace
8
CELIK_KIRIS_KOLON
10
6.935
20
0.37156772670457444
30
0.10933161594775359
11
7.065
21
0.37156772670457444
31
0.10933161594775359
12
7.065
22
0.37156772670457444
32
0.21933161594775358
13
6.935
23
0.37156772670457444
33
0.21933161594775358
0
3DFACE
5
FD84
330
FB96
100
AcDbEntity
100
AcDbFace
8
CELIK_KIRIS_KOLON
10
6.935
20
0.5015677267045744
30
0.10933161594775359
11
7.065
21
0.5015677267045744
31
0.10933161594775359
12
7.065
22
0.5015677267045744
32
0.21933161594775358
13
6.935
23
0.5015677267045744
33
0.21933161594775358
0
3DFACE
5
FD85
330
FB96
100
AcDbEntity
100
AcDbFace
8
CELIK_KIRIS_KOLON
10
6.935
20
0.37156772670457444
30
0.10933161594775359
11
6.935
21
0.5015677267045744
31
0.10933161594775359
12
6.935
22
0.5015677267045744
32
0.21933161594775358
13
6.935
23
0.37156772670457444
33
0.21933161594775358
0
3DFACE
5
FD86
330
FB96
100
AcDbEntity
100
AcDbFace
8
CELIK_KIRIS_KOLON
10
7.065
20
0.37156772670457444
30
0.10933161594775359
11
7.065
21
0.5015677267045744
31
0.10933161594775359
12
7.065
22
0.5015677267045744
32
0.21933161594775358
13
7.065
23
0.37156772670457444
33
0.21933161594775358
0
LINE
5
FD87
330
FB96
100
AcDbEntity
100
AcDbLine
8
CELIK_KIRIS_KOLON
10
6.935
20
0.37156772670457444
30
0.10933161594775359
11
7.065
21
0.37156772670457444
31
0.10933161594775359
0
LINE
5
FD88
330
FB96
100
AcDbEntity
100
AcDbLine
8
CELIK_KIRIS_KOLON
10
7.065
20
0.37156772670457444
30
0.10933161594775359
11
7.065
21
0.5015677267045744
31
0.10933161594775359
0
LINE
5
FD89
330
FB96
100
AcDbEntity
100
AcDbLine
8
CELIK_KIRIS_KOLON
10
7.065
20
0.5015677267045744
30
0.10933161594775359
11
6.935
21
0.5015677267045744
31
0.10933161594775359
0
LINE
5
FD8A
330
FB96
100
AcDbEntity
100
AcDbLine
8
CELIK_KIRIS_KOLON
10
6.935
20
0.5015677267045744
30
0.10933161594775359
11
6.935
21
0.37156772670457444
31
0.10933161594775359
0
LINE
5
FD8B
330
FB96
100
AcDbEntity
100
AcDbLine
8
CELIK_KIRIS_KOLON
10
6.935
20
0.37156772670457444
30
0.21933161594775358
11
7.065
21
0.37156772670457444
31
0.21933161594775358
0
LINE
5
FD8C
330
FB96
100
AcDbEntity
100
AcDbLine
8
CELIK_KIRIS_KOLON
10
7.065
20
0.37156772670457444
30
0.21933161594775358
11
7.065
21
0.5015677267045744
31
0.21933161594775358
0
LINE
5
FD8D
330
FB96
100
AcDbEntity
100
AcDbLine
8
CELIK_KIRIS_KOLON
10
7.065
20
0.5015677267045744
30
0.21933161594775358
11
6.935
21
0.5015677267045744
31
0.21933161594775358
0
LINE
5
FD8E
330
FB96
100
AcDbEntity
100
AcDbLine
8
CELIK_KIRIS_KOLON
10
6.935
20
0.5015677267045744
30
0.21933161594775358
11
6.935
21
0.37156772670457444
31
0.21933161594775358
0
LINE
5
FD8F
330
FB96
100
AcDbEntity
100
AcDbLine
8
CELIK_KIRIS_KOLON
10
6.935
20
0.37156772670457444
30
0.10933161594775359
11
6.935
21
0.37156772670457444
31
0.21933161594775358
0
LINE
5
FD90
330
FB96
100
AcDbEntity
100
AcDbLine
8
CELIK_KIRIS_KOLON
10
7.065
20
0.37156772670457444
30
0.10933161594775359
11
7.065
21
0.37156772670457444
31
0.21933161594775358
0
LINE
5
FD91
330
FB96
100
AcDbEntity
100
AcDbLine
8
CELIK_KIRIS_KOLON
10
7.065
20
0.5015677267045744
30
0.10933161594775359
11
7.065
21
0.5015677267045744
31
0.21933161594775358
0
LINE
5
FD92
330
FB96
100
AcDbEntity
100
AcDbLine
8
CELIK_KIRIS_KOLON
10
6.935
20
0.5015677267045744
30
0.10933161594775359
11
6.935
21
0.5015677267045744
31
0.21933161594775358
0
3DFACE
5
FD93
330
FB96
100
AcDbEntity
100
AcDbFace
8
CELIK_KIRIS_KOLON
10
6.935
20
0.09933161594775367
30
0.38156772670457445
11
7.065
21
0.09933161594775367
31
0.38156772670457445
12
7.065
22
0.22933161594775367
32
0.38156772670457445
13
6.935
23
0.22933161594775367
33
0.38156772670457445
0
3DFACE
5
FD94
330
FB96
100
AcDbEntity
100
AcDbFace
8
CELIK_KIRIS_KOLON
10
6.935
20
0.09933161594775367
30
0.49156772670457444
11
7.065
21
0.09933161594775367
31
0.49156772670457444
12
7.065
22
0.22933161594775367
32
0.49156772670457444
13
6.935
23
0.22933161594775367
33
0.49156772670457444
0
3DFACE
5
FD95
330
FB96
100
AcDbEntity
100
AcDbFace
8
CELIK_KIRIS_KOLON
10
6.935
20
0.09933161594775367
30
0.38156772670457445
11
7.065
21
0.09933161594775367
31
0.38156772670457445
12
7.065
22
0.09933161594775367
32
0.49156772670457444
13
6.935
23
0.09933161594775367
33
0.49156772670457444
0
3DFACE
5
FD96
330
FB96
100
AcDbEntity
100
AcDbFace
8
CELIK_KIRIS_KOLON
10
6.935
20
0.22933161594775367
30
0.38156772670457445
11
7.065
21
0.22933161594775367
31
0.38156772670457445
12
7.065
22
0.22933161594775367
32
0.49156772670457444
13
6.935
23
0.22933161594775367
33
0.49156772670457444
0
3DFACE
5
FD97
330
FB96
100
AcDbEntity
100
AcDbFace
8
CELIK_KIRIS_KOLON
10
6.935
20
0.09933161594775367
30
0.38156772670457445
11
6.935
21
0.22933161594775367
31
0.38156772670457445
12
6.935
22
0.22933161594775367
32
0.49156772670457444
13
6.935
23
0.09933161594775367
33
0.49156772670457444
0
3DFACE
5
FD98
330
FB96
100
AcDbEntity
100
AcDbFace
8
CELIK_KIRIS_KOLON
10
7.065
20
0.09933161594775367
30
0.38156772670457445
11
7.065
21
0.22933161594775367
31
0.38156772670457445
12
7.065
22
0.22933161594775367
32
0.49156772670457444
13
7.065
23
0.09933161594775367
33
0.49156772670457444
0
LINE
5
FD99
330
FB96
100
AcDbEntity
100
AcDbLine
8
CELIK_KIRIS_KOLON
10
6.935
20
0.09933161594775367
30
0.38156772670457445
11
7.065
21
0.09933161594775367
31
0.38156772670457445
0
LINE
5
FD9A
330
FB96
100
AcDbEntity
100
AcDbLine
8
CELIK_KIRIS_KOLON
10
7.065
20
0.09933161594775367
30
0.38156772670457445
11
7.065
21
0.22933161594775367
31
0.38156772670457445
0
LINE
5
FD9B
330
FB96
100
AcDbEntity
100
AcDbLine
8
CELIK_KIRIS_KOLON
10
7.065
20
0.22933161594775367
30
0.38156772670457445
11
6.935
21
0.22933161594775367
31
0.38156772670457445
0
LINE
5
FD9C
330
FB96
100
AcDbEntity
100
AcDbLine
8
CELIK_KIRIS_KOLON
10
6.935
20
0.22933161594775367
30
0.38156772670457445
11
6.935
21
0.09933161594775367
31
0.38156772670457445
0
LINE
5
FD9D
330
FB96
100
AcDbEntity
100
AcDbLine
8
CELIK_KIRIS_KOLON
10
6.935
20
0.09933161594775367
30
0.49156772670457444
11
7.065
21
0.09933161594775367
31
0.49156772670457444
0
LINE
5
FD9E
330
FB96
100
AcDbEntity
100
AcDbLine
8
CELIK_KIRIS_KOLON
10
7.065
20
0.09933161594775367
30
0.49156772670457444
11
7.065
21
0.22933161594775367
31
0.49156772670457444
0
LINE
5
FD9F
330
FB96
100
AcDbEntity
100
AcDbLine
8
CELIK_KIRIS_KOLON
10
7.065
20
0.22933161594775367
30
0.49156772670457444
11
6.935
21
0.22933161594775367
31
0.49156772670457444
0
LINE
5
FDA0
330
FB96
100
AcDbEntity
100
AcDbLine
8
CELIK_KIRIS_KOLON
10
6.935
20
0.22933161594775367
30
0.49156772670457444
11
6.935
21
0.09933161594775367
31
0.49156772670457444
0
LINE
5
FDA1
330
FB96
100
AcDbEntity
100
AcDbLine
8
CELIK_KIRIS_KOLON
10
6.935
20
0.09933161594775367
30
0.38156772670457445
11
6.935
21
0.09933161594775367
31
0.49156772670457444
0
LINE
5
FDA2
330
FB96
100
AcDbEntity
100
AcDbLine
8
CELIK_KIRIS_KOLON
10
7.065
20
0.09933161594775367
30
0.38156772670457445
11
7.065
21
0.09933161594775367
31
0.49156772670457444
0
LINE
5
FDA3
330
FB96
100
AcDbEntity
100
AcDbLine
8
CELIK_KIRIS_KOLON
10
7.065
20
0.22933161594775367
30
0.38156772670457445
11
7.065
21
0.22933161594775367
31
0.49156772670457444
0
LINE
5
FDA4
330
FB96
100
AcDbEntity
100
AcDbLine
8
CELIK_KIRIS_KOLON
10
6.935
20
0.22933161594775367
30
0.38156772670457445
11
6.935
21
0.22933161594775367
31
0.49156772670457444
0
3DFACE
5
FDB3
330
FB96
100
AcDbEntity
100
AcDbFace
8
CELIK_KIRIS_KOLON
10
7.7525989091512955
20
0.3203148606983809
30
-0.08308504678941936
11
7.884155876061322
21
0.3681976807639745
31
-0.08308504678941936
12
7.994195243066151
22
0.06586700466712755
32
0.23864853865045982
13
7.862638276156124
23
0.01798418460153392
33
0.23864853865045982
0
3DFACE
5
FDB4
330
FB96
100
AcDbEntity
100
AcDbFace
8
CELIK_KIRIS_KOLON
10
7.808820483361344
20
0.19216159467154867
30
0.0565685424949238
11
7.820096794810774
21
0.1962658363914567
31
0.0565685424949238
12
7.773904445145011
22
0.32317827404969357
32
0.27647875144394
13
7.76262813369558
23
0.3190740323297856
33
0.27647875144394
0
3DFACE
5
FDB5
330
FB96
100
AcDbEntity
100
AcDbFace
8
CELIK_KIRIS_KOLON
10
7.9121866716477935
20
0.22978381043737223
30
0.0565685424949238
11
7.923462983097224
21
0.23388805215728026
31
0.0565685424949238
12
7.877270633431461
22
0.36080048981551716
32
0.27647875144394
13
7.86599432198203
23
0.3566962480956091
33
0.27647875144394
0
3DFACE
5
FDE2
330
FB96
100
AcDbEntity
100
AcDbFace
8
CELIK_KIRIS_KOLON
10
7.68568504354114
20
0.46523947125756776
30
0.10933161594775359
11
7.815685043541141
21
0.46523947125756776
31
0.10933161594775359
12
7.815685043541141
22
0.5952394712575677
32
0.10933161594775359
13
7.68568504354114
23
0.5952394712575677
33
0.10933161594775359
0
3DFACE
5
FDE3
330
FB96
100
AcDbEntity
100
AcDbFace
8
CELIK_KIRIS_KOLON
10
7.68568504354114
20
0.46523947125756776
30
0.21933161594775358
11
7.815685043541141
21
0.46523947125756776
31
0.21933161594775358
12
7.815685043541141
22
0.5952394712575677
32
0.21933161594775358
13
7.68568504354114
23
0.5952394712575677
33
0.21933161594775358
0
3DFACE
5
FDE4
330
FB96
100
AcDbEntity
100
AcDbFace
8
CELIK_KIRIS_KOLON
10
7.68568504354114
20
0.46523947125756776
30
0.10933161594775359
11
7.815685043541141
21
0.46523947125756776
31
0.10933161594775359
12
7.815685043541141
22
0.46523947125756776
32
0.21933161594775358
13
7.68568504354114
23
0.46523947125756776
33
0.21933161594775358
0
3DFACE
5
FDE5
330
FB96
100
AcDbEntity
100
AcDbFace
8
CELIK_KIRIS_KOLON
10
7.68568504354114
20
0.5952394712575677
30
0.10933161594775359
11
7.815685043541141
21
0.5952394712575677
31
0.10933161594775359
12
7.815685043541141
22
0.5952394712575677
32
0.21933161594775358
13
7.68568504354114
23
0.5952394712575677
33
0.21933161594775358
0
3DFACE
5
FDE6
330
FB96
100
AcDbEntity
100
AcDbFace
8
CELIK_KIRIS_KOLON
10
7.68568504354114
20
0.46523947125756776
30
0.10933161594775359
11
7.68568504354114
21
0.5952394712575677
31
0.10933161594775359
12
7.68568504354114
22
0.5952394712575677
32
0.21933161594775358
13
7.68568504354114
23
0.46523947125756776
33
0.21933161594775358
0
3DFACE
5
FDE7
330
FB96
100
AcDbEntity
100
AcDbFace
8
CELIK_KIRIS_KOLON
10
7.815685043541141
20
0.46523947125756776
30
0.10933161594775359
11
7.815685043541141
21
0.5952394712575677
31
0.10933161594775359
12
7.815685043541141
22
0.5952394712575677
32
0.21933161594775358
13
7.815685043541141
23
0.46523947125756776
33
0.21933161594775358
0
LINE
5
FDE8
330
FB96
100
AcDbEntity
100
AcDbLine
8
CELIK_KIRIS_KOLON
10
7.68568504354114
20
0.46523947125756776
30
0.10933161594775359
11
7.815685043541141
21
0.46523947125756776
31
0.10933161594775359
0
LINE
5
FDE9
330
FB96
100
AcDbEntity
100
AcDbLine
8
CELIK_KIRIS_KOLON
10
7.815685043541141
20
0.46523947125756776
30
0.10933161594775359
11
7.815685043541141
21
0.5952394712575677
31
0.10933161594775359
0
LINE
5
FDEA
330
FB96
100
AcDbEntity
100
AcDbLine
8
CELIK_KIRIS_KOLON
10
7.815685043541141
20
0.5952394712575677
30
0.10933161594775359
11
7.68568504354114
21
0.5952394712575677
31
0.10933161594775359
0
LINE
5
FDEB
330
FB96
100
AcDbEntity
100
AcDbLine
8
CELIK_KIRIS_KOLON
10
7.68568504354114
20
0.5952394712575677
30
0.10933161594775359
11
7.68568504354114
21
0.46523947125756776
31
0.10933161594775359
0
LINE
5
FDEC
330
FB96
100
AcDbEntity
100
AcDbLine
8
CELIK_KIRIS_KOLON
10
7.68568504354114
20
0.46523947125756776
30
0.21933161594775358
11
7.815685043541141
21
0.46523947125756776
31
0.21933161594775358
0
LINE
5
FDED
330
FB96
100
AcDbEntity
100
AcDbLine
8
CELIK_KIRIS_KOLON
10
7.815685043541141
20
0.46523947125756776
30
0.21933161594775358
11
7.815685043541141
21
0.5952394712575677
31
0.21933161594775358
0
LINE
5
FDEE
330
FB96
100
AcDbEntity
100
AcDbLine
8
CELIK_KIRIS_KOLON
10
7.815685043541141
20
0.5952394712575677
30
0.21933161594775358
11
7.68568504354114
21
0.5952394712575677
31
0.21933161594775358
0
LINE
5
FDEF
330
FB96
100
AcDbEntity
100
AcDbLine
8
CELIK_KIRIS_KOLON
10
7.68568504354114
20
0.5952394712575677
30
0.21933161594775358
11
7.68568504354114
21
0.46523947125756776
31
0.21933161594775358
0
LINE
5
FDF0
330
FB96
100
AcDbEntity
100
AcDbLine
8
CELIK_KIRIS_KOLON
10
7.68568504354114
20
0.46523947125756776
30
0.10933161594775359
11
7.68568504354114
21
0.46523947125756776
31
0.21933161594775358
0
LINE
5
FDF1
330
FB96
100
AcDbEntity
100
AcDbLine
8
CELIK_KIRIS_KOLON
10
7.815685043541141
20
0.46523947125756776
30
0.10933161594775359
11
7.815685043541141
21
0.46523947125756776
31
0.21933161594775358
0
LINE
5
FDF2
330
FB96
100
AcDbEntity
100
AcDbLine
8
CELIK_KIRIS_KOLON
10
7.815685043541141
20
0.5952394712575677
30
0.10933161594775359
11
7.815685043541141
21
0.5952394712575677
31
0.21933161594775358
0
LINE
5
FDF3
330
FB96
100
AcDbEntity
100
AcDbLine
8
CELIK_KIRIS_KOLON
10
7.68568504354114
20
0.5952394712575677
30
0.10933161594775359
11
7.68568504354114
21
0.5952394712575677
31
0.21933161594775358
0
3DFACE
5
FDF4
330
FB96
100
AcDbEntity
100
AcDbFace
8
CELIK_KIRIS_KOLON
10
7.778795277160611
20
0.20942120686792803
30
0.38156772670457445
11
7.908795277160611
21
0.20942120686792803
31
0.38156772670457445
12
7.908795277160611
22
0.33942120686792804
32
0.38156772670457445
13
7.778795277160611
23
0.33942120686792804
33
0.38156772670457445
0
3DFACE
5
FDF5
330
FB96
100
AcDbEntity
100
AcDbFace
8
CELIK_KIRIS_KOLON
10
7.778795277160611
20
0.20942120686792803
30
0.49156772670457444
11
7.908795277160611
21
0.20942120686792803
31
0.49156772670457444
12
7.908795277160611
22
0.33942120686792804
32
0.49156772670457444
13
7.778795277160611
23
0.33942120686792804
33
0.49156772670457444
0
3DFACE
5
FDF6
330
FB96
100
AcDbEntity
100
AcDbFace
8
CELIK_KIRIS_KOLON
10
7.778795277160611
20
0.20942120686792803
30
0.38156772670457445
11
7.908795277160611
21
0.20942120686792803
31
0.38156772670457445
12
7.908795277160611
22
0.20942120686792803
32
0.49156772670457444
13
7.778795277160611
23
0.20942120686792803
33
0.49156772670457444
0
3DFACE
5
FDF7
330
FB96
100
AcDbEntity
100
AcDbFace
8
CELIK_KIRIS_KOLON
10
7.778795277160611
20
0.33942120686792804
30
0.38156772670457445
11
7.908795277160611
21
0.33942120686792804
31
0.38156772670457445
12
7.908795277160611
22
0.33942120686792804
32
0.49156772670457444
13
7.778795277160611
23
0.33942120686792804
33
0.49156772670457444
0
3DFACE
5
FDF8
330
FB96
100
AcDbEntity
100
AcDbFace
8
CELIK_KIRIS_KOLON
10
7.778795277160611
20
0.20942120686792803
30
0.38156772670457445
11
7.778795277160611
21
0.33942120686792804
31
0.38156772670457445
12
7.778795277160611
22
0.33942120686792804
32
0.49156772670457444
13
7.778795277160611
23
0.20942120686792803
33
0.49156772670457444
0
3DFACE
5
FDF9
330
FB96
100
AcDbEntity
100
AcDbFace
8
CELIK_KIRIS_KOLON
10
7.908795277160611
20
0.20942120686792803
30
0.38156772670457445
11
7.908795277160611
21
0.33942120686792804
31
0.38156772670457445
12
7.908795277160611
22
0.33942120686792804
32
0.49156772670457444
13
7.908795277160611
23
0.20942120686792803
33
0.49156772670457444
0
LINE
5
FDFA
330
FB96
100
AcDbEntity
100
AcDbLine
8
CELIK_KIRIS_KOLON
10
7.778795277160611
20
0.20942120686792803
30
0.38156772670457445
11
7.908795277160611
21
0.20942120686792803
31
0.38156772670457445
0
LINE
5
FDFB
330
FB96
100
AcDbEntity
100
AcDbLine
8
CELIK_KIRIS_KOLON
10
7.908795277160611
20
0.20942120686792803
30
0.38156772670457445
11
7.908795277160611
21
0.33942120686792804
31
0.38156772670457445
0
LINE
5
FDFC
330
FB96
100
AcDbEntity
100
AcDbLine
8
CELIK_KIRIS_KOLON
10
7.908795277160611
20
0.33942120686792804
30
0.38156772670457445
11
7.778795277160611
21
0.33942120686792804
31
0.38156772670457445
0
LINE
5
FDFD
330
FB96
100
AcDbEntity
100
AcDbLine
8
CELIK_KIRIS_KOLON
10
7.778795277160611
20
0.33942120686792804
30
0.38156772670457445
11
7.778795277160611
21
0.20942120686792803
31
0.38156772670457445
0
LINE
5
FDFE
330
FB96
100
AcDbEntity
100
AcDbLine
8
CELIK_KIRIS_KOLON
10
7.778795277160611
20
0.20942120686792803
30
0.49156772670457444
11
7.908795277160611
21
0.20942120686792803
31
0.49156772670457444
0
LINE
5
FDFF
330
FB96
100
AcDbEntity
100
AcDbLine
8
CELIK_KIRIS_KOLON
10
7.908795277160611
20
0.20942120686792803
30
0.49156772670457444
11
7.908795277160611
21
0.33942120686792804
31
0.49156772670457444
0
LINE
5
FE00
330
FB96
100
AcDbEntity
100
AcDbLine
8
CELIK_KIRIS_KOLON
10
7.908795277160611
20
0.33942120686792804
30
0.49156772670457444
11
7.778795277160611
21
0.33942120686792804
31
0.49156772670457444
0
LINE
5
FE01
330
FB96
100
AcDbEntity
100
AcDbLine
8
CELIK_KIRIS_KOLON
10
7.778795277160611
20
0.33942120686792804
30
0.49156772670457444
11
7.778795277160611
21
0.20942120686792803
31
0.49156772670457444
0
LINE
5
FE02
330
FB96
100
AcDbEntity
100
AcDbLine
8
CELIK_KIRIS_KOLON
10
7.778795277160611
20
0.20942120686792803
30
0.38156772670457445
11
7.778795277160611
21
0.20942120686792803
31
0.49156772670457444
0
LINE
5
FE03
330
FB96
100
AcDbEntity
100
AcDbLine
8
CELIK_KIRIS_KOLON
10
7.908795277160611
20
0.20942120686792803
30
0.38156772670457445
11
7.908795277160611
21
0.20942120686792803
31
0.49156772670457444
0
LINE
5
FE04
330
FB96
100
AcDbEntity
100
AcDbLine
8
CELIK_KIRIS_KOLON
10
7.908795277160611
20
0.33942120686792804
30
0.38156772670457445
11
7.908795277160611
21
0.33942120686792804
31
0.49156772670457444
0
LINE
5
FE05
330
FB96
100
AcDbEntity
100
AcDbLine
8
CELIK_KIRIS_KOLON
10
7.778795277160611
20
0.33942120686792804
30
0.38156772670457445
11
7.778795277160611
21
0.33942120686792804
31
0.49156772670457444
0
3DFACE
5
FE07
330
FB96
100
AcDbEntity
100
AcDbFace
8
CELIK_KIRIS_KOLON
10
5.5
20
-0.06
30
0.55
11
8.5
21
-0.06
31
0.55
12
8.5
22
0.06
32
0.55
13
5.5
23
0.06
33
0.55
0
3DFACE
5
FE08
330
FB96
100
AcDbEntity
100
AcDbFace
8
CELIK_KIRIS_KOLON
10
5.5
20
-0.06
30
0.67
11
8.5
21
-0.06
31
0.67
12
8.5
22
0.06
32
0.67
13
5.5
23
0.06
33
0.67
0
3DFACE
5
FE09
330
FB96
100
AcDbEntity
100
AcDbFace
8
CELIK_KIRIS_KOLON
10
5.5
20
-0.06
30
0.55
11
8.5
21
-0.06
31
0.55
12
8.5
22
-0.06
32
0.67
13
5.5
23
-0.06
33
0.67
0
3DFACE
5
FE0A
330
FB96
100
AcDbEntity
100
AcDbFace
8
CELIK_KIRIS_KOLON
10
5.5
20
0.06
30
0.55
11
8.5
21
0.06
31
0.55
12
8.5
22
0.06
32
0.67
13
5.5
23
0.06
33
0.67
0
3DFACE
5
FE0B
330
FB96
100
AcDbEntity
100
AcDbFace
8
CELIK_KIRIS_KOLON
10
5.5
20
-0.06
30
0.55
11
5.5
21
0.06
31
0.55
12
5.5
22
0.06
32
0.67
13
5.5
23
-0.06
33
0.67
0
3DFACE
5
FE0C
330
FB96
100
AcDbEntity
100
AcDbFace
8
CELIK_KIRIS_KOLON
10
8.5
20
-0.06
30
0.55
11
8.5
21
0.06
31
0.55
12
8.5
22
0.06
32
0.67
13
8.5
23
-0.06
33
0.67
0
LINE
5
FE0D
330
FB96
100
AcDbEntity
100
AcDbLine
8
CELIK_KIRIS_KOLON
10
5.5
20
-0.06
30
0.55
11
8.5
21
-0.06
31
0.55
0
LINE
5
FE0E
330
FB96
100
AcDbEntity
100
AcDbLine
8
CELIK_KIRIS_KOLON
10
8.5
20
-0.06
30
0.55
11
8.5
21
0.06
31
0.55
0
LINE
5
FE0F
330
FB96
100
AcDbEntity
100
AcDbLine
8
CELIK_KIRIS_KOLON
10
8.5
20
0.06
30
0.55
11
5.5
21
0.06
31
0.55
0
LINE
5
FE10
330
FB96
100
AcDbEntity
100
AcDbLine
8
CELIK_KIRIS_KOLON
10
5.5
20
0.06
30
0.55
11
5.5
21
-0.06
31
0.55
0
LINE
5
FE11
330
FB96
100
AcDbEntity
100
AcDbLine
8
CELIK_KIRIS_KOLON
10
5.5
20
-0.06
30
0.67
11
8.5
21
-0.06
31
0.67
0
LINE
5
FE12
330
FB96
100
AcDbEntity
100
AcDbLine
8
CELIK_KIRIS_KOLON
10
8.5
20
-0.06
30
0.67
11
8.5
21
0.06
31
0.67
0
LINE
5
FE13
330
FB96
100
AcDbEntity
100
AcDbLine
8
CELIK_KIRIS_KOLON
10
8.5
20
0.06
30
0.67
11
5.5
21
0.06
31
0.67
0
LINE
5
FE14
330
FB96
100
AcDbEntity
100
AcDbLine
8
CELIK_KIRIS_KOLON
10
5.5
20
0.06
30
0.67
11
5.5
21
-0.06
31
0.67
0
LINE
5
FE15
330
FB96
100
AcDbEntity
100
AcDbLine
8
CELIK_KIRIS_KOLON
10
5.5
20
-0.06
30
0.55
11
5.5
21
-0.06
31
0.67
0
LINE
5
FE16
330
FB96
100
AcDbEntity
100
AcDbLine
8
CELIK_KIRIS_KOLON
10
8.5
20
-0.06
30
0.55
11
8.5
21
-0.06
31
0.67
0
LINE
5
FE17
330
FB96
100
AcDbEntity
100
AcDbLine
8
CELIK_KIRIS_KOLON
10
8.5
20
0.06
30
0.55
11
8.5
21
0.06
31
0.67
0
LINE
5
FE18
330
FB96
100
AcDbEntity
100
AcDbLine
8
CELIK_KIRIS_KOLON
10
5.5
20
0.06
30
0.55
11
5.5
21
0.06
31
0.67
0
3DFACE
5
FE29
330
FB96
100
AcDbEntity
100
AcDbFace
8
CELIK_KIRIS_KOLON
10
15.88
20
-0.795
30
2.355
11
16.12
21
-0.795
31
2.355
12
16.12
22
0.795
32
2.355
13
15.88
23
0.795
33
2.355
0
3DFACE
5
FE2A
330
FB96
100
AcDbEntity
100
AcDbFace
8
CELIK_KIRIS_KOLON
10
15.88
20
-0.795
30
2.445
11
16.12
21
-0.795
31
2.445
12
16.12
22
0.795
32
2.445
13
15.88
23
0.795
33
2.445
0
3DFACE
5
FE2B
330
FB96
100
AcDbEntity
100
AcDbFace
8
CELIK_KIRIS_KOLON
10
15.88
20
-0.795
30
2.355
11
16.12
21
-0.795
31
2.355
12
16.12
22
-0.795
32
2.445
13
15.88
23
-0.795
33
2.445
0
3DFACE
5
FE2C
330
FB96
100
AcDbEntity
100
AcDbFace
8
CELIK_KIRIS_KOLON
10
15.88
20
0.795
30
2.355
11
16.12
21
0.795
31
2.355
12
16.12
22
0.795
32
2.445
13
15.88
23
0.795
33
2.445
0
3DFACE
5
FE2D
330
FB96
100
AcDbEntity
100
AcDbFace
8
CELIK_KIRIS_KOLON
10
15.88
20
-0.795
30
2.355
11
15.88
21
0.795
31
2.355
12
15.88
22
0.795
32
2.445
13
15.88
23
-0.795
33
2.445
0
3DFACE
5
FE2E
330
FB96
100
AcDbEntity
100
AcDbFace
8
CELIK_KIRIS_KOLON
10
16.12
20
-0.795
30
2.355
11
16.12
21
0.795
31
2.355
12
16.12
22
0.795
32
2.445
13
16.12
23
-0.795
33
2.445
0
LINE
5
FE2F
330
FB96
100
AcDbEntity
100
AcDbLine
8
CELIK_KIRIS_KOLON
10
15.88
20
-0.795
30
2.355
11
16.12
21
-0.795
31
2.355
0
LINE
5
FE30
330
FB96
100
AcDbEntity
100
AcDbLine
8
CELIK_KIRIS_KOLON
10
16.12
20
-0.795
30
2.355
11
16.12
21
0.795
31
2.355
0
LINE
5
FE31
330
FB96
100
AcDbEntity
100
AcDbLine
8
CELIK_KIRIS_KOLON
10
16.12
20
0.795
30
2.355
11
15.88
21
0.795
31
2.355
0
LINE
5
FE32
330
FB96
100
AcDbEntity
100
AcDbLine
8
CELIK_KIRIS_KOLON
10
15.88
20
0.795
30
2.355
11
15.88
21
-0.795
31
2.355
0
LINE
5
FE33
330
FB96
100
AcDbEntity
100
AcDbLine
8
CELIK_KIRIS_KOLON
10
15.88
20
-0.795
30
2.445
11
16.12
21
-0.795
31
2.445
0
LINE
5
FE34
330
FB96
100
AcDbEntity
100
AcDbLine
8
CELIK_KIRIS_KOLON
10
16.12
20
-0.795
30
2.445
11
16.12
21
0.795
31
2.445
0
LINE
5
FE35
330
FB96
100
AcDbEntity
100
AcDbLine
8
CELIK_KIRIS_KOLON
10
16.12
20
0.795
30
2.445
11
15.88
21
0.795
31
2.445
0
LINE
5
FE36
330
FB96
100
AcDbEntity
100
AcDbLine
8
CELIK_KIRIS_KOLON
10
15.88
20
0.795
30
2.445
11
15.88
21
-0.795
31
2.445
0
LINE
5
FE37
330
FB96
100
AcDbEntity
100
AcDbLine
8
CELIK_KIRIS_KOLON
10
15.88
20
-0.795
30
2.355
11
15.88
21
-0.795
31
2.445
0
LINE
5
FE38
330
FB96
100
AcDbEntity
100
AcDbLine
8
CELIK_KIRIS_KOLON
10
16.12
20
-0.795
30
2.355
11
16.12
21
-0.795
31
2.445
0
LINE
5
FE39
330
FB96
100
AcDbEntity
100
AcDbLine
8
CELIK_KIRIS_KOLON
10
16.12
20
0.795
30
2.355
11
16.12
21
0.795
31
2.445
0
LINE
5
FE3A
330
FB96
100
AcDbEntity
100
AcDbLine
8
CELIK_KIRIS_KOLON
10
15.88
20
0.795
30
2.355
11
15.88
21
0.795
31
2.445
0
3DFACE
5
FE5A
330
FB96
100
AcDbEntity
100
AcDbFace
8
CELIK_KIRIS_KOLON
10
15.93
20
0.23864853865045982
30
0.5669149532105806
11
16.07
21
0.23864853865045982
31
0.5669149532105806
12
16.07
22
-0.08308504678941932
32
0.8886485386504597
13
15.93
23
-0.08308504678941932
33
0.8886485386504597
0
3DFACE
5
FE5B
330
FB96
100
AcDbEntity
100
AcDbFace
8
CELIK_KIRIS_KOLON
10
15.939
20
0.09899494936611666
30
0.7065685424949237
11
15.951
21
0.09899494936611666
31
0.7065685424949237
12
15.951
22
0.23405234457274723
32
0.9264787514439399
13
15.939
23
0.23405234457274723
33
0.9264787514439399
0
3DFACE
5
FE5C
330
FB96
100
AcDbEntity
100
AcDbFace
8
CELIK_KIRIS_KOLON
10
16.049
20
0.09899494936611666
30
0.7065685424949237
11
16.061
21
0.09899494936611666
31
0.7065685424949237
12
16.061
22
0.23405234457274723
32
0.9264787514439399
13
16.049
23
0.23405234457274723
33
0.9264787514439399
0
3DFACE
5
FE89
330
FB96
100
AcDbEntity
100
AcDbFace
8
CELIK_KIRIS_KOLON
10
15.935
20
0.37156772670457444
30
0.7593316159477534
11
16.065
21
0.37156772670457444
31
0.7593316159477534
12
16.065
22
0.5015677267045744
32
0.7593316159477534
13
15.935
23
0.5015677267045744
33
0.7593316159477534
0
3DFACE
5
FE8A
330
FB96
100
AcDbEntity
100
AcDbFace
8
CELIK_KIRIS_KOLON
10
15.935
20
0.37156772670457444
30
0.8693316159477535
11
16.065
21
0.37156772670457444
31
0.8693316159477535
12
16.065
22
0.5015677267045744
32
0.8693316159477535
13
15.935
23
0.5015677267045744
33
0.8693316159477535
0
3DFACE
5
FE8B
330
FB96
100
AcDbEntity
100
AcDbFace
8
CELIK_KIRIS_KOLON
10
15.935
20
0.37156772670457444
30
0.7593316159477534
11
16.065
21
0.37156772670457444
31
0.7593316159477534
12
16.065
22
0.37156772670457444
32
0.8693316159477535
13
15.935
23
0.37156772670457444
33
0.8693316159477535
0
3DFACE
5
FE8C
330
FB96
100
AcDbEntity
100
AcDbFace
8
CELIK_KIRIS_KOLON
10
15.935
20
0.5015677267045744
30
0.7593316159477534
11
16.065
21
0.5015677267045744
31
0.7593316159477534
12
16.065
22
0.5015677267045744
32
0.8693316159477535
13
15.935
23
0.5015677267045744
33
0.8693316159477535
0
3DFACE
5
FE8D
330
FB96
100
AcDbEntity
100
AcDbFace
8
CELIK_KIRIS_KOLON
10
15.935
20
0.37156772670457444
30
0.7593316159477534
11
15.935
21
0.5015677267045744
31
0.7593316159477534
12
15.935
22
0.5015677267045744
32
0.8693316159477535
13
15.935
23
0.37156772670457444
33
0.8693316159477535
0
3DFACE
5
FE8E
330
FB96
100
AcDbEntity
100
AcDbFace
8
CELIK_KIRIS_KOLON
10
16.065
20
0.37156772670457444
30
0.7593316159477534
11
16.065
21
0.5015677267045744
31
0.7593316159477534
12
16.065
22
0.5015677267045744
32
0.8693316159477535
13
16.065
23
0.37156772670457444
33
0.8693316159477535
0
LINE
5
FE8F
330
FB96
100
AcDbEntity
100
AcDbLine
8
CELIK_KIRIS_KOLON
10
15.935
20
0.37156772670457444
30
0.7593316159477534
11
16.065
21
0.37156772670457444
31
0.7593316159477534
0
LINE
5
FE90
330
FB96
100
AcDbEntity
100
AcDbLine
8
CELIK_KIRIS_KOLON
10
16.065
20
0.37156772670457444
30
0.7593316159477534
11
16.065
21
0.5015677267045744
31
0.7593316159477534
0
LINE
5
FE91
330
FB96
100
AcDbEntity
100
AcDbLine
8
CELIK_KIRIS_KOLON
10
16.065
20
0.5015677267045744
30
0.7593316159477534
11
15.935
21
0.5015677267045744
31
0.7593316159477534
0
LINE
5
FE92
330
FB96
100
AcDbEntity
100
AcDbLine
8
CELIK_KIRIS_KOLON
10
15.935
20
0.5015677267045744
30
0.7593316159477534
11
15.935
21
0.37156772670457444
31
0.7593316159477534
0
LINE
5
FE93
330
FB96
100
AcDbEntity
100
AcDbLine
8
CELIK_KIRIS_KOLON
10
15.935
20
0.37156772670457444
30
0.8693316159477535
11
16.065
21
0.37156772670457444
31
0.8693316159477535
0
LINE
5
FE94
330
FB96
100
AcDbEntity
100
AcDbLine
8
CELIK_KIRIS_KOLON
10
16.065
20
0.37156772670457444
30
0.8693316159477535
11
16.065
21
0.5015677267045744
31
0.8693316159477535
0
LINE
5
FE95
330
FB96
100
AcDbEntity
100
AcDbLine
8
CELIK_KIRIS_KOLON
10
16.065
20
0.5015677267045744
30
0.8693316159477535
11
15.935
21
0.5015677267045744
31
0.8693316159477535
0
LINE
5
FE96
330
FB96
100
AcDbEntity
100
AcDbLine
8
CELIK_KIRIS_KOLON
10
15.935
20
0.5015677267045744
30
0.8693316159477535
11
15.935
21
0.37156772670457444
31
0.8693316159477535
0
LINE
5
FE97
330
FB96
100
AcDbEntity
100
AcDbLine
8
CELIK_KIRIS_KOLON
10
15.935
20
0.37156772670457444
30
0.7593316159477534
11
15.935
21
0.37156772670457444
31
0.8693316159477535
0
LINE
5
FE98
330
FB96
100
AcDbEntity
100
AcDbLine
8
CELIK_KIRIS_KOLON
10
16.065
20
0.37156772670457444
30
0.7593316159477534
11
16.065
21
0.37156772670457444
31
0.8693316159477535
0
LINE
5
FE99
330
FB96
100
AcDbEntity
100
AcDbLine
8
CELIK_KIRIS_KOLON
10
16.065
20
0.5015677267045744
30
0.7593316159477534
11
16.065
21
0.5015677267045744
31
0.8693316159477535
0
LINE
5
FE9A
330
FB96
100
AcDbEntity
100
AcDbLine
8
CELIK_KIRIS_KOLON
10
15.935
20
0.5015677267045744
30
0.7593316159477534
11
15.935
21
0.5015677267045744
31
0.8693316159477535
0
3DFACE
5
FE9B
330
FB96
100
AcDbEntity
100
AcDbFace
8
CELIK_KIRIS_KOLON
10
15.935
20
0.09933161594775367
30
1.0315677267045744
11
16.065
21
0.09933161594775367
31
1.0315677267045744
12
16.065
22
0.22933161594775367
32
1.0315677267045744
13
15.935
23
0.22933161594775367
33
1.0315677267045744
0
3DFACE
5
FE9C
330
FB96
100
AcDbEntity
100
AcDbFace
8
CELIK_KIRIS_KOLON
10
15.935
20
0.09933161594775367
30
1.1415677267045743
11
16.065
21
0.09933161594775367
31
1.1415677267045743
12
16.065
22
0.22933161594775367
32
1.1415677267045743
13
15.935
23
0.22933161594775367
33
1.1415677267045743
0
3DFACE
5
FE9D
330
FB96
100
AcDbEntity
100
AcDbFace
8
CELIK_KIRIS_KOLON
10
15.935
20
0.09933161594775367
30
1.0315677267045744
11
16.065
21
0.09933161594775367
31
1.0315677267045744
12
16.065
22
0.09933161594775367
32
1.1415677267045743
13
15.935
23
0.09933161594775367
33
1.1415677267045743
0
3DFACE
5
FE9E
330
FB96
100
AcDbEntity
100
AcDbFace
8
CELIK_KIRIS_KOLON
10
15.935
20
0.22933161594775367
30
1.0315677267045744
11
16.065
21
0.22933161594775367
31
1.0315677267045744
12
16.065
22
0.22933161594775367
32
1.1415677267045743
13
15.935
23
0.22933161594775367
33
1.1415677267045743
0
3DFACE
5
FE9F
330
FB96
100
AcDbEntity
100
AcDbFace
8
CELIK_KIRIS_KOLON
10
15.935
20
0.09933161594775367
30
1.0315677267045744
11
15.935
21
0.22933161594775367
31
1.0315677267045744
12
15.935
22
0.22933161594775367
32
1.1415677267045743
13
15.935
23
0.09933161594775367
33
1.1415677267045743
0
3DFACE
5
FEA0
330
FB96
100
AcDbEntity
100
AcDbFace
8
CELIK_KIRIS_KOLON
10
16.065
20
0.09933161594775367
30
1.0315677267045744
11
16.065
21
0.22933161594775367
31
1.0315677267045744
12
16.065
22
0.22933161594775367
32
1.1415677267045743
13
16.065
23
0.09933161594775367
33
1.1415677267045743
0
LINE
5
FEA1
330
FB96
100
AcDbEntity
100
AcDbLine
8
CELIK_KIRIS_KOLON
10
15.935
20
0.09933161594775367
30
1.0315677267045744
11
16.065
21
0.09933161594775367
31
1.0315677267045744
0
LINE
5
FEA2
330
FB96
100
AcDbEntity
100
AcDbLine
8
CELIK_KIRIS_KOLON
10
16.065
20
0.09933161594775367
30
1.0315677267045744
11
16.065
21
0.22933161594775367
31
1.0315677267045744
0
LINE
5
FEA3
330
FB96
100
AcDbEntity
100
AcDbLine
8
CELIK_KIRIS_KOLON
10
16.065
20
0.22933161594775367
30
1.0315677267045744
11
15.935
21
0.22933161594775367
31
1.0315677267045744
0
LINE
5
FEA4
330
FB96
100
AcDbEntity
100
AcDbLine
8
CELIK_KIRIS_KOLON
10
15.935
20
0.22933161594775367
30
1.0315677267045744
11
15.935
21
0.09933161594775367
31
1.0315677267045744
0
LINE
5
FEA5
330
FB96
100
AcDbEntity
100
AcDbLine
8
CELIK_KIRIS_KOLON
10
15.935
20
0.09933161594775367
30
1.1415677267045743
11
16.065
21
0.09933161594775367
31
1.1415677267045743
0
LINE
5
FEA6
330
FB96
100
AcDbEntity
100
AcDbLine
8
CELIK_KIRIS_KOLON
10
16.065
20
0.09933161594775367
30
1.1415677267045743
11
16.065
21
0.22933161594775367
31
1.1415677267045743
0
LINE
5
FEA7
330
FB96
100
AcDbEntity
100
AcDbLine
8
CELIK_KIRIS_KOLON
10
16.065
20
0.22933161594775367
30
1.1415677267045743
11
15.935
21
0.22933161594775367
31
1.1415677267045743
0
LINE
5
FEA8
330
FB96
100
AcDbEntity
100
AcDbLine
8
CELIK_KIRIS_KOLON
10
15.935
20
0.22933161594775367
30
1.1415677267045743
11
15.935
21
0.09933161594775367
31
1.1415677267045743
0
LINE
5
FEA9
330
FB96
100
AcDbEntity
100
AcDbLine
8
CELIK_KIRIS_KOLON
10
15.935
20
0.09933161594775367
30
1.0315677267045744
11
15.935
21
0.09933161594775367
31
1.1415677267045743
0
LINE
5
FEAA
330
FB96
100
AcDbEntity
100
AcDbLine
8
CELIK_KIRIS_KOLON
10
16.065
20
0.09933161594775367
30
1.0315677267045744
11
16.065
21
0.09933161594775367
31
1.1415677267045743
0
LINE
5
FEAB
330
FB96
100
AcDbEntity
100
AcDbLine
8
CELIK_KIRIS_KOLON
10
16.065
20
0.22933161594775367
30
1.0315677267045744
11
16.065
21
0.22933161594775367
31
1.1415677267045743
0
LINE
5
FEAC
330
FB96
100
AcDbEntity
100
AcDbLine
8
CELIK_KIRIS_KOLON
10
15.935
20
0.22933161594775367
30
1.0315677267045744
11
15.935
21
0.22933161594775367
31
1.1415677267045743
0
3DFACE
5
FBBF
330
FB96
100
AcDbEntity
100
AcDbFace
8
MONTAJ_BORULARI
10
-14
20
0.6093846240265667
30
-0.06236681810065359
11
-13.973059231636793
21
0.6172753923897741
31
-0.05447604973744613
12
-13.973059231636793
22
-0.05447604973744602
32
0.6172753923897741
13
-14
23
-0.062366818100653476
33
0.6093846240265667
0
3DFACE
5
FBC0
330
FB96
100
AcDbEntity
100
AcDbFace
8
MONTAJ_BORULARI
10
-13.973059231636793
20
0.6172753923897741
30
-0.05447604973744613
11
-13.9619
21
0.6363253923897741
31
-0.03542604973744612
12
-13.9619
22
-0.03542604973744601
32
0.6363253923897741
13
-13.973059231636793
23
-0.05447604973744602
33
0.6172753923897741
0
3DFACE
5
FBC1
330
FB96
100
AcDbEntity
100
AcDbFace
8
MONTAJ_BORULARI
10
-13.9619
20
0.6363253923897741
30
-0.03542604973744612
11
-13.973059231636793
21
0.6553753923897742
31
-0.016376049737446108
12
-13.973059231636793
22
-0.016376049737445997
32
0.6553753923897742
13
-13.9619
23
-0.03542604973744601
33
0.6363253923897741
0
3DFACE
5
FBC2
330
FB96
100
AcDbEntity
100
AcDbFace
8
MONTAJ_BORULARI
10
-13.973059231636793
20
0.6553753923897742
30
-0.016376049737446108
11
-14
21
0.6632661607529816
31
-0.008485281374238651
12
-14
22
-0.00848528137423854
32
0.6632661607529816
13
-13.973059231636793
23
-0.016376049737445997
33
0.6553753923897742
0
3DFACE
5
FBC3
330
FB96
100
AcDbEntity
100
AcDbFace
8
MONTAJ_BORULARI
10
-14
20
0.6632661607529816
30
-0.008485281374238651
11
-14.026940768363207
21
0.6553753923897742
31
-0.016376049737446108
12
-14.026940768363207
22
-0.016376049737445997
32
0.6553753923897742
13
-14
23
-0.00848528137423854
33
0.6632661607529816
0
3DFACE
5
FBC4
330
FB96
100
AcDbEntity
100
AcDbFace
8
MONTAJ_BORULARI
10
-14.026940768363207
20
0.6553753923897742
30
-0.016376049737446108
11
-14.0381
21
0.6363253923897741
31
-0.03542604973744612
12
-14.0381
22
-0.03542604973744601
32
0.6363253923897741
13
-14.026940768363207
23
-0.016376049737445997
33
0.6553753923897742
0
3DFACE
5
FBC5
330
FB96
100
AcDbEntity
100
AcDbFace
8
MONTAJ_BORULARI
10
-14.0381
20
0.6363253923897741
30
-0.03542604973744612
11
-14.026940768363207
21
0.6172753923897741
31
-0.05447604973744613
12
-14.026940768363207
22
-0.05447604973744602
32
0.6172753923897741
13
-14.0381
23
-0.03542604973744601
33
0.6363253923897741
0
3DFACE
5
FBC6
330
FB96
100
AcDbEntity
100
AcDbFace
8
MONTAJ_BORULARI
10
-14.026940768363207
20
0.6172753923897741
30
-0.05447604973744613
11
-14
21
0.6093846240265667
31
-0.06236681810065359
12
-14
22
-0.062366818100653476
32
0.6093846240265667
13
-14.026940768363207
23
-0.05447604973744602
33
0.6172753923897741
0
3DFACE
5
FBC7
330
FB96
100
AcDbEntity
100
AcDbFace
8
MONTAJ_BORULARI
10
-14.035
20
0.4015677267045744
30
0.16433161594775358
11
-13.965
21
0.4015677267045744
31
0.16433161594775358
12
-13.965
22
0.4715677267045745
32
0.16433161594775358
13
-14.035
23
0.4715677267045745
33
0.16433161594775358
0
3DFACE
5
FBC8
330
FB96
100
AcDbEntity
100
AcDbFace
8
MONTAJ_BORULARI
10
-14.035
20
0.4015677267045744
30
2.2
11
-13.965
21
0.4015677267045744
31
2.2
12
-13.965
22
0.4715677267045745
32
2.2
13
-14.035
23
0.4715677267045745
33
2.2
0
3DFACE
5
FBC9
330
FB96
100
AcDbEntity
100
AcDbFace
8
MONTAJ_BORULARI
10
-14.035
20
0.4015677267045744
30
0.16433161594775358
11
-13.965
21
0.4015677267045744
31
0.16433161594775358
12
-13.965
22
0.4015677267045744
32
2.2
13
-14.035
23
0.4015677267045744
33
2.2
0
3DFACE
5
FBCA
330
FB96
100
AcDbEntity
100
AcDbFace
8
MONTAJ_BORULARI
10
-14.035
20
0.4715677267045745
30
0.16433161594775358
11
-13.965
21
0.4715677267045745
31
0.16433161594775358
12
-13.965
22
0.4715677267045745
32
2.2
13
-14.035
23
0.4715677267045745
33
2.2
0
3DFACE
5
FBCB
330
FB96
100
AcDbEntity
100
AcDbFace
8
MONTAJ_BORULARI
10
-14.035
20
0.4015677267045744
30
0.16433161594775358
11
-14.035
21
0.4715677267045745
31
0.16433161594775358
12
-14.035
22
0.4715677267045745
32
2.2
13
-14.035
23
0.4015677267045744
33
2.2
0
3DFACE
5
FBCC
330
FB96
100
AcDbEntity
100
AcDbFace
8
MONTAJ_BORULARI
10
-13.965
20
0.4015677267045744
30
0.16433161594775358
11
-13.965
21
0.4715677267045745
31
0.16433161594775358
12
-13.965
22
0.4715677267045745
32
2.2
13
-13.965
23
0.4015677267045744
33
2.2
0
LINE
5
FBCD
330
FB96
100
AcDbEntity
100
AcDbLine
8
MONTAJ_BORULARI
10
-14.035
20
0.4015677267045744
30
0.16433161594775358
11
-13.965
21
0.4015677267045744
31
0.16433161594775358
0
LINE
5
FBCE
330
FB96
100
AcDbEntity
100
AcDbLine
8
MONTAJ_BORULARI
10
-13.965
20
0.4015677267045744
30
0.16433161594775358
11
-13.965
21
0.4715677267045745
31
0.16433161594775358
0
LINE
5
FBCF
330
FB96
100
AcDbEntity
100
AcDbLine
8
MONTAJ_BORULARI
10
-13.965
20
0.4715677267045745
30
0.16433161594775358
11
-14.035
21
0.4715677267045745
31
0.16433161594775358
0
LINE
5
FBD0
330
FB96
100
AcDbEntity
100
AcDbLine
8
MONTAJ_BORULARI
10
-14.035
20
0.4715677267045745
30
0.16433161594775358
11
-14.035
21
0.4015677267045744
31
0.16433161594775358
0
LINE
5
FBD1
330
FB96
100
AcDbEntity
100
AcDbLine
8
MONTAJ_BORULARI
10
-14.035
20
0.4015677267045744
30
2.2
11
-13.965
21
0.4015677267045744
31
2.2
0
LINE
5
FBD2
330
FB96
100
AcDbEntity
100
AcDbLine
8
MONTAJ_BORULARI
10
-13.965
20
0.4015677267045744
30
2.2
11
-13.965
21
0.4715677267045745
31
2.2
0
LINE
5
FBD3
330
FB96
100
AcDbEntity
100
AcDbLine
8
MONTAJ_BORULARI
10
-13.965
20
0.4715677267045745
30
2.2
11
-14.035
21
0.4715677267045745
31
2.2
0
LINE
5
FBD4
330
FB96
100
AcDbEntity
100
AcDbLine
8
MONTAJ_BORULARI
10
-14.035
20
0.4715677267045745
30
2.2
11
-14.035
21
0.4015677267045744
31
2.2
0
LINE
5
FBD5
330
FB96
100
AcDbEntity
100
AcDbLine
8
MONTAJ_BORULARI
10
-14.035
20
0.4015677267045744
30
0.16433161594775358
11
-14.035
21
0.4015677267045744
31
2.2
0
LINE
5
FBD6
330
FB96
100
AcDbEntity
100
AcDbLine
8
MONTAJ_BORULARI
10
-13.965
20
0.4015677267045744
30
0.16433161594775358
11
-13.965
21
0.4015677267045744
31
2.2
0
LINE
5
FBD7
330
FB96
100
AcDbEntity
100
AcDbLine
8
MONTAJ_BORULARI
10
-13.965
20
0.4715677267045745
30
0.16433161594775358
11
-13.965
21
0.4715677267045745
31
2.2
0
LINE
5
FBD8
330
FB96
100
AcDbEntity
100
AcDbLine
8
MONTAJ_BORULARI
10
-14.035
20
0.4715677267045745
30
0.16433161594775358
11
-14.035
21
0.4715677267045745
31
2.2
0
3DFACE
5
FBD9
330
FB96
100
AcDbEntity
100
AcDbFace
8
MONTAJ_BORULARI
10
-14.035
20
0.12933161594775366
30
0.43656772670457444
11
-13.965
21
0.12933161594775366
31
0.43656772670457444
12
-13.965
22
0.19933161594775367
32
0.43656772670457444
13
-14.035
23
0.19933161594775367
33
0.43656772670457444
0
3DFACE
5
FBDA
330
FB96
100
AcDbEntity
100
AcDbFace
8
MONTAJ_BORULARI
10
-14.035
20
0.12933161594775366
30
2.2
11
-13.965
21
0.12933161594775366
31
2.2
12
-13.965
22
0.19933161594775367
32
2.2
13
-14.035
23
0.19933161594775367
33
2.2
0
3DFACE
5
FBDB
330
FB96
100
AcDbEntity
100
AcDbFace
8
MONTAJ_BORULARI
10
-14.035
20
0.12933161594775366
30
0.43656772670457444
11
-13.965
21
0.12933161594775366
31
0.43656772670457444
12
-13.965
22
0.12933161594775366
32
2.2
13
-14.035
23
0.12933161594775366
33
2.2
0
3DFACE
5
FBDC
330
FB96
100
AcDbEntity
100
AcDbFace
8
MONTAJ_BORULARI
10
-14.035
20
0.19933161594775367
30
0.43656772670457444
11
-13.965
21
0.19933161594775367
31
0.43656772670457444
12
-13.965
22
0.19933161594775367
32
2.2
13
-14.035
23
0.19933161594775367
33
2.2
0
3DFACE
5
FBDD
330
FB96
100
AcDbEntity
100
AcDbFace
8
MONTAJ_BORULARI
10
-14.035
20
0.12933161594775366
30
0.43656772670457444
11
-14.035
21
0.19933161594775367
31
0.43656772670457444
12
-14.035
22
0.19933161594775367
32
2.2
13
-14.035
23
0.12933161594775366
33
2.2
0
3DFACE
5
FBDE
330
FB96
100
AcDbEntity
100
AcDbFace
8
MONTAJ_BORULARI
10
-13.965
20
0.12933161594775366
30
0.43656772670457444
11
-13.965
21
0.19933161594775367
31
0.43656772670457444
12
-13.965
22
0.19933161594775367
32
2.2
13
-13.965
23
0.12933161594775366
33
2.2
0
LINE
5
FBDF
330
FB96
100
AcDbEntity
100
AcDbLine
8
MONTAJ_BORULARI
10
-14.035
20
0.12933161594775366
30
0.43656772670457444
11
-13.965
21
0.12933161594775366
31
0.43656772670457444
0
LINE
5
FBE0
330
FB96
100
AcDbEntity
100
AcDbLine
8
MONTAJ_BORULARI
10
-13.965
20
0.12933161594775366
30
0.43656772670457444
11
-13.965
21
0.19933161594775367
31
0.43656772670457444
0
LINE
5
FBE1
330
FB96
100
AcDbEntity
100
AcDbLine
8
MONTAJ_BORULARI
10
-13.965
20
0.19933161594775367
30
0.43656772670457444
11
-14.035
21
0.19933161594775367
31
0.43656772670457444
0
LINE
5
FBE2
330
FB96
100
AcDbEntity
100
AcDbLine
8
MONTAJ_BORULARI
10
-14.035
20
0.19933161594775367
30
0.43656772670457444
11
-14.035
21
0.12933161594775366
31
0.43656772670457444
0
LINE
5
FBE3
330
FB96
100
AcDbEntity
100
AcDbLine
8
MONTAJ_BORULARI
10
-14.035
20
0.12933161594775366
30
2.2
11
-13.965
21
0.12933161594775366
31
2.2
0
LINE
5
FBE4
330
FB96
100
AcDbEntity
100
AcDbLine
8
MONTAJ_BORULARI
10
-13.965
20
0.12933161594775366
30
2.2
11
-13.965
21
0.19933161594775367
31
2.2
0
LINE
5
FBE5
330
FB96
100
AcDbEntity
100
AcDbLine
8
MONTAJ_BORULARI
10
-13.965
20
0.19933161594775367
30
2.2
11
-14.035
21
0.19933161594775367
31
2.2
0
LINE
5
FBE6
330
FB96
100
AcDbEntity
100
AcDbLine
8
MONTAJ_BORULARI
10
-14.035
20
0.19933161594775367
30
2.2
11
-14.035
21
0.12933161594775366
31
2.2
0
LINE
5
FBE7
330
FB96
100
AcDbEntity
100
AcDbLine
8
MONTAJ_BORULARI
10
-14.035
20
0.12933161594775366
30
0.43656772670457444
11
-14.035
21
0.12933161594775366
31
2.2
0
LINE
5
FBE8
330
FB96
100
AcDbEntity
100
AcDbLine
8
MONTAJ_BORULARI
10
-13.965
20
0.12933161594775366
30
0.43656772670457444
11
-13.965
21
0.12933161594775366
31
2.2
0
LINE
5
FBE9
330
FB96
100
AcDbEntity
100
AcDbLine
8
MONTAJ_BORULARI
10
-13.965
20
0.19933161594775367
30
0.43656772670457444
11
-13.965
21
0.19933161594775367
31
2.2
0
LINE
5
FBEA
330
FB96
100
AcDbEntity
100
AcDbLine
8
MONTAJ_BORULARI
10
-14.035
20
0.19933161594775367
30
0.43656772670457444
11
-14.035
21
0.19933161594775367
31
2.2
0
3DFACE
5
FC20
330
FB96
100
AcDbEntity
100
AcDbFace
8
MONTAJ_BORULARI
10
-4.5
20
0.6093846240265667
30
-0.06236681810065359
11
-4.4730592316367925
21
0.6172753923897741
31
-0.05447604973744613
12
-4.4730592316367925
22
-0.05447604973744602
32
0.6172753923897741
13
-4.5
23
-0.062366818100653476
33
0.6093846240265667
0
3DFACE
5
FC21
330
FB96
100
AcDbEntity
100
AcDbFace
8
MONTAJ_BORULARI
10
-4.4730592316367925
20
0.6172753923897741
30
-0.05447604973744613
11
-4.4619
21
0.6363253923897741
31
-0.03542604973744612
12
-4.4619
22
-0.03542604973744601
32
0.6363253923897741
13
-4.4730592316367925
23
-0.05447604973744602
33
0.6172753923897741
0
3DFACE
5
FC22
330
FB96
100
AcDbEntity
100
AcDbFace
8
MONTAJ_BORULARI
10
-4.4619
20
0.6363253923897741
30
-0.03542604973744612
11
-4.4730592316367925
21
0.6553753923897742
31
-0.016376049737446108
12
-4.4730592316367925
22
-0.016376049737445997
32
0.6553753923897742
13
-4.4619
23
-0.03542604973744601
33
0.6363253923897741
0
3DFACE
5
FC23
330
FB96
100
AcDbEntity
100
AcDbFace
8
MONTAJ_BORULARI
10
-4.4730592316367925
20
0.6553753923897742
30
-0.016376049737446108
11
-4.5
21
0.6632661607529816
31
-0.008485281374238651
12
-4.5
22
-0.00848528137423854
32
0.6632661607529816
13
-4.4730592316367925
23
-0.016376049737445997
33
0.6553753923897742
0
3DFACE
5
FC24
330
FB96
100
AcDbEntity
100
AcDbFace
8
MONTAJ_BORULARI
10
-4.5
20
0.6632661607529816
30
-0.008485281374238651
11
-4.5269407683632075
21
0.6553753923897742
31
-0.016376049737446108
12
-4.5269407683632075
22
-0.016376049737445997
32
0.6553753923897742
13
-4.5
23
-0.00848528137423854
33
0.6632661607529816
0
3DFACE
5
FC25
330
FB96
100
AcDbEntity
100
AcDbFace
8
MONTAJ_BORULARI
10
-4.5269407683632075
20
0.6553753923897742
30
-0.016376049737446108
11
-4.5381
21
0.6363253923897741
31
-0.03542604973744612
12
-4.5381
22
-0.03542604973744601
32
0.6363253923897741
13
-4.5269407683632075
23
-0.016376049737445997
33
0.6553753923897742
0
3DFACE
5
FC26
330
FB96
100
AcDbEntity
100
AcDbFace
8
MONTAJ_BORULARI
10
-4.5381
20
0.6363253923897741
30
-0.03542604973744612
11
-4.5269407683632075
21
0.6172753923897741
31
-0.05447604973744613
12
-4.5269407683632075
22
-0.05447604973744602
32
0.6172753923897741
13
-4.5381
23
-0.03542604973744601
33
0.6363253923897741
0
3DFACE
5
FC27
330
FB96
100
AcDbEntity
100
AcDbFace
8
MONTAJ_BORULARI
10
-4.5269407683632075
20
0.6172753923897741
30
-0.05447604973744613
11
-4.5
21
0.6093846240265667
31
-0.06236681810065359
12
-4.5
22
-0.062366818100653476
32
0.6093846240265667
13
-4.5269407683632075
23
-0.05447604973744602
33
0.6172753923897741
0
3DFACE
5
FC28
330
FB96
100
AcDbEntity
100
AcDbFace
8
MONTAJ_BORULARI
10
-4.535
20
0.4015677267045744
30
0.16433161594775358
11
-4.465
21
0.4015677267045744
31
0.16433161594775358
12
-4.465
22
0.4715677267045745
32
0.16433161594775358
13
-4.535
23
0.4715677267045745
33
0.16433161594775358
0
3DFACE
5
FC29
330
FB96
100
AcDbEntity
100
AcDbFace
8
MONTAJ_BORULARI
10
-4.535
20
0.4015677267045744
30
2.2
11
-4.465
21
0.4015677267045744
31
2.2
12
-4.465
22
0.4715677267045745
32
2.2
13
-4.535
23
0.4715677267045745
33
2.2
0
3DFACE
5
FC2A
330
FB96
100
AcDbEntity
100
AcDbFace
8
MONTAJ_BORULARI
10
-4.535
20
0.4015677267045744
30
0.16433161594775358
11
-4.465
21
0.4015677267045744
31
0.16433161594775358
12
-4.465
22
0.4015677267045744
32
2.2
13
-4.535
23
0.4015677267045744
33
2.2
0
3DFACE
5
FC2B
330
FB96
100
AcDbEntity
100
AcDbFace
8
MONTAJ_BORULARI
10
-4.535
20
0.4715677267045745
30
0.16433161594775358
11
-4.465
21
0.4715677267045745
31
0.16433161594775358
12
-4.465
22
0.4715677267045745
32
2.2
13
-4.535
23
0.4715677267045745
33
2.2
0
3DFACE
5
FC2C
330
FB96
100
AcDbEntity
100
AcDbFace
8
MONTAJ_BORULARI
10
-4.535
20
0.4015677267045744
30
0.16433161594775358
11
-4.535
21
0.4715677267045745
31
0.16433161594775358
12
-4.535
22
0.4715677267045745
32
2.2
13
-4.535
23
0.4015677267045744
33
2.2
0
3DFACE
5
FC2D
330
FB96
100
AcDbEntity
100
AcDbFace
8
MONTAJ_BORULARI
10
-4.465
20
0.4015677267045744
30
0.16433161594775358
11
-4.465
21
0.4715677267045745
31
0.16433161594775358
12
-4.465
22
0.4715677267045745
32
2.2
13
-4.465
23
0.4015677267045744
33
2.2
0
LINE
5
FC2E
330
FB96
100
AcDbEntity
100
AcDbLine
8
MONTAJ_BORULARI
10
-4.535
20
0.4015677267045744
30
0.16433161594775358
11
-4.465
21
0.4015677267045744
31
0.16433161594775358
0
LINE
5
FC2F
330
FB96
100
AcDbEntity
100
AcDbLine
8
MONTAJ_BORULARI
10
-4.465
20
0.4015677267045744
30
0.16433161594775358
11
-4.465
21
0.4715677267045745
31
0.16433161594775358
0
LINE
5
FC30
330
FB96
100
AcDbEntity
100
AcDbLine
8
MONTAJ_BORULARI
10
-4.465
20
0.4715677267045745
30
0.16433161594775358
11
-4.535
21
0.4715677267045745
31
0.16433161594775358
0
LINE
5
FC31
330
FB96
100
AcDbEntity
100
AcDbLine
8
MONTAJ_BORULARI
10
-4.535
20
0.4715677267045745
30
0.16433161594775358
11
-4.535
21
0.4015677267045744
31
0.16433161594775358
0
LINE
5
FC32
330
FB96
100
AcDbEntity
100
AcDbLine
8
MONTAJ_BORULARI
10
-4.535
20
0.4015677267045744
30
2.2
11
-4.465
21
0.4015677267045744
31
2.2
0
LINE
5
FC33
330
FB96
100
AcDbEntity
100
AcDbLine
8
MONTAJ_BORULARI
10
-4.465
20
0.4015677267045744
30
2.2
11
-4.465
21
0.4715677267045745
31
2.2
0
LINE
5
FC34
330
FB96
100
AcDbEntity
100
AcDbLine
8
MONTAJ_BORULARI
10
-4.465
20
0.4715677267045745
30
2.2
11
-4.535
21
0.4715677267045745
31
2.2
0
LINE
5
FC35
330
FB96
100
AcDbEntity
100
AcDbLine
8
MONTAJ_BORULARI
10
-4.535
20
0.4715677267045745
30
2.2
11
-4.535
21
0.4015677267045744
31
2.2
0
LINE
5
FC36
330
FB96
100
AcDbEntity
100
AcDbLine
8
MONTAJ_BORULARI
10
-4.535
20
0.4015677267045744
30
0.16433161594775358
11
-4.535
21
0.4015677267045744
31
2.2
0
LINE
5
FC37
330
FB96
100
AcDbEntity
100
AcDbLine
8
MONTAJ_BORULARI
10
-4.465
20
0.4015677267045744
30
0.16433161594775358
11
-4.465
21
0.4015677267045744
31
2.2
0
LINE
5
FC38
330
FB96
100
AcDbEntity
100
AcDbLine
8
MONTAJ_BORULARI
10
-4.465
20
0.4715677267045745
30
0.16433161594775358
11
-4.465
21
0.4715677267045745
31
2.2
0
LINE
5
FC39
330
FB96
100
AcDbEntity
100
AcDbLine
8
MONTAJ_BORULARI
10
-4.535
20
0.4715677267045745
30
0.16433161594775358
11
-4.535
21
0.4715677267045745
31
2.2
0
3DFACE
5
FC3A
330
FB96
100
AcDbEntity
100
AcDbFace
8
MONTAJ_BORULARI
10
-4.535
20
0.12933161594775366
30
0.43656772670457444
11
-4.465
21
0.12933161594775366
31
0.43656772670457444
12
-4.465
22
0.19933161594775367
32
0.43656772670457444
13
-4.535
23
0.19933161594775367
33
0.43656772670457444
0
3DFACE
5
FC3B
330
FB96
100
AcDbEntity
100
AcDbFace
8
MONTAJ_BORULARI
10
-4.535
20
0.12933161594775366
30
2.2
11
-4.465
21
0.12933161594775366
31
2.2
12
-4.465
22
0.19933161594775367
32
2.2
13
-4.535
23
0.19933161594775367
33
2.2
0
3DFACE
5
FC3C
330
FB96
100
AcDbEntity
100
AcDbFace
8
MONTAJ_BORULARI
10
-4.535
20
0.12933161594775366
30
0.43656772670457444
11
-4.465
21
0.12933161594775366
31
0.43656772670457444
12
-4.465
22
0.12933161594775366
32
2.2
13
-4.535
23
0.12933161594775366
33
2.2
0
3DFACE
5
FC3D
330
FB96
100
AcDbEntity
100
AcDbFace
8
MONTAJ_BORULARI
10
-4.535
20
0.19933161594775367
30
0.43656772670457444
11
-4.465
21
0.19933161594775367
31
0.43656772670457444
12
-4.465
22
0.19933161594775367
32
2.2
13
-4.535
23
0.19933161594775367
33
2.2
0
3DFACE
5
FC3E
330
FB96
100
AcDbEntity
100
AcDbFace
8
MONTAJ_BORULARI
10
-4.535
20
0.12933161594775366
30
0.43656772670457444
11
-4.535
21
0.19933161594775367
31
0.43656772670457444
12
-4.535
22
0.19933161594775367
32
2.2
13
-4.535
23
0.12933161594775366
33
2.2
0
3DFACE
5
FC3F
330
FB96
100
AcDbEntity
100
AcDbFace
8
MONTAJ_BORULARI
10
-4.465
20
0.12933161594775366
30
0.43656772670457444
11
-4.465
21
0.19933161594775367
31
0.43656772670457444
12
-4.465
22
0.19933161594775367
32
2.2
13
-4.465
23
0.12933161594775366
33
2.2
0
LINE
5
FC40
330
FB96
100
AcDbEntity
100
AcDbLine
8
MONTAJ_BORULARI
10
-4.535
20
0.12933161594775366
30
0.43656772670457444
11
-4.465
21
0.12933161594775366
31
0.43656772670457444
0
LINE
5
FC41
330
FB96
100
AcDbEntity
100
AcDbLine
8
MONTAJ_BORULARI
10
-4.465
20
0.12933161594775366
30
0.43656772670457444
11
-4.465
21
0.19933161594775367
31
0.43656772670457444
0
LINE
5
FC42
330
FB96
100
AcDbEntity
100
AcDbLine
8
MONTAJ_BORULARI
10
-4.465
20
0.19933161594775367
30
0.43656772670457444
11
-4.535
21
0.19933161594775367
31
0.43656772670457444
0
LINE
5
FC43
330
FB96
100
AcDbEntity
100
AcDbLine
8
MONTAJ_BORULARI
10
-4.535
20
0.19933161594775367
30
0.43656772670457444
11
-4.535
21
0.12933161594775366
31
0.43656772670457444
0
LINE
5
FC44
330
FB96
100
AcDbEntity
100
AcDbLine
8
MONTAJ_BORULARI
10
-4.535
20
0.12933161594775366
30
2.2
11
-4.465
21
0.12933161594775366
31
2.2
0
LINE
5
FC45
330
FB96
100
AcDbEntity
100
AcDbLine
8
MONTAJ_BORULARI
10
-4.465
20
0.12933161594775366
30
2.2
11
-4.465
21
0.19933161594775367
31
2.2
0
LINE
5
FC46
330
FB96
100
AcDbEntity
100
AcDbLine
8
MONTAJ_BORULARI
10
-4.465
20
0.19933161594775367
30
2.2
11
-4.535
21
0.19933161594775367
31
2.2
0
LINE
5
FC47
330
FB96
100
AcDbEntity
100
AcDbLine
8
MONTAJ_BORULARI
10
-4.535
20
0.19933161594775367
30
2.2
11
-4.535
21
0.12933161594775366
31
2.2
0
LINE
5
FC48
330
FB96
100
AcDbEntity
100
AcDbLine
8
MONTAJ_BORULARI
10
-4.535
20
0.12933161594775366
30
0.43656772670457444
11
-4.535
21
0.12933161594775366
31
2.2
0
LINE
5
FC49
330
FB96
100
AcDbEntity
100
AcDbLine
8
MONTAJ_BORULARI
10
-4.465
20
0.12933161594775366
30
0.43656772670457444
11
-4.465
21
0.12933161594775366
31
2.2
0
LINE
5
FC4A
330
FB96
100
AcDbEntity
100
AcDbLine
8
MONTAJ_BORULARI
10
-4.465
20
0.19933161594775367
30
0.43656772670457444
11
-4.465
21
0.19933161594775367
31
2.2
0
LINE
5
FC4B
330
FB96
100
AcDbEntity
100
AcDbLine
8
MONTAJ_BORULARI
10
-4.535
20
0.19933161594775367
30
0.43656772670457444
11
-4.535
21
0.19933161594775367
31
2.2
0
3DFACE
5
FC81
330
FB96
100
AcDbEntity
100
AcDbFace
8
MONTAJ_BORULARI
10
-3.5
20
0.6093846240265667
30
-0.06236681810065359
11
-3.4730592316367925
21
0.6172753923897741
31
-0.05447604973744613
12
-3.4730592316367925
22
-0.05447604973744602
32
0.6172753923897741
13
-3.5
23
-0.062366818100653476
33
0.6093846240265667
0
3DFACE
5
FC82
330
FB96
100
AcDbEntity
100
AcDbFace
8
MONTAJ_BORULARI
10
-3.4730592316367925
20
0.6172753923897741
30
-0.05447604973744613
11
-3.4619
21
0.6363253923897741
31
-0.03542604973744612
12
-3.4619
22
-0.03542604973744601
32
0.6363253923897741
13
-3.4730592316367925
23
-0.05447604973744602
33
0.6172753923897741
0
3DFACE
5
FC83
330
FB96
100
AcDbEntity
100
AcDbFace
8
MONTAJ_BORULARI
10
-3.4619
20
0.6363253923897741
30
-0.03542604973744612
11
-3.4730592316367925
21
0.6553753923897742
31
-0.016376049737446108
12
-3.4730592316367925
22
-0.016376049737445997
32
0.6553753923897742
13
-3.4619
23
-0.03542604973744601
33
0.6363253923897741
0
3DFACE
5
FC84
330
FB96
100
AcDbEntity
100
AcDbFace
8
MONTAJ_BORULARI
10
-3.4730592316367925
20
0.6553753923897742
30
-0.016376049737446108
11
-3.5
21
0.6632661607529816
31
-0.008485281374238651
12
-3.5
22
-0.00848528137423854
32
0.6632661607529816
13
-3.4730592316367925
23
-0.016376049737445997
33
0.6553753923897742
0
3DFACE
5
FC85
330
FB96
100
AcDbEntity
100
AcDbFace
8
MONTAJ_BORULARI
10
-3.5
20
0.6632661607529816
30
-0.008485281374238651
11
-3.5269407683632075
21
0.6553753923897742
31
-0.016376049737446108
12
-3.5269407683632075
22
-0.016376049737445997
32
0.6553753923897742
13
-3.5
23
-0.00848528137423854
33
0.6632661607529816
0
3DFACE
5
FC86
330
FB96
100
AcDbEntity
100
AcDbFace
8
MONTAJ_BORULARI
10
-3.5269407683632075
20
0.6553753923897742
30
-0.016376049737446108
11
-3.5381
21
0.6363253923897741
31
-0.03542604973744612
12
-3.5381
22
-0.03542604973744601
32
0.6363253923897741
13
-3.5269407683632075
23
-0.016376049737445997
33
0.6553753923897742
0
3DFACE
5
FC87
330
FB96
100
AcDbEntity
100
AcDbFace
8
MONTAJ_BORULARI
10
-3.5381
20
0.6363253923897741
30
-0.03542604973744612
11
-3.5269407683632075
21
0.6172753923897741
31
-0.05447604973744613
12
-3.5269407683632075
22
-0.05447604973744602
32
0.6172753923897741
13
-3.5381
23
-0.03542604973744601
33
0.6363253923897741
0
3DFACE
5
FC88
330
FB96
100
AcDbEntity
100
AcDbFace
8
MONTAJ_BORULARI
10
-3.5269407683632075
20
0.6172753923897741
30
-0.05447604973744613
11
-3.5
21
0.6093846240265667
31
-0.06236681810065359
12
-3.5
22
-0.062366818100653476
32
0.6093846240265667
13
-3.5269407683632075
23
-0.05447604973744602
33
0.6172753923897741
0
3DFACE
5
FC89
330
FB96
100
AcDbEntity
100
AcDbFace
8
MONTAJ_BORULARI
10
-3.535
20
0.4015677267045744
30
0.16433161594775358
11
-3.465
21
0.4015677267045744
31
0.16433161594775358
12
-3.465
22
0.4715677267045745
32
0.16433161594775358
13
-3.535
23
0.4715677267045745
33
0.16433161594775358
0
3DFACE
5
FC8A
330
FB96
100
AcDbEntity
100
AcDbFace
8
MONTAJ_BORULARI
10
-3.535
20
0.4015677267045744
30
2.2
11
-3.465
21
0.4015677267045744
31
2.2
12
-3.465
22
0.4715677267045745
32
2.2
13
-3.535
23
0.4715677267045745
33
2.2
0
3DFACE
5
FC8B
330
FB96
100
AcDbEntity
100
AcDbFace
8
MONTAJ_BORULARI
10
-3.535
20
0.4015677267045744
30
0.16433161594775358
11
-3.465
21
0.4015677267045744
31
0.16433161594775358
12
-3.465
22
0.4015677267045744
32
2.2
13
-3.535
23
0.4015677267045744
33
2.2
0
3DFACE
5
FC8C
330
FB96
100
AcDbEntity
100
AcDbFace
8
MONTAJ_BORULARI
10
-3.535
20
0.4715677267045745
30
0.16433161594775358
11
-3.465
21
0.4715677267045745
31
0.16433161594775358
12
-3.465
22
0.4715677267045745
32
2.2
13
-3.535
23
0.4715677267045745
33
2.2
0
3DFACE
5
FC8D
330
FB96
100
AcDbEntity
100
AcDbFace
8
MONTAJ_BORULARI
10
-3.535
20
0.4015677267045744
30
0.16433161594775358
11
-3.535
21
0.4715677267045745
31
0.16433161594775358
12
-3.535
22
0.4715677267045745
32
2.2
13
-3.535
23
0.4015677267045744
33
2.2
0
3DFACE
5
FC8E
330
FB96
100
AcDbEntity
100
AcDbFace
8
MONTAJ_BORULARI
10
-3.465
20
0.4015677267045744
30
0.16433161594775358
11
-3.465
21
0.4715677267045745
31
0.16433161594775358
12
-3.465
22
0.4715677267045745
32
2.2
13
-3.465
23
0.4015677267045744
33
2.2
0
LINE
5
FC8F
330
FB96
100
AcDbEntity
100
AcDbLine
8
MONTAJ_BORULARI
10
-3.535
20
0.4015677267045744
30
0.16433161594775358
11
-3.465
21
0.4015677267045744
31
0.16433161594775358
0
LINE
5
FC90
330
FB96
100
AcDbEntity
100
AcDbLine
8
MONTAJ_BORULARI
10
-3.465
20
0.4015677267045744
30
0.16433161594775358
11
-3.465
21
0.4715677267045745
31
0.16433161594775358
0
LINE
5
FC91
330
FB96
100
AcDbEntity
100
AcDbLine
8
MONTAJ_BORULARI
10
-3.465
20
0.4715677267045745
30
0.16433161594775358
11
-3.535
21
0.4715677267045745
31
0.16433161594775358
0
LINE
5
FC92
330
FB96
100
AcDbEntity
100
AcDbLine
8
MONTAJ_BORULARI
10
-3.535
20
0.4715677267045745
30
0.16433161594775358
11
-3.535
21
0.4015677267045744
31
0.16433161594775358
0
LINE
5
FC93
330
FB96
100
AcDbEntity
100
AcDbLine
8
MONTAJ_BORULARI
10
-3.535
20
0.4015677267045744
30
2.2
11
-3.465
21
0.4015677267045744
31
2.2
0
LINE
5
FC94
330
FB96
100
AcDbEntity
100
AcDbLine
8
MONTAJ_BORULARI
10
-3.465
20
0.4015677267045744
30
2.2
11
-3.465
21
0.4715677267045745
31
2.2
0
LINE
5
FC95
330
FB96
100
AcDbEntity
100
AcDbLine
8
MONTAJ_BORULARI
10
-3.465
20
0.4715677267045745
30
2.2
11
-3.535
21
0.4715677267045745
31
2.2
0
LINE
5
FC96
330
FB96
100
AcDbEntity
100
AcDbLine
8
MONTAJ_BORULARI
10
-3.535
20
0.4715677267045745
30
2.2
11
-3.535
21
0.4015677267045744
31
2.2
0
LINE
5
FC97
330
FB96
100
AcDbEntity
100
AcDbLine
8
MONTAJ_BORULARI
10
-3.535
20
0.4015677267045744
30
0.16433161594775358
11
-3.535
21
0.4015677267045744
31
2.2
0
LINE
5
FC98
330
FB96
100
AcDbEntity
100
AcDbLine
8
MONTAJ_BORULARI
10
-3.465
20
0.4015677267045744
30
0.16433161594775358
11
-3.465
21
0.4015677267045744
31
2.2
0
LINE
5
FC99
330
FB96
100
AcDbEntity
100
AcDbLine
8
MONTAJ_BORULARI
10
-3.465
20
0.4715677267045745
30
0.16433161594775358
11
-3.465
21
0.4715677267045745
31
2.2
0
LINE
5
FC9A
330
FB96
100
AcDbEntity
100
AcDbLine
8
MONTAJ_BORULARI
10
-3.535
20
0.4715677267045745
30
0.16433161594775358
11
-3.535
21
0.4715677267045745
31
2.2
0
3DFACE
5
FC9B
330
FB96
100
AcDbEntity
100
AcDbFace
8
MONTAJ_BORULARI
10
-3.535
20
0.12933161594775366
30
0.43656772670457444
11
-3.465
21
0.12933161594775366
31
0.43656772670457444
12
-3.465
22
0.19933161594775367
32
0.43656772670457444
13
-3.535
23
0.19933161594775367
33
0.43656772670457444
0
3DFACE
5
FC9C
330
FB96
100
AcDbEntity
100
AcDbFace
8
MONTAJ_BORULARI
10
-3.535
20
0.12933161594775366
30
2.2
11
-3.465
21
0.12933161594775366
31
2.2
12
-3.465
22
0.19933161594775367
32
2.2
13
-3.535
23
0.19933161594775367
33
2.2
0
3DFACE
5
FC9D
330
FB96
100
AcDbEntity
100
AcDbFace
8
MONTAJ_BORULARI
10
-3.535
20
0.12933161594775366
30
0.43656772670457444
11
-3.465
21
0.12933161594775366
31
0.43656772670457444
12
-3.465
22
0.12933161594775366
32
2.2
13
-3.535
23
0.12933161594775366
33
2.2
0
3DFACE
5
FC9E
330
FB96
100
AcDbEntity
100
AcDbFace
8
MONTAJ_BORULARI
10
-3.535
20
0.19933161594775367
30
0.43656772670457444
11
-3.465
21
0.19933161594775367
31
0.43656772670457444
12
-3.465
22
0.19933161594775367
32
2.2
13
-3.535
23
0.19933161594775367
33
2.2
0
3DFACE
5
FC9F
330
FB96
100
AcDbEntity
100
AcDbFace
8
MONTAJ_BORULARI
10
-3.535
20
0.12933161594775366
30
0.43656772670457444
11
-3.535
21
0.19933161594775367
31
0.43656772670457444
12
-3.535
22
0.19933161594775367
32
2.2
13
-3.535
23
0.12933161594775366
33
2.2
0
3DFACE
5
FCA0
330
FB96
100
AcDbEntity
100
AcDbFace
8
MONTAJ_BORULARI
10
-3.465
20
0.12933161594775366
30
0.43656772670457444
11
-3.465
21
0.19933161594775367
31
0.43656772670457444
12
-3.465
22
0.19933161594775367
32
2.2
13
-3.465
23
0.12933161594775366
33
2.2
0
LINE
5
FCA1
330
FB96
100
AcDbEntity
100
AcDbLine
8
MONTAJ_BORULARI
10
-3.535
20
0.12933161594775366
30
0.43656772670457444
11
-3.465
21
0.12933161594775366
31
0.43656772670457444
0
LINE
5
FCA2
330
FB96
100
AcDbEntity
100
AcDbLine
8
MONTAJ_BORULARI
10
-3.465
20
0.12933161594775366
30
0.43656772670457444
11
-3.465
21
0.19933161594775367
31
0.43656772670457444
0
LINE
5
FCA3
330
FB96
100
AcDbEntity
100
AcDbLine
8
MONTAJ_BORULARI
10
-3.465
20
0.19933161594775367
30
0.43656772670457444
11
-3.535
21
0.19933161594775367
31
0.43656772670457444
0
LINE
5
FCA4
330
FB96
100
AcDbEntity
100
AcDbLine
8
MONTAJ_BORULARI
10
-3.535
20
0.19933161594775367
30
0.43656772670457444
11
-3.535
21
0.12933161594775366
31
0.43656772670457444
0
LINE
5
FCA5
330
FB96
100
AcDbEntity
100
AcDbLine
8
MONTAJ_BORULARI
10
-3.535
20
0.12933161594775366
30
2.2
11
-3.465
21
0.12933161594775366
31
2.2
0
LINE
5
FCA6
330
FB96
100
AcDbEntity
100
AcDbLine
8
MONTAJ_BORULARI
10
-3.465
20
0.12933161594775366
30
2.2
11
-3.465
21
0.19933161594775367
31
2.2
0
LINE
5
FCA7
330
FB96
100
AcDbEntity
100
AcDbLine
8
MONTAJ_BORULARI
10
-3.465
20
0.19933161594775367
30
2.2
11
-3.535
21
0.19933161594775367
31
2.2
0
LINE
5
FCA8
330
FB96
100
AcDbEntity
100
AcDbLine
8
MONTAJ_BORULARI
10
-3.535
20
0.19933161594775367
30
2.2
11
-3.535
21
0.12933161594775366
31
2.2
0
LINE
5
FCA9
330
FB96
100
AcDbEntity
100
AcDbLine
8
MONTAJ_BORULARI
10
-3.535
20
0.12933161594775366
30
0.43656772670457444
11
-3.535
21
0.12933161594775366
31
2.2
0
LINE
5
FCAA
330
FB96
100
AcDbEntity
100
AcDbLine
8
MONTAJ_BORULARI
10
-3.465
20
0.12933161594775366
30
0.43656772670457444
11
-3.465
21
0.12933161594775366
31
2.2
0
LINE
5
FCAB
330
FB96
100
AcDbEntity
100
AcDbLine
8
MONTAJ_BORULARI
10
-3.465
20
0.19933161594775367
30
0.43656772670457444
11
-3.465
21
0.19933161594775367
31
2.2
0
LINE
5
FCAC
330
FB96
100
AcDbEntity
100
AcDbLine
8
MONTAJ_BORULARI
10
-3.535
20
0.19933161594775367
30
0.43656772670457444
11
-3.535
21
0.19933161594775367
31
2.2
0
3DFACE
5
FCF4
330
FB96
100
AcDbEntity
100
AcDbFace
8
MONTAJ_BORULARI
10
6.308421816450025
20
0.6926342344181599
30
-0.06236681810065359
11
6.336436659405767
21
0.690834845764509
31
-0.05447604973744613
12
6.106684134890191
22
0.05959497259526799
32
0.6172753923897741
13
6.078669291934448
23
0.0613943612489189
33
0.6093846240265667
0
3DFACE
5
FCF5
330
FB96
100
AcDbEntity
100
AcDbFace
8
MONTAJ_BORULARI
10
6.336436659405767
20
0.690834845764509
30
-0.05447604973744613
11
6.353438390758856
21
0.7049193081866605
31
-0.03542604973744612
12
6.123685866243279
22
0.07367943501741944
32
0.6363253923897741
13
6.106684134890191
23
0.05959497259526799
33
0.6172753923897741
0
3DFACE
5
FCF6
330
FB96
100
AcDbEntity
100
AcDbFace
8
MONTAJ_BORULARI
10
6.353438390758856
20
0.7049193081866605
30
-0.03542604973744612
11
6.349467626866475
21
0.7266371346164522
31
-0.016376049737446108
12
6.119715102350899
22
0.09539726144721111
32
0.6553753923897742
13
6.123685866243279
23
0.07367943501741944
33
0.6363253923897741
0
3DFACE
5
FCF7
330
FB96
100
AcDbEntity
100
AcDbFace
8
MONTAJ_BORULARI
10
6.349467626866475
20
0.7266371346164522
30
-0.016376049737446108
11
6.3268503873638
21
0.743266316876577
31
-0.008485281374238651
12
6.097097862848224
22
0.11202644370733593
32
0.6632661607529816
13
6.119715102350899
23
0.09539726144721111
33
0.6553753923897742
0
3DFACE
5
FCF8
330
FB96
100
AcDbEntity
100
AcDbFace
8
MONTAJ_BORULARI
10
6.3268503873638
20
0.743266316876577
30
-0.008485281374238651
11
6.298835544408058
21
0.7450657055302279
31
-0.016376049737446108
12
6.0690830198924814
22
0.11382583236098684
32
0.6553753923897742
13
6.097097862848224
23
0.11202644370733593
33
0.6632661607529816
0
3DFACE
5
FCF9
330
FB96
100
AcDbEntity
100
AcDbFace
8
MONTAJ_BORULARI
10
6.298835544408058
20
0.7450657055302279
30
-0.016376049737446108
11
6.28183381305497
21
0.7309812431080764
31
-0.03542604973744612
12
6.052081288539393
22
0.0997413699388354
32
0.6363253923897741
13
6.0690830198924814
23
0.11382583236098684
33
0.6553753923897742
0
3DFACE
5
FCFA
330
FB96
100
AcDbEntity
100
AcDbFace
8
MONTAJ_BORULARI
10
6.28183381305497
20
0.7309812431080764
30
-0.03542604973744612
11
6.28580457694735
21
0.7092634166782847
31
-0.05447604973744613
12
6.056052052431774
22
0.07802354350904371
32
0.6172753923897741
13
6.052081288539393
23
0.0997413699388354
33
0.6363253923897741
0
3DFACE
5
FCFB
330
FB96
100
AcDbEntity
100
AcDbFace
8
MONTAJ_BORULARI
10
6.28580457694735
20
0.7092634166782847
30
-0.05447604973744613
11
6.308421816450025
21
0.6926342344181599
31
-0.06236681810065359
12
6.078669291934448
22
0.0613943612489189
32
0.6093846240265667
13
6.056052052431774
23
0.07802354350904371
33
0.6172753923897741
0
3DFACE
5
FCFC
330
FB96
100
AcDbEntity
100
AcDbFace
8
MONTAJ_BORULARI
10
6.21431495645886
20
0.49523947125756773
30
0.16433161594775358
11
6.28431495645886
21
0.49523947125756773
31
0.16433161594775358
12
6.28431495645886
22
0.5652394712575678
32
0.16433161594775358
13
6.21431495645886
23
0.5652394712575678
33
0.16433161594775358
0
3DFACE
5
FCFD
330
FB96
100
AcDbEntity
100
AcDbFace
8
MONTAJ_BORULARI
10
6.21431495645886
20
0.49523947125756773
30
2.2
11
6.28431495645886
21
0.49523947125756773
31
2.2
12
6.28431495645886
22
0.5652394712575678
32
2.2
13
6.21431495645886
23
0.5652394712575678
33
2.2
0
3DFACE
5
FCFE
330
FB96
100
AcDbEntity
100
AcDbFace
8
MONTAJ_BORULARI
10
6.21431495645886
20
0.49523947125756773
30
0.16433161594775358
11
6.28431495645886
21
0.49523947125756773
31
0.16433161594775358
12
6.28431495645886
22
0.49523947125756773
32
2.2
13
6.21431495645886
23
0.49523947125756773
33
2.2
0
3DFACE
5
FCFF
330
FB96
100
AcDbEntity
100
AcDbFace
8
MONTAJ_BORULARI
10
6.21431495645886
20
0.5652394712575678
30
0.16433161594775358
11
6.28431495645886
21
0.5652394712575678
31
0.16433161594775358
12
6.28431495645886
22
0.5652394712575678
32
2.2
13
6.21431495645886
23
0.5652394712575678
33
2.2
0
3DFACE
5
FD00
330
FB96
100
AcDbEntity
100
AcDbFace
8
MONTAJ_BORULARI
10
6.21431495645886
20
0.49523947125756773
30
0.16433161594775358
11
6.21431495645886
21
0.5652394712575678
31
0.16433161594775358
12
6.21431495645886
22
0.5652394712575678
32
2.2
13
6.21431495645886
23
0.49523947125756773
33
2.2
0
3DFACE
5
FD01
330
FB96
100
AcDbEntity
100
AcDbFace
8
MONTAJ_BORULARI
10
6.28431495645886
20
0.49523947125756773
30
0.16433161594775358
11
6.28431495645886
21
0.5652394712575678
31
0.16433161594775358
12
6.28431495645886
22
0.5652394712575678
32
2.2
13
6.28431495645886
23
0.49523947125756773
33
2.2
0
LINE
5
FD02
330
FB96
100
AcDbEntity
100
AcDbLine
8
MONTAJ_BORULARI
10
6.21431495645886
20
0.49523947125756773
30
0.16433161594775358
11
6.28431495645886
21
0.49523947125756773
31
0.16433161594775358
0
LINE
5
FD03
330
FB96
100
AcDbEntity
100
AcDbLine
8
MONTAJ_BORULARI
10
6.28431495645886
20
0.49523947125756773
30
0.16433161594775358
11
6.28431495645886
21
0.5652394712575678
31
0.16433161594775358
0
LINE
5
FD04
330
FB96
100
AcDbEntity
100
AcDbLine
8
MONTAJ_BORULARI
10
6.28431495645886
20
0.5652394712575678
30
0.16433161594775358
11
6.21431495645886
21
0.5652394712575678
31
0.16433161594775358
0
LINE
5
FD05
330
FB96
100
AcDbEntity
100
AcDbLine
8
MONTAJ_BORULARI
10
6.21431495645886
20
0.5652394712575678
30
0.16433161594775358
11
6.21431495645886
21
0.49523947125756773
31
0.16433161594775358
0
LINE
5
FD06
330
FB96
100
AcDbEntity
100
AcDbLine
8
MONTAJ_BORULARI
10
6.21431495645886
20
0.49523947125756773
30
2.2
11
6.28431495645886
21
0.49523947125756773
31
2.2
0
LINE
5
FD07
330
FB96
100
AcDbEntity
100
AcDbLine
8
MONTAJ_BORULARI
10
6.28431495645886
20
0.49523947125756773
30
2.2
11
6.28431495645886
21
0.5652394712575678
31
2.2
0
LINE
5
FD08
330
FB96
100
AcDbEntity
100
AcDbLine
8
MONTAJ_BORULARI
10
6.28431495645886
20
0.5652394712575678
30
2.2
11
6.21431495645886
21
0.5652394712575678
31
2.2
0
LINE
5
FD09
330
FB96
100
AcDbEntity
100
AcDbLine
8
MONTAJ_BORULARI
10
6.21431495645886
20
0.5652394712575678
30
2.2
11
6.21431495645886
21
0.49523947125756773
31
2.2
0
LINE
5
FD0A
330
FB96
100
AcDbEntity
100
AcDbLine
8
MONTAJ_BORULARI
10
6.21431495645886
20
0.49523947125756773
30
0.16433161594775358
11
6.21431495645886
21
0.49523947125756773
31
2.2
0
LINE
5
FD0B
330
FB96
100
AcDbEntity
100
AcDbLine
8
MONTAJ_BORULARI
10
6.28431495645886
20
0.49523947125756773
30
0.16433161594775358
11
6.28431495645886
21
0.49523947125756773
31
2.2
0
LINE
5
FD0C
330
FB96
100
AcDbEntity
100
AcDbLine
8
MONTAJ_BORULARI
10
6.28431495645886
20
0.5652394712575678
30
0.16433161594775358
11
6.28431495645886
21
0.5652394712575678
31
2.2
0
LINE
5
FD0D
330
FB96
100
AcDbEntity
100
AcDbLine
8
MONTAJ_BORULARI
10
6.21431495645886
20
0.5652394712575678
30
0.16433161594775358
11
6.21431495645886
21
0.5652394712575678
31
2.2
0
3DFACE
5
FD0E
330
FB96
100
AcDbEntity
100
AcDbFace
8
MONTAJ_BORULARI
10
6.121204722839389
20
0.23942120686792803
30
0.43656772670457444
11
6.191204722839389
21
0.23942120686792803
31
0.43656772670457444
12
6.191204722839389
22
0.30942120686792807
32
0.43656772670457444
13
6.121204722839389
23
0.30942120686792807
33
0.43656772670457444
0
3DFACE
5
FD0F
330
FB96
100
AcDbEntity
100
AcDbFace
8
MONTAJ_BORULARI
10
6.121204722839389
20
0.23942120686792803
30
2.2
11
6.191204722839389
21
0.23942120686792803
31
2.2
12
6.191204722839389
22
0.30942120686792807
32
2.2
13
6.121204722839389
23
0.30942120686792807
33
2.2
0
3DFACE
5
FD10
330
FB96
100
AcDbEntity
100
AcDbFace
8
MONTAJ_BORULARI
10
6.121204722839389
20
0.23942120686792803
30
0.43656772670457444
11
6.191204722839389
21
0.23942120686792803
31
0.43656772670457444
12
6.191204722839389
22
0.23942120686792803
32
2.2
13
6.121204722839389
23
0.23942120686792803
33
2.2
0
3DFACE
5
FD11
330
FB96
100
AcDbEntity
100
AcDbFace
8
MONTAJ_BORULARI
10
6.121204722839389
20
0.30942120686792807
30
0.43656772670457444
11
6.191204722839389
21
0.30942120686792807
31
0.43656772670457444
12
6.191204722839389
22
0.30942120686792807
32
2.2
13
6.121204722839389
23
0.30942120686792807
33
2.2
0
3DFACE
5
FD12
330
FB96
100
AcDbEntity
100
AcDbFace
8
MONTAJ_BORULARI
10
6.121204722839389
20
0.23942120686792803
30
0.43656772670457444
11
6.121204722839389
21
0.30942120686792807
31
0.43656772670457444
12
6.121204722839389
22
0.30942120686792807
32
2.2
13
6.121204722839389
23
0.23942120686792803
33
2.2
0
3DFACE
5
FD13
330
FB96
100
AcDbEntity
100
AcDbFace
8
MONTAJ_BORULARI
10
6.191204722839389
20
0.23942120686792803
30
0.43656772670457444
11
6.191204722839389
21
0.30942120686792807
31
0.43656772670457444
12
6.191204722839389
22
0.30942120686792807
32
2.2
13
6.191204722839389
23
0.23942120686792803
33
2.2
0
LINE
5
FD14
330
FB96
100
AcDbEntity
100
AcDbLine
8
MONTAJ_BORULARI
10
6.121204722839389
20
0.23942120686792803
30
0.43656772670457444
11
6.191204722839389
21
0.23942120686792803
31
0.43656772670457444
0
LINE
5
FD15
330
FB96
100
AcDbEntity
100
AcDbLine
8
MONTAJ_BORULARI
10
6.191204722839389
20
0.23942120686792803
30
0.43656772670457444
11
6.191204722839389
21
0.30942120686792807
31
0.43656772670457444
0
LINE
5
FD16
330
FB96
100
AcDbEntity
100
AcDbLine
8
MONTAJ_BORULARI
10
6.191204722839389
20
0.30942120686792807
30
0.43656772670457444
11
6.121204722839389
21
0.30942120686792807
31
0.43656772670457444
0
LINE
5
FD17
330
FB96
100
AcDbEntity
100
AcDbLine
8
MONTAJ_BORULARI
10
6.121204722839389
20
0.30942120686792807
30
0.43656772670457444
11
6.121204722839389
21
0.23942120686792803
31
0.43656772670457444
0
LINE
5
FD18
330
FB96
100
AcDbEntity
100
AcDbLine
8
MONTAJ_BORULARI
10
6.121204722839389
20
0.23942120686792803
30
2.2
11
6.191204722839389
21
0.23942120686792803
31
2.2
0
LINE
5
FD19
330
FB96
100
AcDbEntity
100
AcDbLine
8
MONTAJ_BORULARI
10
6.191204722839389
20
0.23942120686792803
30
2.2
11
6.191204722839389
21
0.30942120686792807
31
2.2
0
LINE
5
FD1A
330
FB96
100
AcDbEntity
100
AcDbLine
8
MONTAJ_BORULARI
10
6.191204722839389
20
0.30942120686792807
30
2.2
11
6.121204722839389
21
0.30942120686792807
31
2.2
0
LINE
5
FD1B
330
FB96
100
AcDbEntity
100
AcDbLine
8
MONTAJ_BORULARI
10
6.121204722839389
20
0.30942120686792807
30
2.2
11
6.121204722839389
21
0.23942120686792803
31
2.2
0
LINE
5
FD1C
330
FB96
100
AcDbEntity
100
AcDbLine
8
MONTAJ_BORULARI
10
6.121204722839389
20
0.23942120686792803
30
0.43656772670457444
11
6.121204722839389
21
0.23942120686792803
31
2.2
0
LINE
5
FD1D
330
FB96
100
AcDbEntity
100
AcDbLine
8
MONTAJ_BORULARI
10
6.191204722839389
20
0.23942120686792803
30
0.43656772670457444
11
6.191204722839389
21
0.23942120686792803
31
2.2
0
LINE
5
FD1E
330
FB96
100
AcDbEntity
100
AcDbLine
8
MONTAJ_BORULARI
10
6.191204722839389
20
0.30942120686792807
30
0.43656772670457444
11
6.191204722839389
21
0.30942120686792807
31
2.2
0
LINE
5
FD1F
330
FB96
100
AcDbEntity
100
AcDbLine
8
MONTAJ_BORULARI
10
6.121204722839389
20
0.30942120686792807
30
0.43656772670457444
11
6.121204722839389
21
0.30942120686792807
31
2.2
0
3DFACE
5
FD55
330
FB96
100
AcDbEntity
100
AcDbFace
8
MONTAJ_BORULARI
10
7
20
0.6093846240265667
30
-0.06236681810065359
11
7.0269407683632075
21
0.6172753923897741
31
-0.05447604973744613
12
7.0269407683632075
22
-0.05447604973744602
32
0.6172753923897741
13
7
23
-0.062366818100653476
33
0.6093846240265667
0
3DFACE
5
FD56
330
FB96
100
AcDbEntity
100
AcDbFace
8
MONTAJ_BORULARI
10
7.0269407683632075
20
0.6172753923897741
30
-0.05447604973744613
11
7.0381
21
0.6363253923897741
31
-0.03542604973744612
12
7.0381
22
-0.03542604973744601
32
0.6363253923897741
13
7.0269407683632075
23
-0.05447604973744602
33
0.6172753923897741
0
3DFACE
5
FD57
330
FB96
100
AcDbEntity
100
AcDbFace
8
MONTAJ_BORULARI
10
7.0381
20
0.6363253923897741
30
-0.03542604973744612
11
7.0269407683632075
21
0.6553753923897742
31
-0.016376049737446108
12
7.0269407683632075
22
-0.016376049737445997
32
0.6553753923897742
13
7.0381
23
-0.03542604973744601
33
0.6363253923897741
0
3DFACE
5
FD58
330
FB96
100
AcDbEntity
100
AcDbFace
8
MONTAJ_BORULARI
10
7.0269407683632075
20
0.6553753923897742
30
-0.016376049737446108
11
7
21
0.6632661607529816
31
-0.008485281374238651
12
7
22
-0.00848528137423854
32
0.6632661607529816
13
7.0269407683632075
23
-0.016376049737445997
33
0.6553753923897742
0
3DFACE
5
FD59
330
FB96
100
AcDbEntity
100
AcDbFace
8
MONTAJ_BORULARI
10
7
20
0.6632661607529816
30
-0.008485281374238651
11
6.9730592316367925
21
0.6553753923897742
31
-0.016376049737446108
12
6.9730592316367925
22
-0.016376049737445997
32
0.6553753923897742
13
7
23
-0.00848528137423854
33
0.6632661607529816
0
3DFACE
5
FD5A
330
FB96
100
AcDbEntity
100
AcDbFace
8
MONTAJ_BORULARI
10
6.9730592316367925
20
0.6553753923897742
30
-0.016376049737446108
11
6.9619
21
0.6363253923897741
31
-0.03542604973744612
12
6.9619
22
-0.03542604973744601
32
0.6363253923897741
13
6.9730592316367925
23
-0.016376049737445997
33
0.6553753923897742
0
3DFACE
5
FD5B
330
FB96
100
AcDbEntity
100
AcDbFace
8
MONTAJ_BORULARI
10
6.9619
20
0.6363253923897741
30
-0.03542604973744612
11
6.9730592316367925
21
0.6172753923897741
31
-0.05447604973744613
12
6.9730592316367925
22
-0.05447604973744602
32
0.6172753923897741
13
6.9619
23
-0.03542604973744601
33
0.6363253923897741
0
3DFACE
5
FD5C
330
FB96
100
AcDbEntity
100
AcDbFace
8
MONTAJ_BORULARI
10
6.9730592316367925
20
0.6172753923897741
30
-0.05447604973744613
11
7
21
0.6093846240265667
31
-0.06236681810065359
12
7
22
-0.062366818100653476
32
0.6093846240265667
13
6.9730592316367925
23
-0.05447604973744602
33
0.6172753923897741
0
3DFACE
5
FD5D
330
FB96
100
AcDbEntity
100
AcDbFace
8
MONTAJ_BORULARI
10
6.965
20
0.4015677267045744
30
0.16433161594775358
11
7.035
21
0.4015677267045744
31
0.16433161594775358
12
7.035
22
0.4715677267045745
32
0.16433161594775358
13
6.965
23
0.4715677267045745
33
0.16433161594775358
0
3DFACE
5
FD5E
330
FB96
100
AcDbEntity
100
AcDbFace
8
MONTAJ_BORULARI
10
6.965
20
0.4015677267045744
30
2.2
11
7.035
21
0.4015677267045744
31
2.2
12
7.035
22
0.4715677267045745
32
2.2
13
6.965
23
0.4715677267045745
33
2.2
0
3DFACE
5
FD5F
330
FB96
100
AcDbEntity
100
AcDbFace
8
MONTAJ_BORULARI
10
6.965
20
0.4015677267045744
30
0.16433161594775358
11
7.035
21
0.4015677267045744
31
0.16433161594775358
12
7.035
22
0.4015677267045744
32
2.2
13
6.965
23
0.4015677267045744
33
2.2
0
3DFACE
5
FD60
330
FB96
100
AcDbEntity
100
AcDbFace
8
MONTAJ_BORULARI
10
6.965
20
0.4715677267045745
30
0.16433161594775358
11
7.035
21
0.4715677267045745
31
0.16433161594775358
12
7.035
22
0.4715677267045745
32
2.2
13
6.965
23
0.4715677267045745
33
2.2
0
3DFACE
5
FD61
330
FB96
100
AcDbEntity
100
AcDbFace
8
MONTAJ_BORULARI
10
6.965
20
0.4015677267045744
30
0.16433161594775358
11
6.965
21
0.4715677267045745
31
0.16433161594775358
12
6.965
22
0.4715677267045745
32
2.2
13
6.965
23
0.4015677267045744
33
2.2
0
3DFACE
5
FD62
330
FB96
100
AcDbEntity
100
AcDbFace
8
MONTAJ_BORULARI
10
7.035
20
0.4015677267045744
30
0.16433161594775358
11
7.035
21
0.4715677267045745
31
0.16433161594775358
12
7.035
22
0.4715677267045745
32
2.2
13
7.035
23
0.4015677267045744
33
2.2
0
LINE
5
FD63
330
FB96
100
AcDbEntity
100
AcDbLine
8
MONTAJ_BORULARI
10
6.965
20
0.4015677267045744
30
0.16433161594775358
11
7.035
21
0.4015677267045744
31
0.16433161594775358
0
LINE
5
FD64
330
FB96
100
AcDbEntity
100
AcDbLine
8
MONTAJ_BORULARI
10
7.035
20
0.4015677267045744
30
0.16433161594775358
11
7.035
21
0.4715677267045745
31
0.16433161594775358
0
LINE
5
FD65
330
FB96
100
AcDbEntity
100
AcDbLine
8
MONTAJ_BORULARI
10
7.035
20
0.4715677267045745
30
0.16433161594775358
11
6.965
21
0.4715677267045745
31
0.16433161594775358
0
LINE
5
FD66
330
FB96
100
AcDbEntity
100
AcDbLine
8
MONTAJ_BORULARI
10
6.965
20
0.4715677267045745
30
0.16433161594775358
11
6.965
21
0.4015677267045744
31
0.16433161594775358
0
LINE
5
FD67
330
FB96
100
AcDbEntity
100
AcDbLine
8
MONTAJ_BORULARI
10
6.965
20
0.4015677267045744
30
2.2
11
7.035
21
0.4015677267045744
31
2.2
0
LINE
5
FD68
330
FB96
100
AcDbEntity
100
AcDbLine
8
MONTAJ_BORULARI
10
7.035
20
0.4015677267045744
30
2.2
11
7.035
21
0.4715677267045745
31
2.2
0
LINE
5
FD69
330
FB96
100
AcDbEntity
100
AcDbLine
8
MONTAJ_BORULARI
10
7.035
20
0.4715677267045745
30
2.2
11
6.965
21
0.4715677267045745
31
2.2
0
LINE
5
FD6A
330
FB96
100
AcDbEntity
100
AcDbLine
8
MONTAJ_BORULARI
10
6.965
20
0.4715677267045745
30
2.2
11
6.965
21
0.4015677267045744
31
2.2
0
LINE
5
FD6B
330
FB96
100
AcDbEntity
100
AcDbLine
8
MONTAJ_BORULARI
10
6.965
20
0.4015677267045744
30
0.16433161594775358
11
6.965
21
0.4015677267045744
31
2.2
0
LINE
5
FD6C
330
FB96
100
AcDbEntity
100
AcDbLine
8
MONTAJ_BORULARI
10
7.035
20
0.4015677267045744
30
0.16433161594775358
11
7.035
21
0.4015677267045744
31
2.2
0
LINE
5
FD6D
330
FB96
100
AcDbEntity
100
AcDbLine
8
MONTAJ_BORULARI
10
7.035
20
0.4715677267045745
30
0.16433161594775358
11
7.035
21
0.4715677267045745
31
2.2
0
LINE
5
FD6E
330
FB96
100
AcDbEntity
100
AcDbLine
8
MONTAJ_BORULARI
10
6.965
20
0.4715677267045745
30
0.16433161594775358
11
6.965
21
0.4715677267045745
31
2.2
0
3DFACE
5
FD6F
330
FB96
100
AcDbEntity
100
AcDbFace
8
MONTAJ_BORULARI
10
6.965
20
0.12933161594775366
30
0.43656772670457444
11
7.035
21
0.12933161594775366
31
0.43656772670457444
12
7.035
22
0.19933161594775367
32
0.43656772670457444
13
6.965
23
0.19933161594775367
33
0.43656772670457444
0
3DFACE
5
FD70
330
FB96
100
AcDbEntity
100
AcDbFace
8
MONTAJ_BORULARI
10
6.965
20
0.12933161594775366
30
2.2
11
7.035
21
0.12933161594775366
31
2.2
12
7.035
22
0.19933161594775367
32
2.2
13
6.965
23
0.19933161594775367
33
2.2
0
3DFACE
5
FD71
330
FB96
100
AcDbEntity
100
AcDbFace
8
MONTAJ_BORULARI
10
6.965
20
0.12933161594775366
30
0.43656772670457444
11
7.035
21
0.12933161594775366
31
0.43656772670457444
12
7.035
22
0.12933161594775366
32
2.2
13
6.965
23
0.12933161594775366
33
2.2
0
3DFACE
5
FD72
330
FB96
100
AcDbEntity
100
AcDbFace
8
MONTAJ_BORULARI
10
6.965
20
0.19933161594775367
30
0.43656772670457444
11
7.035
21
0.19933161594775367
31
0.43656772670457444
12
7.035
22
0.19933161594775367
32
2.2
13
6.965
23
0.19933161594775367
33
2.2
0
3DFACE
5
FD73
330
FB96
100
AcDbEntity
100
AcDbFace
8
MONTAJ_BORULARI
10
6.965
20
0.12933161594775366
30
0.43656772670457444
11
6.965
21
0.19933161594775367
31
0.43656772670457444
12
6.965
22
0.19933161594775367
32
2.2
13
6.965
23
0.12933161594775366
33
2.2
0
3DFACE
5
FD74
330
FB96
100
AcDbEntity
100
AcDbFace
8
MONTAJ_BORULARI
10
7.035
20
0.12933161594775366
30
0.43656772670457444
11
7.035
21
0.19933161594775367
31
0.43656772670457444
12
7.035
22
0.19933161594775367
32
2.2
13
7.035
23
0.12933161594775366
33
2.2
0
LINE
5
FD75
330
FB96
100
AcDbEntity
100
AcDbLine
8
MONTAJ_BORULARI
10
6.965
20
0.12933161594775366
30
0.43656772670457444
11
7.035
21
0.12933161594775366
31
0.43656772670457444
0
LINE
5
FD76
330
FB96
100
AcDbEntity
100
AcDbLine
8
MONTAJ_BORULARI
10
7.035
20
0.12933161594775366
30
0.43656772670457444
11
7.035
21
0.19933161594775367
31
0.43656772670457444
0
LINE
5
FD77
330
FB96
100
AcDbEntity
100
AcDbLine
8
MONTAJ_BORULARI
10
7.035
20
0.19933161594775367
30
0.43656772670457444
11
6.965
21
0.19933161594775367
31
0.43656772670457444
0
LINE
5
FD78
330
FB96
100
AcDbEntity
100
AcDbLine
8
MONTAJ_BORULARI
10
6.965
20
0.19933161594775367
30
0.43656772670457444
11
6.965
21
0.12933161594775366
31
0.43656772670457444
0
LINE
5
FD79
330
FB96
100
AcDbEntity
100
AcDbLine
8
MONTAJ_BORULARI
10
6.965
20
0.12933161594775366
30
2.2
11
7.035
21
0.12933161594775366
31
2.2
0
LINE
5
FD7A
330
FB96
100
AcDbEntity
100
AcDbLine
8
MONTAJ_BORULARI
10
7.035
20
0.12933161594775366
30
2.2
11
7.035
21
0.19933161594775367
31
2.2
0
LINE
5
FD7B
330
FB96
100
AcDbEntity
100
AcDbLine
8
MONTAJ_BORULARI
10
7.035
20
0.19933161594775367
30
2.2
11
6.965
21
0.19933161594775367
31
2.2
0
LINE
5
FD7C
330
FB96
100
AcDbEntity
100
AcDbLine
8
MONTAJ_BORULARI
10
6.965
20
0.19933161594775367
30
2.2
11
6.965
21
0.12933161594775366
31
2.2
0
LINE
5
FD7D
330
FB96
100
AcDbEntity
100
AcDbLine
8
MONTAJ_BORULARI
10
6.965
20
0.12933161594775366
30
0.43656772670457444
11
6.965
21
0.12933161594775366
31
2.2
0
LINE
5
FD7E
330
FB96
100
AcDbEntity
100
AcDbLine
8
MONTAJ_BORULARI
10
7.035
20
0.12933161594775366
30
0.43656772670457444
11
7.035
21
0.12933161594775366
31
2.2
0
LINE
5
FD7F
330
FB96
100
AcDbEntity
100
AcDbLine
8
MONTAJ_BORULARI
10
7.035
20
0.19933161594775367
30
0.43656772670457444
11
7.035
21
0.19933161594775367
31
2.2
0
LINE
5
FD80
330
FB96
100
AcDbEntity
100
AcDbLine
8
MONTAJ_BORULARI
10
6.965
20
0.19933161594775367
30
0.43656772670457444
11
6.965
21
0.19933161594775367
31
2.2
0
3DFACE
5
FDB6
330
FB96
100
AcDbEntity
100
AcDbFace
8
MONTAJ_BORULARI
10
7.691578183549975
20
0.6926342344181599
30
-0.06236681810065359
11
7.71419542305265
21
0.7092634166782847
31
-0.05447604973744613
12
7.943947947568226
22
0.0780235435090437
32
0.6172753923897741
13
7.921330708065552
23
0.0613943612489189
33
0.6093846240265667
0
3DFACE
5
FDB7
330
FB96
100
AcDbEntity
100
AcDbFace
8
MONTAJ_BORULARI
10
7.71419542305265
20
0.7092634166782847
30
-0.05447604973744613
11
7.71816618694503
21
0.7309812431080764
31
-0.03542604973744612
12
7.947918711460607
22
0.0997413699388354
32
0.6363253923897741
13
7.943947947568226
23
0.0780235435090437
33
0.6172753923897741
0
3DFACE
5
FDB8
330
FB96
100
AcDbEntity
100
AcDbFace
8
MONTAJ_BORULARI
10
7.71816618694503
20
0.7309812431080764
30
-0.03542604973744612
11
7.701164455591942
21
0.7450657055302279
31
-0.016376049737446108
12
7.9309169801075186
22
0.11382583236098684
32
0.6553753923897742
13
7.947918711460607
23
0.0997413699388354
33
0.6363253923897741
0
3DFACE
5
FDB9
330
FB96
100
AcDbEntity
100
AcDbFace
8
MONTAJ_BORULARI
10
7.701164455591942
20
0.7450657055302279
30
-0.016376049737446108
11
7.6731496126362
21
0.743266316876577
31
-0.008485281374238651
12
7.902902137151776
22
0.11202644370733593
32
0.6632661607529816
13
7.9309169801075186
23
0.11382583236098684
33
0.6553753923897742
0
3DFACE
5
FDBA
330
FB96
100
AcDbEntity
100
AcDbFace
8
MONTAJ_BORULARI
10
7.6731496126362
20
0.743266316876577
30
-0.008485281374238651
11
7.650532373133525
21
0.7266371346164522
31
-0.016376049737446108
12
7.880284897649101
22
0.09539726144721113
32
0.6553753923897742
13
7.902902137151776
23
0.11202644370733593
33
0.6632661607529816
0
3DFACE
5
FDBB
330
FB96
100
AcDbEntity
100
AcDbFace
8
MONTAJ_BORULARI
10
7.650532373133525
20
0.7266371346164522
30
-0.016376049737446108
11
7.646561609241144
21
0.7049193081866605
31
-0.03542604973744612
12
7.876314133756721
22
0.07367943501741944
32
0.6363253923897741
13
7.880284897649101
23
0.09539726144721113
33
0.6553753923897742
0
3DFACE
5
FDBC
330
FB96
100
AcDbEntity
100
AcDbFace
8
MONTAJ_BORULARI
10
7.646561609241144
20
0.7049193081866605
30
-0.03542604973744612
11
7.663563340594233
21
0.690834845764509
31
-0.05447604973744613
12
7.893315865109809
22
0.059594972595267984
32
0.6172753923897741
13
7.876314133756721
23
0.07367943501741944
33
0.6363253923897741
0
3DFACE
5
FDBD
330
FB96
100
AcDbEntity
100
AcDbFace
8
MONTAJ_BORULARI
10
7.663563340594233
20
0.690834845764509
30
-0.05447604973744613
11
7.691578183549975
21
0.6926342344181599
31
-0.06236681810065359
12
7.921330708065552
22
0.0613943612489189
32
0.6093846240265667
13
7.893315865109809
23
0.059594972595267984
33
0.6172753923897741
0
3DFACE
5
FDBE
330
FB96
100
AcDbEntity
100
AcDbFace
8
MONTAJ_BORULARI
10
7.71568504354114
20
0.49523947125756773
30
0.16433161594775358
11
7.78568504354114
21
0.49523947125756773
31
0.16433161594775358
12
7.78568504354114
22
0.5652394712575678
32
0.16433161594775358
13
7.71568504354114
23
0.5652394712575678
33
0.16433161594775358
0
3DFACE
5
FDBF
330
FB96
100
AcDbEntity
100
AcDbFace
8
MONTAJ_BORULARI
10
7.71568504354114
20
0.49523947125756773
30
2.2
11
7.78568504354114
21
0.49523947125756773
31
2.2
12
7.78568504354114
22
0.5652394712575678
32
2.2
13
7.71568504354114
23
0.5652394712575678
33
2.2
0
3DFACE
5
FDC0
330
FB96
100
AcDbEntity
100
AcDbFace
8
MONTAJ_BORULARI
10
7.71568504354114
20
0.49523947125756773
30
0.16433161594775358
11
7.78568504354114
21
0.49523947125756773
31
0.16433161594775358
12
7.78568504354114
22
0.49523947125756773
32
2.2
13
7.71568504354114
23
0.49523947125756773
33
2.2
0
3DFACE
5
FDC1
330
FB96
100
AcDbEntity
100
AcDbFace
8
MONTAJ_BORULARI
10
7.71568504354114
20
0.5652394712575678
30
0.16433161594775358
11
7.78568504354114
21
0.5652394712575678
31
0.16433161594775358
12
7.78568504354114
22
0.5652394712575678
32
2.2
13
7.71568504354114
23
0.5652394712575678
33
2.2
0
3DFACE
5
FDC2
330
FB96
100
AcDbEntity
100
AcDbFace
8
MONTAJ_BORULARI
10
7.71568504354114
20
0.49523947125756773
30
0.16433161594775358
11
7.71568504354114
21
0.5652394712575678
31
0.16433161594775358
12
7.71568504354114
22
0.5652394712575678
32
2.2
13
7.71568504354114
23
0.49523947125756773
33
2.2
0
3DFACE
5
FDC3
330
FB96
100
AcDbEntity
100
AcDbFace
8
MONTAJ_BORULARI
10
7.78568504354114
20
0.49523947125756773
30
0.16433161594775358
11
7.78568504354114
21
0.5652394712575678
31
0.16433161594775358
12
7.78568504354114
22
0.5652394712575678
32
2.2
13
7.78568504354114
23
0.49523947125756773
33
2.2
0
LINE
5
FDC4
330
FB96
100
AcDbEntity
100
AcDbLine
8
MONTAJ_BORULARI
10
7.71568504354114
20
0.49523947125756773
30
0.16433161594775358
11
7.78568504354114
21
0.49523947125756773
31
0.16433161594775358
0
LINE
5
FDC5
330
FB96
100
AcDbEntity
100
AcDbLine
8
MONTAJ_BORULARI
10
7.78568504354114
20
0.49523947125756773
30
0.16433161594775358
11
7.78568504354114
21
0.5652394712575678
31
0.16433161594775358
0
LINE
5
FDC6
330
FB96
100
AcDbEntity
100
AcDbLine
8
MONTAJ_BORULARI
10
7.78568504354114
20
0.5652394712575678
30
0.16433161594775358
11
7.71568504354114
21
0.5652394712575678
31
0.16433161594775358
0
LINE
5
FDC7
330
FB96
100
AcDbEntity
100
AcDbLine
8
MONTAJ_BORULARI
10
7.71568504354114
20
0.5652394712575678
30
0.16433161594775358
11
7.71568504354114
21
0.49523947125756773
31
0.16433161594775358
0
LINE
5
FDC8
330
FB96
100
AcDbEntity
100
AcDbLine
8
MONTAJ_BORULARI
10
7.71568504354114
20
0.49523947125756773
30
2.2
11
7.78568504354114
21
0.49523947125756773
31
2.2
0
LINE
5
FDC9
330
FB96
100
AcDbEntity
100
AcDbLine
8
MONTAJ_BORULARI
10
7.78568504354114
20
0.49523947125756773
30
2.2
11
7.78568504354114
21
0.5652394712575678
31
2.2
0
LINE
5
FDCA
330
FB96
100
AcDbEntity
100
AcDbLine
8
MONTAJ_BORULARI
10
7.78568504354114
20
0.5652394712575678
30
2.2
11
7.71568504354114
21
0.5652394712575678
31
2.2
0
LINE
5
FDCB
330
FB96
100
AcDbEntity
100
AcDbLine
8
MONTAJ_BORULARI
10
7.71568504354114
20
0.5652394712575678
30
2.2
11
7.71568504354114
21
0.49523947125756773
31
2.2
0
LINE
5
FDCC
330
FB96
100
AcDbEntity
100
AcDbLine
8
MONTAJ_BORULARI
10
7.71568504354114
20
0.49523947125756773
30
0.16433161594775358
11
7.71568504354114
21
0.49523947125756773
31
2.2
0
LINE
5
FDCD
330
FB96
100
AcDbEntity
100
AcDbLine
8
MONTAJ_BORULARI
10
7.78568504354114
20
0.49523947125756773
30
0.16433161594775358
11
7.78568504354114
21
0.49523947125756773
31
2.2
0
LINE
5
FDCE
330
FB96
100
AcDbEntity
100
AcDbLine
8
MONTAJ_BORULARI
10
7.78568504354114
20
0.5652394712575678
30
0.16433161594775358
11
7.78568504354114
21
0.5652394712575678
31
2.2
0
LINE
5
FDCF
330
FB96
100
AcDbEntity
100
AcDbLine
8
MONTAJ_BORULARI
10
7.71568504354114
20
0.5652394712575678
30
0.16433161594775358
11
7.71568504354114
21
0.5652394712575678
31
2.2
0
3DFACE
5
FDD0
330
FB96
100
AcDbEntity
100
AcDbFace
8
MONTAJ_BORULARI
10
7.808795277160611
20
0.23942120686792803
30
0.43656772670457444
11
7.878795277160611
21
0.23942120686792803
31
0.43656772670457444
12
7.878795277160611
22
0.30942120686792807
32
0.43656772670457444
13
7.808795277160611
23
0.30942120686792807
33
0.43656772670457444
0
3DFACE
5
FDD1
330
FB96
100
AcDbEntity
100
AcDbFace
8
MONTAJ_BORULARI
10
7.808795277160611
20
0.23942120686792803
30
2.2
11
7.878795277160611
21
0.23942120686792803
31
2.2
12
7.878795277160611
22
0.30942120686792807
32
2.2
13
7.808795277160611
23
0.30942120686792807
33
2.2
0
3DFACE
5
FDD2
330
FB96
100
AcDbEntity
100
AcDbFace
8
MONTAJ_BORULARI
10
7.808795277160611
20
0.23942120686792803
30
0.43656772670457444
11
7.878795277160611
21
0.23942120686792803
31
0.43656772670457444
12
7.878795277160611
22
0.23942120686792803
32
2.2
13
7.808795277160611
23
0.23942120686792803
33
2.2
0
3DFACE
5
FDD3
330
FB96
100
AcDbEntity
100
AcDbFace
8
MONTAJ_BORULARI
10
7.808795277160611
20
0.30942120686792807
30
0.43656772670457444
11
7.878795277160611
21
0.30942120686792807
31
0.43656772670457444
12
7.878795277160611
22
0.30942120686792807
32
2.2
13
7.808795277160611
23
0.30942120686792807
33
2.2
0
3DFACE
5
FDD4
330
FB96
100
AcDbEntity
100
AcDbFace
8
MONTAJ_BORULARI
10
7.808795277160611
20
0.23942120686792803
30
0.43656772670457444
11
7.808795277160611
21
0.30942120686792807
31
0.43656772670457444
12
7.808795277160611
22
0.30942120686792807
32
2.2
13
7.808795277160611
23
0.23942120686792803
33
2.2
0
3DFACE
5
FDD5
330
FB96
100
AcDbEntity
100
AcDbFace
8
MONTAJ_BORULARI
10
7.878795277160611
20
0.23942120686792803
30
0.43656772670457444
11
7.878795277160611
21
0.30942120686792807
31
0.43656772670457444
12
7.878795277160611
22
0.30942120686792807
32
2.2
13
7.878795277160611
23
0.23942120686792803
33
2.2
0
LINE
5
FDD6
330
FB96
100
AcDbEntity
100
AcDbLine
8
MONTAJ_BORULARI
10
7.808795277160611
20
0.23942120686792803
30
0.43656772670457444
11
7.878795277160611
21
0.23942120686792803
31
0.43656772670457444
0
LINE
5
FDD7
330
FB96
100
AcDbEntity
100
AcDbLine
8
MONTAJ_BORULARI
10
7.878795277160611
20
0.23942120686792803
30
0.43656772670457444
11
7.878795277160611
21
0.30942120686792807
31
0.43656772670457444
0
LINE
5
FDD8
330
FB96
100
AcDbEntity
100
AcDbLine
8
MONTAJ_BORULARI
10
7.878795277160611
20
0.30942120686792807
30
0.43656772670457444
11
7.808795277160611
21
0.30942120686792807
31
0.43656772670457444
0
LINE
5
FDD9
330
FB96
100
AcDbEntity
100
AcDbLine
8
MONTAJ_BORULARI
10
7.808795277160611
20
0.30942120686792807
30
0.43656772670457444
11
7.808795277160611
21
0.23942120686792803
31
0.43656772670457444
0
LINE
5
FDDA
330
FB96
100
AcDbEntity
100
AcDbLine
8
MONTAJ_BORULARI
10
7.808795277160611
20
0.23942120686792803
30
2.2
11
7.878795277160611
21
0.23942120686792803
31
2.2
0
LINE
5
FDDB
330
FB96
100
AcDbEntity
100
AcDbLine
8
MONTAJ_BORULARI
10
7.878795277160611
20
0.23942120686792803
30
2.2
11
7.878795277160611
21
0.30942120686792807
31
2.2
0
LINE
5
FDDC
330
FB96
100
AcDbEntity
100
AcDbLine
8
MONTAJ_BORULARI
10
7.878795277160611
20
0.30942120686792807
30
2.2
11
7.808795277160611
21
0.30942120686792807
31
2.2
0
LINE
5
FDDD
330
FB96
100
AcDbEntity
100
AcDbLine
8
MONTAJ_BORULARI
10
7.808795277160611
20
0.30942120686792807
30
2.2
11
7.808795277160611
21
0.23942120686792803
31
2.2
0
LINE
5
FDDE
330
FB96
100
AcDbEntity
100
AcDbLine
8
MONTAJ_BORULARI
10
7.808795277160611
20
0.23942120686792803
30
0.43656772670457444
11
7.808795277160611
21
0.23942120686792803
31
2.2
0
LINE
5
FDDF
330
FB96
100
AcDbEntity
100
AcDbLine
8
MONTAJ_BORULARI
10
7.878795277160611
20
0.23942120686792803
30
0.43656772670457444
11
7.878795277160611
21
0.23942120686792803
31
2.2
0
LINE
5
FDE0
330
FB96
100
AcDbEntity
100
AcDbLine
8
MONTAJ_BORULARI
10
7.878795277160611
20
0.30942120686792807
30
0.43656772670457444
11
7.878795277160611
21
0.30942120686792807
31
2.2
0
LINE
5
FDE1
330
FB96
100
AcDbEntity
100
AcDbLine
8
MONTAJ_BORULARI
10
7.808795277160611
20
0.30942120686792807
30
0.43656772670457444
11
7.808795277160611
21
0.30942120686792807
31
2.2
0
3DFACE
5
FE19
330
FB96
100
AcDbEntity
100
AcDbFace
8
MONTAJ_BORULARI
10
14.25
20
0
30
3.15
11
17.75
21
0
31
3.15
12
17.75
22
-1.8369701987210297e-16
32
3.15
13
14.25
23
-1.8369701987210297e-16
33
3.15
0
3DFACE
5
FE1A
330
FB96
100
AcDbEntity
100
AcDbFace
8
MONTAJ_BORULARI
10
14.25
20
0.2870125742738173
30
3.092909649383465
11
17.75
21
0.2870125742738173
31
3.092909649383465
12
17.75
22
-3.6739403974420594e-16
32
3.15
13
14.25
23
-3.6739403974420594e-16
33
3.15
0
3DFACE
5
FE1B
330
FB96
100
AcDbEntity
100
AcDbFace
8
MONTAJ_BORULARI
10
14.25
20
0.5303300858899106
30
2.930330085889911
11
17.75
21
0.5303300858899106
31
2.930330085889911
12
17.75
22
-5.51091059616309e-16
32
3.15
13
14.25
23
-5.51091059616309e-16
33
3.15
0
3DFACE
5
FE1C
330
FB96
100
AcDbEntity
100
AcDbFace
8
MONTAJ_BORULARI
10
14.25
20
0.692909649383465
30
2.687012574273817
11
17.75
21
0.692909649383465
31
2.687012574273817
12
17.75
22
-7.347880794884119e-16
32
3.15
13
14.25
23
-7.347880794884119e-16
33
3.15
0
3DFACE
5
FE1D
330
FB96
100
AcDbEntity
100
AcDbFace
8
MONTAJ_BORULARI
10
14.25
20
0.75
30
2.4
11
17.75
21
0.75
31
2.4
12
17.75
22
-9.18485099360515e-16
32
3.15
13
14.25
23
-9.18485099360515e-16
33
3.15
0
3DFACE
5
FE1E
330
FB96
100
AcDbEntity
100
AcDbFace
8
MONTAJ_BORULARI
10
14.25
20
0.692909649383465
30
2.1129874257261827
11
17.75
21
0.692909649383465
31
2.1129874257261827
12
17.75
22
-1.102182119232618e-15
32
3.15
13
14.25
23
-1.102182119232618e-15
33
3.15
0
3DFACE
5
FE1F
330
FB96
100
AcDbEntity
100
AcDbFace
8
MONTAJ_BORULARI
10
14.25
20
0.5303300858899107
30
1.8696699141100894
11
17.75
21
0.5303300858899107
31
1.8696699141100894
12
17.75
22
-1.2858791391047208e-15
32
3.15
13
14.25
23
-1.2858791391047208e-15
33
3.15
0
3DFACE
5
FE20
330
FB96
100
AcDbEntity
100
AcDbFace
8
MONTAJ_BORULARI
10
14.25
20
0.28701257427381743
30
1.707090350616535
11
17.75
21
0.28701257427381743
31
1.707090350616535
12
17.75
22
-1.4695761589768238e-15
32
3.15
13
14.25
23
-1.4695761589768238e-15
33
3.15
0
3DFACE
5
FE21
330
FB96
100
AcDbEntity
100
AcDbFace
8
MONTAJ_BORULARI
10
14.25
20
9.184850993605148e-17
30
1.65
11
17.75
21
9.184850993605148e-17
31
1.65
12
17.75
22
-1.6532731788489269e-15
32
3.15
13
14.25
23
-1.6532731788489269e-15
33
3.15
0
3DFACE
5
FE22
330
FB96
100
AcDbEntity
100
AcDbFace
8
MONTAJ_BORULARI
10
14.25
20
-0.28701257427381727
30
1.707090350616535
11
17.75
21
-0.28701257427381727
31
1.707090350616535
12
17.75
22
-1.83697019872103e-15
32
3.15
13
14.25
23
-1.83697019872103e-15
33
3.15
0
3DFACE
5
FE23
330
FB96
100
AcDbEntity
100
AcDbFace
8
MONTAJ_BORULARI
10
14.25
20
-0.5303300858899106
30
1.8696699141100892
11
17.75
21
-0.5303300858899106
31
1.8696699141100892
12
17.75
22
-7.349737736793884e-15
32
3.15
13
14.25
23
-7.349737736793884e-15
33
3.15
0
3DFACE
5
FE24
330
FB96
100
AcDbEntity
100
AcDbFace
8
MONTAJ_BORULARI
10
14.25
20
-0.6929096493834649
30
2.1129874257261823
11
17.75
21
-0.6929096493834649
31
2.1129874257261823
12
17.75
22
-2.204364238465236e-15
32
3.15
13
14.25
23
-2.204364238465236e-15
33
3.15
0
3DFACE
5
FE25
330
FB96
100
AcDbEntity
100
AcDbFace
8
MONTAJ_BORULARI
10
14.25
20
-0.75
30
2.4
11
17.75
21
-0.75
31
2.4
12
17.75
22
2.9410092598634125e-15
32
3.15
13
14.25
23
2.9410092598634125e-15
33
3.15
0
3DFACE
5
FE26
330
FB96
100
AcDbEntity
100
AcDbFace
8
MONTAJ_BORULARI
10
14.25
20
-0.692909649383465
30
2.6870125742738176
11
17.75
21
-0.692909649383465
31
2.6870125742738176
12
17.75
22
-2.5717582782094417e-15
32
3.15
13
14.25
23
-2.5717582782094417e-15
33
3.15
0
3DFACE
5
FE27
330
FB96
100
AcDbEntity
100
AcDbFace
8
MONTAJ_BORULARI
10
14.25
20
-0.5303300858899107
30
2.9303300858899104
11
17.75
21
-0.5303300858899107
31
2.9303300858899104
12
17.75
22
-8.084525816282295e-15
32
3.15
13
14.25
23
-8.084525816282295e-15
33
3.15
0
3DFACE
5
FE28
330
FB96
100
AcDbEntity
100
AcDbFace
8
MONTAJ_BORULARI
10
14.25
20
-0.28701257427381777
30
3.092909649383465
11
17.75
21
-0.28701257427381777
31
3.092909649383465
12
17.75
22
0
32
3.15
13
14.25
23
0
33
3.15
0
3DFACE
5
FE3B
330
FB96
100
AcDbEntity
100
AcDbFace
8
MONTAJ_BORULARI
10
15.943
20
-0.057
30
-0.43999999999999995
11
16.057
21
-0.057
31
-0.43999999999999995
12
16.057
22
0.057
32
-0.43999999999999995
13
15.943
23
0.057
33
-0.43999999999999995
0
3DFACE
5
FE3C
330
FB96
100
AcDbEntity
100
AcDbFace
8
MONTAJ_BORULARI
10
15.943
20
-0.057
30
1.65
11
16.057
21
-0.057
31
1.65
12
16.057
22
0.057
32
1.65
13
15.943
23
0.057
33
1.65
0
3DFACE
5
FE3D
330
FB96
100
AcDbEntity
100
AcDbFace
8
MONTAJ_BORULARI
10
15.943
20
-0.057
30
-0.43999999999999995
11
16.057
21
-0.057
31
-0.43999999999999995
12
16.057
22
-0.057
32
1.65
13
15.943
23
-0.057
33
1.65
0
3DFACE
5
FE3E
330
FB96
100
AcDbEntity
100
AcDbFace
8
MONTAJ_BORULARI
10
15.943
20
0.057
30
-0.43999999999999995
11
16.057
21
0.057
31
-0.43999999999999995
12
16.057
22
0.057
32
1.65
13
15.943
23
0.057
33
1.65
0
3DFACE
5
FE3F
330
FB96
100
AcDbEntity
100
AcDbFace
8
MONTAJ_BORULARI
10
15.943
20
-0.057
30
-0.43999999999999995
11
15.943
21
0.057
31
-0.43999999999999995
12
15.943
22
0.057
32
1.65
13
15.943
23
-0.057
33
1.65
0
3DFACE
5
FE40
330
FB96
100
AcDbEntity
100
AcDbFace
8
MONTAJ_BORULARI
10
16.057
20
-0.057
30
-0.43999999999999995
11
16.057
21
0.057
31
-0.43999999999999995
12
16.057
22
0.057
32
1.65
13
16.057
23
-0.057
33
1.65
0
LINE
5
FE41
330
FB96
100
AcDbEntity
100
AcDbLine
8
MONTAJ_BORULARI
10
15.943
20
-0.057
30
-0.43999999999999995
11
16.057
21
-0.057
31
-0.43999999999999995
0
LINE
5
FE42
330
FB96
100
AcDbEntity
100
AcDbLine
8
MONTAJ_BORULARI
10
16.057
20
-0.057
30
-0.43999999999999995
11
16.057
21
0.057
31
-0.43999999999999995
0
LINE
5
FE43
330
FB96
100
AcDbEntity
100
AcDbLine
8
MONTAJ_BORULARI
10
16.057
20
0.057
30
-0.43999999999999995
11
15.943
21
0.057
31
-0.43999999999999995
0
LINE
5
FE44
330
FB96
100
AcDbEntity
100
AcDbLine
8
MONTAJ_BORULARI
10
15.943
20
0.057
30
-0.43999999999999995
11
15.943
21
-0.057
31
-0.43999999999999995
0
LINE
5
FE45
330
FB96
100
AcDbEntity
100
AcDbLine
8
MONTAJ_BORULARI
10
15.943
20
-0.057
30
1.65
11
16.057
21
-0.057
31
1.65
0
LINE
5
FE46
330
FB96
100
AcDbEntity
100
AcDbLine
8
MONTAJ_BORULARI
10
16.057
20
-0.057
30
1.65
11
16.057
21
0.057
31
1.65
0
LINE
5
FE47
330
FB96
100
AcDbEntity
100
AcDbLine
8
MONTAJ_BORULARI
10
16.057
20
0.057
30
1.65
11
15.943
21
0.057
31
1.65
0
LINE
5
FE48
330
FB96
100
AcDbEntity
100
AcDbLine
8
MONTAJ_BORULARI
10
15.943
20
0.057
30
1.65
11
15.943
21
-0.057
31
1.65
0
LINE
5
FE49
330
FB96
100
AcDbEntity
100
AcDbLine
8
MONTAJ_BORULARI
10
15.943
20
-0.057
30
-0.43999999999999995
11
15.943
21
-0.057
31
1.65
0
LINE
5
FE4A
330
FB96
100
AcDbEntity
100
AcDbLine
8
MONTAJ_BORULARI
10
16.057
20
-0.057
30
-0.43999999999999995
11
16.057
21
-0.057
31
1.65
0
LINE
5
FE4B
330
FB96
100
AcDbEntity
100
AcDbLine
8
MONTAJ_BORULARI
10
16.057
20
0.057
30
-0.43999999999999995
11
16.057
21
0.057
31
1.65
0
LINE
5
FE4C
330
FB96
100
AcDbEntity
100
AcDbLine
8
MONTAJ_BORULARI
10
15.943
20
0.057
30
-0.43999999999999995
11
15.943
21
0.057
31
1.65
0
3DFACE
5
FE5D
330
FB96
100
AcDbEntity
100
AcDbFace
8
MONTAJ_BORULARI
10
16
20
0.6093846240265667
30
0.5876331818993463
11
16.026940768363207
21
0.6172753923897741
31
0.5955239502625538
12
16.026940768363207
22
-0.05447604973744602
32
1.2672753923897742
13
16
23
-0.062366818100653476
33
1.2593846240265667
0
3DFACE
5
FE5E
330
FB96
100
AcDbEntity
100
AcDbFace
8
MONTAJ_BORULARI
10
16.026940768363207
20
0.6172753923897741
30
0.5955239502625538
11
16.0381
21
0.6363253923897741
31
0.6145739502625538
12
16.0381
22
-0.03542604973744601
32
1.2863253923897742
13
16.026940768363207
23
-0.05447604973744602
33
1.2672753923897742
0
3DFACE
5
FE5F
330
FB96
100
AcDbEntity
100
AcDbFace
8
MONTAJ_BORULARI
10
16.0381
20
0.6363253923897741
30
0.6145739502625538
11
16.026940768363207
21
0.6553753923897742
31
0.6336239502625538
12
16.026940768363207
22
-0.016376049737445997
32
1.3053753923897742
13
16.0381
23
-0.03542604973744601
33
1.2863253923897742
0
3DFACE
5
FE60
330
FB96
100
AcDbEntity
100
AcDbFace
8
MONTAJ_BORULARI
10
16.026940768363207
20
0.6553753923897742
30
0.6336239502625538
11
16
21
0.6632661607529816
31
0.6415147186257613
12
16
22
-0.00848528137423854
32
1.3132661607529816
13
16.026940768363207
23
-0.016376049737445997
33
1.3053753923897742
0
3DFACE
5
FE61
330
FB96
100
AcDbEntity
100
AcDbFace
8
MONTAJ_BORULARI
10
16
20
0.6632661607529816
30
0.6415147186257613
11
15.973059231636793
21
0.6553753923897742
31
0.6336239502625538
12
15.973059231636793
22
-0.016376049737445997
32
1.3053753923897742
13
16
23
-0.00848528137423854
33
1.3132661607529816
0
3DFACE
5
FE62
330
FB96
100
AcDbEntity
100
AcDbFace
8
MONTAJ_BORULARI
10
15.973059231636793
20
0.6553753923897742
30
0.6336239502625538
11
15.9619
21
0.6363253923897741
31
0.6145739502625538
12
15.9619
22
-0.03542604973744601
32
1.2863253923897742
13
15.973059231636793
23
-0.016376049737445997
33
1.3053753923897742
0
3DFACE
5
FE63
330
FB96
100
AcDbEntity
100
AcDbFace
8
MONTAJ_BORULARI
10
15.9619
20
0.6363253923897741
30
0.6145739502625538
11
15.973059231636793
21
0.6172753923897741
31
0.5955239502625538
12
15.973059231636793
22
-0.05447604973744602
32
1.2672753923897742
13
15.9619
23
-0.03542604973744601
33
1.2863253923897742
0
3DFACE
5
FE64
330
FB96
100
AcDbEntity
100
AcDbFace
8
MONTAJ_BORULARI
10
15.973059231636793
20
0.6172753923897741
30
0.5955239502625538
11
16
21
0.6093846240265667
31
0.5876331818993463
12
16
22
-0.062366818100653476
32
1.2593846240265667
13
15.973059231636793
23
-0.05447604973744602
33
1.2672753923897742
0
3DFACE
5
FE65
330
FB96
100
AcDbEntity
100
AcDbFace
8
MONTAJ_BORULARI
10
15.965
20
0.4015677267045744
30
0.8143316159477535
11
16.035
21
0.4015677267045744
31
0.8143316159477535
12
16.035
22
0.4715677267045745
32
0.8143316159477535
13
15.965
23
0.4715677267045745
33
0.8143316159477535
0
3DFACE
5
FE66
330
FB96
100
AcDbEntity
100
AcDbFace
8
MONTAJ_BORULARI
10
15.965
20
0.4015677267045744
30
2.85
11
16.035
21
0.4015677267045744
31
2.85
12
16.035
22
0.4715677267045745
32
2.85
13
15.965
23
0.4715677267045745
33
2.85
0
3DFACE
5
FE67
330
FB96
100
AcDbEntity
100
AcDbFace
8
MONTAJ_BORULARI
10
15.965
20
0.4015677267045744
30
0.8143316159477535
11
16.035
21
0.4015677267045744
31
0.8143316159477535
12
16.035
22
0.4015677267045744
32
2.85
13
15.965
23
0.4015677267045744
33
2.85
0
3DFACE
5
FE68
330
FB96
100
AcDbEntity
100
AcDbFace
8
MONTAJ_BORULARI
10
15.965
20
0.4715677267045745
30
0.8143316159477535
11
16.035
21
0.4715677267045745
31
0.8143316159477535
12
16.035
22
0.4715677267045745
32
2.85
13
15.965
23
0.4715677267045745
33
2.85
0
3DFACE
5
FE69
330
FB96
100
AcDbEntity
100
AcDbFace
8
MONTAJ_BORULARI
10
15.965
20
0.4015677267045744
30
0.8143316159477535
11
15.965
21
0.4715677267045745
31
0.8143316159477535
12
15.965
22
0.4715677267045745
32
2.85
13
15.965
23
0.4015677267045744
33
2.85
0
3DFACE
5
FE6A
330
FB96
100
AcDbEntity
100
AcDbFace
8
MONTAJ_BORULARI
10
16.035
20
0.4015677267045744
30
0.8143316159477535
11
16.035
21
0.4715677267045745
31
0.8143316159477535
12
16.035
22
0.4715677267045745
32
2.85
13
16.035
23
0.4015677267045744
33
2.85
0
LINE
5
FE6B
330
FB96
100
AcDbEntity
100
AcDbLine
8
MONTAJ_BORULARI
10
15.965
20
0.4015677267045744
30
0.8143316159477535
11
16.035
21
0.4015677267045744
31
0.8143316159477535
0
LINE
5
FE6C
330
FB96
100
AcDbEntity
100
AcDbLine
8
MONTAJ_BORULARI
10
16.035
20
0.4015677267045744
30
0.8143316159477535
11
16.035
21
0.4715677267045745
31
0.8143316159477535
0
LINE
5
FE6D
330
FB96
100
AcDbEntity
100
AcDbLine
8
MONTAJ_BORULARI
10
16.035
20
0.4715677267045745
30
0.8143316159477535
11
15.965
21
0.4715677267045745
31
0.8143316159477535
0
LINE
5
FE6E
330
FB96
100
AcDbEntity
100
AcDbLine
8
MONTAJ_BORULARI
10
15.965
20
0.4715677267045745
30
0.8143316159477535
11
15.965
21
0.4015677267045744
31
0.8143316159477535
0
LINE
5
FE6F
330
FB96
100
AcDbEntity
100
AcDbLine
8
MONTAJ_BORULARI
10
15.965
20
0.4015677267045744
30
2.85
11
16.035
21
0.4015677267045744
31
2.85
0
LINE
5
FE70
330
FB96
100
AcDbEntity
100
AcDbLine
8
MONTAJ_BORULARI
10
16.035
20
0.4015677267045744
30
2.85
11
16.035
21
0.4715677267045745
31
2.85
0
LINE
5
FE71
330
FB96
100
AcDbEntity
100
AcDbLine
8
MONTAJ_BORULARI
10
16.035
20
0.4715677267045745
30
2.85
11
15.965
21
0.4715677267045745
31
2.85
0
LINE
5
FE72
330
FB96
100
AcDbEntity
100
AcDbLine
8
MONTAJ_BORULARI
10
15.965
20
0.4715677267045745
30
2.85
11
15.965
21
0.4015677267045744
31
2.85
0
LINE
5
FE73
330
FB96
100
AcDbEntity
100
AcDbLine
8
MONTAJ_BORULARI
10
15.965
20
0.4015677267045744
30
0.8143316159477535
11
15.965
21
0.4015677267045744
31
2.85
0
LINE
5
FE74
330
FB96
100
AcDbEntity
100
AcDbLine
8
MONTAJ_BORULARI
10
16.035
20
0.4015677267045744
30
0.8143316159477535
11
16.035
21
0.4015677267045744
31
2.85
0
LINE
5
FE75
330
FB96
100
AcDbEntity
100
AcDbLine
8
MONTAJ_BORULARI
10
16.035
20
0.4715677267045745
30
0.8143316159477535
11
16.035
21
0.4715677267045745
31
2.85
0
LINE
5
FE76
330
FB96
100
AcDbEntity
100
AcDbLine
8
MONTAJ_BORULARI
10
15.965
20
0.4715677267045745
30
0.8143316159477535
11
15.965
21
0.4715677267045745
31
2.85
0
3DFACE
5
FE77
330
FB96
100
AcDbEntity
100
AcDbFace
8
MONTAJ_BORULARI
10
15.965
20
0.12933161594775366
30
1.0865677267045744
11
16.035
21
0.12933161594775366
31
1.0865677267045744
12
16.035
22
0.19933161594775367
32
1.0865677267045744
13
15.965
23
0.19933161594775367
33
1.0865677267045744
0
3DFACE
5
FE78
330
FB96
100
AcDbEntity
100
AcDbFace
8
MONTAJ_BORULARI
10
15.965
20
0.12933161594775366
30
2.85
11
16.035
21
0.12933161594775366
31
2.85
12
16.035
22
0.19933161594775367
32
2.85
13
15.965
23
0.19933161594775367
33
2.85
0
3DFACE
5
FE79
330
FB96
100
AcDbEntity
100
AcDbFace
8
MONTAJ_BORULARI
10
15.965
20
0.12933161594775366
30
1.0865677267045744
11
16.035
21
0.12933161594775366
31
1.0865677267045744
12
16.035
22
0.12933161594775366
32
2.85
13
15.965
23
0.12933161594775366
33
2.85
0
3DFACE
5
FE7A
330
FB96
100
AcDbEntity
100
AcDbFace
8
MONTAJ_BORULARI
10
15.965
20
0.19933161594775367
30
1.0865677267045744
11
16.035
21
0.19933161594775367
31
1.0865677267045744
12
16.035
22
0.19933161594775367
32
2.85
13
15.965
23
0.19933161594775367
33
2.85
0
3DFACE
5
FE7B
330
FB96
100
AcDbEntity
100
AcDbFace
8
MONTAJ_BORULARI
10
15.965
20
0.12933161594775366
30
1.0865677267045744
11
15.965
21
0.19933161594775367
31
1.0865677267045744
12
15.965
22
0.19933161594775367
32
2.85
13
15.965
23
0.12933161594775366
33
2.85
0
3DFACE
5
FE7C
330
FB96
100
AcDbEntity
100
AcDbFace
8
MONTAJ_BORULARI
10
16.035
20
0.12933161594775366
30
1.0865677267045744
11
16.035
21
0.19933161594775367
31
1.0865677267045744
12
16.035
22
0.19933161594775367
32
2.85
13
16.035
23
0.12933161594775366
33
2.85
0
LINE
5
FE7D
330
FB96
100
AcDbEntity
100
AcDbLine
8
MONTAJ_BORULARI
10
15.965
20
0.12933161594775366
30
1.0865677267045744
11
16.035
21
0.12933161594775366
31
1.0865677267045744
0
LINE
5
FE7E
330
FB96
100
AcDbEntity
100
AcDbLine
8
MONTAJ_BORULARI
10
16.035
20
0.12933161594775366
30
1.0865677267045744
11
16.035
21
0.19933161594775367
31
1.0865677267045744
0
LINE
5
FE7F
330
FB96
100
AcDbEntity
100
AcDbLine
8
MONTAJ_BORULARI
10
16.035
20
0.19933161594775367
30
1.0865677267045744
11
15.965
21
0.19933161594775367
31
1.0865677267045744
0
LINE
5
FE80
330
FB96
100
AcDbEntity
100
AcDbLine
8
MONTAJ_BORULARI
10
15.965
20
0.19933161594775367
30
1.0865677267045744
11
15.965
21
0.12933161594775366
31
1.0865677267045744
0
LINE
5
FE81
330
FB96
100
AcDbEntity
100
AcDbLine
8
MONTAJ_BORULARI
10
15.965
20
0.12933161594775366
30
2.85
11
16.035
21
0.12933161594775366
31
2.85
0
LINE
5
FE82
330
FB96
100
AcDbEntity
100
AcDbLine
8
MONTAJ_BORULARI
10
16.035
20
0.12933161594775366
30
2.85
11
16.035
21
0.19933161594775367
31
2.85
0
LINE
5
FE83
330
FB96
100
AcDbEntity
100
AcDbLine
8
MONTAJ_BORULARI
10
16.035
20
0.19933161594775367
30
2.85
11
15.965
21
0.19933161594775367
31
2.85
0
LINE
5
FE84
330
FB96
100
AcDbEntity
100
AcDbLine
8
MONTAJ_BORULARI
10
15.965
20
0.19933161594775367
30
2.85
11
15.965
21
0.12933161594775366
31
2.85
0
LINE
5
FE85
330
FB96
100
AcDbEntity
100
AcDbLine
8
MONTAJ_BORULARI
10
15.965
20
0.12933161594775366
30
1.0865677267045744
11
15.965
21
0.12933161594775366
31
2.85
0
LINE
5
FE86
330
FB96
100
AcDbEntity
100
AcDbLine
8
MONTAJ_BORULARI
10
16.035
20
0.12933161594775366
30
1.0865677267045744
11
16.035
21
0.12933161594775366
31
2.85
0
LINE
5
FE87
330
FB96
100
AcDbEntity
100
AcDbLine
8
MONTAJ_BORULARI
10
16.035
20
0.19933161594775367
30
1.0865677267045744
11
16.035
21
0.19933161594775367
31
2.85
0
LINE
5
FE88
330
FB96
100
AcDbEntity
100
AcDbLine
8
MONTAJ_BORULARI
10
15.965
20
0.19933161594775367
30
1.0865677267045744
11
15.965
21
0.19933161594775367
31
2.85
0
TEXT
5
FC0F
330
FB96
100
AcDbEntity
100
AcDbText
8
METIN_BILGI
10
-14
20
-0.6
30
0
40
0.05
1
1. TEKLI SPOT BEAM 30/30 (45° CATI ASKISI)
50
0
7
STANDARD
72
1
11
-14
21
-0.6
31
0
100
AcDbText
73
2
0
TEXT
5
FC70
330
FB96
100
AcDbEntity
100
AcDbText
8
METIN_BILGI
10
-4.5
20
-0.6
30
0
40
0.05
1
ANT-1 (SOL)
50
0
7
STANDARD
72
1
11
-4.5
21
-0.6
31
0
100
AcDbText
73
2
0
TEXT
5
FCD1
330
FB96
100
AcDbEntity
100
AcDbText
8
METIN_BILGI
10
-3.5
20
-0.6
30
0
40
0.05
1
ANT-2 (SAG)
50
0
7
STANDARD
72
1
11
-3.5
21
-0.6
31
0
100
AcDbText
73
2
0
TEXT
5
FD44
330
FB96
100
AcDbEntity
100
AcDbText
8
METIN_BILGI
10
6.1
20
-0.48
30
0
40
0.05
1
ANT-1 (-20°)
50
0
7
STANDARD
72
1
11
6.1
21
-0.48
31
0
100
AcDbText
73
2
0
TEXT
5
FDA5
330
FB96
100
AcDbEntity
100
AcDbText
8
METIN_BILGI
10
7
20
-0.6
30
0
40
0.05
1
ANT-2 (0°)
50
0
7
STANDARD
72
1
11
7
21
-0.6
31
0
100
AcDbText
73
2
0
TEXT
5
FE06
330
FB96
100
AcDbEntity
100
AcDbText
8
METIN_BILGI
10
7.9
20
-0.48
30
0
40
0.05
1
ANT-3 (+20°)
50
0
7
STANDARD
72
1
11
7.9
21
-0.48
31
0
100
AcDbText
73
2
0
TEXT
5
FEAD
330
FB96
100
AcDbEntity
100
AcDbText
8
METIN_BILGI
10
16
20
-0.6
30
0
40
0.05
1
SKORBOARD Ø1500mm BORU ASILI GAMMA NU
50
0
7
STANDARD
72
1
11
16
21
-0.6
31
0
100
AcDbText
73
2
0
3DFACE
5
FBAF
330
FB96
100
AcDbEntity
100
AcDbFace
8
EKP_PANEL_ANTEN
10
-14.35
20
0.30759144981614817
30
-0.18738329701443512
11
-13.65
21
0.30759144981614817
31
-0.18738329701443512
12
-13.65
22
-0.1873832970144351
32
0.3075914498161482
13
-14.35
23
-0.1873832970144351
33
0.3075914498161482
0
3DFACE
5
FBB0
330
FB96
100
AcDbEntity
100
AcDbFace
8
EKP_PANEL_ANTEN
10
-14.35
20
0.1873832970144351
30
-0.3075914498161482
11
-13.65
21
0.1873832970144351
31
-0.3075914498161482
12
-13.65
22
0.30759144981614817
32
-0.18738329701443512
13
-14.35
23
0.30759144981614817
33
-0.18738329701443512
0
3DFACE
5
FBB1
330
FB96
100
AcDbEntity
100
AcDbFace
8
EKP_PANEL_ANTEN
10
-14.35
20
-0.30759144981614817
30
0.18738329701443512
11
-13.65
21
-0.30759144981614817
31
0.18738329701443512
12
-13.65
22
-0.1873832970144351
32
0.3075914498161482
13
-14.35
23
-0.1873832970144351
33
0.3075914498161482
0
3DFACE
5
FBB2
330
FB96
100
AcDbEntity
100
AcDbFace
8
EKP_PANEL_ANTEN
10
-14.35
20
0.1873832970144351
30
-0.3075914498161482
11
-14.35
21
-0.30759144981614817
31
0.18738329701443512
12
-14.35
22
-0.1873832970144351
32
0.3075914498161482
13
-14.35
23
0.30759144981614817
33
-0.18738329701443512
0
3DFACE
5
FBB3
330
FB96
100
AcDbEntity
100
AcDbFace
8
EKP_PANEL_ANTEN
10
-13.65
20
0.1873832970144351
30
-0.3075914498161482
11
-13.65
21
-0.30759144981614817
31
0.18738329701443512
12
-13.65
22
-0.1873832970144351
32
0.3075914498161482
13
-13.65
23
0.30759144981614817
33
-0.18738329701443512
0
3DFACE
5
FBB4
330
FB96
100
AcDbEntity
100
AcDbFace
8
EKP_PANEL_ANTEN
10
-14
20
-0.0728319984622144
30
-0.0728319984622144
11
-14.35
21
-0.30759144981614817
31
0.18738329701443512
12
-13.65
22
-0.30759144981614817
32
0.18738329701443512
13
-13.65
23
-0.30759144981614817
33
0.18738329701443512
0
3DFACE
5
FBB5
330
FB96
100
AcDbEntity
100
AcDbFace
8
EKP_PANEL_ANTEN
10
-14
20
-0.0728319984622144
30
-0.0728319984622144
11
-13.65
21
-0.30759144981614817
31
0.18738329701443512
12
-13.65
22
0.1873832970144351
32
-0.3075914498161482
13
-13.65
23
0.1873832970144351
33
-0.3075914498161482
0
3DFACE
5
FBB6
330
FB96
100
AcDbEntity
100
AcDbFace
8
EKP_PANEL_ANTEN
10
-14
20
-0.0728319984622144
30
-0.0728319984622144
11
-13.65
21
0.1873832970144351
31
-0.3075914498161482
12
-14.35
22
0.1873832970144351
32
-0.3075914498161482
13
-14.35
23
0.1873832970144351
33
-0.3075914498161482
0
3DFACE
5
FBB7
330
FB96
100
AcDbEntity
100
AcDbFace
8
EKP_PANEL_ANTEN
10
-14
20
-0.0728319984622144
30
-0.0728319984622144
11
-14.35
21
0.1873832970144351
31
-0.3075914498161482
12
-14.35
22
-0.30759144981614817
32
0.18738329701443512
13
-14.35
23
-0.30759144981614817
33
0.18738329701443512
0
LINE
5
FBB8
330
FB96
100
AcDbEntity
100
AcDbLine
8
EKP_PANEL_ANTEN
10
-14
20
-0.0728319984622144
30
-0.0728319984622144
11
-14.35
21
0.1873832970144351
31
-0.3075914498161482
0
LINE
5
FBB9
330
FB96
100
AcDbEntity
100
AcDbLine
8
EKP_PANEL_ANTEN
10
-14
20
-0.0728319984622144
30
-0.0728319984622144
11
-13.65
21
0.1873832970144351
31
-0.3075914498161482
0
LINE
5
FBBA
330
FB96
100
AcDbEntity
100
AcDbLine
8
EKP_PANEL_ANTEN
10
-14
20
-0.0728319984622144
30
-0.0728319984622144
11
-13.65
21
-0.30759144981614817
31
0.18738329701443512
0
LINE
5
FBBB
330
FB96
100
AcDbEntity
100
AcDbLine
8
EKP_PANEL_ANTEN
10
-14
20
-0.0728319984622144
30
-0.0728319984622144
11
-14.35
21
-0.30759144981614817
31
0.18738329701443512
0
3DFACE
5
FC10
330
FB96
100
AcDbEntity
100
AcDbFace
8
EKP_PANEL_ANTEN
10
-4.85
20
0.30759144981614817
30
-0.18738329701443512
11
-4.15
21
0.30759144981614817
31
-0.18738329701443512
12
-4.15
22
-0.1873832970144351
32
0.3075914498161482
13
-4.85
23
-0.1873832970144351
33
0.3075914498161482
0
3DFACE
5
FC11
330
FB96
100
AcDbEntity
100
AcDbFace
8
EKP_PANEL_ANTEN
10
-4.85
20
0.1873832970144351
30
-0.3075914498161482
11
-4.15
21
0.1873832970144351
31
-0.3075914498161482
12
-4.15
22
0.30759144981614817
32
-0.18738329701443512
13
-4.85
23
0.30759144981614817
33
-0.18738329701443512
0
3DFACE
5
FC12
330
FB96
100
AcDbEntity
100
AcDbFace
8
EKP_PANEL_ANTEN
10
-4.85
20
-0.30759144981614817
30
0.18738329701443512
11
-4.15
21
-0.30759144981614817
31
0.18738329701443512
12
-4.15
22
-0.1873832970144351
32
0.3075914498161482
13
-4.85
23
-0.1873832970144351
33
0.3075914498161482
0
3DFACE
5
FC13
330
FB96
100
AcDbEntity
100
AcDbFace
8
EKP_PANEL_ANTEN
10
-4.85
20
0.1873832970144351
30
-0.3075914498161482
11
-4.85
21
-0.30759144981614817
31
0.18738329701443512
12
-4.85
22
-0.1873832970144351
32
0.3075914498161482
13
-4.85
23
0.30759144981614817
33
-0.18738329701443512
0
3DFACE
5
FC14
330
FB96
100
AcDbEntity
100
AcDbFace
8
EKP_PANEL_ANTEN
10
-4.15
20
0.1873832970144351
30
-0.3075914498161482
11
-4.15
21
-0.30759144981614817
31
0.18738329701443512
12
-4.15
22
-0.1873832970144351
32
0.3075914498161482
13
-4.15
23
0.30759144981614817
33
-0.18738329701443512
0
3DFACE
5
FC15
330
FB96
100
AcDbEntity
100
AcDbFace
8
EKP_PANEL_ANTEN
10
-4.5
20
-0.0728319984622144
30
-0.0728319984622144
11
-4.85
21
-0.30759144981614817
31
0.18738329701443512
12
-4.15
22
-0.30759144981614817
32
0.18738329701443512
13
-4.15
23
-0.30759144981614817
33
0.18738329701443512
0
3DFACE
5
FC16
330
FB96
100
AcDbEntity
100
AcDbFace
8
EKP_PANEL_ANTEN
10
-4.5
20
-0.0728319984622144
30
-0.0728319984622144
11
-4.15
21
-0.30759144981614817
31
0.18738329701443512
12
-4.15
22
0.1873832970144351
32
-0.3075914498161482
13
-4.15
23
0.1873832970144351
33
-0.3075914498161482
0
3DFACE
5
FC17
330
FB96
100
AcDbEntity
100
AcDbFace
8
EKP_PANEL_ANTEN
10
-4.5
20
-0.0728319984622144
30
-0.0728319984622144
11
-4.15
21
0.1873832970144351
31
-0.3075914498161482
12
-4.85
22
0.1873832970144351
32
-0.3075914498161482
13
-4.85
23
0.1873832970144351
33
-0.3075914498161482
0
3DFACE
5
FC18
330
FB96
100
AcDbEntity
100
AcDbFace
8
EKP_PANEL_ANTEN
10
-4.5
20
-0.0728319984622144
30
-0.0728319984622144
11
-4.85
21
0.1873832970144351
31
-0.3075914498161482
12
-4.85
22
-0.30759144981614817
32
0.18738329701443512
13
-4.85
23
-0.30759144981614817
33
0.18738329701443512
0
LINE
5
FC19
330
FB96
100
AcDbEntity
100
AcDbLine
8
EKP_PANEL_ANTEN
10
-4.5
20
-0.0728319984622144
30
-0.0728319984622144
11
-4.85
21
0.1873832970144351
31
-0.3075914498161482
0
LINE
5
FC1A
330
FB96
100
AcDbEntity
100
AcDbLine
8
EKP_PANEL_ANTEN
10
-4.5
20
-0.0728319984622144
30
-0.0728319984622144
11
-4.15
21
0.1873832970144351
31
-0.3075914498161482
0
LINE
5
FC1B
330
FB96
100
AcDbEntity
100
AcDbLine
8
EKP_PANEL_ANTEN
10
-4.5
20
-0.0728319984622144
30
-0.0728319984622144
11
-4.15
21
-0.30759144981614817
31
0.18738329701443512
0
LINE
5
FC1C
330
FB96
100
AcDbEntity
100
AcDbLine
8
EKP_PANEL_ANTEN
10
-4.5
20
-0.0728319984622144
30
-0.0728319984622144
11
-4.85
21
-0.30759144981614817
31
0.18738329701443512
0
3DFACE
5
FC71
330
FB96
100
AcDbEntity
100
AcDbFace
8
EKP_PANEL_ANTEN
10
-3.85
20
0.30759144981614817
30
-0.18738329701443512
11
-3.15
21
0.30759144981614817
31
-0.18738329701443512
12
-3.15
22
-0.1873832970144351
32
0.3075914498161482
13
-3.85
23
-0.1873832970144351
33
0.3075914498161482
0
3DFACE
5
FC72
330
FB96
100
AcDbEntity
100
AcDbFace
8
EKP_PANEL_ANTEN
10
-3.85
20
0.1873832970144351
30
-0.3075914498161482
11
-3.15
21
0.1873832970144351
31
-0.3075914498161482
12
-3.15
22
0.30759144981614817
32
-0.18738329701443512
13
-3.85
23
0.30759144981614817
33
-0.18738329701443512
0
3DFACE
5
FC73
330
FB96
100
AcDbEntity
100
AcDbFace
8
EKP_PANEL_ANTEN
10
-3.85
20
-0.30759144981614817
30
0.18738329701443512
11
-3.15
21
-0.30759144981614817
31
0.18738329701443512
12
-3.15
22
-0.1873832970144351
32
0.3075914498161482
13
-3.85
23
-0.1873832970144351
33
0.3075914498161482
0
3DFACE
5
FC74
330
FB96
100
AcDbEntity
100
AcDbFace
8
EKP_PANEL_ANTEN
10
-3.85
20
0.1873832970144351
30
-0.3075914498161482
11
-3.85
21
-0.30759144981614817
31
0.18738329701443512
12
-3.85
22
-0.1873832970144351
32
0.3075914498161482
13
-3.85
23
0.30759144981614817
33
-0.18738329701443512
0
3DFACE
5
FC75
330
FB96
100
AcDbEntity
100
AcDbFace
8
EKP_PANEL_ANTEN
10
-3.15
20
0.1873832970144351
30
-0.3075914498161482
11
-3.15
21
-0.30759144981614817
31
0.18738329701443512
12
-3.15
22
-0.1873832970144351
32
0.3075914498161482
13
-3.15
23
0.30759144981614817
33
-0.18738329701443512
0
3DFACE
5
FC76
330
FB96
100
AcDbEntity
100
AcDbFace
8
EKP_PANEL_ANTEN
10
-3.5
20
-0.0728319984622144
30
-0.0728319984622144
11
-3.85
21
-0.30759144981614817
31
0.18738329701443512
12
-3.15
22
-0.30759144981614817
32
0.18738329701443512
13
-3.15
23
-0.30759144981614817
33
0.18738329701443512
0
3DFACE
5
FC77
330
FB96
100
AcDbEntity
100
AcDbFace
8
EKP_PANEL_ANTEN
10
-3.5
20
-0.0728319984622144
30
-0.0728319984622144
11
-3.15
21
-0.30759144981614817
31
0.18738329701443512
12
-3.15
22
0.1873832970144351
32
-0.3075914498161482
13
-3.15
23
0.1873832970144351
33
-0.3075914498161482
0
3DFACE
5
FC78
330
FB96
100
AcDbEntity
100
AcDbFace
8
EKP_PANEL_ANTEN
10
-3.5
20
-0.0728319984622144
30
-0.0728319984622144
11
-3.15
21
0.1873832970144351
31
-0.3075914498161482
12
-3.85
22
0.1873832970144351
32
-0.3075914498161482
13
-3.85
23
0.1873832970144351
33
-0.3075914498161482
0
3DFACE
5
FC79
330
FB96
100
AcDbEntity
100
AcDbFace
8
EKP_PANEL_ANTEN
10
-3.5
20
-0.0728319984622144
30
-0.0728319984622144
11
-3.85
21
0.1873832970144351
31
-0.3075914498161482
12
-3.85
22
-0.30759144981614817
32
0.18738329701443512
13
-3.85
23
-0.30759144981614817
33
0.18738329701443512
0
LINE
5
FC7A
330
FB96
100
AcDbEntity
100
AcDbLine
8
EKP_PANEL_ANTEN
10
-3.5
20
-0.0728319984622144
30
-0.0728319984622144
11
-3.85
21
0.1873832970144351
31
-0.3075914498161482
0
LINE
5
FC7B
330
FB96
100
AcDbEntity
100
AcDbLine
8
EKP_PANEL_ANTEN
10
-3.5
20
-0.0728319984622144
30
-0.0728319984622144
11
-3.15
21
0.1873832970144351
31
-0.3075914498161482
0
LINE
5
FC7C
330
FB96
100
AcDbEntity
100
AcDbLine
8
EKP_PANEL_ANTEN
10
-3.5
20
-0.0728319984622144
30
-0.0728319984622144
11
-3.15
21
-0.30759144981614817
31
0.18738329701443512
0
LINE
5
FC7D
330
FB96
100
AcDbEntity
100
AcDbLine
8
EKP_PANEL_ANTEN
10
-3.5
20
-0.0728319984622144
30
-0.0728319984622144
11
-3.85
21
-0.30759144981614817
31
0.18738329701443512
0
3DFACE
5
FCE4
330
FB96
100
AcDbEntity
100
AcDbFace
8
EKP_PANEL_ANTEN
10
5.876310054476801
20
0.5287484657730576
30
-0.18738329701443512
11
6.534094889026937
21
0.2893343654450894
31
-0.18738329701443512
12
6.364803555173355
22
-0.17578975162698285
32
0.3075914498161482
13
5.707018720623219
23
0.06362434870098524
33
0.3075914498161482
0
3DFACE
5
FCE5
330
FB96
100
AcDbEntity
100
AcDbFace
8
EKP_PANEL_ANTEN
10
5.835196444826645
20
0.41578975162698284
30
-0.3075914498161482
11
6.492981279376781
21
0.17637565129901475
31
-0.3075914498161482
12
6.534094889026937
22
0.2893343654450894
32
-0.18738329701443512
13
5.876310054476801
23
0.5287484657730576
33
-0.18738329701443512
0
3DFACE
5
FCE6
330
FB96
100
AcDbEntity
100
AcDbFace
8
EKP_PANEL_ANTEN
10
5.665905110973062
20
-0.04933436544508943
30
0.18738329701443512
11
6.323689945523198
21
-0.28874846577305757
31
0.18738329701443512
12
6.364803555173355
22
-0.17578975162698285
32
0.3075914498161482
13
5.707018720623219
23
0.06362434870098524
33
0.3075914498161482
0
3DFACE
5
FCE7
330
FB96
100
AcDbEntity
100
AcDbFace
8
EKP_PANEL_ANTEN
10
5.835196444826645
20
0.41578975162698284
30
-0.3075914498161482
11
5.665905110973062
21
-0.04933436544508943
31
0.18738329701443512
12
5.707018720623219
22
0.06362434870098524
32
0.3075914498161482
13
5.876310054476801
23
0.5287484657730576
33
-0.18738329701443512
0
3DFACE
5
FCE8
330
FB96
100
AcDbEntity
100
AcDbFace
8
EKP_PANEL_ANTEN
10
6.492981279376781
20
0.17637565129901475
30
-0.3075914498161482
11
6.323689945523198
21
-0.28874846577305757
31
0.18738329701443512
12
6.364803555173355
22
-0.17578975162698285
32
0.3075914498161482
13
6.534094889026937
23
0.2893343654450894
33
-0.18738329701443512
0
3DFACE
5
FCE9
330
FB96
100
AcDbEntity
100
AcDbFace
8
EKP_PANEL_ANTEN
10
6.0750899894472585
20
0.0515603084879665
30
-0.0728319984622144
11
5.665905110973062
21
-0.04933436544508943
31
0.18738329701443512
12
6.323689945523198
22
-0.28874846577305757
32
0.18738329701443512
13
6.323689945523198
23
-0.28874846577305757
33
0.18738329701443512
0
3DFACE
5
FCEA
330
FB96
100
AcDbEntity
100
AcDbFace
8
EKP_PANEL_ANTEN
10
6.0750899894472585
20
0.0515603084879665
30
-0.0728319984622144
11
6.323689945523198
21
-0.28874846577305757
31
0.18738329701443512
12
6.492981279376781
22
0.17637565129901475
32
-0.3075914498161482
13
6.492981279376781
23
0.17637565129901475
33
-0.3075914498161482
0
3DFACE
5
FCEB
330
FB96
100
AcDbEntity
100
AcDbFace
8
EKP_PANEL_ANTEN
10
6.0750899894472585
20
0.0515603084879665
30
-0.0728319984622144
11
6.492981279376781
21
0.17637565129901475
31
-0.3075914498161482
12
5.835196444826645
22
0.41578975162698284
32
-0.3075914498161482
13
5.835196444826645
23
0.41578975162698284
33
-0.3075914498161482
0
3DFACE
5
FCEC
330
FB96
100
AcDbEntity
100
AcDbFace
8
EKP_PANEL_ANTEN
10
6.0750899894472585
20
0.0515603084879665
30
-0.0728319984622144
11
5.835196444826645
21
0.41578975162698284
31
-0.3075914498161482
12
5.665905110973062
22
-0.04933436544508943
32
0.18738329701443512
13
5.665905110973062
23
-0.04933436544508943
33
0.18738329701443512
0
LINE
5
FCED
330
FB96
100
AcDbEntity
100
AcDbLine
8
EKP_PANEL_ANTEN
10
6.0750899894472585
20
0.0515603084879665
30
-0.0728319984622144
11
5.835196444826645
21
0.41578975162698284
31
-0.3075914498161482
0
LINE
5
FCEE
330
FB96
100
AcDbEntity
100
AcDbLine
8
EKP_PANEL_ANTEN
10
6.0750899894472585
20
0.0515603084879665
30
-0.0728319984622144
11
6.492981279376781
21
0.17637565129901475
31
-0.3075914498161482
0
LINE
5
FCEF
330
FB96
100
AcDbEntity
100
AcDbLine
8
EKP_PANEL_ANTEN
10
6.0750899894472585
20
0.0515603084879665
30
-0.0728319984622144
11
6.323689945523198
21
-0.28874846577305757
31
0.18738329701443512
0
LINE
5
FCF0
330
FB96
100
AcDbEntity
100
AcDbLine
8
EKP_PANEL_ANTEN
10
6.0750899894472585
20
0.0515603084879665
30
-0.0728319984622144
11
5.665905110973062
21
-0.04933436544508943
31
0.18738329701443512
0
3DFACE
5
FD45
330
FB96
100
AcDbEntity
100
AcDbFace
8
EKP_PANEL_ANTEN
10
6.65
20
0.30759144981614817
30
-0.18738329701443512
11
7.35
21
0.30759144981614817
31
-0.18738329701443512
12
7.35
22
-0.1873832970144351
32
0.3075914498161482
13
6.65
23
-0.1873832970144351
33
0.3075914498161482
0
3DFACE
5
FD46
330
FB96
100
AcDbEntity
100
AcDbFace
8
EKP_PANEL_ANTEN
10
6.65
20
0.1873832970144351
30
-0.3075914498161482
11
7.35
21
0.1873832970144351
31
-0.3075914498161482
12
7.35
22
0.30759144981614817
32
-0.18738329701443512
13
6.65
23
0.30759144981614817
33
-0.18738329701443512
0
3DFACE
5
FD47
330
FB96
100
AcDbEntity
100
AcDbFace
8
EKP_PANEL_ANTEN
10
6.65
20
-0.30759144981614817
30
0.18738329701443512
11
7.35
21
-0.30759144981614817
31
0.18738329701443512
12
7.35
22
-0.1873832970144351
32
0.3075914498161482
13
6.65
23
-0.1873832970144351
33
0.3075914498161482
0
3DFACE
5
FD48
330
FB96
100
AcDbEntity
100
AcDbFace
8
EKP_PANEL_ANTEN
10
6.65
20
0.1873832970144351
30
-0.3075914498161482
11
6.65
21
-0.30759144981614817
31
0.18738329701443512
12
6.65
22
-0.1873832970144351
32
0.3075914498161482
13
6.65
23
0.30759144981614817
33
-0.18738329701443512
0
3DFACE
5
FD49
330
FB96
100
AcDbEntity
100
AcDbFace
8
EKP_PANEL_ANTEN
10
7.35
20
0.1873832970144351
30
-0.3075914498161482
11
7.35
21
-0.30759144981614817
31
0.18738329701443512
12
7.35
22
-0.1873832970144351
32
0.3075914498161482
13
7.35
23
0.30759144981614817
33
-0.18738329701443512
0
3DFACE
5
FD4A
330
FB96
100
AcDbEntity
100
AcDbFace
8
EKP_PANEL_ANTEN
10
7
20
-0.0728319984622144
30
-0.0728319984622144
11
6.65
21
-0.30759144981614817
31
0.18738329701443512
12
7.35
22
-0.30759144981614817
32
0.18738329701443512
13
7.35
23
-0.30759144981614817
33
0.18738329701443512
0
3DFACE
5
FD4B
330
FB96
100
AcDbEntity
100
AcDbFace
8
EKP_PANEL_ANTEN
10
7
20
-0.0728319984622144
30
-0.0728319984622144
11
7.35
21
-0.30759144981614817
31
0.18738329701443512
12
7.35
22
0.1873832970144351
32
-0.3075914498161482
13
7.35
23
0.1873832970144351
33
-0.3075914498161482
0
3DFACE
5
FD4C
330
FB96
100
AcDbEntity
100
AcDbFace
8
EKP_PANEL_ANTEN
10
7
20
-0.0728319984622144
30
-0.0728319984622144
11
7.35
21
0.1873832970144351
31
-0.3075914498161482
12
6.65
22
0.1873832970144351
32
-0.3075914498161482
13
6.65
23
0.1873832970144351
33
-0.3075914498161482
0
3DFACE
5
FD4D
330
FB96
100
AcDbEntity
100
AcDbFace
8
EKP_PANEL_ANTEN
10
7
20
-0.0728319984622144
30
-0.0728319984622144
11
6.65
21
0.1873832970144351
31
-0.3075914498161482
12
6.65
22
-0.30759144981614817
32
0.18738329701443512
13
6.65
23
-0.30759144981614817
33
0.18738329701443512
0
LINE
5
FD4E
330
FB96
100
AcDbEntity
100
AcDbLine
8
EKP_PANEL_ANTEN
10
7
20
-0.0728319984622144
30
-0.0728319984622144
11
6.65
21
0.1873832970144351
31
-0.3075914498161482
0
LINE
5
FD4F
330
FB96
100
AcDbEntity
100
AcDbLine
8
EKP_PANEL_ANTEN
10
7
20
-0.0728319984622144
30
-0.0728319984622144
11
7.35
21
0.1873832970144351
31
-0.3075914498161482
0
LINE
5
FD50
330
FB96
100
AcDbEntity
100
AcDbLine
8
EKP_PANEL_ANTEN
10
7
20
-0.0728319984622144
30
-0.0728319984622144
11
7.35
21
-0.30759144981614817
31
0.18738329701443512
0
LINE
5
FD51
330
FB96
100
AcDbEntity
100
AcDbLine
8
EKP_PANEL_ANTEN
10
7
20
-0.0728319984622144
30
-0.0728319984622144
11
6.65
21
-0.30759144981614817
31
0.18738329701443512
0
3DFACE
5
FDA6
330
FB96
100
AcDbEntity
100
AcDbFace
8
EKP_PANEL_ANTEN
10
7.465905110973063
20
0.2893343654450894
30
-0.18738329701443512
11
8.1236899455232
21
0.5287484657730576
31
-0.18738329701443512
12
8.292981279376782
22
0.06362434870098524
32
0.3075914498161482
13
7.635196444826645
23
-0.17578975162698285
33
0.3075914498161482
0
3DFACE
5
FDA7
330
FB96
100
AcDbEntity
100
AcDbFace
8
EKP_PANEL_ANTEN
10
7.507018720623219
20
0.17637565129901475
30
-0.3075914498161482
11
8.164803555173355
21
0.41578975162698284
31
-0.3075914498161482
12
8.1236899455232
22
0.5287484657730576
32
-0.18738329701443512
13
7.465905110973063
23
0.2893343654450894
33
-0.18738329701443512
0
3DFACE
5
FDA8
330
FB96
100
AcDbEntity
100
AcDbFace
8
EKP_PANEL_ANTEN
10
7.676310054476802
20
-0.28874846577305757
30
0.18738329701443512
11
8.334094889026938
21
-0.04933436544508943
31
0.18738329701443512
12
8.292981279376782
22
0.06362434870098524
32
0.3075914498161482
13
7.635196444826645
23
-0.17578975162698285
33
0.3075914498161482
0
3DFACE
5
FDA9
330
FB96
100
AcDbEntity
100
AcDbFace
8
EKP_PANEL_ANTEN
10
7.507018720623219
20
0.17637565129901475
30
-0.3075914498161482
11
7.676310054476802
21
-0.28874846577305757
31
0.18738329701443512
12
7.635196444826645
22
-0.17578975162698285
32
0.3075914498161482
13
7.465905110973063
23
0.2893343654450894
33
-0.18738329701443512
0
3DFACE
5
FDAA
330
FB96
100
AcDbEntity
100
AcDbFace
8
EKP_PANEL_ANTEN
10
8.164803555173355
20
0.41578975162698284
30
-0.3075914498161482
11
8.334094889026938
21
-0.04933436544508943
31
0.18738329701443512
12
8.292981279376782
22
0.06362434870098524
32
0.3075914498161482
13
8.1236899455232
23
0.5287484657730576
33
-0.18738329701443512
0
3DFACE
5
FDAB
330
FB96
100
AcDbEntity
100
AcDbFace
8
EKP_PANEL_ANTEN
10
7.9249100105527415
20
0.0515603084879665
30
-0.0728319984622144
11
7.676310054476802
21
-0.28874846577305757
31
0.18738329701443512
12
8.334094889026938
22
-0.04933436544508943
32
0.18738329701443512
13
8.334094889026938
23
-0.04933436544508943
33
0.18738329701443512
0
3DFACE
5
FDAC
330
FB96
100
AcDbEntity
100
AcDbFace
8
EKP_PANEL_ANTEN
10
7.9249100105527415
20
0.0515603084879665
30
-0.0728319984622144
11
8.334094889026938
21
-0.04933436544508943
31
0.18738329701443512
12
8.164803555173355
22
0.41578975162698284
32
-0.3075914498161482
13
8.164803555173355
23
0.41578975162698284
33
-0.3075914498161482
0
3DFACE
5
FDAD
330
FB96
100
AcDbEntity
100
AcDbFace
8
EKP_PANEL_ANTEN
10
7.9249100105527415
20
0.0515603084879665
30
-0.0728319984622144
11
8.164803555173355
21
0.41578975162698284
31
-0.3075914498161482
12
7.507018720623219
22
0.17637565129901475
32
-0.3075914498161482
13
7.507018720623219
23
0.17637565129901475
33
-0.3075914498161482
0
3DFACE
5
FDAE
330
FB96
100
AcDbEntity
100
AcDbFace
8
EKP_PANEL_ANTEN
10
7.9249100105527415
20
0.0515603084879665
30
-0.0728319984622144
11
7.507018720623219
21
0.17637565129901475
31
-0.3075914498161482
12
7.676310054476802
22
-0.28874846577305757
32
0.18738329701443512
13
7.676310054476802
23
-0.28874846577305757
33
0.18738329701443512
0
LINE
5
FDAF
330
FB96
100
AcDbEntity
100
AcDbLine
8
EKP_PANEL_ANTEN
10
7.9249100105527415
20
0.0515603084879665
30
-0.0728319984622144
11
7.507018720623219
21
0.17637565129901475
31
-0.3075914498161482
0
LINE
5
FDB0
330
FB96
100
AcDbEntity
100
AcDbLine
8
EKP_PANEL_ANTEN
10
7.9249100105527415
20
0.0515603084879665
30
-0.0728319984622144
11
8.164803555173355
21
0.41578975162698284
31
-0.3075914498161482
0
LINE
5
FDB1
330
FB96
100
AcDbEntity
100
AcDbLine
8
EKP_PANEL_ANTEN
10
7.9249100105527415
20
0.0515603084879665
30
-0.0728319984622144
11
8.334094889026938
21
-0.04933436544508943
31
0.18738329701443512
0
LINE
5
FDB2
330
FB96
100
AcDbEntity
100
AcDbLine
8
EKP_PANEL_ANTEN
10
7.9249100105527415
20
0.0515603084879665
30
-0.0728319984622144
11
7.676310054476802
21
-0.28874846577305757
31
0.18738329701443512
0
3DFACE
5
FE4D
330
FB96
100
AcDbEntity
100
AcDbFace
8
EKP_PANEL_ANTEN
10
15.65
20
0.30759144981614817
30
0.4626167029855648
11
16.35
21
0.30759144981614817
31
0.4626167029855648
12
16.35
22
-0.1873832970144351
32
0.9575914498161482
13
15.65
23
-0.1873832970144351
33
0.9575914498161482
0
3DFACE
5
FE4E
330
FB96
100
AcDbEntity
100
AcDbFace
8
EKP_PANEL_ANTEN
10
15.65
20
0.1873832970144351
30
0.3424085501838517
11
16.35
21
0.1873832970144351
31
0.3424085501838517
12
16.35
22
0.30759144981614817
32
0.4626167029855648
13
15.65
23
0.30759144981614817
33
0.4626167029855648
0
3DFACE
5
FE4F
330
FB96
100
AcDbEntity
100
AcDbFace
8
EKP_PANEL_ANTEN
10
15.65
20
-0.30759144981614817
30
0.837383297014435
11
16.35
21
-0.30759144981614817
31
0.837383297014435
12
16.35
22
-0.1873832970144351
32
0.9575914498161482
13
15.65
23
-0.1873832970144351
33
0.9575914498161482
0
3DFACE
5
FE50
330
FB96
100
AcDbEntity
100
AcDbFace
8
EKP_PANEL_ANTEN
10
15.65
20
0.1873832970144351
30
0.3424085501838517
11
15.65
21
-0.30759144981614817
31
0.837383297014435
12
15.65
22
-0.1873832970144351
32
0.9575914498161482
13
15.65
23
0.30759144981614817
33
0.4626167029855648
0
3DFACE
5
FE51
330
FB96
100
AcDbEntity
100
AcDbFace
8
EKP_PANEL_ANTEN
10
16.35
20
0.1873832970144351
30
0.3424085501838517
11
16.35
21
-0.30759144981614817
31
0.837383297014435
12
16.35
22
-0.1873832970144351
32
0.9575914498161482
13
16.35
23
0.30759144981614817
33
0.4626167029855648
0
3DFACE
5
FE52
330
FB96
100
AcDbEntity
100
AcDbFace
8
EKP_PANEL_ANTEN
10
16
20
-0.0728319984622144
30
0.5771680015377855
11
15.65
21
-0.30759144981614817
31
0.837383297014435
12
16.35
22
-0.30759144981614817
32
0.837383297014435
13
16.35
23
-0.30759144981614817
33
0.837383297014435
0
3DFACE
5
FE53
330
FB96
100
AcDbEntity
100
AcDbFace
8
EKP_PANEL_ANTEN
10
16
20
-0.0728319984622144
30
0.5771680015377855
11
16.35
21
-0.30759144981614817
31
0.837383297014435
12
16.35
22
0.1873832970144351
32
0.3424085501838517
13
16.35
23
0.1873832970144351
33
0.3424085501838517
0
3DFACE
5
FE54
330
FB96
100
AcDbEntity
100
AcDbFace
8
EKP_PANEL_ANTEN
10
16
20
-0.0728319984622144
30
0.5771680015377855
11
16.35
21
0.1873832970144351
31
0.3424085501838517
12
15.65
22
0.1873832970144351
32
0.3424085501838517
13
15.65
23
0.1873832970144351
33
0.3424085501838517
0
3DFACE
5
FE55
330
FB96
100
AcDbEntity
100
AcDbFace
8
EKP_PANEL_ANTEN
10
16
20
-0.0728319984622144
30
0.5771680015377855
11
15.65
21
0.1873832970144351
31
0.3424085501838517
12
15.65
22
-0.30759144981614817
32
0.837383297014435
13
15.65
23
-0.30759144981614817
33
0.837383297014435
0
LINE
5
FE56
330
FB96
100
AcDbEntity
100
AcDbLine
8
EKP_PANEL_ANTEN
10
16
20
-0.0728319984622144
30
0.5771680015377855
11
15.65
21
0.1873832970144351
31
0.3424085501838517
0
LINE
5
FE57
330
FB96
100
AcDbEntity
100
AcDbLine
8
EKP_PANEL_ANTEN
10
16
20
-0.0728319984622144
30
0.5771680015377855
11
16.35
21
0.1873832970144351
31
0.3424085501838517
0
LINE
5
FE58
330
FB96
100
AcDbEntity
100
AcDbLine
8
EKP_PANEL_ANTEN
10
16
20
-0.0728319984622144
30
0.5771680015377855
11
16.35
21
-0.30759144981614817
31
0.837383297014435
0
LINE
5
FE59
330
FB96
100
AcDbEntity
100
AcDbLine
8
EKP_PANEL_ANTEN
10
16
20
-0.0728319984622144
30
0.5771680015377855
11
15.65
21
-0.30759144981614817
31
0.837383297014435
0
ENDSEC
0
SECTION
2
OBJECTS
0
DICTIONARY
5
FB84
330
0
100
AcDbDictionary
281
1
3
ACAD_GROUP
350
FB9A
0
DICTIONARY
5
FB9A
330
FB84
100
AcDbDictionary
281
1
0
ENDSEC
0
EOF