0
SECTION
2
HEADER
9
$HANDSEED
5
10374
9
$INSUNITS
70
6
9
$ACADVER
1
AC1021
9
$DWGCODEPAGE
3
UTF-8
0
ENDSEC
0
SECTION
2
CLASSES
0
ENDSEC
0
SECTION
2
TABLES
0
TABLE
2
LTYPE
5
10372
330
0
100
AcDbSymbolTable
70
5
0
LTYPE
5
10046
330
10372
100
AcDbSymbolTableRecord
100
AcDbLinetypeTableRecord
2
CONTINUOUS
3
______
70
0
72
65
73
0
40
0
0
LTYPE
5
10047
330
10372
100
AcDbSymbolTableRecord
100
AcDbLinetypeTableRecord
2
DASHED
3
_ _ _ 
70
0
72
65
73
2
40
10
49
5
74
0
49
-5
74
0
0
LTYPE
5
10048
330
10372
100
AcDbSymbolTableRecord
100
AcDbLinetypeTableRecord
2
DOTTED
3
. . . 
70
0
72
65
73
2
40
5
49
0
74
0
49
-5
74
0
0
LTYPE
5
1004A
330
10372
100
AcDbSymbolTableRecord
100
AcDbLinetypeTableRecord
2
ByBlock
3

70
0
72
65
73
0
40
0
0
LTYPE
5
1004B
330
10372
100
AcDbSymbolTableRecord
100
AcDbLinetypeTableRecord
2
ByLayer
3

70
0
72
65
73
0
40
0
0
ENDTAB
0
TABLE
2
LAYER
5
10373
330
0
100
AcDbSymbolTable
70
21
0
LAYER
5
10049
330
10373
100
AcDbSymbolTableRecord
100
AcDbLayerTableRecord
2
0
62
7
70
0
6
CONTINUOUS
390
1
0
LAYER
5
1005C
330
10373
100
AcDbSymbolTableRecord
100
AcDbLayerTableRecord
2
ZEMIN_PLATFORM
62
8
70
0
6
CONTINUOUS
390
1
0
LAYER
5
1005D
330
10373
100
AcDbSymbolTableRecord
100
AcDbLayerTableRecord
2
KORKULUK_KAPI
62
4
70
0
6
CONTINUOUS
390
1
0
LAYER
5
1005E
330
10373
100
AcDbSymbolTableRecord
100
AcDbLayerTableRecord
2
CELIK_KIRIS_KOLON
62
9
70
0
6
CONTINUOUS
390
1
0
LAYER
5
1005F
330
10373
100
AcDbSymbolTableRecord
100
AcDbLayerTableRecord
2
MONTAJ_BORULARI
62
2
70
0
6
CONTINUOUS
390
1
0
LAYER
5
10060
330
10373
100
AcDbSymbolTableRecord
100
AcDbLayerTableRecord
2
KABLO_TAVALARI
62
6
70
0
6
CONTINUOUS
390
1
0
LAYER
5
10061
330
10373
100
AcDbSymbolTableRecord
100
AcDbLayerTableRecord
2
YURUYUS_KORIDORU
62
3
70
0
6
DASHED
390
1
0
LAYER
5
10062
330
10373
100
AcDbSymbolTableRecord
100
AcDbLayerTableRecord
2
OLCULER
62
1
70
0
6
CONTINUOUS
390
1
0
LAYER
5
10063
330
10373
100
AcDbSymbolTableRecord
100
AcDbLayerTableRecord
2
METIN_BILGI
62
7
70
0
6
CONTINUOUS
390
1
0
LAYER
5
10064
330
10373
100
AcDbSymbolTableRecord
100
AcDbLayerTableRecord
2
EKP_TURKCELL_RRU
62
5
70
0
6
CONTINUOUS
390
1
0
LAYER
5
10065
330
10373
100
AcDbSymbolTableRecord
100
AcDbLayerTableRecord
2
EKP_VODAFONE_RRU
62
1
70
0
6
CONTINUOUS
390
1
0
LAYER
5
10066
330
10373
100
AcDbSymbolTableRecord
100
AcDbLayerTableRecord
2
EKP_TURK_TELEKOM_RRU
62
4
70
0
6
CONTINUOUS
390
1
0
LAYER
5
10067
330
10373
100
AcDbSymbolTableRecord
100
AcDbLayerTableRecord
2
EKP_POI_TASIYICI_SASE
62
30
70
0
6
CONTINUOUS
390
1
0
LAYER
5
10068
330
10373
100
AcDbSymbolTableRecord
100
AcDbLayerTableRecord
2
EKP_POI_MODULLERI
62
40
70
0
6
CONTINUOUS
390
1
0
LAYER
5
10069
330
10373
100
AcDbSymbolTableRecord
100
AcDbLayerTableRecord
2
EKP_RECTIFIER_ELTEK_20U
62
3
70
0
6
CONTINUOUS
390
1
0
LAYER
5
1006A
330
10373
100
AcDbSymbolTableRecord
100
AcDbLayerTableRecord
2
EKP_RECTIFIER_MTS9304A
62
94
70
0
6
CONTINUOUS
390
1
0
LAYER
5
1006B
330
10373
100
AcDbSymbolTableRecord
100
AcDbLayerTableRecord
2
BLOK_OZEL_PLATFORM
62
140
70
0
6
CONTINUOUS
390
1
0
LAYER
5
1006C
330
10373
100
AcDbSymbolTableRecord
100
AcDbLayerTableRecord
2
EKP_MATSING_ANTEN
62
2
70
0
6
CONTINUOUS
390
1
0
LAYER
5
1006D
330
10373
100
AcDbSymbolTableRecord
100
AcDbLayerTableRecord
2
EKP_PANEL_ANTEN
62
6
70
0
6
CONTINUOUS
390
1
0
LAYER
5
1006E
330
10373
100
AcDbSymbolTableRecord
100
AcDbLayerTableRecord
2
EKP_ANTEN_TASIYICI_KOL
62
141
70
0
6
CONTINUOUS
390
1
0
LAYER
5
1006F
330
10373
100
AcDbSymbolTableRecord
100
AcDbLayerTableRecord
2
EKP_DIGER_EKIPMANLAR
62
7
70
0
6
CONTINUOUS
390
1
0
ENDTAB
0
TABLE
2
VPORT
5
1004C
330
0
100
AcDbSymbolTable
70
1
0
VPORT
5
10052
330
1004C
100
AcDbSymbolTableRecord
100
AcDbViewportTableRecord
2
*ACTIVE
40
1000
70
0
0
ENDTAB
0
TABLE
2
STYLE
5
1004D
330
0
100
AcDbSymbolTable
70
3
0
STYLE
5
10053
330
1004D
100
AcDbSymbolTableRecord
100
AcDbTextStyleTableRecord
2
standard
70
0
40
0
41
1
50
0
71
0
42
1
3
calibrib.ttf
4

1001
ACAD
1000
Calibri
1071
33554466
0
STYLE
5
10054
330
1004D
100
AcDbSymbolTableRecord
100
AcDbTextStyleTableRecord
2
STANDARD
70
0
40
0
41
1
50
0
71
0
42
1
3
calibrib.ttf
4

1001
ACAD
1000
Calibri
1071
33554466
0
STYLE
5
10055
330
1004D
100
AcDbSymbolTableRecord
100
AcDbTextStyleTableRecord
2
CALIBRI_BOLD
70
0
40
0
41
1
50
0
71
0
42
1
3
calibrib.ttf
4

1001
ACAD
1000
Calibri
1071
33554466
0
ENDTAB
0
TABLE
2
VIEW
5
1004E
330
0
100
AcDbSymbolTable
70
0
0
ENDTAB
0
TABLE
2
UCS
5
1004F
330
0
100
AcDbSymbolTable
70
0
0
ENDTAB
0
TABLE
2
APPID
5
10050
330
0
100
AcDbSymbolTable
70
1
0
APPID
5
10056
330
10050
100
AcDbSymbolTableRecord
100
AcDbRegAppTableRecord
2
ACAD
70
0
0
ENDTAB
0
TABLE
2
DIMSTYLE
5
10051
330
0
100
AcDbSymbolTable
100
AcDbDimStyleTable
70
0
71
1
0
ENDTAB
0
TABLE
2
BLOCK_RECORD
5
1036F
330
0
100
AcDbSymbolTable
70
2
0
BLOCK_RECORD
5
10370
330
1036F
100
AcDbSymbolTableRecord
100
AcDbBlockTableRecord
2
*Model_Space
70
0
280
0
281
1
0
BLOCK_RECORD
5
10371
330
1036F
100
AcDbSymbolTableRecord
100
AcDbBlockTableRecord
2
*Paper_Space
70
0
280
0
281
1
0
ENDTAB
0
ENDSEC
0
SECTION
2
BLOCKS
0
BLOCK
5
10057
330
0
100
AcDbEntity
100
AcDbBlockBegin
2
*Model_Space
70
0
10
0
20
0
30
0
3
*Model_Space
1

0
ENDBLK
5
10058
330
0
100
AcDbEntity
100
AcDbBlockEnd
0
BLOCK
5
10059
330
0
100
AcDbEntity
100
AcDbBlockBegin
2
*Paper_Space
70
0
10
0
20
0
30
0
3
*Paper_Space
1

0
ENDBLK
5
1005A
330
0
100
AcDbEntity
100
AcDbBlockEnd
0
ENDSEC
0
SECTION
2
ENTITIES
0
3DFACE
5
1007D
330
10057
100
AcDbEntity
100
AcDbFace
8
CELIK_KIRIS_KOLON
10
-14.07
20
0.23864853865045982
30
-0.08308504678941936
11
-13.93
21
0.23864853865045982
31
-0.08308504678941936
12
-13.93
22
-0.08308504678941932
32
0.23864853865045982
13
-14.07
23
-0.08308504678941932
33
0.23864853865045982
0
3DFACE
5
1007E
330
10057
100
AcDbEntity
100
AcDbFace
8
CELIK_KIRIS_KOLON
10
-14.061
20
0.09899494936611666
30
0.0565685424949238
11
-14.049
21
0.09899494936611666
31
0.0565685424949238
12
-14.049
22
0.23405234457274723
32
0.27647875144394
13
-14.061
23
0.23405234457274723
33
0.27647875144394
0
3DFACE
5
1007F
330
10057
100
AcDbEntity
100
AcDbFace
8
CELIK_KIRIS_KOLON
10
-13.951
20
0.09899494936611666
30
0.0565685424949238
11
-13.939
21
0.09899494936611666
31
0.0565685424949238
12
-13.939
22
0.23405234457274723
32
0.27647875144394
13
-13.951
23
0.23405234457274723
33
0.27647875144394
0
3DFACE
5
100AC
330
10057
100
AcDbEntity
100
AcDbFace
8
CELIK_KIRIS_KOLON
10
-14.065
20
0.37156772670457444
30
0.10933161594775359
11
-13.935
21
0.37156772670457444
31
0.10933161594775359
12
-13.935
22
0.5015677267045744
32
0.10933161594775359
13
-14.065
23
0.5015677267045744
33
0.10933161594775359
0
3DFACE
5
100AD
330
10057
100
AcDbEntity
100
AcDbFace
8
CELIK_KIRIS_KOLON
10
-14.065
20
0.37156772670457444
30
0.21933161594775358
11
-13.935
21
0.37156772670457444
31
0.21933161594775358
12
-13.935
22
0.5015677267045744
32
0.21933161594775358
13
-14.065
23
0.5015677267045744
33
0.21933161594775358
0
3DFACE
5
100AE
330
10057
100
AcDbEntity
100
AcDbFace
8
CELIK_KIRIS_KOLON
10
-14.065
20
0.37156772670457444
30
0.10933161594775359
11
-13.935
21
0.37156772670457444
31
0.10933161594775359
12
-13.935
22
0.37156772670457444
32
0.21933161594775358
13
-14.065
23
0.37156772670457444
33
0.21933161594775358
0
3DFACE
5
100AF
330
10057
100
AcDbEntity
100
AcDbFace
8
CELIK_KIRIS_KOLON
10
-14.065
20
0.5015677267045744
30
0.10933161594775359
11
-13.935
21
0.5015677267045744
31
0.10933161594775359
12
-13.935
22
0.5015677267045744
32
0.21933161594775358
13
-14.065
23
0.5015677267045744
33
0.21933161594775358
0
3DFACE
5
100B0
330
10057
100
AcDbEntity
100
AcDbFace
8
CELIK_KIRIS_KOLON
10
-14.065
20
0.37156772670457444
30
0.10933161594775359
11
-14.065
21
0.5015677267045744
31
0.10933161594775359
12
-14.065
22
0.5015677267045744
32
0.21933161594775358
13
-14.065
23
0.37156772670457444
33
0.21933161594775358
0
3DFACE
5
100B1
330
10057
100
AcDbEntity
100
AcDbFace
8
CELIK_KIRIS_KOLON
10
-13.935
20
0.37156772670457444
30
0.10933161594775359
11
-13.935
21
0.5015677267045744
31
0.10933161594775359
12
-13.935
22
0.5015677267045744
32
0.21933161594775358
13
-13.935
23
0.37156772670457444
33
0.21933161594775358
0
LINE
5
100B2
330
10057
100
AcDbEntity
100
AcDbLine
8
CELIK_KIRIS_KOLON
10
-14.065
20
0.37156772670457444
30
0.10933161594775359
11
-13.935
21
0.37156772670457444
31
0.10933161594775359
0
LINE
5
100B3
330
10057
100
AcDbEntity
100
AcDbLine
8
CELIK_KIRIS_KOLON
10
-13.935
20
0.37156772670457444
30
0.10933161594775359
11
-13.935
21
0.5015677267045744
31
0.10933161594775359
0
LINE
5
100B4
330
10057
100
AcDbEntity
100
AcDbLine
8
CELIK_KIRIS_KOLON
10
-13.935
20
0.5015677267045744
30
0.10933161594775359
11
-14.065
21
0.5015677267045744
31
0.10933161594775359
0
LINE
5
100B5
330
10057
100
AcDbEntity
100
AcDbLine
8
CELIK_KIRIS_KOLON
10
-14.065
20
0.5015677267045744
30
0.10933161594775359
11
-14.065
21
0.37156772670457444
31
0.10933161594775359
0
LINE
5
100B6
330
10057
100
AcDbEntity
100
AcDbLine
8
CELIK_KIRIS_KOLON
10
-14.065
20
0.37156772670457444
30
0.21933161594775358
11
-13.935
21
0.37156772670457444
31
0.21933161594775358
0
LINE
5
100B7
330
10057
100
AcDbEntity
100
AcDbLine
8
CELIK_KIRIS_KOLON
10
-13.935
20
0.37156772670457444
30
0.21933161594775358
11
-13.935
21
0.5015677267045744
31
0.21933161594775358
0
LINE
5
100B8
330
10057
100
AcDbEntity
100
AcDbLine
8
CELIK_KIRIS_KOLON
10
-13.935
20
0.5015677267045744
30
0.21933161594775358
11
-14.065
21
0.5015677267045744
31
0.21933161594775358
0
LINE
5
100B9
330
10057
100
AcDbEntity
100
AcDbLine
8
CELIK_KIRIS_KOLON
10
-14.065
20
0.5015677267045744
30
0.21933161594775358
11
-14.065
21
0.37156772670457444
31
0.21933161594775358
0
LINE
5
100BA
330
10057
100
AcDbEntity
100
AcDbLine
8
CELIK_KIRIS_KOLON
10
-14.065
20
0.37156772670457444
30
0.10933161594775359
11
-14.065
21
0.37156772670457444
31
0.21933161594775358
0
LINE
5
100BB
330
10057
100
AcDbEntity
100
AcDbLine
8
CELIK_KIRIS_KOLON
10
-13.935
20
0.37156772670457444
30
0.10933161594775359
11
-13.935
21
0.37156772670457444
31
0.21933161594775358
0
LINE
5
100BC
330
10057
100
AcDbEntity
100
AcDbLine
8
CELIK_KIRIS_KOLON
10
-13.935
20
0.5015677267045744
30
0.10933161594775359
11
-13.935
21
0.5015677267045744
31
0.21933161594775358
0
LINE
5
100BD
330
10057
100
AcDbEntity
100
AcDbLine
8
CELIK_KIRIS_KOLON
10
-14.065
20
0.5015677267045744
30
0.10933161594775359
11
-14.065
21
0.5015677267045744
31
0.21933161594775358
0
3DFACE
5
100BE
330
10057
100
AcDbEntity
100
AcDbFace
8
CELIK_KIRIS_KOLON
10
-14.065
20
0.09933161594775367
30
0.38156772670457445
11
-13.935
21
0.09933161594775367
31
0.38156772670457445
12
-13.935
22
0.22933161594775367
32
0.38156772670457445
13
-14.065
23
0.22933161594775367
33
0.38156772670457445
0
3DFACE
5
100BF
330
10057
100
AcDbEntity
100
AcDbFace
8
CELIK_KIRIS_KOLON
10
-14.065
20
0.09933161594775367
30
0.49156772670457444
11
-13.935
21
0.09933161594775367
31
0.49156772670457444
12
-13.935
22
0.22933161594775367
32
0.49156772670457444
13
-14.065
23
0.22933161594775367
33
0.49156772670457444
0
3DFACE
5
100C0
330
10057
100
AcDbEntity
100
AcDbFace
8
CELIK_KIRIS_KOLON
10
-14.065
20
0.09933161594775367
30
0.38156772670457445
11
-13.935
21
0.09933161594775367
31
0.38156772670457445
12
-13.935
22
0.09933161594775367
32
0.49156772670457444
13
-14.065
23
0.09933161594775367
33
0.49156772670457444
0
3DFACE
5
100C1
330
10057
100
AcDbEntity
100
AcDbFace
8
CELIK_KIRIS_KOLON
10
-14.065
20
0.22933161594775367
30
0.38156772670457445
11
-13.935
21
0.22933161594775367
31
0.38156772670457445
12
-13.935
22
0.22933161594775367
32
0.49156772670457444
13
-14.065
23
0.22933161594775367
33
0.49156772670457444
0
3DFACE
5
100C2
330
10057
100
AcDbEntity
100
AcDbFace
8
CELIK_KIRIS_KOLON
10
-14.065
20
0.09933161594775367
30
0.38156772670457445
11
-14.065
21
0.22933161594775367
31
0.38156772670457445
12
-14.065
22
0.22933161594775367
32
0.49156772670457444
13
-14.065
23
0.09933161594775367
33
0.49156772670457444
0
3DFACE
5
100C3
330
10057
100
AcDbEntity
100
AcDbFace
8
CELIK_KIRIS_KOLON
10
-13.935
20
0.09933161594775367
30
0.38156772670457445
11
-13.935
21
0.22933161594775367
31
0.38156772670457445
12
-13.935
22
0.22933161594775367
32
0.49156772670457444
13
-13.935
23
0.09933161594775367
33
0.49156772670457444
0
LINE
5
100C4
330
10057
100
AcDbEntity
100
AcDbLine
8
CELIK_KIRIS_KOLON
10
-14.065
20
0.09933161594775367
30
0.38156772670457445
11
-13.935
21
0.09933161594775367
31
0.38156772670457445
0
LINE
5
100C5
330
10057
100
AcDbEntity
100
AcDbLine
8
CELIK_KIRIS_KOLON
10
-13.935
20
0.09933161594775367
30
0.38156772670457445
11
-13.935
21
0.22933161594775367
31
0.38156772670457445
0
LINE
5
100C6
330
10057
100
AcDbEntity
100
AcDbLine
8
CELIK_KIRIS_KOLON
10
-13.935
20
0.22933161594775367
30
0.38156772670457445
11
-14.065
21
0.22933161594775367
31
0.38156772670457445
0
LINE
5
100C7
330
10057
100
AcDbEntity
100
AcDbLine
8
CELIK_KIRIS_KOLON
10
-14.065
20
0.22933161594775367
30
0.38156772670457445
11
-14.065
21
0.09933161594775367
31
0.38156772670457445
0
LINE
5
100C8
330
10057
100
AcDbEntity
100
AcDbLine
8
CELIK_KIRIS_KOLON
10
-14.065
20
0.09933161594775367
30
0.49156772670457444
11
-13.935
21
0.09933161594775367
31
0.49156772670457444
0
LINE
5
100C9
330
10057
100
AcDbEntity
100
AcDbLine
8
CELIK_KIRIS_KOLON
10
-13.935
20
0.09933161594775367
30
0.49156772670457444
11
-13.935
21
0.22933161594775367
31
0.49156772670457444
0
LINE
5
100CA
330
10057
100
AcDbEntity
100
AcDbLine
8
CELIK_KIRIS_KOLON
10
-13.935
20
0.22933161594775367
30
0.49156772670457444
11
-14.065
21
0.22933161594775367
31
0.49156772670457444
0
LINE
5
100CB
330
10057
100
AcDbEntity
100
AcDbLine
8
CELIK_KIRIS_KOLON
10
-14.065
20
0.22933161594775367
30
0.49156772670457444
11
-14.065
21
0.09933161594775367
31
0.49156772670457444
0
LINE
5
100CC
330
10057
100
AcDbEntity
100
AcDbLine
8
CELIK_KIRIS_KOLON
10
-14.065
20
0.09933161594775367
30
0.38156772670457445
11
-14.065
21
0.09933161594775367
31
0.49156772670457444
0
LINE
5
100CD
330
10057
100
AcDbEntity
100
AcDbLine
8
CELIK_KIRIS_KOLON
10
-13.935
20
0.09933161594775367
30
0.38156772670457445
11
-13.935
21
0.09933161594775367
31
0.49156772670457444
0
LINE
5
100CE
330
10057
100
AcDbEntity
100
AcDbLine
8
CELIK_KIRIS_KOLON
10
-13.935
20
0.22933161594775367
30
0.38156772670457445
11
-13.935
21
0.22933161594775367
31
0.49156772670457444
0
LINE
5
100CF
330
10057
100
AcDbEntity
100
AcDbLine
8
CELIK_KIRIS_KOLON
10
-14.065
20
0.22933161594775367
30
0.38156772670457445
11
-14.065
21
0.22933161594775367
31
0.49156772670457444
0
3DFACE
5
100DE
330
10057
100
AcDbEntity
100
AcDbFace
8
CELIK_KIRIS_KOLON
10
-4.57
20
0.23864853865045982
30
-0.08308504678941936
11
-4.43
21
0.23864853865045982
31
-0.08308504678941936
12
-4.43
22
-0.08308504678941932
32
0.23864853865045982
13
-4.57
23
-0.08308504678941932
33
0.23864853865045982
0
3DFACE
5
100DF
330
10057
100
AcDbEntity
100
AcDbFace
8
CELIK_KIRIS_KOLON
10
-4.561
20
0.09899494936611666
30
0.0565685424949238
11
-4.549
21
0.09899494936611666
31
0.0565685424949238
12
-4.549
22
0.23405234457274723
32
0.27647875144394
13
-4.561
23
0.23405234457274723
33
0.27647875144394
0
3DFACE
5
100E0
330
10057
100
AcDbEntity
100
AcDbFace
8
CELIK_KIRIS_KOLON
10
-4.451
20
0.09899494936611666
30
0.0565685424949238
11
-4.439
21
0.09899494936611666
31
0.0565685424949238
12
-4.439
22
0.23405234457274723
32
0.27647875144394
13
-4.451
23
0.23405234457274723
33
0.27647875144394
0
3DFACE
5
1010D
330
10057
100
AcDbEntity
100
AcDbFace
8
CELIK_KIRIS_KOLON
10
-4.565
20
0.37156772670457444
30
0.10933161594775359
11
-4.435
21
0.37156772670457444
31
0.10933161594775359
12
-4.435
22
0.5015677267045744
32
0.10933161594775359
13
-4.565
23
0.5015677267045744
33
0.10933161594775359
0
3DFACE
5
1010E
330
10057
100
AcDbEntity
100
AcDbFace
8
CELIK_KIRIS_KOLON
10
-4.565
20
0.37156772670457444
30
0.21933161594775358
11
-4.435
21
0.37156772670457444
31
0.21933161594775358
12
-4.435
22
0.5015677267045744
32
0.21933161594775358
13
-4.565
23
0.5015677267045744
33
0.21933161594775358
0
3DFACE
5
1010F
330
10057
100
AcDbEntity
100
AcDbFace
8
CELIK_KIRIS_KOLON
10
-4.565
20
0.37156772670457444
30
0.10933161594775359
11
-4.435
21
0.37156772670457444
31
0.10933161594775359
12
-4.435
22
0.37156772670457444
32
0.21933161594775358
13
-4.565
23
0.37156772670457444
33
0.21933161594775358
0
3DFACE
5
10110
330
10057
100
AcDbEntity
100
AcDbFace
8
CELIK_KIRIS_KOLON
10
-4.565
20
0.5015677267045744
30
0.10933161594775359
11
-4.435
21
0.5015677267045744
31
0.10933161594775359
12
-4.435
22
0.5015677267045744
32
0.21933161594775358
13
-4.565
23
0.5015677267045744
33
0.21933161594775358
0
3DFACE
5
10111
330
10057
100
AcDbEntity
100
AcDbFace
8
CELIK_KIRIS_KOLON
10
-4.565
20
0.37156772670457444
30
0.10933161594775359
11
-4.565
21
0.5015677267045744
31
0.10933161594775359
12
-4.565
22
0.5015677267045744
32
0.21933161594775358
13
-4.565
23
0.37156772670457444
33
0.21933161594775358
0
3DFACE
5
10112
330
10057
100
AcDbEntity
100
AcDbFace
8
CELIK_KIRIS_KOLON
10
-4.435
20
0.37156772670457444
30
0.10933161594775359
11
-4.435
21
0.5015677267045744
31
0.10933161594775359
12
-4.435
22
0.5015677267045744
32
0.21933161594775358
13
-4.435
23
0.37156772670457444
33
0.21933161594775358
0
LINE
5
10113
330
10057
100
AcDbEntity
100
AcDbLine
8
CELIK_KIRIS_KOLON
10
-4.565
20
0.37156772670457444
30
0.10933161594775359
11
-4.435
21
0.37156772670457444
31
0.10933161594775359
0
LINE
5
10114
330
10057
100
AcDbEntity
100
AcDbLine
8
CELIK_KIRIS_KOLON
10
-4.435
20
0.37156772670457444
30
0.10933161594775359
11
-4.435
21
0.5015677267045744
31
0.10933161594775359
0
LINE
5
10115
330
10057
100
AcDbEntity
100
AcDbLine
8
CELIK_KIRIS_KOLON
10
-4.435
20
0.5015677267045744
30
0.10933161594775359
11
-4.565
21
0.5015677267045744
31
0.10933161594775359
0
LINE
5
10116
330
10057
100
AcDbEntity
100
AcDbLine
8
CELIK_KIRIS_KOLON
10
-4.565
20
0.5015677267045744
30
0.10933161594775359
11
-4.565
21
0.37156772670457444
31
0.10933161594775359
0
LINE
5
10117
330
10057
100
AcDbEntity
100
AcDbLine
8
CELIK_KIRIS_KOLON
10
-4.565
20
0.37156772670457444
30
0.21933161594775358
11
-4.435
21
0.37156772670457444
31
0.21933161594775358
0
LINE
5
10118
330
10057
100
AcDbEntity
100
AcDbLine
8
CELIK_KIRIS_KOLON
10
-4.435
20
0.37156772670457444
30
0.21933161594775358
11
-4.435
21
0.5015677267045744
31
0.21933161594775358
0
LINE
5
10119
330
10057
100
AcDbEntity
100
AcDbLine
8
CELIK_KIRIS_KOLON
10
-4.435
20
0.5015677267045744
30
0.21933161594775358
11
-4.565
21
0.5015677267045744
31
0.21933161594775358
0
LINE
5
1011A
330
10057
100
AcDbEntity
100
AcDbLine
8
CELIK_KIRIS_KOLON
10
-4.565
20
0.5015677267045744
30
0.21933161594775358
11
-4.565
21
0.37156772670457444
31
0.21933161594775358
0
LINE
5
1011B
330
10057
100
AcDbEntity
100
AcDbLine
8
CELIK_KIRIS_KOLON
10
-4.565
20
0.37156772670457444
30
0.10933161594775359
11
-4.565
21
0.37156772670457444
31
0.21933161594775358
0
LINE
5
1011C
330
10057
100
AcDbEntity
100
AcDbLine
8
CELIK_KIRIS_KOLON
10
-4.435
20
0.37156772670457444
30
0.10933161594775359
11
-4.435
21
0.37156772670457444
31
0.21933161594775358
0
LINE
5
1011D
330
10057
100
AcDbEntity
100
AcDbLine
8
CELIK_KIRIS_KOLON
10
-4.435
20
0.5015677267045744
30
0.10933161594775359
11
-4.435
21
0.5015677267045744
31
0.21933161594775358
0
LINE
5
1011E
330
10057
100
AcDbEntity
100
AcDbLine
8
CELIK_KIRIS_KOLON
10
-4.565
20
0.5015677267045744
30
0.10933161594775359
11
-4.565
21
0.5015677267045744
31
0.21933161594775358
0
3DFACE
5
1011F
330
10057
100
AcDbEntity
100
AcDbFace
8
CELIK_KIRIS_KOLON
10
-4.565
20
0.09933161594775367
30
0.38156772670457445
11
-4.435
21
0.09933161594775367
31
0.38156772670457445
12
-4.435
22
0.22933161594775367
32
0.38156772670457445
13
-4.565
23
0.22933161594775367
33
0.38156772670457445
0
3DFACE
5
10120
330
10057
100
AcDbEntity
100
AcDbFace
8
CELIK_KIRIS_KOLON
10
-4.565
20
0.09933161594775367
30
0.49156772670457444
11
-4.435
21
0.09933161594775367
31
0.49156772670457444
12
-4.435
22
0.22933161594775367
32
0.49156772670457444
13
-4.565
23
0.22933161594775367
33
0.49156772670457444
0
3DFACE
5
10121
330
10057
100
AcDbEntity
100
AcDbFace
8
CELIK_KIRIS_KOLON
10
-4.565
20
0.09933161594775367
30
0.38156772670457445
11
-4.435
21
0.09933161594775367
31
0.38156772670457445
12
-4.435
22
0.09933161594775367
32
0.49156772670457444
13
-4.565
23
0.09933161594775367
33
0.49156772670457444
0
3DFACE
5
10122
330
10057
100
AcDbEntity
100
AcDbFace
8
CELIK_KIRIS_KOLON
10
-4.565
20
0.22933161594775367
30
0.38156772670457445
11
-4.435
21
0.22933161594775367
31
0.38156772670457445
12
-4.435
22
0.22933161594775367
32
0.49156772670457444
13
-4.565
23
0.22933161594775367
33
0.49156772670457444
0
3DFACE
5
10123
330
10057
100
AcDbEntity
100
AcDbFace
8
CELIK_KIRIS_KOLON
10
-4.565
20
0.09933161594775367
30
0.38156772670457445
11
-4.565
21
0.22933161594775367
31
0.38156772670457445
12
-4.565
22
0.22933161594775367
32
0.49156772670457444
13
-4.565
23
0.09933161594775367
33
0.49156772670457444
0
3DFACE
5
10124
330
10057
100
AcDbEntity
100
AcDbFace
8
CELIK_KIRIS_KOLON
10
-4.435
20
0.09933161594775367
30
0.38156772670457445
11
-4.435
21
0.22933161594775367
31
0.38156772670457445
12
-4.435
22
0.22933161594775367
32
0.49156772670457444
13
-4.435
23
0.09933161594775367
33
0.49156772670457444
0
LINE
5
10125
330
10057
100
AcDbEntity
100
AcDbLine
8
CELIK_KIRIS_KOLON
10
-4.565
20
0.09933161594775367
30
0.38156772670457445
11
-4.435
21
0.09933161594775367
31
0.38156772670457445
0
LINE
5
10126
330
10057
100
AcDbEntity
100
AcDbLine
8
CELIK_KIRIS_KOLON
10
-4.435
20
0.09933161594775367
30
0.38156772670457445
11
-4.435
21
0.22933161594775367
31
0.38156772670457445
0
LINE
5
10127
330
10057
100
AcDbEntity
100
AcDbLine
8
CELIK_KIRIS_KOLON
10
-4.435
20
0.22933161594775367
30
0.38156772670457445
11
-4.565
21
0.22933161594775367
31
0.38156772670457445
0
LINE
5
10128
330
10057
100
AcDbEntity
100
AcDbLine
8
CELIK_KIRIS_KOLON
10
-4.565
20
0.22933161594775367
30
0.38156772670457445
11
-4.565
21
0.09933161594775367
31
0.38156772670457445
0
LINE
5
10129
330
10057
100
AcDbEntity
100
AcDbLine
8
CELIK_KIRIS_KOLON
10
-4.565
20
0.09933161594775367
30
0.49156772670457444
11
-4.435
21
0.09933161594775367
31
0.49156772670457444
0
LINE
5
1012A
330
10057
100
AcDbEntity
100
AcDbLine
8
CELIK_KIRIS_KOLON
10
-4.435
20
0.09933161594775367
30
0.49156772670457444
11
-4.435
21
0.22933161594775367
31
0.49156772670457444
0
LINE
5
1012B
330
10057
100
AcDbEntity
100
AcDbLine
8
CELIK_KIRIS_KOLON
10
-4.435
20
0.22933161594775367
30
0.49156772670457444
11
-4.565
21
0.22933161594775367
31
0.49156772670457444
0
LINE
5
1012C
330
10057
100
AcDbEntity
100
AcDbLine
8
CELIK_KIRIS_KOLON
10
-4.565
20
0.22933161594775367
30
0.49156772670457444
11
-4.565
21
0.09933161594775367
31
0.49156772670457444
0
LINE
5
1012D
330
10057
100
AcDbEntity
100
AcDbLine
8
CELIK_KIRIS_KOLON
10
-4.565
20
0.09933161594775367
30
0.38156772670457445
11
-4.565
21
0.09933161594775367
31
0.49156772670457444
0
LINE
5
1012E
330
10057
100
AcDbEntity
100
AcDbLine
8
CELIK_KIRIS_KOLON
10
-4.435
20
0.09933161594775367
30
0.38156772670457445
11
-4.435
21
0.09933161594775367
31
0.49156772670457444
0
LINE
5
1012F
330
10057
100
AcDbEntity
100
AcDbLine
8
CELIK_KIRIS_KOLON
10
-4.435
20
0.22933161594775367
30
0.38156772670457445
11
-4.435
21
0.22933161594775367
31
0.49156772670457444
0
LINE
5
10130
330
10057
100
AcDbEntity
100
AcDbLine
8
CELIK_KIRIS_KOLON
10
-4.565
20
0.22933161594775367
30
0.38156772670457445
11
-4.565
21
0.22933161594775367
31
0.49156772670457444
0
3DFACE
5
1013F
330
10057
100
AcDbEntity
100
AcDbFace
8
CELIK_KIRIS_KOLON
10
-3.57
20
0.23864853865045982
30
-0.08308504678941936
11
-3.43
21
0.23864853865045982
31
-0.08308504678941936
12
-3.43
22
-0.08308504678941932
32
0.23864853865045982
13
-3.57
23
-0.08308504678941932
33
0.23864853865045982
0
3DFACE
5
10140
330
10057
100
AcDbEntity
100
AcDbFace
8
CELIK_KIRIS_KOLON
10
-3.561
20
0.09899494936611666
30
0.0565685424949238
11
-3.549
21
0.09899494936611666
31
0.0565685424949238
12
-3.549
22
0.23405234457274723
32
0.27647875144394
13
-3.561
23
0.23405234457274723
33
0.27647875144394
0
3DFACE
5
10141
330
10057
100
AcDbEntity
100
AcDbFace
8
CELIK_KIRIS_KOLON
10
-3.451
20
0.09899494936611666
30
0.0565685424949238
11
-3.439
21
0.09899494936611666
31
0.0565685424949238
12
-3.439
22
0.23405234457274723
32
0.27647875144394
13
-3.451
23
0.23405234457274723
33
0.27647875144394
0
3DFACE
5
1016E
330
10057
100
AcDbEntity
100
AcDbFace
8
CELIK_KIRIS_KOLON
10
-3.565
20
0.37156772670457444
30
0.10933161594775359
11
-3.435
21
0.37156772670457444
31
0.10933161594775359
12
-3.435
22
0.5015677267045744
32
0.10933161594775359
13
-3.565
23
0.5015677267045744
33
0.10933161594775359
0
3DFACE
5
1016F
330
10057
100
AcDbEntity
100
AcDbFace
8
CELIK_KIRIS_KOLON
10
-3.565
20
0.37156772670457444
30
0.21933161594775358
11
-3.435
21
0.37156772670457444
31
0.21933161594775358
12
-3.435
22
0.5015677267045744
32
0.21933161594775358
13
-3.565
23
0.5015677267045744
33
0.21933161594775358
0
3DFACE
5
10170
330
10057
100
AcDbEntity
100
AcDbFace
8
CELIK_KIRIS_KOLON
10
-3.565
20
0.37156772670457444
30
0.10933161594775359
11
-3.435
21
0.37156772670457444
31
0.10933161594775359
12
-3.435
22
0.37156772670457444
32
0.21933161594775358
13
-3.565
23
0.37156772670457444
33
0.21933161594775358
0
3DFACE
5
10171
330
10057
100
AcDbEntity
100
AcDbFace
8
CELIK_KIRIS_KOLON
10
-3.565
20
0.5015677267045744
30
0.10933161594775359
11
-3.435
21
0.5015677267045744
31
0.10933161594775359
12
-3.435
22
0.5015677267045744
32
0.21933161594775358
13
-3.565
23
0.5015677267045744
33
0.21933161594775358
0
3DFACE
5
10172
330
10057
100
AcDbEntity
100
AcDbFace
8
CELIK_KIRIS_KOLON
10
-3.565
20
0.37156772670457444
30
0.10933161594775359
11
-3.565
21
0.5015677267045744
31
0.10933161594775359
12
-3.565
22
0.5015677267045744
32
0.21933161594775358
13
-3.565
23
0.37156772670457444
33
0.21933161594775358
0
3DFACE
5
10173
330
10057
100
AcDbEntity
100
AcDbFace
8
CELIK_KIRIS_KOLON
10
-3.435
20
0.37156772670457444
30
0.10933161594775359
11
-3.435
21
0.5015677267045744
31
0.10933161594775359
12
-3.435
22
0.5015677267045744
32
0.21933161594775358
13
-3.435
23
0.37156772670457444
33
0.21933161594775358
0
LINE
5
10174
330
10057
100
AcDbEntity
100
AcDbLine
8
CELIK_KIRIS_KOLON
10
-3.565
20
0.37156772670457444
30
0.10933161594775359
11
-3.435
21
0.37156772670457444
31
0.10933161594775359
0
LINE
5
10175
330
10057
100
AcDbEntity
100
AcDbLine
8
CELIK_KIRIS_KOLON
10
-3.435
20
0.37156772670457444
30
0.10933161594775359
11
-3.435
21
0.5015677267045744
31
0.10933161594775359
0
LINE
5
10176
330
10057
100
AcDbEntity
100
AcDbLine
8
CELIK_KIRIS_KOLON
10
-3.435
20
0.5015677267045744
30
0.10933161594775359
11
-3.565
21
0.5015677267045744
31
0.10933161594775359
0
LINE
5
10177
330
10057
100
AcDbEntity
100
AcDbLine
8
CELIK_KIRIS_KOLON
10
-3.565
20
0.5015677267045744
30
0.10933161594775359
11
-3.565
21
0.37156772670457444
31
0.10933161594775359
0
LINE
5
10178
330
10057
100
AcDbEntity
100
AcDbLine
8
CELIK_KIRIS_KOLON
10
-3.565
20
0.37156772670457444
30
0.21933161594775358
11
-3.435
21
0.37156772670457444
31
0.21933161594775358
0
LINE
5
10179
330
10057
100
AcDbEntity
100
AcDbLine
8
CELIK_KIRIS_KOLON
10
-3.435
20
0.37156772670457444
30
0.21933161594775358
11
-3.435
21
0.5015677267045744
31
0.21933161594775358
0
LINE
5
1017A
330
10057
100
AcDbEntity
100
AcDbLine
8
CELIK_KIRIS_KOLON
10
-3.435
20
0.5015677267045744
30
0.21933161594775358
11
-3.565
21
0.5015677267045744
31
0.21933161594775358
0
LINE
5
1017B
330
10057
100
AcDbEntity
100
AcDbLine
8
CELIK_KIRIS_KOLON
10
-3.565
20
0.5015677267045744
30
0.21933161594775358
11
-3.565
21
0.37156772670457444
31
0.21933161594775358
0
LINE
5
1017C
330
10057
100
AcDbEntity
100
AcDbLine
8
CELIK_KIRIS_KOLON
10
-3.565
20
0.37156772670457444
30
0.10933161594775359
11
-3.565
21
0.37156772670457444
31
0.21933161594775358
0
LINE
5
1017D
330
10057
100
AcDbEntity
100
AcDbLine
8
CELIK_KIRIS_KOLON
10
-3.435
20
0.37156772670457444
30
0.10933161594775359
11
-3.435
21
0.37156772670457444
31
0.21933161594775358
0
LINE
5
1017E
330
10057
100
AcDbEntity
100
AcDbLine
8
CELIK_KIRIS_KOLON
10
-3.435
20
0.5015677267045744
30
0.10933161594775359
11
-3.435
21
0.5015677267045744
31
0.21933161594775358
0
LINE
5
1017F
330
10057
100
AcDbEntity
100
AcDbLine
8
CELIK_KIRIS_KOLON
10
-3.565
20
0.5015677267045744
30
0.10933161594775359
11
-3.565
21
0.5015677267045744
31
0.21933161594775358
0
3DFACE
5
10180
330
10057
100
AcDbEntity
100
AcDbFace
8
CELIK_KIRIS_KOLON
10
-3.565
20
0.09933161594775367
30
0.38156772670457445
11
-3.435
21
0.09933161594775367
31
0.38156772670457445
12
-3.435
22
0.22933161594775367
32
0.38156772670457445
13
-3.565
23
0.22933161594775367
33
0.38156772670457445
0
3DFACE
5
10181
330
10057
100
AcDbEntity
100
AcDbFace
8
CELIK_KIRIS_KOLON
10
-3.565
20
0.09933161594775367
30
0.49156772670457444
11
-3.435
21
0.09933161594775367
31
0.49156772670457444
12
-3.435
22
0.22933161594775367
32
0.49156772670457444
13
-3.565
23
0.22933161594775367
33
0.49156772670457444
0
3DFACE
5
10182
330
10057
100
AcDbEntity
100
AcDbFace
8
CELIK_KIRIS_KOLON
10
-3.565
20
0.09933161594775367
30
0.38156772670457445
11
-3.435
21
0.09933161594775367
31
0.38156772670457445
12
-3.435
22
0.09933161594775367
32
0.49156772670457444
13
-3.565
23
0.09933161594775367
33
0.49156772670457444
0
3DFACE
5
10183
330
10057
100
AcDbEntity
100
AcDbFace
8
CELIK_KIRIS_KOLON
10
-3.565
20
0.22933161594775367
30
0.38156772670457445
11
-3.435
21
0.22933161594775367
31
0.38156772670457445
12
-3.435
22
0.22933161594775367
32
0.49156772670457444
13
-3.565
23
0.22933161594775367
33
0.49156772670457444
0
3DFACE
5
10184
330
10057
100
AcDbEntity
100
AcDbFace
8
CELIK_KIRIS_KOLON
10
-3.565
20
0.09933161594775367
30
0.38156772670457445
11
-3.565
21
0.22933161594775367
31
0.38156772670457445
12
-3.565
22
0.22933161594775367
32
0.49156772670457444
13
-3.565
23
0.09933161594775367
33
0.49156772670457444
0
3DFACE
5
10185
330
10057
100
AcDbEntity
100
AcDbFace
8
CELIK_KIRIS_KOLON
10
-3.435
20
0.09933161594775367
30
0.38156772670457445
11
-3.435
21
0.22933161594775367
31
0.38156772670457445
12
-3.435
22
0.22933161594775367
32
0.49156772670457444
13
-3.435
23
0.09933161594775367
33
0.49156772670457444
0
LINE
5
10186
330
10057
100
AcDbEntity
100
AcDbLine
8
CELIK_KIRIS_KOLON
10
-3.565
20
0.09933161594775367
30
0.38156772670457445
11
-3.435
21
0.09933161594775367
31
0.38156772670457445
0
LINE
5
10187
330
10057
100
AcDbEntity
100
AcDbLine
8
CELIK_KIRIS_KOLON
10
-3.435
20
0.09933161594775367
30
0.38156772670457445
11
-3.435
21
0.22933161594775367
31
0.38156772670457445
0
LINE
5
10188
330
10057
100
AcDbEntity
100
AcDbLine
8
CELIK_KIRIS_KOLON
10
-3.435
20
0.22933161594775367
30
0.38156772670457445
11
-3.565
21
0.22933161594775367
31
0.38156772670457445
0
LINE
5
10189
330
10057
100
AcDbEntity
100
AcDbLine
8
CELIK_KIRIS_KOLON
10
-3.565
20
0.22933161594775367
30
0.38156772670457445
11
-3.565
21
0.09933161594775367
31
0.38156772670457445
0
LINE
5
1018A
330
10057
100
AcDbEntity
100
AcDbLine
8
CELIK_KIRIS_KOLON
10
-3.565
20
0.09933161594775367
30
0.49156772670457444
11
-3.435
21
0.09933161594775367
31
0.49156772670457444
0
LINE
5
1018B
330
10057
100
AcDbEntity
100
AcDbLine
8
CELIK_KIRIS_KOLON
10
-3.435
20
0.09933161594775367
30
0.49156772670457444
11
-3.435
21
0.22933161594775367
31
0.49156772670457444
0
LINE
5
1018C
330
10057
100
AcDbEntity
100
AcDbLine
8
CELIK_KIRIS_KOLON
10
-3.435
20
0.22933161594775367
30
0.49156772670457444
11
-3.565
21
0.22933161594775367
31
0.49156772670457444
0
LINE
5
1018D
330
10057
100
AcDbEntity
100
AcDbLine
8
CELIK_KIRIS_KOLON
10
-3.565
20
0.22933161594775367
30
0.49156772670457444
11
-3.565
21
0.09933161594775367
31
0.49156772670457444
0
LINE
5
1018E
330
10057
100
AcDbEntity
100
AcDbLine
8
CELIK_KIRIS_KOLON
10
-3.565
20
0.09933161594775367
30
0.38156772670457445
11
-3.565
21
0.09933161594775367
31
0.49156772670457444
0
LINE
5
1018F
330
10057
100
AcDbEntity
100
AcDbLine
8
CELIK_KIRIS_KOLON
10
-3.435
20
0.09933161594775367
30
0.38156772670457445
11
-3.435
21
0.09933161594775367
31
0.49156772670457444
0
LINE
5
10190
330
10057
100
AcDbEntity
100
AcDbLine
8
CELIK_KIRIS_KOLON
10
-3.435
20
0.22933161594775367
30
0.38156772670457445
11
-3.435
21
0.22933161594775367
31
0.49156772670457444
0
LINE
5
10191
330
10057
100
AcDbEntity
100
AcDbLine
8
CELIK_KIRIS_KOLON
10
-3.565
20
0.22933161594775367
30
0.38156772670457445
11
-3.565
21
0.22933161594775367
31
0.49156772670457444
0
3DFACE
5
10193
330
10057
100
AcDbEntity
100
AcDbFace
8
CELIK_KIRIS_KOLON
10
-5
20
-0.05
30
0.55
11
-3
21
-0.05
31
0.55
12
-3
22
0.05
32
0.55
13
-5
23
0.05
33
0.55
0
3DFACE
5
10194
330
10057
100
AcDbEntity
100
AcDbFace
8
CELIK_KIRIS_KOLON
10
-5
20
-0.05
30
0.65
11
-3
21
-0.05
31
0.65
12
-3
22
0.05
32
0.65
13
-5
23
0.05
33
0.65
0
3DFACE
5
10195
330
10057
100
AcDbEntity
100
AcDbFace
8
CELIK_KIRIS_KOLON
10
-5
20
-0.05
30
0.55
11
-3
21
-0.05
31
0.55
12
-3
22
-0.05
32
0.65
13
-5
23
-0.05
33
0.65
0
3DFACE
5
10196
330
10057
100
AcDbEntity
100
AcDbFace
8
CELIK_KIRIS_KOLON
10
-5
20
0.05
30
0.55
11
-3
21
0.05
31
0.55
12
-3
22
0.05
32
0.65
13
-5
23
0.05
33
0.65
0
3DFACE
5
10197
330
10057
100
AcDbEntity
100
AcDbFace
8
CELIK_KIRIS_KOLON
10
-5
20
-0.05
30
0.55
11
-5
21
0.05
31
0.55
12
-5
22
0.05
32
0.65
13
-5
23
-0.05
33
0.65
0
3DFACE
5
10198
330
10057
100
AcDbEntity
100
AcDbFace
8
CELIK_KIRIS_KOLON
10
-3
20
-0.05
30
0.55
11
-3
21
0.05
31
0.55
12
-3
22
0.05
32
0.65
13
-3
23
-0.05
33
0.65
0
LINE
5
10199
330
10057
100
AcDbEntity
100
AcDbLine
8
CELIK_KIRIS_KOLON
10
-5
20
-0.05
30
0.55
11
-3
21
-0.05
31
0.55
0
LINE
5
1019A
330
10057
100
AcDbEntity
100
AcDbLine
8
CELIK_KIRIS_KOLON
10
-3
20
-0.05
30
0.55
11
-3
21
0.05
31
0.55
0
LINE
5
1019B
330
10057
100
AcDbEntity
100
AcDbLine
8
CELIK_KIRIS_KOLON
10
-3
20
0.05
30
0.55
11
-5
21
0.05
31
0.55
0
LINE
5
1019C
330
10057
100
AcDbEntity
100
AcDbLine
8
CELIK_KIRIS_KOLON
10
-5
20
0.05
30
0.55
11
-5
21
-0.05
31
0.55
0
LINE
5
1019D
330
10057
100
AcDbEntity
100
AcDbLine
8
CELIK_KIRIS_KOLON
10
-5
20
-0.05
30
0.65
11
-3
21
-0.05
31
0.65
0
LINE
5
1019E
330
10057
100
AcDbEntity
100
AcDbLine
8
CELIK_KIRIS_KOLON
10
-3
20
-0.05
30
0.65
11
-3
21
0.05
31
0.65
0
LINE
5
1019F
330
10057
100
AcDbEntity
100
AcDbLine
8
CELIK_KIRIS_KOLON
10
-3
20
0.05
30
0.65
11
-5
21
0.05
31
0.65
0
LINE
5
101A0
330
10057
100
AcDbEntity
100
AcDbLine
8
CELIK_KIRIS_KOLON
10
-5
20
0.05
30
0.65
11
-5
21
-0.05
31
0.65
0
LINE
5
101A1
330
10057
100
AcDbEntity
100
AcDbLine
8
CELIK_KIRIS_KOLON
10
-5
20
-0.05
30
0.55
11
-5
21
-0.05
31
0.65
0
LINE
5
101A2
330
10057
100
AcDbEntity
100
AcDbLine
8
CELIK_KIRIS_KOLON
10
-3
20
-0.05
30
0.55
11
-3
21
-0.05
31
0.65
0
LINE
5
101A3
330
10057
100
AcDbEntity
100
AcDbLine
8
CELIK_KIRIS_KOLON
10
-3
20
0.05
30
0.55
11
-3
21
0.05
31
0.65
0
LINE
5
101A4
330
10057
100
AcDbEntity
100
AcDbLine
8
CELIK_KIRIS_KOLON
10
-5
20
0.05
30
0.55
11
-5
21
0.05
31
0.65
0
3DFACE
5
101B2
330
10057
100
AcDbEntity
100
AcDbFace
8
CELIK_KIRIS_KOLON
10
6.115844123938678
20
0.3681976807639745
30
-0.08308504678941936
11
6.2474010908487045
21
0.3203148606983809
31
-0.08308504678941936
12
6.137361723843876
22
0.01798418460153392
32
0.23864853865045982
13
6.005804756933849
23
0.06586700466712755
33
0.23864853865045982
0
3DFACE
5
101B3
330
10057
100
AcDbEntity
100
AcDbFace
8
CELIK_KIRIS_KOLON
10
6.076537016902776
20
0.23388805215728026
30
0.0565685424949238
11
6.0878133283522065
21
0.22978381043737223
31
0.0565685424949238
12
6.13400567801797
22
0.3566962480956091
32
0.27647875144394
13
6.122729366568539
23
0.36080048981551716
33
0.27647875144394
0
3DFACE
5
101B4
330
10057
100
AcDbEntity
100
AcDbFace
8
CELIK_KIRIS_KOLON
10
6.179903205189226
20
0.1962658363914567
30
0.0565685424949238
11
6.191179516638656
21
0.19216159467154867
31
0.0565685424949238
12
6.23737186630442
22
0.3190740323297856
32
0.27647875144394
13
6.226095554854989
23
0.32317827404969357
33
0.27647875144394
0
3DFACE
5
101E1
330
10057
100
AcDbEntity
100
AcDbFace
8
CELIK_KIRIS_KOLON
10
6.184314956458859
20
0.46523947125756776
30
0.10933161594775359
11
6.31431495645886
21
0.46523947125756776
31
0.10933161594775359
12
6.31431495645886
22
0.5952394712575677
32
0.10933161594775359
13
6.184314956458859
23
0.5952394712575677
33
0.10933161594775359
0
3DFACE
5
101E2
330
10057
100
AcDbEntity
100
AcDbFace
8
CELIK_KIRIS_KOLON
10
6.184314956458859
20
0.46523947125756776
30
0.21933161594775358
11
6.31431495645886
21
0.46523947125756776
31
0.21933161594775358
12
6.31431495645886
22
0.5952394712575677
32
0.21933161594775358
13
6.184314956458859
23
0.5952394712575677
33
0.21933161594775358
0
3DFACE
5
101E3
330
10057
100
AcDbEntity
100
AcDbFace
8
CELIK_KIRIS_KOLON
10
6.184314956458859
20
0.46523947125756776
30
0.10933161594775359
11
6.31431495645886
21
0.46523947125756776
31
0.10933161594775359
12
6.31431495645886
22
0.46523947125756776
32
0.21933161594775358
13
6.184314956458859
23
0.46523947125756776
33
0.21933161594775358
0
3DFACE
5
101E4
330
10057
100
AcDbEntity
100
AcDbFace
8
CELIK_KIRIS_KOLON
10
6.184314956458859
20
0.5952394712575677
30
0.10933161594775359
11
6.31431495645886
21
0.5952394712575677
31
0.10933161594775359
12
6.31431495645886
22
0.5952394712575677
32
0.21933161594775358
13
6.184314956458859
23
0.5952394712575677
33
0.21933161594775358
0
3DFACE
5
101E5
330
10057
100
AcDbEntity
100
AcDbFace
8
CELIK_KIRIS_KOLON
10
6.184314956458859
20
0.46523947125756776
30
0.10933161594775359
11
6.184314956458859
21
0.5952394712575677
31
0.10933161594775359
12
6.184314956458859
22
0.5952394712575677
32
0.21933161594775358
13
6.184314956458859
23
0.46523947125756776
33
0.21933161594775358
0
3DFACE
5
101E6
330
10057
100
AcDbEntity
100
AcDbFace
8
CELIK_KIRIS_KOLON
10
6.31431495645886
20
0.46523947125756776
30
0.10933161594775359
11
6.31431495645886
21
0.5952394712575677
31
0.10933161594775359
12
6.31431495645886
22
0.5952394712575677
32
0.21933161594775358
13
6.31431495645886
23
0.46523947125756776
33
0.21933161594775358
0
LINE
5
101E7
330
10057
100
AcDbEntity
100
AcDbLine
8
CELIK_KIRIS_KOLON
10
6.184314956458859
20
0.46523947125756776
30
0.10933161594775359
11
6.31431495645886
21
0.46523947125756776
31
0.10933161594775359
0
LINE
5
101E8
330
10057
100
AcDbEntity
100
AcDbLine
8
CELIK_KIRIS_KOLON
10
6.31431495645886
20
0.46523947125756776
30
0.10933161594775359
11
6.31431495645886
21
0.5952394712575677
31
0.10933161594775359
0
LINE
5
101E9
330
10057
100
AcDbEntity
100
AcDbLine
8
CELIK_KIRIS_KOLON
10
6.31431495645886
20
0.5952394712575677
30
0.10933161594775359
11
6.184314956458859
21
0.5952394712575677
31
0.10933161594775359
0
LINE
5
101EA
330
10057
100
AcDbEntity
100
AcDbLine
8
CELIK_KIRIS_KOLON
10
6.184314956458859
20
0.5952394712575677
30
0.10933161594775359
11
6.184314956458859
21
0.46523947125756776
31
0.10933161594775359
0
LINE
5
101EB
330
10057
100
AcDbEntity
100
AcDbLine
8
CELIK_KIRIS_KOLON
10
6.184314956458859
20
0.46523947125756776
30
0.21933161594775358
11
6.31431495645886
21
0.46523947125756776
31
0.21933161594775358
0
LINE
5
101EC
330
10057
100
AcDbEntity
100
AcDbLine
8
CELIK_KIRIS_KOLON
10
6.31431495645886
20
0.46523947125756776
30
0.21933161594775358
11
6.31431495645886
21
0.5952394712575677
31
0.21933161594775358
0
LINE
5
101ED
330
10057
100
AcDbEntity
100
AcDbLine
8
CELIK_KIRIS_KOLON
10
6.31431495645886
20
0.5952394712575677
30
0.21933161594775358
11
6.184314956458859
21
0.5952394712575677
31
0.21933161594775358
0
LINE
5
101EE
330
10057
100
AcDbEntity
100
AcDbLine
8
CELIK_KIRIS_KOLON
10
6.184314956458859
20
0.5952394712575677
30
0.21933161594775358
11
6.184314956458859
21
0.46523947125756776
31
0.21933161594775358
0
LINE
5
101EF
330
10057
100
AcDbEntity
100
AcDbLine
8
CELIK_KIRIS_KOLON
10
6.184314956458859
20
0.46523947125756776
30
0.10933161594775359
11
6.184314956458859
21
0.46523947125756776
31
0.21933161594775358
0
LINE
5
101F0
330
10057
100
AcDbEntity
100
AcDbLine
8
CELIK_KIRIS_KOLON
10
6.31431495645886
20
0.46523947125756776
30
0.10933161594775359
11
6.31431495645886
21
0.46523947125756776
31
0.21933161594775358
0
LINE
5
101F1
330
10057
100
AcDbEntity
100
AcDbLine
8
CELIK_KIRIS_KOLON
10
6.31431495645886
20
0.5952394712575677
30
0.10933161594775359
11
6.31431495645886
21
0.5952394712575677
31
0.21933161594775358
0
LINE
5
101F2
330
10057
100
AcDbEntity
100
AcDbLine
8
CELIK_KIRIS_KOLON
10
6.184314956458859
20
0.5952394712575677
30
0.10933161594775359
11
6.184314956458859
21
0.5952394712575677
31
0.21933161594775358
0
3DFACE
5
101F3
330
10057
100
AcDbEntity
100
AcDbFace
8
CELIK_KIRIS_KOLON
10
6.091204722839389
20
0.20942120686792803
30
0.38156772670457445
11
6.221204722839389
21
0.20942120686792803
31
0.38156772670457445
12
6.221204722839389
22
0.33942120686792804
32
0.38156772670457445
13
6.091204722839389
23
0.33942120686792804
33
0.38156772670457445
0
3DFACE
5
101F4
330
10057
100
AcDbEntity
100
AcDbFace
8
CELIK_KIRIS_KOLON
10
6.091204722839389
20
0.20942120686792803
30
0.49156772670457444
11
6.221204722839389
21
0.20942120686792803
31
0.49156772670457444
12
6.221204722839389
22
0.33942120686792804
32
0.49156772670457444
13
6.091204722839389
23
0.33942120686792804
33
0.49156772670457444
0
3DFACE
5
101F5
330
10057
100
AcDbEntity
100
AcDbFace
8
CELIK_KIRIS_KOLON
10
6.091204722839389
20
0.20942120686792803
30
0.38156772670457445
11
6.221204722839389
21
0.20942120686792803
31
0.38156772670457445
12
6.221204722839389
22
0.20942120686792803
32
0.49156772670457444
13
6.091204722839389
23
0.20942120686792803
33
0.49156772670457444
0
3DFACE
5
101F6
330
10057
100
AcDbEntity
100
AcDbFace
8
CELIK_KIRIS_KOLON
10
6.091204722839389
20
0.33942120686792804
30
0.38156772670457445
11
6.221204722839389
21
0.33942120686792804
31
0.38156772670457445
12
6.221204722839389
22
0.33942120686792804
32
0.49156772670457444
13
6.091204722839389
23
0.33942120686792804
33
0.49156772670457444
0
3DFACE
5
101F7
330
10057
100
AcDbEntity
100
AcDbFace
8
CELIK_KIRIS_KOLON
10
6.091204722839389
20
0.20942120686792803
30
0.38156772670457445
11
6.091204722839389
21
0.33942120686792804
31
0.38156772670457445
12
6.091204722839389
22
0.33942120686792804
32
0.49156772670457444
13
6.091204722839389
23
0.20942120686792803
33
0.49156772670457444
0
3DFACE
5
101F8
330
10057
100
AcDbEntity
100
AcDbFace
8
CELIK_KIRIS_KOLON
10
6.221204722839389
20
0.20942120686792803
30
0.38156772670457445
11
6.221204722839389
21
0.33942120686792804
31
0.38156772670457445
12
6.221204722839389
22
0.33942120686792804
32
0.49156772670457444
13
6.221204722839389
23
0.20942120686792803
33
0.49156772670457444
0
LINE
5
101F9
330
10057
100
AcDbEntity
100
AcDbLine
8
CELIK_KIRIS_KOLON
10
6.091204722839389
20
0.20942120686792803
30
0.38156772670457445
11
6.221204722839389
21
0.20942120686792803
31
0.38156772670457445
0
LINE
5
101FA
330
10057
100
AcDbEntity
100
AcDbLine
8
CELIK_KIRIS_KOLON
10
6.221204722839389
20
0.20942120686792803
30
0.38156772670457445
11
6.221204722839389
21
0.33942120686792804
31
0.38156772670457445
0
LINE
5
101FB
330
10057
100
AcDbEntity
100
AcDbLine
8
CELIK_KIRIS_KOLON
10
6.221204722839389
20
0.33942120686792804
30
0.38156772670457445
11
6.091204722839389
21
0.33942120686792804
31
0.38156772670457445
0
LINE
5
101FC
330
10057
100
AcDbEntity
100
AcDbLine
8
CELIK_KIRIS_KOLON
10
6.091204722839389
20
0.33942120686792804
30
0.38156772670457445
11
6.091204722839389
21
0.20942120686792803
31
0.38156772670457445
0
LINE
5
101FD
330
10057
100
AcDbEntity
100
AcDbLine
8
CELIK_KIRIS_KOLON
10
6.091204722839389
20
0.20942120686792803
30
0.49156772670457444
11
6.221204722839389
21
0.20942120686792803
31
0.49156772670457444
0
LINE
5
101FE
330
10057
100
AcDbEntity
100
AcDbLine
8
CELIK_KIRIS_KOLON
10
6.221204722839389
20
0.20942120686792803
30
0.49156772670457444
11
6.221204722839389
21
0.33942120686792804
31
0.49156772670457444
0
LINE
5
101FF
330
10057
100
AcDbEntity
100
AcDbLine
8
CELIK_KIRIS_KOLON
10
6.221204722839389
20
0.33942120686792804
30
0.49156772670457444
11
6.091204722839389
21
0.33942120686792804
31
0.49156772670457444
0
LINE
5
10200
330
10057
100
AcDbEntity
100
AcDbLine
8
CELIK_KIRIS_KOLON
10
6.091204722839389
20
0.33942120686792804
30
0.49156772670457444
11
6.091204722839389
21
0.20942120686792803
31
0.49156772670457444
0
LINE
5
10201
330
10057
100
AcDbEntity
100
AcDbLine
8
CELIK_KIRIS_KOLON
10
6.091204722839389
20
0.20942120686792803
30
0.38156772670457445
11
6.091204722839389
21
0.20942120686792803
31
0.49156772670457444
0
LINE
5
10202
330
10057
100
AcDbEntity
100
AcDbLine
8
CELIK_KIRIS_KOLON
10
6.221204722839389
20
0.20942120686792803
30
0.38156772670457445
11
6.221204722839389
21
0.20942120686792803
31
0.49156772670457444
0
LINE
5
10203
330
10057
100
AcDbEntity
100
AcDbLine
8
CELIK_KIRIS_KOLON
10
6.221204722839389
20
0.33942120686792804
30
0.38156772670457445
11
6.221204722839389
21
0.33942120686792804
31
0.49156772670457444
0
LINE
5
10204
330
10057
100
AcDbEntity
100
AcDbLine
8
CELIK_KIRIS_KOLON
10
6.091204722839389
20
0.33942120686792804
30
0.38156772670457445
11
6.091204722839389
21
0.33942120686792804
31
0.49156772670457444
0
3DFACE
5
10213
330
10057
100
AcDbEntity
100
AcDbFace
8
CELIK_KIRIS_KOLON
10
6.93
20
0.23864853865045982
30
-0.08308504678941936
11
7.07
21
0.23864853865045982
31
-0.08308504678941936
12
7.07
22
-0.08308504678941932
32
0.23864853865045982
13
6.93
23
-0.08308504678941932
33
0.23864853865045982
0
3DFACE
5
10214
330
10057
100
AcDbEntity
100
AcDbFace
8
CELIK_KIRIS_KOLON
10
6.939
20
0.09899494936611666
30
0.0565685424949238
11
6.951
21
0.09899494936611666
31
0.0565685424949238
12
6.951
22
0.23405234457274723
32
0.27647875144394
13
6.939
23
0.23405234457274723
33
0.27647875144394
0
3DFACE
5
10215
330
10057
100
AcDbEntity
100
AcDbFace
8
CELIK_KIRIS_KOLON
10
7.049
20
0.09899494936611666
30
0.0565685424949238
11
7.061
21
0.09899494936611666
31
0.0565685424949238
12
7.061
22
0.23405234457274723
32
0.27647875144394
13
7.049
23
0.23405234457274723
33
0.27647875144394
0
3DFACE
5
10242
330
10057
100
AcDbEntity
100
AcDbFace
8
CELIK_KIRIS_KOLON
10
6.935
20
0.37156772670457444
30
0.10933161594775359
11
7.065
21
0.37156772670457444
31
0.10933161594775359
12
7.065
22
0.5015677267045744
32
0.10933161594775359
13
6.935
23
0.5015677267045744
33
0.10933161594775359
0
3DFACE
5
10243
330
10057
100
AcDbEntity
100
AcDbFace
8
CELIK_KIRIS_KOLON
10
6.935
20
0.37156772670457444
30
0.21933161594775358
11
7.065
21
0.37156772670457444
31
0.21933161594775358
12
7.065
22
0.5015677267045744
32
0.21933161594775358
13
6.935
23
0.5015677267045744
33
0.21933161594775358
0
3DFACE
5
10244
330
10057
100
AcDbEntity
100
AcDbFace
8
CELIK_KIRIS_KOLON
10
6.935
20
0.37156772670457444
30
0.10933161594775359
11
7.065
21
0.37156772670457444
31
0.10933161594775359
12
7.065
22
0.37156772670457444
32
0.21933161594775358
13
6.935
23
0.37156772670457444
33
0.21933161594775358
0
3DFACE
5
10245
330
10057
100
AcDbEntity
100
AcDbFace
8
CELIK_KIRIS_KOLON
10
6.935
20
0.5015677267045744
30
0.10933161594775359
11
7.065
21
0.5015677267045744
31
0.10933161594775359
12
7.065
22
0.5015677267045744
32
0.21933161594775358
13
6.935
23
0.5015677267045744
33
0.21933161594775358
0
3DFACE
5
10246
330
10057
100
AcDbEntity
100
AcDbFace
8
CELIK_KIRIS_KOLON
10
6.935
20
0.37156772670457444
30
0.10933161594775359
11
6.935
21
0.5015677267045744
31
0.10933161594775359
12
6.935
22
0.5015677267045744
32
0.21933161594775358
13
6.935
23
0.37156772670457444
33
0.21933161594775358
0
3DFACE
5
10247
330
10057
100
AcDbEntity
100
AcDbFace
8
CELIK_KIRIS_KOLON
10
7.065
20
0.37156772670457444
30
0.10933161594775359
11
7.065
21
0.5015677267045744
31
0.10933161594775359
12
7.065
22
0.5015677267045744
32
0.21933161594775358
13
7.065
23
0.37156772670457444
33
0.21933161594775358
0
LINE
5
10248
330
10057
100
AcDbEntity
100
AcDbLine
8
CELIK_KIRIS_KOLON
10
6.935
20
0.37156772670457444
30
0.10933161594775359
11
7.065
21
0.37156772670457444
31
0.10933161594775359
0
LINE
5
10249
330
10057
100
AcDbEntity
100
AcDbLine
8
CELIK_KIRIS_KOLON
10
7.065
20
0.37156772670457444
30
0.10933161594775359
11
7.065
21
0.5015677267045744
31
0.10933161594775359
0
LINE
5
1024A
330
10057
100
AcDbEntity
100
AcDbLine
8
CELIK_KIRIS_KOLON
10
7.065
20
0.5015677267045744
30
0.10933161594775359
11
6.935
21
0.5015677267045744
31
0.10933161594775359
0
LINE
5
1024B
330
10057
100
AcDbEntity
100
AcDbLine
8
CELIK_KIRIS_KOLON
10
6.935
20
0.5015677267045744
30
0.10933161594775359
11
6.935
21
0.37156772670457444
31
0.10933161594775359
0
LINE
5
1024C
330
10057
100
AcDbEntity
100
AcDbLine
8
CELIK_KIRIS_KOLON
10
6.935
20
0.37156772670457444
30
0.21933161594775358
11
7.065
21
0.37156772670457444
31
0.21933161594775358
0
LINE
5
1024D
330
10057
100
AcDbEntity
100
AcDbLine
8
CELIK_KIRIS_KOLON
10
7.065
20
0.37156772670457444
30
0.21933161594775358
11
7.065
21
0.5015677267045744
31
0.21933161594775358
0
LINE
5
1024E
330
10057
100
AcDbEntity
100
AcDbLine
8
CELIK_KIRIS_KOLON
10
7.065
20
0.5015677267045744
30
0.21933161594775358
11
6.935
21
0.5015677267045744
31
0.21933161594775358
0
LINE
5
1024F
330
10057
100
AcDbEntity
100
AcDbLine
8
CELIK_KIRIS_KOLON
10
6.935
20
0.5015677267045744
30
0.21933161594775358
11
6.935
21
0.37156772670457444
31
0.21933161594775358
0
LINE
5
10250
330
10057
100
AcDbEntity
100
AcDbLine
8
CELIK_KIRIS_KOLON
10
6.935
20
0.37156772670457444
30
0.10933161594775359
11
6.935
21
0.37156772670457444
31
0.21933161594775358
0
LINE
5
10251
330
10057
100
AcDbEntity
100
AcDbLine
8
CELIK_KIRIS_KOLON
10
7.065
20
0.37156772670457444
30
0.10933161594775359
11
7.065
21
0.37156772670457444
31
0.21933161594775358
0
LINE
5
10252
330
10057
100
AcDbEntity
100
AcDbLine
8
CELIK_KIRIS_KOLON
10
7.065
20
0.5015677267045744
30
0.10933161594775359
11
7.065
21
0.5015677267045744
31
0.21933161594775358
0
LINE
5
10253
330
10057
100
AcDbEntity
100
AcDbLine
8
CELIK_KIRIS_KOLON
10
6.935
20
0.5015677267045744
30
0.10933161594775359
11
6.935
21
0.5015677267045744
31
0.21933161594775358
0
3DFACE
5
10254
330
10057
100
AcDbEntity
100
AcDbFace
8
CELIK_KIRIS_KOLON
10
6.935
20
0.09933161594775367
30
0.38156772670457445
11
7.065
21
0.09933161594775367
31
0.38156772670457445
12
7.065
22
0.22933161594775367
32
0.38156772670457445
13
6.935
23
0.22933161594775367
33
0.38156772670457445
0
3DFACE
5
10255
330
10057
100
AcDbEntity
100
AcDbFace
8
CELIK_KIRIS_KOLON
10
6.935
20
0.09933161594775367
30
0.49156772670457444
11
7.065
21
0.09933161594775367
31
0.49156772670457444
12
7.065
22
0.22933161594775367
32
0.49156772670457444
13
6.935
23
0.22933161594775367
33
0.49156772670457444
0
3DFACE
5
10256
330
10057
100
AcDbEntity
100
AcDbFace
8
CELIK_KIRIS_KOLON
10
6.935
20
0.09933161594775367
30
0.38156772670457445
11
7.065
21
0.09933161594775367
31
0.38156772670457445
12
7.065
22
0.09933161594775367
32
0.49156772670457444
13
6.935
23
0.09933161594775367
33
0.49156772670457444
0
3DFACE
5
10257
330
10057
100
AcDbEntity
100
AcDbFace
8
CELIK_KIRIS_KOLON
10
6.935
20
0.22933161594775367
30
0.38156772670457445
11
7.065
21
0.22933161594775367
31
0.38156772670457445
12
7.065
22
0.22933161594775367
32
0.49156772670457444
13
6.935
23
0.22933161594775367
33
0.49156772670457444
0
3DFACE
5
10258
330
10057
100
AcDbEntity
100
AcDbFace
8
CELIK_KIRIS_KOLON
10
6.935
20
0.09933161594775367
30
0.38156772670457445
11
6.935
21
0.22933161594775367
31
0.38156772670457445
12
6.935
22
0.22933161594775367
32
0.49156772670457444
13
6.935
23
0.09933161594775367
33
0.49156772670457444
0
3DFACE
5
10259
330
10057
100
AcDbEntity
100
AcDbFace
8
CELIK_KIRIS_KOLON
10
7.065
20
0.09933161594775367
30
0.38156772670457445
11
7.065
21
0.22933161594775367
31
0.38156772670457445
12
7.065
22
0.22933161594775367
32
0.49156772670457444
13
7.065
23
0.09933161594775367
33
0.49156772670457444
0
LINE
5
1025A
330
10057
100
AcDbEntity
100
AcDbLine
8
CELIK_KIRIS_KOLON
10
6.935
20
0.09933161594775367
30
0.38156772670457445
11
7.065
21
0.09933161594775367
31
0.38156772670457445
0
LINE
5
1025B
330
10057
100
AcDbEntity
100
AcDbLine
8
CELIK_KIRIS_KOLON
10
7.065
20
0.09933161594775367
30
0.38156772670457445
11
7.065
21
0.22933161594775367
31
0.38156772670457445
0
LINE
5
1025C
330
10057
100
AcDbEntity
100
AcDbLine
8
CELIK_KIRIS_KOLON
10
7.065
20
0.22933161594775367
30
0.38156772670457445
11
6.935
21
0.22933161594775367
31
0.38156772670457445
0
LINE
5
1025D
330
10057
100
AcDbEntity
100
AcDbLine
8
CELIK_KIRIS_KOLON
10
6.935
20
0.22933161594775367
30
0.38156772670457445
11
6.935
21
0.09933161594775367
31
0.38156772670457445
0
LINE
5
1025E
330
10057
100
AcDbEntity
100
AcDbLine
8
CELIK_KIRIS_KOLON
10
6.935
20
0.09933161594775367
30
0.49156772670457444
11
7.065
21
0.09933161594775367
31
0.49156772670457444
0
LINE
5
1025F
330
10057
100
AcDbEntity
100
AcDbLine
8
CELIK_KIRIS_KOLON
10
7.065
20
0.09933161594775367
30
0.49156772670457444
11
7.065
21
0.22933161594775367
31
0.49156772670457444
0
LINE
5
10260
330
10057
100
AcDbEntity
100
AcDbLine
8
CELIK_KIRIS_KOLON
10
7.065
20
0.22933161594775367
30
0.49156772670457444
11
6.935
21
0.22933161594775367
31
0.49156772670457444
0
LINE
5
10261
330
10057
100
AcDbEntity
100
AcDbLine
8
CELIK_KIRIS_KOLON
10
6.935
20
0.22933161594775367
30
0.49156772670457444
11
6.935
21
0.09933161594775367
31
0.49156772670457444
0
LINE
5
10262
330
10057
100
AcDbEntity
100
AcDbLine
8
CELIK_KIRIS_KOLON
10
6.935
20
0.09933161594775367
30
0.38156772670457445
11
6.935
21
0.09933161594775367
31
0.49156772670457444
0
LINE
5
10263
330
10057
100
AcDbEntity
100
AcDbLine
8
CELIK_KIRIS_KOLON
10
7.065
20
0.09933161594775367
30
0.38156772670457445
11
7.065
21
0.09933161594775367
31
0.49156772670457444
0
LINE
5
10264
330
10057
100
AcDbEntity
100
AcDbLine
8
CELIK_KIRIS_KOLON
10
7.065
20
0.22933161594775367
30
0.38156772670457445
11
7.065
21
0.22933161594775367
31
0.49156772670457444
0
LINE
5
10265
330
10057
100
AcDbEntity
100
AcDbLine
8
CELIK_KIRIS_KOLON
10
6.935
20
0.22933161594775367
30
0.38156772670457445
11
6.935
21
0.22933161594775367
31
0.49156772670457444
0
3DFACE
5
10274
330
10057
100
AcDbEntity
100
AcDbFace
8
CELIK_KIRIS_KOLON
10
7.7525989091512955
20
0.3203148606983809
30
-0.08308504678941936
11
7.884155876061322
21
0.3681976807639745
31
-0.08308504678941936
12
7.994195243066151
22
0.06586700466712755
32
0.23864853865045982
13
7.862638276156124
23
0.01798418460153392
33
0.23864853865045982
0
3DFACE
5
10275
330
10057
100
AcDbEntity
100
AcDbFace
8
CELIK_KIRIS_KOLON
10
7.808820483361344
20
0.19216159467154867
30
0.0565685424949238
11
7.820096794810774
21
0.1962658363914567
31
0.0565685424949238
12
7.773904445145011
22
0.32317827404969357
32
0.27647875144394
13
7.76262813369558
23
0.3190740323297856
33
0.27647875144394
0
3DFACE
5
10276
330
10057
100
AcDbEntity
100
AcDbFace
8
CELIK_KIRIS_KOLON
10
7.9121866716477935
20
0.22978381043737223
30
0.0565685424949238
11
7.923462983097224
21
0.23388805215728026
31
0.0565685424949238
12
7.877270633431461
22
0.36080048981551716
32
0.27647875144394
13
7.86599432198203
23
0.3566962480956091
33
0.27647875144394
0
3DFACE
5
102A3
330
10057
100
AcDbEntity
100
AcDbFace
8
CELIK_KIRIS_KOLON
10
7.68568504354114
20
0.46523947125756776
30
0.10933161594775359
11
7.815685043541141
21
0.46523947125756776
31
0.10933161594775359
12
7.815685043541141
22
0.5952394712575677
32
0.10933161594775359
13
7.68568504354114
23
0.5952394712575677
33
0.10933161594775359
0
3DFACE
5
102A4
330
10057
100
AcDbEntity
100
AcDbFace
8
CELIK_KIRIS_KOLON
10
7.68568504354114
20
0.46523947125756776
30
0.21933161594775358
11
7.815685043541141
21
0.46523947125756776
31
0.21933161594775358
12
7.815685043541141
22
0.5952394712575677
32
0.21933161594775358
13
7.68568504354114
23
0.5952394712575677
33
0.21933161594775358
0
3DFACE
5
102A5
330
10057
100
AcDbEntity
100
AcDbFace
8
CELIK_KIRIS_KOLON
10
7.68568504354114
20
0.46523947125756776
30
0.10933161594775359
11
7.815685043541141
21
0.46523947125756776
31
0.10933161594775359
12
7.815685043541141
22
0.46523947125756776
32
0.21933161594775358
13
7.68568504354114
23
0.46523947125756776
33
0.21933161594775358
0
3DFACE
5
102A6
330
10057
100
AcDbEntity
100
AcDbFace
8
CELIK_KIRIS_KOLON
10
7.68568504354114
20
0.5952394712575677
30
0.10933161594775359
11
7.815685043541141
21
0.5952394712575677
31
0.10933161594775359
12
7.815685043541141
22
0.5952394712575677
32
0.21933161594775358
13
7.68568504354114
23
0.5952394712575677
33
0.21933161594775358
0
3DFACE
5
102A7
330
10057
100
AcDbEntity
100
AcDbFace
8
CELIK_KIRIS_KOLON
10
7.68568504354114
20
0.46523947125756776
30
0.10933161594775359
11
7.68568504354114
21
0.5952394712575677
31
0.10933161594775359
12
7.68568504354114
22
0.5952394712575677
32
0.21933161594775358
13
7.68568504354114
23
0.46523947125756776
33
0.21933161594775358
0
3DFACE
5
102A8
330
10057
100
AcDbEntity
100
AcDbFace
8
CELIK_KIRIS_KOLON
10
7.815685043541141
20
0.46523947125756776
30
0.10933161594775359
11
7.815685043541141
21
0.5952394712575677
31
0.10933161594775359
12
7.815685043541141
22
0.5952394712575677
32
0.21933161594775358
13
7.815685043541141
23
0.46523947125756776
33
0.21933161594775358
0
LINE
5
102A9
330
10057
100
AcDbEntity
100
AcDbLine
8
CELIK_KIRIS_KOLON
10
7.68568504354114
20
0.46523947125756776
30
0.10933161594775359
11
7.815685043541141
21
0.46523947125756776
31
0.10933161594775359
0
LINE
5
102AA
330
10057
100
AcDbEntity
100
AcDbLine
8
CELIK_KIRIS_KOLON
10
7.815685043541141
20
0.46523947125756776
30
0.10933161594775359
11
7.815685043541141
21
0.5952394712575677
31
0.10933161594775359
0
LINE
5
102AB
330
10057
100
AcDbEntity
100
AcDbLine
8
CELIK_KIRIS_KOLON
10
7.815685043541141
20
0.5952394712575677
30
0.10933161594775359
11
7.68568504354114
21
0.5952394712575677
31
0.10933161594775359
0
LINE
5
102AC
330
10057
100
AcDbEntity
100
AcDbLine
8
CELIK_KIRIS_KOLON
10
7.68568504354114
20
0.5952394712575677
30
0.10933161594775359
11
7.68568504354114
21
0.46523947125756776
31
0.10933161594775359
0
LINE
5
102AD
330
10057
100
AcDbEntity
100
AcDbLine
8
CELIK_KIRIS_KOLON
10
7.68568504354114
20
0.46523947125756776
30
0.21933161594775358
11
7.815685043541141
21
0.46523947125756776
31
0.21933161594775358
0
LINE
5
102AE
330
10057
100
AcDbEntity
100
AcDbLine
8
CELIK_KIRIS_KOLON
10
7.815685043541141
20
0.46523947125756776
30
0.21933161594775358
11
7.815685043541141
21
0.5952394712575677
31
0.21933161594775358
0
LINE
5
102AF
330
10057
100
AcDbEntity
100
AcDbLine
8
CELIK_KIRIS_KOLON
10
7.815685043541141
20
0.5952394712575677
30
0.21933161594775358
11
7.68568504354114
21
0.5952394712575677
31
0.21933161594775358
0
LINE
5
102B0
330
10057
100
AcDbEntity
100
AcDbLine
8
CELIK_KIRIS_KOLON
10
7.68568504354114
20
0.5952394712575677
30
0.21933161594775358
11
7.68568504354114
21
0.46523947125756776
31
0.21933161594775358
0
LINE
5
102B1
330
10057
100
AcDbEntity
100
AcDbLine
8
CELIK_KIRIS_KOLON
10
7.68568504354114
20
0.46523947125756776
30
0.10933161594775359
11
7.68568504354114
21
0.46523947125756776
31
0.21933161594775358
0
LINE
5
102B2
330
10057
100
AcDbEntity
100
AcDbLine
8
CELIK_KIRIS_KOLON
10
7.815685043541141
20
0.46523947125756776
30
0.10933161594775359
11
7.815685043541141
21
0.46523947125756776
31
0.21933161594775358
0
LINE
5
102B3
330
10057
100
AcDbEntity
100
AcDbLine
8
CELIK_KIRIS_KOLON
10
7.815685043541141
20
0.5952394712575677
30
0.10933161594775359
11
7.815685043541141
21
0.5952394712575677
31
0.21933161594775358
0
LINE
5
102B4
330
10057
100
AcDbEntity
100
AcDbLine
8
CELIK_KIRIS_KOLON
10
7.68568504354114
20
0.5952394712575677
30
0.10933161594775359
11
7.68568504354114
21
0.5952394712575677
31
0.21933161594775358
0
3DFACE
5
102B5
330
10057
100
AcDbEntity
100
AcDbFace
8
CELIK_KIRIS_KOLON
10
7.778795277160611
20
0.20942120686792803
30
0.38156772670457445
11
7.908795277160611
21
0.20942120686792803
31
0.38156772670457445
12
7.908795277160611
22
0.33942120686792804
32
0.38156772670457445
13
7.778795277160611
23
0.33942120686792804
33
0.38156772670457445
0
3DFACE
5
102B6
330
10057
100
AcDbEntity
100
AcDbFace
8
CELIK_KIRIS_KOLON
10
7.778795277160611
20
0.20942120686792803
30
0.49156772670457444
11
7.908795277160611
21
0.20942120686792803
31
0.49156772670457444
12
7.908795277160611
22
0.33942120686792804
32
0.49156772670457444
13
7.778795277160611
23
0.33942120686792804
33
0.49156772670457444
0
3DFACE
5
102B7
330
10057
100
AcDbEntity
100
AcDbFace
8
CELIK_KIRIS_KOLON
10
7.778795277160611
20
0.20942120686792803
30
0.38156772670457445
11
7.908795277160611
21
0.20942120686792803
31
0.38156772670457445
12
7.908795277160611
22
0.20942120686792803
32
0.49156772670457444
13
7.778795277160611
23
0.20942120686792803
33
0.49156772670457444
0
3DFACE
5
102B8
330
10057
100
AcDbEntity
100
AcDbFace
8
CELIK_KIRIS_KOLON
10
7.778795277160611
20
0.33942120686792804
30
0.38156772670457445
11
7.908795277160611
21
0.33942120686792804
31
0.38156772670457445
12
7.908795277160611
22
0.33942120686792804
32
0.49156772670457444
13
7.778795277160611
23
0.33942120686792804
33
0.49156772670457444
0
3DFACE
5
102B9
330
10057
100
AcDbEntity
100
AcDbFace
8
CELIK_KIRIS_KOLON
10
7.778795277160611
20
0.20942120686792803
30
0.38156772670457445
11
7.778795277160611
21
0.33942120686792804
31
0.38156772670457445
12
7.778795277160611
22
0.33942120686792804
32
0.49156772670457444
13
7.778795277160611
23
0.20942120686792803
33
0.49156772670457444
0
3DFACE
5
102BA
330
10057
100
AcDbEntity
100
AcDbFace
8
CELIK_KIRIS_KOLON
10
7.908795277160611
20
0.20942120686792803
30
0.38156772670457445
11
7.908795277160611
21
0.33942120686792804
31
0.38156772670457445
12
7.908795277160611
22
0.33942120686792804
32
0.49156772670457444
13
7.908795277160611
23
0.20942120686792803
33
0.49156772670457444
0
LINE
5
102BB
330
10057
100
AcDbEntity
100
AcDbLine
8
CELIK_KIRIS_KOLON
10
7.778795277160611
20
0.20942120686792803
30
0.38156772670457445
11
7.908795277160611
21
0.20942120686792803
31
0.38156772670457445
0
LINE
5
102BC
330
10057
100
AcDbEntity
100
AcDbLine
8
CELIK_KIRIS_KOLON
10
7.908795277160611
20
0.20942120686792803
30
0.38156772670457445
11
7.908795277160611
21
0.33942120686792804
31
0.38156772670457445
0
LINE
5
102BD
330
10057
100
AcDbEntity
100
AcDbLine
8
CELIK_KIRIS_KOLON
10
7.908795277160611
20
0.33942120686792804
30
0.38156772670457445
11
7.778795277160611
21
0.33942120686792804
31
0.38156772670457445
0
LINE
5
102BE
330
10057
100
AcDbEntity
100
AcDbLine
8
CELIK_KIRIS_KOLON
10
7.778795277160611
20
0.33942120686792804
30
0.38156772670457445
11
7.778795277160611
21
0.20942120686792803
31
0.38156772670457445
0
LINE
5
102BF
330
10057
100
AcDbEntity
100
AcDbLine
8
CELIK_KIRIS_KOLON
10
7.778795277160611
20
0.20942120686792803
30
0.49156772670457444
11
7.908795277160611
21
0.20942120686792803
31
0.49156772670457444
0
LINE
5
102C0
330
10057
100
AcDbEntity
100
AcDbLine
8
CELIK_KIRIS_KOLON
10
7.908795277160611
20
0.20942120686792803
30
0.49156772670457444
11
7.908795277160611
21
0.33942120686792804
31
0.49156772670457444
0
LINE
5
102C1
330
10057
100
AcDbEntity
100
AcDbLine
8
CELIK_KIRIS_KOLON
10
7.908795277160611
20
0.33942120686792804
30
0.49156772670457444
11
7.778795277160611
21
0.33942120686792804
31
0.49156772670457444
0
LINE
5
102C2
330
10057
100
AcDbEntity
100
AcDbLine
8
CELIK_KIRIS_KOLON
10
7.778795277160611
20
0.33942120686792804
30
0.49156772670457444
11
7.778795277160611
21
0.20942120686792803
31
0.49156772670457444
0
LINE
5
102C3
330
10057
100
AcDbEntity
100
AcDbLine
8
CELIK_KIRIS_KOLON
10
7.778795277160611
20
0.20942120686792803
30
0.38156772670457445
11
7.778795277160611
21
0.20942120686792803
31
0.49156772670457444
0
LINE
5
102C4
330
10057
100
AcDbEntity
100
AcDbLine
8
CELIK_KIRIS_KOLON
10
7.908795277160611
20
0.20942120686792803
30
0.38156772670457445
11
7.908795277160611
21
0.20942120686792803
31
0.49156772670457444
0
LINE
5
102C5
330
10057
100
AcDbEntity
100
AcDbLine
8
CELIK_KIRIS_KOLON
10
7.908795277160611
20
0.33942120686792804
30
0.38156772670457445
11
7.908795277160611
21
0.33942120686792804
31
0.49156772670457444
0
LINE
5
102C6
330
10057
100
AcDbEntity
100
AcDbLine
8
CELIK_KIRIS_KOLON
10
7.778795277160611
20
0.33942120686792804
30
0.38156772670457445
11
7.778795277160611
21
0.33942120686792804
31
0.49156772670457444
0
3DFACE
5
102C8
330
10057
100
AcDbEntity
100
AcDbFace
8
CELIK_KIRIS_KOLON
10
5.5
20
-0.06
30
0.55
11
8.5
21
-0.06
31
0.55
12
8.5
22
0.06
32
0.55
13
5.5
23
0.06
33
0.55
0
3DFACE
5
102C9
330
10057
100
AcDbEntity
100
AcDbFace
8
CELIK_KIRIS_KOLON
10
5.5
20
-0.06
30
0.67
11
8.5
21
-0.06
31
0.67
12
8.5
22
0.06
32
0.67
13
5.5
23
0.06
33
0.67
0
3DFACE
5
102CA
330
10057
100
AcDbEntity
100
AcDbFace
8
CELIK_KIRIS_KOLON
10
5.5
20
-0.06
30
0.55
11
8.5
21
-0.06
31
0.55
12
8.5
22
-0.06
32
0.67
13
5.5
23
-0.06
33
0.67
0
3DFACE
5
102CB
330
10057
100
AcDbEntity
100
AcDbFace
8
CELIK_KIRIS_KOLON
10
5.5
20
0.06
30
0.55
11
8.5
21
0.06
31
0.55
12
8.5
22
0.06
32
0.67
13
5.5
23
0.06
33
0.67
0
3DFACE
5
102CC
330
10057
100
AcDbEntity
100
AcDbFace
8
CELIK_KIRIS_KOLON
10
5.5
20
-0.06
30
0.55
11
5.5
21
0.06
31
0.55
12
5.5
22
0.06
32
0.67
13
5.5
23
-0.06
33
0.67
0
3DFACE
5
102CD
330
10057
100
AcDbEntity
100
AcDbFace
8
CELIK_KIRIS_KOLON
10
8.5
20
-0.06
30
0.55
11
8.5
21
0.06
31
0.55
12
8.5
22
0.06
32
0.67
13
8.5
23
-0.06
33
0.67
0
LINE
5
102CE
330
10057
100
AcDbEntity
100
AcDbLine
8
CELIK_KIRIS_KOLON
10
5.5
20
-0.06
30
0.55
11
8.5
21
-0.06
31
0.55
0
LINE
5
102CF
330
10057
100
AcDbEntity
100
AcDbLine
8
CELIK_KIRIS_KOLON
10
8.5
20
-0.06
30
0.55
11
8.5
21
0.06
31
0.55
0
LINE
5
102D0
330
10057
100
AcDbEntity
100
AcDbLine
8
CELIK_KIRIS_KOLON
10
8.5
20
0.06
30
0.55
11
5.5
21
0.06
31
0.55
0
LINE
5
102D1
330
10057
100
AcDbEntity
100
AcDbLine
8
CELIK_KIRIS_KOLON
10
5.5
20
0.06
30
0.55
11
5.5
21
-0.06
31
0.55
0
LINE
5
102D2
330
10057
100
AcDbEntity
100
AcDbLine
8
CELIK_KIRIS_KOLON
10
5.5
20
-0.06
30
0.67
11
8.5
21
-0.06
31
0.67
0
LINE
5
102D3
330
10057
100
AcDbEntity
100
AcDbLine
8
CELIK_KIRIS_KOLON
10
8.5
20
-0.06
30
0.67
11
8.5
21
0.06
31
0.67
0
LINE
5
102D4
330
10057
100
AcDbEntity
100
AcDbLine
8
CELIK_KIRIS_KOLON
10
8.5
20
0.06
30
0.67
11
5.5
21
0.06
31
0.67
0
LINE
5
102D5
330
10057
100
AcDbEntity
100
AcDbLine
8
CELIK_KIRIS_KOLON
10
5.5
20
0.06
30
0.67
11
5.5
21
-0.06
31
0.67
0
LINE
5
102D6
330
10057
100
AcDbEntity
100
AcDbLine
8
CELIK_KIRIS_KOLON
10
5.5
20
-0.06
30
0.55
11
5.5
21
-0.06
31
0.67
0
LINE
5
102D7
330
10057
100
AcDbEntity
100
AcDbLine
8
CELIK_KIRIS_KOLON
10
8.5
20
-0.06
30
0.55
11
8.5
21
-0.06
31
0.67
0
LINE
5
102D8
330
10057
100
AcDbEntity
100
AcDbLine
8
CELIK_KIRIS_KOLON
10
8.5
20
0.06
30
0.55
11
8.5
21
0.06
31
0.67
0
LINE
5
102D9
330
10057
100
AcDbEntity
100
AcDbLine
8
CELIK_KIRIS_KOLON
10
5.5
20
0.06
30
0.55
11
5.5
21
0.06
31
0.67
0
3DFACE
5
102EA
330
10057
100
AcDbEntity
100
AcDbFace
8
CELIK_KIRIS_KOLON
10
15.88
20
-0.795
30
2.355
11
16.12
21
-0.795
31
2.355
12
16.12
22
0.795
32
2.355
13
15.88
23
0.795
33
2.355
0
3DFACE
5
102EB
330
10057
100
AcDbEntity
100
AcDbFace
8
CELIK_KIRIS_KOLON
10
15.88
20
-0.795
30
2.445
11
16.12
21
-0.795
31
2.445
12
16.12
22
0.795
32
2.445
13
15.88
23
0.795
33
2.445
0
3DFACE
5
102EC
330
10057
100
AcDbEntity
100
AcDbFace
8
CELIK_KIRIS_KOLON
10
15.88
20
-0.795
30
2.355
11
16.12
21
-0.795
31
2.355
12
16.12
22
-0.795
32
2.445
13
15.88
23
-0.795
33
2.445
0
3DFACE
5
102ED
330
10057
100
AcDbEntity
100
AcDbFace
8
CELIK_KIRIS_KOLON
10
15.88
20
0.795
30
2.355
11
16.12
21
0.795
31
2.355
12
16.12
22
0.795
32
2.445
13
15.88
23
0.795
33
2.445
0
3DFACE
5
102EE
330
10057
100
AcDbEntity
100
AcDbFace
8
CELIK_KIRIS_KOLON
10
15.88
20
-0.795
30
2.355
11
15.88
21
0.795
31
2.355
12
15.88
22
0.795
32
2.445
13
15.88
23
-0.795
33
2.445
0
3DFACE
5
102EF
330
10057
100
AcDbEntity
100
AcDbFace
8
CELIK_KIRIS_KOLON
10
16.12
20
-0.795
30
2.355
11
16.12
21
0.795
31
2.355
12
16.12
22
0.795
32
2.445
13
16.12
23
-0.795
33
2.445
0
LINE
5
102F0
330
10057
100
AcDbEntity
100
AcDbLine
8
CELIK_KIRIS_KOLON
10
15.88
20
-0.795
30
2.355
11
16.12
21
-0.795
31
2.355
0
LINE
5
102F1
330
10057
100
AcDbEntity
100
AcDbLine
8
CELIK_KIRIS_KOLON
10
16.12
20
-0.795
30
2.355
11
16.12
21
0.795
31
2.355
0
LINE
5
102F2
330
10057
100
AcDbEntity
100
AcDbLine
8
CELIK_KIRIS_KOLON
10
16.12
20
0.795
30
2.355
11
15.88
21
0.795
31
2.355
0
LINE
5
102F3
330
10057
100
AcDbEntity
100
AcDbLine
8
CELIK_KIRIS_KOLON
10
15.88
20
0.795
30
2.355
11
15.88
21
-0.795
31
2.355
0
LINE
5
102F4
330
10057
100
AcDbEntity
100
AcDbLine
8
CELIK_KIRIS_KOLON
10
15.88
20
-0.795
30
2.445
11
16.12
21
-0.795
31
2.445
0
LINE
5
102F5
330
10057
100
AcDbEntity
100
AcDbLine
8
CELIK_KIRIS_KOLON
10
16.12
20
-0.795
30
2.445
11
16.12
21
0.795
31
2.445
0
LINE
5
102F6
330
10057
100
AcDbEntity
100
AcDbLine
8
CELIK_KIRIS_KOLON
10
16.12
20
0.795
30
2.445
11
15.88
21
0.795
31
2.445
0
LINE
5
102F7
330
10057
100
AcDbEntity
100
AcDbLine
8
CELIK_KIRIS_KOLON
10
15.88
20
0.795
30
2.445
11
15.88
21
-0.795
31
2.445
0
LINE
5
102F8
330
10057
100
AcDbEntity
100
AcDbLine
8
CELIK_KIRIS_KOLON
10
15.88
20
-0.795
30
2.355
11
15.88
21
-0.795
31
2.445
0
LINE
5
102F9
330
10057
100
AcDbEntity
100
AcDbLine
8
CELIK_KIRIS_KOLON
10
16.12
20
-0.795
30
2.355
11
16.12
21
-0.795
31
2.445
0
LINE
5
102FA
330
10057
100
AcDbEntity
100
AcDbLine
8
CELIK_KIRIS_KOLON
10
16.12
20
0.795
30
2.355
11
16.12
21
0.795
31
2.445
0
LINE
5
102FB
330
10057
100
AcDbEntity
100
AcDbLine
8
CELIK_KIRIS_KOLON
10
15.88
20
0.795
30
2.355
11
15.88
21
0.795
31
2.445
0
3DFACE
5
1031B
330
10057
100
AcDbEntity
100
AcDbFace
8
CELIK_KIRIS_KOLON
10
15.93
20
0.23864853865045982
30
0.5669149532105806
11
16.07
21
0.23864853865045982
31
0.5669149532105806
12
16.07
22
-0.08308504678941932
32
0.8886485386504597
13
15.93
23
-0.08308504678941932
33
0.8886485386504597
0
3DFACE
5
1031C
330
10057
100
AcDbEntity
100
AcDbFace
8
CELIK_KIRIS_KOLON
10
15.939
20
0.09899494936611666
30
0.7065685424949237
11
15.951
21
0.09899494936611666
31
0.7065685424949237
12
15.951
22
0.23405234457274723
32
0.9264787514439399
13
15.939
23
0.23405234457274723
33
0.9264787514439399
0
3DFACE
5
1031D
330
10057
100
AcDbEntity
100
AcDbFace
8
CELIK_KIRIS_KOLON
10
16.049
20
0.09899494936611666
30
0.7065685424949237
11
16.061
21
0.09899494936611666
31
0.7065685424949237
12
16.061
22
0.23405234457274723
32
0.9264787514439399
13
16.049
23
0.23405234457274723
33
0.9264787514439399
0
3DFACE
5
1034A
330
10057
100
AcDbEntity
100
AcDbFace
8
CELIK_KIRIS_KOLON
10
15.935
20
0.37156772670457444
30
0.7593316159477534
11
16.065
21
0.37156772670457444
31
0.7593316159477534
12
16.065
22
0.5015677267045744
32
0.7593316159477534
13
15.935
23
0.5015677267045744
33
0.7593316159477534
0
3DFACE
5
1034B
330
10057
100
AcDbEntity
100
AcDbFace
8
CELIK_KIRIS_KOLON
10
15.935
20
0.37156772670457444
30
0.8693316159477535
11
16.065
21
0.37156772670457444
31
0.8693316159477535
12
16.065
22
0.5015677267045744
32
0.8693316159477535
13
15.935
23
0.5015677267045744
33
0.8693316159477535
0
3DFACE
5
1034C
330
10057
100
AcDbEntity
100
AcDbFace
8
CELIK_KIRIS_KOLON
10
15.935
20
0.37156772670457444
30
0.7593316159477534
11
16.065
21
0.37156772670457444
31
0.7593316159477534
12
16.065
22
0.37156772670457444
32
0.8693316159477535
13
15.935
23
0.37156772670457444
33
0.8693316159477535
0
3DFACE
5
1034D
330
10057
100
AcDbEntity
100
AcDbFace
8
CELIK_KIRIS_KOLON
10
15.935
20
0.5015677267045744
30
0.7593316159477534
11
16.065
21
0.5015677267045744
31
0.7593316159477534
12
16.065
22
0.5015677267045744
32
0.8693316159477535
13
15.935
23
0.5015677267045744
33
0.8693316159477535
0
3DFACE
5
1034E
330
10057
100
AcDbEntity
100
AcDbFace
8
CELIK_KIRIS_KOLON
10
15.935
20
0.37156772670457444
30
0.7593316159477534
11
15.935
21
0.5015677267045744
31
0.7593316159477534
12
15.935
22
0.5015677267045744
32
0.8693316159477535
13
15.935
23
0.37156772670457444
33
0.8693316159477535
0
3DFACE
5
1034F
330
10057
100
AcDbEntity
100
AcDbFace
8
CELIK_KIRIS_KOLON
10
16.065
20
0.37156772670457444
30
0.7593316159477534
11
16.065
21
0.5015677267045744
31
0.7593316159477534
12
16.065
22
0.5015677267045744
32
0.8693316159477535
13
16.065
23
0.37156772670457444
33
0.8693316159477535
0
LINE
5
10350
330
10057
100
AcDbEntity
100
AcDbLine
8
CELIK_KIRIS_KOLON
10
15.935
20
0.37156772670457444
30
0.7593316159477534
11
16.065
21
0.37156772670457444
31
0.7593316159477534
0
LINE
5
10351
330
10057
100
AcDbEntity
100
AcDbLine
8
CELIK_KIRIS_KOLON
10
16.065
20
0.37156772670457444
30
0.7593316159477534
11
16.065
21
0.5015677267045744
31
0.7593316159477534
0
LINE
5
10352
330
10057
100
AcDbEntity
100
AcDbLine
8
CELIK_KIRIS_KOLON
10
16.065
20
0.5015677267045744
30
0.7593316159477534
11
15.935
21
0.5015677267045744
31
0.7593316159477534
0
LINE
5
10353
330
10057
100
AcDbEntity
100
AcDbLine
8
CELIK_KIRIS_KOLON
10
15.935
20
0.5015677267045744
30
0.7593316159477534
11
15.935
21
0.37156772670457444
31
0.7593316159477534
0
LINE
5
10354
330
10057
100
AcDbEntity
100
AcDbLine
8
CELIK_KIRIS_KOLON
10
15.935
20
0.37156772670457444
30
0.8693316159477535
11
16.065
21
0.37156772670457444
31
0.8693316159477535
0
LINE
5
10355
330
10057
100
AcDbEntity
100
AcDbLine
8
CELIK_KIRIS_KOLON
10
16.065
20
0.37156772670457444
30
0.8693316159477535
11
16.065
21
0.5015677267045744
31
0.8693316159477535
0
LINE
5
10356
330
10057
100
AcDbEntity
100
AcDbLine
8
CELIK_KIRIS_KOLON
10
16.065
20
0.5015677267045744
30
0.8693316159477535
11
15.935
21
0.5015677267045744
31
0.8693316159477535
0
LINE
5
10357
330
10057
100
AcDbEntity
100
AcDbLine
8
CELIK_KIRIS_KOLON
10
15.935
20
0.5015677267045744
30
0.8693316159477535
11
15.935
21
0.37156772670457444
31
0.8693316159477535
0
LINE
5
10358
330
10057
100
AcDbEntity
100
AcDbLine
8
CELIK_KIRIS_KOLON
10
15.935
20
0.37156772670457444
30
0.7593316159477534
11
15.935
21
0.37156772670457444
31
0.8693316159477535
0
LINE
5
10359
330
10057
100
AcDbEntity
100
AcDbLine
8
CELIK_KIRIS_KOLON
10
16.065
20
0.37156772670457444
30
0.7593316159477534
11
16.065
21
0.37156772670457444
31
0.8693316159477535
0
LINE
5
1035A
330
10057
100
AcDbEntity
100
AcDbLine
8
CELIK_KIRIS_KOLON
10
16.065
20
0.5015677267045744
30
0.7593316159477534
11
16.065
21
0.5015677267045744
31
0.8693316159477535
0
LINE
5
1035B
330
10057
100
AcDbEntity
100
AcDbLine
8
CELIK_KIRIS_KOLON
10
15.935
20
0.5015677267045744
30
0.7593316159477534
11
15.935
21
0.5015677267045744
31
0.8693316159477535
0
3DFACE
5
1035C
330
10057
100
AcDbEntity
100
AcDbFace
8
CELIK_KIRIS_KOLON
10
15.935
20
0.09933161594775367
30
1.0315677267045744
11
16.065
21
0.09933161594775367
31
1.0315677267045744
12
16.065
22
0.22933161594775367
32
1.0315677267045744
13
15.935
23
0.22933161594775367
33
1.0315677267045744
0
3DFACE
5
1035D
330
10057
100
AcDbEntity
100
AcDbFace
8
CELIK_KIRIS_KOLON
10
15.935
20
0.09933161594775367
30
1.1415677267045743
11
16.065
21
0.09933161594775367
31
1.1415677267045743
12
16.065
22
0.22933161594775367
32
1.1415677267045743
13
15.935
23
0.22933161594775367
33
1.1415677267045743
0
3DFACE
5
1035E
330
10057
100
AcDbEntity
100
AcDbFace
8
CELIK_KIRIS_KOLON
10
15.935
20
0.09933161594775367
30
1.0315677267045744
11
16.065
21
0.09933161594775367
31
1.0315677267045744
12
16.065
22
0.09933161594775367
32
1.1415677267045743
13
15.935
23
0.09933161594775367
33
1.1415677267045743
0
3DFACE
5
1035F
330
10057
100
AcDbEntity
100
AcDbFace
8
CELIK_KIRIS_KOLON
10
15.935
20
0.22933161594775367
30
1.0315677267045744
11
16.065
21
0.22933161594775367
31
1.0315677267045744
12
16.065
22
0.22933161594775367
32
1.1415677267045743
13
15.935
23
0.22933161594775367
33
1.1415677267045743
0
3DFACE
5
10360
330
10057
100
AcDbEntity
100
AcDbFace
8
CELIK_KIRIS_KOLON
10
15.935
20
0.09933161594775367
30
1.0315677267045744
11
15.935
21
0.22933161594775367
31
1.0315677267045744
12
15.935
22
0.22933161594775367
32
1.1415677267045743
13
15.935
23
0.09933161594775367
33
1.1415677267045743
0
3DFACE
5
10361
330
10057
100
AcDbEntity
100
AcDbFace
8
CELIK_KIRIS_KOLON
10
16.065
20
0.09933161594775367
30
1.0315677267045744
11
16.065
21
0.22933161594775367
31
1.0315677267045744
12
16.065
22
0.22933161594775367
32
1.1415677267045743
13
16.065
23
0.09933161594775367
33
1.1415677267045743
0
LINE
5
10362
330
10057
100
AcDbEntity
100
AcDbLine
8
CELIK_KIRIS_KOLON
10
15.935
20
0.09933161594775367
30
1.0315677267045744
11
16.065
21
0.09933161594775367
31
1.0315677267045744
0
LINE
5
10363
330
10057
100
AcDbEntity
100
AcDbLine
8
CELIK_KIRIS_KOLON
10
16.065
20
0.09933161594775367
30
1.0315677267045744
11
16.065
21
0.22933161594775367
31
1.0315677267045744
0
LINE
5
10364
330
10057
100
AcDbEntity
100
AcDbLine
8
CELIK_KIRIS_KOLON
10
16.065
20
0.22933161594775367
30
1.0315677267045744
11
15.935
21
0.22933161594775367
31
1.0315677267045744
0
LINE
5
10365
330
10057
100
AcDbEntity
100
AcDbLine
8
CELIK_KIRIS_KOLON
10
15.935
20
0.22933161594775367
30
1.0315677267045744
11
15.935
21
0.09933161594775367
31
1.0315677267045744
0
LINE
5
10366
330
10057
100
AcDbEntity
100
AcDbLine
8
CELIK_KIRIS_KOLON
10
15.935
20
0.09933161594775367
30
1.1415677267045743
11
16.065
21
0.09933161594775367
31
1.1415677267045743
0
LINE
5
10367
330
10057
100
AcDbEntity
100
AcDbLine
8
CELIK_KIRIS_KOLON
10
16.065
20
0.09933161594775367
30
1.1415677267045743
11
16.065
21
0.22933161594775367
31
1.1415677267045743
0
LINE
5
10368
330
10057
100
AcDbEntity
100
AcDbLine
8
CELIK_KIRIS_KOLON
10
16.065
20
0.22933161594775367
30
1.1415677267045743
11
15.935
21
0.22933161594775367
31
1.1415677267045743
0
LINE
5
10369
330
10057
100
AcDbEntity
100
AcDbLine
8
CELIK_KIRIS_KOLON
10
15.935
20
0.22933161594775367
30
1.1415677267045743
11
15.935
21
0.09933161594775367
31
1.1415677267045743
0
LINE
5
1036A
330
10057
100
AcDbEntity
100
AcDbLine
8
CELIK_KIRIS_KOLON
10
15.935
20
0.09933161594775367
30
1.0315677267045744
11
15.935
21
0.09933161594775367
31
1.1415677267045743
0
LINE
5
1036B
330
10057
100
AcDbEntity
100
AcDbLine
8
CELIK_KIRIS_KOLON
10
16.065
20
0.09933161594775367
30
1.0315677267045744
11
16.065
21
0.09933161594775367
31
1.1415677267045743
0
LINE
5
1036C
330
10057
100
AcDbEntity
100
AcDbLine
8
CELIK_KIRIS_KOLON
10
16.065
20
0.22933161594775367
30
1.0315677267045744
11
16.065
21
0.22933161594775367
31
1.1415677267045743
0
LINE
5
1036D
330
10057
100
AcDbEntity
100
AcDbLine
8
CELIK_KIRIS_KOLON
10
15.935
20
0.22933161594775367
30
1.0315677267045744
11
15.935
21
0.22933161594775367
31
1.1415677267045743
0
3DFACE
5
10080
330
10057
100
AcDbEntity
100
AcDbFace
8
MONTAJ_BORULARI
10
-14
20
0.6093846240265667
30
-0.06236681810065359
11
-13.973059231636793
21
0.6172753923897741
31
-0.05447604973744613
12
-13.973059231636793
22
-0.05447604973744602
32
0.6172753923897741
13
-14
23
-0.062366818100653476
33
0.6093846240265667
0
3DFACE
5
10081
330
10057
100
AcDbEntity
100
AcDbFace
8
MONTAJ_BORULARI
10
-13.973059231636793
20
0.6172753923897741
30
-0.05447604973744613
11
-13.9619
21
0.6363253923897741
31
-0.03542604973744612
12
-13.9619
22
-0.03542604973744601
32
0.6363253923897741
13
-13.973059231636793
23
-0.05447604973744602
33
0.6172753923897741
0
3DFACE
5
10082
330
10057
100
AcDbEntity
100
AcDbFace
8
MONTAJ_BORULARI
10
-13.9619
20
0.6363253923897741
30
-0.03542604973744612
11
-13.973059231636793
21
0.6553753923897742
31
-0.016376049737446108
12
-13.973059231636793
22
-0.016376049737445997
32
0.6553753923897742
13
-13.9619
23
-0.03542604973744601
33
0.6363253923897741
0
3DFACE
5
10083
330
10057
100
AcDbEntity
100
AcDbFace
8
MONTAJ_BORULARI
10
-13.973059231636793
20
0.6553753923897742
30
-0.016376049737446108
11
-14
21
0.6632661607529816
31
-0.008485281374238651
12
-14
22
-0.00848528137423854
32
0.6632661607529816
13
-13.973059231636793
23
-0.016376049737445997
33
0.6553753923897742
0
3DFACE
5
10084
330
10057
100
AcDbEntity
100
AcDbFace
8
MONTAJ_BORULARI
10
-14
20
0.6632661607529816
30
-0.008485281374238651
11
-14.026940768363207
21
0.6553753923897742
31
-0.016376049737446108
12
-14.026940768363207
22
-0.016376049737445997
32
0.6553753923897742
13
-14
23
-0.00848528137423854
33
0.6632661607529816
0
3DFACE
5
10085
330
10057
100
AcDbEntity
100
AcDbFace
8
MONTAJ_BORULARI
10
-14.026940768363207
20
0.6553753923897742
30
-0.016376049737446108
11
-14.0381
21
0.6363253923897741
31
-0.03542604973744612
12
-14.0381
22
-0.03542604973744601
32
0.6363253923897741
13
-14.026940768363207
23
-0.016376049737445997
33
0.6553753923897742
0
3DFACE
5
10086
330
10057
100
AcDbEntity
100
AcDbFace
8
MONTAJ_BORULARI
10
-14.0381
20
0.6363253923897741
30
-0.03542604973744612
11
-14.026940768363207
21
0.6172753923897741
31
-0.05447604973744613
12
-14.026940768363207
22
-0.05447604973744602
32
0.6172753923897741
13
-14.0381
23
-0.03542604973744601
33
0.6363253923897741
0
3DFACE
5
10087
330
10057
100
AcDbEntity
100
AcDbFace
8
MONTAJ_BORULARI
10
-14.026940768363207
20
0.6172753923897741
30
-0.05447604973744613
11
-14
21
0.6093846240265667
31
-0.06236681810065359
12
-14
22
-0.062366818100653476
32
0.6093846240265667
13
-14.026940768363207
23
-0.05447604973744602
33
0.6172753923897741
0
3DFACE
5
10088
330
10057
100
AcDbEntity
100
AcDbFace
8
MONTAJ_BORULARI
10
-14.035
20
0.4015677267045744
30
0.16433161594775358
11
-13.965
21
0.4015677267045744
31
0.16433161594775358
12
-13.965
22
0.4715677267045745
32
0.16433161594775358
13
-14.035
23
0.4715677267045745
33
0.16433161594775358
0
3DFACE
5
10089
330
10057
100
AcDbEntity
100
AcDbFace
8
MONTAJ_BORULARI
10
-14.035
20
0.4015677267045744
30
2.2
11
-13.965
21
0.4015677267045744
31
2.2
12
-13.965
22
0.4715677267045745
32
2.2
13
-14.035
23
0.4715677267045745
33
2.2
0
3DFACE
5
1008A
330
10057
100
AcDbEntity
100
AcDbFace
8
MONTAJ_BORULARI
10
-14.035
20
0.4015677267045744
30
0.16433161594775358
11
-13.965
21
0.4015677267045744
31
0.16433161594775358
12
-13.965
22
0.4015677267045744
32
2.2
13
-14.035
23
0.4015677267045744
33
2.2
0
3DFACE
5
1008B
330
10057
100
AcDbEntity
100
AcDbFace
8
MONTAJ_BORULARI
10
-14.035
20
0.4715677267045745
30
0.16433161594775358
11
-13.965
21
0.4715677267045745
31
0.16433161594775358
12
-13.965
22
0.4715677267045745
32
2.2
13
-14.035
23
0.4715677267045745
33
2.2
0
3DFACE
5
1008C
330
10057
100
AcDbEntity
100
AcDbFace
8
MONTAJ_BORULARI
10
-14.035
20
0.4015677267045744
30
0.16433161594775358
11
-14.035
21
0.4715677267045745
31
0.16433161594775358
12
-14.035
22
0.4715677267045745
32
2.2
13
-14.035
23
0.4015677267045744
33
2.2
0
3DFACE
5
1008D
330
10057
100
AcDbEntity
100
AcDbFace
8
MONTAJ_BORULARI
10
-13.965
20
0.4015677267045744
30
0.16433161594775358
11
-13.965
21
0.4715677267045745
31
0.16433161594775358
12
-13.965
22
0.4715677267045745
32
2.2
13
-13.965
23
0.4015677267045744
33
2.2
0
LINE
5
1008E
330
10057
100
AcDbEntity
100
AcDbLine
8
MONTAJ_BORULARI
10
-14.035
20
0.4015677267045744
30
0.16433161594775358
11
-13.965
21
0.4015677267045744
31
0.16433161594775358
0
LINE
5
1008F
330
10057
100
AcDbEntity
100
AcDbLine
8
MONTAJ_BORULARI
10
-13.965
20
0.4015677267045744
30
0.16433161594775358
11
-13.965
21
0.4715677267045745
31
0.16433161594775358
0
LINE
5
10090
330
10057
100
AcDbEntity
100
AcDbLine
8
MONTAJ_BORULARI
10
-13.965
20
0.4715677267045745
30
0.16433161594775358
11
-14.035
21
0.4715677267045745
31
0.16433161594775358
0
LINE
5
10091
330
10057
100
AcDbEntity
100
AcDbLine
8
MONTAJ_BORULARI
10
-14.035
20
0.4715677267045745
30
0.16433161594775358
11
-14.035
21
0.4015677267045744
31
0.16433161594775358
0
LINE
5
10092
330
10057
100
AcDbEntity
100
AcDbLine
8
MONTAJ_BORULARI
10
-14.035
20
0.4015677267045744
30
2.2
11
-13.965
21
0.4015677267045744
31
2.2
0
LINE
5
10093
330
10057
100
AcDbEntity
100
AcDbLine
8
MONTAJ_BORULARI
10
-13.965
20
0.4015677267045744
30
2.2
11
-13.965
21
0.4715677267045745
31
2.2
0
LINE
5
10094
330
10057
100
AcDbEntity
100
AcDbLine
8
MONTAJ_BORULARI
10
-13.965
20
0.4715677267045745
30
2.2
11
-14.035
21
0.4715677267045745
31
2.2
0
LINE
5
10095
330
10057
100
AcDbEntity
100
AcDbLine
8
MONTAJ_BORULARI
10
-14.035
20
0.4715677267045745
30
2.2
11
-14.035
21
0.4015677267045744
31
2.2
0
LINE
5
10096
330
10057
100
AcDbEntity
100
AcDbLine
8
MONTAJ_BORULARI
10
-14.035
20
0.4015677267045744
30
0.16433161594775358
11
-14.035
21
0.4015677267045744
31
2.2
0
LINE
5
10097
330
10057
100
AcDbEntity
100
AcDbLine
8
MONTAJ_BORULARI
10
-13.965
20
0.4015677267045744
30
0.16433161594775358
11
-13.965
21
0.4015677267045744
31
2.2
0
LINE
5
10098
330
10057
100
AcDbEntity
100
AcDbLine
8
MONTAJ_BORULARI
10
-13.965
20
0.4715677267045745
30
0.16433161594775358
11
-13.965
21
0.4715677267045745
31
2.2
0
LINE
5
10099
330
10057
100
AcDbEntity
100
AcDbLine
8
MONTAJ_BORULARI
10
-14.035
20
0.4715677267045745
30
0.16433161594775358
11
-14.035
21
0.4715677267045745
31
2.2
0
3DFACE
5
1009A
330
10057
100
AcDbEntity
100
AcDbFace
8
MONTAJ_BORULARI
10
-14.035
20
0.12933161594775366
30
0.43656772670457444
11
-13.965
21
0.12933161594775366
31
0.43656772670457444
12
-13.965
22
0.19933161594775367
32
0.43656772670457444
13
-14.035
23
0.19933161594775367
33
0.43656772670457444
0
3DFACE
5
1009B
330
10057
100
AcDbEntity
100
AcDbFace
8
MONTAJ_BORULARI
10
-14.035
20
0.12933161594775366
30
2.2
11
-13.965
21
0.12933161594775366
31
2.2
12
-13.965
22
0.19933161594775367
32
2.2
13
-14.035
23
0.19933161594775367
33
2.2
0
3DFACE
5
1009C
330
10057
100
AcDbEntity
100
AcDbFace
8
MONTAJ_BORULARI
10
-14.035
20
0.12933161594775366
30
0.43656772670457444
11
-13.965
21
0.12933161594775366
31
0.43656772670457444
12
-13.965
22
0.12933161594775366
32
2.2
13
-14.035
23
0.12933161594775366
33
2.2
0
3DFACE
5
1009D
330
10057
100
AcDbEntity
100
AcDbFace
8
MONTAJ_BORULARI
10
-14.035
20
0.19933161594775367
30
0.43656772670457444
11
-13.965
21
0.19933161594775367
31
0.43656772670457444
12
-13.965
22
0.19933161594775367
32
2.2
13
-14.035
23
0.19933161594775367
33
2.2
0
3DFACE
5
1009E
330
10057
100
AcDbEntity
100
AcDbFace
8
MONTAJ_BORULARI
10
-14.035
20
0.12933161594775366
30
0.43656772670457444
11
-14.035
21
0.19933161594775367
31
0.43656772670457444
12
-14.035
22
0.19933161594775367
32
2.2
13
-14.035
23
0.12933161594775366
33
2.2
0
3DFACE
5
1009F
330
10057
100
AcDbEntity
100
AcDbFace
8
MONTAJ_BORULARI
10
-13.965
20
0.12933161594775366
30
0.43656772670457444
11
-13.965
21
0.19933161594775367
31
0.43656772670457444
12
-13.965
22
0.19933161594775367
32
2.2
13
-13.965
23
0.12933161594775366
33
2.2
0
LINE
5
100A0
330
10057
100
AcDbEntity
100
AcDbLine
8
MONTAJ_BORULARI
10
-14.035
20
0.12933161594775366
30
0.43656772670457444
11
-13.965
21
0.12933161594775366
31
0.43656772670457444
0
LINE
5
100A1
330
10057
100
AcDbEntity
100
AcDbLine
8
MONTAJ_BORULARI
10
-13.965
20
0.12933161594775366
30
0.43656772670457444
11
-13.965
21
0.19933161594775367
31
0.43656772670457444
0
LINE
5
100A2
330
10057
100
AcDbEntity
100
AcDbLine
8
MONTAJ_BORULARI
10
-13.965
20
0.19933161594775367
30
0.43656772670457444
11
-14.035
21
0.19933161594775367
31
0.43656772670457444
0
LINE
5
100A3
330
10057
100
AcDbEntity
100
AcDbLine
8
MONTAJ_BORULARI
10
-14.035
20
0.19933161594775367
30
0.43656772670457444
11
-14.035
21
0.12933161594775366
31
0.43656772670457444
0
LINE
5
100A4
330
10057
100
AcDbEntity
100
AcDbLine
8
MONTAJ_BORULARI
10
-14.035
20
0.12933161594775366
30
2.2
11
-13.965
21
0.12933161594775366
31
2.2
0
LINE
5
100A5
330
10057
100
AcDbEntity
100
AcDbLine
8
MONTAJ_BORULARI
10
-13.965
20
0.12933161594775366
30
2.2
11
-13.965
21
0.19933161594775367
31
2.2
0
LINE
5
100A6
330
10057
100
AcDbEntity
100
AcDbLine
8
MONTAJ_BORULARI
10
-13.965
20
0.19933161594775367
30
2.2
11
-14.035
21
0.19933161594775367
31
2.2
0
LINE
5
100A7
330
10057
100
AcDbEntity
100
AcDbLine
8
MONTAJ_BORULARI
10
-14.035
20
0.19933161594775367
30
2.2
11
-14.035
21
0.12933161594775366
31
2.2
0
LINE
5
100A8
330
10057
100
AcDbEntity
100
AcDbLine
8
MONTAJ_BORULARI
10
-14.035
20
0.12933161594775366
30
0.43656772670457444
11
-14.035
21
0.12933161594775366
31
2.2
0
LINE
5
100A9
330
10057
100
AcDbEntity
100
AcDbLine
8
MONTAJ_BORULARI
10
-13.965
20
0.12933161594775366
30
0.43656772670457444
11
-13.965
21
0.12933161594775366
31
2.2
0
LINE
5
100AA
330
10057
100
AcDbEntity
100
AcDbLine
8
MONTAJ_BORULARI
10
-13.965
20
0.19933161594775367
30
0.43656772670457444
11
-13.965
21
0.19933161594775367
31
2.2
0
LINE
5
100AB
330
10057
100
AcDbEntity
100
AcDbLine
8
MONTAJ_BORULARI
10
-14.035
20
0.19933161594775367
30
0.43656772670457444
11
-14.035
21
0.19933161594775367
31
2.2
0
3DFACE
5
100E1
330
10057
100
AcDbEntity
100
AcDbFace
8
MONTAJ_BORULARI
10
-4.5
20
0.6093846240265667
30
-0.06236681810065359
11
-4.4730592316367925
21
0.6172753923897741
31
-0.05447604973744613
12
-4.4730592316367925
22
-0.05447604973744602
32
0.6172753923897741
13
-4.5
23
-0.062366818100653476
33
0.6093846240265667
0
3DFACE
5
100E2
330
10057
100
AcDbEntity
100
AcDbFace
8
MONTAJ_BORULARI
10
-4.4730592316367925
20
0.6172753923897741
30
-0.05447604973744613
11
-4.4619
21
0.6363253923897741
31
-0.03542604973744612
12
-4.4619
22
-0.03542604973744601
32
0.6363253923897741
13
-4.4730592316367925
23
-0.05447604973744602
33
0.6172753923897741
0
3DFACE
5
100E3
330
10057
100
AcDbEntity
100
AcDbFace
8
MONTAJ_BORULARI
10
-4.4619
20
0.6363253923897741
30
-0.03542604973744612
11
-4.4730592316367925
21
0.6553753923897742
31
-0.016376049737446108
12
-4.4730592316367925
22
-0.016376049737445997
32
0.6553753923897742
13
-4.4619
23
-0.03542604973744601
33
0.6363253923897741
0
3DFACE
5
100E4
330
10057
100
AcDbEntity
100
AcDbFace
8
MONTAJ_BORULARI
10
-4.4730592316367925
20
0.6553753923897742
30
-0.016376049737446108
11
-4.5
21
0.6632661607529816
31
-0.008485281374238651
12
-4.5
22
-0.00848528137423854
32
0.6632661607529816
13
-4.4730592316367925
23
-0.016376049737445997
33
0.6553753923897742
0
3DFACE
5
100E5
330
10057
100
AcDbEntity
100
AcDbFace
8
MONTAJ_BORULARI
10
-4.5
20
0.6632661607529816
30
-0.008485281374238651
11
-4.5269407683632075
21
0.6553753923897742
31
-0.016376049737446108
12
-4.5269407683632075
22
-0.016376049737445997
32
0.6553753923897742
13
-4.5
23
-0.00848528137423854
33
0.6632661607529816
0
3DFACE
5
100E6
330
10057
100
AcDbEntity
100
AcDbFace
8
MONTAJ_BORULARI
10
-4.5269407683632075
20
0.6553753923897742
30
-0.016376049737446108
11
-4.5381
21
0.6363253923897741
31
-0.03542604973744612
12
-4.5381
22
-0.03542604973744601
32
0.6363253923897741
13
-4.5269407683632075
23
-0.016376049737445997
33
0.6553753923897742
0
3DFACE
5
100E7
330
10057
100
AcDbEntity
100
AcDbFace
8
MONTAJ_BORULARI
10
-4.5381
20
0.6363253923897741
30
-0.03542604973744612
11
-4.5269407683632075
21
0.6172753923897741
31
-0.05447604973744613
12
-4.5269407683632075
22
-0.05447604973744602
32
0.6172753923897741
13
-4.5381
23
-0.03542604973744601
33
0.6363253923897741
0
3DFACE
5
100E8
330
10057
100
AcDbEntity
100
AcDbFace
8
MONTAJ_BORULARI
10
-4.5269407683632075
20
0.6172753923897741
30
-0.05447604973744613
11
-4.5
21
0.6093846240265667
31
-0.06236681810065359
12
-4.5
22
-0.062366818100653476
32
0.6093846240265667
13
-4.5269407683632075
23
-0.05447604973744602
33
0.6172753923897741
0
3DFACE
5
100E9
330
10057
100
AcDbEntity
100
AcDbFace
8
MONTAJ_BORULARI
10
-4.535
20
0.4015677267045744
30
0.16433161594775358
11
-4.465
21
0.4015677267045744
31
0.16433161594775358
12
-4.465
22
0.4715677267045745
32
0.16433161594775358
13
-4.535
23
0.4715677267045745
33
0.16433161594775358
0
3DFACE
5
100EA
330
10057
100
AcDbEntity
100
AcDbFace
8
MONTAJ_BORULARI
10
-4.535
20
0.4015677267045744
30
2.2
11
-4.465
21
0.4015677267045744
31
2.2
12
-4.465
22
0.4715677267045745
32
2.2
13
-4.535
23
0.4715677267045745
33
2.2
0
3DFACE
5
100EB
330
10057
100
AcDbEntity
100
AcDbFace
8
MONTAJ_BORULARI
10
-4.535
20
0.4015677267045744
30
0.16433161594775358
11
-4.465
21
0.4015677267045744
31
0.16433161594775358
12
-4.465
22
0.4015677267045744
32
2.2
13
-4.535
23
0.4015677267045744
33
2.2
0
3DFACE
5
100EC
330
10057
100
AcDbEntity
100
AcDbFace
8
MONTAJ_BORULARI
10
-4.535
20
0.4715677267045745
30
0.16433161594775358
11
-4.465
21
0.4715677267045745
31
0.16433161594775358
12
-4.465
22
0.4715677267045745
32
2.2
13
-4.535
23
0.4715677267045745
33
2.2
0
3DFACE
5
100ED
330
10057
100
AcDbEntity
100
AcDbFace
8
MONTAJ_BORULARI
10
-4.535
20
0.4015677267045744
30
0.16433161594775358
11
-4.535
21
0.4715677267045745
31
0.16433161594775358
12
-4.535
22
0.4715677267045745
32
2.2
13
-4.535
23
0.4015677267045744
33
2.2
0
3DFACE
5
100EE
330
10057
100
AcDbEntity
100
AcDbFace
8
MONTAJ_BORULARI
10
-4.465
20
0.4015677267045744
30
0.16433161594775358
11
-4.465
21
0.4715677267045745
31
0.16433161594775358
12
-4.465
22
0.4715677267045745
32
2.2
13
-4.465
23
0.4015677267045744
33
2.2
0
LINE
5
100EF
330
10057
100
AcDbEntity
100
AcDbLine
8
MONTAJ_BORULARI
10
-4.535
20
0.4015677267045744
30
0.16433161594775358
11
-4.465
21
0.4015677267045744
31
0.16433161594775358
0
LINE
5
100F0
330
10057
100
AcDbEntity
100
AcDbLine
8
MONTAJ_BORULARI
10
-4.465
20
0.4015677267045744
30
0.16433161594775358
11
-4.465
21
0.4715677267045745
31
0.16433161594775358
0
LINE
5
100F1
330
10057
100
AcDbEntity
100
AcDbLine
8
MONTAJ_BORULARI
10
-4.465
20
0.4715677267045745
30
0.16433161594775358
11
-4.535
21
0.4715677267045745
31
0.16433161594775358
0
LINE
5
100F2
330
10057
100
AcDbEntity
100
AcDbLine
8
MONTAJ_BORULARI
10
-4.535
20
0.4715677267045745
30
0.16433161594775358
11
-4.535
21
0.4015677267045744
31
0.16433161594775358
0
LINE
5
100F3
330
10057
100
AcDbEntity
100
AcDbLine
8
MONTAJ_BORULARI
10
-4.535
20
0.4015677267045744
30
2.2
11
-4.465
21
0.4015677267045744
31
2.2
0
LINE
5
100F4
330
10057
100
AcDbEntity
100
AcDbLine
8
MONTAJ_BORULARI
10
-4.465
20
0.4015677267045744
30
2.2
11
-4.465
21
0.4715677267045745
31
2.2
0
LINE
5
100F5
330
10057
100
AcDbEntity
100
AcDbLine
8
MONTAJ_BORULARI
10
-4.465
20
0.4715677267045745
30
2.2
11
-4.535
21
0.4715677267045745
31
2.2
0
LINE
5
100F6
330
10057
100
AcDbEntity
100
AcDbLine
8
MONTAJ_BORULARI
10
-4.535
20
0.4715677267045745
30
2.2
11
-4.535
21
0.4015677267045744
31
2.2
0
LINE
5
100F7
330
10057
100
AcDbEntity
100
AcDbLine
8
MONTAJ_BORULARI
10
-4.535
20
0.4015677267045744
30
0.16433161594775358
11
-4.535
21
0.4015677267045744
31
2.2
0
LINE
5
100F8
330
10057
100
AcDbEntity
100
AcDbLine
8
MONTAJ_BORULARI
10
-4.465
20
0.4015677267045744
30
0.16433161594775358
11
-4.465
21
0.4015677267045744
31
2.2
0
LINE
5
100F9
330
10057
100
AcDbEntity
100
AcDbLine
8
MONTAJ_BORULARI
10
-4.465
20
0.4715677267045745
30
0.16433161594775358
11
-4.465
21
0.4715677267045745
31
2.2
0
LINE
5
100FA
330
10057
100
AcDbEntity
100
AcDbLine
8
MONTAJ_BORULARI
10
-4.535
20
0.4715677267045745
30
0.16433161594775358
11
-4.535
21
0.4715677267045745
31
2.2
0
3DFACE
5
100FB
330
10057
100
AcDbEntity
100
AcDbFace
8
MONTAJ_BORULARI
10
-4.535
20
0.12933161594775366
30
0.43656772670457444
11
-4.465
21
0.12933161594775366
31
0.43656772670457444
12
-4.465
22
0.19933161594775367
32
0.43656772670457444
13
-4.535
23
0.19933161594775367
33
0.43656772670457444
0
3DFACE
5
100FC
330
10057
100
AcDbEntity
100
AcDbFace
8
MONTAJ_BORULARI
10
-4.535
20
0.12933161594775366
30
2.2
11
-4.465
21
0.12933161594775366
31
2.2
12
-4.465
22
0.19933161594775367
32
2.2
13
-4.535
23
0.19933161594775367
33
2.2
0
3DFACE
5
100FD
330
10057
100
AcDbEntity
100
AcDbFace
8
MONTAJ_BORULARI
10
-4.535
20
0.12933161594775366
30
0.43656772670457444
11
-4.465
21
0.12933161594775366
31
0.43656772670457444
12
-4.465
22
0.12933161594775366
32
2.2
13
-4.535
23
0.12933161594775366
33
2.2
0
3DFACE
5
100FE
330
10057
100
AcDbEntity
100
AcDbFace
8
MONTAJ_BORULARI
10
-4.535
20
0.19933161594775367
30
0.43656772670457444
11
-4.465
21
0.19933161594775367
31
0.43656772670457444
12
-4.465
22
0.19933161594775367
32
2.2
13
-4.535
23
0.19933161594775367
33
2.2
0
3DFACE
5
100FF
330
10057
100
AcDbEntity
100
AcDbFace
8
MONTAJ_BORULARI
10
-4.535
20
0.12933161594775366
30
0.43656772670457444
11
-4.535
21
0.19933161594775367
31
0.43656772670457444
12
-4.535
22
0.19933161594775367
32
2.2
13
-4.535
23
0.12933161594775366
33
2.2
0
3DFACE
5
10100
330
10057
100
AcDbEntity
100
AcDbFace
8
MONTAJ_BORULARI
10
-4.465
20
0.12933161594775366
30
0.43656772670457444
11
-4.465
21
0.19933161594775367
31
0.43656772670457444
12
-4.465
22
0.19933161594775367
32
2.2
13
-4.465
23
0.12933161594775366
33
2.2
0
LINE
5
10101
330
10057
100
AcDbEntity
100
AcDbLine
8
MONTAJ_BORULARI
10
-4.535
20
0.12933161594775366
30
0.43656772670457444
11
-4.465
21
0.12933161594775366
31
0.43656772670457444
0
LINE
5
10102
330
10057
100
AcDbEntity
100
AcDbLine
8
MONTAJ_BORULARI
10
-4.465
20
0.12933161594775366
30
0.43656772670457444
11
-4.465
21
0.19933161594775367
31
0.43656772670457444
0
LINE
5
10103
330
10057
100
AcDbEntity
100
AcDbLine
8
MONTAJ_BORULARI
10
-4.465
20
0.19933161594775367
30
0.43656772670457444
11
-4.535
21
0.19933161594775367
31
0.43656772670457444
0
LINE
5
10104
330
10057
100
AcDbEntity
100
AcDbLine
8
MONTAJ_BORULARI
10
-4.535
20
0.19933161594775367
30
0.43656772670457444
11
-4.535
21
0.12933161594775366
31
0.43656772670457444
0
LINE
5
10105
330
10057
100
AcDbEntity
100
AcDbLine
8
MONTAJ_BORULARI
10
-4.535
20
0.12933161594775366
30
2.2
11
-4.465
21
0.12933161594775366
31
2.2
0
LINE
5
10106
330
10057
100
AcDbEntity
100
AcDbLine
8
MONTAJ_BORULARI
10
-4.465
20
0.12933161594775366
30
2.2
11
-4.465
21
0.19933161594775367
31
2.2
0
LINE
5
10107
330
10057
100
AcDbEntity
100
AcDbLine
8
MONTAJ_BORULARI
10
-4.465
20
0.19933161594775367
30
2.2
11
-4.535
21
0.19933161594775367
31
2.2
0
LINE
5
10108
330
10057
100
AcDbEntity
100
AcDbLine
8
MONTAJ_BORULARI
10
-4.535
20
0.19933161594775367
30
2.2
11
-4.535
21
0.12933161594775366
31
2.2
0
LINE
5
10109
330
10057
100
AcDbEntity
100
AcDbLine
8
MONTAJ_BORULARI
10
-4.535
20
0.12933161594775366
30
0.43656772670457444
11
-4.535
21
0.12933161594775366
31
2.2
0
LINE
5
1010A
330
10057
100
AcDbEntity
100
AcDbLine
8
MONTAJ_BORULARI
10
-4.465
20
0.12933161594775366
30
0.43656772670457444
11
-4.465
21
0.12933161594775366
31
2.2
0
LINE
5
1010B
330
10057
100
AcDbEntity
100
AcDbLine
8
MONTAJ_BORULARI
10
-4.465
20
0.19933161594775367
30
0.43656772670457444
11
-4.465
21
0.19933161594775367
31
2.2
0
LINE
5
1010C
330
10057
100
AcDbEntity
100
AcDbLine
8
MONTAJ_BORULARI
10
-4.535
20
0.19933161594775367
30
0.43656772670457444
11
-4.535
21
0.19933161594775367
31
2.2
0
3DFACE
5
10142
330
10057
100
AcDbEntity
100
AcDbFace
8
MONTAJ_BORULARI
10
-3.5
20
0.6093846240265667
30
-0.06236681810065359
11
-3.4730592316367925
21
0.6172753923897741
31
-0.05447604973744613
12
-3.4730592316367925
22
-0.05447604973744602
32
0.6172753923897741
13
-3.5
23
-0.062366818100653476
33
0.6093846240265667
0
3DFACE
5
10143
330
10057
100
AcDbEntity
100
AcDbFace
8
MONTAJ_BORULARI
10
-3.4730592316367925
20
0.6172753923897741
30
-0.05447604973744613
11
-3.4619
21
0.6363253923897741
31
-0.03542604973744612
12
-3.4619
22
-0.03542604973744601
32
0.6363253923897741
13
-3.4730592316367925
23
-0.05447604973744602
33
0.6172753923897741
0
3DFACE
5
10144
330
10057
100
AcDbEntity
100
AcDbFace
8
MONTAJ_BORULARI
10
-3.4619
20
0.6363253923897741
30
-0.03542604973744612
11
-3.4730592316367925
21
0.6553753923897742
31
-0.016376049737446108
12
-3.4730592316367925
22
-0.016376049737445997
32
0.6553753923897742
13
-3.4619
23
-0.03542604973744601
33
0.6363253923897741
0
3DFACE
5
10145
330
10057
100
AcDbEntity
100
AcDbFace
8
MONTAJ_BORULARI
10
-3.4730592316367925
20
0.6553753923897742
30
-0.016376049737446108
11
-3.5
21
0.6632661607529816
31
-0.008485281374238651
12
-3.5
22
-0.00848528137423854
32
0.6632661607529816
13
-3.4730592316367925
23
-0.016376049737445997
33
0.6553753923897742
0
3DFACE
5
10146
330
10057
100
AcDbEntity
100
AcDbFace
8
MONTAJ_BORULARI
10
-3.5
20
0.6632661607529816
30
-0.008485281374238651
11
-3.5269407683632075
21
0.6553753923897742
31
-0.016376049737446108
12
-3.5269407683632075
22
-0.016376049737445997
32
0.6553753923897742
13
-3.5
23
-0.00848528137423854
33
0.6632661607529816
0
3DFACE
5
10147
330
10057
100
AcDbEntity
100
AcDbFace
8
MONTAJ_BORULARI
10
-3.5269407683632075
20
0.6553753923897742
30
-0.016376049737446108
11
-3.5381
21
0.6363253923897741
31
-0.03542604973744612
12
-3.5381
22
-0.03542604973744601
32
0.6363253923897741
13
-3.5269407683632075
23
-0.016376049737445997
33
0.6553753923897742
0
3DFACE
5
10148
330
10057
100
AcDbEntity
100
AcDbFace
8
MONTAJ_BORULARI
10
-3.5381
20
0.6363253923897741
30
-0.03542604973744612
11
-3.5269407683632075
21
0.6172753923897741
31
-0.05447604973744613
12
-3.5269407683632075
22
-0.05447604973744602
32
0.6172753923897741
13
-3.5381
23
-0.03542604973744601
33
0.6363253923897741
0
3DFACE
5
10149
330
10057
100
AcDbEntity
100
AcDbFace
8
MONTAJ_BORULARI
10
-3.5269407683632075
20
0.6172753923897741
30
-0.05447604973744613
11
-3.5
21
0.6093846240265667
31
-0.06236681810065359
12
-3.5
22
-0.062366818100653476
32
0.6093846240265667
13
-3.5269407683632075
23
-0.05447604973744602
33
0.6172753923897741
0
3DFACE
5
1014A
330
10057
100
AcDbEntity
100
AcDbFace
8
MONTAJ_BORULARI
10
-3.535
20
0.4015677267045744
30
0.16433161594775358
11
-3.465
21
0.4015677267045744
31
0.16433161594775358
12
-3.465
22
0.4715677267045745
32
0.16433161594775358
13
-3.535
23
0.4715677267045745
33
0.16433161594775358
0
3DFACE
5
1014B
330
10057
100
AcDbEntity
100
AcDbFace
8
MONTAJ_BORULARI
10
-3.535
20
0.4015677267045744
30
2.2
11
-3.465
21
0.4015677267045744
31
2.2
12
-3.465
22
0.4715677267045745
32
2.2
13
-3.535
23
0.4715677267045745
33
2.2
0
3DFACE
5
1014C
330
10057
100
AcDbEntity
100
AcDbFace
8
MONTAJ_BORULARI
10
-3.535
20
0.4015677267045744
30
0.16433161594775358
11
-3.465
21
0.4015677267045744
31
0.16433161594775358
12
-3.465
22
0.4015677267045744
32
2.2
13
-3.535
23
0.4015677267045744
33
2.2
0
3DFACE
5
1014D
330
10057
100
AcDbEntity
100
AcDbFace
8
MONTAJ_BORULARI
10
-3.535
20
0.4715677267045745
30
0.16433161594775358
11
-3.465
21
0.4715677267045745
31
0.16433161594775358
12
-3.465
22
0.4715677267045745
32
2.2
13
-3.535
23
0.4715677267045745
33
2.2
0
3DFACE
5
1014E
330
10057
100
AcDbEntity
100
AcDbFace
8
MONTAJ_BORULARI
10
-3.535
20
0.4015677267045744
30
0.16433161594775358
11
-3.535
21
0.4715677267045745
31
0.16433161594775358
12
-3.535
22
0.4715677267045745
32
2.2
13
-3.535
23
0.4015677267045744
33
2.2
0
3DFACE
5
1014F
330
10057
100
AcDbEntity
100
AcDbFace
8
MONTAJ_BORULARI
10
-3.465
20
0.4015677267045744
30
0.16433161594775358
11
-3.465
21
0.4715677267045745
31
0.16433161594775358
12
-3.465
22
0.4715677267045745
32
2.2
13
-3.465
23
0.4015677267045744
33
2.2
0
LINE
5
10150
330
10057
100
AcDbEntity
100
AcDbLine
8
MONTAJ_BORULARI
10
-3.535
20
0.4015677267045744
30
0.16433161594775358
11
-3.465
21
0.4015677267045744
31
0.16433161594775358
0
LINE
5
10151
330
10057
100
AcDbEntity
100
AcDbLine
8
MONTAJ_BORULARI
10
-3.465
20
0.4015677267045744
30
0.16433161594775358
11
-3.465
21
0.4715677267045745
31
0.16433161594775358
0
LINE
5
10152
330
10057
100
AcDbEntity
100
AcDbLine
8
MONTAJ_BORULARI
10
-3.465
20
0.4715677267045745
30
0.16433161594775358
11
-3.535
21
0.4715677267045745
31
0.16433161594775358
0
LINE
5
10153
330
10057
100
AcDbEntity
100
AcDbLine
8
MONTAJ_BORULARI
10
-3.535
20
0.4715677267045745
30
0.16433161594775358
11
-3.535
21
0.4015677267045744
31
0.16433161594775358
0
LINE
5
10154
330
10057
100
AcDbEntity
100
AcDbLine
8
MONTAJ_BORULARI
10
-3.535
20
0.4015677267045744
30
2.2
11
-3.465
21
0.4015677267045744
31
2.2
0
LINE
5
10155
330
10057
100
AcDbEntity
100
AcDbLine
8
MONTAJ_BORULARI
10
-3.465
20
0.4015677267045744
30
2.2
11
-3.465
21
0.4715677267045745
31
2.2
0
LINE
5
10156
330
10057
100
AcDbEntity
100
AcDbLine
8
MONTAJ_BORULARI
10
-3.465
20
0.4715677267045745
30
2.2
11
-3.535
21
0.4715677267045745
31
2.2
0
LINE
5
10157
330
10057
100
AcDbEntity
100
AcDbLine
8
MONTAJ_BORULARI
10
-3.535
20
0.4715677267045745
30
2.2
11
-3.535
21
0.4015677267045744
31
2.2
0
LINE
5
10158
330
10057
100
AcDbEntity
100
AcDbLine
8
MONTAJ_BORULARI
10
-3.535
20
0.4015677267045744
30
0.16433161594775358
11
-3.535
21
0.4015677267045744
31
2.2
0
LINE
5
10159
330
10057
100
AcDbEntity
100
AcDbLine
8
MONTAJ_BORULARI
10
-3.465
20
0.4015677267045744
30
0.16433161594775358
11
-3.465
21
0.4015677267045744
31
2.2
0
LINE
5
1015A
330
10057
100
AcDbEntity
100
AcDbLine
8
MONTAJ_BORULARI
10
-3.465
20
0.4715677267045745
30
0.16433161594775358
11
-3.465
21
0.4715677267045745
31
2.2
0
LINE
5
1015B
330
10057
100
AcDbEntity
100
AcDbLine
8
MONTAJ_BORULARI
10
-3.535
20
0.4715677267045745
30
0.16433161594775358
11
-3.535
21
0.4715677267045745
31
2.2
0
3DFACE
5
1015C
330
10057
100
AcDbEntity
100
AcDbFace
8
MONTAJ_BORULARI
10
-3.535
20
0.12933161594775366
30
0.43656772670457444
11
-3.465
21
0.12933161594775366
31
0.43656772670457444
12
-3.465
22
0.19933161594775367
32
0.43656772670457444
13
-3.535
23
0.19933161594775367
33
0.43656772670457444
0
3DFACE
5
1015D
330
10057
100
AcDbEntity
100
AcDbFace
8
MONTAJ_BORULARI
10
-3.535
20
0.12933161594775366
30
2.2
11
-3.465
21
0.12933161594775366
31
2.2
12
-3.465
22
0.19933161594775367
32
2.2
13
-3.535
23
0.19933161594775367
33
2.2
0
3DFACE
5
1015E
330
10057
100
AcDbEntity
100
AcDbFace
8
MONTAJ_BORULARI
10
-3.535
20
0.12933161594775366
30
0.43656772670457444
11
-3.465
21
0.12933161594775366
31
0.43656772670457444
12
-3.465
22
0.12933161594775366
32
2.2
13
-3.535
23
0.12933161594775366
33
2.2
0
3DFACE
5
1015F
330
10057
100
AcDbEntity
100
AcDbFace
8
MONTAJ_BORULARI
10
-3.535
20
0.19933161594775367
30
0.43656772670457444
11
-3.465
21
0.19933161594775367
31
0.43656772670457444
12
-3.465
22
0.19933161594775367
32
2.2
13
-3.535
23
0.19933161594775367
33
2.2
0
3DFACE
5
10160
330
10057
100
AcDbEntity
100
AcDbFace
8
MONTAJ_BORULARI
10
-3.535
20
0.12933161594775366
30
0.43656772670457444
11
-3.535
21
0.19933161594775367
31
0.43656772670457444
12
-3.535
22
0.19933161594775367
32
2.2
13
-3.535
23
0.12933161594775366
33
2.2
0
3DFACE
5
10161
330
10057
100
AcDbEntity
100
AcDbFace
8
MONTAJ_BORULARI
10
-3.465
20
0.12933161594775366
30
0.43656772670457444
11
-3.465
21
0.19933161594775367
31
0.43656772670457444
12
-3.465
22
0.19933161594775367
32
2.2
13
-3.465
23
0.12933161594775366
33
2.2
0
LINE
5
10162
330
10057
100
AcDbEntity
100
AcDbLine
8
MONTAJ_BORULARI
10
-3.535
20
0.12933161594775366
30
0.43656772670457444
11
-3.465
21
0.12933161594775366
31
0.43656772670457444
0
LINE
5
10163
330
10057
100
AcDbEntity
100
AcDbLine
8
MONTAJ_BORULARI
10
-3.465
20
0.12933161594775366
30
0.43656772670457444
11
-3.465
21
0.19933161594775367
31
0.43656772670457444
0
LINE
5
10164
330
10057
100
AcDbEntity
100
AcDbLine
8
MONTAJ_BORULARI
10
-3.465
20
0.19933161594775367
30
0.43656772670457444
11
-3.535
21
0.19933161594775367
31
0.43656772670457444
0
LINE
5
10165
330
10057
100
AcDbEntity
100
AcDbLine
8
MONTAJ_BORULARI
10
-3.535
20
0.19933161594775367
30
0.43656772670457444
11
-3.535
21
0.12933161594775366
31
0.43656772670457444
0
LINE
5
10166
330
10057
100
AcDbEntity
100
AcDbLine
8
MONTAJ_BORULARI
10
-3.535
20
0.12933161594775366
30
2.2
11
-3.465
21
0.12933161594775366
31
2.2
0
LINE
5
10167
330
10057
100
AcDbEntity
100
AcDbLine
8
MONTAJ_BORULARI
10
-3.465
20
0.12933161594775366
30
2.2
11
-3.465
21
0.19933161594775367
31
2.2
0
LINE
5
10168
330
10057
100
AcDbEntity
100
AcDbLine
8
MONTAJ_BORULARI
10
-3.465
20
0.19933161594775367
30
2.2
11
-3.535
21
0.19933161594775367
31
2.2
0
LINE
5
10169
330
10057
100
AcDbEntity
100
AcDbLine
8
MONTAJ_BORULARI
10
-3.535
20
0.19933161594775367
30
2.2
11
-3.535
21
0.12933161594775366
31
2.2
0
LINE
5
1016A
330
10057
100
AcDbEntity
100
AcDbLine
8
MONTAJ_BORULARI
10
-3.535
20
0.12933161594775366
30
0.43656772670457444
11
-3.535
21
0.12933161594775366
31
2.2
0
LINE
5
1016B
330
10057
100
AcDbEntity
100
AcDbLine
8
MONTAJ_BORULARI
10
-3.465
20
0.12933161594775366
30
0.43656772670457444
11
-3.465
21
0.12933161594775366
31
2.2
0
LINE
5
1016C
330
10057
100
AcDbEntity
100
AcDbLine
8
MONTAJ_BORULARI
10
-3.465
20
0.19933161594775367
30
0.43656772670457444
11
-3.465
21
0.19933161594775367
31
2.2
0
LINE
5
1016D
330
10057
100
AcDbEntity
100
AcDbLine
8
MONTAJ_BORULARI
10
-3.535
20
0.19933161594775367
30
0.43656772670457444
11
-3.535
21
0.19933161594775367
31
2.2
0
3DFACE
5
101B5
330
10057
100
AcDbEntity
100
AcDbFace
8
MONTAJ_BORULARI
10
6.308421816450025
20
0.6926342344181599
30
-0.06236681810065359
11
6.336436659405767
21
0.690834845764509
31
-0.05447604973744613
12
6.106684134890191
22
0.05959497259526799
32
0.6172753923897741
13
6.078669291934448
23
0.0613943612489189
33
0.6093846240265667
0
3DFACE
5
101B6
330
10057
100
AcDbEntity
100
AcDbFace
8
MONTAJ_BORULARI
10
6.336436659405767
20
0.690834845764509
30
-0.05447604973744613
11
6.353438390758856
21
0.7049193081866605
31
-0.03542604973744612
12
6.123685866243279
22
0.07367943501741944
32
0.6363253923897741
13
6.106684134890191
23
0.05959497259526799
33
0.6172753923897741
0
3DFACE
5
101B7
330
10057
100
AcDbEntity
100
AcDbFace
8
MONTAJ_BORULARI
10
6.353438390758856
20
0.7049193081866605
30
-0.03542604973744612
11
6.349467626866475
21
0.7266371346164522
31
-0.016376049737446108
12
6.119715102350899
22
0.09539726144721111
32
0.6553753923897742
13
6.123685866243279
23
0.07367943501741944
33
0.6363253923897741
0
3DFACE
5
101B8
330
10057
100
AcDbEntity
100
AcDbFace
8
MONTAJ_BORULARI
10
6.349467626866475
20
0.7266371346164522
30
-0.016376049737446108
11
6.3268503873638
21
0.743266316876577
31
-0.008485281374238651
12
6.097097862848224
22
0.11202644370733593
32
0.6632661607529816
13
6.119715102350899
23
0.09539726144721111
33
0.6553753923897742
0
3DFACE
5
101B9
330
10057
100
AcDbEntity
100
AcDbFace
8
MONTAJ_BORULARI
10
6.3268503873638
20
0.743266316876577
30
-0.008485281374238651
11
6.298835544408058
21
0.7450657055302279
31
-0.016376049737446108
12
6.0690830198924814
22
0.11382583236098684
32
0.6553753923897742
13
6.097097862848224
23
0.11202644370733593
33
0.6632661607529816
0
3DFACE
5
101BA
330
10057
100
AcDbEntity
100
AcDbFace
8
MONTAJ_BORULARI
10
6.298835544408058
20
0.7450657055302279
30
-0.016376049737446108
11
6.28183381305497
21
0.7309812431080764
31
-0.03542604973744612
12
6.052081288539393
22
0.0997413699388354
32
0.6363253923897741
13
6.0690830198924814
23
0.11382583236098684
33
0.6553753923897742
0
3DFACE
5
101BB
330
10057
100
AcDbEntity
100
AcDbFace
8
MONTAJ_BORULARI
10
6.28183381305497
20
0.7309812431080764
30
-0.03542604973744612
11
6.28580457694735
21
0.7092634166782847
31
-0.05447604973744613
12
6.056052052431774
22
0.07802354350904371
32
0.6172753923897741
13
6.052081288539393
23
0.0997413699388354
33
0.6363253923897741
0
3DFACE
5
101BC
330
10057
100
AcDbEntity
100
AcDbFace
8
MONTAJ_BORULARI
10
6.28580457694735
20
0.7092634166782847
30
-0.05447604973744613
11
6.308421816450025
21
0.6926342344181599
31
-0.06236681810065359
12
6.078669291934448
22
0.0613943612489189
32
0.6093846240265667
13
6.056052052431774
23
0.07802354350904371
33
0.6172753923897741
0
3DFACE
5
101BD
330
10057
100
AcDbEntity
100
AcDbFace
8
MONTAJ_BORULARI
10
6.21431495645886
20
0.49523947125756773
30
0.16433161594775358
11
6.28431495645886
21
0.49523947125756773
31
0.16433161594775358
12
6.28431495645886
22
0.5652394712575678
32
0.16433161594775358
13
6.21431495645886
23
0.5652394712575678
33
0.16433161594775358
0
3DFACE
5
101BE
330
10057
100
AcDbEntity
100
AcDbFace
8
MONTAJ_BORULARI
10
6.21431495645886
20
0.49523947125756773
30
2.2
11
6.28431495645886
21
0.49523947125756773
31
2.2
12
6.28431495645886
22
0.5652394712575678
32
2.2
13
6.21431495645886
23
0.5652394712575678
33
2.2
0
3DFACE
5
101BF
330
10057
100
AcDbEntity
100
AcDbFace
8
MONTAJ_BORULARI
10
6.21431495645886
20
0.49523947125756773
30
0.16433161594775358
11
6.28431495645886
21
0.49523947125756773
31
0.16433161594775358
12
6.28431495645886
22
0.49523947125756773
32
2.2
13
6.21431495645886
23
0.49523947125756773
33
2.2
0
3DFACE
5
101C0
330
10057
100
AcDbEntity
100
AcDbFace
8
MONTAJ_BORULARI
10
6.21431495645886
20
0.5652394712575678
30
0.16433161594775358
11
6.28431495645886
21
0.5652394712575678
31
0.16433161594775358
12
6.28431495645886
22
0.5652394712575678
32
2.2
13
6.21431495645886
23
0.5652394712575678
33
2.2
0
3DFACE
5
101C1
330
10057
100
AcDbEntity
100
AcDbFace
8
MONTAJ_BORULARI
10
6.21431495645886
20
0.49523947125756773
30
0.16433161594775358
11
6.21431495645886
21
0.5652394712575678
31
0.16433161594775358
12
6.21431495645886
22
0.5652394712575678
32
2.2
13
6.21431495645886
23
0.49523947125756773
33
2.2
0
3DFACE
5
101C2
330
10057
100
AcDbEntity
100
AcDbFace
8
MONTAJ_BORULARI
10
6.28431495645886
20
0.49523947125756773
30
0.16433161594775358
11
6.28431495645886
21
0.5652394712575678
31
0.16433161594775358
12
6.28431495645886
22
0.5652394712575678
32
2.2
13
6.28431495645886
23
0.49523947125756773
33
2.2
0
LINE
5
101C3
330
10057
100
AcDbEntity
100
AcDbLine
8
MONTAJ_BORULARI
10
6.21431495645886
20
0.49523947125756773
30
0.16433161594775358
11
6.28431495645886
21
0.49523947125756773
31
0.16433161594775358
0
LINE
5
101C4
330
10057
100
AcDbEntity
100
AcDbLine
8
MONTAJ_BORULARI
10
6.28431495645886
20
0.49523947125756773
30
0.16433161594775358
11
6.28431495645886
21
0.5652394712575678
31
0.16433161594775358
0
LINE
5
101C5
330
10057
100
AcDbEntity
100
AcDbLine
8
MONTAJ_BORULARI
10
6.28431495645886
20
0.5652394712575678
30
0.16433161594775358
11
6.21431495645886
21
0.5652394712575678
31
0.16433161594775358
0
LINE
5
101C6
330
10057
100
AcDbEntity
100
AcDbLine
8
MONTAJ_BORULARI
10
6.21431495645886
20
0.5652394712575678
30
0.16433161594775358
11
6.21431495645886
21
0.49523947125756773
31
0.16433161594775358
0
LINE
5
101C7
330
10057
100
AcDbEntity
100
AcDbLine
8
MONTAJ_BORULARI
10
6.21431495645886
20
0.49523947125756773
30
2.2
11
6.28431495645886
21
0.49523947125756773
31
2.2
0
LINE
5
101C8
330
10057
100
AcDbEntity
100
AcDbLine
8
MONTAJ_BORULARI
10
6.28431495645886
20
0.49523947125756773
30
2.2
11
6.28431495645886
21
0.5652394712575678
31
2.2
0
LINE
5
101C9
330
10057
100
AcDbEntity
100
AcDbLine
8
MONTAJ_BORULARI
10
6.28431495645886
20
0.5652394712575678
30
2.2
11
6.21431495645886
21
0.5652394712575678
31
2.2
0
LINE
5
101CA
330
10057
100
AcDbEntity
100
AcDbLine
8
MONTAJ_BORULARI
10
6.21431495645886
20
0.5652394712575678
30
2.2
11
6.21431495645886
21
0.49523947125756773
31
2.2
0
LINE
5
101CB
330
10057
100
AcDbEntity
100
AcDbLine
8
MONTAJ_BORULARI
10
6.21431495645886
20
0.49523947125756773
30
0.16433161594775358
11
6.21431495645886
21
0.49523947125756773
31
2.2
0
LINE
5
101CC
330
10057
100
AcDbEntity
100
AcDbLine
8
MONTAJ_BORULARI
10
6.28431495645886
20
0.49523947125756773
30
0.16433161594775358
11
6.28431495645886
21
0.49523947125756773
31
2.2
0
LINE
5
101CD
330
10057
100
AcDbEntity
100
AcDbLine
8
MONTAJ_BORULARI
10
6.28431495645886
20
0.5652394712575678
30
0.16433161594775358
11
6.28431495645886
21
0.5652394712575678
31
2.2
0
LINE
5
101CE
330
10057
100
AcDbEntity
100
AcDbLine
8
MONTAJ_BORULARI
10
6.21431495645886
20
0.5652394712575678
30
0.16433161594775358
11
6.21431495645886
21
0.5652394712575678
31
2.2
0
3DFACE
5
101CF
330
10057
100
AcDbEntity
100
AcDbFace
8
MONTAJ_BORULARI
10
6.121204722839389
20
0.23942120686792803
30
0.43656772670457444
11
6.191204722839389
21
0.23942120686792803
31
0.43656772670457444
12
6.191204722839389
22
0.30942120686792807
32
0.43656772670457444
13
6.121204722839389
23
0.30942120686792807
33
0.43656772670457444
0
3DFACE
5
101D0
330
10057
100
AcDbEntity
100
AcDbFace
8
MONTAJ_BORULARI
10
6.121204722839389
20
0.23942120686792803
30
2.2
11
6.191204722839389
21
0.23942120686792803
31
2.2
12
6.191204722839389
22
0.30942120686792807
32
2.2
13
6.121204722839389
23
0.30942120686792807
33
2.2
0
3DFACE
5
101D1
330
10057
100
AcDbEntity
100
AcDbFace
8
MONTAJ_BORULARI
10
6.121204722839389
20
0.23942120686792803
30
0.43656772670457444
11
6.191204722839389
21
0.23942120686792803
31
0.43656772670457444
12
6.191204722839389
22
0.23942120686792803
32
2.2
13
6.121204722839389
23
0.23942120686792803
33
2.2
0
3DFACE
5
101D2
330
10057
100
AcDbEntity
100
AcDbFace
8
MONTAJ_BORULARI
10
6.121204722839389
20
0.30942120686792807
30
0.43656772670457444
11
6.191204722839389
21
0.30942120686792807
31
0.43656772670457444
12
6.191204722839389
22
0.30942120686792807
32
2.2
13
6.121204722839389
23
0.30942120686792807
33
2.2
0
3DFACE
5
101D3
330
10057
100
AcDbEntity
100
AcDbFace
8
MONTAJ_BORULARI
10
6.121204722839389
20
0.23942120686792803
30
0.43656772670457444
11
6.121204722839389
21
0.30942120686792807
31
0.43656772670457444
12
6.121204722839389
22
0.30942120686792807
32
2.2
13
6.121204722839389
23
0.23942120686792803
33
2.2
0
3DFACE
5
101D4
330
10057
100
AcDbEntity
100
AcDbFace
8
MONTAJ_BORULARI
10
6.191204722839389
20
0.23942120686792803
30
0.43656772670457444
11
6.191204722839389
21
0.30942120686792807
31
0.43656772670457444
12
6.191204722839389
22
0.30942120686792807
32
2.2
13
6.191204722839389
23
0.23942120686792803
33
2.2
0
LINE
5
101D5
330
10057
100
AcDbEntity
100
AcDbLine
8
MONTAJ_BORULARI
10
6.121204722839389
20
0.23942120686792803
30
0.43656772670457444
11
6.191204722839389
21
0.23942120686792803
31
0.43656772670457444
0
LINE
5
101D6
330
10057
100
AcDbEntity
100
AcDbLine
8
MONTAJ_BORULARI
10
6.191204722839389
20
0.23942120686792803
30
0.43656772670457444
11
6.191204722839389
21
0.30942120686792807
31
0.43656772670457444
0
LINE
5
101D7
330
10057
100
AcDbEntity
100
AcDbLine
8
MONTAJ_BORULARI
10
6.191204722839389
20
0.30942120686792807
30
0.43656772670457444
11
6.121204722839389
21
0.30942120686792807
31
0.43656772670457444
0
LINE
5
101D8
330
10057
100
AcDbEntity
100
AcDbLine
8
MONTAJ_BORULARI
10
6.121204722839389
20
0.30942120686792807
30
0.43656772670457444
11
6.121204722839389
21
0.23942120686792803
31
0.43656772670457444
0
LINE
5
101D9
330
10057
100
AcDbEntity
100
AcDbLine
8
MONTAJ_BORULARI
10
6.121204722839389
20
0.23942120686792803
30
2.2
11
6.191204722839389
21
0.23942120686792803
31
2.2
0
LINE
5
101DA
330
10057
100
AcDbEntity
100
AcDbLine
8
MONTAJ_BORULARI
10
6.191204722839389
20
0.23942120686792803
30
2.2
11
6.191204722839389
21
0.30942120686792807
31
2.2
0
LINE
5
101DB
330
10057
100
AcDbEntity
100
AcDbLine
8
MONTAJ_BORULARI
10
6.191204722839389
20
0.30942120686792807
30
2.2
11
6.121204722839389
21
0.30942120686792807
31
2.2
0
LINE
5
101DC
330
10057
100
AcDbEntity
100
AcDbLine
8
MONTAJ_BORULARI
10
6.121204722839389
20
0.30942120686792807
30
2.2
11
6.121204722839389
21
0.23942120686792803
31
2.2
0
LINE
5
101DD
330
10057
100
AcDbEntity
100
AcDbLine
8
MONTAJ_BORULARI
10
6.121204722839389
20
0.23942120686792803
30
0.43656772670457444
11
6.121204722839389
21
0.23942120686792803
31
2.2
0
LINE
5
101DE
330
10057
100
AcDbEntity
100
AcDbLine
8
MONTAJ_BORULARI
10
6.191204722839389
20
0.23942120686792803
30
0.43656772670457444
11
6.191204722839389
21
0.23942120686792803
31
2.2
0
LINE
5
101DF
330
10057
100
AcDbEntity
100
AcDbLine
8
MONTAJ_BORULARI
10
6.191204722839389
20
0.30942120686792807
30
0.43656772670457444
11
6.191204722839389
21
0.30942120686792807
31
2.2
0
LINE
5
101E0
330
10057
100
AcDbEntity
100
AcDbLine
8
MONTAJ_BORULARI
10
6.121204722839389
20
0.30942120686792807
30
0.43656772670457444
11
6.121204722839389
21
0.30942120686792807
31
2.2
0
3DFACE
5
10216
330
10057
100
AcDbEntity
100
AcDbFace
8
MONTAJ_BORULARI
10
7
20
0.6093846240265667
30
-0.06236681810065359
11
7.0269407683632075
21
0.6172753923897741
31
-0.05447604973744613
12
7.0269407683632075
22
-0.05447604973744602
32
0.6172753923897741
13
7
23
-0.062366818100653476
33
0.6093846240265667
0
3DFACE
5
10217
330
10057
100
AcDbEntity
100
AcDbFace
8
MONTAJ_BORULARI
10
7.0269407683632075
20
0.6172753923897741
30
-0.05447604973744613
11
7.0381
21
0.6363253923897741
31
-0.03542604973744612
12
7.0381
22
-0.03542604973744601
32
0.6363253923897741
13
7.0269407683632075
23
-0.05447604973744602
33
0.6172753923897741
0
3DFACE
5
10218
330
10057
100
AcDbEntity
100
AcDbFace
8
MONTAJ_BORULARI
10
7.0381
20
0.6363253923897741
30
-0.03542604973744612
11
7.0269407683632075
21
0.6553753923897742
31
-0.016376049737446108
12
7.0269407683632075
22
-0.016376049737445997
32
0.6553753923897742
13
7.0381
23
-0.03542604973744601
33
0.6363253923897741
0
3DFACE
5
10219
330
10057
100
AcDbEntity
100
AcDbFace
8
MONTAJ_BORULARI
10
7.0269407683632075
20
0.6553753923897742
30
-0.016376049737446108
11
7
21
0.6632661607529816
31
-0.008485281374238651
12
7
22
-0.00848528137423854
32
0.6632661607529816
13
7.0269407683632075
23
-0.016376049737445997
33
0.6553753923897742
0
3DFACE
5
1021A
330
10057
100
AcDbEntity
100
AcDbFace
8
MONTAJ_BORULARI
10
7
20
0.6632661607529816
30
-0.008485281374238651
11
6.9730592316367925
21
0.6553753923897742
31
-0.016376049737446108
12
6.9730592316367925
22
-0.016376049737445997
32
0.6553753923897742
13
7
23
-0.00848528137423854
33
0.6632661607529816
0
3DFACE
5
1021B
330
10057
100
AcDbEntity
100
AcDbFace
8
MONTAJ_BORULARI
10
6.9730592316367925
20
0.6553753923897742
30
-0.016376049737446108
11
6.9619
21
0.6363253923897741
31
-0.03542604973744612
12
6.9619
22
-0.03542604973744601
32
0.6363253923897741
13
6.9730592316367925
23
-0.016376049737445997
33
0.6553753923897742
0
3DFACE
5
1021C
330
10057
100
AcDbEntity
100
AcDbFace
8
MONTAJ_BORULARI
10
6.9619
20
0.6363253923897741
30
-0.03542604973744612
11
6.9730592316367925
21
0.6172753923897741
31
-0.05447604973744613
12
6.9730592316367925
22
-0.05447604973744602
32
0.6172753923897741
13
6.9619
23
-0.03542604973744601
33
0.6363253923897741
0
3DFACE
5
1021D
330
10057
100
AcDbEntity
100
AcDbFace
8
MONTAJ_BORULARI
10
6.9730592316367925
20
0.6172753923897741
30
-0.05447604973744613
11
7
21
0.6093846240265667
31
-0.06236681810065359
12
7
22
-0.062366818100653476
32
0.6093846240265667
13
6.9730592316367925
23
-0.05447604973744602
33
0.6172753923897741
0
3DFACE
5
1021E
330
10057
100
AcDbEntity
100
AcDbFace
8
MONTAJ_BORULARI
10
6.965
20
0.4015677267045744
30
0.16433161594775358
11
7.035
21
0.4015677267045744
31
0.16433161594775358
12
7.035
22
0.4715677267045745
32
0.16433161594775358
13
6.965
23
0.4715677267045745
33
0.16433161594775358
0
3DFACE
5
1021F
330
10057
100
AcDbEntity
100
AcDbFace
8
MONTAJ_BORULARI
10
6.965
20
0.4015677267045744
30
2.2
11
7.035
21
0.4015677267045744
31
2.2
12
7.035
22
0.4715677267045745
32
2.2
13
6.965
23
0.4715677267045745
33
2.2
0
3DFACE
5
10220
330
10057
100
AcDbEntity
100
AcDbFace
8
MONTAJ_BORULARI
10
6.965
20
0.4015677267045744
30
0.16433161594775358
11
7.035
21
0.4015677267045744
31
0.16433161594775358
12
7.035
22
0.4015677267045744
32
2.2
13
6.965
23
0.4015677267045744
33
2.2
0
3DFACE
5
10221
330
10057
100
AcDbEntity
100
AcDbFace
8
MONTAJ_BORULARI
10
6.965
20
0.4715677267045745
30
0.16433161594775358
11
7.035
21
0.4715677267045745
31
0.16433161594775358
12
7.035
22
0.4715677267045745
32
2.2
13
6.965
23
0.4715677267045745
33
2.2
0
3DFACE
5
10222
330
10057
100
AcDbEntity
100
AcDbFace
8
MONTAJ_BORULARI
10
6.965
20
0.4015677267045744
30
0.16433161594775358
11
6.965
21
0.4715677267045745
31
0.16433161594775358
12
6.965
22
0.4715677267045745
32
2.2
13
6.965
23
0.4015677267045744
33
2.2
0
3DFACE
5
10223
330
10057
100
AcDbEntity
100
AcDbFace
8
MONTAJ_BORULARI
10
7.035
20
0.4015677267045744
30
0.16433161594775358
11
7.035
21
0.4715677267045745
31
0.16433161594775358
12
7.035
22
0.4715677267045745
32
2.2
13
7.035
23
0.4015677267045744
33
2.2
0
LINE
5
10224
330
10057
100
AcDbEntity
100
AcDbLine
8
MONTAJ_BORULARI
10
6.965
20
0.4015677267045744
30
0.16433161594775358
11
7.035
21
0.4015677267045744
31
0.16433161594775358
0
LINE
5
10225
330
10057
100
AcDbEntity
100
AcDbLine
8
MONTAJ_BORULARI
10
7.035
20
0.4015677267045744
30
0.16433161594775358
11
7.035
21
0.4715677267045745
31
0.16433161594775358
0
LINE
5
10226
330
10057
100
AcDbEntity
100
AcDbLine
8
MONTAJ_BORULARI
10
7.035
20
0.4715677267045745
30
0.16433161594775358
11
6.965
21
0.4715677267045745
31
0.16433161594775358
0
LINE
5
10227
330
10057
100
AcDbEntity
100
AcDbLine
8
MONTAJ_BORULARI
10
6.965
20
0.4715677267045745
30
0.16433161594775358
11
6.965
21
0.4015677267045744
31
0.16433161594775358
0
LINE
5
10228
330
10057
100
AcDbEntity
100
AcDbLine
8
MONTAJ_BORULARI
10
6.965
20
0.4015677267045744
30
2.2
11
7.035
21
0.4015677267045744
31
2.2
0
LINE
5
10229
330
10057
100
AcDbEntity
100
AcDbLine
8
MONTAJ_BORULARI
10
7.035
20
0.4015677267045744
30
2.2
11
7.035
21
0.4715677267045745
31
2.2
0
LINE
5
1022A
330
10057
100
AcDbEntity
100
AcDbLine
8
MONTAJ_BORULARI
10
7.035
20
0.4715677267045745
30
2.2
11
6.965
21
0.4715677267045745
31
2.2
0
LINE
5
1022B
330
10057
100
AcDbEntity
100
AcDbLine
8
MONTAJ_BORULARI
10
6.965
20
0.4715677267045745
30
2.2
11
6.965
21
0.4015677267045744
31
2.2
0
LINE
5
1022C
330
10057
100
AcDbEntity
100
AcDbLine
8
MONTAJ_BORULARI
10
6.965
20
0.4015677267045744
30
0.16433161594775358
11
6.965
21
0.4015677267045744
31
2.2
0
LINE
5
1022D
330
10057
100
AcDbEntity
100
AcDbLine
8
MONTAJ_BORULARI
10
7.035
20
0.4015677267045744
30
0.16433161594775358
11
7.035
21
0.4015677267045744
31
2.2
0
LINE
5
1022E
330
10057
100
AcDbEntity
100
AcDbLine
8
MONTAJ_BORULARI
10
7.035
20
0.4715677267045745
30
0.16433161594775358
11
7.035
21
0.4715677267045745
31
2.2
0
LINE
5
1022F
330
10057
100
AcDbEntity
100
AcDbLine
8
MONTAJ_BORULARI
10
6.965
20
0.4715677267045745
30
0.16433161594775358
11
6.965
21
0.4715677267045745
31
2.2
0
3DFACE
5
10230
330
10057
100
AcDbEntity
100
AcDbFace
8
MONTAJ_BORULARI
10
6.965
20
0.12933161594775366
30
0.43656772670457444
11
7.035
21
0.12933161594775366
31
0.43656772670457444
12
7.035
22
0.19933161594775367
32
0.43656772670457444
13
6.965
23
0.19933161594775367
33
0.43656772670457444
0
3DFACE
5
10231
330
10057
100
AcDbEntity
100
AcDbFace
8
MONTAJ_BORULARI
10
6.965
20
0.12933161594775366
30
2.2
11
7.035
21
0.12933161594775366
31
2.2
12
7.035
22
0.19933161594775367
32
2.2
13
6.965
23
0.19933161594775367
33
2.2
0
3DFACE
5
10232
330
10057
100
AcDbEntity
100
AcDbFace
8
MONTAJ_BORULARI
10
6.965
20
0.12933161594775366
30
0.43656772670457444
11
7.035
21
0.12933161594775366
31
0.43656772670457444
12
7.035
22
0.12933161594775366
32
2.2
13
6.965
23
0.12933161594775366
33
2.2
0
3DFACE
5
10233
330
10057
100
AcDbEntity
100
AcDbFace
8
MONTAJ_BORULARI
10
6.965
20
0.19933161594775367
30
0.43656772670457444
11
7.035
21
0.19933161594775367
31
0.43656772670457444
12
7.035
22
0.19933161594775367
32
2.2
13
6.965
23
0.19933161594775367
33
2.2
0
3DFACE
5
10234
330
10057
100
AcDbEntity
100
AcDbFace
8
MONTAJ_BORULARI
10
6.965
20
0.12933161594775366
30
0.43656772670457444
11
6.965
21
0.19933161594775367
31
0.43656772670457444
12
6.965
22
0.19933161594775367
32
2.2
13
6.965
23
0.12933161594775366
33
2.2
0
3DFACE
5
10235
330
10057
100
AcDbEntity
100
AcDbFace
8
MONTAJ_BORULARI
10
7.035
20
0.12933161594775366
30
0.43656772670457444
11
7.035
21
0.19933161594775367
31
0.43656772670457444
12
7.035
22
0.19933161594775367
32
2.2
13
7.035
23
0.12933161594775366
33
2.2
0
LINE
5
10236
330
10057
100
AcDbEntity
100
AcDbLine
8
MONTAJ_BORULARI
10
6.965
20
0.12933161594775366
30
0.43656772670457444
11
7.035
21
0.12933161594775366
31
0.43656772670457444
0
LINE
5
10237
330
10057
100
AcDbEntity
100
AcDbLine
8
MONTAJ_BORULARI
10
7.035
20
0.12933161594775366
30
0.43656772670457444
11
7.035
21
0.19933161594775367
31
0.43656772670457444
0
LINE
5
10238
330
10057
100
AcDbEntity
100
AcDbLine
8
MONTAJ_BORULARI
10
7.035
20
0.19933161594775367
30
0.43656772670457444
11
6.965
21
0.19933161594775367
31
0.43656772670457444
0
LINE
5
10239
330
10057
100
AcDbEntity
100
AcDbLine
8
MONTAJ_BORULARI
10
6.965
20
0.19933161594775367
30
0.43656772670457444
11
6.965
21
0.12933161594775366
31
0.43656772670457444
0
LINE
5
1023A
330
10057
100
AcDbEntity
100
AcDbLine
8
MONTAJ_BORULARI
10
6.965
20
0.12933161594775366
30
2.2
11
7.035
21
0.12933161594775366
31
2.2
0
LINE
5
1023B
330
10057
100
AcDbEntity
100
AcDbLine
8
MONTAJ_BORULARI
10
7.035
20
0.12933161594775366
30
2.2
11
7.035
21
0.19933161594775367
31
2.2
0
LINE
5
1023C
330
10057
100
AcDbEntity
100
AcDbLine
8
MONTAJ_BORULARI
10
7.035
20
0.19933161594775367
30
2.2
11
6.965
21
0.19933161594775367
31
2.2
0
LINE
5
1023D
330
10057
100
AcDbEntity
100
AcDbLine
8
MONTAJ_BORULARI
10
6.965
20
0.19933161594775367
30
2.2
11
6.965
21
0.12933161594775366
31
2.2
0
LINE
5
1023E
330
10057
100
AcDbEntity
100
AcDbLine
8
MONTAJ_BORULARI
10
6.965
20
0.12933161594775366
30
0.43656772670457444
11
6.965
21
0.12933161594775366
31
2.2
0
LINE
5
1023F
330
10057
100
AcDbEntity
100
AcDbLine
8
MONTAJ_BORULARI
10
7.035
20
0.12933161594775366
30
0.43656772670457444
11
7.035
21
0.12933161594775366
31
2.2
0
LINE
5
10240
330
10057
100
AcDbEntity
100
AcDbLine
8
MONTAJ_BORULARI
10
7.035
20
0.19933161594775367
30
0.43656772670457444
11
7.035
21
0.19933161594775367
31
2.2
0
LINE
5
10241
330
10057
100
AcDbEntity
100
AcDbLine
8
MONTAJ_BORULARI
10
6.965
20
0.19933161594775367
30
0.43656772670457444
11
6.965
21
0.19933161594775367
31
2.2
0
3DFACE
5
10277
330
10057
100
AcDbEntity
100
AcDbFace
8
MONTAJ_BORULARI
10
7.691578183549975
20
0.6926342344181599
30
-0.06236681810065359
11
7.71419542305265
21
0.7092634166782847
31
-0.05447604973744613
12
7.943947947568226
22
0.0780235435090437
32
0.6172753923897741
13
7.921330708065552
23
0.0613943612489189
33
0.6093846240265667
0
3DFACE
5
10278
330
10057
100
AcDbEntity
100
AcDbFace
8
MONTAJ_BORULARI
10
7.71419542305265
20
0.7092634166782847
30
-0.05447604973744613
11
7.71816618694503
21
0.7309812431080764
31
-0.03542604973744612
12
7.947918711460607
22
0.0997413699388354
32
0.6363253923897741
13
7.943947947568226
23
0.0780235435090437
33
0.6172753923897741
0
3DFACE
5
10279
330
10057
100
AcDbEntity
100
AcDbFace
8
MONTAJ_BORULARI
10
7.71816618694503
20
0.7309812431080764
30
-0.03542604973744612
11
7.701164455591942
21
0.7450657055302279
31
-0.016376049737446108
12
7.9309169801075186
22
0.11382583236098684
32
0.6553753923897742
13
7.947918711460607
23
0.0997413699388354
33
0.6363253923897741
0
3DFACE
5
1027A
330
10057
100
AcDbEntity
100
AcDbFace
8
MONTAJ_BORULARI
10
7.701164455591942
20
0.7450657055302279
30
-0.016376049737446108
11
7.6731496126362
21
0.743266316876577
31
-0.008485281374238651
12
7.902902137151776
22
0.11202644370733593
32
0.6632661607529816
13
7.9309169801075186
23
0.11382583236098684
33
0.6553753923897742
0
3DFACE
5
1027B
330
10057
100
AcDbEntity
100
AcDbFace
8
MONTAJ_BORULARI
10
7.6731496126362
20
0.743266316876577
30
-0.008485281374238651
11
7.650532373133525
21
0.7266371346164522
31
-0.016376049737446108
12
7.880284897649101
22
0.09539726144721113
32
0.6553753923897742
13
7.902902137151776
23
0.11202644370733593
33
0.6632661607529816
0
3DFACE
5
1027C
330
10057
100
AcDbEntity
100
AcDbFace
8
MONTAJ_BORULARI
10
7.650532373133525
20
0.7266371346164522
30
-0.016376049737446108
11
7.646561609241144
21
0.7049193081866605
31
-0.03542604973744612
12
7.876314133756721
22
0.07367943501741944
32
0.6363253923897741
13
7.880284897649101
23
0.09539726144721113
33
0.6553753923897742
0
3DFACE
5
1027D
330
10057
100
AcDbEntity
100
AcDbFace
8
MONTAJ_BORULARI
10
7.646561609241144
20
0.7049193081866605
30
-0.03542604973744612
11
7.663563340594233
21
0.690834845764509
31
-0.05447604973744613
12
7.893315865109809
22
0.059594972595267984
32
0.6172753923897741
13
7.876314133756721
23
0.07367943501741944
33
0.6363253923897741
0
3DFACE
5
1027E
330
10057
100
AcDbEntity
100
AcDbFace
8
MONTAJ_BORULARI
10
7.663563340594233
20
0.690834845764509
30
-0.05447604973744613
11
7.691578183549975
21
0.6926342344181599
31
-0.06236681810065359
12
7.921330708065552
22
0.0613943612489189
32
0.6093846240265667
13
7.893315865109809
23
0.059594972595267984
33
0.6172753923897741
0
3DFACE
5
1027F
330
10057
100
AcDbEntity
100
AcDbFace
8
MONTAJ_BORULARI
10
7.71568504354114
20
0.49523947125756773
30
0.16433161594775358
11
7.78568504354114
21
0.49523947125756773
31
0.16433161594775358
12
7.78568504354114
22
0.5652394712575678
32
0.16433161594775358
13
7.71568504354114
23
0.5652394712575678
33
0.16433161594775358
0
3DFACE
5
10280
330
10057
100
AcDbEntity
100
AcDbFace
8
MONTAJ_BORULARI
10
7.71568504354114
20
0.49523947125756773
30
2.2
11
7.78568504354114
21
0.49523947125756773
31
2.2
12
7.78568504354114
22
0.5652394712575678
32
2.2
13
7.71568504354114
23
0.5652394712575678
33
2.2
0
3DFACE
5
10281
330
10057
100
AcDbEntity
100
AcDbFace
8
MONTAJ_BORULARI
10
7.71568504354114
20
0.49523947125756773
30
0.16433161594775358
11
7.78568504354114
21
0.49523947125756773
31
0.16433161594775358
12
7.78568504354114
22
0.49523947125756773
32
2.2
13
7.71568504354114
23
0.49523947125756773
33
2.2
0
3DFACE
5
10282
330
10057
100
AcDbEntity
100
AcDbFace
8
MONTAJ_BORULARI
10
7.71568504354114
20
0.5652394712575678
30
0.16433161594775358
11
7.78568504354114
21
0.5652394712575678
31
0.16433161594775358
12
7.78568504354114
22
0.5652394712575678
32
2.2
13
7.71568504354114
23
0.5652394712575678
33
2.2
0
3DFACE
5
10283
330
10057
100
AcDbEntity
100
AcDbFace
8
MONTAJ_BORULARI
10
7.71568504354114
20
0.49523947125756773
30
0.16433161594775358
11
7.71568504354114
21
0.5652394712575678
31
0.16433161594775358
12
7.71568504354114
22
0.5652394712575678
32
2.2
13
7.71568504354114
23
0.49523947125756773
33
2.2
0
3DFACE
5
10284
330
10057
100
AcDbEntity
100
AcDbFace
8
MONTAJ_BORULARI
10
7.78568504354114
20
0.49523947125756773
30
0.16433161594775358
11
7.78568504354114
21
0.5652394712575678
31
0.16433161594775358
12
7.78568504354114
22
0.5652394712575678
32
2.2
13
7.78568504354114
23
0.49523947125756773
33
2.2
0
LINE
5
10285
330
10057
100
AcDbEntity
100
AcDbLine
8
MONTAJ_BORULARI
10
7.71568504354114
20
0.49523947125756773
30
0.16433161594775358
11
7.78568504354114
21
0.49523947125756773
31
0.16433161594775358
0
LINE
5
10286
330
10057
100
AcDbEntity
100
AcDbLine
8
MONTAJ_BORULARI
10
7.78568504354114
20
0.49523947125756773
30
0.16433161594775358
11
7.78568504354114
21
0.5652394712575678
31
0.16433161594775358
0
LINE
5
10287
330
10057
100
AcDbEntity
100
AcDbLine
8
MONTAJ_BORULARI
10
7.78568504354114
20
0.5652394712575678
30
0.16433161594775358
11
7.71568504354114
21
0.5652394712575678
31
0.16433161594775358
0
LINE
5
10288
330
10057
100
AcDbEntity
100
AcDbLine
8
MONTAJ_BORULARI
10
7.71568504354114
20
0.5652394712575678
30
0.16433161594775358
11
7.71568504354114
21
0.49523947125756773
31
0.16433161594775358
0
LINE
5
10289
330
10057
100
AcDbEntity
100
AcDbLine
8
MONTAJ_BORULARI
10
7.71568504354114
20
0.49523947125756773
30
2.2
11
7.78568504354114
21
0.49523947125756773
31
2.2
0
LINE
5
1028A
330
10057
100
AcDbEntity
100
AcDbLine
8
MONTAJ_BORULARI
10
7.78568504354114
20
0.49523947125756773
30
2.2
11
7.78568504354114
21
0.5652394712575678
31
2.2
0
LINE
5
1028B
330
10057
100
AcDbEntity
100
AcDbLine
8
MONTAJ_BORULARI
10
7.78568504354114
20
0.5652394712575678
30
2.2
11
7.71568504354114
21
0.5652394712575678
31
2.2
0
LINE
5
1028C
330
10057
100
AcDbEntity
100
AcDbLine
8
MONTAJ_BORULARI
10
7.71568504354114
20
0.5652394712575678
30
2.2
11
7.71568504354114
21
0.49523947125756773
31
2.2
0
LINE
5
1028D
330
10057
100
AcDbEntity
100
AcDbLine
8
MONTAJ_BORULARI
10
7.71568504354114
20
0.49523947125756773
30
0.16433161594775358
11
7.71568504354114
21
0.49523947125756773
31
2.2
0
LINE
5
1028E
330
10057
100
AcDbEntity
100
AcDbLine
8
MONTAJ_BORULARI
10
7.78568504354114
20
0.49523947125756773
30
0.16433161594775358
11
7.78568504354114
21
0.49523947125756773
31
2.2
0
LINE
5
1028F
330
10057
100
AcDbEntity
100
AcDbLine
8
MONTAJ_BORULARI
10
7.78568504354114
20
0.5652394712575678
30
0.16433161594775358
11
7.78568504354114
21
0.5652394712575678
31
2.2
0
LINE
5
10290
330
10057
100
AcDbEntity
100
AcDbLine
8
MONTAJ_BORULARI
10
7.71568504354114
20
0.5652394712575678
30
0.16433161594775358
11
7.71568504354114
21
0.5652394712575678
31
2.2
0
3DFACE
5
10291
330
10057
100
AcDbEntity
100
AcDbFace
8
MONTAJ_BORULARI
10
7.808795277160611
20
0.23942120686792803
30
0.43656772670457444
11
7.878795277160611
21
0.23942120686792803
31
0.43656772670457444
12
7.878795277160611
22
0.30942120686792807
32
0.43656772670457444
13
7.808795277160611
23
0.30942120686792807
33
0.43656772670457444
0
3DFACE
5
10292
330
10057
100
AcDbEntity
100
AcDbFace
8
MONTAJ_BORULARI
10
7.808795277160611
20
0.23942120686792803
30
2.2
11
7.878795277160611
21
0.23942120686792803
31
2.2
12
7.878795277160611
22
0.30942120686792807
32
2.2
13
7.808795277160611
23
0.30942120686792807
33
2.2
0
3DFACE
5
10293
330
10057
100
AcDbEntity
100
AcDbFace
8
MONTAJ_BORULARI
10
7.808795277160611
20
0.23942120686792803
30
0.43656772670457444
11
7.878795277160611
21
0.23942120686792803
31
0.43656772670457444
12
7.878795277160611
22
0.23942120686792803
32
2.2
13
7.808795277160611
23
0.23942120686792803
33
2.2
0
3DFACE
5
10294
330
10057
100
AcDbEntity
100
AcDbFace
8
MONTAJ_BORULARI
10
7.808795277160611
20
0.30942120686792807
30
0.43656772670457444
11
7.878795277160611
21
0.30942120686792807
31
0.43656772670457444
12
7.878795277160611
22
0.30942120686792807
32
2.2
13
7.808795277160611
23
0.30942120686792807
33
2.2
0
3DFACE
5
10295
330
10057
100
AcDbEntity
100
AcDbFace
8
MONTAJ_BORULARI
10
7.808795277160611
20
0.23942120686792803
30
0.43656772670457444
11
7.808795277160611
21
0.30942120686792807
31
0.43656772670457444
12
7.808795277160611
22
0.30942120686792807
32
2.2
13
7.808795277160611
23
0.23942120686792803
33
2.2
0
3DFACE
5
10296
330
10057
100
AcDbEntity
100
AcDbFace
8
MONTAJ_BORULARI
10
7.878795277160611
20
0.23942120686792803
30
0.43656772670457444
11
7.878795277160611
21
0.30942120686792807
31
0.43656772670457444
12
7.878795277160611
22
0.30942120686792807
32
2.2
13
7.878795277160611
23
0.23942120686792803
33
2.2
0
LINE
5
10297
330
10057
100
AcDbEntity
100
AcDbLine
8
MONTAJ_BORULARI
10
7.808795277160611
20
0.23942120686792803
30
0.43656772670457444
11
7.878795277160611
21
0.23942120686792803
31
0.43656772670457444
0
LINE
5
10298
330
10057
100
AcDbEntity
100
AcDbLine
8
MONTAJ_BORULARI
10
7.878795277160611
20
0.23942120686792803
30
0.43656772670457444
11
7.878795277160611
21
0.30942120686792807
31
0.43656772670457444
0
LINE
5
10299
330
10057
100
AcDbEntity
100
AcDbLine
8
MONTAJ_BORULARI
10
7.878795277160611
20
0.30942120686792807
30
0.43656772670457444
11
7.808795277160611
21
0.30942120686792807
31
0.43656772670457444
0
LINE
5
1029A
330
10057
100
AcDbEntity
100
AcDbLine
8
MONTAJ_BORULARI
10
7.808795277160611
20
0.30942120686792807
30
0.43656772670457444
11
7.808795277160611
21
0.23942120686792803
31
0.43656772670457444
0
LINE
5
1029B
330
10057
100
AcDbEntity
100
AcDbLine
8
MONTAJ_BORULARI
10
7.808795277160611
20
0.23942120686792803
30
2.2
11
7.878795277160611
21
0.23942120686792803
31
2.2
0
LINE
5
1029C
330
10057
100
AcDbEntity
100
AcDbLine
8
MONTAJ_BORULARI
10
7.878795277160611
20
0.23942120686792803
30
2.2
11
7.878795277160611
21
0.30942120686792807
31
2.2
0
LINE
5
1029D
330
10057
100
AcDbEntity
100
AcDbLine
8
MONTAJ_BORULARI
10
7.878795277160611
20
0.30942120686792807
30
2.2
11
7.808795277160611
21
0.30942120686792807
31
2.2
0
LINE
5
1029E
330
10057
100
AcDbEntity
100
AcDbLine
8
MONTAJ_BORULARI
10
7.808795277160611
20
0.30942120686792807
30
2.2
11
7.808795277160611
21
0.23942120686792803
31
2.2
0
LINE
5
1029F
330
10057
100
AcDbEntity
100
AcDbLine
8
MONTAJ_BORULARI
10
7.808795277160611
20
0.23942120686792803
30
0.43656772670457444
11
7.808795277160611
21
0.23942120686792803
31
2.2
0
LINE
5
102A0
330
10057
100
AcDbEntity
100
AcDbLine
8
MONTAJ_BORULARI
10
7.878795277160611
20
0.23942120686792803
30
0.43656772670457444
11
7.878795277160611
21
0.23942120686792803
31
2.2
0
LINE
5
102A1
330
10057
100
AcDbEntity
100
AcDbLine
8
MONTAJ_BORULARI
10
7.878795277160611
20
0.30942120686792807
30
0.43656772670457444
11
7.878795277160611
21
0.30942120686792807
31
2.2
0
LINE
5
102A2
330
10057
100
AcDbEntity
100
AcDbLine
8
MONTAJ_BORULARI
10
7.808795277160611
20
0.30942120686792807
30
0.43656772670457444
11
7.808795277160611
21
0.30942120686792807
31
2.2
0
3DFACE
5
102DA
330
10057
100
AcDbEntity
100
AcDbFace
8
MONTAJ_BORULARI
10
14.25
20
0
30
3.15
11
17.75
21
0
31
3.15
12
17.75
22
-1.8369701987210297e-16
32
3.15
13
14.25
23
-1.8369701987210297e-16
33
3.15
0
3DFACE
5
102DB
330
10057
100
AcDbEntity
100
AcDbFace
8
MONTAJ_BORULARI
10
14.25
20
0.2870125742738173
30
3.092909649383465
11
17.75
21
0.2870125742738173
31
3.092909649383465
12
17.75
22
-3.6739403974420594e-16
32
3.15
13
14.25
23
-3.6739403974420594e-16
33
3.15
0
3DFACE
5
102DC
330
10057
100
AcDbEntity
100
AcDbFace
8
MONTAJ_BORULARI
10
14.25
20
0.5303300858899106
30
2.930330085889911
11
17.75
21
0.5303300858899106
31
2.930330085889911
12
17.75
22
-5.51091059616309e-16
32
3.15
13
14.25
23
-5.51091059616309e-16
33
3.15
0
3DFACE
5
102DD
330
10057
100
AcDbEntity
100
AcDbFace
8
MONTAJ_BORULARI
10
14.25
20
0.692909649383465
30
2.687012574273817
11
17.75
21
0.692909649383465
31
2.687012574273817
12
17.75
22
-7.347880794884119e-16
32
3.15
13
14.25
23
-7.347880794884119e-16
33
3.15
0
3DFACE
5
102DE
330
10057
100
AcDbEntity
100
AcDbFace
8
MONTAJ_BORULARI
10
14.25
20
0.75
30
2.4
11
17.75
21
0.75
31
2.4
12
17.75
22
-9.18485099360515e-16
32
3.15
13
14.25
23
-9.18485099360515e-16
33
3.15
0
3DFACE
5
102DF
330
10057
100
AcDbEntity
100
AcDbFace
8
MONTAJ_BORULARI
10
14.25
20
0.692909649383465
30
2.1129874257261827
11
17.75
21
0.692909649383465
31
2.1129874257261827
12
17.75
22
-1.102182119232618e-15
32
3.15
13
14.25
23
-1.102182119232618e-15
33
3.15
0
3DFACE
5
102E0
330
10057
100
AcDbEntity
100
AcDbFace
8
MONTAJ_BORULARI
10
14.25
20
0.5303300858899107
30
1.8696699141100894
11
17.75
21
0.5303300858899107
31
1.8696699141100894
12
17.75
22
-1.2858791391047208e-15
32
3.15
13
14.25
23
-1.2858791391047208e-15
33
3.15
0
3DFACE
5
102E1
330
10057
100
AcDbEntity
100
AcDbFace
8
MONTAJ_BORULARI
10
14.25
20
0.28701257427381743
30
1.707090350616535
11
17.75
21
0.28701257427381743
31
1.707090350616535
12
17.75
22
-1.4695761589768238e-15
32
3.15
13
14.25
23
-1.4695761589768238e-15
33
3.15
0
3DFACE
5
102E2
330
10057
100
AcDbEntity
100
AcDbFace
8
MONTAJ_BORULARI
10
14.25
20
9.184850993605148e-17
30
1.65
11
17.75
21
9.184850993605148e-17
31
1.65
12
17.75
22
-1.6532731788489269e-15
32
3.15
13
14.25
23
-1.6532731788489269e-15
33
3.15
0
3DFACE
5
102E3
330
10057
100
AcDbEntity
100
AcDbFace
8
MONTAJ_BORULARI
10
14.25
20
-0.28701257427381727
30
1.707090350616535
11
17.75
21
-0.28701257427381727
31
1.707090350616535
12
17.75
22
-1.83697019872103e-15
32
3.15
13
14.25
23
-1.83697019872103e-15
33
3.15
0
3DFACE
5
102E4
330
10057
100
AcDbEntity
100
AcDbFace
8
MONTAJ_BORULARI
10
14.25
20
-0.5303300858899106
30
1.8696699141100892
11
17.75
21
-0.5303300858899106
31
1.8696699141100892
12
17.75
22
-7.349737736793884e-15
32
3.15
13
14.25
23
-7.349737736793884e-15
33
3.15
0
3DFACE
5
102E5
330
10057
100
AcDbEntity
100
AcDbFace
8
MONTAJ_BORULARI
10
14.25
20
-0.6929096493834649
30
2.1129874257261823
11
17.75
21
-0.6929096493834649
31
2.1129874257261823
12
17.75
22
-2.204364238465236e-15
32
3.15
13
14.25
23
-2.204364238465236e-15
33
3.15
0
3DFACE
5
102E6
330
10057
100
AcDbEntity
100
AcDbFace
8
MONTAJ_BORULARI
10
14.25
20
-0.75
30
2.4
11
17.75
21
-0.75
31
2.4
12
17.75
22
2.9410092598634125e-15
32
3.15
13
14.25
23
2.9410092598634125e-15
33
3.15
0
3DFACE
5
102E7
330
10057
100
AcDbEntity
100
AcDbFace
8
MONTAJ_BORULARI
10
14.25
20
-0.692909649383465
30
2.6870125742738176
11
17.75
21
-0.692909649383465
31
2.6870125742738176
12
17.75
22
-2.5717582782094417e-15
32
3.15
13
14.25
23
-2.5717582782094417e-15
33
3.15
0
3DFACE
5
102E8
330
10057
100
AcDbEntity
100
AcDbFace
8
MONTAJ_BORULARI
10
14.25
20
-0.5303300858899107
30
2.9303300858899104
11
17.75
21
-0.5303300858899107
31
2.9303300858899104
12
17.75
22
-8.084525816282295e-15
32
3.15
13
14.25
23
-8.084525816282295e-15
33
3.15
0
3DFACE
5
102E9
330
10057
100
AcDbEntity
100
AcDbFace
8
MONTAJ_BORULARI
10
14.25
20
-0.28701257427381777
30
3.092909649383465
11
17.75
21
-0.28701257427381777
31
3.092909649383465
12
17.75
22
0
32
3.15
13
14.25
23
0
33
3.15
0
3DFACE
5
102FC
330
10057
100
AcDbEntity
100
AcDbFace
8
MONTAJ_BORULARI
10
15.943
20
-0.057
30
-0.43999999999999995
11
16.057
21
-0.057
31
-0.43999999999999995
12
16.057
22
0.057
32
-0.43999999999999995
13
15.943
23
0.057
33
-0.43999999999999995
0
3DFACE
5
102FD
330
10057
100
AcDbEntity
100
AcDbFace
8
MONTAJ_BORULARI
10
15.943
20
-0.057
30
1.65
11
16.057
21
-0.057
31
1.65
12
16.057
22
0.057
32
1.65
13
15.943
23
0.057
33
1.65
0
3DFACE
5
102FE
330
10057
100
AcDbEntity
100
AcDbFace
8
MONTAJ_BORULARI
10
15.943
20
-0.057
30
-0.43999999999999995
11
16.057
21
-0.057
31
-0.43999999999999995
12
16.057
22
-0.057
32
1.65
13
15.943
23
-0.057
33
1.65
0
3DFACE
5
102FF
330
10057
100
AcDbEntity
100
AcDbFace
8
MONTAJ_BORULARI
10
15.943
20
0.057
30
-0.43999999999999995
11
16.057
21
0.057
31
-0.43999999999999995
12
16.057
22
0.057
32
1.65
13
15.943
23
0.057
33
1.65
0
3DFACE
5
10300
330
10057
100
AcDbEntity
100
AcDbFace
8
MONTAJ_BORULARI
10
15.943
20
-0.057
30
-0.43999999999999995
11
15.943
21
0.057
31
-0.43999999999999995
12
15.943
22
0.057
32
1.65
13
15.943
23
-0.057
33
1.65
0
3DFACE
5
10301
330
10057
100
AcDbEntity
100
AcDbFace
8
MONTAJ_BORULARI
10
16.057
20
-0.057
30
-0.43999999999999995
11
16.057
21
0.057
31
-0.43999999999999995
12
16.057
22
0.057
32
1.65
13
16.057
23
-0.057
33
1.65
0
LINE
5
10302
330
10057
100
AcDbEntity
100
AcDbLine
8
MONTAJ_BORULARI
10
15.943
20
-0.057
30
-0.43999999999999995
11
16.057
21
-0.057
31
-0.43999999999999995
0
LINE
5
10303
330
10057
100
AcDbEntity
100
AcDbLine
8
MONTAJ_BORULARI
10
16.057
20
-0.057
30
-0.43999999999999995
11
16.057
21
0.057
31
-0.43999999999999995
0
LINE
5
10304
330
10057
100
AcDbEntity
100
AcDbLine
8
MONTAJ_BORULARI
10
16.057
20
0.057
30
-0.43999999999999995
11
15.943
21
0.057
31
-0.43999999999999995
0
LINE
5
10305
330
10057
100
AcDbEntity
100
AcDbLine
8
MONTAJ_BORULARI
10
15.943
20
0.057
30
-0.43999999999999995
11
15.943
21
-0.057
31
-0.43999999999999995
0
LINE
5
10306
330
10057
100
AcDbEntity
100
AcDbLine
8
MONTAJ_BORULARI
10
15.943
20
-0.057
30
1.65
11
16.057
21
-0.057
31
1.65
0
LINE
5
10307
330
10057
100
AcDbEntity
100
AcDbLine
8
MONTAJ_BORULARI
10
16.057
20
-0.057
30
1.65
11
16.057
21
0.057
31
1.65
0
LINE
5
10308
330
10057
100
AcDbEntity
100
AcDbLine
8
MONTAJ_BORULARI
10
16.057
20
0.057
30
1.65
11
15.943
21
0.057
31
1.65
0
LINE
5
10309
330
10057
100
AcDbEntity
100
AcDbLine
8
MONTAJ_BORULARI
10
15.943
20
0.057
30
1.65
11
15.943
21
-0.057
31
1.65
0
LINE
5
1030A
330
10057
100
AcDbEntity
100
AcDbLine
8
MONTAJ_BORULARI
10
15.943
20
-0.057
30
-0.43999999999999995
11
15.943
21
-0.057
31
1.65
0
LINE
5
1030B
330
10057
100
AcDbEntity
100
AcDbLine
8
MONTAJ_BORULARI
10
16.057
20
-0.057
30
-0.43999999999999995
11
16.057
21
-0.057
31
1.65
0
LINE
5
1030C
330
10057
100
AcDbEntity
100
AcDbLine
8
MONTAJ_BORULARI
10
16.057
20
0.057
30
-0.43999999999999995
11
16.057
21
0.057
31
1.65
0
LINE
5
1030D
330
10057
100
AcDbEntity
100
AcDbLine
8
MONTAJ_BORULARI
10
15.943
20
0.057
30
-0.43999999999999995
11
15.943
21
0.057
31
1.65
0
3DFACE
5
1031E
330
10057
100
AcDbEntity
100
AcDbFace
8
MONTAJ_BORULARI
10
16
20
0.6093846240265667
30
0.5876331818993463
11
16.026940768363207
21
0.6172753923897741
31
0.5955239502625538
12
16.026940768363207
22
-0.05447604973744602
32
1.2672753923897742
13
16
23
-0.062366818100653476
33
1.2593846240265667
0
3DFACE
5
1031F
330
10057
100
AcDbEntity
100
AcDbFace
8
MONTAJ_BORULARI
10
16.026940768363207
20
0.6172753923897741
30
0.5955239502625538
11
16.0381
21
0.6363253923897741
31
0.6145739502625538
12
16.0381
22
-0.03542604973744601
32
1.2863253923897742
13
16.026940768363207
23
-0.05447604973744602
33
1.2672753923897742
0
3DFACE
5
10320
330
10057
100
AcDbEntity
100
AcDbFace
8
MONTAJ_BORULARI
10
16.0381
20
0.6363253923897741
30
0.6145739502625538
11
16.026940768363207
21
0.6553753923897742
31
0.6336239502625538
12
16.026940768363207
22
-0.016376049737445997
32
1.3053753923897742
13
16.0381
23
-0.03542604973744601
33
1.2863253923897742
0
3DFACE
5
10321
330
10057
100
AcDbEntity
100
AcDbFace
8
MONTAJ_BORULARI
10
16.026940768363207
20
0.6553753923897742
30
0.6336239502625538
11
16
21
0.6632661607529816
31
0.6415147186257613
12
16
22
-0.00848528137423854
32
1.3132661607529816
13
16.026940768363207
23
-0.016376049737445997
33
1.3053753923897742
0
3DFACE
5
10322
330
10057
100
AcDbEntity
100
AcDbFace
8
MONTAJ_BORULARI
10
16
20
0.6632661607529816
30
0.6415147186257613
11
15.973059231636793
21
0.6553753923897742
31
0.6336239502625538
12
15.973059231636793
22
-0.016376049737445997
32
1.3053753923897742
13
16
23
-0.00848528137423854
33
1.3132661607529816
0
3DFACE
5
10323
330
10057
100
AcDbEntity
100
AcDbFace
8
MONTAJ_BORULARI
10
15.973059231636793
20
0.6553753923897742
30
0.6336239502625538
11
15.9619
21
0.6363253923897741
31
0.6145739502625538
12
15.9619
22
-0.03542604973744601
32
1.2863253923897742
13
15.973059231636793
23
-0.016376049737445997
33
1.3053753923897742
0
3DFACE
5
10324
330
10057
100
AcDbEntity
100
AcDbFace
8
MONTAJ_BORULARI
10
15.9619
20
0.6363253923897741
30
0.6145739502625538
11
15.973059231636793
21
0.6172753923897741
31
0.5955239502625538
12
15.973059231636793
22
-0.05447604973744602
32
1.2672753923897742
13
15.9619
23
-0.03542604973744601
33
1.2863253923897742
0
3DFACE
5
10325
330
10057
100
AcDbEntity
100
AcDbFace
8
MONTAJ_BORULARI
10
15.973059231636793
20
0.6172753923897741
30
0.5955239502625538
11
16
21
0.6093846240265667
31
0.5876331818993463
12
16
22
-0.062366818100653476
32
1.2593846240265667
13
15.973059231636793
23
-0.05447604973744602
33
1.2672753923897742
0
3DFACE
5
10326
330
10057
100
AcDbEntity
100
AcDbFace
8
MONTAJ_BORULARI
10
15.965
20
0.4015677267045744
30
0.8143316159477535
11
16.035
21
0.4015677267045744
31
0.8143316159477535
12
16.035
22
0.4715677267045745
32
0.8143316159477535
13
15.965
23
0.4715677267045745
33
0.8143316159477535
0
3DFACE
5
10327
330
10057
100
AcDbEntity
100
AcDbFace
8
MONTAJ_BORULARI
10
15.965
20
0.4015677267045744
30
2.85
11
16.035
21
0.4015677267045744
31
2.85
12
16.035
22
0.4715677267045745
32
2.85
13
15.965
23
0.4715677267045745
33
2.85
0
3DFACE
5
10328
330
10057
100
AcDbEntity
100
AcDbFace
8
MONTAJ_BORULARI
10
15.965
20
0.4015677267045744
30
0.8143316159477535
11
16.035
21
0.4015677267045744
31
0.8143316159477535
12
16.035
22
0.4015677267045744
32
2.85
13
15.965
23
0.4015677267045744
33
2.85
0
3DFACE
5
10329
330
10057
100
AcDbEntity
100
AcDbFace
8
MONTAJ_BORULARI
10
15.965
20
0.4715677267045745
30
0.8143316159477535
11
16.035
21
0.4715677267045745
31
0.8143316159477535
12
16.035
22
0.4715677267045745
32
2.85
13
15.965
23
0.4715677267045745
33
2.85
0
3DFACE
5
1032A
330
10057
100
AcDbEntity
100
AcDbFace
8
MONTAJ_BORULARI
10
15.965
20
0.4015677267045744
30
0.8143316159477535
11
15.965
21
0.4715677267045745
31
0.8143316159477535
12
15.965
22
0.4715677267045745
32
2.85
13
15.965
23
0.4015677267045744
33
2.85
0
3DFACE
5
1032B
330
10057
100
AcDbEntity
100
AcDbFace
8
MONTAJ_BORULARI
10
16.035
20
0.4015677267045744
30
0.8143316159477535
11
16.035
21
0.4715677267045745
31
0.8143316159477535
12
16.035
22
0.4715677267045745
32
2.85
13
16.035
23
0.4015677267045744
33
2.85
0
LINE
5
1032C
330
10057
100
AcDbEntity
100
AcDbLine
8
MONTAJ_BORULARI
10
15.965
20
0.4015677267045744
30
0.8143316159477535
11
16.035
21
0.4015677267045744
31
0.8143316159477535
0
LINE
5
1032D
330
10057
100
AcDbEntity
100
AcDbLine
8
MONTAJ_BORULARI
10
16.035
20
0.4015677267045744
30
0.8143316159477535
11
16.035
21
0.4715677267045745
31
0.8143316159477535
0
LINE
5
1032E
330
10057
100
AcDbEntity
100
AcDbLine
8
MONTAJ_BORULARI
10
16.035
20
0.4715677267045745
30
0.8143316159477535
11
15.965
21
0.4715677267045745
31
0.8143316159477535
0
LINE
5
1032F
330
10057
100
AcDbEntity
100
AcDbLine
8
MONTAJ_BORULARI
10
15.965
20
0.4715677267045745
30
0.8143316159477535
11
15.965
21
0.4015677267045744
31
0.8143316159477535
0
LINE
5
10330
330
10057
100
AcDbEntity
100
AcDbLine
8
MONTAJ_BORULARI
10
15.965
20
0.4015677267045744
30
2.85
11
16.035
21
0.4015677267045744
31
2.85
0
LINE
5
10331
330
10057
100
AcDbEntity
100
AcDbLine
8
MONTAJ_BORULARI
10
16.035
20
0.4015677267045744
30
2.85
11
16.035
21
0.4715677267045745
31
2.85
0
LINE
5
10332
330
10057
100
AcDbEntity
100
AcDbLine
8
MONTAJ_BORULARI
10
16.035
20
0.4715677267045745
30
2.85
11
15.965
21
0.4715677267045745
31
2.85
0
LINE
5
10333
330
10057
100
AcDbEntity
100
AcDbLine
8
MONTAJ_BORULARI
10
15.965
20
0.4715677267045745
30
2.85
11
15.965
21
0.4015677267045744
31
2.85
0
LINE
5
10334
330
10057
100
AcDbEntity
100
AcDbLine
8
MONTAJ_BORULARI
10
15.965
20
0.4015677267045744
30
0.8143316159477535
11
15.965
21
0.4015677267045744
31
2.85
0
LINE
5
10335
330
10057
100
AcDbEntity
100
AcDbLine
8
MONTAJ_BORULARI
10
16.035
20
0.4015677267045744
30
0.8143316159477535
11
16.035
21
0.4015677267045744
31
2.85
0
LINE
5
10336
330
10057
100
AcDbEntity
100
AcDbLine
8
MONTAJ_BORULARI
10
16.035
20
0.4715677267045745
30
0.8143316159477535
11
16.035
21
0.4715677267045745
31
2.85
0
LINE
5
10337
330
10057
100
AcDbEntity
100
AcDbLine
8
MONTAJ_BORULARI
10
15.965
20
0.4715677267045745
30
0.8143316159477535
11
15.965
21
0.4715677267045745
31
2.85
0
3DFACE
5
10338
330
10057
100
AcDbEntity
100
AcDbFace
8
MONTAJ_BORULARI
10
15.965
20
0.12933161594775366
30
1.0865677267045744
11
16.035
21
0.12933161594775366
31
1.0865677267045744
12
16.035
22
0.19933161594775367
32
1.0865677267045744
13
15.965
23
0.19933161594775367
33
1.0865677267045744
0
3DFACE
5
10339
330
10057
100
AcDbEntity
100
AcDbFace
8
MONTAJ_BORULARI
10
15.965
20
0.12933161594775366
30
2.85
11
16.035
21
0.12933161594775366
31
2.85
12
16.035
22
0.19933161594775367
32
2.85
13
15.965
23
0.19933161594775367
33
2.85
0
3DFACE
5
1033A
330
10057
100
AcDbEntity
100
AcDbFace
8
MONTAJ_BORULARI
10
15.965
20
0.12933161594775366
30
1.0865677267045744
11
16.035
21
0.12933161594775366
31
1.0865677267045744
12
16.035
22
0.12933161594775366
32
2.85
13
15.965
23
0.12933161594775366
33
2.85
0
3DFACE
5
1033B
330
10057
100
AcDbEntity
100
AcDbFace
8
MONTAJ_BORULARI
10
15.965
20
0.19933161594775367
30
1.0865677267045744
11
16.035
21
0.19933161594775367
31
1.0865677267045744
12
16.035
22
0.19933161594775367
32
2.85
13
15.965
23
0.19933161594775367
33
2.85
0
3DFACE
5
1033C
330
10057
100
AcDbEntity
100
AcDbFace
8
MONTAJ_BORULARI
10
15.965
20
0.12933161594775366
30
1.0865677267045744
11
15.965
21
0.19933161594775367
31
1.0865677267045744
12
15.965
22
0.19933161594775367
32
2.85
13
15.965
23
0.12933161594775366
33
2.85
0
3DFACE
5
1033D
330
10057
100
AcDbEntity
100
AcDbFace
8
MONTAJ_BORULARI
10
16.035
20
0.12933161594775366
30
1.0865677267045744
11
16.035
21
0.19933161594775367
31
1.0865677267045744
12
16.035
22
0.19933161594775367
32
2.85
13
16.035
23
0.12933161594775366
33
2.85
0
LINE
5
1033E
330
10057
100
AcDbEntity
100
AcDbLine
8
MONTAJ_BORULARI
10
15.965
20
0.12933161594775366
30
1.0865677267045744
11
16.035
21
0.12933161594775366
31
1.0865677267045744
0
LINE
5
1033F
330
10057
100
AcDbEntity
100
AcDbLine
8
MONTAJ_BORULARI
10
16.035
20
0.12933161594775366
30
1.0865677267045744
11
16.035
21
0.19933161594775367
31
1.0865677267045744
0
LINE
5
10340
330
10057
100
AcDbEntity
100
AcDbLine
8
MONTAJ_BORULARI
10
16.035
20
0.19933161594775367
30
1.0865677267045744
11
15.965
21
0.19933161594775367
31
1.0865677267045744
0
LINE
5
10341
330
10057
100
AcDbEntity
100
AcDbLine
8
MONTAJ_BORULARI
10
15.965
20
0.19933161594775367
30
1.0865677267045744
11
15.965
21
0.12933161594775366
31
1.0865677267045744
0
LINE
5
10342
330
10057
100
AcDbEntity
100
AcDbLine
8
MONTAJ_BORULARI
10
15.965
20
0.12933161594775366
30
2.85
11
16.035
21
0.12933161594775366
31
2.85
0
LINE
5
10343
330
10057
100
AcDbEntity
100
AcDbLine
8
MONTAJ_BORULARI
10
16.035
20
0.12933161594775366
30
2.85
11
16.035
21
0.19933161594775367
31
2.85
0
LINE
5
10344
330
10057
100
AcDbEntity
100
AcDbLine
8
MONTAJ_BORULARI
10
16.035
20
0.19933161594775367
30
2.85
11
15.965
21
0.19933161594775367
31
2.85
0
LINE
5
10345
330
10057
100
AcDbEntity
100
AcDbLine
8
MONTAJ_BORULARI
10
15.965
20
0.19933161594775367
30
2.85
11
15.965
21
0.12933161594775366
31
2.85
0
LINE
5
10346
330
10057
100
AcDbEntity
100
AcDbLine
8
MONTAJ_BORULARI
10
15.965
20
0.12933161594775366
30
1.0865677267045744
11
15.965
21
0.12933161594775366
31
2.85
0
LINE
5
10347
330
10057
100
AcDbEntity
100
AcDbLine
8
MONTAJ_BORULARI
10
16.035
20
0.12933161594775366
30
1.0865677267045744
11
16.035
21
0.12933161594775366
31
2.85
0
LINE
5
10348
330
10057
100
AcDbEntity
100
AcDbLine
8
MONTAJ_BORULARI
10
16.035
20
0.19933161594775367
30
1.0865677267045744
11
16.035
21
0.19933161594775367
31
2.85
0
LINE
5
10349
330
10057
100
AcDbEntity
100
AcDbLine
8
MONTAJ_BORULARI
10
15.965
20
0.19933161594775367
30
1.0865677267045744
11
15.965
21
0.19933161594775367
31
2.85
0
TEXT
5
100D0
330
10057
100
AcDbEntity
100
AcDbText
8
METIN_BILGI
10
-14
20
-0.6
30
0
40
0.05
1
1. TEKLI SPOT BEAM 30/30 (45° CATI ASKISI)
50
0
7
STANDARD
72
1
11
-14
21
-0.6
31
0
100
AcDbText
73
2
0
TEXT
5
10131
330
10057
100
AcDbEntity
100
AcDbText
8
METIN_BILGI
10
-4.5
20
-0.6
30
0
40
0.05
1
ANT-1 (SOL)
50
0
7
STANDARD
72
1
11
-4.5
21
-0.6
31
0
100
AcDbText
73
2
0
TEXT
5
10192
330
10057
100
AcDbEntity
100
AcDbText
8
METIN_BILGI
10
-3.5
20
-0.6
30
0
40
0.05
1
ANT-2 (SAG)
50
0
7
STANDARD
72
1
11
-3.5
21
-0.6
31
0
100
AcDbText
73
2
0
TEXT
5
10205
330
10057
100
AcDbEntity
100
AcDbText
8
METIN_BILGI
10
6.1
20
-0.48
30
0
40
0.05
1
ANT-1 (-20°)
50
0
7
STANDARD
72
1
11
6.1
21
-0.48
31
0
100
AcDbText
73
2
0
TEXT
5
10266
330
10057
100
AcDbEntity
100
AcDbText
8
METIN_BILGI
10
7
20
-0.6
30
0
40
0.05
1
ANT-2 (0°)
50
0
7
STANDARD
72
1
11
7
21
-0.6
31
0
100
AcDbText
73
2
0
TEXT
5
102C7
330
10057
100
AcDbEntity
100
AcDbText
8
METIN_BILGI
10
7.9
20
-0.48
30
0
40
0.05
1
ANT-3 (+20°)
50
0
7
STANDARD
72
1
11
7.9
21
-0.48
31
0
100
AcDbText
73
2
0
TEXT
5
1036E
330
10057
100
AcDbEntity
100
AcDbText
8
METIN_BILGI
10
16
20
-0.6
30
0
40
0.05
1
SKORBOARD Ø1500mm BORU ASILI GAMMA NU
50
0
7
STANDARD
72
1
11
16
21
-0.6
31
0
100
AcDbText
73
2
0
3DFACE
5
10070
330
10057
100
AcDbEntity
100
AcDbFace
8
EKP_PANEL_ANTEN
10
-14.35
20
0.30759144981614817
30
-0.18738329701443512
11
-13.65
21
0.30759144981614817
31
-0.18738329701443512
12
-13.65
22
-0.1873832970144351
32
0.3075914498161482
13
-14.35
23
-0.1873832970144351
33
0.3075914498161482
0
3DFACE
5
10071
330
10057
100
AcDbEntity
100
AcDbFace
8
EKP_PANEL_ANTEN
10
-14.35
20
0.1873832970144351
30
-0.3075914498161482
11
-13.65
21
0.1873832970144351
31
-0.3075914498161482
12
-13.65
22
0.30759144981614817
32
-0.18738329701443512
13
-14.35
23
0.30759144981614817
33
-0.18738329701443512
0
3DFACE
5
10072
330
10057
100
AcDbEntity
100
AcDbFace
8
EKP_PANEL_ANTEN
10
-14.35
20
-0.30759144981614817
30
0.18738329701443512
11
-13.65
21
-0.30759144981614817
31
0.18738329701443512
12
-13.65
22
-0.1873832970144351
32
0.3075914498161482
13
-14.35
23
-0.1873832970144351
33
0.3075914498161482
0
3DFACE
5
10073
330
10057
100
AcDbEntity
100
AcDbFace
8
EKP_PANEL_ANTEN
10
-14.35
20
0.1873832970144351
30
-0.3075914498161482
11
-14.35
21
-0.30759144981614817
31
0.18738329701443512
12
-14.35
22
-0.1873832970144351
32
0.3075914498161482
13
-14.35
23
0.30759144981614817
33
-0.18738329701443512
0
3DFACE
5
10074
330
10057
100
AcDbEntity
100
AcDbFace
8
EKP_PANEL_ANTEN
10
-13.65
20
0.1873832970144351
30
-0.3075914498161482
11
-13.65
21
-0.30759144981614817
31
0.18738329701443512
12
-13.65
22
-0.1873832970144351
32
0.3075914498161482
13
-13.65
23
0.30759144981614817
33
-0.18738329701443512
0
3DFACE
5
10075
330
10057
100
AcDbEntity
100
AcDbFace
8
EKP_PANEL_ANTEN
10
-14
20
-0.0728319984622144
30
-0.0728319984622144
11
-14.35
21
-0.30759144981614817
31
0.18738329701443512
12
-13.65
22
-0.30759144981614817
32
0.18738329701443512
13
-13.65
23
-0.30759144981614817
33
0.18738329701443512
0
3DFACE
5
10076
330
10057
100
AcDbEntity
100
AcDbFace
8
EKP_PANEL_ANTEN
10
-14
20
-0.0728319984622144
30
-0.0728319984622144
11
-13.65
21
-0.30759144981614817
31
0.18738329701443512
12
-13.65
22
0.1873832970144351
32
-0.3075914498161482
13
-13.65
23
0.1873832970144351
33
-0.3075914498161482
0
3DFACE
5
10077
330
10057
100
AcDbEntity
100
AcDbFace
8
EKP_PANEL_ANTEN
10
-14
20
-0.0728319984622144
30
-0.0728319984622144
11
-13.65
21
0.1873832970144351
31
-0.3075914498161482
12
-14.35
22
0.1873832970144351
32
-0.3075914498161482
13
-14.35
23
0.1873832970144351
33
-0.3075914498161482
0
3DFACE
5
10078
330
10057
100
AcDbEntity
100
AcDbFace
8
EKP_PANEL_ANTEN
10
-14
20
-0.0728319984622144
30
-0.0728319984622144
11
-14.35
21
0.1873832970144351
31
-0.3075914498161482
12
-14.35
22
-0.30759144981614817
32
0.18738329701443512
13
-14.35
23
-0.30759144981614817
33
0.18738329701443512
0
LINE
5
10079
330
10057
100
AcDbEntity
100
AcDbLine
8
EKP_PANEL_ANTEN
10
-14
20
-0.0728319984622144
30
-0.0728319984622144
11
-14.35
21
0.1873832970144351
31
-0.3075914498161482
0
LINE
5
1007A
330
10057
100
AcDbEntity
100
AcDbLine
8
EKP_PANEL_ANTEN
10
-14
20
-0.0728319984622144
30
-0.0728319984622144
11
-13.65
21
0.1873832970144351
31
-0.3075914498161482
0
LINE
5
1007B
330
10057
100
AcDbEntity
100
AcDbLine
8
EKP_PANEL_ANTEN
10
-14
20
-0.0728319984622144
30
-0.0728319984622144
11
-13.65
21
-0.30759144981614817
31
0.18738329701443512
0
LINE
5
1007C
330
10057
100
AcDbEntity
100
AcDbLine
8
EKP_PANEL_ANTEN
10
-14
20
-0.0728319984622144
30
-0.0728319984622144
11
-14.35
21
-0.30759144981614817
31
0.18738329701443512
0
3DFACE
5
100D1
330
10057
100
AcDbEntity
100
AcDbFace
8
EKP_PANEL_ANTEN
10
-4.85
20
0.30759144981614817
30
-0.18738329701443512
11
-4.15
21
0.30759144981614817
31
-0.18738329701443512
12
-4.15
22
-0.1873832970144351
32
0.3075914498161482
13
-4.85
23
-0.1873832970144351
33
0.3075914498161482
0
3DFACE
5
100D2
330
10057
100
AcDbEntity
100
AcDbFace
8
EKP_PANEL_ANTEN
10
-4.85
20
0.1873832970144351
30
-0.3075914498161482
11
-4.15
21
0.1873832970144351
31
-0.3075914498161482
12
-4.15
22
0.30759144981614817
32
-0.18738329701443512
13
-4.85
23
0.30759144981614817
33
-0.18738329701443512
0
3DFACE
5
100D3
330
10057
100
AcDbEntity
100
AcDbFace
8
EKP_PANEL_ANTEN
10
-4.85
20
-0.30759144981614817
30
0.18738329701443512
11
-4.15
21
-0.30759144981614817
31
0.18738329701443512
12
-4.15
22
-0.1873832970144351
32
0.3075914498161482
13
-4.85
23
-0.1873832970144351
33
0.3075914498161482
0
3DFACE
5
100D4
330
10057
100
AcDbEntity
100
AcDbFace
8
EKP_PANEL_ANTEN
10
-4.85
20
0.1873832970144351
30
-0.3075914498161482
11
-4.85
21
-0.30759144981614817
31
0.18738329701443512
12
-4.85
22
-0.1873832970144351
32
0.3075914498161482
13
-4.85
23
0.30759144981614817
33
-0.18738329701443512
0
3DFACE
5
100D5
330
10057
100
AcDbEntity
100
AcDbFace
8
EKP_PANEL_ANTEN
10
-4.15
20
0.1873832970144351
30
-0.3075914498161482
11
-4.15
21
-0.30759144981614817
31
0.18738329701443512
12
-4.15
22
-0.1873832970144351
32
0.3075914498161482
13
-4.15
23
0.30759144981614817
33
-0.18738329701443512
0
3DFACE
5
100D6
330
10057
100
AcDbEntity
100
AcDbFace
8
EKP_PANEL_ANTEN
10
-4.5
20
-0.0728319984622144
30
-0.0728319984622144
11
-4.85
21
-0.30759144981614817
31
0.18738329701443512
12
-4.15
22
-0.30759144981614817
32
0.18738329701443512
13
-4.15
23
-0.30759144981614817
33
0.18738329701443512
0
3DFACE
5
100D7
330
10057
100
AcDbEntity
100
AcDbFace
8
EKP_PANEL_ANTEN
10
-4.5
20
-0.0728319984622144
30
-0.0728319984622144
11
-4.15
21
-0.30759144981614817
31
0.18738329701443512
12
-4.15
22
0.1873832970144351
32
-0.3075914498161482
13
-4.15
23
0.1873832970144351
33
-0.3075914498161482
0
3DFACE
5
100D8
330
10057
100
AcDbEntity
100
AcDbFace
8
EKP_PANEL_ANTEN
10
-4.5
20
-0.0728319984622144
30
-0.0728319984622144
11
-4.15
21
0.1873832970144351
31
-0.3075914498161482
12
-4.85
22
0.1873832970144351
32
-0.3075914498161482
13
-4.85
23
0.1873832970144351
33
-0.3075914498161482
0
3DFACE
5
100D9
330
10057
100
AcDbEntity
100
AcDbFace
8
EKP_PANEL_ANTEN
10
-4.5
20
-0.0728319984622144
30
-0.0728319984622144
11
-4.85
21
0.1873832970144351
31
-0.3075914498161482
12
-4.85
22
-0.30759144981614817
32
0.18738329701443512
13
-4.85
23
-0.30759144981614817
33
0.18738329701443512
0
LINE
5
100DA
330
10057
100
AcDbEntity
100
AcDbLine
8
EKP_PANEL_ANTEN
10
-4.5
20
-0.0728319984622144
30
-0.0728319984622144
11
-4.85
21
0.1873832970144351
31
-0.3075914498161482
0
LINE
5
100DB
330
10057
100
AcDbEntity
100
AcDbLine
8
EKP_PANEL_ANTEN
10
-4.5
20
-0.0728319984622144
30
-0.0728319984622144
11
-4.15
21
0.1873832970144351
31
-0.3075914498161482
0
LINE
5
100DC
330
10057
100
AcDbEntity
100
AcDbLine
8
EKP_PANEL_ANTEN
10
-4.5
20
-0.0728319984622144
30
-0.0728319984622144
11
-4.15
21
-0.30759144981614817
31
0.18738329701443512
0
LINE
5
100DD
330
10057
100
AcDbEntity
100
AcDbLine
8
EKP_PANEL_ANTEN
10
-4.5
20
-0.0728319984622144
30
-0.0728319984622144
11
-4.85
21
-0.30759144981614817
31
0.18738329701443512
0
3DFACE
5
10132
330
10057
100
AcDbEntity
100
AcDbFace
8
EKP_PANEL_ANTEN
10
-3.85
20
0.30759144981614817
30
-0.18738329701443512
11
-3.15
21
0.30759144981614817
31
-0.18738329701443512
12
-3.15
22
-0.1873832970144351
32
0.3075914498161482
13
-3.85
23
-0.1873832970144351
33
0.3075914498161482
0
3DFACE
5
10133
330
10057
100
AcDbEntity
100
AcDbFace
8
EKP_PANEL_ANTEN
10
-3.85
20
0.1873832970144351
30
-0.3075914498161482
11
-3.15
21
0.1873832970144351
31
-0.3075914498161482
12
-3.15
22
0.30759144981614817
32
-0.18738329701443512
13
-3.85
23
0.30759144981614817
33
-0.18738329701443512
0
3DFACE
5
10134
330
10057
100
AcDbEntity
100
AcDbFace
8
EKP_PANEL_ANTEN
10
-3.85
20
-0.30759144981614817
30
0.18738329701443512
11
-3.15
21
-0.30759144981614817
31
0.18738329701443512
12
-3.15
22
-0.1873832970144351
32
0.3075914498161482
13
-3.85
23
-0.1873832970144351
33
0.3075914498161482
0
3DFACE
5
10135
330
10057
100
AcDbEntity
100
AcDbFace
8
EKP_PANEL_ANTEN
10
-3.85
20
0.1873832970144351
30
-0.3075914498161482
11
-3.85
21
-0.30759144981614817
31
0.18738329701443512
12
-3.85
22
-0.1873832970144351
32
0.3075914498161482
13
-3.85
23
0.30759144981614817
33
-0.18738329701443512
0
3DFACE
5
10136
330
10057
100
AcDbEntity
100
AcDbFace
8
EKP_PANEL_ANTEN
10
-3.15
20
0.1873832970144351
30
-0.3075914498161482
11
-3.15
21
-0.30759144981614817
31
0.18738329701443512
12
-3.15
22
-0.1873832970144351
32
0.3075914498161482
13
-3.15
23
0.30759144981614817
33
-0.18738329701443512
0
3DFACE
5
10137
330
10057
100
AcDbEntity
100
AcDbFace
8
EKP_PANEL_ANTEN
10
-3.5
20
-0.0728319984622144
30
-0.0728319984622144
11
-3.85
21
-0.30759144981614817
31
0.18738329701443512
12
-3.15
22
-0.30759144981614817
32
0.18738329701443512
13
-3.15
23
-0.30759144981614817
33
0.18738329701443512
0
3DFACE
5
10138
330
10057
100
AcDbEntity
100
AcDbFace
8
EKP_PANEL_ANTEN
10
-3.5
20
-0.0728319984622144
30
-0.0728319984622144
11
-3.15
21
-0.30759144981614817
31
0.18738329701443512
12
-3.15
22
0.1873832970144351
32
-0.3075914498161482
13
-3.15
23
0.1873832970144351
33
-0.3075914498161482
0
3DFACE
5
10139
330
10057
100
AcDbEntity
100
AcDbFace
8
EKP_PANEL_ANTEN
10
-3.5
20
-0.0728319984622144
30
-0.0728319984622144
11
-3.15
21
0.1873832970144351
31
-0.3075914498161482
12
-3.85
22
0.1873832970144351
32
-0.3075914498161482
13
-3.85
23
0.1873832970144351
33
-0.3075914498161482
0
3DFACE
5
1013A
330
10057
100
AcDbEntity
100
AcDbFace
8
EKP_PANEL_ANTEN
10
-3.5
20
-0.0728319984622144
30
-0.0728319984622144
11
-3.85
21
0.1873832970144351
31
-0.3075914498161482
12
-3.85
22
-0.30759144981614817
32
0.18738329701443512
13
-3.85
23
-0.30759144981614817
33
0.18738329701443512
0
LINE
5
1013B
330
10057
100
AcDbEntity
100
AcDbLine
8
EKP_PANEL_ANTEN
10
-3.5
20
-0.0728319984622144
30
-0.0728319984622144
11
-3.85
21
0.1873832970144351
31
-0.3075914498161482
0
LINE
5
1013C
330
10057
100
AcDbEntity
100
AcDbLine
8
EKP_PANEL_ANTEN
10
-3.5
20
-0.0728319984622144
30
-0.0728319984622144
11
-3.15
21
0.1873832970144351
31
-0.3075914498161482
0
LINE
5
1013D
330
10057
100
AcDbEntity
100
AcDbLine
8
EKP_PANEL_ANTEN
10
-3.5
20
-0.0728319984622144
30
-0.0728319984622144
11
-3.15
21
-0.30759144981614817
31
0.18738329701443512
0
LINE
5
1013E
330
10057
100
AcDbEntity
100
AcDbLine
8
EKP_PANEL_ANTEN
10
-3.5
20
-0.0728319984622144
30
-0.0728319984622144
11
-3.85
21
-0.30759144981614817
31
0.18738329701443512
0
3DFACE
5
101A5
330
10057
100
AcDbEntity
100
AcDbFace
8
EKP_PANEL_ANTEN
10
5.876310054476801
20
0.5287484657730576
30
-0.18738329701443512
11
6.534094889026937
21
0.2893343654450894
31
-0.18738329701443512
12
6.364803555173355
22
-0.17578975162698285
32
0.3075914498161482
13
5.707018720623219
23
0.06362434870098524
33
0.3075914498161482
0
3DFACE
5
101A6
330
10057
100
AcDbEntity
100
AcDbFace
8
EKP_PANEL_ANTEN
10
5.835196444826645
20
0.41578975162698284
30
-0.3075914498161482
11
6.492981279376781
21
0.17637565129901475
31
-0.3075914498161482
12
6.534094889026937
22
0.2893343654450894
32
-0.18738329701443512
13
5.876310054476801
23
0.5287484657730576
33
-0.18738329701443512
0
3DFACE
5
101A7
330
10057
100
AcDbEntity
100
AcDbFace
8
EKP_PANEL_ANTEN
10
5.665905110973062
20
-0.04933436544508943
30
0.18738329701443512
11
6.323689945523198
21
-0.28874846577305757
31
0.18738329701443512
12
6.364803555173355
22
-0.17578975162698285
32
0.3075914498161482
13
5.707018720623219
23
0.06362434870098524
33
0.3075914498161482
0
3DFACE
5
101A8
330
10057
100
AcDbEntity
100
AcDbFace
8
EKP_PANEL_ANTEN
10
5.835196444826645
20
0.41578975162698284
30
-0.3075914498161482
11
5.665905110973062
21
-0.04933436544508943
31
0.18738329701443512
12
5.707018720623219
22
0.06362434870098524
32
0.3075914498161482
13
5.876310054476801
23
0.5287484657730576
33
-0.18738329701443512
0
3DFACE
5
101A9
330
10057
100
AcDbEntity
100
AcDbFace
8
EKP_PANEL_ANTEN
10
6.492981279376781
20
0.17637565129901475
30
-0.3075914498161482
11
6.323689945523198
21
-0.28874846577305757
31
0.18738329701443512
12
6.364803555173355
22
-0.17578975162698285
32
0.3075914498161482
13
6.534094889026937
23
0.2893343654450894
33
-0.18738329701443512
0
3DFACE
5
101AA
330
10057
100
AcDbEntity
100
AcDbFace
8
EKP_PANEL_ANTEN
10
6.0750899894472585
20
0.0515603084879665
30
-0.0728319984622144
11
5.665905110973062
21
-0.04933436544508943
31
0.18738329701443512
12
6.323689945523198
22
-0.28874846577305757
32
0.18738329701443512
13
6.323689945523198
23
-0.28874846577305757
33
0.18738329701443512
0
3DFACE
5
101AB
330
10057
100
AcDbEntity
100
AcDbFace
8
EKP_PANEL_ANTEN
10
6.0750899894472585
20
0.0515603084879665
30
-0.0728319984622144
11
6.323689945523198
21
-0.28874846577305757
31
0.18738329701443512
12
6.492981279376781
22
0.17637565129901475
32
-0.3075914498161482
13
6.492981279376781
23
0.17637565129901475
33
-0.3075914498161482
0
3DFACE
5
101AC
330
10057
100
AcDbEntity
100
AcDbFace
8
EKP_PANEL_ANTEN
10
6.0750899894472585
20
0.0515603084879665
30
-0.0728319984622144
11
6.492981279376781
21
0.17637565129901475
31
-0.3075914498161482
12
5.835196444826645
22
0.41578975162698284
32
-0.3075914498161482
13
5.835196444826645
23
0.41578975162698284
33
-0.3075914498161482
0
3DFACE
5
101AD
330
10057
100
AcDbEntity
100
AcDbFace
8
EKP_PANEL_ANTEN
10
6.0750899894472585
20
0.0515603084879665
30
-0.0728319984622144
11
5.835196444826645
21
0.41578975162698284
31
-0.3075914498161482
12
5.665905110973062
22
-0.04933436544508943
32
0.18738329701443512
13
5.665905110973062
23
-0.04933436544508943
33
0.18738329701443512
0
LINE
5
101AE
330
10057
100
AcDbEntity
100
AcDbLine
8
EKP_PANEL_ANTEN
10
6.0750899894472585
20
0.0515603084879665
30
-0.0728319984622144
11
5.835196444826645
21
0.41578975162698284
31
-0.3075914498161482
0
LINE
5
101AF
330
10057
100
AcDbEntity
100
AcDbLine
8
EKP_PANEL_ANTEN
10
6.0750899894472585
20
0.0515603084879665
30
-0.0728319984622144
11
6.492981279376781
21
0.17637565129901475
31
-0.3075914498161482
0
LINE
5
101B0
330
10057
100
AcDbEntity
100
AcDbLine
8
EKP_PANEL_ANTEN
10
6.0750899894472585
20
0.0515603084879665
30
-0.0728319984622144
11
6.323689945523198
21
-0.28874846577305757
31
0.18738329701443512
0
LINE
5
101B1
330
10057
100
AcDbEntity
100
AcDbLine
8
EKP_PANEL_ANTEN
10
6.0750899894472585
20
0.0515603084879665
30
-0.0728319984622144
11
5.665905110973062
21
-0.04933436544508943
31
0.18738329701443512
0
3DFACE
5
10206
330
10057
100
AcDbEntity
100
AcDbFace
8
EKP_PANEL_ANTEN
10
6.65
20
0.30759144981614817
30
-0.18738329701443512
11
7.35
21
0.30759144981614817
31
-0.18738329701443512
12
7.35
22
-0.1873832970144351
32
0.3075914498161482
13
6.65
23
-0.1873832970144351
33
0.3075914498161482
0
3DFACE
5
10207
330
10057
100
AcDbEntity
100
AcDbFace
8
EKP_PANEL_ANTEN
10
6.65
20
0.1873832970144351
30
-0.3075914498161482
11
7.35
21
0.1873832970144351
31
-0.3075914498161482
12
7.35
22
0.30759144981614817
32
-0.18738329701443512
13
6.65
23
0.30759144981614817
33
-0.18738329701443512
0
3DFACE
5
10208
330
10057
100
AcDbEntity
100
AcDbFace
8
EKP_PANEL_ANTEN
10
6.65
20
-0.30759144981614817
30
0.18738329701443512
11
7.35
21
-0.30759144981614817
31
0.18738329701443512
12
7.35
22
-0.1873832970144351
32
0.3075914498161482
13
6.65
23
-0.1873832970144351
33
0.3075914498161482
0
3DFACE
5
10209
330
10057
100
AcDbEntity
100
AcDbFace
8
EKP_PANEL_ANTEN
10
6.65
20
0.1873832970144351
30
-0.3075914498161482
11
6.65
21
-0.30759144981614817
31
0.18738329701443512
12
6.65
22
-0.1873832970144351
32
0.3075914498161482
13
6.65
23
0.30759144981614817
33
-0.18738329701443512
0
3DFACE
5
1020A
330
10057
100
AcDbEntity
100
AcDbFace
8
EKP_PANEL_ANTEN
10
7.35
20
0.1873832970144351
30
-0.3075914498161482
11
7.35
21
-0.30759144981614817
31
0.18738329701443512
12
7.35
22
-0.1873832970144351
32
0.3075914498161482
13
7.35
23
0.30759144981614817
33
-0.18738329701443512
0
3DFACE
5
1020B
330
10057
100
AcDbEntity
100
AcDbFace
8
EKP_PANEL_ANTEN
10
7
20
-0.0728319984622144
30
-0.0728319984622144
11
6.65
21
-0.30759144981614817
31
0.18738329701443512
12
7.35
22
-0.30759144981614817
32
0.18738329701443512
13
7.35
23
-0.30759144981614817
33
0.18738329701443512
0
3DFACE
5
1020C
330
10057
100
AcDbEntity
100
AcDbFace
8
EKP_PANEL_ANTEN
10
7
20
-0.0728319984622144
30
-0.0728319984622144
11
7.35
21
-0.30759144981614817
31
0.18738329701443512
12
7.35
22
0.1873832970144351
32
-0.3075914498161482
13
7.35
23
0.1873832970144351
33
-0.3075914498161482
0
3DFACE
5
1020D
330
10057
100
AcDbEntity
100
AcDbFace
8
EKP_PANEL_ANTEN
10
7
20
-0.0728319984622144
30
-0.0728319984622144
11
7.35
21
0.1873832970144351
31
-0.3075914498161482
12
6.65
22
0.1873832970144351
32
-0.3075914498161482
13
6.65
23
0.1873832970144351
33
-0.3075914498161482
0
3DFACE
5
1020E
330
10057
100
AcDbEntity
100
AcDbFace
8
EKP_PANEL_ANTEN
10
7
20
-0.0728319984622144
30
-0.0728319984622144
11
6.65
21
0.1873832970144351
31
-0.3075914498161482
12
6.65
22
-0.30759144981614817
32
0.18738329701443512
13
6.65
23
-0.30759144981614817
33
0.18738329701443512
0
LINE
5
1020F
330
10057
100
AcDbEntity
100
AcDbLine
8
EKP_PANEL_ANTEN
10
7
20
-0.0728319984622144
30
-0.0728319984622144
11
6.65
21
0.1873832970144351
31
-0.3075914498161482
0
LINE
5
10210
330
10057
100
AcDbEntity
100
AcDbLine
8
EKP_PANEL_ANTEN
10
7
20
-0.0728319984622144
30
-0.0728319984622144
11
7.35
21
0.1873832970144351
31
-0.3075914498161482
0
LINE
5
10211
330
10057
100
AcDbEntity
100
AcDbLine
8
EKP_PANEL_ANTEN
10
7
20
-0.0728319984622144
30
-0.0728319984622144
11
7.35
21
-0.30759144981614817
31
0.18738329701443512
0
LINE
5
10212
330
10057
100
AcDbEntity
100
AcDbLine
8
EKP_PANEL_ANTEN
10
7
20
-0.0728319984622144
30
-0.0728319984622144
11
6.65
21
-0.30759144981614817
31
0.18738329701443512
0
3DFACE
5
10267
330
10057
100
AcDbEntity
100
AcDbFace
8
EKP_PANEL_ANTEN
10
7.465905110973063
20
0.2893343654450894
30
-0.18738329701443512
11
8.1236899455232
21
0.5287484657730576
31
-0.18738329701443512
12
8.292981279376782
22
0.06362434870098524
32
0.3075914498161482
13
7.635196444826645
23
-0.17578975162698285
33
0.3075914498161482
0
3DFACE
5
10268
330
10057
100
AcDbEntity
100
AcDbFace
8
EKP_PANEL_ANTEN
10
7.507018720623219
20
0.17637565129901475
30
-0.3075914498161482
11
8.164803555173355
21
0.41578975162698284
31
-0.3075914498161482
12
8.1236899455232
22
0.5287484657730576
32
-0.18738329701443512
13
7.465905110973063
23
0.2893343654450894
33
-0.18738329701443512
0
3DFACE
5
10269
330
10057
100
AcDbEntity
100
AcDbFace
8
EKP_PANEL_ANTEN
10
7.676310054476802
20
-0.28874846577305757
30
0.18738329701443512
11
8.334094889026938
21
-0.04933436544508943
31
0.18738329701443512
12
8.292981279376782
22
0.06362434870098524
32
0.3075914498161482
13
7.635196444826645
23
-0.17578975162698285
33
0.3075914498161482
0
3DFACE
5
1026A
330
10057
100
AcDbEntity
100
AcDbFace
8
EKP_PANEL_ANTEN
10
7.507018720623219
20
0.17637565129901475
30
-0.3075914498161482
11
7.676310054476802
21
-0.28874846577305757
31
0.18738329701443512
12
7.635196444826645
22
-0.17578975162698285
32
0.3075914498161482
13
7.465905110973063
23
0.2893343654450894
33
-0.18738329701443512
0
3DFACE
5
1026B
330
10057
100
AcDbEntity
100
AcDbFace
8
EKP_PANEL_ANTEN
10
8.164803555173355
20
0.41578975162698284
30
-0.3075914498161482
11
8.334094889026938
21
-0.04933436544508943
31
0.18738329701443512
12
8.292981279376782
22
0.06362434870098524
32
0.3075914498161482
13
8.1236899455232
23
0.5287484657730576
33
-0.18738329701443512
0
3DFACE
5
1026C
330
10057
100
AcDbEntity
100
AcDbFace
8
EKP_PANEL_ANTEN
10
7.9249100105527415
20
0.0515603084879665
30
-0.0728319984622144
11
7.676310054476802
21
-0.28874846577305757
31
0.18738329701443512
12
8.334094889026938
22
-0.04933436544508943
32
0.18738329701443512
13
8.334094889026938
23
-0.04933436544508943
33
0.18738329701443512
0
3DFACE
5
1026D
330
10057
100
AcDbEntity
100
AcDbFace
8
EKP_PANEL_ANTEN
10
7.9249100105527415
20
0.0515603084879665
30
-0.0728319984622144
11
8.334094889026938
21
-0.04933436544508943
31
0.18738329701443512
12
8.164803555173355
22
0.41578975162698284
32
-0.3075914498161482
13
8.164803555173355
23
0.41578975162698284
33
-0.3075914498161482
0
3DFACE
5
1026E
330
10057
100
AcDbEntity
100
AcDbFace
8
EKP_PANEL_ANTEN
10
7.9249100105527415
20
0.0515603084879665
30
-0.0728319984622144
11
8.164803555173355
21
0.41578975162698284
31
-0.3075914498161482
12
7.507018720623219
22
0.17637565129901475
32
-0.3075914498161482
13
7.507018720623219
23
0.17637565129901475
33
-0.3075914498161482
0
3DFACE
5
1026F
330
10057
100
AcDbEntity
100
AcDbFace
8
EKP_PANEL_ANTEN
10
7.9249100105527415
20
0.0515603084879665
30
-0.0728319984622144
11
7.507018720623219
21
0.17637565129901475
31
-0.3075914498161482
12
7.676310054476802
22
-0.28874846577305757
32
0.18738329701443512
13
7.676310054476802
23
-0.28874846577305757
33
0.18738329701443512
0
LINE
5
10270
330
10057
100
AcDbEntity
100
AcDbLine
8
EKP_PANEL_ANTEN
10
7.9249100105527415
20
0.0515603084879665
30
-0.0728319984622144
11
7.507018720623219
21
0.17637565129901475
31
-0.3075914498161482
0
LINE
5
10271
330
10057
100
AcDbEntity
100
AcDbLine
8
EKP_PANEL_ANTEN
10
7.9249100105527415
20
0.0515603084879665
30
-0.0728319984622144
11
8.164803555173355
21
0.41578975162698284
31
-0.3075914498161482
0
LINE
5
10272
330
10057
100
AcDbEntity
100
AcDbLine
8
EKP_PANEL_ANTEN
10
7.9249100105527415
20
0.0515603084879665
30
-0.0728319984622144
11
8.334094889026938
21
-0.04933436544508943
31
0.18738329701443512
0
LINE
5
10273
330
10057
100
AcDbEntity
100
AcDbLine
8
EKP_PANEL_ANTEN
10
7.9249100105527415
20
0.0515603084879665
30
-0.0728319984622144
11
7.676310054476802
21
-0.28874846577305757
31
0.18738329701443512
0
3DFACE
5
1030E
330
10057
100
AcDbEntity
100
AcDbFace
8
EKP_PANEL_ANTEN
10
15.65
20
0.30759144981614817
30
0.4626167029855648
11
16.35
21
0.30759144981614817
31
0.4626167029855648
12
16.35
22
-0.1873832970144351
32
0.9575914498161482
13
15.65
23
-0.1873832970144351
33
0.9575914498161482
0
3DFACE
5
1030F
330
10057
100
AcDbEntity
100
AcDbFace
8
EKP_PANEL_ANTEN
10
15.65
20
0.1873832970144351
30
0.3424085501838517
11
16.35
21
0.1873832970144351
31
0.3424085501838517
12
16.35
22
0.30759144981614817
32
0.4626167029855648
13
15.65
23
0.30759144981614817
33
0.4626167029855648
0
3DFACE
5
10310
330
10057
100
AcDbEntity
100
AcDbFace
8
EKP_PANEL_ANTEN
10
15.65
20
-0.30759144981614817
30
0.837383297014435
11
16.35
21
-0.30759144981614817
31
0.837383297014435
12
16.35
22
-0.1873832970144351
32
0.9575914498161482
13
15.65
23
-0.1873832970144351
33
0.9575914498161482
0
3DFACE
5
10311
330
10057
100
AcDbEntity
100
AcDbFace
8
EKP_PANEL_ANTEN
10
15.65
20
0.1873832970144351
30
0.3424085501838517
11
15.65
21
-0.30759144981614817
31
0.837383297014435
12
15.65
22
-0.1873832970144351
32
0.9575914498161482
13
15.65
23
0.30759144981614817
33
0.4626167029855648
0
3DFACE
5
10312
330
10057
100
AcDbEntity
100
AcDbFace
8
EKP_PANEL_ANTEN
10
16.35
20
0.1873832970144351
30
0.3424085501838517
11
16.35
21
-0.30759144981614817
31
0.837383297014435
12
16.35
22
-0.1873832970144351
32
0.9575914498161482
13
16.35
23
0.30759144981614817
33
0.4626167029855648
0
3DFACE
5
10313
330
10057
100
AcDbEntity
100
AcDbFace
8
EKP_PANEL_ANTEN
10
16
20
-0.0728319984622144
30
0.5771680015377855
11
15.65
21
-0.30759144981614817
31
0.837383297014435
12
16.35
22
-0.30759144981614817
32
0.837383297014435
13
16.35
23
-0.30759144981614817
33
0.837383297014435
0
3DFACE
5
10314
330
10057
100
AcDbEntity
100
AcDbFace
8
EKP_PANEL_ANTEN
10
16
20
-0.0728319984622144
30
0.5771680015377855
11
16.35
21
-0.30759144981614817
31
0.837383297014435
12
16.35
22
0.1873832970144351
32
0.3424085501838517
13
16.35
23
0.1873832970144351
33
0.3424085501838517
0
3DFACE
5
10315
330
10057
100
AcDbEntity
100
AcDbFace
8
EKP_PANEL_ANTEN
10
16
20
-0.0728319984622144
30
0.5771680015377855
11
16.35
21
0.1873832970144351
31
0.3424085501838517
12
15.65
22
0.1873832970144351
32
0.3424085501838517
13
15.65
23
0.1873832970144351
33
0.3424085501838517
0
3DFACE
5
10316
330
10057
100
AcDbEntity
100
AcDbFace
8
EKP_PANEL_ANTEN
10
16
20
-0.0728319984622144
30
0.5771680015377855
11
15.65
21
0.1873832970144351
31
0.3424085501838517
12
15.65
22
-0.30759144981614817
32
0.837383297014435
13
15.65
23
-0.30759144981614817
33
0.837383297014435
0
LINE
5
10317
330
10057
100
AcDbEntity
100
AcDbLine
8
EKP_PANEL_ANTEN
10
16
20
-0.0728319984622144
30
0.5771680015377855
11
15.65
21
0.1873832970144351
31
0.3424085501838517
0
LINE
5
10318
330
10057
100
AcDbEntity
100
AcDbLine
8
EKP_PANEL_ANTEN
10
16
20
-0.0728319984622144
30
0.5771680015377855
11
16.35
21
0.1873832970144351
31
0.3424085501838517
0
LINE
5
10319
330
10057
100
AcDbEntity
100
AcDbLine
8
EKP_PANEL_ANTEN
10
16
20
-0.0728319984622144
30
0.5771680015377855
11
16.35
21
-0.30759144981614817
31
0.837383297014435
0
LINE
5
1031A
330
10057
100
AcDbEntity
100
AcDbLine
8
EKP_PANEL_ANTEN
10
16
20
-0.0728319984622144
30
0.5771680015377855
11
15.65
21
-0.30759144981614817
31
0.837383297014435
0
ENDSEC
0
SECTION
2
OBJECTS
0
DICTIONARY
5
10045
330
0
100
AcDbDictionary
281
1
3
ACAD_GROUP
350
1005B
0
DICTIONARY
5
1005B
330
10045
100
AcDbDictionary
281
1
0
ENDSEC
0
EOF