0
SECTION
2
HEADER
9
$HANDSEED
5
432
9
$INSUNITS
70
6
9
$ACADVER
1
AC1021
9
$DWGCODEPAGE
3
UTF-8
0
ENDSEC
0
SECTION
2
CLASSES
0
ENDSEC
0
SECTION
2
TABLES
0
TABLE
2
LTYPE
5
430
330
0
100
AcDbSymbolTable
70
5
0
LTYPE
5
21A
330
430
100
AcDbSymbolTableRecord
100
AcDbLinetypeTableRecord
2
CONTINUOUS
3
______
70
0
72
65
73
0
40
0
0
LTYPE
5
21B
330
430
100
AcDbSymbolTableRecord
100
AcDbLinetypeTableRecord
2
DASHED
3
_ _ _ 
70
0
72
65
73
2
40
10
49
5
74
0
49
-5
74
0
0
LTYPE
5
21C
330
430
100
AcDbSymbolTableRecord
100
AcDbLinetypeTableRecord
2
DOTTED
3
. . . 
70
0
72
65
73
2
40
5
49
0
74
0
49
-5
74
0
0
LTYPE
5
21E
330
430
100
AcDbSymbolTableRecord
100
AcDbLinetypeTableRecord
2
ByBlock
3

70
0
72
65
73
0
40
0
0
LTYPE
5
21F
330
430
100
AcDbSymbolTableRecord
100
AcDbLinetypeTableRecord
2
ByLayer
3

70
0
72
65
73
0
40
0
0
ENDTAB
0
TABLE
2
LAYER
5
431
330
0
100
AcDbSymbolTable
70
21
0
LAYER
5
21D
330
431
100
AcDbSymbolTableRecord
100
AcDbLayerTableRecord
2
0
62
7
70
0
6
CONTINUOUS
390
1
0
LAYER
5
230
330
431
100
AcDbSymbolTableRecord
100
AcDbLayerTableRecord
2
ZEMIN_PLATFORM
62
8
70
0
6
CONTINUOUS
390
1
0
LAYER
5
231
330
431
100
AcDbSymbolTableRecord
100
AcDbLayerTableRecord
2
KORKULUK_KAPI
62
4
70
0
6
CONTINUOUS
390
1
0
LAYER
5
232
330
431
100
AcDbSymbolTableRecord
100
AcDbLayerTableRecord
2
CELIK_KIRIS_KOLON
62
9
70
0
6
CONTINUOUS
390
1
0
LAYER
5
233
330
431
100
AcDbSymbolTableRecord
100
AcDbLayerTableRecord
2
MONTAJ_BORULARI
62
2
70
0
6
CONTINUOUS
390
1
0
LAYER
5
234
330
431
100
AcDbSymbolTableRecord
100
AcDbLayerTableRecord
2
KABLO_TAVALARI
62
6
70
0
6
CONTINUOUS
390
1
0
LAYER
5
235
330
431
100
AcDbSymbolTableRecord
100
AcDbLayerTableRecord
2
YURUYUS_KORIDORU
62
3
70
0
6
DASHED
390
1
0
LAYER
5
236
330
431
100
AcDbSymbolTableRecord
100
AcDbLayerTableRecord
2
OLCULER
62
1
70
0
6
CONTINUOUS
390
1
0
LAYER
5
237
330
431
100
AcDbSymbolTableRecord
100
AcDbLayerTableRecord
2
METIN_BILGI
62
7
70
0
6
CONTINUOUS
390
1
0
LAYER
5
238
330
431
100
AcDbSymbolTableRecord
100
AcDbLayerTableRecord
2
EKP_TURKCELL_RRU
62
5
70
0
6
CONTINUOUS
390
1
0
LAYER
5
239
330
431
100
AcDbSymbolTableRecord
100
AcDbLayerTableRecord
2
EKP_VODAFONE_RRU
62
1
70
0
6
CONTINUOUS
390
1
0
LAYER
5
23A
330
431
100
AcDbSymbolTableRecord
100
AcDbLayerTableRecord
2
EKP_TURK_TELEKOM_RRU
62
4
70
0
6
CONTINUOUS
390
1
0
LAYER
5
23B
330
431
100
AcDbSymbolTableRecord
100
AcDbLayerTableRecord
2
EKP_POI_TASIYICI_SASE
62
30
70
0
6
CONTINUOUS
390
1
0
LAYER
5
23C
330
431
100
AcDbSymbolTableRecord
100
AcDbLayerTableRecord
2
EKP_POI_MODULLERI
62
40
70
0
6
CONTINUOUS
390
1
0
LAYER
5
23D
330
431
100
AcDbSymbolTableRecord
100
AcDbLayerTableRecord
2
EKP_RECTIFIER_ELTEK_20U
62
3
70
0
6
CONTINUOUS
390
1
0
LAYER
5
23E
330
431
100
AcDbSymbolTableRecord
100
AcDbLayerTableRecord
2
EKP_RECTIFIER_MTS9304A
62
94
70
0
6
CONTINUOUS
390
1
0
LAYER
5
23F
330
431
100
AcDbSymbolTableRecord
100
AcDbLayerTableRecord
2
BLOK_OZEL_PLATFORM
62
140
70
0
6
CONTINUOUS
390
1
0
LAYER
5
240
330
431
100
AcDbSymbolTableRecord
100
AcDbLayerTableRecord
2
EKP_MATSING_ANTEN
62
2
70
0
6
CONTINUOUS
390
1
0
LAYER
5
241
330
431
100
AcDbSymbolTableRecord
100
AcDbLayerTableRecord
2
EKP_PANEL_ANTEN
62
6
70
0
6
CONTINUOUS
390
1
0
LAYER
5
242
330
431
100
AcDbSymbolTableRecord
100
AcDbLayerTableRecord
2
EKP_ANTEN_TASIYICI_KOL
62
141
70
0
6
CONTINUOUS
390
1
0
LAYER
5
243
330
431
100
AcDbSymbolTableRecord
100
AcDbLayerTableRecord
2
EKP_DIGER_EKIPMANLAR
62
7
70
0
6
CONTINUOUS
390
1
0
ENDTAB
0
TABLE
2
VPORT
5
220
330
0
100
AcDbSymbolTable
70
1
0
VPORT
5
226
330
220
100
AcDbSymbolTableRecord
100
AcDbViewportTableRecord
2
*ACTIVE
40
1000
70
0
0
ENDTAB
0
TABLE
2
STYLE
5
221
330
0
100
AcDbSymbolTable
70
3
0
STYLE
5
227
330
221
100
AcDbSymbolTableRecord
100
AcDbTextStyleTableRecord
2
standard
70
0
40
0
41
1
50
0
71
0
42
1
3
calibrib.ttf
4

1001
ACAD
1000
Calibri
1071
33554466
0
STYLE
5
228
330
221
100
AcDbSymbolTableRecord
100
AcDbTextStyleTableRecord
2
STANDARD
70
0
40
0
41
1
50
0
71
0
42
1
3
calibrib.ttf
4

1001
ACAD
1000
Calibri
1071
33554466
0
STYLE
5
229
330
221
100
AcDbSymbolTableRecord
100
AcDbTextStyleTableRecord
2
CALIBRI_BOLD
70
0
40
0
41
1
50
0
71
0
42
1
3
calibrib.ttf
4

1001
ACAD
1000
Calibri
1071
33554466
0
ENDTAB
0
TABLE
2
VIEW
5
222
330
0
100
AcDbSymbolTable
70
0
0
ENDTAB
0
TABLE
2
UCS
5
223
330
0
100
AcDbSymbolTable
70
0
0
ENDTAB
0
TABLE
2
APPID
5
224
330
0
100
AcDbSymbolTable
70
1
0
APPID
5
22A
330
224
100
AcDbSymbolTableRecord
100
AcDbRegAppTableRecord
2
ACAD
70
0
0
ENDTAB
0
TABLE
2
DIMSTYLE
5
225
330
0
100
AcDbSymbolTable
100
AcDbDimStyleTable
70
0
71
1
0
ENDTAB
0
TABLE
2
BLOCK_RECORD
5
42D
330
0
100
AcDbSymbolTable
70
2
0
BLOCK_RECORD
5
42E
330
42D
100
AcDbSymbolTableRecord
100
AcDbBlockTableRecord
2
*Model_Space
70
0
280
0
281
1
0
BLOCK_RECORD
5
42F
330
42D
100
AcDbSymbolTableRecord
100
AcDbBlockTableRecord
2
*Paper_Space
70
0
280
0
281
1
0
ENDTAB
0
ENDSEC
0
SECTION
2
BLOCKS
0
BLOCK
5
22B
330
0
100
AcDbEntity
100
AcDbBlockBegin
2
*Model_Space
70
0
10
0
20
0
30
0
3
*Model_Space
1

0
ENDBLK
5
22C
330
0
100
AcDbEntity
100
AcDbBlockEnd
0
BLOCK
5
22D
330
0
100
AcDbEntity
100
AcDbBlockBegin
2
*Paper_Space
70
0
10
0
20
0
30
0
3
*Paper_Space
1

0
ENDBLK
5
22E
330
0
100
AcDbEntity
100
AcDbBlockEnd
0
ENDSEC
0
SECTION
2
ENTITIES
0
LWPOLYLINE
5
24D
330
22B
100
AcDbEntity
100
AcDbPolyline
8
ZEMIN_PLATFORM
6
ByLayer
62
256
370
-1
90
4
70
1
10
-1.85
20
1.35
10
-1.85
20
1.385
10
-0.8500000000000001
20
1.385
10
-0.8500000000000001
20
1.35
0
LINE
5
24E
330
22B
100
AcDbEntity
100
AcDbLine
8
ZEMIN_PLATFORM
10
-1.8
20
1.35
30
0
11
-1.8
21
1.385
31
0
0
LINE
5
24F
330
22B
100
AcDbEntity
100
AcDbLine
8
ZEMIN_PLATFORM
10
-1.75
20
1.35
30
0
11
-1.75
21
1.385
31
0
0
LINE
5
250
330
22B
100
AcDbEntity
100
AcDbLine
8
ZEMIN_PLATFORM
10
-1.7
20
1.35
30
0
11
-1.7
21
1.385
31
0
0
LINE
5
251
330
22B
100
AcDbEntity
100
AcDbLine
8
ZEMIN_PLATFORM
10
-1.65
20
1.35
30
0
11
-1.65
21
1.385
31
0
0
LINE
5
252
330
22B
100
AcDbEntity
100
AcDbLine
8
ZEMIN_PLATFORM
10
-1.5999999999999999
20
1.35
30
0
11
-1.5999999999999999
21
1.385
31
0
0
LINE
5
253
330
22B
100
AcDbEntity
100
AcDbLine
8
ZEMIN_PLATFORM
10
-1.5499999999999998
20
1.35
30
0
11
-1.5499999999999998
21
1.385
31
0
0
LINE
5
254
330
22B
100
AcDbEntity
100
AcDbLine
8
ZEMIN_PLATFORM
10
-1.4999999999999998
20
1.35
30
0
11
-1.4999999999999998
21
1.385
31
0
0
LINE
5
255
330
22B
100
AcDbEntity
100
AcDbLine
8
ZEMIN_PLATFORM
10
-1.4499999999999997
20
1.35
30
0
11
-1.4499999999999997
21
1.385
31
0
0
LINE
5
256
330
22B
100
AcDbEntity
100
AcDbLine
8
ZEMIN_PLATFORM
10
-1.3999999999999997
20
1.35
30
0
11
-1.3999999999999997
21
1.385
31
0
0
LINE
5
257
330
22B
100
AcDbEntity
100
AcDbLine
8
ZEMIN_PLATFORM
10
-1.3499999999999996
20
1.35
30
0
11
-1.3499999999999996
21
1.385
31
0
0
LINE
5
258
330
22B
100
AcDbEntity
100
AcDbLine
8
ZEMIN_PLATFORM
10
-1.2999999999999996
20
1.35
30
0
11
-1.2999999999999996
21
1.385
31
0
0
LINE
5
259
330
22B
100
AcDbEntity
100
AcDbLine
8
ZEMIN_PLATFORM
10
-1.2499999999999996
20
1.35
30
0
11
-1.2499999999999996
21
1.385
31
0
0
LINE
5
25A
330
22B
100
AcDbEntity
100
AcDbLine
8
ZEMIN_PLATFORM
10
-1.1999999999999995
20
1.35
30
0
11
-1.1999999999999995
21
1.385
31
0
0
LINE
5
25B
330
22B
100
AcDbEntity
100
AcDbLine
8
ZEMIN_PLATFORM
10
-1.1499999999999995
20
1.35
30
0
11
-1.1499999999999995
21
1.385
31
0
0
LINE
5
25C
330
22B
100
AcDbEntity
100
AcDbLine
8
ZEMIN_PLATFORM
10
-1.0999999999999994
20
1.35
30
0
11
-1.0999999999999994
21
1.385
31
0
0
LINE
5
25D
330
22B
100
AcDbEntity
100
AcDbLine
8
ZEMIN_PLATFORM
10
-1.0499999999999994
20
1.35
30
0
11
-1.0499999999999994
21
1.385
31
0
0
LINE
5
25E
330
22B
100
AcDbEntity
100
AcDbLine
8
ZEMIN_PLATFORM
10
-0.9999999999999993
20
1.35
30
0
11
-0.9999999999999993
21
1.385
31
0
0
LINE
5
25F
330
22B
100
AcDbEntity
100
AcDbLine
8
ZEMIN_PLATFORM
10
-0.9499999999999993
20
1.35
30
0
11
-0.9499999999999993
21
1.385
31
0
0
LINE
5
260
330
22B
100
AcDbEntity
100
AcDbLine
8
ZEMIN_PLATFORM
10
-0.8999999999999992
20
1.35
30
0
11
-0.8999999999999992
21
1.385
31
0
0
LINE
5
2CE
330
22B
100
AcDbEntity
100
AcDbLine
8
ZEMIN_PLATFORM
10
0.19999999999999996
20
1.35
30
0
11
2.35
21
1.35
31
0
0
LWPOLYLINE
5
264
330
22B
100
AcDbEntity
100
AcDbPolyline
8
KORKULUK_KAPI
6
ByLayer
62
256
370
-1
90
4
70
1
10
-1.855
20
1.385
10
-1.855
20
2.4850000000000003
10
-1.815
20
2.4850000000000003
10
-1.815
20
1.385
0
CIRCLE
5
265
330
22B
100
AcDbEntity
100
AcDbCircle
8
KORKULUK_KAPI
10
-1.8350000000000002
20
2.4850000000000003
30
0
40
0.022
0
LWPOLYLINE
5
266
330
22B
100
AcDbEntity
100
AcDbPolyline
8
KORKULUK_KAPI
6
ByLayer
62
256
370
-1
90
4
70
1
10
-1.85
20
1.935
10
-1.85
20
1.96
10
-1.82
20
1.96
10
-1.82
20
1.935
0
LWPOLYLINE
5
267
330
22B
100
AcDbEntity
100
AcDbPolyline
8
KORKULUK_KAPI
6
ByLayer
62
256
370
-1
90
4
70
1
10
-1.85
20
1.385
10
-1.85
20
1.535
10
-1.8350000000000002
20
1.535
10
-1.8350000000000002
20
1.385
0
LWPOLYLINE
5
268
330
22B
100
AcDbEntity
100
AcDbPolyline
8
KORKULUK_KAPI
6
ByLayer
62
256
370
-1
90
4
70
1
10
-0.8850000000000001
20
1.385
10
-0.8850000000000001
20
2.4850000000000003
10
-0.8450000000000001
20
2.4850000000000003
10
-0.8450000000000001
20
1.385
0
CIRCLE
5
269
330
22B
100
AcDbEntity
100
AcDbCircle
8
KORKULUK_KAPI
10
-0.8650000000000001
20
2.4850000000000003
30
0
40
0.022
0
LWPOLYLINE
5
26A
330
22B
100
AcDbEntity
100
AcDbPolyline
8
KORKULUK_KAPI
6
ByLayer
62
256
370
-1
90
4
70
1
10
-0.8750000000000001
20
1.935
10
-0.8750000000000001
20
1.96
10
-0.8450000000000001
20
1.96
10
-0.8450000000000001
20
1.935
0
LWPOLYLINE
5
26B
330
22B
100
AcDbEntity
100
AcDbPolyline
8
KORKULUK_KAPI
6
ByLayer
62
256
370
-1
90
4
70
1
10
-0.8600000000000001
20
1.385
10
-0.8600000000000001
20
1.535
10
-0.8450000000000001
20
1.535
10
-0.8450000000000001
20
1.385
0
LWPOLYLINE
5
261
330
22B
100
AcDbEntity
100
AcDbPolyline
8
CELIK_KIRIS_KOLON
6
ByLayer
62
256
370
-1
90
4
70
1
10
-1.85
20
1.23
10
-1.85
20
1.35
10
-1.7950000000000002
20
1.35
10
-1.7950000000000002
20
1.23
0
LWPOLYLINE
5
262
330
22B
100
AcDbEntity
100
AcDbPolyline
8
CELIK_KIRIS_KOLON
6
ByLayer
62
256
370
-1
90
4
70
1
10
-0.9050000000000001
20
1.23
10
-0.9050000000000001
20
1.35
10
-0.8500000000000001
20
1.35
10
-0.8500000000000001
20
1.23
0
LWPOLYLINE
5
263
330
22B
100
AcDbEntity
100
AcDbPolyline
8
CELIK_KIRIS_KOLON
6
ByLayer
62
256
370
-1
90
4
70
1
10
-1.7950000000000002
20
1.25
10
-1.7950000000000002
20
1.275
10
-0.9050000000000001
20
1.275
10
-0.9050000000000001
20
1.25
0
LINE
5
26C
330
22B
100
AcDbEntity
100
AcDbLine
8
CELIK_KIRIS_KOLON
10
-2.098240095460031
20
1.1844022638948504
30
0
11
-2.418240095460031
21
2.5844022638948503
31
0
0
LINE
5
26D
330
22B
100
AcDbEntity
100
AcDbLine
8
CELIK_KIRIS_KOLON
10
-1.9617599045399696
20
1.21559773610515
30
0
11
-2.2817599045399692
21
2.61559773610515
31
0
0
CIRCLE
5
26F
330
22B
100
AcDbEntity
100
AcDbCircle
8
CELIK_KIRIS_KOLON
10
-2.0300000000000002
20
1.2000000000000002
30
0
40
0.17500000000000002
0
CIRCLE
5
270
330
22B
100
AcDbEntity
100
AcDbCircle
8
CELIK_KIRIS_KOLON
10
-2.0300000000000002
20
1.2000000000000002
30
0
40
0.165
0
LWPOLYLINE
5
2AB
330
22B
100
AcDbEntity
100
AcDbPolyline
8
CELIK_KIRIS_KOLON
6
ByLayer
62
256
370
-1
90
4
70
1
10
-1.6700000000000002
20
1.1500000000000001
10
-1.6700000000000002
20
1.1700000000000002
10
-1.1300000000000001
20
1.1700000000000002
10
-1.1300000000000001
20
1.1500000000000001
0
CIRCLE
5
330
330
22B
100
AcDbEntity
100
AcDbCircle
8
CELIK_KIRIS_KOLON
10
-1.98
20
0.45
30
0
40
0.07
0
CIRCLE
5
331
330
22B
100
AcDbEntity
100
AcDbCircle
8
CELIK_KIRIS_KOLON
10
-1.98
20
0.45
30
0
40
0.062
0
LWPOLYLINE
5
272
330
22B
100
AcDbEntity
100
AcDbPolyline
8
MONTAJ_BORULARI
6
ByLayer
62
256
370
-1
90
4
70
1
10
-2.2910000000000004
20
1.9200000000000002
10
-2.2910000000000004
20
2.02
10
-2.1210000000000004
20
2.02
10
-2.1210000000000004
20
1.9200000000000002
0
CIRCLE
5
273
330
22B
100
AcDbEntity
100
AcDbCircle
8
MONTAJ_BORULARI
10
-2.2060000000000004
20
1.9700000000000002
30
0
40
0.075
0
LWPOLYLINE
5
274
330
22B
100
AcDbEntity
100
AcDbPolyline
8
MONTAJ_BORULARI
6
ByLayer
62
256
370
-1
90
4
70
1
10
-2.3160000000000003
20
1.985
10
-2.3160000000000003
20
2.005
10
-2.2910000000000004
20
2.005
10
-2.2910000000000004
20
1.985
0
LWPOLYLINE
5
275
330
22B
100
AcDbEntity
100
AcDbPolyline
8
MONTAJ_BORULARI
6
ByLayer
62
256
370
-1
90
4
70
1
10
-2.3160000000000003
20
1.9350000000000003
10
-2.3160000000000003
20
1.9550000000000003
10
-2.2910000000000004
20
1.9550000000000003
10
-2.2910000000000004
20
1.9350000000000003
0
LWPOLYLINE
5
276
330
22B
100
AcDbEntity
100
AcDbPolyline
8
MONTAJ_BORULARI
6
ByLayer
62
256
370
-1
90
4
70
1
10
-2.1310000000000002
20
1.9400000000000002
10
-2.1310000000000002
20
2
10
-1.9310000000000003
20
2
10
-1.9310000000000003
20
1.9400000000000002
0
LINE
5
277
330
22B
100
AcDbEntity
100
AcDbLine
8
MONTAJ_BORULARI
10
-2.1310000000000002
20
2
30
0
11
-2.051
21
2
31
0
0
LINE
5
278
330
22B
100
AcDbEntity
100
AcDbLine
8
MONTAJ_BORULARI
10
-2.1310000000000002
20
2
30
0
11
-2.1310000000000002
21
2.06
31
0
0
LINE
5
279
330
22B
100
AcDbEntity
100
AcDbLine
8
MONTAJ_BORULARI
10
-2.1310000000000002
20
2.06
30
0
11
-2.051
21
2
31
0
0
LINE
5
27A
330
22B
100
AcDbEntity
100
AcDbLine
8
MONTAJ_BORULARI
10
-2.1310000000000002
20
1.9400000000000002
30
0
11
-2.051
21
1.9400000000000002
31
0
0
LINE
5
27B
330
22B
100
AcDbEntity
100
AcDbLine
8
MONTAJ_BORULARI
10
-2.1310000000000002
20
1.9400000000000002
30
0
11
-2.1310000000000002
21
1.8800000000000001
31
0
0
LINE
5
27C
330
22B
100
AcDbEntity
100
AcDbLine
8
MONTAJ_BORULARI
10
-2.1310000000000002
20
1.8800000000000001
30
0
11
-2.051
21
1.9400000000000002
31
0
0
CIRCLE
5
27D
330
22B
100
AcDbEntity
100
AcDbCircle
8
MONTAJ_BORULARI
10
-1.9210000000000003
20
1.9700000000000002
30
0
40
0.03015
0
CIRCLE
5
27E
330
22B
100
AcDbEntity
100
AcDbCircle
8
MONTAJ_BORULARI
10
-1.9210000000000003
20
1.9700000000000002
30
0
40
0.026000000000000002
0
LWPOLYLINE
5
27F
330
22B
100
AcDbEntity
100
AcDbPolyline
8
MONTAJ_BORULARI
6
ByLayer
62
256
370
-1
90
4
70
1
10
-1.9610000000000003
20
1.9250000000000003
10
-1.9610000000000003
20
2.015
10
-1.9510000000000003
20
2.015
10
-1.9510000000000003
20
1.9250000000000003
0
LWPOLYLINE
5
280
330
22B
100
AcDbEntity
100
AcDbPolyline
8
MONTAJ_BORULARI
6
ByLayer
62
256
370
-1
90
4
70
1
10
-1.9710000000000003
20
1.9350000000000003
10
-1.9710000000000003
20
2.0050000000000003
10
-1.9010000000000002
20
2.0050000000000003
10
-1.9010000000000002
20
1.9350000000000003
0
LWPOLYLINE
5
28F
330
22B
100
AcDbEntity
100
AcDbPolyline
8
MONTAJ_BORULARI
6
ByLayer
62
256
370
-1
90
4
70
1
10
-1.8378500000000004
20
1.6950000000000003
10
-1.8378500000000004
20
1.7300000000000002
10
-1.8138500000000004
20
1.7300000000000002
10
-1.8138500000000004
20
1.6950000000000003
0
LWPOLYLINE
5
292
330
22B
100
AcDbEntity
100
AcDbPolyline
8
MONTAJ_BORULARI
6
ByLayer
62
256
370
-1
90
4
70
1
10
-1.7878500000000004
20
1.6950000000000003
10
-1.7878500000000004
20
1.7300000000000002
10
-1.7638500000000004
20
1.7300000000000002
10
-1.7638500000000004
20
1.6950000000000003
0
LWPOLYLINE
5
295
330
22B
100
AcDbEntity
100
AcDbPolyline
8
MONTAJ_BORULARI
6
ByLayer
62
256
370
-1
90
4
70
1
10
-1.7378500000000003
20
1.6950000000000003
10
-1.7378500000000003
20
1.7300000000000002
10
-1.7138500000000003
20
1.7300000000000002
10
-1.7138500000000003
20
1.6950000000000003
0
LWPOLYLINE
5
298
330
22B
100
AcDbEntity
100
AcDbPolyline
8
MONTAJ_BORULARI
6
ByLayer
62
256
370
-1
90
4
70
1
10
-1.6878500000000003
20
1.6950000000000003
10
-1.6878500000000003
20
1.7300000000000002
10
-1.6638500000000003
20
1.7300000000000002
10
-1.6638500000000003
20
1.6950000000000003
0
LWPOLYLINE
5
29B
330
22B
100
AcDbEntity
100
AcDbPolyline
8
MONTAJ_BORULARI
6
ByLayer
62
256
370
-1
90
4
70
1
10
-1.6378500000000003
20
1.6950000000000003
10
-1.6378500000000003
20
1.7300000000000002
10
-1.6138500000000002
20
1.7300000000000002
10
-1.6138500000000002
20
1.6950000000000003
0
LWPOLYLINE
5
29E
330
22B
100
AcDbEntity
100
AcDbPolyline
8
MONTAJ_BORULARI
6
ByLayer
62
256
370
-1
90
4
70
1
10
-1.5878500000000002
20
1.6950000000000003
10
-1.5878500000000002
20
1.7300000000000002
10
-1.5638500000000002
20
1.7300000000000002
10
-1.5638500000000002
20
1.6950000000000003
0
LWPOLYLINE
5
2D0
330
22B
100
AcDbEntity
100
AcDbPolyline
8
MONTAJ_BORULARI
6
ByLayer
62
256
370
-1
90
4
70
1
10
0.66985
20
1.4500000000000002
10
0.66985
20
4.35
10
0.73015
20
4.35
10
0.73015
20
1.4500000000000002
0
LWPOLYLINE
5
2D1
330
22B
100
AcDbEntity
100
AcDbPolyline
8
MONTAJ_BORULARI
6
ByLayer
62
256
370
-1
90
4
70
1
10
0.6649999999999999
20
1.4400000000000002
10
0.6649999999999999
20
1.455
10
0.7349999999999999
20
1.455
10
0.7349999999999999
20
1.4400000000000002
0
LWPOLYLINE
5
2D2
330
22B
100
AcDbEntity
100
AcDbPolyline
8
MONTAJ_BORULARI
6
ByLayer
62
256
370
-1
90
4
70
1
10
0.6649999999999999
20
4.345
10
0.6649999999999999
20
4.359999999999999
10
0.7349999999999999
20
4.359999999999999
10
0.7349999999999999
20
4.345
0
LWPOLYLINE
5
2D5
330
22B
100
AcDbEntity
100
AcDbPolyline
8
MONTAJ_BORULARI
6
ByLayer
62
256
370
-1
90
4
70
1
10
1.7698500000000001
20
1.4500000000000002
10
1.7698500000000001
20
4.35
10
1.8301500000000002
20
4.35
10
1.8301500000000002
20
1.4500000000000002
0
LWPOLYLINE
5
2D6
330
22B
100
AcDbEntity
100
AcDbPolyline
8
MONTAJ_BORULARI
6
ByLayer
62
256
370
-1
90
4
70
1
10
1.7650000000000001
20
1.4400000000000002
10
1.7650000000000001
20
1.455
10
1.8350000000000002
20
1.455
10
1.8350000000000002
20
1.4400000000000002
0
LWPOLYLINE
5
2D7
330
22B
100
AcDbEntity
100
AcDbPolyline
8
MONTAJ_BORULARI
6
ByLayer
62
256
370
-1
90
4
70
1
10
1.7650000000000001
20
4.345
10
1.7650000000000001
20
4.359999999999999
10
1.8350000000000002
20
4.359999999999999
10
1.8350000000000002
20
4.345
0
LWPOLYLINE
5
2DA
330
22B
100
AcDbEntity
100
AcDbPolyline
8
MONTAJ_BORULARI
6
ByLayer
62
256
370
-1
90
4
70
1
10
0.49999999999999994
20
2.0050000000000003
10
0.49999999999999994
20
2.055
10
0.7
20
2.055
10
0.7
20
2.0050000000000003
0
LWPOLYLINE
5
2DC
330
22B
100
AcDbEntity
100
AcDbPolyline
8
MONTAJ_BORULARI
6
ByLayer
62
256
370
-1
90
4
70
1
10
1.83015
20
2.0050000000000003
10
1.83015
20
2.055
10
2.03015
20
2.055
10
2.03015
20
2.0050000000000003
0
LWPOLYLINE
5
2DE
330
22B
100
AcDbEntity
100
AcDbPolyline
8
MONTAJ_BORULARI
6
ByLayer
62
256
370
-1
90
4
70
1
10
0.49999999999999994
20
2.8750000000000004
10
0.49999999999999994
20
2.9250000000000003
10
0.7
20
2.9250000000000003
10
0.7
20
2.8750000000000004
0
LWPOLYLINE
5
2E0
330
22B
100
AcDbEntity
100
AcDbPolyline
8
MONTAJ_BORULARI
6
ByLayer
62
256
370
-1
90
4
70
1
10
1.83015
20
2.8750000000000004
10
1.83015
20
2.9250000000000003
10
2.03015
20
2.9250000000000003
10
2.03015
20
2.8750000000000004
0
LWPOLYLINE
5
2E2
330
22B
100
AcDbEntity
100
AcDbPolyline
8
MONTAJ_BORULARI
6
ByLayer
62
256
370
-1
90
4
70
1
10
0.49999999999999994
20
3.745
10
0.49999999999999994
20
3.795
10
0.7
20
3.795
10
0.7
20
3.745
0
LWPOLYLINE
5
2E4
330
22B
100
AcDbEntity
100
AcDbPolyline
8
MONTAJ_BORULARI
6
ByLayer
62
256
370
-1
90
4
70
1
10
1.83015
20
3.745
10
1.83015
20
3.795
10
2.03015
20
3.795
10
2.03015
20
3.745
0
LWPOLYLINE
5
333
330
22B
100
AcDbEntity
100
AcDbPolyline
8
MONTAJ_BORULARI
6
ByLayer
62
256
370
-1
90
4
70
1
10
-2.075
20
0.365
10
-2.075
20
0.535
10
-1.8850000000000002
20
0.535
10
-1.8850000000000002
20
0.365
0
CIRCLE
5
334
330
22B
100
AcDbEntity
100
AcDbCircle
8
MONTAJ_BORULARI
10
-1.98
20
0.45
30
0
40
0.078
0
CIRCLE
5
335
330
22B
100
AcDbEntity
100
AcDbCircle
8
MONTAJ_BORULARI
10
-2.0500000000000003
20
0.505
30
0
40
0.008
0
CIRCLE
5
336
330
22B
100
AcDbEntity
100
AcDbCircle
8
MONTAJ_BORULARI
10
-2.0500000000000003
20
0.395
30
0
40
0.008
0
CIRCLE
5
337
330
22B
100
AcDbEntity
100
AcDbCircle
8
MONTAJ_BORULARI
10
-1.9100000000000001
20
0.505
30
0
40
0.008
0
CIRCLE
5
338
330
22B
100
AcDbEntity
100
AcDbCircle
8
MONTAJ_BORULARI
10
-1.9100000000000001
20
0.395
30
0
40
0.008
0
LWPOLYLINE
5
339
330
22B
100
AcDbEntity
100
AcDbPolyline
8
MONTAJ_BORULARI
6
ByLayer
62
256
370
-1
90
4
70
1
10
-1.8900000000000001
20
0.42000000000000004
10
-1.8900000000000001
20
0.48000000000000004
10
-1.6900000000000002
20
0.48000000000000004
10
-1.6900000000000002
20
0.42000000000000004
0
LWPOLYLINE
5
33A
330
22B
100
AcDbEntity
100
AcDbPolyline
8
MONTAJ_BORULARI
6
ByLayer
62
256
370
-1
90
4
70
1
10
-1.8860000000000001
20
0.424
10
-1.8860000000000001
20
0.476
10
-1.6940000000000002
20
0.476
10
-1.6940000000000002
20
0.424
0
LINE
5
33C
330
22B
100
AcDbEntity
100
AcDbLine
8
MONTAJ_BORULARI
10
-1.8900000000000001
20
0.48
30
0
11
-1.81
21
0.48
31
0
0
LINE
5
33D
330
22B
100
AcDbEntity
100
AcDbLine
8
MONTAJ_BORULARI
10
-1.8900000000000001
20
0.48
30
0
11
-1.8900000000000001
21
0.53
31
0
0
LINE
5
33E
330
22B
100
AcDbEntity
100
AcDbLine
8
MONTAJ_BORULARI
10
-1.8900000000000001
20
0.53
30
0
11
-1.81
21
0.48
31
0
0
LINE
5
33F
330
22B
100
AcDbEntity
100
AcDbLine
8
MONTAJ_BORULARI
10
-1.8900000000000001
20
0.42000000000000004
30
0
11
-1.81
21
0.42000000000000004
31
0
0
LINE
5
340
330
22B
100
AcDbEntity
100
AcDbLine
8
MONTAJ_BORULARI
10
-1.8900000000000001
20
0.42000000000000004
30
0
11
-1.8900000000000001
21
0.37
31
0
0
LINE
5
341
330
22B
100
AcDbEntity
100
AcDbLine
8
MONTAJ_BORULARI
10
-1.8900000000000001
20
0.37
30
0
11
-1.81
21
0.42000000000000004
31
0
0
CIRCLE
5
342
330
22B
100
AcDbEntity
100
AcDbCircle
8
MONTAJ_BORULARI
10
-1.6550000000000002
20
0.45
30
0
40
0.03015
0
CIRCLE
5
343
330
22B
100
AcDbEntity
100
AcDbCircle
8
MONTAJ_BORULARI
10
-1.6550000000000002
20
0.45
30
0
40
0.026000000000000002
0
LWPOLYLINE
5
344
330
22B
100
AcDbEntity
100
AcDbPolyline
8
MONTAJ_BORULARI
6
ByLayer
62
256
370
-1
90
4
70
1
10
-1.6950000000000003
20
0.405
10
-1.6950000000000003
20
0.495
10
-1.6850000000000003
20
0.495
10
-1.6850000000000003
20
0.405
0
LWPOLYLINE
5
345
330
22B
100
AcDbEntity
100
AcDbPolyline
8
MONTAJ_BORULARI
6
ByLayer
62
256
370
-1
90
4
70
1
10
-1.7030000000000003
20
0.41400000000000003
10
-1.7030000000000003
20
0.48600000000000004
10
-1.6270000000000002
20
0.48600000000000004
10
-1.6270000000000002
20
0.41400000000000003
0
CIRCLE
5
346
330
22B
100
AcDbEntity
100
AcDbCircle
8
MONTAJ_BORULARI
10
-1.6950000000000003
20
0.486
30
0
40
0.006
0
CIRCLE
5
347
330
22B
100
AcDbEntity
100
AcDbCircle
8
MONTAJ_BORULARI
10
-1.6950000000000003
20
0.41400000000000003
30
0
40
0.006
0
CIRCLE
5
357
330
22B
100
AcDbEntity
100
AcDbCircle
8
MONTAJ_BORULARI
10
-0.38
20
0.45
30
0
40
0.03015
0
CIRCLE
5
358
330
22B
100
AcDbEntity
100
AcDbCircle
8
MONTAJ_BORULARI
10
-0.38
20
0.45
30
0
40
0.026000000000000002
0
LWPOLYLINE
5
359
330
22B
100
AcDbEntity
100
AcDbPolyline
8
MONTAJ_BORULARI
6
ByLayer
62
256
370
-1
90
4
70
1
10
-0.425
20
0.39
10
-0.425
20
0.51
10
-0.33499999999999996
20
0.51
10
-0.33499999999999996
20
0.39
0
CIRCLE
5
35A
330
22B
100
AcDbEntity
100
AcDbCircle
8
MONTAJ_BORULARI
10
-0.38
20
0.45
30
0
40
0.034
0
CIRCLE
5
35B
330
22B
100
AcDbEntity
100
AcDbCircle
8
MONTAJ_BORULARI
10
-0.405
20
0.495
30
0
40
0.005
0
CIRCLE
5
35C
330
22B
100
AcDbEntity
100
AcDbCircle
8
MONTAJ_BORULARI
10
-0.405
20
0.405
30
0
40
0.005
0
LWPOLYLINE
5
35E
330
22B
100
AcDbEntity
100
AcDbPolyline
8
MONTAJ_BORULARI
6
ByLayer
62
256
370
-1
90
4
70
1
10
-0.34
20
0.444
10
-0.34
20
0.456
10
-0.30500000000000005
20
0.456
10
-0.30500000000000005
20
0.444
0
CIRCLE
5
35F
330
22B
100
AcDbEntity
100
AcDbCircle
8
MONTAJ_BORULARI
10
-0.305
20
0.45
30
0
40
0.01
0
LINE
5
372
330
22B
100
AcDbEntity
100
AcDbLine
8
MONTAJ_BORULARI
10
-0.38
20
0.48015
30
0
11
-0.35
21
0.63
31
0
0
LINE
5
373
330
22B
100
AcDbEntity
100
AcDbLine
8
MONTAJ_BORULARI
10
-0.35
20
0.63
30
0
11
-0.185
21
0.63
31
0
0
LINE
5
374
330
22B
100
AcDbEntity
100
AcDbLine
8
MONTAJ_BORULARI
10
-0.185
20
0.63
30
0
11
-0.185
21
0.61
31
0
0
LWPOLYLINE
5
37A
330
22B
100
AcDbEntity
100
AcDbPolyline
8
MONTAJ_BORULARI
6
ByLayer
62
256
370
-1
90
4
70
1
10
1.24
20
0.585
10
1.24
20
0.63
10
1.28
20
0.63
10
1.28
20
0.585
0
LWPOLYLINE
5
37B
330
22B
100
AcDbEntity
100
AcDbPolyline
8
MONTAJ_BORULARI
6
ByLayer
62
256
370
-1
90
4
70
1
10
1.245
20
0.5700000000000001
10
1.245
20
0.5850000000000001
10
1.2750000000000001
20
0.5850000000000001
10
1.2750000000000001
20
0.5700000000000001
0
LWPOLYLINE
5
380
330
22B
100
AcDbEntity
100
AcDbPolyline
8
MONTAJ_BORULARI
6
ByLayer
62
256
370
-1
90
4
70
1
10
1.4
20
0.585
10
1.4
20
0.63
10
1.44
20
0.63
10
1.44
20
0.585
0
LWPOLYLINE
5
381
330
22B
100
AcDbEntity
100
AcDbPolyline
8
MONTAJ_BORULARI
6
ByLayer
62
256
370
-1
90
4
70
1
10
1.405
20
0.5700000000000001
10
1.405
20
0.5850000000000001
10
1.435
20
0.5850000000000001
10
1.435
20
0.5700000000000001
0
LWPOLYLINE
5
386
330
22B
100
AcDbEntity
100
AcDbPolyline
8
MONTAJ_BORULARI
6
ByLayer
62
256
370
-1
90
4
70
1
10
1.56
20
0.585
10
1.56
20
0.63
10
1.6
20
0.63
10
1.6
20
0.585
0
LWPOLYLINE
5
387
330
22B
100
AcDbEntity
100
AcDbPolyline
8
MONTAJ_BORULARI
6
ByLayer
62
256
370
-1
90
4
70
1
10
1.5650000000000002
20
0.5700000000000001
10
1.5650000000000002
20
0.5850000000000001
10
1.5950000000000002
20
0.5850000000000001
10
1.5950000000000002
20
0.5700000000000001
0
LWPOLYLINE
5
38C
330
22B
100
AcDbEntity
100
AcDbPolyline
8
MONTAJ_BORULARI
6
ByLayer
62
256
370
-1
90
4
70
1
10
1.72
20
0.585
10
1.72
20
0.63
10
1.76
20
0.63
10
1.76
20
0.585
0
LWPOLYLINE
5
38D
330
22B
100
AcDbEntity
100
AcDbPolyline
8
MONTAJ_BORULARI
6
ByLayer
62
256
370
-1
90
4
70
1
10
1.725
20
0.5700000000000001
10
1.725
20
0.5850000000000001
10
1.7550000000000001
20
0.5850000000000001
10
1.7550000000000001
20
0.5700000000000001
0
LWPOLYLINE
5
392
330
22B
100
AcDbEntity
100
AcDbPolyline
8
MONTAJ_BORULARI
6
ByLayer
62
256
370
-1
90
4
70
1
10
1.7950000000000002
20
0.6
10
1.7950000000000002
20
0.63
10
1.8450000000000002
20
0.63
10
1.8450000000000002
20
0.6
0
CIRCLE
5
393
330
22B
100
AcDbEntity
100
AcDbCircle
8
MONTAJ_BORULARI
10
1.82
20
0.615
30
0
40
0.005
0
LINE
5
290
330
22B
100
AcDbEntity
100
AcDbLine
8
KABLO_TAVALARI
10
-1.8258500000000004
20
1.6950000000000003
30
0
11
-1.8258500000000004
21
1.6100000000000003
31
0
0
LINE
5
291
330
22B
100
AcDbEntity
100
AcDbLine
8
KABLO_TAVALARI
10
-1.8258500000000004
20
1.6100000000000003
30
0
11
-1.8858500000000005
21
1.5300000000000002
31
0
0
LINE
5
293
330
22B
100
AcDbEntity
100
AcDbLine
8
KABLO_TAVALARI
10
-1.7758500000000004
20
1.6950000000000003
30
0
11
-1.7758500000000004
21
1.6100000000000003
31
0
0
LINE
5
294
330
22B
100
AcDbEntity
100
AcDbLine
8
KABLO_TAVALARI
10
-1.7758500000000004
20
1.6100000000000003
30
0
11
-1.8358500000000004
21
1.5300000000000002
31
0
0
LINE
5
296
330
22B
100
AcDbEntity
100
AcDbLine
8
KABLO_TAVALARI
10
-1.7258500000000003
20
1.6950000000000003
30
0
11
-1.7258500000000003
21
1.6100000000000003
31
0
0
LINE
5
297
330
22B
100
AcDbEntity
100
AcDbLine
8
KABLO_TAVALARI
10
-1.7258500000000003
20
1.6100000000000003
30
0
11
-1.7858500000000004
21
1.5300000000000002
31
0
0
LINE
5
299
330
22B
100
AcDbEntity
100
AcDbLine
8
KABLO_TAVALARI
10
-1.6758500000000003
20
1.6950000000000003
30
0
11
-1.6758500000000003
21
1.6100000000000003
31
0
0
LINE
5
29A
330
22B
100
AcDbEntity
100
AcDbLine
8
KABLO_TAVALARI
10
-1.6758500000000003
20
1.6100000000000003
30
0
11
-1.7358500000000003
21
1.5300000000000002
31
0
0
LINE
5
29C
330
22B
100
AcDbEntity
100
AcDbLine
8
KABLO_TAVALARI
10
-1.6258500000000002
20
1.6950000000000003
30
0
11
-1.6258500000000002
21
1.6100000000000003
31
0
0
LINE
5
29D
330
22B
100
AcDbEntity
100
AcDbLine
8
KABLO_TAVALARI
10
-1.6258500000000002
20
1.6100000000000003
30
0
11
-1.6858500000000003
21
1.5300000000000002
31
0
0
LINE
5
29F
330
22B
100
AcDbEntity
100
AcDbLine
8
KABLO_TAVALARI
10
-1.5758500000000002
20
1.6950000000000003
30
0
11
-1.5758500000000002
21
1.6100000000000003
31
0
0
LINE
5
2A0
330
22B
100
AcDbEntity
100
AcDbLine
8
KABLO_TAVALARI
10
-1.5758500000000002
20
1.6100000000000003
30
0
11
-1.6358500000000002
21
1.5300000000000002
31
0
0
LWPOLYLINE
5
2AA
330
22B
100
AcDbEntity
100
AcDbPolyline
8
KABLO_TAVALARI
6
ByLayer
62
256
370
-1
90
4
70
1
10
-1.6500000000000001
20
1.1700000000000002
10
-1.6500000000000001
20
1.2700000000000002
10
-1.1500000000000001
20
1.2700000000000002
10
-1.1500000000000001
20
1.1700000000000002
0
LWPOLYLINE
5
37C
330
22B
100
AcDbEntity
100
AcDbPolyline
8
KABLO_TAVALARI
6
ByLayer
62
256
370
-1
90
4
70
1
10
1.242
20
0.49
10
1.242
20
0.57
10
1.278
20
0.57
10
1.278
20
0.49
0
LINE
5
37E
330
22B
100
AcDbEntity
100
AcDbLine
8
KABLO_TAVALARI
10
1.26
20
0.49
30
0
11
1.26
21
0.31
31
0
0
LWPOLYLINE
5
382
330
22B
100
AcDbEntity
100
AcDbPolyline
8
KABLO_TAVALARI
6
ByLayer
62
256
370
-1
90
4
70
1
10
1.402
20
0.49
10
1.402
20
0.57
10
1.438
20
0.57
10
1.438
20
0.49
0
LINE
5
384
330
22B
100
AcDbEntity
100
AcDbLine
8
KABLO_TAVALARI
10
1.42
20
0.49
30
0
11
1.42
21
0.31
31
0
0
LWPOLYLINE
5
388
330
22B
100
AcDbEntity
100
AcDbPolyline
8
KABLO_TAVALARI
6
ByLayer
62
256
370
-1
90
4
70
1
10
1.562
20
0.49
10
1.562
20
0.57
10
1.598
20
0.57
10
1.598
20
0.49
0
LINE
5
38A
330
22B
100
AcDbEntity
100
AcDbLine
8
KABLO_TAVALARI
10
1.58
20
0.49
30
0
11
1.58
21
0.31
31
0
0
LWPOLYLINE
5
38E
330
22B
100
AcDbEntity
100
AcDbPolyline
8
KABLO_TAVALARI
6
ByLayer
62
256
370
-1
90
4
70
1
10
1.722
20
0.49
10
1.722
20
0.57
10
1.758
20
0.57
10
1.758
20
0.49
0
LINE
5
390
330
22B
100
AcDbEntity
100
AcDbLine
8
KABLO_TAVALARI
10
1.74
20
0.49
30
0
11
1.74
21
0.31
31
0
0
LINE
5
26E
330
22B
100
AcDbEntity
100
AcDbLine
8
YURUYUS_KORIDORU
10
-2.0300000000000002
20
1.2000000000000002
30
0
11
-2.35
21
2.6
31
0
0
LINE
5
2A4
330
22B
100
AcDbEntity
100
AcDbLine
8
YURUYUS_KORIDORU
10
-1.81
20
1.385
30
0
11
-1.81
21
3.385
31
0
0
LINE
5
2A5
330
22B
100
AcDbEntity
100
AcDbLine
8
YURUYUS_KORIDORU
10
-0.8900000000000001
20
1.385
30
0
11
-0.8900000000000001
21
3.385
31
0
0
LINE
5
2A6
330
22B
100
AcDbEntity
100
AcDbLine
8
YURUYUS_KORIDORU
10
-1.81
20
3.335
30
0
11
-0.8900000000000001
21
3.335
31
0
0
TEXT
5
2A7
330
22B
100
AcDbEntity
100
AcDbText
8
YURUYUS_KORIDORU
10
-1.35
20
2.385
30
0
40
0.022
1
NET SERBEST GECIS KORIDORU
50
0
7
STANDARD
72
1
11
-1.35
21
2.385
31
0
100
AcDbText
73
0
0
TEXT
5
2A8
330
22B
100
AcDbEntity
100
AcDbText
8
YURUYUS_KORIDORU
10
-1.35
20
2.335
30
0
40
0.016
1
(CLEARANCE >= 850 MM)
50
0
7
STANDARD
72
1
11
-1.35
21
2.335
31
0
100
AcDbText
73
0
0
TEXT
5
2A9
330
22B
100
AcDbEntity
100
AcDbText
8
YURUYUS_KORIDORU
10
-1.35
20
2.285
30
0
40
0.013000000000000001
1
PERSONEL GECISINE TAM UYGUN
50
0
7
STANDARD
72
1
11
-1.35
21
2.285
31
0
100
AcDbText
73
0
0
LINE
5
394
330
22B
100
AcDbEntity
100
AcDbLine
8
YURUYUS_KORIDORU
10
1.82
20
0.6
30
0
11
1.82
21
0.37
31
0
0
LINE
5
395
330
22B
100
AcDbEntity
100
AcDbLine
8
YURUYUS_KORIDORU
10
1.82
20
0.37
30
0
11
1.72
21
0.31
31
0
0
LINE
5
2AD
330
22B
100
AcDbEntity
100
AcDbLine
8
OLCULER
10
-1.85
20
1.1900000000000002
30
0
11
-1.85
21
1.07
31
0
0
LINE
5
2AE
330
22B
100
AcDbEntity
100
AcDbLine
8
OLCULER
10
-0.8500000000000001
20
1.1900000000000002
30
0
11
-0.8500000000000001
21
1.07
31
0
0
LINE
5
2AF
330
22B
100
AcDbEntity
100
AcDbLine
8
OLCULER
10
-1.85
20
1.11
30
0
11
-0.8500000000000001
21
1.11
31
0
0
LINE
5
2B0
330
22B
100
AcDbEntity
100
AcDbLine
8
OLCULER
10
-1.8780000000000001
20
1.082
30
0
11
-1.822
21
1.1380000000000001
31
0
0
LINE
5
2B1
330
22B
100
AcDbEntity
100
AcDbLine
8
OLCULER
10
-0.8780000000000001
20
1.082
30
0
11
-0.8220000000000001
21
1.1380000000000001
31
0
0
TEXT
5
2B2
330
22B
100
AcDbEntity
100
AcDbText
8
OLCULER
10
-1.35
20
1.026
30
0
40
0.06
1
1000 mm (KEDI YOLU NET GENISLIGI)
50
0
7
STANDARD
72
1
11
-1.35
21
1.026
31
0
100
AcDbText
73
2
0
LINE
5
2B3
330
22B
100
AcDbEntity
100
AcDbLine
8
OLCULER
10
-1.85
20
1.385
30
0
11
-1.9900000000000002
21
1.385
31
0
0
LINE
5
2B4
330
22B
100
AcDbEntity
100
AcDbLine
8
OLCULER
10
-1.85
20
2.4850000000000003
30
0
11
-1.9900000000000002
21
2.4850000000000003
31
0
0
LINE
5
2B5
330
22B
100
AcDbEntity
100
AcDbLine
8
OLCULER
10
-1.9500000000000002
20
1.385
30
0
11
-1.9500000000000002
21
2.4850000000000003
31
0
0
LINE
5
2B6
330
22B
100
AcDbEntity
100
AcDbLine
8
OLCULER
10
-1.9780000000000002
20
1.357
30
0
11
-1.9220000000000002
21
1.413
31
0
0
LINE
5
2B7
330
22B
100
AcDbEntity
100
AcDbLine
8
OLCULER
10
-1.9780000000000002
20
2.4570000000000003
30
0
11
-1.9220000000000002
21
2.5130000000000003
31
0
0
TEXT
5
2B8
330
22B
100
AcDbEntity
100
AcDbText
8
OLCULER
10
-1.9920000000000002
20
1.935
30
0
40
0.06
1
1100 mm (KORKULUK YUKSEKLIGI)
50
90
7
STANDARD
72
1
11
-1.9920000000000002
21
1.935
31
0
100
AcDbText
73
2
0
LINE
5
2B9
330
22B
100
AcDbEntity
100
AcDbLine
8
OLCULER
10
-2.2060000000000004
20
2.0900000000000003
30
0
11
-2.2060000000000004
21
2.2100000000000004
31
0
0
LINE
5
2BA
330
22B
100
AcDbEntity
100
AcDbLine
8
OLCULER
10
-1.9210000000000003
20
2.0900000000000003
30
0
11
-1.9210000000000003
21
2.2100000000000004
31
0
0
LINE
5
2BB
330
22B
100
AcDbEntity
100
AcDbLine
8
OLCULER
10
-2.2060000000000004
20
2.1700000000000004
30
0
11
-1.9210000000000003
21
2.1700000000000004
31
0
0
LINE
5
2BC
330
22B
100
AcDbEntity
100
AcDbLine
8
OLCULER
10
-2.2340000000000004
20
2.1420000000000003
30
0
11
-2.1780000000000004
21
2.1980000000000004
31
0
0
LINE
5
2BD
330
22B
100
AcDbEntity
100
AcDbLine
8
OLCULER
10
-1.9490000000000003
20
2.1420000000000003
30
0
11
-1.8930000000000002
21
2.1980000000000004
31
0
0
TEXT
5
2BE
330
22B
100
AcDbEntity
100
AcDbText
8
OLCULER
10
-2.0635000000000003
20
2.1940000000000004
30
0
40
0.06
1
200 mm (NET OFSET)
50
0
7
STANDARD
72
1
11
-2.0635000000000003
21
2.1940000000000004
31
0
100
AcDbText
73
2
0
LINE
5
2BF
330
22B
100
AcDbEntity
100
AcDbLine
8
OLCULER
10
-1.8758500000000005
20
1.6500000000000001
30
0
11
-1.8758500000000005
21
1.55
31
0
0
LINE
5
2C0
330
22B
100
AcDbEntity
100
AcDbLine
8
OLCULER
10
-1.5198500000000004
20
1.6500000000000001
30
0
11
-1.5198500000000004
21
1.55
31
0
0
LINE
5
2C1
330
22B
100
AcDbEntity
100
AcDbLine
8
OLCULER
10
-1.8758500000000005
20
1.59
30
0
11
-1.5198500000000004
21
1.59
31
0
0
LINE
5
2C2
330
22B
100
AcDbEntity
100
AcDbLine
8
OLCULER
10
-1.9038500000000005
20
1.562
30
0
11
-1.8478500000000004
21
1.618
31
0
0
LINE
5
2C3
330
22B
100
AcDbEntity
100
AcDbLine
8
OLCULER
10
-1.5478500000000004
20
1.562
30
0
11
-1.4918500000000003
21
1.618
31
0
0
TEXT
5
2C4
330
22B
100
AcDbEntity
100
AcDbText
8
OLCULER
10
-1.6978500000000003
20
1.506
30
0
40
0.06
1
356 mm (RRU ENI)
50
0
7
STANDARD
72
1
11
-1.6978500000000003
21
1.506
31
0
100
AcDbText
73
2
0
LINE
5
2C5
330
22B
100
AcDbEntity
100
AcDbLine
8
OLCULER
10
-1.9511500000000002
20
1.87
30
0
11
-1.9511500000000002
21
1.79
31
0
0
LINE
5
2C6
330
22B
100
AcDbEntity
100
AcDbLine
8
OLCULER
10
-1.8908500000000004
20
1.87
30
0
11
-1.8908500000000004
21
1.79
31
0
0
LINE
5
2C7
330
22B
100
AcDbEntity
100
AcDbLine
8
OLCULER
10
-1.9511500000000002
20
1.83
30
0
11
-1.8908500000000004
21
1.83
31
0
0
LINE
5
2C8
330
22B
100
AcDbEntity
100
AcDbLine
8
OLCULER
10
-1.9791500000000002
20
1.802
30
0
11
-1.9231500000000001
21
1.858
31
0
0
LINE
5
2C9
330
22B
100
AcDbEntity
100
AcDbLine
8
OLCULER
10
-1.9188500000000004
20
1.802
30
0
11
-1.8628500000000003
21
1.858
31
0
0
TEXT
5
2CA
330
22B
100
AcDbEntity
100
AcDbText
8
OLCULER
10
-1.9210000000000003
20
1.746
30
0
40
0.06
1
O60.3mm (2" BORU)
50
0
7
STANDARD
72
1
11
-1.9210000000000003
21
1.746
31
0
100
AcDbText
73
2
0
LINE
5
316
330
22B
100
AcDbEntity
100
AcDbLine
8
OLCULER
10
0.7
20
4.43
30
0
11
0.7
21
4.529999999999999
31
0
0
LINE
5
317
330
22B
100
AcDbEntity
100
AcDbLine
8
OLCULER
10
1.8
20
4.43
30
0
11
1.8
21
4.529999999999999
31
0
0
LINE
5
318
330
22B
100
AcDbEntity
100
AcDbLine
8
OLCULER
10
0.7
20
4.489999999999999
30
0
11
1.8
21
4.489999999999999
31
0
0
LINE
5
319
330
22B
100
AcDbEntity
100
AcDbLine
8
OLCULER
10
0.6719999999999999
20
4.462
30
0
11
0.728
21
4.517999999999999
31
0
0
LINE
5
31A
330
22B
100
AcDbEntity
100
AcDbLine
8
OLCULER
10
1.772
20
4.462
30
0
11
1.828
21
4.517999999999999
31
0
0
TEXT
5
31B
330
22B
100
AcDbEntity
100
AcDbText
8
OLCULER
10
1.25
20
4.513999999999999
30
0
40
0.06
1
1640 mm (MONTAJ BORULARI AKSI)
50
0
7
STANDARD
72
1
11
1.25
21
4.513999999999999
31
0
100
AcDbText
73
2
0
LINE
5
31C
330
22B
100
AcDbEntity
100
AcDbLine
8
OLCULER
10
0.7
20
1.4500000000000002
30
0
11
0.5199999999999999
21
1.4500000000000002
31
0
0
LINE
5
31D
330
22B
100
AcDbEntity
100
AcDbLine
8
OLCULER
10
0.7
20
4.35
30
0
11
0.5199999999999999
21
4.35
31
0
0
LINE
5
31E
330
22B
100
AcDbEntity
100
AcDbLine
8
OLCULER
10
0.5599999999999999
20
1.4500000000000002
30
0
11
0.5599999999999999
21
4.35
31
0
0
LINE
5
31F
330
22B
100
AcDbEntity
100
AcDbLine
8
OLCULER
10
0.5319999999999999
20
1.4220000000000002
30
0
11
0.588
21
1.4780000000000002
31
0
0
LINE
5
320
330
22B
100
AcDbEntity
100
AcDbLine
8
OLCULER
10
0.5319999999999999
20
4.322
30
0
11
0.588
21
4.377999999999999
31
0
0
TEXT
5
321
330
22B
100
AcDbEntity
100
AcDbText
8
OLCULER
10
0.5179999999999999
20
2.9
30
0
40
0.06
1
2900 mm (BORU TAM BOYU)
50
90
7
STANDARD
72
1
11
0.5179999999999999
21
2.9
31
0
100
AcDbText
73
2
0
LINE
5
322
330
22B
100
AcDbEntity
100
AcDbLine
8
OLCULER
10
1.25
20
1.7300000000000002
30
0
11
1.21
21
1.7300000000000002
31
0
0
LINE
5
323
330
22B
100
AcDbEntity
100
AcDbLine
8
OLCULER
10
1.25
20
2.6000000000000005
30
0
11
1.21
21
2.6000000000000005
31
0
0
LINE
5
324
330
22B
100
AcDbEntity
100
AcDbLine
8
OLCULER
10
1.25
20
1.7300000000000002
30
0
11
1.25
21
2.6000000000000005
31
0
0
LINE
5
325
330
22B
100
AcDbEntity
100
AcDbLine
8
OLCULER
10
1.222
20
1.7020000000000002
30
0
11
1.278
21
1.7580000000000002
31
0
0
LINE
5
326
330
22B
100
AcDbEntity
100
AcDbLine
8
OLCULER
10
1.222
20
2.5720000000000005
30
0
11
1.278
21
2.6280000000000006
31
0
0
TEXT
5
327
330
22B
100
AcDbEntity
100
AcDbText
8
OLCULER
10
1.208
20
2.1650000000000005
30
0
40
0.06
1
870 mm (KATMAN KOT FARKI)
50
90
7
STANDARD
72
1
11
1.208
21
2.1650000000000005
31
0
100
AcDbText
73
2
0
LINE
5
328
330
22B
100
AcDbEntity
100
AcDbLine
8
OLCULER
10
1.25
20
2.6000000000000005
30
0
11
1.21
21
2.6000000000000005
31
0
0
LINE
5
329
330
22B
100
AcDbEntity
100
AcDbLine
8
OLCULER
10
1.25
20
3.47
30
0
11
1.21
21
3.47
31
0
0
LINE
5
32A
330
22B
100
AcDbEntity
100
AcDbLine
8
OLCULER
10
1.25
20
2.6000000000000005
30
0
11
1.25
21
3.47
31
0
0
LINE
5
32B
330
22B
100
AcDbEntity
100
AcDbLine
8
OLCULER
10
1.222
20
2.5720000000000005
30
0
11
1.278
21
2.6280000000000006
31
0
0
LINE
5
32C
330
22B
100
AcDbEntity
100
AcDbLine
8
OLCULER
10
1.222
20
3.442
30
0
11
1.278
21
3.498
31
0
0
TEXT
5
32D
330
22B
100
AcDbEntity
100
AcDbText
8
OLCULER
10
1.208
20
3.035
30
0
40
0.06
1
870 mm (KATMAN KOT FARKI)
50
90
7
STANDARD
72
1
11
1.208
21
3.035
31
0
100
AcDbText
73
2
0
LINE
5
349
330
22B
100
AcDbEntity
100
AcDbLine
8
OLCULER
10
-1.8900000000000001
20
0.55
30
0
11
-1.8900000000000001
21
0.6400000000000001
31
0
0
LINE
5
34A
330
22B
100
AcDbEntity
100
AcDbLine
8
OLCULER
10
-1.6900000000000002
20
0.55
30
0
11
-1.6900000000000002
21
0.6400000000000001
31
0
0
LINE
5
34B
330
22B
100
AcDbEntity
100
AcDbLine
8
OLCULER
10
-1.8900000000000001
20
0.6000000000000001
30
0
11
-1.6900000000000002
21
0.6000000000000001
31
0
0
LINE
5
34C
330
22B
100
AcDbEntity
100
AcDbLine
8
OLCULER
10
-1.9180000000000001
20
0.5720000000000001
30
0
11
-1.862
21
0.6280000000000001
31
0
0
LINE
5
34D
330
22B
100
AcDbEntity
100
AcDbLine
8
OLCULER
10
-1.7180000000000002
20
0.5720000000000001
30
0
11
-1.6620000000000001
21
0.6280000000000001
31
0
0
TEXT
5
34E
330
22B
100
AcDbEntity
100
AcDbText
8
OLCULER
10
-1.79
20
0.6240000000000001
30
0
40
0.06
1
200 mm (NET OFSET BOYU)
50
0
7
STANDARD
72
1
11
-1.79
21
0.6240000000000001
31
0
100
AcDbText
73
2
0
LINE
5
34F
330
22B
100
AcDbEntity
100
AcDbLine
8
OLCULER
10
-2.075
20
0.31
30
0
11
-2.075
21
0.23
31
0
0
LINE
5
350
330
22B
100
AcDbEntity
100
AcDbLine
8
OLCULER
10
-1.8850000000000002
20
0.31
30
0
11
-1.8850000000000002
21
0.23
31
0
0
LINE
5
351
330
22B
100
AcDbEntity
100
AcDbLine
8
OLCULER
10
-2.075
20
0.27
30
0
11
-1.8850000000000002
21
0.27
31
0
0
LINE
5
352
330
22B
100
AcDbEntity
100
AcDbLine
8
OLCULER
10
-2.103
20
0.24200000000000002
30
0
11
-2.047
21
0.29800000000000004
31
0
0
LINE
5
353
330
22B
100
AcDbEntity
100
AcDbLine
8
OLCULER
10
-1.9130000000000003
20
0.24200000000000002
30
0
11
-1.8570000000000002
21
0.29800000000000004
31
0
0
TEXT
5
354
330
22B
100
AcDbEntity
100
AcDbText
8
OLCULER
10
-1.9800000000000002
20
0.18600000000000003
30
0
40
0.06
1
190 mm (KELEPCE GENISLIGI)
50
0
7
STANDARD
72
1
11
-1.9800000000000002
21
0.18600000000000003
31
0
100
AcDbText
73
2
0
LWPOLYLINE
5
244
330
22B
100
AcDbEntity
100
AcDbPolyline
8
METIN_BILGI
6
ByLayer
62
256
370
-1
90
4
70
1
10
-2.5
20
-1
10
-2.5
20
3.2
10
2.5
20
3.2
10
2.5
20
-1
0
LWPOLYLINE
5
245
330
22B
100
AcDbEntity
100
AcDbPolyline
8
METIN_BILGI
6
ByLayer
62
256
370
-1
90
4
70
1
10
-2.485
20
-0.985
10
-2.485
20
3.185
10
2.485
20
3.185
10
2.485
20
-0.985
0
LWPOLYLINE
5
246
330
22B
100
AcDbEntity
100
AcDbPolyline
8
METIN_BILGI
6
ByLayer
62
256
370
-1
90
4
70
1
10
-2.475
20
3.02
10
-2.475
20
3.13
10
2.475
20
3.13
10
2.475
20
3.02
0
TEXT
5
247
330
22B
100
AcDbEntity
100
AcDbText
8
METIN_BILGI
10
0
20
3.09
30
0
40
0.036000000000000004
1
RAMS PARK / SEYRANTEPE STADYUMU 5G & 4.5G TELEKOMUNIKASYON KEDI YOLU SISTEMI
50
0
7
STANDARD
72
1
11
0
21
3.09
31
0
100
AcDbText
73
0
0
TEXT
5
248
330
22B
100
AcDbEntity
100
AcDbText
8
METIN_BILGI
10
0
20
3.055
30
0
40
0.03
1
ALAN 1 VE ALAN 3: ORTA KEDI YOLU 14 ADET RRU MONTAJ VE GECIS ENKESITI (DETAY PAFTASI)
50
0
7
STANDARD
72
1
11
0
21
3.055
31
0
100
AcDbText
73
0
0
TEXT
5
249
330
22B
100
AcDbEntity
100
AcDbText
8
METIN_BILGI
10
0
20
3.0300000000000002
30
0
40
0.018000000000000002
1
20 CM OFSETLI 2" PARALEL MONTAJ BORULARI - 4 TURKCELL + 4 TURK TELEKOM + 6 VODAFONE RRU VE SERBEST GECIS KORIDORU
50
0
7
STANDARD
72
1
11
0
21
3.0300000000000002
31
0
100
AcDbText
73
0
0
LWPOLYLINE
5
24A
330
22B
100
AcDbEntity
100
AcDbPolyline
8
METIN_BILGI
6
ByLayer
62
256
370
-1
90
4
70
1
10
-2.35
20
1.2000000000000002
10
-2.35
20
2.8000000000000003
10
-0.30000000000000027
20
2.8000000000000003
10
-0.30000000000000027
20
1.2000000000000002
0
TEXT
5
24B
330
22B
100
AcDbEntity
100
AcDbText
8
METIN_BILGI
10
-1.35
20
2.7300000000000004
30
0
40
0.026000000000000002
1
GORUNUS 1: KEDI YOLU TIPIK ENKESITI (A-A KESITI - OLCEK 1:15)
50
0
7
STANDARD
72
1
11
-1.35
21
2.7300000000000004
31
0
100
AcDbText
73
0
0
TEXT
5
24C
330
22B
100
AcDbEntity
100
AcDbText
8
METIN_BILGI
10
-1.35
20
2.68
30
0
40
0.016
1
CATI MAKASI EGIMLI DIKMESI, 20 CM OFSET KONSOLU, 2" BORU VE RRU GECIS ACIKLIGI
50
0
7
STANDARD
72
1
11
-1.35
21
2.68
31
0
100
AcDbText
73
0
0
TEXT
5
271
330
22B
100
AcDbEntity
100
AcDbText
8
METIN_BILGI
10
-2.0300000000000002
20
0.9900000000000002
30
0
40
0.014
1
O350mm CATI OMURGA BORUSU
50
0
7
STANDARD
72
1
11
-2.0300000000000002
21
0.9900000000000002
31
0
100
AcDbText
73
0
0
TEXT
5
2A1
330
22B
100
AcDbEntity
100
AcDbText
8
METIN_BILGI
10
-1.6978500000000005
20
2
30
0
40
0.018000000000000002
1
RRU MODULU
50
0
7
STANDARD
72
1
11
-1.6978500000000005
21
2
31
0
100
AcDbText
73
0
0
TEXT
5
2A2
330
22B
100
AcDbEntity
100
AcDbText
8
METIN_BILGI
10
-1.6978500000000005
20
1.9600000000000002
30
0
40
0.014
1
(356 x 480 x 140 mm)
50
0
7
STANDARD
72
1
11
-1.6978500000000005
21
1.9600000000000002
31
0
100
AcDbText
73
0
0
TEXT
5
2A3
330
22B
100
AcDbEntity
100
AcDbText
8
METIN_BILGI
10
-1.6978500000000005
20
1.9300000000000002
30
0
40
0.012
1
KISA KENAR MONTAJI
50
0
7
STANDARD
72
1
11
-1.6978500000000005
21
1.9300000000000002
31
0
100
AcDbText
73
0
0
TEXT
5
2AC
330
22B
100
AcDbEntity
100
AcDbText
8
METIN_BILGI
10
-1.4000000000000001
20
1.2100000000000002
30
0
40
0.015
1
500x100mm KABLO TAVASI (60x 1/2" FEEDER / JUMPER)
50
0
7
STANDARD
72
1
11
-1.4000000000000001
21
1.2100000000000002
31
0
100
AcDbText
73
0
0
LWPOLYLINE
5
2CB
330
22B
100
AcDbEntity
100
AcDbPolyline
8
METIN_BILGI
6
ByLayer
62
256
370
-1
90
4
70
1
10
0.1499999999999999
20
1.2000000000000002
10
0.1499999999999999
20
2.8000000000000003
10
2.4
20
2.8000000000000003
10
2.4
20
1.2000000000000002
0
TEXT
5
2CC
330
22B
100
AcDbEntity
100
AcDbText
8
METIN_BILGI
10
1.25
20
2.7300000000000004
30
0
40
0.026000000000000002
1
GORUNUS 2: 14 ADET RRU MONTAJ BORULARI VE KATMAN ELEVASYONU (OLCEK 1:20)
50
0
7
STANDARD
72
1
11
1.25
21
2.7300000000000004
31
0
100
AcDbText
73
0
0
TEXT
5
2CD
330
22B
100
AcDbEntity
100
AcDbText
8
METIN_BILGI
10
1.25
20
2.68
30
0
40
0.016
1
SOL DIREK (4 TURKCELL + 3 VDF) & SAG DIREK (4 TURK TELEKOM + 3 VDF) - TOPLAM 14 RRU
50
0
7
STANDARD
72
1
11
1.25
21
2.68
31
0
100
AcDbText
73
0
0
TEXT
5
2CF
330
22B
100
AcDbEntity
100
AcDbText
8
METIN_BILGI
10
0.27
20
1.365
30
0
40
0.014
1
KEDI YOLU IZGARA SEVIYESI (+8.60m)
50
0
7
STANDARD
100
AcDbText
0
TEXT
5
2D3
330
22B
100
AcDbEntity
100
AcDbText
8
METIN_BILGI
10
0.7
20
4.385
30
0
40
0.016
1
SOL MONTAJ BORUSU (2" x 2900mm)
50
0
7
STANDARD
72
1
11
0.7
21
4.385
31
0
100
AcDbText
73
0
0
TEXT
5
2D4
330
22B
100
AcDbEntity
100
AcDbText
8
METIN_BILGI
10
0.7
20
4.364999999999999
30
0
40
0.013000000000000001
1
TURKCELL (4) & VODAFONE (3)
50
0
7
STANDARD
72
1
11
0.7
21
4.364999999999999
31
0
100
AcDbText
73
0
0
TEXT
5
2D8
330
22B
100
AcDbEntity
100
AcDbText
8
METIN_BILGI
10
1.8
20
4.385
30
0
40
0.016
1
SAG MONTAJ BORUSU (2" x 2900mm)
50
0
7
STANDARD
72
1
11
1.8
21
4.385
31
0
100
AcDbText
73
0
0
TEXT
5
2D9
330
22B
100
AcDbEntity
100
AcDbText
8
METIN_BILGI
10
1.8
20
4.364999999999999
30
0
40
0.013000000000000001
1
TURK TELEKOM (4) & VODAFONE (3)
50
0
7
STANDARD
72
1
11
1.8
21
4.364999999999999
31
0
100
AcDbText
73
0
0
TEXT
5
2DB
330
22B
100
AcDbEntity
100
AcDbText
8
METIN_BILGI
10
0.49
20
2.0250000000000004
30
0
40
0.011
1
20cm OFSET
50
0
7
STANDARD
72
2
11
0.49
21
2.0250000000000004
31
0
100
AcDbText
73
0
0
TEXT
5
2DD
330
22B
100
AcDbEntity
100
AcDbText
8
METIN_BILGI
10
2.04
20
2.0250000000000004
30
0
40
0.011
1
20cm OFSET
50
0
7
STANDARD
100
AcDbText
0
TEXT
5
2DF
330
22B
100
AcDbEntity
100
AcDbText
8
METIN_BILGI
10
0.49
20
2.8950000000000005
30
0
40
0.011
1
20cm OFSET
50
0
7
STANDARD
72
2
11
0.49
21
2.8950000000000005
31
0
100
AcDbText
73
0
0
TEXT
5
2E1
330
22B
100
AcDbEntity
100
AcDbText
8
METIN_BILGI
10
2.04
20
2.8950000000000005
30
0
40
0.011
1
20cm OFSET
50
0
7
STANDARD
100
AcDbText
0
TEXT
5
2E3
330
22B
100
AcDbEntity
100
AcDbText
8
METIN_BILGI
10
0.49
20
3.765
30
0
40
0.011
1
20cm OFSET
50
0
7
STANDARD
72
2
11
0.49
21
3.765
31
0
100
AcDbText
73
0
0
TEXT
5
2E5
330
22B
100
AcDbEntity
100
AcDbText
8
METIN_BILGI
10
2.04
20
3.765
30
0
40
0.011
1
20cm OFSET
50
0
7
STANDARD
100
AcDbText
0
TEXT
5
2E7
330
22B
100
AcDbEntity
100
AcDbText
8
METIN_BILGI
10
0.5299999999999999
20
1.985
30
0
40
0.011
1
VDF RRU5526t
50
0
7
STANDARD
72
1
11
0.5299999999999999
21
1.985
31
0
100
AcDbText
73
0
0
TEXT
5
2E8
330
22B
100
AcDbEntity
100
AcDbText
8
METIN_BILGI
10
0.5299999999999999
20
1.9550000000000003
30
0
40
0.01
1
#1 (Alt)
50
0
7
STANDARD
72
1
11
0.5299999999999999
21
1.9550000000000003
31
0
100
AcDbText
73
0
0
TEXT
5
2EA
330
22B
100
AcDbEntity
100
AcDbText
8
METIN_BILGI
10
0.7
20
1.985
30
0
40
0.011
1
VDF RRU5526t
50
0
7
STANDARD
72
1
11
0.7
21
1.985
31
0
100
AcDbText
73
0
0
TEXT
5
2EB
330
22B
100
AcDbEntity
100
AcDbText
8
METIN_BILGI
10
0.7
20
1.9550000000000003
30
0
40
0.01
1
#2 (Alt)
50
0
7
STANDARD
72
1
11
0.7
21
1.9550000000000003
31
0
100
AcDbText
73
0
0
TEXT
5
2ED
330
22B
100
AcDbEntity
100
AcDbText
8
METIN_BILGI
10
0.87
20
1.985
30
0
40
0.011
1
VDF RRU5526t
50
0
7
STANDARD
72
1
11
0.87
21
1.985
31
0
100
AcDbText
73
0
0
TEXT
5
2EE
330
22B
100
AcDbEntity
100
AcDbText
8
METIN_BILGI
10
0.87
20
1.9550000000000003
30
0
40
0.01
1
#3 (Alt)
50
0
7
STANDARD
72
1
11
0.87
21
1.9550000000000003
31
0
100
AcDbText
73
0
0
TEXT
5
2EF
330
22B
100
AcDbEntity
100
AcDbText
8
METIN_BILGI
10
0.41999999999999993
20
1.9700000000000002
30
0
40
0.013000000000000001
1
ALT SIRA: 3x VDF
50
0
7
STANDARD
72
2
11
0.41999999999999993
21
1.9700000000000002
31
0
100
AcDbText
73
0
0
TEXT
5
2F1
330
22B
100
AcDbEntity
100
AcDbText
8
METIN_BILGI
10
0.59
20
2.855000000000001
30
0
40
0.011
1
TCELL RRU5502
50
0
7
STANDARD
72
1
11
0.59
21
2.855000000000001
31
0
100
AcDbText
73
0
0
TEXT
5
2F2
330
22B
100
AcDbEntity
100
AcDbText
8
METIN_BILGI
10
0.59
20
2.8250000000000006
30
0
40
0.01
1
#1 (Orta)
50
0
7
STANDARD
72
1
11
0.59
21
2.8250000000000006
31
0
100
AcDbText
73
0
0
TEXT
5
2F4
330
22B
100
AcDbEntity
100
AcDbText
8
METIN_BILGI
10
0.8099999999999999
20
2.855000000000001
30
0
40
0.011
1
TCELL RRU5502
50
0
7
STANDARD
72
1
11
0.8099999999999999
21
2.855000000000001
31
0
100
AcDbText
73
0
0
TEXT
5
2F5
330
22B
100
AcDbEntity
100
AcDbText
8
METIN_BILGI
10
0.8099999999999999
20
2.8250000000000006
30
0
40
0.01
1
#2 (Orta)
50
0
7
STANDARD
72
1
11
0.8099999999999999
21
2.8250000000000006
31
0
100
AcDbText
73
0
0
TEXT
5
2F6
330
22B
100
AcDbEntity
100
AcDbText
8
METIN_BILGI
10
0.41999999999999993
20
2.8400000000000007
30
0
40
0.013000000000000001
1
ORTA SIRA: 2x TCELL
50
0
7
STANDARD
72
2
11
0.41999999999999993
21
2.8400000000000007
31
0
100
AcDbText
73
0
0
TEXT
5
2F8
330
22B
100
AcDbEntity
100
AcDbText
8
METIN_BILGI
10
0.59
20
3.725
30
0
40
0.011
1
TCELL RRU5301
50
0
7
STANDARD
72
1
11
0.59
21
3.725
31
0
100
AcDbText
73
0
0
TEXT
5
2F9
330
22B
100
AcDbEntity
100
AcDbText
8
METIN_BILGI
10
0.59
20
3.695
30
0
40
0.01
1
#1 (Ust)
50
0
7
STANDARD
72
1
11
0.59
21
3.695
31
0
100
AcDbText
73
0
0
TEXT
5
2FB
330
22B
100
AcDbEntity
100
AcDbText
8
METIN_BILGI
10
0.8099999999999999
20
3.725
30
0
40
0.011
1
TCELL RRU5301
50
0
7
STANDARD
72
1
11
0.8099999999999999
21
3.725
31
0
100
AcDbText
73
0
0
TEXT
5
2FC
330
22B
100
AcDbEntity
100
AcDbText
8
METIN_BILGI
10
0.8099999999999999
20
3.695
30
0
40
0.01
1
#2 (Ust)
50
0
7
STANDARD
72
1
11
0.8099999999999999
21
3.695
31
0
100
AcDbText
73
0
0
TEXT
5
2FD
330
22B
100
AcDbEntity
100
AcDbText
8
METIN_BILGI
10
0.41999999999999993
20
3.71
30
0
40
0.013000000000000001
1
UST SIRA: 2x TCELL
50
0
7
STANDARD
72
2
11
0.41999999999999993
21
3.71
31
0
100
AcDbText
73
0
0
TEXT
5
2FF
330
22B
100
AcDbEntity
100
AcDbText
8
METIN_BILGI
10
1.63
20
1.985
30
0
40
0.011
1
VDF RRU5526t
50
0
7
STANDARD
72
1
11
1.63
21
1.985
31
0
100
AcDbText
73
0
0
TEXT
5
300
330
22B
100
AcDbEntity
100
AcDbText
8
METIN_BILGI
10
1.63
20
1.9550000000000003
30
0
40
0.01
1
#4 (Alt)
50
0
7
STANDARD
72
1
11
1.63
21
1.9550000000000003
31
0
100
AcDbText
73
0
0
TEXT
5
302
330
22B
100
AcDbEntity
100
AcDbText
8
METIN_BILGI
10
1.7999999999999998
20
1.985
30
0
40
0.011
1
VDF RRU5526t
50
0
7
STANDARD
72
1
11
1.7999999999999998
21
1.985
31
0
100
AcDbText
73
0
0
TEXT
5
303
330
22B
100
AcDbEntity
100
AcDbText
8
METIN_BILGI
10
1.7999999999999998
20
1.9550000000000003
30
0
40
0.01
1
#5 (Alt)
50
0
7
STANDARD
72
1
11
1.7999999999999998
21
1.9550000000000003
31
0
100
AcDbText
73
0
0
TEXT
5
305
330
22B
100
AcDbEntity
100
AcDbText
8
METIN_BILGI
10
1.9699999999999998
20
1.985
30
0
40
0.011
1
VDF RRU5526t
50
0
7
STANDARD
72
1
11
1.9699999999999998
21
1.985
31
0
100
AcDbText
73
0
0
TEXT
5
306
330
22B
100
AcDbEntity
100
AcDbText
8
METIN_BILGI
10
1.9699999999999998
20
1.9550000000000003
30
0
40
0.01
1
#6 (Alt)
50
0
7
STANDARD
72
1
11
1.9699999999999998
21
1.9550000000000003
31
0
100
AcDbText
73
0
0
TEXT
5
307
330
22B
100
AcDbEntity
100
AcDbText
8
METIN_BILGI
10
2.08
20
1.9700000000000002
30
0
40
0.013000000000000001
1
ALT SIRA: 3x VDF
50
0
7
STANDARD
100
AcDbText
0
TEXT
5
309
330
22B
100
AcDbEntity
100
AcDbText
8
METIN_BILGI
10
1.69
20
2.855000000000001
30
0
40
0.011
1
TT RRU5527
50
0
7
STANDARD
72
1
11
1.69
21
2.855000000000001
31
0
100
AcDbText
73
0
0
TEXT
5
30A
330
22B
100
AcDbEntity
100
AcDbText
8
METIN_BILGI
10
1.69
20
2.8250000000000006
30
0
40
0.01
1
#1 (Orta)
50
0
7
STANDARD
72
1
11
1.69
21
2.8250000000000006
31
0
100
AcDbText
73
0
0
TEXT
5
30C
330
22B
100
AcDbEntity
100
AcDbText
8
METIN_BILGI
10
1.9100000000000001
20
2.855000000000001
30
0
40
0.011
1
TT RRU5527
50
0
7
STANDARD
72
1
11
1.9100000000000001
21
2.855000000000001
31
0
100
AcDbText
73
0
0
TEXT
5
30D
330
22B
100
AcDbEntity
100
AcDbText
8
METIN_BILGI
10
1.9100000000000001
20
2.8250000000000006
30
0
40
0.01
1
#2 (Orta)
50
0
7
STANDARD
72
1
11
1.9100000000000001
21
2.8250000000000006
31
0
100
AcDbText
73
0
0
TEXT
5
30E
330
22B
100
AcDbEntity
100
AcDbText
8
METIN_BILGI
10
2.08
20
2.8400000000000007
30
0
40
0.013000000000000001
1
ORTA SIRA: 2x TT
50
0
7
STANDARD
100
AcDbText
0
TEXT
5
310
330
22B
100
AcDbEntity
100
AcDbText
8
METIN_BILGI
10
1.69
20
3.725
30
0
40
0.011
1
TT RRU 5818W (5G)
50
0
7
STANDARD
72
1
11
1.69
21
3.725
31
0
100
AcDbText
73
0
0
TEXT
5
311
330
22B
100
AcDbEntity
100
AcDbText
8
METIN_BILGI
10
1.69
20
3.695
30
0
40
0.01
1
#1 (Ust)
50
0
7
STANDARD
72
1
11
1.69
21
3.695
31
0
100
AcDbText
73
0
0
TEXT
5
313
330
22B
100
AcDbEntity
100
AcDbText
8
METIN_BILGI
10
1.9100000000000001
20
3.725
30
0
40
0.011
1
TT RRU 5818W (5G)
50
0
7
STANDARD
72
1
11
1.9100000000000001
21
3.725
31
0
100
AcDbText
73
0
0
TEXT
5
314
330
22B
100
AcDbEntity
100
AcDbText
8
METIN_BILGI
10
1.9100000000000001
20
3.695
30
0
40
0.01
1
#2 (Ust)
50
0
7
STANDARD
72
1
11
1.9100000000000001
21
3.695
31
0
100
AcDbText
73
0
0
TEXT
5
315
330
22B
100
AcDbEntity
100
AcDbText
8
METIN_BILGI
10
2.08
20
3.71
30
0
40
0.013000000000000001
1
UST SIRA: 2x TT (5G)
50
0
7
STANDARD
100
AcDbText
0
LWPOLYLINE
5
32E
330
22B
100
AcDbEntity
100
AcDbPolyline
8
METIN_BILGI
6
ByLayer
62
256
370
-1
90
4
70
1
10
-2.35
20
0.04999999999999999
10
-2.35
20
0.8999999999999999
10
-0.8500000000000001
20
0.8999999999999999
10
-0.8500000000000001
20
0.04999999999999999
0
TEXT
5
32F
330
22B
100
AcDbEntity
100
AcDbText
8
METIN_BILGI
10
-1.6
20
0.8600000000000001
30
0
40
0.02
1
DETAY A: 20 CM OFSET KONSOL VE DIKME KELEPCESI IMALAT DETAYI (OLCEK 1:5)
50
0
7
STANDARD
72
1
11
-1.6
21
0.8600000000000001
31
0
100
AcDbText
73
0
0
TEXT
5
332
330
22B
100
AcDbEntity
100
AcDbText
8
METIN_BILGI
10
-1.98
20
0.35
30
0
40
0.012
1
O140mm MAKAS DIKMESI
50
0
7
STANDARD
72
1
11
-1.98
21
0.35
31
0
100
AcDbText
73
0
0
TEXT
5
33B
330
22B
100
AcDbEntity
100
AcDbText
8
METIN_BILGI
10
-1.79
20
0.45
30
0
40
0.012
1
60x60x4mm KUTU PROFIL
50
0
7
STANDARD
72
1
11
-1.79
21
0.45
31
0
100
AcDbText
73
0
0
TEXT
5
348
330
22B
100
AcDbEntity
100
AcDbText
8
METIN_BILGI
10
-1.6550000000000002
20
0.37
30
0
40
0.012
1
2" (O60.3mm) GALVANIZ BORU
50
0
7
STANDARD
72
1
11
-1.6550000000000002
21
0.37
31
0
100
AcDbText
73
0
0
LWPOLYLINE
5
355
330
22B
100
AcDbEntity
100
AcDbPolyline
8
METIN_BILGI
6
ByLayer
62
256
370
-1
90
4
70
1
10
-0.65
20
0.04999999999999999
10
-0.65
20
0.8999999999999999
10
0.65
20
0.8999999999999999
10
0.65
20
0.04999999999999999
0
TEXT
5
356
330
22B
100
AcDbEntity
100
AcDbText
8
METIN_BILGI
10
0
20
0.8600000000000001
30
0
40
0.02
1
DETAY B: RRU KISA KENAR BORU KILITLEME BRAKETI VE EMNIYET PIMI (OLCEK 1:5)
50
0
7
STANDARD
72
1
11
0
21
0.8600000000000001
31
0
100
AcDbText
73
0
0
TEXT
5
35D
330
22B
100
AcDbEntity
100
AcDbText
8
METIN_BILGI
10
-0.44
20
0.535
30
0
40
0.011
1
M10 TORKLU CIVATA (35 Nm)
50
0
7
STANDARD
72
1
11
-0.44
21
0.535
31
0
100
AcDbText
73
0
0
TEXT
5
360
330
22B
100
AcDbEntity
100
AcDbText
8
METIN_BILGI
10
-0.29000000000000004
20
0.47500000000000003
30
0
40
0.011
1
EMNIYET PIMI (DUSMEYE KARSI KILIT)
50
0
7
STANDARD
100
AcDbText
0
TEXT
5
36F
330
22B
100
AcDbEntity
100
AcDbText
8
METIN_BILGI
10
-0.095
20
0.49
30
0
40
0.014
1
RRU DOKUM GOVDE
50
0
7
STANDARD
72
1
11
-0.095
21
0.49
31
0
100
AcDbText
73
0
0
TEXT
5
370
330
22B
100
AcDbEntity
100
AcDbText
8
METIN_BILGI
10
-0.095
20
0.44
30
0
40
0.012
1
KISA KENARDAN MONTAJ (D=140mm)
50
0
7
STANDARD
72
1
11
-0.095
21
0.44
31
0
100
AcDbText
73
0
0
TEXT
5
371
330
22B
100
AcDbEntity
100
AcDbText
8
METIN_BILGI
10
-0.095
20
0.41000000000000003
30
0
40
0.01
1
IP65 WEATHERPROOF SIZDIRMAZLIK
50
0
7
STANDARD
72
1
11
-0.095
21
0.41000000000000003
31
0
100
AcDbText
73
0
0
TEXT
5
375
330
22B
100
AcDbEntity
100
AcDbText
8
METIN_BILGI
10
-0.245
20
0.66
30
0
40
0.011
1
O4mm PASLANMAZ CELIK GUCLENDIRILMIS EMNIYET HALATI (L=600mm)
50
0
7
STANDARD
72
1
11
-0.245
21
0.66
31
0
100
AcDbText
73
0
0
LWPOLYLINE
5
376
330
22B
100
AcDbEntity
100
AcDbPolyline
8
METIN_BILGI
6
ByLayer
62
256
370
-1
90
4
70
1
10
0.8500000000000001
20
0.04999999999999999
10
0.8500000000000001
20
0.8999999999999999
10
2.35
20
0.8999999999999999
10
2.35
20
0.04999999999999999
0
TEXT
5
377
330
22B
100
AcDbEntity
100
AcDbText
8
METIN_BILGI
10
1.6
20
0.8600000000000001
30
0
40
0.02
1
DETAY C: TOPRAKLAMA BARASI VE RF JUMPER INIS DETAYI (OLCEK 1:5)
50
0
7
STANDARD
72
1
11
1.6
21
0.8600000000000001
31
0
100
AcDbText
73
0
0
TEXT
5
379
330
22B
100
AcDbEntity
100
AcDbText
8
METIN_BILGI
10
1.5
20
0.685
30
0
40
0.013000000000000001
1
RRU ALT BAGLANTI VE PORT YUZEYI
50
0
7
STANDARD
72
1
11
1.5
21
0.685
31
0
100
AcDbText
73
0
0
TEXT
5
37D
330
22B
100
AcDbEntity
100
AcDbText
8
METIN_BILGI
10
1.26
20
0.53
30
0
40
0.009000000000000001
1
VULKANIZE BANT
50
0
7
STANDARD
72
1
11
1.26
21
0.53
31
0
100
AcDbText
73
0
0
TEXT
5
37F
330
22B
100
AcDbEntity
100
AcDbText
8
METIN_BILGI
10
1.26
20
0.29
30
0
40
0.01
1
JUMPER #1
50
0
7
STANDARD
72
1
11
1.26
21
0.29
31
0
100
AcDbText
73
0
0
TEXT
5
383
330
22B
100
AcDbEntity
100
AcDbText
8
METIN_BILGI
10
1.42
20
0.53
30
0
40
0.009000000000000001
1
VULKANIZE BANT
50
0
7
STANDARD
72
1
11
1.42
21
0.53
31
0
100
AcDbText
73
0
0
TEXT
5
385
330
22B
100
AcDbEntity
100
AcDbText
8
METIN_BILGI
10
1.42
20
0.29
30
0
40
0.01
1
JUMPER #2
50
0
7
STANDARD
72
1
11
1.42
21
0.29
31
0
100
AcDbText
73
0
0
TEXT
5
389
330
22B
100
AcDbEntity
100
AcDbText
8
METIN_BILGI
10
1.58
20
0.53
30
0
40
0.009000000000000001
1
VULKANIZE BANT
50
0
7
STANDARD
72
1
11
1.58
21
0.53
31
0
100
AcDbText
73
0
0
TEXT
5
38B
330
22B
100
AcDbEntity
100
AcDbText
8
METIN_BILGI
10
1.58
20
0.29
30
0
40
0.01
1
JUMPER #3
50
0
7
STANDARD
72
1
11
1.58
21
0.29
31
0
100
AcDbText
73
0
0
TEXT
5
38F
330
22B
100
AcDbEntity
100
AcDbText
8
METIN_BILGI
10
1.74
20
0.53
30
0
40
0.009000000000000001
1
VULKANIZE BANT
50
0
7
STANDARD
72
1
11
1.74
21
0.53
31
0
100
AcDbText
73
0
0
TEXT
5
391
330
22B
100
AcDbEntity
100
AcDbText
8
METIN_BILGI
10
1.74
20
0.29
30
0
40
0.01
1
JUMPER #4
50
0
7
STANDARD
72
1
11
1.74
21
0.29
31
0
100
AcDbText
73
0
0
TEXT
5
396
330
22B
100
AcDbEntity
100
AcDbText
8
METIN_BILGI
10
1.82
20
0.45
30
0
40
0.011
1
16 mm2 BAKIR TOPRAKLAMA ILETKENI
50
0
7
STANDARD
100
AcDbText
0
TEXT
5
397
330
22B
100
AcDbEntity
100
AcDbText
8
METIN_BILGI
10
1.82
20
0.42000000000000004
30
0
40
0.01
1
KEDI YOLU VE CATI TOPRAKLAMA BARASINA
50
0
7
STANDARD
100
AcDbText
0
LWPOLYLINE
5
398
330
22B
100
AcDbEntity
100
AcDbPolyline
8
METIN_BILGI
6
ByLayer
62
256
370
-1
90
4
70
1
10
-2.45
20
-0.92
10
-2.45
20
-0.040000000000000036
10
-0.30000000000000027
20
-0.040000000000000036
10
-0.30000000000000027
20
-0.92
0
TEXT
5
399
330
22B
100
AcDbEntity
100
AcDbText
8
METIN_BILGI
10
-1.3750000000000002
20
-0.07500000000000001
30
0
40
0.018000000000000002
1
TEKNIK SARTNAME, GUVENLIK VE MONTAJ STANDARTLARI
50
0
7
STANDARD
72
1
11
-1.3750000000000002
21
-0.07500000000000001
31
0
100
AcDbText
73
0
0
TEXT
5
39A
330
22B
100
AcDbEntity
100
AcDbText
8
METIN_BILGI
10
-2.4250000000000003
20
-0.11499999999999999
30
0
40
0.012
1
1. KEDI YOLU GECIS KORIDORU (CLEARANCE): Makas dikmesine 20cm ofset kolu ile baglanan montaj borulari ve uzerindeki
50
0
7
STANDARD
100
AcDbText
0
TEXT
5
39B
330
22B
100
AcDbEntity
100
AcDbText
8
METIN_BILGI
10
-2.4250000000000003
20
-0.151
30
0
40
0.012
1
   RRU modulleri, kedi yolu yuruyus izgarasina kesinlikle tecavuz etmez. Net serbest gecis acikligi min. 850 mm olarak korunmustur.
50
0
7
STANDARD
100
AcDbText
0
TEXT
5
39C
330
22B
100
AcDbEntity
100
AcDbText
8
METIN_BILGI
10
-2.4250000000000003
20
-0.187
30
0
40
0.012
1
2. MONTAJ BORULARI: 2" (Dis cap O60.3mm, et kalinligi 3.65mm) TS EN 10255 agir seri celik cekme borudur. TS EN ISO 1461 standardinda
50
0
7
STANDARD
100
AcDbText
0
TEXT
5
39D
330
22B
100
AcDbEntity
100
AcDbText
8
METIN_BILGI
10
-2.4250000000000003
20
-0.22299999999999998
30
0
40
0.012
1
   sicak daldirma galvaniz kaplanmistir (Min. cinko kalinligi 85 mikron). Tepe noktasinda su gecirmez sizdirmazlik tapasi mevcuttur.
50
0
7
STANDARD
100
AcDbText
0
TEXT
5
39E
330
22B
100
AcDbEntity
100
AcDbText
8
METIN_BILGI
10
-2.4250000000000003
20
-0.259
30
0
40
0.012
1
3. 20 CM OFSET KONSOL SISTEMI: 60x60x4mm celik kutu profil konsol kollari, O140mm makas dikmesine 3 noktadan (t=%20, %50, %80)
50
0
7
STANDARD
100
AcDbText
0
TEXT
5
39F
330
22B
100
AcDbEntity
100
AcDbText
8
METIN_BILGI
10
-2.4250000000000003
20
-0.295
30
0
40
0.012
1
   cift parcali M16 celik kelepceler ve 80x80x8mm ucgen gusset berkitme saclariyla rijit sekilde kaynakli/civatalidir.
50
0
7
STANDARD
100
AcDbText
0
TEXT
5
3A0
330
22B
100
AcDbEntity
100
AcDbText
8
METIN_BILGI
10
-2.4250000000000003
20
-0.33099999999999996
30
0
40
0.012
1
4. RRU KISA KENAR BAGLANTISI: 14 adet RRU modulu kisa kenarlarindaki (D=140mm) tork kontrollu kelepcelerle boruya kenetlenmistir.
50
0
7
STANDARD
100
AcDbText
0
TEXT
5
3A1
330
22B
100
AcDbEntity
100
AcDbText
8
METIN_BILGI
10
-2.4250000000000003
20
-0.367
30
0
40
0.012
1
   Sikma torku 35 Nm'dir. Her RRU govdesi, dusmeye karsi O4mm paslanmaz celik emniyet halatiyla boruya guvenlik kilitlidir.
50
0
7
STANDARD
100
AcDbText
0
TEXT
5
3A2
330
22B
100
AcDbEntity
100
AcDbText
8
METIN_BILGI
10
-2.4250000000000003
20
-0.403
30
0
40
0.012
1
5. TOPRAKLAMA DUZENI: Her RRU sasesinden cikan 16 mm2 sari-yesil topraklama iletkeni, kedi yolu altindaki bakir topraklama
50
0
7
STANDARD
100
AcDbText
0
TEXT
5
3A3
330
22B
100
AcDbEntity
100
AcDbText
8
METIN_BILGI
10
-2.4250000000000003
20
-0.439
30
0
40
0.012
1
   barasina cift delikli sikmali pabuclarla irtibatlandirilmistir. Gecis direnci R < 2 Ohm sartini saglamaktadir.
50
0
7
STANDARD
100
AcDbText
0
TEXT
5
3A4
330
22B
100
AcDbEntity
100
AcDbText
8
METIN_BILGI
10
-2.4250000000000003
20
-0.475
30
0
40
0.012
1
6. KABLO VE JUMPER GECISLERI: RRU alt portlarindan cikan 1/2" super esnek RF jumper kablolari, O150mm kivrilma yaricapina uyularak
50
0
7
STANDARD
100
AcDbText
0
TEXT
5
3A5
330
22B
100
AcDbEntity
100
AcDbText
8
METIN_BILGI
10
-2.4250000000000003
20
-0.511
30
0
40
0.012
1
   kedi yolu altindaki 500x100mm perfore kablo tavasina indirilir. Dis ortam RF konnektorleri soguk buzusmeli bantla sizdirmazdir.
50
0
7
STANDARD
100
AcDbText
0
LWPOLYLINE
5
3A6
330
22B
100
AcDbEntity
100
AcDbPolyline
8
METIN_BILGI
6
ByLayer
62
256
370
-1
90
4
70
1
10
-0.22
20
-0.92
10
-0.22
20
-0.040000000000000036
10
1.46
20
-0.040000000000000036
10
1.46
20
-0.92
0
TEXT
5
3A7
330
22B
100
AcDbEntity
100
AcDbText
8
METIN_BILGI
10
0.62
20
-0.07500000000000001
30
0
40
0.018000000000000002
1
MALZEME LISTESI (BOM) - ALAN 1 & 3 KEDI YOLU RRU SISTEMI
50
0
7
STANDARD
72
1
11
0.62
21
-0.07500000000000001
31
0
100
AcDbText
73
0
0
LWPOLYLINE
5
3A8
330
22B
100
AcDbEntity
100
AcDbPolyline
8
METIN_BILGI
6
ByLayer
62
256
370
-1
90
4
70
1
10
-0.22
20
-0.11499999999999999
10
-0.22
20
-0.07999999999999999
10
1.46
20
-0.07999999999999999
10
1.46
20
-0.11499999999999999
0
TEXT
5
3A9
330
22B
100
AcDbEntity
100
AcDbText
8
METIN_BILGI
10
-0.21
20
-0.10500000000000001
30
0
40
0.011
1
NO
50
0
7
STANDARD
100
AcDbText
0
TEXT
5
3AA
330
22B
100
AcDbEntity
100
AcDbText
8
METIN_BILGI
10
-0.15
20
-0.10500000000000001
30
0
40
0.011
1
MALZEME TANIMI VE MARKA / MODEL
50
0
7
STANDARD
100
AcDbText
0
TEXT
5
3AB
330
22B
100
AcDbEntity
100
AcDbText
8
METIN_BILGI
10
0.51
20
-0.10500000000000001
30
0
40
0.011
1
EBAT / TEKNIK DETAY
50
0
7
STANDARD
100
AcDbText
0
TEXT
5
3AC
330
22B
100
AcDbEntity
100
AcDbText
8
METIN_BILGI
10
0.9300000000000002
20
-0.10500000000000001
30
0
40
0.011
1
MIKTAR
50
0
7
STANDARD
100
AcDbText
0
TEXT
5
3AD
330
22B
100
AcDbEntity
100
AcDbText
8
METIN_BILGI
10
1.07
20
-0.10500000000000001
30
0
40
0.011
1
OPERATOR / GOREV
50
0
7
STANDARD
100
AcDbText
0
LINE
5
3AE
330
22B
100
AcDbEntity
100
AcDbLine
8
METIN_BILGI
10
-0.22
20
-0.15
30
0
11
1.46
21
-0.15
31
0
0
TEXT
5
3AF
330
22B
100
AcDbEntity
100
AcDbText
8
METIN_BILGI
10
-0.21
20
-0.13999999999999999
30
0
40
0.01
1
01
50
0
7
STANDARD
100
AcDbText
0
TEXT
5
3B0
330
22B
100
AcDbEntity
100
AcDbText
8
METIN_BILGI
10
-0.15
20
-0.13999999999999999
30
0
40
0.01
1
Turkcell LTE RRU 5301 Modulu
50
0
7
STANDARD
100
AcDbText
0
TEXT
5
3B1
330
22B
100
AcDbEntity
100
AcDbText
8
METIN_BILGI
10
0.51
20
-0.13999999999999999
30
0
40
0.009000000000000001
1
356 x 480 x 140 mm / 25 kg
50
0
7
STANDARD
100
AcDbText
0
TEXT
5
3B2
330
22B
100
AcDbEntity
100
AcDbText
8
METIN_BILGI
10
0.9300000000000002
20
-0.13999999999999999
30
0
40
0.01
1
2 Adet
50
0
7
STANDARD
100
AcDbText
0
TEXT
5
3B3
330
22B
100
AcDbEntity
100
AcDbText
8
METIN_BILGI
10
1.07
20
-0.13999999999999999
30
0
40
0.009000000000000001
1
Turkcell (Sol Ust Sira)
50
0
7
STANDARD
100
AcDbText
0
LINE
5
3B4
330
22B
100
AcDbEntity
100
AcDbLine
8
METIN_BILGI
10
-0.22
20
-0.186
30
0
11
1.46
21
-0.186
31
0
0
TEXT
5
3B5
330
22B
100
AcDbEntity
100
AcDbText
8
METIN_BILGI
10
-0.21
20
-0.176
30
0
40
0.01
1
02
50
0
7
STANDARD
100
AcDbText
0
TEXT
5
3B6
330
22B
100
AcDbEntity
100
AcDbText
8
METIN_BILGI
10
-0.15
20
-0.176
30
0
40
0.01
1
Turkcell LTE/NR RRU 5502 Modulu
50
0
7
STANDARD
100
AcDbText
0
TEXT
5
3B7
330
22B
100
AcDbEntity
100
AcDbText
8
METIN_BILGI
10
0.51
20
-0.176
30
0
40
0.009000000000000001
1
356 x 480 x 140 mm / 25 kg
50
0
7
STANDARD
100
AcDbText
0
TEXT
5
3B8
330
22B
100
AcDbEntity
100
AcDbText
8
METIN_BILGI
10
0.9300000000000002
20
-0.176
30
0
40
0.01
1
2 Adet
50
0
7
STANDARD
100
AcDbText
0
TEXT
5
3B9
330
22B
100
AcDbEntity
100
AcDbText
8
METIN_BILGI
10
1.07
20
-0.176
30
0
40
0.009000000000000001
1
Turkcell (Sol Orta Sira)
50
0
7
STANDARD
100
AcDbText
0
LINE
5
3BA
330
22B
100
AcDbEntity
100
AcDbLine
8
METIN_BILGI
10
-0.22
20
-0.222
30
0
11
1.46
21
-0.222
31
0
0
TEXT
5
3BB
330
22B
100
AcDbEntity
100
AcDbText
8
METIN_BILGI
10
-0.21
20
-0.212
30
0
40
0.01
1
03
50
0
7
STANDARD
100
AcDbText
0
TEXT
5
3BC
330
22B
100
AcDbEntity
100
AcDbText
8
METIN_BILGI
10
-0.15
20
-0.212
30
0
40
0.01
1
Turk Telekom NR RRU 5818W (5G) Modulu
50
0
7
STANDARD
100
AcDbText
0
TEXT
5
3BD
330
22B
100
AcDbEntity
100
AcDbText
8
METIN_BILGI
10
0.51
20
-0.212
30
0
40
0.009000000000000001
1
356 x 480 x 140 mm / 25 kg
50
0
7
STANDARD
100
AcDbText
0
TEXT
5
3BE
330
22B
100
AcDbEntity
100
AcDbText
8
METIN_BILGI
10
0.9300000000000002
20
-0.212
30
0
40
0.01
1
2 Adet
50
0
7
STANDARD
100
AcDbText
0
TEXT
5
3BF
330
22B
100
AcDbEntity
100
AcDbText
8
METIN_BILGI
10
1.07
20
-0.212
30
0
40
0.009000000000000001
1
Turk Telekom (Sag Ust Sira)
50
0
7
STANDARD
100
AcDbText
0
LINE
5
3C0
330
22B
100
AcDbEntity
100
AcDbLine
8
METIN_BILGI
10
-0.22
20
-0.258
30
0
11
1.46
21
-0.258
31
0
0
TEXT
5
3C1
330
22B
100
AcDbEntity
100
AcDbText
8
METIN_BILGI
10
-0.21
20
-0.248
30
0
40
0.01
1
04
50
0
7
STANDARD
100
AcDbText
0
TEXT
5
3C2
330
22B
100
AcDbEntity
100
AcDbText
8
METIN_BILGI
10
-0.15
20
-0.248
30
0
40
0.01
1
Turk Telekom 2G-3G-4G RRU 5527 Modulu
50
0
7
STANDARD
100
AcDbText
0
TEXT
5
3C3
330
22B
100
AcDbEntity
100
AcDbText
8
METIN_BILGI
10
0.51
20
-0.248
30
0
40
0.009000000000000001
1
356 x 480 x 140 mm / 25 kg
50
0
7
STANDARD
100
AcDbText
0
TEXT
5
3C4
330
22B
100
AcDbEntity
100
AcDbText
8
METIN_BILGI
10
0.9300000000000002
20
-0.248
30
0
40
0.01
1
2 Adet
50
0
7
STANDARD
100
AcDbText
0
TEXT
5
3C5
330
22B
100
AcDbEntity
100
AcDbText
8
METIN_BILGI
10
1.07
20
-0.248
30
0
40
0.009000000000000001
1
Turk Telekom (Sag Orta Sira)
50
0
7
STANDARD
100
AcDbText
0
LINE
5
3C6
330
22B
100
AcDbEntity
100
AcDbLine
8
METIN_BILGI
10
-0.22
20
-0.29400000000000004
30
0
11
1.46
21
-0.29400000000000004
31
0
0
TEXT
5
3C7
330
22B
100
AcDbEntity
100
AcDbText
8
METIN_BILGI
10
-0.21
20
-0.28400000000000003
30
0
40
0.01
1
05
50
0
7
STANDARD
100
AcDbText
0
TEXT
5
3C8
330
22B
100
AcDbEntity
100
AcDbText
8
METIN_BILGI
10
-0.15
20
-0.28400000000000003
30
0
40
0.01
1
Vodafone RRU 5526t Cift Bant Modulu
50
0
7
STANDARD
100
AcDbText
0
TEXT
5
3C9
330
22B
100
AcDbEntity
100
AcDbText
8
METIN_BILGI
10
0.51
20
-0.28400000000000003
30
0
40
0.009000000000000001
1
356 x 480 x 135 mm / 28 kg
50
0
7
STANDARD
100
AcDbText
0
TEXT
5
3CA
330
22B
100
AcDbEntity
100
AcDbText
8
METIN_BILGI
10
0.9300000000000002
20
-0.28400000000000003
30
0
40
0.01
1
6 Adet
50
0
7
STANDARD
100
AcDbText
0
TEXT
5
3CB
330
22B
100
AcDbEntity
100
AcDbText
8
METIN_BILGI
10
1.07
20
-0.28400000000000003
30
0
40
0.009000000000000001
1
Vodafone (3+3 Alt Sira)
50
0
7
STANDARD
100
AcDbText
0
LINE
5
3CC
330
22B
100
AcDbEntity
100
AcDbLine
8
METIN_BILGI
10
-0.22
20
-0.33
30
0
11
1.46
21
-0.33
31
0
0
TEXT
5
3CD
330
22B
100
AcDbEntity
100
AcDbText
8
METIN_BILGI
10
-0.21
20
-0.32
30
0
40
0.01
1
06
50
0
7
STANDARD
100
AcDbText
0
TEXT
5
3CE
330
22B
100
AcDbEntity
100
AcDbText
8
METIN_BILGI
10
-0.15
20
-0.32
30
0
40
0.01
1
2" Sicak Daldirma Galvaniz Montaj Borusu
50
0
7
STANDARD
100
AcDbText
0
TEXT
5
3CF
330
22B
100
AcDbEntity
100
AcDbText
8
METIN_BILGI
10
0.51
20
-0.32
30
0
40
0.009000000000000001
1
O60.3 x 3.65mm - L=2900mm
50
0
7
STANDARD
100
AcDbText
0
TEXT
5
3D0
330
22B
100
AcDbEntity
100
AcDbText
8
METIN_BILGI
10
0.9300000000000002
20
-0.32
30
0
40
0.01
1
2 Adet
50
0
7
STANDARD
100
AcDbText
0
TEXT
5
3D1
330
22B
100
AcDbEntity
100
AcDbText
8
METIN_BILGI
10
1.07
20
-0.32
30
0
40
0.009000000000000001
1
Ortak Tasiyici Dikmeler
50
0
7
STANDARD
100
AcDbText
0
LINE
5
3D2
330
22B
100
AcDbEntity
100
AcDbLine
8
METIN_BILGI
10
-0.22
20
-0.366
30
0
11
1.46
21
-0.366
31
0
0
TEXT
5
3D3
330
22B
100
AcDbEntity
100
AcDbText
8
METIN_BILGI
10
-0.21
20
-0.356
30
0
40
0.01
1
07
50
0
7
STANDARD
100
AcDbText
0
TEXT
5
3D4
330
22B
100
AcDbEntity
100
AcDbText
8
METIN_BILGI
10
-0.15
20
-0.356
30
0
40
0.01
1
20 cm Agir Hizmet Ofset Konsol Kolu
50
0
7
STANDARD
100
AcDbText
0
TEXT
5
3D5
330
22B
100
AcDbEntity
100
AcDbText
8
METIN_BILGI
10
0.51
20
-0.356
30
0
40
0.009000000000000001
1
60x60x4mm Kutu Profil (L=200mm)
50
0
7
STANDARD
100
AcDbText
0
TEXT
5
3D6
330
22B
100
AcDbEntity
100
AcDbText
8
METIN_BILGI
10
0.9300000000000002
20
-0.356
30
0
40
0.01
1
6 Adet
50
0
7
STANDARD
100
AcDbText
0
TEXT
5
3D7
330
22B
100
AcDbEntity
100
AcDbText
8
METIN_BILGI
10
1.07
20
-0.356
30
0
40
0.009000000000000001
1
3 Noktadan Rijit Tespit
50
0
7
STANDARD
100
AcDbText
0
LINE
5
3D8
330
22B
100
AcDbEntity
100
AcDbLine
8
METIN_BILGI
10
-0.22
20
-0.402
30
0
11
1.46
21
-0.402
31
0
0
TEXT
5
3D9
330
22B
100
AcDbEntity
100
AcDbText
8
METIN_BILGI
10
-0.21
20
-0.392
30
0
40
0.01
1
08
50
0
7
STANDARD
100
AcDbText
0
TEXT
5
3DA
330
22B
100
AcDbEntity
100
AcDbText
8
METIN_BILGI
10
-0.15
20
-0.392
30
0
40
0.01
1
O140mm Makas Dikmesi Cift Parcali Kelepce
50
0
7
STANDARD
100
AcDbText
0
TEXT
5
3DB
330
22B
100
AcDbEntity
100
AcDbText
8
METIN_BILGI
10
0.51
20
-0.392
30
0
40
0.009000000000000001
1
t=8mm St37 Celik + M16 Civata
50
0
7
STANDARD
100
AcDbText
0
TEXT
5
3DC
330
22B
100
AcDbEntity
100
AcDbText
8
METIN_BILGI
10
0.9300000000000002
20
-0.392
30
0
40
0.01
1
6 Takim
50
0
7
STANDARD
100
AcDbText
0
TEXT
5
3DD
330
22B
100
AcDbEntity
100
AcDbText
8
METIN_BILGI
10
1.07
20
-0.392
30
0
40
0.009000000000000001
1
Makas Govdesine Baglanti
50
0
7
STANDARD
100
AcDbText
0
LINE
5
3DE
330
22B
100
AcDbEntity
100
AcDbLine
8
METIN_BILGI
10
-0.22
20
-0.43800000000000006
30
0
11
1.46
21
-0.43800000000000006
31
0
0
TEXT
5
3DF
330
22B
100
AcDbEntity
100
AcDbText
8
METIN_BILGI
10
-0.21
20
-0.42800000000000005
30
0
40
0.01
1
09
50
0
7
STANDARD
100
AcDbText
0
TEXT
5
3E0
330
22B
100
AcDbEntity
100
AcDbText
8
METIN_BILGI
10
-0.15
20
-0.42800000000000005
30
0
40
0.01
1
2" Boru U-Bolt Kelepcesi ve Eyer Pleyti
50
0
7
STANDARD
100
AcDbText
0
TEXT
5
3E1
330
22B
100
AcDbEntity
100
AcDbText
8
METIN_BILGI
10
0.51
20
-0.42800000000000005
30
0
40
0.009000000000000001
1
M12 Celik U-Bolt + Kilitli Pul
50
0
7
STANDARD
100
AcDbText
0
TEXT
5
3E2
330
22B
100
AcDbEntity
100
AcDbText
8
METIN_BILGI
10
0.9300000000000002
20
-0.42800000000000005
30
0
40
0.01
1
12 Takim
50
0
7
STANDARD
100
AcDbText
0
TEXT
5
3E3
330
22B
100
AcDbEntity
100
AcDbText
8
METIN_BILGI
10
1.07
20
-0.42800000000000005
30
0
40
0.009000000000000001
1
Boru Kilitleme
50
0
7
STANDARD
100
AcDbText
0
LINE
5
3E4
330
22B
100
AcDbEntity
100
AcDbLine
8
METIN_BILGI
10
-0.22
20
-0.4740000000000001
30
0
11
1.46
21
-0.4740000000000001
31
0
0
TEXT
5
3E5
330
22B
100
AcDbEntity
100
AcDbText
8
METIN_BILGI
10
-0.21
20
-0.4640000000000001
30
0
40
0.01
1
10
50
0
7
STANDARD
100
AcDbText
0
TEXT
5
3E6
330
22B
100
AcDbEntity
100
AcDbText
8
METIN_BILGI
10
-0.15
20
-0.4640000000000001
30
0
40
0.01
1
RRU Kisa Kenar Boru Kelepcesi Adaptoru
50
0
7
STANDARD
100
AcDbText
0
TEXT
5
3E7
330
22B
100
AcDbEntity
100
AcDbText
8
METIN_BILGI
10
0.51
20
-0.4640000000000001
30
0
40
0.009000000000000001
1
Aluminyum Dokum (35 Nm Tork)
50
0
7
STANDARD
100
AcDbText
0
TEXT
5
3E8
330
22B
100
AcDbEntity
100
AcDbText
8
METIN_BILGI
10
0.9300000000000002
20
-0.4640000000000001
30
0
40
0.01
1
14 Takim
50
0
7
STANDARD
100
AcDbText
0
TEXT
5
3E9
330
22B
100
AcDbEntity
100
AcDbText
8
METIN_BILGI
10
1.07
20
-0.4640000000000001
30
0
40
0.009000000000000001
1
RRU Tasiyici Kelepce
50
0
7
STANDARD
100
AcDbText
0
LINE
5
3EA
330
22B
100
AcDbEntity
100
AcDbLine
8
METIN_BILGI
10
-0.22
20
-0.51
30
0
11
1.46
21
-0.51
31
0
0
TEXT
5
3EB
330
22B
100
AcDbEntity
100
AcDbText
8
METIN_BILGI
10
-0.21
20
-0.5
30
0
40
0.01
1
11
50
0
7
STANDARD
100
AcDbText
0
TEXT
5
3EC
330
22B
100
AcDbEntity
100
AcDbText
8
METIN_BILGI
10
-0.15
20
-0.5
30
0
40
0.01
1
O4mm Paslanmaz Celik Emniyet Halati
50
0
7
STANDARD
100
AcDbText
0
TEXT
5
3ED
330
22B
100
AcDbEntity
100
AcDbText
8
METIN_BILGI
10
0.51
20
-0.5
30
0
40
0.009000000000000001
1
L=600mm / 316 Kalite Celik
50
0
7
STANDARD
100
AcDbText
0
TEXT
5
3EE
330
22B
100
AcDbEntity
100
AcDbText
8
METIN_BILGI
10
0.9300000000000002
20
-0.5
30
0
40
0.01
1
14 Adet
50
0
7
STANDARD
100
AcDbText
0
TEXT
5
3EF
330
22B
100
AcDbEntity
100
AcDbText
8
METIN_BILGI
10
1.07
20
-0.5
30
0
40
0.009000000000000001
1
Dusmeye Karsi Guvenlik
50
0
7
STANDARD
100
AcDbText
0
LINE
5
3F0
330
22B
100
AcDbEntity
100
AcDbLine
8
METIN_BILGI
10
-0.22
20
-0.546
30
0
11
1.46
21
-0.546
31
0
0
TEXT
5
3F1
330
22B
100
AcDbEntity
100
AcDbText
8
METIN_BILGI
10
-0.21
20
-0.536
30
0
40
0.01
1
12
50
0
7
STANDARD
100
AcDbText
0
TEXT
5
3F2
330
22B
100
AcDbEntity
100
AcDbText
8
METIN_BILGI
10
-0.15
20
-0.536
30
0
40
0.01
1
1/2" Super Esnek RF Jumper Kablo Seti
50
0
7
STANDARD
100
AcDbText
0
TEXT
5
3F3
330
22B
100
AcDbEntity
100
AcDbText
8
METIN_BILGI
10
0.51
20
-0.536
30
0
40
0.009000000000000001
1
4.3-10 DIN / L=1.5 - 2.5m
50
0
7
STANDARD
100
AcDbText
0
TEXT
5
3F4
330
22B
100
AcDbEntity
100
AcDbText
8
METIN_BILGI
10
0.9300000000000002
20
-0.536
30
0
40
0.01
1
56 Adet
50
0
7
STANDARD
100
AcDbText
0
TEXT
5
3F5
330
22B
100
AcDbEntity
100
AcDbText
8
METIN_BILGI
10
1.07
20
-0.536
30
0
40
0.009000000000000001
1
RRU - Tava Baglantisi
50
0
7
STANDARD
100
AcDbText
0
LINE
5
3F6
330
22B
100
AcDbEntity
100
AcDbLine
8
METIN_BILGI
10
-0.22
20
-0.5820000000000001
30
0
11
1.46
21
-0.5820000000000001
31
0
0
TEXT
5
3F7
330
22B
100
AcDbEntity
100
AcDbText
8
METIN_BILGI
10
-0.21
20
-0.5720000000000001
30
0
40
0.01
1
13
50
0
7
STANDARD
100
AcDbText
0
TEXT
5
3F8
330
22B
100
AcDbEntity
100
AcDbText
8
METIN_BILGI
10
-0.15
20
-0.5720000000000001
30
0
40
0.01
1
16 mm2 Sari-Yesil Bakir Topraklama Hatti
50
0
7
STANDARD
100
AcDbText
0
TEXT
5
3F9
330
22B
100
AcDbEntity
100
AcDbText
8
METIN_BILGI
10
0.51
20
-0.5720000000000001
30
0
40
0.009000000000000001
1
H07V-K 16 mm2 Cu / Cift Delik
50
0
7
STANDARD
100
AcDbText
0
TEXT
5
3FA
330
22B
100
AcDbEntity
100
AcDbText
8
METIN_BILGI
10
0.9300000000000002
20
-0.5720000000000001
30
0
40
0.01
1
14 Set
50
0
7
STANDARD
100
AcDbText
0
TEXT
5
3FB
330
22B
100
AcDbEntity
100
AcDbText
8
METIN_BILGI
10
1.07
20
-0.5720000000000001
30
0
40
0.009000000000000001
1
Govde Es-Potansiyel Toprak
50
0
7
STANDARD
100
AcDbText
0
LINE
5
3FC
330
22B
100
AcDbEntity
100
AcDbLine
8
METIN_BILGI
10
-0.22
20
-0.6180000000000001
30
0
11
1.46
21
-0.6180000000000001
31
0
0
TEXT
5
3FD
330
22B
100
AcDbEntity
100
AcDbText
8
METIN_BILGI
10
-0.21
20
-0.6080000000000001
30
0
40
0.01
1
14
50
0
7
STANDARD
100
AcDbText
0
TEXT
5
3FE
330
22B
100
AcDbEntity
100
AcDbText
8
METIN_BILGI
10
-0.15
20
-0.6080000000000001
30
0
40
0.01
1
500x100mm Perfore Galvaniz Kablo Tavasi
50
0
7
STANDARD
100
AcDbText
0
TEXT
5
3FF
330
22B
100
AcDbEntity
100
AcDbText
8
METIN_BILGI
10
0.51
20
-0.6080000000000001
30
0
40
0.009000000000000001
1
t=2.0mm / L=3000mm Kedi Yolu Alti
50
0
7
STANDARD
100
AcDbText
0
TEXT
5
400
330
22B
100
AcDbEntity
100
AcDbText
8
METIN_BILGI
10
0.9300000000000002
20
-0.6080000000000001
30
0
40
0.01
1
Hat Boyu
50
0
7
STANDARD
100
AcDbText
0
TEXT
5
401
330
22B
100
AcDbEntity
100
AcDbText
8
METIN_BILGI
10
1.07
20
-0.6080000000000001
30
0
40
0.009000000000000001
1
Kablo Guzergahi
50
0
7
STANDARD
100
AcDbText
0
LWPOLYLINE
5
402
330
22B
100
AcDbEntity
100
AcDbPolyline
8
METIN_BILGI
6
ByLayer
62
256
370
-1
90
4
70
1
10
1.52
20
-0.92
10
1.52
20
-0.040000000000000036
10
2.47
20
-0.040000000000000036
10
2.47
20
-0.92
0
LWPOLYLINE
5
403
330
22B
100
AcDbEntity
100
AcDbPolyline
8
METIN_BILGI
6
ByLayer
62
256
370
-1
90
4
70
1
10
1.52
20
-0.19
10
1.52
20
-0.04000000000000001
10
2.47
20
-0.04000000000000001
10
2.47
20
-0.19
0
TEXT
5
404
330
22B
100
AcDbEntity
100
AcDbText
8
METIN_BILGI
10
1.995
20
-0.08499999999999999
30
0
40
0.022
1
TURK TELEKOMUNIKASYON A.S.
50
0
7
STANDARD
72
1
11
1.995
21
-0.08499999999999999
31
0
100
AcDbText
73
0
0
TEXT
5
405
330
22B
100
AcDbEntity
100
AcDbText
8
METIN_BILGI
10
1.995
20
-0.12
30
0
40
0.016
1
TURKCELL - VODAFONE ORTAK ALTYAPI PROJESI
50
0
7
STANDARD
72
1
11
1.995
21
-0.12
31
0
100
AcDbText
73
0
0
TEXT
5
406
330
22B
100
AcDbEntity
100
AcDbText
8
METIN_BILGI
10
1.995
20
-0.155
30
0
40
0.013000000000000001
1
SEYRANTEPE STADYUMU KEDI YOLU TESISLERI
50
0
7
STANDARD
72
1
11
1.995
21
-0.155
31
0
100
AcDbText
73
0
0
LWPOLYLINE
5
407
330
22B
100
AcDbEntity
100
AcDbPolyline
8
METIN_BILGI
6
ByLayer
62
256
370
-1
90
4
70
1
10
1.52
20
-0.39
10
1.52
20
-0.19
10
2.47
20
-0.19
10
2.47
20
-0.39
0
TEXT
5
408
330
22B
100
AcDbEntity
100
AcDbText
8
METIN_BILGI
10
1.54
20
-0.22
30
0
40
0.012
1
PROJE ADI:
50
0
7
STANDARD
100
AcDbText
0
TEXT
5
409
330
22B
100
AcDbEntity
100
AcDbText
8
METIN_BILGI
10
1.55
20
-0.255
30
0
40
0.016
1
RAMS PARK / SEYRANTEPE STADYUMU 5G & 4.5G DONUSUMU
50
0
7
STANDARD
100
AcDbText
0
TEXT
5
40A
330
22B
100
AcDbEntity
100
AcDbText
8
METIN_BILGI
10
1.54
20
-0.3
30
0
40
0.012
1
PAFTA ADI:
50
0
7
STANDARD
100
AcDbText
0
TEXT
5
40B
330
22B
100
AcDbEntity
100
AcDbText
8
METIN_BILGI
10
1.55
20
-0.33499999999999996
30
0
40
0.016
1
ALAN 1 & 3 ORTA KEDI YOLU 14 RRU MONTAJ VE GECIS ENKESITI
50
0
7
STANDARD
100
AcDbText
0
TEXT
5
40C
330
22B
100
AcDbEntity
100
AcDbText
8
METIN_BILGI
10
1.55
20
-0.365
30
0
40
0.013000000000000001
1
20cm OFSETLI 2" MONTAJ BORULARI VE SERBEST GECIS KORIDORU
50
0
7
STANDARD
100
AcDbText
0
LINE
5
40D
330
22B
100
AcDbEntity
100
AcDbLine
8
METIN_BILGI
10
1.52
20
-0.46
30
0
11
2.47
21
-0.46
31
0
0
LINE
5
40E
330
22B
100
AcDbEntity
100
AcDbLine
8
METIN_BILGI
10
1.995
20
-0.46
30
0
11
1.995
21
-0.39
31
0
0
TEXT
5
40F
330
22B
100
AcDbEntity
100
AcDbText
8
METIN_BILGI
10
1.54
20
-0.41800000000000004
30
0
40
0.01
1
PAFTA NO:
50
0
7
STANDARD
100
AcDbText
0
TEXT
5
410
330
22B
100
AcDbEntity
100
AcDbText
8
METIN_BILGI
10
1.55
20
-0.442
30
0
40
0.013000000000000001
1
DWG-TEL-09
50
0
7
STANDARD
100
AcDbText
0
TEXT
5
411
330
22B
100
AcDbEntity
100
AcDbText
8
METIN_BILGI
10
2.015
20
-0.41800000000000004
30
0
40
0.01
1
TARIH:
50
0
7
STANDARD
100
AcDbText
0
TEXT
5
412
330
22B
100
AcDbEntity
100
AcDbText
8
METIN_BILGI
10
2.025
20
-0.442
30
0
40
0.013000000000000001
1
EKIM 2026
50
0
7
STANDARD
100
AcDbText
0
LINE
5
413
330
22B
100
AcDbEntity
100
AcDbLine
8
METIN_BILGI
10
1.52
20
-0.53
30
0
11
2.47
21
-0.53
31
0
0
LINE
5
414
330
22B
100
AcDbEntity
100
AcDbLine
8
METIN_BILGI
10
1.995
20
-0.53
30
0
11
1.995
21
-0.46
31
0
0
TEXT
5
415
330
22B
100
AcDbEntity
100
AcDbText
8
METIN_BILGI
10
1.54
20
-0.48800000000000004
30
0
40
0.01
1
OLCEK:
50
0
7
STANDARD
100
AcDbText
0
TEXT
5
416
330
22B
100
AcDbEntity
100
AcDbText
8
METIN_BILGI
10
1.55
20
-0.512
30
0
40
0.013000000000000001
1
1:1 m (CAD)
50
0
7
STANDARD
100
AcDbText
0
TEXT
5
417
330
22B
100
AcDbEntity
100
AcDbText
8
METIN_BILGI
10
2.015
20
-0.48800000000000004
30
0
40
0.01
1
REV:
50
0
7
STANDARD
100
AcDbText
0
TEXT
5
418
330
22B
100
AcDbEntity
100
AcDbText
8
METIN_BILGI
10
2.025
20
-0.512
30
0
40
0.013000000000000001
1
REV-01
50
0
7
STANDARD
100
AcDbText
0
LINE
5
419
330
22B
100
AcDbEntity
100
AcDbLine
8
METIN_BILGI
10
1.52
20
-0.6000000000000001
30
0
11
2.47
21
-0.6000000000000001
31
0
0
LINE
5
41A
330
22B
100
AcDbEntity
100
AcDbLine
8
METIN_BILGI
10
1.995
20
-0.6000000000000001
30
0
11
1.995
21
-0.53
31
0
0
TEXT
5
41B
330
22B
100
AcDbEntity
100
AcDbText
8
METIN_BILGI
10
1.54
20
-0.558
30
0
40
0.01
1
CIZEN:
50
0
7
STANDARD
100
AcDbText
0
TEXT
5
41C
330
22B
100
AcDbEntity
100
AcDbText
8
METIN_BILGI
10
1.55
20
-0.5820000000000001
30
0
40
0.013000000000000001
1
ANTIGRAVITY CAD ENG
50
0
7
STANDARD
100
AcDbText
0
TEXT
5
41D
330
22B
100
AcDbEntity
100
AcDbText
8
METIN_BILGI
10
2.015
20
-0.558
30
0
40
0.01
1
KONTROL:
50
0
7
STANDARD
100
AcDbText
0
TEXT
5
41E
330
22B
100
AcDbEntity
100
AcDbText
8
METIN_BILGI
10
2.025
20
-0.5820000000000001
30
0
40
0.013000000000000001
1
BAS MUHENDISLIK
50
0
7
STANDARD
100
AcDbText
0
LINE
5
41F
330
22B
100
AcDbEntity
100
AcDbLine
8
METIN_BILGI
10
1.52
20
-0.67
30
0
11
2.47
21
-0.67
31
0
0
LINE
5
420
330
22B
100
AcDbEntity
100
AcDbLine
8
METIN_BILGI
10
1.995
20
-0.67
30
0
11
1.995
21
-0.6000000000000001
31
0
0
TEXT
5
421
330
22B
100
AcDbEntity
100
AcDbText
8
METIN_BILGI
10
1.54
20
-0.628
30
0
40
0.01
1
STATIK ONAY:
50
0
7
STANDARD
100
AcDbText
0
TEXT
5
422
330
22B
100
AcDbEntity
100
AcDbText
8
METIN_BILGI
10
1.55
20
-0.652
30
0
40
0.013000000000000001
1
UYGUNDUR (CE)
50
0
7
STANDARD
100
AcDbText
0
TEXT
5
423
330
22B
100
AcDbEntity
100
AcDbText
8
METIN_BILGI
10
2.015
20
-0.628
30
0
40
0.01
1
FORMAT:
50
0
7
STANDARD
100
AcDbText
0
TEXT
5
424
330
22B
100
AcDbEntity
100
AcDbText
8
METIN_BILGI
10
2.025
20
-0.652
30
0
40
0.013000000000000001
1
AUTOCAD DXF / DWG
50
0
7
STANDARD
100
AcDbText
0
LINE
5
425
330
22B
100
AcDbEntity
100
AcDbLine
8
METIN_BILGI
10
1.52
20
-0.74
30
0
11
2.47
21
-0.74
31
0
0
LINE
5
426
330
22B
100
AcDbEntity
100
AcDbLine
8
METIN_BILGI
10
1.995
20
-0.74
30
0
11
1.995
21
-0.6699999999999999
31
0
0
TEXT
5
427
330
22B
100
AcDbEntity
100
AcDbText
8
METIN_BILGI
10
1.54
20
-0.698
30
0
40
0.01
1
DISIPLIN:
50
0
7
STANDARD
100
AcDbText
0
TEXT
5
428
330
22B
100
AcDbEntity
100
AcDbText
8
METIN_BILGI
10
1.55
20
-0.722
30
0
40
0.013000000000000001
1
TELEKOM & ELEKTROMEKANIK
50
0
7
STANDARD
100
AcDbText
0
TEXT
5
429
330
22B
100
AcDbEntity
100
AcDbText
8
METIN_BILGI
10
2.015
20
-0.698
30
0
40
0.01
1
DURUM:
50
0
7
STANDARD
100
AcDbText
0
TEXT
5
42A
330
22B
100
AcDbEntity
100
AcDbText
8
METIN_BILGI
10
2.025
20
-0.722
30
0
40
0.013000000000000001
1
AS-BUILT / IMALAT
50
0
7
STANDARD
100
AcDbText
0
TEXT
5
42B
330
22B
100
AcDbEntity
100
AcDbText
8
METIN_BILGI
10
1.995
20
-0.885
30
0
40
0.011
1
BU PAFTA GSM OPERATORLERI VE STADYUM YONETIMI ONAYLI RESMI IMALAT PROJESIDIR.
50
0
7
STANDARD
72
1
11
1.995
21
-0.885
31
0
100
AcDbText
73
0
0
TEXT
5
42C
330
22B
100
AcDbEntity
100
AcDbText
8
METIN_BILGI
10
1.995
20
-0.905
30
0
40
0.01
1
TUM OLCULER YERINDE KONTROL EDILECEKTIR. OLCUSUZ IMALAT YAPILAMAZ.
50
0
7
STANDARD
72
1
11
1.995
21
-0.905
31
0
100
AcDbText
73
0
0
LWPOLYLINE
5
281
330
22B
100
AcDbEntity
100
AcDbPolyline
8
EKP_TURKCELL_RRU
6
ByLayer
62
256
370
-1
90
4
70
1
10
-1.8758500000000005
20
1.7300000000000002
10
-1.8758500000000005
20
2.21
10
-1.5198500000000004
20
2.21
10
-1.5198500000000004
20
1.7300000000000002
0
LINE
5
282
330
22B
100
AcDbEntity
100
AcDbLine
8
EKP_TURKCELL_RRU
10
-1.8458500000000004
20
1.7700000000000002
30
0
11
-1.8458500000000004
21
2.17
31
0
0
LINE
5
283
330
22B
100
AcDbEntity
100
AcDbLine
8
EKP_TURKCELL_RRU
10
-1.8208500000000005
20
1.7700000000000002
30
0
11
-1.8208500000000005
21
2.17
31
0
0
LINE
5
284
330
22B
100
AcDbEntity
100
AcDbLine
8
EKP_TURKCELL_RRU
10
-1.7958500000000006
20
1.7700000000000002
30
0
11
-1.7958500000000006
21
2.17
31
0
0
LINE
5
285
330
22B
100
AcDbEntity
100
AcDbLine
8
EKP_TURKCELL_RRU
10
-1.7708500000000007
20
1.7700000000000002
30
0
11
-1.7708500000000007
21
2.17
31
0
0
LINE
5
286
330
22B
100
AcDbEntity
100
AcDbLine
8
EKP_TURKCELL_RRU
10
-1.7458500000000008
20
1.7700000000000002
30
0
11
-1.7458500000000008
21
2.17
31
0
0
LINE
5
287
330
22B
100
AcDbEntity
100
AcDbLine
8
EKP_TURKCELL_RRU
10
-1.7208500000000009
20
1.7700000000000002
30
0
11
-1.7208500000000009
21
2.17
31
0
0
LINE
5
288
330
22B
100
AcDbEntity
100
AcDbLine
8
EKP_TURKCELL_RRU
10
-1.695850000000001
20
1.7700000000000002
30
0
11
-1.695850000000001
21
2.17
31
0
0
LINE
5
289
330
22B
100
AcDbEntity
100
AcDbLine
8
EKP_TURKCELL_RRU
10
-1.670850000000001
20
1.7700000000000002
30
0
11
-1.670850000000001
21
2.17
31
0
0
LINE
5
28A
330
22B
100
AcDbEntity
100
AcDbLine
8
EKP_TURKCELL_RRU
10
-1.6458500000000011
20
1.7700000000000002
30
0
11
-1.6458500000000011
21
2.17
31
0
0
LINE
5
28B
330
22B
100
AcDbEntity
100
AcDbLine
8
EKP_TURKCELL_RRU
10
-1.6208500000000012
20
1.7700000000000002
30
0
11
-1.6208500000000012
21
2.17
31
0
0
LINE
5
28C
330
22B
100
AcDbEntity
100
AcDbLine
8
EKP_TURKCELL_RRU
10
-1.5958500000000013
20
1.7700000000000002
30
0
11
-1.5958500000000013
21
2.17
31
0
0
LINE
5
28D
330
22B
100
AcDbEntity
100
AcDbLine
8
EKP_TURKCELL_RRU
10
-1.5708500000000014
20
1.7700000000000002
30
0
11
-1.5708500000000014
21
2.17
31
0
0
LWPOLYLINE
5
28E
330
22B
100
AcDbEntity
100
AcDbPolyline
8
EKP_TURKCELL_RRU
6
ByLayer
62
256
370
-1
90
4
70
1
10
-1.7558500000000006
20
2.21
10
-1.7558500000000006
20
2.255
10
-1.6398500000000005
20
2.255
10
-1.6398500000000005
20
2.21
0
LWPOLYLINE
5
2F0
330
22B
100
AcDbEntity
100
AcDbPolyline
8
EKP_TURKCELL_RRU
6
ByLayer
62
256
370
-1
90
4
70
1
10
0.45999999999999996
20
2.6000000000000005
10
0.45999999999999996
20
3.0800000000000005
10
0.72
20
3.0800000000000005
10
0.72
20
2.6000000000000005
0
LWPOLYLINE
5
2F3
330
22B
100
AcDbEntity
100
AcDbPolyline
8
EKP_TURKCELL_RRU
6
ByLayer
62
256
370
-1
90
4
70
1
10
0.6799999999999999
20
2.6000000000000005
10
0.6799999999999999
20
3.0800000000000005
10
0.94
20
3.0800000000000005
10
0.94
20
2.6000000000000005
0
LWPOLYLINE
5
2F7
330
22B
100
AcDbEntity
100
AcDbPolyline
8
EKP_TURKCELL_RRU
6
ByLayer
62
256
370
-1
90
4
70
1
10
0.45999999999999996
20
3.47
10
0.45999999999999996
20
3.95
10
0.72
20
3.95
10
0.72
20
3.47
0
LWPOLYLINE
5
2FA
330
22B
100
AcDbEntity
100
AcDbPolyline
8
EKP_TURKCELL_RRU
6
ByLayer
62
256
370
-1
90
4
70
1
10
0.6799999999999999
20
3.47
10
0.6799999999999999
20
3.95
10
0.94
20
3.95
10
0.94
20
3.47
0
LWPOLYLINE
5
361
330
22B
100
AcDbEntity
100
AcDbPolyline
8
EKP_TURKCELL_RRU
6
ByLayer
62
256
370
-1
90
4
70
1
10
-0.305
20
0.27
10
-0.305
20
0.63
10
0.11499999999999999
20
0.63
10
0.11499999999999999
20
0.27
0
LINE
5
362
330
22B
100
AcDbEntity
100
AcDbLine
8
EKP_TURKCELL_RRU
10
-0.265
20
0.30000000000000004
30
0
11
-0.265
21
0.6
31
0
0
LINE
5
363
330
22B
100
AcDbEntity
100
AcDbLine
8
EKP_TURKCELL_RRU
10
-0.23500000000000001
20
0.30000000000000004
30
0
11
-0.23500000000000001
21
0.6
31
0
0
LINE
5
364
330
22B
100
AcDbEntity
100
AcDbLine
8
EKP_TURKCELL_RRU
10
-0.20500000000000002
20
0.30000000000000004
30
0
11
-0.20500000000000002
21
0.6
31
0
0
LINE
5
365
330
22B
100
AcDbEntity
100
AcDbLine
8
EKP_TURKCELL_RRU
10
-0.17500000000000002
20
0.30000000000000004
30
0
11
-0.17500000000000002
21
0.6
31
0
0
LINE
5
366
330
22B
100
AcDbEntity
100
AcDbLine
8
EKP_TURKCELL_RRU
10
-0.14500000000000002
20
0.30000000000000004
30
0
11
-0.14500000000000002
21
0.6
31
0
0
LINE
5
367
330
22B
100
AcDbEntity
100
AcDbLine
8
EKP_TURKCELL_RRU
10
-0.11500000000000002
20
0.30000000000000004
30
0
11
-0.11500000000000002
21
0.6
31
0
0
LINE
5
368
330
22B
100
AcDbEntity
100
AcDbLine
8
EKP_TURKCELL_RRU
10
-0.08500000000000002
20
0.30000000000000004
30
0
11
-0.08500000000000002
21
0.6
31
0
0
LINE
5
369
330
22B
100
AcDbEntity
100
AcDbLine
8
EKP_TURKCELL_RRU
10
-0.05500000000000002
20
0.30000000000000004
30
0
11
-0.05500000000000002
21
0.6
31
0
0
LINE
5
36A
330
22B
100
AcDbEntity
100
AcDbLine
8
EKP_TURKCELL_RRU
10
-0.025000000000000022
20
0.30000000000000004
30
0
11
-0.025000000000000022
21
0.6
31
0
0
LINE
5
36B
330
22B
100
AcDbEntity
100
AcDbLine
8
EKP_TURKCELL_RRU
10
0.004999999999999977
20
0.30000000000000004
30
0
11
0.004999999999999977
21
0.6
31
0
0
LINE
5
36C
330
22B
100
AcDbEntity
100
AcDbLine
8
EKP_TURKCELL_RRU
10
0.034999999999999976
20
0.30000000000000004
30
0
11
0.034999999999999976
21
0.6
31
0
0
LINE
5
36D
330
22B
100
AcDbEntity
100
AcDbLine
8
EKP_TURKCELL_RRU
10
0.06499999999999997
20
0.30000000000000004
30
0
11
0.06499999999999997
21
0.6
31
0
0
LINE
5
36E
330
22B
100
AcDbEntity
100
AcDbLine
8
EKP_TURKCELL_RRU
10
0.09499999999999997
20
0.30000000000000004
30
0
11
0.09499999999999997
21
0.6
31
0
0
LWPOLYLINE
5
378
330
22B
100
AcDbEntity
100
AcDbPolyline
8
EKP_TURKCELL_RRU
6
ByLayer
62
256
370
-1
90
4
70
1
10
1.1
20
0.63
10
1.1
20
0.67
10
1.9000000000000001
20
0.67
10
1.9000000000000001
20
0.63
0
LWPOLYLINE
5
2E6
330
22B
100
AcDbEntity
100
AcDbPolyline
8
EKP_VODAFONE_RRU
6
ByLayer
62
256
370
-1
90
4
70
1
10
0.3999999999999999
20
1.7300000000000002
10
0.3999999999999999
20
2.21
10
0.6599999999999999
20
2.21
10
0.6599999999999999
20
1.7300000000000002
0
LWPOLYLINE
5
2E9
330
22B
100
AcDbEntity
100
AcDbPolyline
8
EKP_VODAFONE_RRU
6
ByLayer
62
256
370
-1
90
4
70
1
10
0.57
20
1.7300000000000002
10
0.57
20
2.21
10
0.83
20
2.21
10
0.83
20
1.7300000000000002
0
LWPOLYLINE
5
2EC
330
22B
100
AcDbEntity
100
AcDbPolyline
8
EKP_VODAFONE_RRU
6
ByLayer
62
256
370
-1
90
4
70
1
10
0.74
20
1.7300000000000002
10
0.74
20
2.21
10
1
20
2.21
10
1
20
1.7300000000000002
0
LWPOLYLINE
5
2FE
330
22B
100
AcDbEntity
100
AcDbPolyline
8
EKP_VODAFONE_RRU
6
ByLayer
62
256
370
-1
90
4
70
1
10
1.5
20
1.7300000000000002
10
1.5
20
2.21
10
1.76
20
2.21
10
1.76
20
1.7300000000000002
0
LWPOLYLINE
5
301
330
22B
100
AcDbEntity
100
AcDbPolyline
8
EKP_VODAFONE_RRU
6
ByLayer
62
256
370
-1
90
4
70
1
10
1.67
20
1.7300000000000002
10
1.67
20
2.21
10
1.93
20
2.21
10
1.93
20
1.7300000000000002
0
LWPOLYLINE
5
304
330
22B
100
AcDbEntity
100
AcDbPolyline
8
EKP_VODAFONE_RRU
6
ByLayer
62
256
370
-1
90
4
70
1
10
1.8399999999999999
20
1.7300000000000002
10
1.8399999999999999
20
2.21
10
2.0999999999999996
20
2.21
10
2.0999999999999996
20
1.7300000000000002
0
LWPOLYLINE
5
308
330
22B
100
AcDbEntity
100
AcDbPolyline
8
EKP_TURK_TELEKOM_RRU
6
ByLayer
62
256
370
-1
90
4
70
1
10
1.56
20
2.6000000000000005
10
1.56
20
3.0800000000000005
10
1.82
20
3.0800000000000005
10
1.82
20
2.6000000000000005
0
LWPOLYLINE
5
30B
330
22B
100
AcDbEntity
100
AcDbPolyline
8
EKP_TURK_TELEKOM_RRU
6
ByLayer
62
256
370
-1
90
4
70
1
10
1.7800000000000002
20
2.6000000000000005
10
1.7800000000000002
20
3.0800000000000005
10
2.04
20
3.0800000000000005
10
2.04
20
2.6000000000000005
0
LWPOLYLINE
5
30F
330
22B
100
AcDbEntity
100
AcDbPolyline
8
EKP_TURK_TELEKOM_RRU
6
ByLayer
62
256
370
-1
90
4
70
1
10
1.56
20
3.47
10
1.56
20
3.95
10
1.82
20
3.95
10
1.82
20
3.47
0
LWPOLYLINE
5
312
330
22B
100
AcDbEntity
100
AcDbPolyline
8
EKP_TURK_TELEKOM_RRU
6
ByLayer
62
256
370
-1
90
4
70
1
10
1.7800000000000002
20
3.47
10
1.7800000000000002
20
3.95
10
2.04
20
3.95
10
2.04
20
3.47
0
ENDSEC
0
SECTION
2
OBJECTS
0
DICTIONARY
5
219
330
0
100
AcDbDictionary
281
1
3
ACAD_GROUP
350
22F
0
DICTIONARY
5
22F
330
219
100
AcDbDictionary
281
1
0
ENDSEC
0
EOF