0
SECTION
2
HEADER
9
$HANDSEED
5
11FC1
9
$INSUNITS
70
6
9
$ACADVER
1
AC1021
9
$DWGCODEPAGE
3
UTF-8
0
ENDSEC
0
SECTION
2
CLASSES
0
ENDSEC
0
SECTION
2
TABLES
0
TABLE
2
LTYPE
5
11FBF
330
0
100
AcDbSymbolTable
70
5
0
LTYPE
5
11DA9
330
11FBF
100
AcDbSymbolTableRecord
100
AcDbLinetypeTableRecord
2
CONTINUOUS
3
______
70
0
72
65
73
0
40
0
0
LTYPE
5
11DAA
330
11FBF
100
AcDbSymbolTableRecord
100
AcDbLinetypeTableRecord
2
DASHED
3
_ _ _ 
70
0
72
65
73
2
40
10
49
5
74
0
49
-5
74
0
0
LTYPE
5
11DAB
330
11FBF
100
AcDbSymbolTableRecord
100
AcDbLinetypeTableRecord
2
DOTTED
3
. . . 
70
0
72
65
73
2
40
5
49
0
74
0
49
-5
74
0
0
LTYPE
5
11DAD
330
11FBF
100
AcDbSymbolTableRecord
100
AcDbLinetypeTableRecord
2
ByBlock
3

70
0
72
65
73
0
40
0
0
LTYPE
5
11DAE
330
11FBF
100
AcDbSymbolTableRecord
100
AcDbLinetypeTableRecord
2
ByLayer
3

70
0
72
65
73
0
40
0
0
ENDTAB
0
TABLE
2
LAYER
5
11FC0
330
0
100
AcDbSymbolTable
70
21
0
LAYER
5
11DAC
330
11FC0
100
AcDbSymbolTableRecord
100
AcDbLayerTableRecord
2
0
62
7
70
0
6
CONTINUOUS
390
1
0
LAYER
5
11DBF
330
11FC0
100
AcDbSymbolTableRecord
100
AcDbLayerTableRecord
2
ZEMIN_PLATFORM
62
8
70
0
6
CONTINUOUS
390
1
0
LAYER
5
11DC0
330
11FC0
100
AcDbSymbolTableRecord
100
AcDbLayerTableRecord
2
KORKULUK_KAPI
62
4
70
0
6
CONTINUOUS
390
1
0
LAYER
5
11DC1
330
11FC0
100
AcDbSymbolTableRecord
100
AcDbLayerTableRecord
2
CELIK_KIRIS_KOLON
62
9
70
0
6
CONTINUOUS
390
1
0
LAYER
5
11DC2
330
11FC0
100
AcDbSymbolTableRecord
100
AcDbLayerTableRecord
2
MONTAJ_BORULARI
62
2
70
0
6
CONTINUOUS
390
1
0
LAYER
5
11DC3
330
11FC0
100
AcDbSymbolTableRecord
100
AcDbLayerTableRecord
2
KABLO_TAVALARI
62
6
70
0
6
CONTINUOUS
390
1
0
LAYER
5
11DC4
330
11FC0
100
AcDbSymbolTableRecord
100
AcDbLayerTableRecord
2
YURUYUS_KORIDORU
62
3
70
0
6
DASHED
390
1
0
LAYER
5
11DC5
330
11FC0
100
AcDbSymbolTableRecord
100
AcDbLayerTableRecord
2
OLCULER
62
1
70
0
6
CONTINUOUS
390
1
0
LAYER
5
11DC6
330
11FC0
100
AcDbSymbolTableRecord
100
AcDbLayerTableRecord
2
METIN_BILGI
62
7
70
0
6
CONTINUOUS
390
1
0
LAYER
5
11DC7
330
11FC0
100
AcDbSymbolTableRecord
100
AcDbLayerTableRecord
2
EKP_TURKCELL_RRU
62
5
70
0
6
CONTINUOUS
390
1
0
LAYER
5
11DC8
330
11FC0
100
AcDbSymbolTableRecord
100
AcDbLayerTableRecord
2
EKP_VODAFONE_RRU
62
1
70
0
6
CONTINUOUS
390
1
0
LAYER
5
11DC9
330
11FC0
100
AcDbSymbolTableRecord
100
AcDbLayerTableRecord
2
EKP_TURK_TELEKOM_RRU
62
4
70
0
6
CONTINUOUS
390
1
0
LAYER
5
11DCA
330
11FC0
100
AcDbSymbolTableRecord
100
AcDbLayerTableRecord
2
EKP_POI_TASIYICI_SASE
62
30
70
0
6
CONTINUOUS
390
1
0
LAYER
5
11DCB
330
11FC0
100
AcDbSymbolTableRecord
100
AcDbLayerTableRecord
2
EKP_POI_MODULLERI
62
40
70
0
6
CONTINUOUS
390
1
0
LAYER
5
11DCC
330
11FC0
100
AcDbSymbolTableRecord
100
AcDbLayerTableRecord
2
EKP_RECTIFIER_ELTEK_20U
62
3
70
0
6
CONTINUOUS
390
1
0
LAYER
5
11DCD
330
11FC0
100
AcDbSymbolTableRecord
100
AcDbLayerTableRecord
2
EKP_RECTIFIER_MTS9304A
62
94
70
0
6
CONTINUOUS
390
1
0
LAYER
5
11DCE
330
11FC0
100
AcDbSymbolTableRecord
100
AcDbLayerTableRecord
2
BLOK_OZEL_PLATFORM
62
140
70
0
6
CONTINUOUS
390
1
0
LAYER
5
11DCF
330
11FC0
100
AcDbSymbolTableRecord
100
AcDbLayerTableRecord
2
EKP_MATSING_ANTEN
62
2
70
0
6
CONTINUOUS
390
1
0
LAYER
5
11DD0
330
11FC0
100
AcDbSymbolTableRecord
100
AcDbLayerTableRecord
2
EKP_PANEL_ANTEN
62
6
70
0
6
CONTINUOUS
390
1
0
LAYER
5
11DD1
330
11FC0
100
AcDbSymbolTableRecord
100
AcDbLayerTableRecord
2
EKP_ANTEN_TASIYICI_KOL
62
141
70
0
6
CONTINUOUS
390
1
0
LAYER
5
11DD2
330
11FC0
100
AcDbSymbolTableRecord
100
AcDbLayerTableRecord
2
EKP_DIGER_EKIPMANLAR
62
7
70
0
6
CONTINUOUS
390
1
0
ENDTAB
0
TABLE
2
VPORT
5
11DAF
330
0
100
AcDbSymbolTable
70
1
0
VPORT
5
11DB5
330
11DAF
100
AcDbSymbolTableRecord
100
AcDbViewportTableRecord
2
*ACTIVE
40
1000
70
0
0
ENDTAB
0
TABLE
2
STYLE
5
11DB0
330
0
100
AcDbSymbolTable
70
3
0
STYLE
5
11DB6
330
11DB0
100
AcDbSymbolTableRecord
100
AcDbTextStyleTableRecord
2
standard
70
0
40
0
41
1
50
0
71
0
42
1
3
calibrib.ttf
4

1001
ACAD
1000
Calibri
1071
33554466
0
STYLE
5
11DB7
330
11DB0
100
AcDbSymbolTableRecord
100
AcDbTextStyleTableRecord
2
STANDARD
70
0
40
0
41
1
50
0
71
0
42
1
3
calibrib.ttf
4

1001
ACAD
1000
Calibri
1071
33554466
0
STYLE
5
11DB8
330
11DB0
100
AcDbSymbolTableRecord
100
AcDbTextStyleTableRecord
2
CALIBRI_BOLD
70
0
40
0
41
1
50
0
71
0
42
1
3
calibrib.ttf
4

1001
ACAD
1000
Calibri
1071
33554466
0
ENDTAB
0
TABLE
2
VIEW
5
11DB1
330
0
100
AcDbSymbolTable
70
0
0
ENDTAB
0
TABLE
2
UCS
5
11DB2
330
0
100
AcDbSymbolTable
70
0
0
ENDTAB
0
TABLE
2
APPID
5
11DB3
330
0
100
AcDbSymbolTable
70
1
0
APPID
5
11DB9
330
11DB3
100
AcDbSymbolTableRecord
100
AcDbRegAppTableRecord
2
ACAD
70
0
0
ENDTAB
0
TABLE
2
DIMSTYLE
5
11DB4
330
0
100
AcDbSymbolTable
100
AcDbDimStyleTable
70
0
71
1
0
ENDTAB
0
TABLE
2
BLOCK_RECORD
5
11FBC
330
0
100
AcDbSymbolTable
70
2
0
BLOCK_RECORD
5
11FBD
330
11FBC
100
AcDbSymbolTableRecord
100
AcDbBlockTableRecord
2
*Model_Space
70
0
280
0
281
1
0
BLOCK_RECORD
5
11FBE
330
11FBC
100
AcDbSymbolTableRecord
100
AcDbBlockTableRecord
2
*Paper_Space
70
0
280
0
281
1
0
ENDTAB
0
ENDSEC
0
SECTION
2
BLOCKS
0
BLOCK
5
11DBA
330
0
100
AcDbEntity
100
AcDbBlockBegin
2
*Model_Space
70
0
10
0
20
0
30
0
3
*Model_Space
1

0
ENDBLK
5
11DBB
330
0
100
AcDbEntity
100
AcDbBlockEnd
0
BLOCK
5
11DBC
330
0
100
AcDbEntity
100
AcDbBlockBegin
2
*Paper_Space
70
0
10
0
20
0
30
0
3
*Paper_Space
1

0
ENDBLK
5
11DBD
330
0
100
AcDbEntity
100
AcDbBlockEnd
0
ENDSEC
0
SECTION
2
ENTITIES
0
LWPOLYLINE
5
11DDC
330
11DBA
100
AcDbEntity
100
AcDbPolyline
8
ZEMIN_PLATFORM
6
ByLayer
62
256
370
-1
90
4
70
1
10
-1.85
20
1.35
10
-1.85
20
1.385
10
-0.8500000000000001
20
1.385
10
-0.8500000000000001
20
1.35
0
LINE
5
11DDD
330
11DBA
100
AcDbEntity
100
AcDbLine
8
ZEMIN_PLATFORM
10
-1.8
20
1.35
30
0
11
-1.8
21
1.385
31
0
0
LINE
5
11DDE
330
11DBA
100
AcDbEntity
100
AcDbLine
8
ZEMIN_PLATFORM
10
-1.75
20
1.35
30
0
11
-1.75
21
1.385
31
0
0
LINE
5
11DDF
330
11DBA
100
AcDbEntity
100
AcDbLine
8
ZEMIN_PLATFORM
10
-1.7
20
1.35
30
0
11
-1.7
21
1.385
31
0
0
LINE
5
11DE0
330
11DBA
100
AcDbEntity
100
AcDbLine
8
ZEMIN_PLATFORM
10
-1.65
20
1.35
30
0
11
-1.65
21
1.385
31
0
0
LINE
5
11DE1
330
11DBA
100
AcDbEntity
100
AcDbLine
8
ZEMIN_PLATFORM
10
-1.5999999999999999
20
1.35
30
0
11
-1.5999999999999999
21
1.385
31
0
0
LINE
5
11DE2
330
11DBA
100
AcDbEntity
100
AcDbLine
8
ZEMIN_PLATFORM
10
-1.5499999999999998
20
1.35
30
0
11
-1.5499999999999998
21
1.385
31
0
0
LINE
5
11DE3
330
11DBA
100
AcDbEntity
100
AcDbLine
8
ZEMIN_PLATFORM
10
-1.4999999999999998
20
1.35
30
0
11
-1.4999999999999998
21
1.385
31
0
0
LINE
5
11DE4
330
11DBA
100
AcDbEntity
100
AcDbLine
8
ZEMIN_PLATFORM
10
-1.4499999999999997
20
1.35
30
0
11
-1.4499999999999997
21
1.385
31
0
0
LINE
5
11DE5
330
11DBA
100
AcDbEntity
100
AcDbLine
8
ZEMIN_PLATFORM
10
-1.3999999999999997
20
1.35
30
0
11
-1.3999999999999997
21
1.385
31
0
0
LINE
5
11DE6
330
11DBA
100
AcDbEntity
100
AcDbLine
8
ZEMIN_PLATFORM
10
-1.3499999999999996
20
1.35
30
0
11
-1.3499999999999996
21
1.385
31
0
0
LINE
5
11DE7
330
11DBA
100
AcDbEntity
100
AcDbLine
8
ZEMIN_PLATFORM
10
-1.2999999999999996
20
1.35
30
0
11
-1.2999999999999996
21
1.385
31
0
0
LINE
5
11DE8
330
11DBA
100
AcDbEntity
100
AcDbLine
8
ZEMIN_PLATFORM
10
-1.2499999999999996
20
1.35
30
0
11
-1.2499999999999996
21
1.385
31
0
0
LINE
5
11DE9
330
11DBA
100
AcDbEntity
100
AcDbLine
8
ZEMIN_PLATFORM
10
-1.1999999999999995
20
1.35
30
0
11
-1.1999999999999995
21
1.385
31
0
0
LINE
5
11DEA
330
11DBA
100
AcDbEntity
100
AcDbLine
8
ZEMIN_PLATFORM
10
-1.1499999999999995
20
1.35
30
0
11
-1.1499999999999995
21
1.385
31
0
0
LINE
5
11DEB
330
11DBA
100
AcDbEntity
100
AcDbLine
8
ZEMIN_PLATFORM
10
-1.0999999999999994
20
1.35
30
0
11
-1.0999999999999994
21
1.385
31
0
0
LINE
5
11DEC
330
11DBA
100
AcDbEntity
100
AcDbLine
8
ZEMIN_PLATFORM
10
-1.0499999999999994
20
1.35
30
0
11
-1.0499999999999994
21
1.385
31
0
0
LINE
5
11DED
330
11DBA
100
AcDbEntity
100
AcDbLine
8
ZEMIN_PLATFORM
10
-0.9999999999999993
20
1.35
30
0
11
-0.9999999999999993
21
1.385
31
0
0
LINE
5
11DEE
330
11DBA
100
AcDbEntity
100
AcDbLine
8
ZEMIN_PLATFORM
10
-0.9499999999999993
20
1.35
30
0
11
-0.9499999999999993
21
1.385
31
0
0
LINE
5
11DEF
330
11DBA
100
AcDbEntity
100
AcDbLine
8
ZEMIN_PLATFORM
10
-0.8999999999999992
20
1.35
30
0
11
-0.8999999999999992
21
1.385
31
0
0
LINE
5
11E5D
330
11DBA
100
AcDbEntity
100
AcDbLine
8
ZEMIN_PLATFORM
10
0.19999999999999996
20
1.35
30
0
11
2.35
21
1.35
31
0
0
LWPOLYLINE
5
11DF3
330
11DBA
100
AcDbEntity
100
AcDbPolyline
8
KORKULUK_KAPI
6
ByLayer
62
256
370
-1
90
4
70
1
10
-1.855
20
1.385
10
-1.855
20
2.4850000000000003
10
-1.815
20
2.4850000000000003
10
-1.815
20
1.385
0
CIRCLE
5
11DF4
330
11DBA
100
AcDbEntity
100
AcDbCircle
8
KORKULUK_KAPI
10
-1.8350000000000002
20
2.4850000000000003
30
0
40
0.022
0
LWPOLYLINE
5
11DF5
330
11DBA
100
AcDbEntity
100
AcDbPolyline
8
KORKULUK_KAPI
6
ByLayer
62
256
370
-1
90
4
70
1
10
-1.85
20
1.935
10
-1.85
20
1.96
10
-1.82
20
1.96
10
-1.82
20
1.935
0
LWPOLYLINE
5
11DF6
330
11DBA
100
AcDbEntity
100
AcDbPolyline
8
KORKULUK_KAPI
6
ByLayer
62
256
370
-1
90
4
70
1
10
-1.85
20
1.385
10
-1.85
20
1.535
10
-1.8350000000000002
20
1.535
10
-1.8350000000000002
20
1.385
0
LWPOLYLINE
5
11DF7
330
11DBA
100
AcDbEntity
100
AcDbPolyline
8
KORKULUK_KAPI
6
ByLayer
62
256
370
-1
90
4
70
1
10
-0.8850000000000001
20
1.385
10
-0.8850000000000001
20
2.4850000000000003
10
-0.8450000000000001
20
2.4850000000000003
10
-0.8450000000000001
20
1.385
0
CIRCLE
5
11DF8
330
11DBA
100
AcDbEntity
100
AcDbCircle
8
KORKULUK_KAPI
10
-0.8650000000000001
20
2.4850000000000003
30
0
40
0.022
0
LWPOLYLINE
5
11DF9
330
11DBA
100
AcDbEntity
100
AcDbPolyline
8
KORKULUK_KAPI
6
ByLayer
62
256
370
-1
90
4
70
1
10
-0.8750000000000001
20
1.935
10
-0.8750000000000001
20
1.96
10
-0.8450000000000001
20
1.96
10
-0.8450000000000001
20
1.935
0
LWPOLYLINE
5
11DFA
330
11DBA
100
AcDbEntity
100
AcDbPolyline
8
KORKULUK_KAPI
6
ByLayer
62
256
370
-1
90
4
70
1
10
-0.8600000000000001
20
1.385
10
-0.8600000000000001
20
1.535
10
-0.8450000000000001
20
1.535
10
-0.8450000000000001
20
1.385
0
LWPOLYLINE
5
11DF0
330
11DBA
100
AcDbEntity
100
AcDbPolyline
8
CELIK_KIRIS_KOLON
6
ByLayer
62
256
370
-1
90
4
70
1
10
-1.85
20
1.23
10
-1.85
20
1.35
10
-1.7950000000000002
20
1.35
10
-1.7950000000000002
20
1.23
0
LWPOLYLINE
5
11DF1
330
11DBA
100
AcDbEntity
100
AcDbPolyline
8
CELIK_KIRIS_KOLON
6
ByLayer
62
256
370
-1
90
4
70
1
10
-0.9050000000000001
20
1.23
10
-0.9050000000000001
20
1.35
10
-0.8500000000000001
20
1.35
10
-0.8500000000000001
20
1.23
0
LWPOLYLINE
5
11DF2
330
11DBA
100
AcDbEntity
100
AcDbPolyline
8
CELIK_KIRIS_KOLON
6
ByLayer
62
256
370
-1
90
4
70
1
10
-1.7950000000000002
20
1.25
10
-1.7950000000000002
20
1.275
10
-0.9050000000000001
20
1.275
10
-0.9050000000000001
20
1.25
0
LINE
5
11DFB
330
11DBA
100
AcDbEntity
100
AcDbLine
8
CELIK_KIRIS_KOLON
10
-2.098240095460031
20
1.1844022638948504
30
0
11
-2.418240095460031
21
2.5844022638948503
31
0
0
LINE
5
11DFC
330
11DBA
100
AcDbEntity
100
AcDbLine
8
CELIK_KIRIS_KOLON
10
-1.9617599045399696
20
1.21559773610515
30
0
11
-2.2817599045399692
21
2.61559773610515
31
0
0
CIRCLE
5
11DFE
330
11DBA
100
AcDbEntity
100
AcDbCircle
8
CELIK_KIRIS_KOLON
10
-2.0300000000000002
20
1.2000000000000002
30
0
40
0.17500000000000002
0
CIRCLE
5
11DFF
330
11DBA
100
AcDbEntity
100
AcDbCircle
8
CELIK_KIRIS_KOLON
10
-2.0300000000000002
20
1.2000000000000002
30
0
40
0.165
0
LWPOLYLINE
5
11E3A
330
11DBA
100
AcDbEntity
100
AcDbPolyline
8
CELIK_KIRIS_KOLON
6
ByLayer
62
256
370
-1
90
4
70
1
10
-1.6700000000000002
20
1.1500000000000001
10
-1.6700000000000002
20
1.1700000000000002
10
-1.1300000000000001
20
1.1700000000000002
10
-1.1300000000000001
20
1.1500000000000001
0
CIRCLE
5
11EBF
330
11DBA
100
AcDbEntity
100
AcDbCircle
8
CELIK_KIRIS_KOLON
10
-1.98
20
0.45
30
0
40
0.07
0
CIRCLE
5
11EC0
330
11DBA
100
AcDbEntity
100
AcDbCircle
8
CELIK_KIRIS_KOLON
10
-1.98
20
0.45
30
0
40
0.062
0
LWPOLYLINE
5
11E01
330
11DBA
100
AcDbEntity
100
AcDbPolyline
8
MONTAJ_BORULARI
6
ByLayer
62
256
370
-1
90
4
70
1
10
-2.2910000000000004
20
1.9200000000000002
10
-2.2910000000000004
20
2.02
10
-2.1210000000000004
20
2.02
10
-2.1210000000000004
20
1.9200000000000002
0
CIRCLE
5
11E02
330
11DBA
100
AcDbEntity
100
AcDbCircle
8
MONTAJ_BORULARI
10
-2.2060000000000004
20
1.9700000000000002
30
0
40
0.075
0
LWPOLYLINE
5
11E03
330
11DBA
100
AcDbEntity
100
AcDbPolyline
8
MONTAJ_BORULARI
6
ByLayer
62
256
370
-1
90
4
70
1
10
-2.3160000000000003
20
1.985
10
-2.3160000000000003
20
2.005
10
-2.2910000000000004
20
2.005
10
-2.2910000000000004
20
1.985
0
LWPOLYLINE
5
11E04
330
11DBA
100
AcDbEntity
100
AcDbPolyline
8
MONTAJ_BORULARI
6
ByLayer
62
256
370
-1
90
4
70
1
10
-2.3160000000000003
20
1.9350000000000003
10
-2.3160000000000003
20
1.9550000000000003
10
-2.2910000000000004
20
1.9550000000000003
10
-2.2910000000000004
20
1.9350000000000003
0
LWPOLYLINE
5
11E05
330
11DBA
100
AcDbEntity
100
AcDbPolyline
8
MONTAJ_BORULARI
6
ByLayer
62
256
370
-1
90
4
70
1
10
-2.1310000000000002
20
1.9400000000000002
10
-2.1310000000000002
20
2
10
-1.9310000000000003
20
2
10
-1.9310000000000003
20
1.9400000000000002
0
LINE
5
11E06
330
11DBA
100
AcDbEntity
100
AcDbLine
8
MONTAJ_BORULARI
10
-2.1310000000000002
20
2
30
0
11
-2.051
21
2
31
0
0
LINE
5
11E07
330
11DBA
100
AcDbEntity
100
AcDbLine
8
MONTAJ_BORULARI
10
-2.1310000000000002
20
2
30
0
11
-2.1310000000000002
21
2.06
31
0
0
LINE
5
11E08
330
11DBA
100
AcDbEntity
100
AcDbLine
8
MONTAJ_BORULARI
10
-2.1310000000000002
20
2.06
30
0
11
-2.051
21
2
31
0
0
LINE
5
11E09
330
11DBA
100
AcDbEntity
100
AcDbLine
8
MONTAJ_BORULARI
10
-2.1310000000000002
20
1.9400000000000002
30
0
11
-2.051
21
1.9400000000000002
31
0
0
LINE
5
11E0A
330
11DBA
100
AcDbEntity
100
AcDbLine
8
MONTAJ_BORULARI
10
-2.1310000000000002
20
1.9400000000000002
30
0
11
-2.1310000000000002
21
1.8800000000000001
31
0
0
LINE
5
11E0B
330
11DBA
100
AcDbEntity
100
AcDbLine
8
MONTAJ_BORULARI
10
-2.1310000000000002
20
1.8800000000000001
30
0
11
-2.051
21
1.9400000000000002
31
0
0
CIRCLE
5
11E0C
330
11DBA
100
AcDbEntity
100
AcDbCircle
8
MONTAJ_BORULARI
10
-1.9210000000000003
20
1.9700000000000002
30
0
40
0.03015
0
CIRCLE
5
11E0D
330
11DBA
100
AcDbEntity
100
AcDbCircle
8
MONTAJ_BORULARI
10
-1.9210000000000003
20
1.9700000000000002
30
0
40
0.026000000000000002
0
LWPOLYLINE
5
11E0E
330
11DBA
100
AcDbEntity
100
AcDbPolyline
8
MONTAJ_BORULARI
6
ByLayer
62
256
370
-1
90
4
70
1
10
-1.9610000000000003
20
1.9250000000000003
10
-1.9610000000000003
20
2.015
10
-1.9510000000000003
20
2.015
10
-1.9510000000000003
20
1.9250000000000003
0
LWPOLYLINE
5
11E0F
330
11DBA
100
AcDbEntity
100
AcDbPolyline
8
MONTAJ_BORULARI
6
ByLayer
62
256
370
-1
90
4
70
1
10
-1.9710000000000003
20
1.9350000000000003
10
-1.9710000000000003
20
2.0050000000000003
10
-1.9010000000000002
20
2.0050000000000003
10
-1.9010000000000002
20
1.9350000000000003
0
LWPOLYLINE
5
11E1E
330
11DBA
100
AcDbEntity
100
AcDbPolyline
8
MONTAJ_BORULARI
6
ByLayer
62
256
370
-1
90
4
70
1
10
-1.8378500000000004
20
1.6950000000000003
10
-1.8378500000000004
20
1.7300000000000002
10
-1.8138500000000004
20
1.7300000000000002
10
-1.8138500000000004
20
1.6950000000000003
0
LWPOLYLINE
5
11E21
330
11DBA
100
AcDbEntity
100
AcDbPolyline
8
MONTAJ_BORULARI
6
ByLayer
62
256
370
-1
90
4
70
1
10
-1.7878500000000004
20
1.6950000000000003
10
-1.7878500000000004
20
1.7300000000000002
10
-1.7638500000000004
20
1.7300000000000002
10
-1.7638500000000004
20
1.6950000000000003
0
LWPOLYLINE
5
11E24
330
11DBA
100
AcDbEntity
100
AcDbPolyline
8
MONTAJ_BORULARI
6
ByLayer
62
256
370
-1
90
4
70
1
10
-1.7378500000000003
20
1.6950000000000003
10
-1.7378500000000003
20
1.7300000000000002
10
-1.7138500000000003
20
1.7300000000000002
10
-1.7138500000000003
20
1.6950000000000003
0
LWPOLYLINE
5
11E27
330
11DBA
100
AcDbEntity
100
AcDbPolyline
8
MONTAJ_BORULARI
6
ByLayer
62
256
370
-1
90
4
70
1
10
-1.6878500000000003
20
1.6950000000000003
10
-1.6878500000000003
20
1.7300000000000002
10
-1.6638500000000003
20
1.7300000000000002
10
-1.6638500000000003
20
1.6950000000000003
0
LWPOLYLINE
5
11E2A
330
11DBA
100
AcDbEntity
100
AcDbPolyline
8
MONTAJ_BORULARI
6
ByLayer
62
256
370
-1
90
4
70
1
10
-1.6378500000000003
20
1.6950000000000003
10
-1.6378500000000003
20
1.7300000000000002
10
-1.6138500000000002
20
1.7300000000000002
10
-1.6138500000000002
20
1.6950000000000003
0
LWPOLYLINE
5
11E2D
330
11DBA
100
AcDbEntity
100
AcDbPolyline
8
MONTAJ_BORULARI
6
ByLayer
62
256
370
-1
90
4
70
1
10
-1.5878500000000002
20
1.6950000000000003
10
-1.5878500000000002
20
1.7300000000000002
10
-1.5638500000000002
20
1.7300000000000002
10
-1.5638500000000002
20
1.6950000000000003
0
LWPOLYLINE
5
11E5F
330
11DBA
100
AcDbEntity
100
AcDbPolyline
8
MONTAJ_BORULARI
6
ByLayer
62
256
370
-1
90
4
70
1
10
0.66985
20
1.4500000000000002
10
0.66985
20
4.35
10
0.73015
20
4.35
10
0.73015
20
1.4500000000000002
0
LWPOLYLINE
5
11E60
330
11DBA
100
AcDbEntity
100
AcDbPolyline
8
MONTAJ_BORULARI
6
ByLayer
62
256
370
-1
90
4
70
1
10
0.6649999999999999
20
1.4400000000000002
10
0.6649999999999999
20
1.455
10
0.7349999999999999
20
1.455
10
0.7349999999999999
20
1.4400000000000002
0
LWPOLYLINE
5
11E61
330
11DBA
100
AcDbEntity
100
AcDbPolyline
8
MONTAJ_BORULARI
6
ByLayer
62
256
370
-1
90
4
70
1
10
0.6649999999999999
20
4.345
10
0.6649999999999999
20
4.359999999999999
10
0.7349999999999999
20
4.359999999999999
10
0.7349999999999999
20
4.345
0
LWPOLYLINE
5
11E64
330
11DBA
100
AcDbEntity
100
AcDbPolyline
8
MONTAJ_BORULARI
6
ByLayer
62
256
370
-1
90
4
70
1
10
1.7698500000000001
20
1.4500000000000002
10
1.7698500000000001
20
4.35
10
1.8301500000000002
20
4.35
10
1.8301500000000002
20
1.4500000000000002
0
LWPOLYLINE
5
11E65
330
11DBA
100
AcDbEntity
100
AcDbPolyline
8
MONTAJ_BORULARI
6
ByLayer
62
256
370
-1
90
4
70
1
10
1.7650000000000001
20
1.4400000000000002
10
1.7650000000000001
20
1.455
10
1.8350000000000002
20
1.455
10
1.8350000000000002
20
1.4400000000000002
0
LWPOLYLINE
5
11E66
330
11DBA
100
AcDbEntity
100
AcDbPolyline
8
MONTAJ_BORULARI
6
ByLayer
62
256
370
-1
90
4
70
1
10
1.7650000000000001
20
4.345
10
1.7650000000000001
20
4.359999999999999
10
1.8350000000000002
20
4.359999999999999
10
1.8350000000000002
20
4.345
0
LWPOLYLINE
5
11E69
330
11DBA
100
AcDbEntity
100
AcDbPolyline
8
MONTAJ_BORULARI
6
ByLayer
62
256
370
-1
90
4
70
1
10
0.49999999999999994
20
2.0050000000000003
10
0.49999999999999994
20
2.055
10
0.7
20
2.055
10
0.7
20
2.0050000000000003
0
LWPOLYLINE
5
11E6B
330
11DBA
100
AcDbEntity
100
AcDbPolyline
8
MONTAJ_BORULARI
6
ByLayer
62
256
370
-1
90
4
70
1
10
1.83015
20
2.0050000000000003
10
1.83015
20
2.055
10
2.03015
20
2.055
10
2.03015
20
2.0050000000000003
0
LWPOLYLINE
5
11E6D
330
11DBA
100
AcDbEntity
100
AcDbPolyline
8
MONTAJ_BORULARI
6
ByLayer
62
256
370
-1
90
4
70
1
10
0.49999999999999994
20
2.8750000000000004
10
0.49999999999999994
20
2.9250000000000003
10
0.7
20
2.9250000000000003
10
0.7
20
2.8750000000000004
0
LWPOLYLINE
5
11E6F
330
11DBA
100
AcDbEntity
100
AcDbPolyline
8
MONTAJ_BORULARI
6
ByLayer
62
256
370
-1
90
4
70
1
10
1.83015
20
2.8750000000000004
10
1.83015
20
2.9250000000000003
10
2.03015
20
2.9250000000000003
10
2.03015
20
2.8750000000000004
0
LWPOLYLINE
5
11E71
330
11DBA
100
AcDbEntity
100
AcDbPolyline
8
MONTAJ_BORULARI
6
ByLayer
62
256
370
-1
90
4
70
1
10
0.49999999999999994
20
3.745
10
0.49999999999999994
20
3.795
10
0.7
20
3.795
10
0.7
20
3.745
0
LWPOLYLINE
5
11E73
330
11DBA
100
AcDbEntity
100
AcDbPolyline
8
MONTAJ_BORULARI
6
ByLayer
62
256
370
-1
90
4
70
1
10
1.83015
20
3.745
10
1.83015
20
3.795
10
2.03015
20
3.795
10
2.03015
20
3.745
0
LWPOLYLINE
5
11EC2
330
11DBA
100
AcDbEntity
100
AcDbPolyline
8
MONTAJ_BORULARI
6
ByLayer
62
256
370
-1
90
4
70
1
10
-2.075
20
0.365
10
-2.075
20
0.535
10
-1.8850000000000002
20
0.535
10
-1.8850000000000002
20
0.365
0
CIRCLE
5
11EC3
330
11DBA
100
AcDbEntity
100
AcDbCircle
8
MONTAJ_BORULARI
10
-1.98
20
0.45
30
0
40
0.078
0
CIRCLE
5
11EC4
330
11DBA
100
AcDbEntity
100
AcDbCircle
8
MONTAJ_BORULARI
10
-2.0500000000000003
20
0.505
30
0
40
0.008
0
CIRCLE
5
11EC5
330
11DBA
100
AcDbEntity
100
AcDbCircle
8
MONTAJ_BORULARI
10
-2.0500000000000003
20
0.395
30
0
40
0.008
0
CIRCLE
5
11EC6
330
11DBA
100
AcDbEntity
100
AcDbCircle
8
MONTAJ_BORULARI
10
-1.9100000000000001
20
0.505
30
0
40
0.008
0
CIRCLE
5
11EC7
330
11DBA
100
AcDbEntity
100
AcDbCircle
8
MONTAJ_BORULARI
10
-1.9100000000000001
20
0.395
30
0
40
0.008
0
LWPOLYLINE
5
11EC8
330
11DBA
100
AcDbEntity
100
AcDbPolyline
8
MONTAJ_BORULARI
6
ByLayer
62
256
370
-1
90
4
70
1
10
-1.8900000000000001
20
0.42000000000000004
10
-1.8900000000000001
20
0.48000000000000004
10
-1.6900000000000002
20
0.48000000000000004
10
-1.6900000000000002
20
0.42000000000000004
0
LWPOLYLINE
5
11EC9
330
11DBA
100
AcDbEntity
100
AcDbPolyline
8
MONTAJ_BORULARI
6
ByLayer
62
256
370
-1
90
4
70
1
10
-1.8860000000000001
20
0.424
10
-1.8860000000000001
20
0.476
10
-1.6940000000000002
20
0.476
10
-1.6940000000000002
20
0.424
0
LINE
5
11ECB
330
11DBA
100
AcDbEntity
100
AcDbLine
8
MONTAJ_BORULARI
10
-1.8900000000000001
20
0.48
30
0
11
-1.81
21
0.48
31
0
0
LINE
5
11ECC
330
11DBA
100
AcDbEntity
100
AcDbLine
8
MONTAJ_BORULARI
10
-1.8900000000000001
20
0.48
30
0
11
-1.8900000000000001
21
0.53
31
0
0
LINE
5
11ECD
330
11DBA
100
AcDbEntity
100
AcDbLine
8
MONTAJ_BORULARI
10
-1.8900000000000001
20
0.53
30
0
11
-1.81
21
0.48
31
0
0
LINE
5
11ECE
330
11DBA
100
AcDbEntity
100
AcDbLine
8
MONTAJ_BORULARI
10
-1.8900000000000001
20
0.42000000000000004
30
0
11
-1.81
21
0.42000000000000004
31
0
0
LINE
5
11ECF
330
11DBA
100
AcDbEntity
100
AcDbLine
8
MONTAJ_BORULARI
10
-1.8900000000000001
20
0.42000000000000004
30
0
11
-1.8900000000000001
21
0.37
31
0
0
LINE
5
11ED0
330
11DBA
100
AcDbEntity
100
AcDbLine
8
MONTAJ_BORULARI
10
-1.8900000000000001
20
0.37
30
0
11
-1.81
21
0.42000000000000004
31
0
0
CIRCLE
5
11ED1
330
11DBA
100
AcDbEntity
100
AcDbCircle
8
MONTAJ_BORULARI
10
-1.6550000000000002
20
0.45
30
0
40
0.03015
0
CIRCLE
5
11ED2
330
11DBA
100
AcDbEntity
100
AcDbCircle
8
MONTAJ_BORULARI
10
-1.6550000000000002
20
0.45
30
0
40
0.026000000000000002
0
LWPOLYLINE
5
11ED3
330
11DBA
100
AcDbEntity
100
AcDbPolyline
8
MONTAJ_BORULARI
6
ByLayer
62
256
370
-1
90
4
70
1
10
-1.6950000000000003
20
0.405
10
-1.6950000000000003
20
0.495
10
-1.6850000000000003
20
0.495
10
-1.6850000000000003
20
0.405
0
LWPOLYLINE
5
11ED4
330
11DBA
100
AcDbEntity
100
AcDbPolyline
8
MONTAJ_BORULARI
6
ByLayer
62
256
370
-1
90
4
70
1
10
-1.7030000000000003
20
0.41400000000000003
10
-1.7030000000000003
20
0.48600000000000004
10
-1.6270000000000002
20
0.48600000000000004
10
-1.6270000000000002
20
0.41400000000000003
0
CIRCLE
5
11ED5
330
11DBA
100
AcDbEntity
100
AcDbCircle
8
MONTAJ_BORULARI
10
-1.6950000000000003
20
0.486
30
0
40
0.006
0
CIRCLE
5
11ED6
330
11DBA
100
AcDbEntity
100
AcDbCircle
8
MONTAJ_BORULARI
10
-1.6950000000000003
20
0.41400000000000003
30
0
40
0.006
0
CIRCLE
5
11EE6
330
11DBA
100
AcDbEntity
100
AcDbCircle
8
MONTAJ_BORULARI
10
-0.38
20
0.45
30
0
40
0.03015
0
CIRCLE
5
11EE7
330
11DBA
100
AcDbEntity
100
AcDbCircle
8
MONTAJ_BORULARI
10
-0.38
20
0.45
30
0
40
0.026000000000000002
0
LWPOLYLINE
5
11EE8
330
11DBA
100
AcDbEntity
100
AcDbPolyline
8
MONTAJ_BORULARI
6
ByLayer
62
256
370
-1
90
4
70
1
10
-0.425
20
0.39
10
-0.425
20
0.51
10
-0.33499999999999996
20
0.51
10
-0.33499999999999996
20
0.39
0
CIRCLE
5
11EE9
330
11DBA
100
AcDbEntity
100
AcDbCircle
8
MONTAJ_BORULARI
10
-0.38
20
0.45
30
0
40
0.034
0
CIRCLE
5
11EEA
330
11DBA
100
AcDbEntity
100
AcDbCircle
8
MONTAJ_BORULARI
10
-0.405
20
0.495
30
0
40
0.005
0
CIRCLE
5
11EEB
330
11DBA
100
AcDbEntity
100
AcDbCircle
8
MONTAJ_BORULARI
10
-0.405
20
0.405
30
0
40
0.005
0
LWPOLYLINE
5
11EED
330
11DBA
100
AcDbEntity
100
AcDbPolyline
8
MONTAJ_BORULARI
6
ByLayer
62
256
370
-1
90
4
70
1
10
-0.34
20
0.444
10
-0.34
20
0.456
10
-0.30500000000000005
20
0.456
10
-0.30500000000000005
20
0.444
0
CIRCLE
5
11EEE
330
11DBA
100
AcDbEntity
100
AcDbCircle
8
MONTAJ_BORULARI
10
-0.305
20
0.45
30
0
40
0.01
0
LINE
5
11F01
330
11DBA
100
AcDbEntity
100
AcDbLine
8
MONTAJ_BORULARI
10
-0.38
20
0.48015
30
0
11
-0.35
21
0.63
31
0
0
LINE
5
11F02
330
11DBA
100
AcDbEntity
100
AcDbLine
8
MONTAJ_BORULARI
10
-0.35
20
0.63
30
0
11
-0.185
21
0.63
31
0
0
LINE
5
11F03
330
11DBA
100
AcDbEntity
100
AcDbLine
8
MONTAJ_BORULARI
10
-0.185
20
0.63
30
0
11
-0.185
21
0.61
31
0
0
LWPOLYLINE
5
11F09
330
11DBA
100
AcDbEntity
100
AcDbPolyline
8
MONTAJ_BORULARI
6
ByLayer
62
256
370
-1
90
4
70
1
10
1.24
20
0.585
10
1.24
20
0.63
10
1.28
20
0.63
10
1.28
20
0.585
0
LWPOLYLINE
5
11F0A
330
11DBA
100
AcDbEntity
100
AcDbPolyline
8
MONTAJ_BORULARI
6
ByLayer
62
256
370
-1
90
4
70
1
10
1.245
20
0.5700000000000001
10
1.245
20
0.5850000000000001
10
1.2750000000000001
20
0.5850000000000001
10
1.2750000000000001
20
0.5700000000000001
0
LWPOLYLINE
5
11F0F
330
11DBA
100
AcDbEntity
100
AcDbPolyline
8
MONTAJ_BORULARI
6
ByLayer
62
256
370
-1
90
4
70
1
10
1.4
20
0.585
10
1.4
20
0.63
10
1.44
20
0.63
10
1.44
20
0.585
0
LWPOLYLINE
5
11F10
330
11DBA
100
AcDbEntity
100
AcDbPolyline
8
MONTAJ_BORULARI
6
ByLayer
62
256
370
-1
90
4
70
1
10
1.405
20
0.5700000000000001
10
1.405
20
0.5850000000000001
10
1.435
20
0.5850000000000001
10
1.435
20
0.5700000000000001
0
LWPOLYLINE
5
11F15
330
11DBA
100
AcDbEntity
100
AcDbPolyline
8
MONTAJ_BORULARI
6
ByLayer
62
256
370
-1
90
4
70
1
10
1.56
20
0.585
10
1.56
20
0.63
10
1.6
20
0.63
10
1.6
20
0.585
0
LWPOLYLINE
5
11F16
330
11DBA
100
AcDbEntity
100
AcDbPolyline
8
MONTAJ_BORULARI
6
ByLayer
62
256
370
-1
90
4
70
1
10
1.5650000000000002
20
0.5700000000000001
10
1.5650000000000002
20
0.5850000000000001
10
1.5950000000000002
20
0.5850000000000001
10
1.5950000000000002
20
0.5700000000000001
0
LWPOLYLINE
5
11F1B
330
11DBA
100
AcDbEntity
100
AcDbPolyline
8
MONTAJ_BORULARI
6
ByLayer
62
256
370
-1
90
4
70
1
10
1.72
20
0.585
10
1.72
20
0.63
10
1.76
20
0.63
10
1.76
20
0.585
0
LWPOLYLINE
5
11F1C
330
11DBA
100
AcDbEntity
100
AcDbPolyline
8
MONTAJ_BORULARI
6
ByLayer
62
256
370
-1
90
4
70
1
10
1.725
20
0.5700000000000001
10
1.725
20
0.5850000000000001
10
1.7550000000000001
20
0.5850000000000001
10
1.7550000000000001
20
0.5700000000000001
0
LWPOLYLINE
5
11F21
330
11DBA
100
AcDbEntity
100
AcDbPolyline
8
MONTAJ_BORULARI
6
ByLayer
62
256
370
-1
90
4
70
1
10
1.7950000000000002
20
0.6
10
1.7950000000000002
20
0.63
10
1.8450000000000002
20
0.63
10
1.8450000000000002
20
0.6
0
CIRCLE
5
11F22
330
11DBA
100
AcDbEntity
100
AcDbCircle
8
MONTAJ_BORULARI
10
1.82
20
0.615
30
0
40
0.005
0
LINE
5
11E1F
330
11DBA
100
AcDbEntity
100
AcDbLine
8
KABLO_TAVALARI
10
-1.8258500000000004
20
1.6950000000000003
30
0
11
-1.8258500000000004
21
1.6100000000000003
31
0
0
LINE
5
11E20
330
11DBA
100
AcDbEntity
100
AcDbLine
8
KABLO_TAVALARI
10
-1.8258500000000004
20
1.6100000000000003
30
0
11
-1.8858500000000005
21
1.5300000000000002
31
0
0
LINE
5
11E22
330
11DBA
100
AcDbEntity
100
AcDbLine
8
KABLO_TAVALARI
10
-1.7758500000000004
20
1.6950000000000003
30
0
11
-1.7758500000000004
21
1.6100000000000003
31
0
0
LINE
5
11E23
330
11DBA
100
AcDbEntity
100
AcDbLine
8
KABLO_TAVALARI
10
-1.7758500000000004
20
1.6100000000000003
30
0
11
-1.8358500000000004
21
1.5300000000000002
31
0
0
LINE
5
11E25
330
11DBA
100
AcDbEntity
100
AcDbLine
8
KABLO_TAVALARI
10
-1.7258500000000003
20
1.6950000000000003
30
0
11
-1.7258500000000003
21
1.6100000000000003
31
0
0
LINE
5
11E26
330
11DBA
100
AcDbEntity
100
AcDbLine
8
KABLO_TAVALARI
10
-1.7258500000000003
20
1.6100000000000003
30
0
11
-1.7858500000000004
21
1.5300000000000002
31
0
0
LINE
5
11E28
330
11DBA
100
AcDbEntity
100
AcDbLine
8
KABLO_TAVALARI
10
-1.6758500000000003
20
1.6950000000000003
30
0
11
-1.6758500000000003
21
1.6100000000000003
31
0
0
LINE
5
11E29
330
11DBA
100
AcDbEntity
100
AcDbLine
8
KABLO_TAVALARI
10
-1.6758500000000003
20
1.6100000000000003
30
0
11
-1.7358500000000003
21
1.5300000000000002
31
0
0
LINE
5
11E2B
330
11DBA
100
AcDbEntity
100
AcDbLine
8
KABLO_TAVALARI
10
-1.6258500000000002
20
1.6950000000000003
30
0
11
-1.6258500000000002
21
1.6100000000000003
31
0
0
LINE
5
11E2C
330
11DBA
100
AcDbEntity
100
AcDbLine
8
KABLO_TAVALARI
10
-1.6258500000000002
20
1.6100000000000003
30
0
11
-1.6858500000000003
21
1.5300000000000002
31
0
0
LINE
5
11E2E
330
11DBA
100
AcDbEntity
100
AcDbLine
8
KABLO_TAVALARI
10
-1.5758500000000002
20
1.6950000000000003
30
0
11
-1.5758500000000002
21
1.6100000000000003
31
0
0
LINE
5
11E2F
330
11DBA
100
AcDbEntity
100
AcDbLine
8
KABLO_TAVALARI
10
-1.5758500000000002
20
1.6100000000000003
30
0
11
-1.6358500000000002
21
1.5300000000000002
31
0
0
LWPOLYLINE
5
11E39
330
11DBA
100
AcDbEntity
100
AcDbPolyline
8
KABLO_TAVALARI
6
ByLayer
62
256
370
-1
90
4
70
1
10
-1.6500000000000001
20
1.1700000000000002
10
-1.6500000000000001
20
1.2700000000000002
10
-1.1500000000000001
20
1.2700000000000002
10
-1.1500000000000001
20
1.1700000000000002
0
LWPOLYLINE
5
11F0B
330
11DBA
100
AcDbEntity
100
AcDbPolyline
8
KABLO_TAVALARI
6
ByLayer
62
256
370
-1
90
4
70
1
10
1.242
20
0.49
10
1.242
20
0.57
10
1.278
20
0.57
10
1.278
20
0.49
0
LINE
5
11F0D
330
11DBA
100
AcDbEntity
100
AcDbLine
8
KABLO_TAVALARI
10
1.26
20
0.49
30
0
11
1.26
21
0.31
31
0
0
LWPOLYLINE
5
11F11
330
11DBA
100
AcDbEntity
100
AcDbPolyline
8
KABLO_TAVALARI
6
ByLayer
62
256
370
-1
90
4
70
1
10
1.402
20
0.49
10
1.402
20
0.57
10
1.438
20
0.57
10
1.438
20
0.49
0
LINE
5
11F13
330
11DBA
100
AcDbEntity
100
AcDbLine
8
KABLO_TAVALARI
10
1.42
20
0.49
30
0
11
1.42
21
0.31
31
0
0
LWPOLYLINE
5
11F17
330
11DBA
100
AcDbEntity
100
AcDbPolyline
8
KABLO_TAVALARI
6
ByLayer
62
256
370
-1
90
4
70
1
10
1.562
20
0.49
10
1.562
20
0.57
10
1.598
20
0.57
10
1.598
20
0.49
0
LINE
5
11F19
330
11DBA
100
AcDbEntity
100
AcDbLine
8
KABLO_TAVALARI
10
1.58
20
0.49
30
0
11
1.58
21
0.31
31
0
0
LWPOLYLINE
5
11F1D
330
11DBA
100
AcDbEntity
100
AcDbPolyline
8
KABLO_TAVALARI
6
ByLayer
62
256
370
-1
90
4
70
1
10
1.722
20
0.49
10
1.722
20
0.57
10
1.758
20
0.57
10
1.758
20
0.49
0
LINE
5
11F1F
330
11DBA
100
AcDbEntity
100
AcDbLine
8
KABLO_TAVALARI
10
1.74
20
0.49
30
0
11
1.74
21
0.31
31
0
0
LINE
5
11DFD
330
11DBA
100
AcDbEntity
100
AcDbLine
8
YURUYUS_KORIDORU
10
-2.0300000000000002
20
1.2000000000000002
30
0
11
-2.35
21
2.6
31
0
0
LINE
5
11E33
330
11DBA
100
AcDbEntity
100
AcDbLine
8
YURUYUS_KORIDORU
10
-1.81
20
1.385
30
0
11
-1.81
21
3.385
31
0
0
LINE
5
11E34
330
11DBA
100
AcDbEntity
100
AcDbLine
8
YURUYUS_KORIDORU
10
-0.8900000000000001
20
1.385
30
0
11
-0.8900000000000001
21
3.385
31
0
0
LINE
5
11E35
330
11DBA
100
AcDbEntity
100
AcDbLine
8
YURUYUS_KORIDORU
10
-1.81
20
3.335
30
0
11
-0.8900000000000001
21
3.335
31
0
0
TEXT
5
11E36
330
11DBA
100
AcDbEntity
100
AcDbText
8
YURUYUS_KORIDORU
10
-1.35
20
2.385
30
0
40
0.022
1
NET SERBEST GECIS KORIDORU
50
0
7
STANDARD
72
1
11
-1.35
21
2.385
31
0
100
AcDbText
73
0
0
TEXT
5
11E37
330
11DBA
100
AcDbEntity
100
AcDbText
8
YURUYUS_KORIDORU
10
-1.35
20
2.335
30
0
40
0.016
1
(CLEARANCE >= 850 MM)
50
0
7
STANDARD
72
1
11
-1.35
21
2.335
31
0
100
AcDbText
73
0
0
TEXT
5
11E38
330
11DBA
100
AcDbEntity
100
AcDbText
8
YURUYUS_KORIDORU
10
-1.35
20
2.285
30
0
40
0.013000000000000001
1
PERSONEL GECISINE TAM UYGUN
50
0
7
STANDARD
72
1
11
-1.35
21
2.285
31
0
100
AcDbText
73
0
0
LINE
5
11F23
330
11DBA
100
AcDbEntity
100
AcDbLine
8
YURUYUS_KORIDORU
10
1.82
20
0.6
30
0
11
1.82
21
0.37
31
0
0
LINE
5
11F24
330
11DBA
100
AcDbEntity
100
AcDbLine
8
YURUYUS_KORIDORU
10
1.82
20
0.37
30
0
11
1.72
21
0.31
31
0
0
LINE
5
11E3C
330
11DBA
100
AcDbEntity
100
AcDbLine
8
OLCULER
10
-1.85
20
1.1900000000000002
30
0
11
-1.85
21
1.07
31
0
0
LINE
5
11E3D
330
11DBA
100
AcDbEntity
100
AcDbLine
8
OLCULER
10
-0.8500000000000001
20
1.1900000000000002
30
0
11
-0.8500000000000001
21
1.07
31
0
0
LINE
5
11E3E
330
11DBA
100
AcDbEntity
100
AcDbLine
8
OLCULER
10
-1.85
20
1.11
30
0
11
-0.8500000000000001
21
1.11
31
0
0
LINE
5
11E3F
330
11DBA
100
AcDbEntity
100
AcDbLine
8
OLCULER
10
-1.8780000000000001
20
1.082
30
0
11
-1.822
21
1.1380000000000001
31
0
0
LINE
5
11E40
330
11DBA
100
AcDbEntity
100
AcDbLine
8
OLCULER
10
-0.8780000000000001
20
1.082
30
0
11
-0.8220000000000001
21
1.1380000000000001
31
0
0
TEXT
5
11E41
330
11DBA
100
AcDbEntity
100
AcDbText
8
OLCULER
10
-1.35
20
1.026
30
0
40
0.06
1
1000 mm (KEDI YOLU NET GENISLIGI)
50
0
7
STANDARD
72
1
11
-1.35
21
1.026
31
0
100
AcDbText
73
2
0
LINE
5
11E42
330
11DBA
100
AcDbEntity
100
AcDbLine
8
OLCULER
10
-1.85
20
1.385
30
0
11
-1.9900000000000002
21
1.385
31
0
0
LINE
5
11E43
330
11DBA
100
AcDbEntity
100
AcDbLine
8
OLCULER
10
-1.85
20
2.4850000000000003
30
0
11
-1.9900000000000002
21
2.4850000000000003
31
0
0
LINE
5
11E44
330
11DBA
100
AcDbEntity
100
AcDbLine
8
OLCULER
10
-1.9500000000000002
20
1.385
30
0
11
-1.9500000000000002
21
2.4850000000000003
31
0
0
LINE
5
11E45
330
11DBA
100
AcDbEntity
100
AcDbLine
8
OLCULER
10
-1.9780000000000002
20
1.357
30
0
11
-1.9220000000000002
21
1.413
31
0
0
LINE
5
11E46
330
11DBA
100
AcDbEntity
100
AcDbLine
8
OLCULER
10
-1.9780000000000002
20
2.4570000000000003
30
0
11
-1.9220000000000002
21
2.5130000000000003
31
0
0
TEXT
5
11E47
330
11DBA
100
AcDbEntity
100
AcDbText
8
OLCULER
10
-1.9920000000000002
20
1.935
30
0
40
0.06
1
1100 mm (KORKULUK YUKSEKLIGI)
50
90
7
STANDARD
72
1
11
-1.9920000000000002
21
1.935
31
0
100
AcDbText
73
2
0
LINE
5
11E48
330
11DBA
100
AcDbEntity
100
AcDbLine
8
OLCULER
10
-2.2060000000000004
20
2.0900000000000003
30
0
11
-2.2060000000000004
21
2.2100000000000004
31
0
0
LINE
5
11E49
330
11DBA
100
AcDbEntity
100
AcDbLine
8
OLCULER
10
-1.9210000000000003
20
2.0900000000000003
30
0
11
-1.9210000000000003
21
2.2100000000000004
31
0
0
LINE
5
11E4A
330
11DBA
100
AcDbEntity
100
AcDbLine
8
OLCULER
10
-2.2060000000000004
20
2.1700000000000004
30
0
11
-1.9210000000000003
21
2.1700000000000004
31
0
0
LINE
5
11E4B
330
11DBA
100
AcDbEntity
100
AcDbLine
8
OLCULER
10
-2.2340000000000004
20
2.1420000000000003
30
0
11
-2.1780000000000004
21
2.1980000000000004
31
0
0
LINE
5
11E4C
330
11DBA
100
AcDbEntity
100
AcDbLine
8
OLCULER
10
-1.9490000000000003
20
2.1420000000000003
30
0
11
-1.8930000000000002
21
2.1980000000000004
31
0
0
TEXT
5
11E4D
330
11DBA
100
AcDbEntity
100
AcDbText
8
OLCULER
10
-2.0635000000000003
20
2.1940000000000004
30
0
40
0.06
1
200 mm (NET OFSET)
50
0
7
STANDARD
72
1
11
-2.0635000000000003
21
2.1940000000000004
31
0
100
AcDbText
73
2
0
LINE
5
11E4E
330
11DBA
100
AcDbEntity
100
AcDbLine
8
OLCULER
10
-1.8758500000000005
20
1.6500000000000001
30
0
11
-1.8758500000000005
21
1.55
31
0
0
LINE
5
11E4F
330
11DBA
100
AcDbEntity
100
AcDbLine
8
OLCULER
10
-1.5198500000000004
20
1.6500000000000001
30
0
11
-1.5198500000000004
21
1.55
31
0
0
LINE
5
11E50
330
11DBA
100
AcDbEntity
100
AcDbLine
8
OLCULER
10
-1.8758500000000005
20
1.59
30
0
11
-1.5198500000000004
21
1.59
31
0
0
LINE
5
11E51
330
11DBA
100
AcDbEntity
100
AcDbLine
8
OLCULER
10
-1.9038500000000005
20
1.562
30
0
11
-1.8478500000000004
21
1.618
31
0
0
LINE
5
11E52
330
11DBA
100
AcDbEntity
100
AcDbLine
8
OLCULER
10
-1.5478500000000004
20
1.562
30
0
11
-1.4918500000000003
21
1.618
31
0
0
TEXT
5
11E53
330
11DBA
100
AcDbEntity
100
AcDbText
8
OLCULER
10
-1.6978500000000003
20
1.506
30
0
40
0.06
1
356 mm (RRU ENI)
50
0
7
STANDARD
72
1
11
-1.6978500000000003
21
1.506
31
0
100
AcDbText
73
2
0
LINE
5
11E54
330
11DBA
100
AcDbEntity
100
AcDbLine
8
OLCULER
10
-1.9511500000000002
20
1.87
30
0
11
-1.9511500000000002
21
1.79
31
0
0
LINE
5
11E55
330
11DBA
100
AcDbEntity
100
AcDbLine
8
OLCULER
10
-1.8908500000000004
20
1.87
30
0
11
-1.8908500000000004
21
1.79
31
0
0
LINE
5
11E56
330
11DBA
100
AcDbEntity
100
AcDbLine
8
OLCULER
10
-1.9511500000000002
20
1.83
30
0
11
-1.8908500000000004
21
1.83
31
0
0
LINE
5
11E57
330
11DBA
100
AcDbEntity
100
AcDbLine
8
OLCULER
10
-1.9791500000000002
20
1.802
30
0
11
-1.9231500000000001
21
1.858
31
0
0
LINE
5
11E58
330
11DBA
100
AcDbEntity
100
AcDbLine
8
OLCULER
10
-1.9188500000000004
20
1.802
30
0
11
-1.8628500000000003
21
1.858
31
0
0
TEXT
5
11E59
330
11DBA
100
AcDbEntity
100
AcDbText
8
OLCULER
10
-1.9210000000000003
20
1.746
30
0
40
0.06
1
O60.3mm (2" BORU)
50
0
7
STANDARD
72
1
11
-1.9210000000000003
21
1.746
31
0
100
AcDbText
73
2
0
LINE
5
11EA5
330
11DBA
100
AcDbEntity
100
AcDbLine
8
OLCULER
10
0.7
20
4.43
30
0
11
0.7
21
4.529999999999999
31
0
0
LINE
5
11EA6
330
11DBA
100
AcDbEntity
100
AcDbLine
8
OLCULER
10
1.8
20
4.43
30
0
11
1.8
21
4.529999999999999
31
0
0
LINE
5
11EA7
330
11DBA
100
AcDbEntity
100
AcDbLine
8
OLCULER
10
0.7
20
4.489999999999999
30
0
11
1.8
21
4.489999999999999
31
0
0
LINE
5
11EA8
330
11DBA
100
AcDbEntity
100
AcDbLine
8
OLCULER
10
0.6719999999999999
20
4.462
30
0
11
0.728
21
4.517999999999999
31
0
0
LINE
5
11EA9
330
11DBA
100
AcDbEntity
100
AcDbLine
8
OLCULER
10
1.772
20
4.462
30
0
11
1.828
21
4.517999999999999
31
0
0
TEXT
5
11EAA
330
11DBA
100
AcDbEntity
100
AcDbText
8
OLCULER
10
1.25
20
4.513999999999999
30
0
40
0.06
1
1640 mm (MONTAJ BORULARI AKSI)
50
0
7
STANDARD
72
1
11
1.25
21
4.513999999999999
31
0
100
AcDbText
73
2
0
LINE
5
11EAB
330
11DBA
100
AcDbEntity
100
AcDbLine
8
OLCULER
10
0.7
20
1.4500000000000002
30
0
11
0.5199999999999999
21
1.4500000000000002
31
0
0
LINE
5
11EAC
330
11DBA
100
AcDbEntity
100
AcDbLine
8
OLCULER
10
0.7
20
4.35
30
0
11
0.5199999999999999
21
4.35
31
0
0
LINE
5
11EAD
330
11DBA
100
AcDbEntity
100
AcDbLine
8
OLCULER
10
0.5599999999999999
20
1.4500000000000002
30
0
11
0.5599999999999999
21
4.35
31
0
0
LINE
5
11EAE
330
11DBA
100
AcDbEntity
100
AcDbLine
8
OLCULER
10
0.5319999999999999
20
1.4220000000000002
30
0
11
0.588
21
1.4780000000000002
31
0
0
LINE
5
11EAF
330
11DBA
100
AcDbEntity
100
AcDbLine
8
OLCULER
10
0.5319999999999999
20
4.322
30
0
11
0.588
21
4.377999999999999
31
0
0
TEXT
5
11EB0
330
11DBA
100
AcDbEntity
100
AcDbText
8
OLCULER
10
0.5179999999999999
20
2.9
30
0
40
0.06
1
2900 mm (BORU TAM BOYU)
50
90
7
STANDARD
72
1
11
0.5179999999999999
21
2.9
31
0
100
AcDbText
73
2
0
LINE
5
11EB1
330
11DBA
100
AcDbEntity
100
AcDbLine
8
OLCULER
10
1.25
20
1.7300000000000002
30
0
11
1.21
21
1.7300000000000002
31
0
0
LINE
5
11EB2
330
11DBA
100
AcDbEntity
100
AcDbLine
8
OLCULER
10
1.25
20
2.6000000000000005
30
0
11
1.21
21
2.6000000000000005
31
0
0
LINE
5
11EB3
330
11DBA
100
AcDbEntity
100
AcDbLine
8
OLCULER
10
1.25
20
1.7300000000000002
30
0
11
1.25
21
2.6000000000000005
31
0
0
LINE
5
11EB4
330
11DBA
100
AcDbEntity
100
AcDbLine
8
OLCULER
10
1.222
20
1.7020000000000002
30
0
11
1.278
21
1.7580000000000002
31
0
0
LINE
5
11EB5
330
11DBA
100
AcDbEntity
100
AcDbLine
8
OLCULER
10
1.222
20
2.5720000000000005
30
0
11
1.278
21
2.6280000000000006
31
0
0
TEXT
5
11EB6
330
11DBA
100
AcDbEntity
100
AcDbText
8
OLCULER
10
1.208
20
2.1650000000000005
30
0
40
0.06
1
870 mm (KATMAN KOT FARKI)
50
90
7
STANDARD
72
1
11
1.208
21
2.1650000000000005
31
0
100
AcDbText
73
2
0
LINE
5
11EB7
330
11DBA
100
AcDbEntity
100
AcDbLine
8
OLCULER
10
1.25
20
2.6000000000000005
30
0
11
1.21
21
2.6000000000000005
31
0
0
LINE
5
11EB8
330
11DBA
100
AcDbEntity
100
AcDbLine
8
OLCULER
10
1.25
20
3.47
30
0
11
1.21
21
3.47
31
0
0
LINE
5
11EB9
330
11DBA
100
AcDbEntity
100
AcDbLine
8
OLCULER
10
1.25
20
2.6000000000000005
30
0
11
1.25
21
3.47
31
0
0
LINE
5
11EBA
330
11DBA
100
AcDbEntity
100
AcDbLine
8
OLCULER
10
1.222
20
2.5720000000000005
30
0
11
1.278
21
2.6280000000000006
31
0
0
LINE
5
11EBB
330
11DBA
100
AcDbEntity
100
AcDbLine
8
OLCULER
10
1.222
20
3.442
30
0
11
1.278
21
3.498
31
0
0
TEXT
5
11EBC
330
11DBA
100
AcDbEntity
100
AcDbText
8
OLCULER
10
1.208
20
3.035
30
0
40
0.06
1
870 mm (KATMAN KOT FARKI)
50
90
7
STANDARD
72
1
11
1.208
21
3.035
31
0
100
AcDbText
73
2
0
LINE
5
11ED8
330
11DBA
100
AcDbEntity
100
AcDbLine
8
OLCULER
10
-1.8900000000000001
20
0.55
30
0
11
-1.8900000000000001
21
0.6400000000000001
31
0
0
LINE
5
11ED9
330
11DBA
100
AcDbEntity
100
AcDbLine
8
OLCULER
10
-1.6900000000000002
20
0.55
30
0
11
-1.6900000000000002
21
0.6400000000000001
31
0
0
LINE
5
11EDA
330
11DBA
100
AcDbEntity
100
AcDbLine
8
OLCULER
10
-1.8900000000000001
20
0.6000000000000001
30
0
11
-1.6900000000000002
21
0.6000000000000001
31
0
0
LINE
5
11EDB
330
11DBA
100
AcDbEntity
100
AcDbLine
8
OLCULER
10
-1.9180000000000001
20
0.5720000000000001
30
0
11
-1.862
21
0.6280000000000001
31
0
0
LINE
5
11EDC
330
11DBA
100
AcDbEntity
100
AcDbLine
8
OLCULER
10
-1.7180000000000002
20
0.5720000000000001
30
0
11
-1.6620000000000001
21
0.6280000000000001
31
0
0
TEXT
5
11EDD
330
11DBA
100
AcDbEntity
100
AcDbText
8
OLCULER
10
-1.79
20
0.6240000000000001
30
0
40
0.06
1
200 mm (NET OFSET BOYU)
50
0
7
STANDARD
72
1
11
-1.79
21
0.6240000000000001
31
0
100
AcDbText
73
2
0
LINE
5
11EDE
330
11DBA
100
AcDbEntity
100
AcDbLine
8
OLCULER
10
-2.075
20
0.31
30
0
11
-2.075
21
0.23
31
0
0
LINE
5
11EDF
330
11DBA
100
AcDbEntity
100
AcDbLine
8
OLCULER
10
-1.8850000000000002
20
0.31
30
0
11
-1.8850000000000002
21
0.23
31
0
0
LINE
5
11EE0
330
11DBA
100
AcDbEntity
100
AcDbLine
8
OLCULER
10
-2.075
20
0.27
30
0
11
-1.8850000000000002
21
0.27
31
0
0
LINE
5
11EE1
330
11DBA
100
AcDbEntity
100
AcDbLine
8
OLCULER
10
-2.103
20
0.24200000000000002
30
0
11
-2.047
21
0.29800000000000004
31
0
0
LINE
5
11EE2
330
11DBA
100
AcDbEntity
100
AcDbLine
8
OLCULER
10
-1.9130000000000003
20
0.24200000000000002
30
0
11
-1.8570000000000002
21
0.29800000000000004
31
0
0
TEXT
5
11EE3
330
11DBA
100
AcDbEntity
100
AcDbText
8
OLCULER
10
-1.9800000000000002
20
0.18600000000000003
30
0
40
0.06
1
190 mm (KELEPCE GENISLIGI)
50
0
7
STANDARD
72
1
11
-1.9800000000000002
21
0.18600000000000003
31
0
100
AcDbText
73
2
0
LWPOLYLINE
5
11DD3
330
11DBA
100
AcDbEntity
100
AcDbPolyline
8
METIN_BILGI
6
ByLayer
62
256
370
-1
90
4
70
1
10
-2.5
20
-1
10
-2.5
20
3.2
10
2.5
20
3.2
10
2.5
20
-1
0
LWPOLYLINE
5
11DD4
330
11DBA
100
AcDbEntity
100
AcDbPolyline
8
METIN_BILGI
6
ByLayer
62
256
370
-1
90
4
70
1
10
-2.485
20
-0.985
10
-2.485
20
3.185
10
2.485
20
3.185
10
2.485
20
-0.985
0
LWPOLYLINE
5
11DD5
330
11DBA
100
AcDbEntity
100
AcDbPolyline
8
METIN_BILGI
6
ByLayer
62
256
370
-1
90
4
70
1
10
-2.475
20
3.02
10
-2.475
20
3.13
10
2.475
20
3.13
10
2.475
20
3.02
0
TEXT
5
11DD6
330
11DBA
100
AcDbEntity
100
AcDbText
8
METIN_BILGI
10
0
20
3.09
30
0
40
0.036000000000000004
1
RAMS PARK / SEYRANTEPE STADYUMU 5G & 4.5G TELEKOMUNIKASYON KEDI YOLU SISTEMI
50
0
7
STANDARD
72
1
11
0
21
3.09
31
0
100
AcDbText
73
0
0
TEXT
5
11DD7
330
11DBA
100
AcDbEntity
100
AcDbText
8
METIN_BILGI
10
0
20
3.055
30
0
40
0.03
1
ALAN 1 VE ALAN 3: ORTA KEDI YOLU 14 ADET RRU MONTAJ VE GECIS ENKESITI (DETAY PAFTASI)
50
0
7
STANDARD
72
1
11
0
21
3.055
31
0
100
AcDbText
73
0
0
TEXT
5
11DD8
330
11DBA
100
AcDbEntity
100
AcDbText
8
METIN_BILGI
10
0
20
3.0300000000000002
30
0
40
0.018000000000000002
1
20 CM OFSETLI 2" PARALEL MONTAJ BORULARI - 4 TURKCELL + 4 TURK TELEKOM + 6 VODAFONE RRU VE SERBEST GECIS KORIDORU
50
0
7
STANDARD
72
1
11
0
21
3.0300000000000002
31
0
100
AcDbText
73
0
0
LWPOLYLINE
5
11DD9
330
11DBA
100
AcDbEntity
100
AcDbPolyline
8
METIN_BILGI
6
ByLayer
62
256
370
-1
90
4
70
1
10
-2.35
20
1.2000000000000002
10
-2.35
20
2.8000000000000003
10
-0.30000000000000027
20
2.8000000000000003
10
-0.30000000000000027
20
1.2000000000000002
0
TEXT
5
11DDA
330
11DBA
100
AcDbEntity
100
AcDbText
8
METIN_BILGI
10
-1.35
20
2.7300000000000004
30
0
40
0.026000000000000002
1
GORUNUS 1: KEDI YOLU TIPIK ENKESITI (A-A KESITI - OLCEK 1:15)
50
0
7
STANDARD
72
1
11
-1.35
21
2.7300000000000004
31
0
100
AcDbText
73
0
0
TEXT
5
11DDB
330
11DBA
100
AcDbEntity
100
AcDbText
8
METIN_BILGI
10
-1.35
20
2.68
30
0
40
0.016
1
CATI MAKASI EGIMLI DIKMESI, 20 CM OFSET KONSOLU, 2" BORU VE RRU GECIS ACIKLIGI
50
0
7
STANDARD
72
1
11
-1.35
21
2.68
31
0
100
AcDbText
73
0
0
TEXT
5
11E00
330
11DBA
100
AcDbEntity
100
AcDbText
8
METIN_BILGI
10
-2.0300000000000002
20
0.9900000000000002
30
0
40
0.014
1
O350mm CATI OMURGA BORUSU
50
0
7
STANDARD
72
1
11
-2.0300000000000002
21
0.9900000000000002
31
0
100
AcDbText
73
0
0
TEXT
5
11E30
330
11DBA
100
AcDbEntity
100
AcDbText
8
METIN_BILGI
10
-1.6978500000000005
20
2
30
0
40
0.018000000000000002
1
RRU MODULU
50
0
7
STANDARD
72
1
11
-1.6978500000000005
21
2
31
0
100
AcDbText
73
0
0
TEXT
5
11E31
330
11DBA
100
AcDbEntity
100
AcDbText
8
METIN_BILGI
10
-1.6978500000000005
20
1.9600000000000002
30
0
40
0.014
1
(356 x 480 x 140 mm)
50
0
7
STANDARD
72
1
11
-1.6978500000000005
21
1.9600000000000002
31
0
100
AcDbText
73
0
0
TEXT
5
11E32
330
11DBA
100
AcDbEntity
100
AcDbText
8
METIN_BILGI
10
-1.6978500000000005
20
1.9300000000000002
30
0
40
0.012
1
KISA KENAR MONTAJI
50
0
7
STANDARD
72
1
11
-1.6978500000000005
21
1.9300000000000002
31
0
100
AcDbText
73
0
0
TEXT
5
11E3B
330
11DBA
100
AcDbEntity
100
AcDbText
8
METIN_BILGI
10
-1.4000000000000001
20
1.2100000000000002
30
0
40
0.015
1
500x100mm KABLO TAVASI (60x 1/2" FEEDER / JUMPER)
50
0
7
STANDARD
72
1
11
-1.4000000000000001
21
1.2100000000000002
31
0
100
AcDbText
73
0
0
LWPOLYLINE
5
11E5A
330
11DBA
100
AcDbEntity
100
AcDbPolyline
8
METIN_BILGI
6
ByLayer
62
256
370
-1
90
4
70
1
10
0.1499999999999999
20
1.2000000000000002
10
0.1499999999999999
20
2.8000000000000003
10
2.4
20
2.8000000000000003
10
2.4
20
1.2000000000000002
0
TEXT
5
11E5B
330
11DBA
100
AcDbEntity
100
AcDbText
8
METIN_BILGI
10
1.25
20
2.7300000000000004
30
0
40
0.026000000000000002
1
GORUNUS 2: 14 ADET RRU MONTAJ BORULARI VE KATMAN ELEVASYONU (OLCEK 1:20)
50
0
7
STANDARD
72
1
11
1.25
21
2.7300000000000004
31
0
100
AcDbText
73
0
0
TEXT
5
11E5C
330
11DBA
100
AcDbEntity
100
AcDbText
8
METIN_BILGI
10
1.25
20
2.68
30
0
40
0.016
1
SOL DIREK (4 TURKCELL + 3 VDF) & SAG DIREK (4 TURK TELEKOM + 3 VDF) - TOPLAM 14 RRU
50
0
7
STANDARD
72
1
11
1.25
21
2.68
31
0
100
AcDbText
73
0
0
TEXT
5
11E5E
330
11DBA
100
AcDbEntity
100
AcDbText
8
METIN_BILGI
10
0.27
20
1.365
30
0
40
0.014
1
KEDI YOLU IZGARA SEVIYESI (+8.60m)
50
0
7
STANDARD
100
AcDbText
0
TEXT
5
11E62
330
11DBA
100
AcDbEntity
100
AcDbText
8
METIN_BILGI
10
0.7
20
4.385
30
0
40
0.016
1
SOL MONTAJ BORUSU (2" x 2900mm)
50
0
7
STANDARD
72
1
11
0.7
21
4.385
31
0
100
AcDbText
73
0
0
TEXT
5
11E63
330
11DBA
100
AcDbEntity
100
AcDbText
8
METIN_BILGI
10
0.7
20
4.364999999999999
30
0
40
0.013000000000000001
1
TURKCELL (4) & VODAFONE (3)
50
0
7
STANDARD
72
1
11
0.7
21
4.364999999999999
31
0
100
AcDbText
73
0
0
TEXT
5
11E67
330
11DBA
100
AcDbEntity
100
AcDbText
8
METIN_BILGI
10
1.8
20
4.385
30
0
40
0.016
1
SAG MONTAJ BORUSU (2" x 2900mm)
50
0
7
STANDARD
72
1
11
1.8
21
4.385
31
0
100
AcDbText
73
0
0
TEXT
5
11E68
330
11DBA
100
AcDbEntity
100
AcDbText
8
METIN_BILGI
10
1.8
20
4.364999999999999
30
0
40
0.013000000000000001
1
TURK TELEKOM (4) & VODAFONE (3)
50
0
7
STANDARD
72
1
11
1.8
21
4.364999999999999
31
0
100
AcDbText
73
0
0
TEXT
5
11E6A
330
11DBA
100
AcDbEntity
100
AcDbText
8
METIN_BILGI
10
0.49
20
2.0250000000000004
30
0
40
0.011
1
20cm OFSET
50
0
7
STANDARD
72
2
11
0.49
21
2.0250000000000004
31
0
100
AcDbText
73
0
0
TEXT
5
11E6C
330
11DBA
100
AcDbEntity
100
AcDbText
8
METIN_BILGI
10
2.04
20
2.0250000000000004
30
0
40
0.011
1
20cm OFSET
50
0
7
STANDARD
100
AcDbText
0
TEXT
5
11E6E
330
11DBA
100
AcDbEntity
100
AcDbText
8
METIN_BILGI
10
0.49
20
2.8950000000000005
30
0
40
0.011
1
20cm OFSET
50
0
7
STANDARD
72
2
11
0.49
21
2.8950000000000005
31
0
100
AcDbText
73
0
0
TEXT
5
11E70
330
11DBA
100
AcDbEntity
100
AcDbText
8
METIN_BILGI
10
2.04
20
2.8950000000000005
30
0
40
0.011
1
20cm OFSET
50
0
7
STANDARD
100
AcDbText
0
TEXT
5
11E72
330
11DBA
100
AcDbEntity
100
AcDbText
8
METIN_BILGI
10
0.49
20
3.765
30
0
40
0.011
1
20cm OFSET
50
0
7
STANDARD
72
2
11
0.49
21
3.765
31
0
100
AcDbText
73
0
0
TEXT
5
11E74
330
11DBA
100
AcDbEntity
100
AcDbText
8
METIN_BILGI
10
2.04
20
3.765
30
0
40
0.011
1
20cm OFSET
50
0
7
STANDARD
100
AcDbText
0
TEXT
5
11E76
330
11DBA
100
AcDbEntity
100
AcDbText
8
METIN_BILGI
10
0.5299999999999999
20
1.985
30
0
40
0.011
1
VDF RRU5526t
50
0
7
STANDARD
72
1
11
0.5299999999999999
21
1.985
31
0
100
AcDbText
73
0
0
TEXT
5
11E77
330
11DBA
100
AcDbEntity
100
AcDbText
8
METIN_BILGI
10
0.5299999999999999
20
1.9550000000000003
30
0
40
0.01
1
#1 (Alt)
50
0
7
STANDARD
72
1
11
0.5299999999999999
21
1.9550000000000003
31
0
100
AcDbText
73
0
0
TEXT
5
11E79
330
11DBA
100
AcDbEntity
100
AcDbText
8
METIN_BILGI
10
0.7
20
1.985
30
0
40
0.011
1
VDF RRU5526t
50
0
7
STANDARD
72
1
11
0.7
21
1.985
31
0
100
AcDbText
73
0
0
TEXT
5
11E7A
330
11DBA
100
AcDbEntity
100
AcDbText
8
METIN_BILGI
10
0.7
20
1.9550000000000003
30
0
40
0.01
1
#2 (Alt)
50
0
7
STANDARD
72
1
11
0.7
21
1.9550000000000003
31
0
100
AcDbText
73
0
0
TEXT
5
11E7C
330
11DBA
100
AcDbEntity
100
AcDbText
8
METIN_BILGI
10
0.87
20
1.985
30
0
40
0.011
1
VDF RRU5526t
50
0
7
STANDARD
72
1
11
0.87
21
1.985
31
0
100
AcDbText
73
0
0
TEXT
5
11E7D
330
11DBA
100
AcDbEntity
100
AcDbText
8
METIN_BILGI
10
0.87
20
1.9550000000000003
30
0
40
0.01
1
#3 (Alt)
50
0
7
STANDARD
72
1
11
0.87
21
1.9550000000000003
31
0
100
AcDbText
73
0
0
TEXT
5
11E7E
330
11DBA
100
AcDbEntity
100
AcDbText
8
METIN_BILGI
10
0.41999999999999993
20
1.9700000000000002
30
0
40
0.013000000000000001
1
ALT SIRA: 3x VDF
50
0
7
STANDARD
72
2
11
0.41999999999999993
21
1.9700000000000002
31
0
100
AcDbText
73
0
0
TEXT
5
11E80
330
11DBA
100
AcDbEntity
100
AcDbText
8
METIN_BILGI
10
0.59
20
2.855000000000001
30
0
40
0.011
1
TCELL RRU5502
50
0
7
STANDARD
72
1
11
0.59
21
2.855000000000001
31
0
100
AcDbText
73
0
0
TEXT
5
11E81
330
11DBA
100
AcDbEntity
100
AcDbText
8
METIN_BILGI
10
0.59
20
2.8250000000000006
30
0
40
0.01
1
#1 (Orta)
50
0
7
STANDARD
72
1
11
0.59
21
2.8250000000000006
31
0
100
AcDbText
73
0
0
TEXT
5
11E83
330
11DBA
100
AcDbEntity
100
AcDbText
8
METIN_BILGI
10
0.8099999999999999
20
2.855000000000001
30
0
40
0.011
1
TCELL RRU5502
50
0
7
STANDARD
72
1
11
0.8099999999999999
21
2.855000000000001
31
0
100
AcDbText
73
0
0
TEXT
5
11E84
330
11DBA
100
AcDbEntity
100
AcDbText
8
METIN_BILGI
10
0.8099999999999999
20
2.8250000000000006
30
0
40
0.01
1
#2 (Orta)
50
0
7
STANDARD
72
1
11
0.8099999999999999
21
2.8250000000000006
31
0
100
AcDbText
73
0
0
TEXT
5
11E85
330
11DBA
100
AcDbEntity
100
AcDbText
8
METIN_BILGI
10
0.41999999999999993
20
2.8400000000000007
30
0
40
0.013000000000000001
1
ORTA SIRA: 2x TCELL
50
0
7
STANDARD
72
2
11
0.41999999999999993
21
2.8400000000000007
31
0
100
AcDbText
73
0
0
TEXT
5
11E87
330
11DBA
100
AcDbEntity
100
AcDbText
8
METIN_BILGI
10
0.59
20
3.725
30
0
40
0.011
1
TCELL RRU5301
50
0
7
STANDARD
72
1
11
0.59
21
3.725
31
0
100
AcDbText
73
0
0
TEXT
5
11E88
330
11DBA
100
AcDbEntity
100
AcDbText
8
METIN_BILGI
10
0.59
20
3.695
30
0
40
0.01
1
#1 (Ust)
50
0
7
STANDARD
72
1
11
0.59
21
3.695
31
0
100
AcDbText
73
0
0
TEXT
5
11E8A
330
11DBA
100
AcDbEntity
100
AcDbText
8
METIN_BILGI
10
0.8099999999999999
20
3.725
30
0
40
0.011
1
TCELL RRU5301
50
0
7
STANDARD
72
1
11
0.8099999999999999
21
3.725
31
0
100
AcDbText
73
0
0
TEXT
5
11E8B
330
11DBA
100
AcDbEntity
100
AcDbText
8
METIN_BILGI
10
0.8099999999999999
20
3.695
30
0
40
0.01
1
#2 (Ust)
50
0
7
STANDARD
72
1
11
0.8099999999999999
21
3.695
31
0
100
AcDbText
73
0
0
TEXT
5
11E8C
330
11DBA
100
AcDbEntity
100
AcDbText
8
METIN_BILGI
10
0.41999999999999993
20
3.71
30
0
40
0.013000000000000001
1
UST SIRA: 2x TCELL
50
0
7
STANDARD
72
2
11
0.41999999999999993
21
3.71
31
0
100
AcDbText
73
0
0
TEXT
5
11E8E
330
11DBA
100
AcDbEntity
100
AcDbText
8
METIN_BILGI
10
1.63
20
1.985
30
0
40
0.011
1
VDF RRU5526t
50
0
7
STANDARD
72
1
11
1.63
21
1.985
31
0
100
AcDbText
73
0
0
TEXT
5
11E8F
330
11DBA
100
AcDbEntity
100
AcDbText
8
METIN_BILGI
10
1.63
20
1.9550000000000003
30
0
40
0.01
1
#4 (Alt)
50
0
7
STANDARD
72
1
11
1.63
21
1.9550000000000003
31
0
100
AcDbText
73
0
0
TEXT
5
11E91
330
11DBA
100
AcDbEntity
100
AcDbText
8
METIN_BILGI
10
1.7999999999999998
20
1.985
30
0
40
0.011
1
VDF RRU5526t
50
0
7
STANDARD
72
1
11
1.7999999999999998
21
1.985
31
0
100
AcDbText
73
0
0
TEXT
5
11E92
330
11DBA
100
AcDbEntity
100
AcDbText
8
METIN_BILGI
10
1.7999999999999998
20
1.9550000000000003
30
0
40
0.01
1
#5 (Alt)
50
0
7
STANDARD
72
1
11
1.7999999999999998
21
1.9550000000000003
31
0
100
AcDbText
73
0
0
TEXT
5
11E94
330
11DBA
100
AcDbEntity
100
AcDbText
8
METIN_BILGI
10
1.9699999999999998
20
1.985
30
0
40
0.011
1
VDF RRU5526t
50
0
7
STANDARD
72
1
11
1.9699999999999998
21
1.985
31
0
100
AcDbText
73
0
0
TEXT
5
11E95
330
11DBA
100
AcDbEntity
100
AcDbText
8
METIN_BILGI
10
1.9699999999999998
20
1.9550000000000003
30
0
40
0.01
1
#6 (Alt)
50
0
7
STANDARD
72
1
11
1.9699999999999998
21
1.9550000000000003
31
0
100
AcDbText
73
0
0
TEXT
5
11E96
330
11DBA
100
AcDbEntity
100
AcDbText
8
METIN_BILGI
10
2.08
20
1.9700000000000002
30
0
40
0.013000000000000001
1
ALT SIRA: 3x VDF
50
0
7
STANDARD
100
AcDbText
0
TEXT
5
11E98
330
11DBA
100
AcDbEntity
100
AcDbText
8
METIN_BILGI
10
1.69
20
2.855000000000001
30
0
40
0.011
1
TT RRU5527
50
0
7
STANDARD
72
1
11
1.69
21
2.855000000000001
31
0
100
AcDbText
73
0
0
TEXT
5
11E99
330
11DBA
100
AcDbEntity
100
AcDbText
8
METIN_BILGI
10
1.69
20
2.8250000000000006
30
0
40
0.01
1
#1 (Orta)
50
0
7
STANDARD
72
1
11
1.69
21
2.8250000000000006
31
0
100
AcDbText
73
0
0
TEXT
5
11E9B
330
11DBA
100
AcDbEntity
100
AcDbText
8
METIN_BILGI
10
1.9100000000000001
20
2.855000000000001
30
0
40
0.011
1
TT RRU5527
50
0
7
STANDARD
72
1
11
1.9100000000000001
21
2.855000000000001
31
0
100
AcDbText
73
0
0
TEXT
5
11E9C
330
11DBA
100
AcDbEntity
100
AcDbText
8
METIN_BILGI
10
1.9100000000000001
20
2.8250000000000006
30
0
40
0.01
1
#2 (Orta)
50
0
7
STANDARD
72
1
11
1.9100000000000001
21
2.8250000000000006
31
0
100
AcDbText
73
0
0
TEXT
5
11E9D
330
11DBA
100
AcDbEntity
100
AcDbText
8
METIN_BILGI
10
2.08
20
2.8400000000000007
30
0
40
0.013000000000000001
1
ORTA SIRA: 2x TT
50
0
7
STANDARD
100
AcDbText
0
TEXT
5
11E9F
330
11DBA
100
AcDbEntity
100
AcDbText
8
METIN_BILGI
10
1.69
20
3.725
30
0
40
0.011
1
TT RRU 5818W (5G)
50
0
7
STANDARD
72
1
11
1.69
21
3.725
31
0
100
AcDbText
73
0
0
TEXT
5
11EA0
330
11DBA
100
AcDbEntity
100
AcDbText
8
METIN_BILGI
10
1.69
20
3.695
30
0
40
0.01
1
#1 (Ust)
50
0
7
STANDARD
72
1
11
1.69
21
3.695
31
0
100
AcDbText
73
0
0
TEXT
5
11EA2
330
11DBA
100
AcDbEntity
100
AcDbText
8
METIN_BILGI
10
1.9100000000000001
20
3.725
30
0
40
0.011
1
TT RRU 5818W (5G)
50
0
7
STANDARD
72
1
11
1.9100000000000001
21
3.725
31
0
100
AcDbText
73
0
0
TEXT
5
11EA3
330
11DBA
100
AcDbEntity
100
AcDbText
8
METIN_BILGI
10
1.9100000000000001
20
3.695
30
0
40
0.01
1
#2 (Ust)
50
0
7
STANDARD
72
1
11
1.9100000000000001
21
3.695
31
0
100
AcDbText
73
0
0
TEXT
5
11EA4
330
11DBA
100
AcDbEntity
100
AcDbText
8
METIN_BILGI
10
2.08
20
3.71
30
0
40
0.013000000000000001
1
UST SIRA: 2x TT (5G)
50
0
7
STANDARD
100
AcDbText
0
LWPOLYLINE
5
11EBD
330
11DBA
100
AcDbEntity
100
AcDbPolyline
8
METIN_BILGI
6
ByLayer
62
256
370
-1
90
4
70
1
10
-2.35
20
0.04999999999999999
10
-2.35
20
0.8999999999999999
10
-0.8500000000000001
20
0.8999999999999999
10
-0.8500000000000001
20
0.04999999999999999
0
TEXT
5
11EBE
330
11DBA
100
AcDbEntity
100
AcDbText
8
METIN_BILGI
10
-1.6
20
0.8600000000000001
30
0
40
0.02
1
DETAY A: 20 CM OFSET KONSOL VE DIKME KELEPCESI IMALAT DETAYI (OLCEK 1:5)
50
0
7
STANDARD
72
1
11
-1.6
21
0.8600000000000001
31
0
100
AcDbText
73
0
0
TEXT
5
11EC1
330
11DBA
100
AcDbEntity
100
AcDbText
8
METIN_BILGI
10
-1.98
20
0.35
30
0
40
0.012
1
O140mm MAKAS DIKMESI
50
0
7
STANDARD
72
1
11
-1.98
21
0.35
31
0
100
AcDbText
73
0
0
TEXT
5
11ECA
330
11DBA
100
AcDbEntity
100
AcDbText
8
METIN_BILGI
10
-1.79
20
0.45
30
0
40
0.012
1
60x60x4mm KUTU PROFIL
50
0
7
STANDARD
72
1
11
-1.79
21
0.45
31
0
100
AcDbText
73
0
0
TEXT
5
11ED7
330
11DBA
100
AcDbEntity
100
AcDbText
8
METIN_BILGI
10
-1.6550000000000002
20
0.37
30
0
40
0.012
1
2" (O60.3mm) GALVANIZ BORU
50
0
7
STANDARD
72
1
11
-1.6550000000000002
21
0.37
31
0
100
AcDbText
73
0
0
LWPOLYLINE
5
11EE4
330
11DBA
100
AcDbEntity
100
AcDbPolyline
8
METIN_BILGI
6
ByLayer
62
256
370
-1
90
4
70
1
10
-0.65
20
0.04999999999999999
10
-0.65
20
0.8999999999999999
10
0.65
20
0.8999999999999999
10
0.65
20
0.04999999999999999
0
TEXT
5
11EE5
330
11DBA
100
AcDbEntity
100
AcDbText
8
METIN_BILGI
10
0
20
0.8600000000000001
30
0
40
0.02
1
DETAY B: RRU KISA KENAR BORU KILITLEME BRAKETI VE EMNIYET PIMI (OLCEK 1:5)
50
0
7
STANDARD
72
1
11
0
21
0.8600000000000001
31
0
100
AcDbText
73
0
0
TEXT
5
11EEC
330
11DBA
100
AcDbEntity
100
AcDbText
8
METIN_BILGI
10
-0.44
20
0.535
30
0
40
0.011
1
M10 TORKLU CIVATA (35 Nm)
50
0
7
STANDARD
72
1
11
-0.44
21
0.535
31
0
100
AcDbText
73
0
0
TEXT
5
11EEF
330
11DBA
100
AcDbEntity
100
AcDbText
8
METIN_BILGI
10
-0.29000000000000004
20
0.47500000000000003
30
0
40
0.011
1
EMNIYET PIMI (DUSMEYE KARSI KILIT)
50
0
7
STANDARD
100
AcDbText
0
TEXT
5
11EFE
330
11DBA
100
AcDbEntity
100
AcDbText
8
METIN_BILGI
10
-0.095
20
0.49
30
0
40
0.014
1
RRU DOKUM GOVDE
50
0
7
STANDARD
72
1
11
-0.095
21
0.49
31
0
100
AcDbText
73
0
0
TEXT
5
11EFF
330
11DBA
100
AcDbEntity
100
AcDbText
8
METIN_BILGI
10
-0.095
20
0.44
30
0
40
0.012
1
KISA KENARDAN MONTAJ (D=140mm)
50
0
7
STANDARD
72
1
11
-0.095
21
0.44
31
0
100
AcDbText
73
0
0
TEXT
5
11F00
330
11DBA
100
AcDbEntity
100
AcDbText
8
METIN_BILGI
10
-0.095
20
0.41000000000000003
30
0
40
0.01
1
IP65 WEATHERPROOF SIZDIRMAZLIK
50
0
7
STANDARD
72
1
11
-0.095
21
0.41000000000000003
31
0
100
AcDbText
73
0
0
TEXT
5
11F04
330
11DBA
100
AcDbEntity
100
AcDbText
8
METIN_BILGI
10
-0.245
20
0.66
30
0
40
0.011
1
O4mm PASLANMAZ CELIK GUCLENDIRILMIS EMNIYET HALATI (L=600mm)
50
0
7
STANDARD
72
1
11
-0.245
21
0.66
31
0
100
AcDbText
73
0
0
LWPOLYLINE
5
11F05
330
11DBA
100
AcDbEntity
100
AcDbPolyline
8
METIN_BILGI
6
ByLayer
62
256
370
-1
90
4
70
1
10
0.8500000000000001
20
0.04999999999999999
10
0.8500000000000001
20
0.8999999999999999
10
2.35
20
0.8999999999999999
10
2.35
20
0.04999999999999999
0
TEXT
5
11F06
330
11DBA
100
AcDbEntity
100
AcDbText
8
METIN_BILGI
10
1.6
20
0.8600000000000001
30
0
40
0.02
1
DETAY C: TOPRAKLAMA BARASI VE RF JUMPER INIS DETAYI (OLCEK 1:5)
50
0
7
STANDARD
72
1
11
1.6
21
0.8600000000000001
31
0
100
AcDbText
73
0
0
TEXT
5
11F08
330
11DBA
100
AcDbEntity
100
AcDbText
8
METIN_BILGI
10
1.5
20
0.685
30
0
40
0.013000000000000001
1
RRU ALT BAGLANTI VE PORT YUZEYI
50
0
7
STANDARD
72
1
11
1.5
21
0.685
31
0
100
AcDbText
73
0
0
TEXT
5
11F0C
330
11DBA
100
AcDbEntity
100
AcDbText
8
METIN_BILGI
10
1.26
20
0.53
30
0
40
0.009000000000000001
1
VULKANIZE BANT
50
0
7
STANDARD
72
1
11
1.26
21
0.53
31
0
100
AcDbText
73
0
0
TEXT
5
11F0E
330
11DBA
100
AcDbEntity
100
AcDbText
8
METIN_BILGI
10
1.26
20
0.29
30
0
40
0.01
1
JUMPER #1
50
0
7
STANDARD
72
1
11
1.26
21
0.29
31
0
100
AcDbText
73
0
0
TEXT
5
11F12
330
11DBA
100
AcDbEntity
100
AcDbText
8
METIN_BILGI
10
1.42
20
0.53
30
0
40
0.009000000000000001
1
VULKANIZE BANT
50
0
7
STANDARD
72
1
11
1.42
21
0.53
31
0
100
AcDbText
73
0
0
TEXT
5
11F14
330
11DBA
100
AcDbEntity
100
AcDbText
8
METIN_BILGI
10
1.42
20
0.29
30
0
40
0.01
1
JUMPER #2
50
0
7
STANDARD
72
1
11
1.42
21
0.29
31
0
100
AcDbText
73
0
0
TEXT
5
11F18
330
11DBA
100
AcDbEntity
100
AcDbText
8
METIN_BILGI
10
1.58
20
0.53
30
0
40
0.009000000000000001
1
VULKANIZE BANT
50
0
7
STANDARD
72
1
11
1.58
21
0.53
31
0
100
AcDbText
73
0
0
TEXT
5
11F1A
330
11DBA
100
AcDbEntity
100
AcDbText
8
METIN_BILGI
10
1.58
20
0.29
30
0
40
0.01
1
JUMPER #3
50
0
7
STANDARD
72
1
11
1.58
21
0.29
31
0
100
AcDbText
73
0
0
TEXT
5
11F1E
330
11DBA
100
AcDbEntity
100
AcDbText
8
METIN_BILGI
10
1.74
20
0.53
30
0
40
0.009000000000000001
1
VULKANIZE BANT
50
0
7
STANDARD
72
1
11
1.74
21
0.53
31
0
100
AcDbText
73
0
0
TEXT
5
11F20
330
11DBA
100
AcDbEntity
100
AcDbText
8
METIN_BILGI
10
1.74
20
0.29
30
0
40
0.01
1
JUMPER #4
50
0
7
STANDARD
72
1
11
1.74
21
0.29
31
0
100
AcDbText
73
0
0
TEXT
5
11F25
330
11DBA
100
AcDbEntity
100
AcDbText
8
METIN_BILGI
10
1.82
20
0.45
30
0
40
0.011
1
16 mm2 BAKIR TOPRAKLAMA ILETKENI
50
0
7
STANDARD
100
AcDbText
0
TEXT
5
11F26
330
11DBA
100
AcDbEntity
100
AcDbText
8
METIN_BILGI
10
1.82
20
0.42000000000000004
30
0
40
0.01
1
KEDI YOLU VE CATI TOPRAKLAMA BARASINA
50
0
7
STANDARD
100
AcDbText
0
LWPOLYLINE
5
11F27
330
11DBA
100
AcDbEntity
100
AcDbPolyline
8
METIN_BILGI
6
ByLayer
62
256
370
-1
90
4
70
1
10
-2.45
20
-0.92
10
-2.45
20
-0.040000000000000036
10
-0.30000000000000027
20
-0.040000000000000036
10
-0.30000000000000027
20
-0.92
0
TEXT
5
11F28
330
11DBA
100
AcDbEntity
100
AcDbText
8
METIN_BILGI
10
-1.3750000000000002
20
-0.07500000000000001
30
0
40
0.018000000000000002
1
TEKNIK SARTNAME, GUVENLIK VE MONTAJ STANDARTLARI
50
0
7
STANDARD
72
1
11
-1.3750000000000002
21
-0.07500000000000001
31
0
100
AcDbText
73
0
0
TEXT
5
11F29
330
11DBA
100
AcDbEntity
100
AcDbText
8
METIN_BILGI
10
-2.4250000000000003
20
-0.11499999999999999
30
0
40
0.012
1
1. KEDI YOLU GECIS KORIDORU (CLEARANCE): Makas dikmesine 20cm ofset kolu ile baglanan montaj borulari ve uzerindeki
50
0
7
STANDARD
100
AcDbText
0
TEXT
5
11F2A
330
11DBA
100
AcDbEntity
100
AcDbText
8
METIN_BILGI
10
-2.4250000000000003
20
-0.151
30
0
40
0.012
1
   RRU modulleri, kedi yolu yuruyus izgarasina kesinlikle tecavuz etmez. Net serbest gecis acikligi min. 850 mm olarak korunmustur.
50
0
7
STANDARD
100
AcDbText
0
TEXT
5
11F2B
330
11DBA
100
AcDbEntity
100
AcDbText
8
METIN_BILGI
10
-2.4250000000000003
20
-0.187
30
0
40
0.012
1
2. MONTAJ BORULARI: 2" (Dis cap O60.3mm, et kalinligi 3.65mm) TS EN 10255 agir seri celik cekme borudur. TS EN ISO 1461 standardinda
50
0
7
STANDARD
100
AcDbText
0
TEXT
5
11F2C
330
11DBA
100
AcDbEntity
100
AcDbText
8
METIN_BILGI
10
-2.4250000000000003
20
-0.22299999999999998
30
0
40
0.012
1
   sicak daldirma galvaniz kaplanmistir (Min. cinko kalinligi 85 mikron). Tepe noktasinda su gecirmez sizdirmazlik tapasi mevcuttur.
50
0
7
STANDARD
100
AcDbText
0
TEXT
5
11F2D
330
11DBA
100
AcDbEntity
100
AcDbText
8
METIN_BILGI
10
-2.4250000000000003
20
-0.259
30
0
40
0.012
1
3. 20 CM OFSET KONSOL SISTEMI: 60x60x4mm celik kutu profil konsol kollari, O140mm makas dikmesine 3 noktadan (t=%20, %50, %80)
50
0
7
STANDARD
100
AcDbText
0
TEXT
5
11F2E
330
11DBA
100
AcDbEntity
100
AcDbText
8
METIN_BILGI
10
-2.4250000000000003
20
-0.295
30
0
40
0.012
1
   cift parcali M16 celik kelepceler ve 80x80x8mm ucgen gusset berkitme saclariyla rijit sekilde kaynakli/civatalidir.
50
0
7
STANDARD
100
AcDbText
0
TEXT
5
11F2F
330
11DBA
100
AcDbEntity
100
AcDbText
8
METIN_BILGI
10
-2.4250000000000003
20
-0.33099999999999996
30
0
40
0.012
1
4. RRU KISA KENAR BAGLANTISI: 14 adet RRU modulu kisa kenarlarindaki (D=140mm) tork kontrollu kelepcelerle boruya kenetlenmistir.
50
0
7
STANDARD
100
AcDbText
0
TEXT
5
11F30
330
11DBA
100
AcDbEntity
100
AcDbText
8
METIN_BILGI
10
-2.4250000000000003
20
-0.367
30
0
40
0.012
1
   Sikma torku 35 Nm'dir. Her RRU govdesi, dusmeye karsi O4mm paslanmaz celik emniyet halatiyla boruya guvenlik kilitlidir.
50
0
7
STANDARD
100
AcDbText
0
TEXT
5
11F31
330
11DBA
100
AcDbEntity
100
AcDbText
8
METIN_BILGI
10
-2.4250000000000003
20
-0.403
30
0
40
0.012
1
5. TOPRAKLAMA DUZENI: Her RRU sasesinden cikan 16 mm2 sari-yesil topraklama iletkeni, kedi yolu altindaki bakir topraklama
50
0
7
STANDARD
100
AcDbText
0
TEXT
5
11F32
330
11DBA
100
AcDbEntity
100
AcDbText
8
METIN_BILGI
10
-2.4250000000000003
20
-0.439
30
0
40
0.012
1
   barasina cift delikli sikmali pabuclarla irtibatlandirilmistir. Gecis direnci R < 2 Ohm sartini saglamaktadir.
50
0
7
STANDARD
100
AcDbText
0
TEXT
5
11F33
330
11DBA
100
AcDbEntity
100
AcDbText
8
METIN_BILGI
10
-2.4250000000000003
20
-0.475
30
0
40
0.012
1
6. KABLO VE JUMPER GECISLERI: RRU alt portlarindan cikan 1/2" super esnek RF jumper kablolari, O150mm kivrilma yaricapina uyularak
50
0
7
STANDARD
100
AcDbText
0
TEXT
5
11F34
330
11DBA
100
AcDbEntity
100
AcDbText
8
METIN_BILGI
10
-2.4250000000000003
20
-0.511
30
0
40
0.012
1
   kedi yolu altindaki 500x100mm perfore kablo tavasina indirilir. Dis ortam RF konnektorleri soguk buzusmeli bantla sizdirmazdir.
50
0
7
STANDARD
100
AcDbText
0
LWPOLYLINE
5
11F35
330
11DBA
100
AcDbEntity
100
AcDbPolyline
8
METIN_BILGI
6
ByLayer
62
256
370
-1
90
4
70
1
10
-0.22
20
-0.92
10
-0.22
20
-0.040000000000000036
10
1.46
20
-0.040000000000000036
10
1.46
20
-0.92
0
TEXT
5
11F36
330
11DBA
100
AcDbEntity
100
AcDbText
8
METIN_BILGI
10
0.62
20
-0.07500000000000001
30
0
40
0.018000000000000002
1
MALZEME LISTESI (BOM) - ALAN 1 & 3 KEDI YOLU RRU SISTEMI
50
0
7
STANDARD
72
1
11
0.62
21
-0.07500000000000001
31
0
100
AcDbText
73
0
0
LWPOLYLINE
5
11F37
330
11DBA
100
AcDbEntity
100
AcDbPolyline
8
METIN_BILGI
6
ByLayer
62
256
370
-1
90
4
70
1
10
-0.22
20
-0.11499999999999999
10
-0.22
20
-0.07999999999999999
10
1.46
20
-0.07999999999999999
10
1.46
20
-0.11499999999999999
0
TEXT
5
11F38
330
11DBA
100
AcDbEntity
100
AcDbText
8
METIN_BILGI
10
-0.21
20
-0.10500000000000001
30
0
40
0.011
1
NO
50
0
7
STANDARD
100
AcDbText
0
TEXT
5
11F39
330
11DBA
100
AcDbEntity
100
AcDbText
8
METIN_BILGI
10
-0.15
20
-0.10500000000000001
30
0
40
0.011
1
MALZEME TANIMI VE MARKA / MODEL
50
0
7
STANDARD
100
AcDbText
0
TEXT
5
11F3A
330
11DBA
100
AcDbEntity
100
AcDbText
8
METIN_BILGI
10
0.51
20
-0.10500000000000001
30
0
40
0.011
1
EBAT / TEKNIK DETAY
50
0
7
STANDARD
100
AcDbText
0
TEXT
5
11F3B
330
11DBA
100
AcDbEntity
100
AcDbText
8
METIN_BILGI
10
0.9300000000000002
20
-0.10500000000000001
30
0
40
0.011
1
MIKTAR
50
0
7
STANDARD
100
AcDbText
0
TEXT
5
11F3C
330
11DBA
100
AcDbEntity
100
AcDbText
8
METIN_BILGI
10
1.07
20
-0.10500000000000001
30
0
40
0.011
1
OPERATOR / GOREV
50
0
7
STANDARD
100
AcDbText
0
LINE
5
11F3D
330
11DBA
100
AcDbEntity
100
AcDbLine
8
METIN_BILGI
10
-0.22
20
-0.15
30
0
11
1.46
21
-0.15
31
0
0
TEXT
5
11F3E
330
11DBA
100
AcDbEntity
100
AcDbText
8
METIN_BILGI
10
-0.21
20
-0.13999999999999999
30
0
40
0.01
1
01
50
0
7
STANDARD
100
AcDbText
0
TEXT
5
11F3F
330
11DBA
100
AcDbEntity
100
AcDbText
8
METIN_BILGI
10
-0.15
20
-0.13999999999999999
30
0
40
0.01
1
Turkcell LTE RRU 5301 Modulu
50
0
7
STANDARD
100
AcDbText
0
TEXT
5
11F40
330
11DBA
100
AcDbEntity
100
AcDbText
8
METIN_BILGI
10
0.51
20
-0.13999999999999999
30
0
40
0.009000000000000001
1
356 x 480 x 140 mm / 25 kg
50
0
7
STANDARD
100
AcDbText
0
TEXT
5
11F41
330
11DBA
100
AcDbEntity
100
AcDbText
8
METIN_BILGI
10
0.9300000000000002
20
-0.13999999999999999
30
0
40
0.01
1
2 Adet
50
0
7
STANDARD
100
AcDbText
0
TEXT
5
11F42
330
11DBA
100
AcDbEntity
100
AcDbText
8
METIN_BILGI
10
1.07
20
-0.13999999999999999
30
0
40
0.009000000000000001
1
Turkcell (Sol Ust Sira)
50
0
7
STANDARD
100
AcDbText
0
LINE
5
11F43
330
11DBA
100
AcDbEntity
100
AcDbLine
8
METIN_BILGI
10
-0.22
20
-0.186
30
0
11
1.46
21
-0.186
31
0
0
TEXT
5
11F44
330
11DBA
100
AcDbEntity
100
AcDbText
8
METIN_BILGI
10
-0.21
20
-0.176
30
0
40
0.01
1
02
50
0
7
STANDARD
100
AcDbText
0
TEXT
5
11F45
330
11DBA
100
AcDbEntity
100
AcDbText
8
METIN_BILGI
10
-0.15
20
-0.176
30
0
40
0.01
1
Turkcell LTE/NR RRU 5502 Modulu
50
0
7
STANDARD
100
AcDbText
0
TEXT
5
11F46
330
11DBA
100
AcDbEntity
100
AcDbText
8
METIN_BILGI
10
0.51
20
-0.176
30
0
40
0.009000000000000001
1
356 x 480 x 140 mm / 25 kg
50
0
7
STANDARD
100
AcDbText
0
TEXT
5
11F47
330
11DBA
100
AcDbEntity
100
AcDbText
8
METIN_BILGI
10
0.9300000000000002
20
-0.176
30
0
40
0.01
1
2 Adet
50
0
7
STANDARD
100
AcDbText
0
TEXT
5
11F48
330
11DBA
100
AcDbEntity
100
AcDbText
8
METIN_BILGI
10
1.07
20
-0.176
30
0
40
0.009000000000000001
1
Turkcell (Sol Orta Sira)
50
0
7
STANDARD
100
AcDbText
0
LINE
5
11F49
330
11DBA
100
AcDbEntity
100
AcDbLine
8
METIN_BILGI
10
-0.22
20
-0.222
30
0
11
1.46
21
-0.222
31
0
0
TEXT
5
11F4A
330
11DBA
100
AcDbEntity
100
AcDbText
8
METIN_BILGI
10
-0.21
20
-0.212
30
0
40
0.01
1
03
50
0
7
STANDARD
100
AcDbText
0
TEXT
5
11F4B
330
11DBA
100
AcDbEntity
100
AcDbText
8
METIN_BILGI
10
-0.15
20
-0.212
30
0
40
0.01
1
Turk Telekom NR RRU 5818W (5G) Modulu
50
0
7
STANDARD
100
AcDbText
0
TEXT
5
11F4C
330
11DBA
100
AcDbEntity
100
AcDbText
8
METIN_BILGI
10
0.51
20
-0.212
30
0
40
0.009000000000000001
1
356 x 480 x 140 mm / 25 kg
50
0
7
STANDARD
100
AcDbText
0
TEXT
5
11F4D
330
11DBA
100
AcDbEntity
100
AcDbText
8
METIN_BILGI
10
0.9300000000000002
20
-0.212
30
0
40
0.01
1
2 Adet
50
0
7
STANDARD
100
AcDbText
0
TEXT
5
11F4E
330
11DBA
100
AcDbEntity
100
AcDbText
8
METIN_BILGI
10
1.07
20
-0.212
30
0
40
0.009000000000000001
1
Turk Telekom (Sag Ust Sira)
50
0
7
STANDARD
100
AcDbText
0
LINE
5
11F4F
330
11DBA
100
AcDbEntity
100
AcDbLine
8
METIN_BILGI
10
-0.22
20
-0.258
30
0
11
1.46
21
-0.258
31
0
0
TEXT
5
11F50
330
11DBA
100
AcDbEntity
100
AcDbText
8
METIN_BILGI
10
-0.21
20
-0.248
30
0
40
0.01
1
04
50
0
7
STANDARD
100
AcDbText
0
TEXT
5
11F51
330
11DBA
100
AcDbEntity
100
AcDbText
8
METIN_BILGI
10
-0.15
20
-0.248
30
0
40
0.01
1
Turk Telekom 2G-3G-4G RRU 5527 Modulu
50
0
7
STANDARD
100
AcDbText
0
TEXT
5
11F52
330
11DBA
100
AcDbEntity
100
AcDbText
8
METIN_BILGI
10
0.51
20
-0.248
30
0
40
0.009000000000000001
1
356 x 480 x 140 mm / 25 kg
50
0
7
STANDARD
100
AcDbText
0
TEXT
5
11F53
330
11DBA
100
AcDbEntity
100
AcDbText
8
METIN_BILGI
10
0.9300000000000002
20
-0.248
30
0
40
0.01
1
2 Adet
50
0
7
STANDARD
100
AcDbText
0
TEXT
5
11F54
330
11DBA
100
AcDbEntity
100
AcDbText
8
METIN_BILGI
10
1.07
20
-0.248
30
0
40
0.009000000000000001
1
Turk Telekom (Sag Orta Sira)
50
0
7
STANDARD
100
AcDbText
0
LINE
5
11F55
330
11DBA
100
AcDbEntity
100
AcDbLine
8
METIN_BILGI
10
-0.22
20
-0.29400000000000004
30
0
11
1.46
21
-0.29400000000000004
31
0
0
TEXT
5
11F56
330
11DBA
100
AcDbEntity
100
AcDbText
8
METIN_BILGI
10
-0.21
20
-0.28400000000000003
30
0
40
0.01
1
05
50
0
7
STANDARD
100
AcDbText
0
TEXT
5
11F57
330
11DBA
100
AcDbEntity
100
AcDbText
8
METIN_BILGI
10
-0.15
20
-0.28400000000000003
30
0
40
0.01
1
Vodafone RRU 5526t Cift Bant Modulu
50
0
7
STANDARD
100
AcDbText
0
TEXT
5
11F58
330
11DBA
100
AcDbEntity
100
AcDbText
8
METIN_BILGI
10
0.51
20
-0.28400000000000003
30
0
40
0.009000000000000001
1
356 x 480 x 135 mm / 28 kg
50
0
7
STANDARD
100
AcDbText
0
TEXT
5
11F59
330
11DBA
100
AcDbEntity
100
AcDbText
8
METIN_BILGI
10
0.9300000000000002
20
-0.28400000000000003
30
0
40
0.01
1
6 Adet
50
0
7
STANDARD
100
AcDbText
0
TEXT
5
11F5A
330
11DBA
100
AcDbEntity
100
AcDbText
8
METIN_BILGI
10
1.07
20
-0.28400000000000003
30
0
40
0.009000000000000001
1
Vodafone (3+3 Alt Sira)
50
0
7
STANDARD
100
AcDbText
0
LINE
5
11F5B
330
11DBA
100
AcDbEntity
100
AcDbLine
8
METIN_BILGI
10
-0.22
20
-0.33
30
0
11
1.46
21
-0.33
31
0
0
TEXT
5
11F5C
330
11DBA
100
AcDbEntity
100
AcDbText
8
METIN_BILGI
10
-0.21
20
-0.32
30
0
40
0.01
1
06
50
0
7
STANDARD
100
AcDbText
0
TEXT
5
11F5D
330
11DBA
100
AcDbEntity
100
AcDbText
8
METIN_BILGI
10
-0.15
20
-0.32
30
0
40
0.01
1
2" Sicak Daldirma Galvaniz Montaj Borusu
50
0
7
STANDARD
100
AcDbText
0
TEXT
5
11F5E
330
11DBA
100
AcDbEntity
100
AcDbText
8
METIN_BILGI
10
0.51
20
-0.32
30
0
40
0.009000000000000001
1
O60.3 x 3.65mm - L=2900mm
50
0
7
STANDARD
100
AcDbText
0
TEXT
5
11F5F
330
11DBA
100
AcDbEntity
100
AcDbText
8
METIN_BILGI
10
0.9300000000000002
20
-0.32
30
0
40
0.01
1
2 Adet
50
0
7
STANDARD
100
AcDbText
0
TEXT
5
11F60
330
11DBA
100
AcDbEntity
100
AcDbText
8
METIN_BILGI
10
1.07
20
-0.32
30
0
40
0.009000000000000001
1
Ortak Tasiyici Dikmeler
50
0
7
STANDARD
100
AcDbText
0
LINE
5
11F61
330
11DBA
100
AcDbEntity
100
AcDbLine
8
METIN_BILGI
10
-0.22
20
-0.366
30
0
11
1.46
21
-0.366
31
0
0
TEXT
5
11F62
330
11DBA
100
AcDbEntity
100
AcDbText
8
METIN_BILGI
10
-0.21
20
-0.356
30
0
40
0.01
1
07
50
0
7
STANDARD
100
AcDbText
0
TEXT
5
11F63
330
11DBA
100
AcDbEntity
100
AcDbText
8
METIN_BILGI
10
-0.15
20
-0.356
30
0
40
0.01
1
20 cm Agir Hizmet Ofset Konsol Kolu
50
0
7
STANDARD
100
AcDbText
0
TEXT
5
11F64
330
11DBA
100
AcDbEntity
100
AcDbText
8
METIN_BILGI
10
0.51
20
-0.356
30
0
40
0.009000000000000001
1
60x60x4mm Kutu Profil (L=200mm)
50
0
7
STANDARD
100
AcDbText
0
TEXT
5
11F65
330
11DBA
100
AcDbEntity
100
AcDbText
8
METIN_BILGI
10
0.9300000000000002
20
-0.356
30
0
40
0.01
1
6 Adet
50
0
7
STANDARD
100
AcDbText
0
TEXT
5
11F66
330
11DBA
100
AcDbEntity
100
AcDbText
8
METIN_BILGI
10
1.07
20
-0.356
30
0
40
0.009000000000000001
1
3 Noktadan Rijit Tespit
50
0
7
STANDARD
100
AcDbText
0
LINE
5
11F67
330
11DBA
100
AcDbEntity
100
AcDbLine
8
METIN_BILGI
10
-0.22
20
-0.402
30
0
11
1.46
21
-0.402
31
0
0
TEXT
5
11F68
330
11DBA
100
AcDbEntity
100
AcDbText
8
METIN_BILGI
10
-0.21
20
-0.392
30
0
40
0.01
1
08
50
0
7
STANDARD
100
AcDbText
0
TEXT
5
11F69
330
11DBA
100
AcDbEntity
100
AcDbText
8
METIN_BILGI
10
-0.15
20
-0.392
30
0
40
0.01
1
O140mm Makas Dikmesi Cift Parcali Kelepce
50
0
7
STANDARD
100
AcDbText
0
TEXT
5
11F6A
330
11DBA
100
AcDbEntity
100
AcDbText
8
METIN_BILGI
10
0.51
20
-0.392
30
0
40
0.009000000000000001
1
t=8mm St37 Celik + M16 Civata
50
0
7
STANDARD
100
AcDbText
0
TEXT
5
11F6B
330
11DBA
100
AcDbEntity
100
AcDbText
8
METIN_BILGI
10
0.9300000000000002
20
-0.392
30
0
40
0.01
1
6 Takim
50
0
7
STANDARD
100
AcDbText
0
TEXT
5
11F6C
330
11DBA
100
AcDbEntity
100
AcDbText
8
METIN_BILGI
10
1.07
20
-0.392
30
0
40
0.009000000000000001
1
Makas Govdesine Baglanti
50
0
7
STANDARD
100
AcDbText
0
LINE
5
11F6D
330
11DBA
100
AcDbEntity
100
AcDbLine
8
METIN_BILGI
10
-0.22
20
-0.43800000000000006
30
0
11
1.46
21
-0.43800000000000006
31
0
0
TEXT
5
11F6E
330
11DBA
100
AcDbEntity
100
AcDbText
8
METIN_BILGI
10
-0.21
20
-0.42800000000000005
30
0
40
0.01
1
09
50
0
7
STANDARD
100
AcDbText
0
TEXT
5
11F6F
330
11DBA
100
AcDbEntity
100
AcDbText
8
METIN_BILGI
10
-0.15
20
-0.42800000000000005
30
0
40
0.01
1
2" Boru U-Bolt Kelepcesi ve Eyer Pleyti
50
0
7
STANDARD
100
AcDbText
0
TEXT
5
11F70
330
11DBA
100
AcDbEntity
100
AcDbText
8
METIN_BILGI
10
0.51
20
-0.42800000000000005
30
0
40
0.009000000000000001
1
M12 Celik U-Bolt + Kilitli Pul
50
0
7
STANDARD
100
AcDbText
0
TEXT
5
11F71
330
11DBA
100
AcDbEntity
100
AcDbText
8
METIN_BILGI
10
0.9300000000000002
20
-0.42800000000000005
30
0
40
0.01
1
12 Takim
50
0
7
STANDARD
100
AcDbText
0
TEXT
5
11F72
330
11DBA
100
AcDbEntity
100
AcDbText
8
METIN_BILGI
10
1.07
20
-0.42800000000000005
30
0
40
0.009000000000000001
1
Boru Kilitleme
50
0
7
STANDARD
100
AcDbText
0
LINE
5
11F73
330
11DBA
100
AcDbEntity
100
AcDbLine
8
METIN_BILGI
10
-0.22
20
-0.4740000000000001
30
0
11
1.46
21
-0.4740000000000001
31
0
0
TEXT
5
11F74
330
11DBA
100
AcDbEntity
100
AcDbText
8
METIN_BILGI
10
-0.21
20
-0.4640000000000001
30
0
40
0.01
1
10
50
0
7
STANDARD
100
AcDbText
0
TEXT
5
11F75
330
11DBA
100
AcDbEntity
100
AcDbText
8
METIN_BILGI
10
-0.15
20
-0.4640000000000001
30
0
40
0.01
1
RRU Kisa Kenar Boru Kelepcesi Adaptoru
50
0
7
STANDARD
100
AcDbText
0
TEXT
5
11F76
330
11DBA
100
AcDbEntity
100
AcDbText
8
METIN_BILGI
10
0.51
20
-0.4640000000000001
30
0
40
0.009000000000000001
1
Aluminyum Dokum (35 Nm Tork)
50
0
7
STANDARD
100
AcDbText
0
TEXT
5
11F77
330
11DBA
100
AcDbEntity
100
AcDbText
8
METIN_BILGI
10
0.9300000000000002
20
-0.4640000000000001
30
0
40
0.01
1
14 Takim
50
0
7
STANDARD
100
AcDbText
0
TEXT
5
11F78
330
11DBA
100
AcDbEntity
100
AcDbText
8
METIN_BILGI
10
1.07
20
-0.4640000000000001
30
0
40
0.009000000000000001
1
RRU Tasiyici Kelepce
50
0
7
STANDARD
100
AcDbText
0
LINE
5
11F79
330
11DBA
100
AcDbEntity
100
AcDbLine
8
METIN_BILGI
10
-0.22
20
-0.51
30
0
11
1.46
21
-0.51
31
0
0
TEXT
5
11F7A
330
11DBA
100
AcDbEntity
100
AcDbText
8
METIN_BILGI
10
-0.21
20
-0.5
30
0
40
0.01
1
11
50
0
7
STANDARD
100
AcDbText
0
TEXT
5
11F7B
330
11DBA
100
AcDbEntity
100
AcDbText
8
METIN_BILGI
10
-0.15
20
-0.5
30
0
40
0.01
1
O4mm Paslanmaz Celik Emniyet Halati
50
0
7
STANDARD
100
AcDbText
0
TEXT
5
11F7C
330
11DBA
100
AcDbEntity
100
AcDbText
8
METIN_BILGI
10
0.51
20
-0.5
30
0
40
0.009000000000000001
1
L=600mm / 316 Kalite Celik
50
0
7
STANDARD
100
AcDbText
0
TEXT
5
11F7D
330
11DBA
100
AcDbEntity
100
AcDbText
8
METIN_BILGI
10
0.9300000000000002
20
-0.5
30
0
40
0.01
1
14 Adet
50
0
7
STANDARD
100
AcDbText
0
TEXT
5
11F7E
330
11DBA
100
AcDbEntity
100
AcDbText
8
METIN_BILGI
10
1.07
20
-0.5
30
0
40
0.009000000000000001
1
Dusmeye Karsi Guvenlik
50
0
7
STANDARD
100
AcDbText
0
LINE
5
11F7F
330
11DBA
100
AcDbEntity
100
AcDbLine
8
METIN_BILGI
10
-0.22
20
-0.546
30
0
11
1.46
21
-0.546
31
0
0
TEXT
5
11F80
330
11DBA
100
AcDbEntity
100
AcDbText
8
METIN_BILGI
10
-0.21
20
-0.536
30
0
40
0.01
1
12
50
0
7
STANDARD
100
AcDbText
0
TEXT
5
11F81
330
11DBA
100
AcDbEntity
100
AcDbText
8
METIN_BILGI
10
-0.15
20
-0.536
30
0
40
0.01
1
1/2" Super Esnek RF Jumper Kablo Seti
50
0
7
STANDARD
100
AcDbText
0
TEXT
5
11F82
330
11DBA
100
AcDbEntity
100
AcDbText
8
METIN_BILGI
10
0.51
20
-0.536
30
0
40
0.009000000000000001
1
4.3-10 DIN / L=1.5 - 2.5m
50
0
7
STANDARD
100
AcDbText
0
TEXT
5
11F83
330
11DBA
100
AcDbEntity
100
AcDbText
8
METIN_BILGI
10
0.9300000000000002
20
-0.536
30
0
40
0.01
1
56 Adet
50
0
7
STANDARD
100
AcDbText
0
TEXT
5
11F84
330
11DBA
100
AcDbEntity
100
AcDbText
8
METIN_BILGI
10
1.07
20
-0.536
30
0
40
0.009000000000000001
1
RRU - Tava Baglantisi
50
0
7
STANDARD
100
AcDbText
0
LINE
5
11F85
330
11DBA
100
AcDbEntity
100
AcDbLine
8
METIN_BILGI
10
-0.22
20
-0.5820000000000001
30
0
11
1.46
21
-0.5820000000000001
31
0
0
TEXT
5
11F86
330
11DBA
100
AcDbEntity
100
AcDbText
8
METIN_BILGI
10
-0.21
20
-0.5720000000000001
30
0
40
0.01
1
13
50
0
7
STANDARD
100
AcDbText
0
TEXT
5
11F87
330
11DBA
100
AcDbEntity
100
AcDbText
8
METIN_BILGI
10
-0.15
20
-0.5720000000000001
30
0
40
0.01
1
16 mm2 Sari-Yesil Bakir Topraklama Hatti
50
0
7
STANDARD
100
AcDbText
0
TEXT
5
11F88
330
11DBA
100
AcDbEntity
100
AcDbText
8
METIN_BILGI
10
0.51
20
-0.5720000000000001
30
0
40
0.009000000000000001
1
H07V-K 16 mm2 Cu / Cift Delik
50
0
7
STANDARD
100
AcDbText
0
TEXT
5
11F89
330
11DBA
100
AcDbEntity
100
AcDbText
8
METIN_BILGI
10
0.9300000000000002
20
-0.5720000000000001
30
0
40
0.01
1
14 Set
50
0
7
STANDARD
100
AcDbText
0
TEXT
5
11F8A
330
11DBA
100
AcDbEntity
100
AcDbText
8
METIN_BILGI
10
1.07
20
-0.5720000000000001
30
0
40
0.009000000000000001
1
Govde Es-Potansiyel Toprak
50
0
7
STANDARD
100
AcDbText
0
LINE
5
11F8B
330
11DBA
100
AcDbEntity
100
AcDbLine
8
METIN_BILGI
10
-0.22
20
-0.6180000000000001
30
0
11
1.46
21
-0.6180000000000001
31
0
0
TEXT
5
11F8C
330
11DBA
100
AcDbEntity
100
AcDbText
8
METIN_BILGI
10
-0.21
20
-0.6080000000000001
30
0
40
0.01
1
14
50
0
7
STANDARD
100
AcDbText
0
TEXT
5
11F8D
330
11DBA
100
AcDbEntity
100
AcDbText
8
METIN_BILGI
10
-0.15
20
-0.6080000000000001
30
0
40
0.01
1
500x100mm Perfore Galvaniz Kablo Tavasi
50
0
7
STANDARD
100
AcDbText
0
TEXT
5
11F8E
330
11DBA
100
AcDbEntity
100
AcDbText
8
METIN_BILGI
10
0.51
20
-0.6080000000000001
30
0
40
0.009000000000000001
1
t=2.0mm / L=3000mm Kedi Yolu Alti
50
0
7
STANDARD
100
AcDbText
0
TEXT
5
11F8F
330
11DBA
100
AcDbEntity
100
AcDbText
8
METIN_BILGI
10
0.9300000000000002
20
-0.6080000000000001
30
0
40
0.01
1
Hat Boyu
50
0
7
STANDARD
100
AcDbText
0
TEXT
5
11F90
330
11DBA
100
AcDbEntity
100
AcDbText
8
METIN_BILGI
10
1.07
20
-0.6080000000000001
30
0
40
0.009000000000000001
1
Kablo Guzergahi
50
0
7
STANDARD
100
AcDbText
0
LWPOLYLINE
5
11F91
330
11DBA
100
AcDbEntity
100
AcDbPolyline
8
METIN_BILGI
6
ByLayer
62
256
370
-1
90
4
70
1
10
1.52
20
-0.92
10
1.52
20
-0.040000000000000036
10
2.47
20
-0.040000000000000036
10
2.47
20
-0.92
0
LWPOLYLINE
5
11F92
330
11DBA
100
AcDbEntity
100
AcDbPolyline
8
METIN_BILGI
6
ByLayer
62
256
370
-1
90
4
70
1
10
1.52
20
-0.19
10
1.52
20
-0.04000000000000001
10
2.47
20
-0.04000000000000001
10
2.47
20
-0.19
0
TEXT
5
11F93
330
11DBA
100
AcDbEntity
100
AcDbText
8
METIN_BILGI
10
1.995
20
-0.08499999999999999
30
0
40
0.022
1
TURK TELEKOMUNIKASYON A.S.
50
0
7
STANDARD
72
1
11
1.995
21
-0.08499999999999999
31
0
100
AcDbText
73
0
0
TEXT
5
11F94
330
11DBA
100
AcDbEntity
100
AcDbText
8
METIN_BILGI
10
1.995
20
-0.12
30
0
40
0.016
1
TURKCELL - VODAFONE ORTAK ALTYAPI PROJESI
50
0
7
STANDARD
72
1
11
1.995
21
-0.12
31
0
100
AcDbText
73
0
0
TEXT
5
11F95
330
11DBA
100
AcDbEntity
100
AcDbText
8
METIN_BILGI
10
1.995
20
-0.155
30
0
40
0.013000000000000001
1
SEYRANTEPE STADYUMU KEDI YOLU TESISLERI
50
0
7
STANDARD
72
1
11
1.995
21
-0.155
31
0
100
AcDbText
73
0
0
LWPOLYLINE
5
11F96
330
11DBA
100
AcDbEntity
100
AcDbPolyline
8
METIN_BILGI
6
ByLayer
62
256
370
-1
90
4
70
1
10
1.52
20
-0.39
10
1.52
20
-0.19
10
2.47
20
-0.19
10
2.47
20
-0.39
0
TEXT
5
11F97
330
11DBA
100
AcDbEntity
100
AcDbText
8
METIN_BILGI
10
1.54
20
-0.22
30
0
40
0.012
1
PROJE ADI:
50
0
7
STANDARD
100
AcDbText
0
TEXT
5
11F98
330
11DBA
100
AcDbEntity
100
AcDbText
8
METIN_BILGI
10
1.55
20
-0.255
30
0
40
0.016
1
RAMS PARK / SEYRANTEPE STADYUMU 5G & 4.5G DONUSUMU
50
0
7
STANDARD
100
AcDbText
0
TEXT
5
11F99
330
11DBA
100
AcDbEntity
100
AcDbText
8
METIN_BILGI
10
1.54
20
-0.3
30
0
40
0.012
1
PAFTA ADI:
50
0
7
STANDARD
100
AcDbText
0
TEXT
5
11F9A
330
11DBA
100
AcDbEntity
100
AcDbText
8
METIN_BILGI
10
1.55
20
-0.33499999999999996
30
0
40
0.016
1
ALAN 1 & 3 ORTA KEDI YOLU 14 RRU MONTAJ VE GECIS ENKESITI
50
0
7
STANDARD
100
AcDbText
0
TEXT
5
11F9B
330
11DBA
100
AcDbEntity
100
AcDbText
8
METIN_BILGI
10
1.55
20
-0.365
30
0
40
0.013000000000000001
1
20cm OFSETLI 2" MONTAJ BORULARI VE SERBEST GECIS KORIDORU
50
0
7
STANDARD
100
AcDbText
0
LINE
5
11F9C
330
11DBA
100
AcDbEntity
100
AcDbLine
8
METIN_BILGI
10
1.52
20
-0.46
30
0
11
2.47
21
-0.46
31
0
0
LINE
5
11F9D
330
11DBA
100
AcDbEntity
100
AcDbLine
8
METIN_BILGI
10
1.995
20
-0.46
30
0
11
1.995
21
-0.39
31
0
0
TEXT
5
11F9E
330
11DBA
100
AcDbEntity
100
AcDbText
8
METIN_BILGI
10
1.54
20
-0.41800000000000004
30
0
40
0.01
1
PAFTA NO:
50
0
7
STANDARD
100
AcDbText
0
TEXT
5
11F9F
330
11DBA
100
AcDbEntity
100
AcDbText
8
METIN_BILGI
10
1.55
20
-0.442
30
0
40
0.013000000000000001
1
DWG-TEL-09
50
0
7
STANDARD
100
AcDbText
0
TEXT
5
11FA0
330
11DBA
100
AcDbEntity
100
AcDbText
8
METIN_BILGI
10
2.015
20
-0.41800000000000004
30
0
40
0.01
1
TARIH:
50
0
7
STANDARD
100
AcDbText
0
TEXT
5
11FA1
330
11DBA
100
AcDbEntity
100
AcDbText
8
METIN_BILGI
10
2.025
20
-0.442
30
0
40
0.013000000000000001
1
EKIM 2026
50
0
7
STANDARD
100
AcDbText
0
LINE
5
11FA2
330
11DBA
100
AcDbEntity
100
AcDbLine
8
METIN_BILGI
10
1.52
20
-0.53
30
0
11
2.47
21
-0.53
31
0
0
LINE
5
11FA3
330
11DBA
100
AcDbEntity
100
AcDbLine
8
METIN_BILGI
10
1.995
20
-0.53
30
0
11
1.995
21
-0.46
31
0
0
TEXT
5
11FA4
330
11DBA
100
AcDbEntity
100
AcDbText
8
METIN_BILGI
10
1.54
20
-0.48800000000000004
30
0
40
0.01
1
OLCEK:
50
0
7
STANDARD
100
AcDbText
0
TEXT
5
11FA5
330
11DBA
100
AcDbEntity
100
AcDbText
8
METIN_BILGI
10
1.55
20
-0.512
30
0
40
0.013000000000000001
1
1:1 m (CAD)
50
0
7
STANDARD
100
AcDbText
0
TEXT
5
11FA6
330
11DBA
100
AcDbEntity
100
AcDbText
8
METIN_BILGI
10
2.015
20
-0.48800000000000004
30
0
40
0.01
1
REV:
50
0
7
STANDARD
100
AcDbText
0
TEXT
5
11FA7
330
11DBA
100
AcDbEntity
100
AcDbText
8
METIN_BILGI
10
2.025
20
-0.512
30
0
40
0.013000000000000001
1
REV-01
50
0
7
STANDARD
100
AcDbText
0
LINE
5
11FA8
330
11DBA
100
AcDbEntity
100
AcDbLine
8
METIN_BILGI
10
1.52
20
-0.6000000000000001
30
0
11
2.47
21
-0.6000000000000001
31
0
0
LINE
5
11FA9
330
11DBA
100
AcDbEntity
100
AcDbLine
8
METIN_BILGI
10
1.995
20
-0.6000000000000001
30
0
11
1.995
21
-0.53
31
0
0
TEXT
5
11FAA
330
11DBA
100
AcDbEntity
100
AcDbText
8
METIN_BILGI
10
1.54
20
-0.558
30
0
40
0.01
1
CIZEN:
50
0
7
STANDARD
100
AcDbText
0
TEXT
5
11FAB
330
11DBA
100
AcDbEntity
100
AcDbText
8
METIN_BILGI
10
1.55
20
-0.5820000000000001
30
0
40
0.013000000000000001
1
ANTIGRAVITY CAD ENG
50
0
7
STANDARD
100
AcDbText
0
TEXT
5
11FAC
330
11DBA
100
AcDbEntity
100
AcDbText
8
METIN_BILGI
10
2.015
20
-0.558
30
0
40
0.01
1
KONTROL:
50
0
7
STANDARD
100
AcDbText
0
TEXT
5
11FAD
330
11DBA
100
AcDbEntity
100
AcDbText
8
METIN_BILGI
10
2.025
20
-0.5820000000000001
30
0
40
0.013000000000000001
1
BAS MUHENDISLIK
50
0
7
STANDARD
100
AcDbText
0
LINE
5
11FAE
330
11DBA
100
AcDbEntity
100
AcDbLine
8
METIN_BILGI
10
1.52
20
-0.67
30
0
11
2.47
21
-0.67
31
0
0
LINE
5
11FAF
330
11DBA
100
AcDbEntity
100
AcDbLine
8
METIN_BILGI
10
1.995
20
-0.67
30
0
11
1.995
21
-0.6000000000000001
31
0
0
TEXT
5
11FB0
330
11DBA
100
AcDbEntity
100
AcDbText
8
METIN_BILGI
10
1.54
20
-0.628
30
0
40
0.01
1
STATIK ONAY:
50
0
7
STANDARD
100
AcDbText
0
TEXT
5
11FB1
330
11DBA
100
AcDbEntity
100
AcDbText
8
METIN_BILGI
10
1.55
20
-0.652
30
0
40
0.013000000000000001
1
UYGUNDUR (CE)
50
0
7
STANDARD
100
AcDbText
0
TEXT
5
11FB2
330
11DBA
100
AcDbEntity
100
AcDbText
8
METIN_BILGI
10
2.015
20
-0.628
30
0
40
0.01
1
FORMAT:
50
0
7
STANDARD
100
AcDbText
0
TEXT
5
11FB3
330
11DBA
100
AcDbEntity
100
AcDbText
8
METIN_BILGI
10
2.025
20
-0.652
30
0
40
0.013000000000000001
1
AUTOCAD DXF / DWG
50
0
7
STANDARD
100
AcDbText
0
LINE
5
11FB4
330
11DBA
100
AcDbEntity
100
AcDbLine
8
METIN_BILGI
10
1.52
20
-0.74
30
0
11
2.47
21
-0.74
31
0
0
LINE
5
11FB5
330
11DBA
100
AcDbEntity
100
AcDbLine
8
METIN_BILGI
10
1.995
20
-0.74
30
0
11
1.995
21
-0.6699999999999999
31
0
0
TEXT
5
11FB6
330
11DBA
100
AcDbEntity
100
AcDbText
8
METIN_BILGI
10
1.54
20
-0.698
30
0
40
0.01
1
DISIPLIN:
50
0
7
STANDARD
100
AcDbText
0
TEXT
5
11FB7
330
11DBA
100
AcDbEntity
100
AcDbText
8
METIN_BILGI
10
1.55
20
-0.722
30
0
40
0.013000000000000001
1
TELEKOM & ELEKTROMEKANIK
50
0
7
STANDARD
100
AcDbText
0
TEXT
5
11FB8
330
11DBA
100
AcDbEntity
100
AcDbText
8
METIN_BILGI
10
2.015
20
-0.698
30
0
40
0.01
1
DURUM:
50
0
7
STANDARD
100
AcDbText
0
TEXT
5
11FB9
330
11DBA
100
AcDbEntity
100
AcDbText
8
METIN_BILGI
10
2.025
20
-0.722
30
0
40
0.013000000000000001
1
AS-BUILT / IMALAT
50
0
7
STANDARD
100
AcDbText
0
TEXT
5
11FBA
330
11DBA
100
AcDbEntity
100
AcDbText
8
METIN_BILGI
10
1.995
20
-0.885
30
0
40
0.011
1
BU PAFTA GSM OPERATORLERI VE STADYUM YONETIMI ONAYLI RESMI IMALAT PROJESIDIR.
50
0
7
STANDARD
72
1
11
1.995
21
-0.885
31
0
100
AcDbText
73
0
0
TEXT
5
11FBB
330
11DBA
100
AcDbEntity
100
AcDbText
8
METIN_BILGI
10
1.995
20
-0.905
30
0
40
0.01
1
TUM OLCULER YERINDE KONTROL EDILECEKTIR. OLCUSUZ IMALAT YAPILAMAZ.
50
0
7
STANDARD
72
1
11
1.995
21
-0.905
31
0
100
AcDbText
73
0
0
LWPOLYLINE
5
11E10
330
11DBA
100
AcDbEntity
100
AcDbPolyline
8
EKP_TURKCELL_RRU
6
ByLayer
62
256
370
-1
90
4
70
1
10
-1.8758500000000005
20
1.7300000000000002
10
-1.8758500000000005
20
2.21
10
-1.5198500000000004
20
2.21
10
-1.5198500000000004
20
1.7300000000000002
0
LINE
5
11E11
330
11DBA
100
AcDbEntity
100
AcDbLine
8
EKP_TURKCELL_RRU
10
-1.8458500000000004
20
1.7700000000000002
30
0
11
-1.8458500000000004
21
2.17
31
0
0
LINE
5
11E12
330
11DBA
100
AcDbEntity
100
AcDbLine
8
EKP_TURKCELL_RRU
10
-1.8208500000000005
20
1.7700000000000002
30
0
11
-1.8208500000000005
21
2.17
31
0
0
LINE
5
11E13
330
11DBA
100
AcDbEntity
100
AcDbLine
8
EKP_TURKCELL_RRU
10
-1.7958500000000006
20
1.7700000000000002
30
0
11
-1.7958500000000006
21
2.17
31
0
0
LINE
5
11E14
330
11DBA
100
AcDbEntity
100
AcDbLine
8
EKP_TURKCELL_RRU
10
-1.7708500000000007
20
1.7700000000000002
30
0
11
-1.7708500000000007
21
2.17
31
0
0
LINE
5
11E15
330
11DBA
100
AcDbEntity
100
AcDbLine
8
EKP_TURKCELL_RRU
10
-1.7458500000000008
20
1.7700000000000002
30
0
11
-1.7458500000000008
21
2.17
31
0
0
LINE
5
11E16
330
11DBA
100
AcDbEntity
100
AcDbLine
8
EKP_TURKCELL_RRU
10
-1.7208500000000009
20
1.7700000000000002
30
0
11
-1.7208500000000009
21
2.17
31
0
0
LINE
5
11E17
330
11DBA
100
AcDbEntity
100
AcDbLine
8
EKP_TURKCELL_RRU
10
-1.695850000000001
20
1.7700000000000002
30
0
11
-1.695850000000001
21
2.17
31
0
0
LINE
5
11E18
330
11DBA
100
AcDbEntity
100
AcDbLine
8
EKP_TURKCELL_RRU
10
-1.670850000000001
20
1.7700000000000002
30
0
11
-1.670850000000001
21
2.17
31
0
0
LINE
5
11E19
330
11DBA
100
AcDbEntity
100
AcDbLine
8
EKP_TURKCELL_RRU
10
-1.6458500000000011
20
1.7700000000000002
30
0
11
-1.6458500000000011
21
2.17
31
0
0
LINE
5
11E1A
330
11DBA
100
AcDbEntity
100
AcDbLine
8
EKP_TURKCELL_RRU
10
-1.6208500000000012
20
1.7700000000000002
30
0
11
-1.6208500000000012
21
2.17
31
0
0
LINE
5
11E1B
330
11DBA
100
AcDbEntity
100
AcDbLine
8
EKP_TURKCELL_RRU
10
-1.5958500000000013
20
1.7700000000000002
30
0
11
-1.5958500000000013
21
2.17
31
0
0
LINE
5
11E1C
330
11DBA
100
AcDbEntity
100
AcDbLine
8
EKP_TURKCELL_RRU
10
-1.5708500000000014
20
1.7700000000000002
30
0
11
-1.5708500000000014
21
2.17
31
0
0
LWPOLYLINE
5
11E1D
330
11DBA
100
AcDbEntity
100
AcDbPolyline
8
EKP_TURKCELL_RRU
6
ByLayer
62
256
370
-1
90
4
70
1
10
-1.7558500000000006
20
2.21
10
-1.7558500000000006
20
2.255
10
-1.6398500000000005
20
2.255
10
-1.6398500000000005
20
2.21
0
LWPOLYLINE
5
11E7F
330
11DBA
100
AcDbEntity
100
AcDbPolyline
8
EKP_TURKCELL_RRU
6
ByLayer
62
256
370
-1
90
4
70
1
10
0.45999999999999996
20
2.6000000000000005
10
0.45999999999999996
20
3.0800000000000005
10
0.72
20
3.0800000000000005
10
0.72
20
2.6000000000000005
0
LWPOLYLINE
5
11E82
330
11DBA
100
AcDbEntity
100
AcDbPolyline
8
EKP_TURKCELL_RRU
6
ByLayer
62
256
370
-1
90
4
70
1
10
0.6799999999999999
20
2.6000000000000005
10
0.6799999999999999
20
3.0800000000000005
10
0.94
20
3.0800000000000005
10
0.94
20
2.6000000000000005
0
LWPOLYLINE
5
11E86
330
11DBA
100
AcDbEntity
100
AcDbPolyline
8
EKP_TURKCELL_RRU
6
ByLayer
62
256
370
-1
90
4
70
1
10
0.45999999999999996
20
3.47
10
0.45999999999999996
20
3.95
10
0.72
20
3.95
10
0.72
20
3.47
0
LWPOLYLINE
5
11E89
330
11DBA
100
AcDbEntity
100
AcDbPolyline
8
EKP_TURKCELL_RRU
6
ByLayer
62
256
370
-1
90
4
70
1
10
0.6799999999999999
20
3.47
10
0.6799999999999999
20
3.95
10
0.94
20
3.95
10
0.94
20
3.47
0
LWPOLYLINE
5
11EF0
330
11DBA
100
AcDbEntity
100
AcDbPolyline
8
EKP_TURKCELL_RRU
6
ByLayer
62
256
370
-1
90
4
70
1
10
-0.305
20
0.27
10
-0.305
20
0.63
10
0.11499999999999999
20
0.63
10
0.11499999999999999
20
0.27
0
LINE
5
11EF1
330
11DBA
100
AcDbEntity
100
AcDbLine
8
EKP_TURKCELL_RRU
10
-0.265
20
0.30000000000000004
30
0
11
-0.265
21
0.6
31
0
0
LINE
5
11EF2
330
11DBA
100
AcDbEntity
100
AcDbLine
8
EKP_TURKCELL_RRU
10
-0.23500000000000001
20
0.30000000000000004
30
0
11
-0.23500000000000001
21
0.6
31
0
0
LINE
5
11EF3
330
11DBA
100
AcDbEntity
100
AcDbLine
8
EKP_TURKCELL_RRU
10
-0.20500000000000002
20
0.30000000000000004
30
0
11
-0.20500000000000002
21
0.6
31
0
0
LINE
5
11EF4
330
11DBA
100
AcDbEntity
100
AcDbLine
8
EKP_TURKCELL_RRU
10
-0.17500000000000002
20
0.30000000000000004
30
0
11
-0.17500000000000002
21
0.6
31
0
0
LINE
5
11EF5
330
11DBA
100
AcDbEntity
100
AcDbLine
8
EKP_TURKCELL_RRU
10
-0.14500000000000002
20
0.30000000000000004
30
0
11
-0.14500000000000002
21
0.6
31
0
0
LINE
5
11EF6
330
11DBA
100
AcDbEntity
100
AcDbLine
8
EKP_TURKCELL_RRU
10
-0.11500000000000002
20
0.30000000000000004
30
0
11
-0.11500000000000002
21
0.6
31
0
0
LINE
5
11EF7
330
11DBA
100
AcDbEntity
100
AcDbLine
8
EKP_TURKCELL_RRU
10
-0.08500000000000002
20
0.30000000000000004
30
0
11
-0.08500000000000002
21
0.6
31
0
0
LINE
5
11EF8
330
11DBA
100
AcDbEntity
100
AcDbLine
8
EKP_TURKCELL_RRU
10
-0.05500000000000002
20
0.30000000000000004
30
0
11
-0.05500000000000002
21
0.6
31
0
0
LINE
5
11EF9
330
11DBA
100
AcDbEntity
100
AcDbLine
8
EKP_TURKCELL_RRU
10
-0.025000000000000022
20
0.30000000000000004
30
0
11
-0.025000000000000022
21
0.6
31
0
0
LINE
5
11EFA
330
11DBA
100
AcDbEntity
100
AcDbLine
8
EKP_TURKCELL_RRU
10
0.004999999999999977
20
0.30000000000000004
30
0
11
0.004999999999999977
21
0.6
31
0
0
LINE
5
11EFB
330
11DBA
100
AcDbEntity
100
AcDbLine
8
EKP_TURKCELL_RRU
10
0.034999999999999976
20
0.30000000000000004
30
0
11
0.034999999999999976
21
0.6
31
0
0
LINE
5
11EFC
330
11DBA
100
AcDbEntity
100
AcDbLine
8
EKP_TURKCELL_RRU
10
0.06499999999999997
20
0.30000000000000004
30
0
11
0.06499999999999997
21
0.6
31
0
0
LINE
5
11EFD
330
11DBA
100
AcDbEntity
100
AcDbLine
8
EKP_TURKCELL_RRU
10
0.09499999999999997
20
0.30000000000000004
30
0
11
0.09499999999999997
21
0.6
31
0
0
LWPOLYLINE
5
11F07
330
11DBA
100
AcDbEntity
100
AcDbPolyline
8
EKP_TURKCELL_RRU
6
ByLayer
62
256
370
-1
90
4
70
1
10
1.1
20
0.63
10
1.1
20
0.67
10
1.9000000000000001
20
0.67
10
1.9000000000000001
20
0.63
0
LWPOLYLINE
5
11E75
330
11DBA
100
AcDbEntity
100
AcDbPolyline
8
EKP_VODAFONE_RRU
6
ByLayer
62
256
370
-1
90
4
70
1
10
0.3999999999999999
20
1.7300000000000002
10
0.3999999999999999
20
2.21
10
0.6599999999999999
20
2.21
10
0.6599999999999999
20
1.7300000000000002
0
LWPOLYLINE
5
11E78
330
11DBA
100
AcDbEntity
100
AcDbPolyline
8
EKP_VODAFONE_RRU
6
ByLayer
62
256
370
-1
90
4
70
1
10
0.57
20
1.7300000000000002
10
0.57
20
2.21
10
0.83
20
2.21
10
0.83
20
1.7300000000000002
0
LWPOLYLINE
5
11E7B
330
11DBA
100
AcDbEntity
100
AcDbPolyline
8
EKP_VODAFONE_RRU
6
ByLayer
62
256
370
-1
90
4
70
1
10
0.74
20
1.7300000000000002
10
0.74
20
2.21
10
1
20
2.21
10
1
20
1.7300000000000002
0
LWPOLYLINE
5
11E8D
330
11DBA
100
AcDbEntity
100
AcDbPolyline
8
EKP_VODAFONE_RRU
6
ByLayer
62
256
370
-1
90
4
70
1
10
1.5
20
1.7300000000000002
10
1.5
20
2.21
10
1.76
20
2.21
10
1.76
20
1.7300000000000002
0
LWPOLYLINE
5
11E90
330
11DBA
100
AcDbEntity
100
AcDbPolyline
8
EKP_VODAFONE_RRU
6
ByLayer
62
256
370
-1
90
4
70
1
10
1.67
20
1.7300000000000002
10
1.67
20
2.21
10
1.93
20
2.21
10
1.93
20
1.7300000000000002
0
LWPOLYLINE
5
11E93
330
11DBA
100
AcDbEntity
100
AcDbPolyline
8
EKP_VODAFONE_RRU
6
ByLayer
62
256
370
-1
90
4
70
1
10
1.8399999999999999
20
1.7300000000000002
10
1.8399999999999999
20
2.21
10
2.0999999999999996
20
2.21
10
2.0999999999999996
20
1.7300000000000002
0
LWPOLYLINE
5
11E97
330
11DBA
100
AcDbEntity
100
AcDbPolyline
8
EKP_TURK_TELEKOM_RRU
6
ByLayer
62
256
370
-1
90
4
70
1
10
1.56
20
2.6000000000000005
10
1.56
20
3.0800000000000005
10
1.82
20
3.0800000000000005
10
1.82
20
2.6000000000000005
0
LWPOLYLINE
5
11E9A
330
11DBA
100
AcDbEntity
100
AcDbPolyline
8
EKP_TURK_TELEKOM_RRU
6
ByLayer
62
256
370
-1
90
4
70
1
10
1.7800000000000002
20
2.6000000000000005
10
1.7800000000000002
20
3.0800000000000005
10
2.04
20
3.0800000000000005
10
2.04
20
2.6000000000000005
0
LWPOLYLINE
5
11E9E
330
11DBA
100
AcDbEntity
100
AcDbPolyline
8
EKP_TURK_TELEKOM_RRU
6
ByLayer
62
256
370
-1
90
4
70
1
10
1.56
20
3.47
10
1.56
20
3.95
10
1.82
20
3.95
10
1.82
20
3.47
0
LWPOLYLINE
5
11EA1
330
11DBA
100
AcDbEntity
100
AcDbPolyline
8
EKP_TURK_TELEKOM_RRU
6
ByLayer
62
256
370
-1
90
4
70
1
10
1.7800000000000002
20
3.47
10
1.7800000000000002
20
3.95
10
2.04
20
3.95
10
2.04
20
3.47
0
ENDSEC
0
SECTION
2
OBJECTS
0
DICTIONARY
5
11DA8
330
0
100
AcDbDictionary
281
1
3
ACAD_GROUP
350
11DBE
0
DICTIONARY
5
11DBE
330
11DA8
100
AcDbDictionary
281
1
0
ENDSEC
0
EOF