0
SECTION
2
HEADER
9
$HANDSEED
5
12482
9
$INSUNITS
70
6
9
$ACADVER
1
AC1021
9
$DWGCODEPAGE
3
UTF-8
0
ENDSEC
0
SECTION
2
CLASSES
0
ENDSEC
0
SECTION
2
TABLES
0
TABLE
2
LTYPE
5
12480
330
0
100
AcDbSymbolTable
70
5
0
LTYPE
5
12223
330
12480
100
AcDbSymbolTableRecord
100
AcDbLinetypeTableRecord
2
CONTINUOUS
3
______
70
0
72
65
73
0
40
0
0
LTYPE
5
12224
330
12480
100
AcDbSymbolTableRecord
100
AcDbLinetypeTableRecord
2
DASHED
3
_ _ _ 
70
0
72
65
73
2
40
10
49
5
74
0
49
-5
74
0
0
LTYPE
5
12225
330
12480
100
AcDbSymbolTableRecord
100
AcDbLinetypeTableRecord
2
DOTTED
3
. . . 
70
0
72
65
73
2
40
5
49
0
74
0
49
-5
74
0
0
LTYPE
5
12227
330
12480
100
AcDbSymbolTableRecord
100
AcDbLinetypeTableRecord
2
ByBlock
3

70
0
72
65
73
0
40
0
0
LTYPE
5
12228
330
12480
100
AcDbSymbolTableRecord
100
AcDbLinetypeTableRecord
2
ByLayer
3

70
0
72
65
73
0
40
0
0
ENDTAB
0
TABLE
2
LAYER
5
12481
330
0
100
AcDbSymbolTable
70
21
0
LAYER
5
12226
330
12481
100
AcDbSymbolTableRecord
100
AcDbLayerTableRecord
2
0
62
7
70
0
6
CONTINUOUS
390
1
0
LAYER
5
12239
330
12481
100
AcDbSymbolTableRecord
100
AcDbLayerTableRecord
2
ZEMIN_PLATFORM
62
8
70
0
6
CONTINUOUS
390
1
0
LAYER
5
1223A
330
12481
100
AcDbSymbolTableRecord
100
AcDbLayerTableRecord
2
KORKULUK_KAPI
62
4
70
0
6
CONTINUOUS
390
1
0
LAYER
5
1223B
330
12481
100
AcDbSymbolTableRecord
100
AcDbLayerTableRecord
2
CELIK_KIRIS_KOLON
62
9
70
0
6
CONTINUOUS
390
1
0
LAYER
5
1223C
330
12481
100
AcDbSymbolTableRecord
100
AcDbLayerTableRecord
2
MONTAJ_BORULARI
62
2
70
0
6
CONTINUOUS
390
1
0
LAYER
5
1223D
330
12481
100
AcDbSymbolTableRecord
100
AcDbLayerTableRecord
2
KABLO_TAVALARI
62
6
70
0
6
CONTINUOUS
390
1
0
LAYER
5
1223E
330
12481
100
AcDbSymbolTableRecord
100
AcDbLayerTableRecord
2
YURUYUS_KORIDORU
62
3
70
0
6
DASHED
390
1
0
LAYER
5
1223F
330
12481
100
AcDbSymbolTableRecord
100
AcDbLayerTableRecord
2
OLCULER
62
1
70
0
6
CONTINUOUS
390
1
0
LAYER
5
12240
330
12481
100
AcDbSymbolTableRecord
100
AcDbLayerTableRecord
2
METIN_BILGI
62
7
70
0
6
CONTINUOUS
390
1
0
LAYER
5
12241
330
12481
100
AcDbSymbolTableRecord
100
AcDbLayerTableRecord
2
EKP_TURKCELL_RRU
62
5
70
0
6
CONTINUOUS
390
1
0
LAYER
5
12242
330
12481
100
AcDbSymbolTableRecord
100
AcDbLayerTableRecord
2
EKP_VODAFONE_RRU
62
1
70
0
6
CONTINUOUS
390
1
0
LAYER
5
12243
330
12481
100
AcDbSymbolTableRecord
100
AcDbLayerTableRecord
2
EKP_TURK_TELEKOM_RRU
62
4
70
0
6
CONTINUOUS
390
1
0
LAYER
5
12244
330
12481
100
AcDbSymbolTableRecord
100
AcDbLayerTableRecord
2
EKP_POI_TASIYICI_SASE
62
30
70
0
6
CONTINUOUS
390
1
0
LAYER
5
12245
330
12481
100
AcDbSymbolTableRecord
100
AcDbLayerTableRecord
2
EKP_POI_MODULLERI
62
40
70
0
6
CONTINUOUS
390
1
0
LAYER
5
12246
330
12481
100
AcDbSymbolTableRecord
100
AcDbLayerTableRecord
2
EKP_RECTIFIER_ELTEK_20U
62
3
70
0
6
CONTINUOUS
390
1
0
LAYER
5
12247
330
12481
100
AcDbSymbolTableRecord
100
AcDbLayerTableRecord
2
EKP_RECTIFIER_MTS9304A
62
94
70
0
6
CONTINUOUS
390
1
0
LAYER
5
12248
330
12481
100
AcDbSymbolTableRecord
100
AcDbLayerTableRecord
2
BLOK_OZEL_PLATFORM
62
140
70
0
6
CONTINUOUS
390
1
0
LAYER
5
12249
330
12481
100
AcDbSymbolTableRecord
100
AcDbLayerTableRecord
2
EKP_MATSING_ANTEN
62
2
70
0
6
CONTINUOUS
390
1
0
LAYER
5
1224A
330
12481
100
AcDbSymbolTableRecord
100
AcDbLayerTableRecord
2
EKP_PANEL_ANTEN
62
6
70
0
6
CONTINUOUS
390
1
0
LAYER
5
1224B
330
12481
100
AcDbSymbolTableRecord
100
AcDbLayerTableRecord
2
EKP_ANTEN_TASIYICI_KOL
62
141
70
0
6
CONTINUOUS
390
1
0
LAYER
5
1224C
330
12481
100
AcDbSymbolTableRecord
100
AcDbLayerTableRecord
2
EKP_DIGER_EKIPMANLAR
62
7
70
0
6
CONTINUOUS
390
1
0
ENDTAB
0
TABLE
2
VPORT
5
12229
330
0
100
AcDbSymbolTable
70
1
0
VPORT
5
1222F
330
12229
100
AcDbSymbolTableRecord
100
AcDbViewportTableRecord
2
*ACTIVE
40
1000
70
0
0
ENDTAB
0
TABLE
2
STYLE
5
1222A
330
0
100
AcDbSymbolTable
70
3
0
STYLE
5
12230
330
1222A
100
AcDbSymbolTableRecord
100
AcDbTextStyleTableRecord
2
standard
70
0
40
0
41
1
50
0
71
0
42
1
3
calibrib.ttf
4

1001
ACAD
1000
Calibri
1071
33554466
0
STYLE
5
12231
330
1222A
100
AcDbSymbolTableRecord
100
AcDbTextStyleTableRecord
2
STANDARD
70
0
40
0
41
1
50
0
71
0
42
1
3
calibrib.ttf
4

1001
ACAD
1000
Calibri
1071
33554466
0
STYLE
5
12232
330
1222A
100
AcDbSymbolTableRecord
100
AcDbTextStyleTableRecord
2
CALIBRI_BOLD
70
0
40
0
41
1
50
0
71
0
42
1
3
calibrib.ttf
4

1001
ACAD
1000
Calibri
1071
33554466
0
ENDTAB
0
TABLE
2
VIEW
5
1222B
330
0
100
AcDbSymbolTable
70
0
0
ENDTAB
0
TABLE
2
UCS
5
1222C
330
0
100
AcDbSymbolTable
70
0
0
ENDTAB
0
TABLE
2
APPID
5
1222D
330
0
100
AcDbSymbolTable
70
1
0
APPID
5
12233
330
1222D
100
AcDbSymbolTableRecord
100
AcDbRegAppTableRecord
2
ACAD
70
0
0
ENDTAB
0
TABLE
2
DIMSTYLE
5
1222E
330
0
100
AcDbSymbolTable
100
AcDbDimStyleTable
70
0
71
1
0
ENDTAB
0
TABLE
2
BLOCK_RECORD
5
1247D
330
0
100
AcDbSymbolTable
70
2
0
BLOCK_RECORD
5
1247E
330
1247D
100
AcDbSymbolTableRecord
100
AcDbBlockTableRecord
2
*Model_Space
70
0
280
0
281
1
0
BLOCK_RECORD
5
1247F
330
1247D
100
AcDbSymbolTableRecord
100
AcDbBlockTableRecord
2
*Paper_Space
70
0
280
0
281
1
0
ENDTAB
0
ENDSEC
0
SECTION
2
BLOCKS
0
BLOCK
5
12234
330
0
100
AcDbEntity
100
AcDbBlockBegin
2
*Model_Space
70
0
10
0
20
0
30
0
3
*Model_Space
1

0
ENDBLK
5
12235
330
0
100
AcDbEntity
100
AcDbBlockEnd
0
BLOCK
5
12236
330
0
100
AcDbEntity
100
AcDbBlockBegin
2
*Paper_Space
70
0
10
0
20
0
30
0
3
*Paper_Space
1

0
ENDBLK
5
12237
330
0
100
AcDbEntity
100
AcDbBlockEnd
0
ENDSEC
0
SECTION
2
ENTITIES
0
LWPOLYLINE
5
12274
330
12234
100
AcDbEntity
100
AcDbPolyline
8
ZEMIN_PLATFORM
6
ByLayer
62
256
370
-1
90
4
70
1
10
-1.7800000000000002
20
1.37
10
-1.7800000000000002
20
1.405
10
-0.5800000000000003
20
1.405
10
-0.5800000000000003
20
1.37
0
LINE
5
12275
330
12234
100
AcDbEntity
100
AcDbLine
8
ZEMIN_PLATFORM
10
-1.7200000000000002
20
1.37
30
0
11
-1.7200000000000002
21
1.405
31
0
0
LINE
5
12276
330
12234
100
AcDbEntity
100
AcDbLine
8
ZEMIN_PLATFORM
10
-1.6600000000000001
20
1.37
30
0
11
-1.6600000000000001
21
1.405
31
0
0
LINE
5
12277
330
12234
100
AcDbEntity
100
AcDbLine
8
ZEMIN_PLATFORM
10
-1.6
20
1.37
30
0
11
-1.6
21
1.405
31
0
0
LINE
5
12278
330
12234
100
AcDbEntity
100
AcDbLine
8
ZEMIN_PLATFORM
10
-1.54
20
1.37
30
0
11
-1.54
21
1.405
31
0
0
LINE
5
12279
330
12234
100
AcDbEntity
100
AcDbLine
8
ZEMIN_PLATFORM
10
-1.48
20
1.37
30
0
11
-1.48
21
1.405
31
0
0
LINE
5
1227A
330
12234
100
AcDbEntity
100
AcDbLine
8
ZEMIN_PLATFORM
10
-1.42
20
1.37
30
0
11
-1.42
21
1.405
31
0
0
LINE
5
1227B
330
12234
100
AcDbEntity
100
AcDbLine
8
ZEMIN_PLATFORM
10
-1.3599999999999999
20
1.37
30
0
11
-1.3599999999999999
21
1.405
31
0
0
LINE
5
1227C
330
12234
100
AcDbEntity
100
AcDbLine
8
ZEMIN_PLATFORM
10
-1.2999999999999998
20
1.37
30
0
11
-1.2999999999999998
21
1.405
31
0
0
LINE
5
1227D
330
12234
100
AcDbEntity
100
AcDbLine
8
ZEMIN_PLATFORM
10
-1.2399999999999998
20
1.37
30
0
11
-1.2399999999999998
21
1.405
31
0
0
LINE
5
1227E
330
12234
100
AcDbEntity
100
AcDbLine
8
ZEMIN_PLATFORM
10
-1.1799999999999997
20
1.37
30
0
11
-1.1799999999999997
21
1.405
31
0
0
LINE
5
1227F
330
12234
100
AcDbEntity
100
AcDbLine
8
ZEMIN_PLATFORM
10
-1.1199999999999997
20
1.37
30
0
11
-1.1199999999999997
21
1.405
31
0
0
LINE
5
12280
330
12234
100
AcDbEntity
100
AcDbLine
8
ZEMIN_PLATFORM
10
-1.0599999999999996
20
1.37
30
0
11
-1.0599999999999996
21
1.405
31
0
0
LINE
5
12281
330
12234
100
AcDbEntity
100
AcDbLine
8
ZEMIN_PLATFORM
10
-0.9999999999999996
20
1.37
30
0
11
-0.9999999999999996
21
1.405
31
0
0
LINE
5
12282
330
12234
100
AcDbEntity
100
AcDbLine
8
ZEMIN_PLATFORM
10
-0.9399999999999995
20
1.37
30
0
11
-0.9399999999999995
21
1.405
31
0
0
LINE
5
12283
330
12234
100
AcDbEntity
100
AcDbLine
8
ZEMIN_PLATFORM
10
-0.8799999999999994
20
1.37
30
0
11
-0.8799999999999994
21
1.405
31
0
0
LINE
5
12284
330
12234
100
AcDbEntity
100
AcDbLine
8
ZEMIN_PLATFORM
10
-0.8199999999999994
20
1.37
30
0
11
-0.8199999999999994
21
1.405
31
0
0
LINE
5
12285
330
12234
100
AcDbEntity
100
AcDbLine
8
ZEMIN_PLATFORM
10
-0.7599999999999993
20
1.37
30
0
11
-0.7599999999999993
21
1.405
31
0
0
LINE
5
12286
330
12234
100
AcDbEntity
100
AcDbLine
8
ZEMIN_PLATFORM
10
-0.6999999999999993
20
1.37
30
0
11
-0.6999999999999993
21
1.405
31
0
0
LINE
5
12287
330
12234
100
AcDbEntity
100
AcDbLine
8
ZEMIN_PLATFORM
10
-0.6399999999999992
20
1.37
30
0
11
-0.6399999999999992
21
1.405
31
0
0
LWPOLYLINE
5
12331
330
12234
100
AcDbEntity
100
AcDbPolyline
8
ZEMIN_PLATFORM
6
ByLayer
62
256
370
-1
90
4
70
1
10
0.7000000000000001
20
1.37
10
0.7000000000000001
20
1.405
10
1.9
20
1.405
10
1.9
20
1.37
0
LINE
5
12332
330
12234
100
AcDbEntity
100
AcDbLine
8
ZEMIN_PLATFORM
10
0.76
20
1.37
30
0
11
0.76
21
1.405
31
0
0
LINE
5
12333
330
12234
100
AcDbEntity
100
AcDbLine
8
ZEMIN_PLATFORM
10
0.8200000000000001
20
1.37
30
0
11
0.8200000000000001
21
1.405
31
0
0
LINE
5
12334
330
12234
100
AcDbEntity
100
AcDbLine
8
ZEMIN_PLATFORM
10
0.8800000000000001
20
1.37
30
0
11
0.8800000000000001
21
1.405
31
0
0
LINE
5
12335
330
12234
100
AcDbEntity
100
AcDbLine
8
ZEMIN_PLATFORM
10
0.9400000000000002
20
1.37
30
0
11
0.9400000000000002
21
1.405
31
0
0
LINE
5
12336
330
12234
100
AcDbEntity
100
AcDbLine
8
ZEMIN_PLATFORM
10
1.0000000000000002
20
1.37
30
0
11
1.0000000000000002
21
1.405
31
0
0
LINE
5
12337
330
12234
100
AcDbEntity
100
AcDbLine
8
ZEMIN_PLATFORM
10
1.0600000000000003
20
1.37
30
0
11
1.0600000000000003
21
1.405
31
0
0
LINE
5
12338
330
12234
100
AcDbEntity
100
AcDbLine
8
ZEMIN_PLATFORM
10
1.1200000000000003
20
1.37
30
0
11
1.1200000000000003
21
1.405
31
0
0
LINE
5
12339
330
12234
100
AcDbEntity
100
AcDbLine
8
ZEMIN_PLATFORM
10
1.1800000000000004
20
1.37
30
0
11
1.1800000000000004
21
1.405
31
0
0
LINE
5
1233A
330
12234
100
AcDbEntity
100
AcDbLine
8
ZEMIN_PLATFORM
10
1.2400000000000004
20
1.37
30
0
11
1.2400000000000004
21
1.405
31
0
0
LINE
5
1233B
330
12234
100
AcDbEntity
100
AcDbLine
8
ZEMIN_PLATFORM
10
1.3000000000000005
20
1.37
30
0
11
1.3000000000000005
21
1.405
31
0
0
LINE
5
1233C
330
12234
100
AcDbEntity
100
AcDbLine
8
ZEMIN_PLATFORM
10
1.3600000000000005
20
1.37
30
0
11
1.3600000000000005
21
1.405
31
0
0
LINE
5
1233D
330
12234
100
AcDbEntity
100
AcDbLine
8
ZEMIN_PLATFORM
10
1.4200000000000006
20
1.37
30
0
11
1.4200000000000006
21
1.405
31
0
0
LINE
5
1233E
330
12234
100
AcDbEntity
100
AcDbLine
8
ZEMIN_PLATFORM
10
1.4800000000000006
20
1.37
30
0
11
1.4800000000000006
21
1.405
31
0
0
LINE
5
1233F
330
12234
100
AcDbEntity
100
AcDbLine
8
ZEMIN_PLATFORM
10
1.5400000000000007
20
1.37
30
0
11
1.5400000000000007
21
1.405
31
0
0
LINE
5
12340
330
12234
100
AcDbEntity
100
AcDbLine
8
ZEMIN_PLATFORM
10
1.6000000000000008
20
1.37
30
0
11
1.6000000000000008
21
1.405
31
0
0
LINE
5
12341
330
12234
100
AcDbEntity
100
AcDbLine
8
ZEMIN_PLATFORM
10
1.6600000000000008
20
1.37
30
0
11
1.6600000000000008
21
1.405
31
0
0
LINE
5
12342
330
12234
100
AcDbEntity
100
AcDbLine
8
ZEMIN_PLATFORM
10
1.7200000000000009
20
1.37
30
0
11
1.7200000000000009
21
1.405
31
0
0
LINE
5
12343
330
12234
100
AcDbEntity
100
AcDbLine
8
ZEMIN_PLATFORM
10
1.780000000000001
20
1.37
30
0
11
1.780000000000001
21
1.405
31
0
0
LINE
5
12344
330
12234
100
AcDbEntity
100
AcDbLine
8
ZEMIN_PLATFORM
10
1.840000000000001
20
1.37
30
0
11
1.840000000000001
21
1.405
31
0
0
LWPOLYLINE
5
1228B
330
12234
100
AcDbEntity
100
AcDbPolyline
8
KORKULUK_KAPI
6
ByLayer
62
256
370
-1
90
4
70
1
10
-1.7850000000000001
20
1.405
10
-1.7850000000000001
20
2.505
10
-1.7500000000000002
20
2.505
10
-1.7500000000000002
20
1.405
0
CIRCLE
5
1228C
330
12234
100
AcDbEntity
100
AcDbCircle
8
KORKULUK_KAPI
10
-1.7680000000000002
20
2.505
30
0
40
0.02
0
LWPOLYLINE
5
1228D
330
12234
100
AcDbEntity
100
AcDbPolyline
8
KORKULUK_KAPI
6
ByLayer
62
256
370
-1
90
4
70
1
10
-1.7800000000000002
20
1.955
10
-1.7800000000000002
20
1.975
10
-1.7550000000000003
20
1.975
10
-1.7550000000000003
20
1.955
0
LWPOLYLINE
5
1228E
330
12234
100
AcDbEntity
100
AcDbPolyline
8
KORKULUK_KAPI
6
ByLayer
62
256
370
-1
90
4
70
1
10
-1.7800000000000002
20
1.405
10
-1.7800000000000002
20
1.555
10
-1.7650000000000003
20
1.555
10
-1.7650000000000003
20
1.405
0
LWPOLYLINE
5
1228F
330
12234
100
AcDbEntity
100
AcDbPolyline
8
KORKULUK_KAPI
6
ByLayer
62
256
370
-1
90
4
70
1
10
-0.6100000000000003
20
1.405
10
-0.6100000000000003
20
2.505
10
-0.5750000000000003
20
2.505
10
-0.5750000000000003
20
1.405
0
CIRCLE
5
12290
330
12234
100
AcDbEntity
100
AcDbCircle
8
KORKULUK_KAPI
10
-0.5920000000000003
20
2.505
30
0
40
0.02
0
LWPOLYLINE
5
12291
330
12234
100
AcDbEntity
100
AcDbPolyline
8
KORKULUK_KAPI
6
ByLayer
62
256
370
-1
90
4
70
1
10
-0.6000000000000003
20
1.955
10
-0.6000000000000003
20
1.975
10
-0.5750000000000003
20
1.975
10
-0.5750000000000003
20
1.955
0
LWPOLYLINE
5
12292
330
12234
100
AcDbEntity
100
AcDbPolyline
8
KORKULUK_KAPI
6
ByLayer
62
256
370
-1
90
4
70
1
10
-0.5950000000000003
20
1.405
10
-0.5950000000000003
20
1.555
10
-0.5800000000000003
20
1.555
10
-0.5800000000000003
20
1.405
0
LWPOLYLINE
5
12348
330
12234
100
AcDbEntity
100
AcDbPolyline
8
KORKULUK_KAPI
6
ByLayer
62
256
370
-1
90
4
70
1
10
0.6950000000000001
20
1.405
10
0.6950000000000001
20
2.505
10
0.7300000000000001
20
2.505
10
0.7300000000000001
20
1.405
0
CIRCLE
5
12349
330
12234
100
AcDbEntity
100
AcDbCircle
8
KORKULUK_KAPI
10
0.7120000000000001
20
2.505
30
0
40
0.02
0
LWPOLYLINE
5
1234A
330
12234
100
AcDbEntity
100
AcDbPolyline
8
KORKULUK_KAPI
6
ByLayer
62
256
370
-1
90
4
70
1
10
0.7000000000000001
20
1.955
10
0.7000000000000001
20
1.975
10
0.7250000000000001
20
1.975
10
0.7250000000000001
20
1.955
0
LWPOLYLINE
5
1234B
330
12234
100
AcDbEntity
100
AcDbPolyline
8
KORKULUK_KAPI
6
ByLayer
62
256
370
-1
90
4
70
1
10
0.7000000000000001
20
1.405
10
0.7000000000000001
20
1.555
10
0.7150000000000001
20
1.555
10
0.7150000000000001
20
1.405
0
LWPOLYLINE
5
1234C
330
12234
100
AcDbEntity
100
AcDbPolyline
8
KORKULUK_KAPI
6
ByLayer
62
256
370
-1
90
4
70
1
10
1.8699999999999999
20
1.405
10
1.8699999999999999
20
2.505
10
1.9049999999999998
20
2.505
10
1.9049999999999998
20
1.405
0
CIRCLE
5
1234D
330
12234
100
AcDbEntity
100
AcDbCircle
8
KORKULUK_KAPI
10
1.888
20
2.505
30
0
40
0.02
0
LWPOLYLINE
5
1234E
330
12234
100
AcDbEntity
100
AcDbPolyline
8
KORKULUK_KAPI
6
ByLayer
62
256
370
-1
90
4
70
1
10
1.88
20
1.955
10
1.88
20
1.975
10
1.9049999999999998
20
1.975
10
1.9049999999999998
20
1.955
0
LWPOLYLINE
5
1234F
330
12234
100
AcDbEntity
100
AcDbPolyline
8
KORKULUK_KAPI
6
ByLayer
62
256
370
-1
90
4
70
1
10
1.8849999999999998
20
1.405
10
1.8849999999999998
20
1.555
10
1.8999999999999997
20
1.555
10
1.8999999999999997
20
1.405
0
LWPOLYLINE
5
12258
330
12234
100
AcDbEntity
100
AcDbPolyline
8
CELIK_KIRIS_KOLON
6
ByLayer
62
256
370
-1
90
4
70
1
10
-2.45
20
1.37
10
-2.45
20
2.5700000000000003
10
-2.31
20
2.5700000000000003
10
-2.31
20
1.37
0
LINE
5
1225A
330
12234
100
AcDbEntity
100
AcDbLine
8
CELIK_KIRIS_KOLON
10
-2.45
20
1.6700000000000002
30
0
11
-2.5800000000000005
21
2.0700000000000003
31
0
0
LINE
5
1225B
330
12234
100
AcDbEntity
100
AcDbLine
8
CELIK_KIRIS_KOLON
10
-2.45
20
2.0700000000000003
30
0
11
-2.5800000000000005
21
1.6700000000000002
31
0
0
LINE
5
1225C
330
12234
100
AcDbEntity
100
AcDbLine
8
CELIK_KIRIS_KOLON
10
-2.45
20
2.0700000000000003
30
0
11
-2.5800000000000005
21
2.47
31
0
0
LWPOLYLINE
5
12288
330
12234
100
AcDbEntity
100
AcDbPolyline
8
CELIK_KIRIS_KOLON
6
ByLayer
62
256
370
-1
90
4
70
1
10
-1.7800000000000002
20
1.25
10
-1.7800000000000002
20
1.37
10
-1.7200000000000002
20
1.37
10
-1.7200000000000002
20
1.25
0
LWPOLYLINE
5
12289
330
12234
100
AcDbEntity
100
AcDbPolyline
8
CELIK_KIRIS_KOLON
6
ByLayer
62
256
370
-1
90
4
70
1
10
-0.6400000000000003
20
1.25
10
-0.6400000000000003
20
1.37
10
-0.5800000000000003
20
1.37
10
-0.5800000000000003
20
1.25
0
LWPOLYLINE
5
1228A
330
12234
100
AcDbEntity
100
AcDbPolyline
8
CELIK_KIRIS_KOLON
6
ByLayer
62
256
370
-1
90
4
70
1
10
-1.7200000000000002
20
1.27
10
-1.7200000000000002
20
1.295
10
-0.6400000000000001
20
1.295
10
-0.6400000000000001
20
1.27
0
LWPOLYLINE
5
122C9
330
12234
100
AcDbEntity
100
AcDbPolyline
8
CELIK_KIRIS_KOLON
6
ByLayer
62
256
370
-1
90
4
70
1
10
-1.2300000000000002
20
1.6700000000000002
10
-1.2300000000000002
20
1.7500000000000002
10
-0.13000000000000012
20
1.7500000000000002
10
-0.13000000000000012
20
1.6700000000000002
0
LWPOLYLINE
5
122CA
330
12234
100
AcDbEntity
100
AcDbPolyline
8
CELIK_KIRIS_KOLON
6
ByLayer
62
256
370
-1
90
4
70
1
10
-1.2300000000000002
20
2.3200000000000003
10
-1.2300000000000002
20
2.4000000000000004
10
-0.13000000000000012
20
2.4000000000000004
10
-0.13000000000000012
20
2.3200000000000003
0
LWPOLYLINE
5
1232D
330
12234
100
AcDbEntity
100
AcDbPolyline
8
CELIK_KIRIS_KOLON
6
ByLayer
62
256
370
-1
90
4
70
1
10
0.13000000000000006
20
1.37
10
0.13000000000000006
20
2.5700000000000003
10
0.2700000000000001
20
2.5700000000000003
10
0.2700000000000001
20
1.37
0
LWPOLYLINE
5
12345
330
12234
100
AcDbEntity
100
AcDbPolyline
8
CELIK_KIRIS_KOLON
6
ByLayer
62
256
370
-1
90
4
70
1
10
0.7000000000000001
20
1.25
10
0.7000000000000001
20
1.37
10
0.76
20
1.37
10
0.76
20
1.25
0
LWPOLYLINE
5
12346
330
12234
100
AcDbEntity
100
AcDbPolyline
8
CELIK_KIRIS_KOLON
6
ByLayer
62
256
370
-1
90
4
70
1
10
1.8399999999999999
20
1.25
10
1.8399999999999999
20
1.37
10
1.9
20
1.37
10
1.9
20
1.25
0
LWPOLYLINE
5
12347
330
12234
100
AcDbEntity
100
AcDbPolyline
8
CELIK_KIRIS_KOLON
6
ByLayer
62
256
370
-1
90
4
70
1
10
0.76
20
1.27
10
0.76
20
1.295
10
1.84
20
1.295
10
1.84
20
1.27
0
CIRCLE
5
12353
330
12234
100
AcDbEntity
100
AcDbCircle
8
CELIK_KIRIS_KOLON
10
0.7650000000000001
20
1.417
30
0
40
0.008
0
CIRCLE
5
12354
330
12234
100
AcDbEntity
100
AcDbCircle
8
CELIK_KIRIS_KOLON
10
1.2450000000000003
20
1.417
30
0
40
0.008
0
LWPOLYLINE
5
123F6
330
12234
100
AcDbEntity
100
AcDbPolyline
8
CELIK_KIRIS_KOLON
6
ByLayer
62
256
370
-1
90
4
70
1
10
-0.35
20
-0.33999999999999997
10
-0.35
20
-0.27999999999999997
10
-0.22999999999999998
20
-0.27999999999999997
10
-0.22999999999999998
20
-0.33999999999999997
0
LINE
5
123FF
330
12234
100
AcDbEntity
100
AcDbLine
8
CELIK_KIRIS_KOLON
10
-0.31
20
-0.255
30
0
11
-0.31
21
-0.37
31
0
0
CIRCLE
5
12400
330
12234
100
AcDbEntity
100
AcDbCircle
8
CELIK_KIRIS_KOLON
10
-0.31
20
-0.375
30
0
40
0.008
0
LWPOLYLINE
5
1225D
330
12234
100
AcDbEntity
100
AcDbPolyline
8
MONTAJ_BORULARI
6
ByLayer
62
256
370
-1
90
4
70
1
10
-2.3100000000000005
20
2.0250000000000004
10
-2.3100000000000005
20
2.075
10
-2.1100000000000003
20
2.075
10
-2.1100000000000003
20
2.0250000000000004
0
LWPOLYLINE
5
1225F
330
12234
100
AcDbEntity
100
AcDbPolyline
8
MONTAJ_BORULARI
6
ByLayer
62
256
370
-1
90
4
70
1
10
-2.1100000000000003
20
1.57
10
-2.1100000000000003
20
2.52
10
-2.0500000000000003
20
2.52
10
-2.0500000000000003
20
1.57
0
CIRCLE
5
12260
330
12234
100
AcDbEntity
100
AcDbCircle
8
MONTAJ_BORULARI
10
-2.0800000000000005
20
2.5300000000000002
30
0
40
0.03
0
LWPOLYLINE
5
122CB
330
12234
100
AcDbEntity
100
AcDbPolyline
8
MONTAJ_BORULARI
6
ByLayer
62
256
370
-1
90
4
70
1
10
-1.165
20
1.6900000000000002
10
-1.165
20
2.39
10
-1.135
20
2.39
10
-1.135
20
1.6900000000000002
0
LWPOLYLINE
5
122D3
330
12234
100
AcDbEntity
100
AcDbPolyline
8
MONTAJ_BORULARI
6
ByLayer
62
256
370
-1
90
4
70
1
10
-1.04
20
1.6900000000000002
10
-1.04
20
2.39
10
-1.01
20
2.39
10
-1.01
20
1.6900000000000002
0
LWPOLYLINE
5
122DF
330
12234
100
AcDbEntity
100
AcDbPolyline
8
MONTAJ_BORULARI
6
ByLayer
62
256
370
-1
90
4
70
1
10
-0.9175000000000002
20
1.6900000000000002
10
-0.9175000000000002
20
2.39
10
-0.8875000000000002
20
2.39
10
-0.8875000000000002
20
1.6900000000000002
0
LWPOLYLINE
5
122E7
330
12234
100
AcDbEntity
100
AcDbPolyline
8
MONTAJ_BORULARI
6
ByLayer
62
256
370
-1
90
4
70
1
10
-0.7975000000000002
20
1.6900000000000002
10
-0.7975000000000002
20
2.39
10
-0.7675000000000002
20
2.39
10
-0.7675000000000002
20
1.6900000000000002
0
LWPOLYLINE
5
122F3
330
12234
100
AcDbEntity
100
AcDbPolyline
8
MONTAJ_BORULARI
6
ByLayer
62
256
370
-1
90
4
70
1
10
-0.6725000000000002
20
1.6900000000000002
10
-0.6725000000000002
20
2.39
10
-0.6425000000000002
20
2.39
10
-0.6425000000000002
20
1.6900000000000002
0
LWPOLYLINE
5
122FB
330
12234
100
AcDbEntity
100
AcDbPolyline
8
MONTAJ_BORULARI
6
ByLayer
62
256
370
-1
90
4
70
1
10
-0.5425000000000002
20
1.6900000000000002
10
-0.5425000000000002
20
2.39
10
-0.5125000000000002
20
2.39
10
-0.5125000000000002
20
1.6900000000000002
0
LWPOLYLINE
5
12303
330
12234
100
AcDbEntity
100
AcDbPolyline
8
MONTAJ_BORULARI
6
ByLayer
62
256
370
-1
90
4
70
1
10
-0.4125000000000002
20
1.6900000000000002
10
-0.4125000000000002
20
2.39
10
-0.3825000000000002
20
2.39
10
-0.3825000000000002
20
1.6900000000000002
0
LWPOLYLINE
5
12355
330
12234
100
AcDbEntity
100
AcDbPolyline
8
MONTAJ_BORULARI
6
ByLayer
62
256
370
-1
90
4
70
1
10
0.8
20
1.43
10
0.8
20
1.448
10
0.9
20
1.448
10
0.9
20
1.43
0
LWPOLYLINE
5
12356
330
12234
100
AcDbEntity
100
AcDbPolyline
8
MONTAJ_BORULARI
6
ByLayer
62
256
370
-1
90
4
70
1
10
0.8250000000000001
20
1.448
10
0.8250000000000001
20
2.8979999999999997
10
0.8750000000000001
20
2.8979999999999997
10
0.8750000000000001
20
1.448
0
CIRCLE
5
12357
330
12234
100
AcDbEntity
100
AcDbCircle
8
MONTAJ_BORULARI
10
0.8500000000000001
20
2.8979999999999997
30
0
40
0.025
0
LWPOLYLINE
5
12358
330
12234
100
AcDbEntity
100
AcDbPolyline
8
MONTAJ_BORULARI
6
ByLayer
62
256
370
-1
90
4
70
1
10
1.11
20
1.43
10
1.11
20
1.448
10
1.2100000000000002
20
1.448
10
1.2100000000000002
20
1.43
0
LWPOLYLINE
5
12359
330
12234
100
AcDbEntity
100
AcDbPolyline
8
MONTAJ_BORULARI
6
ByLayer
62
256
370
-1
90
4
70
1
10
1.1350000000000002
20
1.448
10
1.1350000000000002
20
2.8979999999999997
10
1.1850000000000003
20
2.8979999999999997
10
1.1850000000000003
20
1.448
0
CIRCLE
5
1235A
330
12234
100
AcDbEntity
100
AcDbCircle
8
MONTAJ_BORULARI
10
1.1600000000000001
20
2.8979999999999997
30
0
40
0.025
0
LINE
5
12362
330
12234
100
AcDbEntity
100
AcDbLine
8
MONTAJ_BORULARI
10
0.9050000000000001
20
2.9029999999999996
30
0
11
0.8500000000000001
21
2.88
31
0
0
LINE
5
12363
330
12234
100
AcDbEntity
100
AcDbLine
8
MONTAJ_BORULARI
10
1.1050000000000002
20
2.9029999999999996
30
0
11
1.1600000000000001
21
2.88
31
0
0
LWPOLYLINE
5
12386
330
12234
100
AcDbEntity
100
AcDbPolyline
8
MONTAJ_BORULARI
6
ByLayer
62
256
370
-1
90
4
70
1
10
1.4050000000000002
20
1.395
10
1.4050000000000002
20
1.413
10
1.4950000000000003
20
1.413
10
1.4950000000000003
20
1.395
0
LWPOLYLINE
5
12387
330
12234
100
AcDbEntity
100
AcDbPolyline
8
MONTAJ_BORULARI
6
ByLayer
62
256
370
-1
90
4
70
1
10
1.4250000000000003
20
1.413
10
1.4250000000000003
20
2.863
10
1.4750000000000003
20
2.863
10
1.4750000000000003
20
1.413
0
CIRCLE
5
12388
330
12234
100
AcDbEntity
100
AcDbCircle
8
MONTAJ_BORULARI
10
1.4500000000000002
20
2.863
30
0
40
0.025
0
LWPOLYLINE
5
1238A
330
12234
100
AcDbEntity
100
AcDbPolyline
8
MONTAJ_BORULARI
6
ByLayer
62
256
370
-1
90
4
70
1
10
1.6250000000000002
20
1.395
10
1.6250000000000002
20
1.413
10
1.7150000000000003
20
1.413
10
1.7150000000000003
20
1.395
0
LWPOLYLINE
5
1238B
330
12234
100
AcDbEntity
100
AcDbPolyline
8
MONTAJ_BORULARI
6
ByLayer
62
256
370
-1
90
4
70
1
10
1.6450000000000002
20
1.413
10
1.6450000000000002
20
2.863
10
1.6950000000000003
20
2.863
10
1.6950000000000003
20
1.413
0
CIRCLE
5
1238C
330
12234
100
AcDbEntity
100
AcDbCircle
8
MONTAJ_BORULARI
10
1.6700000000000002
20
2.863
30
0
40
0.025
0
LWPOLYLINE
5
1238E
330
12234
100
AcDbEntity
100
AcDbPolyline
8
MONTAJ_BORULARI
6
ByLayer
62
256
370
-1
90
4
70
1
10
1.8350000000000002
20
1.395
10
1.8350000000000002
20
1.413
10
1.9250000000000003
20
1.413
10
1.9250000000000003
20
1.395
0
LWPOLYLINE
5
1238F
330
12234
100
AcDbEntity
100
AcDbPolyline
8
MONTAJ_BORULARI
6
ByLayer
62
256
370
-1
90
4
70
1
10
1.8550000000000002
20
1.413
10
1.8550000000000002
20
2.863
10
1.9050000000000002
20
2.863
10
1.9050000000000002
20
1.413
0
CIRCLE
5
12390
330
12234
100
AcDbEntity
100
AcDbCircle
8
MONTAJ_BORULARI
10
1.8800000000000001
20
2.863
30
0
40
0.025
0
LWPOLYLINE
5
12392
330
12234
100
AcDbEntity
100
AcDbPolyline
8
MONTAJ_BORULARI
6
ByLayer
62
256
370
-1
90
4
70
1
10
2.055
20
1.395
10
2.055
20
1.413
10
2.145
20
1.413
10
2.145
20
1.395
0
LWPOLYLINE
5
12393
330
12234
100
AcDbEntity
100
AcDbPolyline
8
MONTAJ_BORULARI
6
ByLayer
62
256
370
-1
90
4
70
1
10
2.075
20
1.413
10
2.075
20
2.863
10
2.125
20
2.863
10
2.125
20
1.413
0
CIRCLE
5
12394
330
12234
100
AcDbEntity
100
AcDbCircle
8
MONTAJ_BORULARI
10
2.1
20
2.863
30
0
40
0.025
0
LINE
5
123A8
330
12234
100
AcDbEntity
100
AcDbLine
8
MONTAJ_BORULARI
10
1.6350000000000002
20
2.9450000000000003
30
0
11
1.4500000000000002
21
2.87
31
0
0
LINE
5
123A9
330
12234
100
AcDbEntity
100
AcDbLine
8
MONTAJ_BORULARI
10
1.915
20
2.9450000000000003
30
0
11
2.1
21
2.87
31
0
0
LWPOLYLINE
5
123FA
330
12234
100
AcDbEntity
100
AcDbPolyline
8
MONTAJ_BORULARI
6
ByLayer
62
256
370
-1
90
4
70
1
10
-0.27
20
-0.255
10
-0.27
20
-0.23500000000000001
10
-0.13
20
-0.23500000000000001
10
-0.13
20
-0.255
0
LWPOLYLINE
5
123FB
330
12234
100
AcDbEntity
100
AcDbPolyline
8
MONTAJ_BORULARI
6
ByLayer
62
256
370
-1
90
4
70
1
10
-0.225
20
-0.235
10
-0.225
20
-0.11499999999999999
10
-0.175
20
-0.11499999999999999
10
-0.175
20
-0.235
0
CIRCLE
5
123FC
330
12234
100
AcDbEntity
100
AcDbCircle
8
MONTAJ_BORULARI
10
-0.24000000000000002
20
-0.245
30
0
40
0.006
0
CIRCLE
5
123FD
330
12234
100
AcDbEntity
100
AcDbCircle
8
MONTAJ_BORULARI
10
-0.16000000000000003
20
-0.245
30
0
40
0.006
0
LWPOLYLINE
5
12270
330
12234
100
AcDbEntity
100
AcDbPolyline
8
KABLO_TAVALARI
6
ByLayer
62
256
370
-1
90
4
70
1
10
-2.0700000000000007
20
1.59
10
-2.0700000000000007
20
1.6500000000000001
10
-1.8700000000000008
20
1.6500000000000001
10
-1.8700000000000008
20
1.59
0
LWPOLYLINE
5
12272
330
12234
100
AcDbEntity
100
AcDbPolyline
8
KABLO_TAVALARI
6
ByLayer
62
256
370
-1
90
4
70
1
10
-1.8700000000000008
20
1.6
10
-1.8700000000000008
20
1.6400000000000001
10
-1.6100000000000008
20
1.6400000000000001
10
-1.6100000000000008
20
1.6
0
CIRCLE
5
122CF
330
12234
100
AcDbEntity
100
AcDbCircle
8
KABLO_TAVALARI
10
-1.1666666666666667
20
1.82
30
0
40
0.004
0
LINE
5
122D0
330
12234
100
AcDbEntity
100
AcDbLine
8
KABLO_TAVALARI
10
-1.1666666666666667
20
1.82
30
0
11
-1.1666666666666667
21
1.6300000000000001
31
0
0
CIRCLE
5
122D1
330
12234
100
AcDbEntity
100
AcDbCircle
8
KABLO_TAVALARI
10
-1.1333333333333335
20
1.82
30
0
40
0.004
0
LINE
5
122D2
330
12234
100
AcDbEntity
100
AcDbLine
8
KABLO_TAVALARI
10
-1.1333333333333335
20
1.82
30
0
11
-1.1333333333333335
21
1.6300000000000001
31
0
0
CIRCLE
5
122D7
330
12234
100
AcDbEntity
100
AcDbCircle
8
KABLO_TAVALARI
10
-1.0550000000000002
20
1.82
30
0
40
0.004
0
LINE
5
122D8
330
12234
100
AcDbEntity
100
AcDbLine
8
KABLO_TAVALARI
10
-1.0550000000000002
20
1.82
30
0
11
-1.0550000000000002
21
1.6300000000000001
31
0
0
CIRCLE
5
122D9
330
12234
100
AcDbEntity
100
AcDbCircle
8
KABLO_TAVALARI
10
-1.0350000000000001
20
1.82
30
0
40
0.004
0
LINE
5
122DA
330
12234
100
AcDbEntity
100
AcDbLine
8
KABLO_TAVALARI
10
-1.0350000000000001
20
1.82
30
0
11
-1.0350000000000001
21
1.6300000000000001
31
0
0
CIRCLE
5
122DB
330
12234
100
AcDbEntity
100
AcDbCircle
8
KABLO_TAVALARI
10
-1.0150000000000001
20
1.82
30
0
40
0.004
0
LINE
5
122DC
330
12234
100
AcDbEntity
100
AcDbLine
8
KABLO_TAVALARI
10
-1.0150000000000001
20
1.82
30
0
11
-1.0150000000000001
21
1.6300000000000001
31
0
0
CIRCLE
5
122DD
330
12234
100
AcDbEntity
100
AcDbCircle
8
KABLO_TAVALARI
10
-0.9950000000000001
20
1.82
30
0
40
0.004
0
LINE
5
122DE
330
12234
100
AcDbEntity
100
AcDbLine
8
KABLO_TAVALARI
10
-0.9950000000000001
20
1.82
30
0
11
-0.9950000000000001
21
1.6300000000000001
31
0
0
CIRCLE
5
122E3
330
12234
100
AcDbEntity
100
AcDbCircle
8
KABLO_TAVALARI
10
-0.9183333333333336
20
1.82
30
0
40
0.004
0
LINE
5
122E4
330
12234
100
AcDbEntity
100
AcDbLine
8
KABLO_TAVALARI
10
-0.9183333333333336
20
1.82
30
0
11
-0.9183333333333336
21
1.6300000000000001
31
0
0
CIRCLE
5
122E5
330
12234
100
AcDbEntity
100
AcDbCircle
8
KABLO_TAVALARI
10
-0.8866666666666668
20
1.82
30
0
40
0.004
0
LINE
5
122E6
330
12234
100
AcDbEntity
100
AcDbLine
8
KABLO_TAVALARI
10
-0.8866666666666668
20
1.82
30
0
11
-0.8866666666666668
21
1.6300000000000001
31
0
0
CIRCLE
5
122EB
330
12234
100
AcDbEntity
100
AcDbCircle
8
KABLO_TAVALARI
10
-0.8110000000000002
20
1.82
30
0
40
0.004
0
LINE
5
122EC
330
12234
100
AcDbEntity
100
AcDbLine
8
KABLO_TAVALARI
10
-0.8110000000000002
20
1.82
30
0
11
-0.8110000000000002
21
1.6300000000000001
31
0
0
CIRCLE
5
122ED
330
12234
100
AcDbEntity
100
AcDbCircle
8
KABLO_TAVALARI
10
-0.7920000000000001
20
1.82
30
0
40
0.004
0
LINE
5
122EE
330
12234
100
AcDbEntity
100
AcDbLine
8
KABLO_TAVALARI
10
-0.7920000000000001
20
1.82
30
0
11
-0.7920000000000001
21
1.6300000000000001
31
0
0
CIRCLE
5
122EF
330
12234
100
AcDbEntity
100
AcDbCircle
8
KABLO_TAVALARI
10
-0.7730000000000001
20
1.82
30
0
40
0.004
0
LINE
5
122F0
330
12234
100
AcDbEntity
100
AcDbLine
8
KABLO_TAVALARI
10
-0.7730000000000001
20
1.82
30
0
11
-0.7730000000000001
21
1.6300000000000001
31
0
0
CIRCLE
5
122F1
330
12234
100
AcDbEntity
100
AcDbCircle
8
KABLO_TAVALARI
10
-0.7540000000000002
20
1.82
30
0
40
0.004
0
LINE
5
122F2
330
12234
100
AcDbEntity
100
AcDbLine
8
KABLO_TAVALARI
10
-0.7540000000000002
20
1.82
30
0
11
-0.7540000000000002
21
1.6300000000000001
31
0
0
CIRCLE
5
122F7
330
12234
100
AcDbEntity
100
AcDbCircle
8
KABLO_TAVALARI
10
-0.6750000000000002
20
1.82
30
0
40
0.004
0
LINE
5
122F8
330
12234
100
AcDbEntity
100
AcDbLine
8
KABLO_TAVALARI
10
-0.6750000000000002
20
1.82
30
0
11
-0.6750000000000002
21
1.6300000000000001
31
0
0
CIRCLE
5
122F9
330
12234
100
AcDbEntity
100
AcDbCircle
8
KABLO_TAVALARI
10
-0.6400000000000002
20
1.82
30
0
40
0.004
0
LINE
5
122FA
330
12234
100
AcDbEntity
100
AcDbLine
8
KABLO_TAVALARI
10
-0.6400000000000002
20
1.82
30
0
11
-0.6400000000000002
21
1.6300000000000001
31
0
0
CIRCLE
5
122FF
330
12234
100
AcDbEntity
100
AcDbCircle
8
KABLO_TAVALARI
10
-0.5450000000000002
20
1.82
30
0
40
0.004
0
LINE
5
12300
330
12234
100
AcDbEntity
100
AcDbLine
8
KABLO_TAVALARI
10
-0.5450000000000002
20
1.82
30
0
11
-0.5450000000000002
21
1.6300000000000001
31
0
0
CIRCLE
5
12301
330
12234
100
AcDbEntity
100
AcDbCircle
8
KABLO_TAVALARI
10
-0.5100000000000002
20
1.82
30
0
40
0.004
0
LINE
5
12302
330
12234
100
AcDbEntity
100
AcDbLine
8
KABLO_TAVALARI
10
-0.5100000000000002
20
1.82
30
0
11
-0.5100000000000002
21
1.6300000000000001
31
0
0
CIRCLE
5
12307
330
12234
100
AcDbEntity
100
AcDbCircle
8
KABLO_TAVALARI
10
-0.42900000000000016
20
1.82
30
0
40
0.004
0
LINE
5
12308
330
12234
100
AcDbEntity
100
AcDbLine
8
KABLO_TAVALARI
10
-0.42900000000000016
20
1.82
30
0
11
-0.42900000000000016
21
1.6300000000000001
31
0
0
CIRCLE
5
12309
330
12234
100
AcDbEntity
100
AcDbCircle
8
KABLO_TAVALARI
10
-0.4080000000000002
20
1.82
30
0
40
0.004
0
LINE
5
1230A
330
12234
100
AcDbEntity
100
AcDbLine
8
KABLO_TAVALARI
10
-0.4080000000000002
20
1.82
30
0
11
-0.4080000000000002
21
1.6300000000000001
31
0
0
CIRCLE
5
1230B
330
12234
100
AcDbEntity
100
AcDbCircle
8
KABLO_TAVALARI
10
-0.3870000000000002
20
1.82
30
0
40
0.004
0
LINE
5
1230C
330
12234
100
AcDbEntity
100
AcDbLine
8
KABLO_TAVALARI
10
-0.3870000000000002
20
1.82
30
0
11
-0.3870000000000002
21
1.6300000000000001
31
0
0
CIRCLE
5
1230D
330
12234
100
AcDbEntity
100
AcDbCircle
8
KABLO_TAVALARI
10
-0.36600000000000016
20
1.82
30
0
40
0.004
0
LINE
5
1230E
330
12234
100
AcDbEntity
100
AcDbLine
8
KABLO_TAVALARI
10
-0.36600000000000016
20
1.82
30
0
11
-0.36600000000000016
21
1.6300000000000001
31
0
0
LWPOLYLINE
5
1230F
330
12234
100
AcDbEntity
100
AcDbPolyline
8
KABLO_TAVALARI
6
ByLayer
62
256
370
-1
90
4
70
1
10
-1.2100000000000002
20
1.59
10
-1.2100000000000002
20
1.6300000000000001
10
-0.30000000000000016
20
1.6300000000000001
10
-0.30000000000000016
20
1.59
0
LWPOLYLINE
5
123B5
330
12234
100
AcDbEntity
100
AcDbPolyline
8
KABLO_TAVALARI
6
ByLayer
62
256
370
-1
90
4
70
1
10
2.2
20
1.385
10
2.2
20
1.41
10
2.25
20
1.41
10
2.25
20
1.385
0
LWPOLYLINE
5
1240D
330
12234
100
AcDbEntity
100
AcDbPolyline
8
KABLO_TAVALARI
6
ByLayer
62
256
370
-1
90
4
70
1
10
-0.30000000000000004
20
-0.9550000000000001
10
-0.30000000000000004
20
-0.9400000000000001
10
-0.08000000000000004
20
-0.9400000000000001
10
-0.08000000000000004
20
-0.9550000000000001
0
LWPOLYLINE
5
122A6
330
12234
100
AcDbEntity
100
AcDbPolyline
8
YURUYUS_KORIDORU
6
ByLayer
62
256
370
-1
90
4
70
1
10
-1.1700000000000002
20
1.405
10
-1.1700000000000002
20
2.505
10
-0.5800000000000003
20
2.505
10
-0.5800000000000003
20
1.405
0
LINE
5
122A7
330
12234
100
AcDbEntity
100
AcDbLine
8
YURUYUS_KORIDORU
10
-1.1600000000000001
20
1.87
30
0
11
-0.5900000000000003
21
1.87
31
0
0
TEXT
5
122A8
330
12234
100
AcDbEntity
100
AcDbText
8
YURUYUS_KORIDORU
10
-0.8750000000000002
20
1.9200000000000002
30
0
40
0.013000000000000001
1
SERBEST GECIS
50
0
7
STANDARD
72
1
11
-0.8750000000000002
21
1.9200000000000002
31
0
100
AcDbText
73
0
0
TEXT
5
122A9
330
12234
100
AcDbEntity
100
AcDbText
8
YURUYUS_KORIDORU
10
-0.8750000000000002
20
1.81
30
0
40
0.013000000000000001
1
KORIDORU (600mm)
50
0
7
STANDARD
72
1
11
-0.8750000000000002
21
1.81
31
0
100
AcDbText
73
0
0
LWPOLYLINE
5
12364
330
12234
100
AcDbEntity
100
AcDbPolyline
8
YURUYUS_KORIDORU
6
ByLayer
62
256
370
-1
90
4
70
1
10
1.2800000000000002
20
1.405
10
1.2800000000000002
20
2.505
10
1.9
20
2.505
10
1.9
20
1.405
0
LINE
5
12365
330
12234
100
AcDbEntity
100
AcDbLine
8
YURUYUS_KORIDORU
10
1.2900000000000003
20
1.87
30
0
11
1.89
21
1.87
31
0
0
TEXT
5
12366
330
12234
100
AcDbEntity
100
AcDbText
8
YURUYUS_KORIDORU
10
1.59
20
1.9200000000000002
30
0
40
0.013000000000000001
1
SERBEST SERVIS VE
50
0
7
STANDARD
72
1
11
1.59
21
1.9200000000000002
31
0
100
AcDbText
73
0
0
TEXT
5
12367
330
12234
100
AcDbEntity
100
AcDbText
8
YURUYUS_KORIDORU
10
1.59
20
1.81
30
0
40
0.013000000000000001
1
GECIS KORIDORU
50
0
7
STANDARD
72
1
11
1.59
21
1.81
31
0
100
AcDbText
73
0
0
TEXT
5
12368
330
12234
100
AcDbEntity
100
AcDbText
8
YURUYUS_KORIDORU
10
1.59
20
1.7000000000000002
30
0
40
0.014
1
(NET 650mm)
50
0
7
STANDARD
72
1
11
1.59
21
1.7000000000000002
31
0
100
AcDbText
73
0
0
LINE
5
122AA
330
12234
100
AcDbEntity
100
AcDbLine
8
OLCULER
10
-1.7800000000000002
20
1.1900000000000002
30
0
11
-1.7800000000000002
21
1.09
31
0
0
LINE
5
122AB
330
12234
100
AcDbEntity
100
AcDbLine
8
OLCULER
10
-0.5800000000000003
20
1.1900000000000002
30
0
11
-0.5800000000000003
21
1.09
31
0
0
LINE
5
122AC
330
12234
100
AcDbEntity
100
AcDbLine
8
OLCULER
10
-1.7800000000000002
20
1.1300000000000001
30
0
11
-0.5800000000000003
21
1.1300000000000001
31
0
0
LINE
5
122AD
330
12234
100
AcDbEntity
100
AcDbLine
8
OLCULER
10
-1.8080000000000003
20
1.102
30
0
11
-1.7520000000000002
21
1.1580000000000001
31
0
0
LINE
5
122AE
330
12234
100
AcDbEntity
100
AcDbLine
8
OLCULER
10
-0.6080000000000003
20
1.102
30
0
11
-0.5520000000000003
21
1.1580000000000001
31
0
0
TEXT
5
122AF
330
12234
100
AcDbEntity
100
AcDbText
8
OLCULER
10
-1.1800000000000002
20
1.046
30
0
40
0.06
1
1200 mm (KEDI YOLU ENI)
50
0
7
STANDARD
72
1
11
-1.1800000000000002
21
1.046
31
0
100
AcDbText
73
2
0
LINE
5
122B0
330
12234
100
AcDbEntity
100
AcDbLine
8
OLCULER
10
-1.7200000000000002
20
1.29
30
0
11
-1.7200000000000002
21
1.21
31
0
0
LINE
5
122B1
330
12234
100
AcDbEntity
100
AcDbLine
8
OLCULER
10
-1.1700000000000002
20
1.29
30
0
11
-1.1700000000000002
21
1.21
31
0
0
LINE
5
122B2
330
12234
100
AcDbEntity
100
AcDbLine
8
OLCULER
10
-1.7200000000000002
20
1.25
30
0
11
-1.1700000000000002
21
1.25
31
0
0
LINE
5
122B3
330
12234
100
AcDbEntity
100
AcDbLine
8
OLCULER
10
-1.7480000000000002
20
1.222
30
0
11
-1.6920000000000002
21
1.278
31
0
0
LINE
5
122B4
330
12234
100
AcDbEntity
100
AcDbLine
8
OLCULER
10
-1.1980000000000002
20
1.222
30
0
11
-1.1420000000000001
21
1.278
31
0
0
TEXT
5
122B5
330
12234
100
AcDbEntity
100
AcDbText
8
OLCULER
10
-1.4450000000000003
20
1.166
30
0
40
0.06
1
550 mm (POI DERINLIK)
50
0
7
STANDARD
72
1
11
-1.4450000000000003
21
1.166
31
0
100
AcDbText
73
2
0
LINE
5
122B6
330
12234
100
AcDbEntity
100
AcDbLine
8
OLCULER
10
-1.1700000000000002
20
1.29
30
0
11
-1.1700000000000002
21
1.21
31
0
0
LINE
5
122B7
330
12234
100
AcDbEntity
100
AcDbLine
8
OLCULER
10
-0.5800000000000003
20
1.29
30
0
11
-0.5800000000000003
21
1.21
31
0
0
LINE
5
122B8
330
12234
100
AcDbEntity
100
AcDbLine
8
OLCULER
10
-1.1700000000000002
20
1.25
30
0
11
-0.5800000000000003
21
1.25
31
0
0
LINE
5
122B9
330
12234
100
AcDbEntity
100
AcDbLine
8
OLCULER
10
-1.1980000000000002
20
1.222
30
0
11
-1.1420000000000001
21
1.278
31
0
0
LINE
5
122BA
330
12234
100
AcDbEntity
100
AcDbLine
8
OLCULER
10
-0.6080000000000003
20
1.222
30
0
11
-0.5520000000000003
21
1.278
31
0
0
TEXT
5
122BB
330
12234
100
AcDbEntity
100
AcDbText
8
OLCULER
10
-0.8750000000000002
20
1.166
30
0
40
0.06
1
600 mm (SERBEST GECIS)
50
0
7
STANDARD
72
1
11
-0.8750000000000002
21
1.166
31
0
100
AcDbText
73
2
0
LINE
5
122BC
330
12234
100
AcDbEntity
100
AcDbLine
8
OLCULER
10
-2.3800000000000003
20
2.6500000000000004
30
0
11
-2.3800000000000003
21
2.74
31
0
0
LINE
5
122BD
330
12234
100
AcDbEntity
100
AcDbLine
8
OLCULER
10
-2.0800000000000005
20
2.6500000000000004
30
0
11
-2.0800000000000005
21
2.74
31
0
0
LINE
5
122BE
330
12234
100
AcDbEntity
100
AcDbLine
8
OLCULER
10
-2.3800000000000003
20
2.7
30
0
11
-2.0800000000000005
21
2.7
31
0
0
LINE
5
122BF
330
12234
100
AcDbEntity
100
AcDbLine
8
OLCULER
10
-2.4080000000000004
20
2.672
30
0
11
-2.3520000000000003
21
2.728
31
0
0
LINE
5
122C0
330
12234
100
AcDbEntity
100
AcDbLine
8
OLCULER
10
-2.1080000000000005
20
2.672
30
0
11
-2.0520000000000005
21
2.728
31
0
0
TEXT
5
122C1
330
12234
100
AcDbEntity
100
AcDbText
8
OLCULER
10
-2.2300000000000004
20
2.724
30
0
40
0.06
1
300 mm (OFSET)
50
0
7
STANDARD
72
1
11
-2.2300000000000004
21
2.724
31
0
100
AcDbText
73
2
0
LINE
5
122C2
330
12234
100
AcDbEntity
100
AcDbLine
8
OLCULER
10
-2.3800000000000003
20
2.75
30
0
11
-2.3800000000000003
21
2.85
31
0
0
LINE
5
122C3
330
12234
100
AcDbEntity
100
AcDbLine
8
OLCULER
10
-1.7800000000000002
20
2.75
30
0
11
-1.7800000000000002
21
2.85
31
0
0
LINE
5
122C4
330
12234
100
AcDbEntity
100
AcDbLine
8
OLCULER
10
-2.3800000000000003
20
2.81
30
0
11
-1.7800000000000002
21
2.81
31
0
0
LINE
5
122C5
330
12234
100
AcDbEntity
100
AcDbLine
8
OLCULER
10
-2.4080000000000004
20
2.782
30
0
11
-2.3520000000000003
21
2.838
31
0
0
LINE
5
122C6
330
12234
100
AcDbEntity
100
AcDbLine
8
OLCULER
10
-1.8080000000000003
20
2.782
30
0
11
-1.7520000000000002
21
2.838
31
0
0
TEXT
5
122C7
330
12234
100
AcDbEntity
100
AcDbText
8
OLCULER
10
-2.08
20
2.834
30
0
40
0.06
1
600 mm (CELIK - KEDI YOLU ARASI)
50
0
7
STANDARD
72
1
11
-2.08
21
2.834
31
0
100
AcDbText
73
2
0
LINE
5
1231C
330
12234
100
AcDbEntity
100
AcDbLine
8
OLCULER
10
-1.2000000000000002
20
2.37
30
0
11
-1.2000000000000002
21
2.46
31
0
0
LINE
5
1231D
330
12234
100
AcDbEntity
100
AcDbLine
8
OLCULER
10
-0.3450000000000002
20
2.37
30
0
11
-0.3450000000000002
21
2.46
31
0
0
LINE
5
1231E
330
12234
100
AcDbEntity
100
AcDbLine
8
OLCULER
10
-1.2000000000000002
20
2.42
30
0
11
-0.3450000000000002
21
2.42
31
0
0
LINE
5
1231F
330
12234
100
AcDbEntity
100
AcDbLine
8
OLCULER
10
-1.2280000000000002
20
2.392
30
0
11
-1.1720000000000002
21
2.448
31
0
0
LINE
5
12320
330
12234
100
AcDbEntity
100
AcDbLine
8
OLCULER
10
-0.3730000000000002
20
2.392
30
0
11
-0.31700000000000017
21
2.448
31
0
0
TEXT
5
12321
330
12234
100
AcDbEntity
100
AcDbText
8
OLCULER
10
-0.7725000000000002
20
2.444
30
0
40
0.06
1
820 mm (7 RRU BLOK BOYU)
50
0
7
STANDARD
72
1
11
-0.7725000000000002
21
2.444
31
0
100
AcDbText
73
2
0
LINE
5
12322
330
12234
100
AcDbEntity
100
AcDbLine
8
OLCULER
10
-0.3800000000000002
20
1.31
30
0
11
-0.3800000000000002
21
1.23
31
0
0
LINE
5
12323
330
12234
100
AcDbEntity
100
AcDbLine
8
OLCULER
10
-0.16000000000000023
20
1.31
30
0
11
-0.16000000000000023
21
1.23
31
0
0
LINE
5
12324
330
12234
100
AcDbEntity
100
AcDbLine
8
OLCULER
10
-0.3800000000000002
20
1.27
30
0
11
-0.16000000000000023
21
1.27
31
0
0
LINE
5
12325
330
12234
100
AcDbEntity
100
AcDbLine
8
OLCULER
10
-0.40800000000000025
20
1.242
30
0
11
-0.3520000000000002
21
1.298
31
0
0
LINE
5
12326
330
12234
100
AcDbEntity
100
AcDbLine
8
OLCULER
10
-0.18800000000000022
20
1.242
30
0
11
-0.13200000000000023
21
1.298
31
0
0
TEXT
5
12327
330
12234
100
AcDbEntity
100
AcDbText
8
OLCULER
10
-0.27000000000000024
20
1.186
30
0
40
0.06
1
600 mm (POI ENI)
50
0
7
STANDARD
72
1
11
-0.27000000000000024
21
1.186
31
0
100
AcDbText
73
2
0
LINE
5
12369
330
12234
100
AcDbEntity
100
AcDbLine
8
OLCULER
10
0.7000000000000001
20
1.1900000000000002
30
0
11
0.7000000000000001
21
1.09
31
0
0
LINE
5
1236A
330
12234
100
AcDbEntity
100
AcDbLine
8
OLCULER
10
1.9
20
1.1900000000000002
30
0
11
1.9
21
1.09
31
0
0
LINE
5
1236B
330
12234
100
AcDbEntity
100
AcDbLine
8
OLCULER
10
0.7000000000000001
20
1.1300000000000001
30
0
11
1.9
21
1.1300000000000001
31
0
0
LINE
5
1236C
330
12234
100
AcDbEntity
100
AcDbLine
8
OLCULER
10
0.672
20
1.102
30
0
11
0.7280000000000001
21
1.1580000000000001
31
0
0
LINE
5
1236D
330
12234
100
AcDbEntity
100
AcDbLine
8
OLCULER
10
1.8719999999999999
20
1.102
30
0
11
1.928
21
1.1580000000000001
31
0
0
TEXT
5
1236E
330
12234
100
AcDbEntity
100
AcDbText
8
OLCULER
10
1.3
20
1.046
30
0
40
0.06
1
1200 mm (KEDI YOLU ENI)
50
0
7
STANDARD
72
1
11
1.3
21
1.046
31
0
100
AcDbText
73
2
0
LINE
5
1236F
330
12234
100
AcDbEntity
100
AcDbLine
8
OLCULER
10
0.7300000000000001
20
1.29
30
0
11
0.7300000000000001
21
1.21
31
0
0
LINE
5
12370
330
12234
100
AcDbEntity
100
AcDbLine
8
OLCULER
10
1.2800000000000002
20
1.29
30
0
11
1.2800000000000002
21
1.21
31
0
0
LINE
5
12371
330
12234
100
AcDbEntity
100
AcDbLine
8
OLCULER
10
0.7300000000000001
20
1.25
30
0
11
1.2800000000000002
21
1.25
31
0
0
LINE
5
12372
330
12234
100
AcDbEntity
100
AcDbLine
8
OLCULER
10
0.7020000000000001
20
1.222
30
0
11
0.7580000000000001
21
1.278
31
0
0
LINE
5
12373
330
12234
100
AcDbEntity
100
AcDbLine
8
OLCULER
10
1.2520000000000002
20
1.222
30
0
11
1.3080000000000003
21
1.278
31
0
0
TEXT
5
12374
330
12234
100
AcDbEntity
100
AcDbText
8
OLCULER
10
1.0050000000000001
20
1.166
30
0
40
0.06
1
550 mm (TABLA DERINLIGI)
50
0
7
STANDARD
72
1
11
1.0050000000000001
21
1.166
31
0
100
AcDbText
73
2
0
LINE
5
12375
330
12234
100
AcDbEntity
100
AcDbLine
8
OLCULER
10
1.2800000000000002
20
1.29
30
0
11
1.2800000000000002
21
1.21
31
0
0
LINE
5
12376
330
12234
100
AcDbEntity
100
AcDbLine
8
OLCULER
10
1.9
20
1.29
30
0
11
1.9
21
1.21
31
0
0
LINE
5
12377
330
12234
100
AcDbEntity
100
AcDbLine
8
OLCULER
10
1.2800000000000002
20
1.25
30
0
11
1.9
21
1.25
31
0
0
LINE
5
12378
330
12234
100
AcDbEntity
100
AcDbLine
8
OLCULER
10
1.2520000000000002
20
1.222
30
0
11
1.3080000000000003
21
1.278
31
0
0
LINE
5
12379
330
12234
100
AcDbEntity
100
AcDbLine
8
OLCULER
10
1.8719999999999999
20
1.222
30
0
11
1.928
21
1.278
31
0
0
TEXT
5
1237A
330
12234
100
AcDbEntity
100
AcDbText
8
OLCULER
10
1.59
20
1.166
30
0
40
0.06
1
650 mm (NET SERBEST GECIS)
50
0
7
STANDARD
72
1
11
1.59
21
1.166
31
0
100
AcDbText
73
2
0
LINE
5
1237B
330
12234
100
AcDbEntity
100
AcDbLine
8
OLCULER
10
0.7300000000000001
20
2.9979999999999998
30
0
11
0.6100000000000001
21
2.9979999999999998
31
0
0
LINE
5
1237C
330
12234
100
AcDbEntity
100
AcDbLine
8
OLCULER
10
0.7300000000000001
20
1.405
30
0
11
0.6100000000000001
21
1.405
31
0
0
LINE
5
1237D
330
12234
100
AcDbEntity
100
AcDbLine
8
OLCULER
10
0.6500000000000001
20
2.9979999999999998
30
0
11
0.6500000000000001
21
1.405
31
0
0
LINE
5
1237E
330
12234
100
AcDbEntity
100
AcDbLine
8
OLCULER
10
0.6220000000000001
20
2.9699999999999998
30
0
11
0.6780000000000002
21
3.026
31
0
0
LINE
5
1237F
330
12234
100
AcDbEntity
100
AcDbLine
8
OLCULER
10
0.6220000000000001
20
1.377
30
0
11
0.6780000000000002
21
1.433
31
0
0
TEXT
5
12380
330
12234
100
AcDbEntity
100
AcDbText
8
OLCULER
10
0.6080000000000001
20
2.2015
30
0
40
0.06
1
1950 mm (BORU YUKSEKLIGI)
50
90
7
STANDARD
72
1
11
0.6080000000000001
21
2.2015
31
0
100
AcDbText
73
2
0
LINE
5
123B7
330
12234
100
AcDbEntity
100
AcDbLine
8
OLCULER
10
1.35
20
1.31
30
0
11
1.35
21
1.23
31
0
0
LINE
5
123B8
330
12234
100
AcDbEntity
100
AcDbLine
8
OLCULER
10
2.2
20
1.31
30
0
11
2.2
21
1.23
31
0
0
LINE
5
123B9
330
12234
100
AcDbEntity
100
AcDbLine
8
OLCULER
10
1.35
20
1.27
30
0
11
2.2
21
1.27
31
0
0
LINE
5
123BA
330
12234
100
AcDbEntity
100
AcDbLine
8
OLCULER
10
1.322
20
1.242
30
0
11
1.3780000000000001
21
1.298
31
0
0
LINE
5
123BB
330
12234
100
AcDbEntity
100
AcDbLine
8
OLCULER
10
2.172
20
1.242
30
0
11
2.228
21
1.298
31
0
0
TEXT
5
123BC
330
12234
100
AcDbEntity
100
AcDbText
8
OLCULER
10
1.7750000000000001
20
1.186
30
0
40
0.06
1
850 mm (TABLA BOYU)
50
0
7
STANDARD
72
1
11
1.7750000000000001
21
1.186
31
0
100
AcDbText
73
2
0
LINE
5
123BD
330
12234
100
AcDbEntity
100
AcDbLine
8
OLCULER
10
2.25
20
1.31
30
0
11
2.25
21
1.23
31
0
0
LINE
5
123BE
330
12234
100
AcDbEntity
100
AcDbLine
8
OLCULER
10
2.47
20
1.31
30
0
11
2.47
21
1.23
31
0
0
LINE
5
123BF
330
12234
100
AcDbEntity
100
AcDbLine
8
OLCULER
10
2.25
20
1.27
30
0
11
2.47
21
1.27
31
0
0
LINE
5
123C0
330
12234
100
AcDbEntity
100
AcDbLine
8
OLCULER
10
2.222
20
1.242
30
0
11
2.278
21
1.298
31
0
0
LINE
5
123C1
330
12234
100
AcDbEntity
100
AcDbLine
8
OLCULER
10
2.442
20
1.242
30
0
11
2.498
21
1.298
31
0
0
TEXT
5
123C2
330
12234
100
AcDbEntity
100
AcDbText
8
OLCULER
10
2.3600000000000003
20
1.186
30
0
40
0.06
1
600 mm (POI ENI)
50
0
7
STANDARD
72
1
11
2.3600000000000003
21
1.186
31
0
100
AcDbText
73
2
0
LINE
5
123C3
330
12234
100
AcDbEntity
100
AcDbLine
8
OLCULER
10
1.35
20
3.12
30
0
11
1.35
21
3.2
31
0
0
LINE
5
123C4
330
12234
100
AcDbEntity
100
AcDbLine
8
OLCULER
10
2.2
20
3.12
30
0
11
2.2
21
3.2
31
0
0
LINE
5
123C5
330
12234
100
AcDbEntity
100
AcDbLine
8
OLCULER
10
1.35
20
3.16
30
0
11
2.2
21
3.16
31
0
0
LINE
5
123C6
330
12234
100
AcDbEntity
100
AcDbLine
8
OLCULER
10
1.322
20
3.132
30
0
11
1.3780000000000001
21
3.188
31
0
0
LINE
5
123C7
330
12234
100
AcDbEntity
100
AcDbLine
8
OLCULER
10
2.172
20
3.132
30
0
11
2.228
21
3.188
31
0
0
TEXT
5
123C8
330
12234
100
AcDbEntity
100
AcDbText
8
OLCULER
10
1.7750000000000001
20
3.184
30
0
40
0.06
1
4 ADET FLANSLI BORU (O60mm)
50
0
7
STANDARD
72
1
11
1.7750000000000001
21
3.184
31
0
100
AcDbText
73
2
0
LWPOLYLINE
5
1224D
330
12234
100
AcDbEntity
100
AcDbPolyline
8
METIN_BILGI
6
ByLayer
62
256
370
-1
90
4
70
1
10
-2.6
20
-1.1
10
-2.6
20
3.2000000000000006
10
2.6
20
3.2000000000000006
10
2.6
20
-1.1
0
LWPOLYLINE
5
1224E
330
12234
100
AcDbEntity
100
AcDbPolyline
8
METIN_BILGI
6
ByLayer
62
256
370
-1
90
4
70
1
10
-2.585
20
-1.0850000000000002
10
-2.585
20
3.1850000000000005
10
2.585
20
3.1850000000000005
10
2.585
20
-1.0850000000000002
0
LWPOLYLINE
5
1224F
330
12234
100
AcDbEntity
100
AcDbPolyline
8
METIN_BILGI
6
ByLayer
62
256
370
-1
90
4
70
1
10
-2.575
20
3.015
10
-2.575
20
3.1300000000000003
10
2.575
20
3.1300000000000003
10
2.575
20
3.015
0
TEXT
5
12250
330
12234
100
AcDbEntity
100
AcDbText
8
METIN_BILGI
10
0
20
3.092
30
0
40
0.034
1
RAMS PARK / SEYRANTEPE STADYUMU 5G & 4.5G TELEKOMUNIKASYON KEDI YOLU SISTEMI
50
0
7
STANDARD
72
1
11
0
21
3.092
31
0
100
AcDbText
73
0
0
TEXT
5
12251
330
12234
100
AcDbEntity
100
AcDbText
8
METIN_BILGI
10
0
20
3.055
30
0
40
0.028
1
ALAN 2: SKORBOARD ARKASI RRU VE POI YERLESIM KESITLERI (DETAY PAFTASI)
50
0
7
STANDARD
72
1
11
0
21
3.055
31
0
100
AcDbText
73
0
0
TEXT
5
12252
330
12234
100
AcDbEntity
100
AcDbText
8
METIN_BILGI
10
0
20
3.028
30
0
40
0.017
1
ALTERNATIF 1 (SKORBOARD CELIGI MONTAJI) VE ALTERNATIF 2 (KEDI YOLU TABLALI MONTAJ) KARSILASTIRMALI ENKESITLERI
50
0
7
STANDARD
72
1
11
0
21
3.028
31
0
100
AcDbText
73
0
0
LWPOLYLINE
5
12253
330
12234
100
AcDbEntity
100
AcDbPolyline
8
METIN_BILGI
6
ByLayer
62
256
370
-1
90
4
70
1
10
-2.5500000000000003
20
1.25
10
-2.5500000000000003
20
2.95
10
-0.050000000000000266
20
2.95
10
-0.050000000000000266
20
1.25
0
LWPOLYLINE
5
12254
330
12234
100
AcDbEntity
100
AcDbPolyline
8
METIN_BILGI
6
ByLayer
62
256
370
-1
90
4
70
1
10
-2.5500000000000003
20
2.89
10
-2.5500000000000003
20
2.95
10
-0.050000000000000266
20
2.95
10
-0.050000000000000266
20
2.89
0
TEXT
5
12255
330
12234
100
AcDbEntity
100
AcDbText
8
METIN_BILGI
10
-1.3000000000000003
20
2.9120000000000004
30
0
40
0.022
1
ALTERNATIF 1: SKORBOARD ARKA CELIK KAFESINE MONTAJ DUZENI (MEVCUT TASARIM)
50
0
7
STANDARD
72
1
11
-1.3000000000000003
21
2.9120000000000004
31
0
100
AcDbText
73
0
0
TEXT
5
12256
330
12234
100
AcDbEntity
100
AcDbText
8
METIN_BILGI
10
-1.3000000000000003
20
2.895
30
0
40
0.012
1
SKORBOARD ARKA CELIK DIKMELERINDE 2 NOKTADA 7'SER (TOPLAM 14) RRU + 20cm TAVA + KEDI YOLUNDA POI RACK KABINI
50
0
7
STANDARD
72
1
11
-1.3000000000000003
21
2.895
31
0
100
AcDbText
73
0
0
TEXT
5
12257
330
12234
100
AcDbEntity
100
AcDbText
8
METIN_BILGI
10
-1.9300000000000002
20
2.855
30
0
40
0.018000000000000002
1
GORUNUS 1-A: TIPIK ENKESIT (YANDAN KESIT - OLCEK 1:20)
50
0
7
STANDARD
72
1
11
-1.9300000000000002
21
2.855
31
0
100
AcDbText
73
0
0
TEXT
5
12259
330
12234
100
AcDbEntity
100
AcDbText
8
METIN_BILGI
10
-2.3800000000000003
20
2.6
30
0
40
0.013000000000000001
1
SKORBOARD CELIK DIKMESI (140x140mm)
50
0
7
STANDARD
72
1
11
-2.3800000000000003
21
2.6
31
0
100
AcDbText
73
0
0
TEXT
5
1225E
330
12234
100
AcDbEntity
100
AcDbText
8
METIN_BILGI
10
-2.2100000000000004
20
2.0850000000000004
30
0
40
0.01
1
20cm OFSET KONSOLU
50
0
7
STANDARD
72
1
11
-2.2100000000000004
21
2.0850000000000004
31
0
100
AcDbText
73
0
0
TEXT
5
1226E
330
12234
100
AcDbEntity
100
AcDbText
8
METIN_BILGI
10
-1.9700000000000006
20
2.06
30
0
40
0.014
1
RRU MODULU
50
0
7
STANDARD
72
1
11
-1.9700000000000006
21
2.06
31
0
100
AcDbText
73
0
0
TEXT
5
1226F
330
12234
100
AcDbEntity
100
AcDbText
8
METIN_BILGI
10
-1.9700000000000006
20
2.02
30
0
40
0.011
1
(CELIGE MONTAJ)
50
0
7
STANDARD
72
1
11
-1.9700000000000006
21
2.02
31
0
100
AcDbText
73
0
0
TEXT
5
12271
330
12234
100
AcDbEntity
100
AcDbText
8
METIN_BILGI
10
-1.9700000000000006
20
1.5650000000000002
30
0
40
0.011
1
200x60mm BOYUNA TAVA
50
0
7
STANDARD
72
1
11
-1.9700000000000006
21
1.5650000000000002
31
0
100
AcDbText
73
0
0
TEXT
5
12273
330
12234
100
AcDbEntity
100
AcDbText
8
METIN_BILGI
10
-1.7400000000000007
20
1.655
30
0
40
0.011
1
ENINE KOPRU TAVASI
50
0
7
STANDARD
72
1
11
-1.7400000000000007
21
1.655
31
0
100
AcDbText
73
0
0
TEXT
5
12296
330
12234
100
AcDbEntity
100
AcDbText
8
METIN_BILGI
10
-1.4450000000000003
20
1.705
30
0
40
0.012
1
POI MODUL 1
50
0
7
STANDARD
72
1
11
-1.4450000000000003
21
1.705
31
0
100
AcDbText
73
0
0
TEXT
5
1229A
330
12234
100
AcDbEntity
100
AcDbText
8
METIN_BILGI
10
-1.4450000000000003
20
1.975
30
0
40
0.012
1
POI MODUL 2
50
0
7
STANDARD
72
1
11
-1.4450000000000003
21
1.975
31
0
100
AcDbText
73
0
0
TEXT
5
1229E
330
12234
100
AcDbEntity
100
AcDbText
8
METIN_BILGI
10
-1.4450000000000003
20
2.245
30
0
40
0.012
1
POI MODUL 3
50
0
7
STANDARD
72
1
11
-1.4450000000000003
21
2.245
31
0
100
AcDbText
73
0
0
TEXT
5
122A2
330
12234
100
AcDbEntity
100
AcDbText
8
METIN_BILGI
10
-1.4450000000000003
20
2.515
30
0
40
0.012
1
POI MODUL 4
50
0
7
STANDARD
72
1
11
-1.4450000000000003
21
2.515
31
0
100
AcDbText
73
0
0
TEXT
5
122A5
330
12234
100
AcDbEntity
100
AcDbText
8
METIN_BILGI
10
-1.4450000000000003
20
2.89
30
0
40
0.014
1
POI RACK KABINI (30U/42U)
50
0
7
STANDARD
72
1
11
-1.4450000000000003
21
2.89
31
0
100
AcDbText
73
0
0
TEXT
5
122C8
330
12234
100
AcDbEntity
100
AcDbText
8
METIN_BILGI
10
-0.6800000000000002
20
2.855
30
0
40
0.018000000000000002
1
GORUNUS 1-B: ONDEN GORUNUS / ELEVASYON (OLCEK 1:20)
50
0
7
STANDARD
72
1
11
-0.6800000000000002
21
2.855
31
0
100
AcDbText
73
0
0
TEXT
5
122CD
330
12234
100
AcDbEntity
100
AcDbText
8
METIN_BILGI
10
-1.1500000000000001
20
2.0850000000000004
30
0
40
0.011
1
TCELL 1
50
0
7
STANDARD
72
1
11
-1.1500000000000001
21
2.0850000000000004
31
0
100
AcDbText
73
0
0
TEXT
5
122CE
330
12234
100
AcDbEntity
100
AcDbText
8
METIN_BILGI
10
-1.1500000000000001
20
2.055
30
0
40
0.009000000000000001
1
RRU
50
0
7
STANDARD
72
1
11
-1.1500000000000001
21
2.055
31
0
100
AcDbText
73
0
0
TEXT
5
122D5
330
12234
100
AcDbEntity
100
AcDbText
8
METIN_BILGI
10
-1.0250000000000001
20
2.0850000000000004
30
0
40
0.011
1
TCELL 2
50
0
7
STANDARD
72
1
11
-1.0250000000000001
21
2.0850000000000004
31
0
100
AcDbText
73
0
0
TEXT
5
122D6
330
12234
100
AcDbEntity
100
AcDbText
8
METIN_BILGI
10
-1.0250000000000001
20
2.055
30
0
40
0.009000000000000001
1
RRU
50
0
7
STANDARD
72
1
11
-1.0250000000000001
21
2.055
31
0
100
AcDbText
73
0
0
TEXT
5
122E1
330
12234
100
AcDbEntity
100
AcDbText
8
METIN_BILGI
10
-0.9025000000000002
20
2.075
30
0
40
0.011
1
TT 1
50
0
7
STANDARD
72
1
11
-0.9025000000000002
21
2.075
31
0
100
AcDbText
73
0
0
TEXT
5
122E2
330
12234
100
AcDbEntity
100
AcDbText
8
METIN_BILGI
10
-0.9025000000000002
20
2.045
30
0
40
0.009000000000000001
1
RRU
50
0
7
STANDARD
72
1
11
-0.9025000000000002
21
2.045
31
0
100
AcDbText
73
0
0
TEXT
5
122E9
330
12234
100
AcDbEntity
100
AcDbText
8
METIN_BILGI
10
-0.7825000000000002
20
2.075
30
0
40
0.011
1
TT 2
50
0
7
STANDARD
72
1
11
-0.7825000000000002
21
2.075
31
0
100
AcDbText
73
0
0
TEXT
5
122EA
330
12234
100
AcDbEntity
100
AcDbText
8
METIN_BILGI
10
-0.7825000000000002
20
2.045
30
0
40
0.009000000000000001
1
RRU
50
0
7
STANDARD
72
1
11
-0.7825000000000002
21
2.045
31
0
100
AcDbText
73
0
0
TEXT
5
122F5
330
12234
100
AcDbEntity
100
AcDbText
8
METIN_BILGI
10
-0.6575000000000002
20
2.08
30
0
40
0.011
1
VDF 1
50
0
7
STANDARD
72
1
11
-0.6575000000000002
21
2.08
31
0
100
AcDbText
73
0
0
TEXT
5
122F6
330
12234
100
AcDbEntity
100
AcDbText
8
METIN_BILGI
10
-0.6575000000000002
20
2.05
30
0
40
0.009000000000000001
1
RRU
50
0
7
STANDARD
72
1
11
-0.6575000000000002
21
2.05
31
0
100
AcDbText
73
0
0
TEXT
5
122FD
330
12234
100
AcDbEntity
100
AcDbText
8
METIN_BILGI
10
-0.5275000000000002
20
2.08
30
0
40
0.011
1
VDF 2
50
0
7
STANDARD
72
1
11
-0.5275000000000002
21
2.08
31
0
100
AcDbText
73
0
0
TEXT
5
122FE
330
12234
100
AcDbEntity
100
AcDbText
8
METIN_BILGI
10
-0.5275000000000002
20
2.05
30
0
40
0.009000000000000001
1
RRU
50
0
7
STANDARD
72
1
11
-0.5275000000000002
21
2.05
31
0
100
AcDbText
73
0
0
TEXT
5
12305
330
12234
100
AcDbEntity
100
AcDbText
8
METIN_BILGI
10
-0.3975000000000002
20
2.08
30
0
40
0.011
1
VDF 3
50
0
7
STANDARD
72
1
11
-0.3975000000000002
21
2.08
31
0
100
AcDbText
73
0
0
TEXT
5
12306
330
12234
100
AcDbEntity
100
AcDbText
8
METIN_BILGI
10
-0.3975000000000002
20
2.05
30
0
40
0.009000000000000001
1
RRU
50
0
7
STANDARD
72
1
11
-0.3975000000000002
21
2.05
31
0
100
AcDbText
73
0
0
TEXT
5
12310
330
12234
100
AcDbEntity
100
AcDbText
8
METIN_BILGI
10
-0.7750000000000001
20
1.6050000000000002
30
0
40
0.011
1
200mm FEEDER KABLO TAVASI (20 ADET 1/2" JUMPER)
50
0
7
STANDARD
72
1
11
-0.7750000000000001
21
1.6050000000000002
31
0
100
AcDbText
73
0
0
TEXT
5
12314
330
12234
100
AcDbEntity
100
AcDbText
8
METIN_BILGI
10
-0.27000000000000024
20
1.6600000000000001
30
0
40
0.011
1
POI 1
50
0
7
STANDARD
72
1
11
-0.27000000000000024
21
1.6600000000000001
31
0
100
AcDbText
73
0
0
TEXT
5
12316
330
12234
100
AcDbEntity
100
AcDbText
8
METIN_BILGI
10
-0.27000000000000024
20
1.9300000000000002
30
0
40
0.011
1
POI 2
50
0
7
STANDARD
72
1
11
-0.27000000000000024
21
1.9300000000000002
31
0
100
AcDbText
73
0
0
TEXT
5
12318
330
12234
100
AcDbEntity
100
AcDbText
8
METIN_BILGI
10
-0.27000000000000024
20
2.2
30
0
40
0.011
1
POI 3
50
0
7
STANDARD
72
1
11
-0.27000000000000024
21
2.2
31
0
100
AcDbText
73
0
0
TEXT
5
1231A
330
12234
100
AcDbEntity
100
AcDbText
8
METIN_BILGI
10
-0.27000000000000024
20
2.47
30
0
40
0.011
1
POI 4
50
0
7
STANDARD
72
1
11
-0.27000000000000024
21
2.47
31
0
100
AcDbText
73
0
0
TEXT
5
1231B
330
12234
100
AcDbEntity
100
AcDbText
8
METIN_BILGI
10
-0.27000000000000024
20
2.85
30
0
40
0.013000000000000001
1
POI KABINI
50
0
7
STANDARD
72
1
11
-0.27000000000000024
21
2.85
31
0
100
AcDbText
73
0
0
LWPOLYLINE
5
12328
330
12234
100
AcDbEntity
100
AcDbPolyline
8
METIN_BILGI
6
ByLayer
62
256
370
-1
90
4
70
1
10
0.05
20
1.25
10
0.05
20
2.95
10
2.55
20
2.95
10
2.55
20
1.25
0
LWPOLYLINE
5
12329
330
12234
100
AcDbEntity
100
AcDbPolyline
8
METIN_BILGI
6
ByLayer
62
256
370
-1
90
4
70
1
10
0.05
20
2.89
10
0.05
20
2.95
10
2.55
20
2.95
10
2.55
20
2.89
0
TEXT
5
1232A
330
12234
100
AcDbEntity
100
AcDbText
8
METIN_BILGI
10
1.3
20
2.9120000000000004
30
0
40
0.022
1
ALTERNATIF 2: MEVCUT ALT KEDI YOLU ICI TABLALI 4 BORU 7 RRU BLOGU
50
0
7
STANDARD
72
1
11
1.3
21
2.9120000000000004
31
0
100
AcDbText
73
0
0
TEXT
5
1232B
330
12234
100
AcDbEntity
100
AcDbText
8
METIN_BILGI
10
1.3
20
2.895
30
0
40
0.012
1
850x550mm TABLA + 4 ADET FLANSLI BORU + 7 RRU (2 TURKCELL + 2 TT + 3 VDF) + POI RACK KABINI
50
0
7
STANDARD
72
1
11
1.3
21
2.895
31
0
100
AcDbText
73
0
0
TEXT
5
1232C
330
12234
100
AcDbEntity
100
AcDbText
8
METIN_BILGI
10
0.6000000000000001
20
2.855
30
0
40
0.018000000000000002
1
GORUNUS 2-A: TIPIK ENKESIT (YANDAN KESIT - OLCEK 1:20)
50
0
7
STANDARD
72
1
11
0.6000000000000001
21
2.855
31
0
100
AcDbText
73
0
0
TEXT
5
1232E
330
12234
100
AcDbEntity
100
AcDbText
8
METIN_BILGI
10
0.20000000000000007
20
2.6
30
0
40
0.012
1
SKORBOARD CELIK DIKMESI
50
0
7
STANDARD
72
1
11
0.20000000000000007
21
2.6
31
0
100
AcDbText
73
0
0
TEXT
5
1232F
330
12234
100
AcDbEntity
100
AcDbText
8
METIN_BILGI
10
0.20000000000000007
20
2.0700000000000003
30
0
40
0.014
1
SERBEST / YUKSUZ CELIK
50
90
7
STANDARD
72
1
11
0.20000000000000007
21
2.0700000000000003
31
0
100
AcDbText
73
0
0
TEXT
5
12330
330
12234
100
AcDbEntity
100
AcDbText
8
METIN_BILGI
10
0.20000000000000007
20
1.82
30
0
40
0.011
1
(MONTAJ YOKTUR)
50
90
7
STANDARD
72
1
11
0.20000000000000007
21
1.82
31
0
100
AcDbText
73
0
0
TEXT
5
1235C
330
12234
100
AcDbEntity
100
AcDbText
8
METIN_BILGI
10
0.9450000000000001
20
1.795
30
0
40
0.011
1
ALT SIRA RRU
50
0
7
STANDARD
72
1
11
0.9450000000000001
21
1.795
31
0
100
AcDbText
73
0
0
TEXT
5
1235E
330
12234
100
AcDbEntity
100
AcDbText
8
METIN_BILGI
10
1.0650000000000002
20
2.345
30
0
40
0.011
1
UST SIRA RRU
50
0
7
STANDARD
72
1
11
1.0650000000000002
21
2.345
31
0
100
AcDbText
73
0
0
LWPOLYLINE
5
1235F
330
12234
100
AcDbEntity
100
AcDbPolyline
8
METIN_BILGI
6
ByLayer
62
256
370
-1
90
4
70
1
10
0.8250000000000002
20
2.9029999999999996
10
0.8250000000000002
20
2.9729999999999994
10
1.185
20
2.9729999999999994
10
1.185
20
2.9029999999999996
0
TEXT
5
12360
330
12234
100
AcDbEntity
100
AcDbText
8
METIN_BILGI
10
1.0050000000000001
20
2.933
30
0
40
0.016
1
ALTERNATIF-2
50
0
7
STANDARD
72
1
11
1.0050000000000001
21
2.933
31
0
100
AcDbText
73
0
0
TEXT
5
12361
330
12234
100
AcDbEntity
100
AcDbText
8
METIN_BILGI
10
1.0050000000000001
20
2.913
30
0
40
0.011
1
(7 RRU KUMESI)
50
0
7
STANDARD
72
1
11
1.0050000000000001
21
2.913
31
0
100
AcDbText
73
0
0
TEXT
5
12381
330
12234
100
AcDbEntity
100
AcDbText
8
METIN_BILGI
10
1.9000000000000001
20
2.855
30
0
40
0.018000000000000002
1
GORUNUS 2-B: ONDEN GORUNUS / ELEVASYON (OLCEK 1:20)
50
0
7
STANDARD
72
1
11
1.9000000000000001
21
2.855
31
0
100
AcDbText
73
0
0
TEXT
5
12385
330
12234
100
AcDbEntity
100
AcDbText
8
METIN_BILGI
10
1.7750000000000001
20
1.34
30
0
40
0.012
1
850x550x25mm SICAK DALDIRMA GALVANIZ CELIK TABLA
50
0
7
STANDARD
72
1
11
1.7750000000000001
21
1.34
31
0
100
AcDbText
73
0
0
TEXT
5
12389
330
12234
100
AcDbEntity
100
AcDbText
8
METIN_BILGI
10
1.4500000000000002
20
2.89
30
0
40
0.009000000000000001
1
B1
50
0
7
STANDARD
72
1
11
1.4500000000000002
21
2.89
31
0
100
AcDbText
73
0
0
TEXT
5
1238D
330
12234
100
AcDbEntity
100
AcDbText
8
METIN_BILGI
10
1.6700000000000002
20
2.89
30
0
40
0.009000000000000001
1
B2
50
0
7
STANDARD
72
1
11
1.6700000000000002
21
2.89
31
0
100
AcDbText
73
0
0
TEXT
5
12391
330
12234
100
AcDbEntity
100
AcDbText
8
METIN_BILGI
10
1.8800000000000001
20
2.89
30
0
40
0.009000000000000001
1
B3
50
0
7
STANDARD
72
1
11
1.8800000000000001
21
2.89
31
0
100
AcDbText
73
0
0
TEXT
5
12395
330
12234
100
AcDbEntity
100
AcDbText
8
METIN_BILGI
10
2.1
20
2.89
30
0
40
0.009000000000000001
1
B4
50
0
7
STANDARD
72
1
11
2.1
21
2.89
31
0
100
AcDbText
73
0
0
TEXT
5
12397
330
12234
100
AcDbEntity
100
AcDbText
8
METIN_BILGI
10
1.4800000000000002
20
1.7150000000000003
30
0
40
0.01
1
TCELL 1
50
0
7
STANDARD
72
1
11
1.4800000000000002
21
1.7150000000000003
31
0
100
AcDbText
73
0
0
TEXT
5
12399
330
12234
100
AcDbEntity
100
AcDbText
8
METIN_BILGI
10
1.6700000000000002
20
1.7150000000000003
30
0
40
0.01
1
TCELL 2
50
0
7
STANDARD
72
1
11
1.6700000000000002
21
1.7150000000000003
31
0
100
AcDbText
73
0
0
TEXT
5
1239B
330
12234
100
AcDbEntity
100
AcDbText
8
METIN_BILGI
10
1.87
20
1.7150000000000003
30
0
40
0.01
1
TT 1
50
0
7
STANDARD
72
1
11
1.87
21
1.7150000000000003
31
0
100
AcDbText
73
0
0
TEXT
5
1239D
330
12234
100
AcDbEntity
100
AcDbText
8
METIN_BILGI
10
2.0700000000000003
20
1.7150000000000003
30
0
40
0.01
1
TT 2
50
0
7
STANDARD
72
1
11
2.0700000000000003
21
1.7150000000000003
31
0
100
AcDbText
73
0
0
TEXT
5
1239F
330
12234
100
AcDbEntity
100
AcDbText
8
METIN_BILGI
10
1.5600000000000003
20
2.2800000000000002
30
0
40
0.01
1
VODAFONE 1
50
0
7
STANDARD
72
1
11
1.5600000000000003
21
2.2800000000000002
31
0
100
AcDbText
73
0
0
TEXT
5
123A1
330
12234
100
AcDbEntity
100
AcDbText
8
METIN_BILGI
10
1.7700000000000002
20
2.2800000000000002
30
0
40
0.01
1
VODAFONE 2
50
0
7
STANDARD
72
1
11
1.7700000000000002
21
2.2800000000000002
31
0
100
AcDbText
73
0
0
TEXT
5
123A3
330
12234
100
AcDbEntity
100
AcDbText
8
METIN_BILGI
10
1.9800000000000002
20
2.2800000000000002
30
0
40
0.01
1
VODAFONE 3
50
0
7
STANDARD
72
1
11
1.9800000000000002
21
2.2800000000000002
31
0
100
AcDbText
73
0
0
LWPOLYLINE
5
123A4
330
12234
100
AcDbEntity
100
AcDbPolyline
8
METIN_BILGI
6
ByLayer
62
256
370
-1
90
4
70
1
10
1.5550000000000002
20
2.9450000000000003
10
1.5550000000000002
20
3.035
10
1.995
20
3.035
10
1.995
20
2.9450000000000003
0
LWPOLYLINE
5
123A5
330
12234
100
AcDbEntity
100
AcDbPolyline
8
METIN_BILGI
6
ByLayer
62
256
370
-1
90
4
70
1
10
1.56
20
2.95
10
1.56
20
3.0300000000000002
10
1.99
20
3.0300000000000002
10
1.99
20
2.95
0
TEXT
5
123A6
330
12234
100
AcDbEntity
100
AcDbText
8
METIN_BILGI
10
1.7750000000000001
20
3
30
0
40
0.018000000000000002
1
ALTERNATIF - 2
50
0
7
STANDARD
72
1
11
1.7750000000000001
21
3
31
0
100
AcDbText
73
0
0
TEXT
5
123A7
330
12234
100
AcDbEntity
100
AcDbText
8
METIN_BILGI
10
1.7750000000000001
20
2.97
30
0
40
0.011
1
TABLALI 4 BORU - 7 RRU KUMESI
50
0
7
STANDARD
72
1
11
1.7750000000000001
21
2.97
31
0
100
AcDbText
73
0
0
TEXT
5
123AD
330
12234
100
AcDbEntity
100
AcDbText
8
METIN_BILGI
10
2.36
20
1.6600000000000001
30
0
40
0.011
1
POI 1
50
0
7
STANDARD
72
1
11
2.36
21
1.6600000000000001
31
0
100
AcDbText
73
0
0
TEXT
5
123AF
330
12234
100
AcDbEntity
100
AcDbText
8
METIN_BILGI
10
2.36
20
1.9300000000000002
30
0
40
0.011
1
POI 2
50
0
7
STANDARD
72
1
11
2.36
21
1.9300000000000002
31
0
100
AcDbText
73
0
0
TEXT
5
123B1
330
12234
100
AcDbEntity
100
AcDbText
8
METIN_BILGI
10
2.36
20
2.2
30
0
40
0.011
1
POI 3
50
0
7
STANDARD
72
1
11
2.36
21
2.2
31
0
100
AcDbText
73
0
0
TEXT
5
123B3
330
12234
100
AcDbEntity
100
AcDbText
8
METIN_BILGI
10
2.36
20
2.47
30
0
40
0.011
1
POI 4
50
0
7
STANDARD
72
1
11
2.36
21
2.47
31
0
100
AcDbText
73
0
0
TEXT
5
123B4
330
12234
100
AcDbEntity
100
AcDbText
8
METIN_BILGI
10
2.36
20
2.85
30
0
40
0.013000000000000001
1
POI RACK KABINI
50
0
7
STANDARD
72
1
11
2.36
21
2.85
31
0
100
AcDbText
73
0
0
TEXT
5
123B6
330
12234
100
AcDbEntity
100
AcDbText
8
METIN_BILGI
10
2.225
20
1.425
30
0
40
0.009000000000000001
1
TABAN JUMPERI (0.8m)
50
0
7
STANDARD
72
1
11
2.225
21
1.425
31
0
100
AcDbText
73
0
0
LWPOLYLINE
5
123C9
330
12234
100
AcDbEntity
100
AcDbPolyline
8
METIN_BILGI
6
ByLayer
62
256
370
-1
90
4
70
1
10
-2.5500000000000003
20
-1.02
10
-2.5500000000000003
20
-0.040000000000000036
10
-0.5000000000000004
20
-0.040000000000000036
10
-0.5000000000000004
20
-1.02
0
TEXT
5
123CA
330
12234
100
AcDbEntity
100
AcDbText
8
METIN_BILGI
10
-1.5250000000000004
20
-0.07500000000000001
30
0
40
0.018000000000000002
1
ALTERNATIF 1 VE ALTERNATIF 2 KARSILASTIRMALI MUHENDISLIK VE UYGULAMA ANALIZI
50
0
7
STANDARD
72
1
11
-1.5250000000000004
21
-0.07500000000000001
31
0
100
AcDbText
73
0
0
LWPOLYLINE
5
123CB
330
12234
100
AcDbEntity
100
AcDbPolyline
8
METIN_BILGI
6
ByLayer
62
256
370
-1
90
4
70
1
10
-2.5500000000000003
20
-0.11499999999999999
10
-2.5500000000000003
20
-0.07999999999999999
10
-0.5000000000000004
20
-0.07999999999999999
10
-0.5000000000000004
20
-0.11499999999999999
0
TEXT
5
123CC
330
12234
100
AcDbEntity
100
AcDbText
8
METIN_BILGI
10
-2.535
20
-0.10500000000000001
30
0
40
0.011
1
KRITER / DEGERLENDIRME
50
0
7
STANDARD
100
AcDbText
0
TEXT
5
123CD
330
12234
100
AcDbEntity
100
AcDbText
8
METIN_BILGI
10
-2.085
20
-0.10500000000000001
30
0
40
0.011
1
ALTERNATIF 1 (SKORBOARD CELIK MONTAJI)
50
0
7
STANDARD
100
AcDbText
0
TEXT
5
123CE
330
12234
100
AcDbEntity
100
AcDbText
8
METIN_BILGI
10
-1.3050000000000004
20
-0.10500000000000001
30
0
40
0.011
1
ALTERNATIF 2 (KEDI YOLU TABLALI MONTAJ)
50
0
7
STANDARD
100
AcDbText
0
LINE
5
123CF
330
12234
100
AcDbEntity
100
AcDbLine
8
METIN_BILGI
10
-2.5500000000000003
20
-0.15
30
0
11
-0.5000000000000004
21
-0.15
31
0
0
TEXT
5
123D0
330
12234
100
AcDbEntity
100
AcDbText
8
METIN_BILGI
10
-2.535
20
-0.09999999999999999
30
0
40
0.011
1
RRU Montaj Yeri
50
0
7
STANDARD
100
AcDbText
0
TEXT
5
123D1
330
12234
100
AcDbEntity
100
AcDbText
8
METIN_BILGI
10
-2.085
20
-0.09999999999999999
30
0
40
0.01
1
Skorboard arka celik kafes kirisleri (Z = -2.20m)
50
0
7
STANDARD
100
AcDbText
0
TEXT
5
123D2
330
12234
100
AcDbEntity
100
AcDbText
8
METIN_BILGI
10
-1.3050000000000004
20
-0.09999999999999999
30
0
40
0.01
1
Mevcut alt kedi yolu platformu uzerinde 850x550mm tabla
50
0
7
STANDARD
100
AcDbText
0
LINE
5
123D3
330
12234
100
AcDbEntity
100
AcDbLine
8
METIN_BILGI
10
-2.5500000000000003
20
-0.242
30
0
11
-0.5000000000000004
21
-0.242
31
0
0
TEXT
5
123D4
330
12234
100
AcDbEntity
100
AcDbText
8
METIN_BILGI
10
-2.535
20
-0.192
30
0
40
0.011
1
POI Kabin Varligi
50
0
7
STANDARD
100
AcDbText
0
TEXT
5
123D5
330
12234
100
AcDbEntity
100
AcDbText
8
METIN_BILGI
10
-2.085
20
-0.192
30
0
40
0.01
1
Kedi yolu uzerinde 30U/42U POI Rack mevcuttur (600x800mm)
50
0
7
STANDARD
100
AcDbText
0
TEXT
5
123D6
330
12234
100
AcDbEntity
100
AcDbText
8
METIN_BILGI
10
-1.3050000000000004
20
-0.192
30
0
40
0.01
1
Kedi yolu uzerinde 30U/42U POI Rack mevcuttur (Tablaya bitisik)
50
0
7
STANDARD
100
AcDbText
0
LINE
5
123D7
330
12234
100
AcDbEntity
100
AcDbLine
8
METIN_BILGI
10
-2.5500000000000003
20
-0.33399999999999996
30
0
11
-0.5000000000000004
21
-0.33399999999999996
31
0
0
TEXT
5
123D8
330
12234
100
AcDbEntity
100
AcDbText
8
METIN_BILGI
10
-2.535
20
-0.284
30
0
40
0.011
1
Net Yuruyus Koridoru
50
0
7
STANDARD
100
AcDbText
0
TEXT
5
123D9
330
12234
100
AcDbEntity
100
AcDbText
8
METIN_BILGI
10
-2.085
20
-0.284
30
0
40
0.01
1
Net 600mm serbest yuruyus (POI yani haric tam acik)
50
0
7
STANDARD
100
AcDbText
0
TEXT
5
123DA
330
12234
100
AcDbEntity
100
AcDbText
8
METIN_BILGI
10
-1.3050000000000004
20
-0.284
30
0
40
0.01
1
Net 650mm serbest yuruyus ve acil kacis koridoru (EN ISO 14122)
50
0
7
STANDARD
100
AcDbText
0
LINE
5
123DB
330
12234
100
AcDbEntity
100
AcDbLine
8
METIN_BILGI
10
-2.5500000000000003
20
-0.42600000000000005
30
0
11
-0.5000000000000004
21
-0.42600000000000005
31
0
0
TEXT
5
123DC
330
12234
100
AcDbEntity
100
AcDbText
8
METIN_BILGI
10
-2.535
20
-0.37600000000000006
30
0
40
0.011
1
Skorboard Statik Yuku
50
0
7
STANDARD
100
AcDbText
0
TEXT
5
123DD
330
12234
100
AcDbEntity
100
AcDbText
8
METIN_BILGI
10
-2.085
20
-0.37600000000000006
30
0
40
0.01
1
14 RRU + konsol + tava: ~380 kg ek statik ve ruzgar yuku
50
0
7
STANDARD
100
AcDbText
0
TEXT
5
123DE
330
12234
100
AcDbEntity
100
AcDbText
8
METIN_BILGI
10
-1.3050000000000004
20
-0.37600000000000006
30
0
40
0.01
1
SIFIR YUK (Skorboard celigine hicbir ek yuk binmez)
50
0
7
STANDARD
100
AcDbText
0
LINE
5
123DF
330
12234
100
AcDbEntity
100
AcDbLine
8
METIN_BILGI
10
-2.5500000000000003
20
-0.518
30
0
11
-0.5000000000000004
21
-0.518
31
0
0
TEXT
5
123E0
330
12234
100
AcDbEntity
100
AcDbText
8
METIN_BILGI
10
-2.535
20
-0.468
30
0
40
0.011
1
Kopru Tavasi Ihtiyaci
50
0
7
STANDARD
100
AcDbText
0
TEXT
5
123E1
330
12234
100
AcDbEntity
100
AcDbText
8
METIN_BILGI
10
-2.085
20
-0.468
30
0
40
0.01
1
1260mm uzunlugunda havai gecis kopru tavasi zorunludur
50
0
7
STANDARD
100
AcDbText
0
TEXT
5
123E2
330
12234
100
AcDbEntity
100
AcDbText
8
METIN_BILGI
10
-1.3050000000000004
20
-0.468
30
0
40
0.01
1
KOPRU TAVASI YOKTUR (Kablolar tabandan dogrudan girer)
50
0
7
STANDARD
100
AcDbText
0
LINE
5
123E3
330
12234
100
AcDbEntity
100
AcDbLine
8
METIN_BILGI
10
-2.5500000000000003
20
-0.61
30
0
11
-0.5000000000000004
21
-0.61
31
0
0
TEXT
5
123E4
330
12234
100
AcDbEntity
100
AcDbText
8
METIN_BILGI
10
-2.535
20
-0.5599999999999999
30
0
40
0.011
1
Jumper Kablo Metraji
50
0
7
STANDARD
100
AcDbText
0
TEXT
5
123E5
330
12234
100
AcDbEntity
100
AcDbText
8
METIN_BILGI
10
-2.085
20
-0.5599999999999999
30
0
40
0.01
1
Ortalama 2.80m / jumper portu (20 adet feeder, sinyal kaybi yuksek)
50
0
7
STANDARD
100
AcDbText
0
TEXT
5
123E6
330
12234
100
AcDbEntity
100
AcDbText
8
METIN_BILGI
10
-1.3050000000000004
20
-0.5599999999999999
30
0
40
0.01
1
Ortalama 0.85m / jumper portu (Cok kisa, minimum RF sinyal kaybi)
50
0
7
STANDARD
100
AcDbText
0
LINE
5
123E7
330
12234
100
AcDbEntity
100
AcDbLine
8
METIN_BILGI
10
-2.5500000000000003
20
-0.7020000000000001
30
0
11
-0.5000000000000004
21
-0.7020000000000001
31
0
0
TEXT
5
123E8
330
12234
100
AcDbEntity
100
AcDbText
8
METIN_BILGI
10
-2.535
20
-0.652
30
0
40
0.011
1
Montaj & Iskele Gereksinimi
50
0
7
STANDARD
100
AcDbText
0
TEXT
5
123E9
330
12234
100
AcDbEntity
100
AcDbText
8
METIN_BILGI
10
-2.085
20
-0.652
30
0
40
0.01
1
Yuksekte ozel celik iskele / sepetli erisim gerektirir
50
0
7
STANDARD
100
AcDbText
0
TEXT
5
123EA
330
12234
100
AcDbEntity
100
AcDbText
8
METIN_BILGI
10
-1.3050000000000004
20
-0.652
30
0
40
0.01
1
Kedi yolu icinden hizli, emniyetli ve kolay montaj imkani
50
0
7
STANDARD
100
AcDbText
0
LINE
5
123EB
330
12234
100
AcDbEntity
100
AcDbLine
8
METIN_BILGI
10
-2.5500000000000003
20
-0.794
30
0
11
-0.5000000000000004
21
-0.794
31
0
0
TEXT
5
123EC
330
12234
100
AcDbEntity
100
AcDbText
8
METIN_BILGI
10
-2.535
20
-0.744
30
0
40
0.011
1
Bakim & Mudahale Kolayligi
50
0
7
STANDARD
100
AcDbText
0
TEXT
5
123ED
330
12234
100
AcDbEntity
100
AcDbText
8
METIN_BILGI
10
-2.085
20
-0.744
30
0
40
0.01
1
Skorboard arkasinda calisma alani kisitli ve zordur
50
0
7
STANDARD
100
AcDbText
0
TEXT
5
123EE
330
12234
100
AcDbEntity
100
AcDbText
8
METIN_BILGI
10
-1.3050000000000004
20
-0.744
30
0
40
0.01
1
Kedi yolundan 360 derece dogrudan ve emniyetli mudahale
50
0
7
STANDARD
100
AcDbText
0
LINE
5
123EF
330
12234
100
AcDbEntity
100
AcDbLine
8
METIN_BILGI
10
-2.5500000000000003
20
-0.886
30
0
11
-0.5000000000000004
21
-0.886
31
0
0
TEXT
5
123F0
330
12234
100
AcDbEntity
100
AcDbText
8
METIN_BILGI
10
-2.535
20
-0.836
30
0
40
0.011
1
Tavsiye Edilen Tercih
50
0
7
STANDARD
100
AcDbText
0
TEXT
5
123F1
330
12234
100
AcDbEntity
100
AcDbText
8
METIN_BILGI
10
-2.085
20
-0.836
30
0
40
0.01
1
Mevcut tasarim standardi (Mimari onayli)
50
0
7
STANDARD
100
AcDbText
0
TEXT
5
123F2
330
12234
100
AcDbEntity
100
AcDbText
8
METIN_BILGI
10
-1.3050000000000004
20
-0.836
30
0
40
0.01
1
YUKSEK ONERILEN ALTERNATIF (Statik ve montaj avantaji)
50
0
7
STANDARD
100
AcDbText
0
LWPOLYLINE
5
123F3
330
12234
100
AcDbEntity
100
AcDbPolyline
8
METIN_BILGI
6
ByLayer
62
256
370
-1
90
4
70
1
10
-0.45
20
-1.02
10
-0.45
20
-0.040000000000000036
10
0.55
20
-0.040000000000000036
10
0.55
20
-1.02
0
TEXT
5
123F4
330
12234
100
AcDbEntity
100
AcDbText
8
METIN_BILGI
10
0.04999999999999999
20
-0.07500000000000001
30
0
40
0.017
1
IMALAT VE ANKRAJ DETAYLARI (OLCEK 1:10)
50
0
7
STANDARD
72
1
11
0.04999999999999999
21
-0.07500000000000001
31
0
100
AcDbText
73
0
0
TEXT
5
123F5
330
12234
100
AcDbEntity
100
AcDbText
8
METIN_BILGI
10
-0.42000000000000004
20
-0.16
30
0
40
0.014
1
DETAY D-1: TABAN TABLASI VE FLANS ANKRAJ DETAYI
50
0
7
STANDARD
100
AcDbText
0
TEXT
5
123F7
330
12234
100
AcDbEntity
100
AcDbText
8
METIN_BILGI
10
-0.29000000000000004
20
-0.31
30
0
40
0.01
1
UPN120
50
0
7
STANDARD
72
1
11
-0.29000000000000004
21
-0.31
31
0
100
AcDbText
73
0
0
TEXT
5
123F9
330
12234
100
AcDbEntity
100
AcDbText
8
METIN_BILGI
10
-0.2
20
-0.245
30
0
40
0.01
1
t=25mm GALVANIZ TABLA SACI
50
0
7
STANDARD
72
1
11
-0.2
21
-0.245
31
0
100
AcDbText
73
0
0
TEXT
5
123FE
330
12234
100
AcDbEntity
100
AcDbText
8
METIN_BILGI
10
-0.13
20
-0.18
30
0
40
0.01
1
O60.3mm MONTAJ BORUSU
50
0
7
STANDARD
100
AcDbText
0
TEXT
5
12401
330
12234
100
AcDbEntity
100
AcDbText
8
METIN_BILGI
10
-0.39
20
-0.375
30
0
40
0.01
1
M16 ANKRAJ (8.8 KALITE)
50
0
7
STANDARD
100
AcDbText
0
TEXT
5
12402
330
12234
100
AcDbEntity
100
AcDbText
8
METIN_BILGI
10
-0.42000000000000004
20
-0.5900000000000001
30
0
40
0.014
1
DETAY D-2: POI RACK KABINI VE JUMPER GIRIS DUZENI
50
0
7
STANDARD
100
AcDbText
0
TEXT
5
12406
330
12234
100
AcDbEntity
100
AcDbText
8
METIN_BILGI
10
-0.19
20
-0.685
30
0
40
0.009000000000000001
1
POI MODUL 1 (4.3-10 DIN)
50
0
7
STANDARD
72
1
11
-0.19
21
-0.685
31
0
100
AcDbText
73
0
0
TEXT
5
12408
330
12234
100
AcDbEntity
100
AcDbText
8
METIN_BILGI
10
-0.19
20
-0.7450000000000001
30
0
40
0.009000000000000001
1
POI MODUL 2 (4.3-10 DIN)
50
0
7
STANDARD
72
1
11
-0.19
21
-0.7450000000000001
31
0
100
AcDbText
73
0
0
TEXT
5
1240A
330
12234
100
AcDbEntity
100
AcDbText
8
METIN_BILGI
10
-0.19
20
-0.805
30
0
40
0.009000000000000001
1
POI MODUL 3 (4.3-10 DIN)
50
0
7
STANDARD
72
1
11
-0.19
21
-0.805
31
0
100
AcDbText
73
0
0
TEXT
5
1240C
330
12234
100
AcDbEntity
100
AcDbText
8
METIN_BILGI
10
-0.19
20
-0.865
30
0
40
0.009000000000000001
1
POI MODUL 4 (4.3-10 DIN)
50
0
7
STANDARD
72
1
11
-0.19
21
-0.865
31
0
100
AcDbText
73
0
0
TEXT
5
1240E
330
12234
100
AcDbEntity
100
AcDbText
8
METIN_BILGI
10
-0.19
20
-0.9800000000000001
30
0
40
0.01
1
SIZDIRMAZ REKOR PLAKASI (IP65)
50
0
7
STANDARD
72
1
11
-0.19
21
-0.9800000000000001
31
0
100
AcDbText
73
0
0
LWPOLYLINE
5
1240F
330
12234
100
AcDbEntity
100
AcDbPolyline
8
METIN_BILGI
6
ByLayer
62
256
370
-1
90
4
70
1
10
0.6
20
-0.56
10
0.6
20
-0.040000000000000036
10
1.6
20
-0.040000000000000036
10
1.6
20
-0.56
0
TEXT
5
12410
330
12234
100
AcDbEntity
100
AcDbText
8
METIN_BILGI
10
1.1
20
-0.07
30
0
40
0.016
1
EKIPMAN VE MALZEME LISTESI (BOM)
50
0
7
STANDARD
72
1
11
1.1
21
-0.07
31
0
100
AcDbText
73
0
0
LWPOLYLINE
5
12411
330
12234
100
AcDbEntity
100
AcDbPolyline
8
METIN_BILGI
6
ByLayer
62
256
370
-1
90
4
70
1
10
0.6
20
-0.10500000000000001
10
0.6
20
-0.07500000000000001
10
1.6
20
-0.07500000000000001
10
1.6
20
-0.10500000000000001
0
TEXT
5
12412
330
12234
100
AcDbEntity
100
AcDbText
8
METIN_BILGI
10
0.61
20
-0.095
30
0
40
0.01
1
NO
50
0
7
STANDARD
100
AcDbText
0
TEXT
5
12413
330
12234
100
AcDbEntity
100
AcDbText
8
METIN_BILGI
10
0.6699999999999999
20
-0.095
30
0
40
0.01
1
EKIPMAN TANIMI
50
0
7
STANDARD
100
AcDbText
0
TEXT
5
12414
330
12234
100
AcDbEntity
100
AcDbText
8
METIN_BILGI
10
1.1300000000000001
20
-0.095
30
0
40
0.01
1
EBAT / TEKNIK OZELLIK
50
0
7
STANDARD
100
AcDbText
0
TEXT
5
12415
330
12234
100
AcDbEntity
100
AcDbText
8
METIN_BILGI
10
1.45
20
-0.095
30
0
40
0.01
1
MIKTAR
50
0
7
STANDARD
100
AcDbText
0
LINE
5
12416
330
12234
100
AcDbEntity
100
AcDbLine
8
METIN_BILGI
10
0.6
20
-0.135
30
0
11
1.6
21
-0.135
31
0
0
TEXT
5
12417
330
12234
100
AcDbEntity
100
AcDbText
8
METIN_BILGI
10
0.61
20
-0.125
30
0
40
0.01
1
01
50
0
7
STANDARD
100
AcDbText
0
TEXT
5
12418
330
12234
100
AcDbEntity
100
AcDbText
8
METIN_BILGI
10
0.6699999999999999
20
-0.125
30
0
40
0.01
1
Turkcell LTE/NR RRU Modulleri
50
0
7
STANDARD
100
AcDbText
0
TEXT
5
12419
330
12234
100
AcDbEntity
100
AcDbText
8
METIN_BILGI
10
1.1300000000000001
20
-0.125
30
0
40
0.009000000000000001
1
398 x 533 x 140 mm / 25 kg
50
0
7
STANDARD
100
AcDbText
0
TEXT
5
1241A
330
12234
100
AcDbEntity
100
AcDbText
8
METIN_BILGI
10
1.45
20
-0.125
30
0
40
0.01
1
4 Adet
50
0
7
STANDARD
100
AcDbText
0
LINE
5
1241B
330
12234
100
AcDbEntity
100
AcDbLine
8
METIN_BILGI
10
0.6
20
-0.17500000000000002
30
0
11
1.6
21
-0.17500000000000002
31
0
0
TEXT
5
1241C
330
12234
100
AcDbEntity
100
AcDbText
8
METIN_BILGI
10
0.61
20
-0.165
30
0
40
0.01
1
02
50
0
7
STANDARD
100
AcDbText
0
TEXT
5
1241D
330
12234
100
AcDbEntity
100
AcDbText
8
METIN_BILGI
10
0.6699999999999999
20
-0.165
30
0
40
0.01
1
Turk Telekom NR/LTE RRU Modulleri
50
0
7
STANDARD
100
AcDbText
0
TEXT
5
1241E
330
12234
100
AcDbEntity
100
AcDbText
8
METIN_BILGI
10
1.1300000000000001
20
-0.165
30
0
40
0.009000000000000001
1
356 x 480 x 140 mm / 25 kg
50
0
7
STANDARD
100
AcDbText
0
TEXT
5
1241F
330
12234
100
AcDbEntity
100
AcDbText
8
METIN_BILGI
10
1.45
20
-0.165
30
0
40
0.01
1
4 Adet
50
0
7
STANDARD
100
AcDbText
0
LINE
5
12420
330
12234
100
AcDbEntity
100
AcDbLine
8
METIN_BILGI
10
0.6
20
-0.21500000000000002
30
0
11
1.6
21
-0.21500000000000002
31
0
0
TEXT
5
12421
330
12234
100
AcDbEntity
100
AcDbText
8
METIN_BILGI
10
0.61
20
-0.20500000000000002
30
0
40
0.01
1
03
50
0
7
STANDARD
100
AcDbText
0
TEXT
5
12422
330
12234
100
AcDbEntity
100
AcDbText
8
METIN_BILGI
10
0.6699999999999999
20
-0.20500000000000002
30
0
40
0.01
1
Vodafone 5526t Cift Bant RRU Modulleri
50
0
7
STANDARD
100
AcDbText
0
TEXT
5
12423
330
12234
100
AcDbEntity
100
AcDbText
8
METIN_BILGI
10
1.1300000000000001
20
-0.20500000000000002
30
0
40
0.009000000000000001
1
432 x 480 x 135 mm / 28 kg
50
0
7
STANDARD
100
AcDbText
0
TEXT
5
12424
330
12234
100
AcDbEntity
100
AcDbText
8
METIN_BILGI
10
1.45
20
-0.20500000000000002
30
0
40
0.01
1
6 Adet
50
0
7
STANDARD
100
AcDbText
0
LINE
5
12425
330
12234
100
AcDbEntity
100
AcDbLine
8
METIN_BILGI
10
0.6
20
-0.255
30
0
11
1.6
21
-0.255
31
0
0
TEXT
5
12426
330
12234
100
AcDbEntity
100
AcDbText
8
METIN_BILGI
10
0.61
20
-0.245
30
0
40
0.01
1
04
50
0
7
STANDARD
100
AcDbText
0
TEXT
5
12427
330
12234
100
AcDbEntity
100
AcDbText
8
METIN_BILGI
10
0.6699999999999999
20
-0.245
30
0
40
0.01
1
Canovate 19" Outdoor POI Rack Kabini
50
0
7
STANDARD
100
AcDbText
0
TEXT
5
12428
330
12234
100
AcDbEntity
100
AcDbText
8
METIN_BILGI
10
1.1300000000000001
20
-0.245
30
0
40
0.009000000000000001
1
600 x 800 x 1600 mm (IP65)
50
0
7
STANDARD
100
AcDbText
0
TEXT
5
12429
330
12234
100
AcDbEntity
100
AcDbText
8
METIN_BILGI
10
1.45
20
-0.245
30
0
40
0.01
1
2 Adet
50
0
7
STANDARD
100
AcDbText
0
LINE
5
1242A
330
12234
100
AcDbEntity
100
AcDbLine
8
METIN_BILGI
10
0.6
20
-0.29500000000000004
30
0
11
1.6
21
-0.29500000000000004
31
0
0
TEXT
5
1242B
330
12234
100
AcDbEntity
100
AcDbText
8
METIN_BILGI
10
0.61
20
-0.28500000000000003
30
0
40
0.01
1
05
50
0
7
STANDARD
100
AcDbText
0
TEXT
5
1242C
330
12234
100
AcDbEntity
100
AcDbText
8
METIN_BILGI
10
0.6699999999999999
20
-0.28500000000000003
30
0
40
0.01
1
Dortlu POI Modul Kumesi (Canovate)
50
0
7
STANDARD
100
AcDbText
0
TEXT
5
1242D
330
12234
100
AcDbEntity
100
AcDbText
8
METIN_BILGI
10
1.1300000000000001
20
-0.28500000000000003
30
0
40
0.009000000000000001
1
19" 3U/4U Rack Tipi Modul
50
0
7
STANDARD
100
AcDbText
0
TEXT
5
1242E
330
12234
100
AcDbEntity
100
AcDbText
8
METIN_BILGI
10
1.45
20
-0.28500000000000003
30
0
40
0.01
1
8 Modul
50
0
7
STANDARD
100
AcDbText
0
LINE
5
1242F
330
12234
100
AcDbEntity
100
AcDbLine
8
METIN_BILGI
10
0.6
20
-0.335
30
0
11
1.6
21
-0.335
31
0
0
TEXT
5
12430
330
12234
100
AcDbEntity
100
AcDbText
8
METIN_BILGI
10
0.61
20
-0.325
30
0
40
0.01
1
06
50
0
7
STANDARD
100
AcDbText
0
TEXT
5
12431
330
12234
100
AcDbEntity
100
AcDbText
8
METIN_BILGI
10
0.6699999999999999
20
-0.325
30
0
40
0.01
1
Sicak Daldirma Galvaniz Montaj Tablasi (Alt.2)
50
0
7
STANDARD
100
AcDbText
0
TEXT
5
12432
330
12234
100
AcDbEntity
100
AcDbText
8
METIN_BILGI
10
1.1300000000000001
20
-0.325
30
0
40
0.009000000000000001
1
850 x 550 x 25 mm + Bordur
50
0
7
STANDARD
100
AcDbText
0
TEXT
5
12433
330
12234
100
AcDbEntity
100
AcDbText
8
METIN_BILGI
10
1.45
20
-0.325
30
0
40
0.01
1
2 Adet
50
0
7
STANDARD
100
AcDbText
0
LINE
5
12434
330
12234
100
AcDbEntity
100
AcDbLine
8
METIN_BILGI
10
0.6
20
-0.375
30
0
11
1.6
21
-0.375
31
0
0
TEXT
5
12435
330
12234
100
AcDbEntity
100
AcDbText
8
METIN_BILGI
10
0.61
20
-0.365
30
0
40
0.01
1
07
50
0
7
STANDARD
100
AcDbText
0
TEXT
5
12436
330
12234
100
AcDbEntity
100
AcDbText
8
METIN_BILGI
10
0.6699999999999999
20
-0.365
30
0
40
0.01
1
2" (O60.3mm) Flansli Montaj Borusu (Alt.2)
50
0
7
STANDARD
100
AcDbText
0
TEXT
5
12437
330
12234
100
AcDbEntity
100
AcDbText
8
METIN_BILGI
10
1.1300000000000001
20
-0.365
30
0
40
0.009000000000000001
1
t=3.65mm - L=1950mm Galv.
50
0
7
STANDARD
100
AcDbText
0
TEXT
5
12438
330
12234
100
AcDbEntity
100
AcDbText
8
METIN_BILGI
10
1.45
20
-0.365
30
0
40
0.01
1
8 Adet
50
0
7
STANDARD
100
AcDbText
0
LINE
5
12439
330
12234
100
AcDbEntity
100
AcDbLine
8
METIN_BILGI
10
0.6
20
-0.41500000000000004
30
0
11
1.6
21
-0.41500000000000004
31
0
0
TEXT
5
1243A
330
12234
100
AcDbEntity
100
AcDbText
8
METIN_BILGI
10
0.61
20
-0.405
30
0
40
0.01
1
08
50
0
7
STANDARD
100
AcDbText
0
TEXT
5
1243B
330
12234
100
AcDbEntity
100
AcDbText
8
METIN_BILGI
10
0.6699999999999999
20
-0.405
30
0
40
0.01
1
200x60mm Perfore Kablo Tavasi (Alt.1)
50
0
7
STANDARD
100
AcDbText
0
TEXT
5
1243C
330
12234
100
AcDbEntity
100
AcDbText
8
METIN_BILGI
10
1.1300000000000001
20
-0.405
30
0
40
0.009000000000000001
1
t=1.5mm Sicak Daldirma Galv.
50
0
7
STANDARD
100
AcDbText
0
TEXT
5
1243D
330
12234
100
AcDbEntity
100
AcDbText
8
METIN_BILGI
10
1.45
20
-0.405
30
0
40
0.01
1
12 Metre
50
0
7
STANDARD
100
AcDbText
0
LINE
5
1243E
330
12234
100
AcDbEntity
100
AcDbLine
8
METIN_BILGI
10
0.6
20
-0.455
30
0
11
1.6
21
-0.455
31
0
0
TEXT
5
1243F
330
12234
100
AcDbEntity
100
AcDbText
8
METIN_BILGI
10
0.61
20
-0.445
30
0
40
0.01
1
09
50
0
7
STANDARD
100
AcDbText
0
TEXT
5
12440
330
12234
100
AcDbEntity
100
AcDbText
8
METIN_BILGI
10
0.6699999999999999
20
-0.445
30
0
40
0.01
1
1/2" Super Esnek RF Jumper Kablo Seti
50
0
7
STANDARD
100
AcDbText
0
TEXT
5
12441
330
12234
100
AcDbEntity
100
AcDbText
8
METIN_BILGI
10
1.1300000000000001
20
-0.445
30
0
40
0.009000000000000001
1
4.3-10 DIN / L=1.0 - 2.8m
50
0
7
STANDARD
100
AcDbText
0
TEXT
5
12442
330
12234
100
AcDbEntity
100
AcDbText
8
METIN_BILGI
10
1.45
20
-0.445
30
0
40
0.01
1
40 Adet
50
0
7
STANDARD
100
AcDbText
0
LINE
5
12443
330
12234
100
AcDbEntity
100
AcDbLine
8
METIN_BILGI
10
0.6
20
-0.495
30
0
11
1.6
21
-0.495
31
0
0
TEXT
5
12444
330
12234
100
AcDbEntity
100
AcDbText
8
METIN_BILGI
10
0.61
20
-0.485
30
0
40
0.01
1
10
50
0
7
STANDARD
100
AcDbText
0
TEXT
5
12445
330
12234
100
AcDbEntity
100
AcDbText
8
METIN_BILGI
10
0.6699999999999999
20
-0.485
30
0
40
0.01
1
M16 8.8 Kalite Celik Ankraj Civata Seti
50
0
7
STANDARD
100
AcDbText
0
TEXT
5
12446
330
12234
100
AcDbEntity
100
AcDbText
8
METIN_BILGI
10
1.1300000000000001
20
-0.485
30
0
40
0.009000000000000001
1
Dacromet Kaplama + Kilitli Pul
50
0
7
STANDARD
100
AcDbText
0
TEXT
5
12447
330
12234
100
AcDbEntity
100
AcDbText
8
METIN_BILGI
10
1.45
20
-0.485
30
0
40
0.01
1
16 Takim
50
0
7
STANDARD
100
AcDbText
0
LWPOLYLINE
5
12448
330
12234
100
AcDbEntity
100
AcDbPolyline
8
METIN_BILGI
6
ByLayer
62
256
370
-1
90
4
70
1
10
0.6
20
-1.02
10
0.6
20
-0.5800000000000001
10
1.6
20
-0.5800000000000001
10
1.6
20
-1.02
0
TEXT
5
12449
330
12234
100
AcDbEntity
100
AcDbText
8
METIN_BILGI
10
1.1
20
-0.605
30
0
40
0.014
1
TEKNIK SARTNAME VE MONTAJ STANDARTLARI
50
0
7
STANDARD
72
1
11
1.1
21
-0.605
31
0
100
AcDbText
73
0
0
TEXT
5
1244A
330
12234
100
AcDbEntity
100
AcDbText
8
METIN_BILGI
10
0.62
20
-0.6399999999999999
30
0
40
0.01
1
1. GUVENLIK VE SERBEST GECIS: Kedi yolu platformu uzerinde EN ISO 14122-2 standardina uygun net yuruyus
50
0
7
STANDARD
100
AcDbText
0
TEXT
5
1244B
330
12234
100
AcDbEntity
100
AcDbText
8
METIN_BILGI
10
0.62
20
-0.6759999999999999
30
0
40
0.01
1
   koridoru (Alternatif 1: 600mm, Alternatif 2: 650mm) kesintisiz ve engelsiz olarak korunacaktir.
50
0
7
STANDARD
100
AcDbText
0
TEXT
5
1244C
330
12234
100
AcDbEntity
100
AcDbText
8
METIN_BILGI
10
0.62
20
-0.712
30
0
40
0.01
1
2. GALVANIZ KAPLAMA: Tum celik montaj tablolari, flansli borular ve konsol kollari TS EN ISO 1461
50
0
7
STANDARD
100
AcDbText
0
TEXT
5
1244D
330
12234
100
AcDbEntity
100
AcDbText
8
METIN_BILGI
10
0.62
20
-0.7479999999999999
30
0
40
0.01
1
   standardinda min. 85 mikron sicak daldirma galvaniz ile korozyona karsi korumalidir.
50
0
7
STANDARD
100
AcDbText
0
TEXT
5
1244E
330
12234
100
AcDbEntity
100
AcDbText
8
METIN_BILGI
10
0.62
20
-0.7839999999999999
30
0
40
0.01
1
3. ANKRAJ VE CIVATA STANDARDI: Celik taban tablasi ve kedi yolu baglantilari 8.8 kalite M16 civatalar
50
0
7
STANDARD
100
AcDbText
0
TEXT
5
1244F
330
12234
100
AcDbEntity
100
AcDbText
8
METIN_BILGI
10
0.62
20
-0.8199999999999998
30
0
40
0.01
1
   ve cift kilitli paslanmaz pullarla 120 Nm tork degeri ile rijit sabitlenecektir.
50
0
7
STANDARD
100
AcDbText
0
TEXT
5
12450
330
12234
100
AcDbEntity
100
AcDbText
8
METIN_BILGI
10
0.62
20
-0.8559999999999999
30
0
40
0.01
1
4. RF SIZDIRMAZLIK: Tum 4.3-10 dis ortam RF konnektorleri IP67/IP68 soguk buzusmeli tup (cold-shrink)
50
0
7
STANDARD
100
AcDbText
0
TEXT
5
12451
330
12234
100
AcDbEntity
100
AcDbText
8
METIN_BILGI
10
0.62
20
-0.8919999999999999
30
0
40
0.01
1
   ve vulkanize butil bant ile cift kademeli sizdirmazlik altina alinacaktir.
50
0
7
STANDARD
100
AcDbText
0
TEXT
5
12452
330
12234
100
AcDbEntity
100
AcDbText
8
METIN_BILGI
10
0.62
20
-0.9279999999999999
30
0
40
0.01
1
5. TOPRAKLAMA: Her iki alternatifte tum metal tablalar, borular ve RRU/POI kasalari kedi yolu es-potansiyel
50
0
7
STANDARD
100
AcDbText
0
TEXT
5
12453
330
12234
100
AcDbEntity
100
AcDbText
8
METIN_BILGI
10
0.62
20
-0.964
30
0
40
0.01
1
   bakir barasina 16 mm2 H07V-K ile baglanacaktir (Gecis direnci R < 2 Ohm).
50
0
7
STANDARD
100
AcDbText
0
LWPOLYLINE
5
12454
330
12234
100
AcDbEntity
100
AcDbPolyline
8
METIN_BILGI
6
ByLayer
62
256
370
-1
90
4
70
1
10
1.6300000000000001
20
-1.02
10
1.6300000000000001
20
-0.040000000000000036
10
2.5500000000000003
20
-0.040000000000000036
10
2.5500000000000003
20
-1.02
0
LWPOLYLINE
5
12455
330
12234
100
AcDbEntity
100
AcDbPolyline
8
METIN_BILGI
6
ByLayer
62
256
370
-1
90
4
70
1
10
1.6300000000000001
20
-0.2
10
1.6300000000000001
20
-0.04000000000000001
10
2.5500000000000003
20
-0.04000000000000001
10
2.5500000000000003
20
-0.2
0
TEXT
5
12456
330
12234
100
AcDbEntity
100
AcDbText
8
METIN_BILGI
10
2.0900000000000003
20
-0.08499999999999999
30
0
40
0.022
1
TURK TELEKOMUNIKASYON A.S.
50
0
7
STANDARD
72
1
11
2.0900000000000003
21
-0.08499999999999999
31
0
100
AcDbText
73
0
0
TEXT
5
12457
330
12234
100
AcDbEntity
100
AcDbText
8
METIN_BILGI
10
2.0900000000000003
20
-0.12
30
0
40
0.016
1
TURKCELL - VODAFONE ORTAK ALTYAPI PROJESI
50
0
7
STANDARD
72
1
11
2.0900000000000003
21
-0.12
31
0
100
AcDbText
73
0
0
TEXT
5
12458
330
12234
100
AcDbEntity
100
AcDbText
8
METIN_BILGI
10
2.0900000000000003
20
-0.155
30
0
40
0.014
1
SEYRANTEPE STADYUMU KEDI YOLU TESISLERI
50
0
7
STANDARD
72
1
11
2.0900000000000003
21
-0.155
31
0
100
AcDbText
73
0
0
LWPOLYLINE
5
12459
330
12234
100
AcDbEntity
100
AcDbPolyline
8
METIN_BILGI
6
ByLayer
62
256
370
-1
90
4
70
1
10
1.6300000000000001
20
-0.41
10
1.6300000000000001
20
-0.19999999999999998
10
2.5500000000000003
20
-0.19999999999999998
10
2.5500000000000003
20
-0.41
0
TEXT
5
1245A
330
12234
100
AcDbEntity
100
AcDbText
8
METIN_BILGI
10
1.6500000000000001
20
-0.23
30
0
40
0.012
1
PROJE ADI:
50
0
7
STANDARD
100
AcDbText
0
TEXT
5
1245B
330
12234
100
AcDbEntity
100
AcDbText
8
METIN_BILGI
10
1.6600000000000001
20
-0.265
30
0
40
0.016
1
RAMS PARK / SEYRANTEPE STADYUMU 5G DONUSUMU
50
0
7
STANDARD
100
AcDbText
0
TEXT
5
1245C
330
12234
100
AcDbEntity
100
AcDbText
8
METIN_BILGI
10
1.6500000000000001
20
-0.31
30
0
40
0.012
1
PAFTA ADI:
50
0
7
STANDARD
100
AcDbText
0
TEXT
5
1245D
330
12234
100
AcDbEntity
100
AcDbText
8
METIN_BILGI
10
1.6600000000000001
20
-0.345
30
0
40
0.016
1
ALAN 2: SKORBOARD ARKASI RRU & POI KESITLERI
50
0
7
STANDARD
100
AcDbText
0
TEXT
5
1245E
330
12234
100
AcDbEntity
100
AcDbText
8
METIN_BILGI
10
1.6600000000000001
20
-0.378
30
0
40
0.013000000000000001
1
ALTERNATIF 1 VE ALTERNATIF 2 KARSILASTIRMALI ENKESITLERI
50
0
7
STANDARD
100
AcDbText
0
LINE
5
1245F
330
12234
100
AcDbEntity
100
AcDbLine
8
METIN_BILGI
10
1.6300000000000001
20
-0.485
30
0
11
2.5500000000000003
21
-0.485
31
0
0
LINE
5
12460
330
12234
100
AcDbEntity
100
AcDbLine
8
METIN_BILGI
10
2.0900000000000003
20
-0.485
30
0
11
2.0900000000000003
21
-0.41
31
0
0
TEXT
5
12461
330
12234
100
AcDbEntity
100
AcDbText
8
METIN_BILGI
10
1.645
20
-0.435
30
0
40
0.01
1
PAFTA NO:
50
0
7
STANDARD
100
AcDbText
0
TEXT
5
12462
330
12234
100
AcDbEntity
100
AcDbText
8
METIN_BILGI
10
1.75
20
-0.435
30
0
40
0.012
1
DWG-TEL-10
50
0
7
STANDARD
100
AcDbText
0
TEXT
5
12463
330
12234
100
AcDbEntity
100
AcDbText
8
METIN_BILGI
10
2.1050000000000004
20
-0.435
30
0
40
0.01
1
TARIH:
50
0
7
STANDARD
100
AcDbText
0
TEXT
5
12464
330
12234
100
AcDbEntity
100
AcDbText
8
METIN_BILGI
10
2.2100000000000004
20
-0.435
30
0
40
0.012
1
EKIM 2026
50
0
7
STANDARD
100
AcDbText
0
LINE
5
12465
330
12234
100
AcDbEntity
100
AcDbLine
8
METIN_BILGI
10
1.6300000000000001
20
-0.5599999999999999
30
0
11
2.5500000000000003
21
-0.5599999999999999
31
0
0
LINE
5
12466
330
12234
100
AcDbEntity
100
AcDbLine
8
METIN_BILGI
10
2.0900000000000003
20
-0.5599999999999999
30
0
11
2.0900000000000003
21
-0.48499999999999993
31
0
0
TEXT
5
12467
330
12234
100
AcDbEntity
100
AcDbText
8
METIN_BILGI
10
1.645
20
-0.5099999999999999
30
0
40
0.01
1
OLCEK:
50
0
7
STANDARD
100
AcDbText
0
TEXT
5
12468
330
12234
100
AcDbEntity
100
AcDbText
8
METIN_BILGI
10
1.75
20
-0.5099999999999999
30
0
40
0.012
1
1:1 m (CAD)
50
0
7
STANDARD
100
AcDbText
0
TEXT
5
12469
330
12234
100
AcDbEntity
100
AcDbText
8
METIN_BILGI
10
2.1050000000000004
20
-0.5099999999999999
30
0
40
0.01
1
REV:
50
0
7
STANDARD
100
AcDbText
0
TEXT
5
1246A
330
12234
100
AcDbEntity
100
AcDbText
8
METIN_BILGI
10
2.2100000000000004
20
-0.5099999999999999
30
0
40
0.012
1
REV-01
50
0
7
STANDARD
100
AcDbText
0
LINE
5
1246B
330
12234
100
AcDbEntity
100
AcDbLine
8
METIN_BILGI
10
1.6300000000000001
20
-0.635
30
0
11
2.5500000000000003
21
-0.635
31
0
0
LINE
5
1246C
330
12234
100
AcDbEntity
100
AcDbLine
8
METIN_BILGI
10
2.0900000000000003
20
-0.635
30
0
11
2.0900000000000003
21
-0.56
31
0
0
TEXT
5
1246D
330
12234
100
AcDbEntity
100
AcDbText
8
METIN_BILGI
10
1.645
20
-0.5850000000000001
30
0
40
0.01
1
CIZEN:
50
0
7
STANDARD
100
AcDbText
0
TEXT
5
1246E
330
12234
100
AcDbEntity
100
AcDbText
8
METIN_BILGI
10
1.75
20
-0.5850000000000001
30
0
40
0.012
1
ANTIGRAVITY CAD ENG
50
0
7
STANDARD
100
AcDbText
0
TEXT
5
1246F
330
12234
100
AcDbEntity
100
AcDbText
8
METIN_BILGI
10
2.1050000000000004
20
-0.5850000000000001
30
0
40
0.01
1
KONTROL:
50
0
7
STANDARD
100
AcDbText
0
TEXT
5
12470
330
12234
100
AcDbEntity
100
AcDbText
8
METIN_BILGI
10
2.2100000000000004
20
-0.5850000000000001
30
0
40
0.012
1
BAS MUHENDISLIK
50
0
7
STANDARD
100
AcDbText
0
LINE
5
12471
330
12234
100
AcDbEntity
100
AcDbLine
8
METIN_BILGI
10
1.6300000000000001
20
-0.71
30
0
11
2.5500000000000003
21
-0.71
31
0
0
LINE
5
12472
330
12234
100
AcDbEntity
100
AcDbLine
8
METIN_BILGI
10
2.0900000000000003
20
-0.71
30
0
11
2.0900000000000003
21
-0.635
31
0
0
TEXT
5
12473
330
12234
100
AcDbEntity
100
AcDbText
8
METIN_BILGI
10
1.645
20
-0.66
30
0
40
0.01
1
STATIK ONAY:
50
0
7
STANDARD
100
AcDbText
0
TEXT
5
12474
330
12234
100
AcDbEntity
100
AcDbText
8
METIN_BILGI
10
1.75
20
-0.66
30
0
40
0.012
1
UYGUNDUR (CE)
50
0
7
STANDARD
100
AcDbText
0
TEXT
5
12475
330
12234
100
AcDbEntity
100
AcDbText
8
METIN_BILGI
10
2.1050000000000004
20
-0.66
30
0
40
0.01
1
FORMAT:
50
0
7
STANDARD
100
AcDbText
0
TEXT
5
12476
330
12234
100
AcDbEntity
100
AcDbText
8
METIN_BILGI
10
2.2100000000000004
20
-0.66
30
0
40
0.012
1
AUTOCAD DXF / DWG
50
0
7
STANDARD
100
AcDbText
0
LINE
5
12477
330
12234
100
AcDbEntity
100
AcDbLine
8
METIN_BILGI
10
1.6300000000000001
20
-0.7849999999999999
30
0
11
2.5500000000000003
21
-0.7849999999999999
31
0
0
LINE
5
12478
330
12234
100
AcDbEntity
100
AcDbLine
8
METIN_BILGI
10
2.0900000000000003
20
-0.7849999999999999
30
0
11
2.0900000000000003
21
-0.71
31
0
0
TEXT
5
12479
330
12234
100
AcDbEntity
100
AcDbText
8
METIN_BILGI
10
1.645
20
-0.735
30
0
40
0.01
1
DISIPLIN:
50
0
7
STANDARD
100
AcDbText
0
TEXT
5
1247A
330
12234
100
AcDbEntity
100
AcDbText
8
METIN_BILGI
10
1.75
20
-0.735
30
0
40
0.012
1
TELEKOM & ELEKTROMEKANIK
50
0
7
STANDARD
100
AcDbText
0
TEXT
5
1247B
330
12234
100
AcDbEntity
100
AcDbText
8
METIN_BILGI
10
2.1050000000000004
20
-0.735
30
0
40
0.01
1
DURUM:
50
0
7
STANDARD
100
AcDbText
0
TEXT
5
1247C
330
12234
100
AcDbEntity
100
AcDbText
8
METIN_BILGI
10
2.2100000000000004
20
-0.735
30
0
40
0.012
1
AS-BUILT / IMALAT
50
0
7
STANDARD
100
AcDbText
0
LWPOLYLINE
5
12261
330
12234
100
AcDbEntity
100
AcDbPolyline
8
EKP_TURKCELL_RRU
6
ByLayer
62
256
370
-1
90
4
70
1
10
-2.0500000000000007
20
1.82
10
-2.0500000000000007
20
2.3
10
-1.8900000000000008
20
2.3
10
-1.8900000000000008
20
1.82
0
LINE
5
12262
330
12234
100
AcDbEntity
100
AcDbLine
8
EKP_TURKCELL_RRU
10
-1.8900000000000008
20
1.85
30
0
11
-1.8600000000000008
21
1.85
31
0
0
LINE
5
12263
330
12234
100
AcDbEntity
100
AcDbLine
8
EKP_TURKCELL_RRU
10
-1.8900000000000008
20
1.885
30
0
11
-1.8600000000000008
21
1.885
31
0
0
LINE
5
12264
330
12234
100
AcDbEntity
100
AcDbLine
8
EKP_TURKCELL_RRU
10
-1.8900000000000008
20
1.92
30
0
11
-1.8600000000000008
21
1.92
31
0
0
LINE
5
12265
330
12234
100
AcDbEntity
100
AcDbLine
8
EKP_TURKCELL_RRU
10
-1.8900000000000008
20
1.9549999999999998
30
0
11
-1.8600000000000008
21
1.9549999999999998
31
0
0
LINE
5
12266
330
12234
100
AcDbEntity
100
AcDbLine
8
EKP_TURKCELL_RRU
10
-1.8900000000000008
20
1.9899999999999998
30
0
11
-1.8600000000000008
21
1.9899999999999998
31
0
0
LINE
5
12267
330
12234
100
AcDbEntity
100
AcDbLine
8
EKP_TURKCELL_RRU
10
-1.8900000000000008
20
2.025
30
0
11
-1.8600000000000008
21
2.025
31
0
0
LINE
5
12268
330
12234
100
AcDbEntity
100
AcDbLine
8
EKP_TURKCELL_RRU
10
-1.8900000000000008
20
2.06
30
0
11
-1.8600000000000008
21
2.06
31
0
0
LINE
5
12269
330
12234
100
AcDbEntity
100
AcDbLine
8
EKP_TURKCELL_RRU
10
-1.8900000000000008
20
2.095
30
0
11
-1.8600000000000008
21
2.095
31
0
0
LINE
5
1226A
330
12234
100
AcDbEntity
100
AcDbLine
8
EKP_TURKCELL_RRU
10
-1.8900000000000008
20
2.1300000000000003
30
0
11
-1.8600000000000008
21
2.1300000000000003
31
0
0
LINE
5
1226B
330
12234
100
AcDbEntity
100
AcDbLine
8
EKP_TURKCELL_RRU
10
-1.8900000000000008
20
2.1650000000000005
30
0
11
-1.8600000000000008
21
2.1650000000000005
31
0
0
LINE
5
1226C
330
12234
100
AcDbEntity
100
AcDbLine
8
EKP_TURKCELL_RRU
10
-1.8900000000000008
20
2.2000000000000006
30
0
11
-1.8600000000000008
21
2.2000000000000006
31
0
0
LINE
5
1226D
330
12234
100
AcDbEntity
100
AcDbLine
8
EKP_TURKCELL_RRU
10
-1.8900000000000008
20
2.2350000000000008
30
0
11
-1.8600000000000008
21
2.2350000000000008
31
0
0
LWPOLYLINE
5
122CC
330
12234
100
AcDbEntity
100
AcDbPolyline
8
EKP_TURKCELL_RRU
6
ByLayer
62
256
370
-1
90
4
70
1
10
-1.2000000000000002
20
1.83
10
-1.2000000000000002
20
2.31
10
-1.1
20
2.31
10
-1.1
20
1.83
0
LWPOLYLINE
5
122D4
330
12234
100
AcDbEntity
100
AcDbPolyline
8
EKP_TURKCELL_RRU
6
ByLayer
62
256
370
-1
90
4
70
1
10
-1.0750000000000002
20
1.83
10
-1.0750000000000002
20
2.31
10
-0.9750000000000002
20
2.31
10
-0.9750000000000002
20
1.83
0
LWPOLYLINE
5
1235B
330
12234
100
AcDbEntity
100
AcDbPolyline
8
EKP_TURKCELL_RRU
6
ByLayer
62
256
370
-1
90
4
70
1
10
0.8750000000000001
20
1.555
10
0.8750000000000001
20
2.035
10
1.0150000000000001
20
2.035
10
1.0150000000000001
20
1.555
0
LWPOLYLINE
5
12396
330
12234
100
AcDbEntity
100
AcDbPolyline
8
EKP_TURKCELL_RRU
6
ByLayer
62
256
370
-1
90
4
70
1
10
1.4000000000000001
20
1.4900000000000002
10
1.4000000000000001
20
1.9400000000000002
10
1.56
20
1.9400000000000002
10
1.56
20
1.4900000000000002
0
LWPOLYLINE
5
12398
330
12234
100
AcDbEntity
100
AcDbPolyline
8
EKP_TURKCELL_RRU
6
ByLayer
62
256
370
-1
90
4
70
1
10
1.59
20
1.4900000000000002
10
1.59
20
1.9400000000000002
10
1.75
20
1.9400000000000002
10
1.75
20
1.4900000000000002
0
LWPOLYLINE
5
122F4
330
12234
100
AcDbEntity
100
AcDbPolyline
8
EKP_VODAFONE_RRU
6
ByLayer
62
256
370
-1
90
4
70
1
10
-0.7100000000000002
20
1.83
10
-0.7100000000000002
20
2.3000000000000003
10
-0.6050000000000002
20
2.3000000000000003
10
-0.6050000000000002
20
1.83
0
LWPOLYLINE
5
122FC
330
12234
100
AcDbEntity
100
AcDbPolyline
8
EKP_VODAFONE_RRU
6
ByLayer
62
256
370
-1
90
4
70
1
10
-0.5800000000000002
20
1.83
10
-0.5800000000000002
20
2.3000000000000003
10
-0.4750000000000002
20
2.3000000000000003
10
-0.4750000000000002
20
1.83
0
LWPOLYLINE
5
12304
330
12234
100
AcDbEntity
100
AcDbPolyline
8
EKP_VODAFONE_RRU
6
ByLayer
62
256
370
-1
90
4
70
1
10
-0.4500000000000002
20
1.83
10
-0.4500000000000002
20
2.3000000000000003
10
-0.3450000000000002
20
2.3000000000000003
10
-0.3450000000000002
20
1.83
0
LWPOLYLINE
5
1235D
330
12234
100
AcDbEntity
100
AcDbPolyline
8
EKP_VODAFONE_RRU
6
ByLayer
62
256
370
-1
90
4
70
1
10
0.9950000000000001
20
2.105
10
0.9950000000000001
20
2.585
10
1.1350000000000002
20
2.585
10
1.1350000000000002
20
2.105
0
LWPOLYLINE
5
1239E
330
12234
100
AcDbEntity
100
AcDbPolyline
8
EKP_VODAFONE_RRU
6
ByLayer
62
256
370
-1
90
4
70
1
10
1.4700000000000002
20
2.0500000000000003
10
1.4700000000000002
20
2.5100000000000002
10
1.6500000000000001
20
2.5100000000000002
10
1.6500000000000001
20
2.0500000000000003
0
LWPOLYLINE
5
123A0
330
12234
100
AcDbEntity
100
AcDbPolyline
8
EKP_VODAFONE_RRU
6
ByLayer
62
256
370
-1
90
4
70
1
10
1.6800000000000002
20
2.0500000000000003
10
1.6800000000000002
20
2.5100000000000002
10
1.86
20
2.5100000000000002
10
1.86
20
2.0500000000000003
0
LWPOLYLINE
5
123A2
330
12234
100
AcDbEntity
100
AcDbPolyline
8
EKP_VODAFONE_RRU
6
ByLayer
62
256
370
-1
90
4
70
1
10
1.8900000000000001
20
2.0500000000000003
10
1.8900000000000001
20
2.5100000000000002
10
2.0700000000000003
20
2.5100000000000002
10
2.0700000000000003
20
2.0500000000000003
0
LWPOLYLINE
5
122E0
330
12234
100
AcDbEntity
100
AcDbPolyline
8
EKP_TURK_TELEKOM_RRU
6
ByLayer
62
256
370
-1
90
4
70
1
10
-0.9500000000000002
20
1.83
10
-0.9500000000000002
20
2.29
10
-0.8550000000000002
20
2.29
10
-0.8550000000000002
20
1.83
0
LWPOLYLINE
5
122E8
330
12234
100
AcDbEntity
100
AcDbPolyline
8
EKP_TURK_TELEKOM_RRU
6
ByLayer
62
256
370
-1
90
4
70
1
10
-0.8300000000000002
20
1.83
10
-0.8300000000000002
20
2.29
10
-0.7350000000000002
20
2.29
10
-0.7350000000000002
20
1.83
0
LWPOLYLINE
5
1239A
330
12234
100
AcDbEntity
100
AcDbPolyline
8
EKP_TURK_TELEKOM_RRU
6
ByLayer
62
256
370
-1
90
4
70
1
10
1.79
20
1.4900000000000002
10
1.79
20
1.9400000000000002
10
1.95
20
1.9400000000000002
10
1.95
20
1.4900000000000002
0
LWPOLYLINE
5
1239C
330
12234
100
AcDbEntity
100
AcDbPolyline
8
EKP_TURK_TELEKOM_RRU
6
ByLayer
62
256
370
-1
90
4
70
1
10
1.9900000000000002
20
1.4900000000000002
10
1.9900000000000002
20
1.9400000000000002
10
2.1500000000000004
20
1.9400000000000002
10
2.1500000000000004
20
1.4900000000000002
0
LWPOLYLINE
5
12293
330
12234
100
AcDbEntity
100
AcDbPolyline
8
EKP_POI_TASIYICI_SASE
6
ByLayer
62
256
370
-1
90
4
70
1
10
-1.7200000000000002
20
1.405
10
-1.7200000000000002
20
2.855
10
-1.1700000000000002
20
2.855
10
-1.1700000000000002
20
1.405
0
LWPOLYLINE
5
12294
330
12234
100
AcDbEntity
100
AcDbPolyline
8
EKP_POI_TASIYICI_SASE
6
ByLayer
62
256
370
-1
90
4
70
1
10
-1.6950000000000003
20
1.43
10
-1.6950000000000003
20
2.83
10
-1.1950000000000003
20
2.83
10
-1.1950000000000003
20
1.43
0
LWPOLYLINE
5
12311
330
12234
100
AcDbEntity
100
AcDbPolyline
8
EKP_POI_TASIYICI_SASE
6
ByLayer
62
256
370
-1
90
4
70
1
10
-0.3800000000000002
20
1.37
10
-0.3800000000000002
20
2.8200000000000003
10
-0.16000000000000023
20
2.8200000000000003
10
-0.16000000000000023
20
1.37
0
LWPOLYLINE
5
12312
330
12234
100
AcDbEntity
100
AcDbPolyline
8
EKP_POI_TASIYICI_SASE
6
ByLayer
62
256
370
-1
90
4
70
1
10
-0.3650000000000002
20
1.385
10
-0.3650000000000002
20
2.8049999999999997
10
-0.1750000000000002
20
2.8049999999999997
10
-0.1750000000000002
20
1.385
0
LWPOLYLINE
5
123AA
330
12234
100
AcDbEntity
100
AcDbPolyline
8
EKP_POI_TASIYICI_SASE
6
ByLayer
62
256
370
-1
90
4
70
1
10
2.25
20
1.37
10
2.25
20
2.8200000000000003
10
2.47
20
2.8200000000000003
10
2.47
20
1.37
0
LWPOLYLINE
5
123AB
330
12234
100
AcDbEntity
100
AcDbPolyline
8
EKP_POI_TASIYICI_SASE
6
ByLayer
62
256
370
-1
90
4
70
1
10
2.265
20
1.385
10
2.265
20
2.8049999999999997
10
2.455
20
2.8049999999999997
10
2.455
20
1.385
0
LWPOLYLINE
5
12403
330
12234
100
AcDbEntity
100
AcDbPolyline
8
EKP_POI_TASIYICI_SASE
6
ByLayer
62
256
370
-1
90
4
70
1
10
-0.35
20
-0.9400000000000002
10
-0.35
20
-0.6200000000000001
10
-0.02999999999999997
20
-0.6200000000000001
10
-0.02999999999999997
20
-0.9400000000000002
0
LWPOLYLINE
5
12404
330
12234
100
AcDbEntity
100
AcDbPolyline
8
EKP_POI_TASIYICI_SASE
6
ByLayer
62
256
370
-1
90
4
70
1
10
-0.33
20
-0.9200000000000002
10
-0.33
20
-0.6400000000000001
10
-0.04999999999999999
20
-0.6400000000000001
10
-0.04999999999999999
20
-0.9200000000000002
0
LWPOLYLINE
5
12295
330
12234
100
AcDbEntity
100
AcDbPolyline
8
EKP_POI_MODULLERI
6
ByLayer
62
256
370
-1
90
4
70
1
10
-1.6750000000000003
20
1.605
10
-1.6750000000000003
20
1.805
10
-1.2150000000000003
20
1.805
10
-1.2150000000000003
20
1.605
0
CIRCLE
5
12297
330
12234
100
AcDbEntity
100
AcDbCircle
8
EKP_POI_MODULLERI
10
-1.6400000000000001
20
1.655
30
0
40
0.01
0
CIRCLE
5
12298
330
12234
100
AcDbEntity
100
AcDbCircle
8
EKP_POI_MODULLERI
10
-1.6
20
1.655
30
0
40
0.01
0
LWPOLYLINE
5
12299
330
12234
100
AcDbEntity
100
AcDbPolyline
8
EKP_POI_MODULLERI
6
ByLayer
62
256
370
-1
90
4
70
1
10
-1.6750000000000003
20
1.875
10
-1.6750000000000003
20
2.075
10
-1.2150000000000003
20
2.075
10
-1.2150000000000003
20
1.875
0
CIRCLE
5
1229B
330
12234
100
AcDbEntity
100
AcDbCircle
8
EKP_POI_MODULLERI
10
-1.6400000000000001
20
1.925
30
0
40
0.01
0
CIRCLE
5
1229C
330
12234
100
AcDbEntity
100
AcDbCircle
8
EKP_POI_MODULLERI
10
-1.6
20
1.925
30
0
40
0.01
0
LWPOLYLINE
5
1229D
330
12234
100
AcDbEntity
100
AcDbPolyline
8
EKP_POI_MODULLERI
6
ByLayer
62
256
370
-1
90
4
70
1
10
-1.6750000000000003
20
2.145
10
-1.6750000000000003
20
2.345
10
-1.2150000000000003
20
2.345
10
-1.2150000000000003
20
2.145
0
CIRCLE
5
1229F
330
12234
100
AcDbEntity
100
AcDbCircle
8
EKP_POI_MODULLERI
10
-1.6400000000000001
20
2.195
30
0
40
0.01
0
CIRCLE
5
122A0
330
12234
100
AcDbEntity
100
AcDbCircle
8
EKP_POI_MODULLERI
10
-1.6
20
2.195
30
0
40
0.01
0
LWPOLYLINE
5
122A1
330
12234
100
AcDbEntity
100
AcDbPolyline
8
EKP_POI_MODULLERI
6
ByLayer
62
256
370
-1
90
4
70
1
10
-1.6750000000000003
20
2.415
10
-1.6750000000000003
20
2.615
10
-1.2150000000000003
20
2.615
10
-1.2150000000000003
20
2.415
0
CIRCLE
5
122A3
330
12234
100
AcDbEntity
100
AcDbCircle
8
EKP_POI_MODULLERI
10
-1.6400000000000001
20
2.465
30
0
40
0.01
0
CIRCLE
5
122A4
330
12234
100
AcDbEntity
100
AcDbCircle
8
EKP_POI_MODULLERI
10
-1.6
20
2.465
30
0
40
0.01
0
LWPOLYLINE
5
12313
330
12234
100
AcDbEntity
100
AcDbPolyline
8
EKP_POI_MODULLERI
6
ByLayer
62
256
370
-1
90
4
70
1
10
-0.3550000000000002
20
1.57
10
-0.3550000000000002
20
1.75
10
-0.18500000000000022
20
1.75
10
-0.18500000000000022
20
1.57
0
LWPOLYLINE
5
12315
330
12234
100
AcDbEntity
100
AcDbPolyline
8
EKP_POI_MODULLERI
6
ByLayer
62
256
370
-1
90
4
70
1
10
-0.3550000000000002
20
1.84
10
-0.3550000000000002
20
2.02
10
-0.18500000000000022
20
2.02
10
-0.18500000000000022
20
1.84
0
LWPOLYLINE
5
12317
330
12234
100
AcDbEntity
100
AcDbPolyline
8
EKP_POI_MODULLERI
6
ByLayer
62
256
370
-1
90
4
70
1
10
-0.3550000000000002
20
2.1100000000000003
10
-0.3550000000000002
20
2.2900000000000005
10
-0.18500000000000022
20
2.2900000000000005
10
-0.18500000000000022
20
2.1100000000000003
0
LWPOLYLINE
5
12319
330
12234
100
AcDbEntity
100
AcDbPolyline
8
EKP_POI_MODULLERI
6
ByLayer
62
256
370
-1
90
4
70
1
10
-0.3550000000000002
20
2.38
10
-0.3550000000000002
20
2.56
10
-0.18500000000000022
20
2.56
10
-0.18500000000000022
20
2.38
0
LWPOLYLINE
5
123AC
330
12234
100
AcDbEntity
100
AcDbPolyline
8
EKP_POI_MODULLERI
6
ByLayer
62
256
370
-1
90
4
70
1
10
2.275
20
1.57
10
2.275
20
1.75
10
2.445
20
1.75
10
2.445
20
1.57
0
LWPOLYLINE
5
123AE
330
12234
100
AcDbEntity
100
AcDbPolyline
8
EKP_POI_MODULLERI
6
ByLayer
62
256
370
-1
90
4
70
1
10
2.275
20
1.84
10
2.275
20
2.02
10
2.445
20
2.02
10
2.445
20
1.84
0
LWPOLYLINE
5
123B0
330
12234
100
AcDbEntity
100
AcDbPolyline
8
EKP_POI_MODULLERI
6
ByLayer
62
256
370
-1
90
4
70
1
10
2.275
20
2.1100000000000003
10
2.275
20
2.2900000000000005
10
2.445
20
2.2900000000000005
10
2.445
20
2.1100000000000003
0
LWPOLYLINE
5
123B2
330
12234
100
AcDbEntity
100
AcDbPolyline
8
EKP_POI_MODULLERI
6
ByLayer
62
256
370
-1
90
4
70
1
10
2.275
20
2.38
10
2.275
20
2.56
10
2.445
20
2.56
10
2.445
20
2.38
0
LWPOLYLINE
5
12405
330
12234
100
AcDbEntity
100
AcDbPolyline
8
EKP_POI_MODULLERI
6
ByLayer
62
256
370
-1
90
4
70
1
10
-0.31
20
-0.7100000000000001
10
-0.31
20
-0.665
10
-0.07
20
-0.665
10
-0.07
20
-0.7100000000000001
0
LWPOLYLINE
5
12407
330
12234
100
AcDbEntity
100
AcDbPolyline
8
EKP_POI_MODULLERI
6
ByLayer
62
256
370
-1
90
4
70
1
10
-0.31
20
-0.77
10
-0.31
20
-0.725
10
-0.07
20
-0.725
10
-0.07
20
-0.77
0
LWPOLYLINE
5
12409
330
12234
100
AcDbEntity
100
AcDbPolyline
8
EKP_POI_MODULLERI
6
ByLayer
62
256
370
-1
90
4
70
1
10
-0.31
20
-0.8300000000000001
10
-0.31
20
-0.785
10
-0.07
20
-0.785
10
-0.07
20
-0.8300000000000001
0
LWPOLYLINE
5
1240B
330
12234
100
AcDbEntity
100
AcDbPolyline
8
EKP_POI_MODULLERI
6
ByLayer
62
256
370
-1
90
4
70
1
10
-0.31
20
-0.8900000000000001
10
-0.31
20
-0.8450000000000001
10
-0.07
20
-0.8450000000000001
10
-0.07
20
-0.8900000000000001
0
LWPOLYLINE
5
12350
330
12234
100
AcDbEntity
100
AcDbPolyline
8
BLOK_OZEL_PLATFORM
6
ByLayer
62
256
370
-1
90
4
70
1
10
0.7300000000000001
20
1.405
10
0.7300000000000001
20
1.43
10
1.2800000000000002
20
1.43
10
1.2800000000000002
20
1.405
0
LWPOLYLINE
5
12351
330
12234
100
AcDbEntity
100
AcDbPolyline
8
BLOK_OZEL_PLATFORM
6
ByLayer
62
256
370
-1
90
4
70
1
10
0.7300000000000001
20
1.43
10
0.7300000000000001
20
1.4649999999999999
10
0.7450000000000001
20
1.4649999999999999
10
0.7450000000000001
20
1.43
0
LWPOLYLINE
5
12352
330
12234
100
AcDbEntity
100
AcDbPolyline
8
BLOK_OZEL_PLATFORM
6
ByLayer
62
256
370
-1
90
4
70
1
10
1.2650000000000003
20
1.43
10
1.2650000000000003
20
1.4649999999999999
10
1.2800000000000002
20
1.4649999999999999
10
1.2800000000000002
20
1.43
0
LWPOLYLINE
5
12382
330
12234
100
AcDbEntity
100
AcDbPolyline
8
BLOK_OZEL_PLATFORM
6
ByLayer
62
256
370
-1
90
4
70
1
10
1.35
20
1.37
10
1.35
20
1.395
10
2.2
20
1.395
10
2.2
20
1.37
0
LWPOLYLINE
5
12383
330
12234
100
AcDbEntity
100
AcDbPolyline
8
BLOK_OZEL_PLATFORM
6
ByLayer
62
256
370
-1
90
4
70
1
10
1.35
20
1.395
10
1.35
20
1.43
10
1.365
20
1.43
10
1.365
20
1.395
0
LWPOLYLINE
5
12384
330
12234
100
AcDbEntity
100
AcDbPolyline
8
BLOK_OZEL_PLATFORM
6
ByLayer
62
256
370
-1
90
4
70
1
10
2.185
20
1.395
10
2.185
20
1.43
10
2.2
20
1.43
10
2.2
20
1.395
0
LWPOLYLINE
5
123F8
330
12234
100
AcDbEntity
100
AcDbPolyline
8
BLOK_OZEL_PLATFORM
6
ByLayer
62
256
370
-1
90
4
70
1
10
-0.37
20
-0.28
10
-0.37
20
-0.255
10
-0.019999999999999962
20
-0.255
10
-0.019999999999999962
20
-0.28
0
ENDSEC
0
SECTION
2
OBJECTS
0
DICTIONARY
5
12222
330
0
100
AcDbDictionary
281
1
3
ACAD_GROUP
350
12238
0
DICTIONARY
5
12238
330
12222
100
AcDbDictionary
281
1
0
ENDSEC
0
EOF