0
SECTION
2
HEADER
9
$HANDSEED
5
BDF3
9
$INSUNITS
70
4
9
$ACADVER
1
AC1021
9
$DWGCODEPAGE
3
UTF-8
0
ENDSEC
0
SECTION
2
CLASSES
0
ENDSEC
0
SECTION
2
TABLES
0
TABLE
2
LTYPE
5
BDF1
330
0
100
AcDbSymbolTable
70
5
0
LTYPE
5
BCE4
330
BDF1
100
AcDbSymbolTableRecord
100
AcDbLinetypeTableRecord
2
CONTINUOUS
3
______
70
0
72
65
73
0
40
0
0
LTYPE
5
BCE5
330
BDF1
100
AcDbSymbolTableRecord
100
AcDbLinetypeTableRecord
2
DASHED
3
_ _ _ 
70
0
72
65
73
2
40
10
49
5
74
0
49
-5
74
0
0
LTYPE
5
BCE6
330
BDF1
100
AcDbSymbolTableRecord
100
AcDbLinetypeTableRecord
2
DOTTED
3
. . . 
70
0
72
65
73
2
40
5
49
0
74
0
49
-5
74
0
0
LTYPE
5
BCE8
330
BDF1
100
AcDbSymbolTableRecord
100
AcDbLinetypeTableRecord
2
ByBlock
3

70
0
72
65
73
0
40
0
0
LTYPE
5
BCE9
330
BDF1
100
AcDbSymbolTableRecord
100
AcDbLinetypeTableRecord
2
ByLayer
3

70
0
72
65
73
0
40
0
0
ENDTAB
0
TABLE
2
LAYER
5
BDF2
330
0
100
AcDbSymbolTable
70
21
0
LAYER
5
BCE7
330
BDF2
100
AcDbSymbolTableRecord
100
AcDbLayerTableRecord
2
0
62
7
70
0
6
CONTINUOUS
390
1
0
LAYER
5
BCFA
330
BDF2
100
AcDbSymbolTableRecord
100
AcDbLayerTableRecord
2
ZEMIN_PLATFORM
62
8
70
0
6
CONTINUOUS
390
1
0
LAYER
5
BCFB
330
BDF2
100
AcDbSymbolTableRecord
100
AcDbLayerTableRecord
2
KORKULUK_KAPI
62
4
70
0
6
CONTINUOUS
390
1
0
LAYER
5
BCFC
330
BDF2
100
AcDbSymbolTableRecord
100
AcDbLayerTableRecord
2
CELIK_KIRIS_KOLON
62
9
70
0
6
CONTINUOUS
390
1
0
LAYER
5
BCFD
330
BDF2
100
AcDbSymbolTableRecord
100
AcDbLayerTableRecord
2
MONTAJ_BORULARI
62
2
70
0
6
CONTINUOUS
390
1
0
LAYER
5
BCFE
330
BDF2
100
AcDbSymbolTableRecord
100
AcDbLayerTableRecord
2
KABLO_TAVALARI
62
6
70
0
6
CONTINUOUS
390
1
0
LAYER
5
BCFF
330
BDF2
100
AcDbSymbolTableRecord
100
AcDbLayerTableRecord
2
YURUYUS_KORIDORU
62
3
70
0
6
DASHED
390
1
0
LAYER
5
BD00
330
BDF2
100
AcDbSymbolTableRecord
100
AcDbLayerTableRecord
2
OLCULER
62
1
70
0
6
CONTINUOUS
390
1
0
LAYER
5
BD01
330
BDF2
100
AcDbSymbolTableRecord
100
AcDbLayerTableRecord
2
METIN_BILGI
62
7
70
0
6
CONTINUOUS
390
1
0
LAYER
5
BD02
330
BDF2
100
AcDbSymbolTableRecord
100
AcDbLayerTableRecord
2
EKP_TURKCELL_RRU
62
5
70
0
6
CONTINUOUS
390
1
0
LAYER
5
BD03
330
BDF2
100
AcDbSymbolTableRecord
100
AcDbLayerTableRecord
2
EKP_VODAFONE_RRU
62
1
70
0
6
CONTINUOUS
390
1
0
LAYER
5
BD04
330
BDF2
100
AcDbSymbolTableRecord
100
AcDbLayerTableRecord
2
EKP_TURK_TELEKOM_RRU
62
4
70
0
6
CONTINUOUS
390
1
0
LAYER
5
BD05
330
BDF2
100
AcDbSymbolTableRecord
100
AcDbLayerTableRecord
2
EKP_POI_TASIYICI_SASE
62
30
70
0
6
CONTINUOUS
390
1
0
LAYER
5
BD06
330
BDF2
100
AcDbSymbolTableRecord
100
AcDbLayerTableRecord
2
EKP_POI_MODULLERI
62
40
70
0
6
CONTINUOUS
390
1
0
LAYER
5
BD07
330
BDF2
100
AcDbSymbolTableRecord
100
AcDbLayerTableRecord
2
EKP_RECTIFIER_ELTEK_20U
62
3
70
0
6
CONTINUOUS
390
1
0
LAYER
5
BD08
330
BDF2
100
AcDbSymbolTableRecord
100
AcDbLayerTableRecord
2
EKP_RECTIFIER_MTS9304A
62
94
70
0
6
CONTINUOUS
390
1
0
LAYER
5
BD09
330
BDF2
100
AcDbSymbolTableRecord
100
AcDbLayerTableRecord
2
BLOK_OZEL_PLATFORM
62
140
70
0
6
CONTINUOUS
390
1
0
LAYER
5
BD0A
330
BDF2
100
AcDbSymbolTableRecord
100
AcDbLayerTableRecord
2
EKP_MATSING_ANTEN
62
2
70
0
6
CONTINUOUS
390
1
0
LAYER
5
BD0B
330
BDF2
100
AcDbSymbolTableRecord
100
AcDbLayerTableRecord
2
EKP_PANEL_ANTEN
62
6
70
0
6
CONTINUOUS
390
1
0
LAYER
5
BD0C
330
BDF2
100
AcDbSymbolTableRecord
100
AcDbLayerTableRecord
2
EKP_ANTEN_TASIYICI_KOL
62
141
70
0
6
CONTINUOUS
390
1
0
LAYER
5
BD0D
330
BDF2
100
AcDbSymbolTableRecord
100
AcDbLayerTableRecord
2
EKP_DIGER_EKIPMANLAR
62
7
70
0
6
CONTINUOUS
390
1
0
ENDTAB
0
TABLE
2
VPORT
5
BCEA
330
0
100
AcDbSymbolTable
70
1
0
VPORT
5
BCF0
330
BCEA
100
AcDbSymbolTableRecord
100
AcDbViewportTableRecord
2
*ACTIVE
40
1000
70
0
0
ENDTAB
0
TABLE
2
STYLE
5
BCEB
330
0
100
AcDbSymbolTable
70
3
0
STYLE
5
BCF1
330
BCEB
100
AcDbSymbolTableRecord
100
AcDbTextStyleTableRecord
2
standard
70
0
40
0
41
1
50
0
71
0
42
1
3
calibrib.ttf
4

1001
ACAD
1000
Calibri
1071
33554466
0
STYLE
5
BCF2
330
BCEB
100
AcDbSymbolTableRecord
100
AcDbTextStyleTableRecord
2
STANDARD
70
0
40
0
41
1
50
0
71
0
42
1
3
calibrib.ttf
4

1001
ACAD
1000
Calibri
1071
33554466
0
STYLE
5
BCF3
330
BCEB
100
AcDbSymbolTableRecord
100
AcDbTextStyleTableRecord
2
CALIBRI_BOLD
70
0
40
0
41
1
50
0
71
0
42
1
3
calibrib.ttf
4

1001
ACAD
1000
Calibri
1071
33554466
0
ENDTAB
0
TABLE
2
VIEW
5
BCEC
330
0
100
AcDbSymbolTable
70
0
0
ENDTAB
0
TABLE
2
UCS
5
BCED
330
0
100
AcDbSymbolTable
70
0
0
ENDTAB
0
TABLE
2
APPID
5
BCEE
330
0
100
AcDbSymbolTable
70
1
0
APPID
5
BCF4
330
BCEE
100
AcDbSymbolTableRecord
100
AcDbRegAppTableRecord
2
ACAD
70
0
0
ENDTAB
0
TABLE
2
DIMSTYLE
5
BCEF
330
0
100
AcDbSymbolTable
100
AcDbDimStyleTable
70
0
71
1
0
ENDTAB
0
TABLE
2
BLOCK_RECORD
5
BDEE
330
0
100
AcDbSymbolTable
70
2
0
BLOCK_RECORD
5
BDEF
330
BDEE
100
AcDbSymbolTableRecord
100
AcDbBlockTableRecord
2
*Model_Space
70
0
280
0
281
1
0
BLOCK_RECORD
5
BDF0
330
BDEE
100
AcDbSymbolTableRecord
100
AcDbBlockTableRecord
2
*Paper_Space
70
0
280
0
281
1
0
ENDTAB
0
ENDSEC
0
SECTION
2
BLOCKS
0
BLOCK
5
BCF5
330
0
100
AcDbEntity
100
AcDbBlockBegin
2
*Model_Space
70
0
10
0
20
0
30
0
3
*Model_Space
1

0
ENDBLK
5
BCF6
330
0
100
AcDbEntity
100
AcDbBlockEnd
0
BLOCK
5
BCF7
330
0
100
AcDbEntity
100
AcDbBlockBegin
2
*Paper_Space
70
0
10
0
20
0
30
0
3
*Paper_Space
1

0
ENDBLK
5
BCF8
330
0
100
AcDbEntity
100
AcDbBlockEnd
0
ENDSEC
0
SECTION
2
ENTITIES
0
LWPOLYLINE
5
BD0E
330
BCF5
100
AcDbEntity
100
AcDbPolyline
8
ZEMIN_PLATFORM
6
ByLayer
62
256
370
-1
90
4
70
1
10
-12500
20
0
10
-12500
20
2000
10
12500
20
2000
10
12500
20
0
0
LINE
5
BD0F
330
BCF5
100
AcDbEntity
100
AcDbLine
8
ZEMIN_PLATFORM
10
-12000
20
0
30
0
11
-12000
21
2000
31
0
0
LINE
5
BD10
330
BCF5
100
AcDbEntity
100
AcDbLine
8
ZEMIN_PLATFORM
10
-11000
20
0
30
0
11
-11000
21
2000
31
0
0
LINE
5
BD11
330
BCF5
100
AcDbEntity
100
AcDbLine
8
ZEMIN_PLATFORM
10
-10000
20
0
30
0
11
-10000
21
2000
31
0
0
LINE
5
BD12
330
BCF5
100
AcDbEntity
100
AcDbLine
8
ZEMIN_PLATFORM
10
-9000
20
0
30
0
11
-9000
21
2000
31
0
0
LINE
5
BD13
330
BCF5
100
AcDbEntity
100
AcDbLine
8
ZEMIN_PLATFORM
10
-8000
20
0
30
0
11
-8000
21
2000
31
0
0
LINE
5
BD14
330
BCF5
100
AcDbEntity
100
AcDbLine
8
ZEMIN_PLATFORM
10
-7000
20
0
30
0
11
-7000
21
2000
31
0
0
LINE
5
BD15
330
BCF5
100
AcDbEntity
100
AcDbLine
8
ZEMIN_PLATFORM
10
-6000
20
0
30
0
11
-6000
21
2000
31
0
0
LINE
5
BD16
330
BCF5
100
AcDbEntity
100
AcDbLine
8
ZEMIN_PLATFORM
10
-5000
20
0
30
0
11
-5000
21
2000
31
0
0
LINE
5
BD17
330
BCF5
100
AcDbEntity
100
AcDbLine
8
ZEMIN_PLATFORM
10
-4000
20
0
30
0
11
-4000
21
2000
31
0
0
LINE
5
BD18
330
BCF5
100
AcDbEntity
100
AcDbLine
8
ZEMIN_PLATFORM
10
-3000
20
0
30
0
11
-3000
21
2000
31
0
0
LINE
5
BD19
330
BCF5
100
AcDbEntity
100
AcDbLine
8
ZEMIN_PLATFORM
10
-2000
20
0
30
0
11
-2000
21
2000
31
0
0
LINE
5
BD1A
330
BCF5
100
AcDbEntity
100
AcDbLine
8
ZEMIN_PLATFORM
10
-1000
20
0
30
0
11
-1000
21
2000
31
0
0
LINE
5
BD1B
330
BCF5
100
AcDbEntity
100
AcDbLine
8
ZEMIN_PLATFORM
10
0
20
0
30
0
11
0
21
2000
31
0
0
LINE
5
BD1C
330
BCF5
100
AcDbEntity
100
AcDbLine
8
ZEMIN_PLATFORM
10
1000
20
0
30
0
11
1000
21
2000
31
0
0
LINE
5
BD1D
330
BCF5
100
AcDbEntity
100
AcDbLine
8
ZEMIN_PLATFORM
10
2000
20
0
30
0
11
2000
21
2000
31
0
0
LINE
5
BD1E
330
BCF5
100
AcDbEntity
100
AcDbLine
8
ZEMIN_PLATFORM
10
3000
20
0
30
0
11
3000
21
2000
31
0
0
LINE
5
BD1F
330
BCF5
100
AcDbEntity
100
AcDbLine
8
ZEMIN_PLATFORM
10
4000
20
0
30
0
11
4000
21
2000
31
0
0
LINE
5
BD20
330
BCF5
100
AcDbEntity
100
AcDbLine
8
ZEMIN_PLATFORM
10
5000
20
0
30
0
11
5000
21
2000
31
0
0
LINE
5
BD21
330
BCF5
100
AcDbEntity
100
AcDbLine
8
ZEMIN_PLATFORM
10
6000
20
0
30
0
11
6000
21
2000
31
0
0
LINE
5
BD22
330
BCF5
100
AcDbEntity
100
AcDbLine
8
ZEMIN_PLATFORM
10
7000
20
0
30
0
11
7000
21
2000
31
0
0
LINE
5
BD23
330
BCF5
100
AcDbEntity
100
AcDbLine
8
ZEMIN_PLATFORM
10
8000
20
0
30
0
11
8000
21
2000
31
0
0
LINE
5
BD24
330
BCF5
100
AcDbEntity
100
AcDbLine
8
ZEMIN_PLATFORM
10
9000
20
0
30
0
11
9000
21
2000
31
0
0
LINE
5
BD25
330
BCF5
100
AcDbEntity
100
AcDbLine
8
ZEMIN_PLATFORM
10
10000
20
0
30
0
11
10000
21
2000
31
0
0
LINE
5
BD26
330
BCF5
100
AcDbEntity
100
AcDbLine
8
ZEMIN_PLATFORM
10
11000
20
0
30
0
11
11000
21
2000
31
0
0
LINE
5
BD27
330
BCF5
100
AcDbEntity
100
AcDbLine
8
ZEMIN_PLATFORM
10
12000
20
0
30
0
11
12000
21
2000
31
0
0
LWPOLYLINE
5
BDA1
330
BCF5
100
AcDbEntity
100
AcDbPolyline
8
ZEMIN_PLATFORM
6
ByLayer
62
256
370
-1
90
4
70
1
10
-12500
20
-6400
10
-12500
20
-6000
10
12500
20
-6000
10
12500
20
-6400
0
LINE
5
BDA2
330
BCF5
100
AcDbEntity
100
AcDbLine
8
ZEMIN_PLATFORM
10
-12500
20
-6000
30
0
11
12500
21
-6000
31
0
0
LWPOLYLINE
5
BD28
330
BCF5
100
AcDbEntity
100
AcDbPolyline
8
KORKULUK_KAPI
6
ByLayer
62
256
370
-1
90
4
70
1
10
-4300
20
50
10
-4300
20
1950
10
-1800
20
1950
10
-1800
20
50
0
LWPOLYLINE
5
BD29
330
BCF5
100
AcDbEntity
100
AcDbPolyline
8
KORKULUK_KAPI
6
ByLayer
62
256
370
-1
90
4
70
1
10
-4150
20
40
10
-4150
20
65
10
-3050
20
65
10
-3050
20
40
0
LWPOLYLINE
5
BD2A
330
BCF5
100
AcDbEntity
100
AcDbPolyline
8
KORKULUK_KAPI
6
ByLayer
62
256
370
-1
90
4
70
1
10
-3050
20
70
10
-3050
20
95
10
-1950
20
95
10
-1950
20
70
0
TEXT
5
BD2B
330
BCF5
100
AcDbEntity
100
AcDbText
8
KORKULUK_KAPI
10
-3050
20
1000
30
0
40
160
1
2.50m OZEL KORUMALI ALAN (110cm KAYAR KAPILAR)
50
0
7
STANDARD
72
1
11
-3050
21
1000
31
0
100
AcDbText
73
0
0
LINE
5
BD2C
330
BCF5
100
AcDbEntity
100
AcDbLine
8
KORKULUK_KAPI
10
-12500
20
50
30
0
11
-4300
21
50
31
0
0
LINE
5
BD2D
330
BCF5
100
AcDbEntity
100
AcDbLine
8
KORKULUK_KAPI
10
-1800
20
50
30
0
11
12500
21
50
31
0
0
LINE
5
BD2E
330
BCF5
100
AcDbEntity
100
AcDbLine
8
KORKULUK_KAPI
10
-12500
20
1950
30
0
11
-4300
21
1950
31
0
0
LINE
5
BD2F
330
BCF5
100
AcDbEntity
100
AcDbLine
8
KORKULUK_KAPI
10
-1800
20
1950
30
0
11
12500
21
1950
31
0
0
LINE
5
BDA3
330
BCF5
100
AcDbEntity
100
AcDbLine
8
KORKULUK_KAPI
10
-12500
20
-4900
30
0
11
12500
21
-4900
31
0
0
LWPOLYLINE
5
BDA4
330
BCF5
100
AcDbEntity
100
AcDbPolyline
8
KORKULUK_KAPI
6
ByLayer
62
256
370
-1
90
4
70
1
10
-4300
20
-6000
10
-4300
20
-4300
10
-1800
20
-4300
10
-1800
20
-6000
0
CIRCLE
5
BD30
330
BCF5
100
AcDbEntity
100
AcDbCircle
8
MONTAJ_BORULARI
10
-10000
20
1350
30
0
40
200
0
CIRCLE
5
BD31
330
BCF5
100
AcDbEntity
100
AcDbCircle
8
MONTAJ_BORULARI
10
-10000
20
1350
30
0
40
270
0
CIRCLE
5
BD32
330
BCF5
100
AcDbEntity
100
AcDbCircle
8
MONTAJ_BORULARI
10
-5000
20
1350
30
0
40
200
0
CIRCLE
5
BD33
330
BCF5
100
AcDbEntity
100
AcDbCircle
8
MONTAJ_BORULARI
10
-5000
20
1350
30
0
40
270
0
CIRCLE
5
BD34
330
BCF5
100
AcDbEntity
100
AcDbCircle
8
MONTAJ_BORULARI
10
0
20
1350
30
0
40
200
0
CIRCLE
5
BD35
330
BCF5
100
AcDbEntity
100
AcDbCircle
8
MONTAJ_BORULARI
10
0
20
1350
30
0
40
270
0
CIRCLE
5
BD36
330
BCF5
100
AcDbEntity
100
AcDbCircle
8
MONTAJ_BORULARI
10
5000
20
1350
30
0
40
200
0
CIRCLE
5
BD37
330
BCF5
100
AcDbEntity
100
AcDbCircle
8
MONTAJ_BORULARI
10
5000
20
1350
30
0
40
270
0
CIRCLE
5
BD38
330
BCF5
100
AcDbEntity
100
AcDbCircle
8
MONTAJ_BORULARI
10
10000
20
1350
30
0
40
200
0
CIRCLE
5
BD39
330
BCF5
100
AcDbEntity
100
AcDbCircle
8
MONTAJ_BORULARI
10
10000
20
1350
30
0
40
270
0
LWPOLYLINE
5
BDAD
330
BCF5
100
AcDbEntity
100
AcDbPolyline
8
MONTAJ_BORULARI
6
ByLayer
62
256
370
-1
90
4
70
1
10
-2490
20
-6000
10
-2490
20
-5985
10
-2310
20
-5985
10
-2310
20
-6000
0
LWPOLYLINE
5
BDAE
330
BCF5
100
AcDbEntity
100
AcDbPolyline
8
MONTAJ_BORULARI
6
ByLayer
62
256
370
-1
90
4
70
1
10
-2430
20
-5985
10
-2430
20
-4300
10
-2370
20
-4300
10
-2370
20
-5985
0
LWPOLYLINE
5
BDAF
330
BCF5
100
AcDbEntity
100
AcDbPolyline
8
MONTAJ_BORULARI
6
ByLayer
62
256
370
-1
90
4
70
1
10
-2450
20
-5208
10
-2450
20
-5112
10
-2430
20
-5112
10
-2430
20
-5208
0
LWPOLYLINE
5
BDB3
330
BCF5
100
AcDbEntity
100
AcDbPolyline
8
MONTAJ_BORULARI
6
ByLayer
62
256
370
-1
90
4
70
1
10
-2450
20
-4428
10
-2450
20
-4332
10
-2430
20
-4332
10
-2430
20
-4428
0
LINE
5
BD83
330
BCF5
100
AcDbEntity
100
AcDbLine
8
OLCULER
10
-12500
20
0
30
0
11
-12500
21
-1040
31
0
0
LINE
5
BD84
330
BCF5
100
AcDbEntity
100
AcDbLine
8
OLCULER
10
12500
20
0
30
0
11
12500
21
-1040
31
0
0
LINE
5
BD85
330
BCF5
100
AcDbEntity
100
AcDbLine
8
OLCULER
10
-12500
20
-1000
30
0
11
12500
21
-1000
31
0
0
LINE
5
BD86
330
BCF5
100
AcDbEntity
100
AcDbLine
8
OLCULER
10
-12528
20
-1028
30
0
11
-12472
21
-972
31
0
0
LINE
5
BD87
330
BCF5
100
AcDbEntity
100
AcDbLine
8
OLCULER
10
12472
20
-1028
30
0
11
12528
21
-972
31
0
0
TEXT
5
BD88
330
BCF5
100
AcDbEntity
100
AcDbText
8
OLCULER
10
0
20
-1084
30
0
40
60
1
25000 mm (TOPLAM BETON KAIDE BOYU)
50
0
7
STANDARD
72
1
11
0
21
-1084
31
0
100
AcDbText
73
2
0
LINE
5
BD89
330
BCF5
100
AcDbEntity
100
AcDbLine
8
OLCULER
10
-4300
20
0
30
0
11
-4300
21
-540
31
0
0
LINE
5
BD8A
330
BCF5
100
AcDbEntity
100
AcDbLine
8
OLCULER
10
-1800
20
0
30
0
11
-1800
21
-540
31
0
0
LINE
5
BD8B
330
BCF5
100
AcDbEntity
100
AcDbLine
8
OLCULER
10
-4300
20
-500
30
0
11
-1800
21
-500
31
0
0
LINE
5
BD8C
330
BCF5
100
AcDbEntity
100
AcDbLine
8
OLCULER
10
-4328
20
-528
30
0
11
-4272
21
-472
31
0
0
LINE
5
BD8D
330
BCF5
100
AcDbEntity
100
AcDbLine
8
OLCULER
10
-1828
20
-528
30
0
11
-1772
21
-472
31
0
0
TEXT
5
BD8E
330
BCF5
100
AcDbEntity
100
AcDbText
8
OLCULER
10
-3050
20
-584
30
0
40
60
1
2500 mm (KORUMALI ALAN)
50
0
7
STANDARD
72
1
11
-3050
21
-584
31
0
100
AcDbText
73
2
0
LINE
5
BD8F
330
BCF5
100
AcDbEntity
100
AcDbLine
8
OLCULER
10
-4150
20
0
30
0
11
-4150
21
-290
31
0
0
LINE
5
BD90
330
BCF5
100
AcDbEntity
100
AcDbLine
8
OLCULER
10
-3050
20
0
30
0
11
-3050
21
-290
31
0
0
LINE
5
BD91
330
BCF5
100
AcDbEntity
100
AcDbLine
8
OLCULER
10
-4150
20
-250
30
0
11
-3050
21
-250
31
0
0
LINE
5
BD92
330
BCF5
100
AcDbEntity
100
AcDbLine
8
OLCULER
10
-4178
20
-278
30
0
11
-4122
21
-222
31
0
0
LINE
5
BD93
330
BCF5
100
AcDbEntity
100
AcDbLine
8
OLCULER
10
-3078
20
-278
30
0
11
-3022
21
-222
31
0
0
TEXT
5
BD94
330
BCF5
100
AcDbEntity
100
AcDbText
8
OLCULER
10
-3600
20
-334
30
0
40
60
1
1100 mm (KAPI 1)
50
0
7
STANDARD
72
1
11
-3600
21
-334
31
0
100
AcDbText
73
2
0
LINE
5
BD95
330
BCF5
100
AcDbEntity
100
AcDbLine
8
OLCULER
10
-3050
20
0
30
0
11
-3050
21
-290
31
0
0
LINE
5
BD96
330
BCF5
100
AcDbEntity
100
AcDbLine
8
OLCULER
10
-1950
20
0
30
0
11
-1950
21
-290
31
0
0
LINE
5
BD97
330
BCF5
100
AcDbEntity
100
AcDbLine
8
OLCULER
10
-3050
20
-250
30
0
11
-1950
21
-250
31
0
0
LINE
5
BD98
330
BCF5
100
AcDbEntity
100
AcDbLine
8
OLCULER
10
-3078
20
-278
30
0
11
-3022
21
-222
31
0
0
LINE
5
BD99
330
BCF5
100
AcDbEntity
100
AcDbLine
8
OLCULER
10
-1978
20
-278
30
0
11
-1922
21
-222
31
0
0
TEXT
5
BD9A
330
BCF5
100
AcDbEntity
100
AcDbText
8
OLCULER
10
-2500
20
-334
30
0
40
60
1
1100 mm (KAPI 2)
50
0
7
STANDARD
72
1
11
-2500
21
-334
31
0
100
AcDbText
73
2
0
LINE
5
BD9B
330
BCF5
100
AcDbEntity
100
AcDbLine
8
OLCULER
10
-12500
20
0
30
0
11
-13140
21
0
31
0
0
LINE
5
BD9C
330
BCF5
100
AcDbEntity
100
AcDbLine
8
OLCULER
10
-12500
20
2000
30
0
11
-13140
21
2000
31
0
0
LINE
5
BD9D
330
BCF5
100
AcDbEntity
100
AcDbLine
8
OLCULER
10
-13100
20
0
30
0
11
-13100
21
2000
31
0
0
LINE
5
BD9E
330
BCF5
100
AcDbEntity
100
AcDbLine
8
OLCULER
10
-13128
20
-28
30
0
11
-13072
21
28
31
0
0
LINE
5
BD9F
330
BCF5
100
AcDbEntity
100
AcDbLine
8
OLCULER
10
-13128
20
1972
30
0
11
-13072
21
2028
31
0
0
TEXT
5
BDA0
330
BCF5
100
AcDbEntity
100
AcDbText
8
OLCULER
10
-13142
20
1000
30
0
40
60
1
2000 mm
50
90
7
STANDARD
72
1
11
-13142
21
1000
31
0
100
AcDbText
73
2
0
LWPOLYLINE
5
BDB7
330
BCF5
100
AcDbEntity
100
AcDbPolyline
8
METIN_BILGI
6
ByLayer
62
256
370
-1
90
4
70
1
10
-12500
20
3500
10
-12500
20
5700
10
-4500
20
5700
10
-4500
20
3500
0
LINE
5
BDB8
330
BCF5
100
AcDbEntity
100
AcDbLine
8
METIN_BILGI
10
-12500
20
4900
30
0
11
-4500
21
4900
31
0
0
LINE
5
BDB9
330
BCF5
100
AcDbEntity
100
AcDbLine
8
METIN_BILGI
10
-12500
20
4200
30
0
11
-4500
21
4200
31
0
0
LINE
5
BDBA
330
BCF5
100
AcDbEntity
100
AcDbLine
8
METIN_BILGI
10
-8000
20
3500
30
0
11
-8000
21
4900
31
0
0
TEXT
5
BDBB
330
BCF5
100
AcDbEntity
100
AcDbText
8
METIN_BILGI
10
-12300
20
5150
30
0
40
320
1
GALATASARAY STADYUMU GSM ALTYAPI PROJESI
50
0
7
STANDARD
100
AcDbText
0
TEXT
5
BDBC
330
BCF5
100
AcDbEntity
100
AcDbText
8
METIN_BILGI
10
-12300
20
4450
30
0
40
260
1
ALAN: CAPRAZ KOSE TRIBUN (DETAYLI YERLESIM) (ALAN 4)
50
0
7
STANDARD
100
AcDbText
0
TEXT
5
BDBD
330
BCF5
100
AcDbEntity
100
AcDbText
8
METIN_BILGI
10
-12300
20
3780
30
0
40
200
1
OLCEK: 1:1 mm (1:1 mm)
50
0
7
STANDARD
100
AcDbText
0
TEXT
5
BDBE
330
BCF5
100
AcDbEntity
100
AcDbText
8
METIN_BILGI
10
-7800
20
4450
30
0
40
180
1
CIZIM: ANTIGRAVITY CAD / BIM
50
0
7
STANDARD
100
AcDbText
0
TEXT
5
BDBF
330
BCF5
100
AcDbEntity
100
AcDbText
8
METIN_BILGI
10
-7800
20
3780
30
0
40
180
1
TARIH: 2026-10-04
50
0
7
STANDARD
100
AcDbText
0
CIRCLE
5
BDC0
330
BCF5
100
AcDbEntity
100
AcDbCircle
8
METIN_BILGI
10
-14000
20
4600
30
0
40
800
0
LINE
5
BDC1
330
BCF5
100
AcDbEntity
100
AcDbLine
8
METIN_BILGI
10
-14000
20
3880
30
0
11
-14000
21
5320
31
0
0
LINE
5
BDC2
330
BCF5
100
AcDbEntity
100
AcDbLine
8
METIN_BILGI
10
-14000
20
5320
30
0
11
-14250
21
4900
31
0
0
LINE
5
BDC3
330
BCF5
100
AcDbEntity
100
AcDbLine
8
METIN_BILGI
10
-14000
20
5320
30
0
11
-13750
21
4900
31
0
0
TEXT
5
BDC4
330
BCF5
100
AcDbEntity
100
AcDbText
8
METIN_BILGI
10
-14000
20
5600
30
0
40
300
1
K
50
0
7
STANDARD
72
1
11
-14000
21
5600
31
0
100
AcDbText
73
2
0
LWPOLYLINE
5
BDC5
330
BCF5
100
AcDbEntity
100
AcDbPolyline
8
METIN_BILGI
6
ByLayer
62
256
370
-1
90
4
70
1
10
-3000
20
3200
10
-3000
20
6400
10
8200
20
6400
10
8200
20
3200
0
TEXT
5
BDC6
330
BCF5
100
AcDbEntity
100
AcDbText
8
METIN_BILGI
10
-2800
20
6100
30
0
40
240
1
EKIPMAN VE ALTYAPI YERLESIM CETVELI (BOM)
50
0
7
STANDARD
100
AcDbText
0
LINE
5
BDC7
330
BCF5
100
AcDbEntity
100
AcDbLine
8
METIN_BILGI
10
-3000
20
6000
30
0
11
8200
21
6000
31
0
0
LINE
5
BDC8
330
BCF5
100
AcDbEntity
100
AcDbLine
8
METIN_BILGI
10
-3000
20
5600
30
0
11
8200
21
5600
31
0
0
LINE
5
BDC9
330
BCF5
100
AcDbEntity
100
AcDbLine
8
METIN_BILGI
10
-1800
20
3200
30
0
11
-1800
21
6000
31
0
0
LINE
5
BDCA
330
BCF5
100
AcDbEntity
100
AcDbLine
8
METIN_BILGI
10
4200
20
3200
30
0
11
4200
21
6000
31
0
0
LINE
5
BDCB
330
BCF5
100
AcDbEntity
100
AcDbLine
8
METIN_BILGI
10
6700
20
3200
30
0
11
6700
21
6000
31
0
0
TEXT
5
BDCC
330
BCF5
100
AcDbEntity
100
AcDbText
8
METIN_BILGI
10
-2900
20
5720
30
0
40
180
1
NO
50
0
7
STANDARD
100
AcDbText
0
TEXT
5
BDCD
330
BCF5
100
AcDbEntity
100
AcDbText
8
METIN_BILGI
10
-1700
20
5720
30
0
40
180
1
EKIPMAN TANIMI
50
0
7
STANDARD
100
AcDbText
0
TEXT
5
BDCE
330
BCF5
100
AcDbEntity
100
AcDbText
8
METIN_BILGI
10
4300
20
5720
30
0
40
180
1
BOYUTLAR (GxDxY)
50
0
7
STANDARD
100
AcDbText
0
TEXT
5
BDCF
330
BCF5
100
AcDbEntity
100
AcDbText
8
METIN_BILGI
10
6800
20
5720
30
0
40
180
1
ADET
50
0
7
STANDARD
100
AcDbText
0
LINE
5
BDD0
330
BCF5
100
AcDbEntity
100
AcDbLine
8
METIN_BILGI
10
-3000
20
5200
30
0
11
8200
21
5200
31
0
0
TEXT
5
BDD1
330
BCF5
100
AcDbEntity
100
AcDbText
8
METIN_BILGI
10
-2900
20
5320
30
0
40
160
1
1
50
0
7
STANDARD
100
AcDbText
0
TEXT
5
BDD2
330
BCF5
100
AcDbEntity
100
AcDbText
8
METIN_BILGI
10
-1700
20
5320
30
0
40
160
1
Beton Kaide Tablasi (Alan 4)
50
0
7
STANDARD
100
AcDbText
0
TEXT
5
BDD3
330
BCF5
100
AcDbEntity
100
AcDbText
8
METIN_BILGI
10
4300
20
5320
30
0
40
160
1
25000x2000x400 mm
50
0
7
STANDARD
100
AcDbText
0
TEXT
5
BDD4
330
BCF5
100
AcDbEntity
100
AcDbText
8
METIN_BILGI
10
6800
20
5320
30
0
40
160
1
1
50
0
7
STANDARD
100
AcDbText
0
LINE
5
BDD5
330
BCF5
100
AcDbEntity
100
AcDbLine
8
METIN_BILGI
10
-3000
20
4800
30
0
11
8200
21
4800
31
0
0
TEXT
5
BDD6
330
BCF5
100
AcDbEntity
100
AcDbText
8
METIN_BILGI
10
-2900
20
4920
30
0
40
160
1
2
50
0
7
STANDARD
100
AcDbText
0
TEXT
5
BDD7
330
BCF5
100
AcDbEntity
100
AcDbText
8
METIN_BILGI
10
-1700
20
4920
30
0
40
160
1
2.50m Korumali Panel ve Kayar Kapi
50
0
7
STANDARD
100
AcDbText
0
TEXT
5
BDD8
330
BCF5
100
AcDbEntity
100
AcDbText
8
METIN_BILGI
10
4300
20
4920
30
0
40
160
1
2500x1700 mm
50
0
7
STANDARD
100
AcDbText
0
TEXT
5
BDD9
330
BCF5
100
AcDbEntity
100
AcDbText
8
METIN_BILGI
10
6800
20
4920
30
0
40
160
1
1
50
0
7
STANDARD
100
AcDbText
0
LINE
5
BDDA
330
BCF5
100
AcDbEntity
100
AcDbLine
8
METIN_BILGI
10
-3000
20
4400
30
0
11
8200
21
4400
31
0
0
TEXT
5
BDDB
330
BCF5
100
AcDbEntity
100
AcDbText
8
METIN_BILGI
10
-2900
20
4520
30
0
40
160
1
3
50
0
7
STANDARD
100
AcDbText
0
TEXT
5
BDDC
330
BCF5
100
AcDbEntity
100
AcDbText
8
METIN_BILGI
10
-1700
20
4520
30
0
40
160
1
Canovate 19" 2'li POI Kucuk Rack Sasesi
50
0
7
STANDARD
100
AcDbText
0
TEXT
5
BDDD
330
BCF5
100
AcDbEntity
100
AcDbText
8
METIN_BILGI
10
4300
20
4520
30
0
40
160
1
600x700x1000 mm
50
0
7
STANDARD
100
AcDbText
0
TEXT
5
BDDE
330
BCF5
100
AcDbEntity
100
AcDbText
8
METIN_BILGI
10
6800
20
4520
30
0
40
160
1
1
50
0
7
STANDARD
100
AcDbText
0
LINE
5
BDDF
330
BCF5
100
AcDbEntity
100
AcDbLine
8
METIN_BILGI
10
-3000
20
4000
30
0
11
8200
21
4000
31
0
0
TEXT
5
BDE0
330
BCF5
100
AcDbEntity
100
AcDbText
8
METIN_BILGI
10
-2900
20
4120
30
0
40
160
1
4
50
0
7
STANDARD
100
AcDbText
0
TEXT
5
BDE1
330
BCF5
100
AcDbEntity
100
AcDbText
8
METIN_BILGI
10
-1700
20
4120
30
0
40
160
1
Prose CB-12-POI-64F-A12 Modulleri
50
0
7
STANDARD
100
AcDbText
0
TEXT
5
BDE2
330
BCF5
100
AcDbEntity
100
AcDbText
8
METIN_BILGI
10
4300
20
4120
30
0
40
160
1
400x350x260 mm
50
0
7
STANDARD
100
AcDbText
0
TEXT
5
BDE3
330
BCF5
100
AcDbEntity
100
AcDbText
8
METIN_BILGI
10
6800
20
4120
30
0
40
160
1
2
50
0
7
STANDARD
100
AcDbText
0
LINE
5
BDE4
330
BCF5
100
AcDbEntity
100
AcDbLine
8
METIN_BILGI
10
-3000
20
3600
30
0
11
8200
21
3600
31
0
0
TEXT
5
BDE5
330
BCF5
100
AcDbEntity
100
AcDbText
8
METIN_BILGI
10
-2900
20
3720
30
0
40
160
1
5
50
0
7
STANDARD
100
AcDbText
0
TEXT
5
BDE6
330
BCF5
100
AcDbEntity
100
AcDbText
8
METIN_BILGI
10
-1700
20
3720
30
0
40
160
1
Tek Tek RRU Modulleri (7 Adet Bagimsiz)
50
0
7
STANDARD
100
AcDbText
0
TEXT
5
BDE7
330
BCF5
100
AcDbEntity
100
AcDbText
8
METIN_BILGI
10
4300
20
3720
30
0
40
160
1
398x145x533 mm
50
0
7
STANDARD
100
AcDbText
0
TEXT
5
BDE8
330
BCF5
100
AcDbEntity
100
AcDbText
8
METIN_BILGI
10
6800
20
3720
30
0
40
160
1
7
50
0
7
STANDARD
100
AcDbText
0
LINE
5
BDE9
330
BCF5
100
AcDbEntity
100
AcDbLine
8
METIN_BILGI
10
-3000
20
3200
30
0
11
8200
21
3200
31
0
0
TEXT
5
BDEA
330
BCF5
100
AcDbEntity
100
AcDbText
8
METIN_BILGI
10
-2900
20
3320
30
0
40
160
1
6
50
0
7
STANDARD
100
AcDbText
0
TEXT
5
BDEB
330
BCF5
100
AcDbEntity
100
AcDbText
8
METIN_BILGI
10
-1700
20
3320
30
0
40
160
1
Spot Beam 30/30 Panel Antenler ve Askilari
50
0
7
STANDARD
100
AcDbText
0
TEXT
5
BDEC
330
BCF5
100
AcDbEntity
100
AcDbText
8
METIN_BILGI
10
4300
20
3320
30
0
40
160
1
990x1130x2810 mm
50
0
7
STANDARD
100
AcDbText
0
TEXT
5
BDED
330
BCF5
100
AcDbEntity
100
AcDbText
8
METIN_BILGI
10
6800
20
3320
30
0
40
160
1
2
50
0
7
STANDARD
100
AcDbText
0
LWPOLYLINE
5
BD60
330
BCF5
100
AcDbEntity
100
AcDbPolyline
8
EKP_TURKCELL_RRU
6
ByLayer
62
256
370
-1
90
4
70
1
10
-2685.5680490707305
20
982.7264834778791
10
-2685.5680490707305
20
1492.726485787559
10
-2545.568048474684
20
1492.726485787559
10
-2545.568048474684
20
982.7264834778791
0
LINE
5
BD61
330
BCF5
100
AcDbEntity
100
AcDbLine
8
EKP_TURKCELL_RRU
10
-2660.368048963442
20
982.7264834778791
30
0
11
-2660.368048963442
21
1492.726485787559
31
0
0
LINE
5
BD62
330
BCF5
100
AcDbEntity
100
AcDbLine
8
EKP_TURKCELL_RRU
10
-2643.5680488919165
20
1237.7264846327191
30
0
11
-2587.568048653498
21
1237.7264846327191
31
0
0
LINE
5
BD63
330
BCF5
100
AcDbEntity
100
AcDbLine
8
EKP_TURKCELL_RRU
10
-2615.5680487727072
20
1209.7264845135098
30
0
11
-2615.5680487727072
21
1265.7264847519284
31
0
0
TEXT
5
BD64
330
BCF5
100
AcDbEntity
100
AcDbText
8
EKP_TURKCELL_RRU
10
-2615.5680487727072
20
1261.246484732855
30
0
40
39.20000016689301
1
Turkcell RRU5301 (Alt Kot)
50
0
7
STANDARD
72
1
11
-2615.5680487727072
21
1261.246484732855
31
0
100
AcDbText
73
2
0
LWPOLYLINE
5
BD65
330
BCF5
100
AcDbEntity
100
AcDbPolyline
8
EKP_TURKCELL_RRU
6
ByLayer
62
256
370
-1
90
4
70
1
10
-2525.568049070731
20
982.7264834778791
10
-2525.568049070731
20
1492.726485787559
10
-2385.5680484746845
20
1492.726485787559
10
-2385.5680484746845
20
982.7264834778791
0
LINE
5
BD66
330
BCF5
100
AcDbEntity
100
AcDbLine
8
EKP_TURKCELL_RRU
10
-2500.3680489634426
20
982.7264834778791
30
0
11
-2500.3680489634426
21
1492.726485787559
31
0
0
LINE
5
BD67
330
BCF5
100
AcDbEntity
100
AcDbLine
8
EKP_TURKCELL_RRU
10
-2483.568048891917
20
1237.7264846327191
30
0
11
-2427.5680486534984
21
1237.7264846327191
31
0
0
LINE
5
BD68
330
BCF5
100
AcDbEntity
100
AcDbLine
8
EKP_TURKCELL_RRU
10
-2455.5680487727077
20
1209.7264845135098
30
0
11
-2455.5680487727077
21
1265.7264847519284
31
0
0
TEXT
5
BD69
330
BCF5
100
AcDbEntity
100
AcDbText
8
EKP_TURKCELL_RRU
10
-2455.5680487727077
20
1261.246484732855
30
0
40
39.20000016689301
1
Turkcell RRU5502 (Alt Kot)
50
0
7
STANDARD
72
1
11
-2455.5680487727077
21
1261.246484732855
31
0
100
AcDbText
73
2
0
LWPOLYLINE
5
BDB0
330
BCF5
100
AcDbEntity
100
AcDbPolyline
8
EKP_TURKCELL_RRU
6
ByLayer
62
256
370
-1
90
4
70
1
10
-2830
20
-5400
10
-2830
20
-4920
10
-2450
20
-4920
10
-2450
20
-5400
0
LWPOLYLINE
5
BDB1
330
BCF5
100
AcDbEntity
100
AcDbPolyline
8
EKP_TURKCELL_RRU
6
ByLayer
62
256
370
-1
90
4
70
1
10
-2716
20
-4920
10
-2716
20
-4890
10
-2564
20
-4890
10
-2564
20
-4920
0
TEXT
5
BDB2
330
BCF5
100
AcDbEntity
100
AcDbText
8
EKP_TURKCELL_RRU
10
-2640
20
-5160
30
0
40
45
1
TCELL
50
0
7
STANDARD
72
1
11
-2640
21
-5160
31
0
100
AcDbText
73
2
0
LWPOLYLINE
5
BD74
330
BCF5
100
AcDbEntity
100
AcDbPolyline
8
EKP_VODAFONE_RRU
6
ByLayer
62
256
370
-1
90
4
70
1
10
-2683.0680514549163
20
966.7264808552748
10
-2683.0680514549163
20
1508.726485787559
10
-2548.0680460904982
20
1508.726485787559
10
-2548.0680460904982
20
966.7264808552748
0
LINE
5
BD75
330
BCF5
100
AcDbEntity
100
AcDbLine
8
EKP_VODAFONE_RRU
10
-2658.768050489321
20
966.7264808552748
30
0
11
-2658.768050489321
21
1508.726485787559
31
0
0
LINE
5
BD76
330
BCF5
100
AcDbEntity
100
AcDbLine
8
EKP_VODAFONE_RRU
10
-2642.568049845591
20
1237.726483321417
30
0
11
-2588.5680476998236
21
1237.726483321417
31
0
0
LINE
5
BD77
330
BCF5
100
AcDbEntity
100
AcDbLine
8
EKP_VODAFONE_RRU
10
-2615.5680487727072
20
1210.7264822485333
30
0
11
-2615.5680487727072
21
1264.7264843943005
31
0
0
TEXT
5
BD78
330
BCF5
100
AcDbEntity
100
AcDbText
8
EKP_VODAFONE_RRU
10
-2615.5680487727072
20
1260.4064842226392
30
0
40
37.800001502037055
1
Vodafone RRU5526t (Ust Kot 1)
50
0
7
STANDARD
72
1
11
-2615.5680487727072
21
1260.4064842226392
31
0
100
AcDbText
73
2
0
LWPOLYLINE
5
BD79
330
BCF5
100
AcDbEntity
100
AcDbPolyline
8
EKP_VODAFONE_RRU
6
ByLayer
62
256
370
-1
90
4
70
1
10
-2523.0680514549167
20
966.7264808552748
10
-2523.0680514549167
20
1508.726485787559
10
-2388.0680460904987
20
1508.726485787559
10
-2388.0680460904987
20
966.7264808552748
0
LINE
5
BD7A
330
BCF5
100
AcDbEntity
100
AcDbLine
8
EKP_VODAFONE_RRU
10
-2498.7680504893215
20
966.7264808552748
30
0
11
-2498.7680504893215
21
1508.726485787559
31
0
0
LINE
5
BD7B
330
BCF5
100
AcDbEntity
100
AcDbLine
8
EKP_VODAFONE_RRU
10
-2482.5680498455913
20
1237.726483321417
30
0
11
-2428.568047699824
21
1237.726483321417
31
0
0
LINE
5
BD7C
330
BCF5
100
AcDbEntity
100
AcDbLine
8
EKP_VODAFONE_RRU
10
-2455.5680487727077
20
1210.7264822485333
30
0
11
-2455.5680487727077
21
1264.7264843943005
31
0
0
TEXT
5
BD7D
330
BCF5
100
AcDbEntity
100
AcDbText
8
EKP_VODAFONE_RRU
10
-2455.5680487727077
20
1260.4064842226392
30
0
40
37.800001502037055
1
Vodafone RRU5526t (Ust Kot 2)
50
0
7
STANDARD
72
1
11
-2455.5680487727077
21
1260.4064842226392
31
0
100
AcDbText
73
2
0
LWPOLYLINE
5
BD7E
330
BCF5
100
AcDbEntity
100
AcDbPolyline
8
EKP_VODAFONE_RRU
6
ByLayer
62
256
370
-1
90
4
70
1
10
-2363.0680514549167
20
966.7264808552748
10
-2363.0680514549167
20
1508.726485787559
10
-2228.0680460904987
20
1508.726485787559
10
-2228.0680460904987
20
966.7264808552748
0
LINE
5
BD7F
330
BCF5
100
AcDbEntity
100
AcDbLine
8
EKP_VODAFONE_RRU
10
-2338.7680504893215
20
966.7264808552748
30
0
11
-2338.7680504893215
21
1508.726485787559
31
0
0
LINE
5
BD80
330
BCF5
100
AcDbEntity
100
AcDbLine
8
EKP_VODAFONE_RRU
10
-2322.5680498455913
20
1237.726483321417
30
0
11
-2268.568047699824
21
1237.726483321417
31
0
0
LINE
5
BD81
330
BCF5
100
AcDbEntity
100
AcDbLine
8
EKP_VODAFONE_RRU
10
-2295.5680487727077
20
1210.7264822485333
30
0
11
-2295.5680487727077
21
1264.7264843943005
31
0
0
TEXT
5
BD82
330
BCF5
100
AcDbEntity
100
AcDbText
8
EKP_VODAFONE_RRU
10
-2295.5680487727077
20
1260.4064842226392
30
0
40
37.800001502037055
1
Vodafone RRU5526t (Ust Kot 3)
50
0
7
STANDARD
72
1
11
-2295.5680487727077
21
1260.4064842226392
31
0
100
AcDbText
73
2
0
LWPOLYLINE
5
BDB4
330
BCF5
100
AcDbEntity
100
AcDbPolyline
8
EKP_VODAFONE_RRU
6
ByLayer
62
256
370
-1
90
4
70
1
10
-2830
20
-4620
10
-2830
20
-4140
10
-2450
20
-4140
10
-2450
20
-4620
0
LWPOLYLINE
5
BDB5
330
BCF5
100
AcDbEntity
100
AcDbPolyline
8
EKP_VODAFONE_RRU
6
ByLayer
62
256
370
-1
90
4
70
1
10
-2716
20
-4140
10
-2716
20
-4110
10
-2564
20
-4110
10
-2564
20
-4140
0
TEXT
5
BDB6
330
BCF5
100
AcDbEntity
100
AcDbText
8
EKP_VODAFONE_RRU
10
-2640
20
-4380
30
0
40
45
1
VODA
50
0
7
STANDARD
72
1
11
-2640
21
-4380
31
0
100
AcDbText
73
2
0
LWPOLYLINE
5
BD6A
330
BCF5
100
AcDbEntity
100
AcDbPolyline
8
EKP_TURK_TELEKOM_RRU
6
ByLayer
62
256
370
-1
90
4
70
1
10
-2365.568049070731
20
1004.7264833586701
10
-2365.568049070731
20
1470.7264857875593
10
-2225.5680484746845
20
1470.7264857875593
10
-2225.5680484746845
20
1004.7264833586701
0
LINE
5
BD6B
330
BCF5
100
AcDbEntity
100
AcDbLine
8
EKP_TURK_TELEKOM_RRU
10
-2340.3680489634426
20
1004.7264833586701
30
0
11
-2340.3680489634426
21
1470.7264857875593
31
0
0
LINE
5
BD6C
330
BCF5
100
AcDbEntity
100
AcDbLine
8
EKP_TURK_TELEKOM_RRU
10
-2323.568048891917
20
1237.7264845731147
30
0
11
-2267.5680486534984
21
1237.7264845731147
31
0
0
LINE
5
BD6D
330
BCF5
100
AcDbEntity
100
AcDbLine
8
EKP_TURK_TELEKOM_RRU
10
-2295.5680487727077
20
1209.7264844539054
30
0
11
-2295.5680487727077
21
1265.726484692324
31
0
0
TEXT
5
BD6E
330
BCF5
100
AcDbEntity
100
AcDbText
8
EKP_TURK_TELEKOM_RRU
10
-2295.5680487727077
20
1261.2464846732505
30
0
40
39.20000016689301
1
TT RRU5527 (Alt Kot)
50
0
7
STANDARD
72
1
11
-2295.5680487727077
21
1261.2464846732505
31
0
100
AcDbText
73
2
0
LWPOLYLINE
5
BD6F
330
BCF5
100
AcDbEntity
100
AcDbPolyline
8
EKP_TURK_TELEKOM_RRU
6
ByLayer
62
256
370
-1
90
4
70
1
10
-2205.568049070731
20
1004.7264833586701
10
-2205.568049070731
20
1470.7264857875593
10
-2065.5680484746845
20
1470.7264857875593
10
-2065.5680484746845
20
1004.7264833586701
0
LINE
5
BD70
330
BCF5
100
AcDbEntity
100
AcDbLine
8
EKP_TURK_TELEKOM_RRU
10
-2180.3680489634426
20
1004.7264833586701
30
0
11
-2180.3680489634426
21
1470.7264857875593
31
0
0
LINE
5
BD71
330
BCF5
100
AcDbEntity
100
AcDbLine
8
EKP_TURK_TELEKOM_RRU
10
-2163.568048891917
20
1237.7264845731147
30
0
11
-2107.5680486534984
21
1237.7264845731147
31
0
0
LINE
5
BD72
330
BCF5
100
AcDbEntity
100
AcDbLine
8
EKP_TURK_TELEKOM_RRU
10
-2135.5680487727077
20
1209.7264844539054
30
0
11
-2135.5680487727077
21
1265.726484692324
31
0
0
TEXT
5
BD73
330
BCF5
100
AcDbEntity
100
AcDbText
8
EKP_TURK_TELEKOM_RRU
10
-2135.5680487727077
20
1261.2464846732505
30
0
40
39.20000016689301
1
TT RRU5818W (Alt Kot)
50
0
7
STANDARD
72
1
11
-2135.5680487727077
21
1261.2464846732505
31
0
100
AcDbText
73
2
0
LWPOLYLINE
5
BD4E
330
BCF5
100
AcDbEntity
100
AcDbPolyline
8
EKP_POI_TASIYICI_SASE
6
ByLayer
62
256
370
-1
90
4
70
1
10
-4034.1268088287143
20
923.4661973048301
10
-4034.1268088287143
20
1623.4661853839011
10
-3414.1268082326674
20
1623.4661853839011
10
-3414.1268082326674
20
923.4661973048301
0
LWPOLYLINE
5
BD4F
330
BCF5
100
AcDbEntity
100
AcDbPolyline
8
EKP_POI_TASIYICI_SASE
6
ByLayer
62
256
370
-1
90
4
70
1
10
-4034.1268088287143
20
923.4661973048301
10
-4034.1268088287143
20
983.4661973048301
10
-3974.1268088287143
20
983.4661973048301
10
-3974.1268088287143
20
923.4661973048301
0
LWPOLYLINE
5
BD50
330
BCF5
100
AcDbEntity
100
AcDbPolyline
8
EKP_POI_TASIYICI_SASE
6
ByLayer
62
256
370
-1
90
4
70
1
10
-3474.1268082326674
20
923.4661973048301
10
-3474.1268082326674
20
983.4661973048301
10
-3414.1268082326674
20
983.4661973048301
10
-3414.1268082326674
20
923.4661973048301
0
LWPOLYLINE
5
BD51
330
BCF5
100
AcDbEntity
100
AcDbPolyline
8
EKP_POI_TASIYICI_SASE
6
ByLayer
62
256
370
-1
90
4
70
1
10
-4034.1268088287143
20
1563.4661853839011
10
-4034.1268088287143
20
1623.4661853839011
10
-3974.1268088287143
20
1623.4661853839011
10
-3974.1268088287143
20
1563.4661853839011
0
LWPOLYLINE
5
BD52
330
BCF5
100
AcDbEntity
100
AcDbPolyline
8
EKP_POI_TASIYICI_SASE
6
ByLayer
62
256
370
-1
90
4
70
1
10
-3474.1268082326674
20
1563.4661853839011
10
-3474.1268082326674
20
1623.4661853839011
10
-3414.1268082326674
20
1623.4661853839011
10
-3414.1268082326674
20
1563.4661853839011
0
LWPOLYLINE
5
BD53
330
BCF5
100
AcDbEntity
100
AcDbPolyline
8
EKP_POI_TASIYICI_SASE
6
ByLayer
62
256
370
-1
90
4
70
1
10
-3990.4268085306912
20
983.4661973048301
10
-3990.4268085306912
20
1563.4661853839011
10
-3965.4268085306912
20
1563.4661853839011
10
-3965.4268085306912
20
983.4661973048301
0
LWPOLYLINE
5
BD54
330
BCF5
100
AcDbEntity
100
AcDbPolyline
8
EKP_POI_TASIYICI_SASE
6
ByLayer
62
256
370
-1
90
4
70
1
10
-3482.826808530691
20
983.4661973048301
10
-3482.826808530691
20
1563.4661853839011
10
-3457.826808530691
20
1563.4661853839011
10
-3457.826808530691
20
983.4661973048301
0
TEXT
5
BD55
330
BCF5
100
AcDbEntity
100
AcDbText
8
EKP_POI_TASIYICI_SASE
10
-3724.126808530691
20
1273.4661913443656
30
0
40
55
1
2'li POI Kucuk Rack Blogu (2x POI Dolu) (Alan 3)
50
0
7
STANDARD
72
1
11
-3724.126808530691
21
1273.4661913443656
31
0
100
AcDbText
73
2
0
LWPOLYLINE
5
BDA5
330
BCF5
100
AcDbEntity
100
AcDbPolyline
8
EKP_POI_TASIYICI_SASE
6
ByLayer
62
256
370
-1
90
4
70
1
10
-3720
20
-6000
10
-3720
20
-5900
10
-3120
20
-5900
10
-3120
20
-6000
0
LWPOLYLINE
5
BDA6
330
BCF5
100
AcDbEntity
100
AcDbPolyline
8
EKP_POI_TASIYICI_SASE
6
ByLayer
62
256
370
-1
90
4
70
1
10
-3720
20
-5060
10
-3720
20
-5000
10
-3120
20
-5000
10
-3120
20
-5060
0
LWPOLYLINE
5
BDA7
330
BCF5
100
AcDbEntity
100
AcDbPolyline
8
EKP_POI_TASIYICI_SASE
6
ByLayer
62
256
370
-1
90
4
70
1
10
-3720
20
-5900
10
-3720
20
-5060
10
-3670
20
-5060
10
-3670
20
-5900
0
LWPOLYLINE
5
BDA8
330
BCF5
100
AcDbEntity
100
AcDbPolyline
8
EKP_POI_TASIYICI_SASE
6
ByLayer
62
256
370
-1
90
4
70
1
10
-3170
20
-5900
10
-3170
20
-5060
10
-3120
20
-5060
10
-3120
20
-5900
0
LWPOLYLINE
5
BD56
330
BCF5
100
AcDbEntity
100
AcDbPolyline
8
EKP_POI_MODULLERI
6
ByLayer
62
256
370
-1
90
4
70
1
10
-3964.1268080836558
20
1073.466191158101
10
-3964.1268080836558
20
1448.4661883641334
10
-3484.126808977725
20
1448.4661883641334
10
-3484.126808977725
20
1073.466191158101
0
LINE
5
BD57
330
BCF5
100
AcDbEntity
100
AcDbLine
8
EKP_POI_MODULLERI
10
-3964.1268080836558
20
1129.716190739006
30
0
11
-3484.126808977725
21
1129.716190739006
31
0
0
LINE
5
BD58
330
BCF5
100
AcDbEntity
100
AcDbLine
8
EKP_POI_MODULLERI
10
-3791.6268080277764
20
1260.9661897611172
30
0
11
-3656.626809033605
21
1260.9661897611172
31
0
0
LINE
5
BD59
330
BCF5
100
AcDbEntity
100
AcDbLine
8
EKP_POI_MODULLERI
10
-3724.1268085306906
20
1193.4661902640314
30
0
11
-3724.1268085306906
21
1328.466189258203
31
0
0
TEXT
5
BD5A
330
BCF5
100
AcDbEntity
100
AcDbText
8
EKP_POI_MODULLERI
10
-3724.1268085306906
20
1287.9661897611172
30
0
40
45
1
CB-12-POI-64F-A12 (5G NR POI)
50
0
7
STANDARD
72
1
11
-3724.1268085306906
21
1287.9661897611172
31
0
100
AcDbText
73
2
0
LWPOLYLINE
5
BD5B
330
BCF5
100
AcDbEntity
100
AcDbPolyline
8
EKP_POI_MODULLERI
6
ByLayer
62
256
370
-1
90
4
70
1
10
-3964.1268080836558
20
1073.466191158101
10
-3964.1268080836558
20
1448.4661883641334
10
-3484.126808977725
20
1448.4661883641334
10
-3484.126808977725
20
1073.466191158101
0
LINE
5
BD5C
330
BCF5
100
AcDbEntity
100
AcDbLine
8
EKP_POI_MODULLERI
10
-3964.1268080836558
20
1129.716190739006
30
0
11
-3484.126808977725
21
1129.716190739006
31
0
0
LINE
5
BD5D
330
BCF5
100
AcDbEntity
100
AcDbLine
8
EKP_POI_MODULLERI
10
-3791.6268080277764
20
1260.9661897611172
30
0
11
-3656.626809033605
21
1260.9661897611172
31
0
0
LINE
5
BD5E
330
BCF5
100
AcDbEntity
100
AcDbLine
8
EKP_POI_MODULLERI
10
-3724.1268085306906
20
1193.4661902640314
30
0
11
-3724.1268085306906
21
1328.466189258203
31
0
0
TEXT
5
BD5F
330
BCF5
100
AcDbEntity
100
AcDbText
8
EKP_POI_MODULLERI
10
-3724.1268085306906
20
1287.9661897611172
30
0
40
45
1
CB-12-POI-64F-A12 (5G NR POI)
50
0
7
STANDARD
72
1
11
-3724.1268085306906
21
1287.9661897611172
31
0
100
AcDbText
73
2
0
LWPOLYLINE
5
BDA9
330
BCF5
100
AcDbEntity
100
AcDbPolyline
8
EKP_POI_MODULLERI
6
ByLayer
62
256
370
-1
90
4
70
1
10
-3660
20
-5885
10
-3660
20
-5625
10
-3180
20
-5625
10
-3180
20
-5885
0
TEXT
5
BDAA
330
BCF5
100
AcDbEntity
100
AcDbText
8
EKP_POI_MODULLERI
10
-3420
20
-5755
30
0
40
40
1
POI-1
50
0
7
STANDARD
72
1
11
-3420
21
-5755
31
0
100
AcDbText
73
2
0
LWPOLYLINE
5
BDAB
330
BCF5
100
AcDbEntity
100
AcDbPolyline
8
EKP_POI_MODULLERI
6
ByLayer
62
256
370
-1
90
4
70
1
10
-3660
20
-5570
10
-3660
20
-5310
10
-3180
20
-5310
10
-3180
20
-5570
0
TEXT
5
BDAC
330
BCF5
100
AcDbEntity
100
AcDbText
8
EKP_POI_MODULLERI
10
-3420
20
-5440
30
0
40
40
1
POI-2
50
0
7
STANDARD
72
1
11
-3420
21
-5440
31
0
100
AcDbText
73
2
0
LWPOLYLINE
5
BD3A
330
BCF5
100
AcDbEntity
100
AcDbPolyline
8
EKP_PANEL_ANTEN
6
ByLayer
62
256
370
-1
90
4
70
1
10
-3266.3090024664093
20
-32113.619031457456
10
-3266.3090024664093
20
-30981.64861288233
10
-2278.648612882328
20
-30981.64861288233
10
-2278.648612882328
20
-32113.619031457456
0
LINE
5
BD3B
330
BCF5
100
AcDbEntity
100
AcDbLine
8
EKP_PANEL_ANTEN
10
-2970.010885591185
20
-31547.633822169893
30
0
11
-2574.946729757552
21
-31547.633822169893
31
0
0
LINE
5
BD3C
330
BCF5
100
AcDbEntity
100
AcDbLine
8
EKP_PANEL_ANTEN
10
-2772.4788076743685
20
-31774.02790588492
30
0
11
-2772.4788076743685
21
-31321.239738454868
31
0
0
LINE
5
BD3D
330
BCF5
100
AcDbEntity
100
AcDbLine
8
EKP_PANEL_ANTEN
10
-2772.4788076743685
20
-31887.22494774243
30
0
11
-2772.4788076743685
21
-31208.042696597357
31
0
0
TEXT
5
BD3E
330
BCF5
100
AcDbEntity
100
AcDbText
8
EKP_PANEL_ANTEN
10
-2772.4788076743685
20
-31547.633822169893
30
0
40
60
1
Spot Beam 30/30 Panel Anten Cati Tasiyicisi Asili Montaji (Alan 3 - Anten 1)
50
0
7
STANDARD
72
1
11
-2772.4788076743685
21
-31547.633822169893
31
0
100
AcDbText
73
2
0
LWPOLYLINE
5
BD3F
330
BCF5
100
AcDbEntity
100
AcDbPolyline
8
EKP_PANEL_ANTEN
6
ByLayer
62
256
370
-1
90
4
70
1
10
-3266.3090024664093
20
-31969.309002466416
10
-3266.3090024664093
20
-30981.64861288233
10
-2278.648612882328
20
-30981.64861288233
10
-2278.648612882328
20
-31969.309002466416
0
LINE
5
BD40
330
BCF5
100
AcDbEntity
100
AcDbLine
8
EKP_PANEL_ANTEN
10
-2970.010885591185
20
-31475.47880767437
30
0
11
-2574.946729757552
21
-31475.47880767437
31
0
0
LINE
5
BD41
330
BCF5
100
AcDbEntity
100
AcDbLine
8
EKP_PANEL_ANTEN
10
-2772.4788076743685
20
-31673.01088559119
30
0
11
-2772.4788076743685
21
-31277.946729757554
31
0
0
LINE
5
BD42
330
BCF5
100
AcDbEntity
100
AcDbLine
8
EKP_PANEL_ANTEN
10
-2772.4788076743685
20
-31771.7769245496
30
0
11
-2772.4788076743685
21
-31179.18069079915
31
0
0
TEXT
5
BD43
330
BCF5
100
AcDbEntity
100
AcDbText
8
EKP_PANEL_ANTEN
10
-2772.4788076743685
20
-31475.47880767437
30
0
40
60
1
Spot Beam 30/30 4-Port Panel Anten (DOY15X3030MD4TRE)
50
0
7
STANDARD
72
1
11
-2772.4788076743685
21
-31475.47880767437
31
0
100
AcDbText
73
2
0
LWPOLYLINE
5
BD44
330
BCF5
100
AcDbEntity
100
AcDbPolyline
8
EKP_PANEL_ANTEN
6
ByLayer
62
256
370
-1
90
4
70
1
10
-3266.3090024664093
20
-33104.619031457456
10
-3266.3090024664093
20
-31972.64861288233
10
-2278.648612882328
20
-31972.64861288233
10
-2278.648612882328
20
-33104.619031457456
0
LINE
5
BD45
330
BCF5
100
AcDbEntity
100
AcDbLine
8
EKP_PANEL_ANTEN
10
-2970.010885591185
20
-32538.633822169893
30
0
11
-2574.946729757552
21
-32538.633822169893
31
0
0
LINE
5
BD46
330
BCF5
100
AcDbEntity
100
AcDbLine
8
EKP_PANEL_ANTEN
10
-2772.4788076743685
20
-32765.02790588492
30
0
11
-2772.4788076743685
21
-32312.239738454868
31
0
0
LINE
5
BD47
330
BCF5
100
AcDbEntity
100
AcDbLine
8
EKP_PANEL_ANTEN
10
-2772.4788076743685
20
-32878.224947742434
30
0
11
-2772.4788076743685
21
-32199.042696597357
31
0
0
TEXT
5
BD48
330
BCF5
100
AcDbEntity
100
AcDbText
8
EKP_PANEL_ANTEN
10
-2772.4788076743685
20
-32538.633822169893
30
0
40
60
1
Spot Beam 30/30 Panel Anten Cati Tasiyicisi Asili Montaji (Alan 3 - Anten 2)
50
0
7
STANDARD
72
1
11
-2772.4788076743685
21
-32538.633822169893
31
0
100
AcDbText
73
2
0
LWPOLYLINE
5
BD49
330
BCF5
100
AcDbEntity
100
AcDbPolyline
8
EKP_PANEL_ANTEN
6
ByLayer
62
256
370
-1
90
4
70
1
10
-3266.3090024664093
20
-32960.30900246641
10
-3266.3090024664093
20
-31972.64861288233
10
-2278.648612882328
20
-31972.64861288233
10
-2278.648612882328
20
-32960.30900246641
0
LINE
5
BD4A
330
BCF5
100
AcDbEntity
100
AcDbLine
8
EKP_PANEL_ANTEN
10
-2970.010885591185
20
-32466.47880767437
30
0
11
-2574.946729757552
21
-32466.47880767437
31
0
0
LINE
5
BD4B
330
BCF5
100
AcDbEntity
100
AcDbLine
8
EKP_PANEL_ANTEN
10
-2772.4788076743685
20
-32664.01088559119
30
0
11
-2772.4788076743685
21
-32268.946729757554
31
0
0
LINE
5
BD4C
330
BCF5
100
AcDbEntity
100
AcDbLine
8
EKP_PANEL_ANTEN
10
-2772.4788076743685
20
-32762.776924549595
30
0
11
-2772.4788076743685
21
-32170.180690799145
31
0
0
TEXT
5
BD4D
330
BCF5
100
AcDbEntity
100
AcDbText
8
EKP_PANEL_ANTEN
10
-2772.4788076743685
20
-32466.47880767437
30
0
40
60
1
Spot Beam 30/30 4-Port Panel Anten (DOY15X3030MD4TRE)
50
0
7
STANDARD
72
1
11
-2772.4788076743685
21
-32466.47880767437
31
0
100
AcDbText
73
2
0
ENDSEC
0
SECTION
2
OBJECTS
0
DICTIONARY
5
BCE3
330
0
100
AcDbDictionary
281
1
3
ACAD_GROUP
350
BCF9
0
DICTIONARY
5
BCF9
330
BCE3
100
AcDbDictionary
281
1
0
ENDSEC
0
EOF