0
SECTION
2
HEADER
9
$HANDSEED
5
C2B4
9
$INSUNITS
70
4
9
$ACADVER
1
AC1021
9
$DWGCODEPAGE
3
UTF-8
0
ENDSEC
0
SECTION
2
CLASSES
0
ENDSEC
0
SECTION
2
TABLES
0
TABLE
2
LTYPE
5
C2B2
330
0
100
AcDbSymbolTable
70
5
0
LTYPE
5
C1A5
330
C2B2
100
AcDbSymbolTableRecord
100
AcDbLinetypeTableRecord
2
CONTINUOUS
3
______
70
0
72
65
73
0
40
0
0
LTYPE
5
C1A6
330
C2B2
100
AcDbSymbolTableRecord
100
AcDbLinetypeTableRecord
2
DASHED
3
_ _ _ 
70
0
72
65
73
2
40
10
49
5
74
0
49
-5
74
0
0
LTYPE
5
C1A7
330
C2B2
100
AcDbSymbolTableRecord
100
AcDbLinetypeTableRecord
2
DOTTED
3
. . . 
70
0
72
65
73
2
40
5
49
0
74
0
49
-5
74
0
0
LTYPE
5
C1A9
330
C2B2
100
AcDbSymbolTableRecord
100
AcDbLinetypeTableRecord
2
ByBlock
3

70
0
72
65
73
0
40
0
0
LTYPE
5
C1AA
330
C2B2
100
AcDbSymbolTableRecord
100
AcDbLinetypeTableRecord
2
ByLayer
3

70
0
72
65
73
0
40
0
0
ENDTAB
0
TABLE
2
LAYER
5
C2B3
330
0
100
AcDbSymbolTable
70
21
0
LAYER
5
C1A8
330
C2B3
100
AcDbSymbolTableRecord
100
AcDbLayerTableRecord
2
0
62
7
70
0
6
CONTINUOUS
390
1
0
LAYER
5
C1BB
330
C2B3
100
AcDbSymbolTableRecord
100
AcDbLayerTableRecord
2
ZEMIN_PLATFORM
62
8
70
0
6
CONTINUOUS
390
1
0
LAYER
5
C1BC
330
C2B3
100
AcDbSymbolTableRecord
100
AcDbLayerTableRecord
2
KORKULUK_KAPI
62
4
70
0
6
CONTINUOUS
390
1
0
LAYER
5
C1BD
330
C2B3
100
AcDbSymbolTableRecord
100
AcDbLayerTableRecord
2
CELIK_KIRIS_KOLON
62
9
70
0
6
CONTINUOUS
390
1
0
LAYER
5
C1BE
330
C2B3
100
AcDbSymbolTableRecord
100
AcDbLayerTableRecord
2
MONTAJ_BORULARI
62
2
70
0
6
CONTINUOUS
390
1
0
LAYER
5
C1BF
330
C2B3
100
AcDbSymbolTableRecord
100
AcDbLayerTableRecord
2
KABLO_TAVALARI
62
6
70
0
6
CONTINUOUS
390
1
0
LAYER
5
C1C0
330
C2B3
100
AcDbSymbolTableRecord
100
AcDbLayerTableRecord
2
YURUYUS_KORIDORU
62
3
70
0
6
DASHED
390
1
0
LAYER
5
C1C1
330
C2B3
100
AcDbSymbolTableRecord
100
AcDbLayerTableRecord
2
OLCULER
62
1
70
0
6
CONTINUOUS
390
1
0
LAYER
5
C1C2
330
C2B3
100
AcDbSymbolTableRecord
100
AcDbLayerTableRecord
2
METIN_BILGI
62
7
70
0
6
CONTINUOUS
390
1
0
LAYER
5
C1C3
330
C2B3
100
AcDbSymbolTableRecord
100
AcDbLayerTableRecord
2
EKP_TURKCELL_RRU
62
5
70
0
6
CONTINUOUS
390
1
0
LAYER
5
C1C4
330
C2B3
100
AcDbSymbolTableRecord
100
AcDbLayerTableRecord
2
EKP_VODAFONE_RRU
62
1
70
0
6
CONTINUOUS
390
1
0
LAYER
5
C1C5
330
C2B3
100
AcDbSymbolTableRecord
100
AcDbLayerTableRecord
2
EKP_TURK_TELEKOM_RRU
62
4
70
0
6
CONTINUOUS
390
1
0
LAYER
5
C1C6
330
C2B3
100
AcDbSymbolTableRecord
100
AcDbLayerTableRecord
2
EKP_POI_TASIYICI_SASE
62
30
70
0
6
CONTINUOUS
390
1
0
LAYER
5
C1C7
330
C2B3
100
AcDbSymbolTableRecord
100
AcDbLayerTableRecord
2
EKP_POI_MODULLERI
62
40
70
0
6
CONTINUOUS
390
1
0
LAYER
5
C1C8
330
C2B3
100
AcDbSymbolTableRecord
100
AcDbLayerTableRecord
2
EKP_RECTIFIER_ELTEK_20U
62
3
70
0
6
CONTINUOUS
390
1
0
LAYER
5
C1C9
330
C2B3
100
AcDbSymbolTableRecord
100
AcDbLayerTableRecord
2
EKP_RECTIFIER_MTS9304A
62
94
70
0
6
CONTINUOUS
390
1
0
LAYER
5
C1CA
330
C2B3
100
AcDbSymbolTableRecord
100
AcDbLayerTableRecord
2
BLOK_OZEL_PLATFORM
62
140
70
0
6
CONTINUOUS
390
1
0
LAYER
5
C1CB
330
C2B3
100
AcDbSymbolTableRecord
100
AcDbLayerTableRecord
2
EKP_MATSING_ANTEN
62
2
70
0
6
CONTINUOUS
390
1
0
LAYER
5
C1CC
330
C2B3
100
AcDbSymbolTableRecord
100
AcDbLayerTableRecord
2
EKP_PANEL_ANTEN
62
6
70
0
6
CONTINUOUS
390
1
0
LAYER
5
C1CD
330
C2B3
100
AcDbSymbolTableRecord
100
AcDbLayerTableRecord
2
EKP_ANTEN_TASIYICI_KOL
62
141
70
0
6
CONTINUOUS
390
1
0
LAYER
5
C1CE
330
C2B3
100
AcDbSymbolTableRecord
100
AcDbLayerTableRecord
2
EKP_DIGER_EKIPMANLAR
62
7
70
0
6
CONTINUOUS
390
1
0
ENDTAB
0
TABLE
2
VPORT
5
C1AB
330
0
100
AcDbSymbolTable
70
1
0
VPORT
5
C1B1
330
C1AB
100
AcDbSymbolTableRecord
100
AcDbViewportTableRecord
2
*ACTIVE
40
1000
70
0
0
ENDTAB
0
TABLE
2
STYLE
5
C1AC
330
0
100
AcDbSymbolTable
70
3
0
STYLE
5
C1B2
330
C1AC
100
AcDbSymbolTableRecord
100
AcDbTextStyleTableRecord
2
standard
70
0
40
0
41
1
50
0
71
0
42
1
3
calibrib.ttf
4

1001
ACAD
1000
Calibri
1071
33554466
0
STYLE
5
C1B3
330
C1AC
100
AcDbSymbolTableRecord
100
AcDbTextStyleTableRecord
2
STANDARD
70
0
40
0
41
1
50
0
71
0
42
1
3
calibrib.ttf
4

1001
ACAD
1000
Calibri
1071
33554466
0
STYLE
5
C1B4
330
C1AC
100
AcDbSymbolTableRecord
100
AcDbTextStyleTableRecord
2
CALIBRI_BOLD
70
0
40
0
41
1
50
0
71
0
42
1
3
calibrib.ttf
4

1001
ACAD
1000
Calibri
1071
33554466
0
ENDTAB
0
TABLE
2
VIEW
5
C1AD
330
0
100
AcDbSymbolTable
70
0
0
ENDTAB
0
TABLE
2
UCS
5
C1AE
330
0
100
AcDbSymbolTable
70
0
0
ENDTAB
0
TABLE
2
APPID
5
C1AF
330
0
100
AcDbSymbolTable
70
1
0
APPID
5
C1B5
330
C1AF
100
AcDbSymbolTableRecord
100
AcDbRegAppTableRecord
2
ACAD
70
0
0
ENDTAB
0
TABLE
2
DIMSTYLE
5
C1B0
330
0
100
AcDbSymbolTable
100
AcDbDimStyleTable
70
0
71
1
0
ENDTAB
0
TABLE
2
BLOCK_RECORD
5
C2AF
330
0
100
AcDbSymbolTable
70
2
0
BLOCK_RECORD
5
C2B0
330
C2AF
100
AcDbSymbolTableRecord
100
AcDbBlockTableRecord
2
*Model_Space
70
0
280
0
281
1
0
BLOCK_RECORD
5
C2B1
330
C2AF
100
AcDbSymbolTableRecord
100
AcDbBlockTableRecord
2
*Paper_Space
70
0
280
0
281
1
0
ENDTAB
0
ENDSEC
0
SECTION
2
BLOCKS
0
BLOCK
5
C1B6
330
0
100
AcDbEntity
100
AcDbBlockBegin
2
*Model_Space
70
0
10
0
20
0
30
0
3
*Model_Space
1

0
ENDBLK
5
C1B7
330
0
100
AcDbEntity
100
AcDbBlockEnd
0
BLOCK
5
C1B8
330
0
100
AcDbEntity
100
AcDbBlockBegin
2
*Paper_Space
70
0
10
0
20
0
30
0
3
*Paper_Space
1

0
ENDBLK
5
C1B9
330
0
100
AcDbEntity
100
AcDbBlockEnd
0
ENDSEC
0
SECTION
2
ENTITIES
0
LWPOLYLINE
5
C1CF
330
C1B6
100
AcDbEntity
100
AcDbPolyline
8
ZEMIN_PLATFORM
6
ByLayer
62
256
370
-1
90
4
70
1
10
-12500
20
0
10
-12500
20
2000
10
12500
20
2000
10
12500
20
0
0
LINE
5
C1D0
330
C1B6
100
AcDbEntity
100
AcDbLine
8
ZEMIN_PLATFORM
10
-12000
20
0
30
0
11
-12000
21
2000
31
0
0
LINE
5
C1D1
330
C1B6
100
AcDbEntity
100
AcDbLine
8
ZEMIN_PLATFORM
10
-11000
20
0
30
0
11
-11000
21
2000
31
0
0
LINE
5
C1D2
330
C1B6
100
AcDbEntity
100
AcDbLine
8
ZEMIN_PLATFORM
10
-10000
20
0
30
0
11
-10000
21
2000
31
0
0
LINE
5
C1D3
330
C1B6
100
AcDbEntity
100
AcDbLine
8
ZEMIN_PLATFORM
10
-9000
20
0
30
0
11
-9000
21
2000
31
0
0
LINE
5
C1D4
330
C1B6
100
AcDbEntity
100
AcDbLine
8
ZEMIN_PLATFORM
10
-8000
20
0
30
0
11
-8000
21
2000
31
0
0
LINE
5
C1D5
330
C1B6
100
AcDbEntity
100
AcDbLine
8
ZEMIN_PLATFORM
10
-7000
20
0
30
0
11
-7000
21
2000
31
0
0
LINE
5
C1D6
330
C1B6
100
AcDbEntity
100
AcDbLine
8
ZEMIN_PLATFORM
10
-6000
20
0
30
0
11
-6000
21
2000
31
0
0
LINE
5
C1D7
330
C1B6
100
AcDbEntity
100
AcDbLine
8
ZEMIN_PLATFORM
10
-5000
20
0
30
0
11
-5000
21
2000
31
0
0
LINE
5
C1D8
330
C1B6
100
AcDbEntity
100
AcDbLine
8
ZEMIN_PLATFORM
10
-4000
20
0
30
0
11
-4000
21
2000
31
0
0
LINE
5
C1D9
330
C1B6
100
AcDbEntity
100
AcDbLine
8
ZEMIN_PLATFORM
10
-3000
20
0
30
0
11
-3000
21
2000
31
0
0
LINE
5
C1DA
330
C1B6
100
AcDbEntity
100
AcDbLine
8
ZEMIN_PLATFORM
10
-2000
20
0
30
0
11
-2000
21
2000
31
0
0
LINE
5
C1DB
330
C1B6
100
AcDbEntity
100
AcDbLine
8
ZEMIN_PLATFORM
10
-1000
20
0
30
0
11
-1000
21
2000
31
0
0
LINE
5
C1DC
330
C1B6
100
AcDbEntity
100
AcDbLine
8
ZEMIN_PLATFORM
10
0
20
0
30
0
11
0
21
2000
31
0
0
LINE
5
C1DD
330
C1B6
100
AcDbEntity
100
AcDbLine
8
ZEMIN_PLATFORM
10
1000
20
0
30
0
11
1000
21
2000
31
0
0
LINE
5
C1DE
330
C1B6
100
AcDbEntity
100
AcDbLine
8
ZEMIN_PLATFORM
10
2000
20
0
30
0
11
2000
21
2000
31
0
0
LINE
5
C1DF
330
C1B6
100
AcDbEntity
100
AcDbLine
8
ZEMIN_PLATFORM
10
3000
20
0
30
0
11
3000
21
2000
31
0
0
LINE
5
C1E0
330
C1B6
100
AcDbEntity
100
AcDbLine
8
ZEMIN_PLATFORM
10
4000
20
0
30
0
11
4000
21
2000
31
0
0
LINE
5
C1E1
330
C1B6
100
AcDbEntity
100
AcDbLine
8
ZEMIN_PLATFORM
10
5000
20
0
30
0
11
5000
21
2000
31
0
0
LINE
5
C1E2
330
C1B6
100
AcDbEntity
100
AcDbLine
8
ZEMIN_PLATFORM
10
6000
20
0
30
0
11
6000
21
2000
31
0
0
LINE
5
C1E3
330
C1B6
100
AcDbEntity
100
AcDbLine
8
ZEMIN_PLATFORM
10
7000
20
0
30
0
11
7000
21
2000
31
0
0
LINE
5
C1E4
330
C1B6
100
AcDbEntity
100
AcDbLine
8
ZEMIN_PLATFORM
10
8000
20
0
30
0
11
8000
21
2000
31
0
0
LINE
5
C1E5
330
C1B6
100
AcDbEntity
100
AcDbLine
8
ZEMIN_PLATFORM
10
9000
20
0
30
0
11
9000
21
2000
31
0
0
LINE
5
C1E6
330
C1B6
100
AcDbEntity
100
AcDbLine
8
ZEMIN_PLATFORM
10
10000
20
0
30
0
11
10000
21
2000
31
0
0
LINE
5
C1E7
330
C1B6
100
AcDbEntity
100
AcDbLine
8
ZEMIN_PLATFORM
10
11000
20
0
30
0
11
11000
21
2000
31
0
0
LINE
5
C1E8
330
C1B6
100
AcDbEntity
100
AcDbLine
8
ZEMIN_PLATFORM
10
12000
20
0
30
0
11
12000
21
2000
31
0
0
LWPOLYLINE
5
C262
330
C1B6
100
AcDbEntity
100
AcDbPolyline
8
ZEMIN_PLATFORM
6
ByLayer
62
256
370
-1
90
4
70
1
10
-12500
20
-6400
10
-12500
20
-6000
10
12500
20
-6000
10
12500
20
-6400
0
LINE
5
C263
330
C1B6
100
AcDbEntity
100
AcDbLine
8
ZEMIN_PLATFORM
10
-12500
20
-6000
30
0
11
12500
21
-6000
31
0
0
LWPOLYLINE
5
C1E9
330
C1B6
100
AcDbEntity
100
AcDbPolyline
8
KORKULUK_KAPI
6
ByLayer
62
256
370
-1
90
4
70
1
10
-4300
20
50
10
-4300
20
1950
10
-1800
20
1950
10
-1800
20
50
0
LWPOLYLINE
5
C1EA
330
C1B6
100
AcDbEntity
100
AcDbPolyline
8
KORKULUK_KAPI
6
ByLayer
62
256
370
-1
90
4
70
1
10
-4150
20
40
10
-4150
20
65
10
-3050
20
65
10
-3050
20
40
0
LWPOLYLINE
5
C1EB
330
C1B6
100
AcDbEntity
100
AcDbPolyline
8
KORKULUK_KAPI
6
ByLayer
62
256
370
-1
90
4
70
1
10
-3050
20
70
10
-3050
20
95
10
-1950
20
95
10
-1950
20
70
0
TEXT
5
C1EC
330
C1B6
100
AcDbEntity
100
AcDbText
8
KORKULUK_KAPI
10
-3050
20
1000
30
0
40
160
1
2.50m OZEL KORUMALI ALAN (110cm KAYAR KAPILAR)
50
0
7
STANDARD
72
1
11
-3050
21
1000
31
0
100
AcDbText
73
0
0
LINE
5
C1ED
330
C1B6
100
AcDbEntity
100
AcDbLine
8
KORKULUK_KAPI
10
-12500
20
50
30
0
11
-4300
21
50
31
0
0
LINE
5
C1EE
330
C1B6
100
AcDbEntity
100
AcDbLine
8
KORKULUK_KAPI
10
-1800
20
50
30
0
11
12500
21
50
31
0
0
LINE
5
C1EF
330
C1B6
100
AcDbEntity
100
AcDbLine
8
KORKULUK_KAPI
10
-12500
20
1950
30
0
11
-4300
21
1950
31
0
0
LINE
5
C1F0
330
C1B6
100
AcDbEntity
100
AcDbLine
8
KORKULUK_KAPI
10
-1800
20
1950
30
0
11
12500
21
1950
31
0
0
LINE
5
C264
330
C1B6
100
AcDbEntity
100
AcDbLine
8
KORKULUK_KAPI
10
-12500
20
-4900
30
0
11
12500
21
-4900
31
0
0
LWPOLYLINE
5
C265
330
C1B6
100
AcDbEntity
100
AcDbPolyline
8
KORKULUK_KAPI
6
ByLayer
62
256
370
-1
90
4
70
1
10
-4300
20
-6000
10
-4300
20
-4300
10
-1800
20
-4300
10
-1800
20
-6000
0
CIRCLE
5
C1F1
330
C1B6
100
AcDbEntity
100
AcDbCircle
8
MONTAJ_BORULARI
10
-10000
20
1350
30
0
40
200
0
CIRCLE
5
C1F2
330
C1B6
100
AcDbEntity
100
AcDbCircle
8
MONTAJ_BORULARI
10
-10000
20
1350
30
0
40
270
0
CIRCLE
5
C1F3
330
C1B6
100
AcDbEntity
100
AcDbCircle
8
MONTAJ_BORULARI
10
-5000
20
1350
30
0
40
200
0
CIRCLE
5
C1F4
330
C1B6
100
AcDbEntity
100
AcDbCircle
8
MONTAJ_BORULARI
10
-5000
20
1350
30
0
40
270
0
CIRCLE
5
C1F5
330
C1B6
100
AcDbEntity
100
AcDbCircle
8
MONTAJ_BORULARI
10
0
20
1350
30
0
40
200
0
CIRCLE
5
C1F6
330
C1B6
100
AcDbEntity
100
AcDbCircle
8
MONTAJ_BORULARI
10
0
20
1350
30
0
40
270
0
CIRCLE
5
C1F7
330
C1B6
100
AcDbEntity
100
AcDbCircle
8
MONTAJ_BORULARI
10
5000
20
1350
30
0
40
200
0
CIRCLE
5
C1F8
330
C1B6
100
AcDbEntity
100
AcDbCircle
8
MONTAJ_BORULARI
10
5000
20
1350
30
0
40
270
0
CIRCLE
5
C1F9
330
C1B6
100
AcDbEntity
100
AcDbCircle
8
MONTAJ_BORULARI
10
10000
20
1350
30
0
40
200
0
CIRCLE
5
C1FA
330
C1B6
100
AcDbEntity
100
AcDbCircle
8
MONTAJ_BORULARI
10
10000
20
1350
30
0
40
270
0
LWPOLYLINE
5
C26E
330
C1B6
100
AcDbEntity
100
AcDbPolyline
8
MONTAJ_BORULARI
6
ByLayer
62
256
370
-1
90
4
70
1
10
-2490
20
-6000
10
-2490
20
-5985
10
-2310
20
-5985
10
-2310
20
-6000
0
LWPOLYLINE
5
C26F
330
C1B6
100
AcDbEntity
100
AcDbPolyline
8
MONTAJ_BORULARI
6
ByLayer
62
256
370
-1
90
4
70
1
10
-2430
20
-5985
10
-2430
20
-4300
10
-2370
20
-4300
10
-2370
20
-5985
0
LWPOLYLINE
5
C270
330
C1B6
100
AcDbEntity
100
AcDbPolyline
8
MONTAJ_BORULARI
6
ByLayer
62
256
370
-1
90
4
70
1
10
-2450
20
-5208
10
-2450
20
-5112
10
-2430
20
-5112
10
-2430
20
-5208
0
LWPOLYLINE
5
C274
330
C1B6
100
AcDbEntity
100
AcDbPolyline
8
MONTAJ_BORULARI
6
ByLayer
62
256
370
-1
90
4
70
1
10
-2450
20
-4428
10
-2450
20
-4332
10
-2430
20
-4332
10
-2430
20
-4428
0
LINE
5
C244
330
C1B6
100
AcDbEntity
100
AcDbLine
8
OLCULER
10
-12500
20
0
30
0
11
-12500
21
-1040
31
0
0
LINE
5
C245
330
C1B6
100
AcDbEntity
100
AcDbLine
8
OLCULER
10
12500
20
0
30
0
11
12500
21
-1040
31
0
0
LINE
5
C246
330
C1B6
100
AcDbEntity
100
AcDbLine
8
OLCULER
10
-12500
20
-1000
30
0
11
12500
21
-1000
31
0
0
LINE
5
C247
330
C1B6
100
AcDbEntity
100
AcDbLine
8
OLCULER
10
-12528
20
-1028
30
0
11
-12472
21
-972
31
0
0
LINE
5
C248
330
C1B6
100
AcDbEntity
100
AcDbLine
8
OLCULER
10
12472
20
-1028
30
0
11
12528
21
-972
31
0
0
TEXT
5
C249
330
C1B6
100
AcDbEntity
100
AcDbText
8
OLCULER
10
0
20
-1084
30
0
40
60
1
25000 mm (TOPLAM BETON KAIDE BOYU)
50
0
7
STANDARD
72
1
11
0
21
-1084
31
0
100
AcDbText
73
2
0
LINE
5
C24A
330
C1B6
100
AcDbEntity
100
AcDbLine
8
OLCULER
10
-4300
20
0
30
0
11
-4300
21
-540
31
0
0
LINE
5
C24B
330
C1B6
100
AcDbEntity
100
AcDbLine
8
OLCULER
10
-1800
20
0
30
0
11
-1800
21
-540
31
0
0
LINE
5
C24C
330
C1B6
100
AcDbEntity
100
AcDbLine
8
OLCULER
10
-4300
20
-500
30
0
11
-1800
21
-500
31
0
0
LINE
5
C24D
330
C1B6
100
AcDbEntity
100
AcDbLine
8
OLCULER
10
-4328
20
-528
30
0
11
-4272
21
-472
31
0
0
LINE
5
C24E
330
C1B6
100
AcDbEntity
100
AcDbLine
8
OLCULER
10
-1828
20
-528
30
0
11
-1772
21
-472
31
0
0
TEXT
5
C24F
330
C1B6
100
AcDbEntity
100
AcDbText
8
OLCULER
10
-3050
20
-584
30
0
40
60
1
2500 mm (KORUMALI ALAN)
50
0
7
STANDARD
72
1
11
-3050
21
-584
31
0
100
AcDbText
73
2
0
LINE
5
C250
330
C1B6
100
AcDbEntity
100
AcDbLine
8
OLCULER
10
-4150
20
0
30
0
11
-4150
21
-290
31
0
0
LINE
5
C251
330
C1B6
100
AcDbEntity
100
AcDbLine
8
OLCULER
10
-3050
20
0
30
0
11
-3050
21
-290
31
0
0
LINE
5
C252
330
C1B6
100
AcDbEntity
100
AcDbLine
8
OLCULER
10
-4150
20
-250
30
0
11
-3050
21
-250
31
0
0
LINE
5
C253
330
C1B6
100
AcDbEntity
100
AcDbLine
8
OLCULER
10
-4178
20
-278
30
0
11
-4122
21
-222
31
0
0
LINE
5
C254
330
C1B6
100
AcDbEntity
100
AcDbLine
8
OLCULER
10
-3078
20
-278
30
0
11
-3022
21
-222
31
0
0
TEXT
5
C255
330
C1B6
100
AcDbEntity
100
AcDbText
8
OLCULER
10
-3600
20
-334
30
0
40
60
1
1100 mm (KAPI 1)
50
0
7
STANDARD
72
1
11
-3600
21
-334
31
0
100
AcDbText
73
2
0
LINE
5
C256
330
C1B6
100
AcDbEntity
100
AcDbLine
8
OLCULER
10
-3050
20
0
30
0
11
-3050
21
-290
31
0
0
LINE
5
C257
330
C1B6
100
AcDbEntity
100
AcDbLine
8
OLCULER
10
-1950
20
0
30
0
11
-1950
21
-290
31
0
0
LINE
5
C258
330
C1B6
100
AcDbEntity
100
AcDbLine
8
OLCULER
10
-3050
20
-250
30
0
11
-1950
21
-250
31
0
0
LINE
5
C259
330
C1B6
100
AcDbEntity
100
AcDbLine
8
OLCULER
10
-3078
20
-278
30
0
11
-3022
21
-222
31
0
0
LINE
5
C25A
330
C1B6
100
AcDbEntity
100
AcDbLine
8
OLCULER
10
-1978
20
-278
30
0
11
-1922
21
-222
31
0
0
TEXT
5
C25B
330
C1B6
100
AcDbEntity
100
AcDbText
8
OLCULER
10
-2500
20
-334
30
0
40
60
1
1100 mm (KAPI 2)
50
0
7
STANDARD
72
1
11
-2500
21
-334
31
0
100
AcDbText
73
2
0
LINE
5
C25C
330
C1B6
100
AcDbEntity
100
AcDbLine
8
OLCULER
10
-12500
20
0
30
0
11
-13140
21
0
31
0
0
LINE
5
C25D
330
C1B6
100
AcDbEntity
100
AcDbLine
8
OLCULER
10
-12500
20
2000
30
0
11
-13140
21
2000
31
0
0
LINE
5
C25E
330
C1B6
100
AcDbEntity
100
AcDbLine
8
OLCULER
10
-13100
20
0
30
0
11
-13100
21
2000
31
0
0
LINE
5
C25F
330
C1B6
100
AcDbEntity
100
AcDbLine
8
OLCULER
10
-13128
20
-28
30
0
11
-13072
21
28
31
0
0
LINE
5
C260
330
C1B6
100
AcDbEntity
100
AcDbLine
8
OLCULER
10
-13128
20
1972
30
0
11
-13072
21
2028
31
0
0
TEXT
5
C261
330
C1B6
100
AcDbEntity
100
AcDbText
8
OLCULER
10
-13142
20
1000
30
0
40
60
1
2000 mm
50
90
7
STANDARD
72
1
11
-13142
21
1000
31
0
100
AcDbText
73
2
0
LWPOLYLINE
5
C278
330
C1B6
100
AcDbEntity
100
AcDbPolyline
8
METIN_BILGI
6
ByLayer
62
256
370
-1
90
4
70
1
10
-12500
20
3500
10
-12500
20
5700
10
-4500
20
5700
10
-4500
20
3500
0
LINE
5
C279
330
C1B6
100
AcDbEntity
100
AcDbLine
8
METIN_BILGI
10
-12500
20
4900
30
0
11
-4500
21
4900
31
0
0
LINE
5
C27A
330
C1B6
100
AcDbEntity
100
AcDbLine
8
METIN_BILGI
10
-12500
20
4200
30
0
11
-4500
21
4200
31
0
0
LINE
5
C27B
330
C1B6
100
AcDbEntity
100
AcDbLine
8
METIN_BILGI
10
-8000
20
3500
30
0
11
-8000
21
4900
31
0
0
TEXT
5
C27C
330
C1B6
100
AcDbEntity
100
AcDbText
8
METIN_BILGI
10
-12300
20
5150
30
0
40
320
1
GALATASARAY STADYUMU GSM ALTYAPI PROJESI
50
0
7
STANDARD
100
AcDbText
0
TEXT
5
C27D
330
C1B6
100
AcDbEntity
100
AcDbText
8
METIN_BILGI
10
-12300
20
4450
30
0
40
260
1
ALAN: CAPRAZ KOSE TRIBUN (DETAYLI YERLESIM) (ALAN 4)
50
0
7
STANDARD
100
AcDbText
0
TEXT
5
C27E
330
C1B6
100
AcDbEntity
100
AcDbText
8
METIN_BILGI
10
-12300
20
3780
30
0
40
200
1
OLCEK: 1:1 mm (1:1 mm)
50
0
7
STANDARD
100
AcDbText
0
TEXT
5
C27F
330
C1B6
100
AcDbEntity
100
AcDbText
8
METIN_BILGI
10
-7800
20
4450
30
0
40
180
1
CIZIM: ANTIGRAVITY CAD / BIM
50
0
7
STANDARD
100
AcDbText
0
TEXT
5
C280
330
C1B6
100
AcDbEntity
100
AcDbText
8
METIN_BILGI
10
-7800
20
3780
30
0
40
180
1
TARIH: 2026-10-05
50
0
7
STANDARD
100
AcDbText
0
CIRCLE
5
C281
330
C1B6
100
AcDbEntity
100
AcDbCircle
8
METIN_BILGI
10
-14000
20
4600
30
0
40
800
0
LINE
5
C282
330
C1B6
100
AcDbEntity
100
AcDbLine
8
METIN_BILGI
10
-14000
20
3880
30
0
11
-14000
21
5320
31
0
0
LINE
5
C283
330
C1B6
100
AcDbEntity
100
AcDbLine
8
METIN_BILGI
10
-14000
20
5320
30
0
11
-14250
21
4900
31
0
0
LINE
5
C284
330
C1B6
100
AcDbEntity
100
AcDbLine
8
METIN_BILGI
10
-14000
20
5320
30
0
11
-13750
21
4900
31
0
0
TEXT
5
C285
330
C1B6
100
AcDbEntity
100
AcDbText
8
METIN_BILGI
10
-14000
20
5600
30
0
40
300
1
K
50
0
7
STANDARD
72
1
11
-14000
21
5600
31
0
100
AcDbText
73
2
0
LWPOLYLINE
5
C286
330
C1B6
100
AcDbEntity
100
AcDbPolyline
8
METIN_BILGI
6
ByLayer
62
256
370
-1
90
4
70
1
10
-3000
20
3200
10
-3000
20
6400
10
8200
20
6400
10
8200
20
3200
0
TEXT
5
C287
330
C1B6
100
AcDbEntity
100
AcDbText
8
METIN_BILGI
10
-2800
20
6100
30
0
40
240
1
EKIPMAN VE ALTYAPI YERLESIM CETVELI (BOM)
50
0
7
STANDARD
100
AcDbText
0
LINE
5
C288
330
C1B6
100
AcDbEntity
100
AcDbLine
8
METIN_BILGI
10
-3000
20
6000
30
0
11
8200
21
6000
31
0
0
LINE
5
C289
330
C1B6
100
AcDbEntity
100
AcDbLine
8
METIN_BILGI
10
-3000
20
5600
30
0
11
8200
21
5600
31
0
0
LINE
5
C28A
330
C1B6
100
AcDbEntity
100
AcDbLine
8
METIN_BILGI
10
-1800
20
3200
30
0
11
-1800
21
6000
31
0
0
LINE
5
C28B
330
C1B6
100
AcDbEntity
100
AcDbLine
8
METIN_BILGI
10
4200
20
3200
30
0
11
4200
21
6000
31
0
0
LINE
5
C28C
330
C1B6
100
AcDbEntity
100
AcDbLine
8
METIN_BILGI
10
6700
20
3200
30
0
11
6700
21
6000
31
0
0
TEXT
5
C28D
330
C1B6
100
AcDbEntity
100
AcDbText
8
METIN_BILGI
10
-2900
20
5720
30
0
40
180
1
NO
50
0
7
STANDARD
100
AcDbText
0
TEXT
5
C28E
330
C1B6
100
AcDbEntity
100
AcDbText
8
METIN_BILGI
10
-1700
20
5720
30
0
40
180
1
EKIPMAN TANIMI
50
0
7
STANDARD
100
AcDbText
0
TEXT
5
C28F
330
C1B6
100
AcDbEntity
100
AcDbText
8
METIN_BILGI
10
4300
20
5720
30
0
40
180
1
BOYUTLAR (GxDxY)
50
0
7
STANDARD
100
AcDbText
0
TEXT
5
C290
330
C1B6
100
AcDbEntity
100
AcDbText
8
METIN_BILGI
10
6800
20
5720
30
0
40
180
1
ADET
50
0
7
STANDARD
100
AcDbText
0
LINE
5
C291
330
C1B6
100
AcDbEntity
100
AcDbLine
8
METIN_BILGI
10
-3000
20
5200
30
0
11
8200
21
5200
31
0
0
TEXT
5
C292
330
C1B6
100
AcDbEntity
100
AcDbText
8
METIN_BILGI
10
-2900
20
5320
30
0
40
160
1
1
50
0
7
STANDARD
100
AcDbText
0
TEXT
5
C293
330
C1B6
100
AcDbEntity
100
AcDbText
8
METIN_BILGI
10
-1700
20
5320
30
0
40
160
1
Beton Kaide Tablasi (Alan 4)
50
0
7
STANDARD
100
AcDbText
0
TEXT
5
C294
330
C1B6
100
AcDbEntity
100
AcDbText
8
METIN_BILGI
10
4300
20
5320
30
0
40
160
1
25000x2000x400 mm
50
0
7
STANDARD
100
AcDbText
0
TEXT
5
C295
330
C1B6
100
AcDbEntity
100
AcDbText
8
METIN_BILGI
10
6800
20
5320
30
0
40
160
1
1
50
0
7
STANDARD
100
AcDbText
0
LINE
5
C296
330
C1B6
100
AcDbEntity
100
AcDbLine
8
METIN_BILGI
10
-3000
20
4800
30
0
11
8200
21
4800
31
0
0
TEXT
5
C297
330
C1B6
100
AcDbEntity
100
AcDbText
8
METIN_BILGI
10
-2900
20
4920
30
0
40
160
1
2
50
0
7
STANDARD
100
AcDbText
0
TEXT
5
C298
330
C1B6
100
AcDbEntity
100
AcDbText
8
METIN_BILGI
10
-1700
20
4920
30
0
40
160
1
2.50m Korumali Panel ve Kayar Kapi
50
0
7
STANDARD
100
AcDbText
0
TEXT
5
C299
330
C1B6
100
AcDbEntity
100
AcDbText
8
METIN_BILGI
10
4300
20
4920
30
0
40
160
1
2500x1700 mm
50
0
7
STANDARD
100
AcDbText
0
TEXT
5
C29A
330
C1B6
100
AcDbEntity
100
AcDbText
8
METIN_BILGI
10
6800
20
4920
30
0
40
160
1
1
50
0
7
STANDARD
100
AcDbText
0
LINE
5
C29B
330
C1B6
100
AcDbEntity
100
AcDbLine
8
METIN_BILGI
10
-3000
20
4400
30
0
11
8200
21
4400
31
0
0
TEXT
5
C29C
330
C1B6
100
AcDbEntity
100
AcDbText
8
METIN_BILGI
10
-2900
20
4520
30
0
40
160
1
3
50
0
7
STANDARD
100
AcDbText
0
TEXT
5
C29D
330
C1B6
100
AcDbEntity
100
AcDbText
8
METIN_BILGI
10
-1700
20
4520
30
0
40
160
1
Canovate 19" 2'li POI Kucuk Rack Sasesi
50
0
7
STANDARD
100
AcDbText
0
TEXT
5
C29E
330
C1B6
100
AcDbEntity
100
AcDbText
8
METIN_BILGI
10
4300
20
4520
30
0
40
160
1
600x700x1000 mm
50
0
7
STANDARD
100
AcDbText
0
TEXT
5
C29F
330
C1B6
100
AcDbEntity
100
AcDbText
8
METIN_BILGI
10
6800
20
4520
30
0
40
160
1
1
50
0
7
STANDARD
100
AcDbText
0
LINE
5
C2A0
330
C1B6
100
AcDbEntity
100
AcDbLine
8
METIN_BILGI
10
-3000
20
4000
30
0
11
8200
21
4000
31
0
0
TEXT
5
C2A1
330
C1B6
100
AcDbEntity
100
AcDbText
8
METIN_BILGI
10
-2900
20
4120
30
0
40
160
1
4
50
0
7
STANDARD
100
AcDbText
0
TEXT
5
C2A2
330
C1B6
100
AcDbEntity
100
AcDbText
8
METIN_BILGI
10
-1700
20
4120
30
0
40
160
1
Prose CB-12-POI-64F-A12 Modulleri
50
0
7
STANDARD
100
AcDbText
0
TEXT
5
C2A3
330
C1B6
100
AcDbEntity
100
AcDbText
8
METIN_BILGI
10
4300
20
4120
30
0
40
160
1
400x350x260 mm
50
0
7
STANDARD
100
AcDbText
0
TEXT
5
C2A4
330
C1B6
100
AcDbEntity
100
AcDbText
8
METIN_BILGI
10
6800
20
4120
30
0
40
160
1
2
50
0
7
STANDARD
100
AcDbText
0
LINE
5
C2A5
330
C1B6
100
AcDbEntity
100
AcDbLine
8
METIN_BILGI
10
-3000
20
3600
30
0
11
8200
21
3600
31
0
0
TEXT
5
C2A6
330
C1B6
100
AcDbEntity
100
AcDbText
8
METIN_BILGI
10
-2900
20
3720
30
0
40
160
1
5
50
0
7
STANDARD
100
AcDbText
0
TEXT
5
C2A7
330
C1B6
100
AcDbEntity
100
AcDbText
8
METIN_BILGI
10
-1700
20
3720
30
0
40
160
1
Tek Tek RRU Modulleri (7 Adet Bagimsiz)
50
0
7
STANDARD
100
AcDbText
0
TEXT
5
C2A8
330
C1B6
100
AcDbEntity
100
AcDbText
8
METIN_BILGI
10
4300
20
3720
30
0
40
160
1
398x145x533 mm
50
0
7
STANDARD
100
AcDbText
0
TEXT
5
C2A9
330
C1B6
100
AcDbEntity
100
AcDbText
8
METIN_BILGI
10
6800
20
3720
30
0
40
160
1
7
50
0
7
STANDARD
100
AcDbText
0
LINE
5
C2AA
330
C1B6
100
AcDbEntity
100
AcDbLine
8
METIN_BILGI
10
-3000
20
3200
30
0
11
8200
21
3200
31
0
0
TEXT
5
C2AB
330
C1B6
100
AcDbEntity
100
AcDbText
8
METIN_BILGI
10
-2900
20
3320
30
0
40
160
1
6
50
0
7
STANDARD
100
AcDbText
0
TEXT
5
C2AC
330
C1B6
100
AcDbEntity
100
AcDbText
8
METIN_BILGI
10
-1700
20
3320
30
0
40
160
1
Spot Beam 30/30 Panel Antenler ve Askilari
50
0
7
STANDARD
100
AcDbText
0
TEXT
5
C2AD
330
C1B6
100
AcDbEntity
100
AcDbText
8
METIN_BILGI
10
4300
20
3320
30
0
40
160
1
990x1130x2810 mm
50
0
7
STANDARD
100
AcDbText
0
TEXT
5
C2AE
330
C1B6
100
AcDbEntity
100
AcDbText
8
METIN_BILGI
10
6800
20
3320
30
0
40
160
1
2
50
0
7
STANDARD
100
AcDbText
0
LWPOLYLINE
5
C221
330
C1B6
100
AcDbEntity
100
AcDbPolyline
8
EKP_TURKCELL_RRU
6
ByLayer
62
256
370
-1
90
4
70
1
10
-2685.5680490707305
20
982.7264834778791
10
-2685.5680490707305
20
1492.726485787559
10
-2545.568048474684
20
1492.726485787559
10
-2545.568048474684
20
982.7264834778791
0
LINE
5
C222
330
C1B6
100
AcDbEntity
100
AcDbLine
8
EKP_TURKCELL_RRU
10
-2660.368048963442
20
982.7264834778791
30
0
11
-2660.368048963442
21
1492.726485787559
31
0
0
LINE
5
C223
330
C1B6
100
AcDbEntity
100
AcDbLine
8
EKP_TURKCELL_RRU
10
-2643.5680488919165
20
1237.7264846327191
30
0
11
-2587.568048653498
21
1237.7264846327191
31
0
0
LINE
5
C224
330
C1B6
100
AcDbEntity
100
AcDbLine
8
EKP_TURKCELL_RRU
10
-2615.5680487727072
20
1209.7264845135098
30
0
11
-2615.5680487727072
21
1265.7264847519284
31
0
0
TEXT
5
C225
330
C1B6
100
AcDbEntity
100
AcDbText
8
EKP_TURKCELL_RRU
10
-2615.5680487727072
20
1261.246484732855
30
0
40
39.20000016689301
1
Turkcell RRU5301 (Alt Kot)
50
0
7
STANDARD
72
1
11
-2615.5680487727072
21
1261.246484732855
31
0
100
AcDbText
73
2
0
LWPOLYLINE
5
C226
330
C1B6
100
AcDbEntity
100
AcDbPolyline
8
EKP_TURKCELL_RRU
6
ByLayer
62
256
370
-1
90
4
70
1
10
-2525.568049070731
20
982.7264834778791
10
-2525.568049070731
20
1492.726485787559
10
-2385.5680484746845
20
1492.726485787559
10
-2385.5680484746845
20
982.7264834778791
0
LINE
5
C227
330
C1B6
100
AcDbEntity
100
AcDbLine
8
EKP_TURKCELL_RRU
10
-2500.3680489634426
20
982.7264834778791
30
0
11
-2500.3680489634426
21
1492.726485787559
31
0
0
LINE
5
C228
330
C1B6
100
AcDbEntity
100
AcDbLine
8
EKP_TURKCELL_RRU
10
-2483.568048891917
20
1237.7264846327191
30
0
11
-2427.5680486534984
21
1237.7264846327191
31
0
0
LINE
5
C229
330
C1B6
100
AcDbEntity
100
AcDbLine
8
EKP_TURKCELL_RRU
10
-2455.5680487727077
20
1209.7264845135098
30
0
11
-2455.5680487727077
21
1265.7264847519284
31
0
0
TEXT
5
C22A
330
C1B6
100
AcDbEntity
100
AcDbText
8
EKP_TURKCELL_RRU
10
-2455.5680487727077
20
1261.246484732855
30
0
40
39.20000016689301
1
Turkcell RRU5502 (Alt Kot)
50
0
7
STANDARD
72
1
11
-2455.5680487727077
21
1261.246484732855
31
0
100
AcDbText
73
2
0
LWPOLYLINE
5
C271
330
C1B6
100
AcDbEntity
100
AcDbPolyline
8
EKP_TURKCELL_RRU
6
ByLayer
62
256
370
-1
90
4
70
1
10
-2830
20
-5400
10
-2830
20
-4920
10
-2450
20
-4920
10
-2450
20
-5400
0
LWPOLYLINE
5
C272
330
C1B6
100
AcDbEntity
100
AcDbPolyline
8
EKP_TURKCELL_RRU
6
ByLayer
62
256
370
-1
90
4
70
1
10
-2716
20
-4920
10
-2716
20
-4890
10
-2564
20
-4890
10
-2564
20
-4920
0
TEXT
5
C273
330
C1B6
100
AcDbEntity
100
AcDbText
8
EKP_TURKCELL_RRU
10
-2640
20
-5160
30
0
40
45
1
TCELL
50
0
7
STANDARD
72
1
11
-2640
21
-5160
31
0
100
AcDbText
73
2
0
LWPOLYLINE
5
C235
330
C1B6
100
AcDbEntity
100
AcDbPolyline
8
EKP_VODAFONE_RRU
6
ByLayer
62
256
370
-1
90
4
70
1
10
-2683.0680514549163
20
966.7264808552748
10
-2683.0680514549163
20
1508.726485787559
10
-2548.0680460904982
20
1508.726485787559
10
-2548.0680460904982
20
966.7264808552748
0
LINE
5
C236
330
C1B6
100
AcDbEntity
100
AcDbLine
8
EKP_VODAFONE_RRU
10
-2658.768050489321
20
966.7264808552748
30
0
11
-2658.768050489321
21
1508.726485787559
31
0
0
LINE
5
C237
330
C1B6
100
AcDbEntity
100
AcDbLine
8
EKP_VODAFONE_RRU
10
-2642.568049845591
20
1237.726483321417
30
0
11
-2588.5680476998236
21
1237.726483321417
31
0
0
LINE
5
C238
330
C1B6
100
AcDbEntity
100
AcDbLine
8
EKP_VODAFONE_RRU
10
-2615.5680487727072
20
1210.7264822485333
30
0
11
-2615.5680487727072
21
1264.7264843943005
31
0
0
TEXT
5
C239
330
C1B6
100
AcDbEntity
100
AcDbText
8
EKP_VODAFONE_RRU
10
-2615.5680487727072
20
1260.4064842226392
30
0
40
37.800001502037055
1
Vodafone RRU5526t (Ust Kot 1)
50
0
7
STANDARD
72
1
11
-2615.5680487727072
21
1260.4064842226392
31
0
100
AcDbText
73
2
0
LWPOLYLINE
5
C23A
330
C1B6
100
AcDbEntity
100
AcDbPolyline
8
EKP_VODAFONE_RRU
6
ByLayer
62
256
370
-1
90
4
70
1
10
-2523.0680514549167
20
966.7264808552748
10
-2523.0680514549167
20
1508.726485787559
10
-2388.0680460904987
20
1508.726485787559
10
-2388.0680460904987
20
966.7264808552748
0
LINE
5
C23B
330
C1B6
100
AcDbEntity
100
AcDbLine
8
EKP_VODAFONE_RRU
10
-2498.7680504893215
20
966.7264808552748
30
0
11
-2498.7680504893215
21
1508.726485787559
31
0
0
LINE
5
C23C
330
C1B6
100
AcDbEntity
100
AcDbLine
8
EKP_VODAFONE_RRU
10
-2482.5680498455913
20
1237.726483321417
30
0
11
-2428.568047699824
21
1237.726483321417
31
0
0
LINE
5
C23D
330
C1B6
100
AcDbEntity
100
AcDbLine
8
EKP_VODAFONE_RRU
10
-2455.5680487727077
20
1210.7264822485333
30
0
11
-2455.5680487727077
21
1264.7264843943005
31
0
0
TEXT
5
C23E
330
C1B6
100
AcDbEntity
100
AcDbText
8
EKP_VODAFONE_RRU
10
-2455.5680487727077
20
1260.4064842226392
30
0
40
37.800001502037055
1
Vodafone RRU5526t (Ust Kot 2)
50
0
7
STANDARD
72
1
11
-2455.5680487727077
21
1260.4064842226392
31
0
100
AcDbText
73
2
0
LWPOLYLINE
5
C23F
330
C1B6
100
AcDbEntity
100
AcDbPolyline
8
EKP_VODAFONE_RRU
6
ByLayer
62
256
370
-1
90
4
70
1
10
-2363.0680514549167
20
966.7264808552748
10
-2363.0680514549167
20
1508.726485787559
10
-2228.0680460904987
20
1508.726485787559
10
-2228.0680460904987
20
966.7264808552748
0
LINE
5
C240
330
C1B6
100
AcDbEntity
100
AcDbLine
8
EKP_VODAFONE_RRU
10
-2338.7680504893215
20
966.7264808552748
30
0
11
-2338.7680504893215
21
1508.726485787559
31
0
0
LINE
5
C241
330
C1B6
100
AcDbEntity
100
AcDbLine
8
EKP_VODAFONE_RRU
10
-2322.5680498455913
20
1237.726483321417
30
0
11
-2268.568047699824
21
1237.726483321417
31
0
0
LINE
5
C242
330
C1B6
100
AcDbEntity
100
AcDbLine
8
EKP_VODAFONE_RRU
10
-2295.5680487727077
20
1210.7264822485333
30
0
11
-2295.5680487727077
21
1264.7264843943005
31
0
0
TEXT
5
C243
330
C1B6
100
AcDbEntity
100
AcDbText
8
EKP_VODAFONE_RRU
10
-2295.5680487727077
20
1260.4064842226392
30
0
40
37.800001502037055
1
Vodafone RRU5526t (Ust Kot 3)
50
0
7
STANDARD
72
1
11
-2295.5680487727077
21
1260.4064842226392
31
0
100
AcDbText
73
2
0
LWPOLYLINE
5
C275
330
C1B6
100
AcDbEntity
100
AcDbPolyline
8
EKP_VODAFONE_RRU
6
ByLayer
62
256
370
-1
90
4
70
1
10
-2830
20
-4620
10
-2830
20
-4140
10
-2450
20
-4140
10
-2450
20
-4620
0
LWPOLYLINE
5
C276
330
C1B6
100
AcDbEntity
100
AcDbPolyline
8
EKP_VODAFONE_RRU
6
ByLayer
62
256
370
-1
90
4
70
1
10
-2716
20
-4140
10
-2716
20
-4110
10
-2564
20
-4110
10
-2564
20
-4140
0
TEXT
5
C277
330
C1B6
100
AcDbEntity
100
AcDbText
8
EKP_VODAFONE_RRU
10
-2640
20
-4380
30
0
40
45
1
VODA
50
0
7
STANDARD
72
1
11
-2640
21
-4380
31
0
100
AcDbText
73
2
0
LWPOLYLINE
5
C22B
330
C1B6
100
AcDbEntity
100
AcDbPolyline
8
EKP_TURK_TELEKOM_RRU
6
ByLayer
62
256
370
-1
90
4
70
1
10
-2365.568049070731
20
1004.7264833586701
10
-2365.568049070731
20
1470.7264857875593
10
-2225.5680484746845
20
1470.7264857875593
10
-2225.5680484746845
20
1004.7264833586701
0
LINE
5
C22C
330
C1B6
100
AcDbEntity
100
AcDbLine
8
EKP_TURK_TELEKOM_RRU
10
-2340.3680489634426
20
1004.7264833586701
30
0
11
-2340.3680489634426
21
1470.7264857875593
31
0
0
LINE
5
C22D
330
C1B6
100
AcDbEntity
100
AcDbLine
8
EKP_TURK_TELEKOM_RRU
10
-2323.568048891917
20
1237.7264845731147
30
0
11
-2267.5680486534984
21
1237.7264845731147
31
0
0
LINE
5
C22E
330
C1B6
100
AcDbEntity
100
AcDbLine
8
EKP_TURK_TELEKOM_RRU
10
-2295.5680487727077
20
1209.7264844539054
30
0
11
-2295.5680487727077
21
1265.726484692324
31
0
0
TEXT
5
C22F
330
C1B6
100
AcDbEntity
100
AcDbText
8
EKP_TURK_TELEKOM_RRU
10
-2295.5680487727077
20
1261.2464846732505
30
0
40
39.20000016689301
1
TT RRU5527 (Alt Kot)
50
0
7
STANDARD
72
1
11
-2295.5680487727077
21
1261.2464846732505
31
0
100
AcDbText
73
2
0
LWPOLYLINE
5
C230
330
C1B6
100
AcDbEntity
100
AcDbPolyline
8
EKP_TURK_TELEKOM_RRU
6
ByLayer
62
256
370
-1
90
4
70
1
10
-2205.568049070731
20
1004.7264833586701
10
-2205.568049070731
20
1470.7264857875593
10
-2065.5680484746845
20
1470.7264857875593
10
-2065.5680484746845
20
1004.7264833586701
0
LINE
5
C231
330
C1B6
100
AcDbEntity
100
AcDbLine
8
EKP_TURK_TELEKOM_RRU
10
-2180.3680489634426
20
1004.7264833586701
30
0
11
-2180.3680489634426
21
1470.7264857875593
31
0
0
LINE
5
C232
330
C1B6
100
AcDbEntity
100
AcDbLine
8
EKP_TURK_TELEKOM_RRU
10
-2163.568048891917
20
1237.7264845731147
30
0
11
-2107.5680486534984
21
1237.7264845731147
31
0
0
LINE
5
C233
330
C1B6
100
AcDbEntity
100
AcDbLine
8
EKP_TURK_TELEKOM_RRU
10
-2135.5680487727077
20
1209.7264844539054
30
0
11
-2135.5680487727077
21
1265.726484692324
31
0
0
TEXT
5
C234
330
C1B6
100
AcDbEntity
100
AcDbText
8
EKP_TURK_TELEKOM_RRU
10
-2135.5680487727077
20
1261.2464846732505
30
0
40
39.20000016689301
1
TT RRU5818W (Alt Kot)
50
0
7
STANDARD
72
1
11
-2135.5680487727077
21
1261.2464846732505
31
0
100
AcDbText
73
2
0
LWPOLYLINE
5
C20F
330
C1B6
100
AcDbEntity
100
AcDbPolyline
8
EKP_POI_TASIYICI_SASE
6
ByLayer
62
256
370
-1
90
4
70
1
10
-4034.1268088287143
20
923.4661973048301
10
-4034.1268088287143
20
1623.4661853839011
10
-3414.1268082326674
20
1623.4661853839011
10
-3414.1268082326674
20
923.4661973048301
0
LWPOLYLINE
5
C210
330
C1B6
100
AcDbEntity
100
AcDbPolyline
8
EKP_POI_TASIYICI_SASE
6
ByLayer
62
256
370
-1
90
4
70
1
10
-4034.1268088287143
20
923.4661973048301
10
-4034.1268088287143
20
983.4661973048301
10
-3974.1268088287143
20
983.4661973048301
10
-3974.1268088287143
20
923.4661973048301
0
LWPOLYLINE
5
C211
330
C1B6
100
AcDbEntity
100
AcDbPolyline
8
EKP_POI_TASIYICI_SASE
6
ByLayer
62
256
370
-1
90
4
70
1
10
-3474.1268082326674
20
923.4661973048301
10
-3474.1268082326674
20
983.4661973048301
10
-3414.1268082326674
20
983.4661973048301
10
-3414.1268082326674
20
923.4661973048301
0
LWPOLYLINE
5
C212
330
C1B6
100
AcDbEntity
100
AcDbPolyline
8
EKP_POI_TASIYICI_SASE
6
ByLayer
62
256
370
-1
90
4
70
1
10
-4034.1268088287143
20
1563.4661853839011
10
-4034.1268088287143
20
1623.4661853839011
10
-3974.1268088287143
20
1623.4661853839011
10
-3974.1268088287143
20
1563.4661853839011
0
LWPOLYLINE
5
C213
330
C1B6
100
AcDbEntity
100
AcDbPolyline
8
EKP_POI_TASIYICI_SASE
6
ByLayer
62
256
370
-1
90
4
70
1
10
-3474.1268082326674
20
1563.4661853839011
10
-3474.1268082326674
20
1623.4661853839011
10
-3414.1268082326674
20
1623.4661853839011
10
-3414.1268082326674
20
1563.4661853839011
0
LWPOLYLINE
5
C214
330
C1B6
100
AcDbEntity
100
AcDbPolyline
8
EKP_POI_TASIYICI_SASE
6
ByLayer
62
256
370
-1
90
4
70
1
10
-3990.4268085306912
20
983.4661973048301
10
-3990.4268085306912
20
1563.4661853839011
10
-3965.4268085306912
20
1563.4661853839011
10
-3965.4268085306912
20
983.4661973048301
0
LWPOLYLINE
5
C215
330
C1B6
100
AcDbEntity
100
AcDbPolyline
8
EKP_POI_TASIYICI_SASE
6
ByLayer
62
256
370
-1
90
4
70
1
10
-3482.826808530691
20
983.4661973048301
10
-3482.826808530691
20
1563.4661853839011
10
-3457.826808530691
20
1563.4661853839011
10
-3457.826808530691
20
983.4661973048301
0
TEXT
5
C216
330
C1B6
100
AcDbEntity
100
AcDbText
8
EKP_POI_TASIYICI_SASE
10
-3724.126808530691
20
1273.4661913443656
30
0
40
55
1
2'li POI Kucuk Rack Blogu (2x POI Dolu) (Alan 3)
50
0
7
STANDARD
72
1
11
-3724.126808530691
21
1273.4661913443656
31
0
100
AcDbText
73
2
0
LWPOLYLINE
5
C266
330
C1B6
100
AcDbEntity
100
AcDbPolyline
8
EKP_POI_TASIYICI_SASE
6
ByLayer
62
256
370
-1
90
4
70
1
10
-3720
20
-6000
10
-3720
20
-5900
10
-3120
20
-5900
10
-3120
20
-6000
0
LWPOLYLINE
5
C267
330
C1B6
100
AcDbEntity
100
AcDbPolyline
8
EKP_POI_TASIYICI_SASE
6
ByLayer
62
256
370
-1
90
4
70
1
10
-3720
20
-5060
10
-3720
20
-5000
10
-3120
20
-5000
10
-3120
20
-5060
0
LWPOLYLINE
5
C268
330
C1B6
100
AcDbEntity
100
AcDbPolyline
8
EKP_POI_TASIYICI_SASE
6
ByLayer
62
256
370
-1
90
4
70
1
10
-3720
20
-5900
10
-3720
20
-5060
10
-3670
20
-5060
10
-3670
20
-5900
0
LWPOLYLINE
5
C269
330
C1B6
100
AcDbEntity
100
AcDbPolyline
8
EKP_POI_TASIYICI_SASE
6
ByLayer
62
256
370
-1
90
4
70
1
10
-3170
20
-5900
10
-3170
20
-5060
10
-3120
20
-5060
10
-3120
20
-5900
0
LWPOLYLINE
5
C217
330
C1B6
100
AcDbEntity
100
AcDbPolyline
8
EKP_POI_MODULLERI
6
ByLayer
62
256
370
-1
90
4
70
1
10
-3964.1268080836558
20
1073.466191158101
10
-3964.1268080836558
20
1448.4661883641334
10
-3484.126808977725
20
1448.4661883641334
10
-3484.126808977725
20
1073.466191158101
0
LINE
5
C218
330
C1B6
100
AcDbEntity
100
AcDbLine
8
EKP_POI_MODULLERI
10
-3964.1268080836558
20
1129.716190739006
30
0
11
-3484.126808977725
21
1129.716190739006
31
0
0
LINE
5
C219
330
C1B6
100
AcDbEntity
100
AcDbLine
8
EKP_POI_MODULLERI
10
-3791.6268080277764
20
1260.9661897611172
30
0
11
-3656.626809033605
21
1260.9661897611172
31
0
0
LINE
5
C21A
330
C1B6
100
AcDbEntity
100
AcDbLine
8
EKP_POI_MODULLERI
10
-3724.1268085306906
20
1193.4661902640314
30
0
11
-3724.1268085306906
21
1328.466189258203
31
0
0
TEXT
5
C21B
330
C1B6
100
AcDbEntity
100
AcDbText
8
EKP_POI_MODULLERI
10
-3724.1268085306906
20
1287.9661897611172
30
0
40
45
1
CB-12-POI-64F-A12 (5G NR POI)
50
0
7
STANDARD
72
1
11
-3724.1268085306906
21
1287.9661897611172
31
0
100
AcDbText
73
2
0
LWPOLYLINE
5
C21C
330
C1B6
100
AcDbEntity
100
AcDbPolyline
8
EKP_POI_MODULLERI
6
ByLayer
62
256
370
-1
90
4
70
1
10
-3964.1268080836558
20
1073.466191158101
10
-3964.1268080836558
20
1448.4661883641334
10
-3484.126808977725
20
1448.4661883641334
10
-3484.126808977725
20
1073.466191158101
0
LINE
5
C21D
330
C1B6
100
AcDbEntity
100
AcDbLine
8
EKP_POI_MODULLERI
10
-3964.1268080836558
20
1129.716190739006
30
0
11
-3484.126808977725
21
1129.716190739006
31
0
0
LINE
5
C21E
330
C1B6
100
AcDbEntity
100
AcDbLine
8
EKP_POI_MODULLERI
10
-3791.6268080277764
20
1260.9661897611172
30
0
11
-3656.626809033605
21
1260.9661897611172
31
0
0
LINE
5
C21F
330
C1B6
100
AcDbEntity
100
AcDbLine
8
EKP_POI_MODULLERI
10
-3724.1268085306906
20
1193.4661902640314
30
0
11
-3724.1268085306906
21
1328.466189258203
31
0
0
TEXT
5
C220
330
C1B6
100
AcDbEntity
100
AcDbText
8
EKP_POI_MODULLERI
10
-3724.1268085306906
20
1287.9661897611172
30
0
40
45
1
CB-12-POI-64F-A12 (5G NR POI)
50
0
7
STANDARD
72
1
11
-3724.1268085306906
21
1287.9661897611172
31
0
100
AcDbText
73
2
0
LWPOLYLINE
5
C26A
330
C1B6
100
AcDbEntity
100
AcDbPolyline
8
EKP_POI_MODULLERI
6
ByLayer
62
256
370
-1
90
4
70
1
10
-3660
20
-5885
10
-3660
20
-5625
10
-3180
20
-5625
10
-3180
20
-5885
0
TEXT
5
C26B
330
C1B6
100
AcDbEntity
100
AcDbText
8
EKP_POI_MODULLERI
10
-3420
20
-5755
30
0
40
40
1
POI-1
50
0
7
STANDARD
72
1
11
-3420
21
-5755
31
0
100
AcDbText
73
2
0
LWPOLYLINE
5
C26C
330
C1B6
100
AcDbEntity
100
AcDbPolyline
8
EKP_POI_MODULLERI
6
ByLayer
62
256
370
-1
90
4
70
1
10
-3660
20
-5570
10
-3660
20
-5310
10
-3180
20
-5310
10
-3180
20
-5570
0
TEXT
5
C26D
330
C1B6
100
AcDbEntity
100
AcDbText
8
EKP_POI_MODULLERI
10
-3420
20
-5440
30
0
40
40
1
POI-2
50
0
7
STANDARD
72
1
11
-3420
21
-5440
31
0
100
AcDbText
73
2
0
LWPOLYLINE
5
C1FB
330
C1B6
100
AcDbEntity
100
AcDbPolyline
8
EKP_PANEL_ANTEN
6
ByLayer
62
256
370
-1
90
4
70
1
10
-3266.3090024664093
20
-32113.619031457456
10
-3266.3090024664093
20
-30981.64861288233
10
-2278.648612882328
20
-30981.64861288233
10
-2278.648612882328
20
-32113.619031457456
0
LINE
5
C1FC
330
C1B6
100
AcDbEntity
100
AcDbLine
8
EKP_PANEL_ANTEN
10
-2970.010885591185
20
-31547.633822169893
30
0
11
-2574.946729757552
21
-31547.633822169893
31
0
0
LINE
5
C1FD
330
C1B6
100
AcDbEntity
100
AcDbLine
8
EKP_PANEL_ANTEN
10
-2772.4788076743685
20
-31774.02790588492
30
0
11
-2772.4788076743685
21
-31321.239738454868
31
0
0
LINE
5
C1FE
330
C1B6
100
AcDbEntity
100
AcDbLine
8
EKP_PANEL_ANTEN
10
-2772.4788076743685
20
-31887.22494774243
30
0
11
-2772.4788076743685
21
-31208.042696597357
31
0
0
TEXT
5
C1FF
330
C1B6
100
AcDbEntity
100
AcDbText
8
EKP_PANEL_ANTEN
10
-2772.4788076743685
20
-31547.633822169893
30
0
40
60
1
Spot Beam 30/30 Panel Anten Cati Tasiyicisi Asili Montaji (Alan 3 - Anten 1)
50
0
7
STANDARD
72
1
11
-2772.4788076743685
21
-31547.633822169893
31
0
100
AcDbText
73
2
0
LWPOLYLINE
5
C200
330
C1B6
100
AcDbEntity
100
AcDbPolyline
8
EKP_PANEL_ANTEN
6
ByLayer
62
256
370
-1
90
4
70
1
10
-3266.3090024664093
20
-31969.309002466416
10
-3266.3090024664093
20
-30981.64861288233
10
-2278.648612882328
20
-30981.64861288233
10
-2278.648612882328
20
-31969.309002466416
0
LINE
5
C201
330
C1B6
100
AcDbEntity
100
AcDbLine
8
EKP_PANEL_ANTEN
10
-2970.010885591185
20
-31475.47880767437
30
0
11
-2574.946729757552
21
-31475.47880767437
31
0
0
LINE
5
C202
330
C1B6
100
AcDbEntity
100
AcDbLine
8
EKP_PANEL_ANTEN
10
-2772.4788076743685
20
-31673.01088559119
30
0
11
-2772.4788076743685
21
-31277.946729757554
31
0
0
LINE
5
C203
330
C1B6
100
AcDbEntity
100
AcDbLine
8
EKP_PANEL_ANTEN
10
-2772.4788076743685
20
-31771.7769245496
30
0
11
-2772.4788076743685
21
-31179.18069079915
31
0
0
TEXT
5
C204
330
C1B6
100
AcDbEntity
100
AcDbText
8
EKP_PANEL_ANTEN
10
-2772.4788076743685
20
-31475.47880767437
30
0
40
60
1
Spot Beam 30/30 4-Port Panel Anten (DOY15X3030MD4TRE)
50
0
7
STANDARD
72
1
11
-2772.4788076743685
21
-31475.47880767437
31
0
100
AcDbText
73
2
0
LWPOLYLINE
5
C205
330
C1B6
100
AcDbEntity
100
AcDbPolyline
8
EKP_PANEL_ANTEN
6
ByLayer
62
256
370
-1
90
4
70
1
10
-3266.3090024664093
20
-33104.619031457456
10
-3266.3090024664093
20
-31972.64861288233
10
-2278.648612882328
20
-31972.64861288233
10
-2278.648612882328
20
-33104.619031457456
0
LINE
5
C206
330
C1B6
100
AcDbEntity
100
AcDbLine
8
EKP_PANEL_ANTEN
10
-2970.010885591185
20
-32538.633822169893
30
0
11
-2574.946729757552
21
-32538.633822169893
31
0
0
LINE
5
C207
330
C1B6
100
AcDbEntity
100
AcDbLine
8
EKP_PANEL_ANTEN
10
-2772.4788076743685
20
-32765.02790588492
30
0
11
-2772.4788076743685
21
-32312.239738454868
31
0
0
LINE
5
C208
330
C1B6
100
AcDbEntity
100
AcDbLine
8
EKP_PANEL_ANTEN
10
-2772.4788076743685
20
-32878.224947742434
30
0
11
-2772.4788076743685
21
-32199.042696597357
31
0
0
TEXT
5
C209
330
C1B6
100
AcDbEntity
100
AcDbText
8
EKP_PANEL_ANTEN
10
-2772.4788076743685
20
-32538.633822169893
30
0
40
60
1
Spot Beam 30/30 Panel Anten Cati Tasiyicisi Asili Montaji (Alan 3 - Anten 2)
50
0
7
STANDARD
72
1
11
-2772.4788076743685
21
-32538.633822169893
31
0
100
AcDbText
73
2
0
LWPOLYLINE
5
C20A
330
C1B6
100
AcDbEntity
100
AcDbPolyline
8
EKP_PANEL_ANTEN
6
ByLayer
62
256
370
-1
90
4
70
1
10
-3266.3090024664093
20
-32960.30900246641
10
-3266.3090024664093
20
-31972.64861288233
10
-2278.648612882328
20
-31972.64861288233
10
-2278.648612882328
20
-32960.30900246641
0
LINE
5
C20B
330
C1B6
100
AcDbEntity
100
AcDbLine
8
EKP_PANEL_ANTEN
10
-2970.010885591185
20
-32466.47880767437
30
0
11
-2574.946729757552
21
-32466.47880767437
31
0
0
LINE
5
C20C
330
C1B6
100
AcDbEntity
100
AcDbLine
8
EKP_PANEL_ANTEN
10
-2772.4788076743685
20
-32664.01088559119
30
0
11
-2772.4788076743685
21
-32268.946729757554
31
0
0
LINE
5
C20D
330
C1B6
100
AcDbEntity
100
AcDbLine
8
EKP_PANEL_ANTEN
10
-2772.4788076743685
20
-32762.776924549595
30
0
11
-2772.4788076743685
21
-32170.180690799145
31
0
0
TEXT
5
C20E
330
C1B6
100
AcDbEntity
100
AcDbText
8
EKP_PANEL_ANTEN
10
-2772.4788076743685
20
-32466.47880767437
30
0
40
60
1
Spot Beam 30/30 4-Port Panel Anten (DOY15X3030MD4TRE)
50
0
7
STANDARD
72
1
11
-2772.4788076743685
21
-32466.47880767437
31
0
100
AcDbText
73
2
0
ENDSEC
0
SECTION
2
OBJECTS
0
DICTIONARY
5
C1A4
330
0
100
AcDbDictionary
281
1
3
ACAD_GROUP
350
C1BA
0
DICTIONARY
5
C1BA
330
C1A4
100
AcDbDictionary
281
1
0
ENDSEC
0
EOF