0
SECTION
2
HEADER
9
$HANDSEED
5
D31A
9
$INSUNITS
70
4
9
$ACADVER
1
AC1021
9
$DWGCODEPAGE
3
UTF-8
0
ENDSEC
0
SECTION
2
CLASSES
0
ENDSEC
0
SECTION
2
TABLES
0
TABLE
2
LTYPE
5
D318
330
0
100
AcDbSymbolTable
70
5
0
LTYPE
5
D193
330
D318
100
AcDbSymbolTableRecord
100
AcDbLinetypeTableRecord
2
CONTINUOUS
3
______
70
0
72
65
73
0
40
0
0
LTYPE
5
D194
330
D318
100
AcDbSymbolTableRecord
100
AcDbLinetypeTableRecord
2
DASHED
3
_ _ _ 
70
0
72
65
73
2
40
10
49
5
74
0
49
-5
74
0
0
LTYPE
5
D195
330
D318
100
AcDbSymbolTableRecord
100
AcDbLinetypeTableRecord
2
DOTTED
3
. . . 
70
0
72
65
73
2
40
5
49
0
74
0
49
-5
74
0
0
LTYPE
5
D197
330
D318
100
AcDbSymbolTableRecord
100
AcDbLinetypeTableRecord
2
ByBlock
3

70
0
72
65
73
0
40
0
0
LTYPE
5
D198
330
D318
100
AcDbSymbolTableRecord
100
AcDbLinetypeTableRecord
2
ByLayer
3

70
0
72
65
73
0
40
0
0
ENDTAB
0
TABLE
2
LAYER
5
D319
330
0
100
AcDbSymbolTable
70
21
0
LAYER
5
D196
330
D319
100
AcDbSymbolTableRecord
100
AcDbLayerTableRecord
2
0
62
7
70
0
6
CONTINUOUS
390
1
0
LAYER
5
D1A9
330
D319
100
AcDbSymbolTableRecord
100
AcDbLayerTableRecord
2
ZEMIN_PLATFORM
62
8
70
0
6
CONTINUOUS
390
1
0
LAYER
5
D1AA
330
D319
100
AcDbSymbolTableRecord
100
AcDbLayerTableRecord
2
KORKULUK_KAPI
62
4
70
0
6
CONTINUOUS
390
1
0
LAYER
5
D1AB
330
D319
100
AcDbSymbolTableRecord
100
AcDbLayerTableRecord
2
CELIK_KIRIS_KOLON
62
9
70
0
6
CONTINUOUS
390
1
0
LAYER
5
D1AC
330
D319
100
AcDbSymbolTableRecord
100
AcDbLayerTableRecord
2
MONTAJ_BORULARI
62
2
70
0
6
CONTINUOUS
390
1
0
LAYER
5
D1AD
330
D319
100
AcDbSymbolTableRecord
100
AcDbLayerTableRecord
2
KABLO_TAVALARI
62
6
70
0
6
CONTINUOUS
390
1
0
LAYER
5
D1AE
330
D319
100
AcDbSymbolTableRecord
100
AcDbLayerTableRecord
2
YURUYUS_KORIDORU
62
3
70
0
6
DASHED
390
1
0
LAYER
5
D1AF
330
D319
100
AcDbSymbolTableRecord
100
AcDbLayerTableRecord
2
OLCULER
62
1
70
0
6
CONTINUOUS
390
1
0
LAYER
5
D1B0
330
D319
100
AcDbSymbolTableRecord
100
AcDbLayerTableRecord
2
METIN_BILGI
62
7
70
0
6
CONTINUOUS
390
1
0
LAYER
5
D1B1
330
D319
100
AcDbSymbolTableRecord
100
AcDbLayerTableRecord
2
EKP_TURKCELL_RRU
62
5
70
0
6
CONTINUOUS
390
1
0
LAYER
5
D1B2
330
D319
100
AcDbSymbolTableRecord
100
AcDbLayerTableRecord
2
EKP_VODAFONE_RRU
62
1
70
0
6
CONTINUOUS
390
1
0
LAYER
5
D1B3
330
D319
100
AcDbSymbolTableRecord
100
AcDbLayerTableRecord
2
EKP_TURK_TELEKOM_RRU
62
4
70
0
6
CONTINUOUS
390
1
0
LAYER
5
D1B4
330
D319
100
AcDbSymbolTableRecord
100
AcDbLayerTableRecord
2
EKP_POI_TASIYICI_SASE
62
30
70
0
6
CONTINUOUS
390
1
0
LAYER
5
D1B5
330
D319
100
AcDbSymbolTableRecord
100
AcDbLayerTableRecord
2
EKP_POI_MODULLERI
62
40
70
0
6
CONTINUOUS
390
1
0
LAYER
5
D1B6
330
D319
100
AcDbSymbolTableRecord
100
AcDbLayerTableRecord
2
EKP_RECTIFIER_ELTEK_20U
62
3
70
0
6
CONTINUOUS
390
1
0
LAYER
5
D1B7
330
D319
100
AcDbSymbolTableRecord
100
AcDbLayerTableRecord
2
EKP_RECTIFIER_MTS9304A
62
94
70
0
6
CONTINUOUS
390
1
0
LAYER
5
D1B8
330
D319
100
AcDbSymbolTableRecord
100
AcDbLayerTableRecord
2
BLOK_OZEL_PLATFORM
62
140
70
0
6
CONTINUOUS
390
1
0
LAYER
5
D1B9
330
D319
100
AcDbSymbolTableRecord
100
AcDbLayerTableRecord
2
EKP_MATSING_ANTEN
62
2
70
0
6
CONTINUOUS
390
1
0
LAYER
5
D1BA
330
D319
100
AcDbSymbolTableRecord
100
AcDbLayerTableRecord
2
EKP_PANEL_ANTEN
62
6
70
0
6
CONTINUOUS
390
1
0
LAYER
5
D1BB
330
D319
100
AcDbSymbolTableRecord
100
AcDbLayerTableRecord
2
EKP_ANTEN_TASIYICI_KOL
62
141
70
0
6
CONTINUOUS
390
1
0
LAYER
5
D1BC
330
D319
100
AcDbSymbolTableRecord
100
AcDbLayerTableRecord
2
EKP_DIGER_EKIPMANLAR
62
7
70
0
6
CONTINUOUS
390
1
0
ENDTAB
0
TABLE
2
VPORT
5
D199
330
0
100
AcDbSymbolTable
70
1
0
VPORT
5
D19F
330
D199
100
AcDbSymbolTableRecord
100
AcDbViewportTableRecord
2
*ACTIVE
40
1000
70
0
0
ENDTAB
0
TABLE
2
STYLE
5
D19A
330
0
100
AcDbSymbolTable
70
3
0
STYLE
5
D1A0
330
D19A
100
AcDbSymbolTableRecord
100
AcDbTextStyleTableRecord
2
standard
70
0
40
0
41
1
50
0
71
0
42
1
3
calibrib.ttf
4

1001
ACAD
1000
Calibri
1071
33554466
0
STYLE
5
D1A1
330
D19A
100
AcDbSymbolTableRecord
100
AcDbTextStyleTableRecord
2
STANDARD
70
0
40
0
41
1
50
0
71
0
42
1
3
calibrib.ttf
4

1001
ACAD
1000
Calibri
1071
33554466
0
STYLE
5
D1A2
330
D19A
100
AcDbSymbolTableRecord
100
AcDbTextStyleTableRecord
2
CALIBRI_BOLD
70
0
40
0
41
1
50
0
71
0
42
1
3
calibrib.ttf
4

1001
ACAD
1000
Calibri
1071
33554466
0
ENDTAB
0
TABLE
2
VIEW
5
D19B
330
0
100
AcDbSymbolTable
70
0
0
ENDTAB
0
TABLE
2
UCS
5
D19C
330
0
100
AcDbSymbolTable
70
0
0
ENDTAB
0
TABLE
2
APPID
5
D19D
330
0
100
AcDbSymbolTable
70
1
0
APPID
5
D1A3
330
D19D
100
AcDbSymbolTableRecord
100
AcDbRegAppTableRecord
2
ACAD
70
0
0
ENDTAB
0
TABLE
2
DIMSTYLE
5
D19E
330
0
100
AcDbSymbolTable
100
AcDbDimStyleTable
70
0
71
1
0
ENDTAB
0
TABLE
2
BLOCK_RECORD
5
D315
330
0
100
AcDbSymbolTable
70
2
0
BLOCK_RECORD
5
D316
330
D315
100
AcDbSymbolTableRecord
100
AcDbBlockTableRecord
2
*Model_Space
70
0
280
0
281
1
0
BLOCK_RECORD
5
D317
330
D315
100
AcDbSymbolTableRecord
100
AcDbBlockTableRecord
2
*Paper_Space
70
0
280
0
281
1
0
ENDTAB
0
ENDSEC
0
SECTION
2
BLOCKS
0
BLOCK
5
D1A4
330
0
100
AcDbEntity
100
AcDbBlockBegin
2
*Model_Space
70
0
10
0
20
0
30
0
3
*Model_Space
1

0
ENDBLK
5
D1A5
330
0
100
AcDbEntity
100
AcDbBlockEnd
0
BLOCK
5
D1A6
330
0
100
AcDbEntity
100
AcDbBlockBegin
2
*Paper_Space
70
0
10
0
20
0
30
0
3
*Paper_Space
1

0
ENDBLK
5
D1A7
330
0
100
AcDbEntity
100
AcDbBlockEnd
0
ENDSEC
0
SECTION
2
ENTITIES
0
CIRCLE
5
D1C5
330
D1A4
100
AcDbEntity
100
AcDbCircle
8
MONTAJ_BORULARI
10
-800
20
-540
30
0
40
25
0
LWPOLYLINE
5
D1C6
330
D1A4
100
AcDbEntity
100
AcDbPolyline
8
MONTAJ_BORULARI
6
ByLayer
62
256
370
-1
90
4
70
1
10
-880
20
-620
10
-880
20
-460
10
-720
20
-460
10
-720
20
-620
0
TEXT
5
D1C7
330
D1A4
100
AcDbEntity
100
AcDbText
8
MONTAJ_BORULARI
10
-800
20
-660
30
0
40
70
1
POL 1
50
0
7
STANDARD
72
1
11
-800
21
-660
31
0
100
AcDbText
73
0
0
CIRCLE
5
D1C8
330
D1A4
100
AcDbEntity
100
AcDbCircle
8
MONTAJ_BORULARI
10
-800
20
-360
30
0
40
25
0
LWPOLYLINE
5
D1C9
330
D1A4
100
AcDbEntity
100
AcDbPolyline
8
MONTAJ_BORULARI
6
ByLayer
62
256
370
-1
90
4
70
1
10
-880
20
-440
10
-880
20
-280
10
-720
20
-280
10
-720
20
-440
0
TEXT
5
D1CA
330
D1A4
100
AcDbEntity
100
AcDbText
8
MONTAJ_BORULARI
10
-800
20
-480
30
0
40
70
1
POL 2
50
0
7
STANDARD
72
1
11
-800
21
-480
31
0
100
AcDbText
73
0
0
CIRCLE
5
D1CB
330
D1A4
100
AcDbEntity
100
AcDbCircle
8
MONTAJ_BORULARI
10
-800
20
-180
30
0
40
25
0
LWPOLYLINE
5
D1CC
330
D1A4
100
AcDbEntity
100
AcDbPolyline
8
MONTAJ_BORULARI
6
ByLayer
62
256
370
-1
90
4
70
1
10
-880
20
-260
10
-880
20
-100
10
-720
20
-100
10
-720
20
-260
0
TEXT
5
D1CD
330
D1A4
100
AcDbEntity
100
AcDbText
8
MONTAJ_BORULARI
10
-800
20
-300
30
0
40
70
1
POL 3
50
0
7
STANDARD
72
1
11
-800
21
-300
31
0
100
AcDbText
73
0
0
CIRCLE
5
D1CE
330
D1A4
100
AcDbEntity
100
AcDbCircle
8
MONTAJ_BORULARI
10
-800
20
0
30
0
40
25
0
LWPOLYLINE
5
D1CF
330
D1A4
100
AcDbEntity
100
AcDbPolyline
8
MONTAJ_BORULARI
6
ByLayer
62
256
370
-1
90
4
70
1
10
-880
20
-80
10
-880
20
80
10
-720
20
80
10
-720
20
-80
0
TEXT
5
D1D0
330
D1A4
100
AcDbEntity
100
AcDbText
8
MONTAJ_BORULARI
10
-800
20
-120
30
0
40
70
1
POL 4
50
0
7
STANDARD
72
1
11
-800
21
-120
31
0
100
AcDbText
73
0
0
CIRCLE
5
D1D1
330
D1A4
100
AcDbEntity
100
AcDbCircle
8
MONTAJ_BORULARI
10
-800
20
180
30
0
40
25
0
LWPOLYLINE
5
D1D2
330
D1A4
100
AcDbEntity
100
AcDbPolyline
8
MONTAJ_BORULARI
6
ByLayer
62
256
370
-1
90
4
70
1
10
-880
20
100
10
-880
20
260
10
-720
20
260
10
-720
20
100
0
TEXT
5
D1D3
330
D1A4
100
AcDbEntity
100
AcDbText
8
MONTAJ_BORULARI
10
-800
20
60
30
0
40
70
1
POL 5
50
0
7
STANDARD
72
1
11
-800
21
60
31
0
100
AcDbText
73
0
0
CIRCLE
5
D1D4
330
D1A4
100
AcDbEntity
100
AcDbCircle
8
MONTAJ_BORULARI
10
-800
20
360
30
0
40
25
0
LWPOLYLINE
5
D1D5
330
D1A4
100
AcDbEntity
100
AcDbPolyline
8
MONTAJ_BORULARI
6
ByLayer
62
256
370
-1
90
4
70
1
10
-880
20
280
10
-880
20
440
10
-720
20
440
10
-720
20
280
0
TEXT
5
D1D6
330
D1A4
100
AcDbEntity
100
AcDbText
8
MONTAJ_BORULARI
10
-800
20
240
30
0
40
70
1
POL 6
50
0
7
STANDARD
72
1
11
-800
21
240
31
0
100
AcDbText
73
0
0
CIRCLE
5
D1D7
330
D1A4
100
AcDbEntity
100
AcDbCircle
8
MONTAJ_BORULARI
10
-800
20
540
30
0
40
25
0
LWPOLYLINE
5
D1D8
330
D1A4
100
AcDbEntity
100
AcDbPolyline
8
MONTAJ_BORULARI
6
ByLayer
62
256
370
-1
90
4
70
1
10
-880
20
460
10
-880
20
620
10
-720
20
620
10
-720
20
460
0
TEXT
5
D1D9
330
D1A4
100
AcDbEntity
100
AcDbText
8
MONTAJ_BORULARI
10
-800
20
420
30
0
40
70
1
POL 7
50
0
7
STANDARD
72
1
11
-800
21
420
31
0
100
AcDbText
73
0
0
LWPOLYLINE
5
D265
330
D1A4
100
AcDbEntity
100
AcDbPolyline
8
MONTAJ_BORULARI
6
ByLayer
62
256
370
-1
90
4
70
1
10
-890
20
-3500
10
-890
20
-3485
10
-710
20
-3485
10
-710
20
-3500
0
LWPOLYLINE
5
D266
330
D1A4
100
AcDbEntity
100
AcDbPolyline
8
MONTAJ_BORULARI
6
ByLayer
62
256
370
-1
90
4
70
1
10
-830
20
-3485
10
-830
20
-1650
10
-770
20
-1650
10
-770
20
-3485
0
LWPOLYLINE
5
D267
330
D1A4
100
AcDbEntity
100
AcDbPolyline
8
MONTAJ_BORULARI
6
ByLayer
62
256
370
-1
90
4
70
1
10
-770
20
-2558
10
-770
20
-2462
10
-750
20
-2462
10
-750
20
-2558
0
LWPOLYLINE
5
D26B
330
D1A4
100
AcDbEntity
100
AcDbPolyline
8
MONTAJ_BORULARI
6
ByLayer
62
256
370
-1
90
4
70
1
10
-770
20
-1858
10
-770
20
-1762
10
-750
20
-1762
10
-750
20
-1858
0
LWPOLYLINE
5
D26F
330
D1A4
100
AcDbEntity
100
AcDbPolyline
8
MONTAJ_BORULARI
6
ByLayer
62
256
370
-1
90
4
70
1
10
-630
20
-3500
10
-630
20
-3485
10
-450
20
-3485
10
-450
20
-3500
0
LWPOLYLINE
5
D270
330
D1A4
100
AcDbEntity
100
AcDbPolyline
8
MONTAJ_BORULARI
6
ByLayer
62
256
370
-1
90
4
70
1
10
-570
20
-3485
10
-570
20
-1650
10
-510
20
-1650
10
-510
20
-3485
0
LWPOLYLINE
5
D271
330
D1A4
100
AcDbEntity
100
AcDbPolyline
8
MONTAJ_BORULARI
6
ByLayer
62
256
370
-1
90
4
70
1
10
-510
20
-2558
10
-510
20
-2462
10
-490
20
-2462
10
-490
20
-2558
0
LWPOLYLINE
5
D275
330
D1A4
100
AcDbEntity
100
AcDbPolyline
8
MONTAJ_BORULARI
6
ByLayer
62
256
370
-1
90
4
70
1
10
-510
20
-1858
10
-510
20
-1762
10
-490
20
-1762
10
-490
20
-1858
0
LWPOLYLINE
5
D279
330
D1A4
100
AcDbEntity
100
AcDbPolyline
8
MONTAJ_BORULARI
6
ByLayer
62
256
370
-1
90
4
70
1
10
-370
20
-3500
10
-370
20
-3485
10
-190
20
-3485
10
-190
20
-3500
0
LWPOLYLINE
5
D27A
330
D1A4
100
AcDbEntity
100
AcDbPolyline
8
MONTAJ_BORULARI
6
ByLayer
62
256
370
-1
90
4
70
1
10
-310
20
-3485
10
-310
20
-1650
10
-250
20
-1650
10
-250
20
-3485
0
LWPOLYLINE
5
D27B
330
D1A4
100
AcDbEntity
100
AcDbPolyline
8
MONTAJ_BORULARI
6
ByLayer
62
256
370
-1
90
4
70
1
10
-250
20
-2558
10
-250
20
-2462
10
-230
20
-2462
10
-230
20
-2558
0
LWPOLYLINE
5
D27F
330
D1A4
100
AcDbEntity
100
AcDbPolyline
8
MONTAJ_BORULARI
6
ByLayer
62
256
370
-1
90
4
70
1
10
-250
20
-1858
10
-250
20
-1762
10
-230
20
-1762
10
-230
20
-1858
0
LWPOLYLINE
5
D283
330
D1A4
100
AcDbEntity
100
AcDbPolyline
8
MONTAJ_BORULARI
6
ByLayer
62
256
370
-1
90
4
70
1
10
-110
20
-3500
10
-110
20
-3485
10
70
20
-3485
10
70
20
-3500
0
LWPOLYLINE
5
D284
330
D1A4
100
AcDbEntity
100
AcDbPolyline
8
MONTAJ_BORULARI
6
ByLayer
62
256
370
-1
90
4
70
1
10
-50
20
-3485
10
-50
20
-1650
10
10
20
-1650
10
10
20
-3485
0
LWPOLYLINE
5
D285
330
D1A4
100
AcDbEntity
100
AcDbPolyline
8
MONTAJ_BORULARI
6
ByLayer
62
256
370
-1
90
4
70
1
10
10
20
-2558
10
10
20
-2462
10
30
20
-2462
10
30
20
-2558
0
LWPOLYLINE
5
D289
330
D1A4
100
AcDbEntity
100
AcDbPolyline
8
MONTAJ_BORULARI
6
ByLayer
62
256
370
-1
90
4
70
1
10
10
20
-1858
10
10
20
-1762
10
30
20
-1762
10
30
20
-1858
0
LWPOLYLINE
5
D28D
330
D1A4
100
AcDbEntity
100
AcDbPolyline
8
MONTAJ_BORULARI
6
ByLayer
62
256
370
-1
90
4
70
1
10
150
20
-3500
10
150
20
-3485
10
330
20
-3485
10
330
20
-3500
0
LWPOLYLINE
5
D28E
330
D1A4
100
AcDbEntity
100
AcDbPolyline
8
MONTAJ_BORULARI
6
ByLayer
62
256
370
-1
90
4
70
1
10
210
20
-3485
10
210
20
-1650
10
270
20
-1650
10
270
20
-3485
0
LWPOLYLINE
5
D28F
330
D1A4
100
AcDbEntity
100
AcDbPolyline
8
MONTAJ_BORULARI
6
ByLayer
62
256
370
-1
90
4
70
1
10
270
20
-2558
10
270
20
-2462
10
290
20
-2462
10
290
20
-2558
0
LWPOLYLINE
5
D293
330
D1A4
100
AcDbEntity
100
AcDbPolyline
8
MONTAJ_BORULARI
6
ByLayer
62
256
370
-1
90
4
70
1
10
270
20
-1858
10
270
20
-1762
10
290
20
-1762
10
290
20
-1858
0
LWPOLYLINE
5
D297
330
D1A4
100
AcDbEntity
100
AcDbPolyline
8
MONTAJ_BORULARI
6
ByLayer
62
256
370
-1
90
4
70
1
10
410
20
-3500
10
410
20
-3485
10
590
20
-3485
10
590
20
-3500
0
LWPOLYLINE
5
D298
330
D1A4
100
AcDbEntity
100
AcDbPolyline
8
MONTAJ_BORULARI
6
ByLayer
62
256
370
-1
90
4
70
1
10
470
20
-3485
10
470
20
-1650
10
530
20
-1650
10
530
20
-3485
0
LWPOLYLINE
5
D299
330
D1A4
100
AcDbEntity
100
AcDbPolyline
8
MONTAJ_BORULARI
6
ByLayer
62
256
370
-1
90
4
70
1
10
530
20
-2558
10
530
20
-2462
10
550
20
-2462
10
550
20
-2558
0
LWPOLYLINE
5
D29D
330
D1A4
100
AcDbEntity
100
AcDbPolyline
8
MONTAJ_BORULARI
6
ByLayer
62
256
370
-1
90
4
70
1
10
530
20
-1858
10
530
20
-1762
10
550
20
-1762
10
550
20
-1858
0
LWPOLYLINE
5
D2A1
330
D1A4
100
AcDbEntity
100
AcDbPolyline
8
MONTAJ_BORULARI
6
ByLayer
62
256
370
-1
90
4
70
1
10
670
20
-3500
10
670
20
-3485
10
850
20
-3485
10
850
20
-3500
0
LWPOLYLINE
5
D2A2
330
D1A4
100
AcDbEntity
100
AcDbPolyline
8
MONTAJ_BORULARI
6
ByLayer
62
256
370
-1
90
4
70
1
10
730
20
-3485
10
730
20
-1650
10
790
20
-1650
10
790
20
-3485
0
LWPOLYLINE
5
D2A3
330
D1A4
100
AcDbEntity
100
AcDbPolyline
8
MONTAJ_BORULARI
6
ByLayer
62
256
370
-1
90
4
70
1
10
790
20
-2558
10
790
20
-2462
10
810
20
-2462
10
810
20
-2558
0
LWPOLYLINE
5
D2A7
330
D1A4
100
AcDbEntity
100
AcDbPolyline
8
MONTAJ_BORULARI
6
ByLayer
62
256
370
-1
90
4
70
1
10
790
20
-1858
10
790
20
-1762
10
810
20
-1762
10
810
20
-1858
0
LINE
5
D2C7
330
D1A4
100
AcDbEntity
100
AcDbLine
8
OLCULER
10
-1300
20
-700
30
0
11
-1300
21
-1140
31
0
0
LINE
5
D2C8
330
D1A4
100
AcDbEntity
100
AcDbLine
8
OLCULER
10
1300
20
-700
30
0
11
1300
21
-1140
31
0
0
LINE
5
D2C9
330
D1A4
100
AcDbEntity
100
AcDbLine
8
OLCULER
10
-1300
20
-1100
30
0
11
1300
21
-1100
31
0
0
LINE
5
D2CA
330
D1A4
100
AcDbEntity
100
AcDbLine
8
OLCULER
10
-1328
20
-1128
30
0
11
-1272
21
-1072
31
0
0
LINE
5
D2CB
330
D1A4
100
AcDbEntity
100
AcDbLine
8
OLCULER
10
1272
20
-1128
30
0
11
1328
21
-1072
31
0
0
TEXT
5
D2CC
330
D1A4
100
AcDbEntity
100
AcDbText
8
OLCULER
10
0
20
-1184
30
0
40
60
1
2600 mm (PLATFORM GENISLIGI)
50
0
7
STANDARD
72
1
11
0
21
-1184
31
0
100
AcDbText
73
2
0
LINE
5
D2CD
330
D1A4
100
AcDbEntity
100
AcDbLine
8
OLCULER
10
-1300
20
-700
30
0
11
-1740
21
-700
31
0
0
LINE
5
D2CE
330
D1A4
100
AcDbEntity
100
AcDbLine
8
OLCULER
10
-1300
20
700
30
0
11
-1740
21
700
31
0
0
LINE
5
D2CF
330
D1A4
100
AcDbEntity
100
AcDbLine
8
OLCULER
10
-1700
20
-700
30
0
11
-1700
21
700
31
0
0
LINE
5
D2D0
330
D1A4
100
AcDbEntity
100
AcDbLine
8
OLCULER
10
-1728
20
-728
30
0
11
-1672
21
-672
31
0
0
LINE
5
D2D1
330
D1A4
100
AcDbEntity
100
AcDbLine
8
OLCULER
10
-1728
20
672
30
0
11
-1672
21
728
31
0
0
TEXT
5
D2D2
330
D1A4
100
AcDbEntity
100
AcDbText
8
OLCULER
10
-1742
20
0
30
0
40
60
1
1400 mm (PLATFORM DERINLIGI)
50
90
7
STANDARD
72
1
11
-1742
21
0
31
0
100
AcDbText
73
2
0
LINE
5
D2D3
330
D1A4
100
AcDbEntity
100
AcDbLine
8
OLCULER
10
-1300
20
-3500
30
0
11
-1740
21
-3500
31
0
0
LINE
5
D2D4
330
D1A4
100
AcDbEntity
100
AcDbLine
8
OLCULER
10
-1300
20
-1650
30
0
11
-1740
21
-1650
31
0
0
LINE
5
D2D5
330
D1A4
100
AcDbEntity
100
AcDbLine
8
OLCULER
10
-1700
20
-3500
30
0
11
-1700
21
-1650
31
0
0
LINE
5
D2D6
330
D1A4
100
AcDbEntity
100
AcDbLine
8
OLCULER
10
-1728
20
-3528
30
0
11
-1672
21
-3472
31
0
0
LINE
5
D2D7
330
D1A4
100
AcDbEntity
100
AcDbLine
8
OLCULER
10
-1728
20
-1678
30
0
11
-1672
21
-1622
31
0
0
TEXT
5
D2D8
330
D1A4
100
AcDbEntity
100
AcDbText
8
OLCULER
10
-1742
20
-2575
30
0
40
60
1
1850 mm (BORU BOYU)
50
90
7
STANDARD
72
1
11
-1742
21
-2575
31
0
100
AcDbText
73
2
0
TEXT
5
D1BD
330
D1A4
100
AcDbEntity
100
AcDbText
8
METIN_BILGI
10
0
20
2400
30
0
40
180
1
ALAN 1 OZEL 7 BORULU TEK CEPHE KOMPLEKS (13 RRU + 10 POI + 140cm PLATFORM)
50
0
7
STANDARD
72
1
11
0
21
2400
31
0
100
AcDbText
73
0
0
LWPOLYLINE
5
D2D9
330
D1A4
100
AcDbEntity
100
AcDbPolyline
8
METIN_BILGI
6
ByLayer
62
256
370
-1
90
4
70
1
10
-1500
20
2600
10
-1500
20
4800
10
6500
20
4800
10
6500
20
2600
0
LINE
5
D2DA
330
D1A4
100
AcDbEntity
100
AcDbLine
8
METIN_BILGI
10
-1500
20
4000
30
0
11
6500
21
4000
31
0
0
LINE
5
D2DB
330
D1A4
100
AcDbEntity
100
AcDbLine
8
METIN_BILGI
10
-1500
20
3300
30
0
11
6500
21
3300
31
0
0
LINE
5
D2DC
330
D1A4
100
AcDbEntity
100
AcDbLine
8
METIN_BILGI
10
3000
20
2600
30
0
11
3000
21
4000
31
0
0
TEXT
5
D2DD
330
D1A4
100
AcDbEntity
100
AcDbText
8
METIN_BILGI
10
-1300
20
4250
30
0
40
320
1
GALATASARAY STADYUMU GSM ALTYAPI PROJESI
50
0
7
STANDARD
100
AcDbText
0
TEXT
5
D2DE
330
D1A4
100
AcDbEntity
100
AcDbText
8
METIN_BILGI
10
-1300
20
3550
30
0
40
260
1
ALAN: OZEL 7 BORULU KARMA KOMPLEKS DETAYI (ALAN 1)
50
0
7
STANDARD
100
AcDbText
0
TEXT
5
D2DF
330
D1A4
100
AcDbEntity
100
AcDbText
8
METIN_BILGI
10
-1300
20
2880
30
0
40
200
1
OLCEK: 1:1 mm (1:1 mm)
50
0
7
STANDARD
100
AcDbText
0
TEXT
5
D2E0
330
D1A4
100
AcDbEntity
100
AcDbText
8
METIN_BILGI
10
3200
20
3550
30
0
40
180
1
CIZIM: ANTIGRAVITY CAD / BIM
50
0
7
STANDARD
100
AcDbText
0
TEXT
5
D2E1
330
D1A4
100
AcDbEntity
100
AcDbText
8
METIN_BILGI
10
3200
20
2880
30
0
40
180
1
TARIH: 2026-10-05
50
0
7
STANDARD
100
AcDbText
0
CIRCLE
5
D2E2
330
D1A4
100
AcDbEntity
100
AcDbCircle
8
METIN_BILGI
10
-3000
20
3700
30
0
40
800
0
LINE
5
D2E3
330
D1A4
100
AcDbEntity
100
AcDbLine
8
METIN_BILGI
10
-3000
20
2980
30
0
11
-3000
21
4420
31
0
0
LINE
5
D2E4
330
D1A4
100
AcDbEntity
100
AcDbLine
8
METIN_BILGI
10
-3000
20
4420
30
0
11
-3250
21
4000
31
0
0
LINE
5
D2E5
330
D1A4
100
AcDbEntity
100
AcDbLine
8
METIN_BILGI
10
-3000
20
4420
30
0
11
-2750
21
4000
31
0
0
TEXT
5
D2E6
330
D1A4
100
AcDbEntity
100
AcDbText
8
METIN_BILGI
10
-3000
20
4700
30
0
40
300
1
K
50
0
7
STANDARD
72
1
11
-3000
21
4700
31
0
100
AcDbText
73
2
0
LWPOLYLINE
5
D2E7
330
D1A4
100
AcDbEntity
100
AcDbPolyline
8
METIN_BILGI
6
ByLayer
62
256
370
-1
90
4
70
1
10
-1500
20
-2200
10
-1500
20
1400
10
9700
20
1400
10
9700
20
-2200
0
TEXT
5
D2E8
330
D1A4
100
AcDbEntity
100
AcDbText
8
METIN_BILGI
10
-1300
20
1100
30
0
40
240
1
EKIPMAN VE ALTYAPI YERLESIM CETVELI (BOM)
50
0
7
STANDARD
100
AcDbText
0
LINE
5
D2E9
330
D1A4
100
AcDbEntity
100
AcDbLine
8
METIN_BILGI
10
-1500
20
1000
30
0
11
9700
21
1000
31
0
0
LINE
5
D2EA
330
D1A4
100
AcDbEntity
100
AcDbLine
8
METIN_BILGI
10
-1500
20
600
30
0
11
9700
21
600
31
0
0
LINE
5
D2EB
330
D1A4
100
AcDbEntity
100
AcDbLine
8
METIN_BILGI
10
-300
20
-2200
30
0
11
-300
21
1000
31
0
0
LINE
5
D2EC
330
D1A4
100
AcDbEntity
100
AcDbLine
8
METIN_BILGI
10
5700
20
-2200
30
0
11
5700
21
1000
31
0
0
LINE
5
D2ED
330
D1A4
100
AcDbEntity
100
AcDbLine
8
METIN_BILGI
10
8200
20
-2200
30
0
11
8200
21
1000
31
0
0
TEXT
5
D2EE
330
D1A4
100
AcDbEntity
100
AcDbText
8
METIN_BILGI
10
-1400
20
720
30
0
40
180
1
NO
50
0
7
STANDARD
100
AcDbText
0
TEXT
5
D2EF
330
D1A4
100
AcDbEntity
100
AcDbText
8
METIN_BILGI
10
-200
20
720
30
0
40
180
1
EKIPMAN TANIMI
50
0
7
STANDARD
100
AcDbText
0
TEXT
5
D2F0
330
D1A4
100
AcDbEntity
100
AcDbText
8
METIN_BILGI
10
5800
20
720
30
0
40
180
1
BOYUTLAR (GxDxY)
50
0
7
STANDARD
100
AcDbText
0
TEXT
5
D2F1
330
D1A4
100
AcDbEntity
100
AcDbText
8
METIN_BILGI
10
8300
20
720
30
0
40
180
1
ADET
50
0
7
STANDARD
100
AcDbText
0
LINE
5
D2F2
330
D1A4
100
AcDbEntity
100
AcDbLine
8
METIN_BILGI
10
-1500
20
200
30
0
11
9700
21
200
31
0
0
TEXT
5
D2F3
330
D1A4
100
AcDbEntity
100
AcDbText
8
METIN_BILGI
10
-1400
20
320
30
0
40
160
1
1
50
0
7
STANDARD
100
AcDbText
0
TEXT
5
D2F4
330
D1A4
100
AcDbEntity
100
AcDbText
8
METIN_BILGI
10
-200
20
320
30
0
40
160
1
Tek Tek Turkcell RRU (Alt Kot)
50
0
7
STANDARD
100
AcDbText
0
TEXT
5
D2F5
330
D1A4
100
AcDbEntity
100
AcDbText
8
METIN_BILGI
10
5800
20
320
30
0
40
160
1
398x145x533 mm
50
0
7
STANDARD
100
AcDbText
0
TEXT
5
D2F6
330
D1A4
100
AcDbEntity
100
AcDbText
8
METIN_BILGI
10
8300
20
320
30
0
40
160
1
4
50
0
7
STANDARD
100
AcDbText
0
LINE
5
D2F7
330
D1A4
100
AcDbEntity
100
AcDbLine
8
METIN_BILGI
10
-1500
20
-200
30
0
11
9700
21
-200
31
0
0
TEXT
5
D2F8
330
D1A4
100
AcDbEntity
100
AcDbText
8
METIN_BILGI
10
-1400
20
-80
30
0
40
160
1
2
50
0
7
STANDARD
100
AcDbText
0
TEXT
5
D2F9
330
D1A4
100
AcDbEntity
100
AcDbText
8
METIN_BILGI
10
-200
20
-80
30
0
40
160
1
Tek Tek Vodafone RRU (Ust Kot)
50
0
7
STANDARD
100
AcDbText
0
TEXT
5
D2FA
330
D1A4
100
AcDbEntity
100
AcDbText
8
METIN_BILGI
10
5800
20
-80
30
0
40
160
1
432x135x480 mm
50
0
7
STANDARD
100
AcDbText
0
TEXT
5
D2FB
330
D1A4
100
AcDbEntity
100
AcDbText
8
METIN_BILGI
10
8300
20
-80
30
0
40
160
1
5
50
0
7
STANDARD
100
AcDbText
0
LINE
5
D2FC
330
D1A4
100
AcDbEntity
100
AcDbLine
8
METIN_BILGI
10
-1500
20
-600
30
0
11
9700
21
-600
31
0
0
TEXT
5
D2FD
330
D1A4
100
AcDbEntity
100
AcDbText
8
METIN_BILGI
10
-1400
20
-480
30
0
40
160
1
3
50
0
7
STANDARD
100
AcDbText
0
TEXT
5
D2FE
330
D1A4
100
AcDbEntity
100
AcDbText
8
METIN_BILGI
10
-200
20
-480
30
0
40
160
1
Tek Tek Turk Telekom RRU (Alt/Ust Kot)
50
0
7
STANDARD
100
AcDbText
0
TEXT
5
D2FF
330
D1A4
100
AcDbEntity
100
AcDbText
8
METIN_BILGI
10
5800
20
-480
30
0
40
160
1
356x140x480 mm
50
0
7
STANDARD
100
AcDbText
0
TEXT
5
D300
330
D1A4
100
AcDbEntity
100
AcDbText
8
METIN_BILGI
10
8300
20
-480
30
0
40
160
1
4
50
0
7
STANDARD
100
AcDbText
0
LINE
5
D301
330
D1A4
100
AcDbEntity
100
AcDbLine
8
METIN_BILGI
10
-1500
20
-1000
30
0
11
9700
21
-1000
31
0
0
TEXT
5
D302
330
D1A4
100
AcDbEntity
100
AcDbText
8
METIN_BILGI
10
-1400
20
-880
30
0
40
160
1
4
50
0
7
STANDARD
100
AcDbText
0
TEXT
5
D303
330
D1A4
100
AcDbEntity
100
AcDbText
8
METIN_BILGI
10
-200
20
-880
30
0
40
160
1
Canovate 19" 36U POI Rack Tasiyici Sase
50
0
7
STANDARD
100
AcDbText
0
TEXT
5
D304
330
D1A4
100
AcDbEntity
100
AcDbText
8
METIN_BILGI
10
5800
20
-880
30
0
40
160
1
600x700x1780 mm
50
0
7
STANDARD
100
AcDbText
0
TEXT
5
D305
330
D1A4
100
AcDbEntity
100
AcDbText
8
METIN_BILGI
10
8300
20
-880
30
0
40
160
1
2
50
0
7
STANDARD
100
AcDbText
0
LINE
5
D306
330
D1A4
100
AcDbEntity
100
AcDbLine
8
METIN_BILGI
10
-1500
20
-1400
30
0
11
9700
21
-1400
31
0
0
TEXT
5
D307
330
D1A4
100
AcDbEntity
100
AcDbText
8
METIN_BILGI
10
-1400
20
-1280
30
0
40
160
1
5
50
0
7
STANDARD
100
AcDbText
0
TEXT
5
D308
330
D1A4
100
AcDbEntity
100
AcDbText
8
METIN_BILGI
10
-200
20
-1280
30
0
40
160
1
Prose CB-12-POI-64F-A12 Modulleri
50
0
7
STANDARD
100
AcDbText
0
TEXT
5
D309
330
D1A4
100
AcDbEntity
100
AcDbText
8
METIN_BILGI
10
5800
20
-1280
30
0
40
160
1
400x350x260 mm
50
0
7
STANDARD
100
AcDbText
0
TEXT
5
D30A
330
D1A4
100
AcDbEntity
100
AcDbText
8
METIN_BILGI
10
8300
20
-1280
30
0
40
160
1
10
50
0
7
STANDARD
100
AcDbText
0
LINE
5
D30B
330
D1A4
100
AcDbEntity
100
AcDbLine
8
METIN_BILGI
10
-1500
20
-1800
30
0
11
9700
21
-1800
31
0
0
TEXT
5
D30C
330
D1A4
100
AcDbEntity
100
AcDbText
8
METIN_BILGI
10
-1400
20
-1680
30
0
40
160
1
6
50
0
7
STANDARD
100
AcDbText
0
TEXT
5
D30D
330
D1A4
100
AcDbEntity
100
AcDbText
8
METIN_BILGI
10
-200
20
-1680
30
0
40
160
1
RRU Saha Blok 140cm Celik Tabla
50
0
7
STANDARD
100
AcDbText
0
TEXT
5
D30E
330
D1A4
100
AcDbEntity
100
AcDbText
8
METIN_BILGI
10
5800
20
-1680
30
0
40
160
1
2600x1400x50 mm
50
0
7
STANDARD
100
AcDbText
0
TEXT
5
D30F
330
D1A4
100
AcDbEntity
100
AcDbText
8
METIN_BILGI
10
8300
20
-1680
30
0
40
160
1
1
50
0
7
STANDARD
100
AcDbText
0
LINE
5
D310
330
D1A4
100
AcDbEntity
100
AcDbLine
8
METIN_BILGI
10
-1500
20
-2200
30
0
11
9700
21
-2200
31
0
0
TEXT
5
D311
330
D1A4
100
AcDbEntity
100
AcDbText
8
METIN_BILGI
10
-1400
20
-2080
30
0
40
160
1
7
50
0
7
STANDARD
100
AcDbText
0
TEXT
5
D312
330
D1A4
100
AcDbEntity
100
AcDbText
8
METIN_BILGI
10
-200
20
-2080
30
0
40
160
1
Dia 50mm Flansli Boru Polleri (H=1.85m)
50
0
7
STANDARD
100
AcDbText
0
TEXT
5
D313
330
D1A4
100
AcDbEntity
100
AcDbText
8
METIN_BILGI
10
5800
20
-2080
30
0
40
160
1
Dia 50mm x 1850mm
50
0
7
STANDARD
100
AcDbText
0
TEXT
5
D314
330
D1A4
100
AcDbEntity
100
AcDbText
8
METIN_BILGI
10
8300
20
-2080
30
0
40
160
1
7
50
0
7
STANDARD
100
AcDbText
0
LWPOLYLINE
5
D1DA
330
D1A4
100
AcDbEntity
100
AcDbPolyline
8
EKP_TURKCELL_RRU
6
ByLayer
62
256
370
-1
90
4
70
1
10
-1947.5151510877654
20
1905.4999997019768
10
-1947.5151510877654
20
2045.5000002980235
10
-1432.5151479585215
20
2045.5000002980235
10
-1432.5151479585215
20
1905.4999997019768
0
LINE
5
D1DB
330
D1A4
100
AcDbEntity
100
AcDbLine
8
EKP_TURKCELL_RRU
10
-1947.5151510877654
20
1930.6999998092651
30
0
11
-1432.5151479585215
21
1930.6999998092651
31
0
0
LINE
5
D1DC
330
D1A4
100
AcDbEntity
100
AcDbLine
8
EKP_TURKCELL_RRU
10
-1718.0151496423528
20
1975.5
30
0
11
-1662.0151494039342
21
1975.5
31
0
0
LINE
5
D1DD
330
D1A4
100
AcDbEntity
100
AcDbLine
8
EKP_TURKCELL_RRU
10
-1690.0151495231435
20
1947.4999998807907
30
0
11
-1690.0151495231435
21
2003.5000001192093
31
0
0
TEXT
5
D1DE
330
D1A4
100
AcDbEntity
100
AcDbText
8
EKP_TURKCELL_RRU
10
-1690.0151495231435
20
1999.0200001001358
30
0
40
39.20000016689307
1
Turkcell RRU 5301 (Alt Kot)
50
0
7
STANDARD
72
1
11
-1690.0151495231435
21
1999.0200001001358
31
0
100
AcDbText
73
2
0
LWPOLYLINE
5
D1DF
330
D1A4
100
AcDbEntity
100
AcDbPolyline
8
EKP_TURKCELL_RRU
6
ByLayer
62
256
370
-1
90
4
70
1
10
-1947.5151510877654
20
1725.4999997019768
10
-1947.5151510877654
20
1865.5000002980232
10
-1432.5151479585215
20
1865.5000002980232
10
-1432.5151479585215
20
1725.4999997019768
0
LINE
5
D1E0
330
D1A4
100
AcDbEntity
100
AcDbLine
8
EKP_TURKCELL_RRU
10
-1947.5151510877654
20
1750.6999998092651
30
0
11
-1432.5151479585215
21
1750.6999998092651
31
0
0
LINE
5
D1E1
330
D1A4
100
AcDbEntity
100
AcDbLine
8
EKP_TURKCELL_RRU
10
-1718.0151496423528
20
1795.5
30
0
11
-1662.0151494039342
21
1795.5
31
0
0
LINE
5
D1E2
330
D1A4
100
AcDbEntity
100
AcDbLine
8
EKP_TURKCELL_RRU
10
-1690.0151495231435
20
1767.4999998807907
30
0
11
-1690.0151495231435
21
1823.5000001192093
31
0
0
TEXT
5
D1E3
330
D1A4
100
AcDbEntity
100
AcDbText
8
EKP_TURKCELL_RRU
10
-1690.0151495231435
20
1819.0200001001358
30
0
40
39.20000016689301
1
Turkcell RRU 5502 (Alt Kot)
50
0
7
STANDARD
72
1
11
-1690.0151495231435
21
1819.0200001001358
31
0
100
AcDbText
73
2
0
LWPOLYLINE
5
D1E4
330
D1A4
100
AcDbEntity
100
AcDbPolyline
8
EKP_TURKCELL_RRU
6
ByLayer
62
256
370
-1
90
4
70
1
10
-1947.5151510877656
20
1543.0000020861626
10
-1947.5151510877656
20
1687.9999979138374
10
-1434.51514998508
20
1687.9999979138374
10
-1434.51514998508
20
1543.0000020861626
0
LINE
5
D1E5
330
D1A4
100
AcDbEntity
100
AcDbLine
8
EKP_TURKCELL_RRU
10
-1947.5151510877656
20
1569.100001335144
30
0
11
-1434.51514998508
21
1569.100001335144
31
0
0
LINE
5
D1E6
330
D1A4
100
AcDbEntity
100
AcDbLine
8
EKP_TURKCELL_RRU
10
-1720.0151497019576
20
1615.5
30
0
11
-1662.0151513708877
21
1615.5
31
0
0
LINE
5
D1E7
330
D1A4
100
AcDbEntity
100
AcDbLine
8
EKP_TURKCELL_RRU
10
-1691.0151505364227
20
1586.500000834465
30
0
11
-1691.0151505364227
21
1644.499999165535
31
0
0
TEXT
5
D1E8
330
D1A4
100
AcDbEntity
100
AcDbText
8
EKP_TURKCELL_RRU
10
-1691.0151505364227
20
1639.8599992990494
30
0
40
40.59999883174897
1
Turkcell LTE RRU4485 (Alt Kot)
50
0
7
STANDARD
72
1
11
-1691.0151505364227
21
1639.8599992990494
31
0
100
AcDbText
73
2
0
LWPOLYLINE
5
D1E9
330
D1A4
100
AcDbEntity
100
AcDbPolyline
8
EKP_TURKCELL_RRU
6
ByLayer
62
256
370
-1
90
4
70
1
10
-1947.5151510877654
20
1358.5000004172325
10
-1947.5151510877654
20
1512.4999995827675
10
-1489.5151535613581
20
1512.4999995827675
10
-1489.5151535613581
20
1358.5000004172325
0
LINE
5
D1EA
330
D1A4
100
AcDbEntity
100
AcDbLine
8
EKP_TURKCELL_RRU
10
-1947.5151510877654
20
1386.2200002670288
30
0
11
-1489.5151535613581
21
1386.2200002670288
31
0
0
LINE
5
D1EB
330
D1A4
100
AcDbEntity
100
AcDbLine
8
EKP_TURKCELL_RRU
10
-1749.3151521576688
20
1435.5
30
0
11
-1687.7151524914548
21
1435.5
31
0
0
LINE
5
D1EC
330
D1A4
100
AcDbEntity
100
AcDbLine
8
EKP_TURKCELL_RRU
10
-1718.5151523245618
20
1404.700000166893
30
0
11
-1718.5151523245618
21
1466.299999833107
31
0
0
TEXT
5
D1ED
330
D1A4
100
AcDbEntity
100
AcDbText
8
EKP_TURKCELL_RRU
10
-1718.5151523245618
20
1461.3719998598099
30
0
40
43.1199997663498
1
Turkcell GSM 2219 B8 (Alt Kot)
50
0
7
STANDARD
72
1
11
-1718.5151523245618
21
1461.3719998598099
31
0
100
AcDbText
73
2
0
LWPOLYLINE
5
D268
330
D1A4
100
AcDbEntity
100
AcDbPolyline
8
EKP_TURKCELL_RRU
6
ByLayer
62
256
370
-1
90
4
70
1
10
-750
20
-2750
10
-750
20
-2270
10
-400
20
-2270
10
-400
20
-2750
0
LWPOLYLINE
5
D269
330
D1A4
100
AcDbEntity
100
AcDbPolyline
8
EKP_TURKCELL_RRU
6
ByLayer
62
256
370
-1
90
4
70
1
10
-645
20
-2270
10
-645
20
-2240
10
-505
20
-2240
10
-505
20
-2270
0
TEXT
5
D26A
330
D1A4
100
AcDbEntity
100
AcDbText
8
EKP_TURKCELL_RRU
10
-575
20
-2510
30
0
40
45
1
TCELL
50
0
7
STANDARD
72
1
11
-575
21
-2510
31
0
100
AcDbText
73
2
0
LWPOLYLINE
5
D272
330
D1A4
100
AcDbEntity
100
AcDbPolyline
8
EKP_TURKCELL_RRU
6
ByLayer
62
256
370
-1
90
4
70
1
10
-490
20
-2750
10
-490
20
-2270
10
-140
20
-2270
10
-140
20
-2750
0
LWPOLYLINE
5
D273
330
D1A4
100
AcDbEntity
100
AcDbPolyline
8
EKP_TURKCELL_RRU
6
ByLayer
62
256
370
-1
90
4
70
1
10
-385
20
-2270
10
-385
20
-2240
10
-245.00000000000003
20
-2240
10
-245.00000000000003
20
-2270
0
TEXT
5
D274
330
D1A4
100
AcDbEntity
100
AcDbText
8
EKP_TURKCELL_RRU
10
-315
20
-2510
30
0
40
45
1
TCELL
50
0
7
STANDARD
72
1
11
-315
21
-2510
31
0
100
AcDbText
73
2
0
LWPOLYLINE
5
D27C
330
D1A4
100
AcDbEntity
100
AcDbPolyline
8
EKP_TURKCELL_RRU
6
ByLayer
62
256
370
-1
90
4
70
1
10
-230
20
-2750
10
-230
20
-2270
10
120
20
-2270
10
120
20
-2750
0
LWPOLYLINE
5
D27D
330
D1A4
100
AcDbEntity
100
AcDbPolyline
8
EKP_TURKCELL_RRU
6
ByLayer
62
256
370
-1
90
4
70
1
10
-125
20
-2270
10
-125
20
-2240
10
14.999999999999972
20
-2240
10
14.999999999999972
20
-2270
0
TEXT
5
D27E
330
D1A4
100
AcDbEntity
100
AcDbText
8
EKP_TURKCELL_RRU
10
-55
20
-2510
30
0
40
45
1
TCELL
50
0
7
STANDARD
72
1
11
-55
21
-2510
31
0
100
AcDbText
73
2
0
LWPOLYLINE
5
D1FD
330
D1A4
100
AcDbEntity
100
AcDbPolyline
8
EKP_VODAFONE_RRU
6
ByLayer
62
256
370
-1
90
4
70
1
10
-1947.5151510877654
20
1907.999997317791
10
-1947.5151510877654
20
2043.0000026822092
10
-1400.5151453359172
20
2043.0000026822092
10
-1400.5151453359172
20
1907.999997317791
0
LINE
5
D1FE
330
D1A4
100
AcDbEntity
100
AcDbLine
8
EKP_VODAFONE_RRU
10
-1947.5151510877654
20
1932.2999982833862
30
0
11
-1400.5151453359172
21
1932.2999982833862
31
0
0
LINE
5
D1FF
330
D1A4
100
AcDbEntity
100
AcDbLine
8
EKP_VODAFONE_RRU
10
-1701.0151492847249
20
1975.5
30
0
11
-1647.0151471389577
21
1975.5
31
0
0
LINE
5
D200
330
D1A4
100
AcDbEntity
100
AcDbLine
8
EKP_VODAFONE_RRU
10
-1674.0151482118413
20
1948.4999989271164
30
0
11
-1674.0151482118413
21
2002.5000010728836
31
0
0
TEXT
5
D201
330
D1A4
100
AcDbEntity
100
AcDbText
8
EKP_VODAFONE_RRU
10
-1674.0151482118413
20
1998.1800009012222
30
0
40
37.80000150203711
1
Vodafone RRU5526t (#1) (Ust Kot)
50
0
7
STANDARD
72
1
11
-1674.0151482118413
21
1998.1800009012222
31
0
100
AcDbText
73
2
0
LWPOLYLINE
5
D202
330
D1A4
100
AcDbEntity
100
AcDbPolyline
8
EKP_VODAFONE_RRU
6
ByLayer
62
256
370
-1
90
4
70
1
10
-1947.5151510877654
20
1727.999997317791
10
-1947.5151510877654
20
1863.000002682209
10
-1400.5151453359172
20
1863.000002682209
10
-1400.5151453359172
20
1727.999997317791
0
LINE
5
D203
330
D1A4
100
AcDbEntity
100
AcDbLine
8
EKP_VODAFONE_RRU
10
-1947.5151510877654
20
1752.2999982833862
30
0
11
-1400.5151453359172
21
1752.2999982833862
31
0
0
LINE
5
D204
330
D1A4
100
AcDbEntity
100
AcDbLine
8
EKP_VODAFONE_RRU
10
-1701.0151492847249
20
1795.5
30
0
11
-1647.0151471389577
21
1795.5
31
0
0
LINE
5
D205
330
D1A4
100
AcDbEntity
100
AcDbLine
8
EKP_VODAFONE_RRU
10
-1674.0151482118413
20
1768.4999989271164
30
0
11
-1674.0151482118413
21
1822.5000010728836
31
0
0
TEXT
5
D206
330
D1A4
100
AcDbEntity
100
AcDbText
8
EKP_VODAFONE_RRU
10
-1674.0151482118413
20
1818.1800009012222
30
0
40
37.800001502037055
1
Vodafone RRU5526t (#2) (Ust Kot)
50
0
7
STANDARD
72
1
11
-1674.0151482118413
21
1818.1800009012222
31
0
100
AcDbText
73
2
0
LWPOLYLINE
5
D207
330
D1A4
100
AcDbEntity
100
AcDbPolyline
8
EKP_VODAFONE_RRU
6
ByLayer
62
256
370
-1
90
4
70
1
10
-1947.5151510877654
20
1547.999997317791
10
-1947.5151510877654
20
1683.000002682209
10
-1400.5151453359172
20
1683.000002682209
10
-1400.5151453359172
20
1547.999997317791
0
LINE
5
D208
330
D1A4
100
AcDbEntity
100
AcDbLine
8
EKP_VODAFONE_RRU
10
-1947.5151510877654
20
1572.2999982833862
30
0
11
-1400.5151453359172
21
1572.2999982833862
31
0
0
LINE
5
D209
330
D1A4
100
AcDbEntity
100
AcDbLine
8
EKP_VODAFONE_RRU
10
-1701.0151492847249
20
1615.5
30
0
11
-1647.0151471389577
21
1615.5
31
0
0
LINE
5
D20A
330
D1A4
100
AcDbEntity
100
AcDbLine
8
EKP_VODAFONE_RRU
10
-1674.0151482118413
20
1588.4999989271164
30
0
11
-1674.0151482118413
21
1642.5000010728836
31
0
0
TEXT
5
D20B
330
D1A4
100
AcDbEntity
100
AcDbText
8
EKP_VODAFONE_RRU
10
-1674.0151482118413
20
1638.1800009012222
30
0
40
37.800001502037055
1
Vodafone RRU5526t (#3) (Ust Kot)
50
0
7
STANDARD
72
1
11
-1674.0151482118413
21
1638.1800009012222
31
0
100
AcDbText
73
2
0
LWPOLYLINE
5
D20C
330
D1A4
100
AcDbEntity
100
AcDbPolyline
8
EKP_VODAFONE_RRU
6
ByLayer
62
256
370
-1
90
4
70
1
10
-1947.5151510877656
20
1365.4999997019768
10
-1947.5151510877656
20
1505.5000002980232
10
-1476.5151478393125
20
1505.5000002980232
10
-1476.5151478393125
20
1365.4999997019768
0
LINE
5
D20D
330
D1A4
100
AcDbEntity
100
AcDbLine
8
EKP_VODAFONE_RRU
10
-1947.5151510877656
20
1390.6999998092651
30
0
11
-1476.5151478393125
21
1390.6999998092651
31
0
0
LINE
5
D20E
330
D1A4
100
AcDbEntity
100
AcDbLine
8
EKP_VODAFONE_RRU
10
-1740.0151495827483
20
1435.5
30
0
11
-1684.0151493443298
21
1435.5
31
0
0
LINE
5
D20F
330
D1A4
100
AcDbEntity
100
AcDbLine
8
EKP_VODAFONE_RRU
10
-1712.015149463539
20
1407.4999998807907
30
0
11
-1712.015149463539
21
1463.5000001192093
31
0
0
TEXT
5
D210
330
D1A4
100
AcDbEntity
100
AcDbText
8
EKP_VODAFONE_RRU
10
-1712.015149463539
20
1459.0200001001358
30
0
40
39.20000016689301
1
Vodafone NR RRU5818w (#4) (Ust Kot)
50
0
7
STANDARD
72
1
11
-1712.015149463539
21
1459.0200001001358
31
0
100
AcDbText
73
2
0
LWPOLYLINE
5
D211
330
D1A4
100
AcDbEntity
100
AcDbPolyline
8
EKP_VODAFONE_RRU
6
ByLayer
62
256
370
-1
90
4
70
1
10
-1947.5151510877656
20
1193
10
-1947.5151510877656
20
1318
10
-1476.5151478393125
20
1318
10
-1476.5151478393125
20
1193
0
LINE
5
D212
330
D1A4
100
AcDbEntity
100
AcDbLine
8
EKP_VODAFONE_RRU
10
-1947.5151510877656
20
1215.5
30
0
11
-1476.5151478393125
21
1215.5
31
0
0
LINE
5
D213
330
D1A4
100
AcDbEntity
100
AcDbLine
8
EKP_VODAFONE_RRU
10
-1737.015149463539
20
1255.5
30
0
11
-1687.015149463539
21
1255.5
31
0
0
LINE
5
D214
330
D1A4
100
AcDbEntity
100
AcDbLine
8
EKP_VODAFONE_RRU
10
-1712.015149463539
20
1230.5
30
0
11
-1712.015149463539
21
1280.5
31
0
0
TEXT
5
D215
330
D1A4
100
AcDbEntity
100
AcDbText
8
EKP_VODAFONE_RRU
10
-1712.015149463539
20
1276.5
30
0
40
35
1
Vodafone RRU5526et (#5) (Ust Kot)
50
0
7
STANDARD
72
1
11
-1712.015149463539
21
1276.5
31
0
100
AcDbText
73
2
0
LWPOLYLINE
5
D26C
330
D1A4
100
AcDbEntity
100
AcDbPolyline
8
EKP_VODAFONE_RRU
6
ByLayer
62
256
370
-1
90
4
70
1
10
-750
20
-2050
10
-750
20
-1570
10
-400
20
-1570
10
-400
20
-2050
0
LWPOLYLINE
5
D26D
330
D1A4
100
AcDbEntity
100
AcDbPolyline
8
EKP_VODAFONE_RRU
6
ByLayer
62
256
370
-1
90
4
70
1
10
-645
20
-1570
10
-645
20
-1540
10
-505
20
-1540
10
-505
20
-1570
0
TEXT
5
D26E
330
D1A4
100
AcDbEntity
100
AcDbText
8
EKP_VODAFONE_RRU
10
-575
20
-1810
30
0
40
45
1
VODA
50
0
7
STANDARD
72
1
11
-575
21
-1810
31
0
100
AcDbText
73
2
0
LWPOLYLINE
5
D276
330
D1A4
100
AcDbEntity
100
AcDbPolyline
8
EKP_VODAFONE_RRU
6
ByLayer
62
256
370
-1
90
4
70
1
10
-490
20
-2050
10
-490
20
-1570
10
-140
20
-1570
10
-140
20
-2050
0
LWPOLYLINE
5
D277
330
D1A4
100
AcDbEntity
100
AcDbPolyline
8
EKP_VODAFONE_RRU
6
ByLayer
62
256
370
-1
90
4
70
1
10
-385
20
-1570
10
-385
20
-1540
10
-245.00000000000003
20
-1540
10
-245.00000000000003
20
-1570
0
TEXT
5
D278
330
D1A4
100
AcDbEntity
100
AcDbText
8
EKP_VODAFONE_RRU
10
-315
20
-1810
30
0
40
45
1
VODA
50
0
7
STANDARD
72
1
11
-315
21
-1810
31
0
100
AcDbText
73
2
0
LWPOLYLINE
5
D280
330
D1A4
100
AcDbEntity
100
AcDbPolyline
8
EKP_VODAFONE_RRU
6
ByLayer
62
256
370
-1
90
4
70
1
10
-230
20
-2050
10
-230
20
-1570
10
120
20
-1570
10
120
20
-2050
0
LWPOLYLINE
5
D281
330
D1A4
100
AcDbEntity
100
AcDbPolyline
8
EKP_VODAFONE_RRU
6
ByLayer
62
256
370
-1
90
4
70
1
10
-125
20
-1570
10
-125
20
-1540
10
14.999999999999972
20
-1540
10
14.999999999999972
20
-1570
0
TEXT
5
D282
330
D1A4
100
AcDbEntity
100
AcDbText
8
EKP_VODAFONE_RRU
10
-55
20
-1810
30
0
40
45
1
VODA
50
0
7
STANDARD
72
1
11
-55
21
-1810
31
0
100
AcDbText
73
2
0
LWPOLYLINE
5
D28A
330
D1A4
100
AcDbEntity
100
AcDbPolyline
8
EKP_VODAFONE_RRU
6
ByLayer
62
256
370
-1
90
4
70
1
10
30
20
-2050
10
30
20
-1570
10
380
20
-1570
10
380
20
-2050
0
LWPOLYLINE
5
D28B
330
D1A4
100
AcDbEntity
100
AcDbPolyline
8
EKP_VODAFONE_RRU
6
ByLayer
62
256
370
-1
90
4
70
1
10
135
20
-1570
10
135
20
-1540
10
275
20
-1540
10
275
20
-1570
0
TEXT
5
D28C
330
D1A4
100
AcDbEntity
100
AcDbText
8
EKP_VODAFONE_RRU
10
205
20
-1810
30
0
40
45
1
VODA
50
0
7
STANDARD
72
1
11
205
21
-1810
31
0
100
AcDbText
73
2
0
LWPOLYLINE
5
D294
330
D1A4
100
AcDbEntity
100
AcDbPolyline
8
EKP_VODAFONE_RRU
6
ByLayer
62
256
370
-1
90
4
70
1
10
290
20
-2050
10
290
20
-1570
10
640
20
-1570
10
640
20
-2050
0
LWPOLYLINE
5
D295
330
D1A4
100
AcDbEntity
100
AcDbPolyline
8
EKP_VODAFONE_RRU
6
ByLayer
62
256
370
-1
90
4
70
1
10
395
20
-1570
10
395
20
-1540
10
535
20
-1540
10
535
20
-1570
0
TEXT
5
D296
330
D1A4
100
AcDbEntity
100
AcDbText
8
EKP_VODAFONE_RRU
10
465
20
-1810
30
0
40
45
1
VODA
50
0
7
STANDARD
72
1
11
465
21
-1810
31
0
100
AcDbText
73
2
0
LWPOLYLINE
5
D29E
330
D1A4
100
AcDbEntity
100
AcDbPolyline
8
EKP_VODAFONE_RRU
6
ByLayer
62
256
370
-1
90
4
70
1
10
550
20
-2050
10
550
20
-1570
10
900
20
-1570
10
900
20
-2050
0
LWPOLYLINE
5
D29F
330
D1A4
100
AcDbEntity
100
AcDbPolyline
8
EKP_VODAFONE_RRU
6
ByLayer
62
256
370
-1
90
4
70
1
10
655
20
-1570
10
655
20
-1540
10
795
20
-1540
10
795
20
-1570
0
TEXT
5
D2A0
330
D1A4
100
AcDbEntity
100
AcDbText
8
EKP_VODAFONE_RRU
10
725
20
-1810
30
0
40
45
1
VODA
50
0
7
STANDARD
72
1
11
725
21
-1810
31
0
100
AcDbText
73
2
0
LWPOLYLINE
5
D2A8
330
D1A4
100
AcDbEntity
100
AcDbPolyline
8
EKP_VODAFONE_RRU
6
ByLayer
62
256
370
-1
90
4
70
1
10
810
20
-2050
10
810
20
-1570
10
1160
20
-1570
10
1160
20
-2050
0
LWPOLYLINE
5
D2A9
330
D1A4
100
AcDbEntity
100
AcDbPolyline
8
EKP_VODAFONE_RRU
6
ByLayer
62
256
370
-1
90
4
70
1
10
915
20
-1570
10
915
20
-1540
10
1055
20
-1540
10
1055
20
-1570
0
TEXT
5
D2AA
330
D1A4
100
AcDbEntity
100
AcDbText
8
EKP_VODAFONE_RRU
10
985
20
-1810
30
0
40
45
1
VODA
50
0
7
STANDARD
72
1
11
985
21
-1810
31
0
100
AcDbText
73
2
0
LWPOLYLINE
5
D1EE
330
D1A4
100
AcDbEntity
100
AcDbPolyline
8
EKP_TURK_TELEKOM_RRU
6
ByLayer
62
256
370
-1
90
4
70
1
10
-1947.5151510877656
20
1185.4999997019768
10
-1947.5151510877656
20
1325.5000002980232
10
-1476.5151478393125
20
1325.5000002980232
10
-1476.5151478393125
20
1185.4999997019768
0
LINE
5
D1EF
330
D1A4
100
AcDbEntity
100
AcDbLine
8
EKP_TURK_TELEKOM_RRU
10
-1947.5151510877656
20
1210.6999998092651
30
0
11
-1476.5151478393125
21
1210.6999998092651
31
0
0
LINE
5
D1F0
330
D1A4
100
AcDbEntity
100
AcDbLine
8
EKP_TURK_TELEKOM_RRU
10
-1740.0151495827483
20
1255.5
30
0
11
-1684.0151493443298
21
1255.5
31
0
0
LINE
5
D1F1
330
D1A4
100
AcDbEntity
100
AcDbLine
8
EKP_TURK_TELEKOM_RRU
10
-1712.015149463539
20
1227.4999998807907
30
0
11
-1712.015149463539
21
1283.5000001192093
31
0
0
TEXT
5
D1F2
330
D1A4
100
AcDbEntity
100
AcDbText
8
EKP_TURK_TELEKOM_RRU
10
-1712.015149463539
20
1279.0200001001358
30
0
40
39.20000016689301
1
Turk Telekom RRU5527 (#1) (Alt Kot)
50
0
7
STANDARD
72
1
11
-1712.015149463539
21
1279.0200001001358
31
0
100
AcDbText
73
2
0
LWPOLYLINE
5
D1F3
330
D1A4
100
AcDbEntity
100
AcDbPolyline
8
EKP_TURK_TELEKOM_RRU
6
ByLayer
62
256
370
-1
90
4
70
1
10
-1947.5151510877656
20
1005.4999997019768
10
-1947.5151510877656
20
1145.5000002980232
10
-1476.5151478393125
20
1145.5000002980232
10
-1476.5151478393125
20
1005.4999997019768
0
LINE
5
D1F4
330
D1A4
100
AcDbEntity
100
AcDbLine
8
EKP_TURK_TELEKOM_RRU
10
-1947.5151510877656
20
1030.6999998092651
30
0
11
-1476.5151478393125
21
1030.6999998092651
31
0
0
LINE
5
D1F5
330
D1A4
100
AcDbEntity
100
AcDbLine
8
EKP_TURK_TELEKOM_RRU
10
-1740.0151495827483
20
1075.5
30
0
11
-1684.0151493443298
21
1075.5
31
0
0
LINE
5
D1F6
330
D1A4
100
AcDbEntity
100
AcDbLine
8
EKP_TURK_TELEKOM_RRU
10
-1712.015149463539
20
1047.4999998807907
30
0
11
-1712.015149463539
21
1103.5000001192093
31
0
0
TEXT
5
D1F7
330
D1A4
100
AcDbEntity
100
AcDbText
8
EKP_TURK_TELEKOM_RRU
10
-1712.015149463539
20
1099.0200001001358
30
0
40
39.20000016689301
1
Turk Telekom NR RRU5818W (#1) (Alt Kot)
50
0
7
STANDARD
72
1
11
-1712.015149463539
21
1099.0200001001358
31
0
100
AcDbText
73
2
0
LWPOLYLINE
5
D1F8
330
D1A4
100
AcDbEntity
100
AcDbPolyline
8
EKP_TURK_TELEKOM_RRU
6
ByLayer
62
256
370
-1
90
4
70
1
10
-1947.5151510877656
20
825.4999997019768
10
-1947.5151510877656
20
965.5000002980232
10
-1476.5151478393125
20
965.5000002980232
10
-1476.5151478393125
20
825.4999997019768
0
LINE
5
D1F9
330
D1A4
100
AcDbEntity
100
AcDbLine
8
EKP_TURK_TELEKOM_RRU
10
-1947.5151510877656
20
850.6999998092651
30
0
11
-1476.5151478393125
21
850.6999998092651
31
0
0
LINE
5
D1FA
330
D1A4
100
AcDbEntity
100
AcDbLine
8
EKP_TURK_TELEKOM_RRU
10
-1740.0151495827483
20
895.5
30
0
11
-1684.0151493443298
21
895.5
31
0
0
LINE
5
D1FB
330
D1A4
100
AcDbEntity
100
AcDbLine
8
EKP_TURK_TELEKOM_RRU
10
-1712.015149463539
20
867.4999998807907
30
0
11
-1712.015149463539
21
923.5000001192093
31
0
0
TEXT
5
D1FC
330
D1A4
100
AcDbEntity
100
AcDbText
8
EKP_TURK_TELEKOM_RRU
10
-1712.015149463539
20
919.0200001001358
30
0
40
39.20000016689301
1
Turk Telekom RRU5527 (#2) (Alt Kot)
50
0
7
STANDARD
72
1
11
-1712.015149463539
21
919.0200001001358
31
0
100
AcDbText
73
2
0
LWPOLYLINE
5
D216
330
D1A4
100
AcDbEntity
100
AcDbPolyline
8
EKP_TURK_TELEKOM_RRU
6
ByLayer
62
256
370
-1
90
4
70
1
10
-1947.5151510877656
20
1005.4999997019768
10
-1947.5151510877656
20
1145.5000002980232
10
-1476.5151478393125
20
1145.5000002980232
10
-1476.5151478393125
20
1005.4999997019768
0
LINE
5
D217
330
D1A4
100
AcDbEntity
100
AcDbLine
8
EKP_TURK_TELEKOM_RRU
10
-1947.5151510877656
20
1030.6999998092651
30
0
11
-1476.5151478393125
21
1030.6999998092651
31
0
0
LINE
5
D218
330
D1A4
100
AcDbEntity
100
AcDbLine
8
EKP_TURK_TELEKOM_RRU
10
-1740.0151495827483
20
1075.5
30
0
11
-1684.0151493443298
21
1075.5
31
0
0
LINE
5
D219
330
D1A4
100
AcDbEntity
100
AcDbLine
8
EKP_TURK_TELEKOM_RRU
10
-1712.015149463539
20
1047.4999998807907
30
0
11
-1712.015149463539
21
1103.5000001192093
31
0
0
TEXT
5
D21A
330
D1A4
100
AcDbEntity
100
AcDbText
8
EKP_TURK_TELEKOM_RRU
10
-1712.015149463539
20
1099.0200001001358
30
0
40
39.20000016689301
1
Turk Telekom NR RRU5818W (#2) (Ust Kot)
50
0
7
STANDARD
72
1
11
-1712.015149463539
21
1099.0200001001358
31
0
100
AcDbText
73
2
0
LWPOLYLINE
5
D286
330
D1A4
100
AcDbEntity
100
AcDbPolyline
8
EKP_TURK_TELEKOM_RRU
6
ByLayer
62
256
370
-1
90
4
70
1
10
30
20
-2750
10
30
20
-2270
10
380
20
-2270
10
380
20
-2750
0
LWPOLYLINE
5
D287
330
D1A4
100
AcDbEntity
100
AcDbPolyline
8
EKP_TURK_TELEKOM_RRU
6
ByLayer
62
256
370
-1
90
4
70
1
10
135
20
-2270
10
135
20
-2240
10
275
20
-2240
10
275
20
-2270
0
TEXT
5
D288
330
D1A4
100
AcDbEntity
100
AcDbText
8
EKP_TURK_TELEKOM_RRU
10
205
20
-2510
30
0
40
45
1
TT
50
0
7
STANDARD
72
1
11
205
21
-2510
31
0
100
AcDbText
73
2
0
LWPOLYLINE
5
D290
330
D1A4
100
AcDbEntity
100
AcDbPolyline
8
EKP_TURK_TELEKOM_RRU
6
ByLayer
62
256
370
-1
90
4
70
1
10
290
20
-2750
10
290
20
-2270
10
640
20
-2270
10
640
20
-2750
0
LWPOLYLINE
5
D291
330
D1A4
100
AcDbEntity
100
AcDbPolyline
8
EKP_TURK_TELEKOM_RRU
6
ByLayer
62
256
370
-1
90
4
70
1
10
395
20
-2270
10
395
20
-2240
10
535
20
-2240
10
535
20
-2270
0
TEXT
5
D292
330
D1A4
100
AcDbEntity
100
AcDbText
8
EKP_TURK_TELEKOM_RRU
10
465
20
-2510
30
0
40
45
1
TT
50
0
7
STANDARD
72
1
11
465
21
-2510
31
0
100
AcDbText
73
2
0
LWPOLYLINE
5
D29A
330
D1A4
100
AcDbEntity
100
AcDbPolyline
8
EKP_TURK_TELEKOM_RRU
6
ByLayer
62
256
370
-1
90
4
70
1
10
550
20
-2750
10
550
20
-2270
10
900
20
-2270
10
900
20
-2750
0
LWPOLYLINE
5
D29B
330
D1A4
100
AcDbEntity
100
AcDbPolyline
8
EKP_TURK_TELEKOM_RRU
6
ByLayer
62
256
370
-1
90
4
70
1
10
655
20
-2270
10
655
20
-2240
10
795
20
-2240
10
795
20
-2270
0
TEXT
5
D29C
330
D1A4
100
AcDbEntity
100
AcDbText
8
EKP_TURK_TELEKOM_RRU
10
725
20
-2510
30
0
40
45
1
TT
50
0
7
STANDARD
72
1
11
725
21
-2510
31
0
100
AcDbText
73
2
0
LWPOLYLINE
5
D2A4
330
D1A4
100
AcDbEntity
100
AcDbPolyline
8
EKP_TURK_TELEKOM_RRU
6
ByLayer
62
256
370
-1
90
4
70
1
10
810
20
-2750
10
810
20
-2270
10
1160
20
-2270
10
1160
20
-2750
0
LWPOLYLINE
5
D2A5
330
D1A4
100
AcDbEntity
100
AcDbPolyline
8
EKP_TURK_TELEKOM_RRU
6
ByLayer
62
256
370
-1
90
4
70
1
10
915
20
-2270
10
915
20
-2240
10
1055
20
-2240
10
1055
20
-2270
0
TEXT
5
D2A6
330
D1A4
100
AcDbEntity
100
AcDbText
8
EKP_TURK_TELEKOM_RRU
10
985
20
-2510
30
0
40
45
1
TT
50
0
7
STANDARD
72
1
11
985
21
-2510
31
0
100
AcDbText
73
2
0
LWPOLYLINE
5
D21B
330
D1A4
100
AcDbEntity
100
AcDbPolyline
8
EKP_POI_TASIYICI_SASE
6
ByLayer
62
256
370
-1
90
4
70
1
10
-262.51514497828947
20
1425.4999997019768
10
-262.51514497828947
20
2045.5000002980235
10
437.4848431007817
20
2045.5000002980235
10
437.4848431007817
20
1425.4999997019768
0
LWPOLYLINE
5
D21C
330
D1A4
100
AcDbEntity
100
AcDbPolyline
8
EKP_POI_TASIYICI_SASE
6
ByLayer
62
256
370
-1
90
4
70
1
10
-262.51514497828947
20
1425.4999997019768
10
-262.51514497828947
20
1485.4999997019768
10
-202.51514497828947
20
1485.4999997019768
10
-202.51514497828947
20
1425.4999997019768
0
LWPOLYLINE
5
D21D
330
D1A4
100
AcDbEntity
100
AcDbPolyline
8
EKP_POI_TASIYICI_SASE
6
ByLayer
62
256
370
-1
90
4
70
1
10
377.4848431007817
20
1425.4999997019768
10
377.4848431007817
20
1485.4999997019768
10
437.4848431007817
20
1485.4999997019768
10
437.4848431007817
20
1425.4999997019768
0
LWPOLYLINE
5
D21E
330
D1A4
100
AcDbEntity
100
AcDbPolyline
8
EKP_POI_TASIYICI_SASE
6
ByLayer
62
256
370
-1
90
4
70
1
10
-262.51514497828947
20
1985.5000002980235
10
-262.51514497828947
20
2045.5000002980235
10
-202.51514497828947
20
2045.5000002980235
10
-202.51514497828947
20
1985.5000002980235
0
LWPOLYLINE
5
D21F
330
D1A4
100
AcDbEntity
100
AcDbPolyline
8
EKP_POI_TASIYICI_SASE
6
ByLayer
62
256
370
-1
90
4
70
1
10
377.4848431007817
20
1985.5000002980235
10
377.4848431007817
20
2045.5000002980235
10
437.4848431007817
20
2045.5000002980235
10
437.4848431007817
20
1985.5000002980235
0
LWPOLYLINE
5
D220
330
D1A4
100
AcDbEntity
100
AcDbPolyline
8
EKP_POI_TASIYICI_SASE
6
ByLayer
62
256
370
-1
90
4
70
1
10
-178.8151509387539
20
1485.4999997019768
10
-178.8151509387539
20
1985.5000002980235
10
-153.8151509387539
20
1985.5000002980235
10
-153.8151509387539
20
1485.4999997019768
0
LWPOLYLINE
5
D221
330
D1A4
100
AcDbEntity
100
AcDbPolyline
8
EKP_POI_TASIYICI_SASE
6
ByLayer
62
256
370
-1
90
4
70
1
10
328.7848490612461
20
1485.4999997019768
10
328.7848490612461
20
1985.5000002980235
10
353.7848490612461
20
1985.5000002980235
10
353.7848490612461
20
1485.4999997019768
0
TEXT
5
D222
330
D1A4
100
AcDbEntity
100
AcDbText
8
EKP_POI_TASIYICI_SASE
10
87.48484906124611
20
1735.5
30
0
40
55
1
POI Rack Blok (5x POI Dolu)
50
0
7
STANDARD
72
1
11
87.48484906124611
21
1735.5
31
0
100
AcDbText
73
2
0
LWPOLYLINE
5
D23C
330
D1A4
100
AcDbEntity
100
AcDbPolyline
8
EKP_POI_TASIYICI_SASE
6
ByLayer
62
256
370
-1
90
4
70
1
10
-262.51514497828947
20
825.4999997019768
10
-262.51514497828947
20
1445.5000002980232
10
437.4848431007817
20
1445.5000002980232
10
437.4848431007817
20
825.4999997019768
0
LWPOLYLINE
5
D23D
330
D1A4
100
AcDbEntity
100
AcDbPolyline
8
EKP_POI_TASIYICI_SASE
6
ByLayer
62
256
370
-1
90
4
70
1
10
-262.51514497828947
20
825.4999997019768
10
-262.51514497828947
20
885.4999997019768
10
-202.51514497828947
20
885.4999997019768
10
-202.51514497828947
20
825.4999997019768
0
LWPOLYLINE
5
D23E
330
D1A4
100
AcDbEntity
100
AcDbPolyline
8
EKP_POI_TASIYICI_SASE
6
ByLayer
62
256
370
-1
90
4
70
1
10
377.4848431007817
20
825.4999997019768
10
377.4848431007817
20
885.4999997019768
10
437.4848431007817
20
885.4999997019768
10
437.4848431007817
20
825.4999997019768
0
LWPOLYLINE
5
D23F
330
D1A4
100
AcDbEntity
100
AcDbPolyline
8
EKP_POI_TASIYICI_SASE
6
ByLayer
62
256
370
-1
90
4
70
1
10
-262.51514497828947
20
1385.5000002980232
10
-262.51514497828947
20
1445.5000002980232
10
-202.51514497828947
20
1445.5000002980232
10
-202.51514497828947
20
1385.5000002980232
0
LWPOLYLINE
5
D240
330
D1A4
100
AcDbEntity
100
AcDbPolyline
8
EKP_POI_TASIYICI_SASE
6
ByLayer
62
256
370
-1
90
4
70
1
10
377.4848431007817
20
1385.5000002980232
10
377.4848431007817
20
1445.5000002980232
10
437.4848431007817
20
1445.5000002980232
10
437.4848431007817
20
1385.5000002980232
0
LWPOLYLINE
5
D241
330
D1A4
100
AcDbEntity
100
AcDbPolyline
8
EKP_POI_TASIYICI_SASE
6
ByLayer
62
256
370
-1
90
4
70
1
10
-178.8151509387539
20
885.4999997019768
10
-178.8151509387539
20
1385.5000002980232
10
-153.8151509387539
20
1385.5000002980232
10
-153.8151509387539
20
885.4999997019768
0
LWPOLYLINE
5
D242
330
D1A4
100
AcDbEntity
100
AcDbPolyline
8
EKP_POI_TASIYICI_SASE
6
ByLayer
62
256
370
-1
90
4
70
1
10
328.7848490612461
20
885.4999997019768
10
328.7848490612461
20
1385.5000002980232
10
353.7848490612461
20
1385.5000002980232
10
353.7848490612461
20
885.4999997019768
0
TEXT
5
D243
330
D1A4
100
AcDbEntity
100
AcDbText
8
EKP_POI_TASIYICI_SASE
10
87.48484906124611
20
1135.5
30
0
40
55
1
POI Rack Blok (5x POI Dolu)
50
0
7
STANDARD
72
1
11
87.48484906124611
21
1135.5
31
0
100
AcDbText
73
2
0
LWPOLYLINE
5
D2AB
330
D1A4
100
AcDbEntity
100
AcDbPolyline
8
EKP_POI_TASIYICI_SASE
6
ByLayer
62
256
370
-1
90
4
70
1
10
200
20
-3500
10
200
20
-3400
10
800
20
-3400
10
800
20
-3500
0
LWPOLYLINE
5
D2AC
330
D1A4
100
AcDbEntity
100
AcDbPolyline
8
EKP_POI_TASIYICI_SASE
6
ByLayer
62
256
370
-1
90
4
70
1
10
200
20
-1780
10
200
20
-1720
10
800
20
-1720
10
800
20
-1780
0
LWPOLYLINE
5
D2AD
330
D1A4
100
AcDbEntity
100
AcDbPolyline
8
EKP_POI_TASIYICI_SASE
6
ByLayer
62
256
370
-1
90
4
70
1
10
200
20
-3400
10
200
20
-1780
10
250
20
-1780
10
250
20
-3400
0
LWPOLYLINE
5
D2AE
330
D1A4
100
AcDbEntity
100
AcDbPolyline
8
EKP_POI_TASIYICI_SASE
6
ByLayer
62
256
370
-1
90
4
70
1
10
750
20
-3400
10
750
20
-1780
10
800
20
-1780
10
800
20
-3400
0
LWPOLYLINE
5
D2B9
330
D1A4
100
AcDbEntity
100
AcDbPolyline
8
EKP_POI_TASIYICI_SASE
6
ByLayer
62
256
370
-1
90
4
70
1
10
900
20
-3500
10
900
20
-3400
10
1500
20
-3400
10
1500
20
-3500
0
LWPOLYLINE
5
D2BA
330
D1A4
100
AcDbEntity
100
AcDbPolyline
8
EKP_POI_TASIYICI_SASE
6
ByLayer
62
256
370
-1
90
4
70
1
10
900
20
-1780
10
900
20
-1720
10
1500
20
-1720
10
1500
20
-1780
0
LWPOLYLINE
5
D2BB
330
D1A4
100
AcDbEntity
100
AcDbPolyline
8
EKP_POI_TASIYICI_SASE
6
ByLayer
62
256
370
-1
90
4
70
1
10
900
20
-3400
10
900
20
-1780
10
950
20
-1780
10
950
20
-3400
0
LWPOLYLINE
5
D2BC
330
D1A4
100
AcDbEntity
100
AcDbPolyline
8
EKP_POI_TASIYICI_SASE
6
ByLayer
62
256
370
-1
90
4
70
1
10
1450
20
-3400
10
1450
20
-1780
10
1500
20
-1780
10
1500
20
-3400
0
LWPOLYLINE
5
D223
330
D1A4
100
AcDbEntity
100
AcDbPolyline
8
EKP_POI_MODULLERI
6
ByLayer
62
256
370
-1
90
4
70
1
10
-112.51515112501848
20
1495.5000004470348
10
-112.51515112501848
20
1975.4999995529652
10
262.484846081014
20
1975.4999995529652
10
262.484846081014
20
1495.5000004470348
0
LINE
5
D224
330
D1A4
100
AcDbEntity
100
AcDbLine
8
EKP_POI_MODULLERI
10
-56.265151544113614
20
1495.5000004470348
30
0
11
-56.265151544113614
21
1975.4999995529652
31
0
0
LINE
5
D225
330
D1A4
100
AcDbEntity
100
AcDbLine
8
EKP_POI_MODULLERI
10
7.484847980911908
20
1735.5
30
0
11
142.4848469750836
21
1735.5
31
0
0
LINE
5
D226
330
D1A4
100
AcDbEntity
100
AcDbLine
8
EKP_POI_MODULLERI
10
74.98484747799775
20
1668.0000005029142
30
0
11
74.98484747799775
21
1802.9999994970858
31
0
0
TEXT
5
D227
330
D1A4
100
AcDbEntity
100
AcDbText
8
EKP_POI_MODULLERI
10
74.98484747799775
20
1762.5
30
0
40
45
1
POI Modul 1 (CB-12-POI-64F-A12)
50
0
7
STANDARD
72
1
11
74.98484747799775
21
1762.5
31
0
100
AcDbText
73
2
0
LWPOLYLINE
5
D228
330
D1A4
100
AcDbEntity
100
AcDbPolyline
8
EKP_POI_MODULLERI
6
ByLayer
62
256
370
-1
90
4
70
1
10
-112.51515112501848
20
1495.5000004470348
10
-112.51515112501848
20
1975.4999995529652
10
262.484846081014
20
1975.4999995529652
10
262.484846081014
20
1495.5000004470348
0
LINE
5
D229
330
D1A4
100
AcDbEntity
100
AcDbLine
8
EKP_POI_MODULLERI
10
-56.265151544113614
20
1495.5000004470348
30
0
11
-56.265151544113614
21
1975.4999995529652
31
0
0
LINE
5
D22A
330
D1A4
100
AcDbEntity
100
AcDbLine
8
EKP_POI_MODULLERI
10
7.484847980911908
20
1735.5
30
0
11
142.4848469750836
21
1735.5
31
0
0
LINE
5
D22B
330
D1A4
100
AcDbEntity
100
AcDbLine
8
EKP_POI_MODULLERI
10
74.98484747799775
20
1668.0000005029142
30
0
11
74.98484747799775
21
1802.9999994970858
31
0
0
TEXT
5
D22C
330
D1A4
100
AcDbEntity
100
AcDbText
8
EKP_POI_MODULLERI
10
74.98484747799775
20
1762.5
30
0
40
45
1
POI Modul 2 (CB-12-POI-64F-A12)
50
0
7
STANDARD
72
1
11
74.98484747799775
21
1762.5
31
0
100
AcDbText
73
2
0
LWPOLYLINE
5
D22D
330
D1A4
100
AcDbEntity
100
AcDbPolyline
8
EKP_POI_MODULLERI
6
ByLayer
62
256
370
-1
90
4
70
1
10
-112.51515112501848
20
1495.5000004470348
10
-112.51515112501848
20
1975.4999995529652
10
262.484846081014
20
1975.4999995529652
10
262.484846081014
20
1495.5000004470348
0
LINE
5
D22E
330
D1A4
100
AcDbEntity
100
AcDbLine
8
EKP_POI_MODULLERI
10
-56.265151544113614
20
1495.5000004470348
30
0
11
-56.265151544113614
21
1975.4999995529652
31
0
0
LINE
5
D22F
330
D1A4
100
AcDbEntity
100
AcDbLine
8
EKP_POI_MODULLERI
10
7.484847980911908
20
1735.5
30
0
11
142.4848469750836
21
1735.5
31
0
0
LINE
5
D230
330
D1A4
100
AcDbEntity
100
AcDbLine
8
EKP_POI_MODULLERI
10
74.98484747799775
20
1668.0000005029142
30
0
11
74.98484747799775
21
1802.9999994970858
31
0
0
TEXT
5
D231
330
D1A4
100
AcDbEntity
100
AcDbText
8
EKP_POI_MODULLERI
10
74.98484747799775
20
1762.5
30
0
40
45
1
POI Modul 3 (CB-12-POI-64F-A12)
50
0
7
STANDARD
72
1
11
74.98484747799775
21
1762.5
31
0
100
AcDbText
73
2
0
LWPOLYLINE
5
D232
330
D1A4
100
AcDbEntity
100
AcDbPolyline
8
EKP_POI_MODULLERI
6
ByLayer
62
256
370
-1
90
4
70
1
10
-112.51515112501848
20
1495.5000004470348
10
-112.51515112501848
20
1975.4999995529652
10
262.484846081014
20
1975.4999995529652
10
262.484846081014
20
1495.5000004470348
0
LINE
5
D233
330
D1A4
100
AcDbEntity
100
AcDbLine
8
EKP_POI_MODULLERI
10
-56.265151544113614
20
1495.5000004470348
30
0
11
-56.265151544113614
21
1975.4999995529652
31
0
0
LINE
5
D234
330
D1A4
100
AcDbEntity
100
AcDbLine
8
EKP_POI_MODULLERI
10
7.484847980911908
20
1735.5
30
0
11
142.4848469750836
21
1735.5
31
0
0
LINE
5
D235
330
D1A4
100
AcDbEntity
100
AcDbLine
8
EKP_POI_MODULLERI
10
74.98484747799775
20
1668.0000005029142
30
0
11
74.98484747799775
21
1802.9999994970858
31
0
0
TEXT
5
D236
330
D1A4
100
AcDbEntity
100
AcDbText
8
EKP_POI_MODULLERI
10
74.98484747799775
20
1762.5
30
0
40
45
1
POI Modul 4 (CB-12-POI-64F-A12)
50
0
7
STANDARD
72
1
11
74.98484747799775
21
1762.5
31
0
100
AcDbText
73
2
0
LWPOLYLINE
5
D237
330
D1A4
100
AcDbEntity
100
AcDbPolyline
8
EKP_POI_MODULLERI
6
ByLayer
62
256
370
-1
90
4
70
1
10
-112.51515112501848
20
1495.5000004470348
10
-112.51515112501848
20
1975.4999995529652
10
262.484846081014
20
1975.4999995529652
10
262.484846081014
20
1495.5000004470348
0
LINE
5
D238
330
D1A4
100
AcDbEntity
100
AcDbLine
8
EKP_POI_MODULLERI
10
-56.265151544113614
20
1495.5000004470348
30
0
11
-56.265151544113614
21
1975.4999995529652
31
0
0
LINE
5
D239
330
D1A4
100
AcDbEntity
100
AcDbLine
8
EKP_POI_MODULLERI
10
7.484847980911908
20
1735.5
30
0
11
142.4848469750836
21
1735.5
31
0
0
LINE
5
D23A
330
D1A4
100
AcDbEntity
100
AcDbLine
8
EKP_POI_MODULLERI
10
74.98484747799775
20
1668.0000005029142
30
0
11
74.98484747799775
21
1802.9999994970858
31
0
0
TEXT
5
D23B
330
D1A4
100
AcDbEntity
100
AcDbText
8
EKP_POI_MODULLERI
10
74.98484747799775
20
1762.5
30
0
40
45
1
POI Modul 5 (CB-12-POI-64F-A12)
50
0
7
STANDARD
72
1
11
74.98484747799775
21
1762.5
31
0
100
AcDbText
73
2
0
LWPOLYLINE
5
D244
330
D1A4
100
AcDbEntity
100
AcDbPolyline
8
EKP_POI_MODULLERI
6
ByLayer
62
256
370
-1
90
4
70
1
10
-112.51515112501848
20
895.5000004470348
10
-112.51515112501848
20
1375.4999995529652
10
262.484846081014
20
1375.4999995529652
10
262.484846081014
20
895.5000004470348
0
LINE
5
D245
330
D1A4
100
AcDbEntity
100
AcDbLine
8
EKP_POI_MODULLERI
10
-56.265151544113614
20
895.5000004470348
30
0
11
-56.265151544113614
21
1375.4999995529652
31
0
0
LINE
5
D246
330
D1A4
100
AcDbEntity
100
AcDbLine
8
EKP_POI_MODULLERI
10
7.484847980911908
20
1135.5
30
0
11
142.4848469750836
21
1135.5
31
0
0
LINE
5
D247
330
D1A4
100
AcDbEntity
100
AcDbLine
8
EKP_POI_MODULLERI
10
74.98484747799775
20
1068.0000005029142
30
0
11
74.98484747799775
21
1202.9999994970858
31
0
0
TEXT
5
D248
330
D1A4
100
AcDbEntity
100
AcDbText
8
EKP_POI_MODULLERI
10
74.98484747799775
20
1162.5
30
0
40
45
1
POI Modul 1 (CB-12-POI-64F-A12)
50
0
7
STANDARD
72
1
11
74.98484747799775
21
1162.5
31
0
100
AcDbText
73
2
0
LWPOLYLINE
5
D249
330
D1A4
100
AcDbEntity
100
AcDbPolyline
8
EKP_POI_MODULLERI
6
ByLayer
62
256
370
-1
90
4
70
1
10
-112.51515112501848
20
895.5000004470348
10
-112.51515112501848
20
1375.4999995529652
10
262.484846081014
20
1375.4999995529652
10
262.484846081014
20
895.5000004470348
0
LINE
5
D24A
330
D1A4
100
AcDbEntity
100
AcDbLine
8
EKP_POI_MODULLERI
10
-56.265151544113614
20
895.5000004470348
30
0
11
-56.265151544113614
21
1375.4999995529652
31
0
0
LINE
5
D24B
330
D1A4
100
AcDbEntity
100
AcDbLine
8
EKP_POI_MODULLERI
10
7.484847980911908
20
1135.5
30
0
11
142.4848469750836
21
1135.5
31
0
0
LINE
5
D24C
330
D1A4
100
AcDbEntity
100
AcDbLine
8
EKP_POI_MODULLERI
10
74.98484747799775
20
1068.0000005029142
30
0
11
74.98484747799775
21
1202.9999994970858
31
0
0
TEXT
5
D24D
330
D1A4
100
AcDbEntity
100
AcDbText
8
EKP_POI_MODULLERI
10
74.98484747799775
20
1162.5
30
0
40
45
1
POI Modul 2 (CB-12-POI-64F-A12)
50
0
7
STANDARD
72
1
11
74.98484747799775
21
1162.5
31
0
100
AcDbText
73
2
0
LWPOLYLINE
5
D24E
330
D1A4
100
AcDbEntity
100
AcDbPolyline
8
EKP_POI_MODULLERI
6
ByLayer
62
256
370
-1
90
4
70
1
10
-112.51515112501848
20
895.5000004470348
10
-112.51515112501848
20
1375.4999995529652
10
262.484846081014
20
1375.4999995529652
10
262.484846081014
20
895.5000004470348
0
LINE
5
D24F
330
D1A4
100
AcDbEntity
100
AcDbLine
8
EKP_POI_MODULLERI
10
-56.265151544113614
20
895.5000004470348
30
0
11
-56.265151544113614
21
1375.4999995529652
31
0
0
LINE
5
D250
330
D1A4
100
AcDbEntity
100
AcDbLine
8
EKP_POI_MODULLERI
10
7.484847980911908
20
1135.5
30
0
11
142.4848469750836
21
1135.5
31
0
0
LINE
5
D251
330
D1A4
100
AcDbEntity
100
AcDbLine
8
EKP_POI_MODULLERI
10
74.98484747799775
20
1068.0000005029142
30
0
11
74.98484747799775
21
1202.9999994970858
31
0
0
TEXT
5
D252
330
D1A4
100
AcDbEntity
100
AcDbText
8
EKP_POI_MODULLERI
10
74.98484747799775
20
1162.5
30
0
40
45
1
POI Modul 3 (CB-12-POI-64F-A12)
50
0
7
STANDARD
72
1
11
74.98484747799775
21
1162.5
31
0
100
AcDbText
73
2
0
LWPOLYLINE
5
D253
330
D1A4
100
AcDbEntity
100
AcDbPolyline
8
EKP_POI_MODULLERI
6
ByLayer
62
256
370
-1
90
4
70
1
10
-112.51515112501848
20
895.5000004470348
10
-112.51515112501848
20
1375.4999995529652
10
262.484846081014
20
1375.4999995529652
10
262.484846081014
20
895.5000004470348
0
LINE
5
D254
330
D1A4
100
AcDbEntity
100
AcDbLine
8
EKP_POI_MODULLERI
10
-56.265151544113614
20
895.5000004470348
30
0
11
-56.265151544113614
21
1375.4999995529652
31
0
0
LINE
5
D255
330
D1A4
100
AcDbEntity
100
AcDbLine
8
EKP_POI_MODULLERI
10
7.484847980911908
20
1135.5
30
0
11
142.4848469750836
21
1135.5
31
0
0
LINE
5
D256
330
D1A4
100
AcDbEntity
100
AcDbLine
8
EKP_POI_MODULLERI
10
74.98484747799775
20
1068.0000005029142
30
0
11
74.98484747799775
21
1202.9999994970858
31
0
0
TEXT
5
D257
330
D1A4
100
AcDbEntity
100
AcDbText
8
EKP_POI_MODULLERI
10
74.98484747799775
20
1162.5
30
0
40
45
1
POI Modul 4 (CB-12-POI-64F-A12)
50
0
7
STANDARD
72
1
11
74.98484747799775
21
1162.5
31
0
100
AcDbText
73
2
0
LWPOLYLINE
5
D258
330
D1A4
100
AcDbEntity
100
AcDbPolyline
8
EKP_POI_MODULLERI
6
ByLayer
62
256
370
-1
90
4
70
1
10
-112.51515112501848
20
895.5000004470348
10
-112.51515112501848
20
1375.4999995529652
10
262.484846081014
20
1375.4999995529652
10
262.484846081014
20
895.5000004470348
0
LINE
5
D259
330
D1A4
100
AcDbEntity
100
AcDbLine
8
EKP_POI_MODULLERI
10
-56.265151544113614
20
895.5000004470348
30
0
11
-56.265151544113614
21
1375.4999995529652
31
0
0
LINE
5
D25A
330
D1A4
100
AcDbEntity
100
AcDbLine
8
EKP_POI_MODULLERI
10
7.484847980911908
20
1135.5
30
0
11
142.4848469750836
21
1135.5
31
0
0
LINE
5
D25B
330
D1A4
100
AcDbEntity
100
AcDbLine
8
EKP_POI_MODULLERI
10
74.98484747799775
20
1068.0000005029142
30
0
11
74.98484747799775
21
1202.9999994970858
31
0
0
TEXT
5
D25C
330
D1A4
100
AcDbEntity
100
AcDbText
8
EKP_POI_MODULLERI
10
74.98484747799775
20
1162.5
30
0
40
45
1
POI Modul 5 (CB-12-POI-64F-A12)
50
0
7
STANDARD
72
1
11
74.98484747799775
21
1162.5
31
0
100
AcDbText
73
2
0
LWPOLYLINE
5
D2AF
330
D1A4
100
AcDbEntity
100
AcDbPolyline
8
EKP_POI_MODULLERI
6
ByLayer
62
256
370
-1
90
4
70
1
10
260
20
-3385
10
260
20
-3125
10
740
20
-3125
10
740
20
-3385
0
TEXT
5
D2B0
330
D1A4
100
AcDbEntity
100
AcDbText
8
EKP_POI_MODULLERI
10
500
20
-3255
30
0
40
40
1
POI-1
50
0
7
STANDARD
72
1
11
500
21
-3255
31
0
100
AcDbText
73
2
0
LWPOLYLINE
5
D2B1
330
D1A4
100
AcDbEntity
100
AcDbPolyline
8
EKP_POI_MODULLERI
6
ByLayer
62
256
370
-1
90
4
70
1
10
260
20
-3070
10
260
20
-2810
10
740
20
-2810
10
740
20
-3070
0
TEXT
5
D2B2
330
D1A4
100
AcDbEntity
100
AcDbText
8
EKP_POI_MODULLERI
10
500
20
-2940
30
0
40
40
1
POI-2
50
0
7
STANDARD
72
1
11
500
21
-2940
31
0
100
AcDbText
73
2
0
LWPOLYLINE
5
D2B3
330
D1A4
100
AcDbEntity
100
AcDbPolyline
8
EKP_POI_MODULLERI
6
ByLayer
62
256
370
-1
90
4
70
1
10
260
20
-2755
10
260
20
-2495
10
740
20
-2495
10
740
20
-2755
0
TEXT
5
D2B4
330
D1A4
100
AcDbEntity
100
AcDbText
8
EKP_POI_MODULLERI
10
500
20
-2625
30
0
40
40
1
POI-3
50
0
7
STANDARD
72
1
11
500
21
-2625
31
0
100
AcDbText
73
2
0
LWPOLYLINE
5
D2B5
330
D1A4
100
AcDbEntity
100
AcDbPolyline
8
EKP_POI_MODULLERI
6
ByLayer
62
256
370
-1
90
4
70
1
10
260
20
-2440
10
260
20
-2180
10
740
20
-2180
10
740
20
-2440
0
TEXT
5
D2B6
330
D1A4
100
AcDbEntity
100
AcDbText
8
EKP_POI_MODULLERI
10
500
20
-2310
30
0
40
40
1
POI-4
50
0
7
STANDARD
72
1
11
500
21
-2310
31
0
100
AcDbText
73
2
0
LWPOLYLINE
5
D2B7
330
D1A4
100
AcDbEntity
100
AcDbPolyline
8
EKP_POI_MODULLERI
6
ByLayer
62
256
370
-1
90
4
70
1
10
260
20
-2125
10
260
20
-1865
10
740
20
-1865
10
740
20
-2125
0
TEXT
5
D2B8
330
D1A4
100
AcDbEntity
100
AcDbText
8
EKP_POI_MODULLERI
10
500
20
-1995
30
0
40
40
1
POI-5
50
0
7
STANDARD
72
1
11
500
21
-1995
31
0
100
AcDbText
73
2
0
LWPOLYLINE
5
D2BD
330
D1A4
100
AcDbEntity
100
AcDbPolyline
8
EKP_POI_MODULLERI
6
ByLayer
62
256
370
-1
90
4
70
1
10
960
20
-3385
10
960
20
-3125
10
1440
20
-3125
10
1440
20
-3385
0
TEXT
5
D2BE
330
D1A4
100
AcDbEntity
100
AcDbText
8
EKP_POI_MODULLERI
10
1200
20
-3255
30
0
40
40
1
POI-1
50
0
7
STANDARD
72
1
11
1200
21
-3255
31
0
100
AcDbText
73
2
0
LWPOLYLINE
5
D2BF
330
D1A4
100
AcDbEntity
100
AcDbPolyline
8
EKP_POI_MODULLERI
6
ByLayer
62
256
370
-1
90
4
70
1
10
960
20
-3070
10
960
20
-2810
10
1440
20
-2810
10
1440
20
-3070
0
TEXT
5
D2C0
330
D1A4
100
AcDbEntity
100
AcDbText
8
EKP_POI_MODULLERI
10
1200
20
-2940
30
0
40
40
1
POI-2
50
0
7
STANDARD
72
1
11
1200
21
-2940
31
0
100
AcDbText
73
2
0
LWPOLYLINE
5
D2C1
330
D1A4
100
AcDbEntity
100
AcDbPolyline
8
EKP_POI_MODULLERI
6
ByLayer
62
256
370
-1
90
4
70
1
10
960
20
-2755
10
960
20
-2495
10
1440
20
-2495
10
1440
20
-2755
0
TEXT
5
D2C2
330
D1A4
100
AcDbEntity
100
AcDbText
8
EKP_POI_MODULLERI
10
1200
20
-2625
30
0
40
40
1
POI-3
50
0
7
STANDARD
72
1
11
1200
21
-2625
31
0
100
AcDbText
73
2
0
LWPOLYLINE
5
D2C3
330
D1A4
100
AcDbEntity
100
AcDbPolyline
8
EKP_POI_MODULLERI
6
ByLayer
62
256
370
-1
90
4
70
1
10
960
20
-2440
10
960
20
-2180
10
1440
20
-2180
10
1440
20
-2440
0
TEXT
5
D2C4
330
D1A4
100
AcDbEntity
100
AcDbText
8
EKP_POI_MODULLERI
10
1200
20
-2310
30
0
40
40
1
POI-4
50
0
7
STANDARD
72
1
11
1200
21
-2310
31
0
100
AcDbText
73
2
0
LWPOLYLINE
5
D2C5
330
D1A4
100
AcDbEntity
100
AcDbPolyline
8
EKP_POI_MODULLERI
6
ByLayer
62
256
370
-1
90
4
70
1
10
960
20
-2125
10
960
20
-1865
10
1440
20
-1865
10
1440
20
-2125
0
TEXT
5
D2C6
330
D1A4
100
AcDbEntity
100
AcDbText
8
EKP_POI_MODULLERI
10
1200
20
-1995
30
0
40
40
1
POI-5
50
0
7
STANDARD
72
1
11
1200
21
-1995
31
0
100
AcDbText
73
2
0
LWPOLYLINE
5
D1BE
330
D1A4
100
AcDbEntity
100
AcDbPolyline
8
BLOK_OZEL_PLATFORM
6
ByLayer
62
256
370
-1
90
4
70
1
10
-1300
20
-700
10
-1300
20
700
10
1300
20
700
10
1300
20
-700
0
LINE
5
D1BF
330
D1A4
100
AcDbEntity
100
AcDbLine
8
BLOK_OZEL_PLATFORM
10
-650
20
-700
30
0
11
-650
21
700
31
0
0
LINE
5
D1C0
330
D1A4
100
AcDbEntity
100
AcDbLine
8
BLOK_OZEL_PLATFORM
10
0
20
-700
30
0
11
0
21
700
31
0
0
LINE
5
D1C1
330
D1A4
100
AcDbEntity
100
AcDbLine
8
BLOK_OZEL_PLATFORM
10
650
20
-700
30
0
11
650
21
700
31
0
0
LINE
5
D1C2
330
D1A4
100
AcDbEntity
100
AcDbLine
8
BLOK_OZEL_PLATFORM
10
-1300
20
-233.33333333333331
30
0
11
1300
21
-233.33333333333331
31
0
0
LINE
5
D1C3
330
D1A4
100
AcDbEntity
100
AcDbLine
8
BLOK_OZEL_PLATFORM
10
-1300
20
233.33333333333337
30
0
11
1300
21
233.33333333333337
31
0
0
TEXT
5
D1C4
330
D1A4
100
AcDbEntity
100
AcDbText
8
BLOK_OZEL_PLATFORM
10
0
20
0
30
0
40
75
1
140cm KEDI YOLU TABLASI
50
0
7
STANDARD
72
1
11
0
21
0
31
0
100
AcDbText
73
2
0
LWPOLYLINE
5
D25D
330
D1A4
100
AcDbEntity
100
AcDbPolyline
8
BLOK_OZEL_PLATFORM
6
ByLayer
62
256
370
-1
90
4
70
1
10
-2012.5151524288701
20
600
10
-2012.5151524288701
20
2100
10
587.4848505513621
20
2100
10
587.4848505513621
20
600
0
LINE
5
D25E
330
D1A4
100
AcDbEntity
100
AcDbLine
8
BLOK_OZEL_PLATFORM
10
-1362.515151683812
20
600
30
0
11
-1362.515151683812
21
2100
31
0
0
LINE
5
D25F
330
D1A4
100
AcDbEntity
100
AcDbLine
8
BLOK_OZEL_PLATFORM
10
-712.515150938754
20
600
30
0
11
-712.515150938754
21
2100
31
0
0
LINE
5
D260
330
D1A4
100
AcDbEntity
100
AcDbLine
8
BLOK_OZEL_PLATFORM
10
-62.515150193695945
20
600
30
0
11
-62.515150193695945
21
2100
31
0
0
LINE
5
D261
330
D1A4
100
AcDbEntity
100
AcDbLine
8
BLOK_OZEL_PLATFORM
10
-2012.5151524288701
20
1100
30
0
11
587.4848505513621
21
1100
31
0
0
LINE
5
D262
330
D1A4
100
AcDbEntity
100
AcDbLine
8
BLOK_OZEL_PLATFORM
10
-2012.5151524288701
20
1600
30
0
11
587.4848505513621
21
1600
31
0
0
TEXT
5
D263
330
D1A4
100
AcDbEntity
100
AcDbText
8
BLOK_OZEL_PLATFORM
10
-712.515150938754
20
1350
30
0
40
75
1
RRU Saha Blok 140cm (Alan 1)
50
0
7
STANDARD
72
1
11
-712.515150938754
21
1350
31
0
100
AcDbText
73
2
0
LWPOLYLINE
5
D264
330
D1A4
100
AcDbEntity
100
AcDbPolyline
8
BLOK_OZEL_PLATFORM
6
ByLayer
62
256
370
-1
90
4
70
1
10
-1300
20
-3600
10
-1300
20
-3500
10
1300
20
-3500
10
1300
20
-3600
0
ENDSEC
0
SECTION
2
OBJECTS
0
DICTIONARY
5
D192
330
0
100
AcDbDictionary
281
1
3
ACAD_GROUP
350
D1A8
0
DICTIONARY
5
D1A8
330
D192
100
AcDbDictionary
281
1
0
ENDSEC
0
EOF