0
SECTION
2
HEADER
9
$HANDSEED
5
E0F1
9
$INSUNITS
70
4
9
$ACADVER
1
AC1021
9
$DWGCODEPAGE
3
UTF-8
0
ENDSEC
0
SECTION
2
CLASSES
0
ENDSEC
0
SECTION
2
TABLES
0
TABLE
2
LTYPE
5
E0EF
330
0
100
AcDbSymbolTable
70
5
0
LTYPE
5
E02C
330
E0EF
100
AcDbSymbolTableRecord
100
AcDbLinetypeTableRecord
2
CONTINUOUS
3
______
70
0
72
65
73
0
40
0
0
LTYPE
5
E02D
330
E0EF
100
AcDbSymbolTableRecord
100
AcDbLinetypeTableRecord
2
DASHED
3
_ _ _ 
70
0
72
65
73
2
40
10
49
5
74
0
49
-5
74
0
0
LTYPE
5
E02E
330
E0EF
100
AcDbSymbolTableRecord
100
AcDbLinetypeTableRecord
2
DOTTED
3
. . . 
70
0
72
65
73
2
40
5
49
0
74
0
49
-5
74
0
0
LTYPE
5
E030
330
E0EF
100
AcDbSymbolTableRecord
100
AcDbLinetypeTableRecord
2
ByBlock
3

70
0
72
65
73
0
40
0
0
LTYPE
5
E031
330
E0EF
100
AcDbSymbolTableRecord
100
AcDbLinetypeTableRecord
2
ByLayer
3

70
0
72
65
73
0
40
0
0
ENDTAB
0
TABLE
2
LAYER
5
E0F0
330
0
100
AcDbSymbolTable
70
21
0
LAYER
5
E02F
330
E0F0
100
AcDbSymbolTableRecord
100
AcDbLayerTableRecord
2
0
62
7
70
0
6
CONTINUOUS
390
1
0
LAYER
5
E042
330
E0F0
100
AcDbSymbolTableRecord
100
AcDbLayerTableRecord
2
ZEMIN_PLATFORM
62
8
70
0
6
CONTINUOUS
390
1
0
LAYER
5
E043
330
E0F0
100
AcDbSymbolTableRecord
100
AcDbLayerTableRecord
2
KORKULUK_KAPI
62
4
70
0
6
CONTINUOUS
390
1
0
LAYER
5
E044
330
E0F0
100
AcDbSymbolTableRecord
100
AcDbLayerTableRecord
2
CELIK_KIRIS_KOLON
62
9
70
0
6
CONTINUOUS
390
1
0
LAYER
5
E045
330
E0F0
100
AcDbSymbolTableRecord
100
AcDbLayerTableRecord
2
MONTAJ_BORULARI
62
2
70
0
6
CONTINUOUS
390
1
0
LAYER
5
E046
330
E0F0
100
AcDbSymbolTableRecord
100
AcDbLayerTableRecord
2
KABLO_TAVALARI
62
6
70
0
6
CONTINUOUS
390
1
0
LAYER
5
E047
330
E0F0
100
AcDbSymbolTableRecord
100
AcDbLayerTableRecord
2
YURUYUS_KORIDORU
62
3
70
0
6
DASHED
390
1
0
LAYER
5
E048
330
E0F0
100
AcDbSymbolTableRecord
100
AcDbLayerTableRecord
2
OLCULER
62
1
70
0
6
CONTINUOUS
390
1
0
LAYER
5
E049
330
E0F0
100
AcDbSymbolTableRecord
100
AcDbLayerTableRecord
2
METIN_BILGI
62
7
70
0
6
CONTINUOUS
390
1
0
LAYER
5
E04A
330
E0F0
100
AcDbSymbolTableRecord
100
AcDbLayerTableRecord
2
EKP_TURKCELL_RRU
62
5
70
0
6
CONTINUOUS
390
1
0
LAYER
5
E04B
330
E0F0
100
AcDbSymbolTableRecord
100
AcDbLayerTableRecord
2
EKP_VODAFONE_RRU
62
1
70
0
6
CONTINUOUS
390
1
0
LAYER
5
E04C
330
E0F0
100
AcDbSymbolTableRecord
100
AcDbLayerTableRecord
2
EKP_TURK_TELEKOM_RRU
62
4
70
0
6
CONTINUOUS
390
1
0
LAYER
5
E04D
330
E0F0
100
AcDbSymbolTableRecord
100
AcDbLayerTableRecord
2
EKP_POI_TASIYICI_SASE
62
30
70
0
6
CONTINUOUS
390
1
0
LAYER
5
E04E
330
E0F0
100
AcDbSymbolTableRecord
100
AcDbLayerTableRecord
2
EKP_POI_MODULLERI
62
40
70
0
6
CONTINUOUS
390
1
0
LAYER
5
E04F
330
E0F0
100
AcDbSymbolTableRecord
100
AcDbLayerTableRecord
2
EKP_RECTIFIER_ELTEK_20U
62
3
70
0
6
CONTINUOUS
390
1
0
LAYER
5
E050
330
E0F0
100
AcDbSymbolTableRecord
100
AcDbLayerTableRecord
2
EKP_RECTIFIER_MTS9304A
62
94
70
0
6
CONTINUOUS
390
1
0
LAYER
5
E051
330
E0F0
100
AcDbSymbolTableRecord
100
AcDbLayerTableRecord
2
BLOK_OZEL_PLATFORM
62
140
70
0
6
CONTINUOUS
390
1
0
LAYER
5
E052
330
E0F0
100
AcDbSymbolTableRecord
100
AcDbLayerTableRecord
2
EKP_MATSING_ANTEN
62
2
70
0
6
CONTINUOUS
390
1
0
LAYER
5
E053
330
E0F0
100
AcDbSymbolTableRecord
100
AcDbLayerTableRecord
2
EKP_PANEL_ANTEN
62
6
70
0
6
CONTINUOUS
390
1
0
LAYER
5
E054
330
E0F0
100
AcDbSymbolTableRecord
100
AcDbLayerTableRecord
2
EKP_ANTEN_TASIYICI_KOL
62
141
70
0
6
CONTINUOUS
390
1
0
LAYER
5
E055
330
E0F0
100
AcDbSymbolTableRecord
100
AcDbLayerTableRecord
2
EKP_DIGER_EKIPMANLAR
62
7
70
0
6
CONTINUOUS
390
1
0
ENDTAB
0
TABLE
2
VPORT
5
E032
330
0
100
AcDbSymbolTable
70
1
0
VPORT
5
E038
330
E032
100
AcDbSymbolTableRecord
100
AcDbViewportTableRecord
2
*ACTIVE
40
1000
70
0
0
ENDTAB
0
TABLE
2
STYLE
5
E033
330
0
100
AcDbSymbolTable
70
3
0
STYLE
5
E039
330
E033
100
AcDbSymbolTableRecord
100
AcDbTextStyleTableRecord
2
standard
70
0
40
0
41
1
50
0
71
0
42
1
3
calibrib.ttf
4

1001
ACAD
1000
Calibri
1071
33554466
0
STYLE
5
E03A
330
E033
100
AcDbSymbolTableRecord
100
AcDbTextStyleTableRecord
2
STANDARD
70
0
40
0
41
1
50
0
71
0
42
1
3
calibrib.ttf
4

1001
ACAD
1000
Calibri
1071
33554466
0
STYLE
5
E03B
330
E033
100
AcDbSymbolTableRecord
100
AcDbTextStyleTableRecord
2
CALIBRI_BOLD
70
0
40
0
41
1
50
0
71
0
42
1
3
calibrib.ttf
4

1001
ACAD
1000
Calibri
1071
33554466
0
ENDTAB
0
TABLE
2
VIEW
5
E034
330
0
100
AcDbSymbolTable
70
0
0
ENDTAB
0
TABLE
2
UCS
5
E035
330
0
100
AcDbSymbolTable
70
0
0
ENDTAB
0
TABLE
2
APPID
5
E036
330
0
100
AcDbSymbolTable
70
1
0
APPID
5
E03C
330
E036
100
AcDbSymbolTableRecord
100
AcDbRegAppTableRecord
2
ACAD
70
0
0
ENDTAB
0
TABLE
2
DIMSTYLE
5
E037
330
0
100
AcDbSymbolTable
100
AcDbDimStyleTable
70
0
71
1
0
ENDTAB
0
TABLE
2
BLOCK_RECORD
5
E0EC
330
0
100
AcDbSymbolTable
70
2
0
BLOCK_RECORD
5
E0ED
330
E0EC
100
AcDbSymbolTableRecord
100
AcDbBlockTableRecord
2
*Model_Space
70
0
280
0
281
1
0
BLOCK_RECORD
5
E0EE
330
E0EC
100
AcDbSymbolTableRecord
100
AcDbBlockTableRecord
2
*Paper_Space
70
0
280
0
281
1
0
ENDTAB
0
ENDSEC
0
SECTION
2
BLOCKS
0
BLOCK
5
E03D
330
0
100
AcDbEntity
100
AcDbBlockBegin
2
*Model_Space
70
0
10
0
20
0
30
0
3
*Model_Space
1

0
ENDBLK
5
E03E
330
0
100
AcDbEntity
100
AcDbBlockEnd
0
BLOCK
5
E03F
330
0
100
AcDbEntity
100
AcDbBlockBegin
2
*Paper_Space
70
0
10
0
20
0
30
0
3
*Paper_Space
1

0
ENDBLK
5
E040
330
0
100
AcDbEntity
100
AcDbBlockEnd
0
ENDSEC
0
SECTION
2
ENTITIES
0
LINE
5
E056
330
E03D
100
AcDbEntity
100
AcDbLine
8
ZEMIN_PLATFORM
10
-44900
20
29650.85596908826
30
0
11
-38980.41215766272
21
29648.484522183466
31
0
0
LINE
5
E057
330
E03D
100
AcDbEntity
100
AcDbLine
8
ZEMIN_PLATFORM
10
-38980.41215766272
20
29648.484522183466
30
0
11
-38410.33076972107
21
29442.37184404058
31
0
0
LINE
5
E058
330
E03D
100
AcDbEntity
100
AcDbLine
8
ZEMIN_PLATFORM
10
-38410.33076972107
20
29442.37184404058
30
0
11
-38122.14439811348
21
29442.37184404058
31
0
0
LINE
5
E059
330
E03D
100
AcDbEntity
100
AcDbLine
8
ZEMIN_PLATFORM
10
-38122.14439811348
20
29442.37184404058
30
0
11
-38122.14390400061
21
29751.19151358163
31
0
0
LINE
5
E05A
330
E03D
100
AcDbEntity
100
AcDbLine
8
ZEMIN_PLATFORM
10
-38122.14390400061
20
29751.19151358163
30
0
11
-38122.141995683625
21
33768.3568153948
31
0
0
LINE
5
E05B
330
E03D
100
AcDbEntity
100
AcDbLine
8
ZEMIN_PLATFORM
10
-38122.141995683625
20
33768.3568153948
30
0
11
-38804.80028965371
21
33768.35879426174
31
0
0
LINE
5
E05C
330
E03D
100
AcDbEntity
100
AcDbLine
8
ZEMIN_PLATFORM
10
-38804.80028965371
20
33768.35879426174
30
0
11
-38789.7763674453
21
34898.31697047489
31
0
0
LINE
5
E05D
330
E03D
100
AcDbEntity
100
AcDbLine
8
ZEMIN_PLATFORM
10
-38789.7763674453
20
34898.31697047489
30
0
11
-38504.13957505826
21
34900
31
0
0
LINE
5
E05E
330
E03D
100
AcDbEntity
100
AcDbLine
8
ZEMIN_PLATFORM
10
-38504.13957505826
20
34900
30
0
11
-38527.22365982439
21
34044.61940479638
31
0
0
LINE
5
E05F
330
E03D
100
AcDbEntity
100
AcDbLine
8
ZEMIN_PLATFORM
10
-38527.22365982439
20
34044.61940479638
30
0
11
-37813.85694308303
21
34045.34062619258
31
0
0
LINE
5
E060
330
E03D
100
AcDbEntity
100
AcDbLine
8
ZEMIN_PLATFORM
10
-37813.85694308303
20
34045.34062619258
30
0
11
-37816.96011849262
21
29439.270581498025
31
0
0
LINE
5
E061
330
E03D
100
AcDbEntity
100
AcDbLine
8
ZEMIN_PLATFORM
10
-37816.96011849262
20
29439.270581498025
30
0
11
-37166.18509370311
21
29438.99197913887
31
0
0
LINE
5
E062
330
E03D
100
AcDbEntity
100
AcDbLine
8
ZEMIN_PLATFORM
10
-37166.18509370311
20
29438.99197913887
30
0
11
-37166.1850796822
21
29579.196020928393
31
0
0
LINE
5
E063
330
E03D
100
AcDbEntity
100
AcDbLine
8
ZEMIN_PLATFORM
10
-37166.1850796822
20
29579.196020928393
30
0
11
-35062.469665162826
21
29582.624304424142
31
0
0
LINE
5
E064
330
E03D
100
AcDbEntity
100
AcDbLine
8
ZEMIN_PLATFORM
10
-35062.469665162826
20
29582.624304424142
30
0
11
-35062.810719933485
21
29442.381823389514
31
0
0
LINE
5
E065
330
E03D
100
AcDbEntity
100
AcDbLine
8
ZEMIN_PLATFORM
10
-35062.810719933485
20
29442.381823389514
30
0
11
-16052.224608385877
21
29440.48857847263
31
0
0
LINE
5
E066
330
E03D
100
AcDbEntity
100
AcDbLine
8
ZEMIN_PLATFORM
10
-16052.224608385877
20
29440.48857847263
30
0
11
-16054.473092641645
21
29582.624304424142
31
0
0
LINE
5
E067
330
E03D
100
AcDbEntity
100
AcDbLine
8
ZEMIN_PLATFORM
10
-16054.473092641645
20
29582.624304424142
30
0
11
-13947.315070661374
21
29582.624304424142
31
0
0
LINE
5
E068
330
E03D
100
AcDbEntity
100
AcDbLine
8
ZEMIN_PLATFORM
10
-13947.315070661374
20
29582.624304424142
30
0
11
-13947.312341875659
21
29442.37184404058
31
0
0
LINE
5
E069
330
E03D
100
AcDbEntity
100
AcDbLine
8
ZEMIN_PLATFORM
10
-13947.312341875659
20
29442.37184404058
30
0
11
-13286.276030889421
21
29442.372048111647
31
0
0
LINE
5
E06A
330
E03D
100
AcDbEntity
100
AcDbLine
8
ZEMIN_PLATFORM
10
-13286.276030889421
20
29442.372048111647
30
0
11
-13286.276030889421
21
34746.73844067327
31
0
0
LINE
5
E06B
330
E03D
100
AcDbEntity
100
AcDbLine
8
ZEMIN_PLATFORM
10
-13286.276030889421
20
34746.73844067327
30
0
11
-13011.604801676462
21
34746.73844067327
31
0
0
LINE
5
E06C
330
E03D
100
AcDbEntity
100
AcDbLine
8
ZEMIN_PLATFORM
10
-13011.604801676462
20
34746.73844067327
30
0
11
-13011.604801676462
21
29439.241036438798
31
0
0
LINE
5
E06D
330
E03D
100
AcDbEntity
100
AcDbLine
8
ZEMIN_PLATFORM
10
-13011.604801676462
20
29439.241036438798
30
0
11
-12706.29478256475
21
29440.380989314617
31
0
0
LINE
5
E06E
330
E03D
100
AcDbEntity
100
AcDbLine
8
ZEMIN_PLATFORM
10
-12706.29478256475
20
29440.380989314617
30
0
11
-12136.961169435293
21
29650.85597919084
31
0
0
LINE
5
E06F
330
E03D
100
AcDbEntity
100
AcDbLine
8
ZEMIN_PLATFORM
10
-12136.961169435293
20
29650.85597919084
30
0
11
-6218.850204730552
21
29648.948522431958
31
0
0
LINE
5
E070
330
E03D
100
AcDbEntity
100
AcDbLine
8
ZEMIN_PLATFORM
10
-6218.850204730552
20
29648.948522431958
30
0
11
-6216.942758189616
21
-650.8561731592927
31
0
0
LINE
5
E071
330
E03D
100
AcDbEntity
100
AcDbLine
8
ZEMIN_PLATFORM
10
-6216.942758189616
20
-650.8561731592927
30
0
11
-12135.498442928969
21
-650.8561832619162
31
0
0
LINE
5
E072
330
E03D
100
AcDbEntity
100
AcDbLine
8
ZEMIN_PLATFORM
10
-12135.498442928969
20
-650.8561832619162
30
0
11
-12706.61127989678
21
-442.3720481116543
31
0
0
LINE
5
E073
330
E03D
100
AcDbEntity
100
AcDbLine
8
ZEMIN_PLATFORM
10
-12706.61127989678
20
-442.3720481116543
30
0
11
-12994.798359691544
21
-442.3720481116543
31
0
0
LINE
5
E074
330
E03D
100
AcDbEntity
100
AcDbLine
8
ZEMIN_PLATFORM
10
-12994.798359691544
20
-442.3720481116543
30
0
11
-12991.912306272425
21
-4763.229947766507
31
0
0
LINE
5
E075
330
E03D
100
AcDbEntity
100
AcDbLine
8
ZEMIN_PLATFORM
10
-12991.912306272425
20
-4763.229947766507
30
0
11
-12312.142468153375
21
-4768.358794261738
31
0
0
LINE
5
E076
330
E03D
100
AcDbEntity
100
AcDbLine
8
ZEMIN_PLATFORM
10
-12312.142468153375
20
-4768.358794261738
30
0
11
-12328.211701131055
21
-5900
31
0
0
LINE
5
E077
330
E03D
100
AcDbEntity
100
AcDbLine
8
ZEMIN_PLATFORM
10
-12328.211701131055
20
-5900
30
0
11
-12612.80318274619
21
-5900
31
0
0
LINE
5
E078
330
E03D
100
AcDbEntity
100
AcDbLine
8
ZEMIN_PLATFORM
10
-12612.80318274619
20
-5900
30
0
11
-12594.207064161645
21
-5053.032832799559
31
0
0
LINE
5
E079
330
E03D
100
AcDbEntity
100
AcDbLine
8
ZEMIN_PLATFORM
10
-12594.207064161645
20
-5053.032832799559
30
0
11
-13303.08580883198
21
-5045.340626192214
31
0
0
LINE
5
E07A
330
E03D
100
AcDbEntity
100
AcDbLine
8
ZEMIN_PLATFORM
10
-13303.08580883198
20
-5045.340626192214
30
0
11
-13303.083906675529
21
-442.3720481116543
31
0
0
LINE
5
E07B
330
E03D
100
AcDbEntity
100
AcDbLine
8
ZEMIN_PLATFORM
10
-13303.083906675529
20
-442.3720481116543
30
0
11
-13947.312451031095
21
-442.3720481116543
31
0
0
LINE
5
E07C
330
E03D
100
AcDbEntity
100
AcDbLine
8
ZEMIN_PLATFORM
10
-13947.312451031095
20
-442.3720481116543
30
0
11
-13947.315066781943
21
-582.624508495217
31
0
0
LINE
5
E07D
330
E03D
100
AcDbEntity
100
AcDbLine
8
ZEMIN_PLATFORM
10
-13947.315066781943
20
-582.624508495217
30
0
11
-16054.473093792389
21
-582.624508495217
31
0
0
LINE
5
E07E
330
E03D
100
AcDbEntity
100
AcDbLine
8
ZEMIN_PLATFORM
10
-16054.473093792389
20
-582.624508495217
30
0
11
-16054.132037870993
21
-442.38202225699933
31
0
0
LINE
5
E07F
330
E03D
100
AcDbEntity
100
AcDbLine
8
ZEMIN_PLATFORM
10
-16054.132037870993
20
-442.38202225699933
30
0
11
-35062.810719933485
21
-442.38202225699933
31
0
0
LINE
5
E080
330
E03D
100
AcDbEntity
100
AcDbLine
8
ZEMIN_PLATFORM
10
-35062.810719933485
20
-442.38202225699933
30
0
11
-35064.718447902604
21
-582.624508495217
31
0
0
LINE
5
E081
330
E03D
100
AcDbEntity
100
AcDbLine
8
ZEMIN_PLATFORM
10
-35064.718447902604
20
-582.624508495217
30
0
11
-37169.62769102252
21
-582.624508495217
31
0
0
LINE
5
E082
330
E03D
100
AcDbEntity
100
AcDbLine
8
ZEMIN_PLATFORM
10
-37169.62769102252
20
-582.624508495217
30
0
11
-37169.64302968565
21
-442.3720481116543
31
0
0
LINE
5
E083
330
E03D
100
AcDbEntity
100
AcDbLine
8
ZEMIN_PLATFORM
10
-37169.64302968565
20
-442.3720481116543
30
0
11
-37830.666726915064
21
-442.3720481116543
31
0
0
LINE
5
E084
330
E03D
100
AcDbEntity
100
AcDbLine
8
ZEMIN_PLATFORM
10
-37830.666726915064
20
-442.3720481116543
30
0
11
-37830.666726915064
21
-5746.738440673282
31
0
0
LINE
5
E085
330
E03D
100
AcDbEntity
100
AcDbLine
8
ZEMIN_PLATFORM
10
-37830.666726915064
20
-5746.738440673282
30
0
11
-38105.337956127994
21
-5746.738440673282
31
0
0
LINE
5
E086
330
E03D
100
AcDbEntity
100
AcDbLine
8
ZEMIN_PLATFORM
10
-38105.337956127994
20
-5746.738440673282
30
0
11
-38105.337956127994
21
-442.3720481116543
31
0
0
LINE
5
E087
330
E03D
100
AcDbEntity
100
AcDbLine
8
ZEMIN_PLATFORM
10
-38105.337956127994
20
-442.3720481116543
30
0
11
-38410.94063173818
21
-442.51876601437834
31
0
0
LINE
5
E088
330
E03D
100
AcDbEntity
100
AcDbLine
8
ZEMIN_PLATFORM
10
-38410.94063173818
20
-442.51876601437834
30
0
11
-38980.41242379762
21
-648.4848234588935
31
0
0
LINE
5
E089
330
E03D
100
AcDbEntity
100
AcDbLine
8
ZEMIN_PLATFORM
10
-38980.41242379762
20
-648.4848234588935
30
0
11
-44899.99999961483
21
-650.8561731592927
31
0
0
LINE
5
E08A
330
E03D
100
AcDbEntity
100
AcDbLine
8
ZEMIN_PLATFORM
10
-44899.99999961483
20
-650.8561731592927
30
0
11
-44899.99998653558
21
29650.855955623825
31
0
0
LINE
5
E08B
330
E03D
100
AcDbEntity
100
AcDbLine
8
ZEMIN_PLATFORM
10
-44623.401314142495
20
29342.524970283594
30
0
11
-41376.012966181865
21
29341.287216365006
31
0
0
LINE
5
E08C
330
E03D
100
AcDbEntity
100
AcDbLine
8
ZEMIN_PLATFORM
10
-41376.012966181865
20
29341.287216365006
30
0
11
-41377.028171496546
21
-342.5251743546978
31
0
0
LINE
5
E08D
330
E03D
100
AcDbEntity
100
AcDbLine
8
ZEMIN_PLATFORM
10
-41377.028171496546
20
-342.5251743546978
30
0
11
-44625.95123193889
21
-342.5251743546978
31
0
0
LINE
5
E08E
330
E03D
100
AcDbEntity
100
AcDbLine
8
ZEMIN_PLATFORM
10
-44625.95123193889
20
-342.5251743546978
30
0
11
-44623.401314142495
21
29342.524970283594
31
0
0
LINE
5
E08F
330
E03D
100
AcDbEntity
100
AcDbLine
8
ZEMIN_PLATFORM
10
-41066.44912185051
20
29342.524970283594
30
0
11
-39037.017411236775
21
29342.524970283594
31
0
0
LINE
5
E090
330
E03D
100
AcDbEntity
100
AcDbLine
8
ZEMIN_PLATFORM
10
-39037.017411236775
20
29342.524970283594
30
0
11
-38464.72843889046
21
29134.091516237335
31
0
0
LINE
5
E091
330
E03D
100
AcDbEntity
100
AcDbLine
8
ZEMIN_PLATFORM
10
-38464.72843889046
20
29134.091516237335
30
0
11
-38122.1459100391
21
29134.091516237335
31
0
0
LINE
5
E092
330
E03D
100
AcDbEntity
100
AcDbLine
8
ZEMIN_PLATFORM
10
-38122.1459100391
20
29134.091516237335
30
0
11
-38122.15992116869
21
-133.8475595459022
31
0
0
LINE
5
E093
330
E03D
100
AcDbEntity
100
AcDbLine
8
ZEMIN_PLATFORM
10
-38122.15992116869
20
-133.8475595459022
30
0
11
-38468.1864442062
21
-137.19298271243315
31
0
0
LINE
5
E094
330
E03D
100
AcDbEntity
100
AcDbLine
8
ZEMIN_PLATFORM
10
-38468.1864442062
20
-137.19298271243315
30
0
11
-39045.67424422622
21
-345.6264367586482
31
0
0
LINE
5
E095
330
E03D
100
AcDbEntity
100
AcDbLine
8
ZEMIN_PLATFORM
10
-39045.67424422622
20
-345.6264367586482
30
0
11
-41066.44912348719
21
-342.5251743546978
31
0
0
LINE
5
E096
330
E03D
100
AcDbEntity
100
AcDbLine
8
ZEMIN_PLATFORM
10
-41066.44912348719
20
-342.5251743546978
30
0
11
-41066.44912185051
21
29342.524970283594
31
0
0
LINE
5
E097
330
E03D
100
AcDbEntity
100
AcDbLine
8
ZEMIN_PLATFORM
10
-6499.256609212709
20
29342.524970283594
30
0
11
-9746.644957173346
21
29341.287216365006
31
0
0
LINE
5
E098
330
E03D
100
AcDbEntity
100
AcDbLine
8
ZEMIN_PLATFORM
10
-9746.644957173346
20
29341.287216365006
30
0
11
-9745.629751858673
21
-342.5251743546978
31
0
0
LINE
5
E099
330
E03D
100
AcDbEntity
100
AcDbLine
8
ZEMIN_PLATFORM
10
-9745.629751858673
20
-342.5251743546978
30
0
11
-6496.70669141633
21
-342.5251743546978
31
0
0
LINE
5
E09A
330
E03D
100
AcDbEntity
100
AcDbLine
8
ZEMIN_PLATFORM
10
-6496.70669141633
20
-342.5251743546978
30
0
11
-6499.256609212709
21
29342.524970283594
31
0
0
LINE
5
E09B
330
E03D
100
AcDbEntity
100
AcDbLine
8
ZEMIN_PLATFORM
10
-10056.208801504697
20
29342.524970283594
30
0
11
-12085.64051211845
21
29342.524970283594
31
0
0
LINE
5
E09C
330
E03D
100
AcDbEntity
100
AcDbLine
8
ZEMIN_PLATFORM
10
-12085.64051211845
20
29342.524970283594
30
0
11
-12657.929484464767
21
29134.091516237335
31
0
0
LINE
5
E09D
330
E03D
100
AcDbEntity
100
AcDbLine
8
ZEMIN_PLATFORM
10
-12657.929484464767
20
29134.091516237335
30
0
11
-13000.512013316118
21
29134.091516237335
31
0
0
LINE
5
E09E
330
E03D
100
AcDbEntity
100
AcDbLine
8
ZEMIN_PLATFORM
10
-13000.512013316118
20
29134.091516237335
30
0
11
-13000.49800218652
21
-133.8475595459022
31
0
0
LINE
5
E09F
330
E03D
100
AcDbEntity
100
AcDbLine
8
ZEMIN_PLATFORM
10
-13000.49800218652
20
-133.8475595459022
30
0
11
-12654.471479149011
21
-137.19298271243315
31
0
0
LINE
5
E0A0
330
E03D
100
AcDbEntity
100
AcDbLine
8
ZEMIN_PLATFORM
10
-12654.471479149011
20
-137.19298271243315
30
0
11
-12076.983679128993
21
-345.6264367586482
31
0
0
LINE
5
E0A1
330
E03D
100
AcDbEntity
100
AcDbLine
8
ZEMIN_PLATFORM
10
-12076.983679128993
20
-345.6264367586482
30
0
11
-10056.208799868029
21
-342.5251743546978
31
0
0
LINE
5
E0A2
330
E03D
100
AcDbEntity
100
AcDbLine
8
ZEMIN_PLATFORM
10
-10056.208799868029
20
-342.5251743546978
30
0
11
-10056.208801504697
21
29342.524970283594
31
0
0
LINE
5
E0A3
330
E03D
100
AcDbEntity
100
AcDbLine
8
ZEMIN_PLATFORM
10
-37813.67392073056
20
3855.1698206420624
30
0
11
-13304.476391333737
21
3855.1698206420624
31
0
0
LINE
5
E0A4
330
E03D
100
AcDbEntity
100
AcDbLine
8
ZEMIN_PLATFORM
10
-13304.476391333737
20
3855.1698206420624
30
0
11
-13304.476391333737
21
25143.300124066765
31
0
0
LINE
5
E0A5
330
E03D
100
AcDbEntity
100
AcDbLine
8
ZEMIN_PLATFORM
10
-13304.476391333737
20
25143.300124066765
30
0
11
-37813.60134546163
21
25143.300124066765
31
0
0
LINE
5
E0A6
330
E03D
100
AcDbEntity
100
AcDbLine
8
ZEMIN_PLATFORM
10
-37813.60134546163
20
25143.300124066765
30
0
11
-37813.872517187505
21
3855.1777124443033
31
0
0
LINE
5
E0A7
330
E03D
100
AcDbEntity
100
AcDbLine
8
ZEMIN_PLATFORM
10
-37519.201200408
20
13041.37375101967
30
0
11
-37406.99923210115
21
13041.37375101967
31
0
0
LINE
5
E0A8
330
E03D
100
AcDbEntity
100
AcDbLine
8
ZEMIN_PLATFORM
10
-37406.99923210115
20
13041.37375101967
30
0
11
-37406.99923210175
21
15958.624965004019
31
0
0
LINE
5
E0A9
330
E03D
100
AcDbEntity
100
AcDbLine
8
ZEMIN_PLATFORM
10
-37406.99923210175
20
15958.624965004019
30
0
11
-37519.201200408
21
15958.624926997752
31
0
0
LINE
5
E0AA
330
E03D
100
AcDbEntity
100
AcDbLine
8
ZEMIN_PLATFORM
10
-37519.201200408
20
15958.624926997752
30
0
11
-37519.201200408
21
13041.37375101967
31
0
0
LINE
5
E0AB
330
E03D
100
AcDbEntity
100
AcDbLine
8
ZEMIN_PLATFORM
10
-13709.943525703333
20
13041.37378902591
30
0
11
-13597.74155739649
21
13041.37378902591
31
0
0
LINE
5
E0AC
330
E03D
100
AcDbEntity
100
AcDbLine
8
ZEMIN_PLATFORM
10
-13597.74155739649
20
13041.37378902591
30
0
11
-13597.741557397094
21
15958.625003010231
31
0
0
LINE
5
E0AD
330
E03D
100
AcDbEntity
100
AcDbLine
8
ZEMIN_PLATFORM
10
-13597.741557397094
20
15958.625003010231
30
0
11
-13709.943525703333
21
15958.624965003972
31
0
0
LINE
5
E0AE
330
E03D
100
AcDbEntity
100
AcDbLine
8
ZEMIN_PLATFORM
10
-13709.943525703333
20
15958.624965003972
30
0
11
-13709.943525703333
21
13041.37378902591
31
0
0
LINE
5
E0AF
330
E03D
100
AcDbEntity
100
AcDbLine
8
ZEMIN_PLATFORM
10
-37813.85909896295
20
29134.08629455779
30
0
11
-13303.083658841511
21
29134.08629455779
31
0
0
LINE
5
E0B0
330
E03D
100
AcDbEntity
100
AcDbLine
8
ZEMIN_PLATFORM
10
-13303.083658841511
20
29134.08629455779
30
0
11
-13303.087497374516
21
25453.10761229801
31
0
0
LINE
5
E0B1
330
E03D
100
AcDbEntity
100
AcDbLine
8
ZEMIN_PLATFORM
10
-13303.087497374516
20
25453.10761229801
30
0
11
-37813.85526042993
21
25453.10761229801
31
0
0
LINE
5
E0B2
330
E03D
100
AcDbEntity
100
AcDbLine
8
ZEMIN_PLATFORM
10
-37813.85526042993
20
25453.10761229801
30
0
11
-37813.85526042993
21
29134.082456019903
31
0
0
LINE
5
E0B3
330
E03D
100
AcDbEntity
100
AcDbLine
8
ZEMIN_PLATFORM
10
-37813.85909896295
20
3546.922067227715
30
0
11
-13303.083658841511
21
3546.922067227715
31
0
0
LINE
5
E0B4
330
E03D
100
AcDbEntity
100
AcDbLine
8
ZEMIN_PLATFORM
10
-13303.083658841511
20
3546.922067227715
30
0
11
-13303.087497374516
21
-134.05661503205192
31
0
0
LINE
5
E0B5
330
E03D
100
AcDbEntity
100
AcDbLine
8
ZEMIN_PLATFORM
10
-13303.087497374516
20
-134.05661503205192
30
0
11
-37813.85526042993
21
-134.05661503205192
31
0
0
LINE
5
E0B6
330
E03D
100
AcDbEntity
100
AcDbLine
8
ZEMIN_PLATFORM
10
-37813.85526042993
20
-134.05661503205192
30
0
11
-37813.85526042993
21
3546.9182286898213
31
0
0
LINE
5
E0B7
330
E03D
100
AcDbEntity
100
AcDbLine
8
ZEMIN_PLATFORM
10
-38122.147233030555
20
12080.476696484075
30
0
11
-38287.08514181524
21
12080.476516625506
31
0
0
LINE
5
E0B8
330
E03D
100
AcDbEntity
100
AcDbLine
8
ZEMIN_PLATFORM
10
-38287.08514181524
20
12080.476516625506
30
0
11
-38287.08514181524
21
13553.464230100577
31
0
0
LINE
5
E0B9
330
E03D
100
AcDbEntity
100
AcDbLine
8
ZEMIN_PLATFORM
10
-38287.08514181524
20
13553.464230100577
30
0
11
-38122.15336878739
21
13553.4640502461
31
0
0
LINE
5
E0BA
330
E03D
100
AcDbEntity
100
AcDbLine
8
ZEMIN_PLATFORM
10
-38122.14891951996
20
14233.958425171935
30
0
11
-38317.395406829746
21
14233.956005691369
31
0
0
LINE
5
E0BB
330
E03D
100
AcDbEntity
100
AcDbLine
8
ZEMIN_PLATFORM
10
-38317.395406829746
20
14233.956005691369
30
0
11
-38317.395406829746
21
14786.022155591854
31
0
0
LINE
5
E0BC
330
E03D
100
AcDbEntity
100
AcDbLine
8
ZEMIN_PLATFORM
10
-38317.395406829746
20
14786.022155591854
30
0
11
-38122.149668457474
21
14783.522162052475
31
0
0
LINE
5
E0BD
330
E03D
100
AcDbEntity
100
AcDbLine
8
ZEMIN_PLATFORM
10
-38122.152432243056
20
15509.817574742272
30
0
11
-38223.802973058
21
15509.817574742272
31
0
0
LINE
5
E0BE
330
E03D
100
AcDbEntity
100
AcDbLine
8
ZEMIN_PLATFORM
10
-38223.802973058
20
15509.817574742272
30
0
11
-38223.802973058
21
16856.241194424452
31
0
0
LINE
5
E0BF
330
E03D
100
AcDbEntity
100
AcDbLine
8
ZEMIN_PLATFORM
10
-38223.802973058
20
16856.241194424452
30
0
11
-38122.15178768398
21
16856.241194424452
31
0
0
LINE
5
E0C0
330
E03D
100
AcDbEntity
100
AcDbLine
8
ZEMIN_PLATFORM
10
-25690.15767012192
20
25453.110609780455
30
0
11
-25690.157779085377
21
25574.182447673513
31
0
0
LINE
5
E0C1
330
E03D
100
AcDbEntity
100
AcDbLine
8
ZEMIN_PLATFORM
10
-25690.157779085377
20
25574.182447673513
30
0
11
-25791.139214856958
21
25574.18142090726
31
0
0
LINE
5
E0C2
330
E03D
100
AcDbEntity
100
AcDbLine
8
ZEMIN_PLATFORM
10
-25791.139214856958
20
25574.18142090726
30
0
11
-25791.139507336655
21
25815.191539522428
31
0
0
LINE
5
E0C3
330
E03D
100
AcDbEntity
100
AcDbLine
8
ZEMIN_PLATFORM
10
-25791.139507336655
20
25815.191539522428
30
0
11
-25325.80325046777
21
25815.191539522428
31
0
0
LINE
5
E0C4
330
E03D
100
AcDbEntity
100
AcDbLine
8
ZEMIN_PLATFORM
10
-25325.80325046777
20
25815.191539522428
30
0
11
-25325.803542947495
21
25574.181418432854
31
0
0
LINE
5
E0C5
330
E03D
100
AcDbEntity
100
AcDbLine
8
ZEMIN_PLATFORM
10
-25325.803542947495
20
25574.181418432854
30
0
11
-25426.78394948997
21
25574.181418432854
31
0
0
LINE
5
E0C6
330
E03D
100
AcDbEntity
100
AcDbLine
8
ZEMIN_PLATFORM
10
-25426.78394948997
20
25574.181418432854
30
0
11
-25426.785087682507
21
25453.110609780528
31
0
0
LINE
5
E0C7
330
E03D
100
AcDbEntity
100
AcDbLine
8
ZEMIN_PLATFORM
10
-25426.785087682507
20
3546.8893174908953
30
0
11
-25426.78497871907
21
3425.817479597841
31
0
0
LINE
5
E0C8
330
E03D
100
AcDbEntity
100
AcDbLine
8
ZEMIN_PLATFORM
10
-25426.78497871907
20
3425.817479597841
30
0
11
-25325.803542947495
21
3425.8185063640703
31
0
0
LINE
5
E0C9
330
E03D
100
AcDbEntity
100
AcDbLine
8
ZEMIN_PLATFORM
10
-25325.803542947495
20
3425.8185063640703
30
0
11
-25325.80325046777
21
3184.8083877489116
31
0
0
LINE
5
E0CA
330
E03D
100
AcDbEntity
100
AcDbLine
8
ZEMIN_PLATFORM
10
-25325.80325046777
20
3184.8083877489116
30
0
11
-25791.139507336655
21
3184.8083877489116
31
0
0
LINE
5
E0CB
330
E03D
100
AcDbEntity
100
AcDbLine
8
ZEMIN_PLATFORM
10
-25791.139507336655
20
3184.8083877489116
30
0
11
-25791.139214856958
21
3425.8185088384853
31
0
0
LINE
5
E0CC
330
E03D
100
AcDbEntity
100
AcDbLine
8
ZEMIN_PLATFORM
10
-25791.139214856958
20
3425.8185088384853
30
0
11
-25690.15880831446
21
3425.8185088384853
31
0
0
LINE
5
E0CD
330
E03D
100
AcDbEntity
100
AcDbLine
8
ZEMIN_PLATFORM
10
-25690.15880831446
20
3425.8185088384853
30
0
11
-25690.15767012192
21
3546.88931749083
31
0
0
LINE
5
E0CE
330
E03D
100
AcDbEntity
100
AcDbLine
8
ZEMIN_PLATFORM
10
-13005.341641461222
20
12080.296013936808
30
0
11
-13005.337875374797
21
12080.296017810626
31
0
0
LINE
5
E0CF
330
E03D
100
AcDbEntity
100
AcDbLine
8
ZEMIN_PLATFORM
10
-13000.50384933612
20
12080.300990084837
30
0
11
-12829.857615989218
21
12080.476516625506
31
0
0
LINE
5
E0D0
330
E03D
100
AcDbEntity
100
AcDbLine
8
ZEMIN_PLATFORM
10
-12829.857615989218
20
12080.476516625506
30
0
11
-12829.857615989218
21
13553.46422673365
31
0
0
LINE
5
E0D1
330
E03D
100
AcDbEntity
100
AcDbLine
8
ZEMIN_PLATFORM
10
-12829.857615989218
20
13553.46422673365
30
0
11
-13000.504555008949
21
13554.385509040745
31
0
0
LINE
5
E0D2
330
E03D
100
AcDbEntity
100
AcDbLine
8
ZEMIN_PLATFORM
10
-13000.504880230998
20
14233.743935121358
30
0
11
-12799.547350974673
21
14233.956004565513
31
0
0
LINE
5
E0D3
330
E03D
100
AcDbEntity
100
AcDbLine
8
ZEMIN_PLATFORM
10
-12799.547350974673
20
14233.956004565513
30
0
11
-12799.547485574927
21
14783.524934541634
31
0
0
LINE
5
E0D4
330
E03D
100
AcDbEntity
100
AcDbLine
8
ZEMIN_PLATFORM
10
-12799.547485574927
20
14783.524934541634
30
0
11
-13000.50514342109
21
14783.523437594631
31
0
0
LINE
5
E0D5
330
E03D
100
AcDbEntity
100
AcDbLine
8
ZEMIN_PLATFORM
10
-13000.50549111217
20
15509.817574742272
30
0
11
-12893.13978474644
21
15509.817574742272
31
0
0
LINE
5
E0D6
330
E03D
100
AcDbEntity
100
AcDbLine
8
ZEMIN_PLATFORM
10
-12893.13978474644
20
15509.817574742272
30
0
11
-12893.13978474644
21
16856.241194424452
31
0
0
LINE
5
E0D7
330
E03D
100
AcDbEntity
100
AcDbLine
8
ZEMIN_PLATFORM
10
-12893.13978474644
20
16856.241194424452
30
0
11
-13000.506135671254
21
16856.241194424452
31
0
0
CIRCLE
5
E0D8
330
E03D
100
AcDbEntity
100
AcDbCircle
8
METIN_BILGI
10
0
20
85000
30
0
40
3000
0
TEXT
5
E0D9
330
E03D
100
AcDbEntity
100
AcDbText
8
METIN_BILGI
10
0
20
85000
30
0
40
1800
1
ALAN 1 & 3: MARATON
50
0
7
STANDARD
72
1
11
0
21
85000
31
0
100
AcDbText
73
0
0
CIRCLE
5
E0DA
330
E03D
100
AcDbEntity
100
AcDbCircle
8
METIN_BILGI
10
-110000
20
0
30
0
40
3000
0
TEXT
5
E0DB
330
E03D
100
AcDbEntity
100
AcDbText
8
METIN_BILGI
10
-110000
20
0
30
0
40
1800
1
ALAN 2: SCOREBOARD
50
0
7
STANDARD
72
1
11
-110000
21
0
31
0
100
AcDbText
73
0
0
CIRCLE
5
E0DC
330
E03D
100
AcDbEntity
100
AcDbCircle
8
METIN_BILGI
10
-80000
20
-60000
30
0
40
3000
0
TEXT
5
E0DD
330
E03D
100
AcDbEntity
100
AcDbText
8
METIN_BILGI
10
-80000
20
-60000
30
0
40
1800
1
ALAN 4: CAPRAZ KOSE
50
0
7
STANDARD
72
1
11
-80000
21
-60000
31
0
100
AcDbText
73
0
0
LWPOLYLINE
5
E0DE
330
E03D
100
AcDbEntity
100
AcDbPolyline
8
METIN_BILGI
6
ByLayer
62
256
370
-1
90
4
70
1
10
-150000
20
-120000
10
-150000
20
-117800
10
-142000
20
-117800
10
-142000
20
-120000
0
LINE
5
E0DF
330
E03D
100
AcDbEntity
100
AcDbLine
8
METIN_BILGI
10
-150000
20
-118600
30
0
11
-142000
21
-118600
31
0
0
LINE
5
E0E0
330
E03D
100
AcDbEntity
100
AcDbLine
8
METIN_BILGI
10
-150000
20
-119300
30
0
11
-142000
21
-119300
31
0
0
LINE
5
E0E1
330
E03D
100
AcDbEntity
100
AcDbLine
8
METIN_BILGI
10
-145500
20
-120000
30
0
11
-145500
21
-118600
31
0
0
TEXT
5
E0E2
330
E03D
100
AcDbEntity
100
AcDbText
8
METIN_BILGI
10
-149800
20
-118350
30
0
40
320
1
GALATASARAY STADYUMU GSM ALTYAPI PROJESI
50
0
7
STANDARD
100
AcDbText
0
TEXT
5
E0E3
330
E03D
100
AcDbEntity
100
AcDbText
8
METIN_BILGI
10
-149800
20
-119050
30
0
40
260
1
ALAN: SEYRANTEPE STADYUMU GENEL KEDI YOLU CATI RING HATTI (GENEL VAZIYET)
50
0
7
STANDARD
100
AcDbText
0
TEXT
5
E0E4
330
E03D
100
AcDbEntity
100
AcDbText
8
METIN_BILGI
10
-149800
20
-119720
30
0
40
200
1
OLCEK: 1:1 mm (1:1 mm)
50
0
7
STANDARD
100
AcDbText
0
TEXT
5
E0E5
330
E03D
100
AcDbEntity
100
AcDbText
8
METIN_BILGI
10
-145300
20
-119050
30
0
40
180
1
CIZIM: ANTIGRAVITY CAD / BIM
50
0
7
STANDARD
100
AcDbText
0
TEXT
5
E0E6
330
E03D
100
AcDbEntity
100
AcDbText
8
METIN_BILGI
10
-145300
20
-119720
30
0
40
180
1
TARIH: 2026-10-04
50
0
7
STANDARD
100
AcDbText
0
CIRCLE
5
E0E7
330
E03D
100
AcDbEntity
100
AcDbCircle
8
METIN_BILGI
10
-151500
20
-118900
30
0
40
800
0
LINE
5
E0E8
330
E03D
100
AcDbEntity
100
AcDbLine
8
METIN_BILGI
10
-151500
20
-119620
30
0
11
-151500
21
-118180
31
0
0
LINE
5
E0E9
330
E03D
100
AcDbEntity
100
AcDbLine
8
METIN_BILGI
10
-151500
20
-118180
30
0
11
-151750
21
-118600
31
0
0
LINE
5
E0EA
330
E03D
100
AcDbEntity
100
AcDbLine
8
METIN_BILGI
10
-151500
20
-118180
30
0
11
-151250
21
-118600
31
0
0
TEXT
5
E0EB
330
E03D
100
AcDbEntity
100
AcDbText
8
METIN_BILGI
10
-151500
20
-117900
30
0
40
300
1
K
50
0
7
STANDARD
72
1
11
-151500
21
-117900
31
0
100
AcDbText
73
2
0
ENDSEC
0
SECTION
2
OBJECTS
0
DICTIONARY
5
E02B
330
0
100
AcDbDictionary
281
1
3
ACAD_GROUP
350
E041
0
DICTIONARY
5
E041
330
E02B
100
AcDbDictionary
281
1
0
ENDSEC
0
EOF