0
SECTION
2
HEADER
9
$HANDSEED
5
E532
9
$INSUNITS
70
4
9
$ACADVER
1
AC1021
9
$DWGCODEPAGE
3
UTF-8
0
ENDSEC
0
SECTION
2
CLASSES
0
ENDSEC
0
SECTION
2
TABLES
0
TABLE
2
LTYPE
5
E530
330
0
100
AcDbSymbolTable
70
5
0
LTYPE
5
E1B8
330
E530
100
AcDbSymbolTableRecord
100
AcDbLinetypeTableRecord
2
CONTINUOUS
3
______
70
0
72
65
73
0
40
0
0
LTYPE
5
E1B9
330
E530
100
AcDbSymbolTableRecord
100
AcDbLinetypeTableRecord
2
DASHED
3
_ _ _ 
70
0
72
65
73
2
40
10
49
5
74
0
49
-5
74
0
0
LTYPE
5
E1BA
330
E530
100
AcDbSymbolTableRecord
100
AcDbLinetypeTableRecord
2
DOTTED
3
. . . 
70
0
72
65
73
2
40
5
49
0
74
0
49
-5
74
0
0
LTYPE
5
E1BC
330
E530
100
AcDbSymbolTableRecord
100
AcDbLinetypeTableRecord
2
ByBlock
3

70
0
72
65
73
0
40
0
0
LTYPE
5
E1BD
330
E530
100
AcDbSymbolTableRecord
100
AcDbLinetypeTableRecord
2
ByLayer
3

70
0
72
65
73
0
40
0
0
ENDTAB
0
TABLE
2
LAYER
5
E531
330
0
100
AcDbSymbolTable
70
21
0
LAYER
5
E1BB
330
E531
100
AcDbSymbolTableRecord
100
AcDbLayerTableRecord
2
0
62
7
70
0
6
CONTINUOUS
390
1
0
LAYER
5
E1CE
330
E531
100
AcDbSymbolTableRecord
100
AcDbLayerTableRecord
2
ZEMIN_PLATFORM
62
8
70
0
6
CONTINUOUS
390
1
0
LAYER
5
E1CF
330
E531
100
AcDbSymbolTableRecord
100
AcDbLayerTableRecord
2
KORKULUK_KAPI
62
4
70
0
6
CONTINUOUS
390
1
0
LAYER
5
E1D0
330
E531
100
AcDbSymbolTableRecord
100
AcDbLayerTableRecord
2
CELIK_KIRIS_KOLON
62
9
70
0
6
CONTINUOUS
390
1
0
LAYER
5
E1D1
330
E531
100
AcDbSymbolTableRecord
100
AcDbLayerTableRecord
2
MONTAJ_BORULARI
62
2
70
0
6
CONTINUOUS
390
1
0
LAYER
5
E1D2
330
E531
100
AcDbSymbolTableRecord
100
AcDbLayerTableRecord
2
KABLO_TAVALARI
62
6
70
0
6
CONTINUOUS
390
1
0
LAYER
5
E1D3
330
E531
100
AcDbSymbolTableRecord
100
AcDbLayerTableRecord
2
YURUYUS_KORIDORU
62
3
70
0
6
DASHED
390
1
0
LAYER
5
E1D4
330
E531
100
AcDbSymbolTableRecord
100
AcDbLayerTableRecord
2
OLCULER
62
1
70
0
6
CONTINUOUS
390
1
0
LAYER
5
E1D5
330
E531
100
AcDbSymbolTableRecord
100
AcDbLayerTableRecord
2
METIN_BILGI
62
7
70
0
6
CONTINUOUS
390
1
0
LAYER
5
E1D6
330
E531
100
AcDbSymbolTableRecord
100
AcDbLayerTableRecord
2
EKP_TURKCELL_RRU
62
5
70
0
6
CONTINUOUS
390
1
0
LAYER
5
E1D7
330
E531
100
AcDbSymbolTableRecord
100
AcDbLayerTableRecord
2
EKP_VODAFONE_RRU
62
1
70
0
6
CONTINUOUS
390
1
0
LAYER
5
E1D8
330
E531
100
AcDbSymbolTableRecord
100
AcDbLayerTableRecord
2
EKP_TURK_TELEKOM_RRU
62
4
70
0
6
CONTINUOUS
390
1
0
LAYER
5
E1D9
330
E531
100
AcDbSymbolTableRecord
100
AcDbLayerTableRecord
2
EKP_POI_TASIYICI_SASE
62
30
70
0
6
CONTINUOUS
390
1
0
LAYER
5
E1DA
330
E531
100
AcDbSymbolTableRecord
100
AcDbLayerTableRecord
2
EKP_POI_MODULLERI
62
40
70
0
6
CONTINUOUS
390
1
0
LAYER
5
E1DB
330
E531
100
AcDbSymbolTableRecord
100
AcDbLayerTableRecord
2
EKP_RECTIFIER_ELTEK_20U
62
3
70
0
6
CONTINUOUS
390
1
0
LAYER
5
E1DC
330
E531
100
AcDbSymbolTableRecord
100
AcDbLayerTableRecord
2
EKP_RECTIFIER_MTS9304A
62
94
70
0
6
CONTINUOUS
390
1
0
LAYER
5
E1DD
330
E531
100
AcDbSymbolTableRecord
100
AcDbLayerTableRecord
2
BLOK_OZEL_PLATFORM
62
140
70
0
6
CONTINUOUS
390
1
0
LAYER
5
E1DE
330
E531
100
AcDbSymbolTableRecord
100
AcDbLayerTableRecord
2
EKP_MATSING_ANTEN
62
2
70
0
6
CONTINUOUS
390
1
0
LAYER
5
E1DF
330
E531
100
AcDbSymbolTableRecord
100
AcDbLayerTableRecord
2
EKP_PANEL_ANTEN
62
6
70
0
6
CONTINUOUS
390
1
0
LAYER
5
E1E0
330
E531
100
AcDbSymbolTableRecord
100
AcDbLayerTableRecord
2
EKP_ANTEN_TASIYICI_KOL
62
141
70
0
6
CONTINUOUS
390
1
0
LAYER
5
E1E1
330
E531
100
AcDbSymbolTableRecord
100
AcDbLayerTableRecord
2
EKP_DIGER_EKIPMANLAR
62
7
70
0
6
CONTINUOUS
390
1
0
ENDTAB
0
TABLE
2
VPORT
5
E1BE
330
0
100
AcDbSymbolTable
70
1
0
VPORT
5
E1C4
330
E1BE
100
AcDbSymbolTableRecord
100
AcDbViewportTableRecord
2
*ACTIVE
40
1000
70
0
0
ENDTAB
0
TABLE
2
STYLE
5
E1BF
330
0
100
AcDbSymbolTable
70
3
0
STYLE
5
E1C5
330
E1BF
100
AcDbSymbolTableRecord
100
AcDbTextStyleTableRecord
2
standard
70
0
40
0
41
1
50
0
71
0
42
1
3
calibrib.ttf
4

1001
ACAD
1000
Calibri
1071
33554466
0
STYLE
5
E1C6
330
E1BF
100
AcDbSymbolTableRecord
100
AcDbTextStyleTableRecord
2
STANDARD
70
0
40
0
41
1
50
0
71
0
42
1
3
calibrib.ttf
4

1001
ACAD
1000
Calibri
1071
33554466
0
STYLE
5
E1C7
330
E1BF
100
AcDbSymbolTableRecord
100
AcDbTextStyleTableRecord
2
CALIBRI_BOLD
70
0
40
0
41
1
50
0
71
0
42
1
3
calibrib.ttf
4

1001
ACAD
1000
Calibri
1071
33554466
0
ENDTAB
0
TABLE
2
VIEW
5
E1C0
330
0
100
AcDbSymbolTable
70
0
0
ENDTAB
0
TABLE
2
UCS
5
E1C1
330
0
100
AcDbSymbolTable
70
0
0
ENDTAB
0
TABLE
2
APPID
5
E1C2
330
0
100
AcDbSymbolTable
70
1
0
APPID
5
E1C8
330
E1C2
100
AcDbSymbolTableRecord
100
AcDbRegAppTableRecord
2
ACAD
70
0
0
ENDTAB
0
TABLE
2
DIMSTYLE
5
E1C3
330
0
100
AcDbSymbolTable
100
AcDbDimStyleTable
70
0
71
1
0
ENDTAB
0
TABLE
2
BLOCK_RECORD
5
E52D
330
0
100
AcDbSymbolTable
70
2
0
BLOCK_RECORD
5
E52E
330
E52D
100
AcDbSymbolTableRecord
100
AcDbBlockTableRecord
2
*Model_Space
70
0
280
0
281
1
0
BLOCK_RECORD
5
E52F
330
E52D
100
AcDbSymbolTableRecord
100
AcDbBlockTableRecord
2
*Paper_Space
70
0
280
0
281
1
0
ENDTAB
0
ENDSEC
0
SECTION
2
BLOCKS
0
BLOCK
5
E1C9
330
0
100
AcDbEntity
100
AcDbBlockBegin
2
*Model_Space
70
0
10
0
20
0
30
0
3
*Model_Space
1

0
ENDBLK
5
E1CA
330
0
100
AcDbEntity
100
AcDbBlockEnd
0
BLOCK
5
E1CB
330
0
100
AcDbEntity
100
AcDbBlockBegin
2
*Paper_Space
70
0
10
0
20
0
30
0
3
*Paper_Space
1

0
ENDBLK
5
E1CC
330
0
100
AcDbEntity
100
AcDbBlockEnd
0
ENDSEC
0
SECTION
2
ENTITIES
0
LWPOLYLINE
5
E4AC
330
E1C9
100
AcDbEntity
100
AcDbPolyline
8
ZEMIN_PLATFORM
6
ByLayer
62
256
370
-1
90
4
70
1
10
4851.6841736283095
20
2000
10
4851.6841736283095
20
2045
10
5751.6841736283095
20
2045
10
5751.6841736283095
20
2000
0
LWPOLYLINE
5
E4AD
330
E1C9
100
AcDbEntity
100
AcDbPolyline
8
ZEMIN_PLATFORM
6
ByLayer
62
256
370
-1
90
4
70
1
10
5731.6841736283095
20
2045
10
5731.6841736283095
20
2195
10
5751.6841736283095
20
2195
10
5751.6841736283095
20
2045
0
LWPOLYLINE
5
E4AE
330
E1C9
100
AcDbEntity
100
AcDbPolyline
8
ZEMIN_PLATFORM
6
ByLayer
62
256
370
-1
90
4
70
1
10
4851.6841736283095
20
2045
10
4851.6841736283095
20
2195
10
4871.6841736283095
20
2195
10
4871.6841736283095
20
2045
0
LWPOLYLINE
5
E1F2
330
E1C9
100
AcDbEntity
100
AcDbPolyline
8
CELIK_KIRIS_KOLON
6
ByLayer
62
256
370
-1
90
4
70
1
10
-18277.65
20
17817.5
10
-18277.65
20
17852.5
10
-17722.350000000002
20
17852.5
10
-17722.350000000002
20
17817.5
0
LWPOLYLINE
5
E1F3
330
E1C9
100
AcDbEntity
100
AcDbPolyline
8
CELIK_KIRIS_KOLON
6
ByLayer
62
256
370
-1
90
4
70
1
10
-18277.65
20
16147.5
10
-18277.65
20
16182.5
10
-17722.350000000002
20
16182.5
10
-17722.350000000002
20
16147.5
0
LWPOLYLINE
5
E1F4
330
E1C9
100
AcDbEntity
100
AcDbPolyline
8
CELIK_KIRIS_KOLON
6
ByLayer
62
256
370
-1
90
4
70
1
10
-18333.5
20
16397.75
10
-18333.5
20
16457.75
10
-18308.5
20
16457.75
10
-18308.5
20
16397.75
0
LWPOLYLINE
5
E1F5
330
E1C9
100
AcDbEntity
100
AcDbPolyline
8
CELIK_KIRIS_KOLON
6
ByLayer
62
256
370
-1
90
4
70
1
10
-17691.5
20
16397.75
10
-17691.5
20
16457.75
10
-17666.5
20
16457.75
10
-17666.5
20
16397.75
0
CIRCLE
5
E1F6
330
E1C9
100
AcDbEntity
100
AcDbCircle
8
CELIK_KIRIS_KOLON
10
-18320.5
20
16427.75
30
0
40
6
0
CIRCLE
5
E1F7
330
E1C9
100
AcDbEntity
100
AcDbCircle
8
CELIK_KIRIS_KOLON
10
-17679.5
20
16427.75
30
0
40
6
0
LWPOLYLINE
5
E1F8
330
E1C9
100
AcDbEntity
100
AcDbPolyline
8
CELIK_KIRIS_KOLON
6
ByLayer
62
256
370
-1
90
4
70
1
10
-18333.5
20
17542.25
10
-18333.5
20
17602.25
10
-18308.5
20
17602.25
10
-18308.5
20
17542.25
0
LWPOLYLINE
5
E1F9
330
E1C9
100
AcDbEntity
100
AcDbPolyline
8
CELIK_KIRIS_KOLON
6
ByLayer
62
256
370
-1
90
4
70
1
10
-17691.5
20
17542.25
10
-17691.5
20
17602.25
10
-17666.5
20
17602.25
10
-17666.5
20
17542.25
0
CIRCLE
5
E1FA
330
E1C9
100
AcDbEntity
100
AcDbCircle
8
CELIK_KIRIS_KOLON
10
-18320.5
20
17572.25
30
0
40
6
0
CIRCLE
5
E1FB
330
E1C9
100
AcDbEntity
100
AcDbCircle
8
CELIK_KIRIS_KOLON
10
-17679.5
20
17572.25
30
0
40
6
0
LINE
5
E20B
330
E1C9
100
AcDbEntity
100
AcDbLine
8
CELIK_KIRIS_KOLON
10
-11719.89732630248
20
17818.210934180486
30
0
11
-11705.755190678748
21
17804.068798556753
31
0
0
LINE
5
E20C
330
E1C9
100
AcDbEntity
100
AcDbLine
8
CELIK_KIRIS_KOLON
10
-11719.89732630248
20
17818.210934180486
30
0
11
-12818.210934180484
21
16719.897326302478
31
0
0
LINE
5
E20D
330
E1C9
100
AcDbEntity
100
AcDbLine
8
CELIK_KIRIS_KOLON
10
-12818.210934180484
20
16719.897326302478
30
0
11
-12804.068798556753
21
16705.755190678745
31
0
0
LINE
5
E211
330
E1C9
100
AcDbEntity
100
AcDbLine
8
CELIK_KIRIS_KOLON
10
-12506.730397067811
20
17031.377863415153
30
0
11
-12436.019718949156
21
17102.08854153381
31
0
0
LINE
5
E212
330
E1C9
100
AcDbEntity
100
AcDbLine
8
CELIK_KIRIS_KOLON
10
-12436.019718949156
20
17102.08854153381
30
0
11
-12521.721060828964
21
17159.50561216616
31
0
0
LINE
5
E213
330
E1C9
100
AcDbEntity
100
AcDbLine
8
CELIK_KIRIS_KOLON
10
-12521.721060828964
20
17159.50561216616
30
0
11
-12564.147467700157
21
17117.079205294966
31
0
0
LINE
5
E214
330
E1C9
100
AcDbEntity
100
AcDbLine
8
CELIK_KIRIS_KOLON
10
-12564.147467700157
20
17117.079205294966
30
0
11
-12506.730397067811
21
17031.377863415153
31
0
0
CIRCLE
5
E215
330
E1C9
100
AcDbEntity
100
AcDbCircle
8
CELIK_KIRIS_KOLON
10
-12498.31582637169
20
17093.673970837688
30
0
40
46.1
0
LINE
5
E216
330
E1C9
100
AcDbEntity
100
AcDbLine
8
CELIK_KIRIS_KOLON
10
-12102.088541533809
20
17436.019718949156
30
0
11
-12031.377863415153
21
17506.73039706781
31
0
0
LINE
5
E217
330
E1C9
100
AcDbEntity
100
AcDbLine
8
CELIK_KIRIS_KOLON
10
-12031.377863415153
20
17506.73039706781
30
0
11
-12117.079205294962
21
17564.147467700157
31
0
0
LINE
5
E218
330
E1C9
100
AcDbEntity
100
AcDbLine
8
CELIK_KIRIS_KOLON
10
-12117.079205294962
20
17564.147467700157
30
0
11
-12159.505612166155
21
17521.721060828964
31
0
0
LINE
5
E219
330
E1C9
100
AcDbEntity
100
AcDbLine
8
CELIK_KIRIS_KOLON
10
-12159.505612166155
20
17521.721060828964
30
0
11
-12102.088541533809
21
17436.019718949156
31
0
0
CIRCLE
5
E21A
330
E1C9
100
AcDbEntity
100
AcDbCircle
8
CELIK_KIRIS_KOLON
10
-12093.673970837688
20
17498.315826371687
30
0
40
46.1
0
LWPOLYLINE
5
E21B
330
E1C9
100
AcDbEntity
100
AcDbPolyline
8
CELIK_KIRIS_KOLON
6
ByLayer
62
256
370
-1
90
4
70
1
10
-12568.31582637169
20
17033.673970837688
10
-12568.31582637169
20
17153.673970837688
10
-12428.31582637169
20
17153.673970837688
10
-12428.31582637169
20
17033.673970837688
0
LWPOLYLINE
5
E21C
330
E1C9
100
AcDbEntity
100
AcDbPolyline
8
CELIK_KIRIS_KOLON
6
ByLayer
62
256
370
-1
90
4
70
1
10
-12163.673970837688
20
17438.315826371687
10
-12163.673970837688
20
17558.315826371687
10
-12023.673970837688
20
17558.315826371687
10
-12023.673970837688
20
17438.315826371687
0
LWPOLYLINE
5
E21F
330
E1C9
100
AcDbEntity
100
AcDbPolyline
8
CELIK_KIRIS_KOLON
6
ByLayer
62
256
370
-1
90
4
70
1
10
-12578.31582637169
20
19380
10
-12578.31582637169
20
19420
10
-12013.673970837688
20
19420
10
-12013.673970837688
20
19380
0
CIRCLE
5
E221
330
E1C9
100
AcDbEntity
100
AcDbCircle
8
CELIK_KIRIS_KOLON
10
-12295.99489860469
20
19560
30
0
40
155
0
LWPOLYLINE
5
E222
330
E1C9
100
AcDbEntity
100
AcDbPolyline
8
CELIK_KIRIS_KOLON
6
ByLayer
62
256
370
-1
90
4
70
1
10
-12495.99489860469
20
19530
10
-12495.99489860469
20
19590
10
-12455.99489860469
20
19590
10
-12455.99489860469
20
19530
0
LWPOLYLINE
5
E223
330
E1C9
100
AcDbEntity
100
AcDbPolyline
8
CELIK_KIRIS_KOLON
6
ByLayer
62
256
370
-1
90
4
70
1
10
-12135.99489860469
20
19530
10
-12135.99489860469
20
19590
10
-12095.99489860469
20
19590
10
-12095.99489860469
20
19530
0
LINE
5
E224
330
E1C9
100
AcDbEntity
100
AcDbLine
8
CELIK_KIRIS_KOLON
10
-12498.31582637169
20
17193.673970837688
30
0
11
-12295.99489860469
21
19420
31
0
0
LWPOLYLINE
5
E259
330
E1C9
100
AcDbEntity
100
AcDbPolyline
8
CELIK_KIRIS_KOLON
6
ByLayer
62
256
370
-1
90
4
70
1
10
-6075
20
16574.4
10
-6075
20
16598.4
10
-5925
20
16598.4
10
-5925
20
16574.4
0
CIRCLE
5
E25A
330
E1C9
100
AcDbEntity
100
AcDbCircle
8
CELIK_KIRIS_KOLON
10
-6055
20
16586.4
30
0
40
6
0
CIRCLE
5
E25B
330
E1C9
100
AcDbEntity
100
AcDbCircle
8
CELIK_KIRIS_KOLON
10
-5945
20
16586.4
30
0
40
6
0
LWPOLYLINE
5
E283
330
E1C9
100
AcDbEntity
100
AcDbPolyline
8
CELIK_KIRIS_KOLON
6
ByLayer
62
256
370
-1
90
4
70
1
10
7522.35
20
17817.5
10
7522.35
20
17852.5
10
8077.650000000001
20
17852.5
10
8077.650000000001
20
17817.5
0
LWPOLYLINE
5
E284
330
E1C9
100
AcDbEntity
100
AcDbPolyline
8
CELIK_KIRIS_KOLON
6
ByLayer
62
256
370
-1
90
4
70
1
10
7522.35
20
16147.5
10
7522.35
20
16182.5
10
8077.650000000001
20
16182.5
10
8077.650000000001
20
16147.5
0
LWPOLYLINE
5
E285
330
E1C9
100
AcDbEntity
100
AcDbPolyline
8
CELIK_KIRIS_KOLON
6
ByLayer
62
256
370
-1
90
4
70
1
10
7466.5
20
16397.75
10
7466.5
20
16457.75
10
7491.5
20
16457.75
10
7491.5
20
16397.75
0
LWPOLYLINE
5
E286
330
E1C9
100
AcDbEntity
100
AcDbPolyline
8
CELIK_KIRIS_KOLON
6
ByLayer
62
256
370
-1
90
4
70
1
10
8108.5
20
16397.75
10
8108.5
20
16457.75
10
8133.5
20
16457.75
10
8133.5
20
16397.75
0
CIRCLE
5
E287
330
E1C9
100
AcDbEntity
100
AcDbCircle
8
CELIK_KIRIS_KOLON
10
7479.5
20
16427.75
30
0
40
6
0
CIRCLE
5
E288
330
E1C9
100
AcDbEntity
100
AcDbCircle
8
CELIK_KIRIS_KOLON
10
8120.5
20
16427.75
30
0
40
6
0
LWPOLYLINE
5
E289
330
E1C9
100
AcDbEntity
100
AcDbPolyline
8
CELIK_KIRIS_KOLON
6
ByLayer
62
256
370
-1
90
4
70
1
10
7466.5
20
17542.25
10
7466.5
20
17602.25
10
7491.5
20
17602.25
10
7491.5
20
17542.25
0
LWPOLYLINE
5
E28A
330
E1C9
100
AcDbEntity
100
AcDbPolyline
8
CELIK_KIRIS_KOLON
6
ByLayer
62
256
370
-1
90
4
70
1
10
8108.5
20
17542.25
10
8108.5
20
17602.25
10
8133.5
20
17602.25
10
8133.5
20
17542.25
0
CIRCLE
5
E28B
330
E1C9
100
AcDbEntity
100
AcDbCircle
8
CELIK_KIRIS_KOLON
10
7479.5
20
17572.25
30
0
40
6
0
CIRCLE
5
E28C
330
E1C9
100
AcDbEntity
100
AcDbCircle
8
CELIK_KIRIS_KOLON
10
8120.5
20
17572.25
30
0
40
6
0
LWPOLYLINE
5
E2A1
330
E1C9
100
AcDbEntity
100
AcDbPolyline
8
CELIK_KIRIS_KOLON
6
ByLayer
62
256
370
-1
90
4
70
1
10
8922.35
20
17817.5
10
8922.35
20
17852.5
10
9477.65
20
17852.5
10
9477.65
20
17817.5
0
LWPOLYLINE
5
E2A2
330
E1C9
100
AcDbEntity
100
AcDbPolyline
8
CELIK_KIRIS_KOLON
6
ByLayer
62
256
370
-1
90
4
70
1
10
8922.35
20
16147.5
10
8922.35
20
16182.5
10
9477.65
20
16182.5
10
9477.65
20
16147.5
0
LWPOLYLINE
5
E2A3
330
E1C9
100
AcDbEntity
100
AcDbPolyline
8
CELIK_KIRIS_KOLON
6
ByLayer
62
256
370
-1
90
4
70
1
10
8866.5
20
16397.75
10
8866.5
20
16457.75
10
8891.5
20
16457.75
10
8891.5
20
16397.75
0
LWPOLYLINE
5
E2A4
330
E1C9
100
AcDbEntity
100
AcDbPolyline
8
CELIK_KIRIS_KOLON
6
ByLayer
62
256
370
-1
90
4
70
1
10
9508.5
20
16397.75
10
9508.5
20
16457.75
10
9533.5
20
16457.75
10
9533.5
20
16397.75
0
CIRCLE
5
E2A5
330
E1C9
100
AcDbEntity
100
AcDbCircle
8
CELIK_KIRIS_KOLON
10
8879.5
20
16427.75
30
0
40
6
0
CIRCLE
5
E2A6
330
E1C9
100
AcDbEntity
100
AcDbCircle
8
CELIK_KIRIS_KOLON
10
9520.5
20
16427.75
30
0
40
6
0
LWPOLYLINE
5
E2A7
330
E1C9
100
AcDbEntity
100
AcDbPolyline
8
CELIK_KIRIS_KOLON
6
ByLayer
62
256
370
-1
90
4
70
1
10
8866.5
20
17542.25
10
8866.5
20
17602.25
10
8891.5
20
17602.25
10
8891.5
20
17542.25
0
LWPOLYLINE
5
E2A8
330
E1C9
100
AcDbEntity
100
AcDbPolyline
8
CELIK_KIRIS_KOLON
6
ByLayer
62
256
370
-1
90
4
70
1
10
9508.5
20
17542.25
10
9508.5
20
17602.25
10
9533.5
20
17602.25
10
9533.5
20
17542.25
0
CIRCLE
5
E2A9
330
E1C9
100
AcDbEntity
100
AcDbCircle
8
CELIK_KIRIS_KOLON
10
8879.5
20
17572.25
30
0
40
6
0
CIRCLE
5
E2AA
330
E1C9
100
AcDbEntity
100
AcDbCircle
8
CELIK_KIRIS_KOLON
10
9520.5
20
17572.25
30
0
40
6
0
LWPOLYLINE
5
E2AF
330
E1C9
100
AcDbEntity
100
AcDbPolyline
8
CELIK_KIRIS_KOLON
6
ByLayer
62
256
370
-1
90
4
70
1
10
7250
20
18050
10
7250
20
18170
10
9750
20
18170
10
9750
20
18050
0
TEXT
5
E2B0
330
E1C9
100
AcDbEntity
100
AcDbText
8
CELIK_KIRIS_KOLON
10
8500
20
18110
30
0
40
45
1
AGIR HIZMET CELIK TRAVERS (120x80x6mm, L=2500mm)
50
0
7
STANDARD
72
1
11
8500
21
18110
31
0
100
AcDbText
73
2
0
LINE
5
E2D0
330
E1C9
100
AcDbEntity
100
AcDbLine
8
CELIK_KIRIS_KOLON
10
17780.102673697522
20
17818.210934180486
30
0
11
17794.244809321255
21
17804.068798556753
31
0
0
LINE
5
E2D1
330
E1C9
100
AcDbEntity
100
AcDbLine
8
CELIK_KIRIS_KOLON
10
17780.102673697522
20
17818.210934180486
30
0
11
16681.789065819514
21
16719.897326302478
31
0
0
LINE
5
E2D2
330
E1C9
100
AcDbEntity
100
AcDbLine
8
CELIK_KIRIS_KOLON
10
16681.789065819514
20
16719.897326302478
30
0
11
16695.931201443247
21
16705.755190678745
31
0
0
LINE
5
E2D6
330
E1C9
100
AcDbEntity
100
AcDbLine
8
CELIK_KIRIS_KOLON
10
16993.26960293219
20
17031.377863415153
30
0
11
17063.980281050844
21
17102.08854153381
31
0
0
LINE
5
E2D7
330
E1C9
100
AcDbEntity
100
AcDbLine
8
CELIK_KIRIS_KOLON
10
17063.980281050844
20
17102.08854153381
30
0
11
16978.278939171036
21
17159.50561216616
31
0
0
LINE
5
E2D8
330
E1C9
100
AcDbEntity
100
AcDbLine
8
CELIK_KIRIS_KOLON
10
16978.278939171036
20
17159.50561216616
30
0
11
16935.852532299843
21
17117.079205294966
31
0
0
LINE
5
E2D9
330
E1C9
100
AcDbEntity
100
AcDbLine
8
CELIK_KIRIS_KOLON
10
16935.852532299843
20
17117.079205294966
30
0
11
16993.26960293219
21
17031.377863415153
31
0
0
CIRCLE
5
E2DA
330
E1C9
100
AcDbEntity
100
AcDbCircle
8
CELIK_KIRIS_KOLON
10
17001.684173628313
20
17093.673970837688
30
0
40
46.1
0
LINE
5
E2DB
330
E1C9
100
AcDbEntity
100
AcDbLine
8
CELIK_KIRIS_KOLON
10
17397.91145846619
20
17436.019718949156
30
0
11
17468.622136584847
21
17506.73039706781
31
0
0
LINE
5
E2DC
330
E1C9
100
AcDbEntity
100
AcDbLine
8
CELIK_KIRIS_KOLON
10
17468.622136584847
20
17506.73039706781
30
0
11
17382.920794705034
21
17564.147467700157
31
0
0
LINE
5
E2DD
330
E1C9
100
AcDbEntity
100
AcDbLine
8
CELIK_KIRIS_KOLON
10
17382.920794705034
20
17564.147467700157
30
0
11
17340.49438783384
21
17521.721060828964
31
0
0
LINE
5
E2DE
330
E1C9
100
AcDbEntity
100
AcDbLine
8
CELIK_KIRIS_KOLON
10
17340.49438783384
20
17521.721060828964
30
0
11
17397.91145846619
21
17436.019718949156
31
0
0
CIRCLE
5
E2DF
330
E1C9
100
AcDbEntity
100
AcDbCircle
8
CELIK_KIRIS_KOLON
10
17406.326029162312
20
17498.315826371687
30
0
40
46.1
0
LWPOLYLINE
5
E2E0
330
E1C9
100
AcDbEntity
100
AcDbPolyline
8
CELIK_KIRIS_KOLON
6
ByLayer
62
256
370
-1
90
4
70
1
10
16931.684173628313
20
17033.673970837688
10
16931.684173628313
20
17153.673970837688
10
17071.684173628313
20
17153.673970837688
10
17071.684173628313
20
17033.673970837688
0
LWPOLYLINE
5
E2E1
330
E1C9
100
AcDbEntity
100
AcDbPolyline
8
CELIK_KIRIS_KOLON
6
ByLayer
62
256
370
-1
90
4
70
1
10
17336.326029162312
20
17438.315826371687
10
17336.326029162312
20
17558.315826371687
10
17476.326029162312
20
17558.315826371687
10
17476.326029162312
20
17438.315826371687
0
LWPOLYLINE
5
E2E4
330
E1C9
100
AcDbEntity
100
AcDbPolyline
8
CELIK_KIRIS_KOLON
6
ByLayer
62
256
370
-1
90
4
70
1
10
16921.684173628313
20
19380
10
16921.684173628313
20
19420
10
17486.326029162312
20
19420
10
17486.326029162312
20
19380
0
CIRCLE
5
E2E6
330
E1C9
100
AcDbEntity
100
AcDbCircle
8
CELIK_KIRIS_KOLON
10
17204.005101395313
20
19560
30
0
40
155
0
LWPOLYLINE
5
E2E7
330
E1C9
100
AcDbEntity
100
AcDbPolyline
8
CELIK_KIRIS_KOLON
6
ByLayer
62
256
370
-1
90
4
70
1
10
17004.005101395313
20
19530
10
17004.005101395313
20
19590
10
17044.005101395313
20
19590
10
17044.005101395313
20
19530
0
LWPOLYLINE
5
E2E8
330
E1C9
100
AcDbEntity
100
AcDbPolyline
8
CELIK_KIRIS_KOLON
6
ByLayer
62
256
370
-1
90
4
70
1
10
17364.005101395313
20
19530
10
17364.005101395313
20
19590
10
17404.005101395313
20
19590
10
17404.005101395313
20
19530
0
LINE
5
E2E9
330
E1C9
100
AcDbEntity
100
AcDbLine
8
CELIK_KIRIS_KOLON
10
17001.684173628313
20
17193.673970837688
30
0
11
17204.005101395313
21
19420
31
0
0
LWPOLYLINE
5
E326
330
E1C9
100
AcDbEntity
100
AcDbPolyline
8
CELIK_KIRIS_KOLON
6
ByLayer
62
256
370
-1
90
4
70
1
10
-8577.65
20
9317.5
10
-8577.65
20
9352.5
10
-8022.349999999999
20
9352.5
10
-8022.349999999999
20
9317.5
0
LWPOLYLINE
5
E327
330
E1C9
100
AcDbEntity
100
AcDbPolyline
8
CELIK_KIRIS_KOLON
6
ByLayer
62
256
370
-1
90
4
70
1
10
-8577.65
20
7647.5
10
-8577.65
20
7682.5
10
-8022.349999999999
20
7682.5
10
-8022.349999999999
20
7647.5
0
LWPOLYLINE
5
E328
330
E1C9
100
AcDbEntity
100
AcDbPolyline
8
CELIK_KIRIS_KOLON
6
ByLayer
62
256
370
-1
90
4
70
1
10
-8633.5
20
7897.75
10
-8633.5
20
7957.75
10
-8608.5
20
7957.75
10
-8608.5
20
7897.75
0
LWPOLYLINE
5
E329
330
E1C9
100
AcDbEntity
100
AcDbPolyline
8
CELIK_KIRIS_KOLON
6
ByLayer
62
256
370
-1
90
4
70
1
10
-7991.5
20
7897.75
10
-7991.5
20
7957.75
10
-7966.5
20
7957.75
10
-7966.5
20
7897.75
0
CIRCLE
5
E32A
330
E1C9
100
AcDbEntity
100
AcDbCircle
8
CELIK_KIRIS_KOLON
10
-8620.5
20
7927.75
30
0
40
6
0
CIRCLE
5
E32B
330
E1C9
100
AcDbEntity
100
AcDbCircle
8
CELIK_KIRIS_KOLON
10
-7979.5
20
7927.75
30
0
40
6
0
LWPOLYLINE
5
E32C
330
E1C9
100
AcDbEntity
100
AcDbPolyline
8
CELIK_KIRIS_KOLON
6
ByLayer
62
256
370
-1
90
4
70
1
10
-8633.5
20
9042.25
10
-8633.5
20
9102.25
10
-8608.5
20
9102.25
10
-8608.5
20
9042.25
0
LWPOLYLINE
5
E32D
330
E1C9
100
AcDbEntity
100
AcDbPolyline
8
CELIK_KIRIS_KOLON
6
ByLayer
62
256
370
-1
90
4
70
1
10
-7991.5
20
9042.25
10
-7991.5
20
9102.25
10
-7966.5
20
9102.25
10
-7966.5
20
9042.25
0
CIRCLE
5
E32E
330
E1C9
100
AcDbEntity
100
AcDbCircle
8
CELIK_KIRIS_KOLON
10
-8620.5
20
9072.25
30
0
40
6
0
CIRCLE
5
E32F
330
E1C9
100
AcDbEntity
100
AcDbCircle
8
CELIK_KIRIS_KOLON
10
-7979.5
20
9072.25
30
0
40
6
0
LWPOLYLINE
5
E344
330
E1C9
100
AcDbEntity
100
AcDbPolyline
8
CELIK_KIRIS_KOLON
6
ByLayer
62
256
370
-1
90
4
70
1
10
-7277.65
20
9317.5
10
-7277.65
20
9352.5
10
-6722.349999999999
20
9352.5
10
-6722.349999999999
20
9317.5
0
LWPOLYLINE
5
E345
330
E1C9
100
AcDbEntity
100
AcDbPolyline
8
CELIK_KIRIS_KOLON
6
ByLayer
62
256
370
-1
90
4
70
1
10
-7277.65
20
7647.5
10
-7277.65
20
7682.5
10
-6722.349999999999
20
7682.5
10
-6722.349999999999
20
7647.5
0
LWPOLYLINE
5
E346
330
E1C9
100
AcDbEntity
100
AcDbPolyline
8
CELIK_KIRIS_KOLON
6
ByLayer
62
256
370
-1
90
4
70
1
10
-7333.5
20
7897.75
10
-7333.5
20
7957.75
10
-7308.5
20
7957.75
10
-7308.5
20
7897.75
0
LWPOLYLINE
5
E347
330
E1C9
100
AcDbEntity
100
AcDbPolyline
8
CELIK_KIRIS_KOLON
6
ByLayer
62
256
370
-1
90
4
70
1
10
-6691.5
20
7897.75
10
-6691.5
20
7957.75
10
-6666.5
20
7957.75
10
-6666.5
20
7897.75
0
CIRCLE
5
E348
330
E1C9
100
AcDbEntity
100
AcDbCircle
8
CELIK_KIRIS_KOLON
10
-7320.5
20
7927.75
30
0
40
6
0
CIRCLE
5
E349
330
E1C9
100
AcDbEntity
100
AcDbCircle
8
CELIK_KIRIS_KOLON
10
-6679.5
20
7927.75
30
0
40
6
0
LWPOLYLINE
5
E34A
330
E1C9
100
AcDbEntity
100
AcDbPolyline
8
CELIK_KIRIS_KOLON
6
ByLayer
62
256
370
-1
90
4
70
1
10
-7333.5
20
9042.25
10
-7333.5
20
9102.25
10
-7308.5
20
9102.25
10
-7308.5
20
9042.25
0
LWPOLYLINE
5
E34B
330
E1C9
100
AcDbEntity
100
AcDbPolyline
8
CELIK_KIRIS_KOLON
6
ByLayer
62
256
370
-1
90
4
70
1
10
-6691.5
20
9042.25
10
-6691.5
20
9102.25
10
-6666.5
20
9102.25
10
-6666.5
20
9042.25
0
CIRCLE
5
E34C
330
E1C9
100
AcDbEntity
100
AcDbCircle
8
CELIK_KIRIS_KOLON
10
-7320.5
20
9072.25
30
0
40
6
0
CIRCLE
5
E34D
330
E1C9
100
AcDbEntity
100
AcDbCircle
8
CELIK_KIRIS_KOLON
10
-6679.5
20
9072.25
30
0
40
6
0
LWPOLYLINE
5
E362
330
E1C9
100
AcDbEntity
100
AcDbPolyline
8
CELIK_KIRIS_KOLON
6
ByLayer
62
256
370
-1
90
4
70
1
10
-5977.65
20
9317.5
10
-5977.65
20
9352.5
10
-5422.349999999999
20
9352.5
10
-5422.349999999999
20
9317.5
0
LWPOLYLINE
5
E363
330
E1C9
100
AcDbEntity
100
AcDbPolyline
8
CELIK_KIRIS_KOLON
6
ByLayer
62
256
370
-1
90
4
70
1
10
-5977.65
20
7647.5
10
-5977.65
20
7682.5
10
-5422.349999999999
20
7682.5
10
-5422.349999999999
20
7647.5
0
LWPOLYLINE
5
E364
330
E1C9
100
AcDbEntity
100
AcDbPolyline
8
CELIK_KIRIS_KOLON
6
ByLayer
62
256
370
-1
90
4
70
1
10
-6033.5
20
7897.75
10
-6033.5
20
7957.75
10
-6008.5
20
7957.75
10
-6008.5
20
7897.75
0
LWPOLYLINE
5
E365
330
E1C9
100
AcDbEntity
100
AcDbPolyline
8
CELIK_KIRIS_KOLON
6
ByLayer
62
256
370
-1
90
4
70
1
10
-5391.5
20
7897.75
10
-5391.5
20
7957.75
10
-5366.5
20
7957.75
10
-5366.5
20
7897.75
0
CIRCLE
5
E366
330
E1C9
100
AcDbEntity
100
AcDbCircle
8
CELIK_KIRIS_KOLON
10
-6020.5
20
7927.75
30
0
40
6
0
CIRCLE
5
E367
330
E1C9
100
AcDbEntity
100
AcDbCircle
8
CELIK_KIRIS_KOLON
10
-5379.5
20
7927.75
30
0
40
6
0
LWPOLYLINE
5
E368
330
E1C9
100
AcDbEntity
100
AcDbPolyline
8
CELIK_KIRIS_KOLON
6
ByLayer
62
256
370
-1
90
4
70
1
10
-6033.5
20
9042.25
10
-6033.5
20
9102.25
10
-6008.5
20
9102.25
10
-6008.5
20
9042.25
0
LWPOLYLINE
5
E369
330
E1C9
100
AcDbEntity
100
AcDbPolyline
8
CELIK_KIRIS_KOLON
6
ByLayer
62
256
370
-1
90
4
70
1
10
-5391.5
20
9042.25
10
-5391.5
20
9102.25
10
-5366.5
20
9102.25
10
-5366.5
20
9042.25
0
CIRCLE
5
E36A
330
E1C9
100
AcDbEntity
100
AcDbCircle
8
CELIK_KIRIS_KOLON
10
-6020.5
20
9072.25
30
0
40
6
0
CIRCLE
5
E36B
330
E1C9
100
AcDbEntity
100
AcDbCircle
8
CELIK_KIRIS_KOLON
10
-5379.5
20
9072.25
30
0
40
6
0
LWPOLYLINE
5
E370
330
E1C9
100
AcDbEntity
100
AcDbPolyline
8
CELIK_KIRIS_KOLON
6
ByLayer
62
256
370
-1
90
4
70
1
10
-8900
20
9550
10
-8900
20
9690
10
-5100
20
9690
10
-5100
20
9550
0
TEXT
5
E371
330
E1C9
100
AcDbEntity
100
AcDbText
8
CELIK_KIRIS_KOLON
10
-7000
20
9620
30
0
40
45
1
AGIR HIZMET 3'LU KAFES TRAVERS (140x100x8mm, L=3800mm)
50
0
7
STANDARD
72
1
11
-7000
21
9620
31
0
100
AcDbText
73
2
0
LINE
5
E372
330
E1C9
100
AcDbEntity
100
AcDbLine
8
CELIK_KIRIS_KOLON
10
-8800
20
9690
30
0
11
-8300
21
10750
31
0
0
LINE
5
E373
330
E1C9
100
AcDbEntity
100
AcDbLine
8
CELIK_KIRIS_KOLON
10
-5200
20
9690
30
0
11
-5700
21
10750
31
0
0
LWPOLYLINE
5
E390
330
E1C9
100
AcDbEntity
100
AcDbPolyline
8
CELIK_KIRIS_KOLON
6
ByLayer
62
256
370
-1
90
4
70
1
10
2717.9524429455973
20
8388.493078246842
10
2717.9524429455973
20
8412.493078246842
10
2867.9524429455973
20
8412.493078246842
10
2867.9524429455973
20
8388.493078246842
0
CIRCLE
5
E391
330
E1C9
100
AcDbEntity
100
AcDbCircle
8
CELIK_KIRIS_KOLON
10
2737.9524429455973
20
8400.493078246842
30
0
40
6
0
CIRCLE
5
E392
330
E1C9
100
AcDbEntity
100
AcDbCircle
8
CELIK_KIRIS_KOLON
10
2847.9524429455973
20
8400.493078246842
30
0
40
6
0
LWPOLYLINE
5
E3B2
330
E1C9
100
AcDbEntity
100
AcDbPolyline
8
CELIK_KIRIS_KOLON
6
ByLayer
62
256
370
-1
90
4
70
1
10
3925
20
8074.4
10
3925
20
8098.4
10
4075
20
8098.4
10
4075
20
8074.4
0
CIRCLE
5
E3B3
330
E1C9
100
AcDbEntity
100
AcDbCircle
8
CELIK_KIRIS_KOLON
10
3945
20
8086.4
30
0
40
6
0
CIRCLE
5
E3B4
330
E1C9
100
AcDbEntity
100
AcDbCircle
8
CELIK_KIRIS_KOLON
10
4055
20
8086.4
30
0
40
6
0
LWPOLYLINE
5
E3D4
330
E1C9
100
AcDbEntity
100
AcDbPolyline
8
CELIK_KIRIS_KOLON
6
ByLayer
62
256
370
-1
90
4
70
1
10
5132.047557054402
20
8388.493078246842
10
5132.047557054402
20
8412.493078246842
10
5282.047557054402
20
8412.493078246842
10
5282.047557054402
20
8388.493078246842
0
CIRCLE
5
E3D5
330
E1C9
100
AcDbEntity
100
AcDbCircle
8
CELIK_KIRIS_KOLON
10
5152.047557054402
20
8400.493078246842
30
0
40
6
0
CIRCLE
5
E3D6
330
E1C9
100
AcDbEntity
100
AcDbCircle
8
CELIK_KIRIS_KOLON
10
5262.047557054402
20
8400.493078246842
30
0
40
6
0
LINE
5
E3F9
330
E1C9
100
AcDbEntity
100
AcDbLine
8
CELIK_KIRIS_KOLON
10
-13719.89732630248
20
818.2109341804838
30
0
11
-13705.755190678748
21
804.0687985567529
31
0
0
LINE
5
E3FA
330
E1C9
100
AcDbEntity
100
AcDbLine
8
CELIK_KIRIS_KOLON
10
-13719.89732630248
20
818.2109341804838
30
0
11
-14818.210934180484
21
-280.10267369752125
31
0
0
LINE
5
E3FB
330
E1C9
100
AcDbEntity
100
AcDbLine
8
CELIK_KIRIS_KOLON
10
-14818.210934180484
20
-280.10267369752125
30
0
11
-14804.068798556753
21
-294.2448093212522
31
0
0
LINE
5
E3FF
330
E1C9
100
AcDbEntity
100
AcDbLine
8
CELIK_KIRIS_KOLON
10
-14506.730397067811
20
31.377863415152973
30
0
11
-14436.019718949156
21
102.08854153380776
31
0
0
LINE
5
E400
330
E1C9
100
AcDbEntity
100
AcDbLine
8
CELIK_KIRIS_KOLON
10
-14436.019718949156
20
102.08854153380776
30
0
11
-14521.721060828964
21
159.5056121661554
31
0
0
LINE
5
E401
330
E1C9
100
AcDbEntity
100
AcDbLine
8
CELIK_KIRIS_KOLON
10
-14521.721060828964
20
159.5056121661554
30
0
11
-14564.147467700157
21
117.07920529496252
31
0
0
LINE
5
E402
330
E1C9
100
AcDbEntity
100
AcDbLine
8
CELIK_KIRIS_KOLON
10
-14564.147467700157
20
117.07920529496252
30
0
11
-14506.730397067811
21
31.377863415152973
31
0
0
CIRCLE
5
E403
330
E1C9
100
AcDbEntity
100
AcDbCircle
8
CELIK_KIRIS_KOLON
10
-14498.31582637169
20
93.67397083768788
30
0
40
46.1
0
LINE
5
E404
330
E1C9
100
AcDbEntity
100
AcDbLine
8
CELIK_KIRIS_KOLON
10
-14102.088541533809
20
436.0197189491548
30
0
11
-14031.377863415153
21
506.7303970678096
31
0
0
LINE
5
E405
330
E1C9
100
AcDbEntity
100
AcDbLine
8
CELIK_KIRIS_KOLON
10
-14031.377863415153
20
506.7303970678096
30
0
11
-14117.079205294962
21
564.1474677001572
31
0
0
LINE
5
E406
330
E1C9
100
AcDbEntity
100
AcDbLine
8
CELIK_KIRIS_KOLON
10
-14117.079205294962
20
564.1474677001572
30
0
11
-14159.505612166155
21
521.7210608289644
31
0
0
LINE
5
E407
330
E1C9
100
AcDbEntity
100
AcDbLine
8
CELIK_KIRIS_KOLON
10
-14159.505612166155
20
521.7210608289644
30
0
11
-14102.088541533809
21
436.0197189491548
31
0
0
CIRCLE
5
E408
330
E1C9
100
AcDbEntity
100
AcDbCircle
8
CELIK_KIRIS_KOLON
10
-14093.673970837688
20
498.3158263716897
30
0
40
46.1
0
LWPOLYLINE
5
E409
330
E1C9
100
AcDbEntity
100
AcDbPolyline
8
CELIK_KIRIS_KOLON
6
ByLayer
62
256
370
-1
90
4
70
1
10
-14568.31582637169
20
33.673970837687875
10
-14568.31582637169
20
153.67397083768788
10
-14428.31582637169
20
153.67397083768788
10
-14428.31582637169
20
33.673970837687875
0
LWPOLYLINE
5
E40A
330
E1C9
100
AcDbEntity
100
AcDbPolyline
8
CELIK_KIRIS_KOLON
6
ByLayer
62
256
370
-1
90
4
70
1
10
-14163.673970837688
20
438.3158263716897
10
-14163.673970837688
20
558.3158263716897
10
-14023.673970837688
20
558.3158263716897
10
-14023.673970837688
20
438.3158263716897
0
LWPOLYLINE
5
E40D
330
E1C9
100
AcDbEntity
100
AcDbPolyline
8
CELIK_KIRIS_KOLON
6
ByLayer
62
256
370
-1
90
4
70
1
10
-14578.31582637169
20
2380
10
-14578.31582637169
20
2420
10
-14013.673970837688
20
2420
10
-14013.673970837688
20
2380
0
CIRCLE
5
E40F
330
E1C9
100
AcDbEntity
100
AcDbCircle
8
CELIK_KIRIS_KOLON
10
-14295.99489860469
20
2560
30
0
40
155
0
LWPOLYLINE
5
E410
330
E1C9
100
AcDbEntity
100
AcDbPolyline
8
CELIK_KIRIS_KOLON
6
ByLayer
62
256
370
-1
90
4
70
1
10
-14495.99489860469
20
2530
10
-14495.99489860469
20
2590
10
-14455.99489860469
20
2590
10
-14455.99489860469
20
2530
0
LWPOLYLINE
5
E411
330
E1C9
100
AcDbEntity
100
AcDbPolyline
8
CELIK_KIRIS_KOLON
6
ByLayer
62
256
370
-1
90
4
70
1
10
-14135.99489860469
20
2530
10
-14135.99489860469
20
2590
10
-14095.99489860469
20
2590
10
-14095.99489860469
20
2530
0
LINE
5
E412
330
E1C9
100
AcDbEntity
100
AcDbLine
8
CELIK_KIRIS_KOLON
10
-14498.31582637169
20
193.67397083768788
30
0
11
-14295.99489860469
21
2420
31
0
0
LINE
5
E448
330
E1C9
100
AcDbEntity
100
AcDbLine
8
CELIK_KIRIS_KOLON
10
-3719.897326302479
20
818.2109341804838
30
0
11
-3705.7551906787485
21
804.0687985567529
31
0
0
LINE
5
E449
330
E1C9
100
AcDbEntity
100
AcDbLine
8
CELIK_KIRIS_KOLON
10
-3719.897326302479
20
818.2109341804838
30
0
11
-4818.2109341804835
21
-280.10267369752125
31
0
0
LINE
5
E44A
330
E1C9
100
AcDbEntity
100
AcDbLine
8
CELIK_KIRIS_KOLON
10
-4818.2109341804835
20
-280.10267369752125
30
0
11
-4804.068798556753
21
-294.2448093212522
31
0
0
LINE
5
E44E
330
E1C9
100
AcDbEntity
100
AcDbLine
8
CELIK_KIRIS_KOLON
10
-4506.7303970678095
20
31.377863415152973
30
0
11
-4436.019718949155
21
102.08854153380776
31
0
0
LINE
5
E44F
330
E1C9
100
AcDbEntity
100
AcDbLine
8
CELIK_KIRIS_KOLON
10
-4436.019718949155
20
102.08854153380776
30
0
11
-4521.721060828965
21
159.5056121661554
31
0
0
LINE
5
E450
330
E1C9
100
AcDbEntity
100
AcDbLine
8
CELIK_KIRIS_KOLON
10
-4521.721060828965
20
159.5056121661554
30
0
11
-4564.147467700158
21
117.07920529496252
31
0
0
LINE
5
E451
330
E1C9
100
AcDbEntity
100
AcDbLine
8
CELIK_KIRIS_KOLON
10
-4564.147467700158
20
117.07920529496252
30
0
11
-4506.7303970678095
21
31.377863415152973
31
0
0
CIRCLE
5
E452
330
E1C9
100
AcDbEntity
100
AcDbCircle
8
CELIK_KIRIS_KOLON
10
-4498.3158263716905
20
93.67397083768788
30
0
40
46.1
0
LINE
5
E453
330
E1C9
100
AcDbEntity
100
AcDbLine
8
CELIK_KIRIS_KOLON
10
-4102.088541533808
20
436.0197189491548
30
0
11
-4031.377863415153
21
506.7303970678096
31
0
0
LINE
5
E454
330
E1C9
100
AcDbEntity
100
AcDbLine
8
CELIK_KIRIS_KOLON
10
-4031.377863415153
20
506.7303970678096
30
0
11
-4117.079205294963
21
564.1474677001572
31
0
0
LINE
5
E455
330
E1C9
100
AcDbEntity
100
AcDbLine
8
CELIK_KIRIS_KOLON
10
-4117.079205294963
20
564.1474677001572
30
0
11
-4159.5056121661555
21
521.7210608289644
31
0
0
LINE
5
E456
330
E1C9
100
AcDbEntity
100
AcDbLine
8
CELIK_KIRIS_KOLON
10
-4159.5056121661555
20
521.7210608289644
30
0
11
-4102.088541533808
21
436.0197189491548
31
0
0
CIRCLE
5
E457
330
E1C9
100
AcDbEntity
100
AcDbCircle
8
CELIK_KIRIS_KOLON
10
-4093.6739708376886
20
498.3158263716897
30
0
40
46.1
0
LWPOLYLINE
5
E458
330
E1C9
100
AcDbEntity
100
AcDbPolyline
8
CELIK_KIRIS_KOLON
6
ByLayer
62
256
370
-1
90
4
70
1
10
-4568.3158263716905
20
33.673970837687875
10
-4568.3158263716905
20
153.67397083768788
10
-4428.3158263716905
20
153.67397083768788
10
-4428.3158263716905
20
33.673970837687875
0
LWPOLYLINE
5
E459
330
E1C9
100
AcDbEntity
100
AcDbPolyline
8
CELIK_KIRIS_KOLON
6
ByLayer
62
256
370
-1
90
4
70
1
10
-4163.673970837688
20
438.3158263716897
10
-4163.673970837688
20
558.3158263716897
10
-4023.673970837688
20
558.3158263716897
10
-4023.673970837688
20
438.3158263716897
0
LWPOLYLINE
5
E45C
330
E1C9
100
AcDbEntity
100
AcDbPolyline
8
CELIK_KIRIS_KOLON
6
ByLayer
62
256
370
-1
90
4
70
1
10
-4578.3158263716905
20
2380
10
-4578.3158263716905
20
2420
10
-4013.6739708376886
20
2420
10
-4013.6739708376886
20
2380
0
CIRCLE
5
E45E
330
E1C9
100
AcDbEntity
100
AcDbCircle
8
CELIK_KIRIS_KOLON
10
-4648.3158263716905
20
3150
30
0
40
795
0
LWPOLYLINE
5
E460
330
E1C9
100
AcDbEntity
100
AcDbPolyline
8
CELIK_KIRIS_KOLON
6
ByLayer
62
256
370
-1
90
4
70
1
10
-4498.3158263716905
20
463.3158263716897
10
-4498.3158263716905
20
533.3158263716897
10
-4023.6739708376886
20
533.3158263716897
10
-4023.6739708376886
20
463.3158263716897
0
LINE
5
E497
330
E1C9
100
AcDbEntity
100
AcDbLine
8
CELIK_KIRIS_KOLON
10
6280.102673697521
20
818.2109341804838
30
0
11
6294.2448093212515
21
804.0687985567529
31
0
0
LINE
5
E498
330
E1C9
100
AcDbEntity
100
AcDbLine
8
CELIK_KIRIS_KOLON
10
6280.102673697521
20
818.2109341804838
30
0
11
5181.7890658195165
21
-280.10267369752125
31
0
0
LINE
5
E499
330
E1C9
100
AcDbEntity
100
AcDbLine
8
CELIK_KIRIS_KOLON
10
5181.7890658195165
20
-280.10267369752125
30
0
11
5195.931201443247
21
-294.2448093212522
31
0
0
LINE
5
E49D
330
E1C9
100
AcDbEntity
100
AcDbLine
8
CELIK_KIRIS_KOLON
10
5493.2696029321905
20
31.377863415152973
30
0
11
5563.980281050845
21
102.08854153380776
31
0
0
LINE
5
E49E
330
E1C9
100
AcDbEntity
100
AcDbLine
8
CELIK_KIRIS_KOLON
10
5563.980281050845
20
102.08854153380776
30
0
11
5478.278939171035
21
159.5056121661554
31
0
0
LINE
5
E49F
330
E1C9
100
AcDbEntity
100
AcDbLine
8
CELIK_KIRIS_KOLON
10
5478.278939171035
20
159.5056121661554
30
0
11
5435.852532299842
21
117.07920529496252
31
0
0
LINE
5
E4A0
330
E1C9
100
AcDbEntity
100
AcDbLine
8
CELIK_KIRIS_KOLON
10
5435.852532299842
20
117.07920529496252
30
0
11
5493.2696029321905
21
31.377863415152973
31
0
0
CIRCLE
5
E4A1
330
E1C9
100
AcDbEntity
100
AcDbCircle
8
CELIK_KIRIS_KOLON
10
5501.6841736283095
20
93.67397083768788
30
0
40
46.1
0
LINE
5
E4A2
330
E1C9
100
AcDbEntity
100
AcDbLine
8
CELIK_KIRIS_KOLON
10
5897.911458466192
20
436.0197189491548
30
0
11
5968.622136584847
21
506.7303970678096
31
0
0
LINE
5
E4A3
330
E1C9
100
AcDbEntity
100
AcDbLine
8
CELIK_KIRIS_KOLON
10
5968.622136584847
20
506.7303970678096
30
0
11
5882.920794705037
21
564.1474677001572
31
0
0
LINE
5
E4A4
330
E1C9
100
AcDbEntity
100
AcDbLine
8
CELIK_KIRIS_KOLON
10
5882.920794705037
20
564.1474677001572
30
0
11
5840.4943878338445
21
521.7210608289644
31
0
0
LINE
5
E4A5
330
E1C9
100
AcDbEntity
100
AcDbLine
8
CELIK_KIRIS_KOLON
10
5840.4943878338445
20
521.7210608289644
30
0
11
5897.911458466192
21
436.0197189491548
31
0
0
CIRCLE
5
E4A6
330
E1C9
100
AcDbEntity
100
AcDbCircle
8
CELIK_KIRIS_KOLON
10
5906.326029162312
20
498.3158263716897
30
0
40
46.1
0
LWPOLYLINE
5
E4A7
330
E1C9
100
AcDbEntity
100
AcDbPolyline
8
CELIK_KIRIS_KOLON
6
ByLayer
62
256
370
-1
90
4
70
1
10
5431.6841736283095
20
33.673970837687875
10
5431.6841736283095
20
153.67397083768788
10
5571.6841736283095
20
153.67397083768788
10
5571.6841736283095
20
33.673970837687875
0
LWPOLYLINE
5
E4A8
330
E1C9
100
AcDbEntity
100
AcDbPolyline
8
CELIK_KIRIS_KOLON
6
ByLayer
62
256
370
-1
90
4
70
1
10
5836.326029162312
20
438.3158263716897
10
5836.326029162312
20
558.3158263716897
10
5976.326029162312
20
558.3158263716897
10
5976.326029162312
20
438.3158263716897
0
LWPOLYLINE
5
E4AB
330
E1C9
100
AcDbEntity
100
AcDbPolyline
8
CELIK_KIRIS_KOLON
6
ByLayer
62
256
370
-1
90
4
70
1
10
5421.6841736283095
20
2380
10
5421.6841736283095
20
2420
10
5986.326029162312
20
2420
10
5986.326029162312
20
2380
0
LINE
5
E4AF
330
E1C9
100
AcDbEntity
100
AcDbLine
8
CELIK_KIRIS_KOLON
10
5741.6841736283095
20
2045
30
0
11
5741.6841736283095
21
3145
31
0
0
LINE
5
E4B0
330
E1C9
100
AcDbEntity
100
AcDbLine
8
CELIK_KIRIS_KOLON
10
4861.6841736283095
20
2045
30
0
11
4861.6841736283095
21
3145
31
0
0
LINE
5
E4B1
330
E1C9
100
AcDbEntity
100
AcDbLine
8
CELIK_KIRIS_KOLON
10
4861.6841736283095
20
3145
30
0
11
5741.6841736283095
21
3145
31
0
0
LINE
5
E4B2
330
E1C9
100
AcDbEntity
100
AcDbLine
8
CELIK_KIRIS_KOLON
10
4861.6841736283095
20
2595
30
0
11
5741.6841736283095
21
2595
31
0
0
LWPOLYLINE
5
E1E2
330
E1C9
100
AcDbEntity
100
AcDbPolyline
8
MONTAJ_BORULARI
6
ByLayer
62
256
370
-1
90
4
70
1
10
-18038.1
20
16100
10
-18038.1
20
17900
10
-17961.899999999998
20
17900
10
-17961.899999999998
20
16100
0
LINE
5
E1E3
330
E1C9
100
AcDbEntity
100
AcDbLine
8
MONTAJ_BORULARI
10
-18000
20
16000
30
0
11
-18000
21
18000
31
0
0
LINE
5
E20E
330
E1C9
100
AcDbEntity
100
AcDbLine
8
MONTAJ_BORULARI
10
-11662.09134694048
20
17876.016913542484
30
0
11
-12876.016913542484
21
16662.09134694048
31
0
0
LINE
5
E20F
330
E1C9
100
AcDbEntity
100
AcDbLine
8
MONTAJ_BORULARI
10
-11715.972883666895
20
17929.898450268898
30
0
11
-12929.898450268898
21
16715.972883666895
31
0
0
LINE
5
E210
330
E1C9
100
AcDbEntity
100
AcDbLine
8
MONTAJ_BORULARI
10
-11689.032115303686
20
17902.95768190569
30
0
11
-12902.957681905693
21
16689.032115303686
31
0
0
LWPOLYLINE
5
E21D
330
E1C9
100
AcDbEntity
100
AcDbPolyline
8
MONTAJ_BORULARI
6
ByLayer
62
256
370
-1
90
4
70
1
10
-12533.31582637169
20
17093.673970837688
10
-12533.31582637169
20
19400
10
-12463.31582637169
20
19400
10
-12463.31582637169
20
17093.673970837688
0
LWPOLYLINE
5
E21E
330
E1C9
100
AcDbEntity
100
AcDbPolyline
8
MONTAJ_BORULARI
6
ByLayer
62
256
370
-1
90
4
70
1
10
-12128.673970837688
20
17498.315826371687
10
-12128.673970837688
20
19400
10
-12058.673970837688
20
19400
10
-12058.673970837688
20
17498.315826371687
0
CIRCLE
5
E220
330
E1C9
100
AcDbEntity
100
AcDbCircle
8
MONTAJ_BORULARI
10
-12295.99489860469
20
19560
30
0
40
140
0
CIRCLE
5
E258
330
E1C9
100
AcDbEntity
100
AcDbCircle
8
MONTAJ_BORULARI
10
-6000
20
16586.4
30
0
40
38.1
0
LWPOLYLINE
5
E273
330
E1C9
100
AcDbEntity
100
AcDbPolyline
8
MONTAJ_BORULARI
6
ByLayer
62
256
370
-1
90
4
70
1
10
7761.9
20
16100
10
7761.9
20
17900
10
7838.099999999999
20
17900
10
7838.099999999999
20
16100
0
LINE
5
E274
330
E1C9
100
AcDbEntity
100
AcDbLine
8
MONTAJ_BORULARI
10
7800
20
16000
30
0
11
7800
21
18000
31
0
0
LWPOLYLINE
5
E291
330
E1C9
100
AcDbEntity
100
AcDbPolyline
8
MONTAJ_BORULARI
6
ByLayer
62
256
370
-1
90
4
70
1
10
9161.9
20
16100
10
9161.9
20
17900
10
9238.1
20
17900
10
9238.1
20
16100
0
LINE
5
E292
330
E1C9
100
AcDbEntity
100
AcDbLine
8
MONTAJ_BORULARI
10
9200
20
16000
30
0
11
9200
21
18000
31
0
0
LINE
5
E2D3
330
E1C9
100
AcDbEntity
100
AcDbLine
8
MONTAJ_BORULARI
10
17837.90865305952
20
17876.016913542484
30
0
11
16623.983086457516
21
16662.09134694048
31
0
0
LINE
5
E2D4
330
E1C9
100
AcDbEntity
100
AcDbLine
8
MONTAJ_BORULARI
10
17784.027116333105
20
17929.898450268898
30
0
11
16570.101549731102
21
16715.972883666895
31
0
0
LINE
5
E2D5
330
E1C9
100
AcDbEntity
100
AcDbLine
8
MONTAJ_BORULARI
10
17810.967884696314
20
17902.95768190569
30
0
11
16597.04231809431
21
16689.032115303686
31
0
0
LWPOLYLINE
5
E2E2
330
E1C9
100
AcDbEntity
100
AcDbPolyline
8
MONTAJ_BORULARI
6
ByLayer
62
256
370
-1
90
4
70
1
10
16966.684173628313
20
17093.673970837688
10
16966.684173628313
20
19400
10
17036.684173628313
20
19400
10
17036.684173628313
20
17093.673970837688
0
LWPOLYLINE
5
E2E3
330
E1C9
100
AcDbEntity
100
AcDbPolyline
8
MONTAJ_BORULARI
6
ByLayer
62
256
370
-1
90
4
70
1
10
17371.326029162312
20
17498.315826371687
10
17371.326029162312
20
19400
10
17441.326029162312
20
19400
10
17441.326029162312
20
17498.315826371687
0
CIRCLE
5
E2E5
330
E1C9
100
AcDbEntity
100
AcDbCircle
8
MONTAJ_BORULARI
10
17204.005101395313
20
19560
30
0
40
140
0
LWPOLYLINE
5
E316
330
E1C9
100
AcDbEntity
100
AcDbPolyline
8
MONTAJ_BORULARI
6
ByLayer
62
256
370
-1
90
4
70
1
10
-8338.1
20
7600
10
-8338.1
20
9400
10
-8261.9
20
9400
10
-8261.9
20
7600
0
LINE
5
E317
330
E1C9
100
AcDbEntity
100
AcDbLine
8
MONTAJ_BORULARI
10
-8300
20
7500
30
0
11
-8300
21
9500
31
0
0
LWPOLYLINE
5
E334
330
E1C9
100
AcDbEntity
100
AcDbPolyline
8
MONTAJ_BORULARI
6
ByLayer
62
256
370
-1
90
4
70
1
10
-7038.1
20
7600
10
-7038.1
20
9400
10
-6961.900000000001
20
9400
10
-6961.900000000001
20
7600
0
LINE
5
E335
330
E1C9
100
AcDbEntity
100
AcDbLine
8
MONTAJ_BORULARI
10
-7000
20
7500
30
0
11
-7000
21
9500
31
0
0
LWPOLYLINE
5
E352
330
E1C9
100
AcDbEntity
100
AcDbPolyline
8
MONTAJ_BORULARI
6
ByLayer
62
256
370
-1
90
4
70
1
10
-5738.1
20
7600
10
-5738.1
20
9400
10
-5661.900000000001
20
9400
10
-5661.900000000001
20
7600
0
LINE
5
E353
330
E1C9
100
AcDbEntity
100
AcDbLine
8
MONTAJ_BORULARI
10
-5700
20
7500
30
0
11
-5700
21
9500
31
0
0
CIRCLE
5
E38F
330
E1C9
100
AcDbEntity
100
AcDbCircle
8
MONTAJ_BORULARI
10
2792.9524429455973
20
8400.493078246842
30
0
40
38.1
0
CIRCLE
5
E3B1
330
E1C9
100
AcDbEntity
100
AcDbCircle
8
MONTAJ_BORULARI
10
4000
20
8086.4
30
0
40
38.1
0
CIRCLE
5
E3D3
330
E1C9
100
AcDbEntity
100
AcDbCircle
8
MONTAJ_BORULARI
10
5207.047557054402
20
8400.493078246842
30
0
40
38.1
0
LINE
5
E3FC
330
E1C9
100
AcDbEntity
100
AcDbLine
8
MONTAJ_BORULARI
10
-13662.09134694048
20
876.0169135424841
30
0
11
-14876.016913542484
21
-337.9086530595215
31
0
0
LINE
5
E3FD
330
E1C9
100
AcDbEntity
100
AcDbLine
8
MONTAJ_BORULARI
10
-13715.972883666895
20
929.8984502688991
30
0
11
-14929.898450268898
21
-284.02711633310656
31
0
0
LINE
5
E3FE
330
E1C9
100
AcDbEntity
100
AcDbLine
8
MONTAJ_BORULARI
10
-13689.032115303686
20
902.9576819056915
30
0
11
-14902.957681905693
21
-310.967884696314
31
0
0
LWPOLYLINE
5
E40B
330
E1C9
100
AcDbEntity
100
AcDbPolyline
8
MONTAJ_BORULARI
6
ByLayer
62
256
370
-1
90
4
70
1
10
-14533.31582637169
20
93.67397083768788
10
-14533.31582637169
20
2400
10
-14463.31582637169
20
2400
10
-14463.31582637169
20
93.67397083768788
0
LWPOLYLINE
5
E40C
330
E1C9
100
AcDbEntity
100
AcDbPolyline
8
MONTAJ_BORULARI
6
ByLayer
62
256
370
-1
90
4
70
1
10
-14128.673970837688
20
498.3158263716897
10
-14128.673970837688
20
2400
10
-14058.673970837688
20
2400
10
-14058.673970837688
20
498.3158263716897
0
CIRCLE
5
E40E
330
E1C9
100
AcDbEntity
100
AcDbCircle
8
MONTAJ_BORULARI
10
-14295.99489860469
20
2560
30
0
40
140
0
LINE
5
E44B
330
E1C9
100
AcDbEntity
100
AcDbLine
8
MONTAJ_BORULARI
10
-3662.0913469404786
20
876.0169135424841
30
0
11
-4876.016913542484
21
-337.9086530595215
31
0
0
LINE
5
E44C
330
E1C9
100
AcDbEntity
100
AcDbLine
8
MONTAJ_BORULARI
10
-3715.9728836668937
20
929.8984502688991
30
0
11
-4929.898450268899
21
-284.02711633310656
31
0
0
LINE
5
E44D
330
E1C9
100
AcDbEntity
100
AcDbLine
8
MONTAJ_BORULARI
10
-3689.0321153036866
20
902.9576819056915
30
0
11
-4902.957681905692
21
-310.967884696314
31
0
0
LWPOLYLINE
5
E45A
330
E1C9
100
AcDbEntity
100
AcDbPolyline
8
MONTAJ_BORULARI
6
ByLayer
62
256
370
-1
90
4
70
1
10
-4533.3158263716905
20
93.67397083768788
10
-4533.3158263716905
20
2400
10
-4463.3158263716905
20
2400
10
-4463.3158263716905
20
93.67397083768788
0
LWPOLYLINE
5
E45B
330
E1C9
100
AcDbEntity
100
AcDbPolyline
8
MONTAJ_BORULARI
6
ByLayer
62
256
370
-1
90
4
70
1
10
-4128.673970837688
20
498.3158263716897
10
-4128.673970837688
20
2400
10
-4058.673970837688
20
2400
10
-4058.673970837688
20
498.3158263716897
0
CIRCLE
5
E45D
330
E1C9
100
AcDbEntity
100
AcDbCircle
8
MONTAJ_BORULARI
10
-4648.3158263716905
20
3150
30
0
40
750
0
LWPOLYLINE
5
E45F
330
E1C9
100
AcDbEntity
100
AcDbPolyline
8
MONTAJ_BORULARI
6
ByLayer
62
256
370
-1
90
4
70
1
10
-4555.3158263716905
20
13.673970837687875
10
-4555.3158263716905
20
2400
10
-4441.3158263716905
20
2400
10
-4441.3158263716905
20
13.673970837687875
0
LINE
5
E49A
330
E1C9
100
AcDbEntity
100
AcDbLine
8
MONTAJ_BORULARI
10
6337.908653059521
20
876.0169135424841
30
0
11
5123.983086457516
21
-337.9086530595215
31
0
0
LINE
5
E49B
330
E1C9
100
AcDbEntity
100
AcDbLine
8
MONTAJ_BORULARI
10
6284.027116333106
20
929.8984502688991
30
0
11
5070.101549731101
21
-284.02711633310656
31
0
0
LINE
5
E49C
330
E1C9
100
AcDbEntity
100
AcDbLine
8
MONTAJ_BORULARI
10
6310.967884696313
20
902.9576819056915
30
0
11
5097.042318094308
21
-310.967884696314
31
0
0
LWPOLYLINE
5
E4A9
330
E1C9
100
AcDbEntity
100
AcDbPolyline
8
MONTAJ_BORULARI
6
ByLayer
62
256
370
-1
90
4
70
1
10
5466.6841736283095
20
93.67397083768788
10
5466.6841736283095
20
2400
10
5536.6841736283095
20
2400
10
5536.6841736283095
20
93.67397083768788
0
LWPOLYLINE
5
E4AA
330
E1C9
100
AcDbEntity
100
AcDbPolyline
8
MONTAJ_BORULARI
6
ByLayer
62
256
370
-1
90
4
70
1
10
5871.326029162312
20
498.3158263716897
10
5871.326029162312
20
2400
10
5941.326029162312
20
2400
10
5941.326029162312
20
498.3158263716897
0
CIRCLE
5
E4B3
330
E1C9
100
AcDbEntity
100
AcDbCircle
8
MONTAJ_BORULARI
10
5121.6841736283095
20
1700
30
0
40
228.5
0
CIRCLE
5
E4B4
330
E1C9
100
AcDbEntity
100
AcDbCircle
8
MONTAJ_BORULARI
10
5121.6841736283095
20
1700
30
0
40
243.5
0
LWPOLYLINE
5
E4B5
330
E1C9
100
AcDbEntity
100
AcDbPolyline
8
MONTAJ_BORULARI
6
ByLayer
62
256
370
-1
90
4
70
1
10
5466.6841736283095
20
93.67397083768788
10
5466.6841736283095
20
2000
10
5536.6841736283095
20
2000
10
5536.6841736283095
20
93.67397083768788
0
LWPOLYLINE
5
E4B6
330
E1C9
100
AcDbEntity
100
AcDbPolyline
8
MONTAJ_BORULARI
6
ByLayer
62
256
370
-1
90
4
70
1
10
5871.326029162312
20
498.3158263716897
10
5871.326029162312
20
2000
10
5941.326029162312
20
2000
10
5941.326029162312
20
498.3158263716897
0
CIRCLE
5
E228
330
E1C9
100
AcDbEntity
100
AcDbCircle
8
KABLO_TAVALARI
10
-12429.567369570828
20
16967.119534674825
30
0
40
10
0
LINE
5
E229
330
E1C9
100
AcDbEntity
100
AcDbLine
8
KABLO_TAVALARI
10
-12429.567369570828
20
16967.119534674825
30
0
11
-12489.567369570828
21
16887.119534674825
31
0
0
LINE
5
E22A
330
E1C9
100
AcDbEntity
100
AcDbLine
8
KABLO_TAVALARI
10
-12489.567369570828
20
16887.119534674825
30
0
11
-12578.31582637169
21
17093.673970837688
31
0
0
CIRCLE
5
E22B
330
E1C9
100
AcDbEntity
100
AcDbCircle
8
KABLO_TAVALARI
10
-12358.856691452173
20
17009.54594154602
30
0
40
10
0
LINE
5
E22C
330
E1C9
100
AcDbEntity
100
AcDbLine
8
KABLO_TAVALARI
10
-12358.856691452173
20
17009.54594154602
30
0
11
-12418.856691452173
21
16929.54594154602
31
0
0
LINE
5
E22D
330
E1C9
100
AcDbEntity
100
AcDbLine
8
KABLO_TAVALARI
10
-12418.856691452173
20
16929.54594154602
30
0
11
-12578.31582637169
21
17143.673970837688
31
0
0
CIRCLE
5
E22E
330
E1C9
100
AcDbEntity
100
AcDbCircle
8
KABLO_TAVALARI
10
-12288.146013333519
20
17051.97234841721
30
0
40
10
0
LINE
5
E22F
330
E1C9
100
AcDbEntity
100
AcDbLine
8
KABLO_TAVALARI
10
-12288.146013333519
20
17051.97234841721
30
0
11
-12348.146013333519
21
16971.97234841721
31
0
0
LINE
5
E230
330
E1C9
100
AcDbEntity
100
AcDbLine
8
KABLO_TAVALARI
10
-12348.146013333519
20
16971.97234841721
30
0
11
-12578.31582637169
21
17193.673970837688
31
0
0
CIRCLE
5
E231
330
E1C9
100
AcDbEntity
100
AcDbCircle
8
KABLO_TAVALARI
10
-12217.435335214863
20
17094.398755288403
30
0
40
10
0
LINE
5
E232
330
E1C9
100
AcDbEntity
100
AcDbLine
8
KABLO_TAVALARI
10
-12217.435335214863
20
17094.398755288403
30
0
11
-12277.435335214863
21
17014.398755288403
31
0
0
LINE
5
E233
330
E1C9
100
AcDbEntity
100
AcDbLine
8
KABLO_TAVALARI
10
-12277.435335214863
20
17014.398755288403
30
0
11
-12578.31582637169
21
17243.673970837688
31
0
0
CIRCLE
5
E234
330
E1C9
100
AcDbEntity
100
AcDbCircle
8
KABLO_TAVALARI
10
-12146.724657096209
20
17136.8251621596
30
0
40
10
0
LINE
5
E235
330
E1C9
100
AcDbEntity
100
AcDbLine
8
KABLO_TAVALARI
10
-12146.724657096209
20
17136.8251621596
30
0
11
-12206.724657096209
21
17056.8251621596
31
0
0
LINE
5
E236
330
E1C9
100
AcDbEntity
100
AcDbLine
8
KABLO_TAVALARI
10
-12206.724657096209
20
17056.8251621596
30
0
11
-12578.31582637169
21
17293.673970837688
31
0
0
CIRCLE
5
E237
330
E1C9
100
AcDbEntity
100
AcDbCircle
8
KABLO_TAVALARI
10
-12076.013978977555
20
17179.25156903079
30
0
40
10
0
LINE
5
E238
330
E1C9
100
AcDbEntity
100
AcDbLine
8
KABLO_TAVALARI
10
-12076.013978977555
20
17179.25156903079
30
0
11
-12136.013978977555
21
17099.25156903079
31
0
0
LINE
5
E239
330
E1C9
100
AcDbEntity
100
AcDbLine
8
KABLO_TAVALARI
10
-12136.013978977555
20
17099.25156903079
30
0
11
-12578.31582637169
21
17343.673970837688
31
0
0
CIRCLE
5
E23A
330
E1C9
100
AcDbEntity
100
AcDbCircle
8
KABLO_TAVALARI
10
-12005.3033008589
20
17221.67797590198
30
0
40
10
0
LINE
5
E23B
330
E1C9
100
AcDbEntity
100
AcDbLine
8
KABLO_TAVALARI
10
-12005.3033008589
20
17221.67797590198
30
0
11
-12065.3033008589
21
17141.67797590198
31
0
0
LINE
5
E23C
330
E1C9
100
AcDbEntity
100
AcDbLine
8
KABLO_TAVALARI
10
-12065.3033008589
20
17141.67797590198
30
0
11
-12578.31582637169
21
17393.673970837688
31
0
0
LINE
5
E23D
330
E1C9
100
AcDbEntity
100
AcDbLine
8
KABLO_TAVALARI
10
-12578.31582637169
20
17093.673970837688
30
0
11
-12578.31582637169
21
19200
31
0
0
LINE
5
E23E
330
E1C9
100
AcDbEntity
100
AcDbLine
8
KABLO_TAVALARI
10
-12548.31582637169
20
17093.673970837688
30
0
11
-12548.31582637169
21
19200
31
0
0
TEXT
5
E23F
330
E1C9
100
AcDbEntity
100
AcDbText
8
KABLO_TAVALARI
10
-12598.31582637169
20
17213.673970837688
30
0
40
35
1
28x 1/2" FEEDER KABLO DEMETI (4.3-10 DIN)
50
0
7
STANDARD
72
2
11
-12598.31582637169
21
17213.673970837688
31
0
100
AcDbText
73
2
0
LWPOLYLINE
5
E2B1
330
E1C9
100
AcDbEntity
100
AcDbPolyline
8
KABLO_TAVALARI
6
ByLayer
62
256
370
-1
90
4
70
1
10
7250
20
17970
10
7250
20
18030
10
9750
20
18030
10
9750
20
17970
0
TEXT
5
E2B2
330
E1C9
100
AcDbEntity
100
AcDbText
8
KABLO_TAVALARI
10
8500
20
18000
30
0
40
35
1
2x 28 = 56 ADET FEEDER KABLO TAVASI (500x100mm)
50
0
7
STANDARD
72
1
11
8500
21
18000
31
0
100
AcDbText
73
2
0
CIRCLE
5
E2ED
330
E1C9
100
AcDbEntity
100
AcDbCircle
8
KABLO_TAVALARI
10
17070.43263042917
20
16967.119534674825
30
0
40
10
0
LINE
5
E2EE
330
E1C9
100
AcDbEntity
100
AcDbLine
8
KABLO_TAVALARI
10
17070.43263042917
20
16967.119534674825
30
0
11
17010.43263042917
21
16887.119534674825
31
0
0
LINE
5
E2EF
330
E1C9
100
AcDbEntity
100
AcDbLine
8
KABLO_TAVALARI
10
17010.43263042917
20
16887.119534674825
30
0
11
16921.684173628313
21
17093.673970837688
31
0
0
CIRCLE
5
E2F0
330
E1C9
100
AcDbEntity
100
AcDbCircle
8
KABLO_TAVALARI
10
17141.143308547827
20
17009.54594154602
30
0
40
10
0
LINE
5
E2F1
330
E1C9
100
AcDbEntity
100
AcDbLine
8
KABLO_TAVALARI
10
17141.143308547827
20
17009.54594154602
30
0
11
17081.143308547827
21
16929.54594154602
31
0
0
LINE
5
E2F2
330
E1C9
100
AcDbEntity
100
AcDbLine
8
KABLO_TAVALARI
10
17081.143308547827
20
16929.54594154602
30
0
11
16921.684173628313
21
17143.673970837688
31
0
0
CIRCLE
5
E2F3
330
E1C9
100
AcDbEntity
100
AcDbCircle
8
KABLO_TAVALARI
10
17211.853986666483
20
17051.97234841721
30
0
40
10
0
LINE
5
E2F4
330
E1C9
100
AcDbEntity
100
AcDbLine
8
KABLO_TAVALARI
10
17211.853986666483
20
17051.97234841721
30
0
11
17151.853986666483
21
16971.97234841721
31
0
0
LINE
5
E2F5
330
E1C9
100
AcDbEntity
100
AcDbLine
8
KABLO_TAVALARI
10
17151.853986666483
20
16971.97234841721
30
0
11
16921.684173628313
21
17193.673970837688
31
0
0
CIRCLE
5
E2F6
330
E1C9
100
AcDbEntity
100
AcDbCircle
8
KABLO_TAVALARI
10
17282.564664785135
20
17094.398755288403
30
0
40
10
0
LINE
5
E2F7
330
E1C9
100
AcDbEntity
100
AcDbLine
8
KABLO_TAVALARI
10
17282.564664785135
20
17094.398755288403
30
0
11
17222.564664785135
21
17014.398755288403
31
0
0
LINE
5
E2F8
330
E1C9
100
AcDbEntity
100
AcDbLine
8
KABLO_TAVALARI
10
17222.564664785135
20
17014.398755288403
30
0
11
16921.684173628313
21
17243.673970837688
31
0
0
CIRCLE
5
E2F9
330
E1C9
100
AcDbEntity
100
AcDbCircle
8
KABLO_TAVALARI
10
17353.27534290379
20
17136.8251621596
30
0
40
10
0
LINE
5
E2FA
330
E1C9
100
AcDbEntity
100
AcDbLine
8
KABLO_TAVALARI
10
17353.27534290379
20
17136.8251621596
30
0
11
17293.27534290379
21
17056.8251621596
31
0
0
LINE
5
E2FB
330
E1C9
100
AcDbEntity
100
AcDbLine
8
KABLO_TAVALARI
10
17293.27534290379
20
17056.8251621596
30
0
11
16921.684173628313
21
17293.673970837688
31
0
0
CIRCLE
5
E2FC
330
E1C9
100
AcDbEntity
100
AcDbCircle
8
KABLO_TAVALARI
10
17423.986021022447
20
17179.25156903079
30
0
40
10
0
LINE
5
E2FD
330
E1C9
100
AcDbEntity
100
AcDbLine
8
KABLO_TAVALARI
10
17423.986021022447
20
17179.25156903079
30
0
11
17363.986021022447
21
17099.25156903079
31
0
0
LINE
5
E2FE
330
E1C9
100
AcDbEntity
100
AcDbLine
8
KABLO_TAVALARI
10
17363.986021022447
20
17099.25156903079
30
0
11
16921.684173628313
21
17343.673970837688
31
0
0
CIRCLE
5
E2FF
330
E1C9
100
AcDbEntity
100
AcDbCircle
8
KABLO_TAVALARI
10
17494.6966991411
20
17221.67797590198
30
0
40
10
0
LINE
5
E300
330
E1C9
100
AcDbEntity
100
AcDbLine
8
KABLO_TAVALARI
10
17494.6966991411
20
17221.67797590198
30
0
11
17434.6966991411
21
17141.67797590198
31
0
0
LINE
5
E301
330
E1C9
100
AcDbEntity
100
AcDbLine
8
KABLO_TAVALARI
10
17434.6966991411
20
17141.67797590198
30
0
11
16921.684173628313
21
17393.673970837688
31
0
0
LINE
5
E302
330
E1C9
100
AcDbEntity
100
AcDbLine
8
KABLO_TAVALARI
10
16921.684173628313
20
17093.673970837688
30
0
11
16921.684173628313
21
19200
31
0
0
LINE
5
E303
330
E1C9
100
AcDbEntity
100
AcDbLine
8
KABLO_TAVALARI
10
16951.684173628313
20
17093.673970837688
30
0
11
16951.684173628313
21
19200
31
0
0
TEXT
5
E304
330
E1C9
100
AcDbEntity
100
AcDbText
8
KABLO_TAVALARI
10
16901.684173628313
20
17213.673970837688
30
0
40
35
1
28x 1/2" FEEDER KABLO DEMETI (4.3-10 DIN)
50
0
7
STANDARD
72
2
11
16901.684173628313
21
17213.673970837688
31
0
100
AcDbText
73
2
0
CIRCLE
5
E416
330
E1C9
100
AcDbEntity
100
AcDbCircle
8
KABLO_TAVALARI
10
-14429.567369570828
20
-32.8804653251745
30
0
40
10
0
LINE
5
E417
330
E1C9
100
AcDbEntity
100
AcDbLine
8
KABLO_TAVALARI
10
-14429.567369570828
20
-32.8804653251745
30
0
11
-14489.567369570828
21
-112.8804653251745
31
0
0
LINE
5
E418
330
E1C9
100
AcDbEntity
100
AcDbLine
8
KABLO_TAVALARI
10
-14489.567369570828
20
-112.8804653251745
30
0
11
-14578.31582637169
21
93.67397083768788
31
0
0
CIRCLE
5
E419
330
E1C9
100
AcDbEntity
100
AcDbCircle
8
KABLO_TAVALARI
10
-14358.856691452173
20
9.545941546018355
30
0
40
10
0
LINE
5
E41A
330
E1C9
100
AcDbEntity
100
AcDbLine
8
KABLO_TAVALARI
10
-14358.856691452173
20
9.545941546018355
30
0
11
-14418.856691452173
21
-70.45405845398165
31
0
0
LINE
5
E41B
330
E1C9
100
AcDbEntity
100
AcDbLine
8
KABLO_TAVALARI
10
-14418.856691452173
20
-70.45405845398165
30
0
11
-14578.31582637169
21
143.67397083768788
31
0
0
CIRCLE
5
E41C
330
E1C9
100
AcDbEntity
100
AcDbCircle
8
KABLO_TAVALARI
10
-14288.146013333519
20
51.97234841721122
30
0
40
10
0
LINE
5
E41D
330
E1C9
100
AcDbEntity
100
AcDbLine
8
KABLO_TAVALARI
10
-14288.146013333519
20
51.97234841721122
30
0
11
-14348.146013333519
21
-28.027651582788778
31
0
0
LINE
5
E41E
330
E1C9
100
AcDbEntity
100
AcDbLine
8
KABLO_TAVALARI
10
-14348.146013333519
20
-28.027651582788778
30
0
11
-14578.31582637169
21
193.67397083768788
31
0
0
CIRCLE
5
E41F
330
E1C9
100
AcDbEntity
100
AcDbCircle
8
KABLO_TAVALARI
10
-14217.435335214863
20
94.39875528840406
30
0
40
10
0
LINE
5
E420
330
E1C9
100
AcDbEntity
100
AcDbLine
8
KABLO_TAVALARI
10
-14217.435335214863
20
94.39875528840406
30
0
11
-14277.435335214863
21
14.398755288404061
31
0
0
LINE
5
E421
330
E1C9
100
AcDbEntity
100
AcDbLine
8
KABLO_TAVALARI
10
-14277.435335214863
20
14.398755288404061
30
0
11
-14578.31582637169
21
243.67397083768788
31
0
0
CIRCLE
5
E422
330
E1C9
100
AcDbEntity
100
AcDbCircle
8
KABLO_TAVALARI
10
-14146.724657096209
20
136.8251621595969
30
0
40
10
0
LINE
5
E423
330
E1C9
100
AcDbEntity
100
AcDbLine
8
KABLO_TAVALARI
10
-14146.724657096209
20
136.8251621595969
30
0
11
-14206.724657096209
21
56.825162159596914
31
0
0
LINE
5
E424
330
E1C9
100
AcDbEntity
100
AcDbLine
8
KABLO_TAVALARI
10
-14206.724657096209
20
56.825162159596914
30
0
11
-14578.31582637169
21
293.6739708376879
31
0
0
CIRCLE
5
E425
330
E1C9
100
AcDbEntity
100
AcDbCircle
8
KABLO_TAVALARI
10
-14076.013978977555
20
179.2515690307898
30
0
40
10
0
LINE
5
E426
330
E1C9
100
AcDbEntity
100
AcDbLine
8
KABLO_TAVALARI
10
-14076.013978977555
20
179.2515690307898
30
0
11
-14136.013978977555
21
99.2515690307898
31
0
0
LINE
5
E427
330
E1C9
100
AcDbEntity
100
AcDbLine
8
KABLO_TAVALARI
10
-14136.013978977555
20
99.2515690307898
30
0
11
-14578.31582637169
21
343.6739708376879
31
0
0
CIRCLE
5
E428
330
E1C9
100
AcDbEntity
100
AcDbCircle
8
KABLO_TAVALARI
10
-14005.3033008589
20
221.67797590198265
30
0
40
10
0
LINE
5
E429
330
E1C9
100
AcDbEntity
100
AcDbLine
8
KABLO_TAVALARI
10
-14005.3033008589
20
221.67797590198265
30
0
11
-14065.3033008589
21
141.67797590198265
31
0
0
LINE
5
E42A
330
E1C9
100
AcDbEntity
100
AcDbLine
8
KABLO_TAVALARI
10
-14065.3033008589
20
141.67797590198265
30
0
11
-14578.31582637169
21
393.6739708376879
31
0
0
LINE
5
E42B
330
E1C9
100
AcDbEntity
100
AcDbLine
8
KABLO_TAVALARI
10
-14578.31582637169
20
93.67397083768788
30
0
11
-14578.31582637169
21
2200
31
0
0
LINE
5
E42C
330
E1C9
100
AcDbEntity
100
AcDbLine
8
KABLO_TAVALARI
10
-14548.31582637169
20
93.67397083768788
30
0
11
-14548.31582637169
21
2200
31
0
0
TEXT
5
E42D
330
E1C9
100
AcDbEntity
100
AcDbText
8
KABLO_TAVALARI
10
-14598.31582637169
20
213.67397083768788
30
0
40
35
1
28x 1/2" FEEDER KABLO DEMETI (4.3-10 DIN)
50
0
7
STANDARD
72
2
11
-14598.31582637169
21
213.67397083768788
31
0
100
AcDbText
73
2
0
CIRCLE
5
E465
330
E1C9
100
AcDbEntity
100
AcDbCircle
8
KABLO_TAVALARI
10
-4429.567369570827
20
-32.8804653251745
30
0
40
10
0
LINE
5
E466
330
E1C9
100
AcDbEntity
100
AcDbLine
8
KABLO_TAVALARI
10
-4429.567369570827
20
-32.8804653251745
30
0
11
-4489.567369570827
21
-112.8804653251745
31
0
0
LINE
5
E467
330
E1C9
100
AcDbEntity
100
AcDbLine
8
KABLO_TAVALARI
10
-4489.567369570827
20
-112.8804653251745
30
0
11
-4578.3158263716905
21
93.67397083768788
31
0
0
CIRCLE
5
E468
330
E1C9
100
AcDbEntity
100
AcDbCircle
8
KABLO_TAVALARI
10
-4358.856691452173
20
9.545941546018355
30
0
40
10
0
LINE
5
E469
330
E1C9
100
AcDbEntity
100
AcDbLine
8
KABLO_TAVALARI
10
-4358.856691452173
20
9.545941546018355
30
0
11
-4418.856691452173
21
-70.45405845398165
31
0
0
LINE
5
E46A
330
E1C9
100
AcDbEntity
100
AcDbLine
8
KABLO_TAVALARI
10
-4418.856691452173
20
-70.45405845398165
30
0
11
-4578.3158263716905
21
143.67397083768788
31
0
0
CIRCLE
5
E46B
330
E1C9
100
AcDbEntity
100
AcDbCircle
8
KABLO_TAVALARI
10
-4288.146013333518
20
51.97234841721122
30
0
40
10
0
LINE
5
E46C
330
E1C9
100
AcDbEntity
100
AcDbLine
8
KABLO_TAVALARI
10
-4288.146013333518
20
51.97234841721122
30
0
11
-4348.146013333518
21
-28.027651582788778
31
0
0
LINE
5
E46D
330
E1C9
100
AcDbEntity
100
AcDbLine
8
KABLO_TAVALARI
10
-4348.146013333518
20
-28.027651582788778
30
0
11
-4578.3158263716905
21
193.67397083768788
31
0
0
CIRCLE
5
E46E
330
E1C9
100
AcDbEntity
100
AcDbCircle
8
KABLO_TAVALARI
10
-4217.435335214864
20
94.39875528840406
30
0
40
10
0
LINE
5
E46F
330
E1C9
100
AcDbEntity
100
AcDbLine
8
KABLO_TAVALARI
10
-4217.435335214864
20
94.39875528840406
30
0
11
-4277.435335214864
21
14.398755288404061
31
0
0
LINE
5
E470
330
E1C9
100
AcDbEntity
100
AcDbLine
8
KABLO_TAVALARI
10
-4277.435335214864
20
14.398755288404061
30
0
11
-4578.3158263716905
21
243.67397083768788
31
0
0
CIRCLE
5
E471
330
E1C9
100
AcDbEntity
100
AcDbCircle
8
KABLO_TAVALARI
10
-4146.724657096209
20
136.8251621595969
30
0
40
10
0
LINE
5
E472
330
E1C9
100
AcDbEntity
100
AcDbLine
8
KABLO_TAVALARI
10
-4146.724657096209
20
136.8251621595969
30
0
11
-4206.724657096209
21
56.825162159596914
31
0
0
LINE
5
E473
330
E1C9
100
AcDbEntity
100
AcDbLine
8
KABLO_TAVALARI
10
-4206.724657096209
20
56.825162159596914
30
0
11
-4578.3158263716905
21
293.6739708376879
31
0
0
CIRCLE
5
E474
330
E1C9
100
AcDbEntity
100
AcDbCircle
8
KABLO_TAVALARI
10
-4076.0139789775535
20
179.2515690307898
30
0
40
10
0
LINE
5
E475
330
E1C9
100
AcDbEntity
100
AcDbLine
8
KABLO_TAVALARI
10
-4076.0139789775535
20
179.2515690307898
30
0
11
-4136.013978977553
21
99.2515690307898
31
0
0
LINE
5
E476
330
E1C9
100
AcDbEntity
100
AcDbLine
8
KABLO_TAVALARI
10
-4136.013978977553
20
99.2515690307898
30
0
11
-4578.3158263716905
21
343.6739708376879
31
0
0
CIRCLE
5
E477
330
E1C9
100
AcDbEntity
100
AcDbCircle
8
KABLO_TAVALARI
10
-4005.303300858899
20
221.67797590198265
30
0
40
10
0
LINE
5
E478
330
E1C9
100
AcDbEntity
100
AcDbLine
8
KABLO_TAVALARI
10
-4005.303300858899
20
221.67797590198265
30
0
11
-4065.303300858899
21
141.67797590198265
31
0
0
LINE
5
E479
330
E1C9
100
AcDbEntity
100
AcDbLine
8
KABLO_TAVALARI
10
-4065.303300858899
20
141.67797590198265
30
0
11
-4578.3158263716905
21
393.6739708376879
31
0
0
LINE
5
E47A
330
E1C9
100
AcDbEntity
100
AcDbLine
8
KABLO_TAVALARI
10
-4578.3158263716905
20
93.67397083768788
30
0
11
-4578.3158263716905
21
2200
31
0
0
LINE
5
E47B
330
E1C9
100
AcDbEntity
100
AcDbLine
8
KABLO_TAVALARI
10
-4548.3158263716905
20
93.67397083768788
30
0
11
-4548.3158263716905
21
2200
31
0
0
TEXT
5
E47C
330
E1C9
100
AcDbEntity
100
AcDbText
8
KABLO_TAVALARI
10
-4598.3158263716905
20
213.67397083768788
30
0
40
35
1
28x 1/2" FEEDER KABLO DEMETI (4.3-10 DIN)
50
0
7
STANDARD
72
2
11
-4598.3158263716905
21
213.67397083768788
31
0
100
AcDbText
73
2
0
CIRCLE
5
E4B9
330
E1C9
100
AcDbEntity
100
AcDbCircle
8
KABLO_TAVALARI
10
5570.432630429173
20
-32.8804653251745
30
0
40
10
0
LINE
5
E4BA
330
E1C9
100
AcDbEntity
100
AcDbLine
8
KABLO_TAVALARI
10
5570.432630429173
20
-32.8804653251745
30
0
11
5510.432630429173
21
-112.8804653251745
31
0
0
LINE
5
E4BB
330
E1C9
100
AcDbEntity
100
AcDbLine
8
KABLO_TAVALARI
10
5510.432630429173
20
-112.8804653251745
30
0
11
5421.6841736283095
21
93.67397083768788
31
0
0
CIRCLE
5
E4BC
330
E1C9
100
AcDbEntity
100
AcDbCircle
8
KABLO_TAVALARI
10
5641.143308547827
20
9.545941546018355
30
0
40
10
0
LINE
5
E4BD
330
E1C9
100
AcDbEntity
100
AcDbLine
8
KABLO_TAVALARI
10
5641.143308547827
20
9.545941546018355
30
0
11
5581.143308547827
21
-70.45405845398165
31
0
0
LINE
5
E4BE
330
E1C9
100
AcDbEntity
100
AcDbLine
8
KABLO_TAVALARI
10
5581.143308547827
20
-70.45405845398165
30
0
11
5421.6841736283095
21
143.67397083768788
31
0
0
CIRCLE
5
E4BF
330
E1C9
100
AcDbEntity
100
AcDbCircle
8
KABLO_TAVALARI
10
5711.853986666482
20
51.97234841721122
30
0
40
10
0
LINE
5
E4C0
330
E1C9
100
AcDbEntity
100
AcDbLine
8
KABLO_TAVALARI
10
5711.853986666482
20
51.97234841721122
30
0
11
5651.853986666482
21
-28.027651582788778
31
0
0
LINE
5
E4C1
330
E1C9
100
AcDbEntity
100
AcDbLine
8
KABLO_TAVALARI
10
5651.853986666482
20
-28.027651582788778
30
0
11
5421.6841736283095
21
193.67397083768788
31
0
0
CIRCLE
5
E4C2
330
E1C9
100
AcDbEntity
100
AcDbCircle
8
KABLO_TAVALARI
10
5782.564664785136
20
94.39875528840406
30
0
40
10
0
LINE
5
E4C3
330
E1C9
100
AcDbEntity
100
AcDbLine
8
KABLO_TAVALARI
10
5782.564664785136
20
94.39875528840406
30
0
11
5722.564664785136
21
14.398755288404061
31
0
0
LINE
5
E4C4
330
E1C9
100
AcDbEntity
100
AcDbLine
8
KABLO_TAVALARI
10
5722.564664785136
20
14.398755288404061
30
0
11
5421.6841736283095
21
243.67397083768788
31
0
0
CIRCLE
5
E4C5
330
E1C9
100
AcDbEntity
100
AcDbCircle
8
KABLO_TAVALARI
10
5853.275342903791
20
136.8251621595969
30
0
40
10
0
LINE
5
E4C6
330
E1C9
100
AcDbEntity
100
AcDbLine
8
KABLO_TAVALARI
10
5853.275342903791
20
136.8251621595969
30
0
11
5793.275342903791
21
56.825162159596914
31
0
0
LINE
5
E4C7
330
E1C9
100
AcDbEntity
100
AcDbLine
8
KABLO_TAVALARI
10
5793.275342903791
20
56.825162159596914
30
0
11
5421.6841736283095
21
293.6739708376879
31
0
0
CIRCLE
5
E4C8
330
E1C9
100
AcDbEntity
100
AcDbCircle
8
KABLO_TAVALARI
10
5923.986021022446
20
179.2515690307898
30
0
40
10
0
LINE
5
E4C9
330
E1C9
100
AcDbEntity
100
AcDbLine
8
KABLO_TAVALARI
10
5923.986021022446
20
179.2515690307898
30
0
11
5863.986021022446
21
99.2515690307898
31
0
0
LINE
5
E4CA
330
E1C9
100
AcDbEntity
100
AcDbLine
8
KABLO_TAVALARI
10
5863.986021022446
20
99.2515690307898
30
0
11
5421.6841736283095
21
343.6739708376879
31
0
0
CIRCLE
5
E4CB
330
E1C9
100
AcDbEntity
100
AcDbCircle
8
KABLO_TAVALARI
10
5994.696699141101
20
221.67797590198265
30
0
40
10
0
LINE
5
E4CC
330
E1C9
100
AcDbEntity
100
AcDbLine
8
KABLO_TAVALARI
10
5994.696699141101
20
221.67797590198265
30
0
11
5934.696699141101
21
141.67797590198265
31
0
0
LINE
5
E4CD
330
E1C9
100
AcDbEntity
100
AcDbLine
8
KABLO_TAVALARI
10
5934.696699141101
20
141.67797590198265
30
0
11
5421.6841736283095
21
393.6739708376879
31
0
0
LINE
5
E4CE
330
E1C9
100
AcDbEntity
100
AcDbLine
8
KABLO_TAVALARI
10
5421.6841736283095
20
93.67397083768788
30
0
11
5421.6841736283095
21
2200
31
0
0
LINE
5
E4CF
330
E1C9
100
AcDbEntity
100
AcDbLine
8
KABLO_TAVALARI
10
5451.6841736283095
20
93.67397083768788
30
0
11
5451.6841736283095
21
2200
31
0
0
TEXT
5
E4D0
330
E1C9
100
AcDbEntity
100
AcDbText
8
KABLO_TAVALARI
10
5401.6841736283095
20
213.67397083768788
30
0
40
35
1
28x 1/2" FEEDER KABLO DEMETI (4.3-10 DIN)
50
0
7
STANDARD
72
2
11
5401.6841736283095
21
213.67397083768788
31
0
100
AcDbText
73
2
0
LINE
5
E240
330
E1C9
100
AcDbEntity
100
AcDbLine
8
OLCULER
10
-12000
20
17000
30
0
11
-11000
21
17000
31
0
0
LINE
5
E241
330
E1C9
100
AcDbEntity
100
AcDbLine
8
OLCULER
10
-12000
20
17000
30
0
11
-11292.893218813453
21
16292.893218813453
31
0
0
LINE
5
E242
330
E1C9
100
AcDbEntity
100
AcDbLine
8
OLCULER
10
-11292.893218813453
20
16292.893218813453
30
0
11
-11352.893218813453
21
16312.893218813453
31
0
0
LINE
5
E243
330
E1C9
100
AcDbEntity
100
AcDbLine
8
OLCULER
10
-11292.893218813453
20
16292.893218813453
30
0
11
-11312.893218813453
21
16352.893218813453
31
0
0
TEXT
5
E244
330
E1C9
100
AcDbEntity
100
AcDbText
8
OLCULER
10
-11520
20
16820
30
0
40
45
1
45° DOWNTILT (YERE VE SAHAYA EGIM)
50
0
7
STANDARD
72
0
11
-11520
21
16820
31
0
100
AcDbText
73
2
0
LINE
5
E245
330
E1C9
100
AcDbEntity
100
AcDbLine
8
OLCULER
10
-12804.68751699029
20
16648.567929750287
30
0
11
-12981.464212286928
21
16825.344625046924
31
0
0
LINE
5
E246
330
E1C9
100
AcDbEntity
100
AcDbLine
8
OLCULER
10
-11648.567929750285
20
17804.687516990292
30
0
11
-11825.344625046922
21
17981.46421228693
31
0
0
LINE
5
E247
330
E1C9
100
AcDbEntity
100
AcDbLine
8
OLCULER
10
-12981.464212286928
20
16825.344625046924
30
0
11
-11825.344625046922
21
17981.46421228693
31
0
0
TEXT
5
E248
330
E1C9
100
AcDbEntity
100
AcDbText
8
OLCULER
10
-12443.404418666925
20
17443.404418666927
30
0
40
45
1
1635 mm (BOY)
50
45
7
STANDARD
72
1
11
-12443.404418666925
21
17443.404418666927
31
0
100
AcDbText
73
2
0
LINE
5
E249
330
E1C9
100
AcDbEntity
100
AcDbLine
8
OLCULER
10
-11705.755190678748
20
17804.068798556753
30
0
11
-11578.47597006517
21
17931.34801917033
31
0
0
LINE
5
E24A
330
E1C9
100
AcDbEntity
100
AcDbLine
8
OLCULER
10
-11253.737180805247
20
17236.438829959254
30
0
11
-11126.457960191668
21
17363.718050572832
31
0
0
LINE
5
E24B
330
E1C9
100
AcDbEntity
100
AcDbLine
8
OLCULER
10
-11578.47597006517
20
17931.34801917033
30
0
11
-11126.457960191668
21
17363.718050572832
31
0
0
TEXT
5
E24C
330
E1C9
100
AcDbEntity
100
AcDbText
8
OLCULER
10
-11332.46696512842
20
17687.53303487158
30
0
40
45
1
721 mm (DERINLIK)
50
-45
7
STANDARD
72
1
11
-11332.46696512842
21
17687.53303487158
31
0
100
AcDbText
73
2
0
LINE
5
E25C
330
E1C9
100
AcDbEntity
100
AcDbLine
8
OLCULER
10
-6000
20
17000
30
0
11
-6450
21
17779.422863405995
31
0
0
TEXT
5
E25D
330
E1C9
100
AcDbEntity
100
AcDbText
8
OLCULER
10
-6450
20
17779.422863405995
30
0
40
30
1
BEAM 1
50
0
7
STANDARD
72
1
11
-6450
21
17779.422863405995
31
0
100
AcDbText
73
2
0
LINE
5
E25E
330
E1C9
100
AcDbEntity
100
AcDbLine
8
OLCULER
10
-6000
20
17000
30
0
11
-6156.283359900237
21
17886.32697771099
31
0
0
TEXT
5
E25F
330
E1C9
100
AcDbEntity
100
AcDbText
8
OLCULER
10
-6156.283359900237
20
17886.32697771099
30
0
40
30
1
BEAM 2
50
0
7
STANDARD
72
1
11
-6156.283359900237
21
17886.32697771099
31
0
100
AcDbText
73
2
0
LINE
5
E260
330
E1C9
100
AcDbEntity
100
AcDbLine
8
OLCULER
10
-6000
20
17000
30
0
11
-5843.716640099763
21
17886.32697771099
31
0
0
TEXT
5
E261
330
E1C9
100
AcDbEntity
100
AcDbText
8
OLCULER
10
-5843.716640099763
20
17886.32697771099
30
0
40
30
1
BEAM 3
50
0
7
STANDARD
72
1
11
-5843.716640099763
21
17886.32697771099
31
0
100
AcDbText
73
2
0
LINE
5
E262
330
E1C9
100
AcDbEntity
100
AcDbLine
8
OLCULER
10
-6000
20
17000
30
0
11
-5550
21
17779.422863405995
31
0
0
TEXT
5
E263
330
E1C9
100
AcDbEntity
100
AcDbText
8
OLCULER
10
-5550
20
17779.422863405995
30
0
40
30
1
BEAM 4
50
0
7
STANDARD
72
1
11
-5550
21
17779.422863405995
31
0
100
AcDbText
73
2
0
LINE
5
E264
330
E1C9
100
AcDbEntity
100
AcDbLine
8
OLCULER
10
-6308.5
20
16739.5
30
0
11
-6308.5
21
16579.5
31
0
0
LINE
5
E265
330
E1C9
100
AcDbEntity
100
AcDbLine
8
OLCULER
10
-5691.5
20
16739.5
30
0
11
-5691.5
21
16579.5
31
0
0
LINE
5
E266
330
E1C9
100
AcDbEntity
100
AcDbLine
8
OLCULER
10
-6308.5
20
16619.5
30
0
11
-5691.5
21
16619.5
31
0
0
LINE
5
E267
330
E1C9
100
AcDbEntity
100
AcDbLine
8
OLCULER
10
-6336.5
20
16591.5
30
0
11
-6280.5
21
16647.5
31
0
0
LINE
5
E268
330
E1C9
100
AcDbEntity
100
AcDbLine
8
OLCULER
10
-5719.5
20
16591.5
30
0
11
-5663.5
21
16647.5
31
0
0
TEXT
5
E269
330
E1C9
100
AcDbEntity
100
AcDbText
8
OLCULER
10
-6000
20
16535.5
30
0
40
60
1
617 mm (GENISLIK)
50
0
7
STANDARD
72
1
11
-6000
21
16535.5
31
0
100
AcDbText
73
2
0
LINE
5
E26A
330
E1C9
100
AcDbEntity
100
AcDbLine
8
OLCULER
10
-6210
20
16639.5
30
0
11
-6370
21
16639.5
31
0
0
LINE
5
E26B
330
E1C9
100
AcDbEntity
100
AcDbLine
8
OLCULER
10
-6080
20
17360.5
30
0
11
-6370
21
17360.5
31
0
0
LINE
5
E26C
330
E1C9
100
AcDbEntity
100
AcDbLine
8
OLCULER
10
-6330
20
16639.5
30
0
11
-6330
21
17360.5
31
0
0
LINE
5
E26D
330
E1C9
100
AcDbEntity
100
AcDbLine
8
OLCULER
10
-6358
20
16611.5
30
0
11
-6302
21
16667.5
31
0
0
LINE
5
E26E
330
E1C9
100
AcDbEntity
100
AcDbLine
8
OLCULER
10
-6358
20
17332.5
30
0
11
-6302
21
17388.5
31
0
0
TEXT
5
E26F
330
E1C9
100
AcDbEntity
100
AcDbText
8
OLCULER
10
-6372
20
17000
30
0
40
60
1
721 mm (DERINLIK)
50
90
7
STANDARD
72
1
11
-6372
21
17000
31
0
100
AcDbText
73
2
0
LINE
5
E2B3
330
E1C9
100
AcDbEntity
100
AcDbLine
8
OLCULER
10
7800
20
16000
30
0
11
7800
21
15660
31
0
0
LINE
5
E2B4
330
E1C9
100
AcDbEntity
100
AcDbLine
8
OLCULER
10
9200
20
16000
30
0
11
9200
21
15660
31
0
0
LINE
5
E2B5
330
E1C9
100
AcDbEntity
100
AcDbLine
8
OLCULER
10
7800
20
15700
30
0
11
9200
21
15700
31
0
0
LINE
5
E2B6
330
E1C9
100
AcDbEntity
100
AcDbLine
8
OLCULER
10
7772
20
15672
30
0
11
7828
21
15728
31
0
0
LINE
5
E2B7
330
E1C9
100
AcDbEntity
100
AcDbLine
8
OLCULER
10
9172
20
15672
30
0
11
9228
21
15728
31
0
0
TEXT
5
E2B8
330
E1C9
100
AcDbEntity
100
AcDbText
8
OLCULER
10
8500
20
15616
30
0
40
60
1
1400 mm (ANTEN AKS ARALIGI)
50
0
7
STANDARD
72
1
11
8500
21
15616
31
0
100
AcDbText
73
2
0
LINE
5
E2B9
330
E1C9
100
AcDbEntity
100
AcDbLine
8
OLCULER
10
8108.5
20
18200
30
0
11
8108.5
21
18490
31
0
0
LINE
5
E2BA
330
E1C9
100
AcDbEntity
100
AcDbLine
8
OLCULER
10
8891.5
20
18200
30
0
11
8891.5
21
18490
31
0
0
LINE
5
E2BB
330
E1C9
100
AcDbEntity
100
AcDbLine
8
OLCULER
10
8108.5
20
18450
30
0
11
8891.5
21
18450
31
0
0
LINE
5
E2BC
330
E1C9
100
AcDbEntity
100
AcDbLine
8
OLCULER
10
8080.5
20
18422
30
0
11
8136.5
21
18478
31
0
0
LINE
5
E2BD
330
E1C9
100
AcDbEntity
100
AcDbLine
8
OLCULER
10
8863.5
20
18422
30
0
11
8919.5
21
18478
31
0
0
TEXT
5
E2BE
330
E1C9
100
AcDbEntity
100
AcDbText
8
OLCULER
10
8500
20
18474
30
0
40
60
1
783 mm (NET RF ACIKLIGI)
50
0
7
STANDARD
72
1
11
8500
21
18474
31
0
100
AcDbText
73
2
0
LINE
5
E2BF
330
E1C9
100
AcDbEntity
100
AcDbLine
8
OLCULER
10
7250
20
18250
30
0
11
7250
21
18590
31
0
0
LINE
5
E2C0
330
E1C9
100
AcDbEntity
100
AcDbLine
8
OLCULER
10
9750
20
18250
30
0
11
9750
21
18590
31
0
0
LINE
5
E2C1
330
E1C9
100
AcDbEntity
100
AcDbLine
8
OLCULER
10
7250
20
18550
30
0
11
9750
21
18550
31
0
0
LINE
5
E2C2
330
E1C9
100
AcDbEntity
100
AcDbLine
8
OLCULER
10
7222
20
18522
30
0
11
7278
21
18578
31
0
0
LINE
5
E2C3
330
E1C9
100
AcDbEntity
100
AcDbLine
8
OLCULER
10
9722
20
18522
30
0
11
9778
21
18578
31
0
0
TEXT
5
E2C4
330
E1C9
100
AcDbEntity
100
AcDbText
8
OLCULER
10
8500
20
18574
30
0
40
60
1
2500 mm (TRAVERS TOPLAM BOYU)
50
0
7
STANDARD
72
1
11
8500
21
18574
31
0
100
AcDbText
73
2
0
LINE
5
E305
330
E1C9
100
AcDbEntity
100
AcDbLine
8
OLCULER
10
17500
20
17000
30
0
11
18500
21
17000
31
0
0
LINE
5
E306
330
E1C9
100
AcDbEntity
100
AcDbLine
8
OLCULER
10
17500
20
17000
30
0
11
18207.106781186547
21
16292.893218813453
31
0
0
LINE
5
E307
330
E1C9
100
AcDbEntity
100
AcDbLine
8
OLCULER
10
18207.106781186547
20
16292.893218813453
30
0
11
18147.106781186547
21
16312.893218813453
31
0
0
LINE
5
E308
330
E1C9
100
AcDbEntity
100
AcDbLine
8
OLCULER
10
18207.106781186547
20
16292.893218813453
30
0
11
18187.106781186547
21
16352.893218813453
31
0
0
TEXT
5
E309
330
E1C9
100
AcDbEntity
100
AcDbText
8
OLCULER
10
17980
20
16820
30
0
40
45
1
45° DOWNTILT (YERE VE SAHAYA EGIM)
50
0
7
STANDARD
72
0
11
17980
21
16820
31
0
100
AcDbText
73
2
0
LINE
5
E30A
330
E1C9
100
AcDbEntity
100
AcDbLine
8
OLCULER
10
16695.312483009708
20
16648.567929750287
30
0
11
16518.53578771307
21
16825.344625046924
31
0
0
LINE
5
E30B
330
E1C9
100
AcDbEntity
100
AcDbLine
8
OLCULER
10
17851.432070249713
20
17804.687516990292
30
0
11
17674.655374953076
21
17981.46421228693
31
0
0
LINE
5
E30C
330
E1C9
100
AcDbEntity
100
AcDbLine
8
OLCULER
10
16518.53578771307
20
16825.344625046924
30
0
11
17674.655374953076
21
17981.46421228693
31
0
0
TEXT
5
E30D
330
E1C9
100
AcDbEntity
100
AcDbText
8
OLCULER
10
17056.595581333073
20
17443.404418666927
30
0
40
45
1
1635 mm (BOY)
50
45
7
STANDARD
72
1
11
17056.595581333073
21
17443.404418666927
31
0
100
AcDbText
73
2
0
LINE
5
E30E
330
E1C9
100
AcDbEntity
100
AcDbLine
8
OLCULER
10
17794.244809321255
20
17804.068798556753
30
0
11
17921.524029934833
21
17931.34801917033
31
0
0
LINE
5
E30F
330
E1C9
100
AcDbEntity
100
AcDbLine
8
OLCULER
10
18246.26281919475
20
17236.438829959254
30
0
11
18373.54203980833
21
17363.718050572832
31
0
0
LINE
5
E310
330
E1C9
100
AcDbEntity
100
AcDbLine
8
OLCULER
10
17921.524029934833
20
17931.34801917033
30
0
11
18373.54203980833
21
17363.718050572832
31
0
0
TEXT
5
E311
330
E1C9
100
AcDbEntity
100
AcDbText
8
OLCULER
10
18167.53303487158
20
17687.53303487158
30
0
40
45
1
721 mm (DERINLIK)
50
-45
7
STANDARD
72
1
11
18167.53303487158
21
17687.53303487158
31
0
100
AcDbText
73
2
0
LINE
5
E374
330
E1C9
100
AcDbEntity
100
AcDbLine
8
OLCULER
10
-8300
20
7500
30
0
11
-8300
21
7160
31
0
0
LINE
5
E375
330
E1C9
100
AcDbEntity
100
AcDbLine
8
OLCULER
10
-7000
20
7500
30
0
11
-7000
21
7160
31
0
0
LINE
5
E376
330
E1C9
100
AcDbEntity
100
AcDbLine
8
OLCULER
10
-8300
20
7200
30
0
11
-7000
21
7200
31
0
0
LINE
5
E377
330
E1C9
100
AcDbEntity
100
AcDbLine
8
OLCULER
10
-8328
20
7172
30
0
11
-8272
21
7228
31
0
0
LINE
5
E378
330
E1C9
100
AcDbEntity
100
AcDbLine
8
OLCULER
10
-7028
20
7172
30
0
11
-6972
21
7228
31
0
0
TEXT
5
E379
330
E1C9
100
AcDbEntity
100
AcDbText
8
OLCULER
10
-7650
20
7116
30
0
40
60
1
1300 mm
50
0
7
STANDARD
72
1
11
-7650
21
7116
31
0
100
AcDbText
73
2
0
LINE
5
E37A
330
E1C9
100
AcDbEntity
100
AcDbLine
8
OLCULER
10
-7000
20
7500
30
0
11
-7000
21
7160
31
0
0
LINE
5
E37B
330
E1C9
100
AcDbEntity
100
AcDbLine
8
OLCULER
10
-5700
20
7500
30
0
11
-5700
21
7160
31
0
0
LINE
5
E37C
330
E1C9
100
AcDbEntity
100
AcDbLine
8
OLCULER
10
-7000
20
7200
30
0
11
-5700
21
7200
31
0
0
LINE
5
E37D
330
E1C9
100
AcDbEntity
100
AcDbLine
8
OLCULER
10
-7028
20
7172
30
0
11
-6972
21
7228
31
0
0
LINE
5
E37E
330
E1C9
100
AcDbEntity
100
AcDbLine
8
OLCULER
10
-5728
20
7172
30
0
11
-5672
21
7228
31
0
0
TEXT
5
E37F
330
E1C9
100
AcDbEntity
100
AcDbText
8
OLCULER
10
-6350
20
7116
30
0
40
60
1
1300 mm
50
0
7
STANDARD
72
1
11
-6350
21
7116
31
0
100
AcDbText
73
2
0
LINE
5
E380
330
E1C9
100
AcDbEntity
100
AcDbLine
8
OLCULER
10
-8300
20
7500
30
0
11
-8300
21
6760
31
0
0
LINE
5
E381
330
E1C9
100
AcDbEntity
100
AcDbLine
8
OLCULER
10
-5700
20
7500
30
0
11
-5700
21
6760
31
0
0
LINE
5
E382
330
E1C9
100
AcDbEntity
100
AcDbLine
8
OLCULER
10
-8300
20
6800
30
0
11
-5700
21
6800
31
0
0
LINE
5
E383
330
E1C9
100
AcDbEntity
100
AcDbLine
8
OLCULER
10
-8328
20
6772
30
0
11
-8272
21
6828
31
0
0
LINE
5
E384
330
E1C9
100
AcDbEntity
100
AcDbLine
8
OLCULER
10
-5728
20
6772
30
0
11
-5672
21
6828
31
0
0
TEXT
5
E385
330
E1C9
100
AcDbEntity
100
AcDbText
8
OLCULER
10
-7000
20
6716
30
0
40
60
1
2600 mm (TOPLAM AKS ACIKLIGI)
50
0
7
STANDARD
72
1
11
-7000
21
6716
31
0
100
AcDbText
73
2
0
LINE
5
E393
330
E1C9
100
AcDbEntity
100
AcDbLine
8
OLCULER
10
2900
20
8800
30
0
11
2263.603896932107
21
9436.396103067893
31
0
0
TEXT
5
E394
330
E1C9
100
AcDbEntity
100
AcDbText
8
OLCULER
10
2263.603896932107
20
9436.396103067893
30
0
40
30
1
BEAM 1
50
0
7
STANDARD
72
1
11
2263.603896932107
21
9436.396103067893
31
0
100
AcDbText
73
2
0
LINE
5
E395
330
E1C9
100
AcDbEntity
100
AcDbLine
8
OLCULER
10
2900
20
8800
30
0
11
2519.6435644333706
21
9615.677008332985
31
0
0
TEXT
5
E396
330
E1C9
100
AcDbEntity
100
AcDbText
8
OLCULER
10
2519.6435644333706
20
9615.677008332985
30
0
40
30
1
BEAM 2
50
0
7
STANDARD
72
1
11
2519.6435644333706
21
9615.677008332985
31
0
100
AcDbText
73
2
0
LINE
5
E397
330
E1C9
100
AcDbEntity
100
AcDbLine
8
OLCULER
10
2900
20
8800
30
0
11
2821.5598315271077
21
9696.57522828257
31
0
0
TEXT
5
E398
330
E1C9
100
AcDbEntity
100
AcDbText
8
OLCULER
10
2821.5598315271077
20
9696.57522828257
30
0
40
30
1
BEAM 3
50
0
7
STANDARD
72
1
11
2821.5598315271077
21
9696.57522828257
31
0
100
AcDbText
73
2
0
LINE
5
E399
330
E1C9
100
AcDbEntity
100
AcDbLine
8
OLCULER
10
2900
20
8800
30
0
11
3132.937140592269
21
9669.333243660161
31
0
0
TEXT
5
E39A
330
E1C9
100
AcDbEntity
100
AcDbText
8
OLCULER
10
3132.937140592269
20
9669.333243660161
30
0
40
30
1
BEAM 4
50
0
7
STANDARD
72
1
11
3132.937140592269
21
9669.333243660161
31
0
100
AcDbText
73
2
0
LINE
5
E39B
330
E1C9
100
AcDbEntity
100
AcDbLine
8
OLCULER
10
2555.2950449488176
20
8625.496063768951
30
0
11
2555.2950449488176
21
8465.496063768951
31
0
0
LINE
5
E39C
330
E1C9
100
AcDbEntity
100
AcDbLine
8
OLCULER
10
3151.2712797691725
20
8465.804712940695
30
0
11
3151.2712797691725
21
8465.496063768951
31
0
0
LINE
5
E39D
330
E1C9
100
AcDbEntity
100
AcDbLine
8
OLCULER
10
2555.2950449488176
20
8505.496063768951
30
0
11
3151.2712797691725
21
8505.496063768951
31
0
0
LINE
5
E39E
330
E1C9
100
AcDbEntity
100
AcDbLine
8
OLCULER
10
2527.2950449488176
20
8477.496063768951
30
0
11
2583.2950449488176
21
8533.496063768951
31
0
0
LINE
5
E39F
330
E1C9
100
AcDbEntity
100
AcDbLine
8
OLCULER
10
3123.2712797691725
20
8477.496063768951
30
0
11
3179.2712797691725
21
8533.496063768951
31
0
0
TEXT
5
E3A0
330
E1C9
100
AcDbEntity
100
AcDbText
8
OLCULER
10
2853.283162358995
20
8421.496063768951
30
0
40
60
1
617 mm (GENISLIK)
50
0
7
STANDARD
72
1
11
2853.283162358995
21
8421.496063768951
31
0
100
AcDbText
73
2
0
LINE
5
E3A1
330
E1C9
100
AcDbEntity
100
AcDbLine
8
OLCULER
10
2601.125376822962
20
8485.43021548612
30
0
11
2441.125376822962
21
8485.43021548612
31
0
0
LINE
5
E3A2
330
E1C9
100
AcDbEntity
100
AcDbLine
8
OLCULER
10
2913.3042657594588
20
9148.216260377209
30
0
11
2441.125376822962
21
9148.216260377209
31
0
0
LINE
5
E3A3
330
E1C9
100
AcDbEntity
100
AcDbLine
8
OLCULER
10
2481.125376822962
20
8485.43021548612
30
0
11
2481.125376822962
21
9148.216260377209
31
0
0
LINE
5
E3A4
330
E1C9
100
AcDbEntity
100
AcDbLine
8
OLCULER
10
2453.125376822962
20
8457.43021548612
30
0
11
2509.125376822962
21
8513.43021548612
31
0
0
LINE
5
E3A5
330
E1C9
100
AcDbEntity
100
AcDbLine
8
OLCULER
10
2453.125376822962
20
9120.216260377209
30
0
11
2509.125376822962
21
9176.216260377209
31
0
0
TEXT
5
E3A6
330
E1C9
100
AcDbEntity
100
AcDbText
8
OLCULER
10
2439.125376822962
20
8816.823237931665
30
0
40
60
1
721 mm (DERINLIK)
50
90
7
STANDARD
72
1
11
2439.125376822962
21
8816.823237931665
31
0
100
AcDbText
73
2
0
LINE
5
E3B5
330
E1C9
100
AcDbEntity
100
AcDbLine
8
OLCULER
10
4000
20
8500
30
0
11
3550
21
9279.422863405995
31
0
0
TEXT
5
E3B6
330
E1C9
100
AcDbEntity
100
AcDbText
8
OLCULER
10
3550
20
9279.422863405995
30
0
40
30
1
BEAM 1
50
0
7
STANDARD
72
1
11
3550
21
9279.422863405995
31
0
100
AcDbText
73
2
0
LINE
5
E3B7
330
E1C9
100
AcDbEntity
100
AcDbLine
8
OLCULER
10
4000
20
8500
30
0
11
3843.7166400997626
21
9386.326977710987
31
0
0
TEXT
5
E3B8
330
E1C9
100
AcDbEntity
100
AcDbText
8
OLCULER
10
3843.7166400997626
20
9386.326977710987
30
0
40
30
1
BEAM 2
50
0
7
STANDARD
72
1
11
3843.7166400997626
21
9386.326977710987
31
0
100
AcDbText
73
2
0
LINE
5
E3B9
330
E1C9
100
AcDbEntity
100
AcDbLine
8
OLCULER
10
4000
20
8500
30
0
11
4156.283359900237
21
9386.326977710987
31
0
0
TEXT
5
E3BA
330
E1C9
100
AcDbEntity
100
AcDbText
8
OLCULER
10
4156.283359900237
20
9386.326977710987
30
0
40
30
1
BEAM 3
50
0
7
STANDARD
72
1
11
4156.283359900237
21
9386.326977710987
31
0
100
AcDbText
73
2
0
LINE
5
E3BB
330
E1C9
100
AcDbEntity
100
AcDbLine
8
OLCULER
10
4000
20
8500
30
0
11
4450
21
9279.422863405995
31
0
0
TEXT
5
E3BC
330
E1C9
100
AcDbEntity
100
AcDbText
8
OLCULER
10
4450
20
9279.422863405995
30
0
40
30
1
BEAM 4
50
0
7
STANDARD
72
1
11
4450
21
9279.422863405995
31
0
100
AcDbText
73
2
0
LINE
5
E3BD
330
E1C9
100
AcDbEntity
100
AcDbLine
8
OLCULER
10
3691.5
20
8239.5
30
0
11
3691.5
21
8079.5
31
0
0
LINE
5
E3BE
330
E1C9
100
AcDbEntity
100
AcDbLine
8
OLCULER
10
4308.5
20
8239.5
30
0
11
4308.5
21
8079.5
31
0
0
LINE
5
E3BF
330
E1C9
100
AcDbEntity
100
AcDbLine
8
OLCULER
10
3691.5
20
8119.5
30
0
11
4308.5
21
8119.5
31
0
0
LINE
5
E3C0
330
E1C9
100
AcDbEntity
100
AcDbLine
8
OLCULER
10
3663.5
20
8091.5
30
0
11
3719.5
21
8147.5
31
0
0
LINE
5
E3C1
330
E1C9
100
AcDbEntity
100
AcDbLine
8
OLCULER
10
4280.5
20
8091.5
30
0
11
4336.5
21
8147.5
31
0
0
TEXT
5
E3C2
330
E1C9
100
AcDbEntity
100
AcDbText
8
OLCULER
10
4000
20
8035.5
30
0
40
60
1
617 mm (GENISLIK)
50
0
7
STANDARD
72
1
11
4000
21
8035.5
31
0
100
AcDbText
73
2
0
LINE
5
E3C3
330
E1C9
100
AcDbEntity
100
AcDbLine
8
OLCULER
10
3790
20
8139.5
30
0
11
3630
21
8139.5
31
0
0
LINE
5
E3C4
330
E1C9
100
AcDbEntity
100
AcDbLine
8
OLCULER
10
3920
20
8860.5
30
0
11
3630
21
8860.5
31
0
0
LINE
5
E3C5
330
E1C9
100
AcDbEntity
100
AcDbLine
8
OLCULER
10
3670
20
8139.5
30
0
11
3670
21
8860.5
31
0
0
LINE
5
E3C6
330
E1C9
100
AcDbEntity
100
AcDbLine
8
OLCULER
10
3642
20
8111.5
30
0
11
3698
21
8167.5
31
0
0
LINE
5
E3C7
330
E1C9
100
AcDbEntity
100
AcDbLine
8
OLCULER
10
3642
20
8832.5
30
0
11
3698
21
8888.5
31
0
0
TEXT
5
E3C8
330
E1C9
100
AcDbEntity
100
AcDbText
8
OLCULER
10
3628
20
8500
30
0
40
60
1
721 mm (DERINLIK)
50
90
7
STANDARD
72
1
11
3628
21
8500
31
0
100
AcDbText
73
2
0
LINE
5
E3D7
330
E1C9
100
AcDbEntity
100
AcDbLine
8
OLCULER
10
5100
20
8800
30
0
11
4867.062859407732
21
9669.333243660161
31
0
0
TEXT
5
E3D8
330
E1C9
100
AcDbEntity
100
AcDbText
8
OLCULER
10
4867.062859407732
20
9669.333243660161
30
0
40
30
1
BEAM 1
50
0
7
STANDARD
72
1
11
4867.062859407732
21
9669.333243660161
31
0
100
AcDbText
73
2
0
LINE
5
E3D9
330
E1C9
100
AcDbEntity
100
AcDbLine
8
OLCULER
10
5100
20
8800
30
0
11
5178.440168472893
21
9696.57522828257
31
0
0
TEXT
5
E3DA
330
E1C9
100
AcDbEntity
100
AcDbText
8
OLCULER
10
5178.440168472893
20
9696.57522828257
30
0
40
30
1
BEAM 2
50
0
7
STANDARD
72
1
11
5178.440168472893
21
9696.57522828257
31
0
100
AcDbText
73
2
0
LINE
5
E3DB
330
E1C9
100
AcDbEntity
100
AcDbLine
8
OLCULER
10
5100
20
8800
30
0
11
5480.356435566629
21
9615.677008332985
31
0
0
TEXT
5
E3DC
330
E1C9
100
AcDbEntity
100
AcDbText
8
OLCULER
10
5480.356435566629
20
9615.677008332985
30
0
40
30
1
BEAM 3
50
0
7
STANDARD
72
1
11
5480.356435566629
21
9615.677008332985
31
0
100
AcDbText
73
2
0
LINE
5
E3DD
330
E1C9
100
AcDbEntity
100
AcDbLine
8
OLCULER
10
5100
20
8800
30
0
11
5736.396103067893
21
9436.396103067893
31
0
0
TEXT
5
E3DE
330
E1C9
100
AcDbEntity
100
AcDbText
8
OLCULER
10
5736.396103067893
20
9436.396103067893
30
0
40
30
1
BEAM 4
50
0
7
STANDARD
72
1
11
5736.396103067893
21
9436.396103067893
31
0
100
AcDbText
73
2
0
LINE
5
E3DF
330
E1C9
100
AcDbEntity
100
AcDbLine
8
OLCULER
10
4848.728720230828
20
8465.804712940695
30
0
11
4848.728720230828
21
8305.804712940695
31
0
0
LINE
5
E3E0
330
E1C9
100
AcDbEntity
100
AcDbLine
8
OLCULER
10
5444.704955051183
20
8625.496063768951
30
0
11
5444.704955051183
21
8305.804712940695
31
0
0
LINE
5
E3E1
330
E1C9
100
AcDbEntity
100
AcDbLine
8
OLCULER
10
4848.728720230828
20
8345.804712940695
30
0
11
5444.704955051183
21
8345.804712940695
31
0
0
LINE
5
E3E2
330
E1C9
100
AcDbEntity
100
AcDbLine
8
OLCULER
10
4820.728720230828
20
8317.804712940695
30
0
11
4876.728720230828
21
8373.804712940695
31
0
0
LINE
5
E3E3
330
E1C9
100
AcDbEntity
100
AcDbLine
8
OLCULER
10
5416.704955051183
20
8317.804712940695
30
0
11
5472.704955051183
21
8373.804712940695
31
0
0
TEXT
5
E3E4
330
E1C9
100
AcDbEntity
100
AcDbText
8
OLCULER
10
5146.716837641005
20
8261.804712940695
30
0
40
60
1
617 mm (GENISLIK)
50
0
7
STANDARD
72
1
11
5146.716837641005
21
8261.804712940695
31
0
100
AcDbText
73
2
0
LINE
5
E3E5
330
E1C9
100
AcDbEntity
100
AcDbLine
8
OLCULER
10
4987.73390834188
20
8418.137263759463
30
0
11
4827.73390834188
21
8418.137263759463
31
0
0
LINE
5
E3E6
330
E1C9
100
AcDbEntity
100
AcDbLine
8
OLCULER
10
4926.695734240541
20
9148.216260377209
30
0
11
4827.73390834188
21
9148.216260377209
31
0
0
LINE
5
E3E7
330
E1C9
100
AcDbEntity
100
AcDbLine
8
OLCULER
10
4867.73390834188
20
8418.137263759463
30
0
11
4867.73390834188
21
9148.216260377209
31
0
0
LINE
5
E3E8
330
E1C9
100
AcDbEntity
100
AcDbLine
8
OLCULER
10
4839.73390834188
20
8390.137263759463
30
0
11
4895.73390834188
21
8446.137263759463
31
0
0
LINE
5
E3E9
330
E1C9
100
AcDbEntity
100
AcDbLine
8
OLCULER
10
4839.73390834188
20
9120.216260377209
30
0
11
4895.73390834188
21
9176.216260377209
31
0
0
TEXT
5
E3EA
330
E1C9
100
AcDbEntity
100
AcDbText
8
OLCULER
10
4825.73390834188
20
8783.176762068335
30
0
40
60
1
721 mm (DERINLIK)
50
90
7
STANDARD
72
1
11
4825.73390834188
21
8783.176762068335
31
0
100
AcDbText
73
2
0
LINE
5
E42E
330
E1C9
100
AcDbEntity
100
AcDbLine
8
OLCULER
10
-14000
20
0
30
0
11
-13000
21
0
31
0
0
LINE
5
E42F
330
E1C9
100
AcDbEntity
100
AcDbLine
8
OLCULER
10
-14000
20
0
30
0
11
-13292.893218813453
21
-707.1067811865474
31
0
0
LINE
5
E430
330
E1C9
100
AcDbEntity
100
AcDbLine
8
OLCULER
10
-13292.893218813453
20
-707.1067811865474
30
0
11
-13352.893218813453
21
-687.1067811865474
31
0
0
LINE
5
E431
330
E1C9
100
AcDbEntity
100
AcDbLine
8
OLCULER
10
-13292.893218813453
20
-707.1067811865474
30
0
11
-13312.893218813453
21
-647.1067811865474
31
0
0
TEXT
5
E432
330
E1C9
100
AcDbEntity
100
AcDbText
8
OLCULER
10
-13520
20
-180
30
0
40
45
1
45° DOWNTILT (YERE VE SAHAYA EGIM)
50
0
7
STANDARD
72
0
11
-13520
21
-180
31
0
100
AcDbText
73
2
0
LINE
5
E433
330
E1C9
100
AcDbEntity
100
AcDbLine
8
OLCULER
10
-14804.68751699029
20
-351.43207024971423
30
0
11
-14981.464212286928
21
-174.65537495307737
31
0
0
LINE
5
E434
330
E1C9
100
AcDbEntity
100
AcDbLine
8
OLCULER
10
-13648.567929750285
20
804.6875169902911
30
0
11
-13825.344625046922
21
981.4642122869279
31
0
0
LINE
5
E435
330
E1C9
100
AcDbEntity
100
AcDbLine
8
OLCULER
10
-14981.464212286928
20
-174.65537495307737
30
0
11
-13825.344625046922
21
981.4642122869279
31
0
0
TEXT
5
E436
330
E1C9
100
AcDbEntity
100
AcDbText
8
OLCULER
10
-14443.404418666925
20
443.40441866692527
30
0
40
45
1
1635 mm (BOY)
50
45
7
STANDARD
72
1
11
-14443.404418666925
21
443.40441866692527
31
0
100
AcDbText
73
2
0
LINE
5
E437
330
E1C9
100
AcDbEntity
100
AcDbLine
8
OLCULER
10
-13705.755190678748
20
804.0687985567529
30
0
11
-13578.47597006517
21
931.3480191703314
31
0
0
LINE
5
E438
330
E1C9
100
AcDbEntity
100
AcDbLine
8
OLCULER
10
-13253.737180805247
20
236.43882995925188
30
0
11
-13126.457960191668
21
363.7180505728304
31
0
0
LINE
5
E439
330
E1C9
100
AcDbEntity
100
AcDbLine
8
OLCULER
10
-13578.47597006517
20
931.3480191703314
30
0
11
-13126.457960191668
21
363.7180505728304
31
0
0
TEXT
5
E43A
330
E1C9
100
AcDbEntity
100
AcDbText
8
OLCULER
10
-13332.46696512842
20
687.533034871581
30
0
40
45
1
721 mm (DERINLIK)
50
-45
7
STANDARD
72
1
11
-13332.46696512842
21
687.533034871581
31
0
100
AcDbText
73
2
0
LINE
5
E47D
330
E1C9
100
AcDbEntity
100
AcDbLine
8
OLCULER
10
-4000
20
0
30
0
11
-3000
21
0
31
0
0
LINE
5
E47E
330
E1C9
100
AcDbEntity
100
AcDbLine
8
OLCULER
10
-4000
20
0
30
0
11
-3292.893218813452
21
-707.1067811865474
31
0
0
LINE
5
E47F
330
E1C9
100
AcDbEntity
100
AcDbLine
8
OLCULER
10
-3292.893218813452
20
-707.1067811865474
30
0
11
-3352.893218813452
21
-687.1067811865474
31
0
0
LINE
5
E480
330
E1C9
100
AcDbEntity
100
AcDbLine
8
OLCULER
10
-3292.893218813452
20
-707.1067811865474
30
0
11
-3312.893218813452
21
-647.1067811865474
31
0
0
TEXT
5
E481
330
E1C9
100
AcDbEntity
100
AcDbText
8
OLCULER
10
-3520
20
-180
30
0
40
45
1
45° DOWNTILT (YERE VE SAHAYA EGIM)
50
0
7
STANDARD
72
0
11
-3520
21
-180
31
0
100
AcDbText
73
2
0
LINE
5
E482
330
E1C9
100
AcDbEntity
100
AcDbLine
8
OLCULER
10
-4804.687516990291
20
-351.43207024971423
30
0
11
-4981.464212286928
21
-174.65537495307737
31
0
0
LINE
5
E483
330
E1C9
100
AcDbEntity
100
AcDbLine
8
OLCULER
10
-3648.567929750286
20
804.6875169902911
30
0
11
-3825.344625046923
21
981.4642122869279
31
0
0
LINE
5
E484
330
E1C9
100
AcDbEntity
100
AcDbLine
8
OLCULER
10
-4981.464212286928
20
-174.65537495307737
30
0
11
-3825.344625046923
21
981.4642122869279
31
0
0
TEXT
5
E485
330
E1C9
100
AcDbEntity
100
AcDbText
8
OLCULER
10
-4443.404418666925
20
443.40441866692527
30
0
40
45
1
1635 mm (BOY)
50
45
7
STANDARD
72
1
11
-4443.404418666925
21
443.40441866692527
31
0
100
AcDbText
73
2
0
LINE
5
E486
330
E1C9
100
AcDbEntity
100
AcDbLine
8
OLCULER
10
-3705.7551906787485
20
804.0687985567529
30
0
11
-3578.47597006517
21
931.3480191703314
31
0
0
LINE
5
E487
330
E1C9
100
AcDbEntity
100
AcDbLine
8
OLCULER
10
-3253.7371808052476
20
236.43882995925188
30
0
11
-3126.457960191669
21
363.7180505728304
31
0
0
LINE
5
E488
330
E1C9
100
AcDbEntity
100
AcDbLine
8
OLCULER
10
-3578.47597006517
20
931.3480191703314
30
0
11
-3126.457960191669
21
363.7180505728304
31
0
0
TEXT
5
E489
330
E1C9
100
AcDbEntity
100
AcDbText
8
OLCULER
10
-3332.4669651284194
20
687.533034871581
30
0
40
45
1
721 mm (DERINLIK)
50
-45
7
STANDARD
72
1
11
-3332.4669651284194
21
687.533034871581
31
0
100
AcDbText
73
2
0
LINE
5
E4D1
330
E1C9
100
AcDbEntity
100
AcDbLine
8
OLCULER
10
6000
20
0
30
0
11
7000
21
0
31
0
0
LINE
5
E4D2
330
E1C9
100
AcDbEntity
100
AcDbLine
8
OLCULER
10
6000
20
0
30
0
11
6707.106781186548
21
-707.1067811865474
31
0
0
LINE
5
E4D3
330
E1C9
100
AcDbEntity
100
AcDbLine
8
OLCULER
10
6707.106781186548
20
-707.1067811865474
30
0
11
6647.106781186548
21
-687.1067811865474
31
0
0
LINE
5
E4D4
330
E1C9
100
AcDbEntity
100
AcDbLine
8
OLCULER
10
6707.106781186548
20
-707.1067811865474
30
0
11
6687.106781186548
21
-647.1067811865474
31
0
0
TEXT
5
E4D5
330
E1C9
100
AcDbEntity
100
AcDbText
8
OLCULER
10
6480
20
-180
30
0
40
45
1
45° DOWNTILT (YERE VE SAHAYA EGIM)
50
0
7
STANDARD
72
0
11
6480
21
-180
31
0
100
AcDbText
73
2
0
LINE
5
E4D6
330
E1C9
100
AcDbEntity
100
AcDbLine
8
OLCULER
10
5195.312483009709
20
-351.43207024971423
30
0
11
5018.535787713072
21
-174.65537495307737
31
0
0
LINE
5
E4D7
330
E1C9
100
AcDbEntity
100
AcDbLine
8
OLCULER
10
6351.432070249714
20
804.6875169902911
30
0
11
6174.655374953078
21
981.4642122869279
31
0
0
LINE
5
E4D8
330
E1C9
100
AcDbEntity
100
AcDbLine
8
OLCULER
10
5018.535787713072
20
-174.65537495307737
30
0
11
6174.655374953078
21
981.4642122869279
31
0
0
TEXT
5
E4D9
330
E1C9
100
AcDbEntity
100
AcDbText
8
OLCULER
10
5556.595581333075
20
443.40441866692527
30
0
40
45
1
1635 mm (BOY)
50
45
7
STANDARD
72
1
11
5556.595581333075
21
443.40441866692527
31
0
100
AcDbText
73
2
0
LINE
5
E4DA
330
E1C9
100
AcDbEntity
100
AcDbLine
8
OLCULER
10
6294.2448093212515
20
804.0687985567529
30
0
11
6421.52402993483
21
931.3480191703314
31
0
0
LINE
5
E4DB
330
E1C9
100
AcDbEntity
100
AcDbLine
8
OLCULER
10
6746.262819194753
20
236.43882995925188
30
0
11
6873.5420398083315
21
363.7180505728304
31
0
0
LINE
5
E4DC
330
E1C9
100
AcDbEntity
100
AcDbLine
8
OLCULER
10
6421.52402993483
20
931.3480191703314
30
0
11
6873.5420398083315
21
363.7180505728304
31
0
0
TEXT
5
E4DD
330
E1C9
100
AcDbEntity
100
AcDbText
8
OLCULER
10
6667.533034871581
20
687.533034871581
30
0
40
45
1
721 mm (DERINLIK)
50
-45
7
STANDARD
72
1
11
6667.533034871581
21
687.533034871581
31
0
100
AcDbText
73
2
0
LINE
5
E1FC
330
E1C9
100
AcDbEntity
100
AcDbLine
8
METIN_BILGI
10
-18060
20
17000
30
0
11
-17940
21
17000
31
0
0
LINE
5
E1FD
330
E1C9
100
AcDbEntity
100
AcDbLine
8
METIN_BILGI
10
-18000
20
16940
30
0
11
-18000
21
17060
31
0
0
TEXT
5
E1FE
330
E1C9
100
AcDbEntity
100
AcDbText
8
METIN_BILGI
10
-18000
20
16092.5
30
0
40
45
1
1.1 TEKLI ANTEN: ON KESIT / GORUNUS
50
0
7
STANDARD
72
1
11
-18000
21
16092.5
31
0
100
AcDbText
73
2
0
TEXT
5
E1FF
330
E1C9
100
AcDbEntity
100
AcDbText
8
METIN_BILGI
10
-18000
20
16037.5
30
0
40
35
1
617 x 1635 mm (GxY) - 51 kg
50
0
7
STANDARD
72
1
11
-18000
21
16037.5
31
0
100
AcDbText
73
2
0
TEXT
5
E225
330
E1C9
100
AcDbEntity
100
AcDbText
8
METIN_BILGI
10
-12085.99489860469
20
19560
30
0
40
40
1
CATI MAKASI ANA BORUSU (Ø280mm)
50
0
7
STANDARD
72
0
11
-12085.99489860469
21
19560
31
0
100
AcDbText
73
2
0
TEXT
5
E226
330
E1C9
100
AcDbEntity
100
AcDbText
8
METIN_BILGI
10
-12548.31582637169
20
18246.836985418842
30
0
40
35
1
2x Ø70mm OFSET DUSEY BORU
50
0
7
STANDARD
72
2
11
-12548.31582637169
21
18246.836985418842
31
0
100
AcDbText
73
2
0
TEXT
5
E227
330
E1C9
100
AcDbEntity
100
AcDbText
8
METIN_BILGI
10
-12013.673970837688
20
17498.315826371687
30
0
40
32
1
CAPRAZ GECIS KELEPCESI (M14)
50
0
7
STANDARD
72
0
11
-12013.673970837688
21
17498.315826371687
31
0
100
AcDbText
73
2
0
TEXT
5
E24D
330
E1C9
100
AcDbEntity
100
AcDbText
8
METIN_BILGI
10
-12000
20
15932.5
30
0
40
45
1
1.2 TEKLI ANTEN: YAN KESIT (45° DOWNTILT)
50
0
7
STANDARD
72
1
11
-12000
21
15932.5
31
0
100
AcDbText
73
2
0
TEXT
5
E24E
330
E1C9
100
AcDbEntity
100
AcDbText
8
METIN_BILGI
10
-12000
20
15872.5
30
0
40
35
1
Mekanik Imalat ve Tasiyici Aski Profili (One ve Yere 45° Egim)
50
0
7
STANDARD
72
1
11
-12000
21
15872.5
31
0
100
AcDbText
73
2
0
TEXT
5
E270
330
E1C9
100
AcDbEntity
100
AcDbText
8
METIN_BILGI
10
-6000
20
16459.5
30
0
40
45
1
1.3 TEKLI ANTEN: USTTEN PLAN KESITI
50
0
7
STANDARD
72
1
11
-6000
21
16459.5
31
0
100
AcDbText
73
2
0
LWPOLYLINE
5
E271
330
E1C9
100
AcDbEntity
100
AcDbPolyline
8
METIN_BILGI
6
ByLayer
62
256
370
-1
90
4
70
1
10
-21500
20
14400
10
-21500
20
19800
10
-3000
20
19800
10
-3000
20
14400
0
TEXT
5
E272
330
E1C9
100
AcDbEntity
100
AcDbText
8
METIN_BILGI
10
-21000
20
19500
30
0
40
180
1
BOLUM 1: TEKLI (SINGLE) MATSING 4-BEAM LENS ANTENI KESITLERI (1:1 OLCEK)
50
0
7
STANDARD
100
AcDbText
0
LINE
5
E28D
330
E1C9
100
AcDbEntity
100
AcDbLine
8
METIN_BILGI
10
7740
20
17000
30
0
11
7860
21
17000
31
0
0
LINE
5
E28E
330
E1C9
100
AcDbEntity
100
AcDbLine
8
METIN_BILGI
10
7800
20
16940
30
0
11
7800
21
17060
31
0
0
TEXT
5
E28F
330
E1C9
100
AcDbEntity
100
AcDbText
8
METIN_BILGI
10
7800
20
16092.5
30
0
40
45
1
SOL ANTEN (ANT-1)
50
0
7
STANDARD
72
1
11
7800
21
16092.5
31
0
100
AcDbText
73
2
0
TEXT
5
E290
330
E1C9
100
AcDbEntity
100
AcDbText
8
METIN_BILGI
10
7800
20
16037.5
30
0
40
35
1
617 x 1635 mm (GxY) - 51 kg
50
0
7
STANDARD
72
1
11
7800
21
16037.5
31
0
100
AcDbText
73
2
0
LINE
5
E2AB
330
E1C9
100
AcDbEntity
100
AcDbLine
8
METIN_BILGI
10
9140
20
17000
30
0
11
9260
21
17000
31
0
0
LINE
5
E2AC
330
E1C9
100
AcDbEntity
100
AcDbLine
8
METIN_BILGI
10
9200
20
16940
30
0
11
9200
21
17060
31
0
0
TEXT
5
E2AD
330
E1C9
100
AcDbEntity
100
AcDbText
8
METIN_BILGI
10
9200
20
16092.5
30
0
40
45
1
SAG ANTEN (ANT-2)
50
0
7
STANDARD
72
1
11
9200
21
16092.5
31
0
100
AcDbText
73
2
0
TEXT
5
E2AE
330
E1C9
100
AcDbEntity
100
AcDbText
8
METIN_BILGI
10
9200
20
16037.5
30
0
40
35
1
617 x 1635 mm (GxY) - 51 kg
50
0
7
STANDARD
72
1
11
9200
21
16037.5
31
0
100
AcDbText
73
2
0
TEXT
5
E2EA
330
E1C9
100
AcDbEntity
100
AcDbText
8
METIN_BILGI
10
17414.005101395313
20
19560
30
0
40
40
1
CATI MAKASI ANA BORUSU (Ø280mm)
50
0
7
STANDARD
72
0
11
17414.005101395313
21
19560
31
0
100
AcDbText
73
2
0
TEXT
5
E2EB
330
E1C9
100
AcDbEntity
100
AcDbText
8
METIN_BILGI
10
16951.684173628313
20
18246.836985418842
30
0
40
35
1
2x Ø70mm OFSET DUSEY BORU
50
0
7
STANDARD
72
2
11
16951.684173628313
21
18246.836985418842
31
0
100
AcDbText
73
2
0
TEXT
5
E2EC
330
E1C9
100
AcDbEntity
100
AcDbText
8
METIN_BILGI
10
17486.326029162312
20
17498.315826371687
30
0
40
32
1
CAPRAZ GECIS KELEPCESI (M14)
50
0
7
STANDARD
72
0
11
17486.326029162312
21
17498.315826371687
31
0
100
AcDbText
73
2
0
TEXT
5
E312
330
E1C9
100
AcDbEntity
100
AcDbText
8
METIN_BILGI
10
17500
20
15932.5
30
0
40
45
1
2.2 IKILI SISTEM: YAN KESIT (PROFIL)
50
0
7
STANDARD
72
1
11
17500
21
15932.5
31
0
100
AcDbText
73
2
0
TEXT
5
E313
330
E1C9
100
AcDbEntity
100
AcDbText
8
METIN_BILGI
10
17500
20
15872.5
30
0
40
35
1
Mekanik Imalat ve Tasiyici Aski Profili (One ve Yere 45° Egim)
50
0
7
STANDARD
72
1
11
17500
21
15872.5
31
0
100
AcDbText
73
2
0
LWPOLYLINE
5
E314
330
E1C9
100
AcDbEntity
100
AcDbPolyline
8
METIN_BILGI
6
ByLayer
62
256
370
-1
90
4
70
1
10
6450
20
14400
10
6450
20
19800
10
20950
20
19800
10
20950
20
14400
0
TEXT
5
E315
330
E1C9
100
AcDbEntity
100
AcDbText
8
METIN_BILGI
10
6850
20
19500
30
0
40
180
1
BOLUM 2: 2'LI (DUAL) MATSING ANTEN KESIT VE TRAVERS MONTAJ PLANI
50
0
7
STANDARD
100
AcDbText
0
LINE
5
E330
330
E1C9
100
AcDbEntity
100
AcDbLine
8
METIN_BILGI
10
-8360
20
8500
30
0
11
-8240
21
8500
31
0
0
LINE
5
E331
330
E1C9
100
AcDbEntity
100
AcDbLine
8
METIN_BILGI
10
-8300
20
8440
30
0
11
-8300
21
8560
31
0
0
TEXT
5
E332
330
E1C9
100
AcDbEntity
100
AcDbText
8
METIN_BILGI
10
-8300
20
7592.5
30
0
40
45
1
SEKTOR 1 (SOL)
50
0
7
STANDARD
72
1
11
-8300
21
7592.5
31
0
100
AcDbText
73
2
0
TEXT
5
E333
330
E1C9
100
AcDbEntity
100
AcDbText
8
METIN_BILGI
10
-8300
20
7537.5
30
0
40
35
1
617 x 1635 mm (GxY) - 51 kg
50
0
7
STANDARD
72
1
11
-8300
21
7537.5
31
0
100
AcDbText
73
2
0
LINE
5
E34E
330
E1C9
100
AcDbEntity
100
AcDbLine
8
METIN_BILGI
10
-7060
20
8500
30
0
11
-6940
21
8500
31
0
0
LINE
5
E34F
330
E1C9
100
AcDbEntity
100
AcDbLine
8
METIN_BILGI
10
-7000
20
8440
30
0
11
-7000
21
8560
31
0
0
TEXT
5
E350
330
E1C9
100
AcDbEntity
100
AcDbText
8
METIN_BILGI
10
-7000
20
7592.5
30
0
40
45
1
SEKTOR 2 (MERKEZ)
50
0
7
STANDARD
72
1
11
-7000
21
7592.5
31
0
100
AcDbText
73
2
0
TEXT
5
E351
330
E1C9
100
AcDbEntity
100
AcDbText
8
METIN_BILGI
10
-7000
20
7537.5
30
0
40
35
1
617 x 1635 mm (GxY) - 51 kg
50
0
7
STANDARD
72
1
11
-7000
21
7537.5
31
0
100
AcDbText
73
2
0
LINE
5
E36C
330
E1C9
100
AcDbEntity
100
AcDbLine
8
METIN_BILGI
10
-5760
20
8500
30
0
11
-5640
21
8500
31
0
0
LINE
5
E36D
330
E1C9
100
AcDbEntity
100
AcDbLine
8
METIN_BILGI
10
-5700
20
8440
30
0
11
-5700
21
8560
31
0
0
TEXT
5
E36E
330
E1C9
100
AcDbEntity
100
AcDbText
8
METIN_BILGI
10
-5700
20
7592.5
30
0
40
45
1
SEKTOR 3 (SAG)
50
0
7
STANDARD
72
1
11
-5700
21
7592.5
31
0
100
AcDbText
73
2
0
TEXT
5
E36F
330
E1C9
100
AcDbEntity
100
AcDbText
8
METIN_BILGI
10
-5700
20
7537.5
30
0
40
35
1
617 x 1635 mm (GxY) - 51 kg
50
0
7
STANDARD
72
1
11
-5700
21
7537.5
31
0
100
AcDbText
73
2
0
TEXT
5
E3A7
330
E1C9
100
AcDbEntity
100
AcDbText
8
METIN_BILGI
10
2900
20
8259.5
30
0
40
45
1
ANT-1 (-15°)
50
0
7
STANDARD
72
1
11
2900
21
8259.5
31
0
100
AcDbText
73
2
0
TEXT
5
E3C9
330
E1C9
100
AcDbEntity
100
AcDbText
8
METIN_BILGI
10
4000
20
7959.5
30
0
40
45
1
ANT-2 (0°)
50
0
7
STANDARD
72
1
11
4000
21
7959.5
31
0
100
AcDbText
73
2
0
TEXT
5
E3EB
330
E1C9
100
AcDbEntity
100
AcDbText
8
METIN_BILGI
10
5100
20
8259.5
30
0
40
45
1
ANT-3 (+15°)
50
0
7
STANDARD
72
1
11
5100
21
8259.5
31
0
100
AcDbText
73
2
0
LWPOLYLINE
5
E3EC
330
E1C9
100
AcDbEntity
100
AcDbPolyline
8
METIN_BILGI
6
ByLayer
62
256
370
-1
90
4
70
1
10
-9500
20
5900
10
-9500
20
11300
10
9000
20
11300
10
9000
20
5900
0
TEXT
5
E3ED
330
E1C9
100
AcDbEntity
100
AcDbText
8
METIN_BILGI
10
-9200
20
11000
30
0
40
180
1
BOLUM 3: 3'LU (TRIPLE) MATSING ANTEN KESIT, DIZI VE ACISAL KAPSAMA PLANI
50
0
7
STANDARD
100
AcDbText
0
TEXT
5
E413
330
E1C9
100
AcDbEntity
100
AcDbText
8
METIN_BILGI
10
-14085.99489860469
20
2560
30
0
40
40
1
CATI MAKASI ANA BORUSU (Ø280mm)
50
0
7
STANDARD
72
0
11
-14085.99489860469
21
2560
31
0
100
AcDbText
73
2
0
TEXT
5
E414
330
E1C9
100
AcDbEntity
100
AcDbText
8
METIN_BILGI
10
-14548.31582637169
20
1246.836985418844
30
0
40
35
1
2x Ø70mm OFSET DUSEY BORU
50
0
7
STANDARD
72
2
11
-14548.31582637169
21
1246.836985418844
31
0
100
AcDbText
73
2
0
TEXT
5
E415
330
E1C9
100
AcDbEntity
100
AcDbText
8
METIN_BILGI
10
-14013.673970837688
20
498.3158263716897
30
0
40
32
1
CAPRAZ GECIS KELEPCESI (M14)
50
0
7
STANDARD
72
0
11
-14013.673970837688
21
498.3158263716897
31
0
100
AcDbText
73
2
0
TEXT
5
E43B
330
E1C9
100
AcDbEntity
100
AcDbText
8
METIN_BILGI
10
-14000
20
-1067.5
30
0
40
45
1
LOKASYON A: 45m CATI MAKASI ASKILI KESIT
50
0
7
STANDARD
72
1
11
-14000
21
-1067.5
31
0
100
AcDbText
73
2
0
TEXT
5
E43C
330
E1C9
100
AcDbEntity
100
AcDbText
8
METIN_BILGI
10
-14000
20
-1127.5
30
0
40
35
1
Mekanik Imalat ve Tasiyici Aski Profili (One ve Yere 45° Egim)
50
0
7
STANDARD
72
1
11
-14000
21
-1127.5
31
0
100
AcDbText
73
2
0
TEXT
5
E461
330
E1C9
100
AcDbEntity
100
AcDbText
8
METIN_BILGI
10
-4648.3158263716905
20
3150
30
0
40
60
1
SKORBOARD DEV BORU (Ø1500mm)
50
0
7
STANDARD
72
1
11
-4648.3158263716905
21
3150
31
0
100
AcDbText
73
2
0
TEXT
5
E462
330
E1C9
100
AcDbEntity
100
AcDbText
8
METIN_BILGI
10
-4648.3158263716905
20
3050
30
0
40
40
1
360° Cember Kelepce Bilezigi (M24 Civatali)
50
0
7
STANDARD
72
1
11
-4648.3158263716905
21
3050
31
0
100
AcDbText
73
2
0
TEXT
5
E463
330
E1C9
100
AcDbEntity
100
AcDbText
8
METIN_BILGI
10
-4578.3158263716905
20
1246.836985418844
30
0
40
35
1
Ø114mm x 2090mm TASIYICI BORU
50
0
7
STANDARD
72
2
11
-4578.3158263716905
21
1246.836985418844
31
0
100
AcDbText
73
2
0
TEXT
5
E464
330
E1C9
100
AcDbEntity
100
AcDbText
8
METIN_BILGI
10
-4013.6739708376886
20
498.3158263716897
30
0
40
32
1
MAFSALLI SABITLEME KELEPCESI
50
0
7
STANDARD
72
0
11
-4013.6739708376886
21
498.3158263716897
31
0
100
AcDbText
73
2
0
TEXT
5
E48A
330
E1C9
100
AcDbEntity
100
AcDbText
8
METIN_BILGI
10
-4000
20
-1067.5
30
0
40
45
1
LOKASYON B: SKORBOARD Ø1500mm BORU CEMBER KESITI
50
0
7
STANDARD
72
1
11
-4000
21
-1067.5
31
0
100
AcDbText
73
2
0
TEXT
5
E48B
330
E1C9
100
AcDbEntity
100
AcDbText
8
METIN_BILGI
10
-4000
20
-1127.5
30
0
40
35
1
Mekanik Imalat ve Tasiyici Aski Profili (One ve Yere 45° Egim)
50
0
7
STANDARD
72
1
11
-4000
21
-1127.5
31
0
100
AcDbText
73
2
0
TEXT
5
E4B7
330
E1C9
100
AcDbEntity
100
AcDbText
8
METIN_BILGI
10
5301.6841736283095
20
2600
30
0
40
40
1
KEDI YOLU PLATFORMU (900mm)
50
0
7
STANDARD
72
1
11
5301.6841736283095
21
2600
31
0
100
AcDbText
73
2
0
TEXT
5
E4B8
330
E1C9
100
AcDbEntity
100
AcDbText
8
METIN_BILGI
10
5121.6841736283095
20
1411.5
30
0
40
35
1
Ø45.7cm SILINDIR TASIYICI BORU
50
0
7
STANDARD
72
1
11
5121.6841736283095
21
1411.5
31
0
100
AcDbText
73
2
0
TEXT
5
E4DE
330
E1C9
100
AcDbEntity
100
AcDbText
8
METIN_BILGI
10
6000
20
-1067.5
30
0
40
45
1
LOKASYON C: CATI UCU KEDI YOLU & Ø45.7cm SILINDIR KESITI
50
0
7
STANDARD
72
1
11
6000
21
-1067.5
31
0
100
AcDbText
73
2
0
TEXT
5
E4DF
330
E1C9
100
AcDbEntity
100
AcDbText
8
METIN_BILGI
10
6000
20
-1127.5
30
0
40
35
1
Mekanik Imalat ve Tasiyici Aski Profili (One ve Yere 45° Egim)
50
0
7
STANDARD
72
1
11
6000
21
-1127.5
31
0
100
AcDbText
73
2
0
LWPOLYLINE
5
E4E0
330
E1C9
100
AcDbEntity
100
AcDbPolyline
8
METIN_BILGI
6
ByLayer
62
256
370
-1
90
4
70
1
10
-18000
20
-2600
10
-18000
20
4200
10
8000
20
4200
10
8000
20
-2600
0
TEXT
5
E4E1
330
E1C9
100
AcDbEntity
100
AcDbText
8
METIN_BILGI
10
-17500
20
3900
30
0
40
180
1
BOLUM 4: LOKASYON BAZLI MONTAJ VE ASKI SISTEMI KESITLERI (TUM TRIBUN VE CATILAR)
50
0
7
STANDARD
100
AcDbText
0
LWPOLYLINE
5
E4E2
330
E1C9
100
AcDbEntity
100
AcDbPolyline
8
METIN_BILGI
6
ByLayer
62
256
370
-1
90
4
70
1
10
13500
20
1400
10
13500
20
6200
10
24700
20
6200
10
24700
20
1400
0
TEXT
5
E4E3
330
E1C9
100
AcDbEntity
100
AcDbText
8
METIN_BILGI
10
13700
20
5900
30
0
40
240
1
EKIPMAN VE ALTYAPI YERLESIM CETVELI (BOM)
50
0
7
STANDARD
100
AcDbText
0
LINE
5
E4E4
330
E1C9
100
AcDbEntity
100
AcDbLine
8
METIN_BILGI
10
13500
20
5800
30
0
11
24700
21
5800
31
0
0
LINE
5
E4E5
330
E1C9
100
AcDbEntity
100
AcDbLine
8
METIN_BILGI
10
13500
20
5400
30
0
11
24700
21
5400
31
0
0
LINE
5
E4E6
330
E1C9
100
AcDbEntity
100
AcDbLine
8
METIN_BILGI
10
14700
20
1400
30
0
11
14700
21
5800
31
0
0
LINE
5
E4E7
330
E1C9
100
AcDbEntity
100
AcDbLine
8
METIN_BILGI
10
20700
20
1400
30
0
11
20700
21
5800
31
0
0
LINE
5
E4E8
330
E1C9
100
AcDbEntity
100
AcDbLine
8
METIN_BILGI
10
23200
20
1400
30
0
11
23200
21
5800
31
0
0
TEXT
5
E4E9
330
E1C9
100
AcDbEntity
100
AcDbText
8
METIN_BILGI
10
13600
20
5520
30
0
40
180
1
NO
50
0
7
STANDARD
100
AcDbText
0
TEXT
5
E4EA
330
E1C9
100
AcDbEntity
100
AcDbText
8
METIN_BILGI
10
14800
20
5520
30
0
40
180
1
EKIPMAN TANIMI
50
0
7
STANDARD
100
AcDbText
0
TEXT
5
E4EB
330
E1C9
100
AcDbEntity
100
AcDbText
8
METIN_BILGI
10
20800
20
5520
30
0
40
180
1
BOYUTLAR (GxDxY)
50
0
7
STANDARD
100
AcDbText
0
TEXT
5
E4EC
330
E1C9
100
AcDbEntity
100
AcDbText
8
METIN_BILGI
10
23300
20
5520
30
0
40
180
1
ADET
50
0
7
STANDARD
100
AcDbText
0
LINE
5
E4ED
330
E1C9
100
AcDbEntity
100
AcDbLine
8
METIN_BILGI
10
13500
20
5000
30
0
11
24700
21
5000
31
0
0
TEXT
5
E4EE
330
E1C9
100
AcDbEntity
100
AcDbText
8
METIN_BILGI
10
13600
20
5120
30
0
40
160
1
1
50
0
7
STANDARD
100
AcDbText
0
TEXT
5
E4EF
330
E1C9
100
AcDbEntity
100
AcDbText
8
METIN_BILGI
10
14800
20
5120
30
0
40
160
1
Matsing 4-Beam Cok Huzmeli Lens Anteni (MS-MBA-4.4.2)
50
0
7
STANDARD
100
AcDbText
0
TEXT
5
E4F0
330
E1C9
100
AcDbEntity
100
AcDbText
8
METIN_BILGI
10
20800
20
5120
30
0
40
160
1
617x721x1635 mm
50
0
7
STANDARD
100
AcDbText
0
TEXT
5
E4F1
330
E1C9
100
AcDbEntity
100
AcDbText
8
METIN_BILGI
10
23300
20
5120
30
0
40
160
1
Tipik
50
0
7
STANDARD
100
AcDbText
0
LINE
5
E4F2
330
E1C9
100
AcDbEntity
100
AcDbLine
8
METIN_BILGI
10
13500
20
4600
30
0
11
24700
21
4600
31
0
0
TEXT
5
E4F3
330
E1C9
100
AcDbEntity
100
AcDbText
8
METIN_BILGI
10
13600
20
4720
30
0
40
160
1
2
50
0
7
STANDARD
100
AcDbText
0
TEXT
5
E4F4
330
E1C9
100
AcDbEntity
100
AcDbText
8
METIN_BILGI
10
14800
20
4720
30
0
40
160
1
Tekli Aski Borusu (3" Galvanizli Celik Direk)
50
0
7
STANDARD
100
AcDbText
0
TEXT
5
E4F5
330
E1C9
100
AcDbEntity
100
AcDbText
8
METIN_BILGI
10
20800
20
4720
30
0
40
160
1
Ø76.2mm x 1800mm
50
0
7
STANDARD
100
AcDbText
0
TEXT
5
E4F6
330
E1C9
100
AcDbEntity
100
AcDbText
8
METIN_BILGI
10
23300
20
4720
30
0
40
160
1
1 / Anten
50
0
7
STANDARD
100
AcDbText
0
LINE
5
E4F7
330
E1C9
100
AcDbEntity
100
AcDbLine
8
METIN_BILGI
10
13500
20
4200
30
0
11
24700
21
4200
31
0
0
TEXT
5
E4F8
330
E1C9
100
AcDbEntity
100
AcDbText
8
METIN_BILGI
10
13600
20
4320
30
0
40
160
1
3
50
0
7
STANDARD
100
AcDbText
0
TEXT
5
E4F9
330
E1C9
100
AcDbEntity
100
AcDbText
8
METIN_BILGI
10
14800
20
4320
30
0
40
160
1
Cift Dusey Ofset Aski Borulari (Alt: 1.15m, Ust: 1.55m)
50
0
7
STANDARD
100
AcDbText
0
TEXT
5
E4FA
330
E1C9
100
AcDbEntity
100
AcDbText
8
METIN_BILGI
10
20800
20
4320
30
0
40
160
1
Ø70mm Galvaniz Celik
50
0
7
STANDARD
100
AcDbText
0
TEXT
5
E4FB
330
E1C9
100
AcDbEntity
100
AcDbText
8
METIN_BILGI
10
23300
20
4320
30
0
40
160
1
2 / Anten
50
0
7
STANDARD
100
AcDbText
0
LINE
5
E4FC
330
E1C9
100
AcDbEntity
100
AcDbLine
8
METIN_BILGI
10
13500
20
3800
30
0
11
24700
21
3800
31
0
0
TEXT
5
E4FD
330
E1C9
100
AcDbEntity
100
AcDbText
8
METIN_BILGI
10
13600
20
3920
30
0
40
160
1
4
50
0
7
STANDARD
100
AcDbText
0
TEXT
5
E4FE
330
E1C9
100
AcDbEntity
100
AcDbText
8
METIN_BILGI
10
14800
20
3920
30
0
40
160
1
Agir Hizmet Capraz Gecis Kelepceleri (Crossover Clamps)
50
0
7
STANDARD
100
AcDbText
0
TEXT
5
E4FF
330
E1C9
100
AcDbEntity
100
AcDbText
8
METIN_BILGI
10
20800
20
3920
30
0
40
160
1
160x120x160 mm / M14
50
0
7
STANDARD
100
AcDbText
0
TEXT
5
E500
330
E1C9
100
AcDbEntity
100
AcDbText
8
METIN_BILGI
10
23300
20
3920
30
0
40
160
1
2 / Anten
50
0
7
STANDARD
100
AcDbText
0
LINE
5
E501
330
E1C9
100
AcDbEntity
100
AcDbLine
8
METIN_BILGI
10
13500
20
3400
30
0
11
24700
21
3400
31
0
0
TEXT
5
E502
330
E1C9
100
AcDbEntity
100
AcDbText
8
METIN_BILGI
10
13600
20
3520
30
0
40
160
1
5
50
0
7
STANDARD
100
AcDbText
0
TEXT
5
E503
330
E1C9
100
AcDbEntity
100
AcDbText
8
METIN_BILGI
10
14800
20
3520
30
0
40
160
1
Anten Sirti Mafsalli Egim Kelepcesi (0-45° Tilt)
50
0
7
STANDARD
100
AcDbText
0
TEXT
5
E504
330
E1C9
100
AcDbEntity
100
AcDbText
8
METIN_BILGI
10
20800
20
3520
30
0
40
160
1
Ø76.2mm U-Boltlu
50
0
7
STANDARD
100
AcDbText
0
TEXT
5
E505
330
E1C9
100
AcDbEntity
100
AcDbText
8
METIN_BILGI
10
23300
20
3520
30
0
40
160
1
2 / Anten
50
0
7
STANDARD
100
AcDbText
0
LINE
5
E506
330
E1C9
100
AcDbEntity
100
AcDbLine
8
METIN_BILGI
10
13500
20
3000
30
0
11
24700
21
3000
31
0
0
TEXT
5
E507
330
E1C9
100
AcDbEntity
100
AcDbText
8
METIN_BILGI
10
13600
20
3120
30
0
40
160
1
6
50
0
7
STANDARD
100
AcDbText
0
TEXT
5
E508
330
E1C9
100
AcDbEntity
100
AcDbText
8
METIN_BILGI
10
14800
20
3120
30
0
40
160
1
2'li Ikili Montaj Traversi (Kutu Profil)
50
0
7
STANDARD
100
AcDbText
0
TEXT
5
E509
330
E1C9
100
AcDbEntity
100
AcDbText
8
METIN_BILGI
10
20800
20
3120
30
0
40
160
1
120x80x6mm x 2500mm
50
0
7
STANDARD
100
AcDbText
0
TEXT
5
E50A
330
E1C9
100
AcDbEntity
100
AcDbText
8
METIN_BILGI
10
23300
20
3120
30
0
40
160
1
Opsiyon
50
0
7
STANDARD
100
AcDbText
0
LINE
5
E50B
330
E1C9
100
AcDbEntity
100
AcDbLine
8
METIN_BILGI
10
13500
20
2600
30
0
11
24700
21
2600
31
0
0
TEXT
5
E50C
330
E1C9
100
AcDbEntity
100
AcDbText
8
METIN_BILGI
10
13600
20
2720
30
0
40
160
1
7
50
0
7
STANDARD
100
AcDbText
0
TEXT
5
E50D
330
E1C9
100
AcDbEntity
100
AcDbText
8
METIN_BILGI
10
14800
20
2720
30
0
40
160
1
3'lu Moduler Kafes Kiris Sasisi (Agir Hizmet)
50
0
7
STANDARD
100
AcDbText
0
TEXT
5
E50E
330
E1C9
100
AcDbEntity
100
AcDbText
8
METIN_BILGI
10
20800
20
2720
30
0
40
160
1
140x100x8mm x 3800mm
50
0
7
STANDARD
100
AcDbText
0
TEXT
5
E50F
330
E1C9
100
AcDbEntity
100
AcDbText
8
METIN_BILGI
10
23300
20
2720
30
0
40
160
1
Opsiyon
50
0
7
STANDARD
100
AcDbText
0
LINE
5
E510
330
E1C9
100
AcDbEntity
100
AcDbLine
8
METIN_BILGI
10
13500
20
2200
30
0
11
24700
21
2200
31
0
0
TEXT
5
E511
330
E1C9
100
AcDbEntity
100
AcDbText
8
METIN_BILGI
10
13600
20
2320
30
0
40
160
1
8
50
0
7
STANDARD
100
AcDbText
0
TEXT
5
E512
330
E1C9
100
AcDbEntity
100
AcDbText
8
METIN_BILGI
10
14800
20
2320
30
0
40
160
1
Skorboard Ø1500mm 360° Cember Kelepce Bilezigi
50
0
7
STANDARD
100
AcDbText
0
TEXT
5
E513
330
E1C9
100
AcDbEntity
100
AcDbText
8
METIN_BILGI
10
20800
20
2320
30
0
40
160
1
Ø1590x200x20 mm
50
0
7
STANDARD
100
AcDbText
0
TEXT
5
E514
330
E1C9
100
AcDbEntity
100
AcDbText
8
METIN_BILGI
10
23300
20
2320
30
0
40
160
1
Skorboard
50
0
7
STANDARD
100
AcDbText
0
LINE
5
E515
330
E1C9
100
AcDbEntity
100
AcDbLine
8
METIN_BILGI
10
13500
20
1800
30
0
11
24700
21
1800
31
0
0
TEXT
5
E516
330
E1C9
100
AcDbEntity
100
AcDbText
8
METIN_BILGI
10
13600
20
1920
30
0
40
160
1
9
50
0
7
STANDARD
100
AcDbText
0
TEXT
5
E517
330
E1C9
100
AcDbEntity
100
AcDbText
8
METIN_BILGI
10
14800
20
1920
30
0
40
160
1
Skorboard Ana Dusey Tasiyici Boru
50
0
7
STANDARD
100
AcDbText
0
TEXT
5
E518
330
E1C9
100
AcDbEntity
100
AcDbText
8
METIN_BILGI
10
20800
20
1920
30
0
40
160
1
Ø114mm x 2090mm
50
0
7
STANDARD
100
AcDbText
0
TEXT
5
E519
330
E1C9
100
AcDbEntity
100
AcDbText
8
METIN_BILGI
10
23300
20
1920
30
0
40
160
1
Skorboard
50
0
7
STANDARD
100
AcDbText
0
LINE
5
E51A
330
E1C9
100
AcDbEntity
100
AcDbLine
8
METIN_BILGI
10
13500
20
1400
30
0
11
24700
21
1400
31
0
0
TEXT
5
E51B
330
E1C9
100
AcDbEntity
100
AcDbText
8
METIN_BILGI
10
13600
20
1520
30
0
40
160
1
10
50
0
7
STANDARD
100
AcDbText
0
TEXT
5
E51C
330
E1C9
100
AcDbEntity
100
AcDbText
8
METIN_BILGI
10
14800
20
1520
30
0
40
160
1
1/2" Feeder Jumper Kablo Seti (4.3-10 DIN Disi)
50
0
7
STANDARD
100
AcDbText
0
TEXT
5
E51D
330
E1C9
100
AcDbEntity
100
AcDbText
8
METIN_BILGI
10
20800
20
1520
30
0
40
160
1
28 Port / Anten
50
0
7
STANDARD
100
AcDbText
0
TEXT
5
E51E
330
E1C9
100
AcDbEntity
100
AcDbText
8
METIN_BILGI
10
23300
20
1520
30
0
40
160
1
28 / Anten
50
0
7
STANDARD
100
AcDbText
0
LWPOLYLINE
5
E51F
330
E1C9
100
AcDbEntity
100
AcDbPolyline
8
METIN_BILGI
6
ByLayer
62
256
370
-1
90
4
70
1
10
13500
20
-2400
10
13500
20
-200
10
21500
20
-200
10
21500
20
-2400
0
LINE
5
E520
330
E1C9
100
AcDbEntity
100
AcDbLine
8
METIN_BILGI
10
13500
20
-1000
30
0
11
21500
21
-1000
31
0
0
LINE
5
E521
330
E1C9
100
AcDbEntity
100
AcDbLine
8
METIN_BILGI
10
13500
20
-1700
30
0
11
21500
21
-1700
31
0
0
LINE
5
E522
330
E1C9
100
AcDbEntity
100
AcDbLine
8
METIN_BILGI
10
18000
20
-2400
30
0
11
18000
21
-1000
31
0
0
TEXT
5
E523
330
E1C9
100
AcDbEntity
100
AcDbText
8
METIN_BILGI
10
13700
20
-750
30
0
40
320
1
GALATASARAY STADYUMU GSM ALTYAPI PROJESI
50
0
7
STANDARD
100
AcDbText
0
TEXT
5
E524
330
E1C9
100
AcDbEntity
100
AcDbText
8
METIN_BILGI
10
13700
20
-1450
30
0
40
260
1
ALAN: MATSING 4-BEAM LENS ANTENLERI TUM LOKASYONLAR KESITLERI (TEKLI, 2'LI, 3'LU) (DETAY KESIT PAFTASI)
50
0
7
STANDARD
100
AcDbText
0
TEXT
5
E525
330
E1C9
100
AcDbEntity
100
AcDbText
8
METIN_BILGI
10
13700
20
-2120
30
0
40
200
1
OLCEK: 1:1 mm (1:1 mm)
50
0
7
STANDARD
100
AcDbText
0
TEXT
5
E526
330
E1C9
100
AcDbEntity
100
AcDbText
8
METIN_BILGI
10
18200
20
-1450
30
0
40
180
1
CIZIM: ANTIGRAVITY CAD / BIM
50
0
7
STANDARD
100
AcDbText
0
TEXT
5
E527
330
E1C9
100
AcDbEntity
100
AcDbText
8
METIN_BILGI
10
18200
20
-2120
30
0
40
180
1
TARIH: 2026-10-04
50
0
7
STANDARD
100
AcDbText
0
CIRCLE
5
E528
330
E1C9
100
AcDbEntity
100
AcDbCircle
8
METIN_BILGI
10
12000
20
-1300
30
0
40
800
0
LINE
5
E529
330
E1C9
100
AcDbEntity
100
AcDbLine
8
METIN_BILGI
10
12000
20
-2020
30
0
11
12000
21
-580
31
0
0
LINE
5
E52A
330
E1C9
100
AcDbEntity
100
AcDbLine
8
METIN_BILGI
10
12000
20
-580
30
0
11
11750
21
-1000
31
0
0
LINE
5
E52B
330
E1C9
100
AcDbEntity
100
AcDbLine
8
METIN_BILGI
10
12000
20
-580
30
0
11
12250
21
-1000
31
0
0
TEXT
5
E52C
330
E1C9
100
AcDbEntity
100
AcDbText
8
METIN_BILGI
10
12000
20
-300
30
0
40
300
1
K
50
0
7
STANDARD
72
1
11
12000
21
-300
31
0
100
AcDbText
73
2
0
LWPOLYLINE
5
E1E4
330
E1C9
100
AcDbEntity
100
AcDbPolyline
8
EKP_MATSING_ANTEN
6
ByLayer
62
256
370
-1
90
4
70
1
10
-18308.5
20
16182.5
10
-18308.5
20
17817.5
10
-17691.5
20
17817.5
10
-17691.5
20
16182.5
0
LINE
5
E1E5
330
E1C9
100
AcDbEntity
100
AcDbLine
8
EKP_MATSING_ANTEN
10
-18278.5
20
16182.5
30
0
11
-18278.5
21
17817.5
31
0
0
LINE
5
E1E6
330
E1C9
100
AcDbEntity
100
AcDbLine
8
EKP_MATSING_ANTEN
10
-17721.5
20
16182.5
30
0
11
-17721.5
21
17817.5
31
0
0
CIRCLE
5
E1E7
330
E1C9
100
AcDbEntity
100
AcDbCircle
8
EKP_MATSING_ANTEN
10
-18000
20
17000
30
0
40
283.82
0
CIRCLE
5
E1E8
330
E1C9
100
AcDbEntity
100
AcDbCircle
8
EKP_MATSING_ANTEN
10
-18000
20
17000
30
0
40
204.35039999999998
0
CIRCLE
5
E1E9
330
E1C9
100
AcDbEntity
100
AcDbCircle
8
EKP_MATSING_ANTEN
10
-18000
20
17000
30
0
40
124.8808
0
LINE
5
E1EA
330
E1C9
100
AcDbEntity
100
AcDbLine
8
EKP_MATSING_ANTEN
10
-18259.14
20
16509.5
30
0
11
-17740.86
21
16509.5
31
0
0
TEXT
5
E1EB
330
E1C9
100
AcDbEntity
100
AcDbText
8
EKP_MATSING_ANTEN
10
-18000
20
16529.5
30
0
40
32
1
BEAM 4 (HUZME 4)
50
0
7
STANDARD
72
1
11
-18000
21
16529.5
31
0
100
AcDbText
73
2
0
LINE
5
E1EC
330
E1C9
100
AcDbEntity
100
AcDbLine
8
EKP_MATSING_ANTEN
10
-18259.14
20
16836.5
30
0
11
-17740.86
21
16836.5
31
0
0
TEXT
5
E1ED
330
E1C9
100
AcDbEntity
100
AcDbText
8
EKP_MATSING_ANTEN
10
-18000
20
16856.5
30
0
40
32
1
BEAM 3 (HUZME 3)
50
0
7
STANDARD
72
1
11
-18000
21
16856.5
31
0
100
AcDbText
73
2
0
LINE
5
E1EE
330
E1C9
100
AcDbEntity
100
AcDbLine
8
EKP_MATSING_ANTEN
10
-18259.14
20
17163.5
30
0
11
-17740.86
21
17163.5
31
0
0
TEXT
5
E1EF
330
E1C9
100
AcDbEntity
100
AcDbText
8
EKP_MATSING_ANTEN
10
-18000
20
17183.5
30
0
40
32
1
BEAM 2 (HUZME 2)
50
0
7
STANDARD
72
1
11
-18000
21
17183.5
31
0
100
AcDbText
73
2
0
LINE
5
E1F0
330
E1C9
100
AcDbEntity
100
AcDbLine
8
EKP_MATSING_ANTEN
10
-18259.14
20
17490.5
30
0
11
-17740.86
21
17490.5
31
0
0
TEXT
5
E1F1
330
E1C9
100
AcDbEntity
100
AcDbText
8
EKP_MATSING_ANTEN
10
-18000
20
17510.5
30
0
40
32
1
BEAM 1 (HUZME 1)
50
0
7
STANDARD
72
1
11
-18000
21
17510.5
31
0
100
AcDbText
73
2
0
LINE
5
E200
330
E1C9
100
AcDbEntity
100
AcDbLine
8
EKP_MATSING_ANTEN
10
-11648.567929750285
20
17804.687516990292
30
0
11
-11202.383550821574
21
17358.50313806158
31
0
0
LINE
5
E201
330
E1C9
100
AcDbEntity
100
AcDbLine
8
EKP_MATSING_ANTEN
10
-11202.383550821574
20
17358.50313806158
30
0
11
-11253.737180805247
21
17236.438829959254
31
0
0
LINE
5
E202
330
E1C9
100
AcDbEntity
100
AcDbLine
8
EKP_MATSING_ANTEN
10
-11253.737180805247
20
17236.438829959254
30
0
11
-11716.803734134788
21
16716.803734134788
31
0
0
LINE
5
E203
330
E1C9
100
AcDbEntity
100
AcDbLine
8
EKP_MATSING_ANTEN
10
-11716.803734134788
20
16716.803734134788
30
0
11
-12236.438829959252
21
16253.737180805248
31
0
0
LINE
5
E204
330
E1C9
100
AcDbEntity
100
AcDbLine
8
EKP_MATSING_ANTEN
10
-12236.438829959252
20
16253.737180805248
30
0
11
-12358.50313806158
21
16202.383550821574
31
0
0
LINE
5
E205
330
E1C9
100
AcDbEntity
100
AcDbLine
8
EKP_MATSING_ANTEN
10
-12358.50313806158
20
16202.383550821574
30
0
11
-12804.68751699029
21
16648.567929750287
31
0
0
LINE
5
E206
330
E1C9
100
AcDbEntity
100
AcDbLine
8
EKP_MATSING_ANTEN
10
-12804.68751699029
20
16648.567929750287
30
0
11
-12804.068798556753
21
16705.755190678745
31
0
0
LINE
5
E207
330
E1C9
100
AcDbEntity
100
AcDbLine
8
EKP_MATSING_ANTEN
10
-12804.068798556753
20
16705.755190678745
30
0
11
-11705.755190678748
21
17804.068798556753
31
0
0
LINE
5
E208
330
E1C9
100
AcDbEntity
100
AcDbLine
8
EKP_MATSING_ANTEN
10
-11705.755190678748
20
17804.068798556753
30
0
11
-11648.567929750285
21
17804.687516990292
31
0
0
LINE
5
E209
330
E1C9
100
AcDbEntity
100
AcDbLine
8
EKP_MATSING_ANTEN
10
-11525.708126519125
20
17219.379878863125
30
0
11
-11821.561603767575
21
16821.561603767575
31
0
0
LINE
5
E20A
330
E1C9
100
AcDbEntity
100
AcDbLine
8
EKP_MATSING_ANTEN
10
-11821.561603767575
20
16821.561603767575
30
0
11
-12219.379878863127
21
16525.708126519123
31
0
0
LINE
5
E24F
330
E1C9
100
AcDbEntity
100
AcDbLine
8
EKP_MATSING_ANTEN
10
-6130
20
16639.5
30
0
11
-5870
21
16639.5
31
0
0
LINE
5
E250
330
E1C9
100
AcDbEntity
100
AcDbLine
8
EKP_MATSING_ANTEN
10
-5870
20
16639.5
30
0
11
-5691.5
21
16819.5
31
0
0
LINE
5
E251
330
E1C9
100
AcDbEntity
100
AcDbLine
8
EKP_MATSING_ANTEN
10
-5691.5
20
16819.5
30
0
11
-5768.625
21
17234.325
31
0
0
LINE
5
E252
330
E1C9
100
AcDbEntity
100
AcDbLine
8
EKP_MATSING_ANTEN
10
-5768.625
20
17234.325
30
0
11
-6000
21
17360.5
31
0
0
LINE
5
E253
330
E1C9
100
AcDbEntity
100
AcDbLine
8
EKP_MATSING_ANTEN
10
-6000
20
17360.5
30
0
11
-6231.375
21
17234.325
31
0
0
LINE
5
E254
330
E1C9
100
AcDbEntity
100
AcDbLine
8
EKP_MATSING_ANTEN
10
-6231.375
20
17234.325
30
0
11
-6308.5
21
16819.5
31
0
0
LINE
5
E255
330
E1C9
100
AcDbEntity
100
AcDbLine
8
EKP_MATSING_ANTEN
10
-6308.5
20
16819.5
30
0
11
-6130
21
16639.5
31
0
0
CIRCLE
5
E256
330
E1C9
100
AcDbEntity
100
AcDbCircle
8
EKP_MATSING_ANTEN
10
-6000
20
17000
30
0
40
262.22499999999997
0
CIRCLE
5
E257
330
E1C9
100
AcDbEntity
100
AcDbCircle
8
EKP_MATSING_ANTEN
10
-6000
20
17000
30
0
40
169.675
0
LWPOLYLINE
5
E275
330
E1C9
100
AcDbEntity
100
AcDbPolyline
8
EKP_MATSING_ANTEN
6
ByLayer
62
256
370
-1
90
4
70
1
10
7491.5
20
16182.5
10
7491.5
20
17817.5
10
8108.5
20
17817.5
10
8108.5
20
16182.5
0
LINE
5
E276
330
E1C9
100
AcDbEntity
100
AcDbLine
8
EKP_MATSING_ANTEN
10
7521.5
20
16182.5
30
0
11
7521.5
21
17817.5
31
0
0
LINE
5
E277
330
E1C9
100
AcDbEntity
100
AcDbLine
8
EKP_MATSING_ANTEN
10
8078.5
20
16182.5
30
0
11
8078.5
21
17817.5
31
0
0
CIRCLE
5
E278
330
E1C9
100
AcDbEntity
100
AcDbCircle
8
EKP_MATSING_ANTEN
10
7800
20
17000
30
0
40
283.82
0
CIRCLE
5
E279
330
E1C9
100
AcDbEntity
100
AcDbCircle
8
EKP_MATSING_ANTEN
10
7800
20
17000
30
0
40
204.35039999999998
0
CIRCLE
5
E27A
330
E1C9
100
AcDbEntity
100
AcDbCircle
8
EKP_MATSING_ANTEN
10
7800
20
17000
30
0
40
124.8808
0
LINE
5
E27B
330
E1C9
100
AcDbEntity
100
AcDbLine
8
EKP_MATSING_ANTEN
10
7540.86
20
16509.5
30
0
11
8059.14
21
16509.5
31
0
0
TEXT
5
E27C
330
E1C9
100
AcDbEntity
100
AcDbText
8
EKP_MATSING_ANTEN
10
7800
20
16529.5
30
0
40
32
1
BEAM 4 (HUZME 4)
50
0
7
STANDARD
72
1
11
7800
21
16529.5
31
0
100
AcDbText
73
2
0
LINE
5
E27D
330
E1C9
100
AcDbEntity
100
AcDbLine
8
EKP_MATSING_ANTEN
10
7540.86
20
16836.5
30
0
11
8059.14
21
16836.5
31
0
0
TEXT
5
E27E
330
E1C9
100
AcDbEntity
100
AcDbText
8
EKP_MATSING_ANTEN
10
7800
20
16856.5
30
0
40
32
1
BEAM 3 (HUZME 3)
50
0
7
STANDARD
72
1
11
7800
21
16856.5
31
0
100
AcDbText
73
2
0
LINE
5
E27F
330
E1C9
100
AcDbEntity
100
AcDbLine
8
EKP_MATSING_ANTEN
10
7540.86
20
17163.5
30
0
11
8059.14
21
17163.5
31
0
0
TEXT
5
E280
330
E1C9
100
AcDbEntity
100
AcDbText
8
EKP_MATSING_ANTEN
10
7800
20
17183.5
30
0
40
32
1
BEAM 2 (HUZME 2)
50
0
7
STANDARD
72
1
11
7800
21
17183.5
31
0
100
AcDbText
73
2
0
LINE
5
E281
330
E1C9
100
AcDbEntity
100
AcDbLine
8
EKP_MATSING_ANTEN
10
7540.86
20
17490.5
30
0
11
8059.14
21
17490.5
31
0
0
TEXT
5
E282
330
E1C9
100
AcDbEntity
100
AcDbText
8
EKP_MATSING_ANTEN
10
7800
20
17510.5
30
0
40
32
1
BEAM 1 (HUZME 1)
50
0
7
STANDARD
72
1
11
7800
21
17510.5
31
0
100
AcDbText
73
2
0
LWPOLYLINE
5
E293
330
E1C9
100
AcDbEntity
100
AcDbPolyline
8
EKP_MATSING_ANTEN
6
ByLayer
62
256
370
-1
90
4
70
1
10
8891.5
20
16182.5
10
8891.5
20
17817.5
10
9508.5
20
17817.5
10
9508.5
20
16182.5
0
LINE
5
E294
330
E1C9
100
AcDbEntity
100
AcDbLine
8
EKP_MATSING_ANTEN
10
8921.5
20
16182.5
30
0
11
8921.5
21
17817.5
31
0
0
LINE
5
E295
330
E1C9
100
AcDbEntity
100
AcDbLine
8
EKP_MATSING_ANTEN
10
9478.5
20
16182.5
30
0
11
9478.5
21
17817.5
31
0
0
CIRCLE
5
E296
330
E1C9
100
AcDbEntity
100
AcDbCircle
8
EKP_MATSING_ANTEN
10
9200
20
17000
30
0
40
283.82
0
CIRCLE
5
E297
330
E1C9
100
AcDbEntity
100
AcDbCircle
8
EKP_MATSING_ANTEN
10
9200
20
17000
30
0
40
204.35039999999998
0
CIRCLE
5
E298
330
E1C9
100
AcDbEntity
100
AcDbCircle
8
EKP_MATSING_ANTEN
10
9200
20
17000
30
0
40
124.8808
0
LINE
5
E299
330
E1C9
100
AcDbEntity
100
AcDbLine
8
EKP_MATSING_ANTEN
10
8940.86
20
16509.5
30
0
11
9459.14
21
16509.5
31
0
0
TEXT
5
E29A
330
E1C9
100
AcDbEntity
100
AcDbText
8
EKP_MATSING_ANTEN
10
9200
20
16529.5
30
0
40
32
1
BEAM 4 (HUZME 4)
50
0
7
STANDARD
72
1
11
9200
21
16529.5
31
0
100
AcDbText
73
2
0
LINE
5
E29B
330
E1C9
100
AcDbEntity
100
AcDbLine
8
EKP_MATSING_ANTEN
10
8940.86
20
16836.5
30
0
11
9459.14
21
16836.5
31
0
0
TEXT
5
E29C
330
E1C9
100
AcDbEntity
100
AcDbText
8
EKP_MATSING_ANTEN
10
9200
20
16856.5
30
0
40
32
1
BEAM 3 (HUZME 3)
50
0
7
STANDARD
72
1
11
9200
21
16856.5
31
0
100
AcDbText
73
2
0
LINE
5
E29D
330
E1C9
100
AcDbEntity
100
AcDbLine
8
EKP_MATSING_ANTEN
10
8940.86
20
17163.5
30
0
11
9459.14
21
17163.5
31
0
0
TEXT
5
E29E
330
E1C9
100
AcDbEntity
100
AcDbText
8
EKP_MATSING_ANTEN
10
9200
20
17183.5
30
0
40
32
1
BEAM 2 (HUZME 2)
50
0
7
STANDARD
72
1
11
9200
21
17183.5
31
0
100
AcDbText
73
2
0
LINE
5
E29F
330
E1C9
100
AcDbEntity
100
AcDbLine
8
EKP_MATSING_ANTEN
10
8940.86
20
17490.5
30
0
11
9459.14
21
17490.5
31
0
0
TEXT
5
E2A0
330
E1C9
100
AcDbEntity
100
AcDbText
8
EKP_MATSING_ANTEN
10
9200
20
17510.5
30
0
40
32
1
BEAM 1 (HUZME 1)
50
0
7
STANDARD
72
1
11
9200
21
17510.5
31
0
100
AcDbText
73
2
0
LINE
5
E2C5
330
E1C9
100
AcDbEntity
100
AcDbLine
8
EKP_MATSING_ANTEN
10
17851.432070249713
20
17804.687516990292
30
0
11
18297.616449178426
21
17358.50313806158
31
0
0
LINE
5
E2C6
330
E1C9
100
AcDbEntity
100
AcDbLine
8
EKP_MATSING_ANTEN
10
18297.616449178426
20
17358.50313806158
30
0
11
18246.26281919475
21
17236.438829959254
31
0
0
LINE
5
E2C7
330
E1C9
100
AcDbEntity
100
AcDbLine
8
EKP_MATSING_ANTEN
10
18246.26281919475
20
17236.438829959254
30
0
11
17783.196265865212
21
16716.803734134788
31
0
0
LINE
5
E2C8
330
E1C9
100
AcDbEntity
100
AcDbLine
8
EKP_MATSING_ANTEN
10
17783.196265865212
20
16716.803734134788
30
0
11
17263.561170040746
21
16253.737180805248
31
0
0
LINE
5
E2C9
330
E1C9
100
AcDbEntity
100
AcDbLine
8
EKP_MATSING_ANTEN
10
17263.561170040746
20
16253.737180805248
30
0
11
17141.49686193842
21
16202.383550821574
31
0
0
LINE
5
E2CA
330
E1C9
100
AcDbEntity
100
AcDbLine
8
EKP_MATSING_ANTEN
10
17141.49686193842
20
16202.383550821574
30
0
11
16695.312483009708
21
16648.567929750287
31
0
0
LINE
5
E2CB
330
E1C9
100
AcDbEntity
100
AcDbLine
8
EKP_MATSING_ANTEN
10
16695.312483009708
20
16648.567929750287
30
0
11
16695.931201443247
21
16705.755190678745
31
0
0
LINE
5
E2CC
330
E1C9
100
AcDbEntity
100
AcDbLine
8
EKP_MATSING_ANTEN
10
16695.931201443247
20
16705.755190678745
30
0
11
17794.244809321255
21
17804.068798556753
31
0
0
LINE
5
E2CD
330
E1C9
100
AcDbEntity
100
AcDbLine
8
EKP_MATSING_ANTEN
10
17794.244809321255
20
17804.068798556753
30
0
11
17851.432070249713
21
17804.687516990292
31
0
0
LINE
5
E2CE
330
E1C9
100
AcDbEntity
100
AcDbLine
8
EKP_MATSING_ANTEN
10
17974.291873480877
20
17219.379878863125
30
0
11
17678.438396232425
21
16821.561603767575
31
0
0
LINE
5
E2CF
330
E1C9
100
AcDbEntity
100
AcDbLine
8
EKP_MATSING_ANTEN
10
17678.438396232425
20
16821.561603767575
30
0
11
17280.620121136875
21
16525.708126519123
31
0
0
LWPOLYLINE
5
E318
330
E1C9
100
AcDbEntity
100
AcDbPolyline
8
EKP_MATSING_ANTEN
6
ByLayer
62
256
370
-1
90
4
70
1
10
-8608.5
20
7682.5
10
-8608.5
20
9317.5
10
-7991.5
20
9317.5
10
-7991.5
20
7682.5
0
LINE
5
E319
330
E1C9
100
AcDbEntity
100
AcDbLine
8
EKP_MATSING_ANTEN
10
-8578.5
20
7682.5
30
0
11
-8578.5
21
9317.5
31
0
0
LINE
5
E31A
330
E1C9
100
AcDbEntity
100
AcDbLine
8
EKP_MATSING_ANTEN
10
-8021.5
20
7682.5
30
0
11
-8021.5
21
9317.5
31
0
0
CIRCLE
5
E31B
330
E1C9
100
AcDbEntity
100
AcDbCircle
8
EKP_MATSING_ANTEN
10
-8300
20
8500
30
0
40
283.82
0
CIRCLE
5
E31C
330
E1C9
100
AcDbEntity
100
AcDbCircle
8
EKP_MATSING_ANTEN
10
-8300
20
8500
30
0
40
204.35039999999998
0
CIRCLE
5
E31D
330
E1C9
100
AcDbEntity
100
AcDbCircle
8
EKP_MATSING_ANTEN
10
-8300
20
8500
30
0
40
124.8808
0
LINE
5
E31E
330
E1C9
100
AcDbEntity
100
AcDbLine
8
EKP_MATSING_ANTEN
10
-8559.14
20
8009.5
30
0
11
-8040.86
21
8009.5
31
0
0
TEXT
5
E31F
330
E1C9
100
AcDbEntity
100
AcDbText
8
EKP_MATSING_ANTEN
10
-8300
20
8029.5
30
0
40
32
1
BEAM 4 (HUZME 4)
50
0
7
STANDARD
72
1
11
-8300
21
8029.5
31
0
100
AcDbText
73
2
0
LINE
5
E320
330
E1C9
100
AcDbEntity
100
AcDbLine
8
EKP_MATSING_ANTEN
10
-8559.14
20
8336.5
30
0
11
-8040.86
21
8336.5
31
0
0
TEXT
5
E321
330
E1C9
100
AcDbEntity
100
AcDbText
8
EKP_MATSING_ANTEN
10
-8300
20
8356.5
30
0
40
32
1
BEAM 3 (HUZME 3)
50
0
7
STANDARD
72
1
11
-8300
21
8356.5
31
0
100
AcDbText
73
2
0
LINE
5
E322
330
E1C9
100
AcDbEntity
100
AcDbLine
8
EKP_MATSING_ANTEN
10
-8559.14
20
8663.5
30
0
11
-8040.86
21
8663.5
31
0
0
TEXT
5
E323
330
E1C9
100
AcDbEntity
100
AcDbText
8
EKP_MATSING_ANTEN
10
-8300
20
8683.5
30
0
40
32
1
BEAM 2 (HUZME 2)
50
0
7
STANDARD
72
1
11
-8300
21
8683.5
31
0
100
AcDbText
73
2
0
LINE
5
E324
330
E1C9
100
AcDbEntity
100
AcDbLine
8
EKP_MATSING_ANTEN
10
-8559.14
20
8990.5
30
0
11
-8040.86
21
8990.5
31
0
0
TEXT
5
E325
330
E1C9
100
AcDbEntity
100
AcDbText
8
EKP_MATSING_ANTEN
10
-8300
20
9010.5
30
0
40
32
1
BEAM 1 (HUZME 1)
50
0
7
STANDARD
72
1
11
-8300
21
9010.5
31
0
100
AcDbText
73
2
0
LWPOLYLINE
5
E336
330
E1C9
100
AcDbEntity
100
AcDbPolyline
8
EKP_MATSING_ANTEN
6
ByLayer
62
256
370
-1
90
4
70
1
10
-7308.5
20
7682.5
10
-7308.5
20
9317.5
10
-6691.5
20
9317.5
10
-6691.5
20
7682.5
0
LINE
5
E337
330
E1C9
100
AcDbEntity
100
AcDbLine
8
EKP_MATSING_ANTEN
10
-7278.5
20
7682.5
30
0
11
-7278.5
21
9317.5
31
0
0
LINE
5
E338
330
E1C9
100
AcDbEntity
100
AcDbLine
8
EKP_MATSING_ANTEN
10
-6721.5
20
7682.5
30
0
11
-6721.5
21
9317.5
31
0
0
CIRCLE
5
E339
330
E1C9
100
AcDbEntity
100
AcDbCircle
8
EKP_MATSING_ANTEN
10
-7000
20
8500
30
0
40
283.82
0
CIRCLE
5
E33A
330
E1C9
100
AcDbEntity
100
AcDbCircle
8
EKP_MATSING_ANTEN
10
-7000
20
8500
30
0
40
204.35039999999998
0
CIRCLE
5
E33B
330
E1C9
100
AcDbEntity
100
AcDbCircle
8
EKP_MATSING_ANTEN
10
-7000
20
8500
30
0
40
124.8808
0
LINE
5
E33C
330
E1C9
100
AcDbEntity
100
AcDbLine
8
EKP_MATSING_ANTEN
10
-7259.14
20
8009.5
30
0
11
-6740.86
21
8009.5
31
0
0
TEXT
5
E33D
330
E1C9
100
AcDbEntity
100
AcDbText
8
EKP_MATSING_ANTEN
10
-7000
20
8029.5
30
0
40
32
1
BEAM 4 (HUZME 4)
50
0
7
STANDARD
72
1
11
-7000
21
8029.5
31
0
100
AcDbText
73
2
0
LINE
5
E33E
330
E1C9
100
AcDbEntity
100
AcDbLine
8
EKP_MATSING_ANTEN
10
-7259.14
20
8336.5
30
0
11
-6740.86
21
8336.5
31
0
0
TEXT
5
E33F
330
E1C9
100
AcDbEntity
100
AcDbText
8
EKP_MATSING_ANTEN
10
-7000
20
8356.5
30
0
40
32
1
BEAM 3 (HUZME 3)
50
0
7
STANDARD
72
1
11
-7000
21
8356.5
31
0
100
AcDbText
73
2
0
LINE
5
E340
330
E1C9
100
AcDbEntity
100
AcDbLine
8
EKP_MATSING_ANTEN
10
-7259.14
20
8663.5
30
0
11
-6740.86
21
8663.5
31
0
0
TEXT
5
E341
330
E1C9
100
AcDbEntity
100
AcDbText
8
EKP_MATSING_ANTEN
10
-7000
20
8683.5
30
0
40
32
1
BEAM 2 (HUZME 2)
50
0
7
STANDARD
72
1
11
-7000
21
8683.5
31
0
100
AcDbText
73
2
0
LINE
5
E342
330
E1C9
100
AcDbEntity
100
AcDbLine
8
EKP_MATSING_ANTEN
10
-7259.14
20
8990.5
30
0
11
-6740.86
21
8990.5
31
0
0
TEXT
5
E343
330
E1C9
100
AcDbEntity
100
AcDbText
8
EKP_MATSING_ANTEN
10
-7000
20
9010.5
30
0
40
32
1
BEAM 1 (HUZME 1)
50
0
7
STANDARD
72
1
11
-7000
21
9010.5
31
0
100
AcDbText
73
2
0
LWPOLYLINE
5
E354
330
E1C9
100
AcDbEntity
100
AcDbPolyline
8
EKP_MATSING_ANTEN
6
ByLayer
62
256
370
-1
90
4
70
1
10
-6008.5
20
7682.5
10
-6008.5
20
9317.5
10
-5391.5
20
9317.5
10
-5391.5
20
7682.5
0
LINE
5
E355
330
E1C9
100
AcDbEntity
100
AcDbLine
8
EKP_MATSING_ANTEN
10
-5978.5
20
7682.5
30
0
11
-5978.5
21
9317.5
31
0
0
LINE
5
E356
330
E1C9
100
AcDbEntity
100
AcDbLine
8
EKP_MATSING_ANTEN
10
-5421.5
20
7682.5
30
0
11
-5421.5
21
9317.5
31
0
0
CIRCLE
5
E357
330
E1C9
100
AcDbEntity
100
AcDbCircle
8
EKP_MATSING_ANTEN
10
-5700
20
8500
30
0
40
283.82
0
CIRCLE
5
E358
330
E1C9
100
AcDbEntity
100
AcDbCircle
8
EKP_MATSING_ANTEN
10
-5700
20
8500
30
0
40
204.35039999999998
0
CIRCLE
5
E359
330
E1C9
100
AcDbEntity
100
AcDbCircle
8
EKP_MATSING_ANTEN
10
-5700
20
8500
30
0
40
124.8808
0
LINE
5
E35A
330
E1C9
100
AcDbEntity
100
AcDbLine
8
EKP_MATSING_ANTEN
10
-5959.14
20
8009.5
30
0
11
-5440.86
21
8009.5
31
0
0
TEXT
5
E35B
330
E1C9
100
AcDbEntity
100
AcDbText
8
EKP_MATSING_ANTEN
10
-5700
20
8029.5
30
0
40
32
1
BEAM 4 (HUZME 4)
50
0
7
STANDARD
72
1
11
-5700
21
8029.5
31
0
100
AcDbText
73
2
0
LINE
5
E35C
330
E1C9
100
AcDbEntity
100
AcDbLine
8
EKP_MATSING_ANTEN
10
-5959.14
20
8336.5
30
0
11
-5440.86
21
8336.5
31
0
0
TEXT
5
E35D
330
E1C9
100
AcDbEntity
100
AcDbText
8
EKP_MATSING_ANTEN
10
-5700
20
8356.5
30
0
40
32
1
BEAM 3 (HUZME 3)
50
0
7
STANDARD
72
1
11
-5700
21
8356.5
31
0
100
AcDbText
73
2
0
LINE
5
E35E
330
E1C9
100
AcDbEntity
100
AcDbLine
8
EKP_MATSING_ANTEN
10
-5959.14
20
8663.5
30
0
11
-5440.86
21
8663.5
31
0
0
TEXT
5
E35F
330
E1C9
100
AcDbEntity
100
AcDbText
8
EKP_MATSING_ANTEN
10
-5700
20
8683.5
30
0
40
32
1
BEAM 2 (HUZME 2)
50
0
7
STANDARD
72
1
11
-5700
21
8683.5
31
0
100
AcDbText
73
2
0
LINE
5
E360
330
E1C9
100
AcDbEntity
100
AcDbLine
8
EKP_MATSING_ANTEN
10
-5959.14
20
8990.5
30
0
11
-5440.86
21
8990.5
31
0
0
TEXT
5
E361
330
E1C9
100
AcDbEntity
100
AcDbText
8
EKP_MATSING_ANTEN
10
-5700
20
9010.5
30
0
40
32
1
BEAM 1 (HUZME 1)
50
0
7
STANDARD
72
1
11
-5700
21
9010.5
31
0
100
AcDbText
73
2
0
LINE
5
E386
330
E1C9
100
AcDbEntity
100
AcDbLine
8
EKP_MATSING_ANTEN
10
2681.125376822962
20
8485.43021548612
30
0
11
2932.2660916581203
21
8418.137263759463
31
0
0
LINE
5
E387
330
E1C9
100
AcDbEntity
100
AcDbLine
8
EKP_MATSING_ANTEN
10
2932.2660916581203
20
8418.137263759463
30
0
11
3151.2712797691725
21
8545.804712940695
31
0
0
LINE
5
E388
330
E1C9
100
AcDbEntity
100
AcDbLine
8
EKP_MATSING_ANTEN
10
3151.2712797691725
20
8545.804712940695
30
0
11
3184.138860801281
21
8966.45631268459
31
0
0
LINE
5
E389
330
E1C9
100
AcDbEntity
100
AcDbLine
8
EKP_MATSING_ANTEN
10
3184.138860801281
20
8966.45631268459
30
0
11
2993.3042657594588
21
9148.216260377209
31
0
0
LINE
5
E38A
330
E1C9
100
AcDbEntity
100
AcDbLine
8
EKP_MATSING_ANTEN
10
2993.3042657594588
20
9148.216260377209
30
0
11
2737.156684686015
21
9086.22482580578
31
0
0
LINE
5
E38B
330
E1C9
100
AcDbEntity
100
AcDbLine
8
EKP_MATSING_ANTEN
10
2737.156684686015
20
9086.22482580578
30
0
11
2555.2950449488176
21
8705.496063768951
31
0
0
LINE
5
E38C
330
E1C9
100
AcDbEntity
100
AcDbLine
8
EKP_MATSING_ANTEN
10
2555.2950449488176
20
8705.496063768951
30
0
11
2681.125376822962
21
8485.43021548612
31
0
0
CIRCLE
5
E38D
330
E1C9
100
AcDbEntity
100
AcDbCircle
8
EKP_MATSING_ANTEN
10
2900
20
8800
30
0
40
262.22499999999997
0
CIRCLE
5
E38E
330
E1C9
100
AcDbEntity
100
AcDbCircle
8
EKP_MATSING_ANTEN
10
2900
20
8800
30
0
40
169.675
0
LINE
5
E3A8
330
E1C9
100
AcDbEntity
100
AcDbLine
8
EKP_MATSING_ANTEN
10
3870
20
8139.5
30
0
11
4130
21
8139.5
31
0
0
LINE
5
E3A9
330
E1C9
100
AcDbEntity
100
AcDbLine
8
EKP_MATSING_ANTEN
10
4130
20
8139.5
30
0
11
4308.5
21
8319.5
31
0
0
LINE
5
E3AA
330
E1C9
100
AcDbEntity
100
AcDbLine
8
EKP_MATSING_ANTEN
10
4308.5
20
8319.5
30
0
11
4231.375
21
8734.325
31
0
0
LINE
5
E3AB
330
E1C9
100
AcDbEntity
100
AcDbLine
8
EKP_MATSING_ANTEN
10
4231.375
20
8734.325
30
0
11
4000
21
8860.5
31
0
0
LINE
5
E3AC
330
E1C9
100
AcDbEntity
100
AcDbLine
8
EKP_MATSING_ANTEN
10
4000
20
8860.5
30
0
11
3768.625
21
8734.325
31
0
0
LINE
5
E3AD
330
E1C9
100
AcDbEntity
100
AcDbLine
8
EKP_MATSING_ANTEN
10
3768.625
20
8734.325
30
0
11
3691.5
21
8319.5
31
0
0
LINE
5
E3AE
330
E1C9
100
AcDbEntity
100
AcDbLine
8
EKP_MATSING_ANTEN
10
3691.5
20
8319.5
30
0
11
3870
21
8139.5
31
0
0
CIRCLE
5
E3AF
330
E1C9
100
AcDbEntity
100
AcDbCircle
8
EKP_MATSING_ANTEN
10
4000
20
8500
30
0
40
262.22499999999997
0
CIRCLE
5
E3B0
330
E1C9
100
AcDbEntity
100
AcDbCircle
8
EKP_MATSING_ANTEN
10
4000
20
8500
30
0
40
169.675
0
LINE
5
E3CA
330
E1C9
100
AcDbEntity
100
AcDbLine
8
EKP_MATSING_ANTEN
10
5067.73390834188
20
8418.137263759463
30
0
11
5318.874623177037
21
8485.43021548612
31
0
0
LINE
5
E3CB
330
E1C9
100
AcDbEntity
100
AcDbLine
8
EKP_MATSING_ANTEN
10
5318.874623177037
20
8485.43021548612
30
0
11
5444.704955051183
21
8705.496063768951
31
0
0
LINE
5
E3CC
330
E1C9
100
AcDbEntity
100
AcDbLine
8
EKP_MATSING_ANTEN
10
5444.704955051183
20
8705.496063768951
30
0
11
5262.843315313985
21
9086.22482580578
31
0
0
LINE
5
E3CD
330
E1C9
100
AcDbEntity
100
AcDbLine
8
EKP_MATSING_ANTEN
10
5262.843315313985
20
9086.22482580578
30
0
11
5006.695734240541
21
9148.216260377209
31
0
0
LINE
5
E3CE
330
E1C9
100
AcDbEntity
100
AcDbLine
8
EKP_MATSING_ANTEN
10
5006.695734240541
20
9148.216260377209
30
0
11
4815.861139198718
21
8966.45631268459
31
0
0
LINE
5
E3CF
330
E1C9
100
AcDbEntity
100
AcDbLine
8
EKP_MATSING_ANTEN
10
4815.861139198718
20
8966.45631268459
30
0
11
4848.728720230828
21
8545.804712940695
31
0
0
LINE
5
E3D0
330
E1C9
100
AcDbEntity
100
AcDbLine
8
EKP_MATSING_ANTEN
10
4848.728720230828
20
8545.804712940695
30
0
11
5067.73390834188
21
8418.137263759463
31
0
0
CIRCLE
5
E3D1
330
E1C9
100
AcDbEntity
100
AcDbCircle
8
EKP_MATSING_ANTEN
10
5100
20
8800
30
0
40
262.22499999999997
0
CIRCLE
5
E3D2
330
E1C9
100
AcDbEntity
100
AcDbCircle
8
EKP_MATSING_ANTEN
10
5100
20
8800
30
0
40
169.675
0
LINE
5
E3EE
330
E1C9
100
AcDbEntity
100
AcDbLine
8
EKP_MATSING_ANTEN
10
-13648.567929750285
20
804.6875169902911
30
0
11
-13202.383550821574
21
358.50313806157965
31
0
0
LINE
5
E3EF
330
E1C9
100
AcDbEntity
100
AcDbLine
8
EKP_MATSING_ANTEN
10
-13202.383550821574
20
358.50313806157965
30
0
11
-13253.737180805247
21
236.43882995925188
31
0
0
LINE
5
E3F0
330
E1C9
100
AcDbEntity
100
AcDbLine
8
EKP_MATSING_ANTEN
10
-13253.737180805247
20
236.43882995925188
30
0
11
-13716.803734134788
21
-283.19626586521224
31
0
0
LINE
5
E3F1
330
E1C9
100
AcDbEntity
100
AcDbLine
8
EKP_MATSING_ANTEN
10
-13716.803734134788
20
-283.19626586521224
30
0
11
-14236.438829959252
21
-746.2628191947526
31
0
0
LINE
5
E3F2
330
E1C9
100
AcDbEntity
100
AcDbLine
8
EKP_MATSING_ANTEN
10
-14236.438829959252
20
-746.2628191947526
30
0
11
-14358.50313806158
21
-797.6164491784257
31
0
0
LINE
5
E3F3
330
E1C9
100
AcDbEntity
100
AcDbLine
8
EKP_MATSING_ANTEN
10
-14358.50313806158
20
-797.6164491784257
30
0
11
-14804.68751699029
21
-351.43207024971423
31
0
0
LINE
5
E3F4
330
E1C9
100
AcDbEntity
100
AcDbLine
8
EKP_MATSING_ANTEN
10
-14804.68751699029
20
-351.43207024971423
30
0
11
-14804.068798556753
21
-294.2448093212522
31
0
0
LINE
5
E3F5
330
E1C9
100
AcDbEntity
100
AcDbLine
8
EKP_MATSING_ANTEN
10
-14804.068798556753
20
-294.2448093212522
30
0
11
-13705.755190678748
21
804.0687985567529
31
0
0
LINE
5
E3F6
330
E1C9
100
AcDbEntity
100
AcDbLine
8
EKP_MATSING_ANTEN
10
-13705.755190678748
20
804.0687985567529
30
0
11
-13648.567929750285
21
804.6875169902911
31
0
0
LINE
5
E3F7
330
E1C9
100
AcDbEntity
100
AcDbLine
8
EKP_MATSING_ANTEN
10
-13525.708126519125
20
219.3798788631264
30
0
11
-13821.561603767575
21
-178.43839623242525
31
0
0
LINE
5
E3F8
330
E1C9
100
AcDbEntity
100
AcDbLine
8
EKP_MATSING_ANTEN
10
-13821.561603767575
20
-178.43839623242525
30
0
11
-14219.379878863127
21
-474.29187348087675
31
0
0
LINE
5
E43D
330
E1C9
100
AcDbEntity
100
AcDbLine
8
EKP_MATSING_ANTEN
10
-3648.567929750286
20
804.6875169902911
30
0
11
-3202.3835508215748
21
358.50313806157965
31
0
0
LINE
5
E43E
330
E1C9
100
AcDbEntity
100
AcDbLine
8
EKP_MATSING_ANTEN
10
-3202.3835508215748
20
358.50313806157965
30
0
11
-3253.7371808052476
21
236.43882995925188
31
0
0
LINE
5
E43F
330
E1C9
100
AcDbEntity
100
AcDbLine
8
EKP_MATSING_ANTEN
10
-3253.7371808052476
20
236.43882995925188
30
0
11
-3716.8037341347876
21
-283.19626586521224
31
0
0
LINE
5
E440
330
E1C9
100
AcDbEntity
100
AcDbLine
8
EKP_MATSING_ANTEN
10
-3716.8037341347876
20
-283.19626586521224
30
0
11
-4236.438829959252
21
-746.2628191947526
31
0
0
LINE
5
E441
330
E1C9
100
AcDbEntity
100
AcDbLine
8
EKP_MATSING_ANTEN
10
-4236.438829959252
20
-746.2628191947526
30
0
11
-4358.50313806158
21
-797.6164491784257
31
0
0
LINE
5
E442
330
E1C9
100
AcDbEntity
100
AcDbLine
8
EKP_MATSING_ANTEN
10
-4358.50313806158
20
-797.6164491784257
30
0
11
-4804.687516990291
21
-351.43207024971423
31
0
0
LINE
5
E443
330
E1C9
100
AcDbEntity
100
AcDbLine
8
EKP_MATSING_ANTEN
10
-4804.687516990291
20
-351.43207024971423
30
0
11
-4804.068798556753
21
-294.2448093212522
31
0
0
LINE
5
E444
330
E1C9
100
AcDbEntity
100
AcDbLine
8
EKP_MATSING_ANTEN
10
-4804.068798556753
20
-294.2448093212522
30
0
11
-3705.7551906787485
21
804.0687985567529
31
0
0
LINE
5
E445
330
E1C9
100
AcDbEntity
100
AcDbLine
8
EKP_MATSING_ANTEN
10
-3705.7551906787485
20
804.0687985567529
30
0
11
-3648.567929750286
21
804.6875169902911
31
0
0
LINE
5
E446
330
E1C9
100
AcDbEntity
100
AcDbLine
8
EKP_MATSING_ANTEN
10
-3525.708126519123
20
219.3798788631264
30
0
11
-3821.5616037675745
21
-178.43839623242525
31
0
0
LINE
5
E447
330
E1C9
100
AcDbEntity
100
AcDbLine
8
EKP_MATSING_ANTEN
10
-3821.5616037675745
20
-178.43839623242525
30
0
11
-4219.379878863127
21
-474.29187348087675
31
0
0
LINE
5
E48C
330
E1C9
100
AcDbEntity
100
AcDbLine
8
EKP_MATSING_ANTEN
10
6351.432070249714
20
804.6875169902911
30
0
11
6797.616449178426
21
358.50313806157965
31
0
0
LINE
5
E48D
330
E1C9
100
AcDbEntity
100
AcDbLine
8
EKP_MATSING_ANTEN
10
6797.616449178426
20
358.50313806157965
30
0
11
6746.262819194753
21
236.43882995925188
31
0
0
LINE
5
E48E
330
E1C9
100
AcDbEntity
100
AcDbLine
8
EKP_MATSING_ANTEN
10
6746.262819194753
20
236.43882995925188
30
0
11
6283.196265865212
21
-283.19626586521224
31
0
0
LINE
5
E48F
330
E1C9
100
AcDbEntity
100
AcDbLine
8
EKP_MATSING_ANTEN
10
6283.196265865212
20
-283.19626586521224
30
0
11
5763.561170040748
21
-746.2628191947526
31
0
0
LINE
5
E490
330
E1C9
100
AcDbEntity
100
AcDbLine
8
EKP_MATSING_ANTEN
10
5763.561170040748
20
-746.2628191947526
30
0
11
5641.49686193842
21
-797.6164491784257
31
0
0
LINE
5
E491
330
E1C9
100
AcDbEntity
100
AcDbLine
8
EKP_MATSING_ANTEN
10
5641.49686193842
20
-797.6164491784257
30
0
11
5195.312483009709
21
-351.43207024971423
31
0
0
LINE
5
E492
330
E1C9
100
AcDbEntity
100
AcDbLine
8
EKP_MATSING_ANTEN
10
5195.312483009709
20
-351.43207024971423
30
0
11
5195.931201443247
21
-294.2448093212522
31
0
0
LINE
5
E493
330
E1C9
100
AcDbEntity
100
AcDbLine
8
EKP_MATSING_ANTEN
10
5195.931201443247
20
-294.2448093212522
30
0
11
6294.2448093212515
21
804.0687985567529
31
0
0
LINE
5
E494
330
E1C9
100
AcDbEntity
100
AcDbLine
8
EKP_MATSING_ANTEN
10
6294.2448093212515
20
804.0687985567529
30
0
11
6351.432070249714
21
804.6875169902911
31
0
0
LINE
5
E495
330
E1C9
100
AcDbEntity
100
AcDbLine
8
EKP_MATSING_ANTEN
10
6474.291873480877
20
219.3798788631264
30
0
11
6178.4383962324255
21
-178.43839623242525
31
0
0
LINE
5
E496
330
E1C9
100
AcDbEntity
100
AcDbLine
8
EKP_MATSING_ANTEN
10
6178.4383962324255
20
-178.43839623242525
30
0
11
5780.620121136873
21
-474.29187348087675
31
0
0
ENDSEC
0
SECTION
2
OBJECTS
0
DICTIONARY
5
E1B7
330
0
100
AcDbDictionary
281
1
3
ACAD_GROUP
350
E1CD
0
DICTIONARY
5
E1CD
330
E1B7
100
AcDbDictionary
281
1
0
ENDSEC
0
EOF