0
SECTION
2
HEADER
9
$HANDSEED
5
FB84
9
$INSUNITS
70
4
9
$ACADVER
1
AC1021
9
$DWGCODEPAGE
3
UTF-8
0
ENDSEC
0
SECTION
2
CLASSES
0
ENDSEC
0
SECTION
2
TABLES
0
TABLE
2
LTYPE
5
FB82
330
0
100
AcDbSymbolTable
70
5
0
LTYPE
5
F856
330
FB82
100
AcDbSymbolTableRecord
100
AcDbLinetypeTableRecord
2
CONTINUOUS
3
______
70
0
72
65
73
0
40
0
0
LTYPE
5
F857
330
FB82
100
AcDbSymbolTableRecord
100
AcDbLinetypeTableRecord
2
DASHED
3
_ _ _ 
70
0
72
65
73
2
40
10
49
5
74
0
49
-5
74
0
0
LTYPE
5
F858
330
FB82
100
AcDbSymbolTableRecord
100
AcDbLinetypeTableRecord
2
DOTTED
3
. . . 
70
0
72
65
73
2
40
5
49
0
74
0
49
-5
74
0
0
LTYPE
5
F85A
330
FB82
100
AcDbSymbolTableRecord
100
AcDbLinetypeTableRecord
2
ByBlock
3

70
0
72
65
73
0
40
0
0
LTYPE
5
F85B
330
FB82
100
AcDbSymbolTableRecord
100
AcDbLinetypeTableRecord
2
ByLayer
3

70
0
72
65
73
0
40
0
0
ENDTAB
0
TABLE
2
LAYER
5
FB83
330
0
100
AcDbSymbolTable
70
21
0
LAYER
5
F859
330
FB83
100
AcDbSymbolTableRecord
100
AcDbLayerTableRecord
2
0
62
7
70
0
6
CONTINUOUS
390
1
0
LAYER
5
F86C
330
FB83
100
AcDbSymbolTableRecord
100
AcDbLayerTableRecord
2
ZEMIN_PLATFORM
62
8
70
0
6
CONTINUOUS
390
1
0
LAYER
5
F86D
330
FB83
100
AcDbSymbolTableRecord
100
AcDbLayerTableRecord
2
KORKULUK_KAPI
62
4
70
0
6
CONTINUOUS
390
1
0
LAYER
5
F86E
330
FB83
100
AcDbSymbolTableRecord
100
AcDbLayerTableRecord
2
CELIK_KIRIS_KOLON
62
9
70
0
6
CONTINUOUS
390
1
0
LAYER
5
F86F
330
FB83
100
AcDbSymbolTableRecord
100
AcDbLayerTableRecord
2
MONTAJ_BORULARI
62
2
70
0
6
CONTINUOUS
390
1
0
LAYER
5
F870
330
FB83
100
AcDbSymbolTableRecord
100
AcDbLayerTableRecord
2
KABLO_TAVALARI
62
6
70
0
6
CONTINUOUS
390
1
0
LAYER
5
F871
330
FB83
100
AcDbSymbolTableRecord
100
AcDbLayerTableRecord
2
YURUYUS_KORIDORU
62
3
70
0
6
DASHED
390
1
0
LAYER
5
F872
330
FB83
100
AcDbSymbolTableRecord
100
AcDbLayerTableRecord
2
OLCULER
62
1
70
0
6
CONTINUOUS
390
1
0
LAYER
5
F873
330
FB83
100
AcDbSymbolTableRecord
100
AcDbLayerTableRecord
2
METIN_BILGI
62
7
70
0
6
CONTINUOUS
390
1
0
LAYER
5
F874
330
FB83
100
AcDbSymbolTableRecord
100
AcDbLayerTableRecord
2
EKP_TURKCELL_RRU
62
5
70
0
6
CONTINUOUS
390
1
0
LAYER
5
F875
330
FB83
100
AcDbSymbolTableRecord
100
AcDbLayerTableRecord
2
EKP_VODAFONE_RRU
62
1
70
0
6
CONTINUOUS
390
1
0
LAYER
5
F876
330
FB83
100
AcDbSymbolTableRecord
100
AcDbLayerTableRecord
2
EKP_TURK_TELEKOM_RRU
62
4
70
0
6
CONTINUOUS
390
1
0
LAYER
5
F877
330
FB83
100
AcDbSymbolTableRecord
100
AcDbLayerTableRecord
2
EKP_POI_TASIYICI_SASE
62
30
70
0
6
CONTINUOUS
390
1
0
LAYER
5
F878
330
FB83
100
AcDbSymbolTableRecord
100
AcDbLayerTableRecord
2
EKP_POI_MODULLERI
62
40
70
0
6
CONTINUOUS
390
1
0
LAYER
5
F879
330
FB83
100
AcDbSymbolTableRecord
100
AcDbLayerTableRecord
2
EKP_RECTIFIER_ELTEK_20U
62
3
70
0
6
CONTINUOUS
390
1
0
LAYER
5
F87A
330
FB83
100
AcDbSymbolTableRecord
100
AcDbLayerTableRecord
2
EKP_RECTIFIER_MTS9304A
62
94
70
0
6
CONTINUOUS
390
1
0
LAYER
5
F87B
330
FB83
100
AcDbSymbolTableRecord
100
AcDbLayerTableRecord
2
BLOK_OZEL_PLATFORM
62
140
70
0
6
CONTINUOUS
390
1
0
LAYER
5
F87C
330
FB83
100
AcDbSymbolTableRecord
100
AcDbLayerTableRecord
2
EKP_MATSING_ANTEN
62
2
70
0
6
CONTINUOUS
390
1
0
LAYER
5
F87D
330
FB83
100
AcDbSymbolTableRecord
100
AcDbLayerTableRecord
2
EKP_PANEL_ANTEN
62
6
70
0
6
CONTINUOUS
390
1
0
LAYER
5
F87E
330
FB83
100
AcDbSymbolTableRecord
100
AcDbLayerTableRecord
2
EKP_ANTEN_TASIYICI_KOL
62
141
70
0
6
CONTINUOUS
390
1
0
LAYER
5
F87F
330
FB83
100
AcDbSymbolTableRecord
100
AcDbLayerTableRecord
2
EKP_DIGER_EKIPMANLAR
62
7
70
0
6
CONTINUOUS
390
1
0
ENDTAB
0
TABLE
2
VPORT
5
F85C
330
0
100
AcDbSymbolTable
70
1
0
VPORT
5
F862
330
F85C
100
AcDbSymbolTableRecord
100
AcDbViewportTableRecord
2
*ACTIVE
40
1000
70
0
0
ENDTAB
0
TABLE
2
STYLE
5
F85D
330
0
100
AcDbSymbolTable
70
3
0
STYLE
5
F863
330
F85D
100
AcDbSymbolTableRecord
100
AcDbTextStyleTableRecord
2
standard
70
0
40
0
41
1
50
0
71
0
42
1
3
calibrib.ttf
4

1001
ACAD
1000
Calibri
1071
33554466
0
STYLE
5
F864
330
F85D
100
AcDbSymbolTableRecord
100
AcDbTextStyleTableRecord
2
STANDARD
70
0
40
0
41
1
50
0
71
0
42
1
3
calibrib.ttf
4

1001
ACAD
1000
Calibri
1071
33554466
0
STYLE
5
F865
330
F85D
100
AcDbSymbolTableRecord
100
AcDbTextStyleTableRecord
2
CALIBRI_BOLD
70
0
40
0
41
1
50
0
71
0
42
1
3
calibrib.ttf
4

1001
ACAD
1000
Calibri
1071
33554466
0
ENDTAB
0
TABLE
2
VIEW
5
F85E
330
0
100
AcDbSymbolTable
70
0
0
ENDTAB
0
TABLE
2
UCS
5
F85F
330
0
100
AcDbSymbolTable
70
0
0
ENDTAB
0
TABLE
2
APPID
5
F860
330
0
100
AcDbSymbolTable
70
1
0
APPID
5
F866
330
F860
100
AcDbSymbolTableRecord
100
AcDbRegAppTableRecord
2
ACAD
70
0
0
ENDTAB
0
TABLE
2
DIMSTYLE
5
F861
330
0
100
AcDbSymbolTable
100
AcDbDimStyleTable
70
0
71
1
0
ENDTAB
0
TABLE
2
BLOCK_RECORD
5
FB7F
330
0
100
AcDbSymbolTable
70
2
0
BLOCK_RECORD
5
FB80
330
FB7F
100
AcDbSymbolTableRecord
100
AcDbBlockTableRecord
2
*Model_Space
70
0
280
0
281
1
0
BLOCK_RECORD
5
FB81
330
FB7F
100
AcDbSymbolTableRecord
100
AcDbBlockTableRecord
2
*Paper_Space
70
0
280
0
281
1
0
ENDTAB
0
ENDSEC
0
SECTION
2
BLOCKS
0
BLOCK
5
F867
330
0
100
AcDbEntity
100
AcDbBlockBegin
2
*Model_Space
70
0
10
0
20
0
30
0
3
*Model_Space
1

0
ENDBLK
5
F868
330
0
100
AcDbEntity
100
AcDbBlockEnd
0
BLOCK
5
F869
330
0
100
AcDbEntity
100
AcDbBlockBegin
2
*Paper_Space
70
0
10
0
20
0
30
0
3
*Paper_Space
1

0
ENDBLK
5
F86A
330
0
100
AcDbEntity
100
AcDbBlockEnd
0
ENDSEC
0
SECTION
2
ENTITIES
0
3DFACE
5
F88D
330
F867
100
AcDbEntity
100
AcDbFace
8
CELIK_KIRIS_KOLON
10
-14070
20
238.64853865045978
30
-83.08504678941937
11
-13930
21
238.64853865045978
31
-83.08504678941937
12
-13930
22
-83.08504678941932
32
238.64853865045978
13
-14070
23
-83.08504678941932
33
238.64853865045978
0
3DFACE
5
F88E
330
F867
100
AcDbEntity
100
AcDbFace
8
CELIK_KIRIS_KOLON
10
-14061
20
98.99494936611666
30
56.56854249492379
11
-14049
21
98.99494936611666
31
56.56854249492379
12
-14049
22
234.05234457274724
32
276.47875144394004
13
-14061
23
234.05234457274724
33
276.47875144394004
0
3DFACE
5
F88F
330
F867
100
AcDbEntity
100
AcDbFace
8
CELIK_KIRIS_KOLON
10
-13951
20
98.99494936611666
30
56.56854249492379
11
-13939
21
98.99494936611666
31
56.56854249492379
12
-13939
22
234.05234457274724
32
276.47875144394004
13
-13951
23
234.05234457274724
33
276.47875144394004
0
3DFACE
5
F8BC
330
F867
100
AcDbEntity
100
AcDbFace
8
CELIK_KIRIS_KOLON
10
-14065
20
371.56772670457445
30
109.33161594775356
11
-13935
21
371.56772670457445
31
109.33161594775356
12
-13935
22
501.56772670457445
32
109.33161594775356
13
-14065
23
501.56772670457445
33
109.33161594775356
0
3DFACE
5
F8BD
330
F867
100
AcDbEntity
100
AcDbFace
8
CELIK_KIRIS_KOLON
10
-14065
20
371.56772670457445
30
219.33161594775356
11
-13935
21
371.56772670457445
31
219.33161594775356
12
-13935
22
501.56772670457445
32
219.33161594775356
13
-14065
23
501.56772670457445
33
219.33161594775356
0
3DFACE
5
F8BE
330
F867
100
AcDbEntity
100
AcDbFace
8
CELIK_KIRIS_KOLON
10
-14065
20
371.56772670457445
30
109.33161594775356
11
-13935
21
371.56772670457445
31
109.33161594775356
12
-13935
22
371.56772670457445
32
219.33161594775356
13
-14065
23
371.56772670457445
33
219.33161594775356
0
3DFACE
5
F8BF
330
F867
100
AcDbEntity
100
AcDbFace
8
CELIK_KIRIS_KOLON
10
-14065
20
501.56772670457445
30
109.33161594775356
11
-13935
21
501.56772670457445
31
109.33161594775356
12
-13935
22
501.56772670457445
32
219.33161594775356
13
-14065
23
501.56772670457445
33
219.33161594775356
0
3DFACE
5
F8C0
330
F867
100
AcDbEntity
100
AcDbFace
8
CELIK_KIRIS_KOLON
10
-14065
20
371.56772670457445
30
109.33161594775356
11
-14065
21
501.56772670457445
31
109.33161594775356
12
-14065
22
501.56772670457445
32
219.33161594775356
13
-14065
23
371.56772670457445
33
219.33161594775356
0
3DFACE
5
F8C1
330
F867
100
AcDbEntity
100
AcDbFace
8
CELIK_KIRIS_KOLON
10
-13935
20
371.56772670457445
30
109.33161594775356
11
-13935
21
501.56772670457445
31
109.33161594775356
12
-13935
22
501.56772670457445
32
219.33161594775356
13
-13935
23
371.56772670457445
33
219.33161594775356
0
LINE
5
F8C2
330
F867
100
AcDbEntity
100
AcDbLine
8
CELIK_KIRIS_KOLON
10
-14065
20
371.56772670457445
30
109.33161594775356
11
-13935
21
371.56772670457445
31
109.33161594775356
0
LINE
5
F8C3
330
F867
100
AcDbEntity
100
AcDbLine
8
CELIK_KIRIS_KOLON
10
-13935
20
371.56772670457445
30
109.33161594775356
11
-13935
21
501.56772670457445
31
109.33161594775356
0
LINE
5
F8C4
330
F867
100
AcDbEntity
100
AcDbLine
8
CELIK_KIRIS_KOLON
10
-13935
20
501.56772670457445
30
109.33161594775356
11
-14065
21
501.56772670457445
31
109.33161594775356
0
LINE
5
F8C5
330
F867
100
AcDbEntity
100
AcDbLine
8
CELIK_KIRIS_KOLON
10
-14065
20
501.56772670457445
30
109.33161594775356
11
-14065
21
371.56772670457445
31
109.33161594775356
0
LINE
5
F8C6
330
F867
100
AcDbEntity
100
AcDbLine
8
CELIK_KIRIS_KOLON
10
-14065
20
371.56772670457445
30
219.33161594775356
11
-13935
21
371.56772670457445
31
219.33161594775356
0
LINE
5
F8C7
330
F867
100
AcDbEntity
100
AcDbLine
8
CELIK_KIRIS_KOLON
10
-13935
20
371.56772670457445
30
219.33161594775356
11
-13935
21
501.56772670457445
31
219.33161594775356
0
LINE
5
F8C8
330
F867
100
AcDbEntity
100
AcDbLine
8
CELIK_KIRIS_KOLON
10
-13935
20
501.56772670457445
30
219.33161594775356
11
-14065
21
501.56772670457445
31
219.33161594775356
0
LINE
5
F8C9
330
F867
100
AcDbEntity
100
AcDbLine
8
CELIK_KIRIS_KOLON
10
-14065
20
501.56772670457445
30
219.33161594775356
11
-14065
21
371.56772670457445
31
219.33161594775356
0
LINE
5
F8CA
330
F867
100
AcDbEntity
100
AcDbLine
8
CELIK_KIRIS_KOLON
10
-14065
20
371.56772670457445
30
109.33161594775356
11
-14065
21
371.56772670457445
31
219.33161594775356
0
LINE
5
F8CB
330
F867
100
AcDbEntity
100
AcDbLine
8
CELIK_KIRIS_KOLON
10
-13935
20
371.56772670457445
30
109.33161594775356
11
-13935
21
371.56772670457445
31
219.33161594775356
0
LINE
5
F8CC
330
F867
100
AcDbEntity
100
AcDbLine
8
CELIK_KIRIS_KOLON
10
-13935
20
501.56772670457445
30
109.33161594775356
11
-13935
21
501.56772670457445
31
219.33161594775356
0
LINE
5
F8CD
330
F867
100
AcDbEntity
100
AcDbLine
8
CELIK_KIRIS_KOLON
10
-14065
20
501.56772670457445
30
109.33161594775356
11
-14065
21
501.56772670457445
31
219.33161594775356
0
3DFACE
5
F8CE
330
F867
100
AcDbEntity
100
AcDbFace
8
CELIK_KIRIS_KOLON
10
-14065
20
99.33161594775362
30
381.5677267045744
11
-13935
21
99.33161594775362
31
381.5677267045744
12
-13935
22
229.33161594775362
32
381.5677267045744
13
-14065
23
229.33161594775362
33
381.5677267045744
0
3DFACE
5
F8CF
330
F867
100
AcDbEntity
100
AcDbFace
8
CELIK_KIRIS_KOLON
10
-14065
20
99.33161594775362
30
491.5677267045744
11
-13935
21
99.33161594775362
31
491.5677267045744
12
-13935
22
229.33161594775362
32
491.5677267045744
13
-14065
23
229.33161594775362
33
491.5677267045744
0
3DFACE
5
F8D0
330
F867
100
AcDbEntity
100
AcDbFace
8
CELIK_KIRIS_KOLON
10
-14065
20
99.33161594775362
30
381.5677267045744
11
-13935
21
99.33161594775362
31
381.5677267045744
12
-13935
22
99.33161594775362
32
491.5677267045744
13
-14065
23
99.33161594775362
33
491.5677267045744
0
3DFACE
5
F8D1
330
F867
100
AcDbEntity
100
AcDbFace
8
CELIK_KIRIS_KOLON
10
-14065
20
229.33161594775362
30
381.5677267045744
11
-13935
21
229.33161594775362
31
381.5677267045744
12
-13935
22
229.33161594775362
32
491.5677267045744
13
-14065
23
229.33161594775362
33
491.5677267045744
0
3DFACE
5
F8D2
330
F867
100
AcDbEntity
100
AcDbFace
8
CELIK_KIRIS_KOLON
10
-14065
20
99.33161594775362
30
381.5677267045744
11
-14065
21
229.33161594775362
31
381.5677267045744
12
-14065
22
229.33161594775362
32
491.5677267045744
13
-14065
23
99.33161594775362
33
491.5677267045744
0
3DFACE
5
F8D3
330
F867
100
AcDbEntity
100
AcDbFace
8
CELIK_KIRIS_KOLON
10
-13935
20
99.33161594775362
30
381.5677267045744
11
-13935
21
229.33161594775362
31
381.5677267045744
12
-13935
22
229.33161594775362
32
491.5677267045744
13
-13935
23
99.33161594775362
33
491.5677267045744
0
LINE
5
F8D4
330
F867
100
AcDbEntity
100
AcDbLine
8
CELIK_KIRIS_KOLON
10
-14065
20
99.33161594775362
30
381.5677267045744
11
-13935
21
99.33161594775362
31
381.5677267045744
0
LINE
5
F8D5
330
F867
100
AcDbEntity
100
AcDbLine
8
CELIK_KIRIS_KOLON
10
-13935
20
99.33161594775362
30
381.5677267045744
11
-13935
21
229.33161594775362
31
381.5677267045744
0
LINE
5
F8D6
330
F867
100
AcDbEntity
100
AcDbLine
8
CELIK_KIRIS_KOLON
10
-13935
20
229.33161594775362
30
381.5677267045744
11
-14065
21
229.33161594775362
31
381.5677267045744
0
LINE
5
F8D7
330
F867
100
AcDbEntity
100
AcDbLine
8
CELIK_KIRIS_KOLON
10
-14065
20
229.33161594775362
30
381.5677267045744
11
-14065
21
99.33161594775362
31
381.5677267045744
0
LINE
5
F8D8
330
F867
100
AcDbEntity
100
AcDbLine
8
CELIK_KIRIS_KOLON
10
-14065
20
99.33161594775362
30
491.5677267045744
11
-13935
21
99.33161594775362
31
491.5677267045744
0
LINE
5
F8D9
330
F867
100
AcDbEntity
100
AcDbLine
8
CELIK_KIRIS_KOLON
10
-13935
20
99.33161594775362
30
491.5677267045744
11
-13935
21
229.33161594775362
31
491.5677267045744
0
LINE
5
F8DA
330
F867
100
AcDbEntity
100
AcDbLine
8
CELIK_KIRIS_KOLON
10
-13935
20
229.33161594775362
30
491.5677267045744
11
-14065
21
229.33161594775362
31
491.5677267045744
0
LINE
5
F8DB
330
F867
100
AcDbEntity
100
AcDbLine
8
CELIK_KIRIS_KOLON
10
-14065
20
229.33161594775362
30
491.5677267045744
11
-14065
21
99.33161594775362
31
491.5677267045744
0
LINE
5
F8DC
330
F867
100
AcDbEntity
100
AcDbLine
8
CELIK_KIRIS_KOLON
10
-14065
20
99.33161594775362
30
381.5677267045744
11
-14065
21
99.33161594775362
31
491.5677267045744
0
LINE
5
F8DD
330
F867
100
AcDbEntity
100
AcDbLine
8
CELIK_KIRIS_KOLON
10
-13935
20
99.33161594775362
30
381.5677267045744
11
-13935
21
99.33161594775362
31
491.5677267045744
0
LINE
5
F8DE
330
F867
100
AcDbEntity
100
AcDbLine
8
CELIK_KIRIS_KOLON
10
-13935
20
229.33161594775362
30
381.5677267045744
11
-13935
21
229.33161594775362
31
491.5677267045744
0
LINE
5
F8DF
330
F867
100
AcDbEntity
100
AcDbLine
8
CELIK_KIRIS_KOLON
10
-14065
20
229.33161594775362
30
381.5677267045744
11
-14065
21
229.33161594775362
31
491.5677267045744
0
3DFACE
5
F8EE
330
F867
100
AcDbEntity
100
AcDbFace
8
CELIK_KIRIS_KOLON
10
-4570
20
238.64853865045978
30
-83.08504678941937
11
-4430
21
238.64853865045978
31
-83.08504678941937
12
-4430
22
-83.08504678941932
32
238.64853865045978
13
-4570
23
-83.08504678941932
33
238.64853865045978
0
3DFACE
5
F8EF
330
F867
100
AcDbEntity
100
AcDbFace
8
CELIK_KIRIS_KOLON
10
-4561
20
98.99494936611666
30
56.56854249492379
11
-4549
21
98.99494936611666
31
56.56854249492379
12
-4549
22
234.05234457274724
32
276.47875144394004
13
-4561
23
234.05234457274724
33
276.47875144394004
0
3DFACE
5
F8F0
330
F867
100
AcDbEntity
100
AcDbFace
8
CELIK_KIRIS_KOLON
10
-4451
20
98.99494936611666
30
56.56854249492379
11
-4439
21
98.99494936611666
31
56.56854249492379
12
-4439
22
234.05234457274724
32
276.47875144394004
13
-4451
23
234.05234457274724
33
276.47875144394004
0
3DFACE
5
F91D
330
F867
100
AcDbEntity
100
AcDbFace
8
CELIK_KIRIS_KOLON
10
-4565
20
371.56772670457445
30
109.33161594775356
11
-4435
21
371.56772670457445
31
109.33161594775356
12
-4435
22
501.56772670457445
32
109.33161594775356
13
-4565
23
501.56772670457445
33
109.33161594775356
0
3DFACE
5
F91E
330
F867
100
AcDbEntity
100
AcDbFace
8
CELIK_KIRIS_KOLON
10
-4565
20
371.56772670457445
30
219.33161594775356
11
-4435
21
371.56772670457445
31
219.33161594775356
12
-4435
22
501.56772670457445
32
219.33161594775356
13
-4565
23
501.56772670457445
33
219.33161594775356
0
3DFACE
5
F91F
330
F867
100
AcDbEntity
100
AcDbFace
8
CELIK_KIRIS_KOLON
10
-4565
20
371.56772670457445
30
109.33161594775356
11
-4435
21
371.56772670457445
31
109.33161594775356
12
-4435
22
371.56772670457445
32
219.33161594775356
13
-4565
23
371.56772670457445
33
219.33161594775356
0
3DFACE
5
F920
330
F867
100
AcDbEntity
100
AcDbFace
8
CELIK_KIRIS_KOLON
10
-4565
20
501.56772670457445
30
109.33161594775356
11
-4435
21
501.56772670457445
31
109.33161594775356
12
-4435
22
501.56772670457445
32
219.33161594775356
13
-4565
23
501.56772670457445
33
219.33161594775356
0
3DFACE
5
F921
330
F867
100
AcDbEntity
100
AcDbFace
8
CELIK_KIRIS_KOLON
10
-4565
20
371.56772670457445
30
109.33161594775356
11
-4565
21
501.56772670457445
31
109.33161594775356
12
-4565
22
501.56772670457445
32
219.33161594775356
13
-4565
23
371.56772670457445
33
219.33161594775356
0
3DFACE
5
F922
330
F867
100
AcDbEntity
100
AcDbFace
8
CELIK_KIRIS_KOLON
10
-4435
20
371.56772670457445
30
109.33161594775356
11
-4435
21
501.56772670457445
31
109.33161594775356
12
-4435
22
501.56772670457445
32
219.33161594775356
13
-4435
23
371.56772670457445
33
219.33161594775356
0
LINE
5
F923
330
F867
100
AcDbEntity
100
AcDbLine
8
CELIK_KIRIS_KOLON
10
-4565
20
371.56772670457445
30
109.33161594775356
11
-4435
21
371.56772670457445
31
109.33161594775356
0
LINE
5
F924
330
F867
100
AcDbEntity
100
AcDbLine
8
CELIK_KIRIS_KOLON
10
-4435
20
371.56772670457445
30
109.33161594775356
11
-4435
21
501.56772670457445
31
109.33161594775356
0
LINE
5
F925
330
F867
100
AcDbEntity
100
AcDbLine
8
CELIK_KIRIS_KOLON
10
-4435
20
501.56772670457445
30
109.33161594775356
11
-4565
21
501.56772670457445
31
109.33161594775356
0
LINE
5
F926
330
F867
100
AcDbEntity
100
AcDbLine
8
CELIK_KIRIS_KOLON
10
-4565
20
501.56772670457445
30
109.33161594775356
11
-4565
21
371.56772670457445
31
109.33161594775356
0
LINE
5
F927
330
F867
100
AcDbEntity
100
AcDbLine
8
CELIK_KIRIS_KOLON
10
-4565
20
371.56772670457445
30
219.33161594775356
11
-4435
21
371.56772670457445
31
219.33161594775356
0
LINE
5
F928
330
F867
100
AcDbEntity
100
AcDbLine
8
CELIK_KIRIS_KOLON
10
-4435
20
371.56772670457445
30
219.33161594775356
11
-4435
21
501.56772670457445
31
219.33161594775356
0
LINE
5
F929
330
F867
100
AcDbEntity
100
AcDbLine
8
CELIK_KIRIS_KOLON
10
-4435
20
501.56772670457445
30
219.33161594775356
11
-4565
21
501.56772670457445
31
219.33161594775356
0
LINE
5
F92A
330
F867
100
AcDbEntity
100
AcDbLine
8
CELIK_KIRIS_KOLON
10
-4565
20
501.56772670457445
30
219.33161594775356
11
-4565
21
371.56772670457445
31
219.33161594775356
0
LINE
5
F92B
330
F867
100
AcDbEntity
100
AcDbLine
8
CELIK_KIRIS_KOLON
10
-4565
20
371.56772670457445
30
109.33161594775356
11
-4565
21
371.56772670457445
31
219.33161594775356
0
LINE
5
F92C
330
F867
100
AcDbEntity
100
AcDbLine
8
CELIK_KIRIS_KOLON
10
-4435
20
371.56772670457445
30
109.33161594775356
11
-4435
21
371.56772670457445
31
219.33161594775356
0
LINE
5
F92D
330
F867
100
AcDbEntity
100
AcDbLine
8
CELIK_KIRIS_KOLON
10
-4435
20
501.56772670457445
30
109.33161594775356
11
-4435
21
501.56772670457445
31
219.33161594775356
0
LINE
5
F92E
330
F867
100
AcDbEntity
100
AcDbLine
8
CELIK_KIRIS_KOLON
10
-4565
20
501.56772670457445
30
109.33161594775356
11
-4565
21
501.56772670457445
31
219.33161594775356
0
3DFACE
5
F92F
330
F867
100
AcDbEntity
100
AcDbFace
8
CELIK_KIRIS_KOLON
10
-4565
20
99.33161594775362
30
381.5677267045744
11
-4435
21
99.33161594775362
31
381.5677267045744
12
-4435
22
229.33161594775362
32
381.5677267045744
13
-4565
23
229.33161594775362
33
381.5677267045744
0
3DFACE
5
F930
330
F867
100
AcDbEntity
100
AcDbFace
8
CELIK_KIRIS_KOLON
10
-4565
20
99.33161594775362
30
491.5677267045744
11
-4435
21
99.33161594775362
31
491.5677267045744
12
-4435
22
229.33161594775362
32
491.5677267045744
13
-4565
23
229.33161594775362
33
491.5677267045744
0
3DFACE
5
F931
330
F867
100
AcDbEntity
100
AcDbFace
8
CELIK_KIRIS_KOLON
10
-4565
20
99.33161594775362
30
381.5677267045744
11
-4435
21
99.33161594775362
31
381.5677267045744
12
-4435
22
99.33161594775362
32
491.5677267045744
13
-4565
23
99.33161594775362
33
491.5677267045744
0
3DFACE
5
F932
330
F867
100
AcDbEntity
100
AcDbFace
8
CELIK_KIRIS_KOLON
10
-4565
20
229.33161594775362
30
381.5677267045744
11
-4435
21
229.33161594775362
31
381.5677267045744
12
-4435
22
229.33161594775362
32
491.5677267045744
13
-4565
23
229.33161594775362
33
491.5677267045744
0
3DFACE
5
F933
330
F867
100
AcDbEntity
100
AcDbFace
8
CELIK_KIRIS_KOLON
10
-4565
20
99.33161594775362
30
381.5677267045744
11
-4565
21
229.33161594775362
31
381.5677267045744
12
-4565
22
229.33161594775362
32
491.5677267045744
13
-4565
23
99.33161594775362
33
491.5677267045744
0
3DFACE
5
F934
330
F867
100
AcDbEntity
100
AcDbFace
8
CELIK_KIRIS_KOLON
10
-4435
20
99.33161594775362
30
381.5677267045744
11
-4435
21
229.33161594775362
31
381.5677267045744
12
-4435
22
229.33161594775362
32
491.5677267045744
13
-4435
23
99.33161594775362
33
491.5677267045744
0
LINE
5
F935
330
F867
100
AcDbEntity
100
AcDbLine
8
CELIK_KIRIS_KOLON
10
-4565
20
99.33161594775362
30
381.5677267045744
11
-4435
21
99.33161594775362
31
381.5677267045744
0
LINE
5
F936
330
F867
100
AcDbEntity
100
AcDbLine
8
CELIK_KIRIS_KOLON
10
-4435
20
99.33161594775362
30
381.5677267045744
11
-4435
21
229.33161594775362
31
381.5677267045744
0
LINE
5
F937
330
F867
100
AcDbEntity
100
AcDbLine
8
CELIK_KIRIS_KOLON
10
-4435
20
229.33161594775362
30
381.5677267045744
11
-4565
21
229.33161594775362
31
381.5677267045744
0
LINE
5
F938
330
F867
100
AcDbEntity
100
AcDbLine
8
CELIK_KIRIS_KOLON
10
-4565
20
229.33161594775362
30
381.5677267045744
11
-4565
21
99.33161594775362
31
381.5677267045744
0
LINE
5
F939
330
F867
100
AcDbEntity
100
AcDbLine
8
CELIK_KIRIS_KOLON
10
-4565
20
99.33161594775362
30
491.5677267045744
11
-4435
21
99.33161594775362
31
491.5677267045744
0
LINE
5
F93A
330
F867
100
AcDbEntity
100
AcDbLine
8
CELIK_KIRIS_KOLON
10
-4435
20
99.33161594775362
30
491.5677267045744
11
-4435
21
229.33161594775362
31
491.5677267045744
0
LINE
5
F93B
330
F867
100
AcDbEntity
100
AcDbLine
8
CELIK_KIRIS_KOLON
10
-4435
20
229.33161594775362
30
491.5677267045744
11
-4565
21
229.33161594775362
31
491.5677267045744
0
LINE
5
F93C
330
F867
100
AcDbEntity
100
AcDbLine
8
CELIK_KIRIS_KOLON
10
-4565
20
229.33161594775362
30
491.5677267045744
11
-4565
21
99.33161594775362
31
491.5677267045744
0
LINE
5
F93D
330
F867
100
AcDbEntity
100
AcDbLine
8
CELIK_KIRIS_KOLON
10
-4565
20
99.33161594775362
30
381.5677267045744
11
-4565
21
99.33161594775362
31
491.5677267045744
0
LINE
5
F93E
330
F867
100
AcDbEntity
100
AcDbLine
8
CELIK_KIRIS_KOLON
10
-4435
20
99.33161594775362
30
381.5677267045744
11
-4435
21
99.33161594775362
31
491.5677267045744
0
LINE
5
F93F
330
F867
100
AcDbEntity
100
AcDbLine
8
CELIK_KIRIS_KOLON
10
-4435
20
229.33161594775362
30
381.5677267045744
11
-4435
21
229.33161594775362
31
491.5677267045744
0
LINE
5
F940
330
F867
100
AcDbEntity
100
AcDbLine
8
CELIK_KIRIS_KOLON
10
-4565
20
229.33161594775362
30
381.5677267045744
11
-4565
21
229.33161594775362
31
491.5677267045744
0
3DFACE
5
F94F
330
F867
100
AcDbEntity
100
AcDbFace
8
CELIK_KIRIS_KOLON
10
-3570
20
238.64853865045978
30
-83.08504678941937
11
-3430
21
238.64853865045978
31
-83.08504678941937
12
-3430
22
-83.08504678941932
32
238.64853865045978
13
-3570
23
-83.08504678941932
33
238.64853865045978
0
3DFACE
5
F950
330
F867
100
AcDbEntity
100
AcDbFace
8
CELIK_KIRIS_KOLON
10
-3561
20
98.99494936611666
30
56.56854249492379
11
-3549
21
98.99494936611666
31
56.56854249492379
12
-3549
22
234.05234457274724
32
276.47875144394004
13
-3561
23
234.05234457274724
33
276.47875144394004
0
3DFACE
5
F951
330
F867
100
AcDbEntity
100
AcDbFace
8
CELIK_KIRIS_KOLON
10
-3451
20
98.99494936611666
30
56.56854249492379
11
-3439
21
98.99494936611666
31
56.56854249492379
12
-3439
22
234.05234457274724
32
276.47875144394004
13
-3451
23
234.05234457274724
33
276.47875144394004
0
3DFACE
5
F97E
330
F867
100
AcDbEntity
100
AcDbFace
8
CELIK_KIRIS_KOLON
10
-3565
20
371.56772670457445
30
109.33161594775356
11
-3435
21
371.56772670457445
31
109.33161594775356
12
-3435
22
501.56772670457445
32
109.33161594775356
13
-3565
23
501.56772670457445
33
109.33161594775356
0
3DFACE
5
F97F
330
F867
100
AcDbEntity
100
AcDbFace
8
CELIK_KIRIS_KOLON
10
-3565
20
371.56772670457445
30
219.33161594775356
11
-3435
21
371.56772670457445
31
219.33161594775356
12
-3435
22
501.56772670457445
32
219.33161594775356
13
-3565
23
501.56772670457445
33
219.33161594775356
0
3DFACE
5
F980
330
F867
100
AcDbEntity
100
AcDbFace
8
CELIK_KIRIS_KOLON
10
-3565
20
371.56772670457445
30
109.33161594775356
11
-3435
21
371.56772670457445
31
109.33161594775356
12
-3435
22
371.56772670457445
32
219.33161594775356
13
-3565
23
371.56772670457445
33
219.33161594775356
0
3DFACE
5
F981
330
F867
100
AcDbEntity
100
AcDbFace
8
CELIK_KIRIS_KOLON
10
-3565
20
501.56772670457445
30
109.33161594775356
11
-3435
21
501.56772670457445
31
109.33161594775356
12
-3435
22
501.56772670457445
32
219.33161594775356
13
-3565
23
501.56772670457445
33
219.33161594775356
0
3DFACE
5
F982
330
F867
100
AcDbEntity
100
AcDbFace
8
CELIK_KIRIS_KOLON
10
-3565
20
371.56772670457445
30
109.33161594775356
11
-3565
21
501.56772670457445
31
109.33161594775356
12
-3565
22
501.56772670457445
32
219.33161594775356
13
-3565
23
371.56772670457445
33
219.33161594775356
0
3DFACE
5
F983
330
F867
100
AcDbEntity
100
AcDbFace
8
CELIK_KIRIS_KOLON
10
-3435
20
371.56772670457445
30
109.33161594775356
11
-3435
21
501.56772670457445
31
109.33161594775356
12
-3435
22
501.56772670457445
32
219.33161594775356
13
-3435
23
371.56772670457445
33
219.33161594775356
0
LINE
5
F984
330
F867
100
AcDbEntity
100
AcDbLine
8
CELIK_KIRIS_KOLON
10
-3565
20
371.56772670457445
30
109.33161594775356
11
-3435
21
371.56772670457445
31
109.33161594775356
0
LINE
5
F985
330
F867
100
AcDbEntity
100
AcDbLine
8
CELIK_KIRIS_KOLON
10
-3435
20
371.56772670457445
30
109.33161594775356
11
-3435
21
501.56772670457445
31
109.33161594775356
0
LINE
5
F986
330
F867
100
AcDbEntity
100
AcDbLine
8
CELIK_KIRIS_KOLON
10
-3435
20
501.56772670457445
30
109.33161594775356
11
-3565
21
501.56772670457445
31
109.33161594775356
0
LINE
5
F987
330
F867
100
AcDbEntity
100
AcDbLine
8
CELIK_KIRIS_KOLON
10
-3565
20
501.56772670457445
30
109.33161594775356
11
-3565
21
371.56772670457445
31
109.33161594775356
0
LINE
5
F988
330
F867
100
AcDbEntity
100
AcDbLine
8
CELIK_KIRIS_KOLON
10
-3565
20
371.56772670457445
30
219.33161594775356
11
-3435
21
371.56772670457445
31
219.33161594775356
0
LINE
5
F989
330
F867
100
AcDbEntity
100
AcDbLine
8
CELIK_KIRIS_KOLON
10
-3435
20
371.56772670457445
30
219.33161594775356
11
-3435
21
501.56772670457445
31
219.33161594775356
0
LINE
5
F98A
330
F867
100
AcDbEntity
100
AcDbLine
8
CELIK_KIRIS_KOLON
10
-3435
20
501.56772670457445
30
219.33161594775356
11
-3565
21
501.56772670457445
31
219.33161594775356
0
LINE
5
F98B
330
F867
100
AcDbEntity
100
AcDbLine
8
CELIK_KIRIS_KOLON
10
-3565
20
501.56772670457445
30
219.33161594775356
11
-3565
21
371.56772670457445
31
219.33161594775356
0
LINE
5
F98C
330
F867
100
AcDbEntity
100
AcDbLine
8
CELIK_KIRIS_KOLON
10
-3565
20
371.56772670457445
30
109.33161594775356
11
-3565
21
371.56772670457445
31
219.33161594775356
0
LINE
5
F98D
330
F867
100
AcDbEntity
100
AcDbLine
8
CELIK_KIRIS_KOLON
10
-3435
20
371.56772670457445
30
109.33161594775356
11
-3435
21
371.56772670457445
31
219.33161594775356
0
LINE
5
F98E
330
F867
100
AcDbEntity
100
AcDbLine
8
CELIK_KIRIS_KOLON
10
-3435
20
501.56772670457445
30
109.33161594775356
11
-3435
21
501.56772670457445
31
219.33161594775356
0
LINE
5
F98F
330
F867
100
AcDbEntity
100
AcDbLine
8
CELIK_KIRIS_KOLON
10
-3565
20
501.56772670457445
30
109.33161594775356
11
-3565
21
501.56772670457445
31
219.33161594775356
0
3DFACE
5
F990
330
F867
100
AcDbEntity
100
AcDbFace
8
CELIK_KIRIS_KOLON
10
-3565
20
99.33161594775362
30
381.5677267045744
11
-3435
21
99.33161594775362
31
381.5677267045744
12
-3435
22
229.33161594775362
32
381.5677267045744
13
-3565
23
229.33161594775362
33
381.5677267045744
0
3DFACE
5
F991
330
F867
100
AcDbEntity
100
AcDbFace
8
CELIK_KIRIS_KOLON
10
-3565
20
99.33161594775362
30
491.5677267045744
11
-3435
21
99.33161594775362
31
491.5677267045744
12
-3435
22
229.33161594775362
32
491.5677267045744
13
-3565
23
229.33161594775362
33
491.5677267045744
0
3DFACE
5
F992
330
F867
100
AcDbEntity
100
AcDbFace
8
CELIK_KIRIS_KOLON
10
-3565
20
99.33161594775362
30
381.5677267045744
11
-3435
21
99.33161594775362
31
381.5677267045744
12
-3435
22
99.33161594775362
32
491.5677267045744
13
-3565
23
99.33161594775362
33
491.5677267045744
0
3DFACE
5
F993
330
F867
100
AcDbEntity
100
AcDbFace
8
CELIK_KIRIS_KOLON
10
-3565
20
229.33161594775362
30
381.5677267045744
11
-3435
21
229.33161594775362
31
381.5677267045744
12
-3435
22
229.33161594775362
32
491.5677267045744
13
-3565
23
229.33161594775362
33
491.5677267045744
0
3DFACE
5
F994
330
F867
100
AcDbEntity
100
AcDbFace
8
CELIK_KIRIS_KOLON
10
-3565
20
99.33161594775362
30
381.5677267045744
11
-3565
21
229.33161594775362
31
381.5677267045744
12
-3565
22
229.33161594775362
32
491.5677267045744
13
-3565
23
99.33161594775362
33
491.5677267045744
0
3DFACE
5
F995
330
F867
100
AcDbEntity
100
AcDbFace
8
CELIK_KIRIS_KOLON
10
-3435
20
99.33161594775362
30
381.5677267045744
11
-3435
21
229.33161594775362
31
381.5677267045744
12
-3435
22
229.33161594775362
32
491.5677267045744
13
-3435
23
99.33161594775362
33
491.5677267045744
0
LINE
5
F996
330
F867
100
AcDbEntity
100
AcDbLine
8
CELIK_KIRIS_KOLON
10
-3565
20
99.33161594775362
30
381.5677267045744
11
-3435
21
99.33161594775362
31
381.5677267045744
0
LINE
5
F997
330
F867
100
AcDbEntity
100
AcDbLine
8
CELIK_KIRIS_KOLON
10
-3435
20
99.33161594775362
30
381.5677267045744
11
-3435
21
229.33161594775362
31
381.5677267045744
0
LINE
5
F998
330
F867
100
AcDbEntity
100
AcDbLine
8
CELIK_KIRIS_KOLON
10
-3435
20
229.33161594775362
30
381.5677267045744
11
-3565
21
229.33161594775362
31
381.5677267045744
0
LINE
5
F999
330
F867
100
AcDbEntity
100
AcDbLine
8
CELIK_KIRIS_KOLON
10
-3565
20
229.33161594775362
30
381.5677267045744
11
-3565
21
99.33161594775362
31
381.5677267045744
0
LINE
5
F99A
330
F867
100
AcDbEntity
100
AcDbLine
8
CELIK_KIRIS_KOLON
10
-3565
20
99.33161594775362
30
491.5677267045744
11
-3435
21
99.33161594775362
31
491.5677267045744
0
LINE
5
F99B
330
F867
100
AcDbEntity
100
AcDbLine
8
CELIK_KIRIS_KOLON
10
-3435
20
99.33161594775362
30
491.5677267045744
11
-3435
21
229.33161594775362
31
491.5677267045744
0
LINE
5
F99C
330
F867
100
AcDbEntity
100
AcDbLine
8
CELIK_KIRIS_KOLON
10
-3435
20
229.33161594775362
30
491.5677267045744
11
-3565
21
229.33161594775362
31
491.5677267045744
0
LINE
5
F99D
330
F867
100
AcDbEntity
100
AcDbLine
8
CELIK_KIRIS_KOLON
10
-3565
20
229.33161594775362
30
491.5677267045744
11
-3565
21
99.33161594775362
31
491.5677267045744
0
LINE
5
F99E
330
F867
100
AcDbEntity
100
AcDbLine
8
CELIK_KIRIS_KOLON
10
-3565
20
99.33161594775362
30
381.5677267045744
11
-3565
21
99.33161594775362
31
491.5677267045744
0
LINE
5
F99F
330
F867
100
AcDbEntity
100
AcDbLine
8
CELIK_KIRIS_KOLON
10
-3435
20
99.33161594775362
30
381.5677267045744
11
-3435
21
99.33161594775362
31
491.5677267045744
0
LINE
5
F9A0
330
F867
100
AcDbEntity
100
AcDbLine
8
CELIK_KIRIS_KOLON
10
-3435
20
229.33161594775362
30
381.5677267045744
11
-3435
21
229.33161594775362
31
491.5677267045744
0
LINE
5
F9A1
330
F867
100
AcDbEntity
100
AcDbLine
8
CELIK_KIRIS_KOLON
10
-3565
20
229.33161594775362
30
381.5677267045744
11
-3565
21
229.33161594775362
31
491.5677267045744
0
3DFACE
5
F9A3
330
F867
100
AcDbEntity
100
AcDbFace
8
CELIK_KIRIS_KOLON
10
-5000
20
-50
30
550
11
-3000
21
-50
31
550
12
-3000
22
50
32
550
13
-5000
23
50
33
550
0
3DFACE
5
F9A4
330
F867
100
AcDbEntity
100
AcDbFace
8
CELIK_KIRIS_KOLON
10
-5000
20
-50
30
650
11
-3000
21
-50
31
650
12
-3000
22
50
32
650
13
-5000
23
50
33
650
0
3DFACE
5
F9A5
330
F867
100
AcDbEntity
100
AcDbFace
8
CELIK_KIRIS_KOLON
10
-5000
20
-50
30
550
11
-3000
21
-50
31
550
12
-3000
22
-50
32
650
13
-5000
23
-50
33
650
0
3DFACE
5
F9A6
330
F867
100
AcDbEntity
100
AcDbFace
8
CELIK_KIRIS_KOLON
10
-5000
20
50
30
550
11
-3000
21
50
31
550
12
-3000
22
50
32
650
13
-5000
23
50
33
650
0
3DFACE
5
F9A7
330
F867
100
AcDbEntity
100
AcDbFace
8
CELIK_KIRIS_KOLON
10
-5000
20
-50
30
550
11
-5000
21
50
31
550
12
-5000
22
50
32
650
13
-5000
23
-50
33
650
0
3DFACE
5
F9A8
330
F867
100
AcDbEntity
100
AcDbFace
8
CELIK_KIRIS_KOLON
10
-3000
20
-50
30
550
11
-3000
21
50
31
550
12
-3000
22
50
32
650
13
-3000
23
-50
33
650
0
LINE
5
F9A9
330
F867
100
AcDbEntity
100
AcDbLine
8
CELIK_KIRIS_KOLON
10
-5000
20
-50
30
550
11
-3000
21
-50
31
550
0
LINE
5
F9AA
330
F867
100
AcDbEntity
100
AcDbLine
8
CELIK_KIRIS_KOLON
10
-3000
20
-50
30
550
11
-3000
21
50
31
550
0
LINE
5
F9AB
330
F867
100
AcDbEntity
100
AcDbLine
8
CELIK_KIRIS_KOLON
10
-3000
20
50
30
550
11
-5000
21
50
31
550
0
LINE
5
F9AC
330
F867
100
AcDbEntity
100
AcDbLine
8
CELIK_KIRIS_KOLON
10
-5000
20
50
30
550
11
-5000
21
-50
31
550
0
LINE
5
F9AD
330
F867
100
AcDbEntity
100
AcDbLine
8
CELIK_KIRIS_KOLON
10
-5000
20
-50
30
650
11
-3000
21
-50
31
650
0
LINE
5
F9AE
330
F867
100
AcDbEntity
100
AcDbLine
8
CELIK_KIRIS_KOLON
10
-3000
20
-50
30
650
11
-3000
21
50
31
650
0
LINE
5
F9AF
330
F867
100
AcDbEntity
100
AcDbLine
8
CELIK_KIRIS_KOLON
10
-3000
20
50
30
650
11
-5000
21
50
31
650
0
LINE
5
F9B0
330
F867
100
AcDbEntity
100
AcDbLine
8
CELIK_KIRIS_KOLON
10
-5000
20
50
30
650
11
-5000
21
-50
31
650
0
LINE
5
F9B1
330
F867
100
AcDbEntity
100
AcDbLine
8
CELIK_KIRIS_KOLON
10
-5000
20
-50
30
550
11
-5000
21
-50
31
650
0
LINE
5
F9B2
330
F867
100
AcDbEntity
100
AcDbLine
8
CELIK_KIRIS_KOLON
10
-3000
20
-50
30
550
11
-3000
21
-50
31
650
0
LINE
5
F9B3
330
F867
100
AcDbEntity
100
AcDbLine
8
CELIK_KIRIS_KOLON
10
-3000
20
50
30
550
11
-3000
21
50
31
650
0
LINE
5
F9B4
330
F867
100
AcDbEntity
100
AcDbLine
8
CELIK_KIRIS_KOLON
10
-5000
20
50
30
550
11
-5000
21
50
31
650
0
3DFACE
5
F9C2
330
F867
100
AcDbEntity
100
AcDbFace
8
CELIK_KIRIS_KOLON
10
6115.844123938678
20
368.1976807639745
30
-83.08504678941937
11
6247.401090848705
21
320.3148606983809
31
-83.08504678941937
12
6137.3617238438765
22
17.984184601533926
32
238.64853865045978
13
6005.80475693385
23
65.86700466712755
33
238.64853865045978
0
3DFACE
5
F9C3
330
F867
100
AcDbEntity
100
AcDbFace
8
CELIK_KIRIS_KOLON
10
6076.5370169027765
20
233.88805215728027
30
56.56854249492379
11
6087.8133283522075
21
229.78381043737224
31
56.56854249492379
12
6134.00567801797
22
356.6962480956091
32
276.47875144394004
13
6122.729366568539
23
360.80048981551715
33
276.47875144394004
0
3DFACE
5
F9C4
330
F867
100
AcDbEntity
100
AcDbFace
8
CELIK_KIRIS_KOLON
10
6179.903205189226
20
196.2658363914567
30
56.56854249492379
11
6191.179516638657
21
192.16159467154867
31
56.56854249492379
12
6237.37186630442
22
319.07403232978555
32
276.47875144394004
13
6226.095554854989
23
323.1782740496936
33
276.47875144394004
0
3DFACE
5
F9F1
330
F867
100
AcDbEntity
100
AcDbFace
8
CELIK_KIRIS_KOLON
10
6184.31495645886
20
465.23947125756786
30
109.33161594775356
11
6314.31495645886
21
465.23947125756786
31
109.33161594775356
12
6314.31495645886
22
595.2394712575679
32
109.33161594775356
13
6184.31495645886
23
595.2394712575679
33
109.33161594775356
0
3DFACE
5
F9F2
330
F867
100
AcDbEntity
100
AcDbFace
8
CELIK_KIRIS_KOLON
10
6184.31495645886
20
465.23947125756786
30
219.33161594775356
11
6314.31495645886
21
465.23947125756786
31
219.33161594775356
12
6314.31495645886
22
595.2394712575679
32
219.33161594775356
13
6184.31495645886
23
595.2394712575679
33
219.33161594775356
0
3DFACE
5
F9F3
330
F867
100
AcDbEntity
100
AcDbFace
8
CELIK_KIRIS_KOLON
10
6184.31495645886
20
465.23947125756786
30
109.33161594775356
11
6314.31495645886
21
465.23947125756786
31
109.33161594775356
12
6314.31495645886
22
465.23947125756786
32
219.33161594775356
13
6184.31495645886
23
465.23947125756786
33
219.33161594775356
0
3DFACE
5
F9F4
330
F867
100
AcDbEntity
100
AcDbFace
8
CELIK_KIRIS_KOLON
10
6184.31495645886
20
595.2394712575679
30
109.33161594775356
11
6314.31495645886
21
595.2394712575679
31
109.33161594775356
12
6314.31495645886
22
595.2394712575679
32
219.33161594775356
13
6184.31495645886
23
595.2394712575679
33
219.33161594775356
0
3DFACE
5
F9F5
330
F867
100
AcDbEntity
100
AcDbFace
8
CELIK_KIRIS_KOLON
10
6184.31495645886
20
465.23947125756786
30
109.33161594775356
11
6184.31495645886
21
595.2394712575679
31
109.33161594775356
12
6184.31495645886
22
595.2394712575679
32
219.33161594775356
13
6184.31495645886
23
465.23947125756786
33
219.33161594775356
0
3DFACE
5
F9F6
330
F867
100
AcDbEntity
100
AcDbFace
8
CELIK_KIRIS_KOLON
10
6314.31495645886
20
465.23947125756786
30
109.33161594775356
11
6314.31495645886
21
595.2394712575679
31
109.33161594775356
12
6314.31495645886
22
595.2394712575679
32
219.33161594775356
13
6314.31495645886
23
465.23947125756786
33
219.33161594775356
0
LINE
5
F9F7
330
F867
100
AcDbEntity
100
AcDbLine
8
CELIK_KIRIS_KOLON
10
6184.31495645886
20
465.23947125756786
30
109.33161594775356
11
6314.31495645886
21
465.23947125756786
31
109.33161594775356
0
LINE
5
F9F8
330
F867
100
AcDbEntity
100
AcDbLine
8
CELIK_KIRIS_KOLON
10
6314.31495645886
20
465.23947125756786
30
109.33161594775356
11
6314.31495645886
21
595.2394712575679
31
109.33161594775356
0
LINE
5
F9F9
330
F867
100
AcDbEntity
100
AcDbLine
8
CELIK_KIRIS_KOLON
10
6314.31495645886
20
595.2394712575679
30
109.33161594775356
11
6184.31495645886
21
595.2394712575679
31
109.33161594775356
0
LINE
5
F9FA
330
F867
100
AcDbEntity
100
AcDbLine
8
CELIK_KIRIS_KOLON
10
6184.31495645886
20
595.2394712575679
30
109.33161594775356
11
6184.31495645886
21
465.23947125756786
31
109.33161594775356
0
LINE
5
F9FB
330
F867
100
AcDbEntity
100
AcDbLine
8
CELIK_KIRIS_KOLON
10
6184.31495645886
20
465.23947125756786
30
219.33161594775356
11
6314.31495645886
21
465.23947125756786
31
219.33161594775356
0
LINE
5
F9FC
330
F867
100
AcDbEntity
100
AcDbLine
8
CELIK_KIRIS_KOLON
10
6314.31495645886
20
465.23947125756786
30
219.33161594775356
11
6314.31495645886
21
595.2394712575679
31
219.33161594775356
0
LINE
5
F9FD
330
F867
100
AcDbEntity
100
AcDbLine
8
CELIK_KIRIS_KOLON
10
6314.31495645886
20
595.2394712575679
30
219.33161594775356
11
6184.31495645886
21
595.2394712575679
31
219.33161594775356
0
LINE
5
F9FE
330
F867
100
AcDbEntity
100
AcDbLine
8
CELIK_KIRIS_KOLON
10
6184.31495645886
20
595.2394712575679
30
219.33161594775356
11
6184.31495645886
21
465.23947125756786
31
219.33161594775356
0
LINE
5
F9FF
330
F867
100
AcDbEntity
100
AcDbLine
8
CELIK_KIRIS_KOLON
10
6184.31495645886
20
465.23947125756786
30
109.33161594775356
11
6184.31495645886
21
465.23947125756786
31
219.33161594775356
0
LINE
5
FA00
330
F867
100
AcDbEntity
100
AcDbLine
8
CELIK_KIRIS_KOLON
10
6314.31495645886
20
465.23947125756786
30
109.33161594775356
11
6314.31495645886
21
465.23947125756786
31
219.33161594775356
0
LINE
5
FA01
330
F867
100
AcDbEntity
100
AcDbLine
8
CELIK_KIRIS_KOLON
10
6314.31495645886
20
595.2394712575679
30
109.33161594775356
11
6314.31495645886
21
595.2394712575679
31
219.33161594775356
0
LINE
5
FA02
330
F867
100
AcDbEntity
100
AcDbLine
8
CELIK_KIRIS_KOLON
10
6184.31495645886
20
595.2394712575679
30
109.33161594775356
11
6184.31495645886
21
595.2394712575679
31
219.33161594775356
0
3DFACE
5
FA03
330
F867
100
AcDbEntity
100
AcDbFace
8
CELIK_KIRIS_KOLON
10
6091.204722839389
20
209.421206867928
30
381.5677267045744
11
6221.204722839389
21
209.421206867928
31
381.5677267045744
12
6221.204722839389
22
339.421206867928
32
381.5677267045744
13
6091.204722839389
23
339.421206867928
33
381.5677267045744
0
3DFACE
5
FA04
330
F867
100
AcDbEntity
100
AcDbFace
8
CELIK_KIRIS_KOLON
10
6091.204722839389
20
209.421206867928
30
491.5677267045744
11
6221.204722839389
21
209.421206867928
31
491.5677267045744
12
6221.204722839389
22
339.421206867928
32
491.5677267045744
13
6091.204722839389
23
339.421206867928
33
491.5677267045744
0
3DFACE
5
FA05
330
F867
100
AcDbEntity
100
AcDbFace
8
CELIK_KIRIS_KOLON
10
6091.204722839389
20
209.421206867928
30
381.5677267045744
11
6221.204722839389
21
209.421206867928
31
381.5677267045744
12
6221.204722839389
22
209.421206867928
32
491.5677267045744
13
6091.204722839389
23
209.421206867928
33
491.5677267045744
0
3DFACE
5
FA06
330
F867
100
AcDbEntity
100
AcDbFace
8
CELIK_KIRIS_KOLON
10
6091.204722839389
20
339.421206867928
30
381.5677267045744
11
6221.204722839389
21
339.421206867928
31
381.5677267045744
12
6221.204722839389
22
339.421206867928
32
491.5677267045744
13
6091.204722839389
23
339.421206867928
33
491.5677267045744
0
3DFACE
5
FA07
330
F867
100
AcDbEntity
100
AcDbFace
8
CELIK_KIRIS_KOLON
10
6091.204722839389
20
209.421206867928
30
381.5677267045744
11
6091.204722839389
21
339.421206867928
31
381.5677267045744
12
6091.204722839389
22
339.421206867928
32
491.5677267045744
13
6091.204722839389
23
209.421206867928
33
491.5677267045744
0
3DFACE
5
FA08
330
F867
100
AcDbEntity
100
AcDbFace
8
CELIK_KIRIS_KOLON
10
6221.204722839389
20
209.421206867928
30
381.5677267045744
11
6221.204722839389
21
339.421206867928
31
381.5677267045744
12
6221.204722839389
22
339.421206867928
32
491.5677267045744
13
6221.204722839389
23
209.421206867928
33
491.5677267045744
0
LINE
5
FA09
330
F867
100
AcDbEntity
100
AcDbLine
8
CELIK_KIRIS_KOLON
10
6091.204722839389
20
209.421206867928
30
381.5677267045744
11
6221.204722839389
21
209.421206867928
31
381.5677267045744
0
LINE
5
FA0A
330
F867
100
AcDbEntity
100
AcDbLine
8
CELIK_KIRIS_KOLON
10
6221.204722839389
20
209.421206867928
30
381.5677267045744
11
6221.204722839389
21
339.421206867928
31
381.5677267045744
0
LINE
5
FA0B
330
F867
100
AcDbEntity
100
AcDbLine
8
CELIK_KIRIS_KOLON
10
6221.204722839389
20
339.421206867928
30
381.5677267045744
11
6091.204722839389
21
339.421206867928
31
381.5677267045744
0
LINE
5
FA0C
330
F867
100
AcDbEntity
100
AcDbLine
8
CELIK_KIRIS_KOLON
10
6091.204722839389
20
339.421206867928
30
381.5677267045744
11
6091.204722839389
21
209.421206867928
31
381.5677267045744
0
LINE
5
FA0D
330
F867
100
AcDbEntity
100
AcDbLine
8
CELIK_KIRIS_KOLON
10
6091.204722839389
20
209.421206867928
30
491.5677267045744
11
6221.204722839389
21
209.421206867928
31
491.5677267045744
0
LINE
5
FA0E
330
F867
100
AcDbEntity
100
AcDbLine
8
CELIK_KIRIS_KOLON
10
6221.204722839389
20
209.421206867928
30
491.5677267045744
11
6221.204722839389
21
339.421206867928
31
491.5677267045744
0
LINE
5
FA0F
330
F867
100
AcDbEntity
100
AcDbLine
8
CELIK_KIRIS_KOLON
10
6221.204722839389
20
339.421206867928
30
491.5677267045744
11
6091.204722839389
21
339.421206867928
31
491.5677267045744
0
LINE
5
FA10
330
F867
100
AcDbEntity
100
AcDbLine
8
CELIK_KIRIS_KOLON
10
6091.204722839389
20
339.421206867928
30
491.5677267045744
11
6091.204722839389
21
209.421206867928
31
491.5677267045744
0
LINE
5
FA11
330
F867
100
AcDbEntity
100
AcDbLine
8
CELIK_KIRIS_KOLON
10
6091.204722839389
20
209.421206867928
30
381.5677267045744
11
6091.204722839389
21
209.421206867928
31
491.5677267045744
0
LINE
5
FA12
330
F867
100
AcDbEntity
100
AcDbLine
8
CELIK_KIRIS_KOLON
10
6221.204722839389
20
209.421206867928
30
381.5677267045744
11
6221.204722839389
21
209.421206867928
31
491.5677267045744
0
LINE
5
FA13
330
F867
100
AcDbEntity
100
AcDbLine
8
CELIK_KIRIS_KOLON
10
6221.204722839389
20
339.421206867928
30
381.5677267045744
11
6221.204722839389
21
339.421206867928
31
491.5677267045744
0
LINE
5
FA14
330
F867
100
AcDbEntity
100
AcDbLine
8
CELIK_KIRIS_KOLON
10
6091.204722839389
20
339.421206867928
30
381.5677267045744
11
6091.204722839389
21
339.421206867928
31
491.5677267045744
0
3DFACE
5
FA23
330
F867
100
AcDbEntity
100
AcDbFace
8
CELIK_KIRIS_KOLON
10
6930
20
238.64853865045978
30
-83.08504678941937
11
7070
21
238.64853865045978
31
-83.08504678941937
12
7070
22
-83.08504678941932
32
238.64853865045978
13
6930
23
-83.08504678941932
33
238.64853865045978
0
3DFACE
5
FA24
330
F867
100
AcDbEntity
100
AcDbFace
8
CELIK_KIRIS_KOLON
10
6939
20
98.99494936611666
30
56.56854249492379
11
6951
21
98.99494936611666
31
56.56854249492379
12
6951
22
234.05234457274724
32
276.47875144394004
13
6939
23
234.05234457274724
33
276.47875144394004
0
3DFACE
5
FA25
330
F867
100
AcDbEntity
100
AcDbFace
8
CELIK_KIRIS_KOLON
10
7049
20
98.99494936611666
30
56.56854249492379
11
7061
21
98.99494936611666
31
56.56854249492379
12
7061
22
234.05234457274724
32
276.47875144394004
13
7049
23
234.05234457274724
33
276.47875144394004
0
3DFACE
5
FA52
330
F867
100
AcDbEntity
100
AcDbFace
8
CELIK_KIRIS_KOLON
10
6935
20
371.56772670457445
30
109.33161594775356
11
7065
21
371.56772670457445
31
109.33161594775356
12
7065
22
501.56772670457445
32
109.33161594775356
13
6935
23
501.56772670457445
33
109.33161594775356
0
3DFACE
5
FA53
330
F867
100
AcDbEntity
100
AcDbFace
8
CELIK_KIRIS_KOLON
10
6935
20
371.56772670457445
30
219.33161594775356
11
7065
21
371.56772670457445
31
219.33161594775356
12
7065
22
501.56772670457445
32
219.33161594775356
13
6935
23
501.56772670457445
33
219.33161594775356
0
3DFACE
5
FA54
330
F867
100
AcDbEntity
100
AcDbFace
8
CELIK_KIRIS_KOLON
10
6935
20
371.56772670457445
30
109.33161594775356
11
7065
21
371.56772670457445
31
109.33161594775356
12
7065
22
371.56772670457445
32
219.33161594775356
13
6935
23
371.56772670457445
33
219.33161594775356
0
3DFACE
5
FA55
330
F867
100
AcDbEntity
100
AcDbFace
8
CELIK_KIRIS_KOLON
10
6935
20
501.56772670457445
30
109.33161594775356
11
7065
21
501.56772670457445
31
109.33161594775356
12
7065
22
501.56772670457445
32
219.33161594775356
13
6935
23
501.56772670457445
33
219.33161594775356
0
3DFACE
5
FA56
330
F867
100
AcDbEntity
100
AcDbFace
8
CELIK_KIRIS_KOLON
10
6935
20
371.56772670457445
30
109.33161594775356
11
6935
21
501.56772670457445
31
109.33161594775356
12
6935
22
501.56772670457445
32
219.33161594775356
13
6935
23
371.56772670457445
33
219.33161594775356
0
3DFACE
5
FA57
330
F867
100
AcDbEntity
100
AcDbFace
8
CELIK_KIRIS_KOLON
10
7065
20
371.56772670457445
30
109.33161594775356
11
7065
21
501.56772670457445
31
109.33161594775356
12
7065
22
501.56772670457445
32
219.33161594775356
13
7065
23
371.56772670457445
33
219.33161594775356
0
LINE
5
FA58
330
F867
100
AcDbEntity
100
AcDbLine
8
CELIK_KIRIS_KOLON
10
6935
20
371.56772670457445
30
109.33161594775356
11
7065
21
371.56772670457445
31
109.33161594775356
0
LINE
5
FA59
330
F867
100
AcDbEntity
100
AcDbLine
8
CELIK_KIRIS_KOLON
10
7065
20
371.56772670457445
30
109.33161594775356
11
7065
21
501.56772670457445
31
109.33161594775356
0
LINE
5
FA5A
330
F867
100
AcDbEntity
100
AcDbLine
8
CELIK_KIRIS_KOLON
10
7065
20
501.56772670457445
30
109.33161594775356
11
6935
21
501.56772670457445
31
109.33161594775356
0
LINE
5
FA5B
330
F867
100
AcDbEntity
100
AcDbLine
8
CELIK_KIRIS_KOLON
10
6935
20
501.56772670457445
30
109.33161594775356
11
6935
21
371.56772670457445
31
109.33161594775356
0
LINE
5
FA5C
330
F867
100
AcDbEntity
100
AcDbLine
8
CELIK_KIRIS_KOLON
10
6935
20
371.56772670457445
30
219.33161594775356
11
7065
21
371.56772670457445
31
219.33161594775356
0
LINE
5
FA5D
330
F867
100
AcDbEntity
100
AcDbLine
8
CELIK_KIRIS_KOLON
10
7065
20
371.56772670457445
30
219.33161594775356
11
7065
21
501.56772670457445
31
219.33161594775356
0
LINE
5
FA5E
330
F867
100
AcDbEntity
100
AcDbLine
8
CELIK_KIRIS_KOLON
10
7065
20
501.56772670457445
30
219.33161594775356
11
6935
21
501.56772670457445
31
219.33161594775356
0
LINE
5
FA5F
330
F867
100
AcDbEntity
100
AcDbLine
8
CELIK_KIRIS_KOLON
10
6935
20
501.56772670457445
30
219.33161594775356
11
6935
21
371.56772670457445
31
219.33161594775356
0
LINE
5
FA60
330
F867
100
AcDbEntity
100
AcDbLine
8
CELIK_KIRIS_KOLON
10
6935
20
371.56772670457445
30
109.33161594775356
11
6935
21
371.56772670457445
31
219.33161594775356
0
LINE
5
FA61
330
F867
100
AcDbEntity
100
AcDbLine
8
CELIK_KIRIS_KOLON
10
7065
20
371.56772670457445
30
109.33161594775356
11
7065
21
371.56772670457445
31
219.33161594775356
0
LINE
5
FA62
330
F867
100
AcDbEntity
100
AcDbLine
8
CELIK_KIRIS_KOLON
10
7065
20
501.56772670457445
30
109.33161594775356
11
7065
21
501.56772670457445
31
219.33161594775356
0
LINE
5
FA63
330
F867
100
AcDbEntity
100
AcDbLine
8
CELIK_KIRIS_KOLON
10
6935
20
501.56772670457445
30
109.33161594775356
11
6935
21
501.56772670457445
31
219.33161594775356
0
3DFACE
5
FA64
330
F867
100
AcDbEntity
100
AcDbFace
8
CELIK_KIRIS_KOLON
10
6935
20
99.33161594775362
30
381.5677267045744
11
7065
21
99.33161594775362
31
381.5677267045744
12
7065
22
229.33161594775362
32
381.5677267045744
13
6935
23
229.33161594775362
33
381.5677267045744
0
3DFACE
5
FA65
330
F867
100
AcDbEntity
100
AcDbFace
8
CELIK_KIRIS_KOLON
10
6935
20
99.33161594775362
30
491.5677267045744
11
7065
21
99.33161594775362
31
491.5677267045744
12
7065
22
229.33161594775362
32
491.5677267045744
13
6935
23
229.33161594775362
33
491.5677267045744
0
3DFACE
5
FA66
330
F867
100
AcDbEntity
100
AcDbFace
8
CELIK_KIRIS_KOLON
10
6935
20
99.33161594775362
30
381.5677267045744
11
7065
21
99.33161594775362
31
381.5677267045744
12
7065
22
99.33161594775362
32
491.5677267045744
13
6935
23
99.33161594775362
33
491.5677267045744
0
3DFACE
5
FA67
330
F867
100
AcDbEntity
100
AcDbFace
8
CELIK_KIRIS_KOLON
10
6935
20
229.33161594775362
30
381.5677267045744
11
7065
21
229.33161594775362
31
381.5677267045744
12
7065
22
229.33161594775362
32
491.5677267045744
13
6935
23
229.33161594775362
33
491.5677267045744
0
3DFACE
5
FA68
330
F867
100
AcDbEntity
100
AcDbFace
8
CELIK_KIRIS_KOLON
10
6935
20
99.33161594775362
30
381.5677267045744
11
6935
21
229.33161594775362
31
381.5677267045744
12
6935
22
229.33161594775362
32
491.5677267045744
13
6935
23
99.33161594775362
33
491.5677267045744
0
3DFACE
5
FA69
330
F867
100
AcDbEntity
100
AcDbFace
8
CELIK_KIRIS_KOLON
10
7065
20
99.33161594775362
30
381.5677267045744
11
7065
21
229.33161594775362
31
381.5677267045744
12
7065
22
229.33161594775362
32
491.5677267045744
13
7065
23
99.33161594775362
33
491.5677267045744
0
LINE
5
FA6A
330
F867
100
AcDbEntity
100
AcDbLine
8
CELIK_KIRIS_KOLON
10
6935
20
99.33161594775362
30
381.5677267045744
11
7065
21
99.33161594775362
31
381.5677267045744
0
LINE
5
FA6B
330
F867
100
AcDbEntity
100
AcDbLine
8
CELIK_KIRIS_KOLON
10
7065
20
99.33161594775362
30
381.5677267045744
11
7065
21
229.33161594775362
31
381.5677267045744
0
LINE
5
FA6C
330
F867
100
AcDbEntity
100
AcDbLine
8
CELIK_KIRIS_KOLON
10
7065
20
229.33161594775362
30
381.5677267045744
11
6935
21
229.33161594775362
31
381.5677267045744
0
LINE
5
FA6D
330
F867
100
AcDbEntity
100
AcDbLine
8
CELIK_KIRIS_KOLON
10
6935
20
229.33161594775362
30
381.5677267045744
11
6935
21
99.33161594775362
31
381.5677267045744
0
LINE
5
FA6E
330
F867
100
AcDbEntity
100
AcDbLine
8
CELIK_KIRIS_KOLON
10
6935
20
99.33161594775362
30
491.5677267045744
11
7065
21
99.33161594775362
31
491.5677267045744
0
LINE
5
FA6F
330
F867
100
AcDbEntity
100
AcDbLine
8
CELIK_KIRIS_KOLON
10
7065
20
99.33161594775362
30
491.5677267045744
11
7065
21
229.33161594775362
31
491.5677267045744
0
LINE
5
FA70
330
F867
100
AcDbEntity
100
AcDbLine
8
CELIK_KIRIS_KOLON
10
7065
20
229.33161594775362
30
491.5677267045744
11
6935
21
229.33161594775362
31
491.5677267045744
0
LINE
5
FA71
330
F867
100
AcDbEntity
100
AcDbLine
8
CELIK_KIRIS_KOLON
10
6935
20
229.33161594775362
30
491.5677267045744
11
6935
21
99.33161594775362
31
491.5677267045744
0
LINE
5
FA72
330
F867
100
AcDbEntity
100
AcDbLine
8
CELIK_KIRIS_KOLON
10
6935
20
99.33161594775362
30
381.5677267045744
11
6935
21
99.33161594775362
31
491.5677267045744
0
LINE
5
FA73
330
F867
100
AcDbEntity
100
AcDbLine
8
CELIK_KIRIS_KOLON
10
7065
20
99.33161594775362
30
381.5677267045744
11
7065
21
99.33161594775362
31
491.5677267045744
0
LINE
5
FA74
330
F867
100
AcDbEntity
100
AcDbLine
8
CELIK_KIRIS_KOLON
10
7065
20
229.33161594775362
30
381.5677267045744
11
7065
21
229.33161594775362
31
491.5677267045744
0
LINE
5
FA75
330
F867
100
AcDbEntity
100
AcDbLine
8
CELIK_KIRIS_KOLON
10
6935
20
229.33161594775362
30
381.5677267045744
11
6935
21
229.33161594775362
31
491.5677267045744
0
3DFACE
5
FA84
330
F867
100
AcDbEntity
100
AcDbFace
8
CELIK_KIRIS_KOLON
10
7752.598909151295
20
320.3148606983809
30
-83.08504678941937
11
7884.155876061322
21
368.1976807639745
31
-83.08504678941937
12
7994.19524306615
22
65.86700466712755
32
238.64853865045978
13
7862.6382761561235
23
17.984184601533926
33
238.64853865045978
0
3DFACE
5
FA85
330
F867
100
AcDbEntity
100
AcDbFace
8
CELIK_KIRIS_KOLON
10
7808.820483361343
20
192.16159467154867
30
56.56854249492379
11
7820.096794810774
21
196.2658363914567
31
56.56854249492379
12
7773.904445145011
22
323.1782740496936
32
276.47875144394004
13
7762.62813369558
23
319.07403232978555
33
276.47875144394004
0
3DFACE
5
FA86
330
F867
100
AcDbEntity
100
AcDbFace
8
CELIK_KIRIS_KOLON
10
7912.1866716477925
20
229.78381043737224
30
56.56854249492379
11
7923.4629830972235
21
233.88805215728027
31
56.56854249492379
12
7877.270633431461
22
360.80048981551715
32
276.47875144394004
13
7865.99432198203
23
356.6962480956091
33
276.47875144394004
0
3DFACE
5
FAB3
330
F867
100
AcDbEntity
100
AcDbFace
8
CELIK_KIRIS_KOLON
10
7685.68504354114
20
465.23947125756786
30
109.33161594775356
11
7815.68504354114
21
465.23947125756786
31
109.33161594775356
12
7815.68504354114
22
595.2394712575679
32
109.33161594775356
13
7685.68504354114
23
595.2394712575679
33
109.33161594775356
0
3DFACE
5
FAB4
330
F867
100
AcDbEntity
100
AcDbFace
8
CELIK_KIRIS_KOLON
10
7685.68504354114
20
465.23947125756786
30
219.33161594775356
11
7815.68504354114
21
465.23947125756786
31
219.33161594775356
12
7815.68504354114
22
595.2394712575679
32
219.33161594775356
13
7685.68504354114
23
595.2394712575679
33
219.33161594775356
0
3DFACE
5
FAB5
330
F867
100
AcDbEntity
100
AcDbFace
8
CELIK_KIRIS_KOLON
10
7685.68504354114
20
465.23947125756786
30
109.33161594775356
11
7815.68504354114
21
465.23947125756786
31
109.33161594775356
12
7815.68504354114
22
465.23947125756786
32
219.33161594775356
13
7685.68504354114
23
465.23947125756786
33
219.33161594775356
0
3DFACE
5
FAB6
330
F867
100
AcDbEntity
100
AcDbFace
8
CELIK_KIRIS_KOLON
10
7685.68504354114
20
595.2394712575679
30
109.33161594775356
11
7815.68504354114
21
595.2394712575679
31
109.33161594775356
12
7815.68504354114
22
595.2394712575679
32
219.33161594775356
13
7685.68504354114
23
595.2394712575679
33
219.33161594775356
0
3DFACE
5
FAB7
330
F867
100
AcDbEntity
100
AcDbFace
8
CELIK_KIRIS_KOLON
10
7685.68504354114
20
465.23947125756786
30
109.33161594775356
11
7685.68504354114
21
595.2394712575679
31
109.33161594775356
12
7685.68504354114
22
595.2394712575679
32
219.33161594775356
13
7685.68504354114
23
465.23947125756786
33
219.33161594775356
0
3DFACE
5
FAB8
330
F867
100
AcDbEntity
100
AcDbFace
8
CELIK_KIRIS_KOLON
10
7815.68504354114
20
465.23947125756786
30
109.33161594775356
11
7815.68504354114
21
595.2394712575679
31
109.33161594775356
12
7815.68504354114
22
595.2394712575679
32
219.33161594775356
13
7815.68504354114
23
465.23947125756786
33
219.33161594775356
0
LINE
5
FAB9
330
F867
100
AcDbEntity
100
AcDbLine
8
CELIK_KIRIS_KOLON
10
7685.68504354114
20
465.23947125756786
30
109.33161594775356
11
7815.68504354114
21
465.23947125756786
31
109.33161594775356
0
LINE
5
FABA
330
F867
100
AcDbEntity
100
AcDbLine
8
CELIK_KIRIS_KOLON
10
7815.68504354114
20
465.23947125756786
30
109.33161594775356
11
7815.68504354114
21
595.2394712575679
31
109.33161594775356
0
LINE
5
FABB
330
F867
100
AcDbEntity
100
AcDbLine
8
CELIK_KIRIS_KOLON
10
7815.68504354114
20
595.2394712575679
30
109.33161594775356
11
7685.68504354114
21
595.2394712575679
31
109.33161594775356
0
LINE
5
FABC
330
F867
100
AcDbEntity
100
AcDbLine
8
CELIK_KIRIS_KOLON
10
7685.68504354114
20
595.2394712575679
30
109.33161594775356
11
7685.68504354114
21
465.23947125756786
31
109.33161594775356
0
LINE
5
FABD
330
F867
100
AcDbEntity
100
AcDbLine
8
CELIK_KIRIS_KOLON
10
7685.68504354114
20
465.23947125756786
30
219.33161594775356
11
7815.68504354114
21
465.23947125756786
31
219.33161594775356
0
LINE
5
FABE
330
F867
100
AcDbEntity
100
AcDbLine
8
CELIK_KIRIS_KOLON
10
7815.68504354114
20
465.23947125756786
30
219.33161594775356
11
7815.68504354114
21
595.2394712575679
31
219.33161594775356
0
LINE
5
FABF
330
F867
100
AcDbEntity
100
AcDbLine
8
CELIK_KIRIS_KOLON
10
7815.68504354114
20
595.2394712575679
30
219.33161594775356
11
7685.68504354114
21
595.2394712575679
31
219.33161594775356
0
LINE
5
FAC0
330
F867
100
AcDbEntity
100
AcDbLine
8
CELIK_KIRIS_KOLON
10
7685.68504354114
20
595.2394712575679
30
219.33161594775356
11
7685.68504354114
21
465.23947125756786
31
219.33161594775356
0
LINE
5
FAC1
330
F867
100
AcDbEntity
100
AcDbLine
8
CELIK_KIRIS_KOLON
10
7685.68504354114
20
465.23947125756786
30
109.33161594775356
11
7685.68504354114
21
465.23947125756786
31
219.33161594775356
0
LINE
5
FAC2
330
F867
100
AcDbEntity
100
AcDbLine
8
CELIK_KIRIS_KOLON
10
7815.68504354114
20
465.23947125756786
30
109.33161594775356
11
7815.68504354114
21
465.23947125756786
31
219.33161594775356
0
LINE
5
FAC3
330
F867
100
AcDbEntity
100
AcDbLine
8
CELIK_KIRIS_KOLON
10
7815.68504354114
20
595.2394712575679
30
109.33161594775356
11
7815.68504354114
21
595.2394712575679
31
219.33161594775356
0
LINE
5
FAC4
330
F867
100
AcDbEntity
100
AcDbLine
8
CELIK_KIRIS_KOLON
10
7685.68504354114
20
595.2394712575679
30
109.33161594775356
11
7685.68504354114
21
595.2394712575679
31
219.33161594775356
0
3DFACE
5
FAC5
330
F867
100
AcDbEntity
100
AcDbFace
8
CELIK_KIRIS_KOLON
10
7778.795277160611
20
209.421206867928
30
381.5677267045744
11
7908.795277160611
21
209.421206867928
31
381.5677267045744
12
7908.795277160611
22
339.421206867928
32
381.5677267045744
13
7778.795277160611
23
339.421206867928
33
381.5677267045744
0
3DFACE
5
FAC6
330
F867
100
AcDbEntity
100
AcDbFace
8
CELIK_KIRIS_KOLON
10
7778.795277160611
20
209.421206867928
30
491.5677267045744
11
7908.795277160611
21
209.421206867928
31
491.5677267045744
12
7908.795277160611
22
339.421206867928
32
491.5677267045744
13
7778.795277160611
23
339.421206867928
33
491.5677267045744
0
3DFACE
5
FAC7
330
F867
100
AcDbEntity
100
AcDbFace
8
CELIK_KIRIS_KOLON
10
7778.795277160611
20
209.421206867928
30
381.5677267045744
11
7908.795277160611
21
209.421206867928
31
381.5677267045744
12
7908.795277160611
22
209.421206867928
32
491.5677267045744
13
7778.795277160611
23
209.421206867928
33
491.5677267045744
0
3DFACE
5
FAC8
330
F867
100
AcDbEntity
100
AcDbFace
8
CELIK_KIRIS_KOLON
10
7778.795277160611
20
339.421206867928
30
381.5677267045744
11
7908.795277160611
21
339.421206867928
31
381.5677267045744
12
7908.795277160611
22
339.421206867928
32
491.5677267045744
13
7778.795277160611
23
339.421206867928
33
491.5677267045744
0
3DFACE
5
FAC9
330
F867
100
AcDbEntity
100
AcDbFace
8
CELIK_KIRIS_KOLON
10
7778.795277160611
20
209.421206867928
30
381.5677267045744
11
7778.795277160611
21
339.421206867928
31
381.5677267045744
12
7778.795277160611
22
339.421206867928
32
491.5677267045744
13
7778.795277160611
23
209.421206867928
33
491.5677267045744
0
3DFACE
5
FACA
330
F867
100
AcDbEntity
100
AcDbFace
8
CELIK_KIRIS_KOLON
10
7908.795277160611
20
209.421206867928
30
381.5677267045744
11
7908.795277160611
21
339.421206867928
31
381.5677267045744
12
7908.795277160611
22
339.421206867928
32
491.5677267045744
13
7908.795277160611
23
209.421206867928
33
491.5677267045744
0
LINE
5
FACB
330
F867
100
AcDbEntity
100
AcDbLine
8
CELIK_KIRIS_KOLON
10
7778.795277160611
20
209.421206867928
30
381.5677267045744
11
7908.795277160611
21
209.421206867928
31
381.5677267045744
0
LINE
5
FACC
330
F867
100
AcDbEntity
100
AcDbLine
8
CELIK_KIRIS_KOLON
10
7908.795277160611
20
209.421206867928
30
381.5677267045744
11
7908.795277160611
21
339.421206867928
31
381.5677267045744
0
LINE
5
FACD
330
F867
100
AcDbEntity
100
AcDbLine
8
CELIK_KIRIS_KOLON
10
7908.795277160611
20
339.421206867928
30
381.5677267045744
11
7778.795277160611
21
339.421206867928
31
381.5677267045744
0
LINE
5
FACE
330
F867
100
AcDbEntity
100
AcDbLine
8
CELIK_KIRIS_KOLON
10
7778.795277160611
20
339.421206867928
30
381.5677267045744
11
7778.795277160611
21
209.421206867928
31
381.5677267045744
0
LINE
5
FACF
330
F867
100
AcDbEntity
100
AcDbLine
8
CELIK_KIRIS_KOLON
10
7778.795277160611
20
209.421206867928
30
491.5677267045744
11
7908.795277160611
21
209.421206867928
31
491.5677267045744
0
LINE
5
FAD0
330
F867
100
AcDbEntity
100
AcDbLine
8
CELIK_KIRIS_KOLON
10
7908.795277160611
20
209.421206867928
30
491.5677267045744
11
7908.795277160611
21
339.421206867928
31
491.5677267045744
0
LINE
5
FAD1
330
F867
100
AcDbEntity
100
AcDbLine
8
CELIK_KIRIS_KOLON
10
7908.795277160611
20
339.421206867928
30
491.5677267045744
11
7778.795277160611
21
339.421206867928
31
491.5677267045744
0
LINE
5
FAD2
330
F867
100
AcDbEntity
100
AcDbLine
8
CELIK_KIRIS_KOLON
10
7778.795277160611
20
339.421206867928
30
491.5677267045744
11
7778.795277160611
21
209.421206867928
31
491.5677267045744
0
LINE
5
FAD3
330
F867
100
AcDbEntity
100
AcDbLine
8
CELIK_KIRIS_KOLON
10
7778.795277160611
20
209.421206867928
30
381.5677267045744
11
7778.795277160611
21
209.421206867928
31
491.5677267045744
0
LINE
5
FAD4
330
F867
100
AcDbEntity
100
AcDbLine
8
CELIK_KIRIS_KOLON
10
7908.795277160611
20
209.421206867928
30
381.5677267045744
11
7908.795277160611
21
209.421206867928
31
491.5677267045744
0
LINE
5
FAD5
330
F867
100
AcDbEntity
100
AcDbLine
8
CELIK_KIRIS_KOLON
10
7908.795277160611
20
339.421206867928
30
381.5677267045744
11
7908.795277160611
21
339.421206867928
31
491.5677267045744
0
LINE
5
FAD6
330
F867
100
AcDbEntity
100
AcDbLine
8
CELIK_KIRIS_KOLON
10
7778.795277160611
20
339.421206867928
30
381.5677267045744
11
7778.795277160611
21
339.421206867928
31
491.5677267045744
0
3DFACE
5
FAD8
330
F867
100
AcDbEntity
100
AcDbFace
8
CELIK_KIRIS_KOLON
10
5500
20
-60
30
550
11
8500
21
-60
31
550
12
8500
22
60
32
550
13
5500
23
60
33
550
0
3DFACE
5
FAD9
330
F867
100
AcDbEntity
100
AcDbFace
8
CELIK_KIRIS_KOLON
10
5500
20
-60
30
670
11
8500
21
-60
31
670
12
8500
22
60
32
670
13
5500
23
60
33
670
0
3DFACE
5
FADA
330
F867
100
AcDbEntity
100
AcDbFace
8
CELIK_KIRIS_KOLON
10
5500
20
-60
30
550
11
8500
21
-60
31
550
12
8500
22
-60
32
670
13
5500
23
-60
33
670
0
3DFACE
5
FADB
330
F867
100
AcDbEntity
100
AcDbFace
8
CELIK_KIRIS_KOLON
10
5500
20
60
30
550
11
8500
21
60
31
550
12
8500
22
60
32
670
13
5500
23
60
33
670
0
3DFACE
5
FADC
330
F867
100
AcDbEntity
100
AcDbFace
8
CELIK_KIRIS_KOLON
10
5500
20
-60
30
550
11
5500
21
60
31
550
12
5500
22
60
32
670
13
5500
23
-60
33
670
0
3DFACE
5
FADD
330
F867
100
AcDbEntity
100
AcDbFace
8
CELIK_KIRIS_KOLON
10
8500
20
-60
30
550
11
8500
21
60
31
550
12
8500
22
60
32
670
13
8500
23
-60
33
670
0
LINE
5
FADE
330
F867
100
AcDbEntity
100
AcDbLine
8
CELIK_KIRIS_KOLON
10
5500
20
-60
30
550
11
8500
21
-60
31
550
0
LINE
5
FADF
330
F867
100
AcDbEntity
100
AcDbLine
8
CELIK_KIRIS_KOLON
10
8500
20
-60
30
550
11
8500
21
60
31
550
0
LINE
5
FAE0
330
F867
100
AcDbEntity
100
AcDbLine
8
CELIK_KIRIS_KOLON
10
8500
20
60
30
550
11
5500
21
60
31
550
0
LINE
5
FAE1
330
F867
100
AcDbEntity
100
AcDbLine
8
CELIK_KIRIS_KOLON
10
5500
20
60
30
550
11
5500
21
-60
31
550
0
LINE
5
FAE2
330
F867
100
AcDbEntity
100
AcDbLine
8
CELIK_KIRIS_KOLON
10
5500
20
-60
30
670
11
8500
21
-60
31
670
0
LINE
5
FAE3
330
F867
100
AcDbEntity
100
AcDbLine
8
CELIK_KIRIS_KOLON
10
8500
20
-60
30
670
11
8500
21
60
31
670
0
LINE
5
FAE4
330
F867
100
AcDbEntity
100
AcDbLine
8
CELIK_KIRIS_KOLON
10
8500
20
60
30
670
11
5500
21
60
31
670
0
LINE
5
FAE5
330
F867
100
AcDbEntity
100
AcDbLine
8
CELIK_KIRIS_KOLON
10
5500
20
60
30
670
11
5500
21
-60
31
670
0
LINE
5
FAE6
330
F867
100
AcDbEntity
100
AcDbLine
8
CELIK_KIRIS_KOLON
10
5500
20
-60
30
550
11
5500
21
-60
31
670
0
LINE
5
FAE7
330
F867
100
AcDbEntity
100
AcDbLine
8
CELIK_KIRIS_KOLON
10
8500
20
-60
30
550
11
8500
21
-60
31
670
0
LINE
5
FAE8
330
F867
100
AcDbEntity
100
AcDbLine
8
CELIK_KIRIS_KOLON
10
8500
20
60
30
550
11
8500
21
60
31
670
0
LINE
5
FAE9
330
F867
100
AcDbEntity
100
AcDbLine
8
CELIK_KIRIS_KOLON
10
5500
20
60
30
550
11
5500
21
60
31
670
0
3DFACE
5
FAFA
330
F867
100
AcDbEntity
100
AcDbFace
8
CELIK_KIRIS_KOLON
10
15880
20
-795
30
2355
11
16120
21
-795
31
2355
12
16120
22
795
32
2355
13
15880
23
795
33
2355
0
3DFACE
5
FAFB
330
F867
100
AcDbEntity
100
AcDbFace
8
CELIK_KIRIS_KOLON
10
15880
20
-795
30
2445
11
16120
21
-795
31
2445
12
16120
22
795
32
2445
13
15880
23
795
33
2445
0
3DFACE
5
FAFC
330
F867
100
AcDbEntity
100
AcDbFace
8
CELIK_KIRIS_KOLON
10
15880
20
-795
30
2355
11
16120
21
-795
31
2355
12
16120
22
-795
32
2445
13
15880
23
-795
33
2445
0
3DFACE
5
FAFD
330
F867
100
AcDbEntity
100
AcDbFace
8
CELIK_KIRIS_KOLON
10
15880
20
795
30
2355
11
16120
21
795
31
2355
12
16120
22
795
32
2445
13
15880
23
795
33
2445
0
3DFACE
5
FAFE
330
F867
100
AcDbEntity
100
AcDbFace
8
CELIK_KIRIS_KOLON
10
15880
20
-795
30
2355
11
15880
21
795
31
2355
12
15880
22
795
32
2445
13
15880
23
-795
33
2445
0
3DFACE
5
FAFF
330
F867
100
AcDbEntity
100
AcDbFace
8
CELIK_KIRIS_KOLON
10
16120
20
-795
30
2355
11
16120
21
795
31
2355
12
16120
22
795
32
2445
13
16120
23
-795
33
2445
0
LINE
5
FB00
330
F867
100
AcDbEntity
100
AcDbLine
8
CELIK_KIRIS_KOLON
10
15880
20
-795
30
2355
11
16120
21
-795
31
2355
0
LINE
5
FB01
330
F867
100
AcDbEntity
100
AcDbLine
8
CELIK_KIRIS_KOLON
10
16120
20
-795
30
2355
11
16120
21
795
31
2355
0
LINE
5
FB02
330
F867
100
AcDbEntity
100
AcDbLine
8
CELIK_KIRIS_KOLON
10
16120
20
795
30
2355
11
15880
21
795
31
2355
0
LINE
5
FB03
330
F867
100
AcDbEntity
100
AcDbLine
8
CELIK_KIRIS_KOLON
10
15880
20
795
30
2355
11
15880
21
-795
31
2355
0
LINE
5
FB04
330
F867
100
AcDbEntity
100
AcDbLine
8
CELIK_KIRIS_KOLON
10
15880
20
-795
30
2445
11
16120
21
-795
31
2445
0
LINE
5
FB05
330
F867
100
AcDbEntity
100
AcDbLine
8
CELIK_KIRIS_KOLON
10
16120
20
-795
30
2445
11
16120
21
795
31
2445
0
LINE
5
FB06
330
F867
100
AcDbEntity
100
AcDbLine
8
CELIK_KIRIS_KOLON
10
16120
20
795
30
2445
11
15880
21
795
31
2445
0
LINE
5
FB07
330
F867
100
AcDbEntity
100
AcDbLine
8
CELIK_KIRIS_KOLON
10
15880
20
795
30
2445
11
15880
21
-795
31
2445
0
LINE
5
FB08
330
F867
100
AcDbEntity
100
AcDbLine
8
CELIK_KIRIS_KOLON
10
15880
20
-795
30
2355
11
15880
21
-795
31
2445
0
LINE
5
FB09
330
F867
100
AcDbEntity
100
AcDbLine
8
CELIK_KIRIS_KOLON
10
16120
20
-795
30
2355
11
16120
21
-795
31
2445
0
LINE
5
FB0A
330
F867
100
AcDbEntity
100
AcDbLine
8
CELIK_KIRIS_KOLON
10
16120
20
795
30
2355
11
16120
21
795
31
2445
0
LINE
5
FB0B
330
F867
100
AcDbEntity
100
AcDbLine
8
CELIK_KIRIS_KOLON
10
15880
20
795
30
2355
11
15880
21
795
31
2445
0
3DFACE
5
FB2B
330
F867
100
AcDbEntity
100
AcDbFace
8
CELIK_KIRIS_KOLON
10
15930
20
238.64853865045978
30
566.9149532105806
11
16070
21
238.64853865045978
31
566.9149532105806
12
16070
22
-83.08504678941932
32
888.6485386504598
13
15930
23
-83.08504678941932
33
888.6485386504598
0
3DFACE
5
FB2C
330
F867
100
AcDbEntity
100
AcDbFace
8
CELIK_KIRIS_KOLON
10
15939
20
98.99494936611666
30
706.5685424949238
11
15951
21
98.99494936611666
31
706.5685424949238
12
15951
22
234.05234457274724
32
926.47875144394
13
15939
23
234.05234457274724
33
926.47875144394
0
3DFACE
5
FB2D
330
F867
100
AcDbEntity
100
AcDbFace
8
CELIK_KIRIS_KOLON
10
16049
20
98.99494936611666
30
706.5685424949238
11
16061
21
98.99494936611666
31
706.5685424949238
12
16061
22
234.05234457274724
32
926.47875144394
13
16049
23
234.05234457274724
33
926.47875144394
0
3DFACE
5
FB5A
330
F867
100
AcDbEntity
100
AcDbFace
8
CELIK_KIRIS_KOLON
10
15935
20
371.56772670457445
30
759.3316159477536
11
16065
21
371.56772670457445
31
759.3316159477536
12
16065
22
501.56772670457445
32
759.3316159477536
13
15935
23
501.56772670457445
33
759.3316159477536
0
3DFACE
5
FB5B
330
F867
100
AcDbEntity
100
AcDbFace
8
CELIK_KIRIS_KOLON
10
15935
20
371.56772670457445
30
869.3316159477536
11
16065
21
371.56772670457445
31
869.3316159477536
12
16065
22
501.56772670457445
32
869.3316159477536
13
15935
23
501.56772670457445
33
869.3316159477536
0
3DFACE
5
FB5C
330
F867
100
AcDbEntity
100
AcDbFace
8
CELIK_KIRIS_KOLON
10
15935
20
371.56772670457445
30
759.3316159477536
11
16065
21
371.56772670457445
31
759.3316159477536
12
16065
22
371.56772670457445
32
869.3316159477536
13
15935
23
371.56772670457445
33
869.3316159477536
0
3DFACE
5
FB5D
330
F867
100
AcDbEntity
100
AcDbFace
8
CELIK_KIRIS_KOLON
10
15935
20
501.56772670457445
30
759.3316159477536
11
16065
21
501.56772670457445
31
759.3316159477536
12
16065
22
501.56772670457445
32
869.3316159477536
13
15935
23
501.56772670457445
33
869.3316159477536
0
3DFACE
5
FB5E
330
F867
100
AcDbEntity
100
AcDbFace
8
CELIK_KIRIS_KOLON
10
15935
20
371.56772670457445
30
759.3316159477536
11
15935
21
501.56772670457445
31
759.3316159477536
12
15935
22
501.56772670457445
32
869.3316159477536
13
15935
23
371.56772670457445
33
869.3316159477536
0
3DFACE
5
FB5F
330
F867
100
AcDbEntity
100
AcDbFace
8
CELIK_KIRIS_KOLON
10
16065
20
371.56772670457445
30
759.3316159477536
11
16065
21
501.56772670457445
31
759.3316159477536
12
16065
22
501.56772670457445
32
869.3316159477536
13
16065
23
371.56772670457445
33
869.3316159477536
0
LINE
5
FB60
330
F867
100
AcDbEntity
100
AcDbLine
8
CELIK_KIRIS_KOLON
10
15935
20
371.56772670457445
30
759.3316159477536
11
16065
21
371.56772670457445
31
759.3316159477536
0
LINE
5
FB61
330
F867
100
AcDbEntity
100
AcDbLine
8
CELIK_KIRIS_KOLON
10
16065
20
371.56772670457445
30
759.3316159477536
11
16065
21
501.56772670457445
31
759.3316159477536
0
LINE
5
FB62
330
F867
100
AcDbEntity
100
AcDbLine
8
CELIK_KIRIS_KOLON
10
16065
20
501.56772670457445
30
759.3316159477536
11
15935
21
501.56772670457445
31
759.3316159477536
0
LINE
5
FB63
330
F867
100
AcDbEntity
100
AcDbLine
8
CELIK_KIRIS_KOLON
10
15935
20
501.56772670457445
30
759.3316159477536
11
15935
21
371.56772670457445
31
759.3316159477536
0
LINE
5
FB64
330
F867
100
AcDbEntity
100
AcDbLine
8
CELIK_KIRIS_KOLON
10
15935
20
371.56772670457445
30
869.3316159477536
11
16065
21
371.56772670457445
31
869.3316159477536
0
LINE
5
FB65
330
F867
100
AcDbEntity
100
AcDbLine
8
CELIK_KIRIS_KOLON
10
16065
20
371.56772670457445
30
869.3316159477536
11
16065
21
501.56772670457445
31
869.3316159477536
0
LINE
5
FB66
330
F867
100
AcDbEntity
100
AcDbLine
8
CELIK_KIRIS_KOLON
10
16065
20
501.56772670457445
30
869.3316159477536
11
15935
21
501.56772670457445
31
869.3316159477536
0
LINE
5
FB67
330
F867
100
AcDbEntity
100
AcDbLine
8
CELIK_KIRIS_KOLON
10
15935
20
501.56772670457445
30
869.3316159477536
11
15935
21
371.56772670457445
31
869.3316159477536
0
LINE
5
FB68
330
F867
100
AcDbEntity
100
AcDbLine
8
CELIK_KIRIS_KOLON
10
15935
20
371.56772670457445
30
759.3316159477536
11
15935
21
371.56772670457445
31
869.3316159477536
0
LINE
5
FB69
330
F867
100
AcDbEntity
100
AcDbLine
8
CELIK_KIRIS_KOLON
10
16065
20
371.56772670457445
30
759.3316159477536
11
16065
21
371.56772670457445
31
869.3316159477536
0
LINE
5
FB6A
330
F867
100
AcDbEntity
100
AcDbLine
8
CELIK_KIRIS_KOLON
10
16065
20
501.56772670457445
30
759.3316159477536
11
16065
21
501.56772670457445
31
869.3316159477536
0
LINE
5
FB6B
330
F867
100
AcDbEntity
100
AcDbLine
8
CELIK_KIRIS_KOLON
10
15935
20
501.56772670457445
30
759.3316159477536
11
15935
21
501.56772670457445
31
869.3316159477536
0
3DFACE
5
FB6C
330
F867
100
AcDbEntity
100
AcDbFace
8
CELIK_KIRIS_KOLON
10
15935
20
99.33161594775362
30
1031.5677267045744
11
16065
21
99.33161594775362
31
1031.5677267045744
12
16065
22
229.33161594775362
32
1031.5677267045744
13
15935
23
229.33161594775362
33
1031.5677267045744
0
3DFACE
5
FB6D
330
F867
100
AcDbEntity
100
AcDbFace
8
CELIK_KIRIS_KOLON
10
15935
20
99.33161594775362
30
1141.5677267045744
11
16065
21
99.33161594775362
31
1141.5677267045744
12
16065
22
229.33161594775362
32
1141.5677267045744
13
15935
23
229.33161594775362
33
1141.5677267045744
0
3DFACE
5
FB6E
330
F867
100
AcDbEntity
100
AcDbFace
8
CELIK_KIRIS_KOLON
10
15935
20
99.33161594775362
30
1031.5677267045744
11
16065
21
99.33161594775362
31
1031.5677267045744
12
16065
22
99.33161594775362
32
1141.5677267045744
13
15935
23
99.33161594775362
33
1141.5677267045744
0
3DFACE
5
FB6F
330
F867
100
AcDbEntity
100
AcDbFace
8
CELIK_KIRIS_KOLON
10
15935
20
229.33161594775362
30
1031.5677267045744
11
16065
21
229.33161594775362
31
1031.5677267045744
12
16065
22
229.33161594775362
32
1141.5677267045744
13
15935
23
229.33161594775362
33
1141.5677267045744
0
3DFACE
5
FB70
330
F867
100
AcDbEntity
100
AcDbFace
8
CELIK_KIRIS_KOLON
10
15935
20
99.33161594775362
30
1031.5677267045744
11
15935
21
229.33161594775362
31
1031.5677267045744
12
15935
22
229.33161594775362
32
1141.5677267045744
13
15935
23
99.33161594775362
33
1141.5677267045744
0
3DFACE
5
FB71
330
F867
100
AcDbEntity
100
AcDbFace
8
CELIK_KIRIS_KOLON
10
16065
20
99.33161594775362
30
1031.5677267045744
11
16065
21
229.33161594775362
31
1031.5677267045744
12
16065
22
229.33161594775362
32
1141.5677267045744
13
16065
23
99.33161594775362
33
1141.5677267045744
0
LINE
5
FB72
330
F867
100
AcDbEntity
100
AcDbLine
8
CELIK_KIRIS_KOLON
10
15935
20
99.33161594775362
30
1031.5677267045744
11
16065
21
99.33161594775362
31
1031.5677267045744
0
LINE
5
FB73
330
F867
100
AcDbEntity
100
AcDbLine
8
CELIK_KIRIS_KOLON
10
16065
20
99.33161594775362
30
1031.5677267045744
11
16065
21
229.33161594775362
31
1031.5677267045744
0
LINE
5
FB74
330
F867
100
AcDbEntity
100
AcDbLine
8
CELIK_KIRIS_KOLON
10
16065
20
229.33161594775362
30
1031.5677267045744
11
15935
21
229.33161594775362
31
1031.5677267045744
0
LINE
5
FB75
330
F867
100
AcDbEntity
100
AcDbLine
8
CELIK_KIRIS_KOLON
10
15935
20
229.33161594775362
30
1031.5677267045744
11
15935
21
99.33161594775362
31
1031.5677267045744
0
LINE
5
FB76
330
F867
100
AcDbEntity
100
AcDbLine
8
CELIK_KIRIS_KOLON
10
15935
20
99.33161594775362
30
1141.5677267045744
11
16065
21
99.33161594775362
31
1141.5677267045744
0
LINE
5
FB77
330
F867
100
AcDbEntity
100
AcDbLine
8
CELIK_KIRIS_KOLON
10
16065
20
99.33161594775362
30
1141.5677267045744
11
16065
21
229.33161594775362
31
1141.5677267045744
0
LINE
5
FB78
330
F867
100
AcDbEntity
100
AcDbLine
8
CELIK_KIRIS_KOLON
10
16065
20
229.33161594775362
30
1141.5677267045744
11
15935
21
229.33161594775362
31
1141.5677267045744
0
LINE
5
FB79
330
F867
100
AcDbEntity
100
AcDbLine
8
CELIK_KIRIS_KOLON
10
15935
20
229.33161594775362
30
1141.5677267045744
11
15935
21
99.33161594775362
31
1141.5677267045744
0
LINE
5
FB7A
330
F867
100
AcDbEntity
100
AcDbLine
8
CELIK_KIRIS_KOLON
10
15935
20
99.33161594775362
30
1031.5677267045744
11
15935
21
99.33161594775362
31
1141.5677267045744
0
LINE
5
FB7B
330
F867
100
AcDbEntity
100
AcDbLine
8
CELIK_KIRIS_KOLON
10
16065
20
99.33161594775362
30
1031.5677267045744
11
16065
21
99.33161594775362
31
1141.5677267045744
0
LINE
5
FB7C
330
F867
100
AcDbEntity
100
AcDbLine
8
CELIK_KIRIS_KOLON
10
16065
20
229.33161594775362
30
1031.5677267045744
11
16065
21
229.33161594775362
31
1141.5677267045744
0
LINE
5
FB7D
330
F867
100
AcDbEntity
100
AcDbLine
8
CELIK_KIRIS_KOLON
10
15935
20
229.33161594775362
30
1031.5677267045744
11
15935
21
229.33161594775362
31
1141.5677267045744
0
3DFACE
5
F890
330
F867
100
AcDbEntity
100
AcDbFace
8
MONTAJ_BORULARI
10
-14000
20
609.3846240265666
30
-62.366818100653575
11
-13973.059231636793
21
617.2753923897742
31
-54.47604973744609
12
-13973.059231636793
22
-54.476049737445976
32
617.2753923897742
13
-14000
23
-62.36681810065346
33
609.3846240265666
0
3DFACE
5
F891
330
F867
100
AcDbEntity
100
AcDbFace
8
MONTAJ_BORULARI
10
-13973.059231636793
20
617.2753923897742
30
-54.47604973744609
11
-13961.9
21
636.3253923897742
31
-35.426049737446135
12
-13961.9
22
-35.42604973744602
32
636.3253923897742
13
-13973.059231636793
23
-54.476049737445976
33
617.2753923897742
0
3DFACE
5
F892
330
F867
100
AcDbEntity
100
AcDbFace
8
MONTAJ_BORULARI
10
-13961.9
20
636.3253923897742
30
-35.426049737446135
11
-13973.059231636793
21
655.3753923897741
31
-16.376049737446124
12
-13973.059231636793
22
-16.37604973744601
32
655.3753923897741
13
-13961.9
23
-35.42604973744602
33
636.3253923897742
0
3DFACE
5
F893
330
F867
100
AcDbEntity
100
AcDbFace
8
MONTAJ_BORULARI
10
-13973.059231636793
20
655.3753923897741
30
-16.376049737446124
11
-14000
21
663.2661607529816
31
-8.485281374238639
12
-14000
22
-8.485281374238525
32
663.2661607529816
13
-13973.059231636793
23
-16.37604973744601
33
655.3753923897741
0
3DFACE
5
F894
330
F867
100
AcDbEntity
100
AcDbFace
8
MONTAJ_BORULARI
10
-14000
20
663.2661607529816
30
-8.485281374238639
11
-14026.940768363207
21
655.3753923897741
31
-16.376049737446124
12
-14026.940768363207
22
-16.37604973744601
32
655.3753923897741
13
-14000
23
-8.485281374238525
33
663.2661607529816
0
3DFACE
5
F895
330
F867
100
AcDbEntity
100
AcDbFace
8
MONTAJ_BORULARI
10
-14026.940768363207
20
655.3753923897741
30
-16.376049737446124
11
-14038.1
21
636.3253923897742
31
-35.426049737446135
12
-14038.1
22
-35.42604973744602
32
636.3253923897742
13
-14026.940768363207
23
-16.37604973744601
33
655.3753923897741
0
3DFACE
5
F896
330
F867
100
AcDbEntity
100
AcDbFace
8
MONTAJ_BORULARI
10
-14038.1
20
636.3253923897742
30
-35.426049737446135
11
-14026.940768363207
21
617.2753923897742
31
-54.47604973744609
12
-14026.940768363207
22
-54.476049737445976
32
617.2753923897742
13
-14038.1
23
-35.42604973744602
33
636.3253923897742
0
3DFACE
5
F897
330
F867
100
AcDbEntity
100
AcDbFace
8
MONTAJ_BORULARI
10
-14026.940768363207
20
617.2753923897742
30
-54.47604973744609
11
-14000
21
609.3846240265666
31
-62.366818100653575
12
-14000
22
-62.36681810065346
32
609.3846240265666
13
-14026.940768363207
23
-54.476049737445976
33
617.2753923897742
0
3DFACE
5
F898
330
F867
100
AcDbEntity
100
AcDbFace
8
MONTAJ_BORULARI
10
-14035
20
401.56772670457445
30
164.33161594775356
11
-13965
21
401.56772670457445
31
164.33161594775356
12
-13965
22
471.56772670457445
32
164.33161594775356
13
-14035
23
471.56772670457445
33
164.33161594775356
0
3DFACE
5
F899
330
F867
100
AcDbEntity
100
AcDbFace
8
MONTAJ_BORULARI
10
-14035
20
401.56772670457445
30
2200
11
-13965
21
401.56772670457445
31
2200
12
-13965
22
471.56772670457445
32
2200
13
-14035
23
471.56772670457445
33
2200
0
3DFACE
5
F89A
330
F867
100
AcDbEntity
100
AcDbFace
8
MONTAJ_BORULARI
10
-14035
20
401.56772670457445
30
164.33161594775356
11
-13965
21
401.56772670457445
31
164.33161594775356
12
-13965
22
401.56772670457445
32
2200
13
-14035
23
401.56772670457445
33
2200
0
3DFACE
5
F89B
330
F867
100
AcDbEntity
100
AcDbFace
8
MONTAJ_BORULARI
10
-14035
20
471.56772670457445
30
164.33161594775356
11
-13965
21
471.56772670457445
31
164.33161594775356
12
-13965
22
471.56772670457445
32
2200
13
-14035
23
471.56772670457445
33
2200
0
3DFACE
5
F89C
330
F867
100
AcDbEntity
100
AcDbFace
8
MONTAJ_BORULARI
10
-14035
20
401.56772670457445
30
164.33161594775356
11
-14035
21
471.56772670457445
31
164.33161594775356
12
-14035
22
471.56772670457445
32
2200
13
-14035
23
401.56772670457445
33
2200
0
3DFACE
5
F89D
330
F867
100
AcDbEntity
100
AcDbFace
8
MONTAJ_BORULARI
10
-13965
20
401.56772670457445
30
164.33161594775356
11
-13965
21
471.56772670457445
31
164.33161594775356
12
-13965
22
471.56772670457445
32
2200
13
-13965
23
401.56772670457445
33
2200
0
LINE
5
F89E
330
F867
100
AcDbEntity
100
AcDbLine
8
MONTAJ_BORULARI
10
-14035
20
401.56772670457445
30
164.33161594775356
11
-13965
21
401.56772670457445
31
164.33161594775356
0
LINE
5
F89F
330
F867
100
AcDbEntity
100
AcDbLine
8
MONTAJ_BORULARI
10
-13965
20
401.56772670457445
30
164.33161594775356
11
-13965
21
471.56772670457445
31
164.33161594775356
0
LINE
5
F8A0
330
F867
100
AcDbEntity
100
AcDbLine
8
MONTAJ_BORULARI
10
-13965
20
471.56772670457445
30
164.33161594775356
11
-14035
21
471.56772670457445
31
164.33161594775356
0
LINE
5
F8A1
330
F867
100
AcDbEntity
100
AcDbLine
8
MONTAJ_BORULARI
10
-14035
20
471.56772670457445
30
164.33161594775356
11
-14035
21
401.56772670457445
31
164.33161594775356
0
LINE
5
F8A2
330
F867
100
AcDbEntity
100
AcDbLine
8
MONTAJ_BORULARI
10
-14035
20
401.56772670457445
30
2200
11
-13965
21
401.56772670457445
31
2200
0
LINE
5
F8A3
330
F867
100
AcDbEntity
100
AcDbLine
8
MONTAJ_BORULARI
10
-13965
20
401.56772670457445
30
2200
11
-13965
21
471.56772670457445
31
2200
0
LINE
5
F8A4
330
F867
100
AcDbEntity
100
AcDbLine
8
MONTAJ_BORULARI
10
-13965
20
471.56772670457445
30
2200
11
-14035
21
471.56772670457445
31
2200
0
LINE
5
F8A5
330
F867
100
AcDbEntity
100
AcDbLine
8
MONTAJ_BORULARI
10
-14035
20
471.56772670457445
30
2200
11
-14035
21
401.56772670457445
31
2200
0
LINE
5
F8A6
330
F867
100
AcDbEntity
100
AcDbLine
8
MONTAJ_BORULARI
10
-14035
20
401.56772670457445
30
164.33161594775356
11
-14035
21
401.56772670457445
31
2200
0
LINE
5
F8A7
330
F867
100
AcDbEntity
100
AcDbLine
8
MONTAJ_BORULARI
10
-13965
20
401.56772670457445
30
164.33161594775356
11
-13965
21
401.56772670457445
31
2200
0
LINE
5
F8A8
330
F867
100
AcDbEntity
100
AcDbLine
8
MONTAJ_BORULARI
10
-13965
20
471.56772670457445
30
164.33161594775356
11
-13965
21
471.56772670457445
31
2200
0
LINE
5
F8A9
330
F867
100
AcDbEntity
100
AcDbLine
8
MONTAJ_BORULARI
10
-14035
20
471.56772670457445
30
164.33161594775356
11
-14035
21
471.56772670457445
31
2200
0
3DFACE
5
F8AA
330
F867
100
AcDbEntity
100
AcDbFace
8
MONTAJ_BORULARI
10
-14035
20
129.33161594775362
30
436.5677267045744
11
-13965
21
129.33161594775362
31
436.5677267045744
12
-13965
22
199.33161594775362
32
436.5677267045744
13
-14035
23
199.33161594775362
33
436.5677267045744
0
3DFACE
5
F8AB
330
F867
100
AcDbEntity
100
AcDbFace
8
MONTAJ_BORULARI
10
-14035
20
129.33161594775362
30
2200
11
-13965
21
129.33161594775362
31
2200
12
-13965
22
199.33161594775362
32
2200
13
-14035
23
199.33161594775362
33
2200
0
3DFACE
5
F8AC
330
F867
100
AcDbEntity
100
AcDbFace
8
MONTAJ_BORULARI
10
-14035
20
129.33161594775362
30
436.5677267045744
11
-13965
21
129.33161594775362
31
436.5677267045744
12
-13965
22
129.33161594775362
32
2200
13
-14035
23
129.33161594775362
33
2200
0
3DFACE
5
F8AD
330
F867
100
AcDbEntity
100
AcDbFace
8
MONTAJ_BORULARI
10
-14035
20
199.33161594775362
30
436.5677267045744
11
-13965
21
199.33161594775362
31
436.5677267045744
12
-13965
22
199.33161594775362
32
2200
13
-14035
23
199.33161594775362
33
2200
0
3DFACE
5
F8AE
330
F867
100
AcDbEntity
100
AcDbFace
8
MONTAJ_BORULARI
10
-14035
20
129.33161594775362
30
436.5677267045744
11
-14035
21
199.33161594775362
31
436.5677267045744
12
-14035
22
199.33161594775362
32
2200
13
-14035
23
129.33161594775362
33
2200
0
3DFACE
5
F8AF
330
F867
100
AcDbEntity
100
AcDbFace
8
MONTAJ_BORULARI
10
-13965
20
129.33161594775362
30
436.5677267045744
11
-13965
21
199.33161594775362
31
436.5677267045744
12
-13965
22
199.33161594775362
32
2200
13
-13965
23
129.33161594775362
33
2200
0
LINE
5
F8B0
330
F867
100
AcDbEntity
100
AcDbLine
8
MONTAJ_BORULARI
10
-14035
20
129.33161594775362
30
436.5677267045744
11
-13965
21
129.33161594775362
31
436.5677267045744
0
LINE
5
F8B1
330
F867
100
AcDbEntity
100
AcDbLine
8
MONTAJ_BORULARI
10
-13965
20
129.33161594775362
30
436.5677267045744
11
-13965
21
199.33161594775362
31
436.5677267045744
0
LINE
5
F8B2
330
F867
100
AcDbEntity
100
AcDbLine
8
MONTAJ_BORULARI
10
-13965
20
199.33161594775362
30
436.5677267045744
11
-14035
21
199.33161594775362
31
436.5677267045744
0
LINE
5
F8B3
330
F867
100
AcDbEntity
100
AcDbLine
8
MONTAJ_BORULARI
10
-14035
20
199.33161594775362
30
436.5677267045744
11
-14035
21
129.33161594775362
31
436.5677267045744
0
LINE
5
F8B4
330
F867
100
AcDbEntity
100
AcDbLine
8
MONTAJ_BORULARI
10
-14035
20
129.33161594775362
30
2200
11
-13965
21
129.33161594775362
31
2200
0
LINE
5
F8B5
330
F867
100
AcDbEntity
100
AcDbLine
8
MONTAJ_BORULARI
10
-13965
20
129.33161594775362
30
2200
11
-13965
21
199.33161594775362
31
2200
0
LINE
5
F8B6
330
F867
100
AcDbEntity
100
AcDbLine
8
MONTAJ_BORULARI
10
-13965
20
199.33161594775362
30
2200
11
-14035
21
199.33161594775362
31
2200
0
LINE
5
F8B7
330
F867
100
AcDbEntity
100
AcDbLine
8
MONTAJ_BORULARI
10
-14035
20
199.33161594775362
30
2200
11
-14035
21
129.33161594775362
31
2200
0
LINE
5
F8B8
330
F867
100
AcDbEntity
100
AcDbLine
8
MONTAJ_BORULARI
10
-14035
20
129.33161594775362
30
436.5677267045744
11
-14035
21
129.33161594775362
31
2200
0
LINE
5
F8B9
330
F867
100
AcDbEntity
100
AcDbLine
8
MONTAJ_BORULARI
10
-13965
20
129.33161594775362
30
436.5677267045744
11
-13965
21
129.33161594775362
31
2200
0
LINE
5
F8BA
330
F867
100
AcDbEntity
100
AcDbLine
8
MONTAJ_BORULARI
10
-13965
20
199.33161594775362
30
436.5677267045744
11
-13965
21
199.33161594775362
31
2200
0
LINE
5
F8BB
330
F867
100
AcDbEntity
100
AcDbLine
8
MONTAJ_BORULARI
10
-14035
20
199.33161594775362
30
436.5677267045744
11
-14035
21
199.33161594775362
31
2200
0
3DFACE
5
F8F1
330
F867
100
AcDbEntity
100
AcDbFace
8
MONTAJ_BORULARI
10
-4500
20
609.3846240265666
30
-62.366818100653575
11
-4473.059231636793
21
617.2753923897742
31
-54.47604973744609
12
-4473.059231636793
22
-54.476049737445976
32
617.2753923897742
13
-4500
23
-62.36681810065346
33
609.3846240265666
0
3DFACE
5
F8F2
330
F867
100
AcDbEntity
100
AcDbFace
8
MONTAJ_BORULARI
10
-4473.059231636793
20
617.2753923897742
30
-54.47604973744609
11
-4461.9
21
636.3253923897742
31
-35.426049737446135
12
-4461.9
22
-35.42604973744602
32
636.3253923897742
13
-4473.059231636793
23
-54.476049737445976
33
617.2753923897742
0
3DFACE
5
F8F3
330
F867
100
AcDbEntity
100
AcDbFace
8
MONTAJ_BORULARI
10
-4461.9
20
636.3253923897742
30
-35.426049737446135
11
-4473.059231636793
21
655.3753923897741
31
-16.376049737446124
12
-4473.059231636793
22
-16.37604973744601
32
655.3753923897741
13
-4461.9
23
-35.42604973744602
33
636.3253923897742
0
3DFACE
5
F8F4
330
F867
100
AcDbEntity
100
AcDbFace
8
MONTAJ_BORULARI
10
-4473.059231636793
20
655.3753923897741
30
-16.376049737446124
11
-4500
21
663.2661607529816
31
-8.485281374238639
12
-4500
22
-8.485281374238525
32
663.2661607529816
13
-4473.059231636793
23
-16.37604973744601
33
655.3753923897741
0
3DFACE
5
F8F5
330
F867
100
AcDbEntity
100
AcDbFace
8
MONTAJ_BORULARI
10
-4500
20
663.2661607529816
30
-8.485281374238639
11
-4526.940768363207
21
655.3753923897741
31
-16.376049737446124
12
-4526.940768363207
22
-16.37604973744601
32
655.3753923897741
13
-4500
23
-8.485281374238525
33
663.2661607529816
0
3DFACE
5
F8F6
330
F867
100
AcDbEntity
100
AcDbFace
8
MONTAJ_BORULARI
10
-4526.940768363207
20
655.3753923897741
30
-16.376049737446124
11
-4538.1
21
636.3253923897742
31
-35.426049737446135
12
-4538.1
22
-35.42604973744602
32
636.3253923897742
13
-4526.940768363207
23
-16.37604973744601
33
655.3753923897741
0
3DFACE
5
F8F7
330
F867
100
AcDbEntity
100
AcDbFace
8
MONTAJ_BORULARI
10
-4538.1
20
636.3253923897742
30
-35.426049737446135
11
-4526.940768363207
21
617.2753923897742
31
-54.47604973744609
12
-4526.940768363207
22
-54.476049737445976
32
617.2753923897742
13
-4538.1
23
-35.42604973744602
33
636.3253923897742
0
3DFACE
5
F8F8
330
F867
100
AcDbEntity
100
AcDbFace
8
MONTAJ_BORULARI
10
-4526.940768363207
20
617.2753923897742
30
-54.47604973744609
11
-4500
21
609.3846240265666
31
-62.366818100653575
12
-4500
22
-62.36681810065346
32
609.3846240265666
13
-4526.940768363207
23
-54.476049737445976
33
617.2753923897742
0
3DFACE
5
F8F9
330
F867
100
AcDbEntity
100
AcDbFace
8
MONTAJ_BORULARI
10
-4535
20
401.56772670457445
30
164.33161594775356
11
-4465
21
401.56772670457445
31
164.33161594775356
12
-4465
22
471.56772670457445
32
164.33161594775356
13
-4535
23
471.56772670457445
33
164.33161594775356
0
3DFACE
5
F8FA
330
F867
100
AcDbEntity
100
AcDbFace
8
MONTAJ_BORULARI
10
-4535
20
401.56772670457445
30
2200
11
-4465
21
401.56772670457445
31
2200
12
-4465
22
471.56772670457445
32
2200
13
-4535
23
471.56772670457445
33
2200
0
3DFACE
5
F8FB
330
F867
100
AcDbEntity
100
AcDbFace
8
MONTAJ_BORULARI
10
-4535
20
401.56772670457445
30
164.33161594775356
11
-4465
21
401.56772670457445
31
164.33161594775356
12
-4465
22
401.56772670457445
32
2200
13
-4535
23
401.56772670457445
33
2200
0
3DFACE
5
F8FC
330
F867
100
AcDbEntity
100
AcDbFace
8
MONTAJ_BORULARI
10
-4535
20
471.56772670457445
30
164.33161594775356
11
-4465
21
471.56772670457445
31
164.33161594775356
12
-4465
22
471.56772670457445
32
2200
13
-4535
23
471.56772670457445
33
2200
0
3DFACE
5
F8FD
330
F867
100
AcDbEntity
100
AcDbFace
8
MONTAJ_BORULARI
10
-4535
20
401.56772670457445
30
164.33161594775356
11
-4535
21
471.56772670457445
31
164.33161594775356
12
-4535
22
471.56772670457445
32
2200
13
-4535
23
401.56772670457445
33
2200
0
3DFACE
5
F8FE
330
F867
100
AcDbEntity
100
AcDbFace
8
MONTAJ_BORULARI
10
-4465
20
401.56772670457445
30
164.33161594775356
11
-4465
21
471.56772670457445
31
164.33161594775356
12
-4465
22
471.56772670457445
32
2200
13
-4465
23
401.56772670457445
33
2200
0
LINE
5
F8FF
330
F867
100
AcDbEntity
100
AcDbLine
8
MONTAJ_BORULARI
10
-4535
20
401.56772670457445
30
164.33161594775356
11
-4465
21
401.56772670457445
31
164.33161594775356
0
LINE
5
F900
330
F867
100
AcDbEntity
100
AcDbLine
8
MONTAJ_BORULARI
10
-4465
20
401.56772670457445
30
164.33161594775356
11
-4465
21
471.56772670457445
31
164.33161594775356
0
LINE
5
F901
330
F867
100
AcDbEntity
100
AcDbLine
8
MONTAJ_BORULARI
10
-4465
20
471.56772670457445
30
164.33161594775356
11
-4535
21
471.56772670457445
31
164.33161594775356
0
LINE
5
F902
330
F867
100
AcDbEntity
100
AcDbLine
8
MONTAJ_BORULARI
10
-4535
20
471.56772670457445
30
164.33161594775356
11
-4535
21
401.56772670457445
31
164.33161594775356
0
LINE
5
F903
330
F867
100
AcDbEntity
100
AcDbLine
8
MONTAJ_BORULARI
10
-4535
20
401.56772670457445
30
2200
11
-4465
21
401.56772670457445
31
2200
0
LINE
5
F904
330
F867
100
AcDbEntity
100
AcDbLine
8
MONTAJ_BORULARI
10
-4465
20
401.56772670457445
30
2200
11
-4465
21
471.56772670457445
31
2200
0
LINE
5
F905
330
F867
100
AcDbEntity
100
AcDbLine
8
MONTAJ_BORULARI
10
-4465
20
471.56772670457445
30
2200
11
-4535
21
471.56772670457445
31
2200
0
LINE
5
F906
330
F867
100
AcDbEntity
100
AcDbLine
8
MONTAJ_BORULARI
10
-4535
20
471.56772670457445
30
2200
11
-4535
21
401.56772670457445
31
2200
0
LINE
5
F907
330
F867
100
AcDbEntity
100
AcDbLine
8
MONTAJ_BORULARI
10
-4535
20
401.56772670457445
30
164.33161594775356
11
-4535
21
401.56772670457445
31
2200
0
LINE
5
F908
330
F867
100
AcDbEntity
100
AcDbLine
8
MONTAJ_BORULARI
10
-4465
20
401.56772670457445
30
164.33161594775356
11
-4465
21
401.56772670457445
31
2200
0
LINE
5
F909
330
F867
100
AcDbEntity
100
AcDbLine
8
MONTAJ_BORULARI
10
-4465
20
471.56772670457445
30
164.33161594775356
11
-4465
21
471.56772670457445
31
2200
0
LINE
5
F90A
330
F867
100
AcDbEntity
100
AcDbLine
8
MONTAJ_BORULARI
10
-4535
20
471.56772670457445
30
164.33161594775356
11
-4535
21
471.56772670457445
31
2200
0
3DFACE
5
F90B
330
F867
100
AcDbEntity
100
AcDbFace
8
MONTAJ_BORULARI
10
-4535
20
129.33161594775362
30
436.5677267045744
11
-4465
21
129.33161594775362
31
436.5677267045744
12
-4465
22
199.33161594775362
32
436.5677267045744
13
-4535
23
199.33161594775362
33
436.5677267045744
0
3DFACE
5
F90C
330
F867
100
AcDbEntity
100
AcDbFace
8
MONTAJ_BORULARI
10
-4535
20
129.33161594775362
30
2200
11
-4465
21
129.33161594775362
31
2200
12
-4465
22
199.33161594775362
32
2200
13
-4535
23
199.33161594775362
33
2200
0
3DFACE
5
F90D
330
F867
100
AcDbEntity
100
AcDbFace
8
MONTAJ_BORULARI
10
-4535
20
129.33161594775362
30
436.5677267045744
11
-4465
21
129.33161594775362
31
436.5677267045744
12
-4465
22
129.33161594775362
32
2200
13
-4535
23
129.33161594775362
33
2200
0
3DFACE
5
F90E
330
F867
100
AcDbEntity
100
AcDbFace
8
MONTAJ_BORULARI
10
-4535
20
199.33161594775362
30
436.5677267045744
11
-4465
21
199.33161594775362
31
436.5677267045744
12
-4465
22
199.33161594775362
32
2200
13
-4535
23
199.33161594775362
33
2200
0
3DFACE
5
F90F
330
F867
100
AcDbEntity
100
AcDbFace
8
MONTAJ_BORULARI
10
-4535
20
129.33161594775362
30
436.5677267045744
11
-4535
21
199.33161594775362
31
436.5677267045744
12
-4535
22
199.33161594775362
32
2200
13
-4535
23
129.33161594775362
33
2200
0
3DFACE
5
F910
330
F867
100
AcDbEntity
100
AcDbFace
8
MONTAJ_BORULARI
10
-4465
20
129.33161594775362
30
436.5677267045744
11
-4465
21
199.33161594775362
31
436.5677267045744
12
-4465
22
199.33161594775362
32
2200
13
-4465
23
129.33161594775362
33
2200
0
LINE
5
F911
330
F867
100
AcDbEntity
100
AcDbLine
8
MONTAJ_BORULARI
10
-4535
20
129.33161594775362
30
436.5677267045744
11
-4465
21
129.33161594775362
31
436.5677267045744
0
LINE
5
F912
330
F867
100
AcDbEntity
100
AcDbLine
8
MONTAJ_BORULARI
10
-4465
20
129.33161594775362
30
436.5677267045744
11
-4465
21
199.33161594775362
31
436.5677267045744
0
LINE
5
F913
330
F867
100
AcDbEntity
100
AcDbLine
8
MONTAJ_BORULARI
10
-4465
20
199.33161594775362
30
436.5677267045744
11
-4535
21
199.33161594775362
31
436.5677267045744
0
LINE
5
F914
330
F867
100
AcDbEntity
100
AcDbLine
8
MONTAJ_BORULARI
10
-4535
20
199.33161594775362
30
436.5677267045744
11
-4535
21
129.33161594775362
31
436.5677267045744
0
LINE
5
F915
330
F867
100
AcDbEntity
100
AcDbLine
8
MONTAJ_BORULARI
10
-4535
20
129.33161594775362
30
2200
11
-4465
21
129.33161594775362
31
2200
0
LINE
5
F916
330
F867
100
AcDbEntity
100
AcDbLine
8
MONTAJ_BORULARI
10
-4465
20
129.33161594775362
30
2200
11
-4465
21
199.33161594775362
31
2200
0
LINE
5
F917
330
F867
100
AcDbEntity
100
AcDbLine
8
MONTAJ_BORULARI
10
-4465
20
199.33161594775362
30
2200
11
-4535
21
199.33161594775362
31
2200
0
LINE
5
F918
330
F867
100
AcDbEntity
100
AcDbLine
8
MONTAJ_BORULARI
10
-4535
20
199.33161594775362
30
2200
11
-4535
21
129.33161594775362
31
2200
0
LINE
5
F919
330
F867
100
AcDbEntity
100
AcDbLine
8
MONTAJ_BORULARI
10
-4535
20
129.33161594775362
30
436.5677267045744
11
-4535
21
129.33161594775362
31
2200
0
LINE
5
F91A
330
F867
100
AcDbEntity
100
AcDbLine
8
MONTAJ_BORULARI
10
-4465
20
129.33161594775362
30
436.5677267045744
11
-4465
21
129.33161594775362
31
2200
0
LINE
5
F91B
330
F867
100
AcDbEntity
100
AcDbLine
8
MONTAJ_BORULARI
10
-4465
20
199.33161594775362
30
436.5677267045744
11
-4465
21
199.33161594775362
31
2200
0
LINE
5
F91C
330
F867
100
AcDbEntity
100
AcDbLine
8
MONTAJ_BORULARI
10
-4535
20
199.33161594775362
30
436.5677267045744
11
-4535
21
199.33161594775362
31
2200
0
3DFACE
5
F952
330
F867
100
AcDbEntity
100
AcDbFace
8
MONTAJ_BORULARI
10
-3500
20
609.3846240265666
30
-62.366818100653575
11
-3473.0592316367924
21
617.2753923897742
31
-54.47604973744609
12
-3473.0592316367924
22
-54.476049737445976
32
617.2753923897742
13
-3500
23
-62.36681810065346
33
609.3846240265666
0
3DFACE
5
F953
330
F867
100
AcDbEntity
100
AcDbFace
8
MONTAJ_BORULARI
10
-3473.0592316367924
20
617.2753923897742
30
-54.47604973744609
11
-3461.9
21
636.3253923897742
31
-35.426049737446135
12
-3461.9
22
-35.42604973744602
32
636.3253923897742
13
-3473.0592316367924
23
-54.476049737445976
33
617.2753923897742
0
3DFACE
5
F954
330
F867
100
AcDbEntity
100
AcDbFace
8
MONTAJ_BORULARI
10
-3461.9
20
636.3253923897742
30
-35.426049737446135
11
-3473.0592316367924
21
655.3753923897741
31
-16.376049737446124
12
-3473.0592316367924
22
-16.37604973744601
32
655.3753923897741
13
-3461.9
23
-35.42604973744602
33
636.3253923897742
0
3DFACE
5
F955
330
F867
100
AcDbEntity
100
AcDbFace
8
MONTAJ_BORULARI
10
-3473.0592316367924
20
655.3753923897741
30
-16.376049737446124
11
-3500
21
663.2661607529816
31
-8.485281374238639
12
-3500
22
-8.485281374238525
32
663.2661607529816
13
-3473.0592316367924
23
-16.37604973744601
33
655.3753923897741
0
3DFACE
5
F956
330
F867
100
AcDbEntity
100
AcDbFace
8
MONTAJ_BORULARI
10
-3500
20
663.2661607529816
30
-8.485281374238639
11
-3526.9407683632076
21
655.3753923897741
31
-16.376049737446124
12
-3526.9407683632076
22
-16.37604973744601
32
655.3753923897741
13
-3500
23
-8.485281374238525
33
663.2661607529816
0
3DFACE
5
F957
330
F867
100
AcDbEntity
100
AcDbFace
8
MONTAJ_BORULARI
10
-3526.9407683632076
20
655.3753923897741
30
-16.376049737446124
11
-3538.1
21
636.3253923897742
31
-35.426049737446135
12
-3538.1
22
-35.42604973744602
32
636.3253923897742
13
-3526.9407683632076
23
-16.37604973744601
33
655.3753923897741
0
3DFACE
5
F958
330
F867
100
AcDbEntity
100
AcDbFace
8
MONTAJ_BORULARI
10
-3538.1
20
636.3253923897742
30
-35.426049737446135
11
-3526.9407683632076
21
617.2753923897742
31
-54.47604973744609
12
-3526.9407683632076
22
-54.476049737445976
32
617.2753923897742
13
-3538.1
23
-35.42604973744602
33
636.3253923897742
0
3DFACE
5
F959
330
F867
100
AcDbEntity
100
AcDbFace
8
MONTAJ_BORULARI
10
-3526.9407683632076
20
617.2753923897742
30
-54.47604973744609
11
-3500
21
609.3846240265666
31
-62.366818100653575
12
-3500
22
-62.36681810065346
32
609.3846240265666
13
-3526.9407683632076
23
-54.476049737445976
33
617.2753923897742
0
3DFACE
5
F95A
330
F867
100
AcDbEntity
100
AcDbFace
8
MONTAJ_BORULARI
10
-3535
20
401.56772670457445
30
164.33161594775356
11
-3465
21
401.56772670457445
31
164.33161594775356
12
-3465
22
471.56772670457445
32
164.33161594775356
13
-3535
23
471.56772670457445
33
164.33161594775356
0
3DFACE
5
F95B
330
F867
100
AcDbEntity
100
AcDbFace
8
MONTAJ_BORULARI
10
-3535
20
401.56772670457445
30
2200
11
-3465
21
401.56772670457445
31
2200
12
-3465
22
471.56772670457445
32
2200
13
-3535
23
471.56772670457445
33
2200
0
3DFACE
5
F95C
330
F867
100
AcDbEntity
100
AcDbFace
8
MONTAJ_BORULARI
10
-3535
20
401.56772670457445
30
164.33161594775356
11
-3465
21
401.56772670457445
31
164.33161594775356
12
-3465
22
401.56772670457445
32
2200
13
-3535
23
401.56772670457445
33
2200
0
3DFACE
5
F95D
330
F867
100
AcDbEntity
100
AcDbFace
8
MONTAJ_BORULARI
10
-3535
20
471.56772670457445
30
164.33161594775356
11
-3465
21
471.56772670457445
31
164.33161594775356
12
-3465
22
471.56772670457445
32
2200
13
-3535
23
471.56772670457445
33
2200
0
3DFACE
5
F95E
330
F867
100
AcDbEntity
100
AcDbFace
8
MONTAJ_BORULARI
10
-3535
20
401.56772670457445
30
164.33161594775356
11
-3535
21
471.56772670457445
31
164.33161594775356
12
-3535
22
471.56772670457445
32
2200
13
-3535
23
401.56772670457445
33
2200
0
3DFACE
5
F95F
330
F867
100
AcDbEntity
100
AcDbFace
8
MONTAJ_BORULARI
10
-3465
20
401.56772670457445
30
164.33161594775356
11
-3465
21
471.56772670457445
31
164.33161594775356
12
-3465
22
471.56772670457445
32
2200
13
-3465
23
401.56772670457445
33
2200
0
LINE
5
F960
330
F867
100
AcDbEntity
100
AcDbLine
8
MONTAJ_BORULARI
10
-3535
20
401.56772670457445
30
164.33161594775356
11
-3465
21
401.56772670457445
31
164.33161594775356
0
LINE
5
F961
330
F867
100
AcDbEntity
100
AcDbLine
8
MONTAJ_BORULARI
10
-3465
20
401.56772670457445
30
164.33161594775356
11
-3465
21
471.56772670457445
31
164.33161594775356
0
LINE
5
F962
330
F867
100
AcDbEntity
100
AcDbLine
8
MONTAJ_BORULARI
10
-3465
20
471.56772670457445
30
164.33161594775356
11
-3535
21
471.56772670457445
31
164.33161594775356
0
LINE
5
F963
330
F867
100
AcDbEntity
100
AcDbLine
8
MONTAJ_BORULARI
10
-3535
20
471.56772670457445
30
164.33161594775356
11
-3535
21
401.56772670457445
31
164.33161594775356
0
LINE
5
F964
330
F867
100
AcDbEntity
100
AcDbLine
8
MONTAJ_BORULARI
10
-3535
20
401.56772670457445
30
2200
11
-3465
21
401.56772670457445
31
2200
0
LINE
5
F965
330
F867
100
AcDbEntity
100
AcDbLine
8
MONTAJ_BORULARI
10
-3465
20
401.56772670457445
30
2200
11
-3465
21
471.56772670457445
31
2200
0
LINE
5
F966
330
F867
100
AcDbEntity
100
AcDbLine
8
MONTAJ_BORULARI
10
-3465
20
471.56772670457445
30
2200
11
-3535
21
471.56772670457445
31
2200
0
LINE
5
F967
330
F867
100
AcDbEntity
100
AcDbLine
8
MONTAJ_BORULARI
10
-3535
20
471.56772670457445
30
2200
11
-3535
21
401.56772670457445
31
2200
0
LINE
5
F968
330
F867
100
AcDbEntity
100
AcDbLine
8
MONTAJ_BORULARI
10
-3535
20
401.56772670457445
30
164.33161594775356
11
-3535
21
401.56772670457445
31
2200
0
LINE
5
F969
330
F867
100
AcDbEntity
100
AcDbLine
8
MONTAJ_BORULARI
10
-3465
20
401.56772670457445
30
164.33161594775356
11
-3465
21
401.56772670457445
31
2200
0
LINE
5
F96A
330
F867
100
AcDbEntity
100
AcDbLine
8
MONTAJ_BORULARI
10
-3465
20
471.56772670457445
30
164.33161594775356
11
-3465
21
471.56772670457445
31
2200
0
LINE
5
F96B
330
F867
100
AcDbEntity
100
AcDbLine
8
MONTAJ_BORULARI
10
-3535
20
471.56772670457445
30
164.33161594775356
11
-3535
21
471.56772670457445
31
2200
0
3DFACE
5
F96C
330
F867
100
AcDbEntity
100
AcDbFace
8
MONTAJ_BORULARI
10
-3535
20
129.33161594775362
30
436.5677267045744
11
-3465
21
129.33161594775362
31
436.5677267045744
12
-3465
22
199.33161594775362
32
436.5677267045744
13
-3535
23
199.33161594775362
33
436.5677267045744
0
3DFACE
5
F96D
330
F867
100
AcDbEntity
100
AcDbFace
8
MONTAJ_BORULARI
10
-3535
20
129.33161594775362
30
2200
11
-3465
21
129.33161594775362
31
2200
12
-3465
22
199.33161594775362
32
2200
13
-3535
23
199.33161594775362
33
2200
0
3DFACE
5
F96E
330
F867
100
AcDbEntity
100
AcDbFace
8
MONTAJ_BORULARI
10
-3535
20
129.33161594775362
30
436.5677267045744
11
-3465
21
129.33161594775362
31
436.5677267045744
12
-3465
22
129.33161594775362
32
2200
13
-3535
23
129.33161594775362
33
2200
0
3DFACE
5
F96F
330
F867
100
AcDbEntity
100
AcDbFace
8
MONTAJ_BORULARI
10
-3535
20
199.33161594775362
30
436.5677267045744
11
-3465
21
199.33161594775362
31
436.5677267045744
12
-3465
22
199.33161594775362
32
2200
13
-3535
23
199.33161594775362
33
2200
0
3DFACE
5
F970
330
F867
100
AcDbEntity
100
AcDbFace
8
MONTAJ_BORULARI
10
-3535
20
129.33161594775362
30
436.5677267045744
11
-3535
21
199.33161594775362
31
436.5677267045744
12
-3535
22
199.33161594775362
32
2200
13
-3535
23
129.33161594775362
33
2200
0
3DFACE
5
F971
330
F867
100
AcDbEntity
100
AcDbFace
8
MONTAJ_BORULARI
10
-3465
20
129.33161594775362
30
436.5677267045744
11
-3465
21
199.33161594775362
31
436.5677267045744
12
-3465
22
199.33161594775362
32
2200
13
-3465
23
129.33161594775362
33
2200
0
LINE
5
F972
330
F867
100
AcDbEntity
100
AcDbLine
8
MONTAJ_BORULARI
10
-3535
20
129.33161594775362
30
436.5677267045744
11
-3465
21
129.33161594775362
31
436.5677267045744
0
LINE
5
F973
330
F867
100
AcDbEntity
100
AcDbLine
8
MONTAJ_BORULARI
10
-3465
20
129.33161594775362
30
436.5677267045744
11
-3465
21
199.33161594775362
31
436.5677267045744
0
LINE
5
F974
330
F867
100
AcDbEntity
100
AcDbLine
8
MONTAJ_BORULARI
10
-3465
20
199.33161594775362
30
436.5677267045744
11
-3535
21
199.33161594775362
31
436.5677267045744
0
LINE
5
F975
330
F867
100
AcDbEntity
100
AcDbLine
8
MONTAJ_BORULARI
10
-3535
20
199.33161594775362
30
436.5677267045744
11
-3535
21
129.33161594775362
31
436.5677267045744
0
LINE
5
F976
330
F867
100
AcDbEntity
100
AcDbLine
8
MONTAJ_BORULARI
10
-3535
20
129.33161594775362
30
2200
11
-3465
21
129.33161594775362
31
2200
0
LINE
5
F977
330
F867
100
AcDbEntity
100
AcDbLine
8
MONTAJ_BORULARI
10
-3465
20
129.33161594775362
30
2200
11
-3465
21
199.33161594775362
31
2200
0
LINE
5
F978
330
F867
100
AcDbEntity
100
AcDbLine
8
MONTAJ_BORULARI
10
-3465
20
199.33161594775362
30
2200
11
-3535
21
199.33161594775362
31
2200
0
LINE
5
F979
330
F867
100
AcDbEntity
100
AcDbLine
8
MONTAJ_BORULARI
10
-3535
20
199.33161594775362
30
2200
11
-3535
21
129.33161594775362
31
2200
0
LINE
5
F97A
330
F867
100
AcDbEntity
100
AcDbLine
8
MONTAJ_BORULARI
10
-3535
20
129.33161594775362
30
436.5677267045744
11
-3535
21
129.33161594775362
31
2200
0
LINE
5
F97B
330
F867
100
AcDbEntity
100
AcDbLine
8
MONTAJ_BORULARI
10
-3465
20
129.33161594775362
30
436.5677267045744
11
-3465
21
129.33161594775362
31
2200
0
LINE
5
F97C
330
F867
100
AcDbEntity
100
AcDbLine
8
MONTAJ_BORULARI
10
-3465
20
199.33161594775362
30
436.5677267045744
11
-3465
21
199.33161594775362
31
2200
0
LINE
5
F97D
330
F867
100
AcDbEntity
100
AcDbLine
8
MONTAJ_BORULARI
10
-3535
20
199.33161594775362
30
436.5677267045744
11
-3535
21
199.33161594775362
31
2200
0
3DFACE
5
F9C5
330
F867
100
AcDbEntity
100
AcDbFace
8
MONTAJ_BORULARI
10
6308.421816450025
20
692.6342344181598
30
-62.366818100653575
11
6336.436659405767
21
690.834845764509
31
-54.47604973744609
12
6106.684134890191
22
59.59497259526803
32
617.2753923897742
13
6078.669291934449
23
61.39436124891892
33
609.3846240265666
0
3DFACE
5
F9C6
330
F867
100
AcDbEntity
100
AcDbFace
8
MONTAJ_BORULARI
10
6336.436659405767
20
690.834845764509
30
-54.47604973744609
11
6353.438390758856
21
704.9193081866605
31
-35.426049737446135
12
6123.68586624328
22
73.67943501741942
32
636.3253923897742
13
6106.684134890191
23
59.59497259526803
33
617.2753923897742
0
3DFACE
5
F9C7
330
F867
100
AcDbEntity
100
AcDbFace
8
MONTAJ_BORULARI
10
6353.438390758856
20
704.9193081866605
30
-35.426049737446135
11
6349.467626866475
21
726.637134616452
31
-16.376049737446124
12
6119.715102350899
22
95.39726144721112
32
655.3753923897741
13
6123.68586624328
23
73.67943501741942
33
636.3253923897742
0
3DFACE
5
F9C8
330
F867
100
AcDbEntity
100
AcDbFace
8
MONTAJ_BORULARI
10
6349.467626866475
20
726.637134616452
30
-16.376049737446124
11
6326.850387363801
21
743.2663168765769
31
-8.485281374238639
12
6097.097862848224
22
112.02644370733594
32
663.2661607529816
13
6119.715102350899
23
95.39726144721112
33
655.3753923897741
0
3DFACE
5
F9C9
330
F867
100
AcDbEntity
100
AcDbFace
8
MONTAJ_BORULARI
10
6326.850387363801
20
743.2663168765769
30
-8.485281374238639
11
6298.835544408058
21
745.0657055302278
31
-16.376049737446124
12
6069.083019892482
22
113.82583236098682
32
655.3753923897741
13
6097.097862848224
23
112.02644370733594
33
663.2661607529816
0
3DFACE
5
F9CA
330
F867
100
AcDbEntity
100
AcDbFace
8
MONTAJ_BORULARI
10
6298.835544408058
20
745.0657055302278
30
-16.376049737446124
11
6281.83381305497
21
730.9812431080765
31
-35.426049737446135
12
6052.081288539393
22
99.74136993883539
32
636.3253923897742
13
6069.083019892482
23
113.82583236098682
33
655.3753923897741
0
3DFACE
5
F9CB
330
F867
100
AcDbEntity
100
AcDbFace
8
MONTAJ_BORULARI
10
6281.83381305497
20
730.9812431080765
30
-35.426049737446135
11
6285.80457694735
21
709.2634166782848
31
-54.47604973744609
12
6056.0520524317735
22
78.02354350904375
32
617.2753923897742
13
6052.081288539393
23
99.74136993883539
33
636.3253923897742
0
3DFACE
5
F9CC
330
F867
100
AcDbEntity
100
AcDbFace
8
MONTAJ_BORULARI
10
6285.80457694735
20
709.2634166782848
30
-54.47604973744609
11
6308.421816450025
21
692.6342344181598
31
-62.366818100653575
12
6078.669291934449
22
61.39436124891892
32
609.3846240265666
13
6056.0520524317735
23
78.02354350904375
33
617.2753923897742
0
3DFACE
5
F9CD
330
F867
100
AcDbEntity
100
AcDbFace
8
MONTAJ_BORULARI
10
6214.31495645886
20
495.23947125756786
30
164.33161594775356
11
6284.31495645886
21
495.23947125756786
31
164.33161594775356
12
6284.31495645886
22
565.2394712575679
32
164.33161594775356
13
6214.31495645886
23
565.2394712575679
33
164.33161594775356
0
3DFACE
5
F9CE
330
F867
100
AcDbEntity
100
AcDbFace
8
MONTAJ_BORULARI
10
6214.31495645886
20
495.23947125756786
30
2200
11
6284.31495645886
21
495.23947125756786
31
2200
12
6284.31495645886
22
565.2394712575679
32
2200
13
6214.31495645886
23
565.2394712575679
33
2200
0
3DFACE
5
F9CF
330
F867
100
AcDbEntity
100
AcDbFace
8
MONTAJ_BORULARI
10
6214.31495645886
20
495.23947125756786
30
164.33161594775356
11
6284.31495645886
21
495.23947125756786
31
164.33161594775356
12
6284.31495645886
22
495.23947125756786
32
2200
13
6214.31495645886
23
495.23947125756786
33
2200
0
3DFACE
5
F9D0
330
F867
100
AcDbEntity
100
AcDbFace
8
MONTAJ_BORULARI
10
6214.31495645886
20
565.2394712575679
30
164.33161594775356
11
6284.31495645886
21
565.2394712575679
31
164.33161594775356
12
6284.31495645886
22
565.2394712575679
32
2200
13
6214.31495645886
23
565.2394712575679
33
2200
0
3DFACE
5
F9D1
330
F867
100
AcDbEntity
100
AcDbFace
8
MONTAJ_BORULARI
10
6214.31495645886
20
495.23947125756786
30
164.33161594775356
11
6214.31495645886
21
565.2394712575679
31
164.33161594775356
12
6214.31495645886
22
565.2394712575679
32
2200
13
6214.31495645886
23
495.23947125756786
33
2200
0
3DFACE
5
F9D2
330
F867
100
AcDbEntity
100
AcDbFace
8
MONTAJ_BORULARI
10
6284.31495645886
20
495.23947125756786
30
164.33161594775356
11
6284.31495645886
21
565.2394712575679
31
164.33161594775356
12
6284.31495645886
22
565.2394712575679
32
2200
13
6284.31495645886
23
495.23947125756786
33
2200
0
LINE
5
F9D3
330
F867
100
AcDbEntity
100
AcDbLine
8
MONTAJ_BORULARI
10
6214.31495645886
20
495.23947125756786
30
164.33161594775356
11
6284.31495645886
21
495.23947125756786
31
164.33161594775356
0
LINE
5
F9D4
330
F867
100
AcDbEntity
100
AcDbLine
8
MONTAJ_BORULARI
10
6284.31495645886
20
495.23947125756786
30
164.33161594775356
11
6284.31495645886
21
565.2394712575679
31
164.33161594775356
0
LINE
5
F9D5
330
F867
100
AcDbEntity
100
AcDbLine
8
MONTAJ_BORULARI
10
6284.31495645886
20
565.2394712575679
30
164.33161594775356
11
6214.31495645886
21
565.2394712575679
31
164.33161594775356
0
LINE
5
F9D6
330
F867
100
AcDbEntity
100
AcDbLine
8
MONTAJ_BORULARI
10
6214.31495645886
20
565.2394712575679
30
164.33161594775356
11
6214.31495645886
21
495.23947125756786
31
164.33161594775356
0
LINE
5
F9D7
330
F867
100
AcDbEntity
100
AcDbLine
8
MONTAJ_BORULARI
10
6214.31495645886
20
495.23947125756786
30
2200
11
6284.31495645886
21
495.23947125756786
31
2200
0
LINE
5
F9D8
330
F867
100
AcDbEntity
100
AcDbLine
8
MONTAJ_BORULARI
10
6284.31495645886
20
495.23947125756786
30
2200
11
6284.31495645886
21
565.2394712575679
31
2200
0
LINE
5
F9D9
330
F867
100
AcDbEntity
100
AcDbLine
8
MONTAJ_BORULARI
10
6284.31495645886
20
565.2394712575679
30
2200
11
6214.31495645886
21
565.2394712575679
31
2200
0
LINE
5
F9DA
330
F867
100
AcDbEntity
100
AcDbLine
8
MONTAJ_BORULARI
10
6214.31495645886
20
565.2394712575679
30
2200
11
6214.31495645886
21
495.23947125756786
31
2200
0
LINE
5
F9DB
330
F867
100
AcDbEntity
100
AcDbLine
8
MONTAJ_BORULARI
10
6214.31495645886
20
495.23947125756786
30
164.33161594775356
11
6214.31495645886
21
495.23947125756786
31
2200
0
LINE
5
F9DC
330
F867
100
AcDbEntity
100
AcDbLine
8
MONTAJ_BORULARI
10
6284.31495645886
20
495.23947125756786
30
164.33161594775356
11
6284.31495645886
21
495.23947125756786
31
2200
0
LINE
5
F9DD
330
F867
100
AcDbEntity
100
AcDbLine
8
MONTAJ_BORULARI
10
6284.31495645886
20
565.2394712575679
30
164.33161594775356
11
6284.31495645886
21
565.2394712575679
31
2200
0
LINE
5
F9DE
330
F867
100
AcDbEntity
100
AcDbLine
8
MONTAJ_BORULARI
10
6214.31495645886
20
565.2394712575679
30
164.33161594775356
11
6214.31495645886
21
565.2394712575679
31
2200
0
3DFACE
5
F9DF
330
F867
100
AcDbEntity
100
AcDbFace
8
MONTAJ_BORULARI
10
6121.204722839389
20
239.421206867928
30
436.5677267045744
11
6191.204722839389
21
239.421206867928
31
436.5677267045744
12
6191.204722839389
22
309.421206867928
32
436.5677267045744
13
6121.204722839389
23
309.421206867928
33
436.5677267045744
0
3DFACE
5
F9E0
330
F867
100
AcDbEntity
100
AcDbFace
8
MONTAJ_BORULARI
10
6121.204722839389
20
239.421206867928
30
2200
11
6191.204722839389
21
239.421206867928
31
2200
12
6191.204722839389
22
309.421206867928
32
2200
13
6121.204722839389
23
309.421206867928
33
2200
0
3DFACE
5
F9E1
330
F867
100
AcDbEntity
100
AcDbFace
8
MONTAJ_BORULARI
10
6121.204722839389
20
239.421206867928
30
436.5677267045744
11
6191.204722839389
21
239.421206867928
31
436.5677267045744
12
6191.204722839389
22
239.421206867928
32
2200
13
6121.204722839389
23
239.421206867928
33
2200
0
3DFACE
5
F9E2
330
F867
100
AcDbEntity
100
AcDbFace
8
MONTAJ_BORULARI
10
6121.204722839389
20
309.421206867928
30
436.5677267045744
11
6191.204722839389
21
309.421206867928
31
436.5677267045744
12
6191.204722839389
22
309.421206867928
32
2200
13
6121.204722839389
23
309.421206867928
33
2200
0
3DFACE
5
F9E3
330
F867
100
AcDbEntity
100
AcDbFace
8
MONTAJ_BORULARI
10
6121.204722839389
20
239.421206867928
30
436.5677267045744
11
6121.204722839389
21
309.421206867928
31
436.5677267045744
12
6121.204722839389
22
309.421206867928
32
2200
13
6121.204722839389
23
239.421206867928
33
2200
0
3DFACE
5
F9E4
330
F867
100
AcDbEntity
100
AcDbFace
8
MONTAJ_BORULARI
10
6191.204722839389
20
239.421206867928
30
436.5677267045744
11
6191.204722839389
21
309.421206867928
31
436.5677267045744
12
6191.204722839389
22
309.421206867928
32
2200
13
6191.204722839389
23
239.421206867928
33
2200
0
LINE
5
F9E5
330
F867
100
AcDbEntity
100
AcDbLine
8
MONTAJ_BORULARI
10
6121.204722839389
20
239.421206867928
30
436.5677267045744
11
6191.204722839389
21
239.421206867928
31
436.5677267045744
0
LINE
5
F9E6
330
F867
100
AcDbEntity
100
AcDbLine
8
MONTAJ_BORULARI
10
6191.204722839389
20
239.421206867928
30
436.5677267045744
11
6191.204722839389
21
309.421206867928
31
436.5677267045744
0
LINE
5
F9E7
330
F867
100
AcDbEntity
100
AcDbLine
8
MONTAJ_BORULARI
10
6191.204722839389
20
309.421206867928
30
436.5677267045744
11
6121.204722839389
21
309.421206867928
31
436.5677267045744
0
LINE
5
F9E8
330
F867
100
AcDbEntity
100
AcDbLine
8
MONTAJ_BORULARI
10
6121.204722839389
20
309.421206867928
30
436.5677267045744
11
6121.204722839389
21
239.421206867928
31
436.5677267045744
0
LINE
5
F9E9
330
F867
100
AcDbEntity
100
AcDbLine
8
MONTAJ_BORULARI
10
6121.204722839389
20
239.421206867928
30
2200
11
6191.204722839389
21
239.421206867928
31
2200
0
LINE
5
F9EA
330
F867
100
AcDbEntity
100
AcDbLine
8
MONTAJ_BORULARI
10
6191.204722839389
20
239.421206867928
30
2200
11
6191.204722839389
21
309.421206867928
31
2200
0
LINE
5
F9EB
330
F867
100
AcDbEntity
100
AcDbLine
8
MONTAJ_BORULARI
10
6191.204722839389
20
309.421206867928
30
2200
11
6121.204722839389
21
309.421206867928
31
2200
0
LINE
5
F9EC
330
F867
100
AcDbEntity
100
AcDbLine
8
MONTAJ_BORULARI
10
6121.204722839389
20
309.421206867928
30
2200
11
6121.204722839389
21
239.421206867928
31
2200
0
LINE
5
F9ED
330
F867
100
AcDbEntity
100
AcDbLine
8
MONTAJ_BORULARI
10
6121.204722839389
20
239.421206867928
30
436.5677267045744
11
6121.204722839389
21
239.421206867928
31
2200
0
LINE
5
F9EE
330
F867
100
AcDbEntity
100
AcDbLine
8
MONTAJ_BORULARI
10
6191.204722839389
20
239.421206867928
30
436.5677267045744
11
6191.204722839389
21
239.421206867928
31
2200
0
LINE
5
F9EF
330
F867
100
AcDbEntity
100
AcDbLine
8
MONTAJ_BORULARI
10
6191.204722839389
20
309.421206867928
30
436.5677267045744
11
6191.204722839389
21
309.421206867928
31
2200
0
LINE
5
F9F0
330
F867
100
AcDbEntity
100
AcDbLine
8
MONTAJ_BORULARI
10
6121.204722839389
20
309.421206867928
30
436.5677267045744
11
6121.204722839389
21
309.421206867928
31
2200
0
3DFACE
5
FA26
330
F867
100
AcDbEntity
100
AcDbFace
8
MONTAJ_BORULARI
10
7000
20
609.3846240265666
30
-62.366818100653575
11
7026.940768363207
21
617.2753923897742
31
-54.47604973744609
12
7026.940768363207
22
-54.476049737445976
32
617.2753923897742
13
7000
23
-62.36681810065346
33
609.3846240265666
0
3DFACE
5
FA27
330
F867
100
AcDbEntity
100
AcDbFace
8
MONTAJ_BORULARI
10
7026.940768363207
20
617.2753923897742
30
-54.47604973744609
11
7038.1
21
636.3253923897742
31
-35.426049737446135
12
7038.1
22
-35.42604973744602
32
636.3253923897742
13
7026.940768363207
23
-54.476049737445976
33
617.2753923897742
0
3DFACE
5
FA28
330
F867
100
AcDbEntity
100
AcDbFace
8
MONTAJ_BORULARI
10
7038.1
20
636.3253923897742
30
-35.426049737446135
11
7026.940768363207
21
655.3753923897741
31
-16.376049737446124
12
7026.940768363207
22
-16.37604973744601
32
655.3753923897741
13
7038.1
23
-35.42604973744602
33
636.3253923897742
0
3DFACE
5
FA29
330
F867
100
AcDbEntity
100
AcDbFace
8
MONTAJ_BORULARI
10
7026.940768363207
20
655.3753923897741
30
-16.376049737446124
11
7000
21
663.2661607529816
31
-8.485281374238639
12
7000
22
-8.485281374238525
32
663.2661607529816
13
7026.940768363207
23
-16.37604973744601
33
655.3753923897741
0
3DFACE
5
FA2A
330
F867
100
AcDbEntity
100
AcDbFace
8
MONTAJ_BORULARI
10
7000
20
663.2661607529816
30
-8.485281374238639
11
6973.059231636793
21
655.3753923897741
31
-16.376049737446124
12
6973.059231636793
22
-16.37604973744601
32
655.3753923897741
13
7000
23
-8.485281374238525
33
663.2661607529816
0
3DFACE
5
FA2B
330
F867
100
AcDbEntity
100
AcDbFace
8
MONTAJ_BORULARI
10
6973.059231636793
20
655.3753923897741
30
-16.376049737446124
11
6961.9
21
636.3253923897742
31
-35.426049737446135
12
6961.9
22
-35.42604973744602
32
636.3253923897742
13
6973.059231636793
23
-16.37604973744601
33
655.3753923897741
0
3DFACE
5
FA2C
330
F867
100
AcDbEntity
100
AcDbFace
8
MONTAJ_BORULARI
10
6961.9
20
636.3253923897742
30
-35.426049737446135
11
6973.059231636793
21
617.2753923897742
31
-54.47604973744609
12
6973.059231636793
22
-54.476049737445976
32
617.2753923897742
13
6961.9
23
-35.42604973744602
33
636.3253923897742
0
3DFACE
5
FA2D
330
F867
100
AcDbEntity
100
AcDbFace
8
MONTAJ_BORULARI
10
6973.059231636793
20
617.2753923897742
30
-54.47604973744609
11
7000
21
609.3846240265666
31
-62.366818100653575
12
7000
22
-62.36681810065346
32
609.3846240265666
13
6973.059231636793
23
-54.476049737445976
33
617.2753923897742
0
3DFACE
5
FA2E
330
F867
100
AcDbEntity
100
AcDbFace
8
MONTAJ_BORULARI
10
6965
20
401.56772670457445
30
164.33161594775356
11
7035
21
401.56772670457445
31
164.33161594775356
12
7035
22
471.56772670457445
32
164.33161594775356
13
6965
23
471.56772670457445
33
164.33161594775356
0
3DFACE
5
FA2F
330
F867
100
AcDbEntity
100
AcDbFace
8
MONTAJ_BORULARI
10
6965
20
401.56772670457445
30
2200
11
7035
21
401.56772670457445
31
2200
12
7035
22
471.56772670457445
32
2200
13
6965
23
471.56772670457445
33
2200
0
3DFACE
5
FA30
330
F867
100
AcDbEntity
100
AcDbFace
8
MONTAJ_BORULARI
10
6965
20
401.56772670457445
30
164.33161594775356
11
7035
21
401.56772670457445
31
164.33161594775356
12
7035
22
401.56772670457445
32
2200
13
6965
23
401.56772670457445
33
2200
0
3DFACE
5
FA31
330
F867
100
AcDbEntity
100
AcDbFace
8
MONTAJ_BORULARI
10
6965
20
471.56772670457445
30
164.33161594775356
11
7035
21
471.56772670457445
31
164.33161594775356
12
7035
22
471.56772670457445
32
2200
13
6965
23
471.56772670457445
33
2200
0
3DFACE
5
FA32
330
F867
100
AcDbEntity
100
AcDbFace
8
MONTAJ_BORULARI
10
6965
20
401.56772670457445
30
164.33161594775356
11
6965
21
471.56772670457445
31
164.33161594775356
12
6965
22
471.56772670457445
32
2200
13
6965
23
401.56772670457445
33
2200
0
3DFACE
5
FA33
330
F867
100
AcDbEntity
100
AcDbFace
8
MONTAJ_BORULARI
10
7035
20
401.56772670457445
30
164.33161594775356
11
7035
21
471.56772670457445
31
164.33161594775356
12
7035
22
471.56772670457445
32
2200
13
7035
23
401.56772670457445
33
2200
0
LINE
5
FA34
330
F867
100
AcDbEntity
100
AcDbLine
8
MONTAJ_BORULARI
10
6965
20
401.56772670457445
30
164.33161594775356
11
7035
21
401.56772670457445
31
164.33161594775356
0
LINE
5
FA35
330
F867
100
AcDbEntity
100
AcDbLine
8
MONTAJ_BORULARI
10
7035
20
401.56772670457445
30
164.33161594775356
11
7035
21
471.56772670457445
31
164.33161594775356
0
LINE
5
FA36
330
F867
100
AcDbEntity
100
AcDbLine
8
MONTAJ_BORULARI
10
7035
20
471.56772670457445
30
164.33161594775356
11
6965
21
471.56772670457445
31
164.33161594775356
0
LINE
5
FA37
330
F867
100
AcDbEntity
100
AcDbLine
8
MONTAJ_BORULARI
10
6965
20
471.56772670457445
30
164.33161594775356
11
6965
21
401.56772670457445
31
164.33161594775356
0
LINE
5
FA38
330
F867
100
AcDbEntity
100
AcDbLine
8
MONTAJ_BORULARI
10
6965
20
401.56772670457445
30
2200
11
7035
21
401.56772670457445
31
2200
0
LINE
5
FA39
330
F867
100
AcDbEntity
100
AcDbLine
8
MONTAJ_BORULARI
10
7035
20
401.56772670457445
30
2200
11
7035
21
471.56772670457445
31
2200
0
LINE
5
FA3A
330
F867
100
AcDbEntity
100
AcDbLine
8
MONTAJ_BORULARI
10
7035
20
471.56772670457445
30
2200
11
6965
21
471.56772670457445
31
2200
0
LINE
5
FA3B
330
F867
100
AcDbEntity
100
AcDbLine
8
MONTAJ_BORULARI
10
6965
20
471.56772670457445
30
2200
11
6965
21
401.56772670457445
31
2200
0
LINE
5
FA3C
330
F867
100
AcDbEntity
100
AcDbLine
8
MONTAJ_BORULARI
10
6965
20
401.56772670457445
30
164.33161594775356
11
6965
21
401.56772670457445
31
2200
0
LINE
5
FA3D
330
F867
100
AcDbEntity
100
AcDbLine
8
MONTAJ_BORULARI
10
7035
20
401.56772670457445
30
164.33161594775356
11
7035
21
401.56772670457445
31
2200
0
LINE
5
FA3E
330
F867
100
AcDbEntity
100
AcDbLine
8
MONTAJ_BORULARI
10
7035
20
471.56772670457445
30
164.33161594775356
11
7035
21
471.56772670457445
31
2200
0
LINE
5
FA3F
330
F867
100
AcDbEntity
100
AcDbLine
8
MONTAJ_BORULARI
10
6965
20
471.56772670457445
30
164.33161594775356
11
6965
21
471.56772670457445
31
2200
0
3DFACE
5
FA40
330
F867
100
AcDbEntity
100
AcDbFace
8
MONTAJ_BORULARI
10
6965
20
129.33161594775362
30
436.5677267045744
11
7035
21
129.33161594775362
31
436.5677267045744
12
7035
22
199.33161594775362
32
436.5677267045744
13
6965
23
199.33161594775362
33
436.5677267045744
0
3DFACE
5
FA41
330
F867
100
AcDbEntity
100
AcDbFace
8
MONTAJ_BORULARI
10
6965
20
129.33161594775362
30
2200
11
7035
21
129.33161594775362
31
2200
12
7035
22
199.33161594775362
32
2200
13
6965
23
199.33161594775362
33
2200
0
3DFACE
5
FA42
330
F867
100
AcDbEntity
100
AcDbFace
8
MONTAJ_BORULARI
10
6965
20
129.33161594775362
30
436.5677267045744
11
7035
21
129.33161594775362
31
436.5677267045744
12
7035
22
129.33161594775362
32
2200
13
6965
23
129.33161594775362
33
2200
0
3DFACE
5
FA43
330
F867
100
AcDbEntity
100
AcDbFace
8
MONTAJ_BORULARI
10
6965
20
199.33161594775362
30
436.5677267045744
11
7035
21
199.33161594775362
31
436.5677267045744
12
7035
22
199.33161594775362
32
2200
13
6965
23
199.33161594775362
33
2200
0
3DFACE
5
FA44
330
F867
100
AcDbEntity
100
AcDbFace
8
MONTAJ_BORULARI
10
6965
20
129.33161594775362
30
436.5677267045744
11
6965
21
199.33161594775362
31
436.5677267045744
12
6965
22
199.33161594775362
32
2200
13
6965
23
129.33161594775362
33
2200
0
3DFACE
5
FA45
330
F867
100
AcDbEntity
100
AcDbFace
8
MONTAJ_BORULARI
10
7035
20
129.33161594775362
30
436.5677267045744
11
7035
21
199.33161594775362
31
436.5677267045744
12
7035
22
199.33161594775362
32
2200
13
7035
23
129.33161594775362
33
2200
0
LINE
5
FA46
330
F867
100
AcDbEntity
100
AcDbLine
8
MONTAJ_BORULARI
10
6965
20
129.33161594775362
30
436.5677267045744
11
7035
21
129.33161594775362
31
436.5677267045744
0
LINE
5
FA47
330
F867
100
AcDbEntity
100
AcDbLine
8
MONTAJ_BORULARI
10
7035
20
129.33161594775362
30
436.5677267045744
11
7035
21
199.33161594775362
31
436.5677267045744
0
LINE
5
FA48
330
F867
100
AcDbEntity
100
AcDbLine
8
MONTAJ_BORULARI
10
7035
20
199.33161594775362
30
436.5677267045744
11
6965
21
199.33161594775362
31
436.5677267045744
0
LINE
5
FA49
330
F867
100
AcDbEntity
100
AcDbLine
8
MONTAJ_BORULARI
10
6965
20
199.33161594775362
30
436.5677267045744
11
6965
21
129.33161594775362
31
436.5677267045744
0
LINE
5
FA4A
330
F867
100
AcDbEntity
100
AcDbLine
8
MONTAJ_BORULARI
10
6965
20
129.33161594775362
30
2200
11
7035
21
129.33161594775362
31
2200
0
LINE
5
FA4B
330
F867
100
AcDbEntity
100
AcDbLine
8
MONTAJ_BORULARI
10
7035
20
129.33161594775362
30
2200
11
7035
21
199.33161594775362
31
2200
0
LINE
5
FA4C
330
F867
100
AcDbEntity
100
AcDbLine
8
MONTAJ_BORULARI
10
7035
20
199.33161594775362
30
2200
11
6965
21
199.33161594775362
31
2200
0
LINE
5
FA4D
330
F867
100
AcDbEntity
100
AcDbLine
8
MONTAJ_BORULARI
10
6965
20
199.33161594775362
30
2200
11
6965
21
129.33161594775362
31
2200
0
LINE
5
FA4E
330
F867
100
AcDbEntity
100
AcDbLine
8
MONTAJ_BORULARI
10
6965
20
129.33161594775362
30
436.5677267045744
11
6965
21
129.33161594775362
31
2200
0
LINE
5
FA4F
330
F867
100
AcDbEntity
100
AcDbLine
8
MONTAJ_BORULARI
10
7035
20
129.33161594775362
30
436.5677267045744
11
7035
21
129.33161594775362
31
2200
0
LINE
5
FA50
330
F867
100
AcDbEntity
100
AcDbLine
8
MONTAJ_BORULARI
10
7035
20
199.33161594775362
30
436.5677267045744
11
7035
21
199.33161594775362
31
2200
0
LINE
5
FA51
330
F867
100
AcDbEntity
100
AcDbLine
8
MONTAJ_BORULARI
10
6965
20
199.33161594775362
30
436.5677267045744
11
6965
21
199.33161594775362
31
2200
0
3DFACE
5
FA87
330
F867
100
AcDbEntity
100
AcDbFace
8
MONTAJ_BORULARI
10
7691.578183549975
20
692.6342344181598
30
-62.366818100653575
11
7714.19542305265
21
709.2634166782848
31
-54.47604973744609
12
7943.9479475682265
22
78.02354350904375
32
617.2753923897742
13
7921.330708065551
23
61.39436124891892
33
609.3846240265666
0
3DFACE
5
FA88
330
F867
100
AcDbEntity
100
AcDbFace
8
MONTAJ_BORULARI
10
7714.19542305265
20
709.2634166782848
30
-54.47604973744609
11
7718.16618694503
21
730.9812431080765
31
-35.426049737446135
12
7947.918711460607
22
99.74136993883539
32
636.3253923897742
13
7943.9479475682265
23
78.02354350904375
33
617.2753923897742
0
3DFACE
5
FA89
330
F867
100
AcDbEntity
100
AcDbFace
8
MONTAJ_BORULARI
10
7718.16618694503
20
730.9812431080765
30
-35.426049737446135
11
7701.164455591942
21
745.0657055302278
31
-16.376049737446124
12
7930.916980107518
22
113.82583236098682
32
655.3753923897741
13
7947.918711460607
23
99.74136993883539
33
636.3253923897742
0
3DFACE
5
FA8A
330
F867
100
AcDbEntity
100
AcDbFace
8
MONTAJ_BORULARI
10
7701.164455591942
20
745.0657055302278
30
-16.376049737446124
11
7673.149612636199
21
743.2663168765769
31
-8.485281374238639
12
7902.902137151776
22
112.02644370733594
32
663.2661607529816
13
7930.916980107518
23
113.82583236098682
33
655.3753923897741
0
3DFACE
5
FA8B
330
F867
100
AcDbEntity
100
AcDbFace
8
MONTAJ_BORULARI
10
7673.149612636199
20
743.2663168765769
30
-8.485281374238639
11
7650.532373133525
21
726.637134616452
31
-16.376049737446124
12
7880.284897649101
22
95.39726144721112
32
655.3753923897741
13
7902.902137151776
23
112.02644370733594
33
663.2661607529816
0
3DFACE
5
FA8C
330
F867
100
AcDbEntity
100
AcDbFace
8
MONTAJ_BORULARI
10
7650.532373133525
20
726.637134616452
30
-16.376049737446124
11
7646.561609241144
21
704.9193081866605
31
-35.426049737446135
12
7876.31413375672
22
73.67943501741942
32
636.3253923897742
13
7880.284897649101
23
95.39726144721112
33
655.3753923897741
0
3DFACE
5
FA8D
330
F867
100
AcDbEntity
100
AcDbFace
8
MONTAJ_BORULARI
10
7646.561609241144
20
704.9193081866605
30
-35.426049737446135
11
7663.563340594233
21
690.834845764509
31
-54.47604973744609
12
7893.315865109809
22
59.59497259526803
32
617.2753923897742
13
7876.31413375672
23
73.67943501741942
33
636.3253923897742
0
3DFACE
5
FA8E
330
F867
100
AcDbEntity
100
AcDbFace
8
MONTAJ_BORULARI
10
7663.563340594233
20
690.834845764509
30
-54.47604973744609
11
7691.578183549975
21
692.6342344181598
31
-62.366818100653575
12
7921.330708065551
22
61.39436124891892
32
609.3846240265666
13
7893.315865109809
23
59.59497259526803
33
617.2753923897742
0
3DFACE
5
FA8F
330
F867
100
AcDbEntity
100
AcDbFace
8
MONTAJ_BORULARI
10
7715.68504354114
20
495.23947125756786
30
164.33161594775356
11
7785.68504354114
21
495.23947125756786
31
164.33161594775356
12
7785.68504354114
22
565.2394712575679
32
164.33161594775356
13
7715.68504354114
23
565.2394712575679
33
164.33161594775356
0
3DFACE
5
FA90
330
F867
100
AcDbEntity
100
AcDbFace
8
MONTAJ_BORULARI
10
7715.68504354114
20
495.23947125756786
30
2200
11
7785.68504354114
21
495.23947125756786
31
2200
12
7785.68504354114
22
565.2394712575679
32
2200
13
7715.68504354114
23
565.2394712575679
33
2200
0
3DFACE
5
FA91
330
F867
100
AcDbEntity
100
AcDbFace
8
MONTAJ_BORULARI
10
7715.68504354114
20
495.23947125756786
30
164.33161594775356
11
7785.68504354114
21
495.23947125756786
31
164.33161594775356
12
7785.68504354114
22
495.23947125756786
32
2200
13
7715.68504354114
23
495.23947125756786
33
2200
0
3DFACE
5
FA92
330
F867
100
AcDbEntity
100
AcDbFace
8
MONTAJ_BORULARI
10
7715.68504354114
20
565.2394712575679
30
164.33161594775356
11
7785.68504354114
21
565.2394712575679
31
164.33161594775356
12
7785.68504354114
22
565.2394712575679
32
2200
13
7715.68504354114
23
565.2394712575679
33
2200
0
3DFACE
5
FA93
330
F867
100
AcDbEntity
100
AcDbFace
8
MONTAJ_BORULARI
10
7715.68504354114
20
495.23947125756786
30
164.33161594775356
11
7715.68504354114
21
565.2394712575679
31
164.33161594775356
12
7715.68504354114
22
565.2394712575679
32
2200
13
7715.68504354114
23
495.23947125756786
33
2200
0
3DFACE
5
FA94
330
F867
100
AcDbEntity
100
AcDbFace
8
MONTAJ_BORULARI
10
7785.68504354114
20
495.23947125756786
30
164.33161594775356
11
7785.68504354114
21
565.2394712575679
31
164.33161594775356
12
7785.68504354114
22
565.2394712575679
32
2200
13
7785.68504354114
23
495.23947125756786
33
2200
0
LINE
5
FA95
330
F867
100
AcDbEntity
100
AcDbLine
8
MONTAJ_BORULARI
10
7715.68504354114
20
495.23947125756786
30
164.33161594775356
11
7785.68504354114
21
495.23947125756786
31
164.33161594775356
0
LINE
5
FA96
330
F867
100
AcDbEntity
100
AcDbLine
8
MONTAJ_BORULARI
10
7785.68504354114
20
495.23947125756786
30
164.33161594775356
11
7785.68504354114
21
565.2394712575679
31
164.33161594775356
0
LINE
5
FA97
330
F867
100
AcDbEntity
100
AcDbLine
8
MONTAJ_BORULARI
10
7785.68504354114
20
565.2394712575679
30
164.33161594775356
11
7715.68504354114
21
565.2394712575679
31
164.33161594775356
0
LINE
5
FA98
330
F867
100
AcDbEntity
100
AcDbLine
8
MONTAJ_BORULARI
10
7715.68504354114
20
565.2394712575679
30
164.33161594775356
11
7715.68504354114
21
495.23947125756786
31
164.33161594775356
0
LINE
5
FA99
330
F867
100
AcDbEntity
100
AcDbLine
8
MONTAJ_BORULARI
10
7715.68504354114
20
495.23947125756786
30
2200
11
7785.68504354114
21
495.23947125756786
31
2200
0
LINE
5
FA9A
330
F867
100
AcDbEntity
100
AcDbLine
8
MONTAJ_BORULARI
10
7785.68504354114
20
495.23947125756786
30
2200
11
7785.68504354114
21
565.2394712575679
31
2200
0
LINE
5
FA9B
330
F867
100
AcDbEntity
100
AcDbLine
8
MONTAJ_BORULARI
10
7785.68504354114
20
565.2394712575679
30
2200
11
7715.68504354114
21
565.2394712575679
31
2200
0
LINE
5
FA9C
330
F867
100
AcDbEntity
100
AcDbLine
8
MONTAJ_BORULARI
10
7715.68504354114
20
565.2394712575679
30
2200
11
7715.68504354114
21
495.23947125756786
31
2200
0
LINE
5
FA9D
330
F867
100
AcDbEntity
100
AcDbLine
8
MONTAJ_BORULARI
10
7715.68504354114
20
495.23947125756786
30
164.33161594775356
11
7715.68504354114
21
495.23947125756786
31
2200
0
LINE
5
FA9E
330
F867
100
AcDbEntity
100
AcDbLine
8
MONTAJ_BORULARI
10
7785.68504354114
20
495.23947125756786
30
164.33161594775356
11
7785.68504354114
21
495.23947125756786
31
2200
0
LINE
5
FA9F
330
F867
100
AcDbEntity
100
AcDbLine
8
MONTAJ_BORULARI
10
7785.68504354114
20
565.2394712575679
30
164.33161594775356
11
7785.68504354114
21
565.2394712575679
31
2200
0
LINE
5
FAA0
330
F867
100
AcDbEntity
100
AcDbLine
8
MONTAJ_BORULARI
10
7715.68504354114
20
565.2394712575679
30
164.33161594775356
11
7715.68504354114
21
565.2394712575679
31
2200
0
3DFACE
5
FAA1
330
F867
100
AcDbEntity
100
AcDbFace
8
MONTAJ_BORULARI
10
7808.795277160611
20
239.421206867928
30
436.5677267045744
11
7878.795277160611
21
239.421206867928
31
436.5677267045744
12
7878.795277160611
22
309.421206867928
32
436.5677267045744
13
7808.795277160611
23
309.421206867928
33
436.5677267045744
0
3DFACE
5
FAA2
330
F867
100
AcDbEntity
100
AcDbFace
8
MONTAJ_BORULARI
10
7808.795277160611
20
239.421206867928
30
2200
11
7878.795277160611
21
239.421206867928
31
2200
12
7878.795277160611
22
309.421206867928
32
2200
13
7808.795277160611
23
309.421206867928
33
2200
0
3DFACE
5
FAA3
330
F867
100
AcDbEntity
100
AcDbFace
8
MONTAJ_BORULARI
10
7808.795277160611
20
239.421206867928
30
436.5677267045744
11
7878.795277160611
21
239.421206867928
31
436.5677267045744
12
7878.795277160611
22
239.421206867928
32
2200
13
7808.795277160611
23
239.421206867928
33
2200
0
3DFACE
5
FAA4
330
F867
100
AcDbEntity
100
AcDbFace
8
MONTAJ_BORULARI
10
7808.795277160611
20
309.421206867928
30
436.5677267045744
11
7878.795277160611
21
309.421206867928
31
436.5677267045744
12
7878.795277160611
22
309.421206867928
32
2200
13
7808.795277160611
23
309.421206867928
33
2200
0
3DFACE
5
FAA5
330
F867
100
AcDbEntity
100
AcDbFace
8
MONTAJ_BORULARI
10
7808.795277160611
20
239.421206867928
30
436.5677267045744
11
7808.795277160611
21
309.421206867928
31
436.5677267045744
12
7808.795277160611
22
309.421206867928
32
2200
13
7808.795277160611
23
239.421206867928
33
2200
0
3DFACE
5
FAA6
330
F867
100
AcDbEntity
100
AcDbFace
8
MONTAJ_BORULARI
10
7878.795277160611
20
239.421206867928
30
436.5677267045744
11
7878.795277160611
21
309.421206867928
31
436.5677267045744
12
7878.795277160611
22
309.421206867928
32
2200
13
7878.795277160611
23
239.421206867928
33
2200
0
LINE
5
FAA7
330
F867
100
AcDbEntity
100
AcDbLine
8
MONTAJ_BORULARI
10
7808.795277160611
20
239.421206867928
30
436.5677267045744
11
7878.795277160611
21
239.421206867928
31
436.5677267045744
0
LINE
5
FAA8
330
F867
100
AcDbEntity
100
AcDbLine
8
MONTAJ_BORULARI
10
7878.795277160611
20
239.421206867928
30
436.5677267045744
11
7878.795277160611
21
309.421206867928
31
436.5677267045744
0
LINE
5
FAA9
330
F867
100
AcDbEntity
100
AcDbLine
8
MONTAJ_BORULARI
10
7878.795277160611
20
309.421206867928
30
436.5677267045744
11
7808.795277160611
21
309.421206867928
31
436.5677267045744
0
LINE
5
FAAA
330
F867
100
AcDbEntity
100
AcDbLine
8
MONTAJ_BORULARI
10
7808.795277160611
20
309.421206867928
30
436.5677267045744
11
7808.795277160611
21
239.421206867928
31
436.5677267045744
0
LINE
5
FAAB
330
F867
100
AcDbEntity
100
AcDbLine
8
MONTAJ_BORULARI
10
7808.795277160611
20
239.421206867928
30
2200
11
7878.795277160611
21
239.421206867928
31
2200
0
LINE
5
FAAC
330
F867
100
AcDbEntity
100
AcDbLine
8
MONTAJ_BORULARI
10
7878.795277160611
20
239.421206867928
30
2200
11
7878.795277160611
21
309.421206867928
31
2200
0
LINE
5
FAAD
330
F867
100
AcDbEntity
100
AcDbLine
8
MONTAJ_BORULARI
10
7878.795277160611
20
309.421206867928
30
2200
11
7808.795277160611
21
309.421206867928
31
2200
0
LINE
5
FAAE
330
F867
100
AcDbEntity
100
AcDbLine
8
MONTAJ_BORULARI
10
7808.795277160611
20
309.421206867928
30
2200
11
7808.795277160611
21
239.421206867928
31
2200
0
LINE
5
FAAF
330
F867
100
AcDbEntity
100
AcDbLine
8
MONTAJ_BORULARI
10
7808.795277160611
20
239.421206867928
30
436.5677267045744
11
7808.795277160611
21
239.421206867928
31
2200
0
LINE
5
FAB0
330
F867
100
AcDbEntity
100
AcDbLine
8
MONTAJ_BORULARI
10
7878.795277160611
20
239.421206867928
30
436.5677267045744
11
7878.795277160611
21
239.421206867928
31
2200
0
LINE
5
FAB1
330
F867
100
AcDbEntity
100
AcDbLine
8
MONTAJ_BORULARI
10
7878.795277160611
20
309.421206867928
30
436.5677267045744
11
7878.795277160611
21
309.421206867928
31
2200
0
LINE
5
FAB2
330
F867
100
AcDbEntity
100
AcDbLine
8
MONTAJ_BORULARI
10
7808.795277160611
20
309.421206867928
30
436.5677267045744
11
7808.795277160611
21
309.421206867928
31
2200
0
3DFACE
5
FAEA
330
F867
100
AcDbEntity
100
AcDbFace
8
MONTAJ_BORULARI
10
14250
20
0
30
3150
11
17750
21
0
31
3150
12
17750
22
-1.8369701987210297e-13
32
3150
13
14250
23
-1.8369701987210297e-13
33
3150
0
3DFACE
5
FAEB
330
F867
100
AcDbEntity
100
AcDbFace
8
MONTAJ_BORULARI
10
14250
20
287.01257427381734
30
3092.909649383465
11
17750
21
287.01257427381734
31
3092.909649383465
12
17750
22
-3.6739403974420595e-13
32
3150
13
14250
23
-3.6739403974420595e-13
33
3150
0
3DFACE
5
FAEC
330
F867
100
AcDbEntity
100
AcDbFace
8
MONTAJ_BORULARI
10
14250
20
530.3300858899106
30
2930.3300858899106
11
17750
21
530.3300858899106
31
2930.3300858899106
12
17750
22
-5.510910596163089e-13
32
3150
13
14250
23
-5.510910596163089e-13
33
3150
0
3DFACE
5
FAED
330
F867
100
AcDbEntity
100
AcDbFace
8
MONTAJ_BORULARI
10
14250
20
692.9096493834651
30
2687.0125742738173
11
17750
21
692.9096493834651
31
2687.0125742738173
12
17750
22
-7.347880794884119e-13
32
3150
13
14250
23
-7.347880794884119e-13
33
3150
0
3DFACE
5
FAEE
330
F867
100
AcDbEntity
100
AcDbFace
8
MONTAJ_BORULARI
10
14250
20
750
30
2400
11
17750
21
750
31
2400
12
17750
22
-9.18485099360515e-13
32
3150
13
14250
23
-9.18485099360515e-13
33
3150
0
3DFACE
5
FAEF
330
F867
100
AcDbEntity
100
AcDbFace
8
MONTAJ_BORULARI
10
14250
20
692.9096493834651
30
2112.9874257261827
11
17750
21
692.9096493834651
31
2112.9874257261827
12
17750
22
-1.1021821192326177e-12
32
3150
13
14250
23
-1.1021821192326177e-12
33
3150
0
3DFACE
5
FAF0
330
F867
100
AcDbEntity
100
AcDbFace
8
MONTAJ_BORULARI
10
14250
20
530.3300858899107
30
1869.6699141100894
11
17750
21
530.3300858899107
31
1869.6699141100894
12
17750
22
-1.2858791391047208e-12
32
3150
13
14250
23
-1.2858791391047208e-12
33
3150
0
3DFACE
5
FAF1
330
F867
100
AcDbEntity
100
AcDbFace
8
MONTAJ_BORULARI
10
14250
20
287.0125742738174
30
1707.090350616535
11
17750
21
287.0125742738174
31
1707.090350616535
12
17750
22
-1.4695761589768238e-12
32
3150
13
14250
23
-1.4695761589768238e-12
33
3150
0
3DFACE
5
FAF2
330
F867
100
AcDbEntity
100
AcDbFace
8
MONTAJ_BORULARI
10
14250
20
9.184850993605149e-14
30
1650
11
17750
21
9.184850993605149e-14
31
1650
12
17750
22
-1.6532731788489268e-12
32
3150
13
14250
23
-1.6532731788489268e-12
33
3150
0
3DFACE
5
FAF3
330
F867
100
AcDbEntity
100
AcDbFace
8
MONTAJ_BORULARI
10
14250
20
-287.0125742738173
30
1707.0903506165348
11
17750
21
-287.0125742738173
31
1707.0903506165348
12
17750
22
-1.83697019872103e-12
32
3150
13
14250
23
-1.83697019872103e-12
33
3150
0
3DFACE
5
FAF4
330
F867
100
AcDbEntity
100
AcDbFace
8
MONTAJ_BORULARI
10
14250
20
-530.3300858899106
30
1869.6699141100894
11
17750
21
-530.3300858899106
31
1869.6699141100894
12
17750
22
-7.349737736793883e-12
32
3150
13
14250
23
-7.349737736793883e-12
33
3150
0
3DFACE
5
FAF5
330
F867
100
AcDbEntity
100
AcDbFace
8
MONTAJ_BORULARI
10
14250
20
-692.9096493834649
30
2112.987425726182
11
17750
21
-692.9096493834649
31
2112.987425726182
12
17750
22
-2.2043642384652355e-12
32
3150
13
14250
23
-2.2043642384652355e-12
33
3150
0
3DFACE
5
FAF6
330
F867
100
AcDbEntity
100
AcDbFace
8
MONTAJ_BORULARI
10
14250
20
-750
30
2400
11
17750
21
-750
31
2400
12
17750
22
2.9410092598634125e-12
32
3150
13
14250
23
2.9410092598634125e-12
33
3150
0
3DFACE
5
FAF7
330
F867
100
AcDbEntity
100
AcDbFace
8
MONTAJ_BORULARI
10
14250
20
-692.909649383465
30
2687.0125742738173
11
17750
21
-692.909649383465
31
2687.0125742738173
12
17750
22
-2.5717582782094415e-12
32
3150
13
14250
23
-2.5717582782094415e-12
33
3150
0
3DFACE
5
FAF8
330
F867
100
AcDbEntity
100
AcDbFace
8
MONTAJ_BORULARI
10
14250
20
-530.3300858899107
30
2930.3300858899106
11
17750
21
-530.3300858899107
31
2930.3300858899106
12
17750
22
-8.084525816282296e-12
32
3150
13
14250
23
-8.084525816282296e-12
33
3150
0
3DFACE
5
FAF9
330
F867
100
AcDbEntity
100
AcDbFace
8
MONTAJ_BORULARI
10
14250
20
-287.0125742738178
30
3092.909649383465
11
17750
21
-287.0125742738178
31
3092.909649383465
12
17750
22
0
32
3150
13
14250
23
0
33
3150
0
3DFACE
5
FB0C
330
F867
100
AcDbEntity
100
AcDbFace
8
MONTAJ_BORULARI
10
15943
20
-57
30
-440
11
16057
21
-57
31
-440
12
16057
22
57
32
-440
13
15943
23
57
33
-440
0
3DFACE
5
FB0D
330
F867
100
AcDbEntity
100
AcDbFace
8
MONTAJ_BORULARI
10
15943
20
-57
30
1650
11
16057
21
-57
31
1650
12
16057
22
57
32
1650
13
15943
23
57
33
1650
0
3DFACE
5
FB0E
330
F867
100
AcDbEntity
100
AcDbFace
8
MONTAJ_BORULARI
10
15943
20
-57
30
-440
11
16057
21
-57
31
-440
12
16057
22
-57
32
1650
13
15943
23
-57
33
1650
0
3DFACE
5
FB0F
330
F867
100
AcDbEntity
100
AcDbFace
8
MONTAJ_BORULARI
10
15943
20
57
30
-440
11
16057
21
57
31
-440
12
16057
22
57
32
1650
13
15943
23
57
33
1650
0
3DFACE
5
FB10
330
F867
100
AcDbEntity
100
AcDbFace
8
MONTAJ_BORULARI
10
15943
20
-57
30
-440
11
15943
21
57
31
-440
12
15943
22
57
32
1650
13
15943
23
-57
33
1650
0
3DFACE
5
FB11
330
F867
100
AcDbEntity
100
AcDbFace
8
MONTAJ_BORULARI
10
16057
20
-57
30
-440
11
16057
21
57
31
-440
12
16057
22
57
32
1650
13
16057
23
-57
33
1650
0
LINE
5
FB12
330
F867
100
AcDbEntity
100
AcDbLine
8
MONTAJ_BORULARI
10
15943
20
-57
30
-440
11
16057
21
-57
31
-440
0
LINE
5
FB13
330
F867
100
AcDbEntity
100
AcDbLine
8
MONTAJ_BORULARI
10
16057
20
-57
30
-440
11
16057
21
57
31
-440
0
LINE
5
FB14
330
F867
100
AcDbEntity
100
AcDbLine
8
MONTAJ_BORULARI
10
16057
20
57
30
-440
11
15943
21
57
31
-440
0
LINE
5
FB15
330
F867
100
AcDbEntity
100
AcDbLine
8
MONTAJ_BORULARI
10
15943
20
57
30
-440
11
15943
21
-57
31
-440
0
LINE
5
FB16
330
F867
100
AcDbEntity
100
AcDbLine
8
MONTAJ_BORULARI
10
15943
20
-57
30
1650
11
16057
21
-57
31
1650
0
LINE
5
FB17
330
F867
100
AcDbEntity
100
AcDbLine
8
MONTAJ_BORULARI
10
16057
20
-57
30
1650
11
16057
21
57
31
1650
0
LINE
5
FB18
330
F867
100
AcDbEntity
100
AcDbLine
8
MONTAJ_BORULARI
10
16057
20
57
30
1650
11
15943
21
57
31
1650
0
LINE
5
FB19
330
F867
100
AcDbEntity
100
AcDbLine
8
MONTAJ_BORULARI
10
15943
20
57
30
1650
11
15943
21
-57
31
1650
0
LINE
5
FB1A
330
F867
100
AcDbEntity
100
AcDbLine
8
MONTAJ_BORULARI
10
15943
20
-57
30
-440
11
15943
21
-57
31
1650
0
LINE
5
FB1B
330
F867
100
AcDbEntity
100
AcDbLine
8
MONTAJ_BORULARI
10
16057
20
-57
30
-440
11
16057
21
-57
31
1650
0
LINE
5
FB1C
330
F867
100
AcDbEntity
100
AcDbLine
8
MONTAJ_BORULARI
10
16057
20
57
30
-440
11
16057
21
57
31
1650
0
LINE
5
FB1D
330
F867
100
AcDbEntity
100
AcDbLine
8
MONTAJ_BORULARI
10
15943
20
57
30
-440
11
15943
21
57
31
1650
0
3DFACE
5
FB2E
330
F867
100
AcDbEntity
100
AcDbFace
8
MONTAJ_BORULARI
10
16000
20
609.3846240265666
30
587.6331818993465
11
16026.940768363207
21
617.2753923897742
31
595.5239502625539
12
16026.940768363207
22
-54.476049737445976
32
1267.2753923897742
13
16000
23
-62.36681810065346
33
1259.3846240265666
0
3DFACE
5
FB2F
330
F867
100
AcDbEntity
100
AcDbFace
8
MONTAJ_BORULARI
10
16026.940768363207
20
617.2753923897742
30
595.5239502625539
11
16038.1
21
636.3253923897742
31
614.5739502625538
12
16038.1
22
-35.42604973744602
32
1286.3253923897742
13
16026.940768363207
23
-54.476049737445976
33
1267.2753923897742
0
3DFACE
5
FB30
330
F867
100
AcDbEntity
100
AcDbFace
8
MONTAJ_BORULARI
10
16038.1
20
636.3253923897742
30
614.5739502625538
11
16026.940768363207
21
655.3753923897741
31
633.6239502625539
12
16026.940768363207
22
-16.37604973744601
32
1305.375392389774
13
16038.1
23
-35.42604973744602
33
1286.3253923897742
0
3DFACE
5
FB31
330
F867
100
AcDbEntity
100
AcDbFace
8
MONTAJ_BORULARI
10
16026.940768363207
20
655.3753923897741
30
633.6239502625539
11
16000
21
663.2661607529816
31
641.5147186257614
12
16000
22
-8.485281374238525
32
1313.2661607529817
13
16026.940768363207
23
-16.37604973744601
33
1305.375392389774
0
3DFACE
5
FB32
330
F867
100
AcDbEntity
100
AcDbFace
8
MONTAJ_BORULARI
10
16000
20
663.2661607529816
30
641.5147186257614
11
15973.059231636793
21
655.3753923897741
31
633.6239502625539
12
15973.059231636793
22
-16.37604973744601
32
1305.375392389774
13
16000
23
-8.485281374238525
33
1313.2661607529817
0
3DFACE
5
FB33
330
F867
100
AcDbEntity
100
AcDbFace
8
MONTAJ_BORULARI
10
15973.059231636793
20
655.3753923897741
30
633.6239502625539
11
15961.9
21
636.3253923897742
31
614.5739502625538
12
15961.9
22
-35.42604973744602
32
1286.3253923897742
13
15973.059231636793
23
-16.37604973744601
33
1305.375392389774
0
3DFACE
5
FB34
330
F867
100
AcDbEntity
100
AcDbFace
8
MONTAJ_BORULARI
10
15961.9
20
636.3253923897742
30
614.5739502625538
11
15973.059231636793
21
617.2753923897742
31
595.5239502625539
12
15973.059231636793
22
-54.476049737445976
32
1267.2753923897742
13
15961.9
23
-35.42604973744602
33
1286.3253923897742
0
3DFACE
5
FB35
330
F867
100
AcDbEntity
100
AcDbFace
8
MONTAJ_BORULARI
10
15973.059231636793
20
617.2753923897742
30
595.5239502625539
11
16000
21
609.3846240265666
31
587.6331818993465
12
16000
22
-62.36681810065346
32
1259.3846240265666
13
15973.059231636793
23
-54.476049737445976
33
1267.2753923897742
0
3DFACE
5
FB36
330
F867
100
AcDbEntity
100
AcDbFace
8
MONTAJ_BORULARI
10
15965
20
401.56772670457445
30
814.3316159477536
11
16035
21
401.56772670457445
31
814.3316159477536
12
16035
22
471.56772670457445
32
814.3316159477536
13
15965
23
471.56772670457445
33
814.3316159477536
0
3DFACE
5
FB37
330
F867
100
AcDbEntity
100
AcDbFace
8
MONTAJ_BORULARI
10
15965
20
401.56772670457445
30
2850
11
16035
21
401.56772670457445
31
2850
12
16035
22
471.56772670457445
32
2850
13
15965
23
471.56772670457445
33
2850
0
3DFACE
5
FB38
330
F867
100
AcDbEntity
100
AcDbFace
8
MONTAJ_BORULARI
10
15965
20
401.56772670457445
30
814.3316159477536
11
16035
21
401.56772670457445
31
814.3316159477536
12
16035
22
401.56772670457445
32
2850
13
15965
23
401.56772670457445
33
2850
0
3DFACE
5
FB39
330
F867
100
AcDbEntity
100
AcDbFace
8
MONTAJ_BORULARI
10
15965
20
471.56772670457445
30
814.3316159477536
11
16035
21
471.56772670457445
31
814.3316159477536
12
16035
22
471.56772670457445
32
2850
13
15965
23
471.56772670457445
33
2850
0
3DFACE
5
FB3A
330
F867
100
AcDbEntity
100
AcDbFace
8
MONTAJ_BORULARI
10
15965
20
401.56772670457445
30
814.3316159477536
11
15965
21
471.56772670457445
31
814.3316159477536
12
15965
22
471.56772670457445
32
2850
13
15965
23
401.56772670457445
33
2850
0
3DFACE
5
FB3B
330
F867
100
AcDbEntity
100
AcDbFace
8
MONTAJ_BORULARI
10
16035
20
401.56772670457445
30
814.3316159477536
11
16035
21
471.56772670457445
31
814.3316159477536
12
16035
22
471.56772670457445
32
2850
13
16035
23
401.56772670457445
33
2850
0
LINE
5
FB3C
330
F867
100
AcDbEntity
100
AcDbLine
8
MONTAJ_BORULARI
10
15965
20
401.56772670457445
30
814.3316159477536
11
16035
21
401.56772670457445
31
814.3316159477536
0
LINE
5
FB3D
330
F867
100
AcDbEntity
100
AcDbLine
8
MONTAJ_BORULARI
10
16035
20
401.56772670457445
30
814.3316159477536
11
16035
21
471.56772670457445
31
814.3316159477536
0
LINE
5
FB3E
330
F867
100
AcDbEntity
100
AcDbLine
8
MONTAJ_BORULARI
10
16035
20
471.56772670457445
30
814.3316159477536
11
15965
21
471.56772670457445
31
814.3316159477536
0
LINE
5
FB3F
330
F867
100
AcDbEntity
100
AcDbLine
8
MONTAJ_BORULARI
10
15965
20
471.56772670457445
30
814.3316159477536
11
15965
21
401.56772670457445
31
814.3316159477536
0
LINE
5
FB40
330
F867
100
AcDbEntity
100
AcDbLine
8
MONTAJ_BORULARI
10
15965
20
401.56772670457445
30
2850
11
16035
21
401.56772670457445
31
2850
0
LINE
5
FB41
330
F867
100
AcDbEntity
100
AcDbLine
8
MONTAJ_BORULARI
10
16035
20
401.56772670457445
30
2850
11
16035
21
471.56772670457445
31
2850
0
LINE
5
FB42
330
F867
100
AcDbEntity
100
AcDbLine
8
MONTAJ_BORULARI
10
16035
20
471.56772670457445
30
2850
11
15965
21
471.56772670457445
31
2850
0
LINE
5
FB43
330
F867
100
AcDbEntity
100
AcDbLine
8
MONTAJ_BORULARI
10
15965
20
471.56772670457445
30
2850
11
15965
21
401.56772670457445
31
2850
0
LINE
5
FB44
330
F867
100
AcDbEntity
100
AcDbLine
8
MONTAJ_BORULARI
10
15965
20
401.56772670457445
30
814.3316159477536
11
15965
21
401.56772670457445
31
2850
0
LINE
5
FB45
330
F867
100
AcDbEntity
100
AcDbLine
8
MONTAJ_BORULARI
10
16035
20
401.56772670457445
30
814.3316159477536
11
16035
21
401.56772670457445
31
2850
0
LINE
5
FB46
330
F867
100
AcDbEntity
100
AcDbLine
8
MONTAJ_BORULARI
10
16035
20
471.56772670457445
30
814.3316159477536
11
16035
21
471.56772670457445
31
2850
0
LINE
5
FB47
330
F867
100
AcDbEntity
100
AcDbLine
8
MONTAJ_BORULARI
10
15965
20
471.56772670457445
30
814.3316159477536
11
15965
21
471.56772670457445
31
2850
0
3DFACE
5
FB48
330
F867
100
AcDbEntity
100
AcDbFace
8
MONTAJ_BORULARI
10
15965
20
129.33161594775362
30
1086.5677267045744
11
16035
21
129.33161594775362
31
1086.5677267045744
12
16035
22
199.33161594775362
32
1086.5677267045744
13
15965
23
199.33161594775362
33
1086.5677267045744
0
3DFACE
5
FB49
330
F867
100
AcDbEntity
100
AcDbFace
8
MONTAJ_BORULARI
10
15965
20
129.33161594775362
30
2850
11
16035
21
129.33161594775362
31
2850
12
16035
22
199.33161594775362
32
2850
13
15965
23
199.33161594775362
33
2850
0
3DFACE
5
FB4A
330
F867
100
AcDbEntity
100
AcDbFace
8
MONTAJ_BORULARI
10
15965
20
129.33161594775362
30
1086.5677267045744
11
16035
21
129.33161594775362
31
1086.5677267045744
12
16035
22
129.33161594775362
32
2850
13
15965
23
129.33161594775362
33
2850
0
3DFACE
5
FB4B
330
F867
100
AcDbEntity
100
AcDbFace
8
MONTAJ_BORULARI
10
15965
20
199.33161594775362
30
1086.5677267045744
11
16035
21
199.33161594775362
31
1086.5677267045744
12
16035
22
199.33161594775362
32
2850
13
15965
23
199.33161594775362
33
2850
0
3DFACE
5
FB4C
330
F867
100
AcDbEntity
100
AcDbFace
8
MONTAJ_BORULARI
10
15965
20
129.33161594775362
30
1086.5677267045744
11
15965
21
199.33161594775362
31
1086.5677267045744
12
15965
22
199.33161594775362
32
2850
13
15965
23
129.33161594775362
33
2850
0
3DFACE
5
FB4D
330
F867
100
AcDbEntity
100
AcDbFace
8
MONTAJ_BORULARI
10
16035
20
129.33161594775362
30
1086.5677267045744
11
16035
21
199.33161594775362
31
1086.5677267045744
12
16035
22
199.33161594775362
32
2850
13
16035
23
129.33161594775362
33
2850
0
LINE
5
FB4E
330
F867
100
AcDbEntity
100
AcDbLine
8
MONTAJ_BORULARI
10
15965
20
129.33161594775362
30
1086.5677267045744
11
16035
21
129.33161594775362
31
1086.5677267045744
0
LINE
5
FB4F
330
F867
100
AcDbEntity
100
AcDbLine
8
MONTAJ_BORULARI
10
16035
20
129.33161594775362
30
1086.5677267045744
11
16035
21
199.33161594775362
31
1086.5677267045744
0
LINE
5
FB50
330
F867
100
AcDbEntity
100
AcDbLine
8
MONTAJ_BORULARI
10
16035
20
199.33161594775362
30
1086.5677267045744
11
15965
21
199.33161594775362
31
1086.5677267045744
0
LINE
5
FB51
330
F867
100
AcDbEntity
100
AcDbLine
8
MONTAJ_BORULARI
10
15965
20
199.33161594775362
30
1086.5677267045744
11
15965
21
129.33161594775362
31
1086.5677267045744
0
LINE
5
FB52
330
F867
100
AcDbEntity
100
AcDbLine
8
MONTAJ_BORULARI
10
15965
20
129.33161594775362
30
2850
11
16035
21
129.33161594775362
31
2850
0
LINE
5
FB53
330
F867
100
AcDbEntity
100
AcDbLine
8
MONTAJ_BORULARI
10
16035
20
129.33161594775362
30
2850
11
16035
21
199.33161594775362
31
2850
0
LINE
5
FB54
330
F867
100
AcDbEntity
100
AcDbLine
8
MONTAJ_BORULARI
10
16035
20
199.33161594775362
30
2850
11
15965
21
199.33161594775362
31
2850
0
LINE
5
FB55
330
F867
100
AcDbEntity
100
AcDbLine
8
MONTAJ_BORULARI
10
15965
20
199.33161594775362
30
2850
11
15965
21
129.33161594775362
31
2850
0
LINE
5
FB56
330
F867
100
AcDbEntity
100
AcDbLine
8
MONTAJ_BORULARI
10
15965
20
129.33161594775362
30
1086.5677267045744
11
15965
21
129.33161594775362
31
2850
0
LINE
5
FB57
330
F867
100
AcDbEntity
100
AcDbLine
8
MONTAJ_BORULARI
10
16035
20
129.33161594775362
30
1086.5677267045744
11
16035
21
129.33161594775362
31
2850
0
LINE
5
FB58
330
F867
100
AcDbEntity
100
AcDbLine
8
MONTAJ_BORULARI
10
16035
20
199.33161594775362
30
1086.5677267045744
11
16035
21
199.33161594775362
31
2850
0
LINE
5
FB59
330
F867
100
AcDbEntity
100
AcDbLine
8
MONTAJ_BORULARI
10
15965
20
199.33161594775362
30
1086.5677267045744
11
15965
21
199.33161594775362
31
2850
0
TEXT
5
F8E0
330
F867
100
AcDbEntity
100
AcDbText
8
METIN_BILGI
10
-14000
20
-600
30
0
40
50
1
1. TEKLI SPOT BEAM 30/30 (45° CATI ASKISI)
50
0
7
STANDARD
72
1
11
-14000
21
-600
31
0
100
AcDbText
73
2
0
TEXT
5
F941
330
F867
100
AcDbEntity
100
AcDbText
8
METIN_BILGI
10
-4500
20
-600
30
0
40
50
1
ANT-1 (SOL)
50
0
7
STANDARD
72
1
11
-4500
21
-600
31
0
100
AcDbText
73
2
0
TEXT
5
F9A2
330
F867
100
AcDbEntity
100
AcDbText
8
METIN_BILGI
10
-3500
20
-600
30
0
40
50
1
ANT-2 (SAG)
50
0
7
STANDARD
72
1
11
-3500
21
-600
31
0
100
AcDbText
73
2
0
TEXT
5
FA15
330
F867
100
AcDbEntity
100
AcDbText
8
METIN_BILGI
10
6100
20
-480
30
0
40
50
1
ANT-1 (-20°)
50
0
7
STANDARD
72
1
11
6100
21
-480
31
0
100
AcDbText
73
2
0
TEXT
5
FA76
330
F867
100
AcDbEntity
100
AcDbText
8
METIN_BILGI
10
7000
20
-600
30
0
40
50
1
ANT-2 (0°)
50
0
7
STANDARD
72
1
11
7000
21
-600
31
0
100
AcDbText
73
2
0
TEXT
5
FAD7
330
F867
100
AcDbEntity
100
AcDbText
8
METIN_BILGI
10
7900
20
-480
30
0
40
50
1
ANT-3 (+20°)
50
0
7
STANDARD
72
1
11
7900
21
-480
31
0
100
AcDbText
73
2
0
TEXT
5
FB7E
330
F867
100
AcDbEntity
100
AcDbText
8
METIN_BILGI
10
16000
20
-600
30
0
40
50
1
SKORBOARD Ø1500mm BORU ASILI GAMMA NU
50
0
7
STANDARD
72
1
11
16000
21
-600
31
0
100
AcDbText
73
2
0
3DFACE
5
F880
330
F867
100
AcDbEntity
100
AcDbFace
8
EKP_PANEL_ANTEN
10
-14350
20
307.59144981614816
30
-187.3832970144351
11
-13650
21
307.59144981614816
31
-187.3832970144351
12
-13650
22
-187.38329701443507
32
307.59144981614816
13
-14350
23
-187.38329701443507
33
307.59144981614816
0
3DFACE
5
F881
330
F867
100
AcDbEntity
100
AcDbFace
8
EKP_PANEL_ANTEN
10
-14350
20
187.38329701443507
30
-307.59144981614816
11
-13650
21
187.38329701443507
31
-307.59144981614816
12
-13650
22
307.59144981614816
32
-187.3832970144351
13
-14350
23
307.59144981614816
33
-187.3832970144351
0
3DFACE
5
F882
330
F867
100
AcDbEntity
100
AcDbFace
8
EKP_PANEL_ANTEN
10
-14350
20
-307.59144981614816
30
187.3832970144351
11
-13650
21
-307.59144981614816
31
187.3832970144351
12
-13650
22
-187.38329701443507
32
307.59144981614816
13
-14350
23
-187.38329701443507
33
307.59144981614816
0
3DFACE
5
F883
330
F867
100
AcDbEntity
100
AcDbFace
8
EKP_PANEL_ANTEN
10
-14350
20
187.38329701443507
30
-307.59144981614816
11
-14350
21
-307.59144981614816
31
187.3832970144351
12
-14350
22
-187.38329701443507
32
307.59144981614816
13
-14350
23
307.59144981614816
33
-187.3832970144351
0
3DFACE
5
F884
330
F867
100
AcDbEntity
100
AcDbFace
8
EKP_PANEL_ANTEN
10
-13650
20
187.38329701443507
30
-307.59144981614816
11
-13650
21
-307.59144981614816
31
187.3832970144351
12
-13650
22
-187.38329701443507
32
307.59144981614816
13
-13650
23
307.59144981614816
33
-187.3832970144351
0
3DFACE
5
F885
330
F867
100
AcDbEntity
100
AcDbFace
8
EKP_PANEL_ANTEN
10
-14000
20
-72.8319984622144
30
-72.83199846221439
11
-14350
21
-307.59144981614816
31
187.3832970144351
12
-13650
22
-307.59144981614816
32
187.3832970144351
13
-13650
23
-307.59144981614816
33
187.3832970144351
0
3DFACE
5
F886
330
F867
100
AcDbEntity
100
AcDbFace
8
EKP_PANEL_ANTEN
10
-14000
20
-72.8319984622144
30
-72.83199846221439
11
-13650
21
-307.59144981614816
31
187.3832970144351
12
-13650
22
187.38329701443507
32
-307.59144981614816
13
-13650
23
187.38329701443507
33
-307.59144981614816
0
3DFACE
5
F887
330
F867
100
AcDbEntity
100
AcDbFace
8
EKP_PANEL_ANTEN
10
-14000
20
-72.8319984622144
30
-72.83199846221439
11
-13650
21
187.38329701443507
31
-307.59144981614816
12
-14350
22
187.38329701443507
32
-307.59144981614816
13
-14350
23
187.38329701443507
33
-307.59144981614816
0
3DFACE
5
F888
330
F867
100
AcDbEntity
100
AcDbFace
8
EKP_PANEL_ANTEN
10
-14000
20
-72.8319984622144
30
-72.83199846221439
11
-14350
21
187.38329701443507
31
-307.59144981614816
12
-14350
22
-307.59144981614816
32
187.3832970144351
13
-14350
23
-307.59144981614816
33
187.3832970144351
0
LINE
5
F889
330
F867
100
AcDbEntity
100
AcDbLine
8
EKP_PANEL_ANTEN
10
-14000
20
-72.8319984622144
30
-72.83199846221439
11
-14350
21
187.38329701443507
31
-307.59144981614816
0
LINE
5
F88A
330
F867
100
AcDbEntity
100
AcDbLine
8
EKP_PANEL_ANTEN
10
-14000
20
-72.8319984622144
30
-72.83199846221439
11
-13650
21
187.38329701443507
31
-307.59144981614816
0
LINE
5
F88B
330
F867
100
AcDbEntity
100
AcDbLine
8
EKP_PANEL_ANTEN
10
-14000
20
-72.8319984622144
30
-72.83199846221439
11
-13650
21
-307.59144981614816
31
187.3832970144351
0
LINE
5
F88C
330
F867
100
AcDbEntity
100
AcDbLine
8
EKP_PANEL_ANTEN
10
-14000
20
-72.8319984622144
30
-72.83199846221439
11
-14350
21
-307.59144981614816
31
187.3832970144351
0
3DFACE
5
F8E1
330
F867
100
AcDbEntity
100
AcDbFace
8
EKP_PANEL_ANTEN
10
-4850
20
307.59144981614816
30
-187.3832970144351
11
-4150
21
307.59144981614816
31
-187.3832970144351
12
-4150
22
-187.38329701443507
32
307.59144981614816
13
-4850
23
-187.38329701443507
33
307.59144981614816
0
3DFACE
5
F8E2
330
F867
100
AcDbEntity
100
AcDbFace
8
EKP_PANEL_ANTEN
10
-4850
20
187.38329701443507
30
-307.59144981614816
11
-4150
21
187.38329701443507
31
-307.59144981614816
12
-4150
22
307.59144981614816
32
-187.3832970144351
13
-4850
23
307.59144981614816
33
-187.3832970144351
0
3DFACE
5
F8E3
330
F867
100
AcDbEntity
100
AcDbFace
8
EKP_PANEL_ANTEN
10
-4850
20
-307.59144981614816
30
187.3832970144351
11
-4150
21
-307.59144981614816
31
187.3832970144351
12
-4150
22
-187.38329701443507
32
307.59144981614816
13
-4850
23
-187.38329701443507
33
307.59144981614816
0
3DFACE
5
F8E4
330
F867
100
AcDbEntity
100
AcDbFace
8
EKP_PANEL_ANTEN
10
-4850
20
187.38329701443507
30
-307.59144981614816
11
-4850
21
-307.59144981614816
31
187.3832970144351
12
-4850
22
-187.38329701443507
32
307.59144981614816
13
-4850
23
307.59144981614816
33
-187.3832970144351
0
3DFACE
5
F8E5
330
F867
100
AcDbEntity
100
AcDbFace
8
EKP_PANEL_ANTEN
10
-4150
20
187.38329701443507
30
-307.59144981614816
11
-4150
21
-307.59144981614816
31
187.3832970144351
12
-4150
22
-187.38329701443507
32
307.59144981614816
13
-4150
23
307.59144981614816
33
-187.3832970144351
0
3DFACE
5
F8E6
330
F867
100
AcDbEntity
100
AcDbFace
8
EKP_PANEL_ANTEN
10
-4500
20
-72.8319984622144
30
-72.83199846221439
11
-4850
21
-307.59144981614816
31
187.3832970144351
12
-4150
22
-307.59144981614816
32
187.3832970144351
13
-4150
23
-307.59144981614816
33
187.3832970144351
0
3DFACE
5
F8E7
330
F867
100
AcDbEntity
100
AcDbFace
8
EKP_PANEL_ANTEN
10
-4500
20
-72.8319984622144
30
-72.83199846221439
11
-4150
21
-307.59144981614816
31
187.3832970144351
12
-4150
22
187.38329701443507
32
-307.59144981614816
13
-4150
23
187.38329701443507
33
-307.59144981614816
0
3DFACE
5
F8E8
330
F867
100
AcDbEntity
100
AcDbFace
8
EKP_PANEL_ANTEN
10
-4500
20
-72.8319984622144
30
-72.83199846221439
11
-4150
21
187.38329701443507
31
-307.59144981614816
12
-4850
22
187.38329701443507
32
-307.59144981614816
13
-4850
23
187.38329701443507
33
-307.59144981614816
0
3DFACE
5
F8E9
330
F867
100
AcDbEntity
100
AcDbFace
8
EKP_PANEL_ANTEN
10
-4500
20
-72.8319984622144
30
-72.83199846221439
11
-4850
21
187.38329701443507
31
-307.59144981614816
12
-4850
22
-307.59144981614816
32
187.3832970144351
13
-4850
23
-307.59144981614816
33
187.3832970144351
0
LINE
5
F8EA
330
F867
100
AcDbEntity
100
AcDbLine
8
EKP_PANEL_ANTEN
10
-4500
20
-72.8319984622144
30
-72.83199846221439
11
-4850
21
187.38329701443507
31
-307.59144981614816
0
LINE
5
F8EB
330
F867
100
AcDbEntity
100
AcDbLine
8
EKP_PANEL_ANTEN
10
-4500
20
-72.8319984622144
30
-72.83199846221439
11
-4150
21
187.38329701443507
31
-307.59144981614816
0
LINE
5
F8EC
330
F867
100
AcDbEntity
100
AcDbLine
8
EKP_PANEL_ANTEN
10
-4500
20
-72.8319984622144
30
-72.83199846221439
11
-4150
21
-307.59144981614816
31
187.3832970144351
0
LINE
5
F8ED
330
F867
100
AcDbEntity
100
AcDbLine
8
EKP_PANEL_ANTEN
10
-4500
20
-72.8319984622144
30
-72.83199846221439
11
-4850
21
-307.59144981614816
31
187.3832970144351
0
3DFACE
5
F942
330
F867
100
AcDbEntity
100
AcDbFace
8
EKP_PANEL_ANTEN
10
-3850
20
307.59144981614816
30
-187.3832970144351
11
-3150
21
307.59144981614816
31
-187.3832970144351
12
-3150
22
-187.38329701443507
32
307.59144981614816
13
-3850
23
-187.38329701443507
33
307.59144981614816
0
3DFACE
5
F943
330
F867
100
AcDbEntity
100
AcDbFace
8
EKP_PANEL_ANTEN
10
-3850
20
187.38329701443507
30
-307.59144981614816
11
-3150
21
187.38329701443507
31
-307.59144981614816
12
-3150
22
307.59144981614816
32
-187.3832970144351
13
-3850
23
307.59144981614816
33
-187.3832970144351
0
3DFACE
5
F944
330
F867
100
AcDbEntity
100
AcDbFace
8
EKP_PANEL_ANTEN
10
-3850
20
-307.59144981614816
30
187.3832970144351
11
-3150
21
-307.59144981614816
31
187.3832970144351
12
-3150
22
-187.38329701443507
32
307.59144981614816
13
-3850
23
-187.38329701443507
33
307.59144981614816
0
3DFACE
5
F945
330
F867
100
AcDbEntity
100
AcDbFace
8
EKP_PANEL_ANTEN
10
-3850
20
187.38329701443507
30
-307.59144981614816
11
-3850
21
-307.59144981614816
31
187.3832970144351
12
-3850
22
-187.38329701443507
32
307.59144981614816
13
-3850
23
307.59144981614816
33
-187.3832970144351
0
3DFACE
5
F946
330
F867
100
AcDbEntity
100
AcDbFace
8
EKP_PANEL_ANTEN
10
-3150
20
187.38329701443507
30
-307.59144981614816
11
-3150
21
-307.59144981614816
31
187.3832970144351
12
-3150
22
-187.38329701443507
32
307.59144981614816
13
-3150
23
307.59144981614816
33
-187.3832970144351
0
3DFACE
5
F947
330
F867
100
AcDbEntity
100
AcDbFace
8
EKP_PANEL_ANTEN
10
-3500
20
-72.8319984622144
30
-72.83199846221439
11
-3850
21
-307.59144981614816
31
187.3832970144351
12
-3150
22
-307.59144981614816
32
187.3832970144351
13
-3150
23
-307.59144981614816
33
187.3832970144351
0
3DFACE
5
F948
330
F867
100
AcDbEntity
100
AcDbFace
8
EKP_PANEL_ANTEN
10
-3500
20
-72.8319984622144
30
-72.83199846221439
11
-3150
21
-307.59144981614816
31
187.3832970144351
12
-3150
22
187.38329701443507
32
-307.59144981614816
13
-3150
23
187.38329701443507
33
-307.59144981614816
0
3DFACE
5
F949
330
F867
100
AcDbEntity
100
AcDbFace
8
EKP_PANEL_ANTEN
10
-3500
20
-72.8319984622144
30
-72.83199846221439
11
-3150
21
187.38329701443507
31
-307.59144981614816
12
-3850
22
187.38329701443507
32
-307.59144981614816
13
-3850
23
187.38329701443507
33
-307.59144981614816
0
3DFACE
5
F94A
330
F867
100
AcDbEntity
100
AcDbFace
8
EKP_PANEL_ANTEN
10
-3500
20
-72.8319984622144
30
-72.83199846221439
11
-3850
21
187.38329701443507
31
-307.59144981614816
12
-3850
22
-307.59144981614816
32
187.3832970144351
13
-3850
23
-307.59144981614816
33
187.3832970144351
0
LINE
5
F94B
330
F867
100
AcDbEntity
100
AcDbLine
8
EKP_PANEL_ANTEN
10
-3500
20
-72.8319984622144
30
-72.83199846221439
11
-3850
21
187.38329701443507
31
-307.59144981614816
0
LINE
5
F94C
330
F867
100
AcDbEntity
100
AcDbLine
8
EKP_PANEL_ANTEN
10
-3500
20
-72.8319984622144
30
-72.83199846221439
11
-3150
21
187.38329701443507
31
-307.59144981614816
0
LINE
5
F94D
330
F867
100
AcDbEntity
100
AcDbLine
8
EKP_PANEL_ANTEN
10
-3500
20
-72.8319984622144
30
-72.83199846221439
11
-3150
21
-307.59144981614816
31
187.3832970144351
0
LINE
5
F94E
330
F867
100
AcDbEntity
100
AcDbLine
8
EKP_PANEL_ANTEN
10
-3500
20
-72.8319984622144
30
-72.83199846221439
11
-3850
21
-307.59144981614816
31
187.3832970144351
0
3DFACE
5
F9B5
330
F867
100
AcDbEntity
100
AcDbFace
8
EKP_PANEL_ANTEN
10
5876.310054476801
20
528.7484657730575
30
-187.3832970144351
11
6534.094889026937
21
289.3343654450895
31
-187.3832970144351
12
6364.803555173355
22
-175.78975162698282
32
307.59144981614816
13
5707.0187206232185
23
63.624348700985266
33
307.59144981614816
0
3DFACE
5
F9B6
330
F867
100
AcDbEntity
100
AcDbFace
8
EKP_PANEL_ANTEN
10
5835.196444826645
20
415.7897516269828
30
-307.59144981614816
11
6492.9812793767815
21
176.37565129901475
31
-307.59144981614816
12
6534.094889026937
22
289.3343654450895
32
-187.3832970144351
13
5876.310054476801
23
528.7484657730575
33
-187.3832970144351
0
3DFACE
5
F9B7
330
F867
100
AcDbEntity
100
AcDbFace
8
EKP_PANEL_ANTEN
10
5665.905110973063
20
-49.334365445089475
30
187.3832970144351
11
6323.689945523199
21
-288.74846577305755
31
187.3832970144351
12
6364.803555173355
22
-175.78975162698282
32
307.59144981614816
13
5707.0187206232185
23
63.624348700985266
33
307.59144981614816
0
3DFACE
5
F9B8
330
F867
100
AcDbEntity
100
AcDbFace
8
EKP_PANEL_ANTEN
10
5835.196444826645
20
415.7897516269828
30
-307.59144981614816
11
5665.905110973063
21
-49.334365445089475
31
187.3832970144351
12
5707.0187206232185
22
63.624348700985266
32
307.59144981614816
13
5876.310054476801
23
528.7484657730575
33
-187.3832970144351
0
3DFACE
5
F9B9
330
F867
100
AcDbEntity
100
AcDbFace
8
EKP_PANEL_ANTEN
10
6492.9812793767815
20
176.37565129901475
30
-307.59144981614816
11
6323.689945523199
21
-288.74846577305755
31
187.3832970144351
12
6364.803555173355
22
-175.78975162698282
32
307.59144981614816
13
6534.094889026937
23
289.3343654450895
33
-187.3832970144351
0
3DFACE
5
F9BA
330
F867
100
AcDbEntity
100
AcDbFace
8
EKP_PANEL_ANTEN
10
6075.089989447259
20
51.560308487966495
30
-72.83199846221439
11
5665.905110973063
21
-49.334365445089475
31
187.3832970144351
12
6323.689945523199
22
-288.74846577305755
32
187.3832970144351
13
6323.689945523199
23
-288.74846577305755
33
187.3832970144351
0
3DFACE
5
F9BB
330
F867
100
AcDbEntity
100
AcDbFace
8
EKP_PANEL_ANTEN
10
6075.089989447259
20
51.560308487966495
30
-72.83199846221439
11
6323.689945523199
21
-288.74846577305755
31
187.3832970144351
12
6492.9812793767815
22
176.37565129901475
32
-307.59144981614816
13
6492.9812793767815
23
176.37565129901475
33
-307.59144981614816
0
3DFACE
5
F9BC
330
F867
100
AcDbEntity
100
AcDbFace
8
EKP_PANEL_ANTEN
10
6075.089989447259
20
51.560308487966495
30
-72.83199846221439
11
6492.9812793767815
21
176.37565129901475
31
-307.59144981614816
12
5835.196444826645
22
415.7897516269828
32
-307.59144981614816
13
5835.196444826645
23
415.7897516269828
33
-307.59144981614816
0
3DFACE
5
F9BD
330
F867
100
AcDbEntity
100
AcDbFace
8
EKP_PANEL_ANTEN
10
6075.089989447259
20
51.560308487966495
30
-72.83199846221439
11
5835.196444826645
21
415.7897516269828
31
-307.59144981614816
12
5665.905110973063
22
-49.334365445089475
32
187.3832970144351
13
5665.905110973063
23
-49.334365445089475
33
187.3832970144351
0
LINE
5
F9BE
330
F867
100
AcDbEntity
100
AcDbLine
8
EKP_PANEL_ANTEN
10
6075.089989447259
20
51.560308487966495
30
-72.83199846221439
11
5835.196444826645
21
415.7897516269828
31
-307.59144981614816
0
LINE
5
F9BF
330
F867
100
AcDbEntity
100
AcDbLine
8
EKP_PANEL_ANTEN
10
6075.089989447259
20
51.560308487966495
30
-72.83199846221439
11
6492.9812793767815
21
176.37565129901475
31
-307.59144981614816
0
LINE
5
F9C0
330
F867
100
AcDbEntity
100
AcDbLine
8
EKP_PANEL_ANTEN
10
6075.089989447259
20
51.560308487966495
30
-72.83199846221439
11
6323.689945523199
21
-288.74846577305755
31
187.3832970144351
0
LINE
5
F9C1
330
F867
100
AcDbEntity
100
AcDbLine
8
EKP_PANEL_ANTEN
10
6075.089989447259
20
51.560308487966495
30
-72.83199846221439
11
5665.905110973063
21
-49.334365445089475
31
187.3832970144351
0
3DFACE
5
FA16
330
F867
100
AcDbEntity
100
AcDbFace
8
EKP_PANEL_ANTEN
10
6650
20
307.59144981614816
30
-187.3832970144351
11
7350
21
307.59144981614816
31
-187.3832970144351
12
7350
22
-187.38329701443507
32
307.59144981614816
13
6650
23
-187.38329701443507
33
307.59144981614816
0
3DFACE
5
FA17
330
F867
100
AcDbEntity
100
AcDbFace
8
EKP_PANEL_ANTEN
10
6650
20
187.38329701443507
30
-307.59144981614816
11
7350
21
187.38329701443507
31
-307.59144981614816
12
7350
22
307.59144981614816
32
-187.3832970144351
13
6650
23
307.59144981614816
33
-187.3832970144351
0
3DFACE
5
FA18
330
F867
100
AcDbEntity
100
AcDbFace
8
EKP_PANEL_ANTEN
10
6650
20
-307.59144981614816
30
187.3832970144351
11
7350
21
-307.59144981614816
31
187.3832970144351
12
7350
22
-187.38329701443507
32
307.59144981614816
13
6650
23
-187.38329701443507
33
307.59144981614816
0
3DFACE
5
FA19
330
F867
100
AcDbEntity
100
AcDbFace
8
EKP_PANEL_ANTEN
10
6650
20
187.38329701443507
30
-307.59144981614816
11
6650
21
-307.59144981614816
31
187.3832970144351
12
6650
22
-187.38329701443507
32
307.59144981614816
13
6650
23
307.59144981614816
33
-187.3832970144351
0
3DFACE
5
FA1A
330
F867
100
AcDbEntity
100
AcDbFace
8
EKP_PANEL_ANTEN
10
7350
20
187.38329701443507
30
-307.59144981614816
11
7350
21
-307.59144981614816
31
187.3832970144351
12
7350
22
-187.38329701443507
32
307.59144981614816
13
7350
23
307.59144981614816
33
-187.3832970144351
0
3DFACE
5
FA1B
330
F867
100
AcDbEntity
100
AcDbFace
8
EKP_PANEL_ANTEN
10
7000
20
-72.8319984622144
30
-72.83199846221439
11
6650
21
-307.59144981614816
31
187.3832970144351
12
7350
22
-307.59144981614816
32
187.3832970144351
13
7350
23
-307.59144981614816
33
187.3832970144351
0
3DFACE
5
FA1C
330
F867
100
AcDbEntity
100
AcDbFace
8
EKP_PANEL_ANTEN
10
7000
20
-72.8319984622144
30
-72.83199846221439
11
7350
21
-307.59144981614816
31
187.3832970144351
12
7350
22
187.38329701443507
32
-307.59144981614816
13
7350
23
187.38329701443507
33
-307.59144981614816
0
3DFACE
5
FA1D
330
F867
100
AcDbEntity
100
AcDbFace
8
EKP_PANEL_ANTEN
10
7000
20
-72.8319984622144
30
-72.83199846221439
11
7350
21
187.38329701443507
31
-307.59144981614816
12
6650
22
187.38329701443507
32
-307.59144981614816
13
6650
23
187.38329701443507
33
-307.59144981614816
0
3DFACE
5
FA1E
330
F867
100
AcDbEntity
100
AcDbFace
8
EKP_PANEL_ANTEN
10
7000
20
-72.8319984622144
30
-72.83199846221439
11
6650
21
187.38329701443507
31
-307.59144981614816
12
6650
22
-307.59144981614816
32
187.3832970144351
13
6650
23
-307.59144981614816
33
187.3832970144351
0
LINE
5
FA1F
330
F867
100
AcDbEntity
100
AcDbLine
8
EKP_PANEL_ANTEN
10
7000
20
-72.8319984622144
30
-72.83199846221439
11
6650
21
187.38329701443507
31
-307.59144981614816
0
LINE
5
FA20
330
F867
100
AcDbEntity
100
AcDbLine
8
EKP_PANEL_ANTEN
10
7000
20
-72.8319984622144
30
-72.83199846221439
11
7350
21
187.38329701443507
31
-307.59144981614816
0
LINE
5
FA21
330
F867
100
AcDbEntity
100
AcDbLine
8
EKP_PANEL_ANTEN
10
7000
20
-72.8319984622144
30
-72.83199846221439
11
7350
21
-307.59144981614816
31
187.3832970144351
0
LINE
5
FA22
330
F867
100
AcDbEntity
100
AcDbLine
8
EKP_PANEL_ANTEN
10
7000
20
-72.8319984622144
30
-72.83199846221439
11
6650
21
-307.59144981614816
31
187.3832970144351
0
3DFACE
5
FA77
330
F867
100
AcDbEntity
100
AcDbFace
8
EKP_PANEL_ANTEN
10
7465.905110973063
20
289.3343654450895
30
-187.3832970144351
11
8123.689945523199
21
528.7484657730575
31
-187.3832970144351
12
8292.981279376781
22
63.624348700985266
32
307.59144981614816
13
7635.196444826645
23
-175.78975162698282
33
307.59144981614816
0
3DFACE
5
FA78
330
F867
100
AcDbEntity
100
AcDbFace
8
EKP_PANEL_ANTEN
10
7507.0187206232185
20
176.37565129901475
30
-307.59144981614816
11
8164.803555173355
21
415.7897516269828
31
-307.59144981614816
12
8123.689945523199
22
528.7484657730575
32
-187.3832970144351
13
7465.905110973063
23
289.3343654450895
33
-187.3832970144351
0
3DFACE
5
FA79
330
F867
100
AcDbEntity
100
AcDbFace
8
EKP_PANEL_ANTEN
10
7676.310054476801
20
-288.74846577305755
30
187.3832970144351
11
8334.094889026937
21
-49.334365445089475
31
187.3832970144351
12
8292.981279376781
22
63.624348700985266
32
307.59144981614816
13
7635.196444826645
23
-175.78975162698282
33
307.59144981614816
0
3DFACE
5
FA7A
330
F867
100
AcDbEntity
100
AcDbFace
8
EKP_PANEL_ANTEN
10
7507.0187206232185
20
176.37565129901475
30
-307.59144981614816
11
7676.310054476801
21
-288.74846577305755
31
187.3832970144351
12
7635.196444826645
22
-175.78975162698282
32
307.59144981614816
13
7465.905110973063
23
289.3343654450895
33
-187.3832970144351
0
3DFACE
5
FA7B
330
F867
100
AcDbEntity
100
AcDbFace
8
EKP_PANEL_ANTEN
10
8164.803555173355
20
415.7897516269828
30
-307.59144981614816
11
8334.094889026937
21
-49.334365445089475
31
187.3832970144351
12
8292.981279376781
22
63.624348700985266
32
307.59144981614816
13
8123.689945523199
23
528.7484657730575
33
-187.3832970144351
0
3DFACE
5
FA7C
330
F867
100
AcDbEntity
100
AcDbFace
8
EKP_PANEL_ANTEN
10
7924.910010552741
20
51.560308487966495
30
-72.83199846221439
11
7676.310054476801
21
-288.74846577305755
31
187.3832970144351
12
8334.094889026937
22
-49.334365445089475
32
187.3832970144351
13
8334.094889026937
23
-49.334365445089475
33
187.3832970144351
0
3DFACE
5
FA7D
330
F867
100
AcDbEntity
100
AcDbFace
8
EKP_PANEL_ANTEN
10
7924.910010552741
20
51.560308487966495
30
-72.83199846221439
11
8334.094889026937
21
-49.334365445089475
31
187.3832970144351
12
8164.803555173355
22
415.7897516269828
32
-307.59144981614816
13
8164.803555173355
23
415.7897516269828
33
-307.59144981614816
0
3DFACE
5
FA7E
330
F867
100
AcDbEntity
100
AcDbFace
8
EKP_PANEL_ANTEN
10
7924.910010552741
20
51.560308487966495
30
-72.83199846221439
11
8164.803555173355
21
415.7897516269828
31
-307.59144981614816
12
7507.0187206232185
22
176.37565129901475
32
-307.59144981614816
13
7507.0187206232185
23
176.37565129901475
33
-307.59144981614816
0
3DFACE
5
FA7F
330
F867
100
AcDbEntity
100
AcDbFace
8
EKP_PANEL_ANTEN
10
7924.910010552741
20
51.560308487966495
30
-72.83199846221439
11
7507.0187206232185
21
176.37565129901475
31
-307.59144981614816
12
7676.310054476801
22
-288.74846577305755
32
187.3832970144351
13
7676.310054476801
23
-288.74846577305755
33
187.3832970144351
0
LINE
5
FA80
330
F867
100
AcDbEntity
100
AcDbLine
8
EKP_PANEL_ANTEN
10
7924.910010552741
20
51.560308487966495
30
-72.83199846221439
11
7507.0187206232185
21
176.37565129901475
31
-307.59144981614816
0
LINE
5
FA81
330
F867
100
AcDbEntity
100
AcDbLine
8
EKP_PANEL_ANTEN
10
7924.910010552741
20
51.560308487966495
30
-72.83199846221439
11
8164.803555173355
21
415.7897516269828
31
-307.59144981614816
0
LINE
5
FA82
330
F867
100
AcDbEntity
100
AcDbLine
8
EKP_PANEL_ANTEN
10
7924.910010552741
20
51.560308487966495
30
-72.83199846221439
11
8334.094889026937
21
-49.334365445089475
31
187.3832970144351
0
LINE
5
FA83
330
F867
100
AcDbEntity
100
AcDbLine
8
EKP_PANEL_ANTEN
10
7924.910010552741
20
51.560308487966495
30
-72.83199846221439
11
7676.310054476801
21
-288.74846577305755
31
187.3832970144351
0
3DFACE
5
FB1E
330
F867
100
AcDbEntity
100
AcDbFace
8
EKP_PANEL_ANTEN
10
15650
20
307.59144981614816
30
462.61670298556487
11
16350
21
307.59144981614816
31
462.61670298556487
12
16350
22
-187.38329701443507
32
957.5914498161482
13
15650
23
-187.38329701443507
33
957.5914498161482
0
3DFACE
5
FB1F
330
F867
100
AcDbEntity
100
AcDbFace
8
EKP_PANEL_ANTEN
10
15650
20
187.38329701443507
30
342.40855018385184
11
16350
21
187.38329701443507
31
342.40855018385184
12
16350
22
307.59144981614816
32
462.61670298556487
13
15650
23
307.59144981614816
33
462.61670298556487
0
3DFACE
5
FB20
330
F867
100
AcDbEntity
100
AcDbFace
8
EKP_PANEL_ANTEN
10
15650
20
-307.59144981614816
30
837.3832970144351
11
16350
21
-307.59144981614816
31
837.3832970144351
12
16350
22
-187.38329701443507
32
957.5914498161482
13
15650
23
-187.38329701443507
33
957.5914498161482
0
3DFACE
5
FB21
330
F867
100
AcDbEntity
100
AcDbFace
8
EKP_PANEL_ANTEN
10
15650
20
187.38329701443507
30
342.40855018385184
11
15650
21
-307.59144981614816
31
837.3832970144351
12
15650
22
-187.38329701443507
32
957.5914498161482
13
15650
23
307.59144981614816
33
462.61670298556487
0
3DFACE
5
FB22
330
F867
100
AcDbEntity
100
AcDbFace
8
EKP_PANEL_ANTEN
10
16350
20
187.38329701443507
30
342.40855018385184
11
16350
21
-307.59144981614816
31
837.3832970144351
12
16350
22
-187.38329701443507
32
957.5914498161482
13
16350
23
307.59144981614816
33
462.61670298556487
0
3DFACE
5
FB23
330
F867
100
AcDbEntity
100
AcDbFace
8
EKP_PANEL_ANTEN
10
16000
20
-72.8319984622144
30
577.1680015377856
11
15650
21
-307.59144981614816
31
837.3832970144351
12
16350
22
-307.59144981614816
32
837.3832970144351
13
16350
23
-307.59144981614816
33
837.3832970144351
0
3DFACE
5
FB24
330
F867
100
AcDbEntity
100
AcDbFace
8
EKP_PANEL_ANTEN
10
16000
20
-72.8319984622144
30
577.1680015377856
11
16350
21
-307.59144981614816
31
837.3832970144351
12
16350
22
187.38329701443507
32
342.40855018385184
13
16350
23
187.38329701443507
33
342.40855018385184
0
3DFACE
5
FB25
330
F867
100
AcDbEntity
100
AcDbFace
8
EKP_PANEL_ANTEN
10
16000
20
-72.8319984622144
30
577.1680015377856
11
16350
21
187.38329701443507
31
342.40855018385184
12
15650
22
187.38329701443507
32
342.40855018385184
13
15650
23
187.38329701443507
33
342.40855018385184
0
3DFACE
5
FB26
330
F867
100
AcDbEntity
100
AcDbFace
8
EKP_PANEL_ANTEN
10
16000
20
-72.8319984622144
30
577.1680015377856
11
15650
21
187.38329701443507
31
342.40855018385184
12
15650
22
-307.59144981614816
32
837.3832970144351
13
15650
23
-307.59144981614816
33
837.3832970144351
0
LINE
5
FB27
330
F867
100
AcDbEntity
100
AcDbLine
8
EKP_PANEL_ANTEN
10
16000
20
-72.8319984622144
30
577.1680015377856
11
15650
21
187.38329701443507
31
342.40855018385184
0
LINE
5
FB28
330
F867
100
AcDbEntity
100
AcDbLine
8
EKP_PANEL_ANTEN
10
16000
20
-72.8319984622144
30
577.1680015377856
11
16350
21
187.38329701443507
31
342.40855018385184
0
LINE
5
FB29
330
F867
100
AcDbEntity
100
AcDbLine
8
EKP_PANEL_ANTEN
10
16000
20
-72.8319984622144
30
577.1680015377856
11
16350
21
-307.59144981614816
31
837.3832970144351
0
LINE
5
FB2A
330
F867
100
AcDbEntity
100
AcDbLine
8
EKP_PANEL_ANTEN
10
16000
20
-72.8319984622144
30
577.1680015377856
11
15650
21
-307.59144981614816
31
837.3832970144351
0
ENDSEC
0
SECTION
2
OBJECTS
0
DICTIONARY
5
F855
330
0
100
AcDbDictionary
281
1
3
ACAD_GROUP
350
F86B
0
DICTIONARY
5
F86B
330
F855
100
AcDbDictionary
281
1
0
ENDSEC
0
EOF