0
SECTION
2
HEADER
9
$HANDSEED
5
F96D
9
$INSUNITS
70
4
9
$ACADVER
1
AC1021
9
$DWGCODEPAGE
3
UTF-8
0
ENDSEC
0
SECTION
2
CLASSES
0
ENDSEC
0
SECTION
2
TABLES
0
TABLE
2
LTYPE
5
F96B
330
0
100
AcDbSymbolTable
70
5
0
LTYPE
5
F5C5
330
F96B
100
AcDbSymbolTableRecord
100
AcDbLinetypeTableRecord
2
CONTINUOUS
3
______
70
0
72
65
73
0
40
0
0
LTYPE
5
F5C6
330
F96B
100
AcDbSymbolTableRecord
100
AcDbLinetypeTableRecord
2
DASHED
3
_ _ _ 
70
0
72
65
73
2
40
10
49
5
74
0
49
-5
74
0
0
LTYPE
5
F5C7
330
F96B
100
AcDbSymbolTableRecord
100
AcDbLinetypeTableRecord
2
DOTTED
3
. . . 
70
0
72
65
73
2
40
5
49
0
74
0
49
-5
74
0
0
LTYPE
5
F5C9
330
F96B
100
AcDbSymbolTableRecord
100
AcDbLinetypeTableRecord
2
ByBlock
3

70
0
72
65
73
0
40
0
0
LTYPE
5
F5CA
330
F96B
100
AcDbSymbolTableRecord
100
AcDbLinetypeTableRecord
2
ByLayer
3

70
0
72
65
73
0
40
0
0
ENDTAB
0
TABLE
2
LAYER
5
F96C
330
0
100
AcDbSymbolTable
70
21
0
LAYER
5
F5C8
330
F96C
100
AcDbSymbolTableRecord
100
AcDbLayerTableRecord
2
0
62
7
70
0
6
CONTINUOUS
390
1
0
LAYER
5
F5DB
330
F96C
100
AcDbSymbolTableRecord
100
AcDbLayerTableRecord
2
ZEMIN_PLATFORM
62
8
70
0
6
CONTINUOUS
390
1
0
LAYER
5
F5DC
330
F96C
100
AcDbSymbolTableRecord
100
AcDbLayerTableRecord
2
KORKULUK_KAPI
62
4
70
0
6
CONTINUOUS
390
1
0
LAYER
5
F5DD
330
F96C
100
AcDbSymbolTableRecord
100
AcDbLayerTableRecord
2
CELIK_KIRIS_KOLON
62
9
70
0
6
CONTINUOUS
390
1
0
LAYER
5
F5DE
330
F96C
100
AcDbSymbolTableRecord
100
AcDbLayerTableRecord
2
MONTAJ_BORULARI
62
2
70
0
6
CONTINUOUS
390
1
0
LAYER
5
F5DF
330
F96C
100
AcDbSymbolTableRecord
100
AcDbLayerTableRecord
2
KABLO_TAVALARI
62
6
70
0
6
CONTINUOUS
390
1
0
LAYER
5
F5E0
330
F96C
100
AcDbSymbolTableRecord
100
AcDbLayerTableRecord
2
YURUYUS_KORIDORU
62
3
70
0
6
DASHED
390
1
0
LAYER
5
F5E1
330
F96C
100
AcDbSymbolTableRecord
100
AcDbLayerTableRecord
2
OLCULER
62
1
70
0
6
CONTINUOUS
390
1
0
LAYER
5
F5E2
330
F96C
100
AcDbSymbolTableRecord
100
AcDbLayerTableRecord
2
METIN_BILGI
62
7
70
0
6
CONTINUOUS
390
1
0
LAYER
5
F5E3
330
F96C
100
AcDbSymbolTableRecord
100
AcDbLayerTableRecord
2
EKP_TURKCELL_RRU
62
5
70
0
6
CONTINUOUS
390
1
0
LAYER
5
F5E4
330
F96C
100
AcDbSymbolTableRecord
100
AcDbLayerTableRecord
2
EKP_VODAFONE_RRU
62
1
70
0
6
CONTINUOUS
390
1
0
LAYER
5
F5E5
330
F96C
100
AcDbSymbolTableRecord
100
AcDbLayerTableRecord
2
EKP_TURK_TELEKOM_RRU
62
4
70
0
6
CONTINUOUS
390
1
0
LAYER
5
F5E6
330
F96C
100
AcDbSymbolTableRecord
100
AcDbLayerTableRecord
2
EKP_POI_TASIYICI_SASE
62
30
70
0
6
CONTINUOUS
390
1
0
LAYER
5
F5E7
330
F96C
100
AcDbSymbolTableRecord
100
AcDbLayerTableRecord
2
EKP_POI_MODULLERI
62
40
70
0
6
CONTINUOUS
390
1
0
LAYER
5
F5E8
330
F96C
100
AcDbSymbolTableRecord
100
AcDbLayerTableRecord
2
EKP_RECTIFIER_ELTEK_20U
62
3
70
0
6
CONTINUOUS
390
1
0
LAYER
5
F5E9
330
F96C
100
AcDbSymbolTableRecord
100
AcDbLayerTableRecord
2
EKP_RECTIFIER_MTS9304A
62
94
70
0
6
CONTINUOUS
390
1
0
LAYER
5
F5EA
330
F96C
100
AcDbSymbolTableRecord
100
AcDbLayerTableRecord
2
BLOK_OZEL_PLATFORM
62
140
70
0
6
CONTINUOUS
390
1
0
LAYER
5
F5EB
330
F96C
100
AcDbSymbolTableRecord
100
AcDbLayerTableRecord
2
EKP_MATSING_ANTEN
62
2
70
0
6
CONTINUOUS
390
1
0
LAYER
5
F5EC
330
F96C
100
AcDbSymbolTableRecord
100
AcDbLayerTableRecord
2
EKP_PANEL_ANTEN
62
6
70
0
6
CONTINUOUS
390
1
0
LAYER
5
F5ED
330
F96C
100
AcDbSymbolTableRecord
100
AcDbLayerTableRecord
2
EKP_ANTEN_TASIYICI_KOL
62
141
70
0
6
CONTINUOUS
390
1
0
LAYER
5
F5EE
330
F96C
100
AcDbSymbolTableRecord
100
AcDbLayerTableRecord
2
EKP_DIGER_EKIPMANLAR
62
7
70
0
6
CONTINUOUS
390
1
0
ENDTAB
0
TABLE
2
VPORT
5
F5CB
330
0
100
AcDbSymbolTable
70
1
0
VPORT
5
F5D1
330
F5CB
100
AcDbSymbolTableRecord
100
AcDbViewportTableRecord
2
*ACTIVE
40
1000
70
0
0
ENDTAB
0
TABLE
2
STYLE
5
F5CC
330
0
100
AcDbSymbolTable
70
3
0
STYLE
5
F5D2
330
F5CC
100
AcDbSymbolTableRecord
100
AcDbTextStyleTableRecord
2
standard
70
0
40
0
41
1
50
0
71
0
42
1
3
calibrib.ttf
4

1001
ACAD
1000
Calibri
1071
33554466
0
STYLE
5
F5D3
330
F5CC
100
AcDbSymbolTableRecord
100
AcDbTextStyleTableRecord
2
STANDARD
70
0
40
0
41
1
50
0
71
0
42
1
3
calibrib.ttf
4

1001
ACAD
1000
Calibri
1071
33554466
0
STYLE
5
F5D4
330
F5CC
100
AcDbSymbolTableRecord
100
AcDbTextStyleTableRecord
2
CALIBRI_BOLD
70
0
40
0
41
1
50
0
71
0
42
1
3
calibrib.ttf
4

1001
ACAD
1000
Calibri
1071
33554466
0
ENDTAB
0
TABLE
2
VIEW
5
F5CD
330
0
100
AcDbSymbolTable
70
0
0
ENDTAB
0
TABLE
2
UCS
5
F5CE
330
0
100
AcDbSymbolTable
70
0
0
ENDTAB
0
TABLE
2
APPID
5
F5CF
330
0
100
AcDbSymbolTable
70
1
0
APPID
5
F5D5
330
F5CF
100
AcDbSymbolTableRecord
100
AcDbRegAppTableRecord
2
ACAD
70
0
0
ENDTAB
0
TABLE
2
DIMSTYLE
5
F5D0
330
0
100
AcDbSymbolTable
100
AcDbDimStyleTable
70
0
71
1
0
ENDTAB
0
TABLE
2
BLOCK_RECORD
5
F968
330
0
100
AcDbSymbolTable
70
2
0
BLOCK_RECORD
5
F969
330
F968
100
AcDbSymbolTableRecord
100
AcDbBlockTableRecord
2
*Model_Space
70
0
280
0
281
1
0
BLOCK_RECORD
5
F96A
330
F968
100
AcDbSymbolTableRecord
100
AcDbBlockTableRecord
2
*Paper_Space
70
0
280
0
281
1
0
ENDTAB
0
ENDSEC
0
SECTION
2
BLOCKS
0
BLOCK
5
F5D6
330
0
100
AcDbEntity
100
AcDbBlockBegin
2
*Model_Space
70
0
10
0
20
0
30
0
3
*Model_Space
1

0
ENDBLK
5
F5D7
330
0
100
AcDbEntity
100
AcDbBlockEnd
0
BLOCK
5
F5D8
330
0
100
AcDbEntity
100
AcDbBlockBegin
2
*Paper_Space
70
0
10
0
20
0
30
0
3
*Paper_Space
1

0
ENDBLK
5
F5D9
330
0
100
AcDbEntity
100
AcDbBlockEnd
0
ENDSEC
0
SECTION
2
ENTITIES
0
LWPOLYLINE
5
F8FE
330
F5D6
100
AcDbEntity
100
AcDbPolyline
8
ZEMIN_PLATFORM
6
ByLayer
62
256
370
-1
90
4
70
1
10
4463.432273295425
20
1800
10
4463.432273295425
20
1840
10
5313.432273295425
20
1840
10
5313.432273295425
20
1800
0
LWPOLYLINE
5
F8FF
330
F5D6
100
AcDbEntity
100
AcDbPolyline
8
ZEMIN_PLATFORM
6
ByLayer
62
256
370
-1
90
4
70
1
10
5293.432273295425
20
1840
10
5293.432273295425
20
1990
10
5313.432273295425
20
1990
10
5313.432273295425
20
1840
0
LWPOLYLINE
5
F900
330
F5D6
100
AcDbEntity
100
AcDbPolyline
8
ZEMIN_PLATFORM
6
ByLayer
62
256
370
-1
90
4
70
1
10
4463.432273295425
20
1840
10
4463.432273295425
20
1990
10
4483.432273295425
20
1990
10
4483.432273295425
20
1840
0
LWPOLYLINE
5
F5F1
330
F5D6
100
AcDbEntity
100
AcDbPolyline
8
CELIK_KIRIS_KOLON
6
ByLayer
62
256
370
-1
90
4
70
1
10
-18356
20
16644
10
-18356
20
17356
10
-17644
20
17356
10
-17644
20
16644
0
LWPOLYLINE
5
F602
330
F5D6
100
AcDbEntity
100
AcDbPolyline
8
CELIK_KIRIS_KOLON
6
ByLayer
62
256
370
-1
90
4
70
1
10
-18370
20
16815
10
-18370
20
16865
10
-18350
20
16865
10
-18350
20
16815
0
LWPOLYLINE
5
F603
330
F5D6
100
AcDbEntity
100
AcDbPolyline
8
CELIK_KIRIS_KOLON
6
ByLayer
62
256
370
-1
90
4
70
1
10
-17650
20
16815
10
-17650
20
16865
10
-17630
20
16865
10
-17630
20
16815
0
CIRCLE
5
F604
330
F5D6
100
AcDbEntity
100
AcDbCircle
8
CELIK_KIRIS_KOLON
10
-18360
20
16840
30
0
40
5
0
CIRCLE
5
F605
330
F5D6
100
AcDbEntity
100
AcDbCircle
8
CELIK_KIRIS_KOLON
10
-17640
20
16840
30
0
40
5
0
LWPOLYLINE
5
F606
330
F5D6
100
AcDbEntity
100
AcDbPolyline
8
CELIK_KIRIS_KOLON
6
ByLayer
62
256
370
-1
90
4
70
1
10
-18370
20
17135
10
-18370
20
17185
10
-18350
20
17185
10
-18350
20
17135
0
LWPOLYLINE
5
F607
330
F5D6
100
AcDbEntity
100
AcDbPolyline
8
CELIK_KIRIS_KOLON
6
ByLayer
62
256
370
-1
90
4
70
1
10
-17650
20
17135
10
-17650
20
17185
10
-17630
20
17185
10
-17630
20
17135
0
CIRCLE
5
F608
330
F5D6
100
AcDbEntity
100
AcDbCircle
8
CELIK_KIRIS_KOLON
10
-18360
20
17160
30
0
40
5
0
CIRCLE
5
F609
330
F5D6
100
AcDbEntity
100
AcDbCircle
8
CELIK_KIRIS_KOLON
10
-17640
20
17160
30
0
40
5
0
LINE
5
F622
330
F5D6
100
AcDbEntity
100
AcDbLine
8
CELIK_KIRIS_KOLON
10
-11833.122799639976
20
17298.399061660723
30
0
11
-11827.465945390482
21
17292.742207411233
31
0
0
LINE
5
F623
330
F5D6
100
AcDbEntity
100
AcDbLine
8
CELIK_KIRIS_KOLON
10
-11833.122799639976
20
17298.399061660723
30
0
11
-12298.399061660723
21
16833.122799639972
31
0
0
LINE
5
F624
330
F5D6
100
AcDbEntity
100
AcDbLine
8
CELIK_KIRIS_KOLON
10
-12298.399061660723
20
16833.122799639972
30
0
11
-12292.74220741123
21
16827.465945390482
31
0
0
LINE
5
F636
330
F5D6
100
AcDbEntity
100
AcDbLine
8
CELIK_KIRIS_KOLON
10
-11904.894137930409
20
17226.627723370286
30
0
11
-11922.571807460072
21
17244.30539289995
31
0
0
LINE
5
F637
330
F5D6
100
AcDbEntity
100
AcDbLine
8
CELIK_KIRIS_KOLON
10
-11922.571807460072
20
17244.30539289995
30
0
11
-12244.305392899952
21
16922.571807460074
31
0
0
LINE
5
F638
330
F5D6
100
AcDbEntity
100
AcDbLine
8
CELIK_KIRIS_KOLON
10
-12244.305392899952
20
16922.571807460074
30
0
11
-12226.62772337029
21
16904.89413793041
31
0
0
LINE
5
F639
330
F5D6
100
AcDbEntity
100
AcDbLine
8
CELIK_KIRIS_KOLON
10
-12041.01219330882
20
17125.865007051205
30
0
11
-12260.922402257836
21
17260.922402257835
31
0
0
LINE
5
F63A
330
F5D6
100
AcDbEntity
100
AcDbLine
8
CELIK_KIRIS_KOLON
10
-12125.865007051205
20
17041.01219330882
30
0
11
-12260.922402257836
21
17260.922402257835
31
0
0
CIRCLE
5
F63B
330
F5D6
100
AcDbEntity
100
AcDbCircle
8
CELIK_KIRIS_KOLON
10
-12260.922402257836
20
17260.922402257835
30
0
40
22
0
CIRCLE
5
F63C
330
F5D6
100
AcDbEntity
100
AcDbCircle
8
CELIK_KIRIS_KOLON
10
-12260.922402257836
20
17260.922402257835
30
0
40
45
0
TEXT
5
F63D
330
F5D6
100
AcDbEntity
100
AcDbText
8
CELIK_KIRIS_KOLON
10
-12290.922402257836
20
17295.922402257835
30
0
40
26
1
0-60° TILT MAFSALI
50
0
7
STANDARD
72
2
11
-12290.922402257836
21
17295.922402257835
31
0
100
AcDbText
73
2
0
CIRCLE
5
F641
330
F5D6
100
AcDbEntity
100
AcDbCircle
8
CELIK_KIRIS_KOLON
10
-12300.449671326163
20
17300.449671326165
30
0
40
48.1
0
LINE
5
F642
330
F5D6
100
AcDbEntity
100
AcDbLine
8
CELIK_KIRIS_KOLON
10
-12284.96403281818
20
17383.958982184296
30
0
11
-12383.958982184295
21
17284.964032818178
31
0
0
LWPOLYLINE
5
F643
330
F5D6
100
AcDbEntity
100
AcDbPolyline
8
CELIK_KIRIS_KOLON
6
ByLayer
62
256
370
-1
90
4
70
1
10
-12501.567726704574
20
17109.331615947754
10
-12501.567726704574
20
17219.331615947754
10
-12371.567726704574
20
17219.331615947754
10
-12371.567726704574
20
17109.331615947754
0
LWPOLYLINE
5
F644
330
F5D6
100
AcDbEntity
100
AcDbPolyline
8
CELIK_KIRIS_KOLON
6
ByLayer
62
256
370
-1
90
4
70
1
10
-12229.331615947753
20
17381.567726704576
10
-12229.331615947753
20
17491.567726704576
10
-12099.331615947753
20
17491.567726704576
10
-12099.331615947753
20
17381.567726704576
0
LWPOLYLINE
5
F647
330
F5D6
100
AcDbEntity
100
AcDbPolyline
8
CELIK_KIRIS_KOLON
6
ByLayer
62
256
370
-1
90
4
70
1
10
-12506.567726704574
20
19180
10
-12506.567726704574
20
19220
10
-12094.331615947753
20
19220
10
-12094.331615947753
20
19180
0
CIRCLE
5
F649
330
F5D6
100
AcDbEntity
100
AcDbCircle
8
CELIK_KIRIS_KOLON
10
-12300.449671326163
20
19360
30
0
40
155
0
LWPOLYLINE
5
F64A
330
F5D6
100
AcDbEntity
100
AcDbPolyline
8
CELIK_KIRIS_KOLON
6
ByLayer
62
256
370
-1
90
4
70
1
10
-12490.449671326163
20
19335
10
-12490.449671326163
20
19385
10
-12455.449671326163
20
19385
10
-12455.449671326163
20
19335
0
LWPOLYLINE
5
F64B
330
F5D6
100
AcDbEntity
100
AcDbPolyline
8
CELIK_KIRIS_KOLON
6
ByLayer
62
256
370
-1
90
4
70
1
10
-12145.449671326163
20
19335
10
-12145.449671326163
20
19385
10
-12110.449671326163
20
19385
10
-12110.449671326163
20
19335
0
LINE
5
F64C
330
F5D6
100
AcDbEntity
100
AcDbLine
8
CELIK_KIRIS_KOLON
10
-12436.567726704574
20
17244.331615947754
30
0
11
-12300.449671326163
21
19220
31
0
0
LINE
5
F666
330
F5D6
100
AcDbEntity
100
AcDbLine
8
CELIK_KIRIS_KOLON
10
-6329
20
16907
30
0
11
-5671
21
16907
31
0
0
LWPOLYLINE
5
F66B
330
F5D6
100
AcDbEntity
100
AcDbPolyline
8
CELIK_KIRIS_KOLON
6
ByLayer
62
256
370
-1
90
4
70
1
10
-6070
20
16890
10
-6070
20
16915
10
-5930
20
16915
10
-5930
20
16890
0
LINE
5
F66C
330
F5D6
100
AcDbEntity
100
AcDbLine
8
CELIK_KIRIS_KOLON
10
-6055
20
16890
30
0
11
-6055
21
16639
31
0
0
LINE
5
F66D
330
F5D6
100
AcDbEntity
100
AcDbLine
8
CELIK_KIRIS_KOLON
10
-5945
20
16890
30
0
11
-5945
21
16639
31
0
0
LINE
5
F66E
330
F5D6
100
AcDbEntity
100
AcDbLine
8
CELIK_KIRIS_KOLON
10
-6070
20
16639
30
0
11
-5930
21
16639
31
0
0
LWPOLYLINE
5
F670
330
F5D6
100
AcDbEntity
100
AcDbPolyline
8
CELIK_KIRIS_KOLON
6
ByLayer
62
256
370
-1
90
4
70
1
10
-6070
20
16563.1
10
-6070
20
16587.1
10
-5930
20
16587.1
10
-5930
20
16563.1
0
CIRCLE
5
F671
330
F5D6
100
AcDbEntity
100
AcDbCircle
8
CELIK_KIRIS_KOLON
10
-6055
20
16575.1
30
0
40
6
0
CIRCLE
5
F672
330
F5D6
100
AcDbEntity
100
AcDbCircle
8
CELIK_KIRIS_KOLON
10
-5945
20
16575.1
30
0
40
6
0
LWPOLYLINE
5
F68A
330
F5D6
100
AcDbEntity
100
AcDbPolyline
8
CELIK_KIRIS_KOLON
6
ByLayer
62
256
370
-1
90
4
70
1
10
7644
20
16644
10
7644
20
17356
10
8356
20
17356
10
8356
20
16644
0
LWPOLYLINE
5
F69B
330
F5D6
100
AcDbEntity
100
AcDbPolyline
8
CELIK_KIRIS_KOLON
6
ByLayer
62
256
370
-1
90
4
70
1
10
7630
20
16815
10
7630
20
16865
10
7650
20
16865
10
7650
20
16815
0
LWPOLYLINE
5
F69C
330
F5D6
100
AcDbEntity
100
AcDbPolyline
8
CELIK_KIRIS_KOLON
6
ByLayer
62
256
370
-1
90
4
70
1
10
8350
20
16815
10
8350
20
16865
10
8370
20
16865
10
8370
20
16815
0
CIRCLE
5
F69D
330
F5D6
100
AcDbEntity
100
AcDbCircle
8
CELIK_KIRIS_KOLON
10
7640
20
16840
30
0
40
5
0
CIRCLE
5
F69E
330
F5D6
100
AcDbEntity
100
AcDbCircle
8
CELIK_KIRIS_KOLON
10
8360
20
16840
30
0
40
5
0
LWPOLYLINE
5
F69F
330
F5D6
100
AcDbEntity
100
AcDbPolyline
8
CELIK_KIRIS_KOLON
6
ByLayer
62
256
370
-1
90
4
70
1
10
7630
20
17135
10
7630
20
17185
10
7650
20
17185
10
7650
20
17135
0
LWPOLYLINE
5
F6A0
330
F5D6
100
AcDbEntity
100
AcDbPolyline
8
CELIK_KIRIS_KOLON
6
ByLayer
62
256
370
-1
90
4
70
1
10
8350
20
17135
10
8350
20
17185
10
8370
20
17185
10
8370
20
17135
0
CIRCLE
5
F6A1
330
F5D6
100
AcDbEntity
100
AcDbCircle
8
CELIK_KIRIS_KOLON
10
7640
20
17160
30
0
40
5
0
CIRCLE
5
F6A2
330
F5D6
100
AcDbEntity
100
AcDbCircle
8
CELIK_KIRIS_KOLON
10
8360
20
17160
30
0
40
5
0
LWPOLYLINE
5
F6B3
330
F5D6
100
AcDbEntity
100
AcDbPolyline
8
CELIK_KIRIS_KOLON
6
ByLayer
62
256
370
-1
90
4
70
1
10
8644
20
16644
10
8644
20
17356
10
9356
20
17356
10
9356
20
16644
0
LWPOLYLINE
5
F6C4
330
F5D6
100
AcDbEntity
100
AcDbPolyline
8
CELIK_KIRIS_KOLON
6
ByLayer
62
256
370
-1
90
4
70
1
10
8630
20
16815
10
8630
20
16865
10
8650
20
16865
10
8650
20
16815
0
LWPOLYLINE
5
F6C5
330
F5D6
100
AcDbEntity
100
AcDbPolyline
8
CELIK_KIRIS_KOLON
6
ByLayer
62
256
370
-1
90
4
70
1
10
9350
20
16815
10
9350
20
16865
10
9370
20
16865
10
9370
20
16815
0
CIRCLE
5
F6C6
330
F5D6
100
AcDbEntity
100
AcDbCircle
8
CELIK_KIRIS_KOLON
10
8640
20
16840
30
0
40
5
0
CIRCLE
5
F6C7
330
F5D6
100
AcDbEntity
100
AcDbCircle
8
CELIK_KIRIS_KOLON
10
9360
20
16840
30
0
40
5
0
LWPOLYLINE
5
F6C8
330
F5D6
100
AcDbEntity
100
AcDbPolyline
8
CELIK_KIRIS_KOLON
6
ByLayer
62
256
370
-1
90
4
70
1
10
8630
20
17135
10
8630
20
17185
10
8650
20
17185
10
8650
20
17135
0
LWPOLYLINE
5
F6C9
330
F5D6
100
AcDbEntity
100
AcDbPolyline
8
CELIK_KIRIS_KOLON
6
ByLayer
62
256
370
-1
90
4
70
1
10
9350
20
17135
10
9350
20
17185
10
9370
20
17185
10
9370
20
17135
0
CIRCLE
5
F6CA
330
F5D6
100
AcDbEntity
100
AcDbCircle
8
CELIK_KIRIS_KOLON
10
8640
20
17160
30
0
40
5
0
CIRCLE
5
F6CB
330
F5D6
100
AcDbEntity
100
AcDbCircle
8
CELIK_KIRIS_KOLON
10
9360
20
17160
30
0
40
5
0
LWPOLYLINE
5
F6DA
330
F5D6
100
AcDbEntity
100
AcDbPolyline
8
CELIK_KIRIS_KOLON
6
ByLayer
62
256
370
-1
90
4
70
1
10
7500
20
17550
10
7500
20
17650
10
9500
20
17650
10
9500
20
17550
0
TEXT
5
F6DB
330
F5D6
100
AcDbEntity
100
AcDbText
8
CELIK_KIRIS_KOLON
10
8500
20
17600
30
0
40
40
1
AGIR HIZMET CELIK TRAVERS (100x60x5mm, L=2000mm)
50
0
7
STANDARD
72
1
11
8500
21
17600
31
0
100
AcDbText
73
2
0
LINE
5
F6FA
330
F5D6
100
AcDbEntity
100
AcDbLine
8
CELIK_KIRIS_KOLON
10
16166.877200360024
20
17298.399061660723
30
0
11
16172.534054609518
21
17292.742207411233
31
0
0
LINE
5
F6FB
330
F5D6
100
AcDbEntity
100
AcDbLine
8
CELIK_KIRIS_KOLON
10
16166.877200360024
20
17298.399061660723
30
0
11
15701.600938339277
21
16833.122799639972
31
0
0
LINE
5
F6FC
330
F5D6
100
AcDbEntity
100
AcDbLine
8
CELIK_KIRIS_KOLON
10
15701.600938339277
20
16833.122799639972
30
0
11
15707.25779258877
21
16827.465945390482
31
0
0
LINE
5
F70E
330
F5D6
100
AcDbEntity
100
AcDbLine
8
CELIK_KIRIS_KOLON
10
16095.105862069591
20
17226.627723370286
30
0
11
16077.428192539928
21
17244.30539289995
31
0
0
LINE
5
F70F
330
F5D6
100
AcDbEntity
100
AcDbLine
8
CELIK_KIRIS_KOLON
10
16077.428192539928
20
17244.30539289995
30
0
11
15755.694607100048
21
16922.571807460074
31
0
0
LINE
5
F710
330
F5D6
100
AcDbEntity
100
AcDbLine
8
CELIK_KIRIS_KOLON
10
15755.694607100048
20
16922.571807460074
30
0
11
15773.37227662971
21
16904.89413793041
31
0
0
LINE
5
F711
330
F5D6
100
AcDbEntity
100
AcDbLine
8
CELIK_KIRIS_KOLON
10
15958.98780669118
20
17125.865007051205
30
0
11
15739.077597742164
21
17260.922402257835
31
0
0
LINE
5
F712
330
F5D6
100
AcDbEntity
100
AcDbLine
8
CELIK_KIRIS_KOLON
10
15874.134992948795
20
17041.01219330882
30
0
11
15739.077597742164
21
17260.922402257835
31
0
0
CIRCLE
5
F713
330
F5D6
100
AcDbEntity
100
AcDbCircle
8
CELIK_KIRIS_KOLON
10
15739.077597742164
20
17260.922402257835
30
0
40
22
0
CIRCLE
5
F714
330
F5D6
100
AcDbEntity
100
AcDbCircle
8
CELIK_KIRIS_KOLON
10
15739.077597742164
20
17260.922402257835
30
0
40
45
0
TEXT
5
F715
330
F5D6
100
AcDbEntity
100
AcDbText
8
CELIK_KIRIS_KOLON
10
15709.077597742164
20
17295.922402257835
30
0
40
26
1
0-60° TILT MAFSALI
50
0
7
STANDARD
72
2
11
15709.077597742164
21
17295.922402257835
31
0
100
AcDbText
73
2
0
CIRCLE
5
F719
330
F5D6
100
AcDbEntity
100
AcDbCircle
8
CELIK_KIRIS_KOLON
10
15699.550328673837
20
17300.449671326165
30
0
40
48.1
0
LINE
5
F71A
330
F5D6
100
AcDbEntity
100
AcDbLine
8
CELIK_KIRIS_KOLON
10
15715.03596718182
20
17383.958982184296
30
0
11
15616.041017815705
21
17284.964032818178
31
0
0
LWPOLYLINE
5
F71B
330
F5D6
100
AcDbEntity
100
AcDbPolyline
8
CELIK_KIRIS_KOLON
6
ByLayer
62
256
370
-1
90
4
70
1
10
15498.432273295426
20
17109.331615947754
10
15498.432273295426
20
17219.331615947754
10
15628.432273295426
20
17219.331615947754
10
15628.432273295426
20
17109.331615947754
0
LWPOLYLINE
5
F71C
330
F5D6
100
AcDbEntity
100
AcDbPolyline
8
CELIK_KIRIS_KOLON
6
ByLayer
62
256
370
-1
90
4
70
1
10
15770.668384052247
20
17381.567726704576
10
15770.668384052247
20
17491.567726704576
10
15900.668384052247
20
17491.567726704576
10
15900.668384052247
20
17381.567726704576
0
LWPOLYLINE
5
F71F
330
F5D6
100
AcDbEntity
100
AcDbPolyline
8
CELIK_KIRIS_KOLON
6
ByLayer
62
256
370
-1
90
4
70
1
10
15493.432273295426
20
19180
10
15493.432273295426
20
19220
10
15905.668384052247
20
19220
10
15905.668384052247
20
19180
0
CIRCLE
5
F721
330
F5D6
100
AcDbEntity
100
AcDbCircle
8
CELIK_KIRIS_KOLON
10
15699.550328673837
20
19360
30
0
40
155
0
LWPOLYLINE
5
F722
330
F5D6
100
AcDbEntity
100
AcDbPolyline
8
CELIK_KIRIS_KOLON
6
ByLayer
62
256
370
-1
90
4
70
1
10
15509.550328673837
20
19335
10
15509.550328673837
20
19385
10
15544.550328673837
20
19385
10
15544.550328673837
20
19335
0
LWPOLYLINE
5
F723
330
F5D6
100
AcDbEntity
100
AcDbPolyline
8
CELIK_KIRIS_KOLON
6
ByLayer
62
256
370
-1
90
4
70
1
10
15854.550328673837
20
19335
10
15854.550328673837
20
19385
10
15889.550328673837
20
19385
10
15889.550328673837
20
19335
0
LINE
5
F724
330
F5D6
100
AcDbEntity
100
AcDbLine
8
CELIK_KIRIS_KOLON
10
15563.432273295426
20
17244.331615947754
30
0
11
15699.550328673837
21
19220
31
0
0
LWPOLYLINE
5
F73C
330
F5D6
100
AcDbEntity
100
AcDbPolyline
8
CELIK_KIRIS_KOLON
6
ByLayer
62
256
370
-1
90
4
70
1
10
-8256
20
8144
10
-8256
20
8856
10
-7544
20
8856
10
-7544
20
8144
0
LWPOLYLINE
5
F74D
330
F5D6
100
AcDbEntity
100
AcDbPolyline
8
CELIK_KIRIS_KOLON
6
ByLayer
62
256
370
-1
90
4
70
1
10
-8270
20
8315
10
-8270
20
8365
10
-8250
20
8365
10
-8250
20
8315
0
LWPOLYLINE
5
F74E
330
F5D6
100
AcDbEntity
100
AcDbPolyline
8
CELIK_KIRIS_KOLON
6
ByLayer
62
256
370
-1
90
4
70
1
10
-7550
20
8315
10
-7550
20
8365
10
-7530
20
8365
10
-7530
20
8315
0
CIRCLE
5
F74F
330
F5D6
100
AcDbEntity
100
AcDbCircle
8
CELIK_KIRIS_KOLON
10
-8260
20
8340
30
0
40
5
0
CIRCLE
5
F750
330
F5D6
100
AcDbEntity
100
AcDbCircle
8
CELIK_KIRIS_KOLON
10
-7540
20
8340
30
0
40
5
0
LWPOLYLINE
5
F751
330
F5D6
100
AcDbEntity
100
AcDbPolyline
8
CELIK_KIRIS_KOLON
6
ByLayer
62
256
370
-1
90
4
70
1
10
-8270
20
8635
10
-8270
20
8685
10
-8250
20
8685
10
-8250
20
8635
0
LWPOLYLINE
5
F752
330
F5D6
100
AcDbEntity
100
AcDbPolyline
8
CELIK_KIRIS_KOLON
6
ByLayer
62
256
370
-1
90
4
70
1
10
-7550
20
8635
10
-7550
20
8685
10
-7530
20
8685
10
-7530
20
8635
0
CIRCLE
5
F753
330
F5D6
100
AcDbEntity
100
AcDbCircle
8
CELIK_KIRIS_KOLON
10
-8260
20
8660
30
0
40
5
0
CIRCLE
5
F754
330
F5D6
100
AcDbEntity
100
AcDbCircle
8
CELIK_KIRIS_KOLON
10
-7540
20
8660
30
0
40
5
0
LWPOLYLINE
5
F765
330
F5D6
100
AcDbEntity
100
AcDbPolyline
8
CELIK_KIRIS_KOLON
6
ByLayer
62
256
370
-1
90
4
70
1
10
-7356
20
8144
10
-7356
20
8856
10
-6644
20
8856
10
-6644
20
8144
0
LWPOLYLINE
5
F776
330
F5D6
100
AcDbEntity
100
AcDbPolyline
8
CELIK_KIRIS_KOLON
6
ByLayer
62
256
370
-1
90
4
70
1
10
-7370
20
8315
10
-7370
20
8365
10
-7350
20
8365
10
-7350
20
8315
0
LWPOLYLINE
5
F777
330
F5D6
100
AcDbEntity
100
AcDbPolyline
8
CELIK_KIRIS_KOLON
6
ByLayer
62
256
370
-1
90
4
70
1
10
-6650
20
8315
10
-6650
20
8365
10
-6630
20
8365
10
-6630
20
8315
0
CIRCLE
5
F778
330
F5D6
100
AcDbEntity
100
AcDbCircle
8
CELIK_KIRIS_KOLON
10
-7360
20
8340
30
0
40
5
0
CIRCLE
5
F779
330
F5D6
100
AcDbEntity
100
AcDbCircle
8
CELIK_KIRIS_KOLON
10
-6640
20
8340
30
0
40
5
0
LWPOLYLINE
5
F77A
330
F5D6
100
AcDbEntity
100
AcDbPolyline
8
CELIK_KIRIS_KOLON
6
ByLayer
62
256
370
-1
90
4
70
1
10
-7370
20
8635
10
-7370
20
8685
10
-7350
20
8685
10
-7350
20
8635
0
LWPOLYLINE
5
F77B
330
F5D6
100
AcDbEntity
100
AcDbPolyline
8
CELIK_KIRIS_KOLON
6
ByLayer
62
256
370
-1
90
4
70
1
10
-6650
20
8635
10
-6650
20
8685
10
-6630
20
8685
10
-6630
20
8635
0
CIRCLE
5
F77C
330
F5D6
100
AcDbEntity
100
AcDbCircle
8
CELIK_KIRIS_KOLON
10
-7360
20
8660
30
0
40
5
0
CIRCLE
5
F77D
330
F5D6
100
AcDbEntity
100
AcDbCircle
8
CELIK_KIRIS_KOLON
10
-6640
20
8660
30
0
40
5
0
LWPOLYLINE
5
F78E
330
F5D6
100
AcDbEntity
100
AcDbPolyline
8
CELIK_KIRIS_KOLON
6
ByLayer
62
256
370
-1
90
4
70
1
10
-6456
20
8144
10
-6456
20
8856
10
-5744
20
8856
10
-5744
20
8144
0
LWPOLYLINE
5
F79F
330
F5D6
100
AcDbEntity
100
AcDbPolyline
8
CELIK_KIRIS_KOLON
6
ByLayer
62
256
370
-1
90
4
70
1
10
-6470
20
8315
10
-6470
20
8365
10
-6450
20
8365
10
-6450
20
8315
0
LWPOLYLINE
5
F7A0
330
F5D6
100
AcDbEntity
100
AcDbPolyline
8
CELIK_KIRIS_KOLON
6
ByLayer
62
256
370
-1
90
4
70
1
10
-5750
20
8315
10
-5750
20
8365
10
-5730
20
8365
10
-5730
20
8315
0
CIRCLE
5
F7A1
330
F5D6
100
AcDbEntity
100
AcDbCircle
8
CELIK_KIRIS_KOLON
10
-6460
20
8340
30
0
40
5
0
CIRCLE
5
F7A2
330
F5D6
100
AcDbEntity
100
AcDbCircle
8
CELIK_KIRIS_KOLON
10
-5740
20
8340
30
0
40
5
0
LWPOLYLINE
5
F7A3
330
F5D6
100
AcDbEntity
100
AcDbPolyline
8
CELIK_KIRIS_KOLON
6
ByLayer
62
256
370
-1
90
4
70
1
10
-6470
20
8635
10
-6470
20
8685
10
-6450
20
8685
10
-6450
20
8635
0
LWPOLYLINE
5
F7A4
330
F5D6
100
AcDbEntity
100
AcDbPolyline
8
CELIK_KIRIS_KOLON
6
ByLayer
62
256
370
-1
90
4
70
1
10
-5750
20
8635
10
-5750
20
8685
10
-5730
20
8685
10
-5730
20
8635
0
CIRCLE
5
F7A5
330
F5D6
100
AcDbEntity
100
AcDbCircle
8
CELIK_KIRIS_KOLON
10
-6460
20
8660
30
0
40
5
0
CIRCLE
5
F7A6
330
F5D6
100
AcDbEntity
100
AcDbCircle
8
CELIK_KIRIS_KOLON
10
-5740
20
8660
30
0
40
5
0
LWPOLYLINE
5
F7B5
330
F5D6
100
AcDbEntity
100
AcDbPolyline
8
CELIK_KIRIS_KOLON
6
ByLayer
62
256
370
-1
90
4
70
1
10
-8500
20
9050
10
-8500
20
9170
10
-5500
20
9170
10
-5500
20
9050
0
TEXT
5
F7B6
330
F5D6
100
AcDbEntity
100
AcDbText
8
CELIK_KIRIS_KOLON
10
-7000
20
9110
30
0
40
40
1
AGIR HIZMET 3'LU KAFES TRAVERS (120x80x6mm, L=3000mm)
50
0
7
STANDARD
72
1
11
-7000
21
9110
31
0
100
AcDbText
73
2
0
LINE
5
F7B7
330
F5D6
100
AcDbEntity
100
AcDbLine
8
CELIK_KIRIS_KOLON
10
-8400
20
9170
30
0
11
-7900
21
9850
31
0
0
LINE
5
F7B8
330
F5D6
100
AcDbEntity
100
AcDbLine
8
CELIK_KIRIS_KOLON
10
-5600
20
9170
30
0
11
-6100
21
9850
31
0
0
LINE
5
F7D1
330
F5D6
100
AcDbEntity
100
AcDbLine
8
CELIK_KIRIS_KOLON
10
2809.0332544321486
20
8725.133213421055
30
0
11
3427.3509989092768
21
8500.083959112764
31
0
0
LWPOLYLINE
5
F7D6
330
F5D6
100
AcDbEntity
100
AcDbPolyline
8
CELIK_KIRIS_KOLON
6
ByLayer
62
256
370
-1
90
4
70
1
10
3046.599300779163
20
8620.575221746347
10
3046.599300779163
20
8645.575221746347
10
3186.599300779163
20
8645.575221746347
10
3186.599300779163
20
8620.575221746347
0
LINE
5
F7D7
330
F5D6
100
AcDbEntity
100
AcDbLine
8
CELIK_KIRIS_KOLON
10
3060.6946900909516
20
8615.44491959646
30
0
11
2974.8476341162086
21
8379.5820717792
31
0
0
LINE
5
F7D8
330
F5D6
100
AcDbEntity
100
AcDbLine
8
CELIK_KIRIS_KOLON
10
3164.0608783774014
20
8577.822703830638
30
0
11
3078.2138224026585
21
8341.959856013376
31
0
0
LINE
5
F7D9
330
F5D6
100
AcDbEntity
100
AcDbLine
8
CELIK_KIRIS_KOLON
10
2960.75224480442
20
8384.712373929086
30
0
11
3092.309211714447
21
8336.82955386349
31
0
0
LWPOLYLINE
5
F7DB
330
F5D6
100
AcDbEntity
100
AcDbPolyline
8
CELIK_KIRIS_KOLON
6
ByLayer
62
256
370
-1
90
4
70
1
10
2934.6756411009233
20
8288.724605428068
10
2934.6756411009233
20
8312.724605428068
10
3074.6756411009233
20
8312.724605428068
10
3074.6756411009233
20
8288.724605428068
0
CIRCLE
5
F7DC
330
F5D6
100
AcDbEntity
100
AcDbCircle
8
CELIK_KIRIS_KOLON
10
2949.6756411009233
20
8300.724605428068
30
0
40
6
0
CIRCLE
5
F7DD
330
F5D6
100
AcDbEntity
100
AcDbCircle
8
CELIK_KIRIS_KOLON
10
3059.6756411009233
20
8300.724605428068
30
0
40
6
0
LINE
5
F7F7
330
F5D6
100
AcDbEntity
100
AcDbLine
8
CELIK_KIRIS_KOLON
10
3671
20
8407
30
0
11
4329
21
8407
31
0
0
LWPOLYLINE
5
F7FC
330
F5D6
100
AcDbEntity
100
AcDbPolyline
8
CELIK_KIRIS_KOLON
6
ByLayer
62
256
370
-1
90
4
70
1
10
3930
20
8390
10
3930
20
8415
10
4070
20
8415
10
4070
20
8390
0
LINE
5
F7FD
330
F5D6
100
AcDbEntity
100
AcDbLine
8
CELIK_KIRIS_KOLON
10
3945
20
8390
30
0
11
3945
21
8139
31
0
0
LINE
5
F7FE
330
F5D6
100
AcDbEntity
100
AcDbLine
8
CELIK_KIRIS_KOLON
10
4055
20
8390
30
0
11
4055
21
8139
31
0
0
LINE
5
F7FF
330
F5D6
100
AcDbEntity
100
AcDbLine
8
CELIK_KIRIS_KOLON
10
3930
20
8139
30
0
11
4070
21
8139
31
0
0
LWPOLYLINE
5
F801
330
F5D6
100
AcDbEntity
100
AcDbPolyline
8
CELIK_KIRIS_KOLON
6
ByLayer
62
256
370
-1
90
4
70
1
10
3930
20
8063.1
10
3930
20
8087.1
10
4070
20
8087.1
10
4070
20
8063.1
0
CIRCLE
5
F802
330
F5D6
100
AcDbEntity
100
AcDbCircle
8
CELIK_KIRIS_KOLON
10
3945
20
8075.1
30
0
40
6
0
CIRCLE
5
F803
330
F5D6
100
AcDbEntity
100
AcDbCircle
8
CELIK_KIRIS_KOLON
10
4055
20
8075.1
30
0
40
6
0
LINE
5
F81D
330
F5D6
100
AcDbEntity
100
AcDbLine
8
CELIK_KIRIS_KOLON
10
4572.649001090723
20
8500.083959112764
30
0
11
5190.966745567851
21
8725.133213421055
31
0
0
LWPOLYLINE
5
F822
330
F5D6
100
AcDbEntity
100
AcDbPolyline
8
CELIK_KIRIS_KOLON
6
ByLayer
62
256
370
-1
90
4
70
1
10
4821.84373231081
20
8572.692401680752
10
4821.84373231081
20
8597.692401680752
10
4961.84373231081
20
8597.692401680752
10
4961.84373231081
20
8572.692401680752
0
LINE
5
F823
330
F5D6
100
AcDbEntity
100
AcDbLine
8
CELIK_KIRIS_KOLON
10
4835.939121622599
20
8577.822703830638
30
0
11
4921.786177597341
21
8341.959856013376
31
0
0
LINE
5
F824
330
F5D6
100
AcDbEntity
100
AcDbLine
8
CELIK_KIRIS_KOLON
10
4939.305309909049
20
8615.44491959646
30
0
11
5025.152365883791
21
8379.5820717792
31
0
0
LINE
5
F825
330
F5D6
100
AcDbEntity
100
AcDbLine
8
CELIK_KIRIS_KOLON
10
4907.690788285552
20
8336.82955386349
30
0
11
5039.24775519558
21
8384.712373929086
31
0
0
LWPOLYLINE
5
F827
330
F5D6
100
AcDbEntity
100
AcDbPolyline
8
CELIK_KIRIS_KOLON
6
ByLayer
62
256
370
-1
90
4
70
1
10
4925.324358899076
20
8288.724605428068
10
4925.324358899076
20
8312.724605428068
10
5065.324358899076
20
8312.724605428068
10
5065.324358899076
20
8288.724605428068
0
CIRCLE
5
F828
330
F5D6
100
AcDbEntity
100
AcDbCircle
8
CELIK_KIRIS_KOLON
10
4940.324358899076
20
8300.724605428068
30
0
40
6
0
CIRCLE
5
F829
330
F5D6
100
AcDbEntity
100
AcDbCircle
8
CELIK_KIRIS_KOLON
10
5050.324358899076
20
8300.724605428068
30
0
40
6
0
LINE
5
F849
330
F5D6
100
AcDbEntity
100
AcDbLine
8
CELIK_KIRIS_KOLON
10
-13833.122799639976
20
298.3990616607231
30
0
11
-13827.465945390482
21
292.74220741123065
31
0
0
LINE
5
F84A
330
F5D6
100
AcDbEntity
100
AcDbLine
8
CELIK_KIRIS_KOLON
10
-13833.122799639976
20
298.3990616607231
30
0
11
-14298.399061660723
21
-166.87720036002523
31
0
0
LINE
5
F84B
330
F5D6
100
AcDbEntity
100
AcDbLine
8
CELIK_KIRIS_KOLON
10
-14298.399061660723
20
-166.87720036002523
30
0
11
-14292.74220741123
21
-172.5340546095176
31
0
0
LINE
5
F85D
330
F5D6
100
AcDbEntity
100
AcDbLine
8
CELIK_KIRIS_KOLON
10
-13904.894137930409
20
226.6277233702885
30
0
11
-13922.571807460072
21
244.30539289995218
31
0
0
LINE
5
F85E
330
F5D6
100
AcDbEntity
100
AcDbLine
8
CELIK_KIRIS_KOLON
10
-13922.571807460072
20
244.30539289995218
30
0
11
-14244.305392899952
21
-77.42819253992698
31
0
0
LINE
5
F85F
330
F5D6
100
AcDbEntity
100
AcDbLine
8
CELIK_KIRIS_KOLON
10
-14244.305392899952
20
-77.42819253992698
30
0
11
-14226.62772337029
21
-95.10586206959067
31
0
0
LINE
5
F860
330
F5D6
100
AcDbEntity
100
AcDbLine
8
CELIK_KIRIS_KOLON
10
-14041.01219330882
20
125.86500705120545
30
0
11
-14260.922402257836
21
260.92240225783604
31
0
0
LINE
5
F861
330
F5D6
100
AcDbEntity
100
AcDbLine
8
CELIK_KIRIS_KOLON
10
-14125.865007051205
20
41.01219330881975
30
0
11
-14260.922402257836
21
260.92240225783604
31
0
0
CIRCLE
5
F862
330
F5D6
100
AcDbEntity
100
AcDbCircle
8
CELIK_KIRIS_KOLON
10
-14260.922402257836
20
260.92240225783604
30
0
40
22
0
CIRCLE
5
F863
330
F5D6
100
AcDbEntity
100
AcDbCircle
8
CELIK_KIRIS_KOLON
10
-14260.922402257836
20
260.92240225783604
30
0
40
45
0
TEXT
5
F864
330
F5D6
100
AcDbEntity
100
AcDbText
8
CELIK_KIRIS_KOLON
10
-14290.922402257836
20
295.92240225783604
30
0
40
26
1
0-60° TILT MAFSALI
50
0
7
STANDARD
72
2
11
-14290.922402257836
21
295.92240225783604
31
0
100
AcDbText
73
2
0
CIRCLE
5
F868
330
F5D6
100
AcDbEntity
100
AcDbCircle
8
CELIK_KIRIS_KOLON
10
-14300.449671326163
20
300.449671326164
30
0
40
48.1
0
LINE
5
F869
330
F5D6
100
AcDbEntity
100
AcDbLine
8
CELIK_KIRIS_KOLON
10
-14284.96403281818
20
383.9589821842953
30
0
11
-14383.958982184295
21
284.9640328181786
31
0
0
LWPOLYLINE
5
F86A
330
F5D6
100
AcDbEntity
100
AcDbPolyline
8
CELIK_KIRIS_KOLON
6
ByLayer
62
256
370
-1
90
4
70
1
10
-14501.567726704574
20
109.33161594775356
10
-14501.567726704574
20
219.33161594775356
10
-14371.567726704574
20
219.33161594775356
10
-14371.567726704574
20
109.33161594775356
0
LWPOLYLINE
5
F86B
330
F5D6
100
AcDbEntity
100
AcDbPolyline
8
CELIK_KIRIS_KOLON
6
ByLayer
62
256
370
-1
90
4
70
1
10
-14229.331615947753
20
381.5677267045744
10
-14229.331615947753
20
491.5677267045744
10
-14099.331615947753
20
491.5677267045744
10
-14099.331615947753
20
381.5677267045744
0
LWPOLYLINE
5
F86E
330
F5D6
100
AcDbEntity
100
AcDbPolyline
8
CELIK_KIRIS_KOLON
6
ByLayer
62
256
370
-1
90
4
70
1
10
-14506.567726704574
20
2180
10
-14506.567726704574
20
2220
10
-14094.331615947753
20
2220
10
-14094.331615947753
20
2180
0
CIRCLE
5
F870
330
F5D6
100
AcDbEntity
100
AcDbCircle
8
CELIK_KIRIS_KOLON
10
-14300.449671326163
20
2360
30
0
40
155
0
LWPOLYLINE
5
F871
330
F5D6
100
AcDbEntity
100
AcDbPolyline
8
CELIK_KIRIS_KOLON
6
ByLayer
62
256
370
-1
90
4
70
1
10
-14490.449671326163
20
2335
10
-14490.449671326163
20
2385
10
-14455.449671326163
20
2385
10
-14455.449671326163
20
2335
0
LWPOLYLINE
5
F872
330
F5D6
100
AcDbEntity
100
AcDbPolyline
8
CELIK_KIRIS_KOLON
6
ByLayer
62
256
370
-1
90
4
70
1
10
-14145.449671326163
20
2335
10
-14145.449671326163
20
2385
10
-14110.449671326163
20
2385
10
-14110.449671326163
20
2335
0
LINE
5
F873
330
F5D6
100
AcDbEntity
100
AcDbLine
8
CELIK_KIRIS_KOLON
10
-14436.567726704574
20
244.33161594775356
30
0
11
-14300.449671326163
21
2220
31
0
0
LINE
5
F891
330
F5D6
100
AcDbEntity
100
AcDbLine
8
CELIK_KIRIS_KOLON
10
-3833.122799639975
20
298.3990616607231
30
0
11
-3827.4659453904824
21
292.74220741123065
31
0
0
LINE
5
F892
330
F5D6
100
AcDbEntity
100
AcDbLine
8
CELIK_KIRIS_KOLON
10
-3833.122799639975
20
298.3990616607231
30
0
11
-4298.399061660723
21
-166.87720036002523
31
0
0
LINE
5
F893
330
F5D6
100
AcDbEntity
100
AcDbLine
8
CELIK_KIRIS_KOLON
10
-4298.399061660723
20
-166.87720036002523
30
0
11
-4292.742207411231
21
-172.5340546095176
31
0
0
LINE
5
F8A5
330
F5D6
100
AcDbEntity
100
AcDbLine
8
CELIK_KIRIS_KOLON
10
-3904.8941379304097
20
226.6277233702885
30
0
11
-3922.571807460073
21
244.30539289995218
31
0
0
LINE
5
F8A6
330
F5D6
100
AcDbEntity
100
AcDbLine
8
CELIK_KIRIS_KOLON
10
-3922.571807460073
20
244.30539289995218
30
0
11
-4244.3053928999525
21
-77.42819253992698
31
0
0
LINE
5
F8A7
330
F5D6
100
AcDbEntity
100
AcDbLine
8
CELIK_KIRIS_KOLON
10
-4244.3053928999525
20
-77.42819253992698
30
0
11
-4226.627723370289
21
-95.10586206959067
31
0
0
LINE
5
F8A8
330
F5D6
100
AcDbEntity
100
AcDbLine
8
CELIK_KIRIS_KOLON
10
-4041.01219330882
20
125.86500705120545
30
0
11
-4260.922402257836
21
260.92240225783604
31
0
0
LINE
5
F8A9
330
F5D6
100
AcDbEntity
100
AcDbLine
8
CELIK_KIRIS_KOLON
10
-4125.865007051206
20
41.01219330881975
30
0
11
-4260.922402257836
21
260.92240225783604
31
0
0
CIRCLE
5
F8AA
330
F5D6
100
AcDbEntity
100
AcDbCircle
8
CELIK_KIRIS_KOLON
10
-4260.922402257836
20
260.92240225783604
30
0
40
22
0
CIRCLE
5
F8AB
330
F5D6
100
AcDbEntity
100
AcDbCircle
8
CELIK_KIRIS_KOLON
10
-4260.922402257836
20
260.92240225783604
30
0
40
45
0
TEXT
5
F8AC
330
F5D6
100
AcDbEntity
100
AcDbText
8
CELIK_KIRIS_KOLON
10
-4290.922402257836
20
295.92240225783604
30
0
40
26
1
0-60° TILT MAFSALI
50
0
7
STANDARD
72
2
11
-4290.922402257836
21
295.92240225783604
31
0
100
AcDbText
73
2
0
CIRCLE
5
F8B0
330
F5D6
100
AcDbEntity
100
AcDbCircle
8
CELIK_KIRIS_KOLON
10
-4300.449671326164
20
300.449671326164
30
0
40
48.1
0
LINE
5
F8B1
330
F5D6
100
AcDbEntity
100
AcDbLine
8
CELIK_KIRIS_KOLON
10
-4284.964032818179
20
383.9589821842953
30
0
11
-4383.958982184296
21
284.9640328181786
31
0
0
LWPOLYLINE
5
F8B2
330
F5D6
100
AcDbEntity
100
AcDbPolyline
8
CELIK_KIRIS_KOLON
6
ByLayer
62
256
370
-1
90
4
70
1
10
-4501.567726704575
20
109.33161594775356
10
-4501.567726704575
20
219.33161594775356
10
-4371.567726704575
20
219.33161594775356
10
-4371.567726704575
20
109.33161594775356
0
LWPOLYLINE
5
F8B3
330
F5D6
100
AcDbEntity
100
AcDbPolyline
8
CELIK_KIRIS_KOLON
6
ByLayer
62
256
370
-1
90
4
70
1
10
-4229.331615947754
20
381.5677267045744
10
-4229.331615947754
20
491.5677267045744
10
-4099.331615947754
20
491.5677267045744
10
-4099.331615947754
20
381.5677267045744
0
LWPOLYLINE
5
F8B6
330
F5D6
100
AcDbEntity
100
AcDbPolyline
8
CELIK_KIRIS_KOLON
6
ByLayer
62
256
370
-1
90
4
70
1
10
-4506.567726704575
20
2180
10
-4506.567726704575
20
2220
10
-4094.3316159477536
20
2220
10
-4094.3316159477536
20
2180
0
CIRCLE
5
F8B8
330
F5D6
100
AcDbEntity
100
AcDbCircle
8
CELIK_KIRIS_KOLON
10
-4556.567726704575
20
2950
30
0
40
795
0
LWPOLYLINE
5
F8BA
330
F5D6
100
AcDbEntity
100
AcDbPolyline
8
CELIK_KIRIS_KOLON
6
ByLayer
62
256
370
-1
90
4
70
1
10
-4436.567726704575
20
406.5677267045744
10
-4436.567726704575
20
466.5677267045744
10
-4104.331615947754
20
466.5677267045744
10
-4104.331615947754
20
406.5677267045744
0
LINE
5
F8D8
330
F5D6
100
AcDbEntity
100
AcDbLine
8
CELIK_KIRIS_KOLON
10
5666.877200360025
20
298.3990616607231
30
0
11
5672.534054609518
21
292.74220741123065
31
0
0
LINE
5
F8D9
330
F5D6
100
AcDbEntity
100
AcDbLine
8
CELIK_KIRIS_KOLON
10
5666.877200360025
20
298.3990616607231
30
0
11
5201.600938339277
21
-166.87720036002523
31
0
0
LINE
5
F8DA
330
F5D6
100
AcDbEntity
100
AcDbLine
8
CELIK_KIRIS_KOLON
10
5201.600938339277
20
-166.87720036002523
30
0
11
5207.257792588769
21
-172.5340546095176
31
0
0
LINE
5
F8EC
330
F5D6
100
AcDbEntity
100
AcDbLine
8
CELIK_KIRIS_KOLON
10
5595.10586206959
20
226.6277233702885
30
0
11
5577.428192539926
21
244.30539289995218
31
0
0
LINE
5
F8ED
330
F5D6
100
AcDbEntity
100
AcDbLine
8
CELIK_KIRIS_KOLON
10
5577.428192539926
20
244.30539289995218
30
0
11
5255.6946071000475
21
-77.42819253992698
31
0
0
LINE
5
F8EE
330
F5D6
100
AcDbEntity
100
AcDbLine
8
CELIK_KIRIS_KOLON
10
5255.6946071000475
20
-77.42819253992698
30
0
11
5273.372276629711
21
-95.10586206959067
31
0
0
LINE
5
F8EF
330
F5D6
100
AcDbEntity
100
AcDbLine
8
CELIK_KIRIS_KOLON
10
5458.98780669118
20
125.86500705120545
30
0
11
5239.077597742164
21
260.92240225783604
31
0
0
LINE
5
F8F0
330
F5D6
100
AcDbEntity
100
AcDbLine
8
CELIK_KIRIS_KOLON
10
5374.134992948794
20
41.01219330881975
30
0
11
5239.077597742164
21
260.92240225783604
31
0
0
CIRCLE
5
F8F1
330
F5D6
100
AcDbEntity
100
AcDbCircle
8
CELIK_KIRIS_KOLON
10
5239.077597742164
20
260.92240225783604
30
0
40
22
0
CIRCLE
5
F8F2
330
F5D6
100
AcDbEntity
100
AcDbCircle
8
CELIK_KIRIS_KOLON
10
5239.077597742164
20
260.92240225783604
30
0
40
45
0
TEXT
5
F8F3
330
F5D6
100
AcDbEntity
100
AcDbText
8
CELIK_KIRIS_KOLON
10
5209.077597742164
20
295.92240225783604
30
0
40
26
1
0-60° TILT MAFSALI
50
0
7
STANDARD
72
2
11
5209.077597742164
21
295.92240225783604
31
0
100
AcDbText
73
2
0
CIRCLE
5
F8F7
330
F5D6
100
AcDbEntity
100
AcDbCircle
8
CELIK_KIRIS_KOLON
10
5199.550328673836
20
300.449671326164
30
0
40
48.1
0
LINE
5
F8F8
330
F5D6
100
AcDbEntity
100
AcDbLine
8
CELIK_KIRIS_KOLON
10
5215.035967181821
20
383.9589821842953
30
0
11
5116.041017815704
21
284.9640328181786
31
0
0
LWPOLYLINE
5
F8F9
330
F5D6
100
AcDbEntity
100
AcDbPolyline
8
CELIK_KIRIS_KOLON
6
ByLayer
62
256
370
-1
90
4
70
1
10
4998.432273295425
20
109.33161594775356
10
4998.432273295425
20
219.33161594775356
10
5128.432273295425
20
219.33161594775356
10
5128.432273295425
20
109.33161594775356
0
LWPOLYLINE
5
F8FA
330
F5D6
100
AcDbEntity
100
AcDbPolyline
8
CELIK_KIRIS_KOLON
6
ByLayer
62
256
370
-1
90
4
70
1
10
5270.668384052246
20
381.5677267045744
10
5270.668384052246
20
491.5677267045744
10
5400.668384052246
20
491.5677267045744
10
5400.668384052246
20
381.5677267045744
0
LWPOLYLINE
5
F8FD
330
F5D6
100
AcDbEntity
100
AcDbPolyline
8
CELIK_KIRIS_KOLON
6
ByLayer
62
256
370
-1
90
4
70
1
10
4993.432273295425
20
2180
10
4993.432273295425
20
2220
10
5405.668384052246
20
2220
10
5405.668384052246
20
2180
0
LINE
5
F901
330
F5D6
100
AcDbEntity
100
AcDbLine
8
CELIK_KIRIS_KOLON
10
5303.432273295425
20
1840
30
0
11
5303.432273295425
21
2940
31
0
0
LINE
5
F902
330
F5D6
100
AcDbEntity
100
AcDbLine
8
CELIK_KIRIS_KOLON
10
4473.432273295425
20
1840
30
0
11
4473.432273295425
21
2940
31
0
0
LINE
5
F903
330
F5D6
100
AcDbEntity
100
AcDbLine
8
CELIK_KIRIS_KOLON
10
4473.432273295425
20
2940
30
0
11
5303.432273295425
21
2940
31
0
0
LINE
5
F904
330
F5D6
100
AcDbEntity
100
AcDbLine
8
CELIK_KIRIS_KOLON
10
4473.432273295425
20
2390
30
0
11
5303.432273295425
21
2390
31
0
0
LWPOLYLINE
5
F5EF
330
F5D6
100
AcDbEntity
100
AcDbPolyline
8
MONTAJ_BORULARI
6
ByLayer
62
256
370
-1
90
4
70
1
10
-18038.1
20
16525
10
-18038.1
20
17475
10
-17961.899999999998
20
17475
10
-17961.899999999998
20
16525
0
LINE
5
F5F0
330
F5D6
100
AcDbEntity
100
AcDbLine
8
MONTAJ_BORULARI
10
-18000
20
16445
30
0
11
-18000
21
17555
31
0
0
LINE
5
F63E
330
F5D6
100
AcDbEntity
100
AcDbLine
8
MONTAJ_BORULARI
10
-12015.839191898578
20
17585.06015075375
30
0
11
-12585.060150753749
21
17015.83919189858
31
0
0
LINE
5
F63F
330
F5D6
100
AcDbEntity
100
AcDbLine
8
MONTAJ_BORULARI
10
-12042.779960261787
20
17612.000919116956
30
0
11
-12612.000919116957
21
17042.779960261785
31
0
0
LINE
5
F640
330
F5D6
100
AcDbEntity
100
AcDbLine
8
MONTAJ_BORULARI
10
-11988.898423535371
20
17558.11938239054
30
0
11
-12558.119382390541
21
16988.89842353537
31
0
0
LWPOLYLINE
5
F645
330
F5D6
100
AcDbEntity
100
AcDbPolyline
8
MONTAJ_BORULARI
6
ByLayer
62
256
370
-1
90
4
70
1
10
-12471.567726704574
20
17164.331615947754
10
-12471.567726704574
20
19200
10
-12401.567726704574
20
19200
10
-12401.567726704574
20
17164.331615947754
0
LWPOLYLINE
5
F646
330
F5D6
100
AcDbEntity
100
AcDbPolyline
8
MONTAJ_BORULARI
6
ByLayer
62
256
370
-1
90
4
70
1
10
-12199.331615947753
20
17436.567726704576
10
-12199.331615947753
20
19200
10
-12129.331615947753
20
19200
10
-12129.331615947753
20
17436.567726704576
0
CIRCLE
5
F648
330
F5D6
100
AcDbEntity
100
AcDbCircle
8
MONTAJ_BORULARI
10
-12300.449671326163
20
19360
30
0
40
140
0
CIRCLE
5
F66F
330
F5D6
100
AcDbEntity
100
AcDbCircle
8
MONTAJ_BORULARI
10
-6000
20
16575.1
30
0
40
38.1
0
LWPOLYLINE
5
F688
330
F5D6
100
AcDbEntity
100
AcDbPolyline
8
MONTAJ_BORULARI
6
ByLayer
62
256
370
-1
90
4
70
1
10
7961.9
20
16525
10
7961.9
20
17475
10
8038.099999999999
20
17475
10
8038.099999999999
20
16525
0
LINE
5
F689
330
F5D6
100
AcDbEntity
100
AcDbLine
8
MONTAJ_BORULARI
10
8000
20
16445
30
0
11
8000
21
17555
31
0
0
LWPOLYLINE
5
F6B1
330
F5D6
100
AcDbEntity
100
AcDbPolyline
8
MONTAJ_BORULARI
6
ByLayer
62
256
370
-1
90
4
70
1
10
8961.9
20
16525
10
8961.9
20
17475
10
9038.1
20
17475
10
9038.1
20
16525
0
LINE
5
F6B2
330
F5D6
100
AcDbEntity
100
AcDbLine
8
MONTAJ_BORULARI
10
9000
20
16445
30
0
11
9000
21
17555
31
0
0
LINE
5
F716
330
F5D6
100
AcDbEntity
100
AcDbLine
8
MONTAJ_BORULARI
10
15984.160808101422
20
17585.06015075375
30
0
11
15414.939849246251
21
17015.83919189858
31
0
0
LINE
5
F717
330
F5D6
100
AcDbEntity
100
AcDbLine
8
MONTAJ_BORULARI
10
15957.220039738213
20
17612.000919116956
30
0
11
15387.999080883043
21
17042.779960261785
31
0
0
LINE
5
F718
330
F5D6
100
AcDbEntity
100
AcDbLine
8
MONTAJ_BORULARI
10
16011.101576464629
20
17558.11938239054
30
0
11
15441.880617609459
21
16988.89842353537
31
0
0
LWPOLYLINE
5
F71D
330
F5D6
100
AcDbEntity
100
AcDbPolyline
8
MONTAJ_BORULARI
6
ByLayer
62
256
370
-1
90
4
70
1
10
15528.432273295426
20
17164.331615947754
10
15528.432273295426
20
19200
10
15598.432273295426
20
19200
10
15598.432273295426
20
17164.331615947754
0
LWPOLYLINE
5
F71E
330
F5D6
100
AcDbEntity
100
AcDbPolyline
8
MONTAJ_BORULARI
6
ByLayer
62
256
370
-1
90
4
70
1
10
15800.668384052247
20
17436.567726704576
10
15800.668384052247
20
19200
10
15870.668384052247
20
19200
10
15870.668384052247
20
17436.567726704576
0
CIRCLE
5
F720
330
F5D6
100
AcDbEntity
100
AcDbCircle
8
MONTAJ_BORULARI
10
15699.550328673837
20
19360
30
0
40
140
0
LWPOLYLINE
5
F73A
330
F5D6
100
AcDbEntity
100
AcDbPolyline
8
MONTAJ_BORULARI
6
ByLayer
62
256
370
-1
90
4
70
1
10
-7938.1
20
8025
10
-7938.1
20
8975
10
-7861.900000000001
20
8975
10
-7861.900000000001
20
8025
0
LINE
5
F73B
330
F5D6
100
AcDbEntity
100
AcDbLine
8
MONTAJ_BORULARI
10
-7900
20
7945
30
0
11
-7900
21
9055
31
0
0
LWPOLYLINE
5
F763
330
F5D6
100
AcDbEntity
100
AcDbPolyline
8
MONTAJ_BORULARI
6
ByLayer
62
256
370
-1
90
4
70
1
10
-7038.1
20
8025
10
-7038.1
20
8975
10
-6961.900000000001
20
8975
10
-6961.900000000001
20
8025
0
LINE
5
F764
330
F5D6
100
AcDbEntity
100
AcDbLine
8
MONTAJ_BORULARI
10
-7000
20
7945
30
0
11
-7000
21
9055
31
0
0
LWPOLYLINE
5
F78C
330
F5D6
100
AcDbEntity
100
AcDbPolyline
8
MONTAJ_BORULARI
6
ByLayer
62
256
370
-1
90
4
70
1
10
-6138.1
20
8025
10
-6138.1
20
8975
10
-6061.900000000001
20
8975
10
-6061.900000000001
20
8025
0
LINE
5
F78D
330
F5D6
100
AcDbEntity
100
AcDbLine
8
MONTAJ_BORULARI
10
-6100
20
7945
30
0
11
-6100
21
9055
31
0
0
CIRCLE
5
F7DA
330
F5D6
100
AcDbEntity
100
AcDbCircle
8
MONTAJ_BORULARI
10
3004.6756411009233
20
8300.724605428068
30
0
40
38.1
0
CIRCLE
5
F800
330
F5D6
100
AcDbEntity
100
AcDbCircle
8
MONTAJ_BORULARI
10
4000
20
8075.1
30
0
40
38.1
0
CIRCLE
5
F826
330
F5D6
100
AcDbEntity
100
AcDbCircle
8
MONTAJ_BORULARI
10
4995.324358899076
20
8300.724605428068
30
0
40
38.1
0
LINE
5
F865
330
F5D6
100
AcDbEntity
100
AcDbLine
8
MONTAJ_BORULARI
10
-14015.839191898578
20
585.0601507537493
30
0
11
-14585.060150753749
21
15.839191898578633
31
0
0
LINE
5
F866
330
F5D6
100
AcDbEntity
100
AcDbLine
8
MONTAJ_BORULARI
10
-14042.779960261787
20
612.0009191169568
30
0
11
-14612.000919116957
21
42.77996026178613
31
0
0
LINE
5
F867
330
F5D6
100
AcDbEntity
100
AcDbLine
8
MONTAJ_BORULARI
10
-13988.898423535371
20
558.1193823905419
30
0
11
-14558.119382390541
21
-11.101576464628806
31
0
0
LWPOLYLINE
5
F86C
330
F5D6
100
AcDbEntity
100
AcDbPolyline
8
MONTAJ_BORULARI
6
ByLayer
62
256
370
-1
90
4
70
1
10
-14471.567726704574
20
164.33161594775356
10
-14471.567726704574
20
2200
10
-14401.567726704574
20
2200
10
-14401.567726704574
20
164.33161594775356
0
LWPOLYLINE
5
F86D
330
F5D6
100
AcDbEntity
100
AcDbPolyline
8
MONTAJ_BORULARI
6
ByLayer
62
256
370
-1
90
4
70
1
10
-14199.331615947753
20
436.5677267045744
10
-14199.331615947753
20
2200
10
-14129.331615947753
20
2200
10
-14129.331615947753
20
436.5677267045744
0
CIRCLE
5
F86F
330
F5D6
100
AcDbEntity
100
AcDbCircle
8
MONTAJ_BORULARI
10
-14300.449671326163
20
2360
30
0
40
140
0
LINE
5
F8AD
330
F5D6
100
AcDbEntity
100
AcDbLine
8
MONTAJ_BORULARI
10
-4015.839191898579
20
585.0601507537493
30
0
11
-4585.060150753749
21
15.839191898578633
31
0
0
LINE
5
F8AE
330
F5D6
100
AcDbEntity
100
AcDbLine
8
MONTAJ_BORULARI
10
-4042.779960261786
20
612.0009191169568
30
0
11
-4612.0009191169565
21
42.77996026178613
31
0
0
LINE
5
F8AF
330
F5D6
100
AcDbEntity
100
AcDbLine
8
MONTAJ_BORULARI
10
-3988.898423535371
20
558.1193823905419
30
0
11
-4558.119382390541
21
-11.101576464628806
31
0
0
LWPOLYLINE
5
F8B4
330
F5D6
100
AcDbEntity
100
AcDbPolyline
8
MONTAJ_BORULARI
6
ByLayer
62
256
370
-1
90
4
70
1
10
-4471.567726704575
20
164.33161594775356
10
-4471.567726704575
20
2200
10
-4401.567726704575
20
2200
10
-4401.567726704575
20
164.33161594775356
0
LWPOLYLINE
5
F8B5
330
F5D6
100
AcDbEntity
100
AcDbPolyline
8
MONTAJ_BORULARI
6
ByLayer
62
256
370
-1
90
4
70
1
10
-4199.331615947754
20
436.5677267045744
10
-4199.331615947754
20
2200
10
-4129.331615947754
20
2200
10
-4129.331615947754
20
436.5677267045744
0
CIRCLE
5
F8B7
330
F5D6
100
AcDbEntity
100
AcDbCircle
8
MONTAJ_BORULARI
10
-4556.567726704575
20
2950
30
0
40
750
0
LWPOLYLINE
5
F8B9
330
F5D6
100
AcDbEntity
100
AcDbPolyline
8
MONTAJ_BORULARI
6
ByLayer
62
256
370
-1
90
4
70
1
10
-4493.567726704575
20
104.33161594775356
10
-4493.567726704575
20
2200
10
-4379.567726704575
20
2200
10
-4379.567726704575
20
104.33161594775356
0
LINE
5
F8F4
330
F5D6
100
AcDbEntity
100
AcDbLine
8
MONTAJ_BORULARI
10
5484.160808101421
20
585.0601507537493
30
0
11
4914.939849246251
21
15.839191898578633
31
0
0
LINE
5
F8F5
330
F5D6
100
AcDbEntity
100
AcDbLine
8
MONTAJ_BORULARI
10
5457.220039738214
20
612.0009191169568
30
0
11
4887.9990808830435
21
42.77996026178613
31
0
0
LINE
5
F8F6
330
F5D6
100
AcDbEntity
100
AcDbLine
8
MONTAJ_BORULARI
10
5511.101576464629
20
558.1193823905419
30
0
11
4941.880617609459
21
-11.101576464628806
31
0
0
LWPOLYLINE
5
F8FB
330
F5D6
100
AcDbEntity
100
AcDbPolyline
8
MONTAJ_BORULARI
6
ByLayer
62
256
370
-1
90
4
70
1
10
5028.432273295425
20
164.33161594775356
10
5028.432273295425
20
2200
10
5098.432273295425
20
2200
10
5098.432273295425
20
164.33161594775356
0
LWPOLYLINE
5
F8FC
330
F5D6
100
AcDbEntity
100
AcDbPolyline
8
MONTAJ_BORULARI
6
ByLayer
62
256
370
-1
90
4
70
1
10
5300.668384052246
20
436.5677267045744
10
5300.668384052246
20
2200
10
5370.668384052246
20
2200
10
5370.668384052246
20
436.5677267045744
0
CIRCLE
5
F905
330
F5D6
100
AcDbEntity
100
AcDbCircle
8
MONTAJ_BORULARI
10
4713.432273295425
20
1520
30
0
40
228.5
0
CIRCLE
5
F906
330
F5D6
100
AcDbEntity
100
AcDbCircle
8
MONTAJ_BORULARI
10
4713.432273295425
20
1520
30
0
40
243.5
0
LWPOLYLINE
5
F907
330
F5D6
100
AcDbEntity
100
AcDbPolyline
8
MONTAJ_BORULARI
6
ByLayer
62
256
370
-1
90
4
70
1
10
5028.432273295425
20
164.33161594775356
10
5028.432273295425
20
1800
10
5098.432273295425
20
1800
10
5098.432273295425
20
164.33161594775356
0
LWPOLYLINE
5
F908
330
F5D6
100
AcDbEntity
100
AcDbPolyline
8
MONTAJ_BORULARI
6
ByLayer
62
256
370
-1
90
4
70
1
10
5300.668384052246
20
436.5677267045744
10
5300.668384052246
20
1800
10
5370.668384052246
20
1800
10
5370.668384052246
20
436.5677267045744
0
LINE
5
F625
330
F5D6
100
AcDbEntity
100
AcDbLine
8
KABLO_TAVALARI
10
-11977.37258300203
20
17154.149278298664
30
0
11
-11995.050252531693
21
17171.82694782833
31
0
0
CIRCLE
5
F626
330
F5D6
100
AcDbEntity
100
AcDbCircle
8
KABLO_TAVALARI
10
-11995.050252531693
20
17171.82694782833
30
0
40
8
0
LINE
5
F627
330
F5D6
100
AcDbEntity
100
AcDbLine
8
KABLO_TAVALARI
10
-11995.050252531693
20
17171.82694782833
30
0
11
-12035.050252531693
21
17111.82694782833
31
0
0
LINE
5
F628
330
F5D6
100
AcDbEntity
100
AcDbLine
8
KABLO_TAVALARI
10
-12035.050252531693
20
17111.82694782833
30
0
11
-12388.908729652601
21
17106.066017177985
31
0
0
LINE
5
F629
330
F5D6
100
AcDbEntity
100
AcDbLine
8
KABLO_TAVALARI
10
-12037.476659402888
20
17094.04520189781
30
0
11
-12055.154328932551
21
17111.722871427475
31
0
0
CIRCLE
5
F62A
330
F5D6
100
AcDbEntity
100
AcDbCircle
8
KABLO_TAVALARI
10
-12055.154328932551
20
17111.722871427475
30
0
40
8
0
LINE
5
F62B
330
F5D6
100
AcDbEntity
100
AcDbLine
8
KABLO_TAVALARI
10
-12055.154328932551
20
17111.722871427475
30
0
11
-12095.154328932551
21
17051.722871427475
31
0
0
LINE
5
F62C
330
F5D6
100
AcDbEntity
100
AcDbLine
8
KABLO_TAVALARI
10
-12095.154328932551
20
17051.722871427475
30
0
11
-12388.908729652601
21
17141.066017177985
31
0
0
LINE
5
F62D
330
F5D6
100
AcDbEntity
100
AcDbLine
8
KABLO_TAVALARI
10
-12097.580735803744
20
17033.941125496953
30
0
11
-12115.258405333407
21
17051.618795026618
31
0
0
CIRCLE
5
F62E
330
F5D6
100
AcDbEntity
100
AcDbCircle
8
KABLO_TAVALARI
10
-12115.258405333407
20
17051.618795026618
30
0
40
8
0
LINE
5
F62F
330
F5D6
100
AcDbEntity
100
AcDbLine
8
KABLO_TAVALARI
10
-12115.258405333407
20
17051.618795026618
30
0
11
-12155.258405333407
21
16991.618795026618
31
0
0
LINE
5
F630
330
F5D6
100
AcDbEntity
100
AcDbLine
8
KABLO_TAVALARI
10
-12155.258405333407
20
16991.618795026618
30
0
11
-12388.908729652601
21
17176.066017177985
31
0
0
LINE
5
F631
330
F5D6
100
AcDbEntity
100
AcDbLine
8
KABLO_TAVALARI
10
-12157.6848122046
20
16973.837049096095
30
0
11
-12175.362481734262
21
16991.51471862576
31
0
0
CIRCLE
5
F632
330
F5D6
100
AcDbEntity
100
AcDbCircle
8
KABLO_TAVALARI
10
-12175.362481734262
20
16991.51471862576
30
0
40
8
0
LINE
5
F633
330
F5D6
100
AcDbEntity
100
AcDbLine
8
KABLO_TAVALARI
10
-12175.362481734262
20
16991.51471862576
30
0
11
-12215.362481734262
21
16931.51471862576
31
0
0
LINE
5
F634
330
F5D6
100
AcDbEntity
100
AcDbLine
8
KABLO_TAVALARI
10
-12215.362481734262
20
16931.51471862576
30
0
11
-12388.908729652601
21
17211.066017177985
31
0
0
TEXT
5
F635
330
F5D6
100
AcDbEntity
100
AcDbText
8
KABLO_TAVALARI
10
-12243.951839509358
20
16989.3933982822
30
0
40
30
1
4x 4.3-10 RF PORT (R1, Y1, Y2, P1)
50
0
7
STANDARD
72
2
11
-12243.951839509358
21
16989.3933982822
31
0
100
AcDbText
73
2
0
CIRCLE
5
F667
330
F5D6
100
AcDbEntity
100
AcDbCircle
8
KABLO_TAVALARI
10
-5860
20
16899
30
0
40
8
0
CIRCLE
5
F668
330
F5D6
100
AcDbEntity
100
AcDbCircle
8
KABLO_TAVALARI
10
-5835
20
16899
30
0
40
8
0
CIRCLE
5
F669
330
F5D6
100
AcDbEntity
100
AcDbCircle
8
KABLO_TAVALARI
10
-5810
20
16899
30
0
40
8
0
CIRCLE
5
F66A
330
F5D6
100
AcDbEntity
100
AcDbCircle
8
KABLO_TAVALARI
10
-5785
20
16899
30
0
40
8
0
LWPOLYLINE
5
F6DC
330
F5D6
100
AcDbEntity
100
AcDbPolyline
8
KABLO_TAVALARI
6
ByLayer
62
256
370
-1
90
4
70
1
10
7500
20
17490
10
7500
20
17535
10
9500
20
17535
10
9500
20
17490
0
TEXT
5
F6DD
330
F5D6
100
AcDbEntity
100
AcDbText
8
KABLO_TAVALARI
10
8500
20
17515
30
0
40
30
1
2x 4 = 8 ADET 1/2" FEEDER KABLO TAVASI (300x60mm)
50
0
7
STANDARD
72
1
11
8500
21
17515
31
0
100
AcDbText
73
2
0
LINE
5
F6FD
330
F5D6
100
AcDbEntity
100
AcDbLine
8
KABLO_TAVALARI
10
16022.62741699797
20
17154.149278298664
30
0
11
16004.949747468307
21
17171.82694782833
31
0
0
CIRCLE
5
F6FE
330
F5D6
100
AcDbEntity
100
AcDbCircle
8
KABLO_TAVALARI
10
16004.949747468307
20
17171.82694782833
30
0
40
8
0
LINE
5
F6FF
330
F5D6
100
AcDbEntity
100
AcDbLine
8
KABLO_TAVALARI
10
16004.949747468307
20
17171.82694782833
30
0
11
15964.949747468307
21
17111.82694782833
31
0
0
LINE
5
F700
330
F5D6
100
AcDbEntity
100
AcDbLine
8
KABLO_TAVALARI
10
15964.949747468307
20
17111.82694782833
30
0
11
15611.091270347399
21
17106.066017177985
31
0
0
LINE
5
F701
330
F5D6
100
AcDbEntity
100
AcDbLine
8
KABLO_TAVALARI
10
15962.523340597112
20
17094.04520189781
30
0
11
15944.845671067449
21
17111.722871427475
31
0
0
CIRCLE
5
F702
330
F5D6
100
AcDbEntity
100
AcDbCircle
8
KABLO_TAVALARI
10
15944.845671067449
20
17111.722871427475
30
0
40
8
0
LINE
5
F703
330
F5D6
100
AcDbEntity
100
AcDbLine
8
KABLO_TAVALARI
10
15944.845671067449
20
17111.722871427475
30
0
11
15904.845671067449
21
17051.722871427475
31
0
0
LINE
5
F704
330
F5D6
100
AcDbEntity
100
AcDbLine
8
KABLO_TAVALARI
10
15904.845671067449
20
17051.722871427475
30
0
11
15611.091270347399
21
17141.066017177985
31
0
0
LINE
5
F705
330
F5D6
100
AcDbEntity
100
AcDbLine
8
KABLO_TAVALARI
10
15902.419264196256
20
17033.941125496953
30
0
11
15884.741594666593
21
17051.618795026618
31
0
0
CIRCLE
5
F706
330
F5D6
100
AcDbEntity
100
AcDbCircle
8
KABLO_TAVALARI
10
15884.741594666593
20
17051.618795026618
30
0
40
8
0
LINE
5
F707
330
F5D6
100
AcDbEntity
100
AcDbLine
8
KABLO_TAVALARI
10
15884.741594666593
20
17051.618795026618
30
0
11
15844.741594666593
21
16991.618795026618
31
0
0
LINE
5
F708
330
F5D6
100
AcDbEntity
100
AcDbLine
8
KABLO_TAVALARI
10
15844.741594666593
20
16991.618795026618
30
0
11
15611.091270347399
21
17176.066017177985
31
0
0
LINE
5
F709
330
F5D6
100
AcDbEntity
100
AcDbLine
8
KABLO_TAVALARI
10
15842.3151877954
20
16973.837049096095
30
0
11
15824.637518265738
21
16991.51471862576
31
0
0
CIRCLE
5
F70A
330
F5D6
100
AcDbEntity
100
AcDbCircle
8
KABLO_TAVALARI
10
15824.637518265738
20
16991.51471862576
30
0
40
8
0
LINE
5
F70B
330
F5D6
100
AcDbEntity
100
AcDbLine
8
KABLO_TAVALARI
10
15824.637518265738
20
16991.51471862576
30
0
11
15784.637518265738
21
16931.51471862576
31
0
0
LINE
5
F70C
330
F5D6
100
AcDbEntity
100
AcDbLine
8
KABLO_TAVALARI
10
15784.637518265738
20
16931.51471862576
30
0
11
15611.091270347399
21
17211.066017177985
31
0
0
TEXT
5
F70D
330
F5D6
100
AcDbEntity
100
AcDbText
8
KABLO_TAVALARI
10
15756.048160490642
20
16989.3933982822
30
0
40
30
1
4x 4.3-10 RF PORT (R1, Y1, Y2, P1)
50
0
7
STANDARD
72
2
11
15756.048160490642
21
16989.3933982822
31
0
100
AcDbText
73
2
0
CIRCLE
5
F7D2
330
F5D6
100
AcDbEntity
100
AcDbCircle
8
KABLO_TAVALARI
10
3247.0129324341347
20
8557.20822523503
30
0
40
8
0
CIRCLE
5
F7D3
330
F5D6
100
AcDbEntity
100
AcDbCircle
8
KABLO_TAVALARI
10
3270.505247953782
20
8548.657721651889
30
0
40
8
0
CIRCLE
5
F7D4
330
F5D6
100
AcDbEntity
100
AcDbCircle
8
KABLO_TAVALARI
10
3293.99756347343
20
8540.107218068746
30
0
40
8
0
CIRCLE
5
F7D5
330
F5D6
100
AcDbEntity
100
AcDbCircle
8
KABLO_TAVALARI
10
3317.4898789930776
20
8531.556714485605
30
0
40
8
0
CIRCLE
5
F7F8
330
F5D6
100
AcDbEntity
100
AcDbCircle
8
KABLO_TAVALARI
10
4140
20
8399
30
0
40
8
0
CIRCLE
5
F7F9
330
F5D6
100
AcDbEntity
100
AcDbCircle
8
KABLO_TAVALARI
10
4165
20
8399
30
0
40
8
0
CIRCLE
5
F7FA
330
F5D6
100
AcDbEntity
100
AcDbCircle
8
KABLO_TAVALARI
10
4190
20
8399
30
0
40
8
0
CIRCLE
5
F7FB
330
F5D6
100
AcDbEntity
100
AcDbCircle
8
KABLO_TAVALARI
10
4215
20
8399
30
0
40
8
0
CIRCLE
5
F81E
330
F5D6
100
AcDbEntity
100
AcDbCircle
8
KABLO_TAVALARI
10
5016.1010013859195
20
8652.973865366217
30
0
40
8
0
CIRCLE
5
F81F
330
F5D6
100
AcDbEntity
100
AcDbCircle
8
KABLO_TAVALARI
10
5039.593316905568
20
8661.524368949358
30
0
40
8
0
CIRCLE
5
F820
330
F5D6
100
AcDbEntity
100
AcDbCircle
8
KABLO_TAVALARI
10
5063.085632425215
20
8670.074872532501
30
0
40
8
0
CIRCLE
5
F821
330
F5D6
100
AcDbEntity
100
AcDbCircle
8
KABLO_TAVALARI
10
5086.577947944863
20
8678.625376115642
30
0
40
8
0
LINE
5
F84C
330
F5D6
100
AcDbEntity
100
AcDbLine
8
KABLO_TAVALARI
10
-13977.37258300203
20
154.14927829866735
30
0
11
-13995.050252531693
21
171.82694782833104
31
0
0
CIRCLE
5
F84D
330
F5D6
100
AcDbEntity
100
AcDbCircle
8
KABLO_TAVALARI
10
-13995.050252531693
20
171.82694782833104
30
0
40
8
0
LINE
5
F84E
330
F5D6
100
AcDbEntity
100
AcDbLine
8
KABLO_TAVALARI
10
-13995.050252531693
20
171.82694782833104
30
0
11
-14035.050252531693
21
111.82694782833104
31
0
0
LINE
5
F84F
330
F5D6
100
AcDbEntity
100
AcDbLine
8
KABLO_TAVALARI
10
-14035.050252531693
20
111.82694782833104
30
0
11
-14388.908729652601
21
106.0660171779821
31
0
0
LINE
5
F850
330
F5D6
100
AcDbEntity
100
AcDbLine
8
KABLO_TAVALARI
10
-14037.476659402888
20
94.04520189781081
30
0
11
-14055.154328932551
21
111.7228714274745
31
0
0
CIRCLE
5
F851
330
F5D6
100
AcDbEntity
100
AcDbCircle
8
KABLO_TAVALARI
10
-14055.154328932551
20
111.7228714274745
30
0
40
8
0
LINE
5
F852
330
F5D6
100
AcDbEntity
100
AcDbLine
8
KABLO_TAVALARI
10
-14055.154328932551
20
111.7228714274745
30
0
11
-14095.154328932551
21
51.7228714274745
31
0
0
LINE
5
F853
330
F5D6
100
AcDbEntity
100
AcDbLine
8
KABLO_TAVALARI
10
-14095.154328932551
20
51.7228714274745
30
0
11
-14388.908729652601
21
141.0660171779821
31
0
0
LINE
5
F854
330
F5D6
100
AcDbEntity
100
AcDbLine
8
KABLO_TAVALARI
10
-14097.580735803744
20
33.94112549695427
30
0
11
-14115.258405333407
21
51.61879502661796
31
0
0
CIRCLE
5
F855
330
F5D6
100
AcDbEntity
100
AcDbCircle
8
KABLO_TAVALARI
10
-14115.258405333407
20
51.61879502661796
30
0
40
8
0
LINE
5
F856
330
F5D6
100
AcDbEntity
100
AcDbLine
8
KABLO_TAVALARI
10
-14115.258405333407
20
51.61879502661796
30
0
11
-14155.258405333407
21
-8.38120497338204
31
0
0
LINE
5
F857
330
F5D6
100
AcDbEntity
100
AcDbLine
8
KABLO_TAVALARI
10
-14155.258405333407
20
-8.38120497338204
30
0
11
-14388.908729652601
21
176.0660171779821
31
0
0
LINE
5
F858
330
F5D6
100
AcDbEntity
100
AcDbLine
8
KABLO_TAVALARI
10
-14157.6848122046
20
-26.16295090390227
30
0
11
-14175.362481734262
21
-8.485281374238582
31
0
0
CIRCLE
5
F859
330
F5D6
100
AcDbEntity
100
AcDbCircle
8
KABLO_TAVALARI
10
-14175.362481734262
20
-8.485281374238582
30
0
40
8
0
LINE
5
F85A
330
F5D6
100
AcDbEntity
100
AcDbLine
8
KABLO_TAVALARI
10
-14175.362481734262
20
-8.485281374238582
30
0
11
-14215.362481734262
21
-68.48528137423858
31
0
0
LINE
5
F85B
330
F5D6
100
AcDbEntity
100
AcDbLine
8
KABLO_TAVALARI
10
-14215.362481734262
20
-68.48528137423858
30
0
11
-14388.908729652601
21
211.0660171779821
31
0
0
TEXT
5
F85C
330
F5D6
100
AcDbEntity
100
AcDbText
8
KABLO_TAVALARI
10
-14243.951839509358
20
-10.606601717798227
30
0
40
30
1
4x 4.3-10 RF PORT (R1, Y1, Y2, P1)
50
0
7
STANDARD
72
2
11
-14243.951839509358
21
-10.606601717798227
31
0
100
AcDbText
73
2
0
LINE
5
F894
330
F5D6
100
AcDbEntity
100
AcDbLine
8
KABLO_TAVALARI
10
-3977.3725830020308
20
154.14927829866735
30
0
11
-3995.0502525316942
21
171.82694782833104
31
0
0
CIRCLE
5
F895
330
F5D6
100
AcDbEntity
100
AcDbCircle
8
KABLO_TAVALARI
10
-3995.0502525316942
20
171.82694782833104
30
0
40
8
0
LINE
5
F896
330
F5D6
100
AcDbEntity
100
AcDbLine
8
KABLO_TAVALARI
10
-3995.0502525316942
20
171.82694782833104
30
0
11
-4035.0502525316942
21
111.82694782833104
31
0
0
LINE
5
F897
330
F5D6
100
AcDbEntity
100
AcDbLine
8
KABLO_TAVALARI
10
-4035.0502525316942
20
111.82694782833104
30
0
11
-4388.908729652601
21
106.0660171779821
31
0
0
LINE
5
F898
330
F5D6
100
AcDbEntity
100
AcDbLine
8
KABLO_TAVALARI
10
-4037.4766594028874
20
94.04520189781081
30
0
11
-4055.154328932551
21
111.7228714274745
31
0
0
CIRCLE
5
F899
330
F5D6
100
AcDbEntity
100
AcDbCircle
8
KABLO_TAVALARI
10
-4055.154328932551
20
111.7228714274745
30
0
40
8
0
LINE
5
F89A
330
F5D6
100
AcDbEntity
100
AcDbLine
8
KABLO_TAVALARI
10
-4055.154328932551
20
111.7228714274745
30
0
11
-4095.154328932551
21
51.7228714274745
31
0
0
LINE
5
F89B
330
F5D6
100
AcDbEntity
100
AcDbLine
8
KABLO_TAVALARI
10
-4095.154328932551
20
51.7228714274745
30
0
11
-4388.908729652601
21
141.0660171779821
31
0
0
LINE
5
F89C
330
F5D6
100
AcDbEntity
100
AcDbLine
8
KABLO_TAVALARI
10
-4097.580735803744
20
33.94112549695427
30
0
11
-4115.258405333408
21
51.61879502661796
31
0
0
CIRCLE
5
F89D
330
F5D6
100
AcDbEntity
100
AcDbCircle
8
KABLO_TAVALARI
10
-4115.258405333408
20
51.61879502661796
30
0
40
8
0
LINE
5
F89E
330
F5D6
100
AcDbEntity
100
AcDbLine
8
KABLO_TAVALARI
10
-4115.258405333408
20
51.61879502661796
30
0
11
-4155.258405333408
21
-8.38120497338204
31
0
0
LINE
5
F89F
330
F5D6
100
AcDbEntity
100
AcDbLine
8
KABLO_TAVALARI
10
-4155.258405333408
20
-8.38120497338204
30
0
11
-4388.908729652601
21
176.0660171779821
31
0
0
LINE
5
F8A0
330
F5D6
100
AcDbEntity
100
AcDbLine
8
KABLO_TAVALARI
10
-4157.6848122046
20
-26.16295090390227
30
0
11
-4175.362481734263
21
-8.485281374238582
31
0
0
CIRCLE
5
F8A1
330
F5D6
100
AcDbEntity
100
AcDbCircle
8
KABLO_TAVALARI
10
-4175.362481734263
20
-8.485281374238582
30
0
40
8
0
LINE
5
F8A2
330
F5D6
100
AcDbEntity
100
AcDbLine
8
KABLO_TAVALARI
10
-4175.362481734263
20
-8.485281374238582
30
0
11
-4215.362481734263
21
-68.48528137423858
31
0
0
LINE
5
F8A3
330
F5D6
100
AcDbEntity
100
AcDbLine
8
KABLO_TAVALARI
10
-4215.362481734263
20
-68.48528137423858
30
0
11
-4388.908729652601
21
211.0660171779821
31
0
0
TEXT
5
F8A4
330
F5D6
100
AcDbEntity
100
AcDbText
8
KABLO_TAVALARI
10
-4243.951839509358
20
-10.606601717798227
30
0
40
30
1
4x 4.3-10 RF PORT (R1, Y1, Y2, P1)
50
0
7
STANDARD
72
2
11
-4243.951839509358
21
-10.606601717798227
31
0
100
AcDbText
73
2
0
LINE
5
F8DB
330
F5D6
100
AcDbEntity
100
AcDbLine
8
KABLO_TAVALARI
10
5522.62741699797
20
154.14927829866735
30
0
11
5504.949747468306
21
171.82694782833104
31
0
0
CIRCLE
5
F8DC
330
F5D6
100
AcDbEntity
100
AcDbCircle
8
KABLO_TAVALARI
10
5504.949747468306
20
171.82694782833104
30
0
40
8
0
LINE
5
F8DD
330
F5D6
100
AcDbEntity
100
AcDbLine
8
KABLO_TAVALARI
10
5504.949747468306
20
171.82694782833104
30
0
11
5464.949747468306
21
111.82694782833104
31
0
0
LINE
5
F8DE
330
F5D6
100
AcDbEntity
100
AcDbLine
8
KABLO_TAVALARI
10
5464.949747468306
20
111.82694782833104
30
0
11
5111.091270347399
21
106.0660171779821
31
0
0
LINE
5
F8DF
330
F5D6
100
AcDbEntity
100
AcDbLine
8
KABLO_TAVALARI
10
5462.523340597113
20
94.04520189781081
30
0
11
5444.845671067449
21
111.7228714274745
31
0
0
CIRCLE
5
F8E0
330
F5D6
100
AcDbEntity
100
AcDbCircle
8
KABLO_TAVALARI
10
5444.845671067449
20
111.7228714274745
30
0
40
8
0
LINE
5
F8E1
330
F5D6
100
AcDbEntity
100
AcDbLine
8
KABLO_TAVALARI
10
5444.845671067449
20
111.7228714274745
30
0
11
5404.845671067449
21
51.7228714274745
31
0
0
LINE
5
F8E2
330
F5D6
100
AcDbEntity
100
AcDbLine
8
KABLO_TAVALARI
10
5404.845671067449
20
51.7228714274745
30
0
11
5111.091270347399
21
141.0660171779821
31
0
0
LINE
5
F8E3
330
F5D6
100
AcDbEntity
100
AcDbLine
8
KABLO_TAVALARI
10
5402.419264196256
20
33.94112549695427
30
0
11
5384.741594666592
21
51.61879502661796
31
0
0
CIRCLE
5
F8E4
330
F5D6
100
AcDbEntity
100
AcDbCircle
8
KABLO_TAVALARI
10
5384.741594666592
20
51.61879502661796
30
0
40
8
0
LINE
5
F8E5
330
F5D6
100
AcDbEntity
100
AcDbLine
8
KABLO_TAVALARI
10
5384.741594666592
20
51.61879502661796
30
0
11
5344.741594666592
21
-8.38120497338204
31
0
0
LINE
5
F8E6
330
F5D6
100
AcDbEntity
100
AcDbLine
8
KABLO_TAVALARI
10
5344.741594666592
20
-8.38120497338204
30
0
11
5111.091270347399
21
176.0660171779821
31
0
0
LINE
5
F8E7
330
F5D6
100
AcDbEntity
100
AcDbLine
8
KABLO_TAVALARI
10
5342.3151877954
20
-26.16295090390227
30
0
11
5324.637518265736
21
-8.485281374238582
31
0
0
CIRCLE
5
F8E8
330
F5D6
100
AcDbEntity
100
AcDbCircle
8
KABLO_TAVALARI
10
5324.637518265736
20
-8.485281374238582
30
0
40
8
0
LINE
5
F8E9
330
F5D6
100
AcDbEntity
100
AcDbLine
8
KABLO_TAVALARI
10
5324.637518265736
20
-8.485281374238582
30
0
11
5284.637518265736
21
-68.48528137423858
31
0
0
LINE
5
F8EA
330
F5D6
100
AcDbEntity
100
AcDbLine
8
KABLO_TAVALARI
10
5284.637518265736
20
-68.48528137423858
30
0
11
5111.091270347399
21
211.0660171779821
31
0
0
TEXT
5
F8EB
330
F5D6
100
AcDbEntity
100
AcDbText
8
KABLO_TAVALARI
10
5256.048160490642
20
-10.606601717798227
30
0
40
30
1
4x 4.3-10 RF PORT (R1, Y1, Y2, P1)
50
0
7
STANDARD
72
2
11
5256.048160490642
21
-10.606601717798227
31
0
100
AcDbText
73
2
0
LINE
5
F60A
330
F5D6
100
AcDbEntity
100
AcDbLine
8
OLCULER
10
-18350
20
16570
30
0
11
-18350
21
16410
31
0
0
LINE
5
F60B
330
F5D6
100
AcDbEntity
100
AcDbLine
8
OLCULER
10
-17650
20
16570
30
0
11
-17650
21
16410
31
0
0
LINE
5
F60C
330
F5D6
100
AcDbEntity
100
AcDbLine
8
OLCULER
10
-18350
20
16450
30
0
11
-17650
21
16450
31
0
0
LINE
5
F60D
330
F5D6
100
AcDbEntity
100
AcDbLine
8
OLCULER
10
-18378
20
16422
30
0
11
-18322
21
16478
31
0
0
LINE
5
F60E
330
F5D6
100
AcDbEntity
100
AcDbLine
8
OLCULER
10
-17678
20
16422
30
0
11
-17622
21
16478
31
0
0
TEXT
5
F60F
330
F5D6
100
AcDbEntity
100
AcDbText
8
OLCULER
10
-18000
20
16366
30
0
40
60
1
700 mm (GENISLIK)
50
0
7
STANDARD
72
1
11
-18000
21
16366
31
0
100
AcDbText
73
2
0
LINE
5
F610
330
F5D6
100
AcDbEntity
100
AcDbLine
8
OLCULER
10
-17590
20
16650
30
0
11
-17430
21
16650
31
0
0
LINE
5
F611
330
F5D6
100
AcDbEntity
100
AcDbLine
8
OLCULER
10
-17590
20
17350
30
0
11
-17430
21
17350
31
0
0
LINE
5
F612
330
F5D6
100
AcDbEntity
100
AcDbLine
8
OLCULER
10
-17470
20
16650
30
0
11
-17470
21
17350
31
0
0
LINE
5
F613
330
F5D6
100
AcDbEntity
100
AcDbLine
8
OLCULER
10
-17498
20
16622
30
0
11
-17442
21
16678
31
0
0
LINE
5
F614
330
F5D6
100
AcDbEntity
100
AcDbLine
8
OLCULER
10
-17498
20
17322
30
0
11
-17442
21
17378
31
0
0
TEXT
5
F615
330
F5D6
100
AcDbEntity
100
AcDbText
8
OLCULER
10
-17428
20
17000
30
0
40
60
1
700 mm (YUKSEKLIK)
50
90
7
STANDARD
72
1
11
-17428
21
17000
31
0
100
AcDbText
73
2
0
LINE
5
F650
330
F5D6
100
AcDbEntity
100
AcDbLine
8
OLCULER
10
-12000
20
17000
30
0
11
-11150
21
17000
31
0
0
LINE
5
F651
330
F5D6
100
AcDbEntity
100
AcDbLine
8
OLCULER
10
-12000
20
17000
30
0
11
-11398.959235991435
21
16398.959235991435
31
0
0
LINE
5
F652
330
F5D6
100
AcDbEntity
100
AcDbLine
8
OLCULER
10
-11398.959235991435
20
16398.959235991435
30
0
11
-11448.959235991435
21
16413.959235991435
31
0
0
LINE
5
F653
330
F5D6
100
AcDbEntity
100
AcDbLine
8
OLCULER
10
-11398.959235991435
20
16398.959235991435
30
0
11
-11413.959235991435
21
16448.959235991435
31
0
0
TEXT
5
F654
330
F5D6
100
AcDbEntity
100
AcDbText
8
OLCULER
10
-11580
20
16850
30
0
40
40
1
45° DOWNTILT (YERE VE SAHAYA EGIM)
50
0
7
STANDARD
72
0
11
-11580
21
16850
31
0
100
AcDbText
73
2
0
LINE
5
F655
330
F5D6
100
AcDbEntity
100
AcDbLine
8
OLCULER
10
-12316.076731190387
20
16812.616702985568
30
0
11
-12471.640223051429
21
16968.18019484661
31
0
0
LINE
5
F656
330
F5D6
100
AcDbEntity
100
AcDbLine
8
OLCULER
10
-11812.616702985564
20
17316.076731190387
30
0
11
-11968.180194846605
21
17471.64022305143
31
0
0
LINE
5
F657
330
F5D6
100
AcDbEntity
100
AcDbLine
8
OLCULER
10
-12471.640223051429
20
16968.18019484661
30
0
11
-11968.180194846605
21
17471.64022305143
31
0
0
TEXT
5
F658
330
F5D6
100
AcDbEntity
100
AcDbText
8
OLCULER
10
-12254.910208949017
20
17254.91020894902
30
0
40
40
1
700 mm (BOY)
50
45
7
STANDARD
72
1
11
-12254.910208949017
21
17254.91020894902
31
0
100
AcDbText
73
2
0
LINE
5
F659
330
F5D6
100
AcDbEntity
100
AcDbLine
8
OLCULER
10
-11827.465945390482
20
17292.742207411233
30
0
11
-11728.470996024365
21
17391.737156777348
31
0
0
LINE
5
F65A
330
F5D6
100
AcDbEntity
100
AcDbLine
8
OLCULER
10
-11703.01515190165
20
17176.776695296638
30
0
11
-11604.020202535534
21
17275.771644662753
31
0
0
LINE
5
F65B
330
F5D6
100
AcDbEntity
100
AcDbLine
8
OLCULER
10
-11728.470996024365
20
17391.737156777348
30
0
11
-11604.020202535534
21
17275.771644662753
31
0
0
TEXT
5
F65C
330
F5D6
100
AcDbEntity
100
AcDbText
8
OLCULER
10
-11666.24559927995
20
17363.754400720052
30
0
40
36
1
170 mm (GOVDE)
50
-45
7
STANDARD
72
1
11
-11666.24559927995
21
17363.754400720052
31
0
100
AcDbText
73
2
0
TEXT
5
F65D
330
F5D6
100
AcDbEntity
100
AcDbText
8
OLCULER
10
-12300.449671326163
20
17180.449671326165
30
0
40
36
1
463 mm (TOPLAM MONTAJ DERINLIGI)
50
0
7
STANDARD
72
1
11
-12300.449671326163
21
17180.449671326165
31
0
100
AcDbText
73
2
0
LINE
5
F673
330
F5D6
100
AcDbEntity
100
AcDbLine
8
OLCULER
10
-6000
20
17085
30
0
11
-6000
21
18035
31
0
0
LINE
5
F674
330
F5D6
100
AcDbEntity
100
AcDbLine
8
OLCULER
10
-6000
20
17085
30
0
11
-6245.878092847394
21
18002.629534974614
31
0
0
LINE
5
F675
330
F5D6
100
AcDbEntity
100
AcDbLine
8
OLCULER
10
-6000
20
17085
30
0
11
-5754.121907152606
21
18002.629534974614
31
0
0
LINE
5
F676
330
F5D6
100
AcDbEntity
100
AcDbLine
8
OLCULER
10
-6245.878092847394
20
18002.629534974614
30
0
11
-6000
21
18035
31
0
0
LINE
5
F677
330
F5D6
100
AcDbEntity
100
AcDbLine
8
OLCULER
10
-6000
20
18035
30
0
11
-5754.121907152606
21
18002.629534974614
31
0
0
TEXT
5
F678
330
F5D6
100
AcDbEntity
100
AcDbText
8
OLCULER
10
-6000
20
18060
30
0
40
32
1
30° SPOT BEAM (HPBW)
50
0
7
STANDARD
72
1
11
-6000
21
18060
31
0
100
AcDbText
73
2
0
LINE
5
F679
330
F5D6
100
AcDbEntity
100
AcDbLine
8
OLCULER
10
-6350
20
17145
30
0
11
-6350
21
17285
31
0
0
LINE
5
F67A
330
F5D6
100
AcDbEntity
100
AcDbLine
8
OLCULER
10
-5650
20
17145
30
0
11
-5650
21
17285
31
0
0
LINE
5
F67B
330
F5D6
100
AcDbEntity
100
AcDbLine
8
OLCULER
10
-6350
20
17245
30
0
11
-5650
21
17245
31
0
0
LINE
5
F67C
330
F5D6
100
AcDbEntity
100
AcDbLine
8
OLCULER
10
-6378
20
17217
30
0
11
-6322
21
17273
31
0
0
LINE
5
F67D
330
F5D6
100
AcDbEntity
100
AcDbLine
8
OLCULER
10
-5678
20
17217
30
0
11
-5622
21
17273
31
0
0
TEXT
5
F67E
330
F5D6
100
AcDbEntity
100
AcDbText
8
OLCULER
10
-6000
20
17269
30
0
40
60
1
700 mm (GENISLIK)
50
0
7
STANDARD
72
1
11
-6000
21
17269
31
0
100
AcDbText
73
2
0
LINE
5
F67F
330
F5D6
100
AcDbEntity
100
AcDbLine
8
OLCULER
10
-6410
20
16915
30
0
11
-6410
21
16755
31
0
0
LINE
5
F680
330
F5D6
100
AcDbEntity
100
AcDbLine
8
OLCULER
10
-6060
20
17103
30
0
11
-6060
21
16755
31
0
0
LINE
5
F681
330
F5D6
100
AcDbEntity
100
AcDbLine
8
OLCULER
10
-6410
20
16795
30
0
11
-6060
21
16795
31
0
0
LINE
5
F682
330
F5D6
100
AcDbEntity
100
AcDbLine
8
OLCULER
10
-6438
20
16767
30
0
11
-6382
21
16823
31
0
0
LINE
5
F683
330
F5D6
100
AcDbEntity
100
AcDbLine
8
OLCULER
10
-6088
20
16767
30
0
11
-6032
21
16823
31
0
0
TEXT
5
F684
330
F5D6
100
AcDbEntity
100
AcDbText
8
OLCULER
10
-6235
20
16711
30
0
40
60
1
463 mm (TOPLAM DERINLIK)
50
0
7
STANDARD
72
1
11
-6235
21
16711
31
0
100
AcDbText
73
2
0
LINE
5
F6A3
330
F5D6
100
AcDbEntity
100
AcDbLine
8
OLCULER
10
7650
20
16570
30
0
11
7650
21
16410
31
0
0
LINE
5
F6A4
330
F5D6
100
AcDbEntity
100
AcDbLine
8
OLCULER
10
8350
20
16570
30
0
11
8350
21
16410
31
0
0
LINE
5
F6A5
330
F5D6
100
AcDbEntity
100
AcDbLine
8
OLCULER
10
7650
20
16450
30
0
11
8350
21
16450
31
0
0
LINE
5
F6A6
330
F5D6
100
AcDbEntity
100
AcDbLine
8
OLCULER
10
7622
20
16422
30
0
11
7678
21
16478
31
0
0
LINE
5
F6A7
330
F5D6
100
AcDbEntity
100
AcDbLine
8
OLCULER
10
8322
20
16422
30
0
11
8378
21
16478
31
0
0
TEXT
5
F6A8
330
F5D6
100
AcDbEntity
100
AcDbText
8
OLCULER
10
8000
20
16366
30
0
40
60
1
700 mm (GENISLIK)
50
0
7
STANDARD
72
1
11
8000
21
16366
31
0
100
AcDbText
73
2
0
LINE
5
F6A9
330
F5D6
100
AcDbEntity
100
AcDbLine
8
OLCULER
10
8410
20
16650
30
0
11
8570
21
16650
31
0
0
LINE
5
F6AA
330
F5D6
100
AcDbEntity
100
AcDbLine
8
OLCULER
10
8410
20
17350
30
0
11
8570
21
17350
31
0
0
LINE
5
F6AB
330
F5D6
100
AcDbEntity
100
AcDbLine
8
OLCULER
10
8530
20
16650
30
0
11
8530
21
17350
31
0
0
LINE
5
F6AC
330
F5D6
100
AcDbEntity
100
AcDbLine
8
OLCULER
10
8502
20
16622
30
0
11
8558
21
16678
31
0
0
LINE
5
F6AD
330
F5D6
100
AcDbEntity
100
AcDbLine
8
OLCULER
10
8502
20
17322
30
0
11
8558
21
17378
31
0
0
TEXT
5
F6AE
330
F5D6
100
AcDbEntity
100
AcDbText
8
OLCULER
10
8572
20
17000
30
0
40
60
1
700 mm (YUKSEKLIK)
50
90
7
STANDARD
72
1
11
8572
21
17000
31
0
100
AcDbText
73
2
0
LINE
5
F6CC
330
F5D6
100
AcDbEntity
100
AcDbLine
8
OLCULER
10
8650
20
16570
30
0
11
8650
21
16410
31
0
0
LINE
5
F6CD
330
F5D6
100
AcDbEntity
100
AcDbLine
8
OLCULER
10
9350
20
16570
30
0
11
9350
21
16410
31
0
0
LINE
5
F6CE
330
F5D6
100
AcDbEntity
100
AcDbLine
8
OLCULER
10
8650
20
16450
30
0
11
9350
21
16450
31
0
0
LINE
5
F6CF
330
F5D6
100
AcDbEntity
100
AcDbLine
8
OLCULER
10
8622
20
16422
30
0
11
8678
21
16478
31
0
0
LINE
5
F6D0
330
F5D6
100
AcDbEntity
100
AcDbLine
8
OLCULER
10
9322
20
16422
30
0
11
9378
21
16478
31
0
0
TEXT
5
F6D1
330
F5D6
100
AcDbEntity
100
AcDbText
8
OLCULER
10
9000
20
16366
30
0
40
60
1
700 mm (GENISLIK)
50
0
7
STANDARD
72
1
11
9000
21
16366
31
0
100
AcDbText
73
2
0
LINE
5
F6D2
330
F5D6
100
AcDbEntity
100
AcDbLine
8
OLCULER
10
9410
20
16650
30
0
11
9570
21
16650
31
0
0
LINE
5
F6D3
330
F5D6
100
AcDbEntity
100
AcDbLine
8
OLCULER
10
9410
20
17350
30
0
11
9570
21
17350
31
0
0
LINE
5
F6D4
330
F5D6
100
AcDbEntity
100
AcDbLine
8
OLCULER
10
9530
20
16650
30
0
11
9530
21
17350
31
0
0
LINE
5
F6D5
330
F5D6
100
AcDbEntity
100
AcDbLine
8
OLCULER
10
9502
20
16622
30
0
11
9558
21
16678
31
0
0
LINE
5
F6D6
330
F5D6
100
AcDbEntity
100
AcDbLine
8
OLCULER
10
9502
20
17322
30
0
11
9558
21
17378
31
0
0
TEXT
5
F6D7
330
F5D6
100
AcDbEntity
100
AcDbText
8
OLCULER
10
9572
20
17000
30
0
40
60
1
700 mm (YUKSEKLIK)
50
90
7
STANDARD
72
1
11
9572
21
17000
31
0
100
AcDbText
73
2
0
LINE
5
F6DE
330
F5D6
100
AcDbEntity
100
AcDbLine
8
OLCULER
10
8000
20
16400
30
0
11
8000
21
16160
31
0
0
LINE
5
F6DF
330
F5D6
100
AcDbEntity
100
AcDbLine
8
OLCULER
10
9000
20
16400
30
0
11
9000
21
16160
31
0
0
LINE
5
F6E0
330
F5D6
100
AcDbEntity
100
AcDbLine
8
OLCULER
10
8000
20
16200
30
0
11
9000
21
16200
31
0
0
LINE
5
F6E1
330
F5D6
100
AcDbEntity
100
AcDbLine
8
OLCULER
10
7972
20
16172
30
0
11
8028
21
16228
31
0
0
LINE
5
F6E2
330
F5D6
100
AcDbEntity
100
AcDbLine
8
OLCULER
10
8972
20
16172
30
0
11
9028
21
16228
31
0
0
TEXT
5
F6E3
330
F5D6
100
AcDbEntity
100
AcDbText
8
OLCULER
10
8500
20
16116
30
0
40
60
1
1000 mm (ANTEN AKS ARALIGI)
50
0
7
STANDARD
72
1
11
8500
21
16116
31
0
100
AcDbText
73
2
0
LINE
5
F6E4
330
F5D6
100
AcDbEntity
100
AcDbLine
8
OLCULER
10
8350
20
17700
30
0
11
8350
21
17920
31
0
0
LINE
5
F6E5
330
F5D6
100
AcDbEntity
100
AcDbLine
8
OLCULER
10
8650
20
17700
30
0
11
8650
21
17920
31
0
0
LINE
5
F6E6
330
F5D6
100
AcDbEntity
100
AcDbLine
8
OLCULER
10
8350
20
17880
30
0
11
8650
21
17880
31
0
0
LINE
5
F6E7
330
F5D6
100
AcDbEntity
100
AcDbLine
8
OLCULER
10
8322
20
17852
30
0
11
8378
21
17908
31
0
0
LINE
5
F6E8
330
F5D6
100
AcDbEntity
100
AcDbLine
8
OLCULER
10
8622
20
17852
30
0
11
8678
21
17908
31
0
0
TEXT
5
F6E9
330
F5D6
100
AcDbEntity
100
AcDbText
8
OLCULER
10
8500
20
17904
30
0
40
60
1
300 mm (NET RF ACIKLIGI)
50
0
7
STANDARD
72
1
11
8500
21
17904
31
0
100
AcDbText
73
2
0
LINE
5
F6EA
330
F5D6
100
AcDbEntity
100
AcDbLine
8
OLCULER
10
7500
20
17700
30
0
11
7500
21
17940
31
0
0
LINE
5
F6EB
330
F5D6
100
AcDbEntity
100
AcDbLine
8
OLCULER
10
9500
20
17700
30
0
11
9500
21
17940
31
0
0
LINE
5
F6EC
330
F5D6
100
AcDbEntity
100
AcDbLine
8
OLCULER
10
7500
20
17900
30
0
11
9500
21
17900
31
0
0
LINE
5
F6ED
330
F5D6
100
AcDbEntity
100
AcDbLine
8
OLCULER
10
7472
20
17872
30
0
11
7528
21
17928
31
0
0
LINE
5
F6EE
330
F5D6
100
AcDbEntity
100
AcDbLine
8
OLCULER
10
9472
20
17872
30
0
11
9528
21
17928
31
0
0
TEXT
5
F6EF
330
F5D6
100
AcDbEntity
100
AcDbText
8
OLCULER
10
8500
20
17924
30
0
40
60
1
2000 mm (TRAVERS TOPLAM BOYU)
50
0
7
STANDARD
72
1
11
8500
21
17924
31
0
100
AcDbText
73
2
0
LINE
5
F728
330
F5D6
100
AcDbEntity
100
AcDbLine
8
OLCULER
10
16000
20
17000
30
0
11
16850
21
17000
31
0
0
LINE
5
F729
330
F5D6
100
AcDbEntity
100
AcDbLine
8
OLCULER
10
16000
20
17000
30
0
11
16601.040764008565
21
16398.959235991435
31
0
0
LINE
5
F72A
330
F5D6
100
AcDbEntity
100
AcDbLine
8
OLCULER
10
16601.040764008565
20
16398.959235991435
30
0
11
16551.040764008565
21
16413.959235991435
31
0
0
LINE
5
F72B
330
F5D6
100
AcDbEntity
100
AcDbLine
8
OLCULER
10
16601.040764008565
20
16398.959235991435
30
0
11
16586.040764008565
21
16448.959235991435
31
0
0
TEXT
5
F72C
330
F5D6
100
AcDbEntity
100
AcDbText
8
OLCULER
10
16420
20
16850
30
0
40
40
1
45° DOWNTILT (YERE VE SAHAYA EGIM)
50
0
7
STANDARD
72
0
11
16420
21
16850
31
0
100
AcDbText
73
2
0
LINE
5
F72D
330
F5D6
100
AcDbEntity
100
AcDbLine
8
OLCULER
10
15683.923268809613
20
16812.616702985568
30
0
11
15528.359776948571
21
16968.18019484661
31
0
0
LINE
5
F72E
330
F5D6
100
AcDbEntity
100
AcDbLine
8
OLCULER
10
16187.383297014436
20
17316.076731190387
30
0
11
16031.819805153395
21
17471.64022305143
31
0
0
LINE
5
F72F
330
F5D6
100
AcDbEntity
100
AcDbLine
8
OLCULER
10
15528.359776948571
20
16968.18019484661
30
0
11
16031.819805153395
21
17471.64022305143
31
0
0
TEXT
5
F730
330
F5D6
100
AcDbEntity
100
AcDbText
8
OLCULER
10
15745.089791050983
20
17254.91020894902
30
0
40
40
1
700 mm (BOY)
50
45
7
STANDARD
72
1
11
15745.089791050983
21
17254.91020894902
31
0
100
AcDbText
73
2
0
LINE
5
F731
330
F5D6
100
AcDbEntity
100
AcDbLine
8
OLCULER
10
16172.534054609518
20
17292.742207411233
30
0
11
16271.529003975635
21
17391.737156777348
31
0
0
LINE
5
F732
330
F5D6
100
AcDbEntity
100
AcDbLine
8
OLCULER
10
16296.98484809835
20
17176.776695296638
30
0
11
16395.979797464464
21
17275.771644662753
31
0
0
LINE
5
F733
330
F5D6
100
AcDbEntity
100
AcDbLine
8
OLCULER
10
16271.529003975635
20
17391.737156777348
30
0
11
16395.979797464464
21
17275.771644662753
31
0
0
TEXT
5
F734
330
F5D6
100
AcDbEntity
100
AcDbText
8
OLCULER
10
16333.75440072005
20
17363.754400720052
30
0
40
36
1
170 mm (GOVDE)
50
-45
7
STANDARD
72
1
11
16333.75440072005
21
17363.754400720052
31
0
100
AcDbText
73
2
0
TEXT
5
F735
330
F5D6
100
AcDbEntity
100
AcDbText
8
OLCULER
10
15699.550328673837
20
17180.449671326165
30
0
40
36
1
463 mm (TOPLAM MONTAJ DERINLIGI)
50
0
7
STANDARD
72
1
11
15699.550328673837
21
17180.449671326165
31
0
100
AcDbText
73
2
0
LINE
5
F755
330
F5D6
100
AcDbEntity
100
AcDbLine
8
OLCULER
10
-8250
20
8070
30
0
11
-8250
21
7910
31
0
0
LINE
5
F756
330
F5D6
100
AcDbEntity
100
AcDbLine
8
OLCULER
10
-7550
20
8070
30
0
11
-7550
21
7910
31
0
0
LINE
5
F757
330
F5D6
100
AcDbEntity
100
AcDbLine
8
OLCULER
10
-8250
20
7950
30
0
11
-7550
21
7950
31
0
0
LINE
5
F758
330
F5D6
100
AcDbEntity
100
AcDbLine
8
OLCULER
10
-8278
20
7922
30
0
11
-8222
21
7978
31
0
0
LINE
5
F759
330
F5D6
100
AcDbEntity
100
AcDbLine
8
OLCULER
10
-7578
20
7922
30
0
11
-7522
21
7978
31
0
0
TEXT
5
F75A
330
F5D6
100
AcDbEntity
100
AcDbText
8
OLCULER
10
-7900
20
7866
30
0
40
60
1
700 mm (GENISLIK)
50
0
7
STANDARD
72
1
11
-7900
21
7866
31
0
100
AcDbText
73
2
0
LINE
5
F75B
330
F5D6
100
AcDbEntity
100
AcDbLine
8
OLCULER
10
-7490
20
8150
30
0
11
-7330
21
8150
31
0
0
LINE
5
F75C
330
F5D6
100
AcDbEntity
100
AcDbLine
8
OLCULER
10
-7490
20
8850
30
0
11
-7330
21
8850
31
0
0
LINE
5
F75D
330
F5D6
100
AcDbEntity
100
AcDbLine
8
OLCULER
10
-7370
20
8150
30
0
11
-7370
21
8850
31
0
0
LINE
5
F75E
330
F5D6
100
AcDbEntity
100
AcDbLine
8
OLCULER
10
-7398
20
8122
30
0
11
-7342
21
8178
31
0
0
LINE
5
F75F
330
F5D6
100
AcDbEntity
100
AcDbLine
8
OLCULER
10
-7398
20
8822
30
0
11
-7342
21
8878
31
0
0
TEXT
5
F760
330
F5D6
100
AcDbEntity
100
AcDbText
8
OLCULER
10
-7328
20
8500
30
0
40
60
1
700 mm (YUKSEKLIK)
50
90
7
STANDARD
72
1
11
-7328
21
8500
31
0
100
AcDbText
73
2
0
LINE
5
F77E
330
F5D6
100
AcDbEntity
100
AcDbLine
8
OLCULER
10
-7350
20
8070
30
0
11
-7350
21
7910
31
0
0
LINE
5
F77F
330
F5D6
100
AcDbEntity
100
AcDbLine
8
OLCULER
10
-6650
20
8070
30
0
11
-6650
21
7910
31
0
0
LINE
5
F780
330
F5D6
100
AcDbEntity
100
AcDbLine
8
OLCULER
10
-7350
20
7950
30
0
11
-6650
21
7950
31
0
0
LINE
5
F781
330
F5D6
100
AcDbEntity
100
AcDbLine
8
OLCULER
10
-7378
20
7922
30
0
11
-7322
21
7978
31
0
0
LINE
5
F782
330
F5D6
100
AcDbEntity
100
AcDbLine
8
OLCULER
10
-6678
20
7922
30
0
11
-6622
21
7978
31
0
0
TEXT
5
F783
330
F5D6
100
AcDbEntity
100
AcDbText
8
OLCULER
10
-7000
20
7866
30
0
40
60
1
700 mm (GENISLIK)
50
0
7
STANDARD
72
1
11
-7000
21
7866
31
0
100
AcDbText
73
2
0
LINE
5
F784
330
F5D6
100
AcDbEntity
100
AcDbLine
8
OLCULER
10
-6590
20
8150
30
0
11
-6430
21
8150
31
0
0
LINE
5
F785
330
F5D6
100
AcDbEntity
100
AcDbLine
8
OLCULER
10
-6590
20
8850
30
0
11
-6430
21
8850
31
0
0
LINE
5
F786
330
F5D6
100
AcDbEntity
100
AcDbLine
8
OLCULER
10
-6470
20
8150
30
0
11
-6470
21
8850
31
0
0
LINE
5
F787
330
F5D6
100
AcDbEntity
100
AcDbLine
8
OLCULER
10
-6498
20
8122
30
0
11
-6442
21
8178
31
0
0
LINE
5
F788
330
F5D6
100
AcDbEntity
100
AcDbLine
8
OLCULER
10
-6498
20
8822
30
0
11
-6442
21
8878
31
0
0
TEXT
5
F789
330
F5D6
100
AcDbEntity
100
AcDbText
8
OLCULER
10
-6428
20
8500
30
0
40
60
1
700 mm (YUKSEKLIK)
50
90
7
STANDARD
72
1
11
-6428
21
8500
31
0
100
AcDbText
73
2
0
LINE
5
F7A7
330
F5D6
100
AcDbEntity
100
AcDbLine
8
OLCULER
10
-6450
20
8070
30
0
11
-6450
21
7910
31
0
0
LINE
5
F7A8
330
F5D6
100
AcDbEntity
100
AcDbLine
8
OLCULER
10
-5750
20
8070
30
0
11
-5750
21
7910
31
0
0
LINE
5
F7A9
330
F5D6
100
AcDbEntity
100
AcDbLine
8
OLCULER
10
-6450
20
7950
30
0
11
-5750
21
7950
31
0
0
LINE
5
F7AA
330
F5D6
100
AcDbEntity
100
AcDbLine
8
OLCULER
10
-6478
20
7922
30
0
11
-6422
21
7978
31
0
0
LINE
5
F7AB
330
F5D6
100
AcDbEntity
100
AcDbLine
8
OLCULER
10
-5778
20
7922
30
0
11
-5722
21
7978
31
0
0
TEXT
5
F7AC
330
F5D6
100
AcDbEntity
100
AcDbText
8
OLCULER
10
-6100
20
7866
30
0
40
60
1
700 mm (GENISLIK)
50
0
7
STANDARD
72
1
11
-6100
21
7866
31
0
100
AcDbText
73
2
0
LINE
5
F7AD
330
F5D6
100
AcDbEntity
100
AcDbLine
8
OLCULER
10
-5690
20
8150
30
0
11
-5530
21
8150
31
0
0
LINE
5
F7AE
330
F5D6
100
AcDbEntity
100
AcDbLine
8
OLCULER
10
-5690
20
8850
30
0
11
-5530
21
8850
31
0
0
LINE
5
F7AF
330
F5D6
100
AcDbEntity
100
AcDbLine
8
OLCULER
10
-5570
20
8150
30
0
11
-5570
21
8850
31
0
0
LINE
5
F7B0
330
F5D6
100
AcDbEntity
100
AcDbLine
8
OLCULER
10
-5598
20
8122
30
0
11
-5542
21
8178
31
0
0
LINE
5
F7B1
330
F5D6
100
AcDbEntity
100
AcDbLine
8
OLCULER
10
-5598
20
8822
30
0
11
-5542
21
8878
31
0
0
TEXT
5
F7B2
330
F5D6
100
AcDbEntity
100
AcDbText
8
OLCULER
10
-5528
20
8500
30
0
40
60
1
700 mm (YUKSEKLIK)
50
90
7
STANDARD
72
1
11
-5528
21
8500
31
0
100
AcDbText
73
2
0
LINE
5
F7B9
330
F5D6
100
AcDbEntity
100
AcDbLine
8
OLCULER
10
-7900
20
7900
30
0
11
-7900
21
7660
31
0
0
LINE
5
F7BA
330
F5D6
100
AcDbEntity
100
AcDbLine
8
OLCULER
10
-7000
20
7900
30
0
11
-7000
21
7660
31
0
0
LINE
5
F7BB
330
F5D6
100
AcDbEntity
100
AcDbLine
8
OLCULER
10
-7900
20
7700
30
0
11
-7000
21
7700
31
0
0
LINE
5
F7BC
330
F5D6
100
AcDbEntity
100
AcDbLine
8
OLCULER
10
-7928
20
7672
30
0
11
-7872
21
7728
31
0
0
LINE
5
F7BD
330
F5D6
100
AcDbEntity
100
AcDbLine
8
OLCULER
10
-7028
20
7672
30
0
11
-6972
21
7728
31
0
0
TEXT
5
F7BE
330
F5D6
100
AcDbEntity
100
AcDbText
8
OLCULER
10
-7450
20
7616
30
0
40
60
1
900 mm
50
0
7
STANDARD
72
1
11
-7450
21
7616
31
0
100
AcDbText
73
2
0
LINE
5
F7BF
330
F5D6
100
AcDbEntity
100
AcDbLine
8
OLCULER
10
-7000
20
7900
30
0
11
-7000
21
7660
31
0
0
LINE
5
F7C0
330
F5D6
100
AcDbEntity
100
AcDbLine
8
OLCULER
10
-6100
20
7900
30
0
11
-6100
21
7660
31
0
0
LINE
5
F7C1
330
F5D6
100
AcDbEntity
100
AcDbLine
8
OLCULER
10
-7000
20
7700
30
0
11
-6100
21
7700
31
0
0
LINE
5
F7C2
330
F5D6
100
AcDbEntity
100
AcDbLine
8
OLCULER
10
-7028
20
7672
30
0
11
-6972
21
7728
31
0
0
LINE
5
F7C3
330
F5D6
100
AcDbEntity
100
AcDbLine
8
OLCULER
10
-6128
20
7672
30
0
11
-6072
21
7728
31
0
0
TEXT
5
F7C4
330
F5D6
100
AcDbEntity
100
AcDbText
8
OLCULER
10
-6550
20
7616
30
0
40
60
1
900 mm
50
0
7
STANDARD
72
1
11
-6550
21
7616
31
0
100
AcDbText
73
2
0
LINE
5
F7C5
330
F5D6
100
AcDbEntity
100
AcDbLine
8
OLCULER
10
-7900
20
7900
30
0
11
-7900
21
7410
31
0
0
LINE
5
F7C6
330
F5D6
100
AcDbEntity
100
AcDbLine
8
OLCULER
10
-6100
20
7900
30
0
11
-6100
21
7410
31
0
0
LINE
5
F7C7
330
F5D6
100
AcDbEntity
100
AcDbLine
8
OLCULER
10
-7900
20
7450
30
0
11
-6100
21
7450
31
0
0
LINE
5
F7C8
330
F5D6
100
AcDbEntity
100
AcDbLine
8
OLCULER
10
-7928
20
7422
30
0
11
-7872
21
7478
31
0
0
LINE
5
F7C9
330
F5D6
100
AcDbEntity
100
AcDbLine
8
OLCULER
10
-6128
20
7422
30
0
11
-6072
21
7478
31
0
0
TEXT
5
F7CA
330
F5D6
100
AcDbEntity
100
AcDbText
8
OLCULER
10
-7000
20
7366
30
0
40
60
1
1800 mm (TOPLAM AKS ACIKLIGI)
50
0
7
STANDARD
72
1
11
-7000
21
7366
31
0
100
AcDbText
73
2
0
LINE
5
F7DE
330
F5D6
100
AcDbEntity
100
AcDbLine
8
OLCULER
10
3179.071712182682
20
8779.873872766802
30
0
11
3503.9908483420672
21
9672.581862513416
31
0
0
LINE
5
F7DF
330
F5D6
100
AcDbEntity
100
AcDbLine
8
OLCULER
10
3179.071712182682
20
8779.873872766802
30
0
11
3261.8696677929574
21
9726.258835953962
31
0
0
LINE
5
F7E0
330
F5D6
100
AcDbEntity
100
AcDbLine
8
OLCULER
10
3179.071712182682
20
8779.873872766802
30
0
11
3723.9693267161756
21
9558.068314841345
31
0
0
LINE
5
F7E1
330
F5D6
100
AcDbEntity
100
AcDbLine
8
OLCULER
10
3261.8696677929574
20
9726.258835953962
30
0
11
3503.9908483420672
21
9672.581862513416
31
0
0
LINE
5
F7E2
330
F5D6
100
AcDbEntity
100
AcDbLine
8
OLCULER
10
3503.9908483420672
20
9672.581862513416
30
0
11
3723.9693267161756
21
9558.068314841345
31
0
0
TEXT
5
F7E3
330
F5D6
100
AcDbEntity
100
AcDbText
8
OLCULER
10
3503.9908483420672
20
9697.581862513416
30
0
40
32
1
30° SPOT BEAM (HPBW)
50
0
7
STANDARD
72
1
11
3503.9908483420672
21
9697.581862513416
31
0
100
AcDbText
73
2
0
LINE
5
F7E4
330
F5D6
100
AcDbEntity
100
AcDbLine
8
OLCULER
10
2850.179294907614
20
8959.580922930787
30
0
11
2850.179294907614
21
9099.580922930787
31
0
0
LINE
5
F7E5
330
F5D6
100
AcDbEntity
100
AcDbLine
8
OLCULER
10
3507.96412945775
20
8720.166822602818
30
0
11
3507.96412945775
21
9099.580922930787
31
0
0
LINE
5
F7E6
330
F5D6
100
AcDbEntity
100
AcDbLine
8
OLCULER
10
2850.179294907614
20
9059.580922930787
30
0
11
3507.96412945775
21
9059.580922930787
31
0
0
LINE
5
F7E7
330
F5D6
100
AcDbEntity
100
AcDbLine
8
OLCULER
10
2822.179294907614
20
9031.580922930787
30
0
11
2878.179294907614
21
9087.580922930787
31
0
0
LINE
5
F7E8
330
F5D6
100
AcDbEntity
100
AcDbLine
8
OLCULER
10
3479.96412945775
20
9031.580922930787
30
0
11
3535.96412945775
21
9087.580922930787
31
0
0
TEXT
5
F7E9
330
F5D6
100
AcDbEntity
100
AcDbText
8
OLCULER
10
3179.071712182682
20
9083.580922930787
30
0
40
60
1
700 mm (GENISLIK)
50
0
7
STANDARD
72
1
11
3179.071712182682
21
9083.580922930787
31
0
100
AcDbText
73
2
0
LINE
5
F7EA
330
F5D6
100
AcDbEntity
100
AcDbLine
8
OLCULER
10
2732.03587054225
20
8739.833177397182
30
0
11
2732.03587054225
21
8579.833177397182
31
0
0
LINE
5
F7EB
330
F5D6
100
AcDbEntity
100
AcDbLine
8
OLCULER
10
3125.2280747625437
20
8796.78833994095
30
0
11
3125.2280747625437
21
8579.833177397182
31
0
0
LINE
5
F7EC
330
F5D6
100
AcDbEntity
100
AcDbLine
8
OLCULER
10
2732.03587054225
20
8619.833177397182
30
0
11
3125.2280747625437
21
8619.833177397182
31
0
0
LINE
5
F7ED
330
F5D6
100
AcDbEntity
100
AcDbLine
8
OLCULER
10
2704.03587054225
20
8591.833177397182
30
0
11
2760.03587054225
21
8647.833177397182
31
0
0
LINE
5
F7EE
330
F5D6
100
AcDbEntity
100
AcDbLine
8
OLCULER
10
3097.2280747625437
20
8591.833177397182
30
0
11
3153.2280747625437
21
8647.833177397182
31
0
0
TEXT
5
F7EF
330
F5D6
100
AcDbEntity
100
AcDbText
8
OLCULER
10
2928.631972652397
20
8535.833177397182
30
0
40
60
1
463 mm (TOPLAM DERINLIK)
50
0
7
STANDARD
72
1
11
2928.631972652397
21
8535.833177397182
31
0
100
AcDbText
73
2
0
LINE
5
F804
330
F5D6
100
AcDbEntity
100
AcDbLine
8
OLCULER
10
4000
20
8585
30
0
11
4000
21
9535
31
0
0
LINE
5
F805
330
F5D6
100
AcDbEntity
100
AcDbLine
8
OLCULER
10
4000
20
8585
30
0
11
3754.121907152605
21
9502.629534974614
31
0
0
LINE
5
F806
330
F5D6
100
AcDbEntity
100
AcDbLine
8
OLCULER
10
4000
20
8585
30
0
11
4245.878092847394
21
9502.629534974614
31
0
0
LINE
5
F807
330
F5D6
100
AcDbEntity
100
AcDbLine
8
OLCULER
10
3754.121907152605
20
9502.629534974614
30
0
11
4000
21
9535
31
0
0
LINE
5
F808
330
F5D6
100
AcDbEntity
100
AcDbLine
8
OLCULER
10
4000
20
9535
30
0
11
4245.878092847394
21
9502.629534974614
31
0
0
TEXT
5
F809
330
F5D6
100
AcDbEntity
100
AcDbText
8
OLCULER
10
4000
20
9560
30
0
40
32
1
30° SPOT BEAM (HPBW)
50
0
7
STANDARD
72
1
11
4000
21
9560
31
0
100
AcDbText
73
2
0
LINE
5
F80A
330
F5D6
100
AcDbEntity
100
AcDbLine
8
OLCULER
10
3650
20
8645
30
0
11
3650
21
8785
31
0
0
LINE
5
F80B
330
F5D6
100
AcDbEntity
100
AcDbLine
8
OLCULER
10
4350
20
8645
30
0
11
4350
21
8785
31
0
0
LINE
5
F80C
330
F5D6
100
AcDbEntity
100
AcDbLine
8
OLCULER
10
3650
20
8745
30
0
11
4350
21
8745
31
0
0
LINE
5
F80D
330
F5D6
100
AcDbEntity
100
AcDbLine
8
OLCULER
10
3622
20
8717
30
0
11
3678
21
8773
31
0
0
LINE
5
F80E
330
F5D6
100
AcDbEntity
100
AcDbLine
8
OLCULER
10
4322
20
8717
30
0
11
4378
21
8773
31
0
0
TEXT
5
F80F
330
F5D6
100
AcDbEntity
100
AcDbText
8
OLCULER
10
4000
20
8769
30
0
40
60
1
700 mm (GENISLIK)
50
0
7
STANDARD
72
1
11
4000
21
8769
31
0
100
AcDbText
73
2
0
LINE
5
F810
330
F5D6
100
AcDbEntity
100
AcDbLine
8
OLCULER
10
3590
20
8415
30
0
11
3590
21
8255
31
0
0
LINE
5
F811
330
F5D6
100
AcDbEntity
100
AcDbLine
8
OLCULER
10
3940
20
8603
30
0
11
3940
21
8255
31
0
0
LINE
5
F812
330
F5D6
100
AcDbEntity
100
AcDbLine
8
OLCULER
10
3590
20
8295
30
0
11
3940
21
8295
31
0
0
LINE
5
F813
330
F5D6
100
AcDbEntity
100
AcDbLine
8
OLCULER
10
3562
20
8267
30
0
11
3618
21
8323
31
0
0
LINE
5
F814
330
F5D6
100
AcDbEntity
100
AcDbLine
8
OLCULER
10
3912
20
8267
30
0
11
3968
21
8323
31
0
0
TEXT
5
F815
330
F5D6
100
AcDbEntity
100
AcDbText
8
OLCULER
10
3765
20
8211
30
0
40
60
1
463 mm (TOPLAM DERINLIK)
50
0
7
STANDARD
72
1
11
3765
21
8211
31
0
100
AcDbText
73
2
0
LINE
5
F82A
330
F5D6
100
AcDbEntity
100
AcDbLine
8
OLCULER
10
4820.928287817318
20
8779.873872766802
30
0
11
4496.009151657933
21
9672.581862513416
31
0
0
LINE
5
F82B
330
F5D6
100
AcDbEntity
100
AcDbLine
8
OLCULER
10
4820.928287817318
20
8779.873872766802
30
0
11
4276.030673283824
21
9558.068314841345
31
0
0
LINE
5
F82C
330
F5D6
100
AcDbEntity
100
AcDbLine
8
OLCULER
10
4820.928287817318
20
8779.873872766802
30
0
11
4738.130332207043
21
9726.258835953962
31
0
0
LINE
5
F82D
330
F5D6
100
AcDbEntity
100
AcDbLine
8
OLCULER
10
4276.030673283824
20
9558.068314841345
30
0
11
4496.009151657933
21
9672.581862513416
31
0
0
LINE
5
F82E
330
F5D6
100
AcDbEntity
100
AcDbLine
8
OLCULER
10
4496.009151657933
20
9672.581862513416
30
0
11
4738.130332207043
21
9726.258835953962
31
0
0
TEXT
5
F82F
330
F5D6
100
AcDbEntity
100
AcDbText
8
OLCULER
10
4496.009151657933
20
9697.581862513416
30
0
40
32
1
30° SPOT BEAM (HPBW)
50
0
7
STANDARD
72
1
11
4496.009151657933
21
9697.581862513416
31
0
100
AcDbText
73
2
0
LINE
5
F830
330
F5D6
100
AcDbEntity
100
AcDbLine
8
OLCULER
10
4492.03587054225
20
8720.166822602818
30
0
11
4492.03587054225
21
8860.166822602818
31
0
0
LINE
5
F831
330
F5D6
100
AcDbEntity
100
AcDbLine
8
OLCULER
10
5149.820705092386
20
8959.580922930787
30
0
11
5149.820705092386
21
8860.166822602818
31
0
0
LINE
5
F832
330
F5D6
100
AcDbEntity
100
AcDbLine
8
OLCULER
10
4492.03587054225
20
8820.166822602818
30
0
11
5149.820705092386
21
8820.166822602818
31
0
0
LINE
5
F833
330
F5D6
100
AcDbEntity
100
AcDbLine
8
OLCULER
10
4464.03587054225
20
8792.166822602818
30
0
11
4520.03587054225
21
8848.166822602818
31
0
0
LINE
5
F834
330
F5D6
100
AcDbEntity
100
AcDbLine
8
OLCULER
10
5121.820705092386
20
8792.166822602818
30
0
11
5177.820705092386
21
8848.166822602818
31
0
0
TEXT
5
F835
330
F5D6
100
AcDbEntity
100
AcDbText
8
OLCULER
10
4820.928287817318
20
8844.166822602818
30
0
40
60
1
700 mm (GENISLIK)
50
0
7
STANDARD
72
1
11
4820.928287817318
21
8844.166822602818
31
0
100
AcDbText
73
2
0
LINE
5
F836
330
F5D6
100
AcDbEntity
100
AcDbLine
8
OLCULER
10
4490.179294907614
20
8500.419077069213
30
0
11
4330.179294907614
21
8500.419077069213
31
0
0
LINE
5
F837
330
F5D6
100
AcDbEntity
100
AcDbLine
8
OLCULER
10
4754.771925237456
20
8796.78833994095
30
0
11
4330.179294907614
21
8796.78833994095
31
0
0
LINE
5
F838
330
F5D6
100
AcDbEntity
100
AcDbLine
8
OLCULER
10
4370.179294907614
20
8500.419077069213
30
0
11
4370.179294907614
21
8796.78833994095
31
0
0
LINE
5
F839
330
F5D6
100
AcDbEntity
100
AcDbLine
8
OLCULER
10
4342.179294907614
20
8472.419077069213
30
0
11
4398.179294907614
21
8528.419077069213
31
0
0
LINE
5
F83A
330
F5D6
100
AcDbEntity
100
AcDbLine
8
OLCULER
10
4342.179294907614
20
8768.78833994095
30
0
11
4398.179294907614
21
8824.78833994095
31
0
0
TEXT
5
F83B
330
F5D6
100
AcDbEntity
100
AcDbText
8
OLCULER
10
4328.179294907614
20
8648.603708505081
30
0
40
60
1
463 mm (TOPLAM DERINLIK)
50
90
7
STANDARD
72
1
11
4328.179294907614
21
8648.603708505081
31
0
100
AcDbText
73
2
0
LINE
5
F877
330
F5D6
100
AcDbEntity
100
AcDbLine
8
OLCULER
10
-14000
20
0
30
0
11
-13150
21
0
31
0
0
LINE
5
F878
330
F5D6
100
AcDbEntity
100
AcDbLine
8
OLCULER
10
-14000
20
0
30
0
11
-13398.959235991435
21
-601.0407640085654
31
0
0
LINE
5
F879
330
F5D6
100
AcDbEntity
100
AcDbLine
8
OLCULER
10
-13398.959235991435
20
-601.0407640085654
30
0
11
-13448.959235991435
21
-586.0407640085654
31
0
0
LINE
5
F87A
330
F5D6
100
AcDbEntity
100
AcDbLine
8
OLCULER
10
-13398.959235991435
20
-601.0407640085654
30
0
11
-13413.959235991435
21
-551.0407640085654
31
0
0
TEXT
5
F87B
330
F5D6
100
AcDbEntity
100
AcDbText
8
OLCULER
10
-13580
20
-150
30
0
40
40
1
45° DOWNTILT (YERE VE SAHAYA EGIM)
50
0
7
STANDARD
72
0
11
-13580
21
-150
31
0
100
AcDbText
73
2
0
LINE
5
F87C
330
F5D6
100
AcDbEntity
100
AcDbLine
8
OLCULER
10
-14316.076731190387
20
-187.38329701443513
30
0
11
-14471.640223051429
21
-31.819805153394697
31
0
0
LINE
5
F87D
330
F5D6
100
AcDbEntity
100
AcDbLine
8
OLCULER
10
-13812.616702985564
20
316.07673119038674
30
0
11
-13968.180194846605
21
471.64022305142714
31
0
0
LINE
5
F87E
330
F5D6
100
AcDbEntity
100
AcDbLine
8
OLCULER
10
-14471.640223051429
20
-31.819805153394697
30
0
11
-13968.180194846605
21
471.64022305142714
31
0
0
TEXT
5
F87F
330
F5D6
100
AcDbEntity
100
AcDbText
8
OLCULER
10
-14254.910208949017
20
254.91020894901624
30
0
40
40
1
700 mm (BOY)
50
45
7
STANDARD
72
1
11
-14254.910208949017
21
254.91020894901624
31
0
100
AcDbText
73
2
0
LINE
5
F880
330
F5D6
100
AcDbEntity
100
AcDbLine
8
OLCULER
10
-13827.465945390482
20
292.74220741123065
30
0
11
-13728.470996024365
21
391.7371567773473
31
0
0
LINE
5
F881
330
F5D6
100
AcDbEntity
100
AcDbLine
8
OLCULER
10
-13703.01515190165
20
176.7766952966369
30
0
11
-13604.020202535534
21
275.77164466275354
31
0
0
LINE
5
F882
330
F5D6
100
AcDbEntity
100
AcDbLine
8
OLCULER
10
-13728.470996024365
20
391.7371567773473
30
0
11
-13604.020202535534
21
275.77164466275354
31
0
0
TEXT
5
F883
330
F5D6
100
AcDbEntity
100
AcDbText
8
OLCULER
10
-13666.24559927995
20
363.7544007200504
30
0
40
36
1
170 mm (GOVDE)
50
-45
7
STANDARD
72
1
11
-13666.24559927995
21
363.7544007200504
31
0
100
AcDbText
73
2
0
TEXT
5
F884
330
F5D6
100
AcDbEntity
100
AcDbText
8
OLCULER
10
-14300.449671326163
20
180.44967132616398
30
0
40
36
1
463 mm (TOPLAM MONTAJ DERINLIGI)
50
0
7
STANDARD
72
1
11
-14300.449671326163
21
180.44967132616398
31
0
100
AcDbText
73
2
0
LINE
5
F8BE
330
F5D6
100
AcDbEntity
100
AcDbLine
8
OLCULER
10
-4000
20
0
30
0
11
-3150
21
0
31
0
0
LINE
5
F8BF
330
F5D6
100
AcDbEntity
100
AcDbLine
8
OLCULER
10
-4000
20
0
30
0
11
-3398.9592359914345
21
-601.0407640085654
31
0
0
LINE
5
F8C0
330
F5D6
100
AcDbEntity
100
AcDbLine
8
OLCULER
10
-3398.9592359914345
20
-601.0407640085654
30
0
11
-3448.9592359914345
21
-586.0407640085654
31
0
0
LINE
5
F8C1
330
F5D6
100
AcDbEntity
100
AcDbLine
8
OLCULER
10
-3398.9592359914345
20
-601.0407640085654
30
0
11
-3413.9592359914345
21
-551.0407640085654
31
0
0
TEXT
5
F8C2
330
F5D6
100
AcDbEntity
100
AcDbText
8
OLCULER
10
-3580
20
-150
30
0
40
40
1
45° DOWNTILT (YERE VE SAHAYA EGIM)
50
0
7
STANDARD
72
0
11
-3580
21
-150
31
0
100
AcDbText
73
2
0
LINE
5
F8C3
330
F5D6
100
AcDbEntity
100
AcDbLine
8
OLCULER
10
-4316.076731190386
20
-187.38329701443513
30
0
11
-4471.640223051427
21
-31.819805153394697
31
0
0
LINE
5
F8C4
330
F5D6
100
AcDbEntity
100
AcDbLine
8
OLCULER
10
-3812.616702985565
20
316.07673119038674
30
0
11
-3968.1801948466054
21
471.64022305142714
31
0
0
LINE
5
F8C5
330
F5D6
100
AcDbEntity
100
AcDbLine
8
OLCULER
10
-4471.640223051427
20
-31.819805153394697
30
0
11
-3968.1801948466054
21
471.64022305142714
31
0
0
TEXT
5
F8C6
330
F5D6
100
AcDbEntity
100
AcDbText
8
OLCULER
10
-4254.910208949016
20
254.91020894901624
30
0
40
40
1
700 mm (BOY)
50
45
7
STANDARD
72
1
11
-4254.910208949016
21
254.91020894901624
31
0
100
AcDbText
73
2
0
LINE
5
F8C7
330
F5D6
100
AcDbEntity
100
AcDbLine
8
OLCULER
10
-3827.4659453904824
20
292.74220741123065
30
0
11
-3728.470996024366
21
391.7371567773473
31
0
0
LINE
5
F8C8
330
F5D6
100
AcDbEntity
100
AcDbLine
8
OLCULER
10
-3703.01515190165
20
176.7766952966369
30
0
11
-3604.0202025355334
21
275.77164466275354
31
0
0
LINE
5
F8C9
330
F5D6
100
AcDbEntity
100
AcDbLine
8
OLCULER
10
-3728.470996024366
20
391.7371567773473
30
0
11
-3604.0202025355334
21
275.77164466275354
31
0
0
TEXT
5
F8CA
330
F5D6
100
AcDbEntity
100
AcDbText
8
OLCULER
10
-3666.2455992799496
20
363.7544007200504
30
0
40
36
1
170 mm (GOVDE)
50
-45
7
STANDARD
72
1
11
-3666.2455992799496
21
363.7544007200504
31
0
100
AcDbText
73
2
0
TEXT
5
F8CB
330
F5D6
100
AcDbEntity
100
AcDbText
8
OLCULER
10
-4300.449671326164
20
180.44967132616398
30
0
40
36
1
463 mm (TOPLAM MONTAJ DERINLIGI)
50
0
7
STANDARD
72
1
11
-4300.449671326164
21
180.44967132616398
31
0
100
AcDbText
73
2
0
LINE
5
F90B
330
F5D6
100
AcDbEntity
100
AcDbLine
8
OLCULER
10
5500
20
0
30
0
11
6350
21
0
31
0
0
LINE
5
F90C
330
F5D6
100
AcDbEntity
100
AcDbLine
8
OLCULER
10
5500
20
0
30
0
11
6101.040764008565
21
-601.0407640085654
31
0
0
LINE
5
F90D
330
F5D6
100
AcDbEntity
100
AcDbLine
8
OLCULER
10
6101.040764008565
20
-601.0407640085654
30
0
11
6051.040764008565
21
-586.0407640085654
31
0
0
LINE
5
F90E
330
F5D6
100
AcDbEntity
100
AcDbLine
8
OLCULER
10
6101.040764008565
20
-601.0407640085654
30
0
11
6086.040764008565
21
-551.0407640085654
31
0
0
TEXT
5
F90F
330
F5D6
100
AcDbEntity
100
AcDbText
8
OLCULER
10
5920
20
-150
30
0
40
40
1
45° DOWNTILT (YERE VE SAHAYA EGIM)
50
0
7
STANDARD
72
0
11
5920
21
-150
31
0
100
AcDbText
73
2
0
LINE
5
F910
330
F5D6
100
AcDbEntity
100
AcDbLine
8
OLCULER
10
5183.923268809614
20
-187.38329701443513
30
0
11
5028.359776948573
21
-31.819805153394697
31
0
0
LINE
5
F911
330
F5D6
100
AcDbEntity
100
AcDbLine
8
OLCULER
10
5687.383297014435
20
316.07673119038674
30
0
11
5531.819805153395
21
471.64022305142714
31
0
0
LINE
5
F912
330
F5D6
100
AcDbEntity
100
AcDbLine
8
OLCULER
10
5028.359776948573
20
-31.819805153394697
30
0
11
5531.819805153395
21
471.64022305142714
31
0
0
TEXT
5
F913
330
F5D6
100
AcDbEntity
100
AcDbText
8
OLCULER
10
5245.089791050984
20
254.91020894901624
30
0
40
40
1
700 mm (BOY)
50
45
7
STANDARD
72
1
11
5245.089791050984
21
254.91020894901624
31
0
100
AcDbText
73
2
0
LINE
5
F914
330
F5D6
100
AcDbEntity
100
AcDbLine
8
OLCULER
10
5672.534054609518
20
292.74220741123065
30
0
11
5771.529003975635
21
391.7371567773473
31
0
0
LINE
5
F915
330
F5D6
100
AcDbEntity
100
AcDbLine
8
OLCULER
10
5796.98484809835
20
176.7766952966369
30
0
11
5895.979797464467
21
275.77164466275354
31
0
0
LINE
5
F916
330
F5D6
100
AcDbEntity
100
AcDbLine
8
OLCULER
10
5771.529003975635
20
391.7371567773473
30
0
11
5895.979797464467
21
275.77164466275354
31
0
0
TEXT
5
F917
330
F5D6
100
AcDbEntity
100
AcDbText
8
OLCULER
10
5833.75440072005
20
363.7544007200504
30
0
40
36
1
170 mm (GOVDE)
50
-45
7
STANDARD
72
1
11
5833.75440072005
21
363.7544007200504
31
0
100
AcDbText
73
2
0
TEXT
5
F918
330
F5D6
100
AcDbEntity
100
AcDbText
8
OLCULER
10
5199.550328673836
20
180.44967132616398
30
0
40
36
1
463 mm (TOPLAM MONTAJ DERINLIGI)
50
0
7
STANDARD
72
1
11
5199.550328673836
21
180.44967132616398
31
0
100
AcDbText
73
2
0
LINE
5
F5FD
330
F5D6
100
AcDbEntity
100
AcDbLine
8
METIN_BILGI
10
-18000
20
17320
30
0
11
-18020
21
17280
31
0
0
LINE
5
F5FE
330
F5D6
100
AcDbEntity
100
AcDbLine
8
METIN_BILGI
10
-18000
20
17320
30
0
11
-17980
21
17280
31
0
0
LINE
5
F5FF
330
F5D6
100
AcDbEntity
100
AcDbLine
8
METIN_BILGI
10
-18020
20
17280
30
0
11
-17980
21
17280
31
0
0
LINE
5
F600
330
F5D6
100
AcDbEntity
100
AcDbLine
8
METIN_BILGI
10
-18000
20
17280
30
0
11
-18000
21
17265
31
0
0
TEXT
5
F601
330
F5D6
100
AcDbEntity
100
AcDbText
8
METIN_BILGI
10
-18000
20
17240
30
0
40
26
1
UP (YUKARI)
50
0
7
STANDARD
72
1
11
-18000
21
17240
31
0
100
AcDbText
73
2
0
TEXT
5
F616
330
F5D6
100
AcDbEntity
100
AcDbText
8
METIN_BILGI
10
-18000
20
16370
30
0
40
45
1
1.1 TEKLI SPOT BEAM: ON KESIT / GORUNUS
50
0
7
STANDARD
72
1
11
-18000
21
16370
31
0
100
AcDbText
73
2
0
TEXT
5
F617
330
F5D6
100
AcDbEntity
100
AcDbText
8
METIN_BILGI
10
-18000
20
16310
30
0
40
32
1
Spot Beam 30/30 (DOY15X3030MD4TRE) - 16.5 kg
50
0
7
STANDARD
72
1
11
-18000
21
16310
31
0
100
AcDbText
73
2
0
TEXT
5
F64D
330
F5D6
100
AcDbEntity
100
AcDbText
8
METIN_BILGI
10
-12100.449671326163
20
19360
30
0
40
38
1
CATI MAKASI ANA BORUSU (Ø280mm)
50
0
7
STANDARD
72
0
11
-12100.449671326163
21
19360
31
0
100
AcDbText
73
2
0
TEXT
5
F64E
330
F5D6
100
AcDbEntity
100
AcDbText
8
METIN_BILGI
10
-12481.567726704574
20
18182.165807973877
30
0
40
32
1
2x Ø70mm OFSET ASKI BORUSU
50
0
7
STANDARD
72
2
11
-12481.567726704574
21
18182.165807973877
31
0
100
AcDbText
73
2
0
TEXT
5
F64F
330
F5D6
100
AcDbEntity
100
AcDbText
8
METIN_BILGI
10
-12094.331615947753
20
17436.567726704576
30
0
40
28
1
CAPRAZ GECIS KELEPCESI (M14)
50
0
7
STANDARD
72
0
11
-12094.331615947753
21
17436.567726704576
31
0
100
AcDbText
73
2
0
TEXT
5
F65E
330
F5D6
100
AcDbEntity
100
AcDbText
8
METIN_BILGI
10
-12000
20
16430
30
0
40
45
1
1.2 TEKLI SPOT BEAM: YAN KESIT (45° DOWNTILT)
50
0
7
STANDARD
72
1
11
-12000
21
16430
31
0
100
AcDbText
73
2
0
TEXT
5
F65F
330
F5D6
100
AcDbEntity
100
AcDbText
8
METIN_BILGI
10
-12000
20
16370
30
0
40
32
1
Gamma Nu Spot Beam 30/30 (One ve Yere 45° Egim)
50
0
7
STANDARD
72
1
11
-12000
21
16370
31
0
100
AcDbText
73
2
0
TEXT
5
F685
330
F5D6
100
AcDbEntity
100
AcDbText
8
METIN_BILGI
10
-6000
20
16417
30
0
40
42
1
1.3 TEKLI SPOT BEAM: USTTEN PLAN KESITI
50
0
7
STANDARD
72
1
11
-6000
21
16417
31
0
100
AcDbText
73
2
0
LWPOLYLINE
5
F686
330
F5D6
100
AcDbEntity
100
AcDbPolyline
8
METIN_BILGI
6
ByLayer
62
256
370
-1
90
4
70
1
10
-21500
20
14400
10
-21500
20
19800
10
-3000
20
19800
10
-3000
20
14400
0
TEXT
5
F687
330
F5D6
100
AcDbEntity
100
AcDbText
8
METIN_BILGI
10
-21000
20
19500
30
0
40
180
1
BOLUM 1: TEKLI (SINGLE) GAMMA NU SPOT BEAM 30/30 PANEL ANTENI KESITLERI (1:1 OLCEK)
50
0
7
STANDARD
100
AcDbText
0
LINE
5
F696
330
F5D6
100
AcDbEntity
100
AcDbLine
8
METIN_BILGI
10
8000
20
17320
30
0
11
7980
21
17280
31
0
0
LINE
5
F697
330
F5D6
100
AcDbEntity
100
AcDbLine
8
METIN_BILGI
10
8000
20
17320
30
0
11
8020
21
17280
31
0
0
LINE
5
F698
330
F5D6
100
AcDbEntity
100
AcDbLine
8
METIN_BILGI
10
7980
20
17280
30
0
11
8020
21
17280
31
0
0
LINE
5
F699
330
F5D6
100
AcDbEntity
100
AcDbLine
8
METIN_BILGI
10
8000
20
17280
30
0
11
8000
21
17265
31
0
0
TEXT
5
F69A
330
F5D6
100
AcDbEntity
100
AcDbText
8
METIN_BILGI
10
8000
20
17240
30
0
40
26
1
UP (YUKARI)
50
0
7
STANDARD
72
1
11
8000
21
17240
31
0
100
AcDbText
73
2
0
TEXT
5
F6AF
330
F5D6
100
AcDbEntity
100
AcDbText
8
METIN_BILGI
10
8000
20
16370
30
0
40
45
1
SOL ANTEN (ANT-1)
50
0
7
STANDARD
72
1
11
8000
21
16370
31
0
100
AcDbText
73
2
0
TEXT
5
F6B0
330
F5D6
100
AcDbEntity
100
AcDbText
8
METIN_BILGI
10
8000
20
16310
30
0
40
32
1
Spot Beam 30/30 (DOY15X3030MD4TRE) - 16.5 kg
50
0
7
STANDARD
72
1
11
8000
21
16310
31
0
100
AcDbText
73
2
0
LINE
5
F6BF
330
F5D6
100
AcDbEntity
100
AcDbLine
8
METIN_BILGI
10
9000
20
17320
30
0
11
8980
21
17280
31
0
0
LINE
5
F6C0
330
F5D6
100
AcDbEntity
100
AcDbLine
8
METIN_BILGI
10
9000
20
17320
30
0
11
9020
21
17280
31
0
0
LINE
5
F6C1
330
F5D6
100
AcDbEntity
100
AcDbLine
8
METIN_BILGI
10
8980
20
17280
30
0
11
9020
21
17280
31
0
0
LINE
5
F6C2
330
F5D6
100
AcDbEntity
100
AcDbLine
8
METIN_BILGI
10
9000
20
17280
30
0
11
9000
21
17265
31
0
0
TEXT
5
F6C3
330
F5D6
100
AcDbEntity
100
AcDbText
8
METIN_BILGI
10
9000
20
17240
30
0
40
26
1
UP (YUKARI)
50
0
7
STANDARD
72
1
11
9000
21
17240
31
0
100
AcDbText
73
2
0
TEXT
5
F6D8
330
F5D6
100
AcDbEntity
100
AcDbText
8
METIN_BILGI
10
9000
20
16370
30
0
40
45
1
SAG ANTEN (ANT-2)
50
0
7
STANDARD
72
1
11
9000
21
16370
31
0
100
AcDbText
73
2
0
TEXT
5
F6D9
330
F5D6
100
AcDbEntity
100
AcDbText
8
METIN_BILGI
10
9000
20
16310
30
0
40
32
1
Spot Beam 30/30 (DOY15X3030MD4TRE) - 16.5 kg
50
0
7
STANDARD
72
1
11
9000
21
16310
31
0
100
AcDbText
73
2
0
TEXT
5
F725
330
F5D6
100
AcDbEntity
100
AcDbText
8
METIN_BILGI
10
15899.550328673837
20
19360
30
0
40
38
1
CATI MAKASI ANA BORUSU (Ø280mm)
50
0
7
STANDARD
72
0
11
15899.550328673837
21
19360
31
0
100
AcDbText
73
2
0
TEXT
5
F726
330
F5D6
100
AcDbEntity
100
AcDbText
8
METIN_BILGI
10
15518.432273295426
20
18182.165807973877
30
0
40
32
1
2x Ø70mm OFSET ASKI BORUSU
50
0
7
STANDARD
72
2
11
15518.432273295426
21
18182.165807973877
31
0
100
AcDbText
73
2
0
TEXT
5
F727
330
F5D6
100
AcDbEntity
100
AcDbText
8
METIN_BILGI
10
15905.668384052247
20
17436.567726704576
30
0
40
28
1
CAPRAZ GECIS KELEPCESI (M14)
50
0
7
STANDARD
72
0
11
15905.668384052247
21
17436.567726704576
31
0
100
AcDbText
73
2
0
TEXT
5
F736
330
F5D6
100
AcDbEntity
100
AcDbText
8
METIN_BILGI
10
16000
20
16430
30
0
40
45
1
2.2 IKILI SISTEM: YAN KESIT (PROFIL)
50
0
7
STANDARD
72
1
11
16000
21
16430
31
0
100
AcDbText
73
2
0
TEXT
5
F737
330
F5D6
100
AcDbEntity
100
AcDbText
8
METIN_BILGI
10
16000
20
16370
30
0
40
32
1
Gamma Nu Spot Beam 30/30 (One ve Yere 45° Egim)
50
0
7
STANDARD
72
1
11
16000
21
16370
31
0
100
AcDbText
73
2
0
LWPOLYLINE
5
F738
330
F5D6
100
AcDbEntity
100
AcDbPolyline
8
METIN_BILGI
6
ByLayer
62
256
370
-1
90
4
70
1
10
6700
20
14400
10
6700
20
19800
10
21200
20
19800
10
21200
20
14400
0
TEXT
5
F739
330
F5D6
100
AcDbEntity
100
AcDbText
8
METIN_BILGI
10
7100
20
19500
30
0
40
180
1
BOLUM 2: 2'LI (DUAL) GAMMA NU SPOT BEAM ANTEN KESIT VE TRAVERS MONTAJ PLANI
50
0
7
STANDARD
100
AcDbText
0
LINE
5
F748
330
F5D6
100
AcDbEntity
100
AcDbLine
8
METIN_BILGI
10
-7900
20
8820
30
0
11
-7920
21
8780
31
0
0
LINE
5
F749
330
F5D6
100
AcDbEntity
100
AcDbLine
8
METIN_BILGI
10
-7900
20
8820
30
0
11
-7880
21
8780
31
0
0
LINE
5
F74A
330
F5D6
100
AcDbEntity
100
AcDbLine
8
METIN_BILGI
10
-7920
20
8780
30
0
11
-7880
21
8780
31
0
0
LINE
5
F74B
330
F5D6
100
AcDbEntity
100
AcDbLine
8
METIN_BILGI
10
-7900
20
8780
30
0
11
-7900
21
8765
31
0
0
TEXT
5
F74C
330
F5D6
100
AcDbEntity
100
AcDbText
8
METIN_BILGI
10
-7900
20
8740
30
0
40
26
1
UP (YUKARI)
50
0
7
STANDARD
72
1
11
-7900
21
8740
31
0
100
AcDbText
73
2
0
TEXT
5
F761
330
F5D6
100
AcDbEntity
100
AcDbText
8
METIN_BILGI
10
-7900
20
7870
30
0
40
45
1
SEKTOR 1 (SOL)
50
0
7
STANDARD
72
1
11
-7900
21
7870
31
0
100
AcDbText
73
2
0
TEXT
5
F762
330
F5D6
100
AcDbEntity
100
AcDbText
8
METIN_BILGI
10
-7900
20
7810
30
0
40
32
1
Spot Beam 30/30 (DOY15X3030MD4TRE) - 16.5 kg
50
0
7
STANDARD
72
1
11
-7900
21
7810
31
0
100
AcDbText
73
2
0
LINE
5
F771
330
F5D6
100
AcDbEntity
100
AcDbLine
8
METIN_BILGI
10
-7000
20
8820
30
0
11
-7020
21
8780
31
0
0
LINE
5
F772
330
F5D6
100
AcDbEntity
100
AcDbLine
8
METIN_BILGI
10
-7000
20
8820
30
0
11
-6980
21
8780
31
0
0
LINE
5
F773
330
F5D6
100
AcDbEntity
100
AcDbLine
8
METIN_BILGI
10
-7020
20
8780
30
0
11
-6980
21
8780
31
0
0
LINE
5
F774
330
F5D6
100
AcDbEntity
100
AcDbLine
8
METIN_BILGI
10
-7000
20
8780
30
0
11
-7000
21
8765
31
0
0
TEXT
5
F775
330
F5D6
100
AcDbEntity
100
AcDbText
8
METIN_BILGI
10
-7000
20
8740
30
0
40
26
1
UP (YUKARI)
50
0
7
STANDARD
72
1
11
-7000
21
8740
31
0
100
AcDbText
73
2
0
TEXT
5
F78A
330
F5D6
100
AcDbEntity
100
AcDbText
8
METIN_BILGI
10
-7000
20
7870
30
0
40
45
1
SEKTOR 2 (MERKEZ)
50
0
7
STANDARD
72
1
11
-7000
21
7870
31
0
100
AcDbText
73
2
0
TEXT
5
F78B
330
F5D6
100
AcDbEntity
100
AcDbText
8
METIN_BILGI
10
-7000
20
7810
30
0
40
32
1
Spot Beam 30/30 (DOY15X3030MD4TRE) - 16.5 kg
50
0
7
STANDARD
72
1
11
-7000
21
7810
31
0
100
AcDbText
73
2
0
LINE
5
F79A
330
F5D6
100
AcDbEntity
100
AcDbLine
8
METIN_BILGI
10
-6100
20
8820
30
0
11
-6120
21
8780
31
0
0
LINE
5
F79B
330
F5D6
100
AcDbEntity
100
AcDbLine
8
METIN_BILGI
10
-6100
20
8820
30
0
11
-6080
21
8780
31
0
0
LINE
5
F79C
330
F5D6
100
AcDbEntity
100
AcDbLine
8
METIN_BILGI
10
-6120
20
8780
30
0
11
-6080
21
8780
31
0
0
LINE
5
F79D
330
F5D6
100
AcDbEntity
100
AcDbLine
8
METIN_BILGI
10
-6100
20
8780
30
0
11
-6100
21
8765
31
0
0
TEXT
5
F79E
330
F5D6
100
AcDbEntity
100
AcDbText
8
METIN_BILGI
10
-6100
20
8740
30
0
40
26
1
UP (YUKARI)
50
0
7
STANDARD
72
1
11
-6100
21
8740
31
0
100
AcDbText
73
2
0
TEXT
5
F7B3
330
F5D6
100
AcDbEntity
100
AcDbText
8
METIN_BILGI
10
-6100
20
7870
30
0
40
45
1
SEKTOR 3 (SAG)
50
0
7
STANDARD
72
1
11
-6100
21
7870
31
0
100
AcDbText
73
2
0
TEXT
5
F7B4
330
F5D6
100
AcDbEntity
100
AcDbText
8
METIN_BILGI
10
-6100
20
7810
30
0
40
32
1
Spot Beam 30/30 (DOY15X3030MD4TRE) - 16.5 kg
50
0
7
STANDARD
72
1
11
-6100
21
7810
31
0
100
AcDbText
73
2
0
TEXT
5
F7F0
330
F5D6
100
AcDbEntity
100
AcDbText
8
METIN_BILGI
10
3150
20
8117
30
0
40
42
1
ANT-1 (-20°)
50
0
7
STANDARD
72
1
11
3150
21
8117
31
0
100
AcDbText
73
2
0
TEXT
5
F816
330
F5D6
100
AcDbEntity
100
AcDbText
8
METIN_BILGI
10
4000
20
7917
30
0
40
42
1
ANT-2 (0°)
50
0
7
STANDARD
72
1
11
4000
21
7917
31
0
100
AcDbText
73
2
0
TEXT
5
F83C
330
F5D6
100
AcDbEntity
100
AcDbText
8
METIN_BILGI
10
4850
20
8117
30
0
40
42
1
ANT-3 (+20°)
50
0
7
STANDARD
72
1
11
4850
21
8117
31
0
100
AcDbText
73
2
0
LWPOLYLINE
5
F83D
330
F5D6
100
AcDbEntity
100
AcDbPolyline
8
METIN_BILGI
6
ByLayer
62
256
370
-1
90
4
70
1
10
-9100
20
5900
10
-9100
20
11300
10
9400
20
11300
10
9400
20
5900
0
TEXT
5
F83E
330
F5D6
100
AcDbEntity
100
AcDbText
8
METIN_BILGI
10
-8800
20
11000
30
0
40
180
1
BOLUM 3: 3'LU (TRIPLE) GAMMA NU SPOT BEAM DIZI VE ACISAL KAPSAMA PLANI
50
0
7
STANDARD
100
AcDbText
0
TEXT
5
F874
330
F5D6
100
AcDbEntity
100
AcDbText
8
METIN_BILGI
10
-14100.449671326163
20
2360
30
0
40
38
1
CATI MAKASI ANA BORUSU (Ø280mm)
50
0
7
STANDARD
72
0
11
-14100.449671326163
21
2360
31
0
100
AcDbText
73
2
0
TEXT
5
F875
330
F5D6
100
AcDbEntity
100
AcDbText
8
METIN_BILGI
10
-14481.567726704574
20
1182.1658079738768
30
0
40
32
1
2x Ø70mm OFSET ASKI BORUSU
50
0
7
STANDARD
72
2
11
-14481.567726704574
21
1182.1658079738768
31
0
100
AcDbText
73
2
0
TEXT
5
F876
330
F5D6
100
AcDbEntity
100
AcDbText
8
METIN_BILGI
10
-14094.331615947753
20
436.5677267045744
30
0
40
28
1
CAPRAZ GECIS KELEPCESI (M14)
50
0
7
STANDARD
72
0
11
-14094.331615947753
21
436.5677267045744
31
0
100
AcDbText
73
2
0
TEXT
5
F885
330
F5D6
100
AcDbEntity
100
AcDbText
8
METIN_BILGI
10
-14000
20
-570
30
0
40
45
1
LOKASYON A: 45m CATI MAKASI ASKILI KESIT
50
0
7
STANDARD
72
1
11
-14000
21
-570
31
0
100
AcDbText
73
2
0
TEXT
5
F886
330
F5D6
100
AcDbEntity
100
AcDbText
8
METIN_BILGI
10
-14000
20
-630
30
0
40
32
1
Gamma Nu Spot Beam 30/30 (One ve Yere 45° Egim)
50
0
7
STANDARD
72
1
11
-14000
21
-630
31
0
100
AcDbText
73
2
0
TEXT
5
F8BB
330
F5D6
100
AcDbEntity
100
AcDbText
8
METIN_BILGI
10
-4556.567726704575
20
2950
30
0
40
55
1
SKORBOARD DEV BORU (Ø1500mm)
50
0
7
STANDARD
72
1
11
-4556.567726704575
21
2950
31
0
100
AcDbText
73
2
0
TEXT
5
F8BC
330
F5D6
100
AcDbEntity
100
AcDbText
8
METIN_BILGI
10
-4556.567726704575
20
2860
30
0
40
36
1
360° Cember Kelepce Bilezigi (M24)
50
0
7
STANDARD
72
1
11
-4556.567726704575
21
2860
31
0
100
AcDbText
73
2
0
TEXT
5
F8BD
330
F5D6
100
AcDbEntity
100
AcDbText
8
METIN_BILGI
10
-4506.567726704575
20
1182.1658079738768
30
0
40
32
1
Ø114mm x 2090mm TASIYICI BORU
50
0
7
STANDARD
72
2
11
-4506.567726704575
21
1182.1658079738768
31
0
100
AcDbText
73
2
0
TEXT
5
F8CC
330
F5D6
100
AcDbEntity
100
AcDbText
8
METIN_BILGI
10
-4000
20
-570
30
0
40
45
1
LOKASYON B: SKORBOARD Ø1500mm BORU CEMBER KESITI
50
0
7
STANDARD
72
1
11
-4000
21
-570
31
0
100
AcDbText
73
2
0
TEXT
5
F8CD
330
F5D6
100
AcDbEntity
100
AcDbText
8
METIN_BILGI
10
-4000
20
-630
30
0
40
32
1
Gamma Nu Spot Beam 30/30 (One ve Yere 45° Egim)
50
0
7
STANDARD
72
1
11
-4000
21
-630
31
0
100
AcDbText
73
2
0
TEXT
5
F909
330
F5D6
100
AcDbEntity
100
AcDbText
8
METIN_BILGI
10
4883.432273295425
20
2350
30
0
40
36
1
KEDI YOLU (900mm)
50
0
7
STANDARD
72
1
11
4883.432273295425
21
2350
31
0
100
AcDbText
73
2
0
TEXT
5
F90A
330
F5D6
100
AcDbEntity
100
AcDbText
8
METIN_BILGI
10
4713.432273295425
20
1241.5
30
0
40
30
1
Ø45.7cm SILINDIR BORU
50
0
7
STANDARD
72
1
11
4713.432273295425
21
1241.5
31
0
100
AcDbText
73
2
0
TEXT
5
F919
330
F5D6
100
AcDbEntity
100
AcDbText
8
METIN_BILGI
10
5500
20
-570
30
0
40
45
1
LOKASYON C: CATI UCU KEDI YOLU & Ø45.7cm SILINDIR KESITI
50
0
7
STANDARD
72
1
11
5500
21
-570
31
0
100
AcDbText
73
2
0
TEXT
5
F91A
330
F5D6
100
AcDbEntity
100
AcDbText
8
METIN_BILGI
10
5500
20
-630
30
0
40
32
1
Gamma Nu Spot Beam 30/30 (One ve Yere 45° Egim)
50
0
7
STANDARD
72
1
11
5500
21
-630
31
0
100
AcDbText
73
2
0
LWPOLYLINE
5
F91B
330
F5D6
100
AcDbEntity
100
AcDbPolyline
8
METIN_BILGI
6
ByLayer
62
256
370
-1
90
4
70
1
10
-18000
20
-2600
10
-18000
20
4200
10
8000
20
4200
10
8000
20
-2600
0
TEXT
5
F91C
330
F5D6
100
AcDbEntity
100
AcDbText
8
METIN_BILGI
10
-17500
20
3900
30
0
40
180
1
BOLUM 4: LOKASYON BAZLI MONTAJ VE ASKI SISTEMI KESITLERI (TUM TRIBUN VE CATILAR)
50
0
7
STANDARD
100
AcDbText
0
LWPOLYLINE
5
F91D
330
F5D6
100
AcDbEntity
100
AcDbPolyline
8
METIN_BILGI
6
ByLayer
62
256
370
-1
90
4
70
1
10
13500
20
1400
10
13500
20
6200
10
24700
20
6200
10
24700
20
1400
0
TEXT
5
F91E
330
F5D6
100
AcDbEntity
100
AcDbText
8
METIN_BILGI
10
13700
20
5900
30
0
40
240
1
EKIPMAN VE ALTYAPI YERLESIM CETVELI (BOM)
50
0
7
STANDARD
100
AcDbText
0
LINE
5
F91F
330
F5D6
100
AcDbEntity
100
AcDbLine
8
METIN_BILGI
10
13500
20
5800
30
0
11
24700
21
5800
31
0
0
LINE
5
F920
330
F5D6
100
AcDbEntity
100
AcDbLine
8
METIN_BILGI
10
13500
20
5400
30
0
11
24700
21
5400
31
0
0
LINE
5
F921
330
F5D6
100
AcDbEntity
100
AcDbLine
8
METIN_BILGI
10
14700
20
1400
30
0
11
14700
21
5800
31
0
0
LINE
5
F922
330
F5D6
100
AcDbEntity
100
AcDbLine
8
METIN_BILGI
10
20700
20
1400
30
0
11
20700
21
5800
31
0
0
LINE
5
F923
330
F5D6
100
AcDbEntity
100
AcDbLine
8
METIN_BILGI
10
23200
20
1400
30
0
11
23200
21
5800
31
0
0
TEXT
5
F924
330
F5D6
100
AcDbEntity
100
AcDbText
8
METIN_BILGI
10
13600
20
5520
30
0
40
180
1
NO
50
0
7
STANDARD
100
AcDbText
0
TEXT
5
F925
330
F5D6
100
AcDbEntity
100
AcDbText
8
METIN_BILGI
10
14800
20
5520
30
0
40
180
1
EKIPMAN TANIMI
50
0
7
STANDARD
100
AcDbText
0
TEXT
5
F926
330
F5D6
100
AcDbEntity
100
AcDbText
8
METIN_BILGI
10
20800
20
5520
30
0
40
180
1
BOYUTLAR (GxDxY)
50
0
7
STANDARD
100
AcDbText
0
TEXT
5
F927
330
F5D6
100
AcDbEntity
100
AcDbText
8
METIN_BILGI
10
23300
20
5520
30
0
40
180
1
ADET
50
0
7
STANDARD
100
AcDbText
0
LINE
5
F928
330
F5D6
100
AcDbEntity
100
AcDbLine
8
METIN_BILGI
10
13500
20
5000
30
0
11
24700
21
5000
31
0
0
TEXT
5
F929
330
F5D6
100
AcDbEntity
100
AcDbText
8
METIN_BILGI
10
13600
20
5120
30
0
40
160
1
1
50
0
7
STANDARD
100
AcDbText
0
TEXT
5
F92A
330
F5D6
100
AcDbEntity
100
AcDbText
8
METIN_BILGI
10
14800
20
5120
30
0
40
160
1
Gamma Nu Spot Beam 30/30 Panel Anten (DOY15X3030MD4TRE)
50
0
7
STANDARD
100
AcDbText
0
TEXT
5
F92B
330
F5D6
100
AcDbEntity
100
AcDbText
8
METIN_BILGI
10
20800
20
5120
30
0
40
160
1
700x700x170 mm
50
0
7
STANDARD
100
AcDbText
0
TEXT
5
F92C
330
F5D6
100
AcDbEntity
100
AcDbText
8
METIN_BILGI
10
23300
20
5120
30
0
40
160
1
Tipik
50
0
7
STANDARD
100
AcDbText
0
LINE
5
F92D
330
F5D6
100
AcDbEntity
100
AcDbLine
8
METIN_BILGI
10
13500
20
4600
30
0
11
24700
21
4600
31
0
0
TEXT
5
F92E
330
F5D6
100
AcDbEntity
100
AcDbText
8
METIN_BILGI
10
13600
20
4720
30
0
40
160
1
2
50
0
7
STANDARD
100
AcDbText
0
TEXT
5
F92F
330
F5D6
100
AcDbEntity
100
AcDbText
8
METIN_BILGI
10
14800
20
4720
30
0
40
160
1
Agir Hizmet Konsol Egim Braketi (0-60° Tilt, 251mm Ofset)
50
0
7
STANDARD
100
AcDbText
0
TEXT
5
F930
330
F5D6
100
AcDbEntity
100
AcDbText
8
METIN_BILGI
10
20800
20
4720
30
0
40
160
1
140x455x251 mm
50
0
7
STANDARD
100
AcDbText
0
TEXT
5
F931
330
F5D6
100
AcDbEntity
100
AcDbText
8
METIN_BILGI
10
23300
20
4720
30
0
40
160
1
1 / Anten
50
0
7
STANDARD
100
AcDbText
0
LINE
5
F932
330
F5D6
100
AcDbEntity
100
AcDbLine
8
METIN_BILGI
10
13500
20
4200
30
0
11
24700
21
4200
31
0
0
TEXT
5
F933
330
F5D6
100
AcDbEntity
100
AcDbText
8
METIN_BILGI
10
13600
20
4320
30
0
40
160
1
3
50
0
7
STANDARD
100
AcDbText
0
TEXT
5
F934
330
F5D6
100
AcDbEntity
100
AcDbText
8
METIN_BILGI
10
14800
20
4320
30
0
40
160
1
Tasiyici Direk Borusu (3" Galvanizli Celik Direk)
50
0
7
STANDARD
100
AcDbText
0
TEXT
5
F935
330
F5D6
100
AcDbEntity
100
AcDbText
8
METIN_BILGI
10
20800
20
4320
30
0
40
160
1
Ø76.2mm x 950mm
50
0
7
STANDARD
100
AcDbText
0
TEXT
5
F936
330
F5D6
100
AcDbEntity
100
AcDbText
8
METIN_BILGI
10
23300
20
4320
30
0
40
160
1
1 / Anten
50
0
7
STANDARD
100
AcDbText
0
LINE
5
F937
330
F5D6
100
AcDbEntity
100
AcDbLine
8
METIN_BILGI
10
13500
20
3800
30
0
11
24700
21
3800
31
0
0
TEXT
5
F938
330
F5D6
100
AcDbEntity
100
AcDbText
8
METIN_BILGI
10
13600
20
3920
30
0
40
160
1
4
50
0
7
STANDARD
100
AcDbText
0
TEXT
5
F939
330
F5D6
100
AcDbEntity
100
AcDbText
8
METIN_BILGI
10
14800
20
3920
30
0
40
160
1
Cift Dusey Ofset Aski Borusu (Galvaniz Celik)
50
0
7
STANDARD
100
AcDbText
0
TEXT
5
F93A
330
F5D6
100
AcDbEntity
100
AcDbText
8
METIN_BILGI
10
20800
20
3920
30
0
40
160
1
2x Ø70mm x 2200mm
50
0
7
STANDARD
100
AcDbText
0
TEXT
5
F93B
330
F5D6
100
AcDbEntity
100
AcDbText
8
METIN_BILGI
10
23300
20
3920
30
0
40
160
1
2 / Anten
50
0
7
STANDARD
100
AcDbText
0
LINE
5
F93C
330
F5D6
100
AcDbEntity
100
AcDbLine
8
METIN_BILGI
10
13500
20
3400
30
0
11
24700
21
3400
31
0
0
TEXT
5
F93D
330
F5D6
100
AcDbEntity
100
AcDbText
8
METIN_BILGI
10
13600
20
3520
30
0
40
160
1
5
50
0
7
STANDARD
100
AcDbText
0
TEXT
5
F93E
330
F5D6
100
AcDbEntity
100
AcDbText
8
METIN_BILGI
10
14800
20
3520
30
0
40
160
1
Agir Hizmet Capraz Gecis Kelepceleri (Crossover Clamps)
50
0
7
STANDARD
100
AcDbText
0
TEXT
5
F93F
330
F5D6
100
AcDbEntity
100
AcDbText
8
METIN_BILGI
10
20800
20
3520
30
0
40
160
1
130x110x130 mm / M14
50
0
7
STANDARD
100
AcDbText
0
TEXT
5
F940
330
F5D6
100
AcDbEntity
100
AcDbText
8
METIN_BILGI
10
23300
20
3520
30
0
40
160
1
2 / Anten
50
0
7
STANDARD
100
AcDbText
0
LINE
5
F941
330
F5D6
100
AcDbEntity
100
AcDbLine
8
METIN_BILGI
10
13500
20
3000
30
0
11
24700
21
3000
31
0
0
TEXT
5
F942
330
F5D6
100
AcDbEntity
100
AcDbText
8
METIN_BILGI
10
13600
20
3120
30
0
40
160
1
6
50
0
7
STANDARD
100
AcDbText
0
TEXT
5
F943
330
F5D6
100
AcDbEntity
100
AcDbText
8
METIN_BILGI
10
14800
20
3120
30
0
40
160
1
2'li Ikili Montaj Traversi (Kutu Profil)
50
0
7
STANDARD
100
AcDbText
0
TEXT
5
F944
330
F5D6
100
AcDbEntity
100
AcDbText
8
METIN_BILGI
10
20800
20
3120
30
0
40
160
1
100x60x5mm x 2000mm
50
0
7
STANDARD
100
AcDbText
0
TEXT
5
F945
330
F5D6
100
AcDbEntity
100
AcDbText
8
METIN_BILGI
10
23300
20
3120
30
0
40
160
1
Opsiyon
50
0
7
STANDARD
100
AcDbText
0
LINE
5
F946
330
F5D6
100
AcDbEntity
100
AcDbLine
8
METIN_BILGI
10
13500
20
2600
30
0
11
24700
21
2600
31
0
0
TEXT
5
F947
330
F5D6
100
AcDbEntity
100
AcDbText
8
METIN_BILGI
10
13600
20
2720
30
0
40
160
1
7
50
0
7
STANDARD
100
AcDbText
0
TEXT
5
F948
330
F5D6
100
AcDbEntity
100
AcDbText
8
METIN_BILGI
10
14800
20
2720
30
0
40
160
1
3'lu Moduler Kafes Kiris Sasisi (Agir Hizmet)
50
0
7
STANDARD
100
AcDbText
0
TEXT
5
F949
330
F5D6
100
AcDbEntity
100
AcDbText
8
METIN_BILGI
10
20800
20
2720
30
0
40
160
1
120x80x6mm x 3000mm
50
0
7
STANDARD
100
AcDbText
0
TEXT
5
F94A
330
F5D6
100
AcDbEntity
100
AcDbText
8
METIN_BILGI
10
23300
20
2720
30
0
40
160
1
Opsiyon
50
0
7
STANDARD
100
AcDbText
0
LINE
5
F94B
330
F5D6
100
AcDbEntity
100
AcDbLine
8
METIN_BILGI
10
13500
20
2200
30
0
11
24700
21
2200
31
0
0
TEXT
5
F94C
330
F5D6
100
AcDbEntity
100
AcDbText
8
METIN_BILGI
10
13600
20
2320
30
0
40
160
1
8
50
0
7
STANDARD
100
AcDbText
0
TEXT
5
F94D
330
F5D6
100
AcDbEntity
100
AcDbText
8
METIN_BILGI
10
14800
20
2320
30
0
40
160
1
1/2" Feeder Jumper Kablo Seti (4.3-10 DIN Disi)
50
0
7
STANDARD
100
AcDbText
0
TEXT
5
F94E
330
F5D6
100
AcDbEntity
100
AcDbText
8
METIN_BILGI
10
20800
20
2320
30
0
40
160
1
4 Port / Anten
50
0
7
STANDARD
100
AcDbText
0
TEXT
5
F94F
330
F5D6
100
AcDbEntity
100
AcDbText
8
METIN_BILGI
10
23300
20
2320
30
0
40
160
1
4 / Anten
50
0
7
STANDARD
100
AcDbText
0
LINE
5
F950
330
F5D6
100
AcDbEntity
100
AcDbLine
8
METIN_BILGI
10
13500
20
1800
30
0
11
24700
21
1800
31
0
0
TEXT
5
F951
330
F5D6
100
AcDbEntity
100
AcDbText
8
METIN_BILGI
10
13600
20
1920
30
0
40
160
1
9
50
0
7
STANDARD
100
AcDbText
0
TEXT
5
F952
330
F5D6
100
AcDbEntity
100
AcDbText
8
METIN_BILGI
10
14800
20
1920
30
0
40
160
1
Skorboard Ø1500mm 360° Cember Kelepce Bilezigi
50
0
7
STANDARD
100
AcDbText
0
TEXT
5
F953
330
F5D6
100
AcDbEntity
100
AcDbText
8
METIN_BILGI
10
20800
20
1920
30
0
40
160
1
Ø1590x200x20 mm
50
0
7
STANDARD
100
AcDbText
0
TEXT
5
F954
330
F5D6
100
AcDbEntity
100
AcDbText
8
METIN_BILGI
10
23300
20
1920
30
0
40
160
1
Skorboard
50
0
7
STANDARD
100
AcDbText
0
LINE
5
F955
330
F5D6
100
AcDbEntity
100
AcDbLine
8
METIN_BILGI
10
13500
20
1400
30
0
11
24700
21
1400
31
0
0
TEXT
5
F956
330
F5D6
100
AcDbEntity
100
AcDbText
8
METIN_BILGI
10
13600
20
1520
30
0
40
160
1
10
50
0
7
STANDARD
100
AcDbText
0
TEXT
5
F957
330
F5D6
100
AcDbEntity
100
AcDbText
8
METIN_BILGI
10
14800
20
1520
30
0
40
160
1
Skorboard Ana Dusey Tasiyici Boru
50
0
7
STANDARD
100
AcDbText
0
TEXT
5
F958
330
F5D6
100
AcDbEntity
100
AcDbText
8
METIN_BILGI
10
20800
20
1520
30
0
40
160
1
Ø114mm x 2090mm
50
0
7
STANDARD
100
AcDbText
0
TEXT
5
F959
330
F5D6
100
AcDbEntity
100
AcDbText
8
METIN_BILGI
10
23300
20
1520
30
0
40
160
1
Skorboard
50
0
7
STANDARD
100
AcDbText
0
LWPOLYLINE
5
F95A
330
F5D6
100
AcDbEntity
100
AcDbPolyline
8
METIN_BILGI
6
ByLayer
62
256
370
-1
90
4
70
1
10
13500
20
-2400
10
13500
20
-200
10
21500
20
-200
10
21500
20
-2400
0
LINE
5
F95B
330
F5D6
100
AcDbEntity
100
AcDbLine
8
METIN_BILGI
10
13500
20
-1000
30
0
11
21500
21
-1000
31
0
0
LINE
5
F95C
330
F5D6
100
AcDbEntity
100
AcDbLine
8
METIN_BILGI
10
13500
20
-1700
30
0
11
21500
21
-1700
31
0
0
LINE
5
F95D
330
F5D6
100
AcDbEntity
100
AcDbLine
8
METIN_BILGI
10
18000
20
-2400
30
0
11
18000
21
-1000
31
0
0
TEXT
5
F95E
330
F5D6
100
AcDbEntity
100
AcDbText
8
METIN_BILGI
10
13700
20
-750
30
0
40
320
1
GALATASARAY STADYUMU GSM ALTYAPI PROJESI
50
0
7
STANDARD
100
AcDbText
0
TEXT
5
F95F
330
F5D6
100
AcDbEntity
100
AcDbText
8
METIN_BILGI
10
13700
20
-1450
30
0
40
260
1
ALAN: GAMMA NU SPOT BEAM 30/30 PANEL ANTENLERI TUM LOKASYONLAR KESITLERI (TEKLI, 2'LI, 3'LU) (DETAY KESIT PAFTASI)
50
0
7
STANDARD
100
AcDbText
0
TEXT
5
F960
330
F5D6
100
AcDbEntity
100
AcDbText
8
METIN_BILGI
10
13700
20
-2120
30
0
40
200
1
OLCEK: 1:1 mm (1:1 mm)
50
0
7
STANDARD
100
AcDbText
0
TEXT
5
F961
330
F5D6
100
AcDbEntity
100
AcDbText
8
METIN_BILGI
10
18200
20
-1450
30
0
40
180
1
CIZIM: ANTIGRAVITY CAD / BIM
50
0
7
STANDARD
100
AcDbText
0
TEXT
5
F962
330
F5D6
100
AcDbEntity
100
AcDbText
8
METIN_BILGI
10
18200
20
-2120
30
0
40
180
1
TARIH: 2026-10-05
50
0
7
STANDARD
100
AcDbText
0
CIRCLE
5
F963
330
F5D6
100
AcDbEntity
100
AcDbCircle
8
METIN_BILGI
10
12000
20
-1300
30
0
40
800
0
LINE
5
F964
330
F5D6
100
AcDbEntity
100
AcDbLine
8
METIN_BILGI
10
12000
20
-2020
30
0
11
12000
21
-580
31
0
0
LINE
5
F965
330
F5D6
100
AcDbEntity
100
AcDbLine
8
METIN_BILGI
10
12000
20
-580
30
0
11
11750
21
-1000
31
0
0
LINE
5
F966
330
F5D6
100
AcDbEntity
100
AcDbLine
8
METIN_BILGI
10
12000
20
-580
30
0
11
12250
21
-1000
31
0
0
TEXT
5
F967
330
F5D6
100
AcDbEntity
100
AcDbText
8
METIN_BILGI
10
12000
20
-300
30
0
40
300
1
K
50
0
7
STANDARD
72
1
11
12000
21
-300
31
0
100
AcDbText
73
2
0
LWPOLYLINE
5
F5F2
330
F5D6
100
AcDbEntity
100
AcDbPolyline
8
EKP_PANEL_ANTEN
6
ByLayer
62
256
370
-1
90
4
70
1
10
-18350
20
16650
10
-18350
20
17350
10
-17650
20
17350
10
-17650
20
16650
0
LINE
5
F5F3
330
F5D6
100
AcDbEntity
100
AcDbLine
8
EKP_PANEL_ANTEN
10
-18335
20
16665
30
0
11
-17665
21
17335
31
0
0
LINE
5
F5F4
330
F5D6
100
AcDbEntity
100
AcDbLine
8
EKP_PANEL_ANTEN
10
-18335
20
17335
30
0
11
-17665
21
16665
31
0
0
LINE
5
F5F5
330
F5D6
100
AcDbEntity
100
AcDbLine
8
EKP_PANEL_ANTEN
10
-18327
20
16665
30
0
11
-17665
21
17327
31
0
0
LINE
5
F5F6
330
F5D6
100
AcDbEntity
100
AcDbLine
8
EKP_PANEL_ANTEN
10
-18335
20
16673
30
0
11
-17673
21
17335
31
0
0
LINE
5
F5F7
330
F5D6
100
AcDbEntity
100
AcDbLine
8
EKP_PANEL_ANTEN
10
-18327
20
17335
30
0
11
-17665
21
16673
31
0
0
LINE
5
F5F8
330
F5D6
100
AcDbEntity
100
AcDbLine
8
EKP_PANEL_ANTEN
10
-18335
20
17327
30
0
11
-17673
21
16665
31
0
0
CIRCLE
5
F5F9
330
F5D6
100
AcDbEntity
100
AcDbCircle
8
EKP_PANEL_ANTEN
10
-18000
20
17000
30
0
40
18
0
LINE
5
F5FA
330
F5D6
100
AcDbEntity
100
AcDbLine
8
EKP_PANEL_ANTEN
10
-18035
20
17000
30
0
11
-17965
21
17000
31
0
0
LINE
5
F5FB
330
F5D6
100
AcDbEntity
100
AcDbLine
8
EKP_PANEL_ANTEN
10
-18000
20
16965
30
0
11
-18000
21
17035
31
0
0
LWPOLYLINE
5
F5FC
330
F5D6
100
AcDbEntity
100
AcDbPolyline
8
EKP_PANEL_ANTEN
6
ByLayer
62
256
370
-1
90
4
70
1
10
-18335
20
16665
10
-18335
20
17335
10
-17665
20
17335
10
-17665
20
16665
0
LINE
5
F618
330
F5D6
100
AcDbEntity
100
AcDbLine
8
EKP_PANEL_ANTEN
10
-11812.616702985564
20
17316.076731190387
30
0
11
-11679.680628122493
21
17183.140656327316
31
0
0
LINE
5
F619
330
F5D6
100
AcDbEntity
100
AcDbLine
8
EKP_PANEL_ANTEN
10
-11679.680628122493
20
17183.140656327316
30
0
11
-11703.01515190165
21
17176.776695296638
31
0
0
LINE
5
F61A
330
F5D6
100
AcDbEntity
100
AcDbLine
8
EKP_PANEL_ANTEN
10
-11703.01515190165
20
17176.776695296638
30
0
11
-11927.168001537786
21
16927.168001537786
31
0
0
LINE
5
F61B
330
F5D6
100
AcDbEntity
100
AcDbLine
8
EKP_PANEL_ANTEN
10
-11927.168001537786
20
16927.168001537786
30
0
11
-12176.776695296638
21
16703.015151901647
31
0
0
LINE
5
F61C
330
F5D6
100
AcDbEntity
100
AcDbLine
8
EKP_PANEL_ANTEN
10
-12176.776695296638
20
16703.015151901647
30
0
11
-12183.140656327316
21
16679.680628122496
31
0
0
LINE
5
F61D
330
F5D6
100
AcDbEntity
100
AcDbLine
8
EKP_PANEL_ANTEN
10
-12183.140656327316
20
16679.680628122496
30
0
11
-12316.076731190387
21
16812.616702985568
31
0
0
LINE
5
F61E
330
F5D6
100
AcDbEntity
100
AcDbLine
8
EKP_PANEL_ANTEN
10
-12316.076731190387
20
16812.616702985568
30
0
11
-12292.74220741123
21
16827.465945390482
31
0
0
LINE
5
F61F
330
F5D6
100
AcDbEntity
100
AcDbLine
8
EKP_PANEL_ANTEN
10
-12292.74220741123
20
16827.465945390482
30
0
11
-11827.465945390482
21
17292.742207411233
31
0
0
LINE
5
F620
330
F5D6
100
AcDbEntity
100
AcDbLine
8
EKP_PANEL_ANTEN
10
-11827.465945390482
20
17292.742207411233
30
0
11
-11812.616702985564
21
17316.076731190387
31
0
0
LINE
5
F621
330
F5D6
100
AcDbEntity
100
AcDbLine
8
EKP_PANEL_ANTEN
10
-11692.408550183853
20
17187.383297014436
30
0
11
-12187.383297014436
21
16692.40855018385
31
0
0
LINE
5
F660
330
F5D6
100
AcDbEntity
100
AcDbLine
8
EKP_PANEL_ANTEN
10
-6350
20
16915
30
0
11
-5650
21
16915
31
0
0
LINE
5
F661
330
F5D6
100
AcDbEntity
100
AcDbLine
8
EKP_PANEL_ANTEN
10
-5650
20
16915
30
0
11
-5650
21
17085
31
0
0
LINE
5
F662
330
F5D6
100
AcDbEntity
100
AcDbLine
8
EKP_PANEL_ANTEN
10
-5650
20
17085
30
0
11
-6000
21
17103
31
0
0
LINE
5
F663
330
F5D6
100
AcDbEntity
100
AcDbLine
8
EKP_PANEL_ANTEN
10
-6000
20
17103
30
0
11
-6350
21
17085
31
0
0
LINE
5
F664
330
F5D6
100
AcDbEntity
100
AcDbLine
8
EKP_PANEL_ANTEN
10
-6350
20
17085
30
0
11
-6350
21
16915
31
0
0
LINE
5
F665
330
F5D6
100
AcDbEntity
100
AcDbLine
8
EKP_PANEL_ANTEN
10
-6000
20
17103
30
0
11
-6000
21
16915
31
0
0
LWPOLYLINE
5
F68B
330
F5D6
100
AcDbEntity
100
AcDbPolyline
8
EKP_PANEL_ANTEN
6
ByLayer
62
256
370
-1
90
4
70
1
10
7650
20
16650
10
7650
20
17350
10
8350
20
17350
10
8350
20
16650
0
LINE
5
F68C
330
F5D6
100
AcDbEntity
100
AcDbLine
8
EKP_PANEL_ANTEN
10
7665
20
16665
30
0
11
8335
21
17335
31
0
0
LINE
5
F68D
330
F5D6
100
AcDbEntity
100
AcDbLine
8
EKP_PANEL_ANTEN
10
7665
20
17335
30
0
11
8335
21
16665
31
0
0
LINE
5
F68E
330
F5D6
100
AcDbEntity
100
AcDbLine
8
EKP_PANEL_ANTEN
10
7673
20
16665
30
0
11
8335
21
17327
31
0
0
LINE
5
F68F
330
F5D6
100
AcDbEntity
100
AcDbLine
8
EKP_PANEL_ANTEN
10
7665
20
16673
30
0
11
8327
21
17335
31
0
0
LINE
5
F690
330
F5D6
100
AcDbEntity
100
AcDbLine
8
EKP_PANEL_ANTEN
10
7673
20
17335
30
0
11
8335
21
16673
31
0
0
LINE
5
F691
330
F5D6
100
AcDbEntity
100
AcDbLine
8
EKP_PANEL_ANTEN
10
7665
20
17327
30
0
11
8327
21
16665
31
0
0
CIRCLE
5
F692
330
F5D6
100
AcDbEntity
100
AcDbCircle
8
EKP_PANEL_ANTEN
10
8000
20
17000
30
0
40
18
0
LINE
5
F693
330
F5D6
100
AcDbEntity
100
AcDbLine
8
EKP_PANEL_ANTEN
10
7965
20
17000
30
0
11
8035
21
17000
31
0
0
LINE
5
F694
330
F5D6
100
AcDbEntity
100
AcDbLine
8
EKP_PANEL_ANTEN
10
8000
20
16965
30
0
11
8000
21
17035
31
0
0
LWPOLYLINE
5
F695
330
F5D6
100
AcDbEntity
100
AcDbPolyline
8
EKP_PANEL_ANTEN
6
ByLayer
62
256
370
-1
90
4
70
1
10
7665
20
16665
10
7665
20
17335
10
8335
20
17335
10
8335
20
16665
0
LWPOLYLINE
5
F6B4
330
F5D6
100
AcDbEntity
100
AcDbPolyline
8
EKP_PANEL_ANTEN
6
ByLayer
62
256
370
-1
90
4
70
1
10
8650
20
16650
10
8650
20
17350
10
9350
20
17350
10
9350
20
16650
0
LINE
5
F6B5
330
F5D6
100
AcDbEntity
100
AcDbLine
8
EKP_PANEL_ANTEN
10
8665
20
16665
30
0
11
9335
21
17335
31
0
0
LINE
5
F6B6
330
F5D6
100
AcDbEntity
100
AcDbLine
8
EKP_PANEL_ANTEN
10
8665
20
17335
30
0
11
9335
21
16665
31
0
0
LINE
5
F6B7
330
F5D6
100
AcDbEntity
100
AcDbLine
8
EKP_PANEL_ANTEN
10
8673
20
16665
30
0
11
9335
21
17327
31
0
0
LINE
5
F6B8
330
F5D6
100
AcDbEntity
100
AcDbLine
8
EKP_PANEL_ANTEN
10
8665
20
16673
30
0
11
9327
21
17335
31
0
0
LINE
5
F6B9
330
F5D6
100
AcDbEntity
100
AcDbLine
8
EKP_PANEL_ANTEN
10
8673
20
17335
30
0
11
9335
21
16673
31
0
0
LINE
5
F6BA
330
F5D6
100
AcDbEntity
100
AcDbLine
8
EKP_PANEL_ANTEN
10
8665
20
17327
30
0
11
9327
21
16665
31
0
0
CIRCLE
5
F6BB
330
F5D6
100
AcDbEntity
100
AcDbCircle
8
EKP_PANEL_ANTEN
10
9000
20
17000
30
0
40
18
0
LINE
5
F6BC
330
F5D6
100
AcDbEntity
100
AcDbLine
8
EKP_PANEL_ANTEN
10
8965
20
17000
30
0
11
9035
21
17000
31
0
0
LINE
5
F6BD
330
F5D6
100
AcDbEntity
100
AcDbLine
8
EKP_PANEL_ANTEN
10
9000
20
16965
30
0
11
9000
21
17035
31
0
0
LWPOLYLINE
5
F6BE
330
F5D6
100
AcDbEntity
100
AcDbPolyline
8
EKP_PANEL_ANTEN
6
ByLayer
62
256
370
-1
90
4
70
1
10
8665
20
16665
10
8665
20
17335
10
9335
20
17335
10
9335
20
16665
0
LINE
5
F6F0
330
F5D6
100
AcDbEntity
100
AcDbLine
8
EKP_PANEL_ANTEN
10
16187.383297014436
20
17316.076731190387
30
0
11
16320.319371877507
21
17183.140656327316
31
0
0
LINE
5
F6F1
330
F5D6
100
AcDbEntity
100
AcDbLine
8
EKP_PANEL_ANTEN
10
16320.319371877507
20
17183.140656327316
30
0
11
16296.98484809835
21
17176.776695296638
31
0
0
LINE
5
F6F2
330
F5D6
100
AcDbEntity
100
AcDbLine
8
EKP_PANEL_ANTEN
10
16296.98484809835
20
17176.776695296638
30
0
11
16072.831998462214
21
16927.168001537786
31
0
0
LINE
5
F6F3
330
F5D6
100
AcDbEntity
100
AcDbLine
8
EKP_PANEL_ANTEN
10
16072.831998462214
20
16927.168001537786
30
0
11
15823.223304703362
21
16703.015151901647
31
0
0
LINE
5
F6F4
330
F5D6
100
AcDbEntity
100
AcDbLine
8
EKP_PANEL_ANTEN
10
15823.223304703362
20
16703.015151901647
30
0
11
15816.859343672684
21
16679.680628122496
31
0
0
LINE
5
F6F5
330
F5D6
100
AcDbEntity
100
AcDbLine
8
EKP_PANEL_ANTEN
10
15816.859343672684
20
16679.680628122496
30
0
11
15683.923268809613
21
16812.616702985568
31
0
0
LINE
5
F6F6
330
F5D6
100
AcDbEntity
100
AcDbLine
8
EKP_PANEL_ANTEN
10
15683.923268809613
20
16812.616702985568
30
0
11
15707.25779258877
21
16827.465945390482
31
0
0
LINE
5
F6F7
330
F5D6
100
AcDbEntity
100
AcDbLine
8
EKP_PANEL_ANTEN
10
15707.25779258877
20
16827.465945390482
30
0
11
16172.534054609518
21
17292.742207411233
31
0
0
LINE
5
F6F8
330
F5D6
100
AcDbEntity
100
AcDbLine
8
EKP_PANEL_ANTEN
10
16172.534054609518
20
17292.742207411233
30
0
11
16187.383297014436
21
17316.076731190387
31
0
0
LINE
5
F6F9
330
F5D6
100
AcDbEntity
100
AcDbLine
8
EKP_PANEL_ANTEN
10
16307.591449816147
20
17187.383297014436
30
0
11
15812.616702985564
21
16692.40855018385
31
0
0
LWPOLYLINE
5
F73D
330
F5D6
100
AcDbEntity
100
AcDbPolyline
8
EKP_PANEL_ANTEN
6
ByLayer
62
256
370
-1
90
4
70
1
10
-8250
20
8150
10
-8250
20
8850
10
-7550
20
8850
10
-7550
20
8150
0
LINE
5
F73E
330
F5D6
100
AcDbEntity
100
AcDbLine
8
EKP_PANEL_ANTEN
10
-8235
20
8165
30
0
11
-7565
21
8835
31
0
0
LINE
5
F73F
330
F5D6
100
AcDbEntity
100
AcDbLine
8
EKP_PANEL_ANTEN
10
-8235
20
8835
30
0
11
-7565
21
8165
31
0
0
LINE
5
F740
330
F5D6
100
AcDbEntity
100
AcDbLine
8
EKP_PANEL_ANTEN
10
-8227
20
8165
30
0
11
-7565
21
8827
31
0
0
LINE
5
F741
330
F5D6
100
AcDbEntity
100
AcDbLine
8
EKP_PANEL_ANTEN
10
-8235
20
8173
30
0
11
-7573
21
8835
31
0
0
LINE
5
F742
330
F5D6
100
AcDbEntity
100
AcDbLine
8
EKP_PANEL_ANTEN
10
-8227
20
8835
30
0
11
-7565
21
8173
31
0
0
LINE
5
F743
330
F5D6
100
AcDbEntity
100
AcDbLine
8
EKP_PANEL_ANTEN
10
-8235
20
8827
30
0
11
-7573
21
8165
31
0
0
CIRCLE
5
F744
330
F5D6
100
AcDbEntity
100
AcDbCircle
8
EKP_PANEL_ANTEN
10
-7900
20
8500
30
0
40
18
0
LINE
5
F745
330
F5D6
100
AcDbEntity
100
AcDbLine
8
EKP_PANEL_ANTEN
10
-7935
20
8500
30
0
11
-7865
21
8500
31
0
0
LINE
5
F746
330
F5D6
100
AcDbEntity
100
AcDbLine
8
EKP_PANEL_ANTEN
10
-7900
20
8465
30
0
11
-7900
21
8535
31
0
0
LWPOLYLINE
5
F747
330
F5D6
100
AcDbEntity
100
AcDbPolyline
8
EKP_PANEL_ANTEN
6
ByLayer
62
256
370
-1
90
4
70
1
10
-8235
20
8165
10
-8235
20
8835
10
-7565
20
8835
10
-7565
20
8165
0
LWPOLYLINE
5
F766
330
F5D6
100
AcDbEntity
100
AcDbPolyline
8
EKP_PANEL_ANTEN
6
ByLayer
62
256
370
-1
90
4
70
1
10
-7350
20
8150
10
-7350
20
8850
10
-6650
20
8850
10
-6650
20
8150
0
LINE
5
F767
330
F5D6
100
AcDbEntity
100
AcDbLine
8
EKP_PANEL_ANTEN
10
-7335
20
8165
30
0
11
-6665
21
8835
31
0
0
LINE
5
F768
330
F5D6
100
AcDbEntity
100
AcDbLine
8
EKP_PANEL_ANTEN
10
-7335
20
8835
30
0
11
-6665
21
8165
31
0
0
LINE
5
F769
330
F5D6
100
AcDbEntity
100
AcDbLine
8
EKP_PANEL_ANTEN
10
-7327
20
8165
30
0
11
-6665
21
8827
31
0
0
LINE
5
F76A
330
F5D6
100
AcDbEntity
100
AcDbLine
8
EKP_PANEL_ANTEN
10
-7335
20
8173
30
0
11
-6673
21
8835
31
0
0
LINE
5
F76B
330
F5D6
100
AcDbEntity
100
AcDbLine
8
EKP_PANEL_ANTEN
10
-7327
20
8835
30
0
11
-6665
21
8173
31
0
0
LINE
5
F76C
330
F5D6
100
AcDbEntity
100
AcDbLine
8
EKP_PANEL_ANTEN
10
-7335
20
8827
30
0
11
-6673
21
8165
31
0
0
CIRCLE
5
F76D
330
F5D6
100
AcDbEntity
100
AcDbCircle
8
EKP_PANEL_ANTEN
10
-7000
20
8500
30
0
40
18
0
LINE
5
F76E
330
F5D6
100
AcDbEntity
100
AcDbLine
8
EKP_PANEL_ANTEN
10
-7035
20
8500
30
0
11
-6965
21
8500
31
0
0
LINE
5
F76F
330
F5D6
100
AcDbEntity
100
AcDbLine
8
EKP_PANEL_ANTEN
10
-7000
20
8465
30
0
11
-7000
21
8535
31
0
0
LWPOLYLINE
5
F770
330
F5D6
100
AcDbEntity
100
AcDbPolyline
8
EKP_PANEL_ANTEN
6
ByLayer
62
256
370
-1
90
4
70
1
10
-7335
20
8165
10
-7335
20
8835
10
-6665
20
8835
10
-6665
20
8165
0
LWPOLYLINE
5
F78F
330
F5D6
100
AcDbEntity
100
AcDbPolyline
8
EKP_PANEL_ANTEN
6
ByLayer
62
256
370
-1
90
4
70
1
10
-6450
20
8150
10
-6450
20
8850
10
-5750
20
8850
10
-5750
20
8150
0
LINE
5
F790
330
F5D6
100
AcDbEntity
100
AcDbLine
8
EKP_PANEL_ANTEN
10
-6435
20
8165
30
0
11
-5765
21
8835
31
0
0
LINE
5
F791
330
F5D6
100
AcDbEntity
100
AcDbLine
8
EKP_PANEL_ANTEN
10
-6435
20
8835
30
0
11
-5765
21
8165
31
0
0
LINE
5
F792
330
F5D6
100
AcDbEntity
100
AcDbLine
8
EKP_PANEL_ANTEN
10
-6427
20
8165
30
0
11
-5765
21
8827
31
0
0
LINE
5
F793
330
F5D6
100
AcDbEntity
100
AcDbLine
8
EKP_PANEL_ANTEN
10
-6435
20
8173
30
0
11
-5773
21
8835
31
0
0
LINE
5
F794
330
F5D6
100
AcDbEntity
100
AcDbLine
8
EKP_PANEL_ANTEN
10
-6427
20
8835
30
0
11
-5765
21
8173
31
0
0
LINE
5
F795
330
F5D6
100
AcDbEntity
100
AcDbLine
8
EKP_PANEL_ANTEN
10
-6435
20
8827
30
0
11
-5773
21
8165
31
0
0
CIRCLE
5
F796
330
F5D6
100
AcDbEntity
100
AcDbCircle
8
EKP_PANEL_ANTEN
10
-6100
20
8500
30
0
40
18
0
LINE
5
F797
330
F5D6
100
AcDbEntity
100
AcDbLine
8
EKP_PANEL_ANTEN
10
-6135
20
8500
30
0
11
-6065
21
8500
31
0
0
LINE
5
F798
330
F5D6
100
AcDbEntity
100
AcDbLine
8
EKP_PANEL_ANTEN
10
-6100
20
8465
30
0
11
-6100
21
8535
31
0
0
LWPOLYLINE
5
F799
330
F5D6
100
AcDbEntity
100
AcDbPolyline
8
EKP_PANEL_ANTEN
6
ByLayer
62
256
370
-1
90
4
70
1
10
-6435
20
8165
10
-6435
20
8835
10
-5765
20
8835
10
-5765
20
8165
0
LINE
5
F7CB
330
F5D6
100
AcDbEntity
100
AcDbLine
8
EKP_PANEL_ANTEN
10
2792.03587054225
20
8739.833177397182
30
0
11
3449.820705092386
21
8500.419077069213
31
0
0
LINE
5
F7CC
330
F5D6
100
AcDbEntity
100
AcDbLine
8
EKP_PANEL_ANTEN
10
3449.820705092386
20
8500.419077069213
30
0
11
3507.96412945775
21
8660.166822602818
31
0
0
LINE
5
F7CD
330
F5D6
100
AcDbEntity
100
AcDbLine
8
EKP_PANEL_ANTEN
10
3507.96412945775
20
8660.166822602818
30
0
11
3185.2280747625437
21
8796.78833994095
31
0
0
LINE
5
F7CE
330
F5D6
100
AcDbEntity
100
AcDbLine
8
EKP_PANEL_ANTEN
10
3185.2280747625437
20
8796.78833994095
30
0
11
2850.179294907614
21
8899.580922930787
31
0
0
LINE
5
F7CF
330
F5D6
100
AcDbEntity
100
AcDbLine
8
EKP_PANEL_ANTEN
10
2850.179294907614
20
8899.580922930787
30
0
11
2792.03587054225
21
8739.833177397182
31
0
0
LINE
5
F7D0
330
F5D6
100
AcDbEntity
100
AcDbLine
8
EKP_PANEL_ANTEN
10
3185.2280747625437
20
8796.78833994095
30
0
11
3120.928287817318
21
8620.126127233198
31
0
0
LINE
5
F7F1
330
F5D6
100
AcDbEntity
100
AcDbLine
8
EKP_PANEL_ANTEN
10
3650
20
8415
30
0
11
4350
21
8415
31
0
0
LINE
5
F7F2
330
F5D6
100
AcDbEntity
100
AcDbLine
8
EKP_PANEL_ANTEN
10
4350
20
8415
30
0
11
4350
21
8585
31
0
0
LINE
5
F7F3
330
F5D6
100
AcDbEntity
100
AcDbLine
8
EKP_PANEL_ANTEN
10
4350
20
8585
30
0
11
4000
21
8603
31
0
0
LINE
5
F7F4
330
F5D6
100
AcDbEntity
100
AcDbLine
8
EKP_PANEL_ANTEN
10
4000
20
8603
30
0
11
3650
21
8585
31
0
0
LINE
5
F7F5
330
F5D6
100
AcDbEntity
100
AcDbLine
8
EKP_PANEL_ANTEN
10
3650
20
8585
30
0
11
3650
21
8415
31
0
0
LINE
5
F7F6
330
F5D6
100
AcDbEntity
100
AcDbLine
8
EKP_PANEL_ANTEN
10
4000
20
8603
30
0
11
4000
21
8415
31
0
0
LINE
5
F817
330
F5D6
100
AcDbEntity
100
AcDbLine
8
EKP_PANEL_ANTEN
10
4550.179294907614
20
8500.419077069213
30
0
11
5207.96412945775
21
8739.833177397182
31
0
0
LINE
5
F818
330
F5D6
100
AcDbEntity
100
AcDbLine
8
EKP_PANEL_ANTEN
10
5207.96412945775
20
8739.833177397182
30
0
11
5149.820705092386
21
8899.580922930787
31
0
0
LINE
5
F819
330
F5D6
100
AcDbEntity
100
AcDbLine
8
EKP_PANEL_ANTEN
10
5149.820705092386
20
8899.580922930787
30
0
11
4814.771925237456
21
8796.78833994095
31
0
0
LINE
5
F81A
330
F5D6
100
AcDbEntity
100
AcDbLine
8
EKP_PANEL_ANTEN
10
4814.771925237456
20
8796.78833994095
30
0
11
4492.03587054225
21
8660.166822602818
31
0
0
LINE
5
F81B
330
F5D6
100
AcDbEntity
100
AcDbLine
8
EKP_PANEL_ANTEN
10
4492.03587054225
20
8660.166822602818
30
0
11
4550.179294907614
21
8500.419077069213
31
0
0
LINE
5
F81C
330
F5D6
100
AcDbEntity
100
AcDbLine
8
EKP_PANEL_ANTEN
10
4814.771925237456
20
8796.78833994095
30
0
11
4879.071712182682
21
8620.126127233198
31
0
0
LINE
5
F83F
330
F5D6
100
AcDbEntity
100
AcDbLine
8
EKP_PANEL_ANTEN
10
-13812.616702985564
20
316.07673119038674
30
0
11
-13679.680628122493
21
183.1406563273158
31
0
0
LINE
5
F840
330
F5D6
100
AcDbEntity
100
AcDbLine
8
EKP_PANEL_ANTEN
10
-13679.680628122493
20
183.1406563273158
30
0
11
-13703.01515190165
21
176.7766952966369
31
0
0
LINE
5
F841
330
F5D6
100
AcDbEntity
100
AcDbLine
8
EKP_PANEL_ANTEN
10
-13703.01515190165
20
176.7766952966369
30
0
11
-13927.168001537786
21
-72.83199846221439
31
0
0
LINE
5
F842
330
F5D6
100
AcDbEntity
100
AcDbLine
8
EKP_PANEL_ANTEN
10
-13927.168001537786
20
-72.83199846221439
30
0
11
-14176.776695296638
21
-296.98484809834997
31
0
0
LINE
5
F843
330
F5D6
100
AcDbEntity
100
AcDbLine
8
EKP_PANEL_ANTEN
10
-14176.776695296638
20
-296.98484809834997
30
0
11
-14183.140656327316
21
-320.31937187750606
31
0
0
LINE
5
F844
330
F5D6
100
AcDbEntity
100
AcDbLine
8
EKP_PANEL_ANTEN
10
-14183.140656327316
20
-320.31937187750606
30
0
11
-14316.076731190387
21
-187.38329701443513
31
0
0
LINE
5
F845
330
F5D6
100
AcDbEntity
100
AcDbLine
8
EKP_PANEL_ANTEN
10
-14316.076731190387
20
-187.38329701443513
30
0
11
-14292.74220741123
21
-172.5340546095176
31
0
0
LINE
5
F846
330
F5D6
100
AcDbEntity
100
AcDbLine
8
EKP_PANEL_ANTEN
10
-14292.74220741123
20
-172.5340546095176
30
0
11
-13827.465945390482
21
292.74220741123065
31
0
0
LINE
5
F847
330
F5D6
100
AcDbEntity
100
AcDbLine
8
EKP_PANEL_ANTEN
10
-13827.465945390482
20
292.74220741123065
30
0
11
-13812.616702985564
21
316.07673119038674
31
0
0
LINE
5
F848
330
F5D6
100
AcDbEntity
100
AcDbLine
8
EKP_PANEL_ANTEN
10
-13692.408550183853
20
187.3832970144351
30
0
11
-14187.383297014436
21
-307.59144981614816
31
0
0
LINE
5
F887
330
F5D6
100
AcDbEntity
100
AcDbLine
8
EKP_PANEL_ANTEN
10
-3812.616702985565
20
316.07673119038674
30
0
11
-3679.6806281224935
21
183.1406563273158
31
0
0
LINE
5
F888
330
F5D6
100
AcDbEntity
100
AcDbLine
8
EKP_PANEL_ANTEN
10
-3679.6806281224935
20
183.1406563273158
30
0
11
-3703.01515190165
21
176.7766952966369
31
0
0
LINE
5
F889
330
F5D6
100
AcDbEntity
100
AcDbLine
8
EKP_PANEL_ANTEN
10
-3703.01515190165
20
176.7766952966369
30
0
11
-3927.1680015377856
21
-72.83199846221439
31
0
0
LINE
5
F88A
330
F5D6
100
AcDbEntity
100
AcDbLine
8
EKP_PANEL_ANTEN
10
-3927.1680015377856
20
-72.83199846221439
30
0
11
-4176.776695296637
21
-296.98484809834997
31
0
0
LINE
5
F88B
330
F5D6
100
AcDbEntity
100
AcDbLine
8
EKP_PANEL_ANTEN
10
-4176.776695296637
20
-296.98484809834997
30
0
11
-4183.140656327316
21
-320.31937187750606
31
0
0
LINE
5
F88C
330
F5D6
100
AcDbEntity
100
AcDbLine
8
EKP_PANEL_ANTEN
10
-4183.140656327316
20
-320.31937187750606
30
0
11
-4316.076731190386
21
-187.38329701443513
31
0
0
LINE
5
F88D
330
F5D6
100
AcDbEntity
100
AcDbLine
8
EKP_PANEL_ANTEN
10
-4316.076731190386
20
-187.38329701443513
30
0
11
-4292.742207411231
21
-172.5340546095176
31
0
0
LINE
5
F88E
330
F5D6
100
AcDbEntity
100
AcDbLine
8
EKP_PANEL_ANTEN
10
-4292.742207411231
20
-172.5340546095176
30
0
11
-3827.4659453904824
21
292.74220741123065
31
0
0
LINE
5
F88F
330
F5D6
100
AcDbEntity
100
AcDbLine
8
EKP_PANEL_ANTEN
10
-3827.4659453904824
20
292.74220741123065
30
0
11
-3812.616702985565
21
316.07673119038674
31
0
0
LINE
5
F890
330
F5D6
100
AcDbEntity
100
AcDbLine
8
EKP_PANEL_ANTEN
10
-3692.4085501838517
20
187.3832970144351
30
0
11
-4187.383297014435
21
-307.59144981614816
31
0
0
LINE
5
F8CE
330
F5D6
100
AcDbEntity
100
AcDbLine
8
EKP_PANEL_ANTEN
10
5687.383297014435
20
316.07673119038674
30
0
11
5820.319371877506
21
183.1406563273158
31
0
0
LINE
5
F8CF
330
F5D6
100
AcDbEntity
100
AcDbLine
8
EKP_PANEL_ANTEN
10
5820.319371877506
20
183.1406563273158
30
0
11
5796.98484809835
21
176.7766952966369
31
0
0
LINE
5
F8D0
330
F5D6
100
AcDbEntity
100
AcDbLine
8
EKP_PANEL_ANTEN
10
5796.98484809835
20
176.7766952966369
30
0
11
5572.831998462214
21
-72.83199846221439
31
0
0
LINE
5
F8D1
330
F5D6
100
AcDbEntity
100
AcDbLine
8
EKP_PANEL_ANTEN
10
5572.831998462214
20
-72.83199846221439
30
0
11
5323.223304703363
21
-296.98484809834997
31
0
0
LINE
5
F8D2
330
F5D6
100
AcDbEntity
100
AcDbLine
8
EKP_PANEL_ANTEN
10
5323.223304703363
20
-296.98484809834997
30
0
11
5316.859343672684
21
-320.31937187750606
31
0
0
LINE
5
F8D3
330
F5D6
100
AcDbEntity
100
AcDbLine
8
EKP_PANEL_ANTEN
10
5316.859343672684
20
-320.31937187750606
30
0
11
5183.923268809614
21
-187.38329701443513
31
0
0
LINE
5
F8D4
330
F5D6
100
AcDbEntity
100
AcDbLine
8
EKP_PANEL_ANTEN
10
5183.923268809614
20
-187.38329701443513
30
0
11
5207.257792588769
21
-172.5340546095176
31
0
0
LINE
5
F8D5
330
F5D6
100
AcDbEntity
100
AcDbLine
8
EKP_PANEL_ANTEN
10
5207.257792588769
20
-172.5340546095176
30
0
11
5672.534054609518
21
292.74220741123065
31
0
0
LINE
5
F8D6
330
F5D6
100
AcDbEntity
100
AcDbLine
8
EKP_PANEL_ANTEN
10
5672.534054609518
20
292.74220741123065
30
0
11
5687.383297014435
21
316.07673119038674
31
0
0
LINE
5
F8D7
330
F5D6
100
AcDbEntity
100
AcDbLine
8
EKP_PANEL_ANTEN
10
5807.591449816148
20
187.3832970144351
30
0
11
5312.616702985565
21
-307.59144981614816
31
0
0
ENDSEC
0
SECTION
2
OBJECTS
0
DICTIONARY
5
F5C4
330
0
100
AcDbDictionary
281
1
3
ACAD_GROUP
350
F5DA
0
DICTIONARY
5
F5DA
330
F5C4
100
AcDbDictionary
281
1
0
ENDSEC
0
EOF