0
SECTION
2
HEADER
9
$HANDSEED
5
10045
9
$INSUNITS
70
4
9
$ACADVER
1
AC1021
9
$DWGCODEPAGE
3
UTF-8
0
ENDSEC
0
SECTION
2
CLASSES
0
ENDSEC
0
SECTION
2
TABLES
0
TABLE
2
LTYPE
5
10043
330
0
100
AcDbSymbolTable
70
5
0
LTYPE
5
FD17
330
10043
100
AcDbSymbolTableRecord
100
AcDbLinetypeTableRecord
2
CONTINUOUS
3
______
70
0
72
65
73
0
40
0
0
LTYPE
5
FD18
330
10043
100
AcDbSymbolTableRecord
100
AcDbLinetypeTableRecord
2
DASHED
3
_ _ _ 
70
0
72
65
73
2
40
10
49
5
74
0
49
-5
74
0
0
LTYPE
5
FD19
330
10043
100
AcDbSymbolTableRecord
100
AcDbLinetypeTableRecord
2
DOTTED
3
. . . 
70
0
72
65
73
2
40
5
49
0
74
0
49
-5
74
0
0
LTYPE
5
FD1B
330
10043
100
AcDbSymbolTableRecord
100
AcDbLinetypeTableRecord
2
ByBlock
3

70
0
72
65
73
0
40
0
0
LTYPE
5
FD1C
330
10043
100
AcDbSymbolTableRecord
100
AcDbLinetypeTableRecord
2
ByLayer
3

70
0
72
65
73
0
40
0
0
ENDTAB
0
TABLE
2
LAYER
5
10044
330
0
100
AcDbSymbolTable
70
21
0
LAYER
5
FD1A
330
10044
100
AcDbSymbolTableRecord
100
AcDbLayerTableRecord
2
0
62
7
70
0
6
CONTINUOUS
390
1
0
LAYER
5
FD2D
330
10044
100
AcDbSymbolTableRecord
100
AcDbLayerTableRecord
2
ZEMIN_PLATFORM
62
8
70
0
6
CONTINUOUS
390
1
0
LAYER
5
FD2E
330
10044
100
AcDbSymbolTableRecord
100
AcDbLayerTableRecord
2
KORKULUK_KAPI
62
4
70
0
6
CONTINUOUS
390
1
0
LAYER
5
FD2F
330
10044
100
AcDbSymbolTableRecord
100
AcDbLayerTableRecord
2
CELIK_KIRIS_KOLON
62
9
70
0
6
CONTINUOUS
390
1
0
LAYER
5
FD30
330
10044
100
AcDbSymbolTableRecord
100
AcDbLayerTableRecord
2
MONTAJ_BORULARI
62
2
70
0
6
CONTINUOUS
390
1
0
LAYER
5
FD31
330
10044
100
AcDbSymbolTableRecord
100
AcDbLayerTableRecord
2
KABLO_TAVALARI
62
6
70
0
6
CONTINUOUS
390
1
0
LAYER
5
FD32
330
10044
100
AcDbSymbolTableRecord
100
AcDbLayerTableRecord
2
YURUYUS_KORIDORU
62
3
70
0
6
DASHED
390
1
0
LAYER
5
FD33
330
10044
100
AcDbSymbolTableRecord
100
AcDbLayerTableRecord
2
OLCULER
62
1
70
0
6
CONTINUOUS
390
1
0
LAYER
5
FD34
330
10044
100
AcDbSymbolTableRecord
100
AcDbLayerTableRecord
2
METIN_BILGI
62
7
70
0
6
CONTINUOUS
390
1
0
LAYER
5
FD35
330
10044
100
AcDbSymbolTableRecord
100
AcDbLayerTableRecord
2
EKP_TURKCELL_RRU
62
5
70
0
6
CONTINUOUS
390
1
0
LAYER
5
FD36
330
10044
100
AcDbSymbolTableRecord
100
AcDbLayerTableRecord
2
EKP_VODAFONE_RRU
62
1
70
0
6
CONTINUOUS
390
1
0
LAYER
5
FD37
330
10044
100
AcDbSymbolTableRecord
100
AcDbLayerTableRecord
2
EKP_TURK_TELEKOM_RRU
62
4
70
0
6
CONTINUOUS
390
1
0
LAYER
5
FD38
330
10044
100
AcDbSymbolTableRecord
100
AcDbLayerTableRecord
2
EKP_POI_TASIYICI_SASE
62
30
70
0
6
CONTINUOUS
390
1
0
LAYER
5
FD39
330
10044
100
AcDbSymbolTableRecord
100
AcDbLayerTableRecord
2
EKP_POI_MODULLERI
62
40
70
0
6
CONTINUOUS
390
1
0
LAYER
5
FD3A
330
10044
100
AcDbSymbolTableRecord
100
AcDbLayerTableRecord
2
EKP_RECTIFIER_ELTEK_20U
62
3
70
0
6
CONTINUOUS
390
1
0
LAYER
5
FD3B
330
10044
100
AcDbSymbolTableRecord
100
AcDbLayerTableRecord
2
EKP_RECTIFIER_MTS9304A
62
94
70
0
6
CONTINUOUS
390
1
0
LAYER
5
FD3C
330
10044
100
AcDbSymbolTableRecord
100
AcDbLayerTableRecord
2
BLOK_OZEL_PLATFORM
62
140
70
0
6
CONTINUOUS
390
1
0
LAYER
5
FD3D
330
10044
100
AcDbSymbolTableRecord
100
AcDbLayerTableRecord
2
EKP_MATSING_ANTEN
62
2
70
0
6
CONTINUOUS
390
1
0
LAYER
5
FD3E
330
10044
100
AcDbSymbolTableRecord
100
AcDbLayerTableRecord
2
EKP_PANEL_ANTEN
62
6
70
0
6
CONTINUOUS
390
1
0
LAYER
5
FD3F
330
10044
100
AcDbSymbolTableRecord
100
AcDbLayerTableRecord
2
EKP_ANTEN_TASIYICI_KOL
62
141
70
0
6
CONTINUOUS
390
1
0
LAYER
5
FD40
330
10044
100
AcDbSymbolTableRecord
100
AcDbLayerTableRecord
2
EKP_DIGER_EKIPMANLAR
62
7
70
0
6
CONTINUOUS
390
1
0
ENDTAB
0
TABLE
2
VPORT
5
FD1D
330
0
100
AcDbSymbolTable
70
1
0
VPORT
5
FD23
330
FD1D
100
AcDbSymbolTableRecord
100
AcDbViewportTableRecord
2
*ACTIVE
40
1000
70
0
0
ENDTAB
0
TABLE
2
STYLE
5
FD1E
330
0
100
AcDbSymbolTable
70
3
0
STYLE
5
FD24
330
FD1E
100
AcDbSymbolTableRecord
100
AcDbTextStyleTableRecord
2
standard
70
0
40
0
41
1
50
0
71
0
42
1
3
calibrib.ttf
4

1001
ACAD
1000
Calibri
1071
33554466
0
STYLE
5
FD25
330
FD1E
100
AcDbSymbolTableRecord
100
AcDbTextStyleTableRecord
2
STANDARD
70
0
40
0
41
1
50
0
71
0
42
1
3
calibrib.ttf
4

1001
ACAD
1000
Calibri
1071
33554466
0
STYLE
5
FD26
330
FD1E
100
AcDbSymbolTableRecord
100
AcDbTextStyleTableRecord
2
CALIBRI_BOLD
70
0
40
0
41
1
50
0
71
0
42
1
3
calibrib.ttf
4

1001
ACAD
1000
Calibri
1071
33554466
0
ENDTAB
0
TABLE
2
VIEW
5
FD1F
330
0
100
AcDbSymbolTable
70
0
0
ENDTAB
0
TABLE
2
UCS
5
FD20
330
0
100
AcDbSymbolTable
70
0
0
ENDTAB
0
TABLE
2
APPID
5
FD21
330
0
100
AcDbSymbolTable
70
1
0
APPID
5
FD27
330
FD21
100
AcDbSymbolTableRecord
100
AcDbRegAppTableRecord
2
ACAD
70
0
0
ENDTAB
0
TABLE
2
DIMSTYLE
5
FD22
330
0
100
AcDbSymbolTable
100
AcDbDimStyleTable
70
0
71
1
0
ENDTAB
0
TABLE
2
BLOCK_RECORD
5
10040
330
0
100
AcDbSymbolTable
70
2
0
BLOCK_RECORD
5
10041
330
10040
100
AcDbSymbolTableRecord
100
AcDbBlockTableRecord
2
*Model_Space
70
0
280
0
281
1
0
BLOCK_RECORD
5
10042
330
10040
100
AcDbSymbolTableRecord
100
AcDbBlockTableRecord
2
*Paper_Space
70
0
280
0
281
1
0
ENDTAB
0
ENDSEC
0
SECTION
2
BLOCKS
0
BLOCK
5
FD28
330
0
100
AcDbEntity
100
AcDbBlockBegin
2
*Model_Space
70
0
10
0
20
0
30
0
3
*Model_Space
1

0
ENDBLK
5
FD29
330
0
100
AcDbEntity
100
AcDbBlockEnd
0
BLOCK
5
FD2A
330
0
100
AcDbEntity
100
AcDbBlockBegin
2
*Paper_Space
70
0
10
0
20
0
30
0
3
*Paper_Space
1

0
ENDBLK
5
FD2B
330
0
100
AcDbEntity
100
AcDbBlockEnd
0
ENDSEC
0
SECTION
2
ENTITIES
0
3DFACE
5
FD4E
330
FD28
100
AcDbEntity
100
AcDbFace
8
CELIK_KIRIS_KOLON
10
-14070
20
238.64853865045978
30
-83.08504678941937
11
-13930
21
238.64853865045978
31
-83.08504678941937
12
-13930
22
-83.08504678941932
32
238.64853865045978
13
-14070
23
-83.08504678941932
33
238.64853865045978
0
3DFACE
5
FD4F
330
FD28
100
AcDbEntity
100
AcDbFace
8
CELIK_KIRIS_KOLON
10
-14061
20
98.99494936611666
30
56.56854249492379
11
-14049
21
98.99494936611666
31
56.56854249492379
12
-14049
22
234.05234457274724
32
276.47875144394004
13
-14061
23
234.05234457274724
33
276.47875144394004
0
3DFACE
5
FD50
330
FD28
100
AcDbEntity
100
AcDbFace
8
CELIK_KIRIS_KOLON
10
-13951
20
98.99494936611666
30
56.56854249492379
11
-13939
21
98.99494936611666
31
56.56854249492379
12
-13939
22
234.05234457274724
32
276.47875144394004
13
-13951
23
234.05234457274724
33
276.47875144394004
0
3DFACE
5
FD7D
330
FD28
100
AcDbEntity
100
AcDbFace
8
CELIK_KIRIS_KOLON
10
-14065
20
371.56772670457445
30
109.33161594775356
11
-13935
21
371.56772670457445
31
109.33161594775356
12
-13935
22
501.56772670457445
32
109.33161594775356
13
-14065
23
501.56772670457445
33
109.33161594775356
0
3DFACE
5
FD7E
330
FD28
100
AcDbEntity
100
AcDbFace
8
CELIK_KIRIS_KOLON
10
-14065
20
371.56772670457445
30
219.33161594775356
11
-13935
21
371.56772670457445
31
219.33161594775356
12
-13935
22
501.56772670457445
32
219.33161594775356
13
-14065
23
501.56772670457445
33
219.33161594775356
0
3DFACE
5
FD7F
330
FD28
100
AcDbEntity
100
AcDbFace
8
CELIK_KIRIS_KOLON
10
-14065
20
371.56772670457445
30
109.33161594775356
11
-13935
21
371.56772670457445
31
109.33161594775356
12
-13935
22
371.56772670457445
32
219.33161594775356
13
-14065
23
371.56772670457445
33
219.33161594775356
0
3DFACE
5
FD80
330
FD28
100
AcDbEntity
100
AcDbFace
8
CELIK_KIRIS_KOLON
10
-14065
20
501.56772670457445
30
109.33161594775356
11
-13935
21
501.56772670457445
31
109.33161594775356
12
-13935
22
501.56772670457445
32
219.33161594775356
13
-14065
23
501.56772670457445
33
219.33161594775356
0
3DFACE
5
FD81
330
FD28
100
AcDbEntity
100
AcDbFace
8
CELIK_KIRIS_KOLON
10
-14065
20
371.56772670457445
30
109.33161594775356
11
-14065
21
501.56772670457445
31
109.33161594775356
12
-14065
22
501.56772670457445
32
219.33161594775356
13
-14065
23
371.56772670457445
33
219.33161594775356
0
3DFACE
5
FD82
330
FD28
100
AcDbEntity
100
AcDbFace
8
CELIK_KIRIS_KOLON
10
-13935
20
371.56772670457445
30
109.33161594775356
11
-13935
21
501.56772670457445
31
109.33161594775356
12
-13935
22
501.56772670457445
32
219.33161594775356
13
-13935
23
371.56772670457445
33
219.33161594775356
0
LINE
5
FD83
330
FD28
100
AcDbEntity
100
AcDbLine
8
CELIK_KIRIS_KOLON
10
-14065
20
371.56772670457445
30
109.33161594775356
11
-13935
21
371.56772670457445
31
109.33161594775356
0
LINE
5
FD84
330
FD28
100
AcDbEntity
100
AcDbLine
8
CELIK_KIRIS_KOLON
10
-13935
20
371.56772670457445
30
109.33161594775356
11
-13935
21
501.56772670457445
31
109.33161594775356
0
LINE
5
FD85
330
FD28
100
AcDbEntity
100
AcDbLine
8
CELIK_KIRIS_KOLON
10
-13935
20
501.56772670457445
30
109.33161594775356
11
-14065
21
501.56772670457445
31
109.33161594775356
0
LINE
5
FD86
330
FD28
100
AcDbEntity
100
AcDbLine
8
CELIK_KIRIS_KOLON
10
-14065
20
501.56772670457445
30
109.33161594775356
11
-14065
21
371.56772670457445
31
109.33161594775356
0
LINE
5
FD87
330
FD28
100
AcDbEntity
100
AcDbLine
8
CELIK_KIRIS_KOLON
10
-14065
20
371.56772670457445
30
219.33161594775356
11
-13935
21
371.56772670457445
31
219.33161594775356
0
LINE
5
FD88
330
FD28
100
AcDbEntity
100
AcDbLine
8
CELIK_KIRIS_KOLON
10
-13935
20
371.56772670457445
30
219.33161594775356
11
-13935
21
501.56772670457445
31
219.33161594775356
0
LINE
5
FD89
330
FD28
100
AcDbEntity
100
AcDbLine
8
CELIK_KIRIS_KOLON
10
-13935
20
501.56772670457445
30
219.33161594775356
11
-14065
21
501.56772670457445
31
219.33161594775356
0
LINE
5
FD8A
330
FD28
100
AcDbEntity
100
AcDbLine
8
CELIK_KIRIS_KOLON
10
-14065
20
501.56772670457445
30
219.33161594775356
11
-14065
21
371.56772670457445
31
219.33161594775356
0
LINE
5
FD8B
330
FD28
100
AcDbEntity
100
AcDbLine
8
CELIK_KIRIS_KOLON
10
-14065
20
371.56772670457445
30
109.33161594775356
11
-14065
21
371.56772670457445
31
219.33161594775356
0
LINE
5
FD8C
330
FD28
100
AcDbEntity
100
AcDbLine
8
CELIK_KIRIS_KOLON
10
-13935
20
371.56772670457445
30
109.33161594775356
11
-13935
21
371.56772670457445
31
219.33161594775356
0
LINE
5
FD8D
330
FD28
100
AcDbEntity
100
AcDbLine
8
CELIK_KIRIS_KOLON
10
-13935
20
501.56772670457445
30
109.33161594775356
11
-13935
21
501.56772670457445
31
219.33161594775356
0
LINE
5
FD8E
330
FD28
100
AcDbEntity
100
AcDbLine
8
CELIK_KIRIS_KOLON
10
-14065
20
501.56772670457445
30
109.33161594775356
11
-14065
21
501.56772670457445
31
219.33161594775356
0
3DFACE
5
FD8F
330
FD28
100
AcDbEntity
100
AcDbFace
8
CELIK_KIRIS_KOLON
10
-14065
20
99.33161594775362
30
381.5677267045744
11
-13935
21
99.33161594775362
31
381.5677267045744
12
-13935
22
229.33161594775362
32
381.5677267045744
13
-14065
23
229.33161594775362
33
381.5677267045744
0
3DFACE
5
FD90
330
FD28
100
AcDbEntity
100
AcDbFace
8
CELIK_KIRIS_KOLON
10
-14065
20
99.33161594775362
30
491.5677267045744
11
-13935
21
99.33161594775362
31
491.5677267045744
12
-13935
22
229.33161594775362
32
491.5677267045744
13
-14065
23
229.33161594775362
33
491.5677267045744
0
3DFACE
5
FD91
330
FD28
100
AcDbEntity
100
AcDbFace
8
CELIK_KIRIS_KOLON
10
-14065
20
99.33161594775362
30
381.5677267045744
11
-13935
21
99.33161594775362
31
381.5677267045744
12
-13935
22
99.33161594775362
32
491.5677267045744
13
-14065
23
99.33161594775362
33
491.5677267045744
0
3DFACE
5
FD92
330
FD28
100
AcDbEntity
100
AcDbFace
8
CELIK_KIRIS_KOLON
10
-14065
20
229.33161594775362
30
381.5677267045744
11
-13935
21
229.33161594775362
31
381.5677267045744
12
-13935
22
229.33161594775362
32
491.5677267045744
13
-14065
23
229.33161594775362
33
491.5677267045744
0
3DFACE
5
FD93
330
FD28
100
AcDbEntity
100
AcDbFace
8
CELIK_KIRIS_KOLON
10
-14065
20
99.33161594775362
30
381.5677267045744
11
-14065
21
229.33161594775362
31
381.5677267045744
12
-14065
22
229.33161594775362
32
491.5677267045744
13
-14065
23
99.33161594775362
33
491.5677267045744
0
3DFACE
5
FD94
330
FD28
100
AcDbEntity
100
AcDbFace
8
CELIK_KIRIS_KOLON
10
-13935
20
99.33161594775362
30
381.5677267045744
11
-13935
21
229.33161594775362
31
381.5677267045744
12
-13935
22
229.33161594775362
32
491.5677267045744
13
-13935
23
99.33161594775362
33
491.5677267045744
0
LINE
5
FD95
330
FD28
100
AcDbEntity
100
AcDbLine
8
CELIK_KIRIS_KOLON
10
-14065
20
99.33161594775362
30
381.5677267045744
11
-13935
21
99.33161594775362
31
381.5677267045744
0
LINE
5
FD96
330
FD28
100
AcDbEntity
100
AcDbLine
8
CELIK_KIRIS_KOLON
10
-13935
20
99.33161594775362
30
381.5677267045744
11
-13935
21
229.33161594775362
31
381.5677267045744
0
LINE
5
FD97
330
FD28
100
AcDbEntity
100
AcDbLine
8
CELIK_KIRIS_KOLON
10
-13935
20
229.33161594775362
30
381.5677267045744
11
-14065
21
229.33161594775362
31
381.5677267045744
0
LINE
5
FD98
330
FD28
100
AcDbEntity
100
AcDbLine
8
CELIK_KIRIS_KOLON
10
-14065
20
229.33161594775362
30
381.5677267045744
11
-14065
21
99.33161594775362
31
381.5677267045744
0
LINE
5
FD99
330
FD28
100
AcDbEntity
100
AcDbLine
8
CELIK_KIRIS_KOLON
10
-14065
20
99.33161594775362
30
491.5677267045744
11
-13935
21
99.33161594775362
31
491.5677267045744
0
LINE
5
FD9A
330
FD28
100
AcDbEntity
100
AcDbLine
8
CELIK_KIRIS_KOLON
10
-13935
20
99.33161594775362
30
491.5677267045744
11
-13935
21
229.33161594775362
31
491.5677267045744
0
LINE
5
FD9B
330
FD28
100
AcDbEntity
100
AcDbLine
8
CELIK_KIRIS_KOLON
10
-13935
20
229.33161594775362
30
491.5677267045744
11
-14065
21
229.33161594775362
31
491.5677267045744
0
LINE
5
FD9C
330
FD28
100
AcDbEntity
100
AcDbLine
8
CELIK_KIRIS_KOLON
10
-14065
20
229.33161594775362
30
491.5677267045744
11
-14065
21
99.33161594775362
31
491.5677267045744
0
LINE
5
FD9D
330
FD28
100
AcDbEntity
100
AcDbLine
8
CELIK_KIRIS_KOLON
10
-14065
20
99.33161594775362
30
381.5677267045744
11
-14065
21
99.33161594775362
31
491.5677267045744
0
LINE
5
FD9E
330
FD28
100
AcDbEntity
100
AcDbLine
8
CELIK_KIRIS_KOLON
10
-13935
20
99.33161594775362
30
381.5677267045744
11
-13935
21
99.33161594775362
31
491.5677267045744
0
LINE
5
FD9F
330
FD28
100
AcDbEntity
100
AcDbLine
8
CELIK_KIRIS_KOLON
10
-13935
20
229.33161594775362
30
381.5677267045744
11
-13935
21
229.33161594775362
31
491.5677267045744
0
LINE
5
FDA0
330
FD28
100
AcDbEntity
100
AcDbLine
8
CELIK_KIRIS_KOLON
10
-14065
20
229.33161594775362
30
381.5677267045744
11
-14065
21
229.33161594775362
31
491.5677267045744
0
3DFACE
5
FDAF
330
FD28
100
AcDbEntity
100
AcDbFace
8
CELIK_KIRIS_KOLON
10
-4570
20
238.64853865045978
30
-83.08504678941937
11
-4430
21
238.64853865045978
31
-83.08504678941937
12
-4430
22
-83.08504678941932
32
238.64853865045978
13
-4570
23
-83.08504678941932
33
238.64853865045978
0
3DFACE
5
FDB0
330
FD28
100
AcDbEntity
100
AcDbFace
8
CELIK_KIRIS_KOLON
10
-4561
20
98.99494936611666
30
56.56854249492379
11
-4549
21
98.99494936611666
31
56.56854249492379
12
-4549
22
234.05234457274724
32
276.47875144394004
13
-4561
23
234.05234457274724
33
276.47875144394004
0
3DFACE
5
FDB1
330
FD28
100
AcDbEntity
100
AcDbFace
8
CELIK_KIRIS_KOLON
10
-4451
20
98.99494936611666
30
56.56854249492379
11
-4439
21
98.99494936611666
31
56.56854249492379
12
-4439
22
234.05234457274724
32
276.47875144394004
13
-4451
23
234.05234457274724
33
276.47875144394004
0
3DFACE
5
FDDE
330
FD28
100
AcDbEntity
100
AcDbFace
8
CELIK_KIRIS_KOLON
10
-4565
20
371.56772670457445
30
109.33161594775356
11
-4435
21
371.56772670457445
31
109.33161594775356
12
-4435
22
501.56772670457445
32
109.33161594775356
13
-4565
23
501.56772670457445
33
109.33161594775356
0
3DFACE
5
FDDF
330
FD28
100
AcDbEntity
100
AcDbFace
8
CELIK_KIRIS_KOLON
10
-4565
20
371.56772670457445
30
219.33161594775356
11
-4435
21
371.56772670457445
31
219.33161594775356
12
-4435
22
501.56772670457445
32
219.33161594775356
13
-4565
23
501.56772670457445
33
219.33161594775356
0
3DFACE
5
FDE0
330
FD28
100
AcDbEntity
100
AcDbFace
8
CELIK_KIRIS_KOLON
10
-4565
20
371.56772670457445
30
109.33161594775356
11
-4435
21
371.56772670457445
31
109.33161594775356
12
-4435
22
371.56772670457445
32
219.33161594775356
13
-4565
23
371.56772670457445
33
219.33161594775356
0
3DFACE
5
FDE1
330
FD28
100
AcDbEntity
100
AcDbFace
8
CELIK_KIRIS_KOLON
10
-4565
20
501.56772670457445
30
109.33161594775356
11
-4435
21
501.56772670457445
31
109.33161594775356
12
-4435
22
501.56772670457445
32
219.33161594775356
13
-4565
23
501.56772670457445
33
219.33161594775356
0
3DFACE
5
FDE2
330
FD28
100
AcDbEntity
100
AcDbFace
8
CELIK_KIRIS_KOLON
10
-4565
20
371.56772670457445
30
109.33161594775356
11
-4565
21
501.56772670457445
31
109.33161594775356
12
-4565
22
501.56772670457445
32
219.33161594775356
13
-4565
23
371.56772670457445
33
219.33161594775356
0
3DFACE
5
FDE3
330
FD28
100
AcDbEntity
100
AcDbFace
8
CELIK_KIRIS_KOLON
10
-4435
20
371.56772670457445
30
109.33161594775356
11
-4435
21
501.56772670457445
31
109.33161594775356
12
-4435
22
501.56772670457445
32
219.33161594775356
13
-4435
23
371.56772670457445
33
219.33161594775356
0
LINE
5
FDE4
330
FD28
100
AcDbEntity
100
AcDbLine
8
CELIK_KIRIS_KOLON
10
-4565
20
371.56772670457445
30
109.33161594775356
11
-4435
21
371.56772670457445
31
109.33161594775356
0
LINE
5
FDE5
330
FD28
100
AcDbEntity
100
AcDbLine
8
CELIK_KIRIS_KOLON
10
-4435
20
371.56772670457445
30
109.33161594775356
11
-4435
21
501.56772670457445
31
109.33161594775356
0
LINE
5
FDE6
330
FD28
100
AcDbEntity
100
AcDbLine
8
CELIK_KIRIS_KOLON
10
-4435
20
501.56772670457445
30
109.33161594775356
11
-4565
21
501.56772670457445
31
109.33161594775356
0
LINE
5
FDE7
330
FD28
100
AcDbEntity
100
AcDbLine
8
CELIK_KIRIS_KOLON
10
-4565
20
501.56772670457445
30
109.33161594775356
11
-4565
21
371.56772670457445
31
109.33161594775356
0
LINE
5
FDE8
330
FD28
100
AcDbEntity
100
AcDbLine
8
CELIK_KIRIS_KOLON
10
-4565
20
371.56772670457445
30
219.33161594775356
11
-4435
21
371.56772670457445
31
219.33161594775356
0
LINE
5
FDE9
330
FD28
100
AcDbEntity
100
AcDbLine
8
CELIK_KIRIS_KOLON
10
-4435
20
371.56772670457445
30
219.33161594775356
11
-4435
21
501.56772670457445
31
219.33161594775356
0
LINE
5
FDEA
330
FD28
100
AcDbEntity
100
AcDbLine
8
CELIK_KIRIS_KOLON
10
-4435
20
501.56772670457445
30
219.33161594775356
11
-4565
21
501.56772670457445
31
219.33161594775356
0
LINE
5
FDEB
330
FD28
100
AcDbEntity
100
AcDbLine
8
CELIK_KIRIS_KOLON
10
-4565
20
501.56772670457445
30
219.33161594775356
11
-4565
21
371.56772670457445
31
219.33161594775356
0
LINE
5
FDEC
330
FD28
100
AcDbEntity
100
AcDbLine
8
CELIK_KIRIS_KOLON
10
-4565
20
371.56772670457445
30
109.33161594775356
11
-4565
21
371.56772670457445
31
219.33161594775356
0
LINE
5
FDED
330
FD28
100
AcDbEntity
100
AcDbLine
8
CELIK_KIRIS_KOLON
10
-4435
20
371.56772670457445
30
109.33161594775356
11
-4435
21
371.56772670457445
31
219.33161594775356
0
LINE
5
FDEE
330
FD28
100
AcDbEntity
100
AcDbLine
8
CELIK_KIRIS_KOLON
10
-4435
20
501.56772670457445
30
109.33161594775356
11
-4435
21
501.56772670457445
31
219.33161594775356
0
LINE
5
FDEF
330
FD28
100
AcDbEntity
100
AcDbLine
8
CELIK_KIRIS_KOLON
10
-4565
20
501.56772670457445
30
109.33161594775356
11
-4565
21
501.56772670457445
31
219.33161594775356
0
3DFACE
5
FDF0
330
FD28
100
AcDbEntity
100
AcDbFace
8
CELIK_KIRIS_KOLON
10
-4565
20
99.33161594775362
30
381.5677267045744
11
-4435
21
99.33161594775362
31
381.5677267045744
12
-4435
22
229.33161594775362
32
381.5677267045744
13
-4565
23
229.33161594775362
33
381.5677267045744
0
3DFACE
5
FDF1
330
FD28
100
AcDbEntity
100
AcDbFace
8
CELIK_KIRIS_KOLON
10
-4565
20
99.33161594775362
30
491.5677267045744
11
-4435
21
99.33161594775362
31
491.5677267045744
12
-4435
22
229.33161594775362
32
491.5677267045744
13
-4565
23
229.33161594775362
33
491.5677267045744
0
3DFACE
5
FDF2
330
FD28
100
AcDbEntity
100
AcDbFace
8
CELIK_KIRIS_KOLON
10
-4565
20
99.33161594775362
30
381.5677267045744
11
-4435
21
99.33161594775362
31
381.5677267045744
12
-4435
22
99.33161594775362
32
491.5677267045744
13
-4565
23
99.33161594775362
33
491.5677267045744
0
3DFACE
5
FDF3
330
FD28
100
AcDbEntity
100
AcDbFace
8
CELIK_KIRIS_KOLON
10
-4565
20
229.33161594775362
30
381.5677267045744
11
-4435
21
229.33161594775362
31
381.5677267045744
12
-4435
22
229.33161594775362
32
491.5677267045744
13
-4565
23
229.33161594775362
33
491.5677267045744
0
3DFACE
5
FDF4
330
FD28
100
AcDbEntity
100
AcDbFace
8
CELIK_KIRIS_KOLON
10
-4565
20
99.33161594775362
30
381.5677267045744
11
-4565
21
229.33161594775362
31
381.5677267045744
12
-4565
22
229.33161594775362
32
491.5677267045744
13
-4565
23
99.33161594775362
33
491.5677267045744
0
3DFACE
5
FDF5
330
FD28
100
AcDbEntity
100
AcDbFace
8
CELIK_KIRIS_KOLON
10
-4435
20
99.33161594775362
30
381.5677267045744
11
-4435
21
229.33161594775362
31
381.5677267045744
12
-4435
22
229.33161594775362
32
491.5677267045744
13
-4435
23
99.33161594775362
33
491.5677267045744
0
LINE
5
FDF6
330
FD28
100
AcDbEntity
100
AcDbLine
8
CELIK_KIRIS_KOLON
10
-4565
20
99.33161594775362
30
381.5677267045744
11
-4435
21
99.33161594775362
31
381.5677267045744
0
LINE
5
FDF7
330
FD28
100
AcDbEntity
100
AcDbLine
8
CELIK_KIRIS_KOLON
10
-4435
20
99.33161594775362
30
381.5677267045744
11
-4435
21
229.33161594775362
31
381.5677267045744
0
LINE
5
FDF8
330
FD28
100
AcDbEntity
100
AcDbLine
8
CELIK_KIRIS_KOLON
10
-4435
20
229.33161594775362
30
381.5677267045744
11
-4565
21
229.33161594775362
31
381.5677267045744
0
LINE
5
FDF9
330
FD28
100
AcDbEntity
100
AcDbLine
8
CELIK_KIRIS_KOLON
10
-4565
20
229.33161594775362
30
381.5677267045744
11
-4565
21
99.33161594775362
31
381.5677267045744
0
LINE
5
FDFA
330
FD28
100
AcDbEntity
100
AcDbLine
8
CELIK_KIRIS_KOLON
10
-4565
20
99.33161594775362
30
491.5677267045744
11
-4435
21
99.33161594775362
31
491.5677267045744
0
LINE
5
FDFB
330
FD28
100
AcDbEntity
100
AcDbLine
8
CELIK_KIRIS_KOLON
10
-4435
20
99.33161594775362
30
491.5677267045744
11
-4435
21
229.33161594775362
31
491.5677267045744
0
LINE
5
FDFC
330
FD28
100
AcDbEntity
100
AcDbLine
8
CELIK_KIRIS_KOLON
10
-4435
20
229.33161594775362
30
491.5677267045744
11
-4565
21
229.33161594775362
31
491.5677267045744
0
LINE
5
FDFD
330
FD28
100
AcDbEntity
100
AcDbLine
8
CELIK_KIRIS_KOLON
10
-4565
20
229.33161594775362
30
491.5677267045744
11
-4565
21
99.33161594775362
31
491.5677267045744
0
LINE
5
FDFE
330
FD28
100
AcDbEntity
100
AcDbLine
8
CELIK_KIRIS_KOLON
10
-4565
20
99.33161594775362
30
381.5677267045744
11
-4565
21
99.33161594775362
31
491.5677267045744
0
LINE
5
FDFF
330
FD28
100
AcDbEntity
100
AcDbLine
8
CELIK_KIRIS_KOLON
10
-4435
20
99.33161594775362
30
381.5677267045744
11
-4435
21
99.33161594775362
31
491.5677267045744
0
LINE
5
FE00
330
FD28
100
AcDbEntity
100
AcDbLine
8
CELIK_KIRIS_KOLON
10
-4435
20
229.33161594775362
30
381.5677267045744
11
-4435
21
229.33161594775362
31
491.5677267045744
0
LINE
5
FE01
330
FD28
100
AcDbEntity
100
AcDbLine
8
CELIK_KIRIS_KOLON
10
-4565
20
229.33161594775362
30
381.5677267045744
11
-4565
21
229.33161594775362
31
491.5677267045744
0
3DFACE
5
FE10
330
FD28
100
AcDbEntity
100
AcDbFace
8
CELIK_KIRIS_KOLON
10
-3570
20
238.64853865045978
30
-83.08504678941937
11
-3430
21
238.64853865045978
31
-83.08504678941937
12
-3430
22
-83.08504678941932
32
238.64853865045978
13
-3570
23
-83.08504678941932
33
238.64853865045978
0
3DFACE
5
FE11
330
FD28
100
AcDbEntity
100
AcDbFace
8
CELIK_KIRIS_KOLON
10
-3561
20
98.99494936611666
30
56.56854249492379
11
-3549
21
98.99494936611666
31
56.56854249492379
12
-3549
22
234.05234457274724
32
276.47875144394004
13
-3561
23
234.05234457274724
33
276.47875144394004
0
3DFACE
5
FE12
330
FD28
100
AcDbEntity
100
AcDbFace
8
CELIK_KIRIS_KOLON
10
-3451
20
98.99494936611666
30
56.56854249492379
11
-3439
21
98.99494936611666
31
56.56854249492379
12
-3439
22
234.05234457274724
32
276.47875144394004
13
-3451
23
234.05234457274724
33
276.47875144394004
0
3DFACE
5
FE3F
330
FD28
100
AcDbEntity
100
AcDbFace
8
CELIK_KIRIS_KOLON
10
-3565
20
371.56772670457445
30
109.33161594775356
11
-3435
21
371.56772670457445
31
109.33161594775356
12
-3435
22
501.56772670457445
32
109.33161594775356
13
-3565
23
501.56772670457445
33
109.33161594775356
0
3DFACE
5
FE40
330
FD28
100
AcDbEntity
100
AcDbFace
8
CELIK_KIRIS_KOLON
10
-3565
20
371.56772670457445
30
219.33161594775356
11
-3435
21
371.56772670457445
31
219.33161594775356
12
-3435
22
501.56772670457445
32
219.33161594775356
13
-3565
23
501.56772670457445
33
219.33161594775356
0
3DFACE
5
FE41
330
FD28
100
AcDbEntity
100
AcDbFace
8
CELIK_KIRIS_KOLON
10
-3565
20
371.56772670457445
30
109.33161594775356
11
-3435
21
371.56772670457445
31
109.33161594775356
12
-3435
22
371.56772670457445
32
219.33161594775356
13
-3565
23
371.56772670457445
33
219.33161594775356
0
3DFACE
5
FE42
330
FD28
100
AcDbEntity
100
AcDbFace
8
CELIK_KIRIS_KOLON
10
-3565
20
501.56772670457445
30
109.33161594775356
11
-3435
21
501.56772670457445
31
109.33161594775356
12
-3435
22
501.56772670457445
32
219.33161594775356
13
-3565
23
501.56772670457445
33
219.33161594775356
0
3DFACE
5
FE43
330
FD28
100
AcDbEntity
100
AcDbFace
8
CELIK_KIRIS_KOLON
10
-3565
20
371.56772670457445
30
109.33161594775356
11
-3565
21
501.56772670457445
31
109.33161594775356
12
-3565
22
501.56772670457445
32
219.33161594775356
13
-3565
23
371.56772670457445
33
219.33161594775356
0
3DFACE
5
FE44
330
FD28
100
AcDbEntity
100
AcDbFace
8
CELIK_KIRIS_KOLON
10
-3435
20
371.56772670457445
30
109.33161594775356
11
-3435
21
501.56772670457445
31
109.33161594775356
12
-3435
22
501.56772670457445
32
219.33161594775356
13
-3435
23
371.56772670457445
33
219.33161594775356
0
LINE
5
FE45
330
FD28
100
AcDbEntity
100
AcDbLine
8
CELIK_KIRIS_KOLON
10
-3565
20
371.56772670457445
30
109.33161594775356
11
-3435
21
371.56772670457445
31
109.33161594775356
0
LINE
5
FE46
330
FD28
100
AcDbEntity
100
AcDbLine
8
CELIK_KIRIS_KOLON
10
-3435
20
371.56772670457445
30
109.33161594775356
11
-3435
21
501.56772670457445
31
109.33161594775356
0
LINE
5
FE47
330
FD28
100
AcDbEntity
100
AcDbLine
8
CELIK_KIRIS_KOLON
10
-3435
20
501.56772670457445
30
109.33161594775356
11
-3565
21
501.56772670457445
31
109.33161594775356
0
LINE
5
FE48
330
FD28
100
AcDbEntity
100
AcDbLine
8
CELIK_KIRIS_KOLON
10
-3565
20
501.56772670457445
30
109.33161594775356
11
-3565
21
371.56772670457445
31
109.33161594775356
0
LINE
5
FE49
330
FD28
100
AcDbEntity
100
AcDbLine
8
CELIK_KIRIS_KOLON
10
-3565
20
371.56772670457445
30
219.33161594775356
11
-3435
21
371.56772670457445
31
219.33161594775356
0
LINE
5
FE4A
330
FD28
100
AcDbEntity
100
AcDbLine
8
CELIK_KIRIS_KOLON
10
-3435
20
371.56772670457445
30
219.33161594775356
11
-3435
21
501.56772670457445
31
219.33161594775356
0
LINE
5
FE4B
330
FD28
100
AcDbEntity
100
AcDbLine
8
CELIK_KIRIS_KOLON
10
-3435
20
501.56772670457445
30
219.33161594775356
11
-3565
21
501.56772670457445
31
219.33161594775356
0
LINE
5
FE4C
330
FD28
100
AcDbEntity
100
AcDbLine
8
CELIK_KIRIS_KOLON
10
-3565
20
501.56772670457445
30
219.33161594775356
11
-3565
21
371.56772670457445
31
219.33161594775356
0
LINE
5
FE4D
330
FD28
100
AcDbEntity
100
AcDbLine
8
CELIK_KIRIS_KOLON
10
-3565
20
371.56772670457445
30
109.33161594775356
11
-3565
21
371.56772670457445
31
219.33161594775356
0
LINE
5
FE4E
330
FD28
100
AcDbEntity
100
AcDbLine
8
CELIK_KIRIS_KOLON
10
-3435
20
371.56772670457445
30
109.33161594775356
11
-3435
21
371.56772670457445
31
219.33161594775356
0
LINE
5
FE4F
330
FD28
100
AcDbEntity
100
AcDbLine
8
CELIK_KIRIS_KOLON
10
-3435
20
501.56772670457445
30
109.33161594775356
11
-3435
21
501.56772670457445
31
219.33161594775356
0
LINE
5
FE50
330
FD28
100
AcDbEntity
100
AcDbLine
8
CELIK_KIRIS_KOLON
10
-3565
20
501.56772670457445
30
109.33161594775356
11
-3565
21
501.56772670457445
31
219.33161594775356
0
3DFACE
5
FE51
330
FD28
100
AcDbEntity
100
AcDbFace
8
CELIK_KIRIS_KOLON
10
-3565
20
99.33161594775362
30
381.5677267045744
11
-3435
21
99.33161594775362
31
381.5677267045744
12
-3435
22
229.33161594775362
32
381.5677267045744
13
-3565
23
229.33161594775362
33
381.5677267045744
0
3DFACE
5
FE52
330
FD28
100
AcDbEntity
100
AcDbFace
8
CELIK_KIRIS_KOLON
10
-3565
20
99.33161594775362
30
491.5677267045744
11
-3435
21
99.33161594775362
31
491.5677267045744
12
-3435
22
229.33161594775362
32
491.5677267045744
13
-3565
23
229.33161594775362
33
491.5677267045744
0
3DFACE
5
FE53
330
FD28
100
AcDbEntity
100
AcDbFace
8
CELIK_KIRIS_KOLON
10
-3565
20
99.33161594775362
30
381.5677267045744
11
-3435
21
99.33161594775362
31
381.5677267045744
12
-3435
22
99.33161594775362
32
491.5677267045744
13
-3565
23
99.33161594775362
33
491.5677267045744
0
3DFACE
5
FE54
330
FD28
100
AcDbEntity
100
AcDbFace
8
CELIK_KIRIS_KOLON
10
-3565
20
229.33161594775362
30
381.5677267045744
11
-3435
21
229.33161594775362
31
381.5677267045744
12
-3435
22
229.33161594775362
32
491.5677267045744
13
-3565
23
229.33161594775362
33
491.5677267045744
0
3DFACE
5
FE55
330
FD28
100
AcDbEntity
100
AcDbFace
8
CELIK_KIRIS_KOLON
10
-3565
20
99.33161594775362
30
381.5677267045744
11
-3565
21
229.33161594775362
31
381.5677267045744
12
-3565
22
229.33161594775362
32
491.5677267045744
13
-3565
23
99.33161594775362
33
491.5677267045744
0
3DFACE
5
FE56
330
FD28
100
AcDbEntity
100
AcDbFace
8
CELIK_KIRIS_KOLON
10
-3435
20
99.33161594775362
30
381.5677267045744
11
-3435
21
229.33161594775362
31
381.5677267045744
12
-3435
22
229.33161594775362
32
491.5677267045744
13
-3435
23
99.33161594775362
33
491.5677267045744
0
LINE
5
FE57
330
FD28
100
AcDbEntity
100
AcDbLine
8
CELIK_KIRIS_KOLON
10
-3565
20
99.33161594775362
30
381.5677267045744
11
-3435
21
99.33161594775362
31
381.5677267045744
0
LINE
5
FE58
330
FD28
100
AcDbEntity
100
AcDbLine
8
CELIK_KIRIS_KOLON
10
-3435
20
99.33161594775362
30
381.5677267045744
11
-3435
21
229.33161594775362
31
381.5677267045744
0
LINE
5
FE59
330
FD28
100
AcDbEntity
100
AcDbLine
8
CELIK_KIRIS_KOLON
10
-3435
20
229.33161594775362
30
381.5677267045744
11
-3565
21
229.33161594775362
31
381.5677267045744
0
LINE
5
FE5A
330
FD28
100
AcDbEntity
100
AcDbLine
8
CELIK_KIRIS_KOLON
10
-3565
20
229.33161594775362
30
381.5677267045744
11
-3565
21
99.33161594775362
31
381.5677267045744
0
LINE
5
FE5B
330
FD28
100
AcDbEntity
100
AcDbLine
8
CELIK_KIRIS_KOLON
10
-3565
20
99.33161594775362
30
491.5677267045744
11
-3435
21
99.33161594775362
31
491.5677267045744
0
LINE
5
FE5C
330
FD28
100
AcDbEntity
100
AcDbLine
8
CELIK_KIRIS_KOLON
10
-3435
20
99.33161594775362
30
491.5677267045744
11
-3435
21
229.33161594775362
31
491.5677267045744
0
LINE
5
FE5D
330
FD28
100
AcDbEntity
100
AcDbLine
8
CELIK_KIRIS_KOLON
10
-3435
20
229.33161594775362
30
491.5677267045744
11
-3565
21
229.33161594775362
31
491.5677267045744
0
LINE
5
FE5E
330
FD28
100
AcDbEntity
100
AcDbLine
8
CELIK_KIRIS_KOLON
10
-3565
20
229.33161594775362
30
491.5677267045744
11
-3565
21
99.33161594775362
31
491.5677267045744
0
LINE
5
FE5F
330
FD28
100
AcDbEntity
100
AcDbLine
8
CELIK_KIRIS_KOLON
10
-3565
20
99.33161594775362
30
381.5677267045744
11
-3565
21
99.33161594775362
31
491.5677267045744
0
LINE
5
FE60
330
FD28
100
AcDbEntity
100
AcDbLine
8
CELIK_KIRIS_KOLON
10
-3435
20
99.33161594775362
30
381.5677267045744
11
-3435
21
99.33161594775362
31
491.5677267045744
0
LINE
5
FE61
330
FD28
100
AcDbEntity
100
AcDbLine
8
CELIK_KIRIS_KOLON
10
-3435
20
229.33161594775362
30
381.5677267045744
11
-3435
21
229.33161594775362
31
491.5677267045744
0
LINE
5
FE62
330
FD28
100
AcDbEntity
100
AcDbLine
8
CELIK_KIRIS_KOLON
10
-3565
20
229.33161594775362
30
381.5677267045744
11
-3565
21
229.33161594775362
31
491.5677267045744
0
3DFACE
5
FE64
330
FD28
100
AcDbEntity
100
AcDbFace
8
CELIK_KIRIS_KOLON
10
-5000
20
-50
30
550
11
-3000
21
-50
31
550
12
-3000
22
50
32
550
13
-5000
23
50
33
550
0
3DFACE
5
FE65
330
FD28
100
AcDbEntity
100
AcDbFace
8
CELIK_KIRIS_KOLON
10
-5000
20
-50
30
650
11
-3000
21
-50
31
650
12
-3000
22
50
32
650
13
-5000
23
50
33
650
0
3DFACE
5
FE66
330
FD28
100
AcDbEntity
100
AcDbFace
8
CELIK_KIRIS_KOLON
10
-5000
20
-50
30
550
11
-3000
21
-50
31
550
12
-3000
22
-50
32
650
13
-5000
23
-50
33
650
0
3DFACE
5
FE67
330
FD28
100
AcDbEntity
100
AcDbFace
8
CELIK_KIRIS_KOLON
10
-5000
20
50
30
550
11
-3000
21
50
31
550
12
-3000
22
50
32
650
13
-5000
23
50
33
650
0
3DFACE
5
FE68
330
FD28
100
AcDbEntity
100
AcDbFace
8
CELIK_KIRIS_KOLON
10
-5000
20
-50
30
550
11
-5000
21
50
31
550
12
-5000
22
50
32
650
13
-5000
23
-50
33
650
0
3DFACE
5
FE69
330
FD28
100
AcDbEntity
100
AcDbFace
8
CELIK_KIRIS_KOLON
10
-3000
20
-50
30
550
11
-3000
21
50
31
550
12
-3000
22
50
32
650
13
-3000
23
-50
33
650
0
LINE
5
FE6A
330
FD28
100
AcDbEntity
100
AcDbLine
8
CELIK_KIRIS_KOLON
10
-5000
20
-50
30
550
11
-3000
21
-50
31
550
0
LINE
5
FE6B
330
FD28
100
AcDbEntity
100
AcDbLine
8
CELIK_KIRIS_KOLON
10
-3000
20
-50
30
550
11
-3000
21
50
31
550
0
LINE
5
FE6C
330
FD28
100
AcDbEntity
100
AcDbLine
8
CELIK_KIRIS_KOLON
10
-3000
20
50
30
550
11
-5000
21
50
31
550
0
LINE
5
FE6D
330
FD28
100
AcDbEntity
100
AcDbLine
8
CELIK_KIRIS_KOLON
10
-5000
20
50
30
550
11
-5000
21
-50
31
550
0
LINE
5
FE6E
330
FD28
100
AcDbEntity
100
AcDbLine
8
CELIK_KIRIS_KOLON
10
-5000
20
-50
30
650
11
-3000
21
-50
31
650
0
LINE
5
FE6F
330
FD28
100
AcDbEntity
100
AcDbLine
8
CELIK_KIRIS_KOLON
10
-3000
20
-50
30
650
11
-3000
21
50
31
650
0
LINE
5
FE70
330
FD28
100
AcDbEntity
100
AcDbLine
8
CELIK_KIRIS_KOLON
10
-3000
20
50
30
650
11
-5000
21
50
31
650
0
LINE
5
FE71
330
FD28
100
AcDbEntity
100
AcDbLine
8
CELIK_KIRIS_KOLON
10
-5000
20
50
30
650
11
-5000
21
-50
31
650
0
LINE
5
FE72
330
FD28
100
AcDbEntity
100
AcDbLine
8
CELIK_KIRIS_KOLON
10
-5000
20
-50
30
550
11
-5000
21
-50
31
650
0
LINE
5
FE73
330
FD28
100
AcDbEntity
100
AcDbLine
8
CELIK_KIRIS_KOLON
10
-3000
20
-50
30
550
11
-3000
21
-50
31
650
0
LINE
5
FE74
330
FD28
100
AcDbEntity
100
AcDbLine
8
CELIK_KIRIS_KOLON
10
-3000
20
50
30
550
11
-3000
21
50
31
650
0
LINE
5
FE75
330
FD28
100
AcDbEntity
100
AcDbLine
8
CELIK_KIRIS_KOLON
10
-5000
20
50
30
550
11
-5000
21
50
31
650
0
3DFACE
5
FE83
330
FD28
100
AcDbEntity
100
AcDbFace
8
CELIK_KIRIS_KOLON
10
6115.844123938678
20
368.1976807639745
30
-83.08504678941937
11
6247.401090848705
21
320.3148606983809
31
-83.08504678941937
12
6137.3617238438765
22
17.984184601533926
32
238.64853865045978
13
6005.80475693385
23
65.86700466712755
33
238.64853865045978
0
3DFACE
5
FE84
330
FD28
100
AcDbEntity
100
AcDbFace
8
CELIK_KIRIS_KOLON
10
6076.5370169027765
20
233.88805215728027
30
56.56854249492379
11
6087.8133283522075
21
229.78381043737224
31
56.56854249492379
12
6134.00567801797
22
356.6962480956091
32
276.47875144394004
13
6122.729366568539
23
360.80048981551715
33
276.47875144394004
0
3DFACE
5
FE85
330
FD28
100
AcDbEntity
100
AcDbFace
8
CELIK_KIRIS_KOLON
10
6179.903205189226
20
196.2658363914567
30
56.56854249492379
11
6191.179516638657
21
192.16159467154867
31
56.56854249492379
12
6237.37186630442
22
319.07403232978555
32
276.47875144394004
13
6226.095554854989
23
323.1782740496936
33
276.47875144394004
0
3DFACE
5
FEB2
330
FD28
100
AcDbEntity
100
AcDbFace
8
CELIK_KIRIS_KOLON
10
6184.31495645886
20
465.23947125756786
30
109.33161594775356
11
6314.31495645886
21
465.23947125756786
31
109.33161594775356
12
6314.31495645886
22
595.2394712575679
32
109.33161594775356
13
6184.31495645886
23
595.2394712575679
33
109.33161594775356
0
3DFACE
5
FEB3
330
FD28
100
AcDbEntity
100
AcDbFace
8
CELIK_KIRIS_KOLON
10
6184.31495645886
20
465.23947125756786
30
219.33161594775356
11
6314.31495645886
21
465.23947125756786
31
219.33161594775356
12
6314.31495645886
22
595.2394712575679
32
219.33161594775356
13
6184.31495645886
23
595.2394712575679
33
219.33161594775356
0
3DFACE
5
FEB4
330
FD28
100
AcDbEntity
100
AcDbFace
8
CELIK_KIRIS_KOLON
10
6184.31495645886
20
465.23947125756786
30
109.33161594775356
11
6314.31495645886
21
465.23947125756786
31
109.33161594775356
12
6314.31495645886
22
465.23947125756786
32
219.33161594775356
13
6184.31495645886
23
465.23947125756786
33
219.33161594775356
0
3DFACE
5
FEB5
330
FD28
100
AcDbEntity
100
AcDbFace
8
CELIK_KIRIS_KOLON
10
6184.31495645886
20
595.2394712575679
30
109.33161594775356
11
6314.31495645886
21
595.2394712575679
31
109.33161594775356
12
6314.31495645886
22
595.2394712575679
32
219.33161594775356
13
6184.31495645886
23
595.2394712575679
33
219.33161594775356
0
3DFACE
5
FEB6
330
FD28
100
AcDbEntity
100
AcDbFace
8
CELIK_KIRIS_KOLON
10
6184.31495645886
20
465.23947125756786
30
109.33161594775356
11
6184.31495645886
21
595.2394712575679
31
109.33161594775356
12
6184.31495645886
22
595.2394712575679
32
219.33161594775356
13
6184.31495645886
23
465.23947125756786
33
219.33161594775356
0
3DFACE
5
FEB7
330
FD28
100
AcDbEntity
100
AcDbFace
8
CELIK_KIRIS_KOLON
10
6314.31495645886
20
465.23947125756786
30
109.33161594775356
11
6314.31495645886
21
595.2394712575679
31
109.33161594775356
12
6314.31495645886
22
595.2394712575679
32
219.33161594775356
13
6314.31495645886
23
465.23947125756786
33
219.33161594775356
0
LINE
5
FEB8
330
FD28
100
AcDbEntity
100
AcDbLine
8
CELIK_KIRIS_KOLON
10
6184.31495645886
20
465.23947125756786
30
109.33161594775356
11
6314.31495645886
21
465.23947125756786
31
109.33161594775356
0
LINE
5
FEB9
330
FD28
100
AcDbEntity
100
AcDbLine
8
CELIK_KIRIS_KOLON
10
6314.31495645886
20
465.23947125756786
30
109.33161594775356
11
6314.31495645886
21
595.2394712575679
31
109.33161594775356
0
LINE
5
FEBA
330
FD28
100
AcDbEntity
100
AcDbLine
8
CELIK_KIRIS_KOLON
10
6314.31495645886
20
595.2394712575679
30
109.33161594775356
11
6184.31495645886
21
595.2394712575679
31
109.33161594775356
0
LINE
5
FEBB
330
FD28
100
AcDbEntity
100
AcDbLine
8
CELIK_KIRIS_KOLON
10
6184.31495645886
20
595.2394712575679
30
109.33161594775356
11
6184.31495645886
21
465.23947125756786
31
109.33161594775356
0
LINE
5
FEBC
330
FD28
100
AcDbEntity
100
AcDbLine
8
CELIK_KIRIS_KOLON
10
6184.31495645886
20
465.23947125756786
30
219.33161594775356
11
6314.31495645886
21
465.23947125756786
31
219.33161594775356
0
LINE
5
FEBD
330
FD28
100
AcDbEntity
100
AcDbLine
8
CELIK_KIRIS_KOLON
10
6314.31495645886
20
465.23947125756786
30
219.33161594775356
11
6314.31495645886
21
595.2394712575679
31
219.33161594775356
0
LINE
5
FEBE
330
FD28
100
AcDbEntity
100
AcDbLine
8
CELIK_KIRIS_KOLON
10
6314.31495645886
20
595.2394712575679
30
219.33161594775356
11
6184.31495645886
21
595.2394712575679
31
219.33161594775356
0
LINE
5
FEBF
330
FD28
100
AcDbEntity
100
AcDbLine
8
CELIK_KIRIS_KOLON
10
6184.31495645886
20
595.2394712575679
30
219.33161594775356
11
6184.31495645886
21
465.23947125756786
31
219.33161594775356
0
LINE
5
FEC0
330
FD28
100
AcDbEntity
100
AcDbLine
8
CELIK_KIRIS_KOLON
10
6184.31495645886
20
465.23947125756786
30
109.33161594775356
11
6184.31495645886
21
465.23947125756786
31
219.33161594775356
0
LINE
5
FEC1
330
FD28
100
AcDbEntity
100
AcDbLine
8
CELIK_KIRIS_KOLON
10
6314.31495645886
20
465.23947125756786
30
109.33161594775356
11
6314.31495645886
21
465.23947125756786
31
219.33161594775356
0
LINE
5
FEC2
330
FD28
100
AcDbEntity
100
AcDbLine
8
CELIK_KIRIS_KOLON
10
6314.31495645886
20
595.2394712575679
30
109.33161594775356
11
6314.31495645886
21
595.2394712575679
31
219.33161594775356
0
LINE
5
FEC3
330
FD28
100
AcDbEntity
100
AcDbLine
8
CELIK_KIRIS_KOLON
10
6184.31495645886
20
595.2394712575679
30
109.33161594775356
11
6184.31495645886
21
595.2394712575679
31
219.33161594775356
0
3DFACE
5
FEC4
330
FD28
100
AcDbEntity
100
AcDbFace
8
CELIK_KIRIS_KOLON
10
6091.204722839389
20
209.421206867928
30
381.5677267045744
11
6221.204722839389
21
209.421206867928
31
381.5677267045744
12
6221.204722839389
22
339.421206867928
32
381.5677267045744
13
6091.204722839389
23
339.421206867928
33
381.5677267045744
0
3DFACE
5
FEC5
330
FD28
100
AcDbEntity
100
AcDbFace
8
CELIK_KIRIS_KOLON
10
6091.204722839389
20
209.421206867928
30
491.5677267045744
11
6221.204722839389
21
209.421206867928
31
491.5677267045744
12
6221.204722839389
22
339.421206867928
32
491.5677267045744
13
6091.204722839389
23
339.421206867928
33
491.5677267045744
0
3DFACE
5
FEC6
330
FD28
100
AcDbEntity
100
AcDbFace
8
CELIK_KIRIS_KOLON
10
6091.204722839389
20
209.421206867928
30
381.5677267045744
11
6221.204722839389
21
209.421206867928
31
381.5677267045744
12
6221.204722839389
22
209.421206867928
32
491.5677267045744
13
6091.204722839389
23
209.421206867928
33
491.5677267045744
0
3DFACE
5
FEC7
330
FD28
100
AcDbEntity
100
AcDbFace
8
CELIK_KIRIS_KOLON
10
6091.204722839389
20
339.421206867928
30
381.5677267045744
11
6221.204722839389
21
339.421206867928
31
381.5677267045744
12
6221.204722839389
22
339.421206867928
32
491.5677267045744
13
6091.204722839389
23
339.421206867928
33
491.5677267045744
0
3DFACE
5
FEC8
330
FD28
100
AcDbEntity
100
AcDbFace
8
CELIK_KIRIS_KOLON
10
6091.204722839389
20
209.421206867928
30
381.5677267045744
11
6091.204722839389
21
339.421206867928
31
381.5677267045744
12
6091.204722839389
22
339.421206867928
32
491.5677267045744
13
6091.204722839389
23
209.421206867928
33
491.5677267045744
0
3DFACE
5
FEC9
330
FD28
100
AcDbEntity
100
AcDbFace
8
CELIK_KIRIS_KOLON
10
6221.204722839389
20
209.421206867928
30
381.5677267045744
11
6221.204722839389
21
339.421206867928
31
381.5677267045744
12
6221.204722839389
22
339.421206867928
32
491.5677267045744
13
6221.204722839389
23
209.421206867928
33
491.5677267045744
0
LINE
5
FECA
330
FD28
100
AcDbEntity
100
AcDbLine
8
CELIK_KIRIS_KOLON
10
6091.204722839389
20
209.421206867928
30
381.5677267045744
11
6221.204722839389
21
209.421206867928
31
381.5677267045744
0
LINE
5
FECB
330
FD28
100
AcDbEntity
100
AcDbLine
8
CELIK_KIRIS_KOLON
10
6221.204722839389
20
209.421206867928
30
381.5677267045744
11
6221.204722839389
21
339.421206867928
31
381.5677267045744
0
LINE
5
FECC
330
FD28
100
AcDbEntity
100
AcDbLine
8
CELIK_KIRIS_KOLON
10
6221.204722839389
20
339.421206867928
30
381.5677267045744
11
6091.204722839389
21
339.421206867928
31
381.5677267045744
0
LINE
5
FECD
330
FD28
100
AcDbEntity
100
AcDbLine
8
CELIK_KIRIS_KOLON
10
6091.204722839389
20
339.421206867928
30
381.5677267045744
11
6091.204722839389
21
209.421206867928
31
381.5677267045744
0
LINE
5
FECE
330
FD28
100
AcDbEntity
100
AcDbLine
8
CELIK_KIRIS_KOLON
10
6091.204722839389
20
209.421206867928
30
491.5677267045744
11
6221.204722839389
21
209.421206867928
31
491.5677267045744
0
LINE
5
FECF
330
FD28
100
AcDbEntity
100
AcDbLine
8
CELIK_KIRIS_KOLON
10
6221.204722839389
20
209.421206867928
30
491.5677267045744
11
6221.204722839389
21
339.421206867928
31
491.5677267045744
0
LINE
5
FED0
330
FD28
100
AcDbEntity
100
AcDbLine
8
CELIK_KIRIS_KOLON
10
6221.204722839389
20
339.421206867928
30
491.5677267045744
11
6091.204722839389
21
339.421206867928
31
491.5677267045744
0
LINE
5
FED1
330
FD28
100
AcDbEntity
100
AcDbLine
8
CELIK_KIRIS_KOLON
10
6091.204722839389
20
339.421206867928
30
491.5677267045744
11
6091.204722839389
21
209.421206867928
31
491.5677267045744
0
LINE
5
FED2
330
FD28
100
AcDbEntity
100
AcDbLine
8
CELIK_KIRIS_KOLON
10
6091.204722839389
20
209.421206867928
30
381.5677267045744
11
6091.204722839389
21
209.421206867928
31
491.5677267045744
0
LINE
5
FED3
330
FD28
100
AcDbEntity
100
AcDbLine
8
CELIK_KIRIS_KOLON
10
6221.204722839389
20
209.421206867928
30
381.5677267045744
11
6221.204722839389
21
209.421206867928
31
491.5677267045744
0
LINE
5
FED4
330
FD28
100
AcDbEntity
100
AcDbLine
8
CELIK_KIRIS_KOLON
10
6221.204722839389
20
339.421206867928
30
381.5677267045744
11
6221.204722839389
21
339.421206867928
31
491.5677267045744
0
LINE
5
FED5
330
FD28
100
AcDbEntity
100
AcDbLine
8
CELIK_KIRIS_KOLON
10
6091.204722839389
20
339.421206867928
30
381.5677267045744
11
6091.204722839389
21
339.421206867928
31
491.5677267045744
0
3DFACE
5
FEE4
330
FD28
100
AcDbEntity
100
AcDbFace
8
CELIK_KIRIS_KOLON
10
6930
20
238.64853865045978
30
-83.08504678941937
11
7070
21
238.64853865045978
31
-83.08504678941937
12
7070
22
-83.08504678941932
32
238.64853865045978
13
6930
23
-83.08504678941932
33
238.64853865045978
0
3DFACE
5
FEE5
330
FD28
100
AcDbEntity
100
AcDbFace
8
CELIK_KIRIS_KOLON
10
6939
20
98.99494936611666
30
56.56854249492379
11
6951
21
98.99494936611666
31
56.56854249492379
12
6951
22
234.05234457274724
32
276.47875144394004
13
6939
23
234.05234457274724
33
276.47875144394004
0
3DFACE
5
FEE6
330
FD28
100
AcDbEntity
100
AcDbFace
8
CELIK_KIRIS_KOLON
10
7049
20
98.99494936611666
30
56.56854249492379
11
7061
21
98.99494936611666
31
56.56854249492379
12
7061
22
234.05234457274724
32
276.47875144394004
13
7049
23
234.05234457274724
33
276.47875144394004
0
3DFACE
5
FF13
330
FD28
100
AcDbEntity
100
AcDbFace
8
CELIK_KIRIS_KOLON
10
6935
20
371.56772670457445
30
109.33161594775356
11
7065
21
371.56772670457445
31
109.33161594775356
12
7065
22
501.56772670457445
32
109.33161594775356
13
6935
23
501.56772670457445
33
109.33161594775356
0
3DFACE
5
FF14
330
FD28
100
AcDbEntity
100
AcDbFace
8
CELIK_KIRIS_KOLON
10
6935
20
371.56772670457445
30
219.33161594775356
11
7065
21
371.56772670457445
31
219.33161594775356
12
7065
22
501.56772670457445
32
219.33161594775356
13
6935
23
501.56772670457445
33
219.33161594775356
0
3DFACE
5
FF15
330
FD28
100
AcDbEntity
100
AcDbFace
8
CELIK_KIRIS_KOLON
10
6935
20
371.56772670457445
30
109.33161594775356
11
7065
21
371.56772670457445
31
109.33161594775356
12
7065
22
371.56772670457445
32
219.33161594775356
13
6935
23
371.56772670457445
33
219.33161594775356
0
3DFACE
5
FF16
330
FD28
100
AcDbEntity
100
AcDbFace
8
CELIK_KIRIS_KOLON
10
6935
20
501.56772670457445
30
109.33161594775356
11
7065
21
501.56772670457445
31
109.33161594775356
12
7065
22
501.56772670457445
32
219.33161594775356
13
6935
23
501.56772670457445
33
219.33161594775356
0
3DFACE
5
FF17
330
FD28
100
AcDbEntity
100
AcDbFace
8
CELIK_KIRIS_KOLON
10
6935
20
371.56772670457445
30
109.33161594775356
11
6935
21
501.56772670457445
31
109.33161594775356
12
6935
22
501.56772670457445
32
219.33161594775356
13
6935
23
371.56772670457445
33
219.33161594775356
0
3DFACE
5
FF18
330
FD28
100
AcDbEntity
100
AcDbFace
8
CELIK_KIRIS_KOLON
10
7065
20
371.56772670457445
30
109.33161594775356
11
7065
21
501.56772670457445
31
109.33161594775356
12
7065
22
501.56772670457445
32
219.33161594775356
13
7065
23
371.56772670457445
33
219.33161594775356
0
LINE
5
FF19
330
FD28
100
AcDbEntity
100
AcDbLine
8
CELIK_KIRIS_KOLON
10
6935
20
371.56772670457445
30
109.33161594775356
11
7065
21
371.56772670457445
31
109.33161594775356
0
LINE
5
FF1A
330
FD28
100
AcDbEntity
100
AcDbLine
8
CELIK_KIRIS_KOLON
10
7065
20
371.56772670457445
30
109.33161594775356
11
7065
21
501.56772670457445
31
109.33161594775356
0
LINE
5
FF1B
330
FD28
100
AcDbEntity
100
AcDbLine
8
CELIK_KIRIS_KOLON
10
7065
20
501.56772670457445
30
109.33161594775356
11
6935
21
501.56772670457445
31
109.33161594775356
0
LINE
5
FF1C
330
FD28
100
AcDbEntity
100
AcDbLine
8
CELIK_KIRIS_KOLON
10
6935
20
501.56772670457445
30
109.33161594775356
11
6935
21
371.56772670457445
31
109.33161594775356
0
LINE
5
FF1D
330
FD28
100
AcDbEntity
100
AcDbLine
8
CELIK_KIRIS_KOLON
10
6935
20
371.56772670457445
30
219.33161594775356
11
7065
21
371.56772670457445
31
219.33161594775356
0
LINE
5
FF1E
330
FD28
100
AcDbEntity
100
AcDbLine
8
CELIK_KIRIS_KOLON
10
7065
20
371.56772670457445
30
219.33161594775356
11
7065
21
501.56772670457445
31
219.33161594775356
0
LINE
5
FF1F
330
FD28
100
AcDbEntity
100
AcDbLine
8
CELIK_KIRIS_KOLON
10
7065
20
501.56772670457445
30
219.33161594775356
11
6935
21
501.56772670457445
31
219.33161594775356
0
LINE
5
FF20
330
FD28
100
AcDbEntity
100
AcDbLine
8
CELIK_KIRIS_KOLON
10
6935
20
501.56772670457445
30
219.33161594775356
11
6935
21
371.56772670457445
31
219.33161594775356
0
LINE
5
FF21
330
FD28
100
AcDbEntity
100
AcDbLine
8
CELIK_KIRIS_KOLON
10
6935
20
371.56772670457445
30
109.33161594775356
11
6935
21
371.56772670457445
31
219.33161594775356
0
LINE
5
FF22
330
FD28
100
AcDbEntity
100
AcDbLine
8
CELIK_KIRIS_KOLON
10
7065
20
371.56772670457445
30
109.33161594775356
11
7065
21
371.56772670457445
31
219.33161594775356
0
LINE
5
FF23
330
FD28
100
AcDbEntity
100
AcDbLine
8
CELIK_KIRIS_KOLON
10
7065
20
501.56772670457445
30
109.33161594775356
11
7065
21
501.56772670457445
31
219.33161594775356
0
LINE
5
FF24
330
FD28
100
AcDbEntity
100
AcDbLine
8
CELIK_KIRIS_KOLON
10
6935
20
501.56772670457445
30
109.33161594775356
11
6935
21
501.56772670457445
31
219.33161594775356
0
3DFACE
5
FF25
330
FD28
100
AcDbEntity
100
AcDbFace
8
CELIK_KIRIS_KOLON
10
6935
20
99.33161594775362
30
381.5677267045744
11
7065
21
99.33161594775362
31
381.5677267045744
12
7065
22
229.33161594775362
32
381.5677267045744
13
6935
23
229.33161594775362
33
381.5677267045744
0
3DFACE
5
FF26
330
FD28
100
AcDbEntity
100
AcDbFace
8
CELIK_KIRIS_KOLON
10
6935
20
99.33161594775362
30
491.5677267045744
11
7065
21
99.33161594775362
31
491.5677267045744
12
7065
22
229.33161594775362
32
491.5677267045744
13
6935
23
229.33161594775362
33
491.5677267045744
0
3DFACE
5
FF27
330
FD28
100
AcDbEntity
100
AcDbFace
8
CELIK_KIRIS_KOLON
10
6935
20
99.33161594775362
30
381.5677267045744
11
7065
21
99.33161594775362
31
381.5677267045744
12
7065
22
99.33161594775362
32
491.5677267045744
13
6935
23
99.33161594775362
33
491.5677267045744
0
3DFACE
5
FF28
330
FD28
100
AcDbEntity
100
AcDbFace
8
CELIK_KIRIS_KOLON
10
6935
20
229.33161594775362
30
381.5677267045744
11
7065
21
229.33161594775362
31
381.5677267045744
12
7065
22
229.33161594775362
32
491.5677267045744
13
6935
23
229.33161594775362
33
491.5677267045744
0
3DFACE
5
FF29
330
FD28
100
AcDbEntity
100
AcDbFace
8
CELIK_KIRIS_KOLON
10
6935
20
99.33161594775362
30
381.5677267045744
11
6935
21
229.33161594775362
31
381.5677267045744
12
6935
22
229.33161594775362
32
491.5677267045744
13
6935
23
99.33161594775362
33
491.5677267045744
0
3DFACE
5
FF2A
330
FD28
100
AcDbEntity
100
AcDbFace
8
CELIK_KIRIS_KOLON
10
7065
20
99.33161594775362
30
381.5677267045744
11
7065
21
229.33161594775362
31
381.5677267045744
12
7065
22
229.33161594775362
32
491.5677267045744
13
7065
23
99.33161594775362
33
491.5677267045744
0
LINE
5
FF2B
330
FD28
100
AcDbEntity
100
AcDbLine
8
CELIK_KIRIS_KOLON
10
6935
20
99.33161594775362
30
381.5677267045744
11
7065
21
99.33161594775362
31
381.5677267045744
0
LINE
5
FF2C
330
FD28
100
AcDbEntity
100
AcDbLine
8
CELIK_KIRIS_KOLON
10
7065
20
99.33161594775362
30
381.5677267045744
11
7065
21
229.33161594775362
31
381.5677267045744
0
LINE
5
FF2D
330
FD28
100
AcDbEntity
100
AcDbLine
8
CELIK_KIRIS_KOLON
10
7065
20
229.33161594775362
30
381.5677267045744
11
6935
21
229.33161594775362
31
381.5677267045744
0
LINE
5
FF2E
330
FD28
100
AcDbEntity
100
AcDbLine
8
CELIK_KIRIS_KOLON
10
6935
20
229.33161594775362
30
381.5677267045744
11
6935
21
99.33161594775362
31
381.5677267045744
0
LINE
5
FF2F
330
FD28
100
AcDbEntity
100
AcDbLine
8
CELIK_KIRIS_KOLON
10
6935
20
99.33161594775362
30
491.5677267045744
11
7065
21
99.33161594775362
31
491.5677267045744
0
LINE
5
FF30
330
FD28
100
AcDbEntity
100
AcDbLine
8
CELIK_KIRIS_KOLON
10
7065
20
99.33161594775362
30
491.5677267045744
11
7065
21
229.33161594775362
31
491.5677267045744
0
LINE
5
FF31
330
FD28
100
AcDbEntity
100
AcDbLine
8
CELIK_KIRIS_KOLON
10
7065
20
229.33161594775362
30
491.5677267045744
11
6935
21
229.33161594775362
31
491.5677267045744
0
LINE
5
FF32
330
FD28
100
AcDbEntity
100
AcDbLine
8
CELIK_KIRIS_KOLON
10
6935
20
229.33161594775362
30
491.5677267045744
11
6935
21
99.33161594775362
31
491.5677267045744
0
LINE
5
FF33
330
FD28
100
AcDbEntity
100
AcDbLine
8
CELIK_KIRIS_KOLON
10
6935
20
99.33161594775362
30
381.5677267045744
11
6935
21
99.33161594775362
31
491.5677267045744
0
LINE
5
FF34
330
FD28
100
AcDbEntity
100
AcDbLine
8
CELIK_KIRIS_KOLON
10
7065
20
99.33161594775362
30
381.5677267045744
11
7065
21
99.33161594775362
31
491.5677267045744
0
LINE
5
FF35
330
FD28
100
AcDbEntity
100
AcDbLine
8
CELIK_KIRIS_KOLON
10
7065
20
229.33161594775362
30
381.5677267045744
11
7065
21
229.33161594775362
31
491.5677267045744
0
LINE
5
FF36
330
FD28
100
AcDbEntity
100
AcDbLine
8
CELIK_KIRIS_KOLON
10
6935
20
229.33161594775362
30
381.5677267045744
11
6935
21
229.33161594775362
31
491.5677267045744
0
3DFACE
5
FF45
330
FD28
100
AcDbEntity
100
AcDbFace
8
CELIK_KIRIS_KOLON
10
7752.598909151295
20
320.3148606983809
30
-83.08504678941937
11
7884.155876061322
21
368.1976807639745
31
-83.08504678941937
12
7994.19524306615
22
65.86700466712755
32
238.64853865045978
13
7862.6382761561235
23
17.984184601533926
33
238.64853865045978
0
3DFACE
5
FF46
330
FD28
100
AcDbEntity
100
AcDbFace
8
CELIK_KIRIS_KOLON
10
7808.820483361343
20
192.16159467154867
30
56.56854249492379
11
7820.096794810774
21
196.2658363914567
31
56.56854249492379
12
7773.904445145011
22
323.1782740496936
32
276.47875144394004
13
7762.62813369558
23
319.07403232978555
33
276.47875144394004
0
3DFACE
5
FF47
330
FD28
100
AcDbEntity
100
AcDbFace
8
CELIK_KIRIS_KOLON
10
7912.1866716477925
20
229.78381043737224
30
56.56854249492379
11
7923.4629830972235
21
233.88805215728027
31
56.56854249492379
12
7877.270633431461
22
360.80048981551715
32
276.47875144394004
13
7865.99432198203
23
356.6962480956091
33
276.47875144394004
0
3DFACE
5
FF74
330
FD28
100
AcDbEntity
100
AcDbFace
8
CELIK_KIRIS_KOLON
10
7685.68504354114
20
465.23947125756786
30
109.33161594775356
11
7815.68504354114
21
465.23947125756786
31
109.33161594775356
12
7815.68504354114
22
595.2394712575679
32
109.33161594775356
13
7685.68504354114
23
595.2394712575679
33
109.33161594775356
0
3DFACE
5
FF75
330
FD28
100
AcDbEntity
100
AcDbFace
8
CELIK_KIRIS_KOLON
10
7685.68504354114
20
465.23947125756786
30
219.33161594775356
11
7815.68504354114
21
465.23947125756786
31
219.33161594775356
12
7815.68504354114
22
595.2394712575679
32
219.33161594775356
13
7685.68504354114
23
595.2394712575679
33
219.33161594775356
0
3DFACE
5
FF76
330
FD28
100
AcDbEntity
100
AcDbFace
8
CELIK_KIRIS_KOLON
10
7685.68504354114
20
465.23947125756786
30
109.33161594775356
11
7815.68504354114
21
465.23947125756786
31
109.33161594775356
12
7815.68504354114
22
465.23947125756786
32
219.33161594775356
13
7685.68504354114
23
465.23947125756786
33
219.33161594775356
0
3DFACE
5
FF77
330
FD28
100
AcDbEntity
100
AcDbFace
8
CELIK_KIRIS_KOLON
10
7685.68504354114
20
595.2394712575679
30
109.33161594775356
11
7815.68504354114
21
595.2394712575679
31
109.33161594775356
12
7815.68504354114
22
595.2394712575679
32
219.33161594775356
13
7685.68504354114
23
595.2394712575679
33
219.33161594775356
0
3DFACE
5
FF78
330
FD28
100
AcDbEntity
100
AcDbFace
8
CELIK_KIRIS_KOLON
10
7685.68504354114
20
465.23947125756786
30
109.33161594775356
11
7685.68504354114
21
595.2394712575679
31
109.33161594775356
12
7685.68504354114
22
595.2394712575679
32
219.33161594775356
13
7685.68504354114
23
465.23947125756786
33
219.33161594775356
0
3DFACE
5
FF79
330
FD28
100
AcDbEntity
100
AcDbFace
8
CELIK_KIRIS_KOLON
10
7815.68504354114
20
465.23947125756786
30
109.33161594775356
11
7815.68504354114
21
595.2394712575679
31
109.33161594775356
12
7815.68504354114
22
595.2394712575679
32
219.33161594775356
13
7815.68504354114
23
465.23947125756786
33
219.33161594775356
0
LINE
5
FF7A
330
FD28
100
AcDbEntity
100
AcDbLine
8
CELIK_KIRIS_KOLON
10
7685.68504354114
20
465.23947125756786
30
109.33161594775356
11
7815.68504354114
21
465.23947125756786
31
109.33161594775356
0
LINE
5
FF7B
330
FD28
100
AcDbEntity
100
AcDbLine
8
CELIK_KIRIS_KOLON
10
7815.68504354114
20
465.23947125756786
30
109.33161594775356
11
7815.68504354114
21
595.2394712575679
31
109.33161594775356
0
LINE
5
FF7C
330
FD28
100
AcDbEntity
100
AcDbLine
8
CELIK_KIRIS_KOLON
10
7815.68504354114
20
595.2394712575679
30
109.33161594775356
11
7685.68504354114
21
595.2394712575679
31
109.33161594775356
0
LINE
5
FF7D
330
FD28
100
AcDbEntity
100
AcDbLine
8
CELIK_KIRIS_KOLON
10
7685.68504354114
20
595.2394712575679
30
109.33161594775356
11
7685.68504354114
21
465.23947125756786
31
109.33161594775356
0
LINE
5
FF7E
330
FD28
100
AcDbEntity
100
AcDbLine
8
CELIK_KIRIS_KOLON
10
7685.68504354114
20
465.23947125756786
30
219.33161594775356
11
7815.68504354114
21
465.23947125756786
31
219.33161594775356
0
LINE
5
FF7F
330
FD28
100
AcDbEntity
100
AcDbLine
8
CELIK_KIRIS_KOLON
10
7815.68504354114
20
465.23947125756786
30
219.33161594775356
11
7815.68504354114
21
595.2394712575679
31
219.33161594775356
0
LINE
5
FF80
330
FD28
100
AcDbEntity
100
AcDbLine
8
CELIK_KIRIS_KOLON
10
7815.68504354114
20
595.2394712575679
30
219.33161594775356
11
7685.68504354114
21
595.2394712575679
31
219.33161594775356
0
LINE
5
FF81
330
FD28
100
AcDbEntity
100
AcDbLine
8
CELIK_KIRIS_KOLON
10
7685.68504354114
20
595.2394712575679
30
219.33161594775356
11
7685.68504354114
21
465.23947125756786
31
219.33161594775356
0
LINE
5
FF82
330
FD28
100
AcDbEntity
100
AcDbLine
8
CELIK_KIRIS_KOLON
10
7685.68504354114
20
465.23947125756786
30
109.33161594775356
11
7685.68504354114
21
465.23947125756786
31
219.33161594775356
0
LINE
5
FF83
330
FD28
100
AcDbEntity
100
AcDbLine
8
CELIK_KIRIS_KOLON
10
7815.68504354114
20
465.23947125756786
30
109.33161594775356
11
7815.68504354114
21
465.23947125756786
31
219.33161594775356
0
LINE
5
FF84
330
FD28
100
AcDbEntity
100
AcDbLine
8
CELIK_KIRIS_KOLON
10
7815.68504354114
20
595.2394712575679
30
109.33161594775356
11
7815.68504354114
21
595.2394712575679
31
219.33161594775356
0
LINE
5
FF85
330
FD28
100
AcDbEntity
100
AcDbLine
8
CELIK_KIRIS_KOLON
10
7685.68504354114
20
595.2394712575679
30
109.33161594775356
11
7685.68504354114
21
595.2394712575679
31
219.33161594775356
0
3DFACE
5
FF86
330
FD28
100
AcDbEntity
100
AcDbFace
8
CELIK_KIRIS_KOLON
10
7778.795277160611
20
209.421206867928
30
381.5677267045744
11
7908.795277160611
21
209.421206867928
31
381.5677267045744
12
7908.795277160611
22
339.421206867928
32
381.5677267045744
13
7778.795277160611
23
339.421206867928
33
381.5677267045744
0
3DFACE
5
FF87
330
FD28
100
AcDbEntity
100
AcDbFace
8
CELIK_KIRIS_KOLON
10
7778.795277160611
20
209.421206867928
30
491.5677267045744
11
7908.795277160611
21
209.421206867928
31
491.5677267045744
12
7908.795277160611
22
339.421206867928
32
491.5677267045744
13
7778.795277160611
23
339.421206867928
33
491.5677267045744
0
3DFACE
5
FF88
330
FD28
100
AcDbEntity
100
AcDbFace
8
CELIK_KIRIS_KOLON
10
7778.795277160611
20
209.421206867928
30
381.5677267045744
11
7908.795277160611
21
209.421206867928
31
381.5677267045744
12
7908.795277160611
22
209.421206867928
32
491.5677267045744
13
7778.795277160611
23
209.421206867928
33
491.5677267045744
0
3DFACE
5
FF89
330
FD28
100
AcDbEntity
100
AcDbFace
8
CELIK_KIRIS_KOLON
10
7778.795277160611
20
339.421206867928
30
381.5677267045744
11
7908.795277160611
21
339.421206867928
31
381.5677267045744
12
7908.795277160611
22
339.421206867928
32
491.5677267045744
13
7778.795277160611
23
339.421206867928
33
491.5677267045744
0
3DFACE
5
FF8A
330
FD28
100
AcDbEntity
100
AcDbFace
8
CELIK_KIRIS_KOLON
10
7778.795277160611
20
209.421206867928
30
381.5677267045744
11
7778.795277160611
21
339.421206867928
31
381.5677267045744
12
7778.795277160611
22
339.421206867928
32
491.5677267045744
13
7778.795277160611
23
209.421206867928
33
491.5677267045744
0
3DFACE
5
FF8B
330
FD28
100
AcDbEntity
100
AcDbFace
8
CELIK_KIRIS_KOLON
10
7908.795277160611
20
209.421206867928
30
381.5677267045744
11
7908.795277160611
21
339.421206867928
31
381.5677267045744
12
7908.795277160611
22
339.421206867928
32
491.5677267045744
13
7908.795277160611
23
209.421206867928
33
491.5677267045744
0
LINE
5
FF8C
330
FD28
100
AcDbEntity
100
AcDbLine
8
CELIK_KIRIS_KOLON
10
7778.795277160611
20
209.421206867928
30
381.5677267045744
11
7908.795277160611
21
209.421206867928
31
381.5677267045744
0
LINE
5
FF8D
330
FD28
100
AcDbEntity
100
AcDbLine
8
CELIK_KIRIS_KOLON
10
7908.795277160611
20
209.421206867928
30
381.5677267045744
11
7908.795277160611
21
339.421206867928
31
381.5677267045744
0
LINE
5
FF8E
330
FD28
100
AcDbEntity
100
AcDbLine
8
CELIK_KIRIS_KOLON
10
7908.795277160611
20
339.421206867928
30
381.5677267045744
11
7778.795277160611
21
339.421206867928
31
381.5677267045744
0
LINE
5
FF8F
330
FD28
100
AcDbEntity
100
AcDbLine
8
CELIK_KIRIS_KOLON
10
7778.795277160611
20
339.421206867928
30
381.5677267045744
11
7778.795277160611
21
209.421206867928
31
381.5677267045744
0
LINE
5
FF90
330
FD28
100
AcDbEntity
100
AcDbLine
8
CELIK_KIRIS_KOLON
10
7778.795277160611
20
209.421206867928
30
491.5677267045744
11
7908.795277160611
21
209.421206867928
31
491.5677267045744
0
LINE
5
FF91
330
FD28
100
AcDbEntity
100
AcDbLine
8
CELIK_KIRIS_KOLON
10
7908.795277160611
20
209.421206867928
30
491.5677267045744
11
7908.795277160611
21
339.421206867928
31
491.5677267045744
0
LINE
5
FF92
330
FD28
100
AcDbEntity
100
AcDbLine
8
CELIK_KIRIS_KOLON
10
7908.795277160611
20
339.421206867928
30
491.5677267045744
11
7778.795277160611
21
339.421206867928
31
491.5677267045744
0
LINE
5
FF93
330
FD28
100
AcDbEntity
100
AcDbLine
8
CELIK_KIRIS_KOLON
10
7778.795277160611
20
339.421206867928
30
491.5677267045744
11
7778.795277160611
21
209.421206867928
31
491.5677267045744
0
LINE
5
FF94
330
FD28
100
AcDbEntity
100
AcDbLine
8
CELIK_KIRIS_KOLON
10
7778.795277160611
20
209.421206867928
30
381.5677267045744
11
7778.795277160611
21
209.421206867928
31
491.5677267045744
0
LINE
5
FF95
330
FD28
100
AcDbEntity
100
AcDbLine
8
CELIK_KIRIS_KOLON
10
7908.795277160611
20
209.421206867928
30
381.5677267045744
11
7908.795277160611
21
209.421206867928
31
491.5677267045744
0
LINE
5
FF96
330
FD28
100
AcDbEntity
100
AcDbLine
8
CELIK_KIRIS_KOLON
10
7908.795277160611
20
339.421206867928
30
381.5677267045744
11
7908.795277160611
21
339.421206867928
31
491.5677267045744
0
LINE
5
FF97
330
FD28
100
AcDbEntity
100
AcDbLine
8
CELIK_KIRIS_KOLON
10
7778.795277160611
20
339.421206867928
30
381.5677267045744
11
7778.795277160611
21
339.421206867928
31
491.5677267045744
0
3DFACE
5
FF99
330
FD28
100
AcDbEntity
100
AcDbFace
8
CELIK_KIRIS_KOLON
10
5500
20
-60
30
550
11
8500
21
-60
31
550
12
8500
22
60
32
550
13
5500
23
60
33
550
0
3DFACE
5
FF9A
330
FD28
100
AcDbEntity
100
AcDbFace
8
CELIK_KIRIS_KOLON
10
5500
20
-60
30
670
11
8500
21
-60
31
670
12
8500
22
60
32
670
13
5500
23
60
33
670
0
3DFACE
5
FF9B
330
FD28
100
AcDbEntity
100
AcDbFace
8
CELIK_KIRIS_KOLON
10
5500
20
-60
30
550
11
8500
21
-60
31
550
12
8500
22
-60
32
670
13
5500
23
-60
33
670
0
3DFACE
5
FF9C
330
FD28
100
AcDbEntity
100
AcDbFace
8
CELIK_KIRIS_KOLON
10
5500
20
60
30
550
11
8500
21
60
31
550
12
8500
22
60
32
670
13
5500
23
60
33
670
0
3DFACE
5
FF9D
330
FD28
100
AcDbEntity
100
AcDbFace
8
CELIK_KIRIS_KOLON
10
5500
20
-60
30
550
11
5500
21
60
31
550
12
5500
22
60
32
670
13
5500
23
-60
33
670
0
3DFACE
5
FF9E
330
FD28
100
AcDbEntity
100
AcDbFace
8
CELIK_KIRIS_KOLON
10
8500
20
-60
30
550
11
8500
21
60
31
550
12
8500
22
60
32
670
13
8500
23
-60
33
670
0
LINE
5
FF9F
330
FD28
100
AcDbEntity
100
AcDbLine
8
CELIK_KIRIS_KOLON
10
5500
20
-60
30
550
11
8500
21
-60
31
550
0
LINE
5
FFA0
330
FD28
100
AcDbEntity
100
AcDbLine
8
CELIK_KIRIS_KOLON
10
8500
20
-60
30
550
11
8500
21
60
31
550
0
LINE
5
FFA1
330
FD28
100
AcDbEntity
100
AcDbLine
8
CELIK_KIRIS_KOLON
10
8500
20
60
30
550
11
5500
21
60
31
550
0
LINE
5
FFA2
330
FD28
100
AcDbEntity
100
AcDbLine
8
CELIK_KIRIS_KOLON
10
5500
20
60
30
550
11
5500
21
-60
31
550
0
LINE
5
FFA3
330
FD28
100
AcDbEntity
100
AcDbLine
8
CELIK_KIRIS_KOLON
10
5500
20
-60
30
670
11
8500
21
-60
31
670
0
LINE
5
FFA4
330
FD28
100
AcDbEntity
100
AcDbLine
8
CELIK_KIRIS_KOLON
10
8500
20
-60
30
670
11
8500
21
60
31
670
0
LINE
5
FFA5
330
FD28
100
AcDbEntity
100
AcDbLine
8
CELIK_KIRIS_KOLON
10
8500
20
60
30
670
11
5500
21
60
31
670
0
LINE
5
FFA6
330
FD28
100
AcDbEntity
100
AcDbLine
8
CELIK_KIRIS_KOLON
10
5500
20
60
30
670
11
5500
21
-60
31
670
0
LINE
5
FFA7
330
FD28
100
AcDbEntity
100
AcDbLine
8
CELIK_KIRIS_KOLON
10
5500
20
-60
30
550
11
5500
21
-60
31
670
0
LINE
5
FFA8
330
FD28
100
AcDbEntity
100
AcDbLine
8
CELIK_KIRIS_KOLON
10
8500
20
-60
30
550
11
8500
21
-60
31
670
0
LINE
5
FFA9
330
FD28
100
AcDbEntity
100
AcDbLine
8
CELIK_KIRIS_KOLON
10
8500
20
60
30
550
11
8500
21
60
31
670
0
LINE
5
FFAA
330
FD28
100
AcDbEntity
100
AcDbLine
8
CELIK_KIRIS_KOLON
10
5500
20
60
30
550
11
5500
21
60
31
670
0
3DFACE
5
FFBB
330
FD28
100
AcDbEntity
100
AcDbFace
8
CELIK_KIRIS_KOLON
10
15880
20
-795
30
2355
11
16120
21
-795
31
2355
12
16120
22
795
32
2355
13
15880
23
795
33
2355
0
3DFACE
5
FFBC
330
FD28
100
AcDbEntity
100
AcDbFace
8
CELIK_KIRIS_KOLON
10
15880
20
-795
30
2445
11
16120
21
-795
31
2445
12
16120
22
795
32
2445
13
15880
23
795
33
2445
0
3DFACE
5
FFBD
330
FD28
100
AcDbEntity
100
AcDbFace
8
CELIK_KIRIS_KOLON
10
15880
20
-795
30
2355
11
16120
21
-795
31
2355
12
16120
22
-795
32
2445
13
15880
23
-795
33
2445
0
3DFACE
5
FFBE
330
FD28
100
AcDbEntity
100
AcDbFace
8
CELIK_KIRIS_KOLON
10
15880
20
795
30
2355
11
16120
21
795
31
2355
12
16120
22
795
32
2445
13
15880
23
795
33
2445
0
3DFACE
5
FFBF
330
FD28
100
AcDbEntity
100
AcDbFace
8
CELIK_KIRIS_KOLON
10
15880
20
-795
30
2355
11
15880
21
795
31
2355
12
15880
22
795
32
2445
13
15880
23
-795
33
2445
0
3DFACE
5
FFC0
330
FD28
100
AcDbEntity
100
AcDbFace
8
CELIK_KIRIS_KOLON
10
16120
20
-795
30
2355
11
16120
21
795
31
2355
12
16120
22
795
32
2445
13
16120
23
-795
33
2445
0
LINE
5
FFC1
330
FD28
100
AcDbEntity
100
AcDbLine
8
CELIK_KIRIS_KOLON
10
15880
20
-795
30
2355
11
16120
21
-795
31
2355
0
LINE
5
FFC2
330
FD28
100
AcDbEntity
100
AcDbLine
8
CELIK_KIRIS_KOLON
10
16120
20
-795
30
2355
11
16120
21
795
31
2355
0
LINE
5
FFC3
330
FD28
100
AcDbEntity
100
AcDbLine
8
CELIK_KIRIS_KOLON
10
16120
20
795
30
2355
11
15880
21
795
31
2355
0
LINE
5
FFC4
330
FD28
100
AcDbEntity
100
AcDbLine
8
CELIK_KIRIS_KOLON
10
15880
20
795
30
2355
11
15880
21
-795
31
2355
0
LINE
5
FFC5
330
FD28
100
AcDbEntity
100
AcDbLine
8
CELIK_KIRIS_KOLON
10
15880
20
-795
30
2445
11
16120
21
-795
31
2445
0
LINE
5
FFC6
330
FD28
100
AcDbEntity
100
AcDbLine
8
CELIK_KIRIS_KOLON
10
16120
20
-795
30
2445
11
16120
21
795
31
2445
0
LINE
5
FFC7
330
FD28
100
AcDbEntity
100
AcDbLine
8
CELIK_KIRIS_KOLON
10
16120
20
795
30
2445
11
15880
21
795
31
2445
0
LINE
5
FFC8
330
FD28
100
AcDbEntity
100
AcDbLine
8
CELIK_KIRIS_KOLON
10
15880
20
795
30
2445
11
15880
21
-795
31
2445
0
LINE
5
FFC9
330
FD28
100
AcDbEntity
100
AcDbLine
8
CELIK_KIRIS_KOLON
10
15880
20
-795
30
2355
11
15880
21
-795
31
2445
0
LINE
5
FFCA
330
FD28
100
AcDbEntity
100
AcDbLine
8
CELIK_KIRIS_KOLON
10
16120
20
-795
30
2355
11
16120
21
-795
31
2445
0
LINE
5
FFCB
330
FD28
100
AcDbEntity
100
AcDbLine
8
CELIK_KIRIS_KOLON
10
16120
20
795
30
2355
11
16120
21
795
31
2445
0
LINE
5
FFCC
330
FD28
100
AcDbEntity
100
AcDbLine
8
CELIK_KIRIS_KOLON
10
15880
20
795
30
2355
11
15880
21
795
31
2445
0
3DFACE
5
FFEC
330
FD28
100
AcDbEntity
100
AcDbFace
8
CELIK_KIRIS_KOLON
10
15930
20
238.64853865045978
30
566.9149532105806
11
16070
21
238.64853865045978
31
566.9149532105806
12
16070
22
-83.08504678941932
32
888.6485386504598
13
15930
23
-83.08504678941932
33
888.6485386504598
0
3DFACE
5
FFED
330
FD28
100
AcDbEntity
100
AcDbFace
8
CELIK_KIRIS_KOLON
10
15939
20
98.99494936611666
30
706.5685424949238
11
15951
21
98.99494936611666
31
706.5685424949238
12
15951
22
234.05234457274724
32
926.47875144394
13
15939
23
234.05234457274724
33
926.47875144394
0
3DFACE
5
FFEE
330
FD28
100
AcDbEntity
100
AcDbFace
8
CELIK_KIRIS_KOLON
10
16049
20
98.99494936611666
30
706.5685424949238
11
16061
21
98.99494936611666
31
706.5685424949238
12
16061
22
234.05234457274724
32
926.47875144394
13
16049
23
234.05234457274724
33
926.47875144394
0
3DFACE
5
1001B
330
FD28
100
AcDbEntity
100
AcDbFace
8
CELIK_KIRIS_KOLON
10
15935
20
371.56772670457445
30
759.3316159477536
11
16065
21
371.56772670457445
31
759.3316159477536
12
16065
22
501.56772670457445
32
759.3316159477536
13
15935
23
501.56772670457445
33
759.3316159477536
0
3DFACE
5
1001C
330
FD28
100
AcDbEntity
100
AcDbFace
8
CELIK_KIRIS_KOLON
10
15935
20
371.56772670457445
30
869.3316159477536
11
16065
21
371.56772670457445
31
869.3316159477536
12
16065
22
501.56772670457445
32
869.3316159477536
13
15935
23
501.56772670457445
33
869.3316159477536
0
3DFACE
5
1001D
330
FD28
100
AcDbEntity
100
AcDbFace
8
CELIK_KIRIS_KOLON
10
15935
20
371.56772670457445
30
759.3316159477536
11
16065
21
371.56772670457445
31
759.3316159477536
12
16065
22
371.56772670457445
32
869.3316159477536
13
15935
23
371.56772670457445
33
869.3316159477536
0
3DFACE
5
1001E
330
FD28
100
AcDbEntity
100
AcDbFace
8
CELIK_KIRIS_KOLON
10
15935
20
501.56772670457445
30
759.3316159477536
11
16065
21
501.56772670457445
31
759.3316159477536
12
16065
22
501.56772670457445
32
869.3316159477536
13
15935
23
501.56772670457445
33
869.3316159477536
0
3DFACE
5
1001F
330
FD28
100
AcDbEntity
100
AcDbFace
8
CELIK_KIRIS_KOLON
10
15935
20
371.56772670457445
30
759.3316159477536
11
15935
21
501.56772670457445
31
759.3316159477536
12
15935
22
501.56772670457445
32
869.3316159477536
13
15935
23
371.56772670457445
33
869.3316159477536
0
3DFACE
5
10020
330
FD28
100
AcDbEntity
100
AcDbFace
8
CELIK_KIRIS_KOLON
10
16065
20
371.56772670457445
30
759.3316159477536
11
16065
21
501.56772670457445
31
759.3316159477536
12
16065
22
501.56772670457445
32
869.3316159477536
13
16065
23
371.56772670457445
33
869.3316159477536
0
LINE
5
10021
330
FD28
100
AcDbEntity
100
AcDbLine
8
CELIK_KIRIS_KOLON
10
15935
20
371.56772670457445
30
759.3316159477536
11
16065
21
371.56772670457445
31
759.3316159477536
0
LINE
5
10022
330
FD28
100
AcDbEntity
100
AcDbLine
8
CELIK_KIRIS_KOLON
10
16065
20
371.56772670457445
30
759.3316159477536
11
16065
21
501.56772670457445
31
759.3316159477536
0
LINE
5
10023
330
FD28
100
AcDbEntity
100
AcDbLine
8
CELIK_KIRIS_KOLON
10
16065
20
501.56772670457445
30
759.3316159477536
11
15935
21
501.56772670457445
31
759.3316159477536
0
LINE
5
10024
330
FD28
100
AcDbEntity
100
AcDbLine
8
CELIK_KIRIS_KOLON
10
15935
20
501.56772670457445
30
759.3316159477536
11
15935
21
371.56772670457445
31
759.3316159477536
0
LINE
5
10025
330
FD28
100
AcDbEntity
100
AcDbLine
8
CELIK_KIRIS_KOLON
10
15935
20
371.56772670457445
30
869.3316159477536
11
16065
21
371.56772670457445
31
869.3316159477536
0
LINE
5
10026
330
FD28
100
AcDbEntity
100
AcDbLine
8
CELIK_KIRIS_KOLON
10
16065
20
371.56772670457445
30
869.3316159477536
11
16065
21
501.56772670457445
31
869.3316159477536
0
LINE
5
10027
330
FD28
100
AcDbEntity
100
AcDbLine
8
CELIK_KIRIS_KOLON
10
16065
20
501.56772670457445
30
869.3316159477536
11
15935
21
501.56772670457445
31
869.3316159477536
0
LINE
5
10028
330
FD28
100
AcDbEntity
100
AcDbLine
8
CELIK_KIRIS_KOLON
10
15935
20
501.56772670457445
30
869.3316159477536
11
15935
21
371.56772670457445
31
869.3316159477536
0
LINE
5
10029
330
FD28
100
AcDbEntity
100
AcDbLine
8
CELIK_KIRIS_KOLON
10
15935
20
371.56772670457445
30
759.3316159477536
11
15935
21
371.56772670457445
31
869.3316159477536
0
LINE
5
1002A
330
FD28
100
AcDbEntity
100
AcDbLine
8
CELIK_KIRIS_KOLON
10
16065
20
371.56772670457445
30
759.3316159477536
11
16065
21
371.56772670457445
31
869.3316159477536
0
LINE
5
1002B
330
FD28
100
AcDbEntity
100
AcDbLine
8
CELIK_KIRIS_KOLON
10
16065
20
501.56772670457445
30
759.3316159477536
11
16065
21
501.56772670457445
31
869.3316159477536
0
LINE
5
1002C
330
FD28
100
AcDbEntity
100
AcDbLine
8
CELIK_KIRIS_KOLON
10
15935
20
501.56772670457445
30
759.3316159477536
11
15935
21
501.56772670457445
31
869.3316159477536
0
3DFACE
5
1002D
330
FD28
100
AcDbEntity
100
AcDbFace
8
CELIK_KIRIS_KOLON
10
15935
20
99.33161594775362
30
1031.5677267045744
11
16065
21
99.33161594775362
31
1031.5677267045744
12
16065
22
229.33161594775362
32
1031.5677267045744
13
15935
23
229.33161594775362
33
1031.5677267045744
0
3DFACE
5
1002E
330
FD28
100
AcDbEntity
100
AcDbFace
8
CELIK_KIRIS_KOLON
10
15935
20
99.33161594775362
30
1141.5677267045744
11
16065
21
99.33161594775362
31
1141.5677267045744
12
16065
22
229.33161594775362
32
1141.5677267045744
13
15935
23
229.33161594775362
33
1141.5677267045744
0
3DFACE
5
1002F
330
FD28
100
AcDbEntity
100
AcDbFace
8
CELIK_KIRIS_KOLON
10
15935
20
99.33161594775362
30
1031.5677267045744
11
16065
21
99.33161594775362
31
1031.5677267045744
12
16065
22
99.33161594775362
32
1141.5677267045744
13
15935
23
99.33161594775362
33
1141.5677267045744
0
3DFACE
5
10030
330
FD28
100
AcDbEntity
100
AcDbFace
8
CELIK_KIRIS_KOLON
10
15935
20
229.33161594775362
30
1031.5677267045744
11
16065
21
229.33161594775362
31
1031.5677267045744
12
16065
22
229.33161594775362
32
1141.5677267045744
13
15935
23
229.33161594775362
33
1141.5677267045744
0
3DFACE
5
10031
330
FD28
100
AcDbEntity
100
AcDbFace
8
CELIK_KIRIS_KOLON
10
15935
20
99.33161594775362
30
1031.5677267045744
11
15935
21
229.33161594775362
31
1031.5677267045744
12
15935
22
229.33161594775362
32
1141.5677267045744
13
15935
23
99.33161594775362
33
1141.5677267045744
0
3DFACE
5
10032
330
FD28
100
AcDbEntity
100
AcDbFace
8
CELIK_KIRIS_KOLON
10
16065
20
99.33161594775362
30
1031.5677267045744
11
16065
21
229.33161594775362
31
1031.5677267045744
12
16065
22
229.33161594775362
32
1141.5677267045744
13
16065
23
99.33161594775362
33
1141.5677267045744
0
LINE
5
10033
330
FD28
100
AcDbEntity
100
AcDbLine
8
CELIK_KIRIS_KOLON
10
15935
20
99.33161594775362
30
1031.5677267045744
11
16065
21
99.33161594775362
31
1031.5677267045744
0
LINE
5
10034
330
FD28
100
AcDbEntity
100
AcDbLine
8
CELIK_KIRIS_KOLON
10
16065
20
99.33161594775362
30
1031.5677267045744
11
16065
21
229.33161594775362
31
1031.5677267045744
0
LINE
5
10035
330
FD28
100
AcDbEntity
100
AcDbLine
8
CELIK_KIRIS_KOLON
10
16065
20
229.33161594775362
30
1031.5677267045744
11
15935
21
229.33161594775362
31
1031.5677267045744
0
LINE
5
10036
330
FD28
100
AcDbEntity
100
AcDbLine
8
CELIK_KIRIS_KOLON
10
15935
20
229.33161594775362
30
1031.5677267045744
11
15935
21
99.33161594775362
31
1031.5677267045744
0
LINE
5
10037
330
FD28
100
AcDbEntity
100
AcDbLine
8
CELIK_KIRIS_KOLON
10
15935
20
99.33161594775362
30
1141.5677267045744
11
16065
21
99.33161594775362
31
1141.5677267045744
0
LINE
5
10038
330
FD28
100
AcDbEntity
100
AcDbLine
8
CELIK_KIRIS_KOLON
10
16065
20
99.33161594775362
30
1141.5677267045744
11
16065
21
229.33161594775362
31
1141.5677267045744
0
LINE
5
10039
330
FD28
100
AcDbEntity
100
AcDbLine
8
CELIK_KIRIS_KOLON
10
16065
20
229.33161594775362
30
1141.5677267045744
11
15935
21
229.33161594775362
31
1141.5677267045744
0
LINE
5
1003A
330
FD28
100
AcDbEntity
100
AcDbLine
8
CELIK_KIRIS_KOLON
10
15935
20
229.33161594775362
30
1141.5677267045744
11
15935
21
99.33161594775362
31
1141.5677267045744
0
LINE
5
1003B
330
FD28
100
AcDbEntity
100
AcDbLine
8
CELIK_KIRIS_KOLON
10
15935
20
99.33161594775362
30
1031.5677267045744
11
15935
21
99.33161594775362
31
1141.5677267045744
0
LINE
5
1003C
330
FD28
100
AcDbEntity
100
AcDbLine
8
CELIK_KIRIS_KOLON
10
16065
20
99.33161594775362
30
1031.5677267045744
11
16065
21
99.33161594775362
31
1141.5677267045744
0
LINE
5
1003D
330
FD28
100
AcDbEntity
100
AcDbLine
8
CELIK_KIRIS_KOLON
10
16065
20
229.33161594775362
30
1031.5677267045744
11
16065
21
229.33161594775362
31
1141.5677267045744
0
LINE
5
1003E
330
FD28
100
AcDbEntity
100
AcDbLine
8
CELIK_KIRIS_KOLON
10
15935
20
229.33161594775362
30
1031.5677267045744
11
15935
21
229.33161594775362
31
1141.5677267045744
0
3DFACE
5
FD51
330
FD28
100
AcDbEntity
100
AcDbFace
8
MONTAJ_BORULARI
10
-14000
20
609.3846240265666
30
-62.366818100653575
11
-13973.059231636793
21
617.2753923897742
31
-54.47604973744609
12
-13973.059231636793
22
-54.476049737445976
32
617.2753923897742
13
-14000
23
-62.36681810065346
33
609.3846240265666
0
3DFACE
5
FD52
330
FD28
100
AcDbEntity
100
AcDbFace
8
MONTAJ_BORULARI
10
-13973.059231636793
20
617.2753923897742
30
-54.47604973744609
11
-13961.9
21
636.3253923897742
31
-35.426049737446135
12
-13961.9
22
-35.42604973744602
32
636.3253923897742
13
-13973.059231636793
23
-54.476049737445976
33
617.2753923897742
0
3DFACE
5
FD53
330
FD28
100
AcDbEntity
100
AcDbFace
8
MONTAJ_BORULARI
10
-13961.9
20
636.3253923897742
30
-35.426049737446135
11
-13973.059231636793
21
655.3753923897741
31
-16.376049737446124
12
-13973.059231636793
22
-16.37604973744601
32
655.3753923897741
13
-13961.9
23
-35.42604973744602
33
636.3253923897742
0
3DFACE
5
FD54
330
FD28
100
AcDbEntity
100
AcDbFace
8
MONTAJ_BORULARI
10
-13973.059231636793
20
655.3753923897741
30
-16.376049737446124
11
-14000
21
663.2661607529816
31
-8.485281374238639
12
-14000
22
-8.485281374238525
32
663.2661607529816
13
-13973.059231636793
23
-16.37604973744601
33
655.3753923897741
0
3DFACE
5
FD55
330
FD28
100
AcDbEntity
100
AcDbFace
8
MONTAJ_BORULARI
10
-14000
20
663.2661607529816
30
-8.485281374238639
11
-14026.940768363207
21
655.3753923897741
31
-16.376049737446124
12
-14026.940768363207
22
-16.37604973744601
32
655.3753923897741
13
-14000
23
-8.485281374238525
33
663.2661607529816
0
3DFACE
5
FD56
330
FD28
100
AcDbEntity
100
AcDbFace
8
MONTAJ_BORULARI
10
-14026.940768363207
20
655.3753923897741
30
-16.376049737446124
11
-14038.1
21
636.3253923897742
31
-35.426049737446135
12
-14038.1
22
-35.42604973744602
32
636.3253923897742
13
-14026.940768363207
23
-16.37604973744601
33
655.3753923897741
0
3DFACE
5
FD57
330
FD28
100
AcDbEntity
100
AcDbFace
8
MONTAJ_BORULARI
10
-14038.1
20
636.3253923897742
30
-35.426049737446135
11
-14026.940768363207
21
617.2753923897742
31
-54.47604973744609
12
-14026.940768363207
22
-54.476049737445976
32
617.2753923897742
13
-14038.1
23
-35.42604973744602
33
636.3253923897742
0
3DFACE
5
FD58
330
FD28
100
AcDbEntity
100
AcDbFace
8
MONTAJ_BORULARI
10
-14026.940768363207
20
617.2753923897742
30
-54.47604973744609
11
-14000
21
609.3846240265666
31
-62.366818100653575
12
-14000
22
-62.36681810065346
32
609.3846240265666
13
-14026.940768363207
23
-54.476049737445976
33
617.2753923897742
0
3DFACE
5
FD59
330
FD28
100
AcDbEntity
100
AcDbFace
8
MONTAJ_BORULARI
10
-14035
20
401.56772670457445
30
164.33161594775356
11
-13965
21
401.56772670457445
31
164.33161594775356
12
-13965
22
471.56772670457445
32
164.33161594775356
13
-14035
23
471.56772670457445
33
164.33161594775356
0
3DFACE
5
FD5A
330
FD28
100
AcDbEntity
100
AcDbFace
8
MONTAJ_BORULARI
10
-14035
20
401.56772670457445
30
2200
11
-13965
21
401.56772670457445
31
2200
12
-13965
22
471.56772670457445
32
2200
13
-14035
23
471.56772670457445
33
2200
0
3DFACE
5
FD5B
330
FD28
100
AcDbEntity
100
AcDbFace
8
MONTAJ_BORULARI
10
-14035
20
401.56772670457445
30
164.33161594775356
11
-13965
21
401.56772670457445
31
164.33161594775356
12
-13965
22
401.56772670457445
32
2200
13
-14035
23
401.56772670457445
33
2200
0
3DFACE
5
FD5C
330
FD28
100
AcDbEntity
100
AcDbFace
8
MONTAJ_BORULARI
10
-14035
20
471.56772670457445
30
164.33161594775356
11
-13965
21
471.56772670457445
31
164.33161594775356
12
-13965
22
471.56772670457445
32
2200
13
-14035
23
471.56772670457445
33
2200
0
3DFACE
5
FD5D
330
FD28
100
AcDbEntity
100
AcDbFace
8
MONTAJ_BORULARI
10
-14035
20
401.56772670457445
30
164.33161594775356
11
-14035
21
471.56772670457445
31
164.33161594775356
12
-14035
22
471.56772670457445
32
2200
13
-14035
23
401.56772670457445
33
2200
0
3DFACE
5
FD5E
330
FD28
100
AcDbEntity
100
AcDbFace
8
MONTAJ_BORULARI
10
-13965
20
401.56772670457445
30
164.33161594775356
11
-13965
21
471.56772670457445
31
164.33161594775356
12
-13965
22
471.56772670457445
32
2200
13
-13965
23
401.56772670457445
33
2200
0
LINE
5
FD5F
330
FD28
100
AcDbEntity
100
AcDbLine
8
MONTAJ_BORULARI
10
-14035
20
401.56772670457445
30
164.33161594775356
11
-13965
21
401.56772670457445
31
164.33161594775356
0
LINE
5
FD60
330
FD28
100
AcDbEntity
100
AcDbLine
8
MONTAJ_BORULARI
10
-13965
20
401.56772670457445
30
164.33161594775356
11
-13965
21
471.56772670457445
31
164.33161594775356
0
LINE
5
FD61
330
FD28
100
AcDbEntity
100
AcDbLine
8
MONTAJ_BORULARI
10
-13965
20
471.56772670457445
30
164.33161594775356
11
-14035
21
471.56772670457445
31
164.33161594775356
0
LINE
5
FD62
330
FD28
100
AcDbEntity
100
AcDbLine
8
MONTAJ_BORULARI
10
-14035
20
471.56772670457445
30
164.33161594775356
11
-14035
21
401.56772670457445
31
164.33161594775356
0
LINE
5
FD63
330
FD28
100
AcDbEntity
100
AcDbLine
8
MONTAJ_BORULARI
10
-14035
20
401.56772670457445
30
2200
11
-13965
21
401.56772670457445
31
2200
0
LINE
5
FD64
330
FD28
100
AcDbEntity
100
AcDbLine
8
MONTAJ_BORULARI
10
-13965
20
401.56772670457445
30
2200
11
-13965
21
471.56772670457445
31
2200
0
LINE
5
FD65
330
FD28
100
AcDbEntity
100
AcDbLine
8
MONTAJ_BORULARI
10
-13965
20
471.56772670457445
30
2200
11
-14035
21
471.56772670457445
31
2200
0
LINE
5
FD66
330
FD28
100
AcDbEntity
100
AcDbLine
8
MONTAJ_BORULARI
10
-14035
20
471.56772670457445
30
2200
11
-14035
21
401.56772670457445
31
2200
0
LINE
5
FD67
330
FD28
100
AcDbEntity
100
AcDbLine
8
MONTAJ_BORULARI
10
-14035
20
401.56772670457445
30
164.33161594775356
11
-14035
21
401.56772670457445
31
2200
0
LINE
5
FD68
330
FD28
100
AcDbEntity
100
AcDbLine
8
MONTAJ_BORULARI
10
-13965
20
401.56772670457445
30
164.33161594775356
11
-13965
21
401.56772670457445
31
2200
0
LINE
5
FD69
330
FD28
100
AcDbEntity
100
AcDbLine
8
MONTAJ_BORULARI
10
-13965
20
471.56772670457445
30
164.33161594775356
11
-13965
21
471.56772670457445
31
2200
0
LINE
5
FD6A
330
FD28
100
AcDbEntity
100
AcDbLine
8
MONTAJ_BORULARI
10
-14035
20
471.56772670457445
30
164.33161594775356
11
-14035
21
471.56772670457445
31
2200
0
3DFACE
5
FD6B
330
FD28
100
AcDbEntity
100
AcDbFace
8
MONTAJ_BORULARI
10
-14035
20
129.33161594775362
30
436.5677267045744
11
-13965
21
129.33161594775362
31
436.5677267045744
12
-13965
22
199.33161594775362
32
436.5677267045744
13
-14035
23
199.33161594775362
33
436.5677267045744
0
3DFACE
5
FD6C
330
FD28
100
AcDbEntity
100
AcDbFace
8
MONTAJ_BORULARI
10
-14035
20
129.33161594775362
30
2200
11
-13965
21
129.33161594775362
31
2200
12
-13965
22
199.33161594775362
32
2200
13
-14035
23
199.33161594775362
33
2200
0
3DFACE
5
FD6D
330
FD28
100
AcDbEntity
100
AcDbFace
8
MONTAJ_BORULARI
10
-14035
20
129.33161594775362
30
436.5677267045744
11
-13965
21
129.33161594775362
31
436.5677267045744
12
-13965
22
129.33161594775362
32
2200
13
-14035
23
129.33161594775362
33
2200
0
3DFACE
5
FD6E
330
FD28
100
AcDbEntity
100
AcDbFace
8
MONTAJ_BORULARI
10
-14035
20
199.33161594775362
30
436.5677267045744
11
-13965
21
199.33161594775362
31
436.5677267045744
12
-13965
22
199.33161594775362
32
2200
13
-14035
23
199.33161594775362
33
2200
0
3DFACE
5
FD6F
330
FD28
100
AcDbEntity
100
AcDbFace
8
MONTAJ_BORULARI
10
-14035
20
129.33161594775362
30
436.5677267045744
11
-14035
21
199.33161594775362
31
436.5677267045744
12
-14035
22
199.33161594775362
32
2200
13
-14035
23
129.33161594775362
33
2200
0
3DFACE
5
FD70
330
FD28
100
AcDbEntity
100
AcDbFace
8
MONTAJ_BORULARI
10
-13965
20
129.33161594775362
30
436.5677267045744
11
-13965
21
199.33161594775362
31
436.5677267045744
12
-13965
22
199.33161594775362
32
2200
13
-13965
23
129.33161594775362
33
2200
0
LINE
5
FD71
330
FD28
100
AcDbEntity
100
AcDbLine
8
MONTAJ_BORULARI
10
-14035
20
129.33161594775362
30
436.5677267045744
11
-13965
21
129.33161594775362
31
436.5677267045744
0
LINE
5
FD72
330
FD28
100
AcDbEntity
100
AcDbLine
8
MONTAJ_BORULARI
10
-13965
20
129.33161594775362
30
436.5677267045744
11
-13965
21
199.33161594775362
31
436.5677267045744
0
LINE
5
FD73
330
FD28
100
AcDbEntity
100
AcDbLine
8
MONTAJ_BORULARI
10
-13965
20
199.33161594775362
30
436.5677267045744
11
-14035
21
199.33161594775362
31
436.5677267045744
0
LINE
5
FD74
330
FD28
100
AcDbEntity
100
AcDbLine
8
MONTAJ_BORULARI
10
-14035
20
199.33161594775362
30
436.5677267045744
11
-14035
21
129.33161594775362
31
436.5677267045744
0
LINE
5
FD75
330
FD28
100
AcDbEntity
100
AcDbLine
8
MONTAJ_BORULARI
10
-14035
20
129.33161594775362
30
2200
11
-13965
21
129.33161594775362
31
2200
0
LINE
5
FD76
330
FD28
100
AcDbEntity
100
AcDbLine
8
MONTAJ_BORULARI
10
-13965
20
129.33161594775362
30
2200
11
-13965
21
199.33161594775362
31
2200
0
LINE
5
FD77
330
FD28
100
AcDbEntity
100
AcDbLine
8
MONTAJ_BORULARI
10
-13965
20
199.33161594775362
30
2200
11
-14035
21
199.33161594775362
31
2200
0
LINE
5
FD78
330
FD28
100
AcDbEntity
100
AcDbLine
8
MONTAJ_BORULARI
10
-14035
20
199.33161594775362
30
2200
11
-14035
21
129.33161594775362
31
2200
0
LINE
5
FD79
330
FD28
100
AcDbEntity
100
AcDbLine
8
MONTAJ_BORULARI
10
-14035
20
129.33161594775362
30
436.5677267045744
11
-14035
21
129.33161594775362
31
2200
0
LINE
5
FD7A
330
FD28
100
AcDbEntity
100
AcDbLine
8
MONTAJ_BORULARI
10
-13965
20
129.33161594775362
30
436.5677267045744
11
-13965
21
129.33161594775362
31
2200
0
LINE
5
FD7B
330
FD28
100
AcDbEntity
100
AcDbLine
8
MONTAJ_BORULARI
10
-13965
20
199.33161594775362
30
436.5677267045744
11
-13965
21
199.33161594775362
31
2200
0
LINE
5
FD7C
330
FD28
100
AcDbEntity
100
AcDbLine
8
MONTAJ_BORULARI
10
-14035
20
199.33161594775362
30
436.5677267045744
11
-14035
21
199.33161594775362
31
2200
0
3DFACE
5
FDB2
330
FD28
100
AcDbEntity
100
AcDbFace
8
MONTAJ_BORULARI
10
-4500
20
609.3846240265666
30
-62.366818100653575
11
-4473.059231636793
21
617.2753923897742
31
-54.47604973744609
12
-4473.059231636793
22
-54.476049737445976
32
617.2753923897742
13
-4500
23
-62.36681810065346
33
609.3846240265666
0
3DFACE
5
FDB3
330
FD28
100
AcDbEntity
100
AcDbFace
8
MONTAJ_BORULARI
10
-4473.059231636793
20
617.2753923897742
30
-54.47604973744609
11
-4461.9
21
636.3253923897742
31
-35.426049737446135
12
-4461.9
22
-35.42604973744602
32
636.3253923897742
13
-4473.059231636793
23
-54.476049737445976
33
617.2753923897742
0
3DFACE
5
FDB4
330
FD28
100
AcDbEntity
100
AcDbFace
8
MONTAJ_BORULARI
10
-4461.9
20
636.3253923897742
30
-35.426049737446135
11
-4473.059231636793
21
655.3753923897741
31
-16.376049737446124
12
-4473.059231636793
22
-16.37604973744601
32
655.3753923897741
13
-4461.9
23
-35.42604973744602
33
636.3253923897742
0
3DFACE
5
FDB5
330
FD28
100
AcDbEntity
100
AcDbFace
8
MONTAJ_BORULARI
10
-4473.059231636793
20
655.3753923897741
30
-16.376049737446124
11
-4500
21
663.2661607529816
31
-8.485281374238639
12
-4500
22
-8.485281374238525
32
663.2661607529816
13
-4473.059231636793
23
-16.37604973744601
33
655.3753923897741
0
3DFACE
5
FDB6
330
FD28
100
AcDbEntity
100
AcDbFace
8
MONTAJ_BORULARI
10
-4500
20
663.2661607529816
30
-8.485281374238639
11
-4526.940768363207
21
655.3753923897741
31
-16.376049737446124
12
-4526.940768363207
22
-16.37604973744601
32
655.3753923897741
13
-4500
23
-8.485281374238525
33
663.2661607529816
0
3DFACE
5
FDB7
330
FD28
100
AcDbEntity
100
AcDbFace
8
MONTAJ_BORULARI
10
-4526.940768363207
20
655.3753923897741
30
-16.376049737446124
11
-4538.1
21
636.3253923897742
31
-35.426049737446135
12
-4538.1
22
-35.42604973744602
32
636.3253923897742
13
-4526.940768363207
23
-16.37604973744601
33
655.3753923897741
0
3DFACE
5
FDB8
330
FD28
100
AcDbEntity
100
AcDbFace
8
MONTAJ_BORULARI
10
-4538.1
20
636.3253923897742
30
-35.426049737446135
11
-4526.940768363207
21
617.2753923897742
31
-54.47604973744609
12
-4526.940768363207
22
-54.476049737445976
32
617.2753923897742
13
-4538.1
23
-35.42604973744602
33
636.3253923897742
0
3DFACE
5
FDB9
330
FD28
100
AcDbEntity
100
AcDbFace
8
MONTAJ_BORULARI
10
-4526.940768363207
20
617.2753923897742
30
-54.47604973744609
11
-4500
21
609.3846240265666
31
-62.366818100653575
12
-4500
22
-62.36681810065346
32
609.3846240265666
13
-4526.940768363207
23
-54.476049737445976
33
617.2753923897742
0
3DFACE
5
FDBA
330
FD28
100
AcDbEntity
100
AcDbFace
8
MONTAJ_BORULARI
10
-4535
20
401.56772670457445
30
164.33161594775356
11
-4465
21
401.56772670457445
31
164.33161594775356
12
-4465
22
471.56772670457445
32
164.33161594775356
13
-4535
23
471.56772670457445
33
164.33161594775356
0
3DFACE
5
FDBB
330
FD28
100
AcDbEntity
100
AcDbFace
8
MONTAJ_BORULARI
10
-4535
20
401.56772670457445
30
2200
11
-4465
21
401.56772670457445
31
2200
12
-4465
22
471.56772670457445
32
2200
13
-4535
23
471.56772670457445
33
2200
0
3DFACE
5
FDBC
330
FD28
100
AcDbEntity
100
AcDbFace
8
MONTAJ_BORULARI
10
-4535
20
401.56772670457445
30
164.33161594775356
11
-4465
21
401.56772670457445
31
164.33161594775356
12
-4465
22
401.56772670457445
32
2200
13
-4535
23
401.56772670457445
33
2200
0
3DFACE
5
FDBD
330
FD28
100
AcDbEntity
100
AcDbFace
8
MONTAJ_BORULARI
10
-4535
20
471.56772670457445
30
164.33161594775356
11
-4465
21
471.56772670457445
31
164.33161594775356
12
-4465
22
471.56772670457445
32
2200
13
-4535
23
471.56772670457445
33
2200
0
3DFACE
5
FDBE
330
FD28
100
AcDbEntity
100
AcDbFace
8
MONTAJ_BORULARI
10
-4535
20
401.56772670457445
30
164.33161594775356
11
-4535
21
471.56772670457445
31
164.33161594775356
12
-4535
22
471.56772670457445
32
2200
13
-4535
23
401.56772670457445
33
2200
0
3DFACE
5
FDBF
330
FD28
100
AcDbEntity
100
AcDbFace
8
MONTAJ_BORULARI
10
-4465
20
401.56772670457445
30
164.33161594775356
11
-4465
21
471.56772670457445
31
164.33161594775356
12
-4465
22
471.56772670457445
32
2200
13
-4465
23
401.56772670457445
33
2200
0
LINE
5
FDC0
330
FD28
100
AcDbEntity
100
AcDbLine
8
MONTAJ_BORULARI
10
-4535
20
401.56772670457445
30
164.33161594775356
11
-4465
21
401.56772670457445
31
164.33161594775356
0
LINE
5
FDC1
330
FD28
100
AcDbEntity
100
AcDbLine
8
MONTAJ_BORULARI
10
-4465
20
401.56772670457445
30
164.33161594775356
11
-4465
21
471.56772670457445
31
164.33161594775356
0
LINE
5
FDC2
330
FD28
100
AcDbEntity
100
AcDbLine
8
MONTAJ_BORULARI
10
-4465
20
471.56772670457445
30
164.33161594775356
11
-4535
21
471.56772670457445
31
164.33161594775356
0
LINE
5
FDC3
330
FD28
100
AcDbEntity
100
AcDbLine
8
MONTAJ_BORULARI
10
-4535
20
471.56772670457445
30
164.33161594775356
11
-4535
21
401.56772670457445
31
164.33161594775356
0
LINE
5
FDC4
330
FD28
100
AcDbEntity
100
AcDbLine
8
MONTAJ_BORULARI
10
-4535
20
401.56772670457445
30
2200
11
-4465
21
401.56772670457445
31
2200
0
LINE
5
FDC5
330
FD28
100
AcDbEntity
100
AcDbLine
8
MONTAJ_BORULARI
10
-4465
20
401.56772670457445
30
2200
11
-4465
21
471.56772670457445
31
2200
0
LINE
5
FDC6
330
FD28
100
AcDbEntity
100
AcDbLine
8
MONTAJ_BORULARI
10
-4465
20
471.56772670457445
30
2200
11
-4535
21
471.56772670457445
31
2200
0
LINE
5
FDC7
330
FD28
100
AcDbEntity
100
AcDbLine
8
MONTAJ_BORULARI
10
-4535
20
471.56772670457445
30
2200
11
-4535
21
401.56772670457445
31
2200
0
LINE
5
FDC8
330
FD28
100
AcDbEntity
100
AcDbLine
8
MONTAJ_BORULARI
10
-4535
20
401.56772670457445
30
164.33161594775356
11
-4535
21
401.56772670457445
31
2200
0
LINE
5
FDC9
330
FD28
100
AcDbEntity
100
AcDbLine
8
MONTAJ_BORULARI
10
-4465
20
401.56772670457445
30
164.33161594775356
11
-4465
21
401.56772670457445
31
2200
0
LINE
5
FDCA
330
FD28
100
AcDbEntity
100
AcDbLine
8
MONTAJ_BORULARI
10
-4465
20
471.56772670457445
30
164.33161594775356
11
-4465
21
471.56772670457445
31
2200
0
LINE
5
FDCB
330
FD28
100
AcDbEntity
100
AcDbLine
8
MONTAJ_BORULARI
10
-4535
20
471.56772670457445
30
164.33161594775356
11
-4535
21
471.56772670457445
31
2200
0
3DFACE
5
FDCC
330
FD28
100
AcDbEntity
100
AcDbFace
8
MONTAJ_BORULARI
10
-4535
20
129.33161594775362
30
436.5677267045744
11
-4465
21
129.33161594775362
31
436.5677267045744
12
-4465
22
199.33161594775362
32
436.5677267045744
13
-4535
23
199.33161594775362
33
436.5677267045744
0
3DFACE
5
FDCD
330
FD28
100
AcDbEntity
100
AcDbFace
8
MONTAJ_BORULARI
10
-4535
20
129.33161594775362
30
2200
11
-4465
21
129.33161594775362
31
2200
12
-4465
22
199.33161594775362
32
2200
13
-4535
23
199.33161594775362
33
2200
0
3DFACE
5
FDCE
330
FD28
100
AcDbEntity
100
AcDbFace
8
MONTAJ_BORULARI
10
-4535
20
129.33161594775362
30
436.5677267045744
11
-4465
21
129.33161594775362
31
436.5677267045744
12
-4465
22
129.33161594775362
32
2200
13
-4535
23
129.33161594775362
33
2200
0
3DFACE
5
FDCF
330
FD28
100
AcDbEntity
100
AcDbFace
8
MONTAJ_BORULARI
10
-4535
20
199.33161594775362
30
436.5677267045744
11
-4465
21
199.33161594775362
31
436.5677267045744
12
-4465
22
199.33161594775362
32
2200
13
-4535
23
199.33161594775362
33
2200
0
3DFACE
5
FDD0
330
FD28
100
AcDbEntity
100
AcDbFace
8
MONTAJ_BORULARI
10
-4535
20
129.33161594775362
30
436.5677267045744
11
-4535
21
199.33161594775362
31
436.5677267045744
12
-4535
22
199.33161594775362
32
2200
13
-4535
23
129.33161594775362
33
2200
0
3DFACE
5
FDD1
330
FD28
100
AcDbEntity
100
AcDbFace
8
MONTAJ_BORULARI
10
-4465
20
129.33161594775362
30
436.5677267045744
11
-4465
21
199.33161594775362
31
436.5677267045744
12
-4465
22
199.33161594775362
32
2200
13
-4465
23
129.33161594775362
33
2200
0
LINE
5
FDD2
330
FD28
100
AcDbEntity
100
AcDbLine
8
MONTAJ_BORULARI
10
-4535
20
129.33161594775362
30
436.5677267045744
11
-4465
21
129.33161594775362
31
436.5677267045744
0
LINE
5
FDD3
330
FD28
100
AcDbEntity
100
AcDbLine
8
MONTAJ_BORULARI
10
-4465
20
129.33161594775362
30
436.5677267045744
11
-4465
21
199.33161594775362
31
436.5677267045744
0
LINE
5
FDD4
330
FD28
100
AcDbEntity
100
AcDbLine
8
MONTAJ_BORULARI
10
-4465
20
199.33161594775362
30
436.5677267045744
11
-4535
21
199.33161594775362
31
436.5677267045744
0
LINE
5
FDD5
330
FD28
100
AcDbEntity
100
AcDbLine
8
MONTAJ_BORULARI
10
-4535
20
199.33161594775362
30
436.5677267045744
11
-4535
21
129.33161594775362
31
436.5677267045744
0
LINE
5
FDD6
330
FD28
100
AcDbEntity
100
AcDbLine
8
MONTAJ_BORULARI
10
-4535
20
129.33161594775362
30
2200
11
-4465
21
129.33161594775362
31
2200
0
LINE
5
FDD7
330
FD28
100
AcDbEntity
100
AcDbLine
8
MONTAJ_BORULARI
10
-4465
20
129.33161594775362
30
2200
11
-4465
21
199.33161594775362
31
2200
0
LINE
5
FDD8
330
FD28
100
AcDbEntity
100
AcDbLine
8
MONTAJ_BORULARI
10
-4465
20
199.33161594775362
30
2200
11
-4535
21
199.33161594775362
31
2200
0
LINE
5
FDD9
330
FD28
100
AcDbEntity
100
AcDbLine
8
MONTAJ_BORULARI
10
-4535
20
199.33161594775362
30
2200
11
-4535
21
129.33161594775362
31
2200
0
LINE
5
FDDA
330
FD28
100
AcDbEntity
100
AcDbLine
8
MONTAJ_BORULARI
10
-4535
20
129.33161594775362
30
436.5677267045744
11
-4535
21
129.33161594775362
31
2200
0
LINE
5
FDDB
330
FD28
100
AcDbEntity
100
AcDbLine
8
MONTAJ_BORULARI
10
-4465
20
129.33161594775362
30
436.5677267045744
11
-4465
21
129.33161594775362
31
2200
0
LINE
5
FDDC
330
FD28
100
AcDbEntity
100
AcDbLine
8
MONTAJ_BORULARI
10
-4465
20
199.33161594775362
30
436.5677267045744
11
-4465
21
199.33161594775362
31
2200
0
LINE
5
FDDD
330
FD28
100
AcDbEntity
100
AcDbLine
8
MONTAJ_BORULARI
10
-4535
20
199.33161594775362
30
436.5677267045744
11
-4535
21
199.33161594775362
31
2200
0
3DFACE
5
FE13
330
FD28
100
AcDbEntity
100
AcDbFace
8
MONTAJ_BORULARI
10
-3500
20
609.3846240265666
30
-62.366818100653575
11
-3473.0592316367924
21
617.2753923897742
31
-54.47604973744609
12
-3473.0592316367924
22
-54.476049737445976
32
617.2753923897742
13
-3500
23
-62.36681810065346
33
609.3846240265666
0
3DFACE
5
FE14
330
FD28
100
AcDbEntity
100
AcDbFace
8
MONTAJ_BORULARI
10
-3473.0592316367924
20
617.2753923897742
30
-54.47604973744609
11
-3461.9
21
636.3253923897742
31
-35.426049737446135
12
-3461.9
22
-35.42604973744602
32
636.3253923897742
13
-3473.0592316367924
23
-54.476049737445976
33
617.2753923897742
0
3DFACE
5
FE15
330
FD28
100
AcDbEntity
100
AcDbFace
8
MONTAJ_BORULARI
10
-3461.9
20
636.3253923897742
30
-35.426049737446135
11
-3473.0592316367924
21
655.3753923897741
31
-16.376049737446124
12
-3473.0592316367924
22
-16.37604973744601
32
655.3753923897741
13
-3461.9
23
-35.42604973744602
33
636.3253923897742
0
3DFACE
5
FE16
330
FD28
100
AcDbEntity
100
AcDbFace
8
MONTAJ_BORULARI
10
-3473.0592316367924
20
655.3753923897741
30
-16.376049737446124
11
-3500
21
663.2661607529816
31
-8.485281374238639
12
-3500
22
-8.485281374238525
32
663.2661607529816
13
-3473.0592316367924
23
-16.37604973744601
33
655.3753923897741
0
3DFACE
5
FE17
330
FD28
100
AcDbEntity
100
AcDbFace
8
MONTAJ_BORULARI
10
-3500
20
663.2661607529816
30
-8.485281374238639
11
-3526.9407683632076
21
655.3753923897741
31
-16.376049737446124
12
-3526.9407683632076
22
-16.37604973744601
32
655.3753923897741
13
-3500
23
-8.485281374238525
33
663.2661607529816
0
3DFACE
5
FE18
330
FD28
100
AcDbEntity
100
AcDbFace
8
MONTAJ_BORULARI
10
-3526.9407683632076
20
655.3753923897741
30
-16.376049737446124
11
-3538.1
21
636.3253923897742
31
-35.426049737446135
12
-3538.1
22
-35.42604973744602
32
636.3253923897742
13
-3526.9407683632076
23
-16.37604973744601
33
655.3753923897741
0
3DFACE
5
FE19
330
FD28
100
AcDbEntity
100
AcDbFace
8
MONTAJ_BORULARI
10
-3538.1
20
636.3253923897742
30
-35.426049737446135
11
-3526.9407683632076
21
617.2753923897742
31
-54.47604973744609
12
-3526.9407683632076
22
-54.476049737445976
32
617.2753923897742
13
-3538.1
23
-35.42604973744602
33
636.3253923897742
0
3DFACE
5
FE1A
330
FD28
100
AcDbEntity
100
AcDbFace
8
MONTAJ_BORULARI
10
-3526.9407683632076
20
617.2753923897742
30
-54.47604973744609
11
-3500
21
609.3846240265666
31
-62.366818100653575
12
-3500
22
-62.36681810065346
32
609.3846240265666
13
-3526.9407683632076
23
-54.476049737445976
33
617.2753923897742
0
3DFACE
5
FE1B
330
FD28
100
AcDbEntity
100
AcDbFace
8
MONTAJ_BORULARI
10
-3535
20
401.56772670457445
30
164.33161594775356
11
-3465
21
401.56772670457445
31
164.33161594775356
12
-3465
22
471.56772670457445
32
164.33161594775356
13
-3535
23
471.56772670457445
33
164.33161594775356
0
3DFACE
5
FE1C
330
FD28
100
AcDbEntity
100
AcDbFace
8
MONTAJ_BORULARI
10
-3535
20
401.56772670457445
30
2200
11
-3465
21
401.56772670457445
31
2200
12
-3465
22
471.56772670457445
32
2200
13
-3535
23
471.56772670457445
33
2200
0
3DFACE
5
FE1D
330
FD28
100
AcDbEntity
100
AcDbFace
8
MONTAJ_BORULARI
10
-3535
20
401.56772670457445
30
164.33161594775356
11
-3465
21
401.56772670457445
31
164.33161594775356
12
-3465
22
401.56772670457445
32
2200
13
-3535
23
401.56772670457445
33
2200
0
3DFACE
5
FE1E
330
FD28
100
AcDbEntity
100
AcDbFace
8
MONTAJ_BORULARI
10
-3535
20
471.56772670457445
30
164.33161594775356
11
-3465
21
471.56772670457445
31
164.33161594775356
12
-3465
22
471.56772670457445
32
2200
13
-3535
23
471.56772670457445
33
2200
0
3DFACE
5
FE1F
330
FD28
100
AcDbEntity
100
AcDbFace
8
MONTAJ_BORULARI
10
-3535
20
401.56772670457445
30
164.33161594775356
11
-3535
21
471.56772670457445
31
164.33161594775356
12
-3535
22
471.56772670457445
32
2200
13
-3535
23
401.56772670457445
33
2200
0
3DFACE
5
FE20
330
FD28
100
AcDbEntity
100
AcDbFace
8
MONTAJ_BORULARI
10
-3465
20
401.56772670457445
30
164.33161594775356
11
-3465
21
471.56772670457445
31
164.33161594775356
12
-3465
22
471.56772670457445
32
2200
13
-3465
23
401.56772670457445
33
2200
0
LINE
5
FE21
330
FD28
100
AcDbEntity
100
AcDbLine
8
MONTAJ_BORULARI
10
-3535
20
401.56772670457445
30
164.33161594775356
11
-3465
21
401.56772670457445
31
164.33161594775356
0
LINE
5
FE22
330
FD28
100
AcDbEntity
100
AcDbLine
8
MONTAJ_BORULARI
10
-3465
20
401.56772670457445
30
164.33161594775356
11
-3465
21
471.56772670457445
31
164.33161594775356
0
LINE
5
FE23
330
FD28
100
AcDbEntity
100
AcDbLine
8
MONTAJ_BORULARI
10
-3465
20
471.56772670457445
30
164.33161594775356
11
-3535
21
471.56772670457445
31
164.33161594775356
0
LINE
5
FE24
330
FD28
100
AcDbEntity
100
AcDbLine
8
MONTAJ_BORULARI
10
-3535
20
471.56772670457445
30
164.33161594775356
11
-3535
21
401.56772670457445
31
164.33161594775356
0
LINE
5
FE25
330
FD28
100
AcDbEntity
100
AcDbLine
8
MONTAJ_BORULARI
10
-3535
20
401.56772670457445
30
2200
11
-3465
21
401.56772670457445
31
2200
0
LINE
5
FE26
330
FD28
100
AcDbEntity
100
AcDbLine
8
MONTAJ_BORULARI
10
-3465
20
401.56772670457445
30
2200
11
-3465
21
471.56772670457445
31
2200
0
LINE
5
FE27
330
FD28
100
AcDbEntity
100
AcDbLine
8
MONTAJ_BORULARI
10
-3465
20
471.56772670457445
30
2200
11
-3535
21
471.56772670457445
31
2200
0
LINE
5
FE28
330
FD28
100
AcDbEntity
100
AcDbLine
8
MONTAJ_BORULARI
10
-3535
20
471.56772670457445
30
2200
11
-3535
21
401.56772670457445
31
2200
0
LINE
5
FE29
330
FD28
100
AcDbEntity
100
AcDbLine
8
MONTAJ_BORULARI
10
-3535
20
401.56772670457445
30
164.33161594775356
11
-3535
21
401.56772670457445
31
2200
0
LINE
5
FE2A
330
FD28
100
AcDbEntity
100
AcDbLine
8
MONTAJ_BORULARI
10
-3465
20
401.56772670457445
30
164.33161594775356
11
-3465
21
401.56772670457445
31
2200
0
LINE
5
FE2B
330
FD28
100
AcDbEntity
100
AcDbLine
8
MONTAJ_BORULARI
10
-3465
20
471.56772670457445
30
164.33161594775356
11
-3465
21
471.56772670457445
31
2200
0
LINE
5
FE2C
330
FD28
100
AcDbEntity
100
AcDbLine
8
MONTAJ_BORULARI
10
-3535
20
471.56772670457445
30
164.33161594775356
11
-3535
21
471.56772670457445
31
2200
0
3DFACE
5
FE2D
330
FD28
100
AcDbEntity
100
AcDbFace
8
MONTAJ_BORULARI
10
-3535
20
129.33161594775362
30
436.5677267045744
11
-3465
21
129.33161594775362
31
436.5677267045744
12
-3465
22
199.33161594775362
32
436.5677267045744
13
-3535
23
199.33161594775362
33
436.5677267045744
0
3DFACE
5
FE2E
330
FD28
100
AcDbEntity
100
AcDbFace
8
MONTAJ_BORULARI
10
-3535
20
129.33161594775362
30
2200
11
-3465
21
129.33161594775362
31
2200
12
-3465
22
199.33161594775362
32
2200
13
-3535
23
199.33161594775362
33
2200
0
3DFACE
5
FE2F
330
FD28
100
AcDbEntity
100
AcDbFace
8
MONTAJ_BORULARI
10
-3535
20
129.33161594775362
30
436.5677267045744
11
-3465
21
129.33161594775362
31
436.5677267045744
12
-3465
22
129.33161594775362
32
2200
13
-3535
23
129.33161594775362
33
2200
0
3DFACE
5
FE30
330
FD28
100
AcDbEntity
100
AcDbFace
8
MONTAJ_BORULARI
10
-3535
20
199.33161594775362
30
436.5677267045744
11
-3465
21
199.33161594775362
31
436.5677267045744
12
-3465
22
199.33161594775362
32
2200
13
-3535
23
199.33161594775362
33
2200
0
3DFACE
5
FE31
330
FD28
100
AcDbEntity
100
AcDbFace
8
MONTAJ_BORULARI
10
-3535
20
129.33161594775362
30
436.5677267045744
11
-3535
21
199.33161594775362
31
436.5677267045744
12
-3535
22
199.33161594775362
32
2200
13
-3535
23
129.33161594775362
33
2200
0
3DFACE
5
FE32
330
FD28
100
AcDbEntity
100
AcDbFace
8
MONTAJ_BORULARI
10
-3465
20
129.33161594775362
30
436.5677267045744
11
-3465
21
199.33161594775362
31
436.5677267045744
12
-3465
22
199.33161594775362
32
2200
13
-3465
23
129.33161594775362
33
2200
0
LINE
5
FE33
330
FD28
100
AcDbEntity
100
AcDbLine
8
MONTAJ_BORULARI
10
-3535
20
129.33161594775362
30
436.5677267045744
11
-3465
21
129.33161594775362
31
436.5677267045744
0
LINE
5
FE34
330
FD28
100
AcDbEntity
100
AcDbLine
8
MONTAJ_BORULARI
10
-3465
20
129.33161594775362
30
436.5677267045744
11
-3465
21
199.33161594775362
31
436.5677267045744
0
LINE
5
FE35
330
FD28
100
AcDbEntity
100
AcDbLine
8
MONTAJ_BORULARI
10
-3465
20
199.33161594775362
30
436.5677267045744
11
-3535
21
199.33161594775362
31
436.5677267045744
0
LINE
5
FE36
330
FD28
100
AcDbEntity
100
AcDbLine
8
MONTAJ_BORULARI
10
-3535
20
199.33161594775362
30
436.5677267045744
11
-3535
21
129.33161594775362
31
436.5677267045744
0
LINE
5
FE37
330
FD28
100
AcDbEntity
100
AcDbLine
8
MONTAJ_BORULARI
10
-3535
20
129.33161594775362
30
2200
11
-3465
21
129.33161594775362
31
2200
0
LINE
5
FE38
330
FD28
100
AcDbEntity
100
AcDbLine
8
MONTAJ_BORULARI
10
-3465
20
129.33161594775362
30
2200
11
-3465
21
199.33161594775362
31
2200
0
LINE
5
FE39
330
FD28
100
AcDbEntity
100
AcDbLine
8
MONTAJ_BORULARI
10
-3465
20
199.33161594775362
30
2200
11
-3535
21
199.33161594775362
31
2200
0
LINE
5
FE3A
330
FD28
100
AcDbEntity
100
AcDbLine
8
MONTAJ_BORULARI
10
-3535
20
199.33161594775362
30
2200
11
-3535
21
129.33161594775362
31
2200
0
LINE
5
FE3B
330
FD28
100
AcDbEntity
100
AcDbLine
8
MONTAJ_BORULARI
10
-3535
20
129.33161594775362
30
436.5677267045744
11
-3535
21
129.33161594775362
31
2200
0
LINE
5
FE3C
330
FD28
100
AcDbEntity
100
AcDbLine
8
MONTAJ_BORULARI
10
-3465
20
129.33161594775362
30
436.5677267045744
11
-3465
21
129.33161594775362
31
2200
0
LINE
5
FE3D
330
FD28
100
AcDbEntity
100
AcDbLine
8
MONTAJ_BORULARI
10
-3465
20
199.33161594775362
30
436.5677267045744
11
-3465
21
199.33161594775362
31
2200
0
LINE
5
FE3E
330
FD28
100
AcDbEntity
100
AcDbLine
8
MONTAJ_BORULARI
10
-3535
20
199.33161594775362
30
436.5677267045744
11
-3535
21
199.33161594775362
31
2200
0
3DFACE
5
FE86
330
FD28
100
AcDbEntity
100
AcDbFace
8
MONTAJ_BORULARI
10
6308.421816450025
20
692.6342344181598
30
-62.366818100653575
11
6336.436659405767
21
690.834845764509
31
-54.47604973744609
12
6106.684134890191
22
59.59497259526803
32
617.2753923897742
13
6078.669291934449
23
61.39436124891892
33
609.3846240265666
0
3DFACE
5
FE87
330
FD28
100
AcDbEntity
100
AcDbFace
8
MONTAJ_BORULARI
10
6336.436659405767
20
690.834845764509
30
-54.47604973744609
11
6353.438390758856
21
704.9193081866605
31
-35.426049737446135
12
6123.68586624328
22
73.67943501741942
32
636.3253923897742
13
6106.684134890191
23
59.59497259526803
33
617.2753923897742
0
3DFACE
5
FE88
330
FD28
100
AcDbEntity
100
AcDbFace
8
MONTAJ_BORULARI
10
6353.438390758856
20
704.9193081866605
30
-35.426049737446135
11
6349.467626866475
21
726.637134616452
31
-16.376049737446124
12
6119.715102350899
22
95.39726144721112
32
655.3753923897741
13
6123.68586624328
23
73.67943501741942
33
636.3253923897742
0
3DFACE
5
FE89
330
FD28
100
AcDbEntity
100
AcDbFace
8
MONTAJ_BORULARI
10
6349.467626866475
20
726.637134616452
30
-16.376049737446124
11
6326.850387363801
21
743.2663168765769
31
-8.485281374238639
12
6097.097862848224
22
112.02644370733594
32
663.2661607529816
13
6119.715102350899
23
95.39726144721112
33
655.3753923897741
0
3DFACE
5
FE8A
330
FD28
100
AcDbEntity
100
AcDbFace
8
MONTAJ_BORULARI
10
6326.850387363801
20
743.2663168765769
30
-8.485281374238639
11
6298.835544408058
21
745.0657055302278
31
-16.376049737446124
12
6069.083019892482
22
113.82583236098682
32
655.3753923897741
13
6097.097862848224
23
112.02644370733594
33
663.2661607529816
0
3DFACE
5
FE8B
330
FD28
100
AcDbEntity
100
AcDbFace
8
MONTAJ_BORULARI
10
6298.835544408058
20
745.0657055302278
30
-16.376049737446124
11
6281.83381305497
21
730.9812431080765
31
-35.426049737446135
12
6052.081288539393
22
99.74136993883539
32
636.3253923897742
13
6069.083019892482
23
113.82583236098682
33
655.3753923897741
0
3DFACE
5
FE8C
330
FD28
100
AcDbEntity
100
AcDbFace
8
MONTAJ_BORULARI
10
6281.83381305497
20
730.9812431080765
30
-35.426049737446135
11
6285.80457694735
21
709.2634166782848
31
-54.47604973744609
12
6056.0520524317735
22
78.02354350904375
32
617.2753923897742
13
6052.081288539393
23
99.74136993883539
33
636.3253923897742
0
3DFACE
5
FE8D
330
FD28
100
AcDbEntity
100
AcDbFace
8
MONTAJ_BORULARI
10
6285.80457694735
20
709.2634166782848
30
-54.47604973744609
11
6308.421816450025
21
692.6342344181598
31
-62.366818100653575
12
6078.669291934449
22
61.39436124891892
32
609.3846240265666
13
6056.0520524317735
23
78.02354350904375
33
617.2753923897742
0
3DFACE
5
FE8E
330
FD28
100
AcDbEntity
100
AcDbFace
8
MONTAJ_BORULARI
10
6214.31495645886
20
495.23947125756786
30
164.33161594775356
11
6284.31495645886
21
495.23947125756786
31
164.33161594775356
12
6284.31495645886
22
565.2394712575679
32
164.33161594775356
13
6214.31495645886
23
565.2394712575679
33
164.33161594775356
0
3DFACE
5
FE8F
330
FD28
100
AcDbEntity
100
AcDbFace
8
MONTAJ_BORULARI
10
6214.31495645886
20
495.23947125756786
30
2200
11
6284.31495645886
21
495.23947125756786
31
2200
12
6284.31495645886
22
565.2394712575679
32
2200
13
6214.31495645886
23
565.2394712575679
33
2200
0
3DFACE
5
FE90
330
FD28
100
AcDbEntity
100
AcDbFace
8
MONTAJ_BORULARI
10
6214.31495645886
20
495.23947125756786
30
164.33161594775356
11
6284.31495645886
21
495.23947125756786
31
164.33161594775356
12
6284.31495645886
22
495.23947125756786
32
2200
13
6214.31495645886
23
495.23947125756786
33
2200
0
3DFACE
5
FE91
330
FD28
100
AcDbEntity
100
AcDbFace
8
MONTAJ_BORULARI
10
6214.31495645886
20
565.2394712575679
30
164.33161594775356
11
6284.31495645886
21
565.2394712575679
31
164.33161594775356
12
6284.31495645886
22
565.2394712575679
32
2200
13
6214.31495645886
23
565.2394712575679
33
2200
0
3DFACE
5
FE92
330
FD28
100
AcDbEntity
100
AcDbFace
8
MONTAJ_BORULARI
10
6214.31495645886
20
495.23947125756786
30
164.33161594775356
11
6214.31495645886
21
565.2394712575679
31
164.33161594775356
12
6214.31495645886
22
565.2394712575679
32
2200
13
6214.31495645886
23
495.23947125756786
33
2200
0
3DFACE
5
FE93
330
FD28
100
AcDbEntity
100
AcDbFace
8
MONTAJ_BORULARI
10
6284.31495645886
20
495.23947125756786
30
164.33161594775356
11
6284.31495645886
21
565.2394712575679
31
164.33161594775356
12
6284.31495645886
22
565.2394712575679
32
2200
13
6284.31495645886
23
495.23947125756786
33
2200
0
LINE
5
FE94
330
FD28
100
AcDbEntity
100
AcDbLine
8
MONTAJ_BORULARI
10
6214.31495645886
20
495.23947125756786
30
164.33161594775356
11
6284.31495645886
21
495.23947125756786
31
164.33161594775356
0
LINE
5
FE95
330
FD28
100
AcDbEntity
100
AcDbLine
8
MONTAJ_BORULARI
10
6284.31495645886
20
495.23947125756786
30
164.33161594775356
11
6284.31495645886
21
565.2394712575679
31
164.33161594775356
0
LINE
5
FE96
330
FD28
100
AcDbEntity
100
AcDbLine
8
MONTAJ_BORULARI
10
6284.31495645886
20
565.2394712575679
30
164.33161594775356
11
6214.31495645886
21
565.2394712575679
31
164.33161594775356
0
LINE
5
FE97
330
FD28
100
AcDbEntity
100
AcDbLine
8
MONTAJ_BORULARI
10
6214.31495645886
20
565.2394712575679
30
164.33161594775356
11
6214.31495645886
21
495.23947125756786
31
164.33161594775356
0
LINE
5
FE98
330
FD28
100
AcDbEntity
100
AcDbLine
8
MONTAJ_BORULARI
10
6214.31495645886
20
495.23947125756786
30
2200
11
6284.31495645886
21
495.23947125756786
31
2200
0
LINE
5
FE99
330
FD28
100
AcDbEntity
100
AcDbLine
8
MONTAJ_BORULARI
10
6284.31495645886
20
495.23947125756786
30
2200
11
6284.31495645886
21
565.2394712575679
31
2200
0
LINE
5
FE9A
330
FD28
100
AcDbEntity
100
AcDbLine
8
MONTAJ_BORULARI
10
6284.31495645886
20
565.2394712575679
30
2200
11
6214.31495645886
21
565.2394712575679
31
2200
0
LINE
5
FE9B
330
FD28
100
AcDbEntity
100
AcDbLine
8
MONTAJ_BORULARI
10
6214.31495645886
20
565.2394712575679
30
2200
11
6214.31495645886
21
495.23947125756786
31
2200
0
LINE
5
FE9C
330
FD28
100
AcDbEntity
100
AcDbLine
8
MONTAJ_BORULARI
10
6214.31495645886
20
495.23947125756786
30
164.33161594775356
11
6214.31495645886
21
495.23947125756786
31
2200
0
LINE
5
FE9D
330
FD28
100
AcDbEntity
100
AcDbLine
8
MONTAJ_BORULARI
10
6284.31495645886
20
495.23947125756786
30
164.33161594775356
11
6284.31495645886
21
495.23947125756786
31
2200
0
LINE
5
FE9E
330
FD28
100
AcDbEntity
100
AcDbLine
8
MONTAJ_BORULARI
10
6284.31495645886
20
565.2394712575679
30
164.33161594775356
11
6284.31495645886
21
565.2394712575679
31
2200
0
LINE
5
FE9F
330
FD28
100
AcDbEntity
100
AcDbLine
8
MONTAJ_BORULARI
10
6214.31495645886
20
565.2394712575679
30
164.33161594775356
11
6214.31495645886
21
565.2394712575679
31
2200
0
3DFACE
5
FEA0
330
FD28
100
AcDbEntity
100
AcDbFace
8
MONTAJ_BORULARI
10
6121.204722839389
20
239.421206867928
30
436.5677267045744
11
6191.204722839389
21
239.421206867928
31
436.5677267045744
12
6191.204722839389
22
309.421206867928
32
436.5677267045744
13
6121.204722839389
23
309.421206867928
33
436.5677267045744
0
3DFACE
5
FEA1
330
FD28
100
AcDbEntity
100
AcDbFace
8
MONTAJ_BORULARI
10
6121.204722839389
20
239.421206867928
30
2200
11
6191.204722839389
21
239.421206867928
31
2200
12
6191.204722839389
22
309.421206867928
32
2200
13
6121.204722839389
23
309.421206867928
33
2200
0
3DFACE
5
FEA2
330
FD28
100
AcDbEntity
100
AcDbFace
8
MONTAJ_BORULARI
10
6121.204722839389
20
239.421206867928
30
436.5677267045744
11
6191.204722839389
21
239.421206867928
31
436.5677267045744
12
6191.204722839389
22
239.421206867928
32
2200
13
6121.204722839389
23
239.421206867928
33
2200
0
3DFACE
5
FEA3
330
FD28
100
AcDbEntity
100
AcDbFace
8
MONTAJ_BORULARI
10
6121.204722839389
20
309.421206867928
30
436.5677267045744
11
6191.204722839389
21
309.421206867928
31
436.5677267045744
12
6191.204722839389
22
309.421206867928
32
2200
13
6121.204722839389
23
309.421206867928
33
2200
0
3DFACE
5
FEA4
330
FD28
100
AcDbEntity
100
AcDbFace
8
MONTAJ_BORULARI
10
6121.204722839389
20
239.421206867928
30
436.5677267045744
11
6121.204722839389
21
309.421206867928
31
436.5677267045744
12
6121.204722839389
22
309.421206867928
32
2200
13
6121.204722839389
23
239.421206867928
33
2200
0
3DFACE
5
FEA5
330
FD28
100
AcDbEntity
100
AcDbFace
8
MONTAJ_BORULARI
10
6191.204722839389
20
239.421206867928
30
436.5677267045744
11
6191.204722839389
21
309.421206867928
31
436.5677267045744
12
6191.204722839389
22
309.421206867928
32
2200
13
6191.204722839389
23
239.421206867928
33
2200
0
LINE
5
FEA6
330
FD28
100
AcDbEntity
100
AcDbLine
8
MONTAJ_BORULARI
10
6121.204722839389
20
239.421206867928
30
436.5677267045744
11
6191.204722839389
21
239.421206867928
31
436.5677267045744
0
LINE
5
FEA7
330
FD28
100
AcDbEntity
100
AcDbLine
8
MONTAJ_BORULARI
10
6191.204722839389
20
239.421206867928
30
436.5677267045744
11
6191.204722839389
21
309.421206867928
31
436.5677267045744
0
LINE
5
FEA8
330
FD28
100
AcDbEntity
100
AcDbLine
8
MONTAJ_BORULARI
10
6191.204722839389
20
309.421206867928
30
436.5677267045744
11
6121.204722839389
21
309.421206867928
31
436.5677267045744
0
LINE
5
FEA9
330
FD28
100
AcDbEntity
100
AcDbLine
8
MONTAJ_BORULARI
10
6121.204722839389
20
309.421206867928
30
436.5677267045744
11
6121.204722839389
21
239.421206867928
31
436.5677267045744
0
LINE
5
FEAA
330
FD28
100
AcDbEntity
100
AcDbLine
8
MONTAJ_BORULARI
10
6121.204722839389
20
239.421206867928
30
2200
11
6191.204722839389
21
239.421206867928
31
2200
0
LINE
5
FEAB
330
FD28
100
AcDbEntity
100
AcDbLine
8
MONTAJ_BORULARI
10
6191.204722839389
20
239.421206867928
30
2200
11
6191.204722839389
21
309.421206867928
31
2200
0
LINE
5
FEAC
330
FD28
100
AcDbEntity
100
AcDbLine
8
MONTAJ_BORULARI
10
6191.204722839389
20
309.421206867928
30
2200
11
6121.204722839389
21
309.421206867928
31
2200
0
LINE
5
FEAD
330
FD28
100
AcDbEntity
100
AcDbLine
8
MONTAJ_BORULARI
10
6121.204722839389
20
309.421206867928
30
2200
11
6121.204722839389
21
239.421206867928
31
2200
0
LINE
5
FEAE
330
FD28
100
AcDbEntity
100
AcDbLine
8
MONTAJ_BORULARI
10
6121.204722839389
20
239.421206867928
30
436.5677267045744
11
6121.204722839389
21
239.421206867928
31
2200
0
LINE
5
FEAF
330
FD28
100
AcDbEntity
100
AcDbLine
8
MONTAJ_BORULARI
10
6191.204722839389
20
239.421206867928
30
436.5677267045744
11
6191.204722839389
21
239.421206867928
31
2200
0
LINE
5
FEB0
330
FD28
100
AcDbEntity
100
AcDbLine
8
MONTAJ_BORULARI
10
6191.204722839389
20
309.421206867928
30
436.5677267045744
11
6191.204722839389
21
309.421206867928
31
2200
0
LINE
5
FEB1
330
FD28
100
AcDbEntity
100
AcDbLine
8
MONTAJ_BORULARI
10
6121.204722839389
20
309.421206867928
30
436.5677267045744
11
6121.204722839389
21
309.421206867928
31
2200
0
3DFACE
5
FEE7
330
FD28
100
AcDbEntity
100
AcDbFace
8
MONTAJ_BORULARI
10
7000
20
609.3846240265666
30
-62.366818100653575
11
7026.940768363207
21
617.2753923897742
31
-54.47604973744609
12
7026.940768363207
22
-54.476049737445976
32
617.2753923897742
13
7000
23
-62.36681810065346
33
609.3846240265666
0
3DFACE
5
FEE8
330
FD28
100
AcDbEntity
100
AcDbFace
8
MONTAJ_BORULARI
10
7026.940768363207
20
617.2753923897742
30
-54.47604973744609
11
7038.1
21
636.3253923897742
31
-35.426049737446135
12
7038.1
22
-35.42604973744602
32
636.3253923897742
13
7026.940768363207
23
-54.476049737445976
33
617.2753923897742
0
3DFACE
5
FEE9
330
FD28
100
AcDbEntity
100
AcDbFace
8
MONTAJ_BORULARI
10
7038.1
20
636.3253923897742
30
-35.426049737446135
11
7026.940768363207
21
655.3753923897741
31
-16.376049737446124
12
7026.940768363207
22
-16.37604973744601
32
655.3753923897741
13
7038.1
23
-35.42604973744602
33
636.3253923897742
0
3DFACE
5
FEEA
330
FD28
100
AcDbEntity
100
AcDbFace
8
MONTAJ_BORULARI
10
7026.940768363207
20
655.3753923897741
30
-16.376049737446124
11
7000
21
663.2661607529816
31
-8.485281374238639
12
7000
22
-8.485281374238525
32
663.2661607529816
13
7026.940768363207
23
-16.37604973744601
33
655.3753923897741
0
3DFACE
5
FEEB
330
FD28
100
AcDbEntity
100
AcDbFace
8
MONTAJ_BORULARI
10
7000
20
663.2661607529816
30
-8.485281374238639
11
6973.059231636793
21
655.3753923897741
31
-16.376049737446124
12
6973.059231636793
22
-16.37604973744601
32
655.3753923897741
13
7000
23
-8.485281374238525
33
663.2661607529816
0
3DFACE
5
FEEC
330
FD28
100
AcDbEntity
100
AcDbFace
8
MONTAJ_BORULARI
10
6973.059231636793
20
655.3753923897741
30
-16.376049737446124
11
6961.9
21
636.3253923897742
31
-35.426049737446135
12
6961.9
22
-35.42604973744602
32
636.3253923897742
13
6973.059231636793
23
-16.37604973744601
33
655.3753923897741
0
3DFACE
5
FEED
330
FD28
100
AcDbEntity
100
AcDbFace
8
MONTAJ_BORULARI
10
6961.9
20
636.3253923897742
30
-35.426049737446135
11
6973.059231636793
21
617.2753923897742
31
-54.47604973744609
12
6973.059231636793
22
-54.476049737445976
32
617.2753923897742
13
6961.9
23
-35.42604973744602
33
636.3253923897742
0
3DFACE
5
FEEE
330
FD28
100
AcDbEntity
100
AcDbFace
8
MONTAJ_BORULARI
10
6973.059231636793
20
617.2753923897742
30
-54.47604973744609
11
7000
21
609.3846240265666
31
-62.366818100653575
12
7000
22
-62.36681810065346
32
609.3846240265666
13
6973.059231636793
23
-54.476049737445976
33
617.2753923897742
0
3DFACE
5
FEEF
330
FD28
100
AcDbEntity
100
AcDbFace
8
MONTAJ_BORULARI
10
6965
20
401.56772670457445
30
164.33161594775356
11
7035
21
401.56772670457445
31
164.33161594775356
12
7035
22
471.56772670457445
32
164.33161594775356
13
6965
23
471.56772670457445
33
164.33161594775356
0
3DFACE
5
FEF0
330
FD28
100
AcDbEntity
100
AcDbFace
8
MONTAJ_BORULARI
10
6965
20
401.56772670457445
30
2200
11
7035
21
401.56772670457445
31
2200
12
7035
22
471.56772670457445
32
2200
13
6965
23
471.56772670457445
33
2200
0
3DFACE
5
FEF1
330
FD28
100
AcDbEntity
100
AcDbFace
8
MONTAJ_BORULARI
10
6965
20
401.56772670457445
30
164.33161594775356
11
7035
21
401.56772670457445
31
164.33161594775356
12
7035
22
401.56772670457445
32
2200
13
6965
23
401.56772670457445
33
2200
0
3DFACE
5
FEF2
330
FD28
100
AcDbEntity
100
AcDbFace
8
MONTAJ_BORULARI
10
6965
20
471.56772670457445
30
164.33161594775356
11
7035
21
471.56772670457445
31
164.33161594775356
12
7035
22
471.56772670457445
32
2200
13
6965
23
471.56772670457445
33
2200
0
3DFACE
5
FEF3
330
FD28
100
AcDbEntity
100
AcDbFace
8
MONTAJ_BORULARI
10
6965
20
401.56772670457445
30
164.33161594775356
11
6965
21
471.56772670457445
31
164.33161594775356
12
6965
22
471.56772670457445
32
2200
13
6965
23
401.56772670457445
33
2200
0
3DFACE
5
FEF4
330
FD28
100
AcDbEntity
100
AcDbFace
8
MONTAJ_BORULARI
10
7035
20
401.56772670457445
30
164.33161594775356
11
7035
21
471.56772670457445
31
164.33161594775356
12
7035
22
471.56772670457445
32
2200
13
7035
23
401.56772670457445
33
2200
0
LINE
5
FEF5
330
FD28
100
AcDbEntity
100
AcDbLine
8
MONTAJ_BORULARI
10
6965
20
401.56772670457445
30
164.33161594775356
11
7035
21
401.56772670457445
31
164.33161594775356
0
LINE
5
FEF6
330
FD28
100
AcDbEntity
100
AcDbLine
8
MONTAJ_BORULARI
10
7035
20
401.56772670457445
30
164.33161594775356
11
7035
21
471.56772670457445
31
164.33161594775356
0
LINE
5
FEF7
330
FD28
100
AcDbEntity
100
AcDbLine
8
MONTAJ_BORULARI
10
7035
20
471.56772670457445
30
164.33161594775356
11
6965
21
471.56772670457445
31
164.33161594775356
0
LINE
5
FEF8
330
FD28
100
AcDbEntity
100
AcDbLine
8
MONTAJ_BORULARI
10
6965
20
471.56772670457445
30
164.33161594775356
11
6965
21
401.56772670457445
31
164.33161594775356
0
LINE
5
FEF9
330
FD28
100
AcDbEntity
100
AcDbLine
8
MONTAJ_BORULARI
10
6965
20
401.56772670457445
30
2200
11
7035
21
401.56772670457445
31
2200
0
LINE
5
FEFA
330
FD28
100
AcDbEntity
100
AcDbLine
8
MONTAJ_BORULARI
10
7035
20
401.56772670457445
30
2200
11
7035
21
471.56772670457445
31
2200
0
LINE
5
FEFB
330
FD28
100
AcDbEntity
100
AcDbLine
8
MONTAJ_BORULARI
10
7035
20
471.56772670457445
30
2200
11
6965
21
471.56772670457445
31
2200
0
LINE
5
FEFC
330
FD28
100
AcDbEntity
100
AcDbLine
8
MONTAJ_BORULARI
10
6965
20
471.56772670457445
30
2200
11
6965
21
401.56772670457445
31
2200
0
LINE
5
FEFD
330
FD28
100
AcDbEntity
100
AcDbLine
8
MONTAJ_BORULARI
10
6965
20
401.56772670457445
30
164.33161594775356
11
6965
21
401.56772670457445
31
2200
0
LINE
5
FEFE
330
FD28
100
AcDbEntity
100
AcDbLine
8
MONTAJ_BORULARI
10
7035
20
401.56772670457445
30
164.33161594775356
11
7035
21
401.56772670457445
31
2200
0
LINE
5
FEFF
330
FD28
100
AcDbEntity
100
AcDbLine
8
MONTAJ_BORULARI
10
7035
20
471.56772670457445
30
164.33161594775356
11
7035
21
471.56772670457445
31
2200
0
LINE
5
FF00
330
FD28
100
AcDbEntity
100
AcDbLine
8
MONTAJ_BORULARI
10
6965
20
471.56772670457445
30
164.33161594775356
11
6965
21
471.56772670457445
31
2200
0
3DFACE
5
FF01
330
FD28
100
AcDbEntity
100
AcDbFace
8
MONTAJ_BORULARI
10
6965
20
129.33161594775362
30
436.5677267045744
11
7035
21
129.33161594775362
31
436.5677267045744
12
7035
22
199.33161594775362
32
436.5677267045744
13
6965
23
199.33161594775362
33
436.5677267045744
0
3DFACE
5
FF02
330
FD28
100
AcDbEntity
100
AcDbFace
8
MONTAJ_BORULARI
10
6965
20
129.33161594775362
30
2200
11
7035
21
129.33161594775362
31
2200
12
7035
22
199.33161594775362
32
2200
13
6965
23
199.33161594775362
33
2200
0
3DFACE
5
FF03
330
FD28
100
AcDbEntity
100
AcDbFace
8
MONTAJ_BORULARI
10
6965
20
129.33161594775362
30
436.5677267045744
11
7035
21
129.33161594775362
31
436.5677267045744
12
7035
22
129.33161594775362
32
2200
13
6965
23
129.33161594775362
33
2200
0
3DFACE
5
FF04
330
FD28
100
AcDbEntity
100
AcDbFace
8
MONTAJ_BORULARI
10
6965
20
199.33161594775362
30
436.5677267045744
11
7035
21
199.33161594775362
31
436.5677267045744
12
7035
22
199.33161594775362
32
2200
13
6965
23
199.33161594775362
33
2200
0
3DFACE
5
FF05
330
FD28
100
AcDbEntity
100
AcDbFace
8
MONTAJ_BORULARI
10
6965
20
129.33161594775362
30
436.5677267045744
11
6965
21
199.33161594775362
31
436.5677267045744
12
6965
22
199.33161594775362
32
2200
13
6965
23
129.33161594775362
33
2200
0
3DFACE
5
FF06
330
FD28
100
AcDbEntity
100
AcDbFace
8
MONTAJ_BORULARI
10
7035
20
129.33161594775362
30
436.5677267045744
11
7035
21
199.33161594775362
31
436.5677267045744
12
7035
22
199.33161594775362
32
2200
13
7035
23
129.33161594775362
33
2200
0
LINE
5
FF07
330
FD28
100
AcDbEntity
100
AcDbLine
8
MONTAJ_BORULARI
10
6965
20
129.33161594775362
30
436.5677267045744
11
7035
21
129.33161594775362
31
436.5677267045744
0
LINE
5
FF08
330
FD28
100
AcDbEntity
100
AcDbLine
8
MONTAJ_BORULARI
10
7035
20
129.33161594775362
30
436.5677267045744
11
7035
21
199.33161594775362
31
436.5677267045744
0
LINE
5
FF09
330
FD28
100
AcDbEntity
100
AcDbLine
8
MONTAJ_BORULARI
10
7035
20
199.33161594775362
30
436.5677267045744
11
6965
21
199.33161594775362
31
436.5677267045744
0
LINE
5
FF0A
330
FD28
100
AcDbEntity
100
AcDbLine
8
MONTAJ_BORULARI
10
6965
20
199.33161594775362
30
436.5677267045744
11
6965
21
129.33161594775362
31
436.5677267045744
0
LINE
5
FF0B
330
FD28
100
AcDbEntity
100
AcDbLine
8
MONTAJ_BORULARI
10
6965
20
129.33161594775362
30
2200
11
7035
21
129.33161594775362
31
2200
0
LINE
5
FF0C
330
FD28
100
AcDbEntity
100
AcDbLine
8
MONTAJ_BORULARI
10
7035
20
129.33161594775362
30
2200
11
7035
21
199.33161594775362
31
2200
0
LINE
5
FF0D
330
FD28
100
AcDbEntity
100
AcDbLine
8
MONTAJ_BORULARI
10
7035
20
199.33161594775362
30
2200
11
6965
21
199.33161594775362
31
2200
0
LINE
5
FF0E
330
FD28
100
AcDbEntity
100
AcDbLine
8
MONTAJ_BORULARI
10
6965
20
199.33161594775362
30
2200
11
6965
21
129.33161594775362
31
2200
0
LINE
5
FF0F
330
FD28
100
AcDbEntity
100
AcDbLine
8
MONTAJ_BORULARI
10
6965
20
129.33161594775362
30
436.5677267045744
11
6965
21
129.33161594775362
31
2200
0
LINE
5
FF10
330
FD28
100
AcDbEntity
100
AcDbLine
8
MONTAJ_BORULARI
10
7035
20
129.33161594775362
30
436.5677267045744
11
7035
21
129.33161594775362
31
2200
0
LINE
5
FF11
330
FD28
100
AcDbEntity
100
AcDbLine
8
MONTAJ_BORULARI
10
7035
20
199.33161594775362
30
436.5677267045744
11
7035
21
199.33161594775362
31
2200
0
LINE
5
FF12
330
FD28
100
AcDbEntity
100
AcDbLine
8
MONTAJ_BORULARI
10
6965
20
199.33161594775362
30
436.5677267045744
11
6965
21
199.33161594775362
31
2200
0
3DFACE
5
FF48
330
FD28
100
AcDbEntity
100
AcDbFace
8
MONTAJ_BORULARI
10
7691.578183549975
20
692.6342344181598
30
-62.366818100653575
11
7714.19542305265
21
709.2634166782848
31
-54.47604973744609
12
7943.9479475682265
22
78.02354350904375
32
617.2753923897742
13
7921.330708065551
23
61.39436124891892
33
609.3846240265666
0
3DFACE
5
FF49
330
FD28
100
AcDbEntity
100
AcDbFace
8
MONTAJ_BORULARI
10
7714.19542305265
20
709.2634166782848
30
-54.47604973744609
11
7718.16618694503
21
730.9812431080765
31
-35.426049737446135
12
7947.918711460607
22
99.74136993883539
32
636.3253923897742
13
7943.9479475682265
23
78.02354350904375
33
617.2753923897742
0
3DFACE
5
FF4A
330
FD28
100
AcDbEntity
100
AcDbFace
8
MONTAJ_BORULARI
10
7718.16618694503
20
730.9812431080765
30
-35.426049737446135
11
7701.164455591942
21
745.0657055302278
31
-16.376049737446124
12
7930.916980107518
22
113.82583236098682
32
655.3753923897741
13
7947.918711460607
23
99.74136993883539
33
636.3253923897742
0
3DFACE
5
FF4B
330
FD28
100
AcDbEntity
100
AcDbFace
8
MONTAJ_BORULARI
10
7701.164455591942
20
745.0657055302278
30
-16.376049737446124
11
7673.149612636199
21
743.2663168765769
31
-8.485281374238639
12
7902.902137151776
22
112.02644370733594
32
663.2661607529816
13
7930.916980107518
23
113.82583236098682
33
655.3753923897741
0
3DFACE
5
FF4C
330
FD28
100
AcDbEntity
100
AcDbFace
8
MONTAJ_BORULARI
10
7673.149612636199
20
743.2663168765769
30
-8.485281374238639
11
7650.532373133525
21
726.637134616452
31
-16.376049737446124
12
7880.284897649101
22
95.39726144721112
32
655.3753923897741
13
7902.902137151776
23
112.02644370733594
33
663.2661607529816
0
3DFACE
5
FF4D
330
FD28
100
AcDbEntity
100
AcDbFace
8
MONTAJ_BORULARI
10
7650.532373133525
20
726.637134616452
30
-16.376049737446124
11
7646.561609241144
21
704.9193081866605
31
-35.426049737446135
12
7876.31413375672
22
73.67943501741942
32
636.3253923897742
13
7880.284897649101
23
95.39726144721112
33
655.3753923897741
0
3DFACE
5
FF4E
330
FD28
100
AcDbEntity
100
AcDbFace
8
MONTAJ_BORULARI
10
7646.561609241144
20
704.9193081866605
30
-35.426049737446135
11
7663.563340594233
21
690.834845764509
31
-54.47604973744609
12
7893.315865109809
22
59.59497259526803
32
617.2753923897742
13
7876.31413375672
23
73.67943501741942
33
636.3253923897742
0
3DFACE
5
FF4F
330
FD28
100
AcDbEntity
100
AcDbFace
8
MONTAJ_BORULARI
10
7663.563340594233
20
690.834845764509
30
-54.47604973744609
11
7691.578183549975
21
692.6342344181598
31
-62.366818100653575
12
7921.330708065551
22
61.39436124891892
32
609.3846240265666
13
7893.315865109809
23
59.59497259526803
33
617.2753923897742
0
3DFACE
5
FF50
330
FD28
100
AcDbEntity
100
AcDbFace
8
MONTAJ_BORULARI
10
7715.68504354114
20
495.23947125756786
30
164.33161594775356
11
7785.68504354114
21
495.23947125756786
31
164.33161594775356
12
7785.68504354114
22
565.2394712575679
32
164.33161594775356
13
7715.68504354114
23
565.2394712575679
33
164.33161594775356
0
3DFACE
5
FF51
330
FD28
100
AcDbEntity
100
AcDbFace
8
MONTAJ_BORULARI
10
7715.68504354114
20
495.23947125756786
30
2200
11
7785.68504354114
21
495.23947125756786
31
2200
12
7785.68504354114
22
565.2394712575679
32
2200
13
7715.68504354114
23
565.2394712575679
33
2200
0
3DFACE
5
FF52
330
FD28
100
AcDbEntity
100
AcDbFace
8
MONTAJ_BORULARI
10
7715.68504354114
20
495.23947125756786
30
164.33161594775356
11
7785.68504354114
21
495.23947125756786
31
164.33161594775356
12
7785.68504354114
22
495.23947125756786
32
2200
13
7715.68504354114
23
495.23947125756786
33
2200
0
3DFACE
5
FF53
330
FD28
100
AcDbEntity
100
AcDbFace
8
MONTAJ_BORULARI
10
7715.68504354114
20
565.2394712575679
30
164.33161594775356
11
7785.68504354114
21
565.2394712575679
31
164.33161594775356
12
7785.68504354114
22
565.2394712575679
32
2200
13
7715.68504354114
23
565.2394712575679
33
2200
0
3DFACE
5
FF54
330
FD28
100
AcDbEntity
100
AcDbFace
8
MONTAJ_BORULARI
10
7715.68504354114
20
495.23947125756786
30
164.33161594775356
11
7715.68504354114
21
565.2394712575679
31
164.33161594775356
12
7715.68504354114
22
565.2394712575679
32
2200
13
7715.68504354114
23
495.23947125756786
33
2200
0
3DFACE
5
FF55
330
FD28
100
AcDbEntity
100
AcDbFace
8
MONTAJ_BORULARI
10
7785.68504354114
20
495.23947125756786
30
164.33161594775356
11
7785.68504354114
21
565.2394712575679
31
164.33161594775356
12
7785.68504354114
22
565.2394712575679
32
2200
13
7785.68504354114
23
495.23947125756786
33
2200
0
LINE
5
FF56
330
FD28
100
AcDbEntity
100
AcDbLine
8
MONTAJ_BORULARI
10
7715.68504354114
20
495.23947125756786
30
164.33161594775356
11
7785.68504354114
21
495.23947125756786
31
164.33161594775356
0
LINE
5
FF57
330
FD28
100
AcDbEntity
100
AcDbLine
8
MONTAJ_BORULARI
10
7785.68504354114
20
495.23947125756786
30
164.33161594775356
11
7785.68504354114
21
565.2394712575679
31
164.33161594775356
0
LINE
5
FF58
330
FD28
100
AcDbEntity
100
AcDbLine
8
MONTAJ_BORULARI
10
7785.68504354114
20
565.2394712575679
30
164.33161594775356
11
7715.68504354114
21
565.2394712575679
31
164.33161594775356
0
LINE
5
FF59
330
FD28
100
AcDbEntity
100
AcDbLine
8
MONTAJ_BORULARI
10
7715.68504354114
20
565.2394712575679
30
164.33161594775356
11
7715.68504354114
21
495.23947125756786
31
164.33161594775356
0
LINE
5
FF5A
330
FD28
100
AcDbEntity
100
AcDbLine
8
MONTAJ_BORULARI
10
7715.68504354114
20
495.23947125756786
30
2200
11
7785.68504354114
21
495.23947125756786
31
2200
0
LINE
5
FF5B
330
FD28
100
AcDbEntity
100
AcDbLine
8
MONTAJ_BORULARI
10
7785.68504354114
20
495.23947125756786
30
2200
11
7785.68504354114
21
565.2394712575679
31
2200
0
LINE
5
FF5C
330
FD28
100
AcDbEntity
100
AcDbLine
8
MONTAJ_BORULARI
10
7785.68504354114
20
565.2394712575679
30
2200
11
7715.68504354114
21
565.2394712575679
31
2200
0
LINE
5
FF5D
330
FD28
100
AcDbEntity
100
AcDbLine
8
MONTAJ_BORULARI
10
7715.68504354114
20
565.2394712575679
30
2200
11
7715.68504354114
21
495.23947125756786
31
2200
0
LINE
5
FF5E
330
FD28
100
AcDbEntity
100
AcDbLine
8
MONTAJ_BORULARI
10
7715.68504354114
20
495.23947125756786
30
164.33161594775356
11
7715.68504354114
21
495.23947125756786
31
2200
0
LINE
5
FF5F
330
FD28
100
AcDbEntity
100
AcDbLine
8
MONTAJ_BORULARI
10
7785.68504354114
20
495.23947125756786
30
164.33161594775356
11
7785.68504354114
21
495.23947125756786
31
2200
0
LINE
5
FF60
330
FD28
100
AcDbEntity
100
AcDbLine
8
MONTAJ_BORULARI
10
7785.68504354114
20
565.2394712575679
30
164.33161594775356
11
7785.68504354114
21
565.2394712575679
31
2200
0
LINE
5
FF61
330
FD28
100
AcDbEntity
100
AcDbLine
8
MONTAJ_BORULARI
10
7715.68504354114
20
565.2394712575679
30
164.33161594775356
11
7715.68504354114
21
565.2394712575679
31
2200
0
3DFACE
5
FF62
330
FD28
100
AcDbEntity
100
AcDbFace
8
MONTAJ_BORULARI
10
7808.795277160611
20
239.421206867928
30
436.5677267045744
11
7878.795277160611
21
239.421206867928
31
436.5677267045744
12
7878.795277160611
22
309.421206867928
32
436.5677267045744
13
7808.795277160611
23
309.421206867928
33
436.5677267045744
0
3DFACE
5
FF63
330
FD28
100
AcDbEntity
100
AcDbFace
8
MONTAJ_BORULARI
10
7808.795277160611
20
239.421206867928
30
2200
11
7878.795277160611
21
239.421206867928
31
2200
12
7878.795277160611
22
309.421206867928
32
2200
13
7808.795277160611
23
309.421206867928
33
2200
0
3DFACE
5
FF64
330
FD28
100
AcDbEntity
100
AcDbFace
8
MONTAJ_BORULARI
10
7808.795277160611
20
239.421206867928
30
436.5677267045744
11
7878.795277160611
21
239.421206867928
31
436.5677267045744
12
7878.795277160611
22
239.421206867928
32
2200
13
7808.795277160611
23
239.421206867928
33
2200
0
3DFACE
5
FF65
330
FD28
100
AcDbEntity
100
AcDbFace
8
MONTAJ_BORULARI
10
7808.795277160611
20
309.421206867928
30
436.5677267045744
11
7878.795277160611
21
309.421206867928
31
436.5677267045744
12
7878.795277160611
22
309.421206867928
32
2200
13
7808.795277160611
23
309.421206867928
33
2200
0
3DFACE
5
FF66
330
FD28
100
AcDbEntity
100
AcDbFace
8
MONTAJ_BORULARI
10
7808.795277160611
20
239.421206867928
30
436.5677267045744
11
7808.795277160611
21
309.421206867928
31
436.5677267045744
12
7808.795277160611
22
309.421206867928
32
2200
13
7808.795277160611
23
239.421206867928
33
2200
0
3DFACE
5
FF67
330
FD28
100
AcDbEntity
100
AcDbFace
8
MONTAJ_BORULARI
10
7878.795277160611
20
239.421206867928
30
436.5677267045744
11
7878.795277160611
21
309.421206867928
31
436.5677267045744
12
7878.795277160611
22
309.421206867928
32
2200
13
7878.795277160611
23
239.421206867928
33
2200
0
LINE
5
FF68
330
FD28
100
AcDbEntity
100
AcDbLine
8
MONTAJ_BORULARI
10
7808.795277160611
20
239.421206867928
30
436.5677267045744
11
7878.795277160611
21
239.421206867928
31
436.5677267045744
0
LINE
5
FF69
330
FD28
100
AcDbEntity
100
AcDbLine
8
MONTAJ_BORULARI
10
7878.795277160611
20
239.421206867928
30
436.5677267045744
11
7878.795277160611
21
309.421206867928
31
436.5677267045744
0
LINE
5
FF6A
330
FD28
100
AcDbEntity
100
AcDbLine
8
MONTAJ_BORULARI
10
7878.795277160611
20
309.421206867928
30
436.5677267045744
11
7808.795277160611
21
309.421206867928
31
436.5677267045744
0
LINE
5
FF6B
330
FD28
100
AcDbEntity
100
AcDbLine
8
MONTAJ_BORULARI
10
7808.795277160611
20
309.421206867928
30
436.5677267045744
11
7808.795277160611
21
239.421206867928
31
436.5677267045744
0
LINE
5
FF6C
330
FD28
100
AcDbEntity
100
AcDbLine
8
MONTAJ_BORULARI
10
7808.795277160611
20
239.421206867928
30
2200
11
7878.795277160611
21
239.421206867928
31
2200
0
LINE
5
FF6D
330
FD28
100
AcDbEntity
100
AcDbLine
8
MONTAJ_BORULARI
10
7878.795277160611
20
239.421206867928
30
2200
11
7878.795277160611
21
309.421206867928
31
2200
0
LINE
5
FF6E
330
FD28
100
AcDbEntity
100
AcDbLine
8
MONTAJ_BORULARI
10
7878.795277160611
20
309.421206867928
30
2200
11
7808.795277160611
21
309.421206867928
31
2200
0
LINE
5
FF6F
330
FD28
100
AcDbEntity
100
AcDbLine
8
MONTAJ_BORULARI
10
7808.795277160611
20
309.421206867928
30
2200
11
7808.795277160611
21
239.421206867928
31
2200
0
LINE
5
FF70
330
FD28
100
AcDbEntity
100
AcDbLine
8
MONTAJ_BORULARI
10
7808.795277160611
20
239.421206867928
30
436.5677267045744
11
7808.795277160611
21
239.421206867928
31
2200
0
LINE
5
FF71
330
FD28
100
AcDbEntity
100
AcDbLine
8
MONTAJ_BORULARI
10
7878.795277160611
20
239.421206867928
30
436.5677267045744
11
7878.795277160611
21
239.421206867928
31
2200
0
LINE
5
FF72
330
FD28
100
AcDbEntity
100
AcDbLine
8
MONTAJ_BORULARI
10
7878.795277160611
20
309.421206867928
30
436.5677267045744
11
7878.795277160611
21
309.421206867928
31
2200
0
LINE
5
FF73
330
FD28
100
AcDbEntity
100
AcDbLine
8
MONTAJ_BORULARI
10
7808.795277160611
20
309.421206867928
30
436.5677267045744
11
7808.795277160611
21
309.421206867928
31
2200
0
3DFACE
5
FFAB
330
FD28
100
AcDbEntity
100
AcDbFace
8
MONTAJ_BORULARI
10
14250
20
0
30
3150
11
17750
21
0
31
3150
12
17750
22
-1.8369701987210297e-13
32
3150
13
14250
23
-1.8369701987210297e-13
33
3150
0
3DFACE
5
FFAC
330
FD28
100
AcDbEntity
100
AcDbFace
8
MONTAJ_BORULARI
10
14250
20
287.01257427381734
30
3092.909649383465
11
17750
21
287.01257427381734
31
3092.909649383465
12
17750
22
-3.6739403974420595e-13
32
3150
13
14250
23
-3.6739403974420595e-13
33
3150
0
3DFACE
5
FFAD
330
FD28
100
AcDbEntity
100
AcDbFace
8
MONTAJ_BORULARI
10
14250
20
530.3300858899106
30
2930.3300858899106
11
17750
21
530.3300858899106
31
2930.3300858899106
12
17750
22
-5.510910596163089e-13
32
3150
13
14250
23
-5.510910596163089e-13
33
3150
0
3DFACE
5
FFAE
330
FD28
100
AcDbEntity
100
AcDbFace
8
MONTAJ_BORULARI
10
14250
20
692.9096493834651
30
2687.0125742738173
11
17750
21
692.9096493834651
31
2687.0125742738173
12
17750
22
-7.347880794884119e-13
32
3150
13
14250
23
-7.347880794884119e-13
33
3150
0
3DFACE
5
FFAF
330
FD28
100
AcDbEntity
100
AcDbFace
8
MONTAJ_BORULARI
10
14250
20
750
30
2400
11
17750
21
750
31
2400
12
17750
22
-9.18485099360515e-13
32
3150
13
14250
23
-9.18485099360515e-13
33
3150
0
3DFACE
5
FFB0
330
FD28
100
AcDbEntity
100
AcDbFace
8
MONTAJ_BORULARI
10
14250
20
692.9096493834651
30
2112.9874257261827
11
17750
21
692.9096493834651
31
2112.9874257261827
12
17750
22
-1.1021821192326177e-12
32
3150
13
14250
23
-1.1021821192326177e-12
33
3150
0
3DFACE
5
FFB1
330
FD28
100
AcDbEntity
100
AcDbFace
8
MONTAJ_BORULARI
10
14250
20
530.3300858899107
30
1869.6699141100894
11
17750
21
530.3300858899107
31
1869.6699141100894
12
17750
22
-1.2858791391047208e-12
32
3150
13
14250
23
-1.2858791391047208e-12
33
3150
0
3DFACE
5
FFB2
330
FD28
100
AcDbEntity
100
AcDbFace
8
MONTAJ_BORULARI
10
14250
20
287.0125742738174
30
1707.090350616535
11
17750
21
287.0125742738174
31
1707.090350616535
12
17750
22
-1.4695761589768238e-12
32
3150
13
14250
23
-1.4695761589768238e-12
33
3150
0
3DFACE
5
FFB3
330
FD28
100
AcDbEntity
100
AcDbFace
8
MONTAJ_BORULARI
10
14250
20
9.184850993605149e-14
30
1650
11
17750
21
9.184850993605149e-14
31
1650
12
17750
22
-1.6532731788489268e-12
32
3150
13
14250
23
-1.6532731788489268e-12
33
3150
0
3DFACE
5
FFB4
330
FD28
100
AcDbEntity
100
AcDbFace
8
MONTAJ_BORULARI
10
14250
20
-287.0125742738173
30
1707.0903506165348
11
17750
21
-287.0125742738173
31
1707.0903506165348
12
17750
22
-1.83697019872103e-12
32
3150
13
14250
23
-1.83697019872103e-12
33
3150
0
3DFACE
5
FFB5
330
FD28
100
AcDbEntity
100
AcDbFace
8
MONTAJ_BORULARI
10
14250
20
-530.3300858899106
30
1869.6699141100894
11
17750
21
-530.3300858899106
31
1869.6699141100894
12
17750
22
-7.349737736793883e-12
32
3150
13
14250
23
-7.349737736793883e-12
33
3150
0
3DFACE
5
FFB6
330
FD28
100
AcDbEntity
100
AcDbFace
8
MONTAJ_BORULARI
10
14250
20
-692.9096493834649
30
2112.987425726182
11
17750
21
-692.9096493834649
31
2112.987425726182
12
17750
22
-2.2043642384652355e-12
32
3150
13
14250
23
-2.2043642384652355e-12
33
3150
0
3DFACE
5
FFB7
330
FD28
100
AcDbEntity
100
AcDbFace
8
MONTAJ_BORULARI
10
14250
20
-750
30
2400
11
17750
21
-750
31
2400
12
17750
22
2.9410092598634125e-12
32
3150
13
14250
23
2.9410092598634125e-12
33
3150
0
3DFACE
5
FFB8
330
FD28
100
AcDbEntity
100
AcDbFace
8
MONTAJ_BORULARI
10
14250
20
-692.909649383465
30
2687.0125742738173
11
17750
21
-692.909649383465
31
2687.0125742738173
12
17750
22
-2.5717582782094415e-12
32
3150
13
14250
23
-2.5717582782094415e-12
33
3150
0
3DFACE
5
FFB9
330
FD28
100
AcDbEntity
100
AcDbFace
8
MONTAJ_BORULARI
10
14250
20
-530.3300858899107
30
2930.3300858899106
11
17750
21
-530.3300858899107
31
2930.3300858899106
12
17750
22
-8.084525816282296e-12
32
3150
13
14250
23
-8.084525816282296e-12
33
3150
0
3DFACE
5
FFBA
330
FD28
100
AcDbEntity
100
AcDbFace
8
MONTAJ_BORULARI
10
14250
20
-287.0125742738178
30
3092.909649383465
11
17750
21
-287.0125742738178
31
3092.909649383465
12
17750
22
0
32
3150
13
14250
23
0
33
3150
0
3DFACE
5
FFCD
330
FD28
100
AcDbEntity
100
AcDbFace
8
MONTAJ_BORULARI
10
15943
20
-57
30
-440
11
16057
21
-57
31
-440
12
16057
22
57
32
-440
13
15943
23
57
33
-440
0
3DFACE
5
FFCE
330
FD28
100
AcDbEntity
100
AcDbFace
8
MONTAJ_BORULARI
10
15943
20
-57
30
1650
11
16057
21
-57
31
1650
12
16057
22
57
32
1650
13
15943
23
57
33
1650
0
3DFACE
5
FFCF
330
FD28
100
AcDbEntity
100
AcDbFace
8
MONTAJ_BORULARI
10
15943
20
-57
30
-440
11
16057
21
-57
31
-440
12
16057
22
-57
32
1650
13
15943
23
-57
33
1650
0
3DFACE
5
FFD0
330
FD28
100
AcDbEntity
100
AcDbFace
8
MONTAJ_BORULARI
10
15943
20
57
30
-440
11
16057
21
57
31
-440
12
16057
22
57
32
1650
13
15943
23
57
33
1650
0
3DFACE
5
FFD1
330
FD28
100
AcDbEntity
100
AcDbFace
8
MONTAJ_BORULARI
10
15943
20
-57
30
-440
11
15943
21
57
31
-440
12
15943
22
57
32
1650
13
15943
23
-57
33
1650
0
3DFACE
5
FFD2
330
FD28
100
AcDbEntity
100
AcDbFace
8
MONTAJ_BORULARI
10
16057
20
-57
30
-440
11
16057
21
57
31
-440
12
16057
22
57
32
1650
13
16057
23
-57
33
1650
0
LINE
5
FFD3
330
FD28
100
AcDbEntity
100
AcDbLine
8
MONTAJ_BORULARI
10
15943
20
-57
30
-440
11
16057
21
-57
31
-440
0
LINE
5
FFD4
330
FD28
100
AcDbEntity
100
AcDbLine
8
MONTAJ_BORULARI
10
16057
20
-57
30
-440
11
16057
21
57
31
-440
0
LINE
5
FFD5
330
FD28
100
AcDbEntity
100
AcDbLine
8
MONTAJ_BORULARI
10
16057
20
57
30
-440
11
15943
21
57
31
-440
0
LINE
5
FFD6
330
FD28
100
AcDbEntity
100
AcDbLine
8
MONTAJ_BORULARI
10
15943
20
57
30
-440
11
15943
21
-57
31
-440
0
LINE
5
FFD7
330
FD28
100
AcDbEntity
100
AcDbLine
8
MONTAJ_BORULARI
10
15943
20
-57
30
1650
11
16057
21
-57
31
1650
0
LINE
5
FFD8
330
FD28
100
AcDbEntity
100
AcDbLine
8
MONTAJ_BORULARI
10
16057
20
-57
30
1650
11
16057
21
57
31
1650
0
LINE
5
FFD9
330
FD28
100
AcDbEntity
100
AcDbLine
8
MONTAJ_BORULARI
10
16057
20
57
30
1650
11
15943
21
57
31
1650
0
LINE
5
FFDA
330
FD28
100
AcDbEntity
100
AcDbLine
8
MONTAJ_BORULARI
10
15943
20
57
30
1650
11
15943
21
-57
31
1650
0
LINE
5
FFDB
330
FD28
100
AcDbEntity
100
AcDbLine
8
MONTAJ_BORULARI
10
15943
20
-57
30
-440
11
15943
21
-57
31
1650
0
LINE
5
FFDC
330
FD28
100
AcDbEntity
100
AcDbLine
8
MONTAJ_BORULARI
10
16057
20
-57
30
-440
11
16057
21
-57
31
1650
0
LINE
5
FFDD
330
FD28
100
AcDbEntity
100
AcDbLine
8
MONTAJ_BORULARI
10
16057
20
57
30
-440
11
16057
21
57
31
1650
0
LINE
5
FFDE
330
FD28
100
AcDbEntity
100
AcDbLine
8
MONTAJ_BORULARI
10
15943
20
57
30
-440
11
15943
21
57
31
1650
0
3DFACE
5
FFEF
330
FD28
100
AcDbEntity
100
AcDbFace
8
MONTAJ_BORULARI
10
16000
20
609.3846240265666
30
587.6331818993465
11
16026.940768363207
21
617.2753923897742
31
595.5239502625539
12
16026.940768363207
22
-54.476049737445976
32
1267.2753923897742
13
16000
23
-62.36681810065346
33
1259.3846240265666
0
3DFACE
5
FFF0
330
FD28
100
AcDbEntity
100
AcDbFace
8
MONTAJ_BORULARI
10
16026.940768363207
20
617.2753923897742
30
595.5239502625539
11
16038.1
21
636.3253923897742
31
614.5739502625538
12
16038.1
22
-35.42604973744602
32
1286.3253923897742
13
16026.940768363207
23
-54.476049737445976
33
1267.2753923897742
0
3DFACE
5
FFF1
330
FD28
100
AcDbEntity
100
AcDbFace
8
MONTAJ_BORULARI
10
16038.1
20
636.3253923897742
30
614.5739502625538
11
16026.940768363207
21
655.3753923897741
31
633.6239502625539
12
16026.940768363207
22
-16.37604973744601
32
1305.375392389774
13
16038.1
23
-35.42604973744602
33
1286.3253923897742
0
3DFACE
5
FFF2
330
FD28
100
AcDbEntity
100
AcDbFace
8
MONTAJ_BORULARI
10
16026.940768363207
20
655.3753923897741
30
633.6239502625539
11
16000
21
663.2661607529816
31
641.5147186257614
12
16000
22
-8.485281374238525
32
1313.2661607529817
13
16026.940768363207
23
-16.37604973744601
33
1305.375392389774
0
3DFACE
5
FFF3
330
FD28
100
AcDbEntity
100
AcDbFace
8
MONTAJ_BORULARI
10
16000
20
663.2661607529816
30
641.5147186257614
11
15973.059231636793
21
655.3753923897741
31
633.6239502625539
12
15973.059231636793
22
-16.37604973744601
32
1305.375392389774
13
16000
23
-8.485281374238525
33
1313.2661607529817
0
3DFACE
5
FFF4
330
FD28
100
AcDbEntity
100
AcDbFace
8
MONTAJ_BORULARI
10
15973.059231636793
20
655.3753923897741
30
633.6239502625539
11
15961.9
21
636.3253923897742
31
614.5739502625538
12
15961.9
22
-35.42604973744602
32
1286.3253923897742
13
15973.059231636793
23
-16.37604973744601
33
1305.375392389774
0
3DFACE
5
FFF5
330
FD28
100
AcDbEntity
100
AcDbFace
8
MONTAJ_BORULARI
10
15961.9
20
636.3253923897742
30
614.5739502625538
11
15973.059231636793
21
617.2753923897742
31
595.5239502625539
12
15973.059231636793
22
-54.476049737445976
32
1267.2753923897742
13
15961.9
23
-35.42604973744602
33
1286.3253923897742
0
3DFACE
5
FFF6
330
FD28
100
AcDbEntity
100
AcDbFace
8
MONTAJ_BORULARI
10
15973.059231636793
20
617.2753923897742
30
595.5239502625539
11
16000
21
609.3846240265666
31
587.6331818993465
12
16000
22
-62.36681810065346
32
1259.3846240265666
13
15973.059231636793
23
-54.476049737445976
33
1267.2753923897742
0
3DFACE
5
FFF7
330
FD28
100
AcDbEntity
100
AcDbFace
8
MONTAJ_BORULARI
10
15965
20
401.56772670457445
30
814.3316159477536
11
16035
21
401.56772670457445
31
814.3316159477536
12
16035
22
471.56772670457445
32
814.3316159477536
13
15965
23
471.56772670457445
33
814.3316159477536
0
3DFACE
5
FFF8
330
FD28
100
AcDbEntity
100
AcDbFace
8
MONTAJ_BORULARI
10
15965
20
401.56772670457445
30
2850
11
16035
21
401.56772670457445
31
2850
12
16035
22
471.56772670457445
32
2850
13
15965
23
471.56772670457445
33
2850
0
3DFACE
5
FFF9
330
FD28
100
AcDbEntity
100
AcDbFace
8
MONTAJ_BORULARI
10
15965
20
401.56772670457445
30
814.3316159477536
11
16035
21
401.56772670457445
31
814.3316159477536
12
16035
22
401.56772670457445
32
2850
13
15965
23
401.56772670457445
33
2850
0
3DFACE
5
FFFA
330
FD28
100
AcDbEntity
100
AcDbFace
8
MONTAJ_BORULARI
10
15965
20
471.56772670457445
30
814.3316159477536
11
16035
21
471.56772670457445
31
814.3316159477536
12
16035
22
471.56772670457445
32
2850
13
15965
23
471.56772670457445
33
2850
0
3DFACE
5
FFFB
330
FD28
100
AcDbEntity
100
AcDbFace
8
MONTAJ_BORULARI
10
15965
20
401.56772670457445
30
814.3316159477536
11
15965
21
471.56772670457445
31
814.3316159477536
12
15965
22
471.56772670457445
32
2850
13
15965
23
401.56772670457445
33
2850
0
3DFACE
5
FFFC
330
FD28
100
AcDbEntity
100
AcDbFace
8
MONTAJ_BORULARI
10
16035
20
401.56772670457445
30
814.3316159477536
11
16035
21
471.56772670457445
31
814.3316159477536
12
16035
22
471.56772670457445
32
2850
13
16035
23
401.56772670457445
33
2850
0
LINE
5
FFFD
330
FD28
100
AcDbEntity
100
AcDbLine
8
MONTAJ_BORULARI
10
15965
20
401.56772670457445
30
814.3316159477536
11
16035
21
401.56772670457445
31
814.3316159477536
0
LINE
5
FFFE
330
FD28
100
AcDbEntity
100
AcDbLine
8
MONTAJ_BORULARI
10
16035
20
401.56772670457445
30
814.3316159477536
11
16035
21
471.56772670457445
31
814.3316159477536
0
LINE
5
FFFF
330
FD28
100
AcDbEntity
100
AcDbLine
8
MONTAJ_BORULARI
10
16035
20
471.56772670457445
30
814.3316159477536
11
15965
21
471.56772670457445
31
814.3316159477536
0
LINE
5
10000
330
FD28
100
AcDbEntity
100
AcDbLine
8
MONTAJ_BORULARI
10
15965
20
471.56772670457445
30
814.3316159477536
11
15965
21
401.56772670457445
31
814.3316159477536
0
LINE
5
10001
330
FD28
100
AcDbEntity
100
AcDbLine
8
MONTAJ_BORULARI
10
15965
20
401.56772670457445
30
2850
11
16035
21
401.56772670457445
31
2850
0
LINE
5
10002
330
FD28
100
AcDbEntity
100
AcDbLine
8
MONTAJ_BORULARI
10
16035
20
401.56772670457445
30
2850
11
16035
21
471.56772670457445
31
2850
0
LINE
5
10003
330
FD28
100
AcDbEntity
100
AcDbLine
8
MONTAJ_BORULARI
10
16035
20
471.56772670457445
30
2850
11
15965
21
471.56772670457445
31
2850
0
LINE
5
10004
330
FD28
100
AcDbEntity
100
AcDbLine
8
MONTAJ_BORULARI
10
15965
20
471.56772670457445
30
2850
11
15965
21
401.56772670457445
31
2850
0
LINE
5
10005
330
FD28
100
AcDbEntity
100
AcDbLine
8
MONTAJ_BORULARI
10
15965
20
401.56772670457445
30
814.3316159477536
11
15965
21
401.56772670457445
31
2850
0
LINE
5
10006
330
FD28
100
AcDbEntity
100
AcDbLine
8
MONTAJ_BORULARI
10
16035
20
401.56772670457445
30
814.3316159477536
11
16035
21
401.56772670457445
31
2850
0
LINE
5
10007
330
FD28
100
AcDbEntity
100
AcDbLine
8
MONTAJ_BORULARI
10
16035
20
471.56772670457445
30
814.3316159477536
11
16035
21
471.56772670457445
31
2850
0
LINE
5
10008
330
FD28
100
AcDbEntity
100
AcDbLine
8
MONTAJ_BORULARI
10
15965
20
471.56772670457445
30
814.3316159477536
11
15965
21
471.56772670457445
31
2850
0
3DFACE
5
10009
330
FD28
100
AcDbEntity
100
AcDbFace
8
MONTAJ_BORULARI
10
15965
20
129.33161594775362
30
1086.5677267045744
11
16035
21
129.33161594775362
31
1086.5677267045744
12
16035
22
199.33161594775362
32
1086.5677267045744
13
15965
23
199.33161594775362
33
1086.5677267045744
0
3DFACE
5
1000A
330
FD28
100
AcDbEntity
100
AcDbFace
8
MONTAJ_BORULARI
10
15965
20
129.33161594775362
30
2850
11
16035
21
129.33161594775362
31
2850
12
16035
22
199.33161594775362
32
2850
13
15965
23
199.33161594775362
33
2850
0
3DFACE
5
1000B
330
FD28
100
AcDbEntity
100
AcDbFace
8
MONTAJ_BORULARI
10
15965
20
129.33161594775362
30
1086.5677267045744
11
16035
21
129.33161594775362
31
1086.5677267045744
12
16035
22
129.33161594775362
32
2850
13
15965
23
129.33161594775362
33
2850
0
3DFACE
5
1000C
330
FD28
100
AcDbEntity
100
AcDbFace
8
MONTAJ_BORULARI
10
15965
20
199.33161594775362
30
1086.5677267045744
11
16035
21
199.33161594775362
31
1086.5677267045744
12
16035
22
199.33161594775362
32
2850
13
15965
23
199.33161594775362
33
2850
0
3DFACE
5
1000D
330
FD28
100
AcDbEntity
100
AcDbFace
8
MONTAJ_BORULARI
10
15965
20
129.33161594775362
30
1086.5677267045744
11
15965
21
199.33161594775362
31
1086.5677267045744
12
15965
22
199.33161594775362
32
2850
13
15965
23
129.33161594775362
33
2850
0
3DFACE
5
1000E
330
FD28
100
AcDbEntity
100
AcDbFace
8
MONTAJ_BORULARI
10
16035
20
129.33161594775362
30
1086.5677267045744
11
16035
21
199.33161594775362
31
1086.5677267045744
12
16035
22
199.33161594775362
32
2850
13
16035
23
129.33161594775362
33
2850
0
LINE
5
1000F
330
FD28
100
AcDbEntity
100
AcDbLine
8
MONTAJ_BORULARI
10
15965
20
129.33161594775362
30
1086.5677267045744
11
16035
21
129.33161594775362
31
1086.5677267045744
0
LINE
5
10010
330
FD28
100
AcDbEntity
100
AcDbLine
8
MONTAJ_BORULARI
10
16035
20
129.33161594775362
30
1086.5677267045744
11
16035
21
199.33161594775362
31
1086.5677267045744
0
LINE
5
10011
330
FD28
100
AcDbEntity
100
AcDbLine
8
MONTAJ_BORULARI
10
16035
20
199.33161594775362
30
1086.5677267045744
11
15965
21
199.33161594775362
31
1086.5677267045744
0
LINE
5
10012
330
FD28
100
AcDbEntity
100
AcDbLine
8
MONTAJ_BORULARI
10
15965
20
199.33161594775362
30
1086.5677267045744
11
15965
21
129.33161594775362
31
1086.5677267045744
0
LINE
5
10013
330
FD28
100
AcDbEntity
100
AcDbLine
8
MONTAJ_BORULARI
10
15965
20
129.33161594775362
30
2850
11
16035
21
129.33161594775362
31
2850
0
LINE
5
10014
330
FD28
100
AcDbEntity
100
AcDbLine
8
MONTAJ_BORULARI
10
16035
20
129.33161594775362
30
2850
11
16035
21
199.33161594775362
31
2850
0
LINE
5
10015
330
FD28
100
AcDbEntity
100
AcDbLine
8
MONTAJ_BORULARI
10
16035
20
199.33161594775362
30
2850
11
15965
21
199.33161594775362
31
2850
0
LINE
5
10016
330
FD28
100
AcDbEntity
100
AcDbLine
8
MONTAJ_BORULARI
10
15965
20
199.33161594775362
30
2850
11
15965
21
129.33161594775362
31
2850
0
LINE
5
10017
330
FD28
100
AcDbEntity
100
AcDbLine
8
MONTAJ_BORULARI
10
15965
20
129.33161594775362
30
1086.5677267045744
11
15965
21
129.33161594775362
31
2850
0
LINE
5
10018
330
FD28
100
AcDbEntity
100
AcDbLine
8
MONTAJ_BORULARI
10
16035
20
129.33161594775362
30
1086.5677267045744
11
16035
21
129.33161594775362
31
2850
0
LINE
5
10019
330
FD28
100
AcDbEntity
100
AcDbLine
8
MONTAJ_BORULARI
10
16035
20
199.33161594775362
30
1086.5677267045744
11
16035
21
199.33161594775362
31
2850
0
LINE
5
1001A
330
FD28
100
AcDbEntity
100
AcDbLine
8
MONTAJ_BORULARI
10
15965
20
199.33161594775362
30
1086.5677267045744
11
15965
21
199.33161594775362
31
2850
0
TEXT
5
FDA1
330
FD28
100
AcDbEntity
100
AcDbText
8
METIN_BILGI
10
-14000
20
-600
30
0
40
50
1
1. TEKLI SPOT BEAM 30/30 (45° CATI ASKISI)
50
0
7
STANDARD
72
1
11
-14000
21
-600
31
0
100
AcDbText
73
2
0
TEXT
5
FE02
330
FD28
100
AcDbEntity
100
AcDbText
8
METIN_BILGI
10
-4500
20
-600
30
0
40
50
1
ANT-1 (SOL)
50
0
7
STANDARD
72
1
11
-4500
21
-600
31
0
100
AcDbText
73
2
0
TEXT
5
FE63
330
FD28
100
AcDbEntity
100
AcDbText
8
METIN_BILGI
10
-3500
20
-600
30
0
40
50
1
ANT-2 (SAG)
50
0
7
STANDARD
72
1
11
-3500
21
-600
31
0
100
AcDbText
73
2
0
TEXT
5
FED6
330
FD28
100
AcDbEntity
100
AcDbText
8
METIN_BILGI
10
6100
20
-480
30
0
40
50
1
ANT-1 (-20°)
50
0
7
STANDARD
72
1
11
6100
21
-480
31
0
100
AcDbText
73
2
0
TEXT
5
FF37
330
FD28
100
AcDbEntity
100
AcDbText
8
METIN_BILGI
10
7000
20
-600
30
0
40
50
1
ANT-2 (0°)
50
0
7
STANDARD
72
1
11
7000
21
-600
31
0
100
AcDbText
73
2
0
TEXT
5
FF98
330
FD28
100
AcDbEntity
100
AcDbText
8
METIN_BILGI
10
7900
20
-480
30
0
40
50
1
ANT-3 (+20°)
50
0
7
STANDARD
72
1
11
7900
21
-480
31
0
100
AcDbText
73
2
0
TEXT
5
1003F
330
FD28
100
AcDbEntity
100
AcDbText
8
METIN_BILGI
10
16000
20
-600
30
0
40
50
1
SKORBOARD Ø1500mm BORU ASILI GAMMA NU
50
0
7
STANDARD
72
1
11
16000
21
-600
31
0
100
AcDbText
73
2
0
3DFACE
5
FD41
330
FD28
100
AcDbEntity
100
AcDbFace
8
EKP_PANEL_ANTEN
10
-14350
20
307.59144981614816
30
-187.3832970144351
11
-13650
21
307.59144981614816
31
-187.3832970144351
12
-13650
22
-187.38329701443507
32
307.59144981614816
13
-14350
23
-187.38329701443507
33
307.59144981614816
0
3DFACE
5
FD42
330
FD28
100
AcDbEntity
100
AcDbFace
8
EKP_PANEL_ANTEN
10
-14350
20
187.38329701443507
30
-307.59144981614816
11
-13650
21
187.38329701443507
31
-307.59144981614816
12
-13650
22
307.59144981614816
32
-187.3832970144351
13
-14350
23
307.59144981614816
33
-187.3832970144351
0
3DFACE
5
FD43
330
FD28
100
AcDbEntity
100
AcDbFace
8
EKP_PANEL_ANTEN
10
-14350
20
-307.59144981614816
30
187.3832970144351
11
-13650
21
-307.59144981614816
31
187.3832970144351
12
-13650
22
-187.38329701443507
32
307.59144981614816
13
-14350
23
-187.38329701443507
33
307.59144981614816
0
3DFACE
5
FD44
330
FD28
100
AcDbEntity
100
AcDbFace
8
EKP_PANEL_ANTEN
10
-14350
20
187.38329701443507
30
-307.59144981614816
11
-14350
21
-307.59144981614816
31
187.3832970144351
12
-14350
22
-187.38329701443507
32
307.59144981614816
13
-14350
23
307.59144981614816
33
-187.3832970144351
0
3DFACE
5
FD45
330
FD28
100
AcDbEntity
100
AcDbFace
8
EKP_PANEL_ANTEN
10
-13650
20
187.38329701443507
30
-307.59144981614816
11
-13650
21
-307.59144981614816
31
187.3832970144351
12
-13650
22
-187.38329701443507
32
307.59144981614816
13
-13650
23
307.59144981614816
33
-187.3832970144351
0
3DFACE
5
FD46
330
FD28
100
AcDbEntity
100
AcDbFace
8
EKP_PANEL_ANTEN
10
-14000
20
-72.8319984622144
30
-72.83199846221439
11
-14350
21
-307.59144981614816
31
187.3832970144351
12
-13650
22
-307.59144981614816
32
187.3832970144351
13
-13650
23
-307.59144981614816
33
187.3832970144351
0
3DFACE
5
FD47
330
FD28
100
AcDbEntity
100
AcDbFace
8
EKP_PANEL_ANTEN
10
-14000
20
-72.8319984622144
30
-72.83199846221439
11
-13650
21
-307.59144981614816
31
187.3832970144351
12
-13650
22
187.38329701443507
32
-307.59144981614816
13
-13650
23
187.38329701443507
33
-307.59144981614816
0
3DFACE
5
FD48
330
FD28
100
AcDbEntity
100
AcDbFace
8
EKP_PANEL_ANTEN
10
-14000
20
-72.8319984622144
30
-72.83199846221439
11
-13650
21
187.38329701443507
31
-307.59144981614816
12
-14350
22
187.38329701443507
32
-307.59144981614816
13
-14350
23
187.38329701443507
33
-307.59144981614816
0
3DFACE
5
FD49
330
FD28
100
AcDbEntity
100
AcDbFace
8
EKP_PANEL_ANTEN
10
-14000
20
-72.8319984622144
30
-72.83199846221439
11
-14350
21
187.38329701443507
31
-307.59144981614816
12
-14350
22
-307.59144981614816
32
187.3832970144351
13
-14350
23
-307.59144981614816
33
187.3832970144351
0
LINE
5
FD4A
330
FD28
100
AcDbEntity
100
AcDbLine
8
EKP_PANEL_ANTEN
10
-14000
20
-72.8319984622144
30
-72.83199846221439
11
-14350
21
187.38329701443507
31
-307.59144981614816
0
LINE
5
FD4B
330
FD28
100
AcDbEntity
100
AcDbLine
8
EKP_PANEL_ANTEN
10
-14000
20
-72.8319984622144
30
-72.83199846221439
11
-13650
21
187.38329701443507
31
-307.59144981614816
0
LINE
5
FD4C
330
FD28
100
AcDbEntity
100
AcDbLine
8
EKP_PANEL_ANTEN
10
-14000
20
-72.8319984622144
30
-72.83199846221439
11
-13650
21
-307.59144981614816
31
187.3832970144351
0
LINE
5
FD4D
330
FD28
100
AcDbEntity
100
AcDbLine
8
EKP_PANEL_ANTEN
10
-14000
20
-72.8319984622144
30
-72.83199846221439
11
-14350
21
-307.59144981614816
31
187.3832970144351
0
3DFACE
5
FDA2
330
FD28
100
AcDbEntity
100
AcDbFace
8
EKP_PANEL_ANTEN
10
-4850
20
307.59144981614816
30
-187.3832970144351
11
-4150
21
307.59144981614816
31
-187.3832970144351
12
-4150
22
-187.38329701443507
32
307.59144981614816
13
-4850
23
-187.38329701443507
33
307.59144981614816
0
3DFACE
5
FDA3
330
FD28
100
AcDbEntity
100
AcDbFace
8
EKP_PANEL_ANTEN
10
-4850
20
187.38329701443507
30
-307.59144981614816
11
-4150
21
187.38329701443507
31
-307.59144981614816
12
-4150
22
307.59144981614816
32
-187.3832970144351
13
-4850
23
307.59144981614816
33
-187.3832970144351
0
3DFACE
5
FDA4
330
FD28
100
AcDbEntity
100
AcDbFace
8
EKP_PANEL_ANTEN
10
-4850
20
-307.59144981614816
30
187.3832970144351
11
-4150
21
-307.59144981614816
31
187.3832970144351
12
-4150
22
-187.38329701443507
32
307.59144981614816
13
-4850
23
-187.38329701443507
33
307.59144981614816
0
3DFACE
5
FDA5
330
FD28
100
AcDbEntity
100
AcDbFace
8
EKP_PANEL_ANTEN
10
-4850
20
187.38329701443507
30
-307.59144981614816
11
-4850
21
-307.59144981614816
31
187.3832970144351
12
-4850
22
-187.38329701443507
32
307.59144981614816
13
-4850
23
307.59144981614816
33
-187.3832970144351
0
3DFACE
5
FDA6
330
FD28
100
AcDbEntity
100
AcDbFace
8
EKP_PANEL_ANTEN
10
-4150
20
187.38329701443507
30
-307.59144981614816
11
-4150
21
-307.59144981614816
31
187.3832970144351
12
-4150
22
-187.38329701443507
32
307.59144981614816
13
-4150
23
307.59144981614816
33
-187.3832970144351
0
3DFACE
5
FDA7
330
FD28
100
AcDbEntity
100
AcDbFace
8
EKP_PANEL_ANTEN
10
-4500
20
-72.8319984622144
30
-72.83199846221439
11
-4850
21
-307.59144981614816
31
187.3832970144351
12
-4150
22
-307.59144981614816
32
187.3832970144351
13
-4150
23
-307.59144981614816
33
187.3832970144351
0
3DFACE
5
FDA8
330
FD28
100
AcDbEntity
100
AcDbFace
8
EKP_PANEL_ANTEN
10
-4500
20
-72.8319984622144
30
-72.83199846221439
11
-4150
21
-307.59144981614816
31
187.3832970144351
12
-4150
22
187.38329701443507
32
-307.59144981614816
13
-4150
23
187.38329701443507
33
-307.59144981614816
0
3DFACE
5
FDA9
330
FD28
100
AcDbEntity
100
AcDbFace
8
EKP_PANEL_ANTEN
10
-4500
20
-72.8319984622144
30
-72.83199846221439
11
-4150
21
187.38329701443507
31
-307.59144981614816
12
-4850
22
187.38329701443507
32
-307.59144981614816
13
-4850
23
187.38329701443507
33
-307.59144981614816
0
3DFACE
5
FDAA
330
FD28
100
AcDbEntity
100
AcDbFace
8
EKP_PANEL_ANTEN
10
-4500
20
-72.8319984622144
30
-72.83199846221439
11
-4850
21
187.38329701443507
31
-307.59144981614816
12
-4850
22
-307.59144981614816
32
187.3832970144351
13
-4850
23
-307.59144981614816
33
187.3832970144351
0
LINE
5
FDAB
330
FD28
100
AcDbEntity
100
AcDbLine
8
EKP_PANEL_ANTEN
10
-4500
20
-72.8319984622144
30
-72.83199846221439
11
-4850
21
187.38329701443507
31
-307.59144981614816
0
LINE
5
FDAC
330
FD28
100
AcDbEntity
100
AcDbLine
8
EKP_PANEL_ANTEN
10
-4500
20
-72.8319984622144
30
-72.83199846221439
11
-4150
21
187.38329701443507
31
-307.59144981614816
0
LINE
5
FDAD
330
FD28
100
AcDbEntity
100
AcDbLine
8
EKP_PANEL_ANTEN
10
-4500
20
-72.8319984622144
30
-72.83199846221439
11
-4150
21
-307.59144981614816
31
187.3832970144351
0
LINE
5
FDAE
330
FD28
100
AcDbEntity
100
AcDbLine
8
EKP_PANEL_ANTEN
10
-4500
20
-72.8319984622144
30
-72.83199846221439
11
-4850
21
-307.59144981614816
31
187.3832970144351
0
3DFACE
5
FE03
330
FD28
100
AcDbEntity
100
AcDbFace
8
EKP_PANEL_ANTEN
10
-3850
20
307.59144981614816
30
-187.3832970144351
11
-3150
21
307.59144981614816
31
-187.3832970144351
12
-3150
22
-187.38329701443507
32
307.59144981614816
13
-3850
23
-187.38329701443507
33
307.59144981614816
0
3DFACE
5
FE04
330
FD28
100
AcDbEntity
100
AcDbFace
8
EKP_PANEL_ANTEN
10
-3850
20
187.38329701443507
30
-307.59144981614816
11
-3150
21
187.38329701443507
31
-307.59144981614816
12
-3150
22
307.59144981614816
32
-187.3832970144351
13
-3850
23
307.59144981614816
33
-187.3832970144351
0
3DFACE
5
FE05
330
FD28
100
AcDbEntity
100
AcDbFace
8
EKP_PANEL_ANTEN
10
-3850
20
-307.59144981614816
30
187.3832970144351
11
-3150
21
-307.59144981614816
31
187.3832970144351
12
-3150
22
-187.38329701443507
32
307.59144981614816
13
-3850
23
-187.38329701443507
33
307.59144981614816
0
3DFACE
5
FE06
330
FD28
100
AcDbEntity
100
AcDbFace
8
EKP_PANEL_ANTEN
10
-3850
20
187.38329701443507
30
-307.59144981614816
11
-3850
21
-307.59144981614816
31
187.3832970144351
12
-3850
22
-187.38329701443507
32
307.59144981614816
13
-3850
23
307.59144981614816
33
-187.3832970144351
0
3DFACE
5
FE07
330
FD28
100
AcDbEntity
100
AcDbFace
8
EKP_PANEL_ANTEN
10
-3150
20
187.38329701443507
30
-307.59144981614816
11
-3150
21
-307.59144981614816
31
187.3832970144351
12
-3150
22
-187.38329701443507
32
307.59144981614816
13
-3150
23
307.59144981614816
33
-187.3832970144351
0
3DFACE
5
FE08
330
FD28
100
AcDbEntity
100
AcDbFace
8
EKP_PANEL_ANTEN
10
-3500
20
-72.8319984622144
30
-72.83199846221439
11
-3850
21
-307.59144981614816
31
187.3832970144351
12
-3150
22
-307.59144981614816
32
187.3832970144351
13
-3150
23
-307.59144981614816
33
187.3832970144351
0
3DFACE
5
FE09
330
FD28
100
AcDbEntity
100
AcDbFace
8
EKP_PANEL_ANTEN
10
-3500
20
-72.8319984622144
30
-72.83199846221439
11
-3150
21
-307.59144981614816
31
187.3832970144351
12
-3150
22
187.38329701443507
32
-307.59144981614816
13
-3150
23
187.38329701443507
33
-307.59144981614816
0
3DFACE
5
FE0A
330
FD28
100
AcDbEntity
100
AcDbFace
8
EKP_PANEL_ANTEN
10
-3500
20
-72.8319984622144
30
-72.83199846221439
11
-3150
21
187.38329701443507
31
-307.59144981614816
12
-3850
22
187.38329701443507
32
-307.59144981614816
13
-3850
23
187.38329701443507
33
-307.59144981614816
0
3DFACE
5
FE0B
330
FD28
100
AcDbEntity
100
AcDbFace
8
EKP_PANEL_ANTEN
10
-3500
20
-72.8319984622144
30
-72.83199846221439
11
-3850
21
187.38329701443507
31
-307.59144981614816
12
-3850
22
-307.59144981614816
32
187.3832970144351
13
-3850
23
-307.59144981614816
33
187.3832970144351
0
LINE
5
FE0C
330
FD28
100
AcDbEntity
100
AcDbLine
8
EKP_PANEL_ANTEN
10
-3500
20
-72.8319984622144
30
-72.83199846221439
11
-3850
21
187.38329701443507
31
-307.59144981614816
0
LINE
5
FE0D
330
FD28
100
AcDbEntity
100
AcDbLine
8
EKP_PANEL_ANTEN
10
-3500
20
-72.8319984622144
30
-72.83199846221439
11
-3150
21
187.38329701443507
31
-307.59144981614816
0
LINE
5
FE0E
330
FD28
100
AcDbEntity
100
AcDbLine
8
EKP_PANEL_ANTEN
10
-3500
20
-72.8319984622144
30
-72.83199846221439
11
-3150
21
-307.59144981614816
31
187.3832970144351
0
LINE
5
FE0F
330
FD28
100
AcDbEntity
100
AcDbLine
8
EKP_PANEL_ANTEN
10
-3500
20
-72.8319984622144
30
-72.83199846221439
11
-3850
21
-307.59144981614816
31
187.3832970144351
0
3DFACE
5
FE76
330
FD28
100
AcDbEntity
100
AcDbFace
8
EKP_PANEL_ANTEN
10
5876.310054476801
20
528.7484657730575
30
-187.3832970144351
11
6534.094889026937
21
289.3343654450895
31
-187.3832970144351
12
6364.803555173355
22
-175.78975162698282
32
307.59144981614816
13
5707.0187206232185
23
63.624348700985266
33
307.59144981614816
0
3DFACE
5
FE77
330
FD28
100
AcDbEntity
100
AcDbFace
8
EKP_PANEL_ANTEN
10
5835.196444826645
20
415.7897516269828
30
-307.59144981614816
11
6492.9812793767815
21
176.37565129901475
31
-307.59144981614816
12
6534.094889026937
22
289.3343654450895
32
-187.3832970144351
13
5876.310054476801
23
528.7484657730575
33
-187.3832970144351
0
3DFACE
5
FE78
330
FD28
100
AcDbEntity
100
AcDbFace
8
EKP_PANEL_ANTEN
10
5665.905110973063
20
-49.334365445089475
30
187.3832970144351
11
6323.689945523199
21
-288.74846577305755
31
187.3832970144351
12
6364.803555173355
22
-175.78975162698282
32
307.59144981614816
13
5707.0187206232185
23
63.624348700985266
33
307.59144981614816
0
3DFACE
5
FE79
330
FD28
100
AcDbEntity
100
AcDbFace
8
EKP_PANEL_ANTEN
10
5835.196444826645
20
415.7897516269828
30
-307.59144981614816
11
5665.905110973063
21
-49.334365445089475
31
187.3832970144351
12
5707.0187206232185
22
63.624348700985266
32
307.59144981614816
13
5876.310054476801
23
528.7484657730575
33
-187.3832970144351
0
3DFACE
5
FE7A
330
FD28
100
AcDbEntity
100
AcDbFace
8
EKP_PANEL_ANTEN
10
6492.9812793767815
20
176.37565129901475
30
-307.59144981614816
11
6323.689945523199
21
-288.74846577305755
31
187.3832970144351
12
6364.803555173355
22
-175.78975162698282
32
307.59144981614816
13
6534.094889026937
23
289.3343654450895
33
-187.3832970144351
0
3DFACE
5
FE7B
330
FD28
100
AcDbEntity
100
AcDbFace
8
EKP_PANEL_ANTEN
10
6075.089989447259
20
51.560308487966495
30
-72.83199846221439
11
5665.905110973063
21
-49.334365445089475
31
187.3832970144351
12
6323.689945523199
22
-288.74846577305755
32
187.3832970144351
13
6323.689945523199
23
-288.74846577305755
33
187.3832970144351
0
3DFACE
5
FE7C
330
FD28
100
AcDbEntity
100
AcDbFace
8
EKP_PANEL_ANTEN
10
6075.089989447259
20
51.560308487966495
30
-72.83199846221439
11
6323.689945523199
21
-288.74846577305755
31
187.3832970144351
12
6492.9812793767815
22
176.37565129901475
32
-307.59144981614816
13
6492.9812793767815
23
176.37565129901475
33
-307.59144981614816
0
3DFACE
5
FE7D
330
FD28
100
AcDbEntity
100
AcDbFace
8
EKP_PANEL_ANTEN
10
6075.089989447259
20
51.560308487966495
30
-72.83199846221439
11
6492.9812793767815
21
176.37565129901475
31
-307.59144981614816
12
5835.196444826645
22
415.7897516269828
32
-307.59144981614816
13
5835.196444826645
23
415.7897516269828
33
-307.59144981614816
0
3DFACE
5
FE7E
330
FD28
100
AcDbEntity
100
AcDbFace
8
EKP_PANEL_ANTEN
10
6075.089989447259
20
51.560308487966495
30
-72.83199846221439
11
5835.196444826645
21
415.7897516269828
31
-307.59144981614816
12
5665.905110973063
22
-49.334365445089475
32
187.3832970144351
13
5665.905110973063
23
-49.334365445089475
33
187.3832970144351
0
LINE
5
FE7F
330
FD28
100
AcDbEntity
100
AcDbLine
8
EKP_PANEL_ANTEN
10
6075.089989447259
20
51.560308487966495
30
-72.83199846221439
11
5835.196444826645
21
415.7897516269828
31
-307.59144981614816
0
LINE
5
FE80
330
FD28
100
AcDbEntity
100
AcDbLine
8
EKP_PANEL_ANTEN
10
6075.089989447259
20
51.560308487966495
30
-72.83199846221439
11
6492.9812793767815
21
176.37565129901475
31
-307.59144981614816
0
LINE
5
FE81
330
FD28
100
AcDbEntity
100
AcDbLine
8
EKP_PANEL_ANTEN
10
6075.089989447259
20
51.560308487966495
30
-72.83199846221439
11
6323.689945523199
21
-288.74846577305755
31
187.3832970144351
0
LINE
5
FE82
330
FD28
100
AcDbEntity
100
AcDbLine
8
EKP_PANEL_ANTEN
10
6075.089989447259
20
51.560308487966495
30
-72.83199846221439
11
5665.905110973063
21
-49.334365445089475
31
187.3832970144351
0
3DFACE
5
FED7
330
FD28
100
AcDbEntity
100
AcDbFace
8
EKP_PANEL_ANTEN
10
6650
20
307.59144981614816
30
-187.3832970144351
11
7350
21
307.59144981614816
31
-187.3832970144351
12
7350
22
-187.38329701443507
32
307.59144981614816
13
6650
23
-187.38329701443507
33
307.59144981614816
0
3DFACE
5
FED8
330
FD28
100
AcDbEntity
100
AcDbFace
8
EKP_PANEL_ANTEN
10
6650
20
187.38329701443507
30
-307.59144981614816
11
7350
21
187.38329701443507
31
-307.59144981614816
12
7350
22
307.59144981614816
32
-187.3832970144351
13
6650
23
307.59144981614816
33
-187.3832970144351
0
3DFACE
5
FED9
330
FD28
100
AcDbEntity
100
AcDbFace
8
EKP_PANEL_ANTEN
10
6650
20
-307.59144981614816
30
187.3832970144351
11
7350
21
-307.59144981614816
31
187.3832970144351
12
7350
22
-187.38329701443507
32
307.59144981614816
13
6650
23
-187.38329701443507
33
307.59144981614816
0
3DFACE
5
FEDA
330
FD28
100
AcDbEntity
100
AcDbFace
8
EKP_PANEL_ANTEN
10
6650
20
187.38329701443507
30
-307.59144981614816
11
6650
21
-307.59144981614816
31
187.3832970144351
12
6650
22
-187.38329701443507
32
307.59144981614816
13
6650
23
307.59144981614816
33
-187.3832970144351
0
3DFACE
5
FEDB
330
FD28
100
AcDbEntity
100
AcDbFace
8
EKP_PANEL_ANTEN
10
7350
20
187.38329701443507
30
-307.59144981614816
11
7350
21
-307.59144981614816
31
187.3832970144351
12
7350
22
-187.38329701443507
32
307.59144981614816
13
7350
23
307.59144981614816
33
-187.3832970144351
0
3DFACE
5
FEDC
330
FD28
100
AcDbEntity
100
AcDbFace
8
EKP_PANEL_ANTEN
10
7000
20
-72.8319984622144
30
-72.83199846221439
11
6650
21
-307.59144981614816
31
187.3832970144351
12
7350
22
-307.59144981614816
32
187.3832970144351
13
7350
23
-307.59144981614816
33
187.3832970144351
0
3DFACE
5
FEDD
330
FD28
100
AcDbEntity
100
AcDbFace
8
EKP_PANEL_ANTEN
10
7000
20
-72.8319984622144
30
-72.83199846221439
11
7350
21
-307.59144981614816
31
187.3832970144351
12
7350
22
187.38329701443507
32
-307.59144981614816
13
7350
23
187.38329701443507
33
-307.59144981614816
0
3DFACE
5
FEDE
330
FD28
100
AcDbEntity
100
AcDbFace
8
EKP_PANEL_ANTEN
10
7000
20
-72.8319984622144
30
-72.83199846221439
11
7350
21
187.38329701443507
31
-307.59144981614816
12
6650
22
187.38329701443507
32
-307.59144981614816
13
6650
23
187.38329701443507
33
-307.59144981614816
0
3DFACE
5
FEDF
330
FD28
100
AcDbEntity
100
AcDbFace
8
EKP_PANEL_ANTEN
10
7000
20
-72.8319984622144
30
-72.83199846221439
11
6650
21
187.38329701443507
31
-307.59144981614816
12
6650
22
-307.59144981614816
32
187.3832970144351
13
6650
23
-307.59144981614816
33
187.3832970144351
0
LINE
5
FEE0
330
FD28
100
AcDbEntity
100
AcDbLine
8
EKP_PANEL_ANTEN
10
7000
20
-72.8319984622144
30
-72.83199846221439
11
6650
21
187.38329701443507
31
-307.59144981614816
0
LINE
5
FEE1
330
FD28
100
AcDbEntity
100
AcDbLine
8
EKP_PANEL_ANTEN
10
7000
20
-72.8319984622144
30
-72.83199846221439
11
7350
21
187.38329701443507
31
-307.59144981614816
0
LINE
5
FEE2
330
FD28
100
AcDbEntity
100
AcDbLine
8
EKP_PANEL_ANTEN
10
7000
20
-72.8319984622144
30
-72.83199846221439
11
7350
21
-307.59144981614816
31
187.3832970144351
0
LINE
5
FEE3
330
FD28
100
AcDbEntity
100
AcDbLine
8
EKP_PANEL_ANTEN
10
7000
20
-72.8319984622144
30
-72.83199846221439
11
6650
21
-307.59144981614816
31
187.3832970144351
0
3DFACE
5
FF38
330
FD28
100
AcDbEntity
100
AcDbFace
8
EKP_PANEL_ANTEN
10
7465.905110973063
20
289.3343654450895
30
-187.3832970144351
11
8123.689945523199
21
528.7484657730575
31
-187.3832970144351
12
8292.981279376781
22
63.624348700985266
32
307.59144981614816
13
7635.196444826645
23
-175.78975162698282
33
307.59144981614816
0
3DFACE
5
FF39
330
FD28
100
AcDbEntity
100
AcDbFace
8
EKP_PANEL_ANTEN
10
7507.0187206232185
20
176.37565129901475
30
-307.59144981614816
11
8164.803555173355
21
415.7897516269828
31
-307.59144981614816
12
8123.689945523199
22
528.7484657730575
32
-187.3832970144351
13
7465.905110973063
23
289.3343654450895
33
-187.3832970144351
0
3DFACE
5
FF3A
330
FD28
100
AcDbEntity
100
AcDbFace
8
EKP_PANEL_ANTEN
10
7676.310054476801
20
-288.74846577305755
30
187.3832970144351
11
8334.094889026937
21
-49.334365445089475
31
187.3832970144351
12
8292.981279376781
22
63.624348700985266
32
307.59144981614816
13
7635.196444826645
23
-175.78975162698282
33
307.59144981614816
0
3DFACE
5
FF3B
330
FD28
100
AcDbEntity
100
AcDbFace
8
EKP_PANEL_ANTEN
10
7507.0187206232185
20
176.37565129901475
30
-307.59144981614816
11
7676.310054476801
21
-288.74846577305755
31
187.3832970144351
12
7635.196444826645
22
-175.78975162698282
32
307.59144981614816
13
7465.905110973063
23
289.3343654450895
33
-187.3832970144351
0
3DFACE
5
FF3C
330
FD28
100
AcDbEntity
100
AcDbFace
8
EKP_PANEL_ANTEN
10
8164.803555173355
20
415.7897516269828
30
-307.59144981614816
11
8334.094889026937
21
-49.334365445089475
31
187.3832970144351
12
8292.981279376781
22
63.624348700985266
32
307.59144981614816
13
8123.689945523199
23
528.7484657730575
33
-187.3832970144351
0
3DFACE
5
FF3D
330
FD28
100
AcDbEntity
100
AcDbFace
8
EKP_PANEL_ANTEN
10
7924.910010552741
20
51.560308487966495
30
-72.83199846221439
11
7676.310054476801
21
-288.74846577305755
31
187.3832970144351
12
8334.094889026937
22
-49.334365445089475
32
187.3832970144351
13
8334.094889026937
23
-49.334365445089475
33
187.3832970144351
0
3DFACE
5
FF3E
330
FD28
100
AcDbEntity
100
AcDbFace
8
EKP_PANEL_ANTEN
10
7924.910010552741
20
51.560308487966495
30
-72.83199846221439
11
8334.094889026937
21
-49.334365445089475
31
187.3832970144351
12
8164.803555173355
22
415.7897516269828
32
-307.59144981614816
13
8164.803555173355
23
415.7897516269828
33
-307.59144981614816
0
3DFACE
5
FF3F
330
FD28
100
AcDbEntity
100
AcDbFace
8
EKP_PANEL_ANTEN
10
7924.910010552741
20
51.560308487966495
30
-72.83199846221439
11
8164.803555173355
21
415.7897516269828
31
-307.59144981614816
12
7507.0187206232185
22
176.37565129901475
32
-307.59144981614816
13
7507.0187206232185
23
176.37565129901475
33
-307.59144981614816
0
3DFACE
5
FF40
330
FD28
100
AcDbEntity
100
AcDbFace
8
EKP_PANEL_ANTEN
10
7924.910010552741
20
51.560308487966495
30
-72.83199846221439
11
7507.0187206232185
21
176.37565129901475
31
-307.59144981614816
12
7676.310054476801
22
-288.74846577305755
32
187.3832970144351
13
7676.310054476801
23
-288.74846577305755
33
187.3832970144351
0
LINE
5
FF41
330
FD28
100
AcDbEntity
100
AcDbLine
8
EKP_PANEL_ANTEN
10
7924.910010552741
20
51.560308487966495
30
-72.83199846221439
11
7507.0187206232185
21
176.37565129901475
31
-307.59144981614816
0
LINE
5
FF42
330
FD28
100
AcDbEntity
100
AcDbLine
8
EKP_PANEL_ANTEN
10
7924.910010552741
20
51.560308487966495
30
-72.83199846221439
11
8164.803555173355
21
415.7897516269828
31
-307.59144981614816
0
LINE
5
FF43
330
FD28
100
AcDbEntity
100
AcDbLine
8
EKP_PANEL_ANTEN
10
7924.910010552741
20
51.560308487966495
30
-72.83199846221439
11
8334.094889026937
21
-49.334365445089475
31
187.3832970144351
0
LINE
5
FF44
330
FD28
100
AcDbEntity
100
AcDbLine
8
EKP_PANEL_ANTEN
10
7924.910010552741
20
51.560308487966495
30
-72.83199846221439
11
7676.310054476801
21
-288.74846577305755
31
187.3832970144351
0
3DFACE
5
FFDF
330
FD28
100
AcDbEntity
100
AcDbFace
8
EKP_PANEL_ANTEN
10
15650
20
307.59144981614816
30
462.61670298556487
11
16350
21
307.59144981614816
31
462.61670298556487
12
16350
22
-187.38329701443507
32
957.5914498161482
13
15650
23
-187.38329701443507
33
957.5914498161482
0
3DFACE
5
FFE0
330
FD28
100
AcDbEntity
100
AcDbFace
8
EKP_PANEL_ANTEN
10
15650
20
187.38329701443507
30
342.40855018385184
11
16350
21
187.38329701443507
31
342.40855018385184
12
16350
22
307.59144981614816
32
462.61670298556487
13
15650
23
307.59144981614816
33
462.61670298556487
0
3DFACE
5
FFE1
330
FD28
100
AcDbEntity
100
AcDbFace
8
EKP_PANEL_ANTEN
10
15650
20
-307.59144981614816
30
837.3832970144351
11
16350
21
-307.59144981614816
31
837.3832970144351
12
16350
22
-187.38329701443507
32
957.5914498161482
13
15650
23
-187.38329701443507
33
957.5914498161482
0
3DFACE
5
FFE2
330
FD28
100
AcDbEntity
100
AcDbFace
8
EKP_PANEL_ANTEN
10
15650
20
187.38329701443507
30
342.40855018385184
11
15650
21
-307.59144981614816
31
837.3832970144351
12
15650
22
-187.38329701443507
32
957.5914498161482
13
15650
23
307.59144981614816
33
462.61670298556487
0
3DFACE
5
FFE3
330
FD28
100
AcDbEntity
100
AcDbFace
8
EKP_PANEL_ANTEN
10
16350
20
187.38329701443507
30
342.40855018385184
11
16350
21
-307.59144981614816
31
837.3832970144351
12
16350
22
-187.38329701443507
32
957.5914498161482
13
16350
23
307.59144981614816
33
462.61670298556487
0
3DFACE
5
FFE4
330
FD28
100
AcDbEntity
100
AcDbFace
8
EKP_PANEL_ANTEN
10
16000
20
-72.8319984622144
30
577.1680015377856
11
15650
21
-307.59144981614816
31
837.3832970144351
12
16350
22
-307.59144981614816
32
837.3832970144351
13
16350
23
-307.59144981614816
33
837.3832970144351
0
3DFACE
5
FFE5
330
FD28
100
AcDbEntity
100
AcDbFace
8
EKP_PANEL_ANTEN
10
16000
20
-72.8319984622144
30
577.1680015377856
11
16350
21
-307.59144981614816
31
837.3832970144351
12
16350
22
187.38329701443507
32
342.40855018385184
13
16350
23
187.38329701443507
33
342.40855018385184
0
3DFACE
5
FFE6
330
FD28
100
AcDbEntity
100
AcDbFace
8
EKP_PANEL_ANTEN
10
16000
20
-72.8319984622144
30
577.1680015377856
11
16350
21
187.38329701443507
31
342.40855018385184
12
15650
22
187.38329701443507
32
342.40855018385184
13
15650
23
187.38329701443507
33
342.40855018385184
0
3DFACE
5
FFE7
330
FD28
100
AcDbEntity
100
AcDbFace
8
EKP_PANEL_ANTEN
10
16000
20
-72.8319984622144
30
577.1680015377856
11
15650
21
187.38329701443507
31
342.40855018385184
12
15650
22
-307.59144981614816
32
837.3832970144351
13
15650
23
-307.59144981614816
33
837.3832970144351
0
LINE
5
FFE8
330
FD28
100
AcDbEntity
100
AcDbLine
8
EKP_PANEL_ANTEN
10
16000
20
-72.8319984622144
30
577.1680015377856
11
15650
21
187.38329701443507
31
342.40855018385184
0
LINE
5
FFE9
330
FD28
100
AcDbEntity
100
AcDbLine
8
EKP_PANEL_ANTEN
10
16000
20
-72.8319984622144
30
577.1680015377856
11
16350
21
187.38329701443507
31
342.40855018385184
0
LINE
5
FFEA
330
FD28
100
AcDbEntity
100
AcDbLine
8
EKP_PANEL_ANTEN
10
16000
20
-72.8319984622144
30
577.1680015377856
11
16350
21
-307.59144981614816
31
837.3832970144351
0
LINE
5
FFEB
330
FD28
100
AcDbEntity
100
AcDbLine
8
EKP_PANEL_ANTEN
10
16000
20
-72.8319984622144
30
577.1680015377856
11
15650
21
-307.59144981614816
31
837.3832970144351
0
ENDSEC
0
SECTION
2
OBJECTS
0
DICTIONARY
5
FD16
330
0
100
AcDbDictionary
281
1
3
ACAD_GROUP
350
FD2C
0
DICTIONARY
5
FD2C
330
FD16
100
AcDbDictionary
281
1
0
ENDSEC
0
EOF