0
SECTION
2
HEADER
9
$HANDSEED
5
F4AC
9
$INSUNITS
70
4
9
$ACADVER
1
AC1021
9
$DWGCODEPAGE
3
UTF-8
0
ENDSEC
0
SECTION
2
CLASSES
0
ENDSEC
0
SECTION
2
TABLES
0
TABLE
2
LTYPE
5
F4AA
330
0
100
AcDbSymbolTable
70
5
0
LTYPE
5
F104
330
F4AA
100
AcDbSymbolTableRecord
100
AcDbLinetypeTableRecord
2
CONTINUOUS
3
______
70
0
72
65
73
0
40
0
0
LTYPE
5
F105
330
F4AA
100
AcDbSymbolTableRecord
100
AcDbLinetypeTableRecord
2
DASHED
3
_ _ _ 
70
0
72
65
73
2
40
10
49
5
74
0
49
-5
74
0
0
LTYPE
5
F106
330
F4AA
100
AcDbSymbolTableRecord
100
AcDbLinetypeTableRecord
2
DOTTED
3
. . . 
70
0
72
65
73
2
40
5
49
0
74
0
49
-5
74
0
0
LTYPE
5
F108
330
F4AA
100
AcDbSymbolTableRecord
100
AcDbLinetypeTableRecord
2
ByBlock
3

70
0
72
65
73
0
40
0
0
LTYPE
5
F109
330
F4AA
100
AcDbSymbolTableRecord
100
AcDbLinetypeTableRecord
2
ByLayer
3

70
0
72
65
73
0
40
0
0
ENDTAB
0
TABLE
2
LAYER
5
F4AB
330
0
100
AcDbSymbolTable
70
21
0
LAYER
5
F107
330
F4AB
100
AcDbSymbolTableRecord
100
AcDbLayerTableRecord
2
0
62
7
70
0
6
CONTINUOUS
390
1
0
LAYER
5
F11A
330
F4AB
100
AcDbSymbolTableRecord
100
AcDbLayerTableRecord
2
ZEMIN_PLATFORM
62
8
70
0
6
CONTINUOUS
390
1
0
LAYER
5
F11B
330
F4AB
100
AcDbSymbolTableRecord
100
AcDbLayerTableRecord
2
KORKULUK_KAPI
62
4
70
0
6
CONTINUOUS
390
1
0
LAYER
5
F11C
330
F4AB
100
AcDbSymbolTableRecord
100
AcDbLayerTableRecord
2
CELIK_KIRIS_KOLON
62
9
70
0
6
CONTINUOUS
390
1
0
LAYER
5
F11D
330
F4AB
100
AcDbSymbolTableRecord
100
AcDbLayerTableRecord
2
MONTAJ_BORULARI
62
2
70
0
6
CONTINUOUS
390
1
0
LAYER
5
F11E
330
F4AB
100
AcDbSymbolTableRecord
100
AcDbLayerTableRecord
2
KABLO_TAVALARI
62
6
70
0
6
CONTINUOUS
390
1
0
LAYER
5
F11F
330
F4AB
100
AcDbSymbolTableRecord
100
AcDbLayerTableRecord
2
YURUYUS_KORIDORU
62
3
70
0
6
DASHED
390
1
0
LAYER
5
F120
330
F4AB
100
AcDbSymbolTableRecord
100
AcDbLayerTableRecord
2
OLCULER
62
1
70
0
6
CONTINUOUS
390
1
0
LAYER
5
F121
330
F4AB
100
AcDbSymbolTableRecord
100
AcDbLayerTableRecord
2
METIN_BILGI
62
7
70
0
6
CONTINUOUS
390
1
0
LAYER
5
F122
330
F4AB
100
AcDbSymbolTableRecord
100
AcDbLayerTableRecord
2
EKP_TURKCELL_RRU
62
5
70
0
6
CONTINUOUS
390
1
0
LAYER
5
F123
330
F4AB
100
AcDbSymbolTableRecord
100
AcDbLayerTableRecord
2
EKP_VODAFONE_RRU
62
1
70
0
6
CONTINUOUS
390
1
0
LAYER
5
F124
330
F4AB
100
AcDbSymbolTableRecord
100
AcDbLayerTableRecord
2
EKP_TURK_TELEKOM_RRU
62
4
70
0
6
CONTINUOUS
390
1
0
LAYER
5
F125
330
F4AB
100
AcDbSymbolTableRecord
100
AcDbLayerTableRecord
2
EKP_POI_TASIYICI_SASE
62
30
70
0
6
CONTINUOUS
390
1
0
LAYER
5
F126
330
F4AB
100
AcDbSymbolTableRecord
100
AcDbLayerTableRecord
2
EKP_POI_MODULLERI
62
40
70
0
6
CONTINUOUS
390
1
0
LAYER
5
F127
330
F4AB
100
AcDbSymbolTableRecord
100
AcDbLayerTableRecord
2
EKP_RECTIFIER_ELTEK_20U
62
3
70
0
6
CONTINUOUS
390
1
0
LAYER
5
F128
330
F4AB
100
AcDbSymbolTableRecord
100
AcDbLayerTableRecord
2
EKP_RECTIFIER_MTS9304A
62
94
70
0
6
CONTINUOUS
390
1
0
LAYER
5
F129
330
F4AB
100
AcDbSymbolTableRecord
100
AcDbLayerTableRecord
2
BLOK_OZEL_PLATFORM
62
140
70
0
6
CONTINUOUS
390
1
0
LAYER
5
F12A
330
F4AB
100
AcDbSymbolTableRecord
100
AcDbLayerTableRecord
2
EKP_MATSING_ANTEN
62
2
70
0
6
CONTINUOUS
390
1
0
LAYER
5
F12B
330
F4AB
100
AcDbSymbolTableRecord
100
AcDbLayerTableRecord
2
EKP_PANEL_ANTEN
62
6
70
0
6
CONTINUOUS
390
1
0
LAYER
5
F12C
330
F4AB
100
AcDbSymbolTableRecord
100
AcDbLayerTableRecord
2
EKP_ANTEN_TASIYICI_KOL
62
141
70
0
6
CONTINUOUS
390
1
0
LAYER
5
F12D
330
F4AB
100
AcDbSymbolTableRecord
100
AcDbLayerTableRecord
2
EKP_DIGER_EKIPMANLAR
62
7
70
0
6
CONTINUOUS
390
1
0
ENDTAB
0
TABLE
2
VPORT
5
F10A
330
0
100
AcDbSymbolTable
70
1
0
VPORT
5
F110
330
F10A
100
AcDbSymbolTableRecord
100
AcDbViewportTableRecord
2
*ACTIVE
40
1000
70
0
0
ENDTAB
0
TABLE
2
STYLE
5
F10B
330
0
100
AcDbSymbolTable
70
3
0
STYLE
5
F111
330
F10B
100
AcDbSymbolTableRecord
100
AcDbTextStyleTableRecord
2
standard
70
0
40
0
41
1
50
0
71
0
42
1
3
calibrib.ttf
4

1001
ACAD
1000
Calibri
1071
33554466
0
STYLE
5
F112
330
F10B
100
AcDbSymbolTableRecord
100
AcDbTextStyleTableRecord
2
STANDARD
70
0
40
0
41
1
50
0
71
0
42
1
3
calibrib.ttf
4

1001
ACAD
1000
Calibri
1071
33554466
0
STYLE
5
F113
330
F10B
100
AcDbSymbolTableRecord
100
AcDbTextStyleTableRecord
2
CALIBRI_BOLD
70
0
40
0
41
1
50
0
71
0
42
1
3
calibrib.ttf
4

1001
ACAD
1000
Calibri
1071
33554466
0
ENDTAB
0
TABLE
2
VIEW
5
F10C
330
0
100
AcDbSymbolTable
70
0
0
ENDTAB
0
TABLE
2
UCS
5
F10D
330
0
100
AcDbSymbolTable
70
0
0
ENDTAB
0
TABLE
2
APPID
5
F10E
330
0
100
AcDbSymbolTable
70
1
0
APPID
5
F114
330
F10E
100
AcDbSymbolTableRecord
100
AcDbRegAppTableRecord
2
ACAD
70
0
0
ENDTAB
0
TABLE
2
DIMSTYLE
5
F10F
330
0
100
AcDbSymbolTable
100
AcDbDimStyleTable
70
0
71
1
0
ENDTAB
0
TABLE
2
BLOCK_RECORD
5
F4A7
330
0
100
AcDbSymbolTable
70
2
0
BLOCK_RECORD
5
F4A8
330
F4A7
100
AcDbSymbolTableRecord
100
AcDbBlockTableRecord
2
*Model_Space
70
0
280
0
281
1
0
BLOCK_RECORD
5
F4A9
330
F4A7
100
AcDbSymbolTableRecord
100
AcDbBlockTableRecord
2
*Paper_Space
70
0
280
0
281
1
0
ENDTAB
0
ENDSEC
0
SECTION
2
BLOCKS
0
BLOCK
5
F115
330
0
100
AcDbEntity
100
AcDbBlockBegin
2
*Model_Space
70
0
10
0
20
0
30
0
3
*Model_Space
1

0
ENDBLK
5
F116
330
0
100
AcDbEntity
100
AcDbBlockEnd
0
BLOCK
5
F117
330
0
100
AcDbEntity
100
AcDbBlockBegin
2
*Paper_Space
70
0
10
0
20
0
30
0
3
*Paper_Space
1

0
ENDBLK
5
F118
330
0
100
AcDbEntity
100
AcDbBlockEnd
0
ENDSEC
0
SECTION
2
ENTITIES
0
LWPOLYLINE
5
F43D
330
F115
100
AcDbEntity
100
AcDbPolyline
8
ZEMIN_PLATFORM
6
ByLayer
62
256
370
-1
90
4
70
1
10
4463.432273295425
20
1800
10
4463.432273295425
20
1840
10
5313.432273295425
20
1840
10
5313.432273295425
20
1800
0
LWPOLYLINE
5
F43E
330
F115
100
AcDbEntity
100
AcDbPolyline
8
ZEMIN_PLATFORM
6
ByLayer
62
256
370
-1
90
4
70
1
10
5293.432273295425
20
1840
10
5293.432273295425
20
1990
10
5313.432273295425
20
1990
10
5313.432273295425
20
1840
0
LWPOLYLINE
5
F43F
330
F115
100
AcDbEntity
100
AcDbPolyline
8
ZEMIN_PLATFORM
6
ByLayer
62
256
370
-1
90
4
70
1
10
4463.432273295425
20
1840
10
4463.432273295425
20
1990
10
4483.432273295425
20
1990
10
4483.432273295425
20
1840
0
LWPOLYLINE
5
F130
330
F115
100
AcDbEntity
100
AcDbPolyline
8
CELIK_KIRIS_KOLON
6
ByLayer
62
256
370
-1
90
4
70
1
10
-18356
20
16644
10
-18356
20
17356
10
-17644
20
17356
10
-17644
20
16644
0
LWPOLYLINE
5
F141
330
F115
100
AcDbEntity
100
AcDbPolyline
8
CELIK_KIRIS_KOLON
6
ByLayer
62
256
370
-1
90
4
70
1
10
-18370
20
16815
10
-18370
20
16865
10
-18350
20
16865
10
-18350
20
16815
0
LWPOLYLINE
5
F142
330
F115
100
AcDbEntity
100
AcDbPolyline
8
CELIK_KIRIS_KOLON
6
ByLayer
62
256
370
-1
90
4
70
1
10
-17650
20
16815
10
-17650
20
16865
10
-17630
20
16865
10
-17630
20
16815
0
CIRCLE
5
F143
330
F115
100
AcDbEntity
100
AcDbCircle
8
CELIK_KIRIS_KOLON
10
-18360
20
16840
30
0
40
5
0
CIRCLE
5
F144
330
F115
100
AcDbEntity
100
AcDbCircle
8
CELIK_KIRIS_KOLON
10
-17640
20
16840
30
0
40
5
0
LWPOLYLINE
5
F145
330
F115
100
AcDbEntity
100
AcDbPolyline
8
CELIK_KIRIS_KOLON
6
ByLayer
62
256
370
-1
90
4
70
1
10
-18370
20
17135
10
-18370
20
17185
10
-18350
20
17185
10
-18350
20
17135
0
LWPOLYLINE
5
F146
330
F115
100
AcDbEntity
100
AcDbPolyline
8
CELIK_KIRIS_KOLON
6
ByLayer
62
256
370
-1
90
4
70
1
10
-17650
20
17135
10
-17650
20
17185
10
-17630
20
17185
10
-17630
20
17135
0
CIRCLE
5
F147
330
F115
100
AcDbEntity
100
AcDbCircle
8
CELIK_KIRIS_KOLON
10
-18360
20
17160
30
0
40
5
0
CIRCLE
5
F148
330
F115
100
AcDbEntity
100
AcDbCircle
8
CELIK_KIRIS_KOLON
10
-17640
20
17160
30
0
40
5
0
LINE
5
F161
330
F115
100
AcDbEntity
100
AcDbLine
8
CELIK_KIRIS_KOLON
10
-11833.122799639976
20
17298.399061660723
30
0
11
-11827.465945390482
21
17292.742207411233
31
0
0
LINE
5
F162
330
F115
100
AcDbEntity
100
AcDbLine
8
CELIK_KIRIS_KOLON
10
-11833.122799639976
20
17298.399061660723
30
0
11
-12298.399061660723
21
16833.122799639972
31
0
0
LINE
5
F163
330
F115
100
AcDbEntity
100
AcDbLine
8
CELIK_KIRIS_KOLON
10
-12298.399061660723
20
16833.122799639972
30
0
11
-12292.74220741123
21
16827.465945390482
31
0
0
LINE
5
F175
330
F115
100
AcDbEntity
100
AcDbLine
8
CELIK_KIRIS_KOLON
10
-11904.894137930409
20
17226.627723370286
30
0
11
-11922.571807460072
21
17244.30539289995
31
0
0
LINE
5
F176
330
F115
100
AcDbEntity
100
AcDbLine
8
CELIK_KIRIS_KOLON
10
-11922.571807460072
20
17244.30539289995
30
0
11
-12244.305392899952
21
16922.571807460074
31
0
0
LINE
5
F177
330
F115
100
AcDbEntity
100
AcDbLine
8
CELIK_KIRIS_KOLON
10
-12244.305392899952
20
16922.571807460074
30
0
11
-12226.62772337029
21
16904.89413793041
31
0
0
LINE
5
F178
330
F115
100
AcDbEntity
100
AcDbLine
8
CELIK_KIRIS_KOLON
10
-12041.01219330882
20
17125.865007051205
30
0
11
-12260.922402257836
21
17260.922402257835
31
0
0
LINE
5
F179
330
F115
100
AcDbEntity
100
AcDbLine
8
CELIK_KIRIS_KOLON
10
-12125.865007051205
20
17041.01219330882
30
0
11
-12260.922402257836
21
17260.922402257835
31
0
0
CIRCLE
5
F17A
330
F115
100
AcDbEntity
100
AcDbCircle
8
CELIK_KIRIS_KOLON
10
-12260.922402257836
20
17260.922402257835
30
0
40
22
0
CIRCLE
5
F17B
330
F115
100
AcDbEntity
100
AcDbCircle
8
CELIK_KIRIS_KOLON
10
-12260.922402257836
20
17260.922402257835
30
0
40
45
0
TEXT
5
F17C
330
F115
100
AcDbEntity
100
AcDbText
8
CELIK_KIRIS_KOLON
10
-12290.922402257836
20
17295.922402257835
30
0
40
26
1
0-60° TILT MAFSALI
50
0
7
STANDARD
72
2
11
-12290.922402257836
21
17295.922402257835
31
0
100
AcDbText
73
2
0
CIRCLE
5
F180
330
F115
100
AcDbEntity
100
AcDbCircle
8
CELIK_KIRIS_KOLON
10
-12300.449671326163
20
17300.449671326165
30
0
40
48.1
0
LINE
5
F181
330
F115
100
AcDbEntity
100
AcDbLine
8
CELIK_KIRIS_KOLON
10
-12284.96403281818
20
17383.958982184296
30
0
11
-12383.958982184295
21
17284.964032818178
31
0
0
LWPOLYLINE
5
F182
330
F115
100
AcDbEntity
100
AcDbPolyline
8
CELIK_KIRIS_KOLON
6
ByLayer
62
256
370
-1
90
4
70
1
10
-12501.567726704574
20
17109.331615947754
10
-12501.567726704574
20
17219.331615947754
10
-12371.567726704574
20
17219.331615947754
10
-12371.567726704574
20
17109.331615947754
0
LWPOLYLINE
5
F183
330
F115
100
AcDbEntity
100
AcDbPolyline
8
CELIK_KIRIS_KOLON
6
ByLayer
62
256
370
-1
90
4
70
1
10
-12229.331615947753
20
17381.567726704576
10
-12229.331615947753
20
17491.567726704576
10
-12099.331615947753
20
17491.567726704576
10
-12099.331615947753
20
17381.567726704576
0
LWPOLYLINE
5
F186
330
F115
100
AcDbEntity
100
AcDbPolyline
8
CELIK_KIRIS_KOLON
6
ByLayer
62
256
370
-1
90
4
70
1
10
-12506.567726704574
20
19180
10
-12506.567726704574
20
19220
10
-12094.331615947753
20
19220
10
-12094.331615947753
20
19180
0
CIRCLE
5
F188
330
F115
100
AcDbEntity
100
AcDbCircle
8
CELIK_KIRIS_KOLON
10
-12300.449671326163
20
19360
30
0
40
155
0
LWPOLYLINE
5
F189
330
F115
100
AcDbEntity
100
AcDbPolyline
8
CELIK_KIRIS_KOLON
6
ByLayer
62
256
370
-1
90
4
70
1
10
-12490.449671326163
20
19335
10
-12490.449671326163
20
19385
10
-12455.449671326163
20
19385
10
-12455.449671326163
20
19335
0
LWPOLYLINE
5
F18A
330
F115
100
AcDbEntity
100
AcDbPolyline
8
CELIK_KIRIS_KOLON
6
ByLayer
62
256
370
-1
90
4
70
1
10
-12145.449671326163
20
19335
10
-12145.449671326163
20
19385
10
-12110.449671326163
20
19385
10
-12110.449671326163
20
19335
0
LINE
5
F18B
330
F115
100
AcDbEntity
100
AcDbLine
8
CELIK_KIRIS_KOLON
10
-12436.567726704574
20
17244.331615947754
30
0
11
-12300.449671326163
21
19220
31
0
0
LINE
5
F1A5
330
F115
100
AcDbEntity
100
AcDbLine
8
CELIK_KIRIS_KOLON
10
-6329
20
16907
30
0
11
-5671
21
16907
31
0
0
LWPOLYLINE
5
F1AA
330
F115
100
AcDbEntity
100
AcDbPolyline
8
CELIK_KIRIS_KOLON
6
ByLayer
62
256
370
-1
90
4
70
1
10
-6070
20
16890
10
-6070
20
16915
10
-5930
20
16915
10
-5930
20
16890
0
LINE
5
F1AB
330
F115
100
AcDbEntity
100
AcDbLine
8
CELIK_KIRIS_KOLON
10
-6055
20
16890
30
0
11
-6055
21
16639
31
0
0
LINE
5
F1AC
330
F115
100
AcDbEntity
100
AcDbLine
8
CELIK_KIRIS_KOLON
10
-5945
20
16890
30
0
11
-5945
21
16639
31
0
0
LINE
5
F1AD
330
F115
100
AcDbEntity
100
AcDbLine
8
CELIK_KIRIS_KOLON
10
-6070
20
16639
30
0
11
-5930
21
16639
31
0
0
LWPOLYLINE
5
F1AF
330
F115
100
AcDbEntity
100
AcDbPolyline
8
CELIK_KIRIS_KOLON
6
ByLayer
62
256
370
-1
90
4
70
1
10
-6070
20
16563.1
10
-6070
20
16587.1
10
-5930
20
16587.1
10
-5930
20
16563.1
0
CIRCLE
5
F1B0
330
F115
100
AcDbEntity
100
AcDbCircle
8
CELIK_KIRIS_KOLON
10
-6055
20
16575.1
30
0
40
6
0
CIRCLE
5
F1B1
330
F115
100
AcDbEntity
100
AcDbCircle
8
CELIK_KIRIS_KOLON
10
-5945
20
16575.1
30
0
40
6
0
LWPOLYLINE
5
F1C9
330
F115
100
AcDbEntity
100
AcDbPolyline
8
CELIK_KIRIS_KOLON
6
ByLayer
62
256
370
-1
90
4
70
1
10
7644
20
16644
10
7644
20
17356
10
8356
20
17356
10
8356
20
16644
0
LWPOLYLINE
5
F1DA
330
F115
100
AcDbEntity
100
AcDbPolyline
8
CELIK_KIRIS_KOLON
6
ByLayer
62
256
370
-1
90
4
70
1
10
7630
20
16815
10
7630
20
16865
10
7650
20
16865
10
7650
20
16815
0
LWPOLYLINE
5
F1DB
330
F115
100
AcDbEntity
100
AcDbPolyline
8
CELIK_KIRIS_KOLON
6
ByLayer
62
256
370
-1
90
4
70
1
10
8350
20
16815
10
8350
20
16865
10
8370
20
16865
10
8370
20
16815
0
CIRCLE
5
F1DC
330
F115
100
AcDbEntity
100
AcDbCircle
8
CELIK_KIRIS_KOLON
10
7640
20
16840
30
0
40
5
0
CIRCLE
5
F1DD
330
F115
100
AcDbEntity
100
AcDbCircle
8
CELIK_KIRIS_KOLON
10
8360
20
16840
30
0
40
5
0
LWPOLYLINE
5
F1DE
330
F115
100
AcDbEntity
100
AcDbPolyline
8
CELIK_KIRIS_KOLON
6
ByLayer
62
256
370
-1
90
4
70
1
10
7630
20
17135
10
7630
20
17185
10
7650
20
17185
10
7650
20
17135
0
LWPOLYLINE
5
F1DF
330
F115
100
AcDbEntity
100
AcDbPolyline
8
CELIK_KIRIS_KOLON
6
ByLayer
62
256
370
-1
90
4
70
1
10
8350
20
17135
10
8350
20
17185
10
8370
20
17185
10
8370
20
17135
0
CIRCLE
5
F1E0
330
F115
100
AcDbEntity
100
AcDbCircle
8
CELIK_KIRIS_KOLON
10
7640
20
17160
30
0
40
5
0
CIRCLE
5
F1E1
330
F115
100
AcDbEntity
100
AcDbCircle
8
CELIK_KIRIS_KOLON
10
8360
20
17160
30
0
40
5
0
LWPOLYLINE
5
F1F2
330
F115
100
AcDbEntity
100
AcDbPolyline
8
CELIK_KIRIS_KOLON
6
ByLayer
62
256
370
-1
90
4
70
1
10
8644
20
16644
10
8644
20
17356
10
9356
20
17356
10
9356
20
16644
0
LWPOLYLINE
5
F203
330
F115
100
AcDbEntity
100
AcDbPolyline
8
CELIK_KIRIS_KOLON
6
ByLayer
62
256
370
-1
90
4
70
1
10
8630
20
16815
10
8630
20
16865
10
8650
20
16865
10
8650
20
16815
0
LWPOLYLINE
5
F204
330
F115
100
AcDbEntity
100
AcDbPolyline
8
CELIK_KIRIS_KOLON
6
ByLayer
62
256
370
-1
90
4
70
1
10
9350
20
16815
10
9350
20
16865
10
9370
20
16865
10
9370
20
16815
0
CIRCLE
5
F205
330
F115
100
AcDbEntity
100
AcDbCircle
8
CELIK_KIRIS_KOLON
10
8640
20
16840
30
0
40
5
0
CIRCLE
5
F206
330
F115
100
AcDbEntity
100
AcDbCircle
8
CELIK_KIRIS_KOLON
10
9360
20
16840
30
0
40
5
0
LWPOLYLINE
5
F207
330
F115
100
AcDbEntity
100
AcDbPolyline
8
CELIK_KIRIS_KOLON
6
ByLayer
62
256
370
-1
90
4
70
1
10
8630
20
17135
10
8630
20
17185
10
8650
20
17185
10
8650
20
17135
0
LWPOLYLINE
5
F208
330
F115
100
AcDbEntity
100
AcDbPolyline
8
CELIK_KIRIS_KOLON
6
ByLayer
62
256
370
-1
90
4
70
1
10
9350
20
17135
10
9350
20
17185
10
9370
20
17185
10
9370
20
17135
0
CIRCLE
5
F209
330
F115
100
AcDbEntity
100
AcDbCircle
8
CELIK_KIRIS_KOLON
10
8640
20
17160
30
0
40
5
0
CIRCLE
5
F20A
330
F115
100
AcDbEntity
100
AcDbCircle
8
CELIK_KIRIS_KOLON
10
9360
20
17160
30
0
40
5
0
LWPOLYLINE
5
F219
330
F115
100
AcDbEntity
100
AcDbPolyline
8
CELIK_KIRIS_KOLON
6
ByLayer
62
256
370
-1
90
4
70
1
10
7500
20
17550
10
7500
20
17650
10
9500
20
17650
10
9500
20
17550
0
TEXT
5
F21A
330
F115
100
AcDbEntity
100
AcDbText
8
CELIK_KIRIS_KOLON
10
8500
20
17600
30
0
40
40
1
AGIR HIZMET CELIK TRAVERS (100x60x5mm, L=2000mm)
50
0
7
STANDARD
72
1
11
8500
21
17600
31
0
100
AcDbText
73
2
0
LINE
5
F239
330
F115
100
AcDbEntity
100
AcDbLine
8
CELIK_KIRIS_KOLON
10
16166.877200360024
20
17298.399061660723
30
0
11
16172.534054609518
21
17292.742207411233
31
0
0
LINE
5
F23A
330
F115
100
AcDbEntity
100
AcDbLine
8
CELIK_KIRIS_KOLON
10
16166.877200360024
20
17298.399061660723
30
0
11
15701.600938339277
21
16833.122799639972
31
0
0
LINE
5
F23B
330
F115
100
AcDbEntity
100
AcDbLine
8
CELIK_KIRIS_KOLON
10
15701.600938339277
20
16833.122799639972
30
0
11
15707.25779258877
21
16827.465945390482
31
0
0
LINE
5
F24D
330
F115
100
AcDbEntity
100
AcDbLine
8
CELIK_KIRIS_KOLON
10
16095.105862069591
20
17226.627723370286
30
0
11
16077.428192539928
21
17244.30539289995
31
0
0
LINE
5
F24E
330
F115
100
AcDbEntity
100
AcDbLine
8
CELIK_KIRIS_KOLON
10
16077.428192539928
20
17244.30539289995
30
0
11
15755.694607100048
21
16922.571807460074
31
0
0
LINE
5
F24F
330
F115
100
AcDbEntity
100
AcDbLine
8
CELIK_KIRIS_KOLON
10
15755.694607100048
20
16922.571807460074
30
0
11
15773.37227662971
21
16904.89413793041
31
0
0
LINE
5
F250
330
F115
100
AcDbEntity
100
AcDbLine
8
CELIK_KIRIS_KOLON
10
15958.98780669118
20
17125.865007051205
30
0
11
15739.077597742164
21
17260.922402257835
31
0
0
LINE
5
F251
330
F115
100
AcDbEntity
100
AcDbLine
8
CELIK_KIRIS_KOLON
10
15874.134992948795
20
17041.01219330882
30
0
11
15739.077597742164
21
17260.922402257835
31
0
0
CIRCLE
5
F252
330
F115
100
AcDbEntity
100
AcDbCircle
8
CELIK_KIRIS_KOLON
10
15739.077597742164
20
17260.922402257835
30
0
40
22
0
CIRCLE
5
F253
330
F115
100
AcDbEntity
100
AcDbCircle
8
CELIK_KIRIS_KOLON
10
15739.077597742164
20
17260.922402257835
30
0
40
45
0
TEXT
5
F254
330
F115
100
AcDbEntity
100
AcDbText
8
CELIK_KIRIS_KOLON
10
15709.077597742164
20
17295.922402257835
30
0
40
26
1
0-60° TILT MAFSALI
50
0
7
STANDARD
72
2
11
15709.077597742164
21
17295.922402257835
31
0
100
AcDbText
73
2
0
CIRCLE
5
F258
330
F115
100
AcDbEntity
100
AcDbCircle
8
CELIK_KIRIS_KOLON
10
15699.550328673837
20
17300.449671326165
30
0
40
48.1
0
LINE
5
F259
330
F115
100
AcDbEntity
100
AcDbLine
8
CELIK_KIRIS_KOLON
10
15715.03596718182
20
17383.958982184296
30
0
11
15616.041017815705
21
17284.964032818178
31
0
0
LWPOLYLINE
5
F25A
330
F115
100
AcDbEntity
100
AcDbPolyline
8
CELIK_KIRIS_KOLON
6
ByLayer
62
256
370
-1
90
4
70
1
10
15498.432273295426
20
17109.331615947754
10
15498.432273295426
20
17219.331615947754
10
15628.432273295426
20
17219.331615947754
10
15628.432273295426
20
17109.331615947754
0
LWPOLYLINE
5
F25B
330
F115
100
AcDbEntity
100
AcDbPolyline
8
CELIK_KIRIS_KOLON
6
ByLayer
62
256
370
-1
90
4
70
1
10
15770.668384052247
20
17381.567726704576
10
15770.668384052247
20
17491.567726704576
10
15900.668384052247
20
17491.567726704576
10
15900.668384052247
20
17381.567726704576
0
LWPOLYLINE
5
F25E
330
F115
100
AcDbEntity
100
AcDbPolyline
8
CELIK_KIRIS_KOLON
6
ByLayer
62
256
370
-1
90
4
70
1
10
15493.432273295426
20
19180
10
15493.432273295426
20
19220
10
15905.668384052247
20
19220
10
15905.668384052247
20
19180
0
CIRCLE
5
F260
330
F115
100
AcDbEntity
100
AcDbCircle
8
CELIK_KIRIS_KOLON
10
15699.550328673837
20
19360
30
0
40
155
0
LWPOLYLINE
5
F261
330
F115
100
AcDbEntity
100
AcDbPolyline
8
CELIK_KIRIS_KOLON
6
ByLayer
62
256
370
-1
90
4
70
1
10
15509.550328673837
20
19335
10
15509.550328673837
20
19385
10
15544.550328673837
20
19385
10
15544.550328673837
20
19335
0
LWPOLYLINE
5
F262
330
F115
100
AcDbEntity
100
AcDbPolyline
8
CELIK_KIRIS_KOLON
6
ByLayer
62
256
370
-1
90
4
70
1
10
15854.550328673837
20
19335
10
15854.550328673837
20
19385
10
15889.550328673837
20
19385
10
15889.550328673837
20
19335
0
LINE
5
F263
330
F115
100
AcDbEntity
100
AcDbLine
8
CELIK_KIRIS_KOLON
10
15563.432273295426
20
17244.331615947754
30
0
11
15699.550328673837
21
19220
31
0
0
LWPOLYLINE
5
F27B
330
F115
100
AcDbEntity
100
AcDbPolyline
8
CELIK_KIRIS_KOLON
6
ByLayer
62
256
370
-1
90
4
70
1
10
-8256
20
8144
10
-8256
20
8856
10
-7544
20
8856
10
-7544
20
8144
0
LWPOLYLINE
5
F28C
330
F115
100
AcDbEntity
100
AcDbPolyline
8
CELIK_KIRIS_KOLON
6
ByLayer
62
256
370
-1
90
4
70
1
10
-8270
20
8315
10
-8270
20
8365
10
-8250
20
8365
10
-8250
20
8315
0
LWPOLYLINE
5
F28D
330
F115
100
AcDbEntity
100
AcDbPolyline
8
CELIK_KIRIS_KOLON
6
ByLayer
62
256
370
-1
90
4
70
1
10
-7550
20
8315
10
-7550
20
8365
10
-7530
20
8365
10
-7530
20
8315
0
CIRCLE
5
F28E
330
F115
100
AcDbEntity
100
AcDbCircle
8
CELIK_KIRIS_KOLON
10
-8260
20
8340
30
0
40
5
0
CIRCLE
5
F28F
330
F115
100
AcDbEntity
100
AcDbCircle
8
CELIK_KIRIS_KOLON
10
-7540
20
8340
30
0
40
5
0
LWPOLYLINE
5
F290
330
F115
100
AcDbEntity
100
AcDbPolyline
8
CELIK_KIRIS_KOLON
6
ByLayer
62
256
370
-1
90
4
70
1
10
-8270
20
8635
10
-8270
20
8685
10
-8250
20
8685
10
-8250
20
8635
0
LWPOLYLINE
5
F291
330
F115
100
AcDbEntity
100
AcDbPolyline
8
CELIK_KIRIS_KOLON
6
ByLayer
62
256
370
-1
90
4
70
1
10
-7550
20
8635
10
-7550
20
8685
10
-7530
20
8685
10
-7530
20
8635
0
CIRCLE
5
F292
330
F115
100
AcDbEntity
100
AcDbCircle
8
CELIK_KIRIS_KOLON
10
-8260
20
8660
30
0
40
5
0
CIRCLE
5
F293
330
F115
100
AcDbEntity
100
AcDbCircle
8
CELIK_KIRIS_KOLON
10
-7540
20
8660
30
0
40
5
0
LWPOLYLINE
5
F2A4
330
F115
100
AcDbEntity
100
AcDbPolyline
8
CELIK_KIRIS_KOLON
6
ByLayer
62
256
370
-1
90
4
70
1
10
-7356
20
8144
10
-7356
20
8856
10
-6644
20
8856
10
-6644
20
8144
0
LWPOLYLINE
5
F2B5
330
F115
100
AcDbEntity
100
AcDbPolyline
8
CELIK_KIRIS_KOLON
6
ByLayer
62
256
370
-1
90
4
70
1
10
-7370
20
8315
10
-7370
20
8365
10
-7350
20
8365
10
-7350
20
8315
0
LWPOLYLINE
5
F2B6
330
F115
100
AcDbEntity
100
AcDbPolyline
8
CELIK_KIRIS_KOLON
6
ByLayer
62
256
370
-1
90
4
70
1
10
-6650
20
8315
10
-6650
20
8365
10
-6630
20
8365
10
-6630
20
8315
0
CIRCLE
5
F2B7
330
F115
100
AcDbEntity
100
AcDbCircle
8
CELIK_KIRIS_KOLON
10
-7360
20
8340
30
0
40
5
0
CIRCLE
5
F2B8
330
F115
100
AcDbEntity
100
AcDbCircle
8
CELIK_KIRIS_KOLON
10
-6640
20
8340
30
0
40
5
0
LWPOLYLINE
5
F2B9
330
F115
100
AcDbEntity
100
AcDbPolyline
8
CELIK_KIRIS_KOLON
6
ByLayer
62
256
370
-1
90
4
70
1
10
-7370
20
8635
10
-7370
20
8685
10
-7350
20
8685
10
-7350
20
8635
0
LWPOLYLINE
5
F2BA
330
F115
100
AcDbEntity
100
AcDbPolyline
8
CELIK_KIRIS_KOLON
6
ByLayer
62
256
370
-1
90
4
70
1
10
-6650
20
8635
10
-6650
20
8685
10
-6630
20
8685
10
-6630
20
8635
0
CIRCLE
5
F2BB
330
F115
100
AcDbEntity
100
AcDbCircle
8
CELIK_KIRIS_KOLON
10
-7360
20
8660
30
0
40
5
0
CIRCLE
5
F2BC
330
F115
100
AcDbEntity
100
AcDbCircle
8
CELIK_KIRIS_KOLON
10
-6640
20
8660
30
0
40
5
0
LWPOLYLINE
5
F2CD
330
F115
100
AcDbEntity
100
AcDbPolyline
8
CELIK_KIRIS_KOLON
6
ByLayer
62
256
370
-1
90
4
70
1
10
-6456
20
8144
10
-6456
20
8856
10
-5744
20
8856
10
-5744
20
8144
0
LWPOLYLINE
5
F2DE
330
F115
100
AcDbEntity
100
AcDbPolyline
8
CELIK_KIRIS_KOLON
6
ByLayer
62
256
370
-1
90
4
70
1
10
-6470
20
8315
10
-6470
20
8365
10
-6450
20
8365
10
-6450
20
8315
0
LWPOLYLINE
5
F2DF
330
F115
100
AcDbEntity
100
AcDbPolyline
8
CELIK_KIRIS_KOLON
6
ByLayer
62
256
370
-1
90
4
70
1
10
-5750
20
8315
10
-5750
20
8365
10
-5730
20
8365
10
-5730
20
8315
0
CIRCLE
5
F2E0
330
F115
100
AcDbEntity
100
AcDbCircle
8
CELIK_KIRIS_KOLON
10
-6460
20
8340
30
0
40
5
0
CIRCLE
5
F2E1
330
F115
100
AcDbEntity
100
AcDbCircle
8
CELIK_KIRIS_KOLON
10
-5740
20
8340
30
0
40
5
0
LWPOLYLINE
5
F2E2
330
F115
100
AcDbEntity
100
AcDbPolyline
8
CELIK_KIRIS_KOLON
6
ByLayer
62
256
370
-1
90
4
70
1
10
-6470
20
8635
10
-6470
20
8685
10
-6450
20
8685
10
-6450
20
8635
0
LWPOLYLINE
5
F2E3
330
F115
100
AcDbEntity
100
AcDbPolyline
8
CELIK_KIRIS_KOLON
6
ByLayer
62
256
370
-1
90
4
70
1
10
-5750
20
8635
10
-5750
20
8685
10
-5730
20
8685
10
-5730
20
8635
0
CIRCLE
5
F2E4
330
F115
100
AcDbEntity
100
AcDbCircle
8
CELIK_KIRIS_KOLON
10
-6460
20
8660
30
0
40
5
0
CIRCLE
5
F2E5
330
F115
100
AcDbEntity
100
AcDbCircle
8
CELIK_KIRIS_KOLON
10
-5740
20
8660
30
0
40
5
0
LWPOLYLINE
5
F2F4
330
F115
100
AcDbEntity
100
AcDbPolyline
8
CELIK_KIRIS_KOLON
6
ByLayer
62
256
370
-1
90
4
70
1
10
-8500
20
9050
10
-8500
20
9170
10
-5500
20
9170
10
-5500
20
9050
0
TEXT
5
F2F5
330
F115
100
AcDbEntity
100
AcDbText
8
CELIK_KIRIS_KOLON
10
-7000
20
9110
30
0
40
40
1
AGIR HIZMET 3'LU KAFES TRAVERS (120x80x6mm, L=3000mm)
50
0
7
STANDARD
72
1
11
-7000
21
9110
31
0
100
AcDbText
73
2
0
LINE
5
F2F6
330
F115
100
AcDbEntity
100
AcDbLine
8
CELIK_KIRIS_KOLON
10
-8400
20
9170
30
0
11
-7900
21
9850
31
0
0
LINE
5
F2F7
330
F115
100
AcDbEntity
100
AcDbLine
8
CELIK_KIRIS_KOLON
10
-5600
20
9170
30
0
11
-6100
21
9850
31
0
0
LINE
5
F310
330
F115
100
AcDbEntity
100
AcDbLine
8
CELIK_KIRIS_KOLON
10
2809.0332544321486
20
8725.133213421055
30
0
11
3427.3509989092768
21
8500.083959112764
31
0
0
LWPOLYLINE
5
F315
330
F115
100
AcDbEntity
100
AcDbPolyline
8
CELIK_KIRIS_KOLON
6
ByLayer
62
256
370
-1
90
4
70
1
10
3046.599300779163
20
8620.575221746347
10
3046.599300779163
20
8645.575221746347
10
3186.599300779163
20
8645.575221746347
10
3186.599300779163
20
8620.575221746347
0
LINE
5
F316
330
F115
100
AcDbEntity
100
AcDbLine
8
CELIK_KIRIS_KOLON
10
3060.6946900909516
20
8615.44491959646
30
0
11
2974.8476341162086
21
8379.5820717792
31
0
0
LINE
5
F317
330
F115
100
AcDbEntity
100
AcDbLine
8
CELIK_KIRIS_KOLON
10
3164.0608783774014
20
8577.822703830638
30
0
11
3078.2138224026585
21
8341.959856013376
31
0
0
LINE
5
F318
330
F115
100
AcDbEntity
100
AcDbLine
8
CELIK_KIRIS_KOLON
10
2960.75224480442
20
8384.712373929086
30
0
11
3092.309211714447
21
8336.82955386349
31
0
0
LWPOLYLINE
5
F31A
330
F115
100
AcDbEntity
100
AcDbPolyline
8
CELIK_KIRIS_KOLON
6
ByLayer
62
256
370
-1
90
4
70
1
10
2934.6756411009233
20
8288.724605428068
10
2934.6756411009233
20
8312.724605428068
10
3074.6756411009233
20
8312.724605428068
10
3074.6756411009233
20
8288.724605428068
0
CIRCLE
5
F31B
330
F115
100
AcDbEntity
100
AcDbCircle
8
CELIK_KIRIS_KOLON
10
2949.6756411009233
20
8300.724605428068
30
0
40
6
0
CIRCLE
5
F31C
330
F115
100
AcDbEntity
100
AcDbCircle
8
CELIK_KIRIS_KOLON
10
3059.6756411009233
20
8300.724605428068
30
0
40
6
0
LINE
5
F336
330
F115
100
AcDbEntity
100
AcDbLine
8
CELIK_KIRIS_KOLON
10
3671
20
8407
30
0
11
4329
21
8407
31
0
0
LWPOLYLINE
5
F33B
330
F115
100
AcDbEntity
100
AcDbPolyline
8
CELIK_KIRIS_KOLON
6
ByLayer
62
256
370
-1
90
4
70
1
10
3930
20
8390
10
3930
20
8415
10
4070
20
8415
10
4070
20
8390
0
LINE
5
F33C
330
F115
100
AcDbEntity
100
AcDbLine
8
CELIK_KIRIS_KOLON
10
3945
20
8390
30
0
11
3945
21
8139
31
0
0
LINE
5
F33D
330
F115
100
AcDbEntity
100
AcDbLine
8
CELIK_KIRIS_KOLON
10
4055
20
8390
30
0
11
4055
21
8139
31
0
0
LINE
5
F33E
330
F115
100
AcDbEntity
100
AcDbLine
8
CELIK_KIRIS_KOLON
10
3930
20
8139
30
0
11
4070
21
8139
31
0
0
LWPOLYLINE
5
F340
330
F115
100
AcDbEntity
100
AcDbPolyline
8
CELIK_KIRIS_KOLON
6
ByLayer
62
256
370
-1
90
4
70
1
10
3930
20
8063.1
10
3930
20
8087.1
10
4070
20
8087.1
10
4070
20
8063.1
0
CIRCLE
5
F341
330
F115
100
AcDbEntity
100
AcDbCircle
8
CELIK_KIRIS_KOLON
10
3945
20
8075.1
30
0
40
6
0
CIRCLE
5
F342
330
F115
100
AcDbEntity
100
AcDbCircle
8
CELIK_KIRIS_KOLON
10
4055
20
8075.1
30
0
40
6
0
LINE
5
F35C
330
F115
100
AcDbEntity
100
AcDbLine
8
CELIK_KIRIS_KOLON
10
4572.649001090723
20
8500.083959112764
30
0
11
5190.966745567851
21
8725.133213421055
31
0
0
LWPOLYLINE
5
F361
330
F115
100
AcDbEntity
100
AcDbPolyline
8
CELIK_KIRIS_KOLON
6
ByLayer
62
256
370
-1
90
4
70
1
10
4821.84373231081
20
8572.692401680752
10
4821.84373231081
20
8597.692401680752
10
4961.84373231081
20
8597.692401680752
10
4961.84373231081
20
8572.692401680752
0
LINE
5
F362
330
F115
100
AcDbEntity
100
AcDbLine
8
CELIK_KIRIS_KOLON
10
4835.939121622599
20
8577.822703830638
30
0
11
4921.786177597341
21
8341.959856013376
31
0
0
LINE
5
F363
330
F115
100
AcDbEntity
100
AcDbLine
8
CELIK_KIRIS_KOLON
10
4939.305309909049
20
8615.44491959646
30
0
11
5025.152365883791
21
8379.5820717792
31
0
0
LINE
5
F364
330
F115
100
AcDbEntity
100
AcDbLine
8
CELIK_KIRIS_KOLON
10
4907.690788285552
20
8336.82955386349
30
0
11
5039.24775519558
21
8384.712373929086
31
0
0
LWPOLYLINE
5
F366
330
F115
100
AcDbEntity
100
AcDbPolyline
8
CELIK_KIRIS_KOLON
6
ByLayer
62
256
370
-1
90
4
70
1
10
4925.324358899076
20
8288.724605428068
10
4925.324358899076
20
8312.724605428068
10
5065.324358899076
20
8312.724605428068
10
5065.324358899076
20
8288.724605428068
0
CIRCLE
5
F367
330
F115
100
AcDbEntity
100
AcDbCircle
8
CELIK_KIRIS_KOLON
10
4940.324358899076
20
8300.724605428068
30
0
40
6
0
CIRCLE
5
F368
330
F115
100
AcDbEntity
100
AcDbCircle
8
CELIK_KIRIS_KOLON
10
5050.324358899076
20
8300.724605428068
30
0
40
6
0
LINE
5
F388
330
F115
100
AcDbEntity
100
AcDbLine
8
CELIK_KIRIS_KOLON
10
-13833.122799639976
20
298.3990616607231
30
0
11
-13827.465945390482
21
292.74220741123065
31
0
0
LINE
5
F389
330
F115
100
AcDbEntity
100
AcDbLine
8
CELIK_KIRIS_KOLON
10
-13833.122799639976
20
298.3990616607231
30
0
11
-14298.399061660723
21
-166.87720036002523
31
0
0
LINE
5
F38A
330
F115
100
AcDbEntity
100
AcDbLine
8
CELIK_KIRIS_KOLON
10
-14298.399061660723
20
-166.87720036002523
30
0
11
-14292.74220741123
21
-172.5340546095176
31
0
0
LINE
5
F39C
330
F115
100
AcDbEntity
100
AcDbLine
8
CELIK_KIRIS_KOLON
10
-13904.894137930409
20
226.6277233702885
30
0
11
-13922.571807460072
21
244.30539289995218
31
0
0
LINE
5
F39D
330
F115
100
AcDbEntity
100
AcDbLine
8
CELIK_KIRIS_KOLON
10
-13922.571807460072
20
244.30539289995218
30
0
11
-14244.305392899952
21
-77.42819253992698
31
0
0
LINE
5
F39E
330
F115
100
AcDbEntity
100
AcDbLine
8
CELIK_KIRIS_KOLON
10
-14244.305392899952
20
-77.42819253992698
30
0
11
-14226.62772337029
21
-95.10586206959067
31
0
0
LINE
5
F39F
330
F115
100
AcDbEntity
100
AcDbLine
8
CELIK_KIRIS_KOLON
10
-14041.01219330882
20
125.86500705120545
30
0
11
-14260.922402257836
21
260.92240225783604
31
0
0
LINE
5
F3A0
330
F115
100
AcDbEntity
100
AcDbLine
8
CELIK_KIRIS_KOLON
10
-14125.865007051205
20
41.01219330881975
30
0
11
-14260.922402257836
21
260.92240225783604
31
0
0
CIRCLE
5
F3A1
330
F115
100
AcDbEntity
100
AcDbCircle
8
CELIK_KIRIS_KOLON
10
-14260.922402257836
20
260.92240225783604
30
0
40
22
0
CIRCLE
5
F3A2
330
F115
100
AcDbEntity
100
AcDbCircle
8
CELIK_KIRIS_KOLON
10
-14260.922402257836
20
260.92240225783604
30
0
40
45
0
TEXT
5
F3A3
330
F115
100
AcDbEntity
100
AcDbText
8
CELIK_KIRIS_KOLON
10
-14290.922402257836
20
295.92240225783604
30
0
40
26
1
0-60° TILT MAFSALI
50
0
7
STANDARD
72
2
11
-14290.922402257836
21
295.92240225783604
31
0
100
AcDbText
73
2
0
CIRCLE
5
F3A7
330
F115
100
AcDbEntity
100
AcDbCircle
8
CELIK_KIRIS_KOLON
10
-14300.449671326163
20
300.449671326164
30
0
40
48.1
0
LINE
5
F3A8
330
F115
100
AcDbEntity
100
AcDbLine
8
CELIK_KIRIS_KOLON
10
-14284.96403281818
20
383.9589821842953
30
0
11
-14383.958982184295
21
284.9640328181786
31
0
0
LWPOLYLINE
5
F3A9
330
F115
100
AcDbEntity
100
AcDbPolyline
8
CELIK_KIRIS_KOLON
6
ByLayer
62
256
370
-1
90
4
70
1
10
-14501.567726704574
20
109.33161594775356
10
-14501.567726704574
20
219.33161594775356
10
-14371.567726704574
20
219.33161594775356
10
-14371.567726704574
20
109.33161594775356
0
LWPOLYLINE
5
F3AA
330
F115
100
AcDbEntity
100
AcDbPolyline
8
CELIK_KIRIS_KOLON
6
ByLayer
62
256
370
-1
90
4
70
1
10
-14229.331615947753
20
381.5677267045744
10
-14229.331615947753
20
491.5677267045744
10
-14099.331615947753
20
491.5677267045744
10
-14099.331615947753
20
381.5677267045744
0
LWPOLYLINE
5
F3AD
330
F115
100
AcDbEntity
100
AcDbPolyline
8
CELIK_KIRIS_KOLON
6
ByLayer
62
256
370
-1
90
4
70
1
10
-14506.567726704574
20
2180
10
-14506.567726704574
20
2220
10
-14094.331615947753
20
2220
10
-14094.331615947753
20
2180
0
CIRCLE
5
F3AF
330
F115
100
AcDbEntity
100
AcDbCircle
8
CELIK_KIRIS_KOLON
10
-14300.449671326163
20
2360
30
0
40
155
0
LWPOLYLINE
5
F3B0
330
F115
100
AcDbEntity
100
AcDbPolyline
8
CELIK_KIRIS_KOLON
6
ByLayer
62
256
370
-1
90
4
70
1
10
-14490.449671326163
20
2335
10
-14490.449671326163
20
2385
10
-14455.449671326163
20
2385
10
-14455.449671326163
20
2335
0
LWPOLYLINE
5
F3B1
330
F115
100
AcDbEntity
100
AcDbPolyline
8
CELIK_KIRIS_KOLON
6
ByLayer
62
256
370
-1
90
4
70
1
10
-14145.449671326163
20
2335
10
-14145.449671326163
20
2385
10
-14110.449671326163
20
2385
10
-14110.449671326163
20
2335
0
LINE
5
F3B2
330
F115
100
AcDbEntity
100
AcDbLine
8
CELIK_KIRIS_KOLON
10
-14436.567726704574
20
244.33161594775356
30
0
11
-14300.449671326163
21
2220
31
0
0
LINE
5
F3D0
330
F115
100
AcDbEntity
100
AcDbLine
8
CELIK_KIRIS_KOLON
10
-3833.122799639975
20
298.3990616607231
30
0
11
-3827.4659453904824
21
292.74220741123065
31
0
0
LINE
5
F3D1
330
F115
100
AcDbEntity
100
AcDbLine
8
CELIK_KIRIS_KOLON
10
-3833.122799639975
20
298.3990616607231
30
0
11
-4298.399061660723
21
-166.87720036002523
31
0
0
LINE
5
F3D2
330
F115
100
AcDbEntity
100
AcDbLine
8
CELIK_KIRIS_KOLON
10
-4298.399061660723
20
-166.87720036002523
30
0
11
-4292.742207411231
21
-172.5340546095176
31
0
0
LINE
5
F3E4
330
F115
100
AcDbEntity
100
AcDbLine
8
CELIK_KIRIS_KOLON
10
-3904.8941379304097
20
226.6277233702885
30
0
11
-3922.571807460073
21
244.30539289995218
31
0
0
LINE
5
F3E5
330
F115
100
AcDbEntity
100
AcDbLine
8
CELIK_KIRIS_KOLON
10
-3922.571807460073
20
244.30539289995218
30
0
11
-4244.3053928999525
21
-77.42819253992698
31
0
0
LINE
5
F3E6
330
F115
100
AcDbEntity
100
AcDbLine
8
CELIK_KIRIS_KOLON
10
-4244.3053928999525
20
-77.42819253992698
30
0
11
-4226.627723370289
21
-95.10586206959067
31
0
0
LINE
5
F3E7
330
F115
100
AcDbEntity
100
AcDbLine
8
CELIK_KIRIS_KOLON
10
-4041.01219330882
20
125.86500705120545
30
0
11
-4260.922402257836
21
260.92240225783604
31
0
0
LINE
5
F3E8
330
F115
100
AcDbEntity
100
AcDbLine
8
CELIK_KIRIS_KOLON
10
-4125.865007051206
20
41.01219330881975
30
0
11
-4260.922402257836
21
260.92240225783604
31
0
0
CIRCLE
5
F3E9
330
F115
100
AcDbEntity
100
AcDbCircle
8
CELIK_KIRIS_KOLON
10
-4260.922402257836
20
260.92240225783604
30
0
40
22
0
CIRCLE
5
F3EA
330
F115
100
AcDbEntity
100
AcDbCircle
8
CELIK_KIRIS_KOLON
10
-4260.922402257836
20
260.92240225783604
30
0
40
45
0
TEXT
5
F3EB
330
F115
100
AcDbEntity
100
AcDbText
8
CELIK_KIRIS_KOLON
10
-4290.922402257836
20
295.92240225783604
30
0
40
26
1
0-60° TILT MAFSALI
50
0
7
STANDARD
72
2
11
-4290.922402257836
21
295.92240225783604
31
0
100
AcDbText
73
2
0
CIRCLE
5
F3EF
330
F115
100
AcDbEntity
100
AcDbCircle
8
CELIK_KIRIS_KOLON
10
-4300.449671326164
20
300.449671326164
30
0
40
48.1
0
LINE
5
F3F0
330
F115
100
AcDbEntity
100
AcDbLine
8
CELIK_KIRIS_KOLON
10
-4284.964032818179
20
383.9589821842953
30
0
11
-4383.958982184296
21
284.9640328181786
31
0
0
LWPOLYLINE
5
F3F1
330
F115
100
AcDbEntity
100
AcDbPolyline
8
CELIK_KIRIS_KOLON
6
ByLayer
62
256
370
-1
90
4
70
1
10
-4501.567726704575
20
109.33161594775356
10
-4501.567726704575
20
219.33161594775356
10
-4371.567726704575
20
219.33161594775356
10
-4371.567726704575
20
109.33161594775356
0
LWPOLYLINE
5
F3F2
330
F115
100
AcDbEntity
100
AcDbPolyline
8
CELIK_KIRIS_KOLON
6
ByLayer
62
256
370
-1
90
4
70
1
10
-4229.331615947754
20
381.5677267045744
10
-4229.331615947754
20
491.5677267045744
10
-4099.331615947754
20
491.5677267045744
10
-4099.331615947754
20
381.5677267045744
0
LWPOLYLINE
5
F3F5
330
F115
100
AcDbEntity
100
AcDbPolyline
8
CELIK_KIRIS_KOLON
6
ByLayer
62
256
370
-1
90
4
70
1
10
-4506.567726704575
20
2180
10
-4506.567726704575
20
2220
10
-4094.3316159477536
20
2220
10
-4094.3316159477536
20
2180
0
CIRCLE
5
F3F7
330
F115
100
AcDbEntity
100
AcDbCircle
8
CELIK_KIRIS_KOLON
10
-4556.567726704575
20
2950
30
0
40
795
0
LWPOLYLINE
5
F3F9
330
F115
100
AcDbEntity
100
AcDbPolyline
8
CELIK_KIRIS_KOLON
6
ByLayer
62
256
370
-1
90
4
70
1
10
-4436.567726704575
20
406.5677267045744
10
-4436.567726704575
20
466.5677267045744
10
-4104.331615947754
20
466.5677267045744
10
-4104.331615947754
20
406.5677267045744
0
LINE
5
F417
330
F115
100
AcDbEntity
100
AcDbLine
8
CELIK_KIRIS_KOLON
10
5666.877200360025
20
298.3990616607231
30
0
11
5672.534054609518
21
292.74220741123065
31
0
0
LINE
5
F418
330
F115
100
AcDbEntity
100
AcDbLine
8
CELIK_KIRIS_KOLON
10
5666.877200360025
20
298.3990616607231
30
0
11
5201.600938339277
21
-166.87720036002523
31
0
0
LINE
5
F419
330
F115
100
AcDbEntity
100
AcDbLine
8
CELIK_KIRIS_KOLON
10
5201.600938339277
20
-166.87720036002523
30
0
11
5207.257792588769
21
-172.5340546095176
31
0
0
LINE
5
F42B
330
F115
100
AcDbEntity
100
AcDbLine
8
CELIK_KIRIS_KOLON
10
5595.10586206959
20
226.6277233702885
30
0
11
5577.428192539926
21
244.30539289995218
31
0
0
LINE
5
F42C
330
F115
100
AcDbEntity
100
AcDbLine
8
CELIK_KIRIS_KOLON
10
5577.428192539926
20
244.30539289995218
30
0
11
5255.6946071000475
21
-77.42819253992698
31
0
0
LINE
5
F42D
330
F115
100
AcDbEntity
100
AcDbLine
8
CELIK_KIRIS_KOLON
10
5255.6946071000475
20
-77.42819253992698
30
0
11
5273.372276629711
21
-95.10586206959067
31
0
0
LINE
5
F42E
330
F115
100
AcDbEntity
100
AcDbLine
8
CELIK_KIRIS_KOLON
10
5458.98780669118
20
125.86500705120545
30
0
11
5239.077597742164
21
260.92240225783604
31
0
0
LINE
5
F42F
330
F115
100
AcDbEntity
100
AcDbLine
8
CELIK_KIRIS_KOLON
10
5374.134992948794
20
41.01219330881975
30
0
11
5239.077597742164
21
260.92240225783604
31
0
0
CIRCLE
5
F430
330
F115
100
AcDbEntity
100
AcDbCircle
8
CELIK_KIRIS_KOLON
10
5239.077597742164
20
260.92240225783604
30
0
40
22
0
CIRCLE
5
F431
330
F115
100
AcDbEntity
100
AcDbCircle
8
CELIK_KIRIS_KOLON
10
5239.077597742164
20
260.92240225783604
30
0
40
45
0
TEXT
5
F432
330
F115
100
AcDbEntity
100
AcDbText
8
CELIK_KIRIS_KOLON
10
5209.077597742164
20
295.92240225783604
30
0
40
26
1
0-60° TILT MAFSALI
50
0
7
STANDARD
72
2
11
5209.077597742164
21
295.92240225783604
31
0
100
AcDbText
73
2
0
CIRCLE
5
F436
330
F115
100
AcDbEntity
100
AcDbCircle
8
CELIK_KIRIS_KOLON
10
5199.550328673836
20
300.449671326164
30
0
40
48.1
0
LINE
5
F437
330
F115
100
AcDbEntity
100
AcDbLine
8
CELIK_KIRIS_KOLON
10
5215.035967181821
20
383.9589821842953
30
0
11
5116.041017815704
21
284.9640328181786
31
0
0
LWPOLYLINE
5
F438
330
F115
100
AcDbEntity
100
AcDbPolyline
8
CELIK_KIRIS_KOLON
6
ByLayer
62
256
370
-1
90
4
70
1
10
4998.432273295425
20
109.33161594775356
10
4998.432273295425
20
219.33161594775356
10
5128.432273295425
20
219.33161594775356
10
5128.432273295425
20
109.33161594775356
0
LWPOLYLINE
5
F439
330
F115
100
AcDbEntity
100
AcDbPolyline
8
CELIK_KIRIS_KOLON
6
ByLayer
62
256
370
-1
90
4
70
1
10
5270.668384052246
20
381.5677267045744
10
5270.668384052246
20
491.5677267045744
10
5400.668384052246
20
491.5677267045744
10
5400.668384052246
20
381.5677267045744
0
LWPOLYLINE
5
F43C
330
F115
100
AcDbEntity
100
AcDbPolyline
8
CELIK_KIRIS_KOLON
6
ByLayer
62
256
370
-1
90
4
70
1
10
4993.432273295425
20
2180
10
4993.432273295425
20
2220
10
5405.668384052246
20
2220
10
5405.668384052246
20
2180
0
LINE
5
F440
330
F115
100
AcDbEntity
100
AcDbLine
8
CELIK_KIRIS_KOLON
10
5303.432273295425
20
1840
30
0
11
5303.432273295425
21
2940
31
0
0
LINE
5
F441
330
F115
100
AcDbEntity
100
AcDbLine
8
CELIK_KIRIS_KOLON
10
4473.432273295425
20
1840
30
0
11
4473.432273295425
21
2940
31
0
0
LINE
5
F442
330
F115
100
AcDbEntity
100
AcDbLine
8
CELIK_KIRIS_KOLON
10
4473.432273295425
20
2940
30
0
11
5303.432273295425
21
2940
31
0
0
LINE
5
F443
330
F115
100
AcDbEntity
100
AcDbLine
8
CELIK_KIRIS_KOLON
10
4473.432273295425
20
2390
30
0
11
5303.432273295425
21
2390
31
0
0
LWPOLYLINE
5
F12E
330
F115
100
AcDbEntity
100
AcDbPolyline
8
MONTAJ_BORULARI
6
ByLayer
62
256
370
-1
90
4
70
1
10
-18038.1
20
16525
10
-18038.1
20
17475
10
-17961.899999999998
20
17475
10
-17961.899999999998
20
16525
0
LINE
5
F12F
330
F115
100
AcDbEntity
100
AcDbLine
8
MONTAJ_BORULARI
10
-18000
20
16445
30
0
11
-18000
21
17555
31
0
0
LINE
5
F17D
330
F115
100
AcDbEntity
100
AcDbLine
8
MONTAJ_BORULARI
10
-12015.839191898578
20
17585.06015075375
30
0
11
-12585.060150753749
21
17015.83919189858
31
0
0
LINE
5
F17E
330
F115
100
AcDbEntity
100
AcDbLine
8
MONTAJ_BORULARI
10
-12042.779960261787
20
17612.000919116956
30
0
11
-12612.000919116957
21
17042.779960261785
31
0
0
LINE
5
F17F
330
F115
100
AcDbEntity
100
AcDbLine
8
MONTAJ_BORULARI
10
-11988.898423535371
20
17558.11938239054
30
0
11
-12558.119382390541
21
16988.89842353537
31
0
0
LWPOLYLINE
5
F184
330
F115
100
AcDbEntity
100
AcDbPolyline
8
MONTAJ_BORULARI
6
ByLayer
62
256
370
-1
90
4
70
1
10
-12471.567726704574
20
17164.331615947754
10
-12471.567726704574
20
19200
10
-12401.567726704574
20
19200
10
-12401.567726704574
20
17164.331615947754
0
LWPOLYLINE
5
F185
330
F115
100
AcDbEntity
100
AcDbPolyline
8
MONTAJ_BORULARI
6
ByLayer
62
256
370
-1
90
4
70
1
10
-12199.331615947753
20
17436.567726704576
10
-12199.331615947753
20
19200
10
-12129.331615947753
20
19200
10
-12129.331615947753
20
17436.567726704576
0
CIRCLE
5
F187
330
F115
100
AcDbEntity
100
AcDbCircle
8
MONTAJ_BORULARI
10
-12300.449671326163
20
19360
30
0
40
140
0
CIRCLE
5
F1AE
330
F115
100
AcDbEntity
100
AcDbCircle
8
MONTAJ_BORULARI
10
-6000
20
16575.1
30
0
40
38.1
0
LWPOLYLINE
5
F1C7
330
F115
100
AcDbEntity
100
AcDbPolyline
8
MONTAJ_BORULARI
6
ByLayer
62
256
370
-1
90
4
70
1
10
7961.9
20
16525
10
7961.9
20
17475
10
8038.099999999999
20
17475
10
8038.099999999999
20
16525
0
LINE
5
F1C8
330
F115
100
AcDbEntity
100
AcDbLine
8
MONTAJ_BORULARI
10
8000
20
16445
30
0
11
8000
21
17555
31
0
0
LWPOLYLINE
5
F1F0
330
F115
100
AcDbEntity
100
AcDbPolyline
8
MONTAJ_BORULARI
6
ByLayer
62
256
370
-1
90
4
70
1
10
8961.9
20
16525
10
8961.9
20
17475
10
9038.1
20
17475
10
9038.1
20
16525
0
LINE
5
F1F1
330
F115
100
AcDbEntity
100
AcDbLine
8
MONTAJ_BORULARI
10
9000
20
16445
30
0
11
9000
21
17555
31
0
0
LINE
5
F255
330
F115
100
AcDbEntity
100
AcDbLine
8
MONTAJ_BORULARI
10
15984.160808101422
20
17585.06015075375
30
0
11
15414.939849246251
21
17015.83919189858
31
0
0
LINE
5
F256
330
F115
100
AcDbEntity
100
AcDbLine
8
MONTAJ_BORULARI
10
15957.220039738213
20
17612.000919116956
30
0
11
15387.999080883043
21
17042.779960261785
31
0
0
LINE
5
F257
330
F115
100
AcDbEntity
100
AcDbLine
8
MONTAJ_BORULARI
10
16011.101576464629
20
17558.11938239054
30
0
11
15441.880617609459
21
16988.89842353537
31
0
0
LWPOLYLINE
5
F25C
330
F115
100
AcDbEntity
100
AcDbPolyline
8
MONTAJ_BORULARI
6
ByLayer
62
256
370
-1
90
4
70
1
10
15528.432273295426
20
17164.331615947754
10
15528.432273295426
20
19200
10
15598.432273295426
20
19200
10
15598.432273295426
20
17164.331615947754
0
LWPOLYLINE
5
F25D
330
F115
100
AcDbEntity
100
AcDbPolyline
8
MONTAJ_BORULARI
6
ByLayer
62
256
370
-1
90
4
70
1
10
15800.668384052247
20
17436.567726704576
10
15800.668384052247
20
19200
10
15870.668384052247
20
19200
10
15870.668384052247
20
17436.567726704576
0
CIRCLE
5
F25F
330
F115
100
AcDbEntity
100
AcDbCircle
8
MONTAJ_BORULARI
10
15699.550328673837
20
19360
30
0
40
140
0
LWPOLYLINE
5
F279
330
F115
100
AcDbEntity
100
AcDbPolyline
8
MONTAJ_BORULARI
6
ByLayer
62
256
370
-1
90
4
70
1
10
-7938.1
20
8025
10
-7938.1
20
8975
10
-7861.900000000001
20
8975
10
-7861.900000000001
20
8025
0
LINE
5
F27A
330
F115
100
AcDbEntity
100
AcDbLine
8
MONTAJ_BORULARI
10
-7900
20
7945
30
0
11
-7900
21
9055
31
0
0
LWPOLYLINE
5
F2A2
330
F115
100
AcDbEntity
100
AcDbPolyline
8
MONTAJ_BORULARI
6
ByLayer
62
256
370
-1
90
4
70
1
10
-7038.1
20
8025
10
-7038.1
20
8975
10
-6961.900000000001
20
8975
10
-6961.900000000001
20
8025
0
LINE
5
F2A3
330
F115
100
AcDbEntity
100
AcDbLine
8
MONTAJ_BORULARI
10
-7000
20
7945
30
0
11
-7000
21
9055
31
0
0
LWPOLYLINE
5
F2CB
330
F115
100
AcDbEntity
100
AcDbPolyline
8
MONTAJ_BORULARI
6
ByLayer
62
256
370
-1
90
4
70
1
10
-6138.1
20
8025
10
-6138.1
20
8975
10
-6061.900000000001
20
8975
10
-6061.900000000001
20
8025
0
LINE
5
F2CC
330
F115
100
AcDbEntity
100
AcDbLine
8
MONTAJ_BORULARI
10
-6100
20
7945
30
0
11
-6100
21
9055
31
0
0
CIRCLE
5
F319
330
F115
100
AcDbEntity
100
AcDbCircle
8
MONTAJ_BORULARI
10
3004.6756411009233
20
8300.724605428068
30
0
40
38.1
0
CIRCLE
5
F33F
330
F115
100
AcDbEntity
100
AcDbCircle
8
MONTAJ_BORULARI
10
4000
20
8075.1
30
0
40
38.1
0
CIRCLE
5
F365
330
F115
100
AcDbEntity
100
AcDbCircle
8
MONTAJ_BORULARI
10
4995.324358899076
20
8300.724605428068
30
0
40
38.1
0
LINE
5
F3A4
330
F115
100
AcDbEntity
100
AcDbLine
8
MONTAJ_BORULARI
10
-14015.839191898578
20
585.0601507537493
30
0
11
-14585.060150753749
21
15.839191898578633
31
0
0
LINE
5
F3A5
330
F115
100
AcDbEntity
100
AcDbLine
8
MONTAJ_BORULARI
10
-14042.779960261787
20
612.0009191169568
30
0
11
-14612.000919116957
21
42.77996026178613
31
0
0
LINE
5
F3A6
330
F115
100
AcDbEntity
100
AcDbLine
8
MONTAJ_BORULARI
10
-13988.898423535371
20
558.1193823905419
30
0
11
-14558.119382390541
21
-11.101576464628806
31
0
0
LWPOLYLINE
5
F3AB
330
F115
100
AcDbEntity
100
AcDbPolyline
8
MONTAJ_BORULARI
6
ByLayer
62
256
370
-1
90
4
70
1
10
-14471.567726704574
20
164.33161594775356
10
-14471.567726704574
20
2200
10
-14401.567726704574
20
2200
10
-14401.567726704574
20
164.33161594775356
0
LWPOLYLINE
5
F3AC
330
F115
100
AcDbEntity
100
AcDbPolyline
8
MONTAJ_BORULARI
6
ByLayer
62
256
370
-1
90
4
70
1
10
-14199.331615947753
20
436.5677267045744
10
-14199.331615947753
20
2200
10
-14129.331615947753
20
2200
10
-14129.331615947753
20
436.5677267045744
0
CIRCLE
5
F3AE
330
F115
100
AcDbEntity
100
AcDbCircle
8
MONTAJ_BORULARI
10
-14300.449671326163
20
2360
30
0
40
140
0
LINE
5
F3EC
330
F115
100
AcDbEntity
100
AcDbLine
8
MONTAJ_BORULARI
10
-4015.839191898579
20
585.0601507537493
30
0
11
-4585.060150753749
21
15.839191898578633
31
0
0
LINE
5
F3ED
330
F115
100
AcDbEntity
100
AcDbLine
8
MONTAJ_BORULARI
10
-4042.779960261786
20
612.0009191169568
30
0
11
-4612.0009191169565
21
42.77996026178613
31
0
0
LINE
5
F3EE
330
F115
100
AcDbEntity
100
AcDbLine
8
MONTAJ_BORULARI
10
-3988.898423535371
20
558.1193823905419
30
0
11
-4558.119382390541
21
-11.101576464628806
31
0
0
LWPOLYLINE
5
F3F3
330
F115
100
AcDbEntity
100
AcDbPolyline
8
MONTAJ_BORULARI
6
ByLayer
62
256
370
-1
90
4
70
1
10
-4471.567726704575
20
164.33161594775356
10
-4471.567726704575
20
2200
10
-4401.567726704575
20
2200
10
-4401.567726704575
20
164.33161594775356
0
LWPOLYLINE
5
F3F4
330
F115
100
AcDbEntity
100
AcDbPolyline
8
MONTAJ_BORULARI
6
ByLayer
62
256
370
-1
90
4
70
1
10
-4199.331615947754
20
436.5677267045744
10
-4199.331615947754
20
2200
10
-4129.331615947754
20
2200
10
-4129.331615947754
20
436.5677267045744
0
CIRCLE
5
F3F6
330
F115
100
AcDbEntity
100
AcDbCircle
8
MONTAJ_BORULARI
10
-4556.567726704575
20
2950
30
0
40
750
0
LWPOLYLINE
5
F3F8
330
F115
100
AcDbEntity
100
AcDbPolyline
8
MONTAJ_BORULARI
6
ByLayer
62
256
370
-1
90
4
70
1
10
-4493.567726704575
20
104.33161594775356
10
-4493.567726704575
20
2200
10
-4379.567726704575
20
2200
10
-4379.567726704575
20
104.33161594775356
0
LINE
5
F433
330
F115
100
AcDbEntity
100
AcDbLine
8
MONTAJ_BORULARI
10
5484.160808101421
20
585.0601507537493
30
0
11
4914.939849246251
21
15.839191898578633
31
0
0
LINE
5
F434
330
F115
100
AcDbEntity
100
AcDbLine
8
MONTAJ_BORULARI
10
5457.220039738214
20
612.0009191169568
30
0
11
4887.9990808830435
21
42.77996026178613
31
0
0
LINE
5
F435
330
F115
100
AcDbEntity
100
AcDbLine
8
MONTAJ_BORULARI
10
5511.101576464629
20
558.1193823905419
30
0
11
4941.880617609459
21
-11.101576464628806
31
0
0
LWPOLYLINE
5
F43A
330
F115
100
AcDbEntity
100
AcDbPolyline
8
MONTAJ_BORULARI
6
ByLayer
62
256
370
-1
90
4
70
1
10
5028.432273295425
20
164.33161594775356
10
5028.432273295425
20
2200
10
5098.432273295425
20
2200
10
5098.432273295425
20
164.33161594775356
0
LWPOLYLINE
5
F43B
330
F115
100
AcDbEntity
100
AcDbPolyline
8
MONTAJ_BORULARI
6
ByLayer
62
256
370
-1
90
4
70
1
10
5300.668384052246
20
436.5677267045744
10
5300.668384052246
20
2200
10
5370.668384052246
20
2200
10
5370.668384052246
20
436.5677267045744
0
CIRCLE
5
F444
330
F115
100
AcDbEntity
100
AcDbCircle
8
MONTAJ_BORULARI
10
4713.432273295425
20
1520
30
0
40
228.5
0
CIRCLE
5
F445
330
F115
100
AcDbEntity
100
AcDbCircle
8
MONTAJ_BORULARI
10
4713.432273295425
20
1520
30
0
40
243.5
0
LWPOLYLINE
5
F446
330
F115
100
AcDbEntity
100
AcDbPolyline
8
MONTAJ_BORULARI
6
ByLayer
62
256
370
-1
90
4
70
1
10
5028.432273295425
20
164.33161594775356
10
5028.432273295425
20
1800
10
5098.432273295425
20
1800
10
5098.432273295425
20
164.33161594775356
0
LWPOLYLINE
5
F447
330
F115
100
AcDbEntity
100
AcDbPolyline
8
MONTAJ_BORULARI
6
ByLayer
62
256
370
-1
90
4
70
1
10
5300.668384052246
20
436.5677267045744
10
5300.668384052246
20
1800
10
5370.668384052246
20
1800
10
5370.668384052246
20
436.5677267045744
0
LINE
5
F164
330
F115
100
AcDbEntity
100
AcDbLine
8
KABLO_TAVALARI
10
-11977.37258300203
20
17154.149278298664
30
0
11
-11995.050252531693
21
17171.82694782833
31
0
0
CIRCLE
5
F165
330
F115
100
AcDbEntity
100
AcDbCircle
8
KABLO_TAVALARI
10
-11995.050252531693
20
17171.82694782833
30
0
40
8
0
LINE
5
F166
330
F115
100
AcDbEntity
100
AcDbLine
8
KABLO_TAVALARI
10
-11995.050252531693
20
17171.82694782833
30
0
11
-12035.050252531693
21
17111.82694782833
31
0
0
LINE
5
F167
330
F115
100
AcDbEntity
100
AcDbLine
8
KABLO_TAVALARI
10
-12035.050252531693
20
17111.82694782833
30
0
11
-12388.908729652601
21
17106.066017177985
31
0
0
LINE
5
F168
330
F115
100
AcDbEntity
100
AcDbLine
8
KABLO_TAVALARI
10
-12037.476659402888
20
17094.04520189781
30
0
11
-12055.154328932551
21
17111.722871427475
31
0
0
CIRCLE
5
F169
330
F115
100
AcDbEntity
100
AcDbCircle
8
KABLO_TAVALARI
10
-12055.154328932551
20
17111.722871427475
30
0
40
8
0
LINE
5
F16A
330
F115
100
AcDbEntity
100
AcDbLine
8
KABLO_TAVALARI
10
-12055.154328932551
20
17111.722871427475
30
0
11
-12095.154328932551
21
17051.722871427475
31
0
0
LINE
5
F16B
330
F115
100
AcDbEntity
100
AcDbLine
8
KABLO_TAVALARI
10
-12095.154328932551
20
17051.722871427475
30
0
11
-12388.908729652601
21
17141.066017177985
31
0
0
LINE
5
F16C
330
F115
100
AcDbEntity
100
AcDbLine
8
KABLO_TAVALARI
10
-12097.580735803744
20
17033.941125496953
30
0
11
-12115.258405333407
21
17051.618795026618
31
0
0
CIRCLE
5
F16D
330
F115
100
AcDbEntity
100
AcDbCircle
8
KABLO_TAVALARI
10
-12115.258405333407
20
17051.618795026618
30
0
40
8
0
LINE
5
F16E
330
F115
100
AcDbEntity
100
AcDbLine
8
KABLO_TAVALARI
10
-12115.258405333407
20
17051.618795026618
30
0
11
-12155.258405333407
21
16991.618795026618
31
0
0
LINE
5
F16F
330
F115
100
AcDbEntity
100
AcDbLine
8
KABLO_TAVALARI
10
-12155.258405333407
20
16991.618795026618
30
0
11
-12388.908729652601
21
17176.066017177985
31
0
0
LINE
5
F170
330
F115
100
AcDbEntity
100
AcDbLine
8
KABLO_TAVALARI
10
-12157.6848122046
20
16973.837049096095
30
0
11
-12175.362481734262
21
16991.51471862576
31
0
0
CIRCLE
5
F171
330
F115
100
AcDbEntity
100
AcDbCircle
8
KABLO_TAVALARI
10
-12175.362481734262
20
16991.51471862576
30
0
40
8
0
LINE
5
F172
330
F115
100
AcDbEntity
100
AcDbLine
8
KABLO_TAVALARI
10
-12175.362481734262
20
16991.51471862576
30
0
11
-12215.362481734262
21
16931.51471862576
31
0
0
LINE
5
F173
330
F115
100
AcDbEntity
100
AcDbLine
8
KABLO_TAVALARI
10
-12215.362481734262
20
16931.51471862576
30
0
11
-12388.908729652601
21
17211.066017177985
31
0
0
TEXT
5
F174
330
F115
100
AcDbEntity
100
AcDbText
8
KABLO_TAVALARI
10
-12243.951839509358
20
16989.3933982822
30
0
40
30
1
4x 4.3-10 RF PORT (R1, Y1, Y2, P1)
50
0
7
STANDARD
72
2
11
-12243.951839509358
21
16989.3933982822
31
0
100
AcDbText
73
2
0
CIRCLE
5
F1A6
330
F115
100
AcDbEntity
100
AcDbCircle
8
KABLO_TAVALARI
10
-5860
20
16899
30
0
40
8
0
CIRCLE
5
F1A7
330
F115
100
AcDbEntity
100
AcDbCircle
8
KABLO_TAVALARI
10
-5835
20
16899
30
0
40
8
0
CIRCLE
5
F1A8
330
F115
100
AcDbEntity
100
AcDbCircle
8
KABLO_TAVALARI
10
-5810
20
16899
30
0
40
8
0
CIRCLE
5
F1A9
330
F115
100
AcDbEntity
100
AcDbCircle
8
KABLO_TAVALARI
10
-5785
20
16899
30
0
40
8
0
LWPOLYLINE
5
F21B
330
F115
100
AcDbEntity
100
AcDbPolyline
8
KABLO_TAVALARI
6
ByLayer
62
256
370
-1
90
4
70
1
10
7500
20
17490
10
7500
20
17535
10
9500
20
17535
10
9500
20
17490
0
TEXT
5
F21C
330
F115
100
AcDbEntity
100
AcDbText
8
KABLO_TAVALARI
10
8500
20
17515
30
0
40
30
1
2x 4 = 8 ADET 1/2" FEEDER KABLO TAVASI (300x60mm)
50
0
7
STANDARD
72
1
11
8500
21
17515
31
0
100
AcDbText
73
2
0
LINE
5
F23C
330
F115
100
AcDbEntity
100
AcDbLine
8
KABLO_TAVALARI
10
16022.62741699797
20
17154.149278298664
30
0
11
16004.949747468307
21
17171.82694782833
31
0
0
CIRCLE
5
F23D
330
F115
100
AcDbEntity
100
AcDbCircle
8
KABLO_TAVALARI
10
16004.949747468307
20
17171.82694782833
30
0
40
8
0
LINE
5
F23E
330
F115
100
AcDbEntity
100
AcDbLine
8
KABLO_TAVALARI
10
16004.949747468307
20
17171.82694782833
30
0
11
15964.949747468307
21
17111.82694782833
31
0
0
LINE
5
F23F
330
F115
100
AcDbEntity
100
AcDbLine
8
KABLO_TAVALARI
10
15964.949747468307
20
17111.82694782833
30
0
11
15611.091270347399
21
17106.066017177985
31
0
0
LINE
5
F240
330
F115
100
AcDbEntity
100
AcDbLine
8
KABLO_TAVALARI
10
15962.523340597112
20
17094.04520189781
30
0
11
15944.845671067449
21
17111.722871427475
31
0
0
CIRCLE
5
F241
330
F115
100
AcDbEntity
100
AcDbCircle
8
KABLO_TAVALARI
10
15944.845671067449
20
17111.722871427475
30
0
40
8
0
LINE
5
F242
330
F115
100
AcDbEntity
100
AcDbLine
8
KABLO_TAVALARI
10
15944.845671067449
20
17111.722871427475
30
0
11
15904.845671067449
21
17051.722871427475
31
0
0
LINE
5
F243
330
F115
100
AcDbEntity
100
AcDbLine
8
KABLO_TAVALARI
10
15904.845671067449
20
17051.722871427475
30
0
11
15611.091270347399
21
17141.066017177985
31
0
0
LINE
5
F244
330
F115
100
AcDbEntity
100
AcDbLine
8
KABLO_TAVALARI
10
15902.419264196256
20
17033.941125496953
30
0
11
15884.741594666593
21
17051.618795026618
31
0
0
CIRCLE
5
F245
330
F115
100
AcDbEntity
100
AcDbCircle
8
KABLO_TAVALARI
10
15884.741594666593
20
17051.618795026618
30
0
40
8
0
LINE
5
F246
330
F115
100
AcDbEntity
100
AcDbLine
8
KABLO_TAVALARI
10
15884.741594666593
20
17051.618795026618
30
0
11
15844.741594666593
21
16991.618795026618
31
0
0
LINE
5
F247
330
F115
100
AcDbEntity
100
AcDbLine
8
KABLO_TAVALARI
10
15844.741594666593
20
16991.618795026618
30
0
11
15611.091270347399
21
17176.066017177985
31
0
0
LINE
5
F248
330
F115
100
AcDbEntity
100
AcDbLine
8
KABLO_TAVALARI
10
15842.3151877954
20
16973.837049096095
30
0
11
15824.637518265738
21
16991.51471862576
31
0
0
CIRCLE
5
F249
330
F115
100
AcDbEntity
100
AcDbCircle
8
KABLO_TAVALARI
10
15824.637518265738
20
16991.51471862576
30
0
40
8
0
LINE
5
F24A
330
F115
100
AcDbEntity
100
AcDbLine
8
KABLO_TAVALARI
10
15824.637518265738
20
16991.51471862576
30
0
11
15784.637518265738
21
16931.51471862576
31
0
0
LINE
5
F24B
330
F115
100
AcDbEntity
100
AcDbLine
8
KABLO_TAVALARI
10
15784.637518265738
20
16931.51471862576
30
0
11
15611.091270347399
21
17211.066017177985
31
0
0
TEXT
5
F24C
330
F115
100
AcDbEntity
100
AcDbText
8
KABLO_TAVALARI
10
15756.048160490642
20
16989.3933982822
30
0
40
30
1
4x 4.3-10 RF PORT (R1, Y1, Y2, P1)
50
0
7
STANDARD
72
2
11
15756.048160490642
21
16989.3933982822
31
0
100
AcDbText
73
2
0
CIRCLE
5
F311
330
F115
100
AcDbEntity
100
AcDbCircle
8
KABLO_TAVALARI
10
3247.0129324341347
20
8557.20822523503
30
0
40
8
0
CIRCLE
5
F312
330
F115
100
AcDbEntity
100
AcDbCircle
8
KABLO_TAVALARI
10
3270.505247953782
20
8548.657721651889
30
0
40
8
0
CIRCLE
5
F313
330
F115
100
AcDbEntity
100
AcDbCircle
8
KABLO_TAVALARI
10
3293.99756347343
20
8540.107218068746
30
0
40
8
0
CIRCLE
5
F314
330
F115
100
AcDbEntity
100
AcDbCircle
8
KABLO_TAVALARI
10
3317.4898789930776
20
8531.556714485605
30
0
40
8
0
CIRCLE
5
F337
330
F115
100
AcDbEntity
100
AcDbCircle
8
KABLO_TAVALARI
10
4140
20
8399
30
0
40
8
0
CIRCLE
5
F338
330
F115
100
AcDbEntity
100
AcDbCircle
8
KABLO_TAVALARI
10
4165
20
8399
30
0
40
8
0
CIRCLE
5
F339
330
F115
100
AcDbEntity
100
AcDbCircle
8
KABLO_TAVALARI
10
4190
20
8399
30
0
40
8
0
CIRCLE
5
F33A
330
F115
100
AcDbEntity
100
AcDbCircle
8
KABLO_TAVALARI
10
4215
20
8399
30
0
40
8
0
CIRCLE
5
F35D
330
F115
100
AcDbEntity
100
AcDbCircle
8
KABLO_TAVALARI
10
5016.1010013859195
20
8652.973865366217
30
0
40
8
0
CIRCLE
5
F35E
330
F115
100
AcDbEntity
100
AcDbCircle
8
KABLO_TAVALARI
10
5039.593316905568
20
8661.524368949358
30
0
40
8
0
CIRCLE
5
F35F
330
F115
100
AcDbEntity
100
AcDbCircle
8
KABLO_TAVALARI
10
5063.085632425215
20
8670.074872532501
30
0
40
8
0
CIRCLE
5
F360
330
F115
100
AcDbEntity
100
AcDbCircle
8
KABLO_TAVALARI
10
5086.577947944863
20
8678.625376115642
30
0
40
8
0
LINE
5
F38B
330
F115
100
AcDbEntity
100
AcDbLine
8
KABLO_TAVALARI
10
-13977.37258300203
20
154.14927829866735
30
0
11
-13995.050252531693
21
171.82694782833104
31
0
0
CIRCLE
5
F38C
330
F115
100
AcDbEntity
100
AcDbCircle
8
KABLO_TAVALARI
10
-13995.050252531693
20
171.82694782833104
30
0
40
8
0
LINE
5
F38D
330
F115
100
AcDbEntity
100
AcDbLine
8
KABLO_TAVALARI
10
-13995.050252531693
20
171.82694782833104
30
0
11
-14035.050252531693
21
111.82694782833104
31
0
0
LINE
5
F38E
330
F115
100
AcDbEntity
100
AcDbLine
8
KABLO_TAVALARI
10
-14035.050252531693
20
111.82694782833104
30
0
11
-14388.908729652601
21
106.0660171779821
31
0
0
LINE
5
F38F
330
F115
100
AcDbEntity
100
AcDbLine
8
KABLO_TAVALARI
10
-14037.476659402888
20
94.04520189781081
30
0
11
-14055.154328932551
21
111.7228714274745
31
0
0
CIRCLE
5
F390
330
F115
100
AcDbEntity
100
AcDbCircle
8
KABLO_TAVALARI
10
-14055.154328932551
20
111.7228714274745
30
0
40
8
0
LINE
5
F391
330
F115
100
AcDbEntity
100
AcDbLine
8
KABLO_TAVALARI
10
-14055.154328932551
20
111.7228714274745
30
0
11
-14095.154328932551
21
51.7228714274745
31
0
0
LINE
5
F392
330
F115
100
AcDbEntity
100
AcDbLine
8
KABLO_TAVALARI
10
-14095.154328932551
20
51.7228714274745
30
0
11
-14388.908729652601
21
141.0660171779821
31
0
0
LINE
5
F393
330
F115
100
AcDbEntity
100
AcDbLine
8
KABLO_TAVALARI
10
-14097.580735803744
20
33.94112549695427
30
0
11
-14115.258405333407
21
51.61879502661796
31
0
0
CIRCLE
5
F394
330
F115
100
AcDbEntity
100
AcDbCircle
8
KABLO_TAVALARI
10
-14115.258405333407
20
51.61879502661796
30
0
40
8
0
LINE
5
F395
330
F115
100
AcDbEntity
100
AcDbLine
8
KABLO_TAVALARI
10
-14115.258405333407
20
51.61879502661796
30
0
11
-14155.258405333407
21
-8.38120497338204
31
0
0
LINE
5
F396
330
F115
100
AcDbEntity
100
AcDbLine
8
KABLO_TAVALARI
10
-14155.258405333407
20
-8.38120497338204
30
0
11
-14388.908729652601
21
176.0660171779821
31
0
0
LINE
5
F397
330
F115
100
AcDbEntity
100
AcDbLine
8
KABLO_TAVALARI
10
-14157.6848122046
20
-26.16295090390227
30
0
11
-14175.362481734262
21
-8.485281374238582
31
0
0
CIRCLE
5
F398
330
F115
100
AcDbEntity
100
AcDbCircle
8
KABLO_TAVALARI
10
-14175.362481734262
20
-8.485281374238582
30
0
40
8
0
LINE
5
F399
330
F115
100
AcDbEntity
100
AcDbLine
8
KABLO_TAVALARI
10
-14175.362481734262
20
-8.485281374238582
30
0
11
-14215.362481734262
21
-68.48528137423858
31
0
0
LINE
5
F39A
330
F115
100
AcDbEntity
100
AcDbLine
8
KABLO_TAVALARI
10
-14215.362481734262
20
-68.48528137423858
30
0
11
-14388.908729652601
21
211.0660171779821
31
0
0
TEXT
5
F39B
330
F115
100
AcDbEntity
100
AcDbText
8
KABLO_TAVALARI
10
-14243.951839509358
20
-10.606601717798227
30
0
40
30
1
4x 4.3-10 RF PORT (R1, Y1, Y2, P1)
50
0
7
STANDARD
72
2
11
-14243.951839509358
21
-10.606601717798227
31
0
100
AcDbText
73
2
0
LINE
5
F3D3
330
F115
100
AcDbEntity
100
AcDbLine
8
KABLO_TAVALARI
10
-3977.3725830020308
20
154.14927829866735
30
0
11
-3995.0502525316942
21
171.82694782833104
31
0
0
CIRCLE
5
F3D4
330
F115
100
AcDbEntity
100
AcDbCircle
8
KABLO_TAVALARI
10
-3995.0502525316942
20
171.82694782833104
30
0
40
8
0
LINE
5
F3D5
330
F115
100
AcDbEntity
100
AcDbLine
8
KABLO_TAVALARI
10
-3995.0502525316942
20
171.82694782833104
30
0
11
-4035.0502525316942
21
111.82694782833104
31
0
0
LINE
5
F3D6
330
F115
100
AcDbEntity
100
AcDbLine
8
KABLO_TAVALARI
10
-4035.0502525316942
20
111.82694782833104
30
0
11
-4388.908729652601
21
106.0660171779821
31
0
0
LINE
5
F3D7
330
F115
100
AcDbEntity
100
AcDbLine
8
KABLO_TAVALARI
10
-4037.4766594028874
20
94.04520189781081
30
0
11
-4055.154328932551
21
111.7228714274745
31
0
0
CIRCLE
5
F3D8
330
F115
100
AcDbEntity
100
AcDbCircle
8
KABLO_TAVALARI
10
-4055.154328932551
20
111.7228714274745
30
0
40
8
0
LINE
5
F3D9
330
F115
100
AcDbEntity
100
AcDbLine
8
KABLO_TAVALARI
10
-4055.154328932551
20
111.7228714274745
30
0
11
-4095.154328932551
21
51.7228714274745
31
0
0
LINE
5
F3DA
330
F115
100
AcDbEntity
100
AcDbLine
8
KABLO_TAVALARI
10
-4095.154328932551
20
51.7228714274745
30
0
11
-4388.908729652601
21
141.0660171779821
31
0
0
LINE
5
F3DB
330
F115
100
AcDbEntity
100
AcDbLine
8
KABLO_TAVALARI
10
-4097.580735803744
20
33.94112549695427
30
0
11
-4115.258405333408
21
51.61879502661796
31
0
0
CIRCLE
5
F3DC
330
F115
100
AcDbEntity
100
AcDbCircle
8
KABLO_TAVALARI
10
-4115.258405333408
20
51.61879502661796
30
0
40
8
0
LINE
5
F3DD
330
F115
100
AcDbEntity
100
AcDbLine
8
KABLO_TAVALARI
10
-4115.258405333408
20
51.61879502661796
30
0
11
-4155.258405333408
21
-8.38120497338204
31
0
0
LINE
5
F3DE
330
F115
100
AcDbEntity
100
AcDbLine
8
KABLO_TAVALARI
10
-4155.258405333408
20
-8.38120497338204
30
0
11
-4388.908729652601
21
176.0660171779821
31
0
0
LINE
5
F3DF
330
F115
100
AcDbEntity
100
AcDbLine
8
KABLO_TAVALARI
10
-4157.6848122046
20
-26.16295090390227
30
0
11
-4175.362481734263
21
-8.485281374238582
31
0
0
CIRCLE
5
F3E0
330
F115
100
AcDbEntity
100
AcDbCircle
8
KABLO_TAVALARI
10
-4175.362481734263
20
-8.485281374238582
30
0
40
8
0
LINE
5
F3E1
330
F115
100
AcDbEntity
100
AcDbLine
8
KABLO_TAVALARI
10
-4175.362481734263
20
-8.485281374238582
30
0
11
-4215.362481734263
21
-68.48528137423858
31
0
0
LINE
5
F3E2
330
F115
100
AcDbEntity
100
AcDbLine
8
KABLO_TAVALARI
10
-4215.362481734263
20
-68.48528137423858
30
0
11
-4388.908729652601
21
211.0660171779821
31
0
0
TEXT
5
F3E3
330
F115
100
AcDbEntity
100
AcDbText
8
KABLO_TAVALARI
10
-4243.951839509358
20
-10.606601717798227
30
0
40
30
1
4x 4.3-10 RF PORT (R1, Y1, Y2, P1)
50
0
7
STANDARD
72
2
11
-4243.951839509358
21
-10.606601717798227
31
0
100
AcDbText
73
2
0
LINE
5
F41A
330
F115
100
AcDbEntity
100
AcDbLine
8
KABLO_TAVALARI
10
5522.62741699797
20
154.14927829866735
30
0
11
5504.949747468306
21
171.82694782833104
31
0
0
CIRCLE
5
F41B
330
F115
100
AcDbEntity
100
AcDbCircle
8
KABLO_TAVALARI
10
5504.949747468306
20
171.82694782833104
30
0
40
8
0
LINE
5
F41C
330
F115
100
AcDbEntity
100
AcDbLine
8
KABLO_TAVALARI
10
5504.949747468306
20
171.82694782833104
30
0
11
5464.949747468306
21
111.82694782833104
31
0
0
LINE
5
F41D
330
F115
100
AcDbEntity
100
AcDbLine
8
KABLO_TAVALARI
10
5464.949747468306
20
111.82694782833104
30
0
11
5111.091270347399
21
106.0660171779821
31
0
0
LINE
5
F41E
330
F115
100
AcDbEntity
100
AcDbLine
8
KABLO_TAVALARI
10
5462.523340597113
20
94.04520189781081
30
0
11
5444.845671067449
21
111.7228714274745
31
0
0
CIRCLE
5
F41F
330
F115
100
AcDbEntity
100
AcDbCircle
8
KABLO_TAVALARI
10
5444.845671067449
20
111.7228714274745
30
0
40
8
0
LINE
5
F420
330
F115
100
AcDbEntity
100
AcDbLine
8
KABLO_TAVALARI
10
5444.845671067449
20
111.7228714274745
30
0
11
5404.845671067449
21
51.7228714274745
31
0
0
LINE
5
F421
330
F115
100
AcDbEntity
100
AcDbLine
8
KABLO_TAVALARI
10
5404.845671067449
20
51.7228714274745
30
0
11
5111.091270347399
21
141.0660171779821
31
0
0
LINE
5
F422
330
F115
100
AcDbEntity
100
AcDbLine
8
KABLO_TAVALARI
10
5402.419264196256
20
33.94112549695427
30
0
11
5384.741594666592
21
51.61879502661796
31
0
0
CIRCLE
5
F423
330
F115
100
AcDbEntity
100
AcDbCircle
8
KABLO_TAVALARI
10
5384.741594666592
20
51.61879502661796
30
0
40
8
0
LINE
5
F424
330
F115
100
AcDbEntity
100
AcDbLine
8
KABLO_TAVALARI
10
5384.741594666592
20
51.61879502661796
30
0
11
5344.741594666592
21
-8.38120497338204
31
0
0
LINE
5
F425
330
F115
100
AcDbEntity
100
AcDbLine
8
KABLO_TAVALARI
10
5344.741594666592
20
-8.38120497338204
30
0
11
5111.091270347399
21
176.0660171779821
31
0
0
LINE
5
F426
330
F115
100
AcDbEntity
100
AcDbLine
8
KABLO_TAVALARI
10
5342.3151877954
20
-26.16295090390227
30
0
11
5324.637518265736
21
-8.485281374238582
31
0
0
CIRCLE
5
F427
330
F115
100
AcDbEntity
100
AcDbCircle
8
KABLO_TAVALARI
10
5324.637518265736
20
-8.485281374238582
30
0
40
8
0
LINE
5
F428
330
F115
100
AcDbEntity
100
AcDbLine
8
KABLO_TAVALARI
10
5324.637518265736
20
-8.485281374238582
30
0
11
5284.637518265736
21
-68.48528137423858
31
0
0
LINE
5
F429
330
F115
100
AcDbEntity
100
AcDbLine
8
KABLO_TAVALARI
10
5284.637518265736
20
-68.48528137423858
30
0
11
5111.091270347399
21
211.0660171779821
31
0
0
TEXT
5
F42A
330
F115
100
AcDbEntity
100
AcDbText
8
KABLO_TAVALARI
10
5256.048160490642
20
-10.606601717798227
30
0
40
30
1
4x 4.3-10 RF PORT (R1, Y1, Y2, P1)
50
0
7
STANDARD
72
2
11
5256.048160490642
21
-10.606601717798227
31
0
100
AcDbText
73
2
0
LINE
5
F149
330
F115
100
AcDbEntity
100
AcDbLine
8
OLCULER
10
-18350
20
16570
30
0
11
-18350
21
16410
31
0
0
LINE
5
F14A
330
F115
100
AcDbEntity
100
AcDbLine
8
OLCULER
10
-17650
20
16570
30
0
11
-17650
21
16410
31
0
0
LINE
5
F14B
330
F115
100
AcDbEntity
100
AcDbLine
8
OLCULER
10
-18350
20
16450
30
0
11
-17650
21
16450
31
0
0
LINE
5
F14C
330
F115
100
AcDbEntity
100
AcDbLine
8
OLCULER
10
-18378
20
16422
30
0
11
-18322
21
16478
31
0
0
LINE
5
F14D
330
F115
100
AcDbEntity
100
AcDbLine
8
OLCULER
10
-17678
20
16422
30
0
11
-17622
21
16478
31
0
0
TEXT
5
F14E
330
F115
100
AcDbEntity
100
AcDbText
8
OLCULER
10
-18000
20
16366
30
0
40
60
1
700 mm (GENISLIK)
50
0
7
STANDARD
72
1
11
-18000
21
16366
31
0
100
AcDbText
73
2
0
LINE
5
F14F
330
F115
100
AcDbEntity
100
AcDbLine
8
OLCULER
10
-17590
20
16650
30
0
11
-17430
21
16650
31
0
0
LINE
5
F150
330
F115
100
AcDbEntity
100
AcDbLine
8
OLCULER
10
-17590
20
17350
30
0
11
-17430
21
17350
31
0
0
LINE
5
F151
330
F115
100
AcDbEntity
100
AcDbLine
8
OLCULER
10
-17470
20
16650
30
0
11
-17470
21
17350
31
0
0
LINE
5
F152
330
F115
100
AcDbEntity
100
AcDbLine
8
OLCULER
10
-17498
20
16622
30
0
11
-17442
21
16678
31
0
0
LINE
5
F153
330
F115
100
AcDbEntity
100
AcDbLine
8
OLCULER
10
-17498
20
17322
30
0
11
-17442
21
17378
31
0
0
TEXT
5
F154
330
F115
100
AcDbEntity
100
AcDbText
8
OLCULER
10
-17428
20
17000
30
0
40
60
1
700 mm (YUKSEKLIK)
50
90
7
STANDARD
72
1
11
-17428
21
17000
31
0
100
AcDbText
73
2
0
LINE
5
F18F
330
F115
100
AcDbEntity
100
AcDbLine
8
OLCULER
10
-12000
20
17000
30
0
11
-11150
21
17000
31
0
0
LINE
5
F190
330
F115
100
AcDbEntity
100
AcDbLine
8
OLCULER
10
-12000
20
17000
30
0
11
-11398.959235991435
21
16398.959235991435
31
0
0
LINE
5
F191
330
F115
100
AcDbEntity
100
AcDbLine
8
OLCULER
10
-11398.959235991435
20
16398.959235991435
30
0
11
-11448.959235991435
21
16413.959235991435
31
0
0
LINE
5
F192
330
F115
100
AcDbEntity
100
AcDbLine
8
OLCULER
10
-11398.959235991435
20
16398.959235991435
30
0
11
-11413.959235991435
21
16448.959235991435
31
0
0
TEXT
5
F193
330
F115
100
AcDbEntity
100
AcDbText
8
OLCULER
10
-11580
20
16850
30
0
40
40
1
45° DOWNTILT (YERE VE SAHAYA EGIM)
50
0
7
STANDARD
72
0
11
-11580
21
16850
31
0
100
AcDbText
73
2
0
LINE
5
F194
330
F115
100
AcDbEntity
100
AcDbLine
8
OLCULER
10
-12316.076731190387
20
16812.616702985568
30
0
11
-12471.640223051429
21
16968.18019484661
31
0
0
LINE
5
F195
330
F115
100
AcDbEntity
100
AcDbLine
8
OLCULER
10
-11812.616702985564
20
17316.076731190387
30
0
11
-11968.180194846605
21
17471.64022305143
31
0
0
LINE
5
F196
330
F115
100
AcDbEntity
100
AcDbLine
8
OLCULER
10
-12471.640223051429
20
16968.18019484661
30
0
11
-11968.180194846605
21
17471.64022305143
31
0
0
TEXT
5
F197
330
F115
100
AcDbEntity
100
AcDbText
8
OLCULER
10
-12254.910208949017
20
17254.91020894902
30
0
40
40
1
700 mm (BOY)
50
45
7
STANDARD
72
1
11
-12254.910208949017
21
17254.91020894902
31
0
100
AcDbText
73
2
0
LINE
5
F198
330
F115
100
AcDbEntity
100
AcDbLine
8
OLCULER
10
-11827.465945390482
20
17292.742207411233
30
0
11
-11728.470996024365
21
17391.737156777348
31
0
0
LINE
5
F199
330
F115
100
AcDbEntity
100
AcDbLine
8
OLCULER
10
-11703.01515190165
20
17176.776695296638
30
0
11
-11604.020202535534
21
17275.771644662753
31
0
0
LINE
5
F19A
330
F115
100
AcDbEntity
100
AcDbLine
8
OLCULER
10
-11728.470996024365
20
17391.737156777348
30
0
11
-11604.020202535534
21
17275.771644662753
31
0
0
TEXT
5
F19B
330
F115
100
AcDbEntity
100
AcDbText
8
OLCULER
10
-11666.24559927995
20
17363.754400720052
30
0
40
36
1
170 mm (GOVDE)
50
-45
7
STANDARD
72
1
11
-11666.24559927995
21
17363.754400720052
31
0
100
AcDbText
73
2
0
TEXT
5
F19C
330
F115
100
AcDbEntity
100
AcDbText
8
OLCULER
10
-12300.449671326163
20
17180.449671326165
30
0
40
36
1
463 mm (TOPLAM MONTAJ DERINLIGI)
50
0
7
STANDARD
72
1
11
-12300.449671326163
21
17180.449671326165
31
0
100
AcDbText
73
2
0
LINE
5
F1B2
330
F115
100
AcDbEntity
100
AcDbLine
8
OLCULER
10
-6000
20
17085
30
0
11
-6000
21
18035
31
0
0
LINE
5
F1B3
330
F115
100
AcDbEntity
100
AcDbLine
8
OLCULER
10
-6000
20
17085
30
0
11
-6245.878092847394
21
18002.629534974614
31
0
0
LINE
5
F1B4
330
F115
100
AcDbEntity
100
AcDbLine
8
OLCULER
10
-6000
20
17085
30
0
11
-5754.121907152606
21
18002.629534974614
31
0
0
LINE
5
F1B5
330
F115
100
AcDbEntity
100
AcDbLine
8
OLCULER
10
-6245.878092847394
20
18002.629534974614
30
0
11
-6000
21
18035
31
0
0
LINE
5
F1B6
330
F115
100
AcDbEntity
100
AcDbLine
8
OLCULER
10
-6000
20
18035
30
0
11
-5754.121907152606
21
18002.629534974614
31
0
0
TEXT
5
F1B7
330
F115
100
AcDbEntity
100
AcDbText
8
OLCULER
10
-6000
20
18060
30
0
40
32
1
30° SPOT BEAM (HPBW)
50
0
7
STANDARD
72
1
11
-6000
21
18060
31
0
100
AcDbText
73
2
0
LINE
5
F1B8
330
F115
100
AcDbEntity
100
AcDbLine
8
OLCULER
10
-6350
20
17145
30
0
11
-6350
21
17285
31
0
0
LINE
5
F1B9
330
F115
100
AcDbEntity
100
AcDbLine
8
OLCULER
10
-5650
20
17145
30
0
11
-5650
21
17285
31
0
0
LINE
5
F1BA
330
F115
100
AcDbEntity
100
AcDbLine
8
OLCULER
10
-6350
20
17245
30
0
11
-5650
21
17245
31
0
0
LINE
5
F1BB
330
F115
100
AcDbEntity
100
AcDbLine
8
OLCULER
10
-6378
20
17217
30
0
11
-6322
21
17273
31
0
0
LINE
5
F1BC
330
F115
100
AcDbEntity
100
AcDbLine
8
OLCULER
10
-5678
20
17217
30
0
11
-5622
21
17273
31
0
0
TEXT
5
F1BD
330
F115
100
AcDbEntity
100
AcDbText
8
OLCULER
10
-6000
20
17269
30
0
40
60
1
700 mm (GENISLIK)
50
0
7
STANDARD
72
1
11
-6000
21
17269
31
0
100
AcDbText
73
2
0
LINE
5
F1BE
330
F115
100
AcDbEntity
100
AcDbLine
8
OLCULER
10
-6410
20
16915
30
0
11
-6410
21
16755
31
0
0
LINE
5
F1BF
330
F115
100
AcDbEntity
100
AcDbLine
8
OLCULER
10
-6060
20
17103
30
0
11
-6060
21
16755
31
0
0
LINE
5
F1C0
330
F115
100
AcDbEntity
100
AcDbLine
8
OLCULER
10
-6410
20
16795
30
0
11
-6060
21
16795
31
0
0
LINE
5
F1C1
330
F115
100
AcDbEntity
100
AcDbLine
8
OLCULER
10
-6438
20
16767
30
0
11
-6382
21
16823
31
0
0
LINE
5
F1C2
330
F115
100
AcDbEntity
100
AcDbLine
8
OLCULER
10
-6088
20
16767
30
0
11
-6032
21
16823
31
0
0
TEXT
5
F1C3
330
F115
100
AcDbEntity
100
AcDbText
8
OLCULER
10
-6235
20
16711
30
0
40
60
1
463 mm (TOPLAM DERINLIK)
50
0
7
STANDARD
72
1
11
-6235
21
16711
31
0
100
AcDbText
73
2
0
LINE
5
F1E2
330
F115
100
AcDbEntity
100
AcDbLine
8
OLCULER
10
7650
20
16570
30
0
11
7650
21
16410
31
0
0
LINE
5
F1E3
330
F115
100
AcDbEntity
100
AcDbLine
8
OLCULER
10
8350
20
16570
30
0
11
8350
21
16410
31
0
0
LINE
5
F1E4
330
F115
100
AcDbEntity
100
AcDbLine
8
OLCULER
10
7650
20
16450
30
0
11
8350
21
16450
31
0
0
LINE
5
F1E5
330
F115
100
AcDbEntity
100
AcDbLine
8
OLCULER
10
7622
20
16422
30
0
11
7678
21
16478
31
0
0
LINE
5
F1E6
330
F115
100
AcDbEntity
100
AcDbLine
8
OLCULER
10
8322
20
16422
30
0
11
8378
21
16478
31
0
0
TEXT
5
F1E7
330
F115
100
AcDbEntity
100
AcDbText
8
OLCULER
10
8000
20
16366
30
0
40
60
1
700 mm (GENISLIK)
50
0
7
STANDARD
72
1
11
8000
21
16366
31
0
100
AcDbText
73
2
0
LINE
5
F1E8
330
F115
100
AcDbEntity
100
AcDbLine
8
OLCULER
10
8410
20
16650
30
0
11
8570
21
16650
31
0
0
LINE
5
F1E9
330
F115
100
AcDbEntity
100
AcDbLine
8
OLCULER
10
8410
20
17350
30
0
11
8570
21
17350
31
0
0
LINE
5
F1EA
330
F115
100
AcDbEntity
100
AcDbLine
8
OLCULER
10
8530
20
16650
30
0
11
8530
21
17350
31
0
0
LINE
5
F1EB
330
F115
100
AcDbEntity
100
AcDbLine
8
OLCULER
10
8502
20
16622
30
0
11
8558
21
16678
31
0
0
LINE
5
F1EC
330
F115
100
AcDbEntity
100
AcDbLine
8
OLCULER
10
8502
20
17322
30
0
11
8558
21
17378
31
0
0
TEXT
5
F1ED
330
F115
100
AcDbEntity
100
AcDbText
8
OLCULER
10
8572
20
17000
30
0
40
60
1
700 mm (YUKSEKLIK)
50
90
7
STANDARD
72
1
11
8572
21
17000
31
0
100
AcDbText
73
2
0
LINE
5
F20B
330
F115
100
AcDbEntity
100
AcDbLine
8
OLCULER
10
8650
20
16570
30
0
11
8650
21
16410
31
0
0
LINE
5
F20C
330
F115
100
AcDbEntity
100
AcDbLine
8
OLCULER
10
9350
20
16570
30
0
11
9350
21
16410
31
0
0
LINE
5
F20D
330
F115
100
AcDbEntity
100
AcDbLine
8
OLCULER
10
8650
20
16450
30
0
11
9350
21
16450
31
0
0
LINE
5
F20E
330
F115
100
AcDbEntity
100
AcDbLine
8
OLCULER
10
8622
20
16422
30
0
11
8678
21
16478
31
0
0
LINE
5
F20F
330
F115
100
AcDbEntity
100
AcDbLine
8
OLCULER
10
9322
20
16422
30
0
11
9378
21
16478
31
0
0
TEXT
5
F210
330
F115
100
AcDbEntity
100
AcDbText
8
OLCULER
10
9000
20
16366
30
0
40
60
1
700 mm (GENISLIK)
50
0
7
STANDARD
72
1
11
9000
21
16366
31
0
100
AcDbText
73
2
0
LINE
5
F211
330
F115
100
AcDbEntity
100
AcDbLine
8
OLCULER
10
9410
20
16650
30
0
11
9570
21
16650
31
0
0
LINE
5
F212
330
F115
100
AcDbEntity
100
AcDbLine
8
OLCULER
10
9410
20
17350
30
0
11
9570
21
17350
31
0
0
LINE
5
F213
330
F115
100
AcDbEntity
100
AcDbLine
8
OLCULER
10
9530
20
16650
30
0
11
9530
21
17350
31
0
0
LINE
5
F214
330
F115
100
AcDbEntity
100
AcDbLine
8
OLCULER
10
9502
20
16622
30
0
11
9558
21
16678
31
0
0
LINE
5
F215
330
F115
100
AcDbEntity
100
AcDbLine
8
OLCULER
10
9502
20
17322
30
0
11
9558
21
17378
31
0
0
TEXT
5
F216
330
F115
100
AcDbEntity
100
AcDbText
8
OLCULER
10
9572
20
17000
30
0
40
60
1
700 mm (YUKSEKLIK)
50
90
7
STANDARD
72
1
11
9572
21
17000
31
0
100
AcDbText
73
2
0
LINE
5
F21D
330
F115
100
AcDbEntity
100
AcDbLine
8
OLCULER
10
8000
20
16400
30
0
11
8000
21
16160
31
0
0
LINE
5
F21E
330
F115
100
AcDbEntity
100
AcDbLine
8
OLCULER
10
9000
20
16400
30
0
11
9000
21
16160
31
0
0
LINE
5
F21F
330
F115
100
AcDbEntity
100
AcDbLine
8
OLCULER
10
8000
20
16200
30
0
11
9000
21
16200
31
0
0
LINE
5
F220
330
F115
100
AcDbEntity
100
AcDbLine
8
OLCULER
10
7972
20
16172
30
0
11
8028
21
16228
31
0
0
LINE
5
F221
330
F115
100
AcDbEntity
100
AcDbLine
8
OLCULER
10
8972
20
16172
30
0
11
9028
21
16228
31
0
0
TEXT
5
F222
330
F115
100
AcDbEntity
100
AcDbText
8
OLCULER
10
8500
20
16116
30
0
40
60
1
1000 mm (ANTEN AKS ARALIGI)
50
0
7
STANDARD
72
1
11
8500
21
16116
31
0
100
AcDbText
73
2
0
LINE
5
F223
330
F115
100
AcDbEntity
100
AcDbLine
8
OLCULER
10
8350
20
17700
30
0
11
8350
21
17920
31
0
0
LINE
5
F224
330
F115
100
AcDbEntity
100
AcDbLine
8
OLCULER
10
8650
20
17700
30
0
11
8650
21
17920
31
0
0
LINE
5
F225
330
F115
100
AcDbEntity
100
AcDbLine
8
OLCULER
10
8350
20
17880
30
0
11
8650
21
17880
31
0
0
LINE
5
F226
330
F115
100
AcDbEntity
100
AcDbLine
8
OLCULER
10
8322
20
17852
30
0
11
8378
21
17908
31
0
0
LINE
5
F227
330
F115
100
AcDbEntity
100
AcDbLine
8
OLCULER
10
8622
20
17852
30
0
11
8678
21
17908
31
0
0
TEXT
5
F228
330
F115
100
AcDbEntity
100
AcDbText
8
OLCULER
10
8500
20
17904
30
0
40
60
1
300 mm (NET RF ACIKLIGI)
50
0
7
STANDARD
72
1
11
8500
21
17904
31
0
100
AcDbText
73
2
0
LINE
5
F229
330
F115
100
AcDbEntity
100
AcDbLine
8
OLCULER
10
7500
20
17700
30
0
11
7500
21
17940
31
0
0
LINE
5
F22A
330
F115
100
AcDbEntity
100
AcDbLine
8
OLCULER
10
9500
20
17700
30
0
11
9500
21
17940
31
0
0
LINE
5
F22B
330
F115
100
AcDbEntity
100
AcDbLine
8
OLCULER
10
7500
20
17900
30
0
11
9500
21
17900
31
0
0
LINE
5
F22C
330
F115
100
AcDbEntity
100
AcDbLine
8
OLCULER
10
7472
20
17872
30
0
11
7528
21
17928
31
0
0
LINE
5
F22D
330
F115
100
AcDbEntity
100
AcDbLine
8
OLCULER
10
9472
20
17872
30
0
11
9528
21
17928
31
0
0
TEXT
5
F22E
330
F115
100
AcDbEntity
100
AcDbText
8
OLCULER
10
8500
20
17924
30
0
40
60
1
2000 mm (TRAVERS TOPLAM BOYU)
50
0
7
STANDARD
72
1
11
8500
21
17924
31
0
100
AcDbText
73
2
0
LINE
5
F267
330
F115
100
AcDbEntity
100
AcDbLine
8
OLCULER
10
16000
20
17000
30
0
11
16850
21
17000
31
0
0
LINE
5
F268
330
F115
100
AcDbEntity
100
AcDbLine
8
OLCULER
10
16000
20
17000
30
0
11
16601.040764008565
21
16398.959235991435
31
0
0
LINE
5
F269
330
F115
100
AcDbEntity
100
AcDbLine
8
OLCULER
10
16601.040764008565
20
16398.959235991435
30
0
11
16551.040764008565
21
16413.959235991435
31
0
0
LINE
5
F26A
330
F115
100
AcDbEntity
100
AcDbLine
8
OLCULER
10
16601.040764008565
20
16398.959235991435
30
0
11
16586.040764008565
21
16448.959235991435
31
0
0
TEXT
5
F26B
330
F115
100
AcDbEntity
100
AcDbText
8
OLCULER
10
16420
20
16850
30
0
40
40
1
45° DOWNTILT (YERE VE SAHAYA EGIM)
50
0
7
STANDARD
72
0
11
16420
21
16850
31
0
100
AcDbText
73
2
0
LINE
5
F26C
330
F115
100
AcDbEntity
100
AcDbLine
8
OLCULER
10
15683.923268809613
20
16812.616702985568
30
0
11
15528.359776948571
21
16968.18019484661
31
0
0
LINE
5
F26D
330
F115
100
AcDbEntity
100
AcDbLine
8
OLCULER
10
16187.383297014436
20
17316.076731190387
30
0
11
16031.819805153395
21
17471.64022305143
31
0
0
LINE
5
F26E
330
F115
100
AcDbEntity
100
AcDbLine
8
OLCULER
10
15528.359776948571
20
16968.18019484661
30
0
11
16031.819805153395
21
17471.64022305143
31
0
0
TEXT
5
F26F
330
F115
100
AcDbEntity
100
AcDbText
8
OLCULER
10
15745.089791050983
20
17254.91020894902
30
0
40
40
1
700 mm (BOY)
50
45
7
STANDARD
72
1
11
15745.089791050983
21
17254.91020894902
31
0
100
AcDbText
73
2
0
LINE
5
F270
330
F115
100
AcDbEntity
100
AcDbLine
8
OLCULER
10
16172.534054609518
20
17292.742207411233
30
0
11
16271.529003975635
21
17391.737156777348
31
0
0
LINE
5
F271
330
F115
100
AcDbEntity
100
AcDbLine
8
OLCULER
10
16296.98484809835
20
17176.776695296638
30
0
11
16395.979797464464
21
17275.771644662753
31
0
0
LINE
5
F272
330
F115
100
AcDbEntity
100
AcDbLine
8
OLCULER
10
16271.529003975635
20
17391.737156777348
30
0
11
16395.979797464464
21
17275.771644662753
31
0
0
TEXT
5
F273
330
F115
100
AcDbEntity
100
AcDbText
8
OLCULER
10
16333.75440072005
20
17363.754400720052
30
0
40
36
1
170 mm (GOVDE)
50
-45
7
STANDARD
72
1
11
16333.75440072005
21
17363.754400720052
31
0
100
AcDbText
73
2
0
TEXT
5
F274
330
F115
100
AcDbEntity
100
AcDbText
8
OLCULER
10
15699.550328673837
20
17180.449671326165
30
0
40
36
1
463 mm (TOPLAM MONTAJ DERINLIGI)
50
0
7
STANDARD
72
1
11
15699.550328673837
21
17180.449671326165
31
0
100
AcDbText
73
2
0
LINE
5
F294
330
F115
100
AcDbEntity
100
AcDbLine
8
OLCULER
10
-8250
20
8070
30
0
11
-8250
21
7910
31
0
0
LINE
5
F295
330
F115
100
AcDbEntity
100
AcDbLine
8
OLCULER
10
-7550
20
8070
30
0
11
-7550
21
7910
31
0
0
LINE
5
F296
330
F115
100
AcDbEntity
100
AcDbLine
8
OLCULER
10
-8250
20
7950
30
0
11
-7550
21
7950
31
0
0
LINE
5
F297
330
F115
100
AcDbEntity
100
AcDbLine
8
OLCULER
10
-8278
20
7922
30
0
11
-8222
21
7978
31
0
0
LINE
5
F298
330
F115
100
AcDbEntity
100
AcDbLine
8
OLCULER
10
-7578
20
7922
30
0
11
-7522
21
7978
31
0
0
TEXT
5
F299
330
F115
100
AcDbEntity
100
AcDbText
8
OLCULER
10
-7900
20
7866
30
0
40
60
1
700 mm (GENISLIK)
50
0
7
STANDARD
72
1
11
-7900
21
7866
31
0
100
AcDbText
73
2
0
LINE
5
F29A
330
F115
100
AcDbEntity
100
AcDbLine
8
OLCULER
10
-7490
20
8150
30
0
11
-7330
21
8150
31
0
0
LINE
5
F29B
330
F115
100
AcDbEntity
100
AcDbLine
8
OLCULER
10
-7490
20
8850
30
0
11
-7330
21
8850
31
0
0
LINE
5
F29C
330
F115
100
AcDbEntity
100
AcDbLine
8
OLCULER
10
-7370
20
8150
30
0
11
-7370
21
8850
31
0
0
LINE
5
F29D
330
F115
100
AcDbEntity
100
AcDbLine
8
OLCULER
10
-7398
20
8122
30
0
11
-7342
21
8178
31
0
0
LINE
5
F29E
330
F115
100
AcDbEntity
100
AcDbLine
8
OLCULER
10
-7398
20
8822
30
0
11
-7342
21
8878
31
0
0
TEXT
5
F29F
330
F115
100
AcDbEntity
100
AcDbText
8
OLCULER
10
-7328
20
8500
30
0
40
60
1
700 mm (YUKSEKLIK)
50
90
7
STANDARD
72
1
11
-7328
21
8500
31
0
100
AcDbText
73
2
0
LINE
5
F2BD
330
F115
100
AcDbEntity
100
AcDbLine
8
OLCULER
10
-7350
20
8070
30
0
11
-7350
21
7910
31
0
0
LINE
5
F2BE
330
F115
100
AcDbEntity
100
AcDbLine
8
OLCULER
10
-6650
20
8070
30
0
11
-6650
21
7910
31
0
0
LINE
5
F2BF
330
F115
100
AcDbEntity
100
AcDbLine
8
OLCULER
10
-7350
20
7950
30
0
11
-6650
21
7950
31
0
0
LINE
5
F2C0
330
F115
100
AcDbEntity
100
AcDbLine
8
OLCULER
10
-7378
20
7922
30
0
11
-7322
21
7978
31
0
0
LINE
5
F2C1
330
F115
100
AcDbEntity
100
AcDbLine
8
OLCULER
10
-6678
20
7922
30
0
11
-6622
21
7978
31
0
0
TEXT
5
F2C2
330
F115
100
AcDbEntity
100
AcDbText
8
OLCULER
10
-7000
20
7866
30
0
40
60
1
700 mm (GENISLIK)
50
0
7
STANDARD
72
1
11
-7000
21
7866
31
0
100
AcDbText
73
2
0
LINE
5
F2C3
330
F115
100
AcDbEntity
100
AcDbLine
8
OLCULER
10
-6590
20
8150
30
0
11
-6430
21
8150
31
0
0
LINE
5
F2C4
330
F115
100
AcDbEntity
100
AcDbLine
8
OLCULER
10
-6590
20
8850
30
0
11
-6430
21
8850
31
0
0
LINE
5
F2C5
330
F115
100
AcDbEntity
100
AcDbLine
8
OLCULER
10
-6470
20
8150
30
0
11
-6470
21
8850
31
0
0
LINE
5
F2C6
330
F115
100
AcDbEntity
100
AcDbLine
8
OLCULER
10
-6498
20
8122
30
0
11
-6442
21
8178
31
0
0
LINE
5
F2C7
330
F115
100
AcDbEntity
100
AcDbLine
8
OLCULER
10
-6498
20
8822
30
0
11
-6442
21
8878
31
0
0
TEXT
5
F2C8
330
F115
100
AcDbEntity
100
AcDbText
8
OLCULER
10
-6428
20
8500
30
0
40
60
1
700 mm (YUKSEKLIK)
50
90
7
STANDARD
72
1
11
-6428
21
8500
31
0
100
AcDbText
73
2
0
LINE
5
F2E6
330
F115
100
AcDbEntity
100
AcDbLine
8
OLCULER
10
-6450
20
8070
30
0
11
-6450
21
7910
31
0
0
LINE
5
F2E7
330
F115
100
AcDbEntity
100
AcDbLine
8
OLCULER
10
-5750
20
8070
30
0
11
-5750
21
7910
31
0
0
LINE
5
F2E8
330
F115
100
AcDbEntity
100
AcDbLine
8
OLCULER
10
-6450
20
7950
30
0
11
-5750
21
7950
31
0
0
LINE
5
F2E9
330
F115
100
AcDbEntity
100
AcDbLine
8
OLCULER
10
-6478
20
7922
30
0
11
-6422
21
7978
31
0
0
LINE
5
F2EA
330
F115
100
AcDbEntity
100
AcDbLine
8
OLCULER
10
-5778
20
7922
30
0
11
-5722
21
7978
31
0
0
TEXT
5
F2EB
330
F115
100
AcDbEntity
100
AcDbText
8
OLCULER
10
-6100
20
7866
30
0
40
60
1
700 mm (GENISLIK)
50
0
7
STANDARD
72
1
11
-6100
21
7866
31
0
100
AcDbText
73
2
0
LINE
5
F2EC
330
F115
100
AcDbEntity
100
AcDbLine
8
OLCULER
10
-5690
20
8150
30
0
11
-5530
21
8150
31
0
0
LINE
5
F2ED
330
F115
100
AcDbEntity
100
AcDbLine
8
OLCULER
10
-5690
20
8850
30
0
11
-5530
21
8850
31
0
0
LINE
5
F2EE
330
F115
100
AcDbEntity
100
AcDbLine
8
OLCULER
10
-5570
20
8150
30
0
11
-5570
21
8850
31
0
0
LINE
5
F2EF
330
F115
100
AcDbEntity
100
AcDbLine
8
OLCULER
10
-5598
20
8122
30
0
11
-5542
21
8178
31
0
0
LINE
5
F2F0
330
F115
100
AcDbEntity
100
AcDbLine
8
OLCULER
10
-5598
20
8822
30
0
11
-5542
21
8878
31
0
0
TEXT
5
F2F1
330
F115
100
AcDbEntity
100
AcDbText
8
OLCULER
10
-5528
20
8500
30
0
40
60
1
700 mm (YUKSEKLIK)
50
90
7
STANDARD
72
1
11
-5528
21
8500
31
0
100
AcDbText
73
2
0
LINE
5
F2F8
330
F115
100
AcDbEntity
100
AcDbLine
8
OLCULER
10
-7900
20
7900
30
0
11
-7900
21
7660
31
0
0
LINE
5
F2F9
330
F115
100
AcDbEntity
100
AcDbLine
8
OLCULER
10
-7000
20
7900
30
0
11
-7000
21
7660
31
0
0
LINE
5
F2FA
330
F115
100
AcDbEntity
100
AcDbLine
8
OLCULER
10
-7900
20
7700
30
0
11
-7000
21
7700
31
0
0
LINE
5
F2FB
330
F115
100
AcDbEntity
100
AcDbLine
8
OLCULER
10
-7928
20
7672
30
0
11
-7872
21
7728
31
0
0
LINE
5
F2FC
330
F115
100
AcDbEntity
100
AcDbLine
8
OLCULER
10
-7028
20
7672
30
0
11
-6972
21
7728
31
0
0
TEXT
5
F2FD
330
F115
100
AcDbEntity
100
AcDbText
8
OLCULER
10
-7450
20
7616
30
0
40
60
1
900 mm
50
0
7
STANDARD
72
1
11
-7450
21
7616
31
0
100
AcDbText
73
2
0
LINE
5
F2FE
330
F115
100
AcDbEntity
100
AcDbLine
8
OLCULER
10
-7000
20
7900
30
0
11
-7000
21
7660
31
0
0
LINE
5
F2FF
330
F115
100
AcDbEntity
100
AcDbLine
8
OLCULER
10
-6100
20
7900
30
0
11
-6100
21
7660
31
0
0
LINE
5
F300
330
F115
100
AcDbEntity
100
AcDbLine
8
OLCULER
10
-7000
20
7700
30
0
11
-6100
21
7700
31
0
0
LINE
5
F301
330
F115
100
AcDbEntity
100
AcDbLine
8
OLCULER
10
-7028
20
7672
30
0
11
-6972
21
7728
31
0
0
LINE
5
F302
330
F115
100
AcDbEntity
100
AcDbLine
8
OLCULER
10
-6128
20
7672
30
0
11
-6072
21
7728
31
0
0
TEXT
5
F303
330
F115
100
AcDbEntity
100
AcDbText
8
OLCULER
10
-6550
20
7616
30
0
40
60
1
900 mm
50
0
7
STANDARD
72
1
11
-6550
21
7616
31
0
100
AcDbText
73
2
0
LINE
5
F304
330
F115
100
AcDbEntity
100
AcDbLine
8
OLCULER
10
-7900
20
7900
30
0
11
-7900
21
7410
31
0
0
LINE
5
F305
330
F115
100
AcDbEntity
100
AcDbLine
8
OLCULER
10
-6100
20
7900
30
0
11
-6100
21
7410
31
0
0
LINE
5
F306
330
F115
100
AcDbEntity
100
AcDbLine
8
OLCULER
10
-7900
20
7450
30
0
11
-6100
21
7450
31
0
0
LINE
5
F307
330
F115
100
AcDbEntity
100
AcDbLine
8
OLCULER
10
-7928
20
7422
30
0
11
-7872
21
7478
31
0
0
LINE
5
F308
330
F115
100
AcDbEntity
100
AcDbLine
8
OLCULER
10
-6128
20
7422
30
0
11
-6072
21
7478
31
0
0
TEXT
5
F309
330
F115
100
AcDbEntity
100
AcDbText
8
OLCULER
10
-7000
20
7366
30
0
40
60
1
1800 mm (TOPLAM AKS ACIKLIGI)
50
0
7
STANDARD
72
1
11
-7000
21
7366
31
0
100
AcDbText
73
2
0
LINE
5
F31D
330
F115
100
AcDbEntity
100
AcDbLine
8
OLCULER
10
3179.071712182682
20
8779.873872766802
30
0
11
3503.9908483420672
21
9672.581862513416
31
0
0
LINE
5
F31E
330
F115
100
AcDbEntity
100
AcDbLine
8
OLCULER
10
3179.071712182682
20
8779.873872766802
30
0
11
3261.8696677929574
21
9726.258835953962
31
0
0
LINE
5
F31F
330
F115
100
AcDbEntity
100
AcDbLine
8
OLCULER
10
3179.071712182682
20
8779.873872766802
30
0
11
3723.9693267161756
21
9558.068314841345
31
0
0
LINE
5
F320
330
F115
100
AcDbEntity
100
AcDbLine
8
OLCULER
10
3261.8696677929574
20
9726.258835953962
30
0
11
3503.9908483420672
21
9672.581862513416
31
0
0
LINE
5
F321
330
F115
100
AcDbEntity
100
AcDbLine
8
OLCULER
10
3503.9908483420672
20
9672.581862513416
30
0
11
3723.9693267161756
21
9558.068314841345
31
0
0
TEXT
5
F322
330
F115
100
AcDbEntity
100
AcDbText
8
OLCULER
10
3503.9908483420672
20
9697.581862513416
30
0
40
32
1
30° SPOT BEAM (HPBW)
50
0
7
STANDARD
72
1
11
3503.9908483420672
21
9697.581862513416
31
0
100
AcDbText
73
2
0
LINE
5
F323
330
F115
100
AcDbEntity
100
AcDbLine
8
OLCULER
10
2850.179294907614
20
8959.580922930787
30
0
11
2850.179294907614
21
9099.580922930787
31
0
0
LINE
5
F324
330
F115
100
AcDbEntity
100
AcDbLine
8
OLCULER
10
3507.96412945775
20
8720.166822602818
30
0
11
3507.96412945775
21
9099.580922930787
31
0
0
LINE
5
F325
330
F115
100
AcDbEntity
100
AcDbLine
8
OLCULER
10
2850.179294907614
20
9059.580922930787
30
0
11
3507.96412945775
21
9059.580922930787
31
0
0
LINE
5
F326
330
F115
100
AcDbEntity
100
AcDbLine
8
OLCULER
10
2822.179294907614
20
9031.580922930787
30
0
11
2878.179294907614
21
9087.580922930787
31
0
0
LINE
5
F327
330
F115
100
AcDbEntity
100
AcDbLine
8
OLCULER
10
3479.96412945775
20
9031.580922930787
30
0
11
3535.96412945775
21
9087.580922930787
31
0
0
TEXT
5
F328
330
F115
100
AcDbEntity
100
AcDbText
8
OLCULER
10
3179.071712182682
20
9083.580922930787
30
0
40
60
1
700 mm (GENISLIK)
50
0
7
STANDARD
72
1
11
3179.071712182682
21
9083.580922930787
31
0
100
AcDbText
73
2
0
LINE
5
F329
330
F115
100
AcDbEntity
100
AcDbLine
8
OLCULER
10
2732.03587054225
20
8739.833177397182
30
0
11
2732.03587054225
21
8579.833177397182
31
0
0
LINE
5
F32A
330
F115
100
AcDbEntity
100
AcDbLine
8
OLCULER
10
3125.2280747625437
20
8796.78833994095
30
0
11
3125.2280747625437
21
8579.833177397182
31
0
0
LINE
5
F32B
330
F115
100
AcDbEntity
100
AcDbLine
8
OLCULER
10
2732.03587054225
20
8619.833177397182
30
0
11
3125.2280747625437
21
8619.833177397182
31
0
0
LINE
5
F32C
330
F115
100
AcDbEntity
100
AcDbLine
8
OLCULER
10
2704.03587054225
20
8591.833177397182
30
0
11
2760.03587054225
21
8647.833177397182
31
0
0
LINE
5
F32D
330
F115
100
AcDbEntity
100
AcDbLine
8
OLCULER
10
3097.2280747625437
20
8591.833177397182
30
0
11
3153.2280747625437
21
8647.833177397182
31
0
0
TEXT
5
F32E
330
F115
100
AcDbEntity
100
AcDbText
8
OLCULER
10
2928.631972652397
20
8535.833177397182
30
0
40
60
1
463 mm (TOPLAM DERINLIK)
50
0
7
STANDARD
72
1
11
2928.631972652397
21
8535.833177397182
31
0
100
AcDbText
73
2
0
LINE
5
F343
330
F115
100
AcDbEntity
100
AcDbLine
8
OLCULER
10
4000
20
8585
30
0
11
4000
21
9535
31
0
0
LINE
5
F344
330
F115
100
AcDbEntity
100
AcDbLine
8
OLCULER
10
4000
20
8585
30
0
11
3754.121907152605
21
9502.629534974614
31
0
0
LINE
5
F345
330
F115
100
AcDbEntity
100
AcDbLine
8
OLCULER
10
4000
20
8585
30
0
11
4245.878092847394
21
9502.629534974614
31
0
0
LINE
5
F346
330
F115
100
AcDbEntity
100
AcDbLine
8
OLCULER
10
3754.121907152605
20
9502.629534974614
30
0
11
4000
21
9535
31
0
0
LINE
5
F347
330
F115
100
AcDbEntity
100
AcDbLine
8
OLCULER
10
4000
20
9535
30
0
11
4245.878092847394
21
9502.629534974614
31
0
0
TEXT
5
F348
330
F115
100
AcDbEntity
100
AcDbText
8
OLCULER
10
4000
20
9560
30
0
40
32
1
30° SPOT BEAM (HPBW)
50
0
7
STANDARD
72
1
11
4000
21
9560
31
0
100
AcDbText
73
2
0
LINE
5
F349
330
F115
100
AcDbEntity
100
AcDbLine
8
OLCULER
10
3650
20
8645
30
0
11
3650
21
8785
31
0
0
LINE
5
F34A
330
F115
100
AcDbEntity
100
AcDbLine
8
OLCULER
10
4350
20
8645
30
0
11
4350
21
8785
31
0
0
LINE
5
F34B
330
F115
100
AcDbEntity
100
AcDbLine
8
OLCULER
10
3650
20
8745
30
0
11
4350
21
8745
31
0
0
LINE
5
F34C
330
F115
100
AcDbEntity
100
AcDbLine
8
OLCULER
10
3622
20
8717
30
0
11
3678
21
8773
31
0
0
LINE
5
F34D
330
F115
100
AcDbEntity
100
AcDbLine
8
OLCULER
10
4322
20
8717
30
0
11
4378
21
8773
31
0
0
TEXT
5
F34E
330
F115
100
AcDbEntity
100
AcDbText
8
OLCULER
10
4000
20
8769
30
0
40
60
1
700 mm (GENISLIK)
50
0
7
STANDARD
72
1
11
4000
21
8769
31
0
100
AcDbText
73
2
0
LINE
5
F34F
330
F115
100
AcDbEntity
100
AcDbLine
8
OLCULER
10
3590
20
8415
30
0
11
3590
21
8255
31
0
0
LINE
5
F350
330
F115
100
AcDbEntity
100
AcDbLine
8
OLCULER
10
3940
20
8603
30
0
11
3940
21
8255
31
0
0
LINE
5
F351
330
F115
100
AcDbEntity
100
AcDbLine
8
OLCULER
10
3590
20
8295
30
0
11
3940
21
8295
31
0
0
LINE
5
F352
330
F115
100
AcDbEntity
100
AcDbLine
8
OLCULER
10
3562
20
8267
30
0
11
3618
21
8323
31
0
0
LINE
5
F353
330
F115
100
AcDbEntity
100
AcDbLine
8
OLCULER
10
3912
20
8267
30
0
11
3968
21
8323
31
0
0
TEXT
5
F354
330
F115
100
AcDbEntity
100
AcDbText
8
OLCULER
10
3765
20
8211
30
0
40
60
1
463 mm (TOPLAM DERINLIK)
50
0
7
STANDARD
72
1
11
3765
21
8211
31
0
100
AcDbText
73
2
0
LINE
5
F369
330
F115
100
AcDbEntity
100
AcDbLine
8
OLCULER
10
4820.928287817318
20
8779.873872766802
30
0
11
4496.009151657933
21
9672.581862513416
31
0
0
LINE
5
F36A
330
F115
100
AcDbEntity
100
AcDbLine
8
OLCULER
10
4820.928287817318
20
8779.873872766802
30
0
11
4276.030673283824
21
9558.068314841345
31
0
0
LINE
5
F36B
330
F115
100
AcDbEntity
100
AcDbLine
8
OLCULER
10
4820.928287817318
20
8779.873872766802
30
0
11
4738.130332207043
21
9726.258835953962
31
0
0
LINE
5
F36C
330
F115
100
AcDbEntity
100
AcDbLine
8
OLCULER
10
4276.030673283824
20
9558.068314841345
30
0
11
4496.009151657933
21
9672.581862513416
31
0
0
LINE
5
F36D
330
F115
100
AcDbEntity
100
AcDbLine
8
OLCULER
10
4496.009151657933
20
9672.581862513416
30
0
11
4738.130332207043
21
9726.258835953962
31
0
0
TEXT
5
F36E
330
F115
100
AcDbEntity
100
AcDbText
8
OLCULER
10
4496.009151657933
20
9697.581862513416
30
0
40
32
1
30° SPOT BEAM (HPBW)
50
0
7
STANDARD
72
1
11
4496.009151657933
21
9697.581862513416
31
0
100
AcDbText
73
2
0
LINE
5
F36F
330
F115
100
AcDbEntity
100
AcDbLine
8
OLCULER
10
4492.03587054225
20
8720.166822602818
30
0
11
4492.03587054225
21
8860.166822602818
31
0
0
LINE
5
F370
330
F115
100
AcDbEntity
100
AcDbLine
8
OLCULER
10
5149.820705092386
20
8959.580922930787
30
0
11
5149.820705092386
21
8860.166822602818
31
0
0
LINE
5
F371
330
F115
100
AcDbEntity
100
AcDbLine
8
OLCULER
10
4492.03587054225
20
8820.166822602818
30
0
11
5149.820705092386
21
8820.166822602818
31
0
0
LINE
5
F372
330
F115
100
AcDbEntity
100
AcDbLine
8
OLCULER
10
4464.03587054225
20
8792.166822602818
30
0
11
4520.03587054225
21
8848.166822602818
31
0
0
LINE
5
F373
330
F115
100
AcDbEntity
100
AcDbLine
8
OLCULER
10
5121.820705092386
20
8792.166822602818
30
0
11
5177.820705092386
21
8848.166822602818
31
0
0
TEXT
5
F374
330
F115
100
AcDbEntity
100
AcDbText
8
OLCULER
10
4820.928287817318
20
8844.166822602818
30
0
40
60
1
700 mm (GENISLIK)
50
0
7
STANDARD
72
1
11
4820.928287817318
21
8844.166822602818
31
0
100
AcDbText
73
2
0
LINE
5
F375
330
F115
100
AcDbEntity
100
AcDbLine
8
OLCULER
10
4490.179294907614
20
8500.419077069213
30
0
11
4330.179294907614
21
8500.419077069213
31
0
0
LINE
5
F376
330
F115
100
AcDbEntity
100
AcDbLine
8
OLCULER
10
4754.771925237456
20
8796.78833994095
30
0
11
4330.179294907614
21
8796.78833994095
31
0
0
LINE
5
F377
330
F115
100
AcDbEntity
100
AcDbLine
8
OLCULER
10
4370.179294907614
20
8500.419077069213
30
0
11
4370.179294907614
21
8796.78833994095
31
0
0
LINE
5
F378
330
F115
100
AcDbEntity
100
AcDbLine
8
OLCULER
10
4342.179294907614
20
8472.419077069213
30
0
11
4398.179294907614
21
8528.419077069213
31
0
0
LINE
5
F379
330
F115
100
AcDbEntity
100
AcDbLine
8
OLCULER
10
4342.179294907614
20
8768.78833994095
30
0
11
4398.179294907614
21
8824.78833994095
31
0
0
TEXT
5
F37A
330
F115
100
AcDbEntity
100
AcDbText
8
OLCULER
10
4328.179294907614
20
8648.603708505081
30
0
40
60
1
463 mm (TOPLAM DERINLIK)
50
90
7
STANDARD
72
1
11
4328.179294907614
21
8648.603708505081
31
0
100
AcDbText
73
2
0
LINE
5
F3B6
330
F115
100
AcDbEntity
100
AcDbLine
8
OLCULER
10
-14000
20
0
30
0
11
-13150
21
0
31
0
0
LINE
5
F3B7
330
F115
100
AcDbEntity
100
AcDbLine
8
OLCULER
10
-14000
20
0
30
0
11
-13398.959235991435
21
-601.0407640085654
31
0
0
LINE
5
F3B8
330
F115
100
AcDbEntity
100
AcDbLine
8
OLCULER
10
-13398.959235991435
20
-601.0407640085654
30
0
11
-13448.959235991435
21
-586.0407640085654
31
0
0
LINE
5
F3B9
330
F115
100
AcDbEntity
100
AcDbLine
8
OLCULER
10
-13398.959235991435
20
-601.0407640085654
30
0
11
-13413.959235991435
21
-551.0407640085654
31
0
0
TEXT
5
F3BA
330
F115
100
AcDbEntity
100
AcDbText
8
OLCULER
10
-13580
20
-150
30
0
40
40
1
45° DOWNTILT (YERE VE SAHAYA EGIM)
50
0
7
STANDARD
72
0
11
-13580
21
-150
31
0
100
AcDbText
73
2
0
LINE
5
F3BB
330
F115
100
AcDbEntity
100
AcDbLine
8
OLCULER
10
-14316.076731190387
20
-187.38329701443513
30
0
11
-14471.640223051429
21
-31.819805153394697
31
0
0
LINE
5
F3BC
330
F115
100
AcDbEntity
100
AcDbLine
8
OLCULER
10
-13812.616702985564
20
316.07673119038674
30
0
11
-13968.180194846605
21
471.64022305142714
31
0
0
LINE
5
F3BD
330
F115
100
AcDbEntity
100
AcDbLine
8
OLCULER
10
-14471.640223051429
20
-31.819805153394697
30
0
11
-13968.180194846605
21
471.64022305142714
31
0
0
TEXT
5
F3BE
330
F115
100
AcDbEntity
100
AcDbText
8
OLCULER
10
-14254.910208949017
20
254.91020894901624
30
0
40
40
1
700 mm (BOY)
50
45
7
STANDARD
72
1
11
-14254.910208949017
21
254.91020894901624
31
0
100
AcDbText
73
2
0
LINE
5
F3BF
330
F115
100
AcDbEntity
100
AcDbLine
8
OLCULER
10
-13827.465945390482
20
292.74220741123065
30
0
11
-13728.470996024365
21
391.7371567773473
31
0
0
LINE
5
F3C0
330
F115
100
AcDbEntity
100
AcDbLine
8
OLCULER
10
-13703.01515190165
20
176.7766952966369
30
0
11
-13604.020202535534
21
275.77164466275354
31
0
0
LINE
5
F3C1
330
F115
100
AcDbEntity
100
AcDbLine
8
OLCULER
10
-13728.470996024365
20
391.7371567773473
30
0
11
-13604.020202535534
21
275.77164466275354
31
0
0
TEXT
5
F3C2
330
F115
100
AcDbEntity
100
AcDbText
8
OLCULER
10
-13666.24559927995
20
363.7544007200504
30
0
40
36
1
170 mm (GOVDE)
50
-45
7
STANDARD
72
1
11
-13666.24559927995
21
363.7544007200504
31
0
100
AcDbText
73
2
0
TEXT
5
F3C3
330
F115
100
AcDbEntity
100
AcDbText
8
OLCULER
10
-14300.449671326163
20
180.44967132616398
30
0
40
36
1
463 mm (TOPLAM MONTAJ DERINLIGI)
50
0
7
STANDARD
72
1
11
-14300.449671326163
21
180.44967132616398
31
0
100
AcDbText
73
2
0
LINE
5
F3FD
330
F115
100
AcDbEntity
100
AcDbLine
8
OLCULER
10
-4000
20
0
30
0
11
-3150
21
0
31
0
0
LINE
5
F3FE
330
F115
100
AcDbEntity
100
AcDbLine
8
OLCULER
10
-4000
20
0
30
0
11
-3398.9592359914345
21
-601.0407640085654
31
0
0
LINE
5
F3FF
330
F115
100
AcDbEntity
100
AcDbLine
8
OLCULER
10
-3398.9592359914345
20
-601.0407640085654
30
0
11
-3448.9592359914345
21
-586.0407640085654
31
0
0
LINE
5
F400
330
F115
100
AcDbEntity
100
AcDbLine
8
OLCULER
10
-3398.9592359914345
20
-601.0407640085654
30
0
11
-3413.9592359914345
21
-551.0407640085654
31
0
0
TEXT
5
F401
330
F115
100
AcDbEntity
100
AcDbText
8
OLCULER
10
-3580
20
-150
30
0
40
40
1
45° DOWNTILT (YERE VE SAHAYA EGIM)
50
0
7
STANDARD
72
0
11
-3580
21
-150
31
0
100
AcDbText
73
2
0
LINE
5
F402
330
F115
100
AcDbEntity
100
AcDbLine
8
OLCULER
10
-4316.076731190386
20
-187.38329701443513
30
0
11
-4471.640223051427
21
-31.819805153394697
31
0
0
LINE
5
F403
330
F115
100
AcDbEntity
100
AcDbLine
8
OLCULER
10
-3812.616702985565
20
316.07673119038674
30
0
11
-3968.1801948466054
21
471.64022305142714
31
0
0
LINE
5
F404
330
F115
100
AcDbEntity
100
AcDbLine
8
OLCULER
10
-4471.640223051427
20
-31.819805153394697
30
0
11
-3968.1801948466054
21
471.64022305142714
31
0
0
TEXT
5
F405
330
F115
100
AcDbEntity
100
AcDbText
8
OLCULER
10
-4254.910208949016
20
254.91020894901624
30
0
40
40
1
700 mm (BOY)
50
45
7
STANDARD
72
1
11
-4254.910208949016
21
254.91020894901624
31
0
100
AcDbText
73
2
0
LINE
5
F406
330
F115
100
AcDbEntity
100
AcDbLine
8
OLCULER
10
-3827.4659453904824
20
292.74220741123065
30
0
11
-3728.470996024366
21
391.7371567773473
31
0
0
LINE
5
F407
330
F115
100
AcDbEntity
100
AcDbLine
8
OLCULER
10
-3703.01515190165
20
176.7766952966369
30
0
11
-3604.0202025355334
21
275.77164466275354
31
0
0
LINE
5
F408
330
F115
100
AcDbEntity
100
AcDbLine
8
OLCULER
10
-3728.470996024366
20
391.7371567773473
30
0
11
-3604.0202025355334
21
275.77164466275354
31
0
0
TEXT
5
F409
330
F115
100
AcDbEntity
100
AcDbText
8
OLCULER
10
-3666.2455992799496
20
363.7544007200504
30
0
40
36
1
170 mm (GOVDE)
50
-45
7
STANDARD
72
1
11
-3666.2455992799496
21
363.7544007200504
31
0
100
AcDbText
73
2
0
TEXT
5
F40A
330
F115
100
AcDbEntity
100
AcDbText
8
OLCULER
10
-4300.449671326164
20
180.44967132616398
30
0
40
36
1
463 mm (TOPLAM MONTAJ DERINLIGI)
50
0
7
STANDARD
72
1
11
-4300.449671326164
21
180.44967132616398
31
0
100
AcDbText
73
2
0
LINE
5
F44A
330
F115
100
AcDbEntity
100
AcDbLine
8
OLCULER
10
5500
20
0
30
0
11
6350
21
0
31
0
0
LINE
5
F44B
330
F115
100
AcDbEntity
100
AcDbLine
8
OLCULER
10
5500
20
0
30
0
11
6101.040764008565
21
-601.0407640085654
31
0
0
LINE
5
F44C
330
F115
100
AcDbEntity
100
AcDbLine
8
OLCULER
10
6101.040764008565
20
-601.0407640085654
30
0
11
6051.040764008565
21
-586.0407640085654
31
0
0
LINE
5
F44D
330
F115
100
AcDbEntity
100
AcDbLine
8
OLCULER
10
6101.040764008565
20
-601.0407640085654
30
0
11
6086.040764008565
21
-551.0407640085654
31
0
0
TEXT
5
F44E
330
F115
100
AcDbEntity
100
AcDbText
8
OLCULER
10
5920
20
-150
30
0
40
40
1
45° DOWNTILT (YERE VE SAHAYA EGIM)
50
0
7
STANDARD
72
0
11
5920
21
-150
31
0
100
AcDbText
73
2
0
LINE
5
F44F
330
F115
100
AcDbEntity
100
AcDbLine
8
OLCULER
10
5183.923268809614
20
-187.38329701443513
30
0
11
5028.359776948573
21
-31.819805153394697
31
0
0
LINE
5
F450
330
F115
100
AcDbEntity
100
AcDbLine
8
OLCULER
10
5687.383297014435
20
316.07673119038674
30
0
11
5531.819805153395
21
471.64022305142714
31
0
0
LINE
5
F451
330
F115
100
AcDbEntity
100
AcDbLine
8
OLCULER
10
5028.359776948573
20
-31.819805153394697
30
0
11
5531.819805153395
21
471.64022305142714
31
0
0
TEXT
5
F452
330
F115
100
AcDbEntity
100
AcDbText
8
OLCULER
10
5245.089791050984
20
254.91020894901624
30
0
40
40
1
700 mm (BOY)
50
45
7
STANDARD
72
1
11
5245.089791050984
21
254.91020894901624
31
0
100
AcDbText
73
2
0
LINE
5
F453
330
F115
100
AcDbEntity
100
AcDbLine
8
OLCULER
10
5672.534054609518
20
292.74220741123065
30
0
11
5771.529003975635
21
391.7371567773473
31
0
0
LINE
5
F454
330
F115
100
AcDbEntity
100
AcDbLine
8
OLCULER
10
5796.98484809835
20
176.7766952966369
30
0
11
5895.979797464467
21
275.77164466275354
31
0
0
LINE
5
F455
330
F115
100
AcDbEntity
100
AcDbLine
8
OLCULER
10
5771.529003975635
20
391.7371567773473
30
0
11
5895.979797464467
21
275.77164466275354
31
0
0
TEXT
5
F456
330
F115
100
AcDbEntity
100
AcDbText
8
OLCULER
10
5833.75440072005
20
363.7544007200504
30
0
40
36
1
170 mm (GOVDE)
50
-45
7
STANDARD
72
1
11
5833.75440072005
21
363.7544007200504
31
0
100
AcDbText
73
2
0
TEXT
5
F457
330
F115
100
AcDbEntity
100
AcDbText
8
OLCULER
10
5199.550328673836
20
180.44967132616398
30
0
40
36
1
463 mm (TOPLAM MONTAJ DERINLIGI)
50
0
7
STANDARD
72
1
11
5199.550328673836
21
180.44967132616398
31
0
100
AcDbText
73
2
0
LINE
5
F13C
330
F115
100
AcDbEntity
100
AcDbLine
8
METIN_BILGI
10
-18000
20
17320
30
0
11
-18020
21
17280
31
0
0
LINE
5
F13D
330
F115
100
AcDbEntity
100
AcDbLine
8
METIN_BILGI
10
-18000
20
17320
30
0
11
-17980
21
17280
31
0
0
LINE
5
F13E
330
F115
100
AcDbEntity
100
AcDbLine
8
METIN_BILGI
10
-18020
20
17280
30
0
11
-17980
21
17280
31
0
0
LINE
5
F13F
330
F115
100
AcDbEntity
100
AcDbLine
8
METIN_BILGI
10
-18000
20
17280
30
0
11
-18000
21
17265
31
0
0
TEXT
5
F140
330
F115
100
AcDbEntity
100
AcDbText
8
METIN_BILGI
10
-18000
20
17240
30
0
40
26
1
UP (YUKARI)
50
0
7
STANDARD
72
1
11
-18000
21
17240
31
0
100
AcDbText
73
2
0
TEXT
5
F155
330
F115
100
AcDbEntity
100
AcDbText
8
METIN_BILGI
10
-18000
20
16370
30
0
40
45
1
1.1 TEKLI SPOT BEAM: ON KESIT / GORUNUS
50
0
7
STANDARD
72
1
11
-18000
21
16370
31
0
100
AcDbText
73
2
0
TEXT
5
F156
330
F115
100
AcDbEntity
100
AcDbText
8
METIN_BILGI
10
-18000
20
16310
30
0
40
32
1
Spot Beam 30/30 (DOY15X3030MD4TRE) - 16.5 kg
50
0
7
STANDARD
72
1
11
-18000
21
16310
31
0
100
AcDbText
73
2
0
TEXT
5
F18C
330
F115
100
AcDbEntity
100
AcDbText
8
METIN_BILGI
10
-12100.449671326163
20
19360
30
0
40
38
1
CATI MAKASI ANA BORUSU (Ø280mm)
50
0
7
STANDARD
72
0
11
-12100.449671326163
21
19360
31
0
100
AcDbText
73
2
0
TEXT
5
F18D
330
F115
100
AcDbEntity
100
AcDbText
8
METIN_BILGI
10
-12481.567726704574
20
18182.165807973877
30
0
40
32
1
2x Ø70mm OFSET ASKI BORUSU
50
0
7
STANDARD
72
2
11
-12481.567726704574
21
18182.165807973877
31
0
100
AcDbText
73
2
0
TEXT
5
F18E
330
F115
100
AcDbEntity
100
AcDbText
8
METIN_BILGI
10
-12094.331615947753
20
17436.567726704576
30
0
40
28
1
CAPRAZ GECIS KELEPCESI (M14)
50
0
7
STANDARD
72
0
11
-12094.331615947753
21
17436.567726704576
31
0
100
AcDbText
73
2
0
TEXT
5
F19D
330
F115
100
AcDbEntity
100
AcDbText
8
METIN_BILGI
10
-12000
20
16430
30
0
40
45
1
1.2 TEKLI SPOT BEAM: YAN KESIT (45° DOWNTILT)
50
0
7
STANDARD
72
1
11
-12000
21
16430
31
0
100
AcDbText
73
2
0
TEXT
5
F19E
330
F115
100
AcDbEntity
100
AcDbText
8
METIN_BILGI
10
-12000
20
16370
30
0
40
32
1
Gamma Nu Spot Beam 30/30 (One ve Yere 45° Egim)
50
0
7
STANDARD
72
1
11
-12000
21
16370
31
0
100
AcDbText
73
2
0
TEXT
5
F1C4
330
F115
100
AcDbEntity
100
AcDbText
8
METIN_BILGI
10
-6000
20
16417
30
0
40
42
1
1.3 TEKLI SPOT BEAM: USTTEN PLAN KESITI
50
0
7
STANDARD
72
1
11
-6000
21
16417
31
0
100
AcDbText
73
2
0
LWPOLYLINE
5
F1C5
330
F115
100
AcDbEntity
100
AcDbPolyline
8
METIN_BILGI
6
ByLayer
62
256
370
-1
90
4
70
1
10
-21500
20
14400
10
-21500
20
19800
10
-3000
20
19800
10
-3000
20
14400
0
TEXT
5
F1C6
330
F115
100
AcDbEntity
100
AcDbText
8
METIN_BILGI
10
-21000
20
19500
30
0
40
180
1
BOLUM 1: TEKLI (SINGLE) GAMMA NU SPOT BEAM 30/30 PANEL ANTENI KESITLERI (1:1 OLCEK)
50
0
7
STANDARD
100
AcDbText
0
LINE
5
F1D5
330
F115
100
AcDbEntity
100
AcDbLine
8
METIN_BILGI
10
8000
20
17320
30
0
11
7980
21
17280
31
0
0
LINE
5
F1D6
330
F115
100
AcDbEntity
100
AcDbLine
8
METIN_BILGI
10
8000
20
17320
30
0
11
8020
21
17280
31
0
0
LINE
5
F1D7
330
F115
100
AcDbEntity
100
AcDbLine
8
METIN_BILGI
10
7980
20
17280
30
0
11
8020
21
17280
31
0
0
LINE
5
F1D8
330
F115
100
AcDbEntity
100
AcDbLine
8
METIN_BILGI
10
8000
20
17280
30
0
11
8000
21
17265
31
0
0
TEXT
5
F1D9
330
F115
100
AcDbEntity
100
AcDbText
8
METIN_BILGI
10
8000
20
17240
30
0
40
26
1
UP (YUKARI)
50
0
7
STANDARD
72
1
11
8000
21
17240
31
0
100
AcDbText
73
2
0
TEXT
5
F1EE
330
F115
100
AcDbEntity
100
AcDbText
8
METIN_BILGI
10
8000
20
16370
30
0
40
45
1
SOL ANTEN (ANT-1)
50
0
7
STANDARD
72
1
11
8000
21
16370
31
0
100
AcDbText
73
2
0
TEXT
5
F1EF
330
F115
100
AcDbEntity
100
AcDbText
8
METIN_BILGI
10
8000
20
16310
30
0
40
32
1
Spot Beam 30/30 (DOY15X3030MD4TRE) - 16.5 kg
50
0
7
STANDARD
72
1
11
8000
21
16310
31
0
100
AcDbText
73
2
0
LINE
5
F1FE
330
F115
100
AcDbEntity
100
AcDbLine
8
METIN_BILGI
10
9000
20
17320
30
0
11
8980
21
17280
31
0
0
LINE
5
F1FF
330
F115
100
AcDbEntity
100
AcDbLine
8
METIN_BILGI
10
9000
20
17320
30
0
11
9020
21
17280
31
0
0
LINE
5
F200
330
F115
100
AcDbEntity
100
AcDbLine
8
METIN_BILGI
10
8980
20
17280
30
0
11
9020
21
17280
31
0
0
LINE
5
F201
330
F115
100
AcDbEntity
100
AcDbLine
8
METIN_BILGI
10
9000
20
17280
30
0
11
9000
21
17265
31
0
0
TEXT
5
F202
330
F115
100
AcDbEntity
100
AcDbText
8
METIN_BILGI
10
9000
20
17240
30
0
40
26
1
UP (YUKARI)
50
0
7
STANDARD
72
1
11
9000
21
17240
31
0
100
AcDbText
73
2
0
TEXT
5
F217
330
F115
100
AcDbEntity
100
AcDbText
8
METIN_BILGI
10
9000
20
16370
30
0
40
45
1
SAG ANTEN (ANT-2)
50
0
7
STANDARD
72
1
11
9000
21
16370
31
0
100
AcDbText
73
2
0
TEXT
5
F218
330
F115
100
AcDbEntity
100
AcDbText
8
METIN_BILGI
10
9000
20
16310
30
0
40
32
1
Spot Beam 30/30 (DOY15X3030MD4TRE) - 16.5 kg
50
0
7
STANDARD
72
1
11
9000
21
16310
31
0
100
AcDbText
73
2
0
TEXT
5
F264
330
F115
100
AcDbEntity
100
AcDbText
8
METIN_BILGI
10
15899.550328673837
20
19360
30
0
40
38
1
CATI MAKASI ANA BORUSU (Ø280mm)
50
0
7
STANDARD
72
0
11
15899.550328673837
21
19360
31
0
100
AcDbText
73
2
0
TEXT
5
F265
330
F115
100
AcDbEntity
100
AcDbText
8
METIN_BILGI
10
15518.432273295426
20
18182.165807973877
30
0
40
32
1
2x Ø70mm OFSET ASKI BORUSU
50
0
7
STANDARD
72
2
11
15518.432273295426
21
18182.165807973877
31
0
100
AcDbText
73
2
0
TEXT
5
F266
330
F115
100
AcDbEntity
100
AcDbText
8
METIN_BILGI
10
15905.668384052247
20
17436.567726704576
30
0
40
28
1
CAPRAZ GECIS KELEPCESI (M14)
50
0
7
STANDARD
72
0
11
15905.668384052247
21
17436.567726704576
31
0
100
AcDbText
73
2
0
TEXT
5
F275
330
F115
100
AcDbEntity
100
AcDbText
8
METIN_BILGI
10
16000
20
16430
30
0
40
45
1
2.2 IKILI SISTEM: YAN KESIT (PROFIL)
50
0
7
STANDARD
72
1
11
16000
21
16430
31
0
100
AcDbText
73
2
0
TEXT
5
F276
330
F115
100
AcDbEntity
100
AcDbText
8
METIN_BILGI
10
16000
20
16370
30
0
40
32
1
Gamma Nu Spot Beam 30/30 (One ve Yere 45° Egim)
50
0
7
STANDARD
72
1
11
16000
21
16370
31
0
100
AcDbText
73
2
0
LWPOLYLINE
5
F277
330
F115
100
AcDbEntity
100
AcDbPolyline
8
METIN_BILGI
6
ByLayer
62
256
370
-1
90
4
70
1
10
6700
20
14400
10
6700
20
19800
10
21200
20
19800
10
21200
20
14400
0
TEXT
5
F278
330
F115
100
AcDbEntity
100
AcDbText
8
METIN_BILGI
10
7100
20
19500
30
0
40
180
1
BOLUM 2: 2'LI (DUAL) GAMMA NU SPOT BEAM ANTEN KESIT VE TRAVERS MONTAJ PLANI
50
0
7
STANDARD
100
AcDbText
0
LINE
5
F287
330
F115
100
AcDbEntity
100
AcDbLine
8
METIN_BILGI
10
-7900
20
8820
30
0
11
-7920
21
8780
31
0
0
LINE
5
F288
330
F115
100
AcDbEntity
100
AcDbLine
8
METIN_BILGI
10
-7900
20
8820
30
0
11
-7880
21
8780
31
0
0
LINE
5
F289
330
F115
100
AcDbEntity
100
AcDbLine
8
METIN_BILGI
10
-7920
20
8780
30
0
11
-7880
21
8780
31
0
0
LINE
5
F28A
330
F115
100
AcDbEntity
100
AcDbLine
8
METIN_BILGI
10
-7900
20
8780
30
0
11
-7900
21
8765
31
0
0
TEXT
5
F28B
330
F115
100
AcDbEntity
100
AcDbText
8
METIN_BILGI
10
-7900
20
8740
30
0
40
26
1
UP (YUKARI)
50
0
7
STANDARD
72
1
11
-7900
21
8740
31
0
100
AcDbText
73
2
0
TEXT
5
F2A0
330
F115
100
AcDbEntity
100
AcDbText
8
METIN_BILGI
10
-7900
20
7870
30
0
40
45
1
SEKTOR 1 (SOL)
50
0
7
STANDARD
72
1
11
-7900
21
7870
31
0
100
AcDbText
73
2
0
TEXT
5
F2A1
330
F115
100
AcDbEntity
100
AcDbText
8
METIN_BILGI
10
-7900
20
7810
30
0
40
32
1
Spot Beam 30/30 (DOY15X3030MD4TRE) - 16.5 kg
50
0
7
STANDARD
72
1
11
-7900
21
7810
31
0
100
AcDbText
73
2
0
LINE
5
F2B0
330
F115
100
AcDbEntity
100
AcDbLine
8
METIN_BILGI
10
-7000
20
8820
30
0
11
-7020
21
8780
31
0
0
LINE
5
F2B1
330
F115
100
AcDbEntity
100
AcDbLine
8
METIN_BILGI
10
-7000
20
8820
30
0
11
-6980
21
8780
31
0
0
LINE
5
F2B2
330
F115
100
AcDbEntity
100
AcDbLine
8
METIN_BILGI
10
-7020
20
8780
30
0
11
-6980
21
8780
31
0
0
LINE
5
F2B3
330
F115
100
AcDbEntity
100
AcDbLine
8
METIN_BILGI
10
-7000
20
8780
30
0
11
-7000
21
8765
31
0
0
TEXT
5
F2B4
330
F115
100
AcDbEntity
100
AcDbText
8
METIN_BILGI
10
-7000
20
8740
30
0
40
26
1
UP (YUKARI)
50
0
7
STANDARD
72
1
11
-7000
21
8740
31
0
100
AcDbText
73
2
0
TEXT
5
F2C9
330
F115
100
AcDbEntity
100
AcDbText
8
METIN_BILGI
10
-7000
20
7870
30
0
40
45
1
SEKTOR 2 (MERKEZ)
50
0
7
STANDARD
72
1
11
-7000
21
7870
31
0
100
AcDbText
73
2
0
TEXT
5
F2CA
330
F115
100
AcDbEntity
100
AcDbText
8
METIN_BILGI
10
-7000
20
7810
30
0
40
32
1
Spot Beam 30/30 (DOY15X3030MD4TRE) - 16.5 kg
50
0
7
STANDARD
72
1
11
-7000
21
7810
31
0
100
AcDbText
73
2
0
LINE
5
F2D9
330
F115
100
AcDbEntity
100
AcDbLine
8
METIN_BILGI
10
-6100
20
8820
30
0
11
-6120
21
8780
31
0
0
LINE
5
F2DA
330
F115
100
AcDbEntity
100
AcDbLine
8
METIN_BILGI
10
-6100
20
8820
30
0
11
-6080
21
8780
31
0
0
LINE
5
F2DB
330
F115
100
AcDbEntity
100
AcDbLine
8
METIN_BILGI
10
-6120
20
8780
30
0
11
-6080
21
8780
31
0
0
LINE
5
F2DC
330
F115
100
AcDbEntity
100
AcDbLine
8
METIN_BILGI
10
-6100
20
8780
30
0
11
-6100
21
8765
31
0
0
TEXT
5
F2DD
330
F115
100
AcDbEntity
100
AcDbText
8
METIN_BILGI
10
-6100
20
8740
30
0
40
26
1
UP (YUKARI)
50
0
7
STANDARD
72
1
11
-6100
21
8740
31
0
100
AcDbText
73
2
0
TEXT
5
F2F2
330
F115
100
AcDbEntity
100
AcDbText
8
METIN_BILGI
10
-6100
20
7870
30
0
40
45
1
SEKTOR 3 (SAG)
50
0
7
STANDARD
72
1
11
-6100
21
7870
31
0
100
AcDbText
73
2
0
TEXT
5
F2F3
330
F115
100
AcDbEntity
100
AcDbText
8
METIN_BILGI
10
-6100
20
7810
30
0
40
32
1
Spot Beam 30/30 (DOY15X3030MD4TRE) - 16.5 kg
50
0
7
STANDARD
72
1
11
-6100
21
7810
31
0
100
AcDbText
73
2
0
TEXT
5
F32F
330
F115
100
AcDbEntity
100
AcDbText
8
METIN_BILGI
10
3150
20
8117
30
0
40
42
1
ANT-1 (-20°)
50
0
7
STANDARD
72
1
11
3150
21
8117
31
0
100
AcDbText
73
2
0
TEXT
5
F355
330
F115
100
AcDbEntity
100
AcDbText
8
METIN_BILGI
10
4000
20
7917
30
0
40
42
1
ANT-2 (0°)
50
0
7
STANDARD
72
1
11
4000
21
7917
31
0
100
AcDbText
73
2
0
TEXT
5
F37B
330
F115
100
AcDbEntity
100
AcDbText
8
METIN_BILGI
10
4850
20
8117
30
0
40
42
1
ANT-3 (+20°)
50
0
7
STANDARD
72
1
11
4850
21
8117
31
0
100
AcDbText
73
2
0
LWPOLYLINE
5
F37C
330
F115
100
AcDbEntity
100
AcDbPolyline
8
METIN_BILGI
6
ByLayer
62
256
370
-1
90
4
70
1
10
-9100
20
5900
10
-9100
20
11300
10
9400
20
11300
10
9400
20
5900
0
TEXT
5
F37D
330
F115
100
AcDbEntity
100
AcDbText
8
METIN_BILGI
10
-8800
20
11000
30
0
40
180
1
BOLUM 3: 3'LU (TRIPLE) GAMMA NU SPOT BEAM DIZI VE ACISAL KAPSAMA PLANI
50
0
7
STANDARD
100
AcDbText
0
TEXT
5
F3B3
330
F115
100
AcDbEntity
100
AcDbText
8
METIN_BILGI
10
-14100.449671326163
20
2360
30
0
40
38
1
CATI MAKASI ANA BORUSU (Ø280mm)
50
0
7
STANDARD
72
0
11
-14100.449671326163
21
2360
31
0
100
AcDbText
73
2
0
TEXT
5
F3B4
330
F115
100
AcDbEntity
100
AcDbText
8
METIN_BILGI
10
-14481.567726704574
20
1182.1658079738768
30
0
40
32
1
2x Ø70mm OFSET ASKI BORUSU
50
0
7
STANDARD
72
2
11
-14481.567726704574
21
1182.1658079738768
31
0
100
AcDbText
73
2
0
TEXT
5
F3B5
330
F115
100
AcDbEntity
100
AcDbText
8
METIN_BILGI
10
-14094.331615947753
20
436.5677267045744
30
0
40
28
1
CAPRAZ GECIS KELEPCESI (M14)
50
0
7
STANDARD
72
0
11
-14094.331615947753
21
436.5677267045744
31
0
100
AcDbText
73
2
0
TEXT
5
F3C4
330
F115
100
AcDbEntity
100
AcDbText
8
METIN_BILGI
10
-14000
20
-570
30
0
40
45
1
LOKASYON A: 45m CATI MAKASI ASKILI KESIT
50
0
7
STANDARD
72
1
11
-14000
21
-570
31
0
100
AcDbText
73
2
0
TEXT
5
F3C5
330
F115
100
AcDbEntity
100
AcDbText
8
METIN_BILGI
10
-14000
20
-630
30
0
40
32
1
Gamma Nu Spot Beam 30/30 (One ve Yere 45° Egim)
50
0
7
STANDARD
72
1
11
-14000
21
-630
31
0
100
AcDbText
73
2
0
TEXT
5
F3FA
330
F115
100
AcDbEntity
100
AcDbText
8
METIN_BILGI
10
-4556.567726704575
20
2950
30
0
40
55
1
SKORBOARD DEV BORU (Ø1500mm)
50
0
7
STANDARD
72
1
11
-4556.567726704575
21
2950
31
0
100
AcDbText
73
2
0
TEXT
5
F3FB
330
F115
100
AcDbEntity
100
AcDbText
8
METIN_BILGI
10
-4556.567726704575
20
2860
30
0
40
36
1
360° Cember Kelepce Bilezigi (M24)
50
0
7
STANDARD
72
1
11
-4556.567726704575
21
2860
31
0
100
AcDbText
73
2
0
TEXT
5
F3FC
330
F115
100
AcDbEntity
100
AcDbText
8
METIN_BILGI
10
-4506.567726704575
20
1182.1658079738768
30
0
40
32
1
Ø114mm x 2090mm TASIYICI BORU
50
0
7
STANDARD
72
2
11
-4506.567726704575
21
1182.1658079738768
31
0
100
AcDbText
73
2
0
TEXT
5
F40B
330
F115
100
AcDbEntity
100
AcDbText
8
METIN_BILGI
10
-4000
20
-570
30
0
40
45
1
LOKASYON B: SKORBOARD Ø1500mm BORU CEMBER KESITI
50
0
7
STANDARD
72
1
11
-4000
21
-570
31
0
100
AcDbText
73
2
0
TEXT
5
F40C
330
F115
100
AcDbEntity
100
AcDbText
8
METIN_BILGI
10
-4000
20
-630
30
0
40
32
1
Gamma Nu Spot Beam 30/30 (One ve Yere 45° Egim)
50
0
7
STANDARD
72
1
11
-4000
21
-630
31
0
100
AcDbText
73
2
0
TEXT
5
F448
330
F115
100
AcDbEntity
100
AcDbText
8
METIN_BILGI
10
4883.432273295425
20
2350
30
0
40
36
1
KEDI YOLU (900mm)
50
0
7
STANDARD
72
1
11
4883.432273295425
21
2350
31
0
100
AcDbText
73
2
0
TEXT
5
F449
330
F115
100
AcDbEntity
100
AcDbText
8
METIN_BILGI
10
4713.432273295425
20
1241.5
30
0
40
30
1
Ø45.7cm SILINDIR BORU
50
0
7
STANDARD
72
1
11
4713.432273295425
21
1241.5
31
0
100
AcDbText
73
2
0
TEXT
5
F458
330
F115
100
AcDbEntity
100
AcDbText
8
METIN_BILGI
10
5500
20
-570
30
0
40
45
1
LOKASYON C: CATI UCU KEDI YOLU & Ø45.7cm SILINDIR KESITI
50
0
7
STANDARD
72
1
11
5500
21
-570
31
0
100
AcDbText
73
2
0
TEXT
5
F459
330
F115
100
AcDbEntity
100
AcDbText
8
METIN_BILGI
10
5500
20
-630
30
0
40
32
1
Gamma Nu Spot Beam 30/30 (One ve Yere 45° Egim)
50
0
7
STANDARD
72
1
11
5500
21
-630
31
0
100
AcDbText
73
2
0
LWPOLYLINE
5
F45A
330
F115
100
AcDbEntity
100
AcDbPolyline
8
METIN_BILGI
6
ByLayer
62
256
370
-1
90
4
70
1
10
-18000
20
-2600
10
-18000
20
4200
10
8000
20
4200
10
8000
20
-2600
0
TEXT
5
F45B
330
F115
100
AcDbEntity
100
AcDbText
8
METIN_BILGI
10
-17500
20
3900
30
0
40
180
1
BOLUM 4: LOKASYON BAZLI MONTAJ VE ASKI SISTEMI KESITLERI (TUM TRIBUN VE CATILAR)
50
0
7
STANDARD
100
AcDbText
0
LWPOLYLINE
5
F45C
330
F115
100
AcDbEntity
100
AcDbPolyline
8
METIN_BILGI
6
ByLayer
62
256
370
-1
90
4
70
1
10
13500
20
1400
10
13500
20
6200
10
24700
20
6200
10
24700
20
1400
0
TEXT
5
F45D
330
F115
100
AcDbEntity
100
AcDbText
8
METIN_BILGI
10
13700
20
5900
30
0
40
240
1
EKIPMAN VE ALTYAPI YERLESIM CETVELI (BOM)
50
0
7
STANDARD
100
AcDbText
0
LINE
5
F45E
330
F115
100
AcDbEntity
100
AcDbLine
8
METIN_BILGI
10
13500
20
5800
30
0
11
24700
21
5800
31
0
0
LINE
5
F45F
330
F115
100
AcDbEntity
100
AcDbLine
8
METIN_BILGI
10
13500
20
5400
30
0
11
24700
21
5400
31
0
0
LINE
5
F460
330
F115
100
AcDbEntity
100
AcDbLine
8
METIN_BILGI
10
14700
20
1400
30
0
11
14700
21
5800
31
0
0
LINE
5
F461
330
F115
100
AcDbEntity
100
AcDbLine
8
METIN_BILGI
10
20700
20
1400
30
0
11
20700
21
5800
31
0
0
LINE
5
F462
330
F115
100
AcDbEntity
100
AcDbLine
8
METIN_BILGI
10
23200
20
1400
30
0
11
23200
21
5800
31
0
0
TEXT
5
F463
330
F115
100
AcDbEntity
100
AcDbText
8
METIN_BILGI
10
13600
20
5520
30
0
40
180
1
NO
50
0
7
STANDARD
100
AcDbText
0
TEXT
5
F464
330
F115
100
AcDbEntity
100
AcDbText
8
METIN_BILGI
10
14800
20
5520
30
0
40
180
1
EKIPMAN TANIMI
50
0
7
STANDARD
100
AcDbText
0
TEXT
5
F465
330
F115
100
AcDbEntity
100
AcDbText
8
METIN_BILGI
10
20800
20
5520
30
0
40
180
1
BOYUTLAR (GxDxY)
50
0
7
STANDARD
100
AcDbText
0
TEXT
5
F466
330
F115
100
AcDbEntity
100
AcDbText
8
METIN_BILGI
10
23300
20
5520
30
0
40
180
1
ADET
50
0
7
STANDARD
100
AcDbText
0
LINE
5
F467
330
F115
100
AcDbEntity
100
AcDbLine
8
METIN_BILGI
10
13500
20
5000
30
0
11
24700
21
5000
31
0
0
TEXT
5
F468
330
F115
100
AcDbEntity
100
AcDbText
8
METIN_BILGI
10
13600
20
5120
30
0
40
160
1
1
50
0
7
STANDARD
100
AcDbText
0
TEXT
5
F469
330
F115
100
AcDbEntity
100
AcDbText
8
METIN_BILGI
10
14800
20
5120
30
0
40
160
1
Gamma Nu Spot Beam 30/30 Panel Anten (DOY15X3030MD4TRE)
50
0
7
STANDARD
100
AcDbText
0
TEXT
5
F46A
330
F115
100
AcDbEntity
100
AcDbText
8
METIN_BILGI
10
20800
20
5120
30
0
40
160
1
700x700x170 mm
50
0
7
STANDARD
100
AcDbText
0
TEXT
5
F46B
330
F115
100
AcDbEntity
100
AcDbText
8
METIN_BILGI
10
23300
20
5120
30
0
40
160
1
Tipik
50
0
7
STANDARD
100
AcDbText
0
LINE
5
F46C
330
F115
100
AcDbEntity
100
AcDbLine
8
METIN_BILGI
10
13500
20
4600
30
0
11
24700
21
4600
31
0
0
TEXT
5
F46D
330
F115
100
AcDbEntity
100
AcDbText
8
METIN_BILGI
10
13600
20
4720
30
0
40
160
1
2
50
0
7
STANDARD
100
AcDbText
0
TEXT
5
F46E
330
F115
100
AcDbEntity
100
AcDbText
8
METIN_BILGI
10
14800
20
4720
30
0
40
160
1
Agir Hizmet Konsol Egim Braketi (0-60° Tilt, 251mm Ofset)
50
0
7
STANDARD
100
AcDbText
0
TEXT
5
F46F
330
F115
100
AcDbEntity
100
AcDbText
8
METIN_BILGI
10
20800
20
4720
30
0
40
160
1
140x455x251 mm
50
0
7
STANDARD
100
AcDbText
0
TEXT
5
F470
330
F115
100
AcDbEntity
100
AcDbText
8
METIN_BILGI
10
23300
20
4720
30
0
40
160
1
1 / Anten
50
0
7
STANDARD
100
AcDbText
0
LINE
5
F471
330
F115
100
AcDbEntity
100
AcDbLine
8
METIN_BILGI
10
13500
20
4200
30
0
11
24700
21
4200
31
0
0
TEXT
5
F472
330
F115
100
AcDbEntity
100
AcDbText
8
METIN_BILGI
10
13600
20
4320
30
0
40
160
1
3
50
0
7
STANDARD
100
AcDbText
0
TEXT
5
F473
330
F115
100
AcDbEntity
100
AcDbText
8
METIN_BILGI
10
14800
20
4320
30
0
40
160
1
Tasiyici Direk Borusu (3" Galvanizli Celik Direk)
50
0
7
STANDARD
100
AcDbText
0
TEXT
5
F474
330
F115
100
AcDbEntity
100
AcDbText
8
METIN_BILGI
10
20800
20
4320
30
0
40
160
1
Ø76.2mm x 950mm
50
0
7
STANDARD
100
AcDbText
0
TEXT
5
F475
330
F115
100
AcDbEntity
100
AcDbText
8
METIN_BILGI
10
23300
20
4320
30
0
40
160
1
1 / Anten
50
0
7
STANDARD
100
AcDbText
0
LINE
5
F476
330
F115
100
AcDbEntity
100
AcDbLine
8
METIN_BILGI
10
13500
20
3800
30
0
11
24700
21
3800
31
0
0
TEXT
5
F477
330
F115
100
AcDbEntity
100
AcDbText
8
METIN_BILGI
10
13600
20
3920
30
0
40
160
1
4
50
0
7
STANDARD
100
AcDbText
0
TEXT
5
F478
330
F115
100
AcDbEntity
100
AcDbText
8
METIN_BILGI
10
14800
20
3920
30
0
40
160
1
Cift Dusey Ofset Aski Borusu (Galvaniz Celik)
50
0
7
STANDARD
100
AcDbText
0
TEXT
5
F479
330
F115
100
AcDbEntity
100
AcDbText
8
METIN_BILGI
10
20800
20
3920
30
0
40
160
1
2x Ø70mm x 2200mm
50
0
7
STANDARD
100
AcDbText
0
TEXT
5
F47A
330
F115
100
AcDbEntity
100
AcDbText
8
METIN_BILGI
10
23300
20
3920
30
0
40
160
1
2 / Anten
50
0
7
STANDARD
100
AcDbText
0
LINE
5
F47B
330
F115
100
AcDbEntity
100
AcDbLine
8
METIN_BILGI
10
13500
20
3400
30
0
11
24700
21
3400
31
0
0
TEXT
5
F47C
330
F115
100
AcDbEntity
100
AcDbText
8
METIN_BILGI
10
13600
20
3520
30
0
40
160
1
5
50
0
7
STANDARD
100
AcDbText
0
TEXT
5
F47D
330
F115
100
AcDbEntity
100
AcDbText
8
METIN_BILGI
10
14800
20
3520
30
0
40
160
1
Agir Hizmet Capraz Gecis Kelepceleri (Crossover Clamps)
50
0
7
STANDARD
100
AcDbText
0
TEXT
5
F47E
330
F115
100
AcDbEntity
100
AcDbText
8
METIN_BILGI
10
20800
20
3520
30
0
40
160
1
130x110x130 mm / M14
50
0
7
STANDARD
100
AcDbText
0
TEXT
5
F47F
330
F115
100
AcDbEntity
100
AcDbText
8
METIN_BILGI
10
23300
20
3520
30
0
40
160
1
2 / Anten
50
0
7
STANDARD
100
AcDbText
0
LINE
5
F480
330
F115
100
AcDbEntity
100
AcDbLine
8
METIN_BILGI
10
13500
20
3000
30
0
11
24700
21
3000
31
0
0
TEXT
5
F481
330
F115
100
AcDbEntity
100
AcDbText
8
METIN_BILGI
10
13600
20
3120
30
0
40
160
1
6
50
0
7
STANDARD
100
AcDbText
0
TEXT
5
F482
330
F115
100
AcDbEntity
100
AcDbText
8
METIN_BILGI
10
14800
20
3120
30
0
40
160
1
2'li Ikili Montaj Traversi (Kutu Profil)
50
0
7
STANDARD
100
AcDbText
0
TEXT
5
F483
330
F115
100
AcDbEntity
100
AcDbText
8
METIN_BILGI
10
20800
20
3120
30
0
40
160
1
100x60x5mm x 2000mm
50
0
7
STANDARD
100
AcDbText
0
TEXT
5
F484
330
F115
100
AcDbEntity
100
AcDbText
8
METIN_BILGI
10
23300
20
3120
30
0
40
160
1
Opsiyon
50
0
7
STANDARD
100
AcDbText
0
LINE
5
F485
330
F115
100
AcDbEntity
100
AcDbLine
8
METIN_BILGI
10
13500
20
2600
30
0
11
24700
21
2600
31
0
0
TEXT
5
F486
330
F115
100
AcDbEntity
100
AcDbText
8
METIN_BILGI
10
13600
20
2720
30
0
40
160
1
7
50
0
7
STANDARD
100
AcDbText
0
TEXT
5
F487
330
F115
100
AcDbEntity
100
AcDbText
8
METIN_BILGI
10
14800
20
2720
30
0
40
160
1
3'lu Moduler Kafes Kiris Sasisi (Agir Hizmet)
50
0
7
STANDARD
100
AcDbText
0
TEXT
5
F488
330
F115
100
AcDbEntity
100
AcDbText
8
METIN_BILGI
10
20800
20
2720
30
0
40
160
1
120x80x6mm x 3000mm
50
0
7
STANDARD
100
AcDbText
0
TEXT
5
F489
330
F115
100
AcDbEntity
100
AcDbText
8
METIN_BILGI
10
23300
20
2720
30
0
40
160
1
Opsiyon
50
0
7
STANDARD
100
AcDbText
0
LINE
5
F48A
330
F115
100
AcDbEntity
100
AcDbLine
8
METIN_BILGI
10
13500
20
2200
30
0
11
24700
21
2200
31
0
0
TEXT
5
F48B
330
F115
100
AcDbEntity
100
AcDbText
8
METIN_BILGI
10
13600
20
2320
30
0
40
160
1
8
50
0
7
STANDARD
100
AcDbText
0
TEXT
5
F48C
330
F115
100
AcDbEntity
100
AcDbText
8
METIN_BILGI
10
14800
20
2320
30
0
40
160
1
1/2" Feeder Jumper Kablo Seti (4.3-10 DIN Disi)
50
0
7
STANDARD
100
AcDbText
0
TEXT
5
F48D
330
F115
100
AcDbEntity
100
AcDbText
8
METIN_BILGI
10
20800
20
2320
30
0
40
160
1
4 Port / Anten
50
0
7
STANDARD
100
AcDbText
0
TEXT
5
F48E
330
F115
100
AcDbEntity
100
AcDbText
8
METIN_BILGI
10
23300
20
2320
30
0
40
160
1
4 / Anten
50
0
7
STANDARD
100
AcDbText
0
LINE
5
F48F
330
F115
100
AcDbEntity
100
AcDbLine
8
METIN_BILGI
10
13500
20
1800
30
0
11
24700
21
1800
31
0
0
TEXT
5
F490
330
F115
100
AcDbEntity
100
AcDbText
8
METIN_BILGI
10
13600
20
1920
30
0
40
160
1
9
50
0
7
STANDARD
100
AcDbText
0
TEXT
5
F491
330
F115
100
AcDbEntity
100
AcDbText
8
METIN_BILGI
10
14800
20
1920
30
0
40
160
1
Skorboard Ø1500mm 360° Cember Kelepce Bilezigi
50
0
7
STANDARD
100
AcDbText
0
TEXT
5
F492
330
F115
100
AcDbEntity
100
AcDbText
8
METIN_BILGI
10
20800
20
1920
30
0
40
160
1
Ø1590x200x20 mm
50
0
7
STANDARD
100
AcDbText
0
TEXT
5
F493
330
F115
100
AcDbEntity
100
AcDbText
8
METIN_BILGI
10
23300
20
1920
30
0
40
160
1
Skorboard
50
0
7
STANDARD
100
AcDbText
0
LINE
5
F494
330
F115
100
AcDbEntity
100
AcDbLine
8
METIN_BILGI
10
13500
20
1400
30
0
11
24700
21
1400
31
0
0
TEXT
5
F495
330
F115
100
AcDbEntity
100
AcDbText
8
METIN_BILGI
10
13600
20
1520
30
0
40
160
1
10
50
0
7
STANDARD
100
AcDbText
0
TEXT
5
F496
330
F115
100
AcDbEntity
100
AcDbText
8
METIN_BILGI
10
14800
20
1520
30
0
40
160
1
Skorboard Ana Dusey Tasiyici Boru
50
0
7
STANDARD
100
AcDbText
0
TEXT
5
F497
330
F115
100
AcDbEntity
100
AcDbText
8
METIN_BILGI
10
20800
20
1520
30
0
40
160
1
Ø114mm x 2090mm
50
0
7
STANDARD
100
AcDbText
0
TEXT
5
F498
330
F115
100
AcDbEntity
100
AcDbText
8
METIN_BILGI
10
23300
20
1520
30
0
40
160
1
Skorboard
50
0
7
STANDARD
100
AcDbText
0
LWPOLYLINE
5
F499
330
F115
100
AcDbEntity
100
AcDbPolyline
8
METIN_BILGI
6
ByLayer
62
256
370
-1
90
4
70
1
10
13500
20
-2400
10
13500
20
-200
10
21500
20
-200
10
21500
20
-2400
0
LINE
5
F49A
330
F115
100
AcDbEntity
100
AcDbLine
8
METIN_BILGI
10
13500
20
-1000
30
0
11
21500
21
-1000
31
0
0
LINE
5
F49B
330
F115
100
AcDbEntity
100
AcDbLine
8
METIN_BILGI
10
13500
20
-1700
30
0
11
21500
21
-1700
31
0
0
LINE
5
F49C
330
F115
100
AcDbEntity
100
AcDbLine
8
METIN_BILGI
10
18000
20
-2400
30
0
11
18000
21
-1000
31
0
0
TEXT
5
F49D
330
F115
100
AcDbEntity
100
AcDbText
8
METIN_BILGI
10
13700
20
-750
30
0
40
320
1
GALATASARAY STADYUMU GSM ALTYAPI PROJESI
50
0
7
STANDARD
100
AcDbText
0
TEXT
5
F49E
330
F115
100
AcDbEntity
100
AcDbText
8
METIN_BILGI
10
13700
20
-1450
30
0
40
260
1
ALAN: GAMMA NU SPOT BEAM 30/30 PANEL ANTENLERI TUM LOKASYONLAR KESITLERI (TEKLI, 2'LI, 3'LU) (DETAY KESIT PAFTASI)
50
0
7
STANDARD
100
AcDbText
0
TEXT
5
F49F
330
F115
100
AcDbEntity
100
AcDbText
8
METIN_BILGI
10
13700
20
-2120
30
0
40
200
1
OLCEK: 1:1 mm (1:1 mm)
50
0
7
STANDARD
100
AcDbText
0
TEXT
5
F4A0
330
F115
100
AcDbEntity
100
AcDbText
8
METIN_BILGI
10
18200
20
-1450
30
0
40
180
1
CIZIM: ANTIGRAVITY CAD / BIM
50
0
7
STANDARD
100
AcDbText
0
TEXT
5
F4A1
330
F115
100
AcDbEntity
100
AcDbText
8
METIN_BILGI
10
18200
20
-2120
30
0
40
180
1
TARIH: 2026-10-04
50
0
7
STANDARD
100
AcDbText
0
CIRCLE
5
F4A2
330
F115
100
AcDbEntity
100
AcDbCircle
8
METIN_BILGI
10
12000
20
-1300
30
0
40
800
0
LINE
5
F4A3
330
F115
100
AcDbEntity
100
AcDbLine
8
METIN_BILGI
10
12000
20
-2020
30
0
11
12000
21
-580
31
0
0
LINE
5
F4A4
330
F115
100
AcDbEntity
100
AcDbLine
8
METIN_BILGI
10
12000
20
-580
30
0
11
11750
21
-1000
31
0
0
LINE
5
F4A5
330
F115
100
AcDbEntity
100
AcDbLine
8
METIN_BILGI
10
12000
20
-580
30
0
11
12250
21
-1000
31
0
0
TEXT
5
F4A6
330
F115
100
AcDbEntity
100
AcDbText
8
METIN_BILGI
10
12000
20
-300
30
0
40
300
1
K
50
0
7
STANDARD
72
1
11
12000
21
-300
31
0
100
AcDbText
73
2
0
LWPOLYLINE
5
F131
330
F115
100
AcDbEntity
100
AcDbPolyline
8
EKP_PANEL_ANTEN
6
ByLayer
62
256
370
-1
90
4
70
1
10
-18350
20
16650
10
-18350
20
17350
10
-17650
20
17350
10
-17650
20
16650
0
LINE
5
F132
330
F115
100
AcDbEntity
100
AcDbLine
8
EKP_PANEL_ANTEN
10
-18335
20
16665
30
0
11
-17665
21
17335
31
0
0
LINE
5
F133
330
F115
100
AcDbEntity
100
AcDbLine
8
EKP_PANEL_ANTEN
10
-18335
20
17335
30
0
11
-17665
21
16665
31
0
0
LINE
5
F134
330
F115
100
AcDbEntity
100
AcDbLine
8
EKP_PANEL_ANTEN
10
-18327
20
16665
30
0
11
-17665
21
17327
31
0
0
LINE
5
F135
330
F115
100
AcDbEntity
100
AcDbLine
8
EKP_PANEL_ANTEN
10
-18335
20
16673
30
0
11
-17673
21
17335
31
0
0
LINE
5
F136
330
F115
100
AcDbEntity
100
AcDbLine
8
EKP_PANEL_ANTEN
10
-18327
20
17335
30
0
11
-17665
21
16673
31
0
0
LINE
5
F137
330
F115
100
AcDbEntity
100
AcDbLine
8
EKP_PANEL_ANTEN
10
-18335
20
17327
30
0
11
-17673
21
16665
31
0
0
CIRCLE
5
F138
330
F115
100
AcDbEntity
100
AcDbCircle
8
EKP_PANEL_ANTEN
10
-18000
20
17000
30
0
40
18
0
LINE
5
F139
330
F115
100
AcDbEntity
100
AcDbLine
8
EKP_PANEL_ANTEN
10
-18035
20
17000
30
0
11
-17965
21
17000
31
0
0
LINE
5
F13A
330
F115
100
AcDbEntity
100
AcDbLine
8
EKP_PANEL_ANTEN
10
-18000
20
16965
30
0
11
-18000
21
17035
31
0
0
LWPOLYLINE
5
F13B
330
F115
100
AcDbEntity
100
AcDbPolyline
8
EKP_PANEL_ANTEN
6
ByLayer
62
256
370
-1
90
4
70
1
10
-18335
20
16665
10
-18335
20
17335
10
-17665
20
17335
10
-17665
20
16665
0
LINE
5
F157
330
F115
100
AcDbEntity
100
AcDbLine
8
EKP_PANEL_ANTEN
10
-11812.616702985564
20
17316.076731190387
30
0
11
-11679.680628122493
21
17183.140656327316
31
0
0
LINE
5
F158
330
F115
100
AcDbEntity
100
AcDbLine
8
EKP_PANEL_ANTEN
10
-11679.680628122493
20
17183.140656327316
30
0
11
-11703.01515190165
21
17176.776695296638
31
0
0
LINE
5
F159
330
F115
100
AcDbEntity
100
AcDbLine
8
EKP_PANEL_ANTEN
10
-11703.01515190165
20
17176.776695296638
30
0
11
-11927.168001537786
21
16927.168001537786
31
0
0
LINE
5
F15A
330
F115
100
AcDbEntity
100
AcDbLine
8
EKP_PANEL_ANTEN
10
-11927.168001537786
20
16927.168001537786
30
0
11
-12176.776695296638
21
16703.015151901647
31
0
0
LINE
5
F15B
330
F115
100
AcDbEntity
100
AcDbLine
8
EKP_PANEL_ANTEN
10
-12176.776695296638
20
16703.015151901647
30
0
11
-12183.140656327316
21
16679.680628122496
31
0
0
LINE
5
F15C
330
F115
100
AcDbEntity
100
AcDbLine
8
EKP_PANEL_ANTEN
10
-12183.140656327316
20
16679.680628122496
30
0
11
-12316.076731190387
21
16812.616702985568
31
0
0
LINE
5
F15D
330
F115
100
AcDbEntity
100
AcDbLine
8
EKP_PANEL_ANTEN
10
-12316.076731190387
20
16812.616702985568
30
0
11
-12292.74220741123
21
16827.465945390482
31
0
0
LINE
5
F15E
330
F115
100
AcDbEntity
100
AcDbLine
8
EKP_PANEL_ANTEN
10
-12292.74220741123
20
16827.465945390482
30
0
11
-11827.465945390482
21
17292.742207411233
31
0
0
LINE
5
F15F
330
F115
100
AcDbEntity
100
AcDbLine
8
EKP_PANEL_ANTEN
10
-11827.465945390482
20
17292.742207411233
30
0
11
-11812.616702985564
21
17316.076731190387
31
0
0
LINE
5
F160
330
F115
100
AcDbEntity
100
AcDbLine
8
EKP_PANEL_ANTEN
10
-11692.408550183853
20
17187.383297014436
30
0
11
-12187.383297014436
21
16692.40855018385
31
0
0
LINE
5
F19F
330
F115
100
AcDbEntity
100
AcDbLine
8
EKP_PANEL_ANTEN
10
-6350
20
16915
30
0
11
-5650
21
16915
31
0
0
LINE
5
F1A0
330
F115
100
AcDbEntity
100
AcDbLine
8
EKP_PANEL_ANTEN
10
-5650
20
16915
30
0
11
-5650
21
17085
31
0
0
LINE
5
F1A1
330
F115
100
AcDbEntity
100
AcDbLine
8
EKP_PANEL_ANTEN
10
-5650
20
17085
30
0
11
-6000
21
17103
31
0
0
LINE
5
F1A2
330
F115
100
AcDbEntity
100
AcDbLine
8
EKP_PANEL_ANTEN
10
-6000
20
17103
30
0
11
-6350
21
17085
31
0
0
LINE
5
F1A3
330
F115
100
AcDbEntity
100
AcDbLine
8
EKP_PANEL_ANTEN
10
-6350
20
17085
30
0
11
-6350
21
16915
31
0
0
LINE
5
F1A4
330
F115
100
AcDbEntity
100
AcDbLine
8
EKP_PANEL_ANTEN
10
-6000
20
17103
30
0
11
-6000
21
16915
31
0
0
LWPOLYLINE
5
F1CA
330
F115
100
AcDbEntity
100
AcDbPolyline
8
EKP_PANEL_ANTEN
6
ByLayer
62
256
370
-1
90
4
70
1
10
7650
20
16650
10
7650
20
17350
10
8350
20
17350
10
8350
20
16650
0
LINE
5
F1CB
330
F115
100
AcDbEntity
100
AcDbLine
8
EKP_PANEL_ANTEN
10
7665
20
16665
30
0
11
8335
21
17335
31
0
0
LINE
5
F1CC
330
F115
100
AcDbEntity
100
AcDbLine
8
EKP_PANEL_ANTEN
10
7665
20
17335
30
0
11
8335
21
16665
31
0
0
LINE
5
F1CD
330
F115
100
AcDbEntity
100
AcDbLine
8
EKP_PANEL_ANTEN
10
7673
20
16665
30
0
11
8335
21
17327
31
0
0
LINE
5
F1CE
330
F115
100
AcDbEntity
100
AcDbLine
8
EKP_PANEL_ANTEN
10
7665
20
16673
30
0
11
8327
21
17335
31
0
0
LINE
5
F1CF
330
F115
100
AcDbEntity
100
AcDbLine
8
EKP_PANEL_ANTEN
10
7673
20
17335
30
0
11
8335
21
16673
31
0
0
LINE
5
F1D0
330
F115
100
AcDbEntity
100
AcDbLine
8
EKP_PANEL_ANTEN
10
7665
20
17327
30
0
11
8327
21
16665
31
0
0
CIRCLE
5
F1D1
330
F115
100
AcDbEntity
100
AcDbCircle
8
EKP_PANEL_ANTEN
10
8000
20
17000
30
0
40
18
0
LINE
5
F1D2
330
F115
100
AcDbEntity
100
AcDbLine
8
EKP_PANEL_ANTEN
10
7965
20
17000
30
0
11
8035
21
17000
31
0
0
LINE
5
F1D3
330
F115
100
AcDbEntity
100
AcDbLine
8
EKP_PANEL_ANTEN
10
8000
20
16965
30
0
11
8000
21
17035
31
0
0
LWPOLYLINE
5
F1D4
330
F115
100
AcDbEntity
100
AcDbPolyline
8
EKP_PANEL_ANTEN
6
ByLayer
62
256
370
-1
90
4
70
1
10
7665
20
16665
10
7665
20
17335
10
8335
20
17335
10
8335
20
16665
0
LWPOLYLINE
5
F1F3
330
F115
100
AcDbEntity
100
AcDbPolyline
8
EKP_PANEL_ANTEN
6
ByLayer
62
256
370
-1
90
4
70
1
10
8650
20
16650
10
8650
20
17350
10
9350
20
17350
10
9350
20
16650
0
LINE
5
F1F4
330
F115
100
AcDbEntity
100
AcDbLine
8
EKP_PANEL_ANTEN
10
8665
20
16665
30
0
11
9335
21
17335
31
0
0
LINE
5
F1F5
330
F115
100
AcDbEntity
100
AcDbLine
8
EKP_PANEL_ANTEN
10
8665
20
17335
30
0
11
9335
21
16665
31
0
0
LINE
5
F1F6
330
F115
100
AcDbEntity
100
AcDbLine
8
EKP_PANEL_ANTEN
10
8673
20
16665
30
0
11
9335
21
17327
31
0
0
LINE
5
F1F7
330
F115
100
AcDbEntity
100
AcDbLine
8
EKP_PANEL_ANTEN
10
8665
20
16673
30
0
11
9327
21
17335
31
0
0
LINE
5
F1F8
330
F115
100
AcDbEntity
100
AcDbLine
8
EKP_PANEL_ANTEN
10
8673
20
17335
30
0
11
9335
21
16673
31
0
0
LINE
5
F1F9
330
F115
100
AcDbEntity
100
AcDbLine
8
EKP_PANEL_ANTEN
10
8665
20
17327
30
0
11
9327
21
16665
31
0
0
CIRCLE
5
F1FA
330
F115
100
AcDbEntity
100
AcDbCircle
8
EKP_PANEL_ANTEN
10
9000
20
17000
30
0
40
18
0
LINE
5
F1FB
330
F115
100
AcDbEntity
100
AcDbLine
8
EKP_PANEL_ANTEN
10
8965
20
17000
30
0
11
9035
21
17000
31
0
0
LINE
5
F1FC
330
F115
100
AcDbEntity
100
AcDbLine
8
EKP_PANEL_ANTEN
10
9000
20
16965
30
0
11
9000
21
17035
31
0
0
LWPOLYLINE
5
F1FD
330
F115
100
AcDbEntity
100
AcDbPolyline
8
EKP_PANEL_ANTEN
6
ByLayer
62
256
370
-1
90
4
70
1
10
8665
20
16665
10
8665
20
17335
10
9335
20
17335
10
9335
20
16665
0
LINE
5
F22F
330
F115
100
AcDbEntity
100
AcDbLine
8
EKP_PANEL_ANTEN
10
16187.383297014436
20
17316.076731190387
30
0
11
16320.319371877507
21
17183.140656327316
31
0
0
LINE
5
F230
330
F115
100
AcDbEntity
100
AcDbLine
8
EKP_PANEL_ANTEN
10
16320.319371877507
20
17183.140656327316
30
0
11
16296.98484809835
21
17176.776695296638
31
0
0
LINE
5
F231
330
F115
100
AcDbEntity
100
AcDbLine
8
EKP_PANEL_ANTEN
10
16296.98484809835
20
17176.776695296638
30
0
11
16072.831998462214
21
16927.168001537786
31
0
0
LINE
5
F232
330
F115
100
AcDbEntity
100
AcDbLine
8
EKP_PANEL_ANTEN
10
16072.831998462214
20
16927.168001537786
30
0
11
15823.223304703362
21
16703.015151901647
31
0
0
LINE
5
F233
330
F115
100
AcDbEntity
100
AcDbLine
8
EKP_PANEL_ANTEN
10
15823.223304703362
20
16703.015151901647
30
0
11
15816.859343672684
21
16679.680628122496
31
0
0
LINE
5
F234
330
F115
100
AcDbEntity
100
AcDbLine
8
EKP_PANEL_ANTEN
10
15816.859343672684
20
16679.680628122496
30
0
11
15683.923268809613
21
16812.616702985568
31
0
0
LINE
5
F235
330
F115
100
AcDbEntity
100
AcDbLine
8
EKP_PANEL_ANTEN
10
15683.923268809613
20
16812.616702985568
30
0
11
15707.25779258877
21
16827.465945390482
31
0
0
LINE
5
F236
330
F115
100
AcDbEntity
100
AcDbLine
8
EKP_PANEL_ANTEN
10
15707.25779258877
20
16827.465945390482
30
0
11
16172.534054609518
21
17292.742207411233
31
0
0
LINE
5
F237
330
F115
100
AcDbEntity
100
AcDbLine
8
EKP_PANEL_ANTEN
10
16172.534054609518
20
17292.742207411233
30
0
11
16187.383297014436
21
17316.076731190387
31
0
0
LINE
5
F238
330
F115
100
AcDbEntity
100
AcDbLine
8
EKP_PANEL_ANTEN
10
16307.591449816147
20
17187.383297014436
30
0
11
15812.616702985564
21
16692.40855018385
31
0
0
LWPOLYLINE
5
F27C
330
F115
100
AcDbEntity
100
AcDbPolyline
8
EKP_PANEL_ANTEN
6
ByLayer
62
256
370
-1
90
4
70
1
10
-8250
20
8150
10
-8250
20
8850
10
-7550
20
8850
10
-7550
20
8150
0
LINE
5
F27D
330
F115
100
AcDbEntity
100
AcDbLine
8
EKP_PANEL_ANTEN
10
-8235
20
8165
30
0
11
-7565
21
8835
31
0
0
LINE
5
F27E
330
F115
100
AcDbEntity
100
AcDbLine
8
EKP_PANEL_ANTEN
10
-8235
20
8835
30
0
11
-7565
21
8165
31
0
0
LINE
5
F27F
330
F115
100
AcDbEntity
100
AcDbLine
8
EKP_PANEL_ANTEN
10
-8227
20
8165
30
0
11
-7565
21
8827
31
0
0
LINE
5
F280
330
F115
100
AcDbEntity
100
AcDbLine
8
EKP_PANEL_ANTEN
10
-8235
20
8173
30
0
11
-7573
21
8835
31
0
0
LINE
5
F281
330
F115
100
AcDbEntity
100
AcDbLine
8
EKP_PANEL_ANTEN
10
-8227
20
8835
30
0
11
-7565
21
8173
31
0
0
LINE
5
F282
330
F115
100
AcDbEntity
100
AcDbLine
8
EKP_PANEL_ANTEN
10
-8235
20
8827
30
0
11
-7573
21
8165
31
0
0
CIRCLE
5
F283
330
F115
100
AcDbEntity
100
AcDbCircle
8
EKP_PANEL_ANTEN
10
-7900
20
8500
30
0
40
18
0
LINE
5
F284
330
F115
100
AcDbEntity
100
AcDbLine
8
EKP_PANEL_ANTEN
10
-7935
20
8500
30
0
11
-7865
21
8500
31
0
0
LINE
5
F285
330
F115
100
AcDbEntity
100
AcDbLine
8
EKP_PANEL_ANTEN
10
-7900
20
8465
30
0
11
-7900
21
8535
31
0
0
LWPOLYLINE
5
F286
330
F115
100
AcDbEntity
100
AcDbPolyline
8
EKP_PANEL_ANTEN
6
ByLayer
62
256
370
-1
90
4
70
1
10
-8235
20
8165
10
-8235
20
8835
10
-7565
20
8835
10
-7565
20
8165
0
LWPOLYLINE
5
F2A5
330
F115
100
AcDbEntity
100
AcDbPolyline
8
EKP_PANEL_ANTEN
6
ByLayer
62
256
370
-1
90
4
70
1
10
-7350
20
8150
10
-7350
20
8850
10
-6650
20
8850
10
-6650
20
8150
0
LINE
5
F2A6
330
F115
100
AcDbEntity
100
AcDbLine
8
EKP_PANEL_ANTEN
10
-7335
20
8165
30
0
11
-6665
21
8835
31
0
0
LINE
5
F2A7
330
F115
100
AcDbEntity
100
AcDbLine
8
EKP_PANEL_ANTEN
10
-7335
20
8835
30
0
11
-6665
21
8165
31
0
0
LINE
5
F2A8
330
F115
100
AcDbEntity
100
AcDbLine
8
EKP_PANEL_ANTEN
10
-7327
20
8165
30
0
11
-6665
21
8827
31
0
0
LINE
5
F2A9
330
F115
100
AcDbEntity
100
AcDbLine
8
EKP_PANEL_ANTEN
10
-7335
20
8173
30
0
11
-6673
21
8835
31
0
0
LINE
5
F2AA
330
F115
100
AcDbEntity
100
AcDbLine
8
EKP_PANEL_ANTEN
10
-7327
20
8835
30
0
11
-6665
21
8173
31
0
0
LINE
5
F2AB
330
F115
100
AcDbEntity
100
AcDbLine
8
EKP_PANEL_ANTEN
10
-7335
20
8827
30
0
11
-6673
21
8165
31
0
0
CIRCLE
5
F2AC
330
F115
100
AcDbEntity
100
AcDbCircle
8
EKP_PANEL_ANTEN
10
-7000
20
8500
30
0
40
18
0
LINE
5
F2AD
330
F115
100
AcDbEntity
100
AcDbLine
8
EKP_PANEL_ANTEN
10
-7035
20
8500
30
0
11
-6965
21
8500
31
0
0
LINE
5
F2AE
330
F115
100
AcDbEntity
100
AcDbLine
8
EKP_PANEL_ANTEN
10
-7000
20
8465
30
0
11
-7000
21
8535
31
0
0
LWPOLYLINE
5
F2AF
330
F115
100
AcDbEntity
100
AcDbPolyline
8
EKP_PANEL_ANTEN
6
ByLayer
62
256
370
-1
90
4
70
1
10
-7335
20
8165
10
-7335
20
8835
10
-6665
20
8835
10
-6665
20
8165
0
LWPOLYLINE
5
F2CE
330
F115
100
AcDbEntity
100
AcDbPolyline
8
EKP_PANEL_ANTEN
6
ByLayer
62
256
370
-1
90
4
70
1
10
-6450
20
8150
10
-6450
20
8850
10
-5750
20
8850
10
-5750
20
8150
0
LINE
5
F2CF
330
F115
100
AcDbEntity
100
AcDbLine
8
EKP_PANEL_ANTEN
10
-6435
20
8165
30
0
11
-5765
21
8835
31
0
0
LINE
5
F2D0
330
F115
100
AcDbEntity
100
AcDbLine
8
EKP_PANEL_ANTEN
10
-6435
20
8835
30
0
11
-5765
21
8165
31
0
0
LINE
5
F2D1
330
F115
100
AcDbEntity
100
AcDbLine
8
EKP_PANEL_ANTEN
10
-6427
20
8165
30
0
11
-5765
21
8827
31
0
0
LINE
5
F2D2
330
F115
100
AcDbEntity
100
AcDbLine
8
EKP_PANEL_ANTEN
10
-6435
20
8173
30
0
11
-5773
21
8835
31
0
0
LINE
5
F2D3
330
F115
100
AcDbEntity
100
AcDbLine
8
EKP_PANEL_ANTEN
10
-6427
20
8835
30
0
11
-5765
21
8173
31
0
0
LINE
5
F2D4
330
F115
100
AcDbEntity
100
AcDbLine
8
EKP_PANEL_ANTEN
10
-6435
20
8827
30
0
11
-5773
21
8165
31
0
0
CIRCLE
5
F2D5
330
F115
100
AcDbEntity
100
AcDbCircle
8
EKP_PANEL_ANTEN
10
-6100
20
8500
30
0
40
18
0
LINE
5
F2D6
330
F115
100
AcDbEntity
100
AcDbLine
8
EKP_PANEL_ANTEN
10
-6135
20
8500
30
0
11
-6065
21
8500
31
0
0
LINE
5
F2D7
330
F115
100
AcDbEntity
100
AcDbLine
8
EKP_PANEL_ANTEN
10
-6100
20
8465
30
0
11
-6100
21
8535
31
0
0
LWPOLYLINE
5
F2D8
330
F115
100
AcDbEntity
100
AcDbPolyline
8
EKP_PANEL_ANTEN
6
ByLayer
62
256
370
-1
90
4
70
1
10
-6435
20
8165
10
-6435
20
8835
10
-5765
20
8835
10
-5765
20
8165
0
LINE
5
F30A
330
F115
100
AcDbEntity
100
AcDbLine
8
EKP_PANEL_ANTEN
10
2792.03587054225
20
8739.833177397182
30
0
11
3449.820705092386
21
8500.419077069213
31
0
0
LINE
5
F30B
330
F115
100
AcDbEntity
100
AcDbLine
8
EKP_PANEL_ANTEN
10
3449.820705092386
20
8500.419077069213
30
0
11
3507.96412945775
21
8660.166822602818
31
0
0
LINE
5
F30C
330
F115
100
AcDbEntity
100
AcDbLine
8
EKP_PANEL_ANTEN
10
3507.96412945775
20
8660.166822602818
30
0
11
3185.2280747625437
21
8796.78833994095
31
0
0
LINE
5
F30D
330
F115
100
AcDbEntity
100
AcDbLine
8
EKP_PANEL_ANTEN
10
3185.2280747625437
20
8796.78833994095
30
0
11
2850.179294907614
21
8899.580922930787
31
0
0
LINE
5
F30E
330
F115
100
AcDbEntity
100
AcDbLine
8
EKP_PANEL_ANTEN
10
2850.179294907614
20
8899.580922930787
30
0
11
2792.03587054225
21
8739.833177397182
31
0
0
LINE
5
F30F
330
F115
100
AcDbEntity
100
AcDbLine
8
EKP_PANEL_ANTEN
10
3185.2280747625437
20
8796.78833994095
30
0
11
3120.928287817318
21
8620.126127233198
31
0
0
LINE
5
F330
330
F115
100
AcDbEntity
100
AcDbLine
8
EKP_PANEL_ANTEN
10
3650
20
8415
30
0
11
4350
21
8415
31
0
0
LINE
5
F331
330
F115
100
AcDbEntity
100
AcDbLine
8
EKP_PANEL_ANTEN
10
4350
20
8415
30
0
11
4350
21
8585
31
0
0
LINE
5
F332
330
F115
100
AcDbEntity
100
AcDbLine
8
EKP_PANEL_ANTEN
10
4350
20
8585
30
0
11
4000
21
8603
31
0
0
LINE
5
F333
330
F115
100
AcDbEntity
100
AcDbLine
8
EKP_PANEL_ANTEN
10
4000
20
8603
30
0
11
3650
21
8585
31
0
0
LINE
5
F334
330
F115
100
AcDbEntity
100
AcDbLine
8
EKP_PANEL_ANTEN
10
3650
20
8585
30
0
11
3650
21
8415
31
0
0
LINE
5
F335
330
F115
100
AcDbEntity
100
AcDbLine
8
EKP_PANEL_ANTEN
10
4000
20
8603
30
0
11
4000
21
8415
31
0
0
LINE
5
F356
330
F115
100
AcDbEntity
100
AcDbLine
8
EKP_PANEL_ANTEN
10
4550.179294907614
20
8500.419077069213
30
0
11
5207.96412945775
21
8739.833177397182
31
0
0
LINE
5
F357
330
F115
100
AcDbEntity
100
AcDbLine
8
EKP_PANEL_ANTEN
10
5207.96412945775
20
8739.833177397182
30
0
11
5149.820705092386
21
8899.580922930787
31
0
0
LINE
5
F358
330
F115
100
AcDbEntity
100
AcDbLine
8
EKP_PANEL_ANTEN
10
5149.820705092386
20
8899.580922930787
30
0
11
4814.771925237456
21
8796.78833994095
31
0
0
LINE
5
F359
330
F115
100
AcDbEntity
100
AcDbLine
8
EKP_PANEL_ANTEN
10
4814.771925237456
20
8796.78833994095
30
0
11
4492.03587054225
21
8660.166822602818
31
0
0
LINE
5
F35A
330
F115
100
AcDbEntity
100
AcDbLine
8
EKP_PANEL_ANTEN
10
4492.03587054225
20
8660.166822602818
30
0
11
4550.179294907614
21
8500.419077069213
31
0
0
LINE
5
F35B
330
F115
100
AcDbEntity
100
AcDbLine
8
EKP_PANEL_ANTEN
10
4814.771925237456
20
8796.78833994095
30
0
11
4879.071712182682
21
8620.126127233198
31
0
0
LINE
5
F37E
330
F115
100
AcDbEntity
100
AcDbLine
8
EKP_PANEL_ANTEN
10
-13812.616702985564
20
316.07673119038674
30
0
11
-13679.680628122493
21
183.1406563273158
31
0
0
LINE
5
F37F
330
F115
100
AcDbEntity
100
AcDbLine
8
EKP_PANEL_ANTEN
10
-13679.680628122493
20
183.1406563273158
30
0
11
-13703.01515190165
21
176.7766952966369
31
0
0
LINE
5
F380
330
F115
100
AcDbEntity
100
AcDbLine
8
EKP_PANEL_ANTEN
10
-13703.01515190165
20
176.7766952966369
30
0
11
-13927.168001537786
21
-72.83199846221439
31
0
0
LINE
5
F381
330
F115
100
AcDbEntity
100
AcDbLine
8
EKP_PANEL_ANTEN
10
-13927.168001537786
20
-72.83199846221439
30
0
11
-14176.776695296638
21
-296.98484809834997
31
0
0
LINE
5
F382
330
F115
100
AcDbEntity
100
AcDbLine
8
EKP_PANEL_ANTEN
10
-14176.776695296638
20
-296.98484809834997
30
0
11
-14183.140656327316
21
-320.31937187750606
31
0
0
LINE
5
F383
330
F115
100
AcDbEntity
100
AcDbLine
8
EKP_PANEL_ANTEN
10
-14183.140656327316
20
-320.31937187750606
30
0
11
-14316.076731190387
21
-187.38329701443513
31
0
0
LINE
5
F384
330
F115
100
AcDbEntity
100
AcDbLine
8
EKP_PANEL_ANTEN
10
-14316.076731190387
20
-187.38329701443513
30
0
11
-14292.74220741123
21
-172.5340546095176
31
0
0
LINE
5
F385
330
F115
100
AcDbEntity
100
AcDbLine
8
EKP_PANEL_ANTEN
10
-14292.74220741123
20
-172.5340546095176
30
0
11
-13827.465945390482
21
292.74220741123065
31
0
0
LINE
5
F386
330
F115
100
AcDbEntity
100
AcDbLine
8
EKP_PANEL_ANTEN
10
-13827.465945390482
20
292.74220741123065
30
0
11
-13812.616702985564
21
316.07673119038674
31
0
0
LINE
5
F387
330
F115
100
AcDbEntity
100
AcDbLine
8
EKP_PANEL_ANTEN
10
-13692.408550183853
20
187.3832970144351
30
0
11
-14187.383297014436
21
-307.59144981614816
31
0
0
LINE
5
F3C6
330
F115
100
AcDbEntity
100
AcDbLine
8
EKP_PANEL_ANTEN
10
-3812.616702985565
20
316.07673119038674
30
0
11
-3679.6806281224935
21
183.1406563273158
31
0
0
LINE
5
F3C7
330
F115
100
AcDbEntity
100
AcDbLine
8
EKP_PANEL_ANTEN
10
-3679.6806281224935
20
183.1406563273158
30
0
11
-3703.01515190165
21
176.7766952966369
31
0
0
LINE
5
F3C8
330
F115
100
AcDbEntity
100
AcDbLine
8
EKP_PANEL_ANTEN
10
-3703.01515190165
20
176.7766952966369
30
0
11
-3927.1680015377856
21
-72.83199846221439
31
0
0
LINE
5
F3C9
330
F115
100
AcDbEntity
100
AcDbLine
8
EKP_PANEL_ANTEN
10
-3927.1680015377856
20
-72.83199846221439
30
0
11
-4176.776695296637
21
-296.98484809834997
31
0
0
LINE
5
F3CA
330
F115
100
AcDbEntity
100
AcDbLine
8
EKP_PANEL_ANTEN
10
-4176.776695296637
20
-296.98484809834997
30
0
11
-4183.140656327316
21
-320.31937187750606
31
0
0
LINE
5
F3CB
330
F115
100
AcDbEntity
100
AcDbLine
8
EKP_PANEL_ANTEN
10
-4183.140656327316
20
-320.31937187750606
30
0
11
-4316.076731190386
21
-187.38329701443513
31
0
0
LINE
5
F3CC
330
F115
100
AcDbEntity
100
AcDbLine
8
EKP_PANEL_ANTEN
10
-4316.076731190386
20
-187.38329701443513
30
0
11
-4292.742207411231
21
-172.5340546095176
31
0
0
LINE
5
F3CD
330
F115
100
AcDbEntity
100
AcDbLine
8
EKP_PANEL_ANTEN
10
-4292.742207411231
20
-172.5340546095176
30
0
11
-3827.4659453904824
21
292.74220741123065
31
0
0
LINE
5
F3CE
330
F115
100
AcDbEntity
100
AcDbLine
8
EKP_PANEL_ANTEN
10
-3827.4659453904824
20
292.74220741123065
30
0
11
-3812.616702985565
21
316.07673119038674
31
0
0
LINE
5
F3CF
330
F115
100
AcDbEntity
100
AcDbLine
8
EKP_PANEL_ANTEN
10
-3692.4085501838517
20
187.3832970144351
30
0
11
-4187.383297014435
21
-307.59144981614816
31
0
0
LINE
5
F40D
330
F115
100
AcDbEntity
100
AcDbLine
8
EKP_PANEL_ANTEN
10
5687.383297014435
20
316.07673119038674
30
0
11
5820.319371877506
21
183.1406563273158
31
0
0
LINE
5
F40E
330
F115
100
AcDbEntity
100
AcDbLine
8
EKP_PANEL_ANTEN
10
5820.319371877506
20
183.1406563273158
30
0
11
5796.98484809835
21
176.7766952966369
31
0
0
LINE
5
F40F
330
F115
100
AcDbEntity
100
AcDbLine
8
EKP_PANEL_ANTEN
10
5796.98484809835
20
176.7766952966369
30
0
11
5572.831998462214
21
-72.83199846221439
31
0
0
LINE
5
F410
330
F115
100
AcDbEntity
100
AcDbLine
8
EKP_PANEL_ANTEN
10
5572.831998462214
20
-72.83199846221439
30
0
11
5323.223304703363
21
-296.98484809834997
31
0
0
LINE
5
F411
330
F115
100
AcDbEntity
100
AcDbLine
8
EKP_PANEL_ANTEN
10
5323.223304703363
20
-296.98484809834997
30
0
11
5316.859343672684
21
-320.31937187750606
31
0
0
LINE
5
F412
330
F115
100
AcDbEntity
100
AcDbLine
8
EKP_PANEL_ANTEN
10
5316.859343672684
20
-320.31937187750606
30
0
11
5183.923268809614
21
-187.38329701443513
31
0
0
LINE
5
F413
330
F115
100
AcDbEntity
100
AcDbLine
8
EKP_PANEL_ANTEN
10
5183.923268809614
20
-187.38329701443513
30
0
11
5207.257792588769
21
-172.5340546095176
31
0
0
LINE
5
F414
330
F115
100
AcDbEntity
100
AcDbLine
8
EKP_PANEL_ANTEN
10
5207.257792588769
20
-172.5340546095176
30
0
11
5672.534054609518
21
292.74220741123065
31
0
0
LINE
5
F415
330
F115
100
AcDbEntity
100
AcDbLine
8
EKP_PANEL_ANTEN
10
5672.534054609518
20
292.74220741123065
30
0
11
5687.383297014435
21
316.07673119038674
31
0
0
LINE
5
F416
330
F115
100
AcDbEntity
100
AcDbLine
8
EKP_PANEL_ANTEN
10
5807.591449816148
20
187.3832970144351
30
0
11
5312.616702985565
21
-307.59144981614816
31
0
0
ENDSEC
0
SECTION
2
OBJECTS
0
DICTIONARY
5
F103
330
0
100
AcDbDictionary
281
1
3
ACAD_GROUP
350
F119
0
DICTIONARY
5
F119
330
F103
100
AcDbDictionary
281
1
0
ENDSEC
0
EOF