0
SECTION
2
HEADER
9
$HANDSEED
5
11DA8
9
$INSUNITS
70
4
9
$ACADVER
1
AC1021
9
$DWGCODEPAGE
3
UTF-8
0
ENDSEC
0
SECTION
2
CLASSES
0
ENDSEC
0
SECTION
2
TABLES
0
TABLE
2
LTYPE
5
11DA6
330
0
100
AcDbSymbolTable
70
5
0
LTYPE
5
11B91
330
11DA6
100
AcDbSymbolTableRecord
100
AcDbLinetypeTableRecord
2
CONTINUOUS
3
______
70
0
72
65
73
0
40
0
0
LTYPE
5
11B92
330
11DA6
100
AcDbSymbolTableRecord
100
AcDbLinetypeTableRecord
2
DASHED
3
_ _ _ 
70
0
72
65
73
2
40
10
49
5
74
0
49
-5
74
0
0
LTYPE
5
11B93
330
11DA6
100
AcDbSymbolTableRecord
100
AcDbLinetypeTableRecord
2
DOTTED
3
. . . 
70
0
72
65
73
2
40
5
49
0
74
0
49
-5
74
0
0
LTYPE
5
11B95
330
11DA6
100
AcDbSymbolTableRecord
100
AcDbLinetypeTableRecord
2
ByBlock
3

70
0
72
65
73
0
40
0
0
LTYPE
5
11B96
330
11DA6
100
AcDbSymbolTableRecord
100
AcDbLinetypeTableRecord
2
ByLayer
3

70
0
72
65
73
0
40
0
0
ENDTAB
0
TABLE
2
LAYER
5
11DA7
330
0
100
AcDbSymbolTable
70
21
0
LAYER
5
11B94
330
11DA7
100
AcDbSymbolTableRecord
100
AcDbLayerTableRecord
2
0
62
7
70
0
6
CONTINUOUS
390
1
0
LAYER
5
11BA7
330
11DA7
100
AcDbSymbolTableRecord
100
AcDbLayerTableRecord
2
ZEMIN_PLATFORM
62
8
70
0
6
CONTINUOUS
390
1
0
LAYER
5
11BA8
330
11DA7
100
AcDbSymbolTableRecord
100
AcDbLayerTableRecord
2
KORKULUK_KAPI
62
4
70
0
6
CONTINUOUS
390
1
0
LAYER
5
11BA9
330
11DA7
100
AcDbSymbolTableRecord
100
AcDbLayerTableRecord
2
CELIK_KIRIS_KOLON
62
9
70
0
6
CONTINUOUS
390
1
0
LAYER
5
11BAA
330
11DA7
100
AcDbSymbolTableRecord
100
AcDbLayerTableRecord
2
MONTAJ_BORULARI
62
2
70
0
6
CONTINUOUS
390
1
0
LAYER
5
11BAB
330
11DA7
100
AcDbSymbolTableRecord
100
AcDbLayerTableRecord
2
KABLO_TAVALARI
62
6
70
0
6
CONTINUOUS
390
1
0
LAYER
5
11BAC
330
11DA7
100
AcDbSymbolTableRecord
100
AcDbLayerTableRecord
2
YURUYUS_KORIDORU
62
3
70
0
6
DASHED
390
1
0
LAYER
5
11BAD
330
11DA7
100
AcDbSymbolTableRecord
100
AcDbLayerTableRecord
2
OLCULER
62
1
70
0
6
CONTINUOUS
390
1
0
LAYER
5
11BAE
330
11DA7
100
AcDbSymbolTableRecord
100
AcDbLayerTableRecord
2
METIN_BILGI
62
7
70
0
6
CONTINUOUS
390
1
0
LAYER
5
11BAF
330
11DA7
100
AcDbSymbolTableRecord
100
AcDbLayerTableRecord
2
EKP_TURKCELL_RRU
62
5
70
0
6
CONTINUOUS
390
1
0
LAYER
5
11BB0
330
11DA7
100
AcDbSymbolTableRecord
100
AcDbLayerTableRecord
2
EKP_VODAFONE_RRU
62
1
70
0
6
CONTINUOUS
390
1
0
LAYER
5
11BB1
330
11DA7
100
AcDbSymbolTableRecord
100
AcDbLayerTableRecord
2
EKP_TURK_TELEKOM_RRU
62
4
70
0
6
CONTINUOUS
390
1
0
LAYER
5
11BB2
330
11DA7
100
AcDbSymbolTableRecord
100
AcDbLayerTableRecord
2
EKP_POI_TASIYICI_SASE
62
30
70
0
6
CONTINUOUS
390
1
0
LAYER
5
11BB3
330
11DA7
100
AcDbSymbolTableRecord
100
AcDbLayerTableRecord
2
EKP_POI_MODULLERI
62
40
70
0
6
CONTINUOUS
390
1
0
LAYER
5
11BB4
330
11DA7
100
AcDbSymbolTableRecord
100
AcDbLayerTableRecord
2
EKP_RECTIFIER_ELTEK_20U
62
3
70
0
6
CONTINUOUS
390
1
0
LAYER
5
11BB5
330
11DA7
100
AcDbSymbolTableRecord
100
AcDbLayerTableRecord
2
EKP_RECTIFIER_MTS9304A
62
94
70
0
6
CONTINUOUS
390
1
0
LAYER
5
11BB6
330
11DA7
100
AcDbSymbolTableRecord
100
AcDbLayerTableRecord
2
BLOK_OZEL_PLATFORM
62
140
70
0
6
CONTINUOUS
390
1
0
LAYER
5
11BB7
330
11DA7
100
AcDbSymbolTableRecord
100
AcDbLayerTableRecord
2
EKP_MATSING_ANTEN
62
2
70
0
6
CONTINUOUS
390
1
0
LAYER
5
11BB8
330
11DA7
100
AcDbSymbolTableRecord
100
AcDbLayerTableRecord
2
EKP_PANEL_ANTEN
62
6
70
0
6
CONTINUOUS
390
1
0
LAYER
5
11BB9
330
11DA7
100
AcDbSymbolTableRecord
100
AcDbLayerTableRecord
2
EKP_ANTEN_TASIYICI_KOL
62
141
70
0
6
CONTINUOUS
390
1
0
LAYER
5
11BBA
330
11DA7
100
AcDbSymbolTableRecord
100
AcDbLayerTableRecord
2
EKP_DIGER_EKIPMANLAR
62
7
70
0
6
CONTINUOUS
390
1
0
ENDTAB
0
TABLE
2
VPORT
5
11B97
330
0
100
AcDbSymbolTable
70
1
0
VPORT
5
11B9D
330
11B97
100
AcDbSymbolTableRecord
100
AcDbViewportTableRecord
2
*ACTIVE
40
1000
70
0
0
ENDTAB
0
TABLE
2
STYLE
5
11B98
330
0
100
AcDbSymbolTable
70
3
0
STYLE
5
11B9E
330
11B98
100
AcDbSymbolTableRecord
100
AcDbTextStyleTableRecord
2
standard
70
0
40
0
41
1
50
0
71
0
42
1
3
calibrib.ttf
4

1001
ACAD
1000
Calibri
1071
33554466
0
STYLE
5
11B9F
330
11B98
100
AcDbSymbolTableRecord
100
AcDbTextStyleTableRecord
2
STANDARD
70
0
40
0
41
1
50
0
71
0
42
1
3
calibrib.ttf
4

1001
ACAD
1000
Calibri
1071
33554466
0
STYLE
5
11BA0
330
11B98
100
AcDbSymbolTableRecord
100
AcDbTextStyleTableRecord
2
CALIBRI_BOLD
70
0
40
0
41
1
50
0
71
0
42
1
3
calibrib.ttf
4

1001
ACAD
1000
Calibri
1071
33554466
0
ENDTAB
0
TABLE
2
VIEW
5
11B99
330
0
100
AcDbSymbolTable
70
0
0
ENDTAB
0
TABLE
2
UCS
5
11B9A
330
0
100
AcDbSymbolTable
70
0
0
ENDTAB
0
TABLE
2
APPID
5
11B9B
330
0
100
AcDbSymbolTable
70
1
0
APPID
5
11BA1
330
11B9B
100
AcDbSymbolTableRecord
100
AcDbRegAppTableRecord
2
ACAD
70
0
0
ENDTAB
0
TABLE
2
DIMSTYLE
5
11B9C
330
0
100
AcDbSymbolTable
100
AcDbDimStyleTable
70
0
71
1
0
ENDTAB
0
TABLE
2
BLOCK_RECORD
5
11DA3
330
0
100
AcDbSymbolTable
70
2
0
BLOCK_RECORD
5
11DA4
330
11DA3
100
AcDbSymbolTableRecord
100
AcDbBlockTableRecord
2
*Model_Space
70
0
280
0
281
1
0
BLOCK_RECORD
5
11DA5
330
11DA3
100
AcDbSymbolTableRecord
100
AcDbBlockTableRecord
2
*Paper_Space
70
0
280
0
281
1
0
ENDTAB
0
ENDSEC
0
SECTION
2
BLOCKS
0
BLOCK
5
11BA2
330
0
100
AcDbEntity
100
AcDbBlockBegin
2
*Model_Space
70
0
10
0
20
0
30
0
3
*Model_Space
1

0
ENDBLK
5
11BA3
330
0
100
AcDbEntity
100
AcDbBlockEnd
0
BLOCK
5
11BA4
330
0
100
AcDbEntity
100
AcDbBlockBegin
2
*Paper_Space
70
0
10
0
20
0
30
0
3
*Paper_Space
1

0
ENDBLK
5
11BA5
330
0
100
AcDbEntity
100
AcDbBlockEnd
0
ENDSEC
0
SECTION
2
ENTITIES
0
LWPOLYLINE
5
11BC4
330
11BA2
100
AcDbEntity
100
AcDbPolyline
8
ZEMIN_PLATFORM
6
ByLayer
62
256
370
-1
90
4
70
1
10
-1850
20
1350
10
-1850
20
1385
10
-850
20
1385
10
-850
20
1350
0
LINE
5
11BC5
330
11BA2
100
AcDbEntity
100
AcDbLine
8
ZEMIN_PLATFORM
10
-1800
20
1350
30
0
11
-1800
21
1385
31
0
0
LINE
5
11BC6
330
11BA2
100
AcDbEntity
100
AcDbLine
8
ZEMIN_PLATFORM
10
-1750
20
1350
30
0
11
-1750
21
1385
31
0
0
LINE
5
11BC7
330
11BA2
100
AcDbEntity
100
AcDbLine
8
ZEMIN_PLATFORM
10
-1700
20
1350
30
0
11
-1700
21
1385
31
0
0
LINE
5
11BC8
330
11BA2
100
AcDbEntity
100
AcDbLine
8
ZEMIN_PLATFORM
10
-1650
20
1350
30
0
11
-1650
21
1385
31
0
0
LINE
5
11BC9
330
11BA2
100
AcDbEntity
100
AcDbLine
8
ZEMIN_PLATFORM
10
-1600
20
1350
30
0
11
-1600
21
1385
31
0
0
LINE
5
11BCA
330
11BA2
100
AcDbEntity
100
AcDbLine
8
ZEMIN_PLATFORM
10
-1550
20
1350
30
0
11
-1550
21
1385
31
0
0
LINE
5
11BCB
330
11BA2
100
AcDbEntity
100
AcDbLine
8
ZEMIN_PLATFORM
10
-1500
20
1350
30
0
11
-1500
21
1385
31
0
0
LINE
5
11BCC
330
11BA2
100
AcDbEntity
100
AcDbLine
8
ZEMIN_PLATFORM
10
-1450
20
1350
30
0
11
-1450
21
1385
31
0
0
LINE
5
11BCD
330
11BA2
100
AcDbEntity
100
AcDbLine
8
ZEMIN_PLATFORM
10
-1400
20
1350
30
0
11
-1400
21
1385
31
0
0
LINE
5
11BCE
330
11BA2
100
AcDbEntity
100
AcDbLine
8
ZEMIN_PLATFORM
10
-1350
20
1350
30
0
11
-1350
21
1385
31
0
0
LINE
5
11BCF
330
11BA2
100
AcDbEntity
100
AcDbLine
8
ZEMIN_PLATFORM
10
-1300
20
1350
30
0
11
-1300
21
1385
31
0
0
LINE
5
11BD0
330
11BA2
100
AcDbEntity
100
AcDbLine
8
ZEMIN_PLATFORM
10
-1250
20
1350
30
0
11
-1250
21
1385
31
0
0
LINE
5
11BD1
330
11BA2
100
AcDbEntity
100
AcDbLine
8
ZEMIN_PLATFORM
10
-1200
20
1350
30
0
11
-1200
21
1385
31
0
0
LINE
5
11BD2
330
11BA2
100
AcDbEntity
100
AcDbLine
8
ZEMIN_PLATFORM
10
-1150
20
1350
30
0
11
-1150
21
1385
31
0
0
LINE
5
11BD3
330
11BA2
100
AcDbEntity
100
AcDbLine
8
ZEMIN_PLATFORM
10
-1100
20
1350
30
0
11
-1100
21
1385
31
0
0
LINE
5
11BD4
330
11BA2
100
AcDbEntity
100
AcDbLine
8
ZEMIN_PLATFORM
10
-1050
20
1350
30
0
11
-1050
21
1385
31
0
0
LINE
5
11BD5
330
11BA2
100
AcDbEntity
100
AcDbLine
8
ZEMIN_PLATFORM
10
-1000
20
1350
30
0
11
-1000
21
1385
31
0
0
LINE
5
11BD6
330
11BA2
100
AcDbEntity
100
AcDbLine
8
ZEMIN_PLATFORM
10
-950
20
1350
30
0
11
-950
21
1385
31
0
0
LINE
5
11BD7
330
11BA2
100
AcDbEntity
100
AcDbLine
8
ZEMIN_PLATFORM
10
-900
20
1350
30
0
11
-900
21
1385
31
0
0
LINE
5
11C45
330
11BA2
100
AcDbEntity
100
AcDbLine
8
ZEMIN_PLATFORM
10
200
20
1350
30
0
11
2350
21
1350
31
0
0
LWPOLYLINE
5
11BDB
330
11BA2
100
AcDbEntity
100
AcDbPolyline
8
KORKULUK_KAPI
6
ByLayer
62
256
370
-1
90
4
70
1
10
-1855
20
1385
10
-1855
20
2485
10
-1815
20
2485
10
-1815
20
1385
0
CIRCLE
5
11BDC
330
11BA2
100
AcDbEntity
100
AcDbCircle
8
KORKULUK_KAPI
10
-1835
20
2485
30
0
40
22
0
LWPOLYLINE
5
11BDD
330
11BA2
100
AcDbEntity
100
AcDbPolyline
8
KORKULUK_KAPI
6
ByLayer
62
256
370
-1
90
4
70
1
10
-1850
20
1935
10
-1850
20
1960
10
-1820
20
1960
10
-1820
20
1935
0
LWPOLYLINE
5
11BDE
330
11BA2
100
AcDbEntity
100
AcDbPolyline
8
KORKULUK_KAPI
6
ByLayer
62
256
370
-1
90
4
70
1
10
-1850
20
1385
10
-1850
20
1535
10
-1835
20
1535
10
-1835
20
1385
0
LWPOLYLINE
5
11BDF
330
11BA2
100
AcDbEntity
100
AcDbPolyline
8
KORKULUK_KAPI
6
ByLayer
62
256
370
-1
90
4
70
1
10
-885
20
1385
10
-885
20
2485
10
-845
20
2485
10
-845
20
1385
0
CIRCLE
5
11BE0
330
11BA2
100
AcDbEntity
100
AcDbCircle
8
KORKULUK_KAPI
10
-865
20
2485
30
0
40
22
0
LWPOLYLINE
5
11BE1
330
11BA2
100
AcDbEntity
100
AcDbPolyline
8
KORKULUK_KAPI
6
ByLayer
62
256
370
-1
90
4
70
1
10
-875
20
1935
10
-875
20
1960
10
-845
20
1960
10
-845
20
1935
0
LWPOLYLINE
5
11BE2
330
11BA2
100
AcDbEntity
100
AcDbPolyline
8
KORKULUK_KAPI
6
ByLayer
62
256
370
-1
90
4
70
1
10
-860
20
1385
10
-860
20
1535
10
-845
20
1535
10
-845
20
1385
0
LWPOLYLINE
5
11BD8
330
11BA2
100
AcDbEntity
100
AcDbPolyline
8
CELIK_KIRIS_KOLON
6
ByLayer
62
256
370
-1
90
4
70
1
10
-1850
20
1230
10
-1850
20
1350
10
-1795
20
1350
10
-1795
20
1230
0
LWPOLYLINE
5
11BD9
330
11BA2
100
AcDbEntity
100
AcDbPolyline
8
CELIK_KIRIS_KOLON
6
ByLayer
62
256
370
-1
90
4
70
1
10
-905
20
1230
10
-905
20
1350
10
-850
20
1350
10
-850
20
1230
0
LWPOLYLINE
5
11BDA
330
11BA2
100
AcDbEntity
100
AcDbPolyline
8
CELIK_KIRIS_KOLON
6
ByLayer
62
256
370
-1
90
4
70
1
10
-1795
20
1250
10
-1795
20
1275
10
-905
20
1275
10
-905
20
1250
0
LINE
5
11BE3
330
11BA2
100
AcDbEntity
100
AcDbLine
8
CELIK_KIRIS_KOLON
10
-2098.2400954600307
20
1184.4022638948502
30
0
11
-2418.2400954600307
21
2584.40226389485
31
0
0
LINE
5
11BE4
330
11BA2
100
AcDbEntity
100
AcDbLine
8
CELIK_KIRIS_KOLON
10
-1961.7599045399693
20
1215.5977361051498
30
0
11
-2281.7599045399693
21
2615.59773610515
31
0
0
CIRCLE
5
11BE6
330
11BA2
100
AcDbEntity
100
AcDbCircle
8
CELIK_KIRIS_KOLON
10
-2030
20
1200
30
0
40
175
0
CIRCLE
5
11BE7
330
11BA2
100
AcDbEntity
100
AcDbCircle
8
CELIK_KIRIS_KOLON
10
-2030
20
1200
30
0
40
165
0
LWPOLYLINE
5
11C22
330
11BA2
100
AcDbEntity
100
AcDbPolyline
8
CELIK_KIRIS_KOLON
6
ByLayer
62
256
370
-1
90
4
70
1
10
-1670
20
1150
10
-1670
20
1170
10
-1130
20
1170
10
-1130
20
1150
0
CIRCLE
5
11CA7
330
11BA2
100
AcDbEntity
100
AcDbCircle
8
CELIK_KIRIS_KOLON
10
-1980
20
450
30
0
40
70
0
CIRCLE
5
11CA8
330
11BA2
100
AcDbEntity
100
AcDbCircle
8
CELIK_KIRIS_KOLON
10
-1980
20
450
30
0
40
62
0
LWPOLYLINE
5
11BE9
330
11BA2
100
AcDbEntity
100
AcDbPolyline
8
MONTAJ_BORULARI
6
ByLayer
62
256
370
-1
90
4
70
1
10
-2291
20
1920
10
-2291
20
2020
10
-2121
20
2020
10
-2121
20
1920
0
CIRCLE
5
11BEA
330
11BA2
100
AcDbEntity
100
AcDbCircle
8
MONTAJ_BORULARI
10
-2206
20
1970
30
0
40
75
0
LWPOLYLINE
5
11BEB
330
11BA2
100
AcDbEntity
100
AcDbPolyline
8
MONTAJ_BORULARI
6
ByLayer
62
256
370
-1
90
4
70
1
10
-2316
20
1985
10
-2316
20
2005
10
-2291
20
2005
10
-2291
20
1985
0
LWPOLYLINE
5
11BEC
330
11BA2
100
AcDbEntity
100
AcDbPolyline
8
MONTAJ_BORULARI
6
ByLayer
62
256
370
-1
90
4
70
1
10
-2316
20
1935
10
-2316
20
1955
10
-2291
20
1955
10
-2291
20
1935
0
LWPOLYLINE
5
11BED
330
11BA2
100
AcDbEntity
100
AcDbPolyline
8
MONTAJ_BORULARI
6
ByLayer
62
256
370
-1
90
4
70
1
10
-2131
20
1940
10
-2131
20
2000
10
-1931
20
2000
10
-1931
20
1940
0
LINE
5
11BEE
330
11BA2
100
AcDbEntity
100
AcDbLine
8
MONTAJ_BORULARI
10
-2131
20
2000
30
0
11
-2051
21
2000
31
0
0
LINE
5
11BEF
330
11BA2
100
AcDbEntity
100
AcDbLine
8
MONTAJ_BORULARI
10
-2131
20
2000
30
0
11
-2131
21
2060
31
0
0
LINE
5
11BF0
330
11BA2
100
AcDbEntity
100
AcDbLine
8
MONTAJ_BORULARI
10
-2131
20
2060
30
0
11
-2051
21
2000
31
0
0
LINE
5
11BF1
330
11BA2
100
AcDbEntity
100
AcDbLine
8
MONTAJ_BORULARI
10
-2131
20
1940
30
0
11
-2051
21
1940
31
0
0
LINE
5
11BF2
330
11BA2
100
AcDbEntity
100
AcDbLine
8
MONTAJ_BORULARI
10
-2131
20
1940
30
0
11
-2131
21
1880
31
0
0
LINE
5
11BF3
330
11BA2
100
AcDbEntity
100
AcDbLine
8
MONTAJ_BORULARI
10
-2131
20
1880
30
0
11
-2051
21
1940
31
0
0
CIRCLE
5
11BF4
330
11BA2
100
AcDbEntity
100
AcDbCircle
8
MONTAJ_BORULARI
10
-1921
20
1970
30
0
40
30.15
0
CIRCLE
5
11BF5
330
11BA2
100
AcDbEntity
100
AcDbCircle
8
MONTAJ_BORULARI
10
-1921
20
1970
30
0
40
26
0
LWPOLYLINE
5
11BF6
330
11BA2
100
AcDbEntity
100
AcDbPolyline
8
MONTAJ_BORULARI
6
ByLayer
62
256
370
-1
90
4
70
1
10
-1961
20
1925
10
-1961
20
2015
10
-1951
20
2015
10
-1951
20
1925
0
LWPOLYLINE
5
11BF7
330
11BA2
100
AcDbEntity
100
AcDbPolyline
8
MONTAJ_BORULARI
6
ByLayer
62
256
370
-1
90
4
70
1
10
-1971
20
1935
10
-1971
20
2005
10
-1901
20
2005
10
-1901
20
1935
0
LWPOLYLINE
5
11C06
330
11BA2
100
AcDbEntity
100
AcDbPolyline
8
MONTAJ_BORULARI
6
ByLayer
62
256
370
-1
90
4
70
1
10
-1837.85
20
1695
10
-1837.85
20
1730
10
-1813.85
20
1730
10
-1813.85
20
1695
0
LWPOLYLINE
5
11C09
330
11BA2
100
AcDbEntity
100
AcDbPolyline
8
MONTAJ_BORULARI
6
ByLayer
62
256
370
-1
90
4
70
1
10
-1787.85
20
1695
10
-1787.85
20
1730
10
-1763.85
20
1730
10
-1763.85
20
1695
0
LWPOLYLINE
5
11C0C
330
11BA2
100
AcDbEntity
100
AcDbPolyline
8
MONTAJ_BORULARI
6
ByLayer
62
256
370
-1
90
4
70
1
10
-1737.85
20
1695
10
-1737.85
20
1730
10
-1713.85
20
1730
10
-1713.85
20
1695
0
LWPOLYLINE
5
11C0F
330
11BA2
100
AcDbEntity
100
AcDbPolyline
8
MONTAJ_BORULARI
6
ByLayer
62
256
370
-1
90
4
70
1
10
-1687.85
20
1695
10
-1687.85
20
1730
10
-1663.85
20
1730
10
-1663.85
20
1695
0
LWPOLYLINE
5
11C12
330
11BA2
100
AcDbEntity
100
AcDbPolyline
8
MONTAJ_BORULARI
6
ByLayer
62
256
370
-1
90
4
70
1
10
-1637.85
20
1695
10
-1637.85
20
1730
10
-1613.85
20
1730
10
-1613.85
20
1695
0
LWPOLYLINE
5
11C15
330
11BA2
100
AcDbEntity
100
AcDbPolyline
8
MONTAJ_BORULARI
6
ByLayer
62
256
370
-1
90
4
70
1
10
-1587.85
20
1695
10
-1587.85
20
1730
10
-1563.85
20
1730
10
-1563.85
20
1695
0
LWPOLYLINE
5
11C47
330
11BA2
100
AcDbEntity
100
AcDbPolyline
8
MONTAJ_BORULARI
6
ByLayer
62
256
370
-1
90
4
70
1
10
669.85
20
1450
10
669.85
20
4350
10
730.15
20
4350
10
730.15
20
1450
0
LWPOLYLINE
5
11C48
330
11BA2
100
AcDbEntity
100
AcDbPolyline
8
MONTAJ_BORULARI
6
ByLayer
62
256
370
-1
90
4
70
1
10
665
20
1440
10
665
20
1455
10
735
20
1455
10
735
20
1440
0
LWPOLYLINE
5
11C49
330
11BA2
100
AcDbEntity
100
AcDbPolyline
8
MONTAJ_BORULARI
6
ByLayer
62
256
370
-1
90
4
70
1
10
665
20
4345
10
665
20
4360
10
735
20
4360
10
735
20
4345
0
LWPOLYLINE
5
11C4C
330
11BA2
100
AcDbEntity
100
AcDbPolyline
8
MONTAJ_BORULARI
6
ByLayer
62
256
370
-1
90
4
70
1
10
1769.85
20
1450
10
1769.85
20
4350
10
1830.1499999999999
20
4350
10
1830.1499999999999
20
1450
0
LWPOLYLINE
5
11C4D
330
11BA2
100
AcDbEntity
100
AcDbPolyline
8
MONTAJ_BORULARI
6
ByLayer
62
256
370
-1
90
4
70
1
10
1765
20
1440
10
1765
20
1455
10
1835
20
1455
10
1835
20
1440
0
LWPOLYLINE
5
11C4E
330
11BA2
100
AcDbEntity
100
AcDbPolyline
8
MONTAJ_BORULARI
6
ByLayer
62
256
370
-1
90
4
70
1
10
1765
20
4345
10
1765
20
4360
10
1835
20
4360
10
1835
20
4345
0
LWPOLYLINE
5
11C51
330
11BA2
100
AcDbEntity
100
AcDbPolyline
8
MONTAJ_BORULARI
6
ByLayer
62
256
370
-1
90
4
70
1
10
500
20
2005
10
500
20
2055
10
700
20
2055
10
700
20
2005
0
LWPOLYLINE
5
11C53
330
11BA2
100
AcDbEntity
100
AcDbPolyline
8
MONTAJ_BORULARI
6
ByLayer
62
256
370
-1
90
4
70
1
10
1830.15
20
2005
10
1830.15
20
2055
10
2030.15
20
2055
10
2030.15
20
2005
0
LWPOLYLINE
5
11C55
330
11BA2
100
AcDbEntity
100
AcDbPolyline
8
MONTAJ_BORULARI
6
ByLayer
62
256
370
-1
90
4
70
1
10
500
20
2875
10
500
20
2925
10
700
20
2925
10
700
20
2875
0
LWPOLYLINE
5
11C57
330
11BA2
100
AcDbEntity
100
AcDbPolyline
8
MONTAJ_BORULARI
6
ByLayer
62
256
370
-1
90
4
70
1
10
1830.15
20
2875
10
1830.15
20
2925
10
2030.15
20
2925
10
2030.15
20
2875
0
LWPOLYLINE
5
11C59
330
11BA2
100
AcDbEntity
100
AcDbPolyline
8
MONTAJ_BORULARI
6
ByLayer
62
256
370
-1
90
4
70
1
10
500
20
3745
10
500
20
3795
10
700
20
3795
10
700
20
3745
0
LWPOLYLINE
5
11C5B
330
11BA2
100
AcDbEntity
100
AcDbPolyline
8
MONTAJ_BORULARI
6
ByLayer
62
256
370
-1
90
4
70
1
10
1830.15
20
3745
10
1830.15
20
3795
10
2030.15
20
3795
10
2030.15
20
3745
0
LWPOLYLINE
5
11CAA
330
11BA2
100
AcDbEntity
100
AcDbPolyline
8
MONTAJ_BORULARI
6
ByLayer
62
256
370
-1
90
4
70
1
10
-2075
20
365
10
-2075
20
535
10
-1885
20
535
10
-1885
20
365
0
CIRCLE
5
11CAB
330
11BA2
100
AcDbEntity
100
AcDbCircle
8
MONTAJ_BORULARI
10
-1980
20
450
30
0
40
78
0
CIRCLE
5
11CAC
330
11BA2
100
AcDbEntity
100
AcDbCircle
8
MONTAJ_BORULARI
10
-2050
20
505
30
0
40
8
0
CIRCLE
5
11CAD
330
11BA2
100
AcDbEntity
100
AcDbCircle
8
MONTAJ_BORULARI
10
-2050
20
395
30
0
40
8
0
CIRCLE
5
11CAE
330
11BA2
100
AcDbEntity
100
AcDbCircle
8
MONTAJ_BORULARI
10
-1910
20
505
30
0
40
8
0
CIRCLE
5
11CAF
330
11BA2
100
AcDbEntity
100
AcDbCircle
8
MONTAJ_BORULARI
10
-1910
20
395
30
0
40
8
0
LWPOLYLINE
5
11CB0
330
11BA2
100
AcDbEntity
100
AcDbPolyline
8
MONTAJ_BORULARI
6
ByLayer
62
256
370
-1
90
4
70
1
10
-1890
20
420
10
-1890
20
480
10
-1690
20
480
10
-1690
20
420
0
LWPOLYLINE
5
11CB1
330
11BA2
100
AcDbEntity
100
AcDbPolyline
8
MONTAJ_BORULARI
6
ByLayer
62
256
370
-1
90
4
70
1
10
-1886
20
424
10
-1886
20
476
10
-1694
20
476
10
-1694
20
424
0
LINE
5
11CB3
330
11BA2
100
AcDbEntity
100
AcDbLine
8
MONTAJ_BORULARI
10
-1890
20
480
30
0
11
-1810
21
480
31
0
0
LINE
5
11CB4
330
11BA2
100
AcDbEntity
100
AcDbLine
8
MONTAJ_BORULARI
10
-1890
20
480
30
0
11
-1890
21
530
31
0
0
LINE
5
11CB5
330
11BA2
100
AcDbEntity
100
AcDbLine
8
MONTAJ_BORULARI
10
-1890
20
530
30
0
11
-1810
21
480
31
0
0
LINE
5
11CB6
330
11BA2
100
AcDbEntity
100
AcDbLine
8
MONTAJ_BORULARI
10
-1890
20
420
30
0
11
-1810
21
420
31
0
0
LINE
5
11CB7
330
11BA2
100
AcDbEntity
100
AcDbLine
8
MONTAJ_BORULARI
10
-1890
20
420
30
0
11
-1890
21
370
31
0
0
LINE
5
11CB8
330
11BA2
100
AcDbEntity
100
AcDbLine
8
MONTAJ_BORULARI
10
-1890
20
370
30
0
11
-1810
21
420
31
0
0
CIRCLE
5
11CB9
330
11BA2
100
AcDbEntity
100
AcDbCircle
8
MONTAJ_BORULARI
10
-1655
20
450
30
0
40
30.15
0
CIRCLE
5
11CBA
330
11BA2
100
AcDbEntity
100
AcDbCircle
8
MONTAJ_BORULARI
10
-1655
20
450
30
0
40
26
0
LWPOLYLINE
5
11CBB
330
11BA2
100
AcDbEntity
100
AcDbPolyline
8
MONTAJ_BORULARI
6
ByLayer
62
256
370
-1
90
4
70
1
10
-1695
20
405
10
-1695
20
495
10
-1685
20
495
10
-1685
20
405
0
LWPOLYLINE
5
11CBC
330
11BA2
100
AcDbEntity
100
AcDbPolyline
8
MONTAJ_BORULARI
6
ByLayer
62
256
370
-1
90
4
70
1
10
-1703
20
414
10
-1703
20
486
10
-1627
20
486
10
-1627
20
414
0
CIRCLE
5
11CBD
330
11BA2
100
AcDbEntity
100
AcDbCircle
8
MONTAJ_BORULARI
10
-1695
20
486
30
0
40
6
0
CIRCLE
5
11CBE
330
11BA2
100
AcDbEntity
100
AcDbCircle
8
MONTAJ_BORULARI
10
-1695
20
414
30
0
40
6
0
CIRCLE
5
11CCE
330
11BA2
100
AcDbEntity
100
AcDbCircle
8
MONTAJ_BORULARI
10
-380
20
450
30
0
40
30.15
0
CIRCLE
5
11CCF
330
11BA2
100
AcDbEntity
100
AcDbCircle
8
MONTAJ_BORULARI
10
-380
20
450
30
0
40
26
0
LWPOLYLINE
5
11CD0
330
11BA2
100
AcDbEntity
100
AcDbPolyline
8
MONTAJ_BORULARI
6
ByLayer
62
256
370
-1
90
4
70
1
10
-425
20
390
10
-425
20
510
10
-335
20
510
10
-335
20
390
0
CIRCLE
5
11CD1
330
11BA2
100
AcDbEntity
100
AcDbCircle
8
MONTAJ_BORULARI
10
-380
20
450
30
0
40
34
0
CIRCLE
5
11CD2
330
11BA2
100
AcDbEntity
100
AcDbCircle
8
MONTAJ_BORULARI
10
-405
20
495
30
0
40
5
0
CIRCLE
5
11CD3
330
11BA2
100
AcDbEntity
100
AcDbCircle
8
MONTAJ_BORULARI
10
-405
20
405
30
0
40
5
0
LWPOLYLINE
5
11CD5
330
11BA2
100
AcDbEntity
100
AcDbPolyline
8
MONTAJ_BORULARI
6
ByLayer
62
256
370
-1
90
4
70
1
10
-340
20
444
10
-340
20
456
10
-305
20
456
10
-305
20
444
0
CIRCLE
5
11CD6
330
11BA2
100
AcDbEntity
100
AcDbCircle
8
MONTAJ_BORULARI
10
-305
20
450
30
0
40
10
0
LINE
5
11CE8
330
11BA2
100
AcDbEntity
100
AcDbLine
8
MONTAJ_BORULARI
10
-380
20
480.15
30
0
11
-350
21
630
31
0
0
LINE
5
11CE9
330
11BA2
100
AcDbEntity
100
AcDbLine
8
MONTAJ_BORULARI
10
-350
20
630
30
0
11
-185
21
630
31
0
0
LINE
5
11CEA
330
11BA2
100
AcDbEntity
100
AcDbLine
8
MONTAJ_BORULARI
10
-185
20
630
30
0
11
-185
21
610
31
0
0
LWPOLYLINE
5
11CF0
330
11BA2
100
AcDbEntity
100
AcDbPolyline
8
MONTAJ_BORULARI
6
ByLayer
62
256
370
-1
90
4
70
1
10
1240
20
585
10
1240
20
630
10
1280
20
630
10
1280
20
585
0
LWPOLYLINE
5
11CF1
330
11BA2
100
AcDbEntity
100
AcDbPolyline
8
MONTAJ_BORULARI
6
ByLayer
62
256
370
-1
90
4
70
1
10
1245
20
570
10
1245
20
585
10
1275
20
585
10
1275
20
570
0
LWPOLYLINE
5
11CF6
330
11BA2
100
AcDbEntity
100
AcDbPolyline
8
MONTAJ_BORULARI
6
ByLayer
62
256
370
-1
90
4
70
1
10
1400
20
585
10
1400
20
630
10
1440
20
630
10
1440
20
585
0
LWPOLYLINE
5
11CF7
330
11BA2
100
AcDbEntity
100
AcDbPolyline
8
MONTAJ_BORULARI
6
ByLayer
62
256
370
-1
90
4
70
1
10
1405
20
570
10
1405
20
585
10
1435
20
585
10
1435
20
570
0
LWPOLYLINE
5
11CFC
330
11BA2
100
AcDbEntity
100
AcDbPolyline
8
MONTAJ_BORULARI
6
ByLayer
62
256
370
-1
90
4
70
1
10
1560
20
585
10
1560
20
630
10
1600
20
630
10
1600
20
585
0
LWPOLYLINE
5
11CFD
330
11BA2
100
AcDbEntity
100
AcDbPolyline
8
MONTAJ_BORULARI
6
ByLayer
62
256
370
-1
90
4
70
1
10
1565
20
570
10
1565
20
585
10
1595
20
585
10
1595
20
570
0
LWPOLYLINE
5
11D02
330
11BA2
100
AcDbEntity
100
AcDbPolyline
8
MONTAJ_BORULARI
6
ByLayer
62
256
370
-1
90
4
70
1
10
1720
20
585
10
1720
20
630
10
1760
20
630
10
1760
20
585
0
LWPOLYLINE
5
11D03
330
11BA2
100
AcDbEntity
100
AcDbPolyline
8
MONTAJ_BORULARI
6
ByLayer
62
256
370
-1
90
4
70
1
10
1725
20
570
10
1725
20
585
10
1755
20
585
10
1755
20
570
0
LWPOLYLINE
5
11D08
330
11BA2
100
AcDbEntity
100
AcDbPolyline
8
MONTAJ_BORULARI
6
ByLayer
62
256
370
-1
90
4
70
1
10
1795
20
600
10
1795
20
630
10
1845
20
630
10
1845
20
600
0
CIRCLE
5
11D09
330
11BA2
100
AcDbEntity
100
AcDbCircle
8
MONTAJ_BORULARI
10
1820
20
615
30
0
40
5
0
LINE
5
11C07
330
11BA2
100
AcDbEntity
100
AcDbLine
8
KABLO_TAVALARI
10
-1825.85
20
1695
30
0
11
-1825.85
21
1610
31
0
0
LINE
5
11C08
330
11BA2
100
AcDbEntity
100
AcDbLine
8
KABLO_TAVALARI
10
-1825.85
20
1610
30
0
11
-1885.85
21
1530
31
0
0
LINE
5
11C0A
330
11BA2
100
AcDbEntity
100
AcDbLine
8
KABLO_TAVALARI
10
-1775.85
20
1695
30
0
11
-1775.85
21
1610
31
0
0
LINE
5
11C0B
330
11BA2
100
AcDbEntity
100
AcDbLine
8
KABLO_TAVALARI
10
-1775.85
20
1610
30
0
11
-1835.85
21
1530
31
0
0
LINE
5
11C0D
330
11BA2
100
AcDbEntity
100
AcDbLine
8
KABLO_TAVALARI
10
-1725.85
20
1695
30
0
11
-1725.85
21
1610
31
0
0
LINE
5
11C0E
330
11BA2
100
AcDbEntity
100
AcDbLine
8
KABLO_TAVALARI
10
-1725.85
20
1610
30
0
11
-1785.85
21
1530
31
0
0
LINE
5
11C10
330
11BA2
100
AcDbEntity
100
AcDbLine
8
KABLO_TAVALARI
10
-1675.85
20
1695
30
0
11
-1675.85
21
1610
31
0
0
LINE
5
11C11
330
11BA2
100
AcDbEntity
100
AcDbLine
8
KABLO_TAVALARI
10
-1675.85
20
1610
30
0
11
-1735.85
21
1530
31
0
0
LINE
5
11C13
330
11BA2
100
AcDbEntity
100
AcDbLine
8
KABLO_TAVALARI
10
-1625.85
20
1695
30
0
11
-1625.85
21
1610
31
0
0
LINE
5
11C14
330
11BA2
100
AcDbEntity
100
AcDbLine
8
KABLO_TAVALARI
10
-1625.85
20
1610
30
0
11
-1685.85
21
1530
31
0
0
LINE
5
11C16
330
11BA2
100
AcDbEntity
100
AcDbLine
8
KABLO_TAVALARI
10
-1575.85
20
1695
30
0
11
-1575.85
21
1610
31
0
0
LINE
5
11C17
330
11BA2
100
AcDbEntity
100
AcDbLine
8
KABLO_TAVALARI
10
-1575.85
20
1610
30
0
11
-1635.85
21
1530
31
0
0
LWPOLYLINE
5
11C21
330
11BA2
100
AcDbEntity
100
AcDbPolyline
8
KABLO_TAVALARI
6
ByLayer
62
256
370
-1
90
4
70
1
10
-1650
20
1170
10
-1650
20
1270
10
-1150
20
1270
10
-1150
20
1170
0
LWPOLYLINE
5
11CF2
330
11BA2
100
AcDbEntity
100
AcDbPolyline
8
KABLO_TAVALARI
6
ByLayer
62
256
370
-1
90
4
70
1
10
1242
20
490
10
1242
20
570
10
1278
20
570
10
1278
20
490
0
LINE
5
11CF4
330
11BA2
100
AcDbEntity
100
AcDbLine
8
KABLO_TAVALARI
10
1260
20
490
30
0
11
1260
21
310
31
0
0
LWPOLYLINE
5
11CF8
330
11BA2
100
AcDbEntity
100
AcDbPolyline
8
KABLO_TAVALARI
6
ByLayer
62
256
370
-1
90
4
70
1
10
1402
20
490
10
1402
20
570
10
1438
20
570
10
1438
20
490
0
LINE
5
11CFA
330
11BA2
100
AcDbEntity
100
AcDbLine
8
KABLO_TAVALARI
10
1420
20
490
30
0
11
1420
21
310
31
0
0
LWPOLYLINE
5
11CFE
330
11BA2
100
AcDbEntity
100
AcDbPolyline
8
KABLO_TAVALARI
6
ByLayer
62
256
370
-1
90
4
70
1
10
1562
20
490
10
1562
20
570
10
1598
20
570
10
1598
20
490
0
LINE
5
11D00
330
11BA2
100
AcDbEntity
100
AcDbLine
8
KABLO_TAVALARI
10
1580
20
490
30
0
11
1580
21
310
31
0
0
LWPOLYLINE
5
11D04
330
11BA2
100
AcDbEntity
100
AcDbPolyline
8
KABLO_TAVALARI
6
ByLayer
62
256
370
-1
90
4
70
1
10
1722
20
490
10
1722
20
570
10
1758
20
570
10
1758
20
490
0
LINE
5
11D06
330
11BA2
100
AcDbEntity
100
AcDbLine
8
KABLO_TAVALARI
10
1740
20
490
30
0
11
1740
21
310
31
0
0
LINE
5
11BE5
330
11BA2
100
AcDbEntity
100
AcDbLine
8
YURUYUS_KORIDORU
10
-2030
20
1200
30
0
11
-2350
21
2600
31
0
0
LINE
5
11C1B
330
11BA2
100
AcDbEntity
100
AcDbLine
8
YURUYUS_KORIDORU
10
-1810
20
1385
30
0
11
-1810
21
3385
31
0
0
LINE
5
11C1C
330
11BA2
100
AcDbEntity
100
AcDbLine
8
YURUYUS_KORIDORU
10
-890
20
1385
30
0
11
-890
21
3385
31
0
0
LINE
5
11C1D
330
11BA2
100
AcDbEntity
100
AcDbLine
8
YURUYUS_KORIDORU
10
-1810
20
3335
30
0
11
-890
21
3335
31
0
0
TEXT
5
11C1E
330
11BA2
100
AcDbEntity
100
AcDbText
8
YURUYUS_KORIDORU
10
-1350
20
2385
30
0
40
22
1
NET SERBEST GECIS KORIDORU
50
0
7
STANDARD
72
1
11
-1350
21
2385
31
0
100
AcDbText
73
0
0
TEXT
5
11C1F
330
11BA2
100
AcDbEntity
100
AcDbText
8
YURUYUS_KORIDORU
10
-1350
20
2335
30
0
40
16
1
(CLEARANCE >= 850 MM)
50
0
7
STANDARD
72
1
11
-1350
21
2335
31
0
100
AcDbText
73
0
0
TEXT
5
11C20
330
11BA2
100
AcDbEntity
100
AcDbText
8
YURUYUS_KORIDORU
10
-1350
20
2285
30
0
40
13
1
PERSONEL GECISINE TAM UYGUN
50
0
7
STANDARD
72
1
11
-1350
21
2285
31
0
100
AcDbText
73
0
0
LINE
5
11D0A
330
11BA2
100
AcDbEntity
100
AcDbLine
8
YURUYUS_KORIDORU
10
1820
20
600
30
0
11
1820
21
370
31
0
0
LINE
5
11D0B
330
11BA2
100
AcDbEntity
100
AcDbLine
8
YURUYUS_KORIDORU
10
1820
20
370
30
0
11
1720
21
310
31
0
0
LINE
5
11C24
330
11BA2
100
AcDbEntity
100
AcDbLine
8
OLCULER
10
-1850
20
1190
30
0
11
-1850
21
1070
31
0
0
LINE
5
11C25
330
11BA2
100
AcDbEntity
100
AcDbLine
8
OLCULER
10
-850
20
1190
30
0
11
-850
21
1070
31
0
0
LINE
5
11C26
330
11BA2
100
AcDbEntity
100
AcDbLine
8
OLCULER
10
-1850
20
1110
30
0
11
-850
21
1110
31
0
0
LINE
5
11C27
330
11BA2
100
AcDbEntity
100
AcDbLine
8
OLCULER
10
-1878
20
1082
30
0
11
-1822
21
1138
31
0
0
LINE
5
11C28
330
11BA2
100
AcDbEntity
100
AcDbLine
8
OLCULER
10
-878
20
1082
30
0
11
-822
21
1138
31
0
0
TEXT
5
11C29
330
11BA2
100
AcDbEntity
100
AcDbText
8
OLCULER
10
-1350
20
1026
30
0
40
60
1
1000 mm (KEDI YOLU NET GENISLIGI)
50
0
7
STANDARD
72
1
11
-1350
21
1026
31
0
100
AcDbText
73
2
0
LINE
5
11C2A
330
11BA2
100
AcDbEntity
100
AcDbLine
8
OLCULER
10
-1850
20
1385
30
0
11
-1990
21
1385
31
0
0
LINE
5
11C2B
330
11BA2
100
AcDbEntity
100
AcDbLine
8
OLCULER
10
-1850
20
2485
30
0
11
-1990
21
2485
31
0
0
LINE
5
11C2C
330
11BA2
100
AcDbEntity
100
AcDbLine
8
OLCULER
10
-1950
20
1385
30
0
11
-1950
21
2485
31
0
0
LINE
5
11C2D
330
11BA2
100
AcDbEntity
100
AcDbLine
8
OLCULER
10
-1978
20
1357
30
0
11
-1922
21
1413
31
0
0
LINE
5
11C2E
330
11BA2
100
AcDbEntity
100
AcDbLine
8
OLCULER
10
-1978
20
2457
30
0
11
-1922
21
2513
31
0
0
TEXT
5
11C2F
330
11BA2
100
AcDbEntity
100
AcDbText
8
OLCULER
10
-1992
20
1935
30
0
40
60
1
1100 mm (KORKULUK YUKSEKLIGI)
50
90
7
STANDARD
72
1
11
-1992
21
1935
31
0
100
AcDbText
73
2
0
LINE
5
11C30
330
11BA2
100
AcDbEntity
100
AcDbLine
8
OLCULER
10
-2206
20
2090
30
0
11
-2206
21
2210
31
0
0
LINE
5
11C31
330
11BA2
100
AcDbEntity
100
AcDbLine
8
OLCULER
10
-1921
20
2090
30
0
11
-1921
21
2210
31
0
0
LINE
5
11C32
330
11BA2
100
AcDbEntity
100
AcDbLine
8
OLCULER
10
-2206
20
2170
30
0
11
-1921
21
2170
31
0
0
LINE
5
11C33
330
11BA2
100
AcDbEntity
100
AcDbLine
8
OLCULER
10
-2234
20
2142
30
0
11
-2178
21
2198
31
0
0
LINE
5
11C34
330
11BA2
100
AcDbEntity
100
AcDbLine
8
OLCULER
10
-1949
20
2142
30
0
11
-1893
21
2198
31
0
0
TEXT
5
11C35
330
11BA2
100
AcDbEntity
100
AcDbText
8
OLCULER
10
-2063.5
20
2194
30
0
40
60
1
200 mm (NET OFSET)
50
0
7
STANDARD
72
1
11
-2063.5
21
2194
31
0
100
AcDbText
73
2
0
LINE
5
11C36
330
11BA2
100
AcDbEntity
100
AcDbLine
8
OLCULER
10
-1875.85
20
1650
30
0
11
-1875.85
21
1550
31
0
0
LINE
5
11C37
330
11BA2
100
AcDbEntity
100
AcDbLine
8
OLCULER
10
-1519.85
20
1650
30
0
11
-1519.85
21
1550
31
0
0
LINE
5
11C38
330
11BA2
100
AcDbEntity
100
AcDbLine
8
OLCULER
10
-1875.85
20
1590
30
0
11
-1519.85
21
1590
31
0
0
LINE
5
11C39
330
11BA2
100
AcDbEntity
100
AcDbLine
8
OLCULER
10
-1903.85
20
1562
30
0
11
-1847.85
21
1618
31
0
0
LINE
5
11C3A
330
11BA2
100
AcDbEntity
100
AcDbLine
8
OLCULER
10
-1547.85
20
1562
30
0
11
-1491.85
21
1618
31
0
0
TEXT
5
11C3B
330
11BA2
100
AcDbEntity
100
AcDbText
8
OLCULER
10
-1697.85
20
1506
30
0
40
60
1
356 mm (RRU ENI)
50
0
7
STANDARD
72
1
11
-1697.85
21
1506
31
0
100
AcDbText
73
2
0
LINE
5
11C3C
330
11BA2
100
AcDbEntity
100
AcDbLine
8
OLCULER
10
-1951.15
20
1870
30
0
11
-1951.15
21
1790
31
0
0
LINE
5
11C3D
330
11BA2
100
AcDbEntity
100
AcDbLine
8
OLCULER
10
-1890.85
20
1870
30
0
11
-1890.85
21
1790
31
0
0
LINE
5
11C3E
330
11BA2
100
AcDbEntity
100
AcDbLine
8
OLCULER
10
-1951.15
20
1830
30
0
11
-1890.85
21
1830
31
0
0
LINE
5
11C3F
330
11BA2
100
AcDbEntity
100
AcDbLine
8
OLCULER
10
-1979.15
20
1802
30
0
11
-1923.15
21
1858
31
0
0
LINE
5
11C40
330
11BA2
100
AcDbEntity
100
AcDbLine
8
OLCULER
10
-1918.85
20
1802
30
0
11
-1862.85
21
1858
31
0
0
TEXT
5
11C41
330
11BA2
100
AcDbEntity
100
AcDbText
8
OLCULER
10
-1921
20
1746
30
0
40
60
1
O60.3mm (2" BORU)
50
0
7
STANDARD
72
1
11
-1921
21
1746
31
0
100
AcDbText
73
2
0
LINE
5
11C8D
330
11BA2
100
AcDbEntity
100
AcDbLine
8
OLCULER
10
700
20
4430
30
0
11
700
21
4530
31
0
0
LINE
5
11C8E
330
11BA2
100
AcDbEntity
100
AcDbLine
8
OLCULER
10
1800
20
4430
30
0
11
1800
21
4530
31
0
0
LINE
5
11C8F
330
11BA2
100
AcDbEntity
100
AcDbLine
8
OLCULER
10
700
20
4490
30
0
11
1800
21
4490
31
0
0
LINE
5
11C90
330
11BA2
100
AcDbEntity
100
AcDbLine
8
OLCULER
10
672
20
4462
30
0
11
728
21
4518
31
0
0
LINE
5
11C91
330
11BA2
100
AcDbEntity
100
AcDbLine
8
OLCULER
10
1772
20
4462
30
0
11
1828
21
4518
31
0
0
TEXT
5
11C92
330
11BA2
100
AcDbEntity
100
AcDbText
8
OLCULER
10
1250
20
4514
30
0
40
60
1
1640 mm (MONTAJ BORULARI AKSI)
50
0
7
STANDARD
72
1
11
1250
21
4514
31
0
100
AcDbText
73
2
0
LINE
5
11C93
330
11BA2
100
AcDbEntity
100
AcDbLine
8
OLCULER
10
700
20
1450
30
0
11
520
21
1450
31
0
0
LINE
5
11C94
330
11BA2
100
AcDbEntity
100
AcDbLine
8
OLCULER
10
700
20
4350
30
0
11
520
21
4350
31
0
0
LINE
5
11C95
330
11BA2
100
AcDbEntity
100
AcDbLine
8
OLCULER
10
560
20
1450
30
0
11
560
21
4350
31
0
0
LINE
5
11C96
330
11BA2
100
AcDbEntity
100
AcDbLine
8
OLCULER
10
532
20
1422
30
0
11
588
21
1478
31
0
0
LINE
5
11C97
330
11BA2
100
AcDbEntity
100
AcDbLine
8
OLCULER
10
532
20
4322
30
0
11
588
21
4378
31
0
0
TEXT
5
11C98
330
11BA2
100
AcDbEntity
100
AcDbText
8
OLCULER
10
518
20
2900
30
0
40
60
1
2900 mm (BORU TAM BOYU)
50
90
7
STANDARD
72
1
11
518
21
2900
31
0
100
AcDbText
73
2
0
LINE
5
11C99
330
11BA2
100
AcDbEntity
100
AcDbLine
8
OLCULER
10
1250
20
1730
30
0
11
1210
21
1730
31
0
0
LINE
5
11C9A
330
11BA2
100
AcDbEntity
100
AcDbLine
8
OLCULER
10
1250
20
2600
30
0
11
1210
21
2600
31
0
0
LINE
5
11C9B
330
11BA2
100
AcDbEntity
100
AcDbLine
8
OLCULER
10
1250
20
1730
30
0
11
1250
21
2600
31
0
0
LINE
5
11C9C
330
11BA2
100
AcDbEntity
100
AcDbLine
8
OLCULER
10
1222
20
1702
30
0
11
1278
21
1758
31
0
0
LINE
5
11C9D
330
11BA2
100
AcDbEntity
100
AcDbLine
8
OLCULER
10
1222
20
2572
30
0
11
1278
21
2628
31
0
0
TEXT
5
11C9E
330
11BA2
100
AcDbEntity
100
AcDbText
8
OLCULER
10
1208
20
2165
30
0
40
60
1
870 mm (KATMAN KOT FARKI)
50
90
7
STANDARD
72
1
11
1208
21
2165
31
0
100
AcDbText
73
2
0
LINE
5
11C9F
330
11BA2
100
AcDbEntity
100
AcDbLine
8
OLCULER
10
1250
20
2600
30
0
11
1210
21
2600
31
0
0
LINE
5
11CA0
330
11BA2
100
AcDbEntity
100
AcDbLine
8
OLCULER
10
1250
20
3470
30
0
11
1210
21
3470
31
0
0
LINE
5
11CA1
330
11BA2
100
AcDbEntity
100
AcDbLine
8
OLCULER
10
1250
20
2600
30
0
11
1250
21
3470
31
0
0
LINE
5
11CA2
330
11BA2
100
AcDbEntity
100
AcDbLine
8
OLCULER
10
1222
20
2572
30
0
11
1278
21
2628
31
0
0
LINE
5
11CA3
330
11BA2
100
AcDbEntity
100
AcDbLine
8
OLCULER
10
1222
20
3442
30
0
11
1278
21
3498
31
0
0
TEXT
5
11CA4
330
11BA2
100
AcDbEntity
100
AcDbText
8
OLCULER
10
1208
20
3035
30
0
40
60
1
870 mm (KATMAN KOT FARKI)
50
90
7
STANDARD
72
1
11
1208
21
3035
31
0
100
AcDbText
73
2
0
LINE
5
11CC0
330
11BA2
100
AcDbEntity
100
AcDbLine
8
OLCULER
10
-1890
20
550
30
0
11
-1890
21
640
31
0
0
LINE
5
11CC1
330
11BA2
100
AcDbEntity
100
AcDbLine
8
OLCULER
10
-1690
20
550
30
0
11
-1690
21
640
31
0
0
LINE
5
11CC2
330
11BA2
100
AcDbEntity
100
AcDbLine
8
OLCULER
10
-1890
20
600
30
0
11
-1690
21
600
31
0
0
LINE
5
11CC3
330
11BA2
100
AcDbEntity
100
AcDbLine
8
OLCULER
10
-1918
20
572
30
0
11
-1862
21
628
31
0
0
LINE
5
11CC4
330
11BA2
100
AcDbEntity
100
AcDbLine
8
OLCULER
10
-1718
20
572
30
0
11
-1662
21
628
31
0
0
TEXT
5
11CC5
330
11BA2
100
AcDbEntity
100
AcDbText
8
OLCULER
10
-1790
20
624
30
0
40
60
1
200 mm (NET OFSET BOYU)
50
0
7
STANDARD
72
1
11
-1790
21
624
31
0
100
AcDbText
73
2
0
LINE
5
11CC6
330
11BA2
100
AcDbEntity
100
AcDbLine
8
OLCULER
10
-2075
20
310
30
0
11
-2075
21
230
31
0
0
LINE
5
11CC7
330
11BA2
100
AcDbEntity
100
AcDbLine
8
OLCULER
10
-1885
20
310
30
0
11
-1885
21
230
31
0
0
LINE
5
11CC8
330
11BA2
100
AcDbEntity
100
AcDbLine
8
OLCULER
10
-2075
20
270
30
0
11
-1885
21
270
31
0
0
LINE
5
11CC9
330
11BA2
100
AcDbEntity
100
AcDbLine
8
OLCULER
10
-2103
20
242
30
0
11
-2047
21
298
31
0
0
LINE
5
11CCA
330
11BA2
100
AcDbEntity
100
AcDbLine
8
OLCULER
10
-1913
20
242
30
0
11
-1857
21
298
31
0
0
TEXT
5
11CCB
330
11BA2
100
AcDbEntity
100
AcDbText
8
OLCULER
10
-1980
20
186
30
0
40
60
1
190 mm (KELEPCE GENISLIGI)
50
0
7
STANDARD
72
1
11
-1980
21
186
31
0
100
AcDbText
73
2
0
LWPOLYLINE
5
11BBB
330
11BA2
100
AcDbEntity
100
AcDbPolyline
8
METIN_BILGI
6
ByLayer
62
256
370
-1
90
4
70
1
10
-2500
20
-1000
10
-2500
20
3200
10
2500
20
3200
10
2500
20
-1000
0
LWPOLYLINE
5
11BBC
330
11BA2
100
AcDbEntity
100
AcDbPolyline
8
METIN_BILGI
6
ByLayer
62
256
370
-1
90
4
70
1
10
-2485
20
-985
10
-2485
20
3185
10
2485
20
3185
10
2485
20
-985
0
LWPOLYLINE
5
11BBD
330
11BA2
100
AcDbEntity
100
AcDbPolyline
8
METIN_BILGI
6
ByLayer
62
256
370
-1
90
4
70
1
10
-2475
20
3020
10
-2475
20
3130
10
2475
20
3130
10
2475
20
3020
0
TEXT
5
11BBE
330
11BA2
100
AcDbEntity
100
AcDbText
8
METIN_BILGI
10
0
20
3090
30
0
40
36
1
RAMS PARK / SEYRANTEPE STADYUMU 5G & 4.5G TELEKOMUNIKASYON KEDI YOLU SISTEMI
50
0
7
STANDARD
72
1
11
0
21
3090
31
0
100
AcDbText
73
0
0
TEXT
5
11BBF
330
11BA2
100
AcDbEntity
100
AcDbText
8
METIN_BILGI
10
0
20
3055
30
0
40
30
1
ALAN 1 VE ALAN 3: ORTA KEDI YOLU 14 ADET RRU MONTAJ VE GECIS ENKESITI (DETAY PAFTASI)
50
0
7
STANDARD
72
1
11
0
21
3055
31
0
100
AcDbText
73
0
0
TEXT
5
11BC0
330
11BA2
100
AcDbEntity
100
AcDbText
8
METIN_BILGI
10
0
20
3030
30
0
40
18
1
20 CM OFSETLI 2" PARALEL MONTAJ BORULARI - 4 TURKCELL + 4 TURK TELEKOM + 6 VODAFONE RRU VE SERBEST GECIS KORIDORU
50
0
7
STANDARD
72
1
11
0
21
3030
31
0
100
AcDbText
73
0
0
LWPOLYLINE
5
11BC1
330
11BA2
100
AcDbEntity
100
AcDbPolyline
8
METIN_BILGI
6
ByLayer
62
256
370
-1
90
4
70
1
10
-2350
20
1200
10
-2350
20
2800
10
-300
20
2800
10
-300
20
1200
0
TEXT
5
11BC2
330
11BA2
100
AcDbEntity
100
AcDbText
8
METIN_BILGI
10
-1350
20
2730
30
0
40
26
1
GORUNUS 1: KEDI YOLU TIPIK ENKESITI (A-A KESITI - OLCEK 1:15)
50
0
7
STANDARD
72
1
11
-1350
21
2730
31
0
100
AcDbText
73
0
0
TEXT
5
11BC3
330
11BA2
100
AcDbEntity
100
AcDbText
8
METIN_BILGI
10
-1350
20
2680
30
0
40
16
1
CATI MAKASI EGIMLI DIKMESI, 20 CM OFSET KONSOLU, 2" BORU VE RRU GECIS ACIKLIGI
50
0
7
STANDARD
72
1
11
-1350
21
2680
31
0
100
AcDbText
73
0
0
TEXT
5
11BE8
330
11BA2
100
AcDbEntity
100
AcDbText
8
METIN_BILGI
10
-2030
20
990
30
0
40
14
1
O350mm CATI OMURGA BORUSU
50
0
7
STANDARD
72
1
11
-2030
21
990
31
0
100
AcDbText
73
0
0
TEXT
5
11C18
330
11BA2
100
AcDbEntity
100
AcDbText
8
METIN_BILGI
10
-1697.85
20
2000
30
0
40
18
1
RRU MODULU
50
0
7
STANDARD
72
1
11
-1697.85
21
2000
31
0
100
AcDbText
73
0
0
TEXT
5
11C19
330
11BA2
100
AcDbEntity
100
AcDbText
8
METIN_BILGI
10
-1697.85
20
1960
30
0
40
14
1
(356 x 480 x 140 mm)
50
0
7
STANDARD
72
1
11
-1697.85
21
1960
31
0
100
AcDbText
73
0
0
TEXT
5
11C1A
330
11BA2
100
AcDbEntity
100
AcDbText
8
METIN_BILGI
10
-1697.85
20
1930
30
0
40
12
1
KISA KENAR MONTAJI
50
0
7
STANDARD
72
1
11
-1697.85
21
1930
31
0
100
AcDbText
73
0
0
TEXT
5
11C23
330
11BA2
100
AcDbEntity
100
AcDbText
8
METIN_BILGI
10
-1400
20
1210
30
0
40
15
1
500x100mm KABLO TAVASI (60x 1/2" FEEDER / JUMPER)
50
0
7
STANDARD
72
1
11
-1400
21
1210
31
0
100
AcDbText
73
0
0
LWPOLYLINE
5
11C42
330
11BA2
100
AcDbEntity
100
AcDbPolyline
8
METIN_BILGI
6
ByLayer
62
256
370
-1
90
4
70
1
10
150
20
1200
10
150
20
2800
10
2400
20
2800
10
2400
20
1200
0
TEXT
5
11C43
330
11BA2
100
AcDbEntity
100
AcDbText
8
METIN_BILGI
10
1250
20
2730
30
0
40
26
1
GORUNUS 2: 14 ADET RRU MONTAJ BORULARI VE KATMAN ELEVASYONU (OLCEK 1:20)
50
0
7
STANDARD
72
1
11
1250
21
2730
31
0
100
AcDbText
73
0
0
TEXT
5
11C44
330
11BA2
100
AcDbEntity
100
AcDbText
8
METIN_BILGI
10
1250
20
2680
30
0
40
16
1
SOL DIREK (4 TURKCELL + 3 VDF) & SAG DIREK (4 TURK TELEKOM + 3 VDF) - TOPLAM 14 RRU
50
0
7
STANDARD
72
1
11
1250
21
2680
31
0
100
AcDbText
73
0
0
TEXT
5
11C46
330
11BA2
100
AcDbEntity
100
AcDbText
8
METIN_BILGI
10
270
20
1365
30
0
40
14
1
KEDI YOLU IZGARA SEVIYESI (+8.60m)
50
0
7
STANDARD
100
AcDbText
0
TEXT
5
11C4A
330
11BA2
100
AcDbEntity
100
AcDbText
8
METIN_BILGI
10
700
20
4385
30
0
40
16
1
SOL MONTAJ BORUSU (2" x 2900mm)
50
0
7
STANDARD
72
1
11
700
21
4385
31
0
100
AcDbText
73
0
0
TEXT
5
11C4B
330
11BA2
100
AcDbEntity
100
AcDbText
8
METIN_BILGI
10
700
20
4365
30
0
40
13
1
TURKCELL (4) & VODAFONE (3)
50
0
7
STANDARD
72
1
11
700
21
4365
31
0
100
AcDbText
73
0
0
TEXT
5
11C4F
330
11BA2
100
AcDbEntity
100
AcDbText
8
METIN_BILGI
10
1800
20
4385
30
0
40
16
1
SAG MONTAJ BORUSU (2" x 2900mm)
50
0
7
STANDARD
72
1
11
1800
21
4385
31
0
100
AcDbText
73
0
0
TEXT
5
11C50
330
11BA2
100
AcDbEntity
100
AcDbText
8
METIN_BILGI
10
1800
20
4365
30
0
40
13
1
TURK TELEKOM (4) & VODAFONE (3)
50
0
7
STANDARD
72
1
11
1800
21
4365
31
0
100
AcDbText
73
0
0
TEXT
5
11C52
330
11BA2
100
AcDbEntity
100
AcDbText
8
METIN_BILGI
10
490
20
2025
30
0
40
11
1
20cm OFSET
50
0
7
STANDARD
72
2
11
490
21
2025
31
0
100
AcDbText
73
0
0
TEXT
5
11C54
330
11BA2
100
AcDbEntity
100
AcDbText
8
METIN_BILGI
10
2040
20
2025
30
0
40
11
1
20cm OFSET
50
0
7
STANDARD
100
AcDbText
0
TEXT
5
11C56
330
11BA2
100
AcDbEntity
100
AcDbText
8
METIN_BILGI
10
490
20
2895
30
0
40
11
1
20cm OFSET
50
0
7
STANDARD
72
2
11
490
21
2895
31
0
100
AcDbText
73
0
0
TEXT
5
11C58
330
11BA2
100
AcDbEntity
100
AcDbText
8
METIN_BILGI
10
2040
20
2895
30
0
40
11
1
20cm OFSET
50
0
7
STANDARD
100
AcDbText
0
TEXT
5
11C5A
330
11BA2
100
AcDbEntity
100
AcDbText
8
METIN_BILGI
10
490
20
3765
30
0
40
11
1
20cm OFSET
50
0
7
STANDARD
72
2
11
490
21
3765
31
0
100
AcDbText
73
0
0
TEXT
5
11C5C
330
11BA2
100
AcDbEntity
100
AcDbText
8
METIN_BILGI
10
2040
20
3765
30
0
40
11
1
20cm OFSET
50
0
7
STANDARD
100
AcDbText
0
TEXT
5
11C5E
330
11BA2
100
AcDbEntity
100
AcDbText
8
METIN_BILGI
10
530
20
1985
30
0
40
11
1
VDF RRU5526t
50
0
7
STANDARD
72
1
11
530
21
1985
31
0
100
AcDbText
73
0
0
TEXT
5
11C5F
330
11BA2
100
AcDbEntity
100
AcDbText
8
METIN_BILGI
10
530
20
1955
30
0
40
10
1
#1 (Alt)
50
0
7
STANDARD
72
1
11
530
21
1955
31
0
100
AcDbText
73
0
0
TEXT
5
11C61
330
11BA2
100
AcDbEntity
100
AcDbText
8
METIN_BILGI
10
700
20
1985
30
0
40
11
1
VDF RRU5526t
50
0
7
STANDARD
72
1
11
700
21
1985
31
0
100
AcDbText
73
0
0
TEXT
5
11C62
330
11BA2
100
AcDbEntity
100
AcDbText
8
METIN_BILGI
10
700
20
1955
30
0
40
10
1
#2 (Alt)
50
0
7
STANDARD
72
1
11
700
21
1955
31
0
100
AcDbText
73
0
0
TEXT
5
11C64
330
11BA2
100
AcDbEntity
100
AcDbText
8
METIN_BILGI
10
870
20
1985
30
0
40
11
1
VDF RRU5526t
50
0
7
STANDARD
72
1
11
870
21
1985
31
0
100
AcDbText
73
0
0
TEXT
5
11C65
330
11BA2
100
AcDbEntity
100
AcDbText
8
METIN_BILGI
10
870
20
1955
30
0
40
10
1
#3 (Alt)
50
0
7
STANDARD
72
1
11
870
21
1955
31
0
100
AcDbText
73
0
0
TEXT
5
11C66
330
11BA2
100
AcDbEntity
100
AcDbText
8
METIN_BILGI
10
420
20
1970
30
0
40
13
1
ALT SIRA: 3x VDF
50
0
7
STANDARD
72
2
11
420
21
1970
31
0
100
AcDbText
73
0
0
TEXT
5
11C68
330
11BA2
100
AcDbEntity
100
AcDbText
8
METIN_BILGI
10
590
20
2855
30
0
40
11
1
TCELL RRU5502
50
0
7
STANDARD
72
1
11
590
21
2855
31
0
100
AcDbText
73
0
0
TEXT
5
11C69
330
11BA2
100
AcDbEntity
100
AcDbText
8
METIN_BILGI
10
590
20
2825
30
0
40
10
1
#1 (Orta)
50
0
7
STANDARD
72
1
11
590
21
2825
31
0
100
AcDbText
73
0
0
TEXT
5
11C6B
330
11BA2
100
AcDbEntity
100
AcDbText
8
METIN_BILGI
10
810
20
2855
30
0
40
11
1
TCELL RRU5502
50
0
7
STANDARD
72
1
11
810
21
2855
31
0
100
AcDbText
73
0
0
TEXT
5
11C6C
330
11BA2
100
AcDbEntity
100
AcDbText
8
METIN_BILGI
10
810
20
2825
30
0
40
10
1
#2 (Orta)
50
0
7
STANDARD
72
1
11
810
21
2825
31
0
100
AcDbText
73
0
0
TEXT
5
11C6D
330
11BA2
100
AcDbEntity
100
AcDbText
8
METIN_BILGI
10
420
20
2840
30
0
40
13
1
ORTA SIRA: 2x TCELL
50
0
7
STANDARD
72
2
11
420
21
2840
31
0
100
AcDbText
73
0
0
TEXT
5
11C6F
330
11BA2
100
AcDbEntity
100
AcDbText
8
METIN_BILGI
10
590
20
3725
30
0
40
11
1
TCELL RRU5301
50
0
7
STANDARD
72
1
11
590
21
3725
31
0
100
AcDbText
73
0
0
TEXT
5
11C70
330
11BA2
100
AcDbEntity
100
AcDbText
8
METIN_BILGI
10
590
20
3695
30
0
40
10
1
#1 (Ust)
50
0
7
STANDARD
72
1
11
590
21
3695
31
0
100
AcDbText
73
0
0
TEXT
5
11C72
330
11BA2
100
AcDbEntity
100
AcDbText
8
METIN_BILGI
10
810
20
3725
30
0
40
11
1
TCELL RRU5301
50
0
7
STANDARD
72
1
11
810
21
3725
31
0
100
AcDbText
73
0
0
TEXT
5
11C73
330
11BA2
100
AcDbEntity
100
AcDbText
8
METIN_BILGI
10
810
20
3695
30
0
40
10
1
#2 (Ust)
50
0
7
STANDARD
72
1
11
810
21
3695
31
0
100
AcDbText
73
0
0
TEXT
5
11C74
330
11BA2
100
AcDbEntity
100
AcDbText
8
METIN_BILGI
10
420
20
3710
30
0
40
13
1
UST SIRA: 2x TCELL
50
0
7
STANDARD
72
2
11
420
21
3710
31
0
100
AcDbText
73
0
0
TEXT
5
11C76
330
11BA2
100
AcDbEntity
100
AcDbText
8
METIN_BILGI
10
1630
20
1985
30
0
40
11
1
VDF RRU5526t
50
0
7
STANDARD
72
1
11
1630
21
1985
31
0
100
AcDbText
73
0
0
TEXT
5
11C77
330
11BA2
100
AcDbEntity
100
AcDbText
8
METIN_BILGI
10
1630
20
1955
30
0
40
10
1
#4 (Alt)
50
0
7
STANDARD
72
1
11
1630
21
1955
31
0
100
AcDbText
73
0
0
TEXT
5
11C79
330
11BA2
100
AcDbEntity
100
AcDbText
8
METIN_BILGI
10
1800
20
1985
30
0
40
11
1
VDF RRU5526t
50
0
7
STANDARD
72
1
11
1800
21
1985
31
0
100
AcDbText
73
0
0
TEXT
5
11C7A
330
11BA2
100
AcDbEntity
100
AcDbText
8
METIN_BILGI
10
1800
20
1955
30
0
40
10
1
#5 (Alt)
50
0
7
STANDARD
72
1
11
1800
21
1955
31
0
100
AcDbText
73
0
0
TEXT
5
11C7C
330
11BA2
100
AcDbEntity
100
AcDbText
8
METIN_BILGI
10
1970
20
1985
30
0
40
11
1
VDF RRU5526t
50
0
7
STANDARD
72
1
11
1970
21
1985
31
0
100
AcDbText
73
0
0
TEXT
5
11C7D
330
11BA2
100
AcDbEntity
100
AcDbText
8
METIN_BILGI
10
1970
20
1955
30
0
40
10
1
#6 (Alt)
50
0
7
STANDARD
72
1
11
1970
21
1955
31
0
100
AcDbText
73
0
0
TEXT
5
11C7E
330
11BA2
100
AcDbEntity
100
AcDbText
8
METIN_BILGI
10
2080
20
1970
30
0
40
13
1
ALT SIRA: 3x VDF
50
0
7
STANDARD
100
AcDbText
0
TEXT
5
11C80
330
11BA2
100
AcDbEntity
100
AcDbText
8
METIN_BILGI
10
1690
20
2855
30
0
40
11
1
TT RRU5527
50
0
7
STANDARD
72
1
11
1690
21
2855
31
0
100
AcDbText
73
0
0
TEXT
5
11C81
330
11BA2
100
AcDbEntity
100
AcDbText
8
METIN_BILGI
10
1690
20
2825
30
0
40
10
1
#1 (Orta)
50
0
7
STANDARD
72
1
11
1690
21
2825
31
0
100
AcDbText
73
0
0
TEXT
5
11C83
330
11BA2
100
AcDbEntity
100
AcDbText
8
METIN_BILGI
10
1910
20
2855
30
0
40
11
1
TT RRU5527
50
0
7
STANDARD
72
1
11
1910
21
2855
31
0
100
AcDbText
73
0
0
TEXT
5
11C84
330
11BA2
100
AcDbEntity
100
AcDbText
8
METIN_BILGI
10
1910
20
2825
30
0
40
10
1
#2 (Orta)
50
0
7
STANDARD
72
1
11
1910
21
2825
31
0
100
AcDbText
73
0
0
TEXT
5
11C85
330
11BA2
100
AcDbEntity
100
AcDbText
8
METIN_BILGI
10
2080
20
2840
30
0
40
13
1
ORTA SIRA: 2x TT
50
0
7
STANDARD
100
AcDbText
0
TEXT
5
11C87
330
11BA2
100
AcDbEntity
100
AcDbText
8
METIN_BILGI
10
1690
20
3725
30
0
40
11
1
TT RRU 5818W (5G)
50
0
7
STANDARD
72
1
11
1690
21
3725
31
0
100
AcDbText
73
0
0
TEXT
5
11C88
330
11BA2
100
AcDbEntity
100
AcDbText
8
METIN_BILGI
10
1690
20
3695
30
0
40
10
1
#1 (Ust)
50
0
7
STANDARD
72
1
11
1690
21
3695
31
0
100
AcDbText
73
0
0
TEXT
5
11C8A
330
11BA2
100
AcDbEntity
100
AcDbText
8
METIN_BILGI
10
1910
20
3725
30
0
40
11
1
TT RRU 5818W (5G)
50
0
7
STANDARD
72
1
11
1910
21
3725
31
0
100
AcDbText
73
0
0
TEXT
5
11C8B
330
11BA2
100
AcDbEntity
100
AcDbText
8
METIN_BILGI
10
1910
20
3695
30
0
40
10
1
#2 (Ust)
50
0
7
STANDARD
72
1
11
1910
21
3695
31
0
100
AcDbText
73
0
0
TEXT
5
11C8C
330
11BA2
100
AcDbEntity
100
AcDbText
8
METIN_BILGI
10
2080
20
3710
30
0
40
13
1
UST SIRA: 2x TT (5G)
50
0
7
STANDARD
100
AcDbText
0
LWPOLYLINE
5
11CA5
330
11BA2
100
AcDbEntity
100
AcDbPolyline
8
METIN_BILGI
6
ByLayer
62
256
370
-1
90
4
70
1
10
-2350
20
50
10
-2350
20
900
10
-850
20
900
10
-850
20
50
0
TEXT
5
11CA6
330
11BA2
100
AcDbEntity
100
AcDbText
8
METIN_BILGI
10
-1600
20
860
30
0
40
20
1
DETAY A: 20 CM OFSET KONSOL VE DIKME KELEPCESI IMALAT DETAYI (OLCEK 1:5)
50
0
7
STANDARD
72
1
11
-1600
21
860
31
0
100
AcDbText
73
0
0
TEXT
5
11CA9
330
11BA2
100
AcDbEntity
100
AcDbText
8
METIN_BILGI
10
-1980
20
350
30
0
40
12
1
O140mm MAKAS DIKMESI
50
0
7
STANDARD
72
1
11
-1980
21
350
31
0
100
AcDbText
73
0
0
TEXT
5
11CB2
330
11BA2
100
AcDbEntity
100
AcDbText
8
METIN_BILGI
10
-1790
20
450
30
0
40
12
1
60x60x4mm KUTU PROFIL
50
0
7
STANDARD
72
1
11
-1790
21
450
31
0
100
AcDbText
73
0
0
TEXT
5
11CBF
330
11BA2
100
AcDbEntity
100
AcDbText
8
METIN_BILGI
10
-1655
20
370
30
0
40
12
1
2" (O60.3mm) GALVANIZ BORU
50
0
7
STANDARD
72
1
11
-1655
21
370
31
0
100
AcDbText
73
0
0
LWPOLYLINE
5
11CCC
330
11BA2
100
AcDbEntity
100
AcDbPolyline
8
METIN_BILGI
6
ByLayer
62
256
370
-1
90
4
70
1
10
-650
20
50
10
-650
20
900
10
650
20
900
10
650
20
50
0
TEXT
5
11CCD
330
11BA2
100
AcDbEntity
100
AcDbText
8
METIN_BILGI
10
0
20
860
30
0
40
20
1
DETAY B: RRU KISA KENAR BORU KILITLEME BRAKETI VE EMNIYET PIMI (OLCEK 1:5)
50
0
7
STANDARD
72
1
11
0
21
860
31
0
100
AcDbText
73
0
0
TEXT
5
11CD4
330
11BA2
100
AcDbEntity
100
AcDbText
8
METIN_BILGI
10
-440
20
535
30
0
40
11
1
M10 TORKLU CIVATA (35 Nm)
50
0
7
STANDARD
72
1
11
-440
21
535
31
0
100
AcDbText
73
0
0
TEXT
5
11CD7
330
11BA2
100
AcDbEntity
100
AcDbText
8
METIN_BILGI
10
-290
20
475
30
0
40
11
1
EMNIYET PIMI (DUSMEYE KARSI KILIT)
50
0
7
STANDARD
100
AcDbText
0
TEXT
5
11CE5
330
11BA2
100
AcDbEntity
100
AcDbText
8
METIN_BILGI
10
-95
20
490
30
0
40
14
1
RRU DOKUM GOVDE
50
0
7
STANDARD
72
1
11
-95
21
490
31
0
100
AcDbText
73
0
0
TEXT
5
11CE6
330
11BA2
100
AcDbEntity
100
AcDbText
8
METIN_BILGI
10
-95
20
440
30
0
40
12
1
KISA KENARDAN MONTAJ (D=140mm)
50
0
7
STANDARD
72
1
11
-95
21
440
31
0
100
AcDbText
73
0
0
TEXT
5
11CE7
330
11BA2
100
AcDbEntity
100
AcDbText
8
METIN_BILGI
10
-95
20
410
30
0
40
10
1
IP65 WEATHERPROOF SIZDIRMAZLIK
50
0
7
STANDARD
72
1
11
-95
21
410
31
0
100
AcDbText
73
0
0
TEXT
5
11CEB
330
11BA2
100
AcDbEntity
100
AcDbText
8
METIN_BILGI
10
-245
20
660
30
0
40
11
1
O4mm PASLANMAZ CELIK GUCLENDIRILMIS EMNIYET HALATI (L=600mm)
50
0
7
STANDARD
72
1
11
-245
21
660
31
0
100
AcDbText
73
0
0
LWPOLYLINE
5
11CEC
330
11BA2
100
AcDbEntity
100
AcDbPolyline
8
METIN_BILGI
6
ByLayer
62
256
370
-1
90
4
70
1
10
850
20
50
10
850
20
900
10
2350
20
900
10
2350
20
50
0
TEXT
5
11CED
330
11BA2
100
AcDbEntity
100
AcDbText
8
METIN_BILGI
10
1600
20
860
30
0
40
20
1
DETAY C: TOPRAKLAMA BARASI VE RF JUMPER INIS DETAYI (OLCEK 1:5)
50
0
7
STANDARD
72
1
11
1600
21
860
31
0
100
AcDbText
73
0
0
TEXT
5
11CEF
330
11BA2
100
AcDbEntity
100
AcDbText
8
METIN_BILGI
10
1500
20
685
30
0
40
13
1
RRU ALT BAGLANTI VE PORT YUZEYI
50
0
7
STANDARD
72
1
11
1500
21
685
31
0
100
AcDbText
73
0
0
TEXT
5
11CF3
330
11BA2
100
AcDbEntity
100
AcDbText
8
METIN_BILGI
10
1260
20
530
30
0
40
9
1
VULKANIZE BANT
50
0
7
STANDARD
72
1
11
1260
21
530
31
0
100
AcDbText
73
0
0
TEXT
5
11CF5
330
11BA2
100
AcDbEntity
100
AcDbText
8
METIN_BILGI
10
1260
20
290
30
0
40
10
1
JUMPER #1
50
0
7
STANDARD
72
1
11
1260
21
290
31
0
100
AcDbText
73
0
0
TEXT
5
11CF9
330
11BA2
100
AcDbEntity
100
AcDbText
8
METIN_BILGI
10
1420
20
530
30
0
40
9
1
VULKANIZE BANT
50
0
7
STANDARD
72
1
11
1420
21
530
31
0
100
AcDbText
73
0
0
TEXT
5
11CFB
330
11BA2
100
AcDbEntity
100
AcDbText
8
METIN_BILGI
10
1420
20
290
30
0
40
10
1
JUMPER #2
50
0
7
STANDARD
72
1
11
1420
21
290
31
0
100
AcDbText
73
0
0
TEXT
5
11CFF
330
11BA2
100
AcDbEntity
100
AcDbText
8
METIN_BILGI
10
1580
20
530
30
0
40
9
1
VULKANIZE BANT
50
0
7
STANDARD
72
1
11
1580
21
530
31
0
100
AcDbText
73
0
0
TEXT
5
11D01
330
11BA2
100
AcDbEntity
100
AcDbText
8
METIN_BILGI
10
1580
20
290
30
0
40
10
1
JUMPER #3
50
0
7
STANDARD
72
1
11
1580
21
290
31
0
100
AcDbText
73
0
0
TEXT
5
11D05
330
11BA2
100
AcDbEntity
100
AcDbText
8
METIN_BILGI
10
1740
20
530
30
0
40
9
1
VULKANIZE BANT
50
0
7
STANDARD
72
1
11
1740
21
530
31
0
100
AcDbText
73
0
0
TEXT
5
11D07
330
11BA2
100
AcDbEntity
100
AcDbText
8
METIN_BILGI
10
1740
20
290
30
0
40
10
1
JUMPER #4
50
0
7
STANDARD
72
1
11
1740
21
290
31
0
100
AcDbText
73
0
0
TEXT
5
11D0C
330
11BA2
100
AcDbEntity
100
AcDbText
8
METIN_BILGI
10
1820
20
450
30
0
40
11
1
16 mm2 BAKIR TOPRAKLAMA ILETKENI
50
0
7
STANDARD
100
AcDbText
0
TEXT
5
11D0D
330
11BA2
100
AcDbEntity
100
AcDbText
8
METIN_BILGI
10
1820
20
420
30
0
40
10
1
KEDI YOLU VE CATI TOPRAKLAMA BARASINA
50
0
7
STANDARD
100
AcDbText
0
LWPOLYLINE
5
11D0E
330
11BA2
100
AcDbEntity
100
AcDbPolyline
8
METIN_BILGI
6
ByLayer
62
256
370
-1
90
4
70
1
10
-2450
20
-920
10
-2450
20
-40
10
-300
20
-40
10
-300
20
-920
0
TEXT
5
11D0F
330
11BA2
100
AcDbEntity
100
AcDbText
8
METIN_BILGI
10
-1375
20
-75
30
0
40
18
1
TEKNIK SARTNAME, GUVENLIK VE MONTAJ STANDARTLARI
50
0
7
STANDARD
72
1
11
-1375
21
-75
31
0
100
AcDbText
73
0
0
TEXT
5
11D10
330
11BA2
100
AcDbEntity
100
AcDbText
8
METIN_BILGI
10
-2425
20
-115
30
0
40
12
1
1. KEDI YOLU GECIS KORIDORU (CLEARANCE): Makas dikmesine 20cm ofset kolu ile baglanan montaj borulari ve uzerindeki
50
0
7
STANDARD
100
AcDbText
0
TEXT
5
11D11
330
11BA2
100
AcDbEntity
100
AcDbText
8
METIN_BILGI
10
-2425
20
-151
30
0
40
12
1
   RRU modulleri, kedi yolu yuruyus izgarasina kesinlikle tecavuz etmez. Net serbest gecis acikligi min. 850 mm olarak korunmustur.
50
0
7
STANDARD
100
AcDbText
0
TEXT
5
11D12
330
11BA2
100
AcDbEntity
100
AcDbText
8
METIN_BILGI
10
-2425
20
-187
30
0
40
12
1
2. MONTAJ BORULARI: 2" (Dis cap O60.3mm, et kalinligi 3.65mm) TS EN 10255 agir seri celik cekme borudur. TS EN ISO 1461 standardinda
50
0
7
STANDARD
100
AcDbText
0
TEXT
5
11D13
330
11BA2
100
AcDbEntity
100
AcDbText
8
METIN_BILGI
10
-2425
20
-223
30
0
40
12
1
   sicak daldirma galvaniz kaplanmistir (Min. cinko kalinligi 85 mikron). Tepe noktasinda su gecirmez sizdirmazlik tapasi mevcuttur.
50
0
7
STANDARD
100
AcDbText
0
TEXT
5
11D14
330
11BA2
100
AcDbEntity
100
AcDbText
8
METIN_BILGI
10
-2425
20
-259
30
0
40
12
1
3. 20 CM OFSET KONSOL SISTEMI: 60x60x4mm celik kutu profil konsol kollari, O140mm makas dikmesine 3 noktadan (t=%20, %50, %80)
50
0
7
STANDARD
100
AcDbText
0
TEXT
5
11D15
330
11BA2
100
AcDbEntity
100
AcDbText
8
METIN_BILGI
10
-2425
20
-295
30
0
40
12
1
   cift parcali M16 celik kelepceler ve 80x80x8mm ucgen gusset berkitme saclariyla rijit sekilde kaynakli/civatalidir.
50
0
7
STANDARD
100
AcDbText
0
TEXT
5
11D16
330
11BA2
100
AcDbEntity
100
AcDbText
8
METIN_BILGI
10
-2425
20
-331
30
0
40
12
1
4. RRU KISA KENAR BAGLANTISI: 14 adet RRU modulu kisa kenarlarindaki (D=140mm) tork kontrollu kelepcelerle boruya kenetlenmistir.
50
0
7
STANDARD
100
AcDbText
0
TEXT
5
11D17
330
11BA2
100
AcDbEntity
100
AcDbText
8
METIN_BILGI
10
-2425
20
-367
30
0
40
12
1
   Sikma torku 35 Nm'dir. Her RRU govdesi, dusmeye karsi O4mm paslanmaz celik emniyet halatiyla boruya guvenlik kilitlidir.
50
0
7
STANDARD
100
AcDbText
0
TEXT
5
11D18
330
11BA2
100
AcDbEntity
100
AcDbText
8
METIN_BILGI
10
-2425
20
-403
30
0
40
12
1
5. TOPRAKLAMA DUZENI: Her RRU sasesinden cikan 16 mm2 sari-yesil topraklama iletkeni, kedi yolu altindaki bakir topraklama
50
0
7
STANDARD
100
AcDbText
0
TEXT
5
11D19
330
11BA2
100
AcDbEntity
100
AcDbText
8
METIN_BILGI
10
-2425
20
-439
30
0
40
12
1
   barasina cift delikli sikmali pabuclarla irtibatlandirilmistir. Gecis direnci R < 2 Ohm sartini saglamaktadir.
50
0
7
STANDARD
100
AcDbText
0
TEXT
5
11D1A
330
11BA2
100
AcDbEntity
100
AcDbText
8
METIN_BILGI
10
-2425
20
-475
30
0
40
12
1
6. KABLO VE JUMPER GECISLERI: RRU alt portlarindan cikan 1/2" super esnek RF jumper kablolari, O150mm kivrilma yaricapina uyularak
50
0
7
STANDARD
100
AcDbText
0
TEXT
5
11D1B
330
11BA2
100
AcDbEntity
100
AcDbText
8
METIN_BILGI
10
-2425
20
-511
30
0
40
12
1
   kedi yolu altindaki 500x100mm perfore kablo tavasina indirilir. Dis ortam RF konnektorleri soguk buzusmeli bantla sizdirmazdir.
50
0
7
STANDARD
100
AcDbText
0
LWPOLYLINE
5
11D1C
330
11BA2
100
AcDbEntity
100
AcDbPolyline
8
METIN_BILGI
6
ByLayer
62
256
370
-1
90
4
70
1
10
-220
20
-920
10
-220
20
-40
10
1460
20
-40
10
1460
20
-920
0
TEXT
5
11D1D
330
11BA2
100
AcDbEntity
100
AcDbText
8
METIN_BILGI
10
620
20
-75
30
0
40
18
1
MALZEME LISTESI (BOM) - ALAN 1 & 3 KEDI YOLU RRU SISTEMI
50
0
7
STANDARD
72
1
11
620
21
-75
31
0
100
AcDbText
73
0
0
LWPOLYLINE
5
11D1E
330
11BA2
100
AcDbEntity
100
AcDbPolyline
8
METIN_BILGI
6
ByLayer
62
256
370
-1
90
4
70
1
10
-220
20
-115
10
-220
20
-80
10
1460
20
-80
10
1460
20
-115
0
TEXT
5
11D1F
330
11BA2
100
AcDbEntity
100
AcDbText
8
METIN_BILGI
10
-210
20
-105
30
0
40
11
1
NO
50
0
7
STANDARD
100
AcDbText
0
TEXT
5
11D20
330
11BA2
100
AcDbEntity
100
AcDbText
8
METIN_BILGI
10
-150
20
-105
30
0
40
11
1
MALZEME TANIMI VE MARKA / MODEL
50
0
7
STANDARD
100
AcDbText
0
TEXT
5
11D21
330
11BA2
100
AcDbEntity
100
AcDbText
8
METIN_BILGI
10
510
20
-105
30
0
40
11
1
EBAT / TEKNIK DETAY
50
0
7
STANDARD
100
AcDbText
0
TEXT
5
11D22
330
11BA2
100
AcDbEntity
100
AcDbText
8
METIN_BILGI
10
930
20
-105
30
0
40
11
1
MIKTAR
50
0
7
STANDARD
100
AcDbText
0
TEXT
5
11D23
330
11BA2
100
AcDbEntity
100
AcDbText
8
METIN_BILGI
10
1070
20
-105
30
0
40
11
1
OPERATOR / GOREV
50
0
7
STANDARD
100
AcDbText
0
LINE
5
11D24
330
11BA2
100
AcDbEntity
100
AcDbLine
8
METIN_BILGI
10
-220
20
-150
30
0
11
1460
21
-150
31
0
0
TEXT
5
11D25
330
11BA2
100
AcDbEntity
100
AcDbText
8
METIN_BILGI
10
-210
20
-140
30
0
40
10
1
01
50
0
7
STANDARD
100
AcDbText
0
TEXT
5
11D26
330
11BA2
100
AcDbEntity
100
AcDbText
8
METIN_BILGI
10
-150
20
-140
30
0
40
10
1
Turkcell LTE RRU 5301 Modulu
50
0
7
STANDARD
100
AcDbText
0
TEXT
5
11D27
330
11BA2
100
AcDbEntity
100
AcDbText
8
METIN_BILGI
10
510
20
-140
30
0
40
9
1
356 x 480 x 140 mm / 25 kg
50
0
7
STANDARD
100
AcDbText
0
TEXT
5
11D28
330
11BA2
100
AcDbEntity
100
AcDbText
8
METIN_BILGI
10
930
20
-140
30
0
40
10
1
2 Adet
50
0
7
STANDARD
100
AcDbText
0
TEXT
5
11D29
330
11BA2
100
AcDbEntity
100
AcDbText
8
METIN_BILGI
10
1070
20
-140
30
0
40
9
1
Turkcell (Sol Ust Sira)
50
0
7
STANDARD
100
AcDbText
0
LINE
5
11D2A
330
11BA2
100
AcDbEntity
100
AcDbLine
8
METIN_BILGI
10
-220
20
-186
30
0
11
1460
21
-186
31
0
0
TEXT
5
11D2B
330
11BA2
100
AcDbEntity
100
AcDbText
8
METIN_BILGI
10
-210
20
-176
30
0
40
10
1
02
50
0
7
STANDARD
100
AcDbText
0
TEXT
5
11D2C
330
11BA2
100
AcDbEntity
100
AcDbText
8
METIN_BILGI
10
-150
20
-176
30
0
40
10
1
Turkcell LTE/NR RRU 5502 Modulu
50
0
7
STANDARD
100
AcDbText
0
TEXT
5
11D2D
330
11BA2
100
AcDbEntity
100
AcDbText
8
METIN_BILGI
10
510
20
-176
30
0
40
9
1
356 x 480 x 140 mm / 25 kg
50
0
7
STANDARD
100
AcDbText
0
TEXT
5
11D2E
330
11BA2
100
AcDbEntity
100
AcDbText
8
METIN_BILGI
10
930
20
-176
30
0
40
10
1
2 Adet
50
0
7
STANDARD
100
AcDbText
0
TEXT
5
11D2F
330
11BA2
100
AcDbEntity
100
AcDbText
8
METIN_BILGI
10
1070
20
-176
30
0
40
9
1
Turkcell (Sol Orta Sira)
50
0
7
STANDARD
100
AcDbText
0
LINE
5
11D30
330
11BA2
100
AcDbEntity
100
AcDbLine
8
METIN_BILGI
10
-220
20
-222
30
0
11
1460
21
-222
31
0
0
TEXT
5
11D31
330
11BA2
100
AcDbEntity
100
AcDbText
8
METIN_BILGI
10
-210
20
-212
30
0
40
10
1
03
50
0
7
STANDARD
100
AcDbText
0
TEXT
5
11D32
330
11BA2
100
AcDbEntity
100
AcDbText
8
METIN_BILGI
10
-150
20
-212
30
0
40
10
1
Turk Telekom NR RRU 5818W (5G) Modulu
50
0
7
STANDARD
100
AcDbText
0
TEXT
5
11D33
330
11BA2
100
AcDbEntity
100
AcDbText
8
METIN_BILGI
10
510
20
-212
30
0
40
9
1
356 x 480 x 140 mm / 25 kg
50
0
7
STANDARD
100
AcDbText
0
TEXT
5
11D34
330
11BA2
100
AcDbEntity
100
AcDbText
8
METIN_BILGI
10
930
20
-212
30
0
40
10
1
2 Adet
50
0
7
STANDARD
100
AcDbText
0
TEXT
5
11D35
330
11BA2
100
AcDbEntity
100
AcDbText
8
METIN_BILGI
10
1070
20
-212
30
0
40
9
1
Turk Telekom (Sag Ust Sira)
50
0
7
STANDARD
100
AcDbText
0
LINE
5
11D36
330
11BA2
100
AcDbEntity
100
AcDbLine
8
METIN_BILGI
10
-220
20
-258
30
0
11
1460
21
-258
31
0
0
TEXT
5
11D37
330
11BA2
100
AcDbEntity
100
AcDbText
8
METIN_BILGI
10
-210
20
-248
30
0
40
10
1
04
50
0
7
STANDARD
100
AcDbText
0
TEXT
5
11D38
330
11BA2
100
AcDbEntity
100
AcDbText
8
METIN_BILGI
10
-150
20
-248
30
0
40
10
1
Turk Telekom 2G-3G-4G RRU 5527 Modulu
50
0
7
STANDARD
100
AcDbText
0
TEXT
5
11D39
330
11BA2
100
AcDbEntity
100
AcDbText
8
METIN_BILGI
10
510
20
-248
30
0
40
9
1
356 x 480 x 140 mm / 25 kg
50
0
7
STANDARD
100
AcDbText
0
TEXT
5
11D3A
330
11BA2
100
AcDbEntity
100
AcDbText
8
METIN_BILGI
10
930
20
-248
30
0
40
10
1
2 Adet
50
0
7
STANDARD
100
AcDbText
0
TEXT
5
11D3B
330
11BA2
100
AcDbEntity
100
AcDbText
8
METIN_BILGI
10
1070
20
-248
30
0
40
9
1
Turk Telekom (Sag Orta Sira)
50
0
7
STANDARD
100
AcDbText
0
LINE
5
11D3C
330
11BA2
100
AcDbEntity
100
AcDbLine
8
METIN_BILGI
10
-220
20
-294
30
0
11
1460
21
-294
31
0
0
TEXT
5
11D3D
330
11BA2
100
AcDbEntity
100
AcDbText
8
METIN_BILGI
10
-210
20
-284
30
0
40
10
1
05
50
0
7
STANDARD
100
AcDbText
0
TEXT
5
11D3E
330
11BA2
100
AcDbEntity
100
AcDbText
8
METIN_BILGI
10
-150
20
-284
30
0
40
10
1
Vodafone RRU 5526t Cift Bant Modulu
50
0
7
STANDARD
100
AcDbText
0
TEXT
5
11D3F
330
11BA2
100
AcDbEntity
100
AcDbText
8
METIN_BILGI
10
510
20
-284
30
0
40
9
1
356 x 480 x 135 mm / 28 kg
50
0
7
STANDARD
100
AcDbText
0
TEXT
5
11D40
330
11BA2
100
AcDbEntity
100
AcDbText
8
METIN_BILGI
10
930
20
-284
30
0
40
10
1
6 Adet
50
0
7
STANDARD
100
AcDbText
0
TEXT
5
11D41
330
11BA2
100
AcDbEntity
100
AcDbText
8
METIN_BILGI
10
1070
20
-284
30
0
40
9
1
Vodafone (3+3 Alt Sira)
50
0
7
STANDARD
100
AcDbText
0
LINE
5
11D42
330
11BA2
100
AcDbEntity
100
AcDbLine
8
METIN_BILGI
10
-220
20
-330
30
0
11
1460
21
-330
31
0
0
TEXT
5
11D43
330
11BA2
100
AcDbEntity
100
AcDbText
8
METIN_BILGI
10
-210
20
-320
30
0
40
10
1
06
50
0
7
STANDARD
100
AcDbText
0
TEXT
5
11D44
330
11BA2
100
AcDbEntity
100
AcDbText
8
METIN_BILGI
10
-150
20
-320
30
0
40
10
1
2" Sicak Daldirma Galvaniz Montaj Borusu
50
0
7
STANDARD
100
AcDbText
0
TEXT
5
11D45
330
11BA2
100
AcDbEntity
100
AcDbText
8
METIN_BILGI
10
510
20
-320
30
0
40
9
1
O60.3 x 3.65mm - L=2900mm
50
0
7
STANDARD
100
AcDbText
0
TEXT
5
11D46
330
11BA2
100
AcDbEntity
100
AcDbText
8
METIN_BILGI
10
930
20
-320
30
0
40
10
1
2 Adet
50
0
7
STANDARD
100
AcDbText
0
TEXT
5
11D47
330
11BA2
100
AcDbEntity
100
AcDbText
8
METIN_BILGI
10
1070
20
-320
30
0
40
9
1
Ortak Tasiyici Dikmeler
50
0
7
STANDARD
100
AcDbText
0
LINE
5
11D48
330
11BA2
100
AcDbEntity
100
AcDbLine
8
METIN_BILGI
10
-220
20
-366
30
0
11
1460
21
-366
31
0
0
TEXT
5
11D49
330
11BA2
100
AcDbEntity
100
AcDbText
8
METIN_BILGI
10
-210
20
-356
30
0
40
10
1
07
50
0
7
STANDARD
100
AcDbText
0
TEXT
5
11D4A
330
11BA2
100
AcDbEntity
100
AcDbText
8
METIN_BILGI
10
-150
20
-356
30
0
40
10
1
20 cm Agir Hizmet Ofset Konsol Kolu
50
0
7
STANDARD
100
AcDbText
0
TEXT
5
11D4B
330
11BA2
100
AcDbEntity
100
AcDbText
8
METIN_BILGI
10
510
20
-356
30
0
40
9
1
60x60x4mm Kutu Profil (L=200mm)
50
0
7
STANDARD
100
AcDbText
0
TEXT
5
11D4C
330
11BA2
100
AcDbEntity
100
AcDbText
8
METIN_BILGI
10
930
20
-356
30
0
40
10
1
6 Adet
50
0
7
STANDARD
100
AcDbText
0
TEXT
5
11D4D
330
11BA2
100
AcDbEntity
100
AcDbText
8
METIN_BILGI
10
1070
20
-356
30
0
40
9
1
3 Noktadan Rijit Tespit
50
0
7
STANDARD
100
AcDbText
0
LINE
5
11D4E
330
11BA2
100
AcDbEntity
100
AcDbLine
8
METIN_BILGI
10
-220
20
-402
30
0
11
1460
21
-402
31
0
0
TEXT
5
11D4F
330
11BA2
100
AcDbEntity
100
AcDbText
8
METIN_BILGI
10
-210
20
-392
30
0
40
10
1
08
50
0
7
STANDARD
100
AcDbText
0
TEXT
5
11D50
330
11BA2
100
AcDbEntity
100
AcDbText
8
METIN_BILGI
10
-150
20
-392
30
0
40
10
1
O140mm Makas Dikmesi Cift Parcali Kelepce
50
0
7
STANDARD
100
AcDbText
0
TEXT
5
11D51
330
11BA2
100
AcDbEntity
100
AcDbText
8
METIN_BILGI
10
510
20
-392
30
0
40
9
1
t=8mm St37 Celik + M16 Civata
50
0
7
STANDARD
100
AcDbText
0
TEXT
5
11D52
330
11BA2
100
AcDbEntity
100
AcDbText
8
METIN_BILGI
10
930
20
-392
30
0
40
10
1
6 Takim
50
0
7
STANDARD
100
AcDbText
0
TEXT
5
11D53
330
11BA2
100
AcDbEntity
100
AcDbText
8
METIN_BILGI
10
1070
20
-392
30
0
40
9
1
Makas Govdesine Baglanti
50
0
7
STANDARD
100
AcDbText
0
LINE
5
11D54
330
11BA2
100
AcDbEntity
100
AcDbLine
8
METIN_BILGI
10
-220
20
-438
30
0
11
1460
21
-438
31
0
0
TEXT
5
11D55
330
11BA2
100
AcDbEntity
100
AcDbText
8
METIN_BILGI
10
-210
20
-428
30
0
40
10
1
09
50
0
7
STANDARD
100
AcDbText
0
TEXT
5
11D56
330
11BA2
100
AcDbEntity
100
AcDbText
8
METIN_BILGI
10
-150
20
-428
30
0
40
10
1
2" Boru U-Bolt Kelepcesi ve Eyer Pleyti
50
0
7
STANDARD
100
AcDbText
0
TEXT
5
11D57
330
11BA2
100
AcDbEntity
100
AcDbText
8
METIN_BILGI
10
510
20
-428
30
0
40
9
1
M12 Celik U-Bolt + Kilitli Pul
50
0
7
STANDARD
100
AcDbText
0
TEXT
5
11D58
330
11BA2
100
AcDbEntity
100
AcDbText
8
METIN_BILGI
10
930
20
-428
30
0
40
10
1
12 Takim
50
0
7
STANDARD
100
AcDbText
0
TEXT
5
11D59
330
11BA2
100
AcDbEntity
100
AcDbText
8
METIN_BILGI
10
1070
20
-428
30
0
40
9
1
Boru Kilitleme
50
0
7
STANDARD
100
AcDbText
0
LINE
5
11D5A
330
11BA2
100
AcDbEntity
100
AcDbLine
8
METIN_BILGI
10
-220
20
-474
30
0
11
1460
21
-474
31
0
0
TEXT
5
11D5B
330
11BA2
100
AcDbEntity
100
AcDbText
8
METIN_BILGI
10
-210
20
-464
30
0
40
10
1
10
50
0
7
STANDARD
100
AcDbText
0
TEXT
5
11D5C
330
11BA2
100
AcDbEntity
100
AcDbText
8
METIN_BILGI
10
-150
20
-464
30
0
40
10
1
RRU Kisa Kenar Boru Kelepcesi Adaptoru
50
0
7
STANDARD
100
AcDbText
0
TEXT
5
11D5D
330
11BA2
100
AcDbEntity
100
AcDbText
8
METIN_BILGI
10
510
20
-464
30
0
40
9
1
Aluminyum Dokum (35 Nm Tork)
50
0
7
STANDARD
100
AcDbText
0
TEXT
5
11D5E
330
11BA2
100
AcDbEntity
100
AcDbText
8
METIN_BILGI
10
930
20
-464
30
0
40
10
1
14 Takim
50
0
7
STANDARD
100
AcDbText
0
TEXT
5
11D5F
330
11BA2
100
AcDbEntity
100
AcDbText
8
METIN_BILGI
10
1070
20
-464
30
0
40
9
1
RRU Tasiyici Kelepce
50
0
7
STANDARD
100
AcDbText
0
LINE
5
11D60
330
11BA2
100
AcDbEntity
100
AcDbLine
8
METIN_BILGI
10
-220
20
-510
30
0
11
1460
21
-510
31
0
0
TEXT
5
11D61
330
11BA2
100
AcDbEntity
100
AcDbText
8
METIN_BILGI
10
-210
20
-500
30
0
40
10
1
11
50
0
7
STANDARD
100
AcDbText
0
TEXT
5
11D62
330
11BA2
100
AcDbEntity
100
AcDbText
8
METIN_BILGI
10
-150
20
-500
30
0
40
10
1
O4mm Paslanmaz Celik Emniyet Halati
50
0
7
STANDARD
100
AcDbText
0
TEXT
5
11D63
330
11BA2
100
AcDbEntity
100
AcDbText
8
METIN_BILGI
10
510
20
-500
30
0
40
9
1
L=600mm / 316 Kalite Celik
50
0
7
STANDARD
100
AcDbText
0
TEXT
5
11D64
330
11BA2
100
AcDbEntity
100
AcDbText
8
METIN_BILGI
10
930
20
-500
30
0
40
10
1
14 Adet
50
0
7
STANDARD
100
AcDbText
0
TEXT
5
11D65
330
11BA2
100
AcDbEntity
100
AcDbText
8
METIN_BILGI
10
1070
20
-500
30
0
40
9
1
Dusmeye Karsi Guvenlik
50
0
7
STANDARD
100
AcDbText
0
LINE
5
11D66
330
11BA2
100
AcDbEntity
100
AcDbLine
8
METIN_BILGI
10
-220
20
-546
30
0
11
1460
21
-546
31
0
0
TEXT
5
11D67
330
11BA2
100
AcDbEntity
100
AcDbText
8
METIN_BILGI
10
-210
20
-536
30
0
40
10
1
12
50
0
7
STANDARD
100
AcDbText
0
TEXT
5
11D68
330
11BA2
100
AcDbEntity
100
AcDbText
8
METIN_BILGI
10
-150
20
-536
30
0
40
10
1
1/2" Super Esnek RF Jumper Kablo Seti
50
0
7
STANDARD
100
AcDbText
0
TEXT
5
11D69
330
11BA2
100
AcDbEntity
100
AcDbText
8
METIN_BILGI
10
510
20
-536
30
0
40
9
1
4.3-10 DIN / L=1.5 - 2.5m
50
0
7
STANDARD
100
AcDbText
0
TEXT
5
11D6A
330
11BA2
100
AcDbEntity
100
AcDbText
8
METIN_BILGI
10
930
20
-536
30
0
40
10
1
56 Adet
50
0
7
STANDARD
100
AcDbText
0
TEXT
5
11D6B
330
11BA2
100
AcDbEntity
100
AcDbText
8
METIN_BILGI
10
1070
20
-536
30
0
40
9
1
RRU - Tava Baglantisi
50
0
7
STANDARD
100
AcDbText
0
LINE
5
11D6C
330
11BA2
100
AcDbEntity
100
AcDbLine
8
METIN_BILGI
10
-220
20
-582
30
0
11
1460
21
-582
31
0
0
TEXT
5
11D6D
330
11BA2
100
AcDbEntity
100
AcDbText
8
METIN_BILGI
10
-210
20
-572
30
0
40
10
1
13
50
0
7
STANDARD
100
AcDbText
0
TEXT
5
11D6E
330
11BA2
100
AcDbEntity
100
AcDbText
8
METIN_BILGI
10
-150
20
-572
30
0
40
10
1
16 mm2 Sari-Yesil Bakir Topraklama Hatti
50
0
7
STANDARD
100
AcDbText
0
TEXT
5
11D6F
330
11BA2
100
AcDbEntity
100
AcDbText
8
METIN_BILGI
10
510
20
-572
30
0
40
9
1
H07V-K 16 mm2 Cu / Cift Delik
50
0
7
STANDARD
100
AcDbText
0
TEXT
5
11D70
330
11BA2
100
AcDbEntity
100
AcDbText
8
METIN_BILGI
10
930
20
-572
30
0
40
10
1
14 Set
50
0
7
STANDARD
100
AcDbText
0
TEXT
5
11D71
330
11BA2
100
AcDbEntity
100
AcDbText
8
METIN_BILGI
10
1070
20
-572
30
0
40
9
1
Govde Es-Potansiyel Toprak
50
0
7
STANDARD
100
AcDbText
0
LINE
5
11D72
330
11BA2
100
AcDbEntity
100
AcDbLine
8
METIN_BILGI
10
-220
20
-618
30
0
11
1460
21
-618
31
0
0
TEXT
5
11D73
330
11BA2
100
AcDbEntity
100
AcDbText
8
METIN_BILGI
10
-210
20
-608
30
0
40
10
1
14
50
0
7
STANDARD
100
AcDbText
0
TEXT
5
11D74
330
11BA2
100
AcDbEntity
100
AcDbText
8
METIN_BILGI
10
-150
20
-608
30
0
40
10
1
500x100mm Perfore Galvaniz Kablo Tavasi
50
0
7
STANDARD
100
AcDbText
0
TEXT
5
11D75
330
11BA2
100
AcDbEntity
100
AcDbText
8
METIN_BILGI
10
510
20
-608
30
0
40
9
1
t=2.0mm / L=3000mm Kedi Yolu Alti
50
0
7
STANDARD
100
AcDbText
0
TEXT
5
11D76
330
11BA2
100
AcDbEntity
100
AcDbText
8
METIN_BILGI
10
930
20
-608
30
0
40
10
1
Hat Boyu
50
0
7
STANDARD
100
AcDbText
0
TEXT
5
11D77
330
11BA2
100
AcDbEntity
100
AcDbText
8
METIN_BILGI
10
1070
20
-608
30
0
40
9
1
Kablo Guzergahi
50
0
7
STANDARD
100
AcDbText
0
LWPOLYLINE
5
11D78
330
11BA2
100
AcDbEntity
100
AcDbPolyline
8
METIN_BILGI
6
ByLayer
62
256
370
-1
90
4
70
1
10
1520
20
-920
10
1520
20
-40
10
2470
20
-40
10
2470
20
-920
0
LWPOLYLINE
5
11D79
330
11BA2
100
AcDbEntity
100
AcDbPolyline
8
METIN_BILGI
6
ByLayer
62
256
370
-1
90
4
70
1
10
1520
20
-190
10
1520
20
-40
10
2470
20
-40
10
2470
20
-190
0
TEXT
5
11D7A
330
11BA2
100
AcDbEntity
100
AcDbText
8
METIN_BILGI
10
1995
20
-85
30
0
40
22
1
TURK TELEKOMUNIKASYON A.S.
50
0
7
STANDARD
72
1
11
1995
21
-85
31
0
100
AcDbText
73
0
0
TEXT
5
11D7B
330
11BA2
100
AcDbEntity
100
AcDbText
8
METIN_BILGI
10
1995
20
-120
30
0
40
16
1
TURKCELL - VODAFONE ORTAK ALTYAPI PROJESI
50
0
7
STANDARD
72
1
11
1995
21
-120
31
0
100
AcDbText
73
0
0
TEXT
5
11D7C
330
11BA2
100
AcDbEntity
100
AcDbText
8
METIN_BILGI
10
1995
20
-155
30
0
40
13
1
SEYRANTEPE STADYUMU KEDI YOLU TESISLERI
50
0
7
STANDARD
72
1
11
1995
21
-155
31
0
100
AcDbText
73
0
0
LWPOLYLINE
5
11D7D
330
11BA2
100
AcDbEntity
100
AcDbPolyline
8
METIN_BILGI
6
ByLayer
62
256
370
-1
90
4
70
1
10
1520
20
-390
10
1520
20
-190
10
2470
20
-190
10
2470
20
-390
0
TEXT
5
11D7E
330
11BA2
100
AcDbEntity
100
AcDbText
8
METIN_BILGI
10
1540
20
-220
30
0
40
12
1
PROJE ADI:
50
0
7
STANDARD
100
AcDbText
0
TEXT
5
11D7F
330
11BA2
100
AcDbEntity
100
AcDbText
8
METIN_BILGI
10
1550
20
-255
30
0
40
16
1
RAMS PARK / SEYRANTEPE STADYUMU 5G & 4.5G DONUSUMU
50
0
7
STANDARD
100
AcDbText
0
TEXT
5
11D80
330
11BA2
100
AcDbEntity
100
AcDbText
8
METIN_BILGI
10
1540
20
-300
30
0
40
12
1
PAFTA ADI:
50
0
7
STANDARD
100
AcDbText
0
TEXT
5
11D81
330
11BA2
100
AcDbEntity
100
AcDbText
8
METIN_BILGI
10
1550
20
-335
30
0
40
16
1
ALAN 1 & 3 ORTA KEDI YOLU 14 RRU MONTAJ VE GECIS ENKESITI
50
0
7
STANDARD
100
AcDbText
0
TEXT
5
11D82
330
11BA2
100
AcDbEntity
100
AcDbText
8
METIN_BILGI
10
1550
20
-365
30
0
40
13
1
20cm OFSETLI 2" MONTAJ BORULARI VE SERBEST GECIS KORIDORU
50
0
7
STANDARD
100
AcDbText
0
LINE
5
11D83
330
11BA2
100
AcDbEntity
100
AcDbLine
8
METIN_BILGI
10
1520
20
-460
30
0
11
2470
21
-460
31
0
0
LINE
5
11D84
330
11BA2
100
AcDbEntity
100
AcDbLine
8
METIN_BILGI
10
1995
20
-460
30
0
11
1995
21
-390
31
0
0
TEXT
5
11D85
330
11BA2
100
AcDbEntity
100
AcDbText
8
METIN_BILGI
10
1540
20
-418
30
0
40
10
1
PAFTA NO:
50
0
7
STANDARD
100
AcDbText
0
TEXT
5
11D86
330
11BA2
100
AcDbEntity
100
AcDbText
8
METIN_BILGI
10
1550
20
-442
30
0
40
13
1
DWG-TEL-09
50
0
7
STANDARD
100
AcDbText
0
TEXT
5
11D87
330
11BA2
100
AcDbEntity
100
AcDbText
8
METIN_BILGI
10
2015
20
-418
30
0
40
10
1
TARIH:
50
0
7
STANDARD
100
AcDbText
0
TEXT
5
11D88
330
11BA2
100
AcDbEntity
100
AcDbText
8
METIN_BILGI
10
2025
20
-442
30
0
40
13
1
EKIM 2026
50
0
7
STANDARD
100
AcDbText
0
LINE
5
11D89
330
11BA2
100
AcDbEntity
100
AcDbLine
8
METIN_BILGI
10
1520
20
-530
30
0
11
2470
21
-530
31
0
0
LINE
5
11D8A
330
11BA2
100
AcDbEntity
100
AcDbLine
8
METIN_BILGI
10
1995
20
-530
30
0
11
1995
21
-460
31
0
0
TEXT
5
11D8B
330
11BA2
100
AcDbEntity
100
AcDbText
8
METIN_BILGI
10
1540
20
-488
30
0
40
10
1
OLCEK:
50
0
7
STANDARD
100
AcDbText
0
TEXT
5
11D8C
330
11BA2
100
AcDbEntity
100
AcDbText
8
METIN_BILGI
10
1550
20
-512
30
0
40
13
1
1:1 mm (CAD)
50
0
7
STANDARD
100
AcDbText
0
TEXT
5
11D8D
330
11BA2
100
AcDbEntity
100
AcDbText
8
METIN_BILGI
10
2015
20
-488
30
0
40
10
1
REV:
50
0
7
STANDARD
100
AcDbText
0
TEXT
5
11D8E
330
11BA2
100
AcDbEntity
100
AcDbText
8
METIN_BILGI
10
2025
20
-512
30
0
40
13
1
REV-01
50
0
7
STANDARD
100
AcDbText
0
LINE
5
11D8F
330
11BA2
100
AcDbEntity
100
AcDbLine
8
METIN_BILGI
10
1520
20
-600
30
0
11
2470
21
-600
31
0
0
LINE
5
11D90
330
11BA2
100
AcDbEntity
100
AcDbLine
8
METIN_BILGI
10
1995
20
-600
30
0
11
1995
21
-530
31
0
0
TEXT
5
11D91
330
11BA2
100
AcDbEntity
100
AcDbText
8
METIN_BILGI
10
1540
20
-558
30
0
40
10
1
CIZEN:
50
0
7
STANDARD
100
AcDbText
0
TEXT
5
11D92
330
11BA2
100
AcDbEntity
100
AcDbText
8
METIN_BILGI
10
1550
20
-582
30
0
40
13
1
ANTIGRAVITY CAD ENG
50
0
7
STANDARD
100
AcDbText
0
TEXT
5
11D93
330
11BA2
100
AcDbEntity
100
AcDbText
8
METIN_BILGI
10
2015
20
-558
30
0
40
10
1
KONTROL:
50
0
7
STANDARD
100
AcDbText
0
TEXT
5
11D94
330
11BA2
100
AcDbEntity
100
AcDbText
8
METIN_BILGI
10
2025
20
-582
30
0
40
13
1
BAS MUHENDISLIK
50
0
7
STANDARD
100
AcDbText
0
LINE
5
11D95
330
11BA2
100
AcDbEntity
100
AcDbLine
8
METIN_BILGI
10
1520
20
-670
30
0
11
2470
21
-670
31
0
0
LINE
5
11D96
330
11BA2
100
AcDbEntity
100
AcDbLine
8
METIN_BILGI
10
1995
20
-670
30
0
11
1995
21
-600
31
0
0
TEXT
5
11D97
330
11BA2
100
AcDbEntity
100
AcDbText
8
METIN_BILGI
10
1540
20
-628
30
0
40
10
1
STATIK ONAY:
50
0
7
STANDARD
100
AcDbText
0
TEXT
5
11D98
330
11BA2
100
AcDbEntity
100
AcDbText
8
METIN_BILGI
10
1550
20
-652
30
0
40
13
1
UYGUNDUR (CE)
50
0
7
STANDARD
100
AcDbText
0
TEXT
5
11D99
330
11BA2
100
AcDbEntity
100
AcDbText
8
METIN_BILGI
10
2015
20
-628
30
0
40
10
1
FORMAT:
50
0
7
STANDARD
100
AcDbText
0
TEXT
5
11D9A
330
11BA2
100
AcDbEntity
100
AcDbText
8
METIN_BILGI
10
2025
20
-652
30
0
40
13
1
AUTOCAD DXF / DWG
50
0
7
STANDARD
100
AcDbText
0
LINE
5
11D9B
330
11BA2
100
AcDbEntity
100
AcDbLine
8
METIN_BILGI
10
1520
20
-740
30
0
11
2470
21
-740
31
0
0
LINE
5
11D9C
330
11BA2
100
AcDbEntity
100
AcDbLine
8
METIN_BILGI
10
1995
20
-740
30
0
11
1995
21
-670
31
0
0
TEXT
5
11D9D
330
11BA2
100
AcDbEntity
100
AcDbText
8
METIN_BILGI
10
1540
20
-698
30
0
40
10
1
DISIPLIN:
50
0
7
STANDARD
100
AcDbText
0
TEXT
5
11D9E
330
11BA2
100
AcDbEntity
100
AcDbText
8
METIN_BILGI
10
1550
20
-722
30
0
40
13
1
TELEKOM & ELEKTROMEKANIK
50
0
7
STANDARD
100
AcDbText
0
TEXT
5
11D9F
330
11BA2
100
AcDbEntity
100
AcDbText
8
METIN_BILGI
10
2015
20
-698
30
0
40
10
1
DURUM:
50
0
7
STANDARD
100
AcDbText
0
TEXT
5
11DA0
330
11BA2
100
AcDbEntity
100
AcDbText
8
METIN_BILGI
10
2025
20
-722
30
0
40
13
1
AS-BUILT / IMALAT
50
0
7
STANDARD
100
AcDbText
0
TEXT
5
11DA1
330
11BA2
100
AcDbEntity
100
AcDbText
8
METIN_BILGI
10
1995
20
-885
30
0
40
11
1
BU PAFTA GSM OPERATORLERI VE STADYUM YONETIMI ONAYLI RESMI IMALAT PROJESIDIR.
50
0
7
STANDARD
72
1
11
1995
21
-885
31
0
100
AcDbText
73
0
0
TEXT
5
11DA2
330
11BA2
100
AcDbEntity
100
AcDbText
8
METIN_BILGI
10
1995
20
-905
30
0
40
10
1
TUM OLCULER YERINDE KONTROL EDILECEKTIR. OLCUSUZ IMALAT YAPILAMAZ.
50
0
7
STANDARD
72
1
11
1995
21
-905
31
0
100
AcDbText
73
0
0
LWPOLYLINE
5
11BF8
330
11BA2
100
AcDbEntity
100
AcDbPolyline
8
EKP_TURKCELL_RRU
6
ByLayer
62
256
370
-1
90
4
70
1
10
-1875.85
20
1730
10
-1875.85
20
2210
10
-1519.85
20
2210
10
-1519.85
20
1730
0
LINE
5
11BF9
330
11BA2
100
AcDbEntity
100
AcDbLine
8
EKP_TURKCELL_RRU
10
-1845.85
20
1770
30
0
11
-1845.85
21
2170
31
0
0
LINE
5
11BFA
330
11BA2
100
AcDbEntity
100
AcDbLine
8
EKP_TURKCELL_RRU
10
-1820.85
20
1770
30
0
11
-1820.85
21
2170
31
0
0
LINE
5
11BFB
330
11BA2
100
AcDbEntity
100
AcDbLine
8
EKP_TURKCELL_RRU
10
-1795.85
20
1770
30
0
11
-1795.85
21
2170
31
0
0
LINE
5
11BFC
330
11BA2
100
AcDbEntity
100
AcDbLine
8
EKP_TURKCELL_RRU
10
-1770.85
20
1770
30
0
11
-1770.85
21
2170
31
0
0
LINE
5
11BFD
330
11BA2
100
AcDbEntity
100
AcDbLine
8
EKP_TURKCELL_RRU
10
-1745.85
20
1770
30
0
11
-1745.85
21
2170
31
0
0
LINE
5
11BFE
330
11BA2
100
AcDbEntity
100
AcDbLine
8
EKP_TURKCELL_RRU
10
-1720.85
20
1770
30
0
11
-1720.85
21
2170
31
0
0
LINE
5
11BFF
330
11BA2
100
AcDbEntity
100
AcDbLine
8
EKP_TURKCELL_RRU
10
-1695.85
20
1770
30
0
11
-1695.85
21
2170
31
0
0
LINE
5
11C00
330
11BA2
100
AcDbEntity
100
AcDbLine
8
EKP_TURKCELL_RRU
10
-1670.85
20
1770
30
0
11
-1670.85
21
2170
31
0
0
LINE
5
11C01
330
11BA2
100
AcDbEntity
100
AcDbLine
8
EKP_TURKCELL_RRU
10
-1645.85
20
1770
30
0
11
-1645.85
21
2170
31
0
0
LINE
5
11C02
330
11BA2
100
AcDbEntity
100
AcDbLine
8
EKP_TURKCELL_RRU
10
-1620.85
20
1770
30
0
11
-1620.85
21
2170
31
0
0
LINE
5
11C03
330
11BA2
100
AcDbEntity
100
AcDbLine
8
EKP_TURKCELL_RRU
10
-1595.85
20
1770
30
0
11
-1595.85
21
2170
31
0
0
LINE
5
11C04
330
11BA2
100
AcDbEntity
100
AcDbLine
8
EKP_TURKCELL_RRU
10
-1570.85
20
1770
30
0
11
-1570.85
21
2170
31
0
0
LWPOLYLINE
5
11C05
330
11BA2
100
AcDbEntity
100
AcDbPolyline
8
EKP_TURKCELL_RRU
6
ByLayer
62
256
370
-1
90
4
70
1
10
-1755.85
20
2210
10
-1755.85
20
2255
10
-1639.85
20
2255
10
-1639.85
20
2210
0
LWPOLYLINE
5
11C67
330
11BA2
100
AcDbEntity
100
AcDbPolyline
8
EKP_TURKCELL_RRU
6
ByLayer
62
256
370
-1
90
4
70
1
10
460
20
2600
10
460
20
3080
10
720
20
3080
10
720
20
2600
0
LWPOLYLINE
5
11C6A
330
11BA2
100
AcDbEntity
100
AcDbPolyline
8
EKP_TURKCELL_RRU
6
ByLayer
62
256
370
-1
90
4
70
1
10
680
20
2600
10
680
20
3080
10
940
20
3080
10
940
20
2600
0
LWPOLYLINE
5
11C6E
330
11BA2
100
AcDbEntity
100
AcDbPolyline
8
EKP_TURKCELL_RRU
6
ByLayer
62
256
370
-1
90
4
70
1
10
460
20
3470
10
460
20
3950
10
720
20
3950
10
720
20
3470
0
LWPOLYLINE
5
11C71
330
11BA2
100
AcDbEntity
100
AcDbPolyline
8
EKP_TURKCELL_RRU
6
ByLayer
62
256
370
-1
90
4
70
1
10
680
20
3470
10
680
20
3950
10
940
20
3950
10
940
20
3470
0
LWPOLYLINE
5
11CD8
330
11BA2
100
AcDbEntity
100
AcDbPolyline
8
EKP_TURKCELL_RRU
6
ByLayer
62
256
370
-1
90
4
70
1
10
-305
20
270
10
-305
20
630
10
115
20
630
10
115
20
270
0
LINE
5
11CD9
330
11BA2
100
AcDbEntity
100
AcDbLine
8
EKP_TURKCELL_RRU
10
-265
20
300
30
0
11
-265
21
600
31
0
0
LINE
5
11CDA
330
11BA2
100
AcDbEntity
100
AcDbLine
8
EKP_TURKCELL_RRU
10
-235
20
300
30
0
11
-235
21
600
31
0
0
LINE
5
11CDB
330
11BA2
100
AcDbEntity
100
AcDbLine
8
EKP_TURKCELL_RRU
10
-205
20
300
30
0
11
-205
21
600
31
0
0
LINE
5
11CDC
330
11BA2
100
AcDbEntity
100
AcDbLine
8
EKP_TURKCELL_RRU
10
-175
20
300
30
0
11
-175
21
600
31
0
0
LINE
5
11CDD
330
11BA2
100
AcDbEntity
100
AcDbLine
8
EKP_TURKCELL_RRU
10
-145
20
300
30
0
11
-145
21
600
31
0
0
LINE
5
11CDE
330
11BA2
100
AcDbEntity
100
AcDbLine
8
EKP_TURKCELL_RRU
10
-115
20
300
30
0
11
-115
21
600
31
0
0
LINE
5
11CDF
330
11BA2
100
AcDbEntity
100
AcDbLine
8
EKP_TURKCELL_RRU
10
-85
20
300
30
0
11
-85
21
600
31
0
0
LINE
5
11CE0
330
11BA2
100
AcDbEntity
100
AcDbLine
8
EKP_TURKCELL_RRU
10
-55
20
300
30
0
11
-55
21
600
31
0
0
LINE
5
11CE1
330
11BA2
100
AcDbEntity
100
AcDbLine
8
EKP_TURKCELL_RRU
10
-25
20
300
30
0
11
-25
21
600
31
0
0
LINE
5
11CE2
330
11BA2
100
AcDbEntity
100
AcDbLine
8
EKP_TURKCELL_RRU
10
5
20
300
30
0
11
5
21
600
31
0
0
LINE
5
11CE3
330
11BA2
100
AcDbEntity
100
AcDbLine
8
EKP_TURKCELL_RRU
10
35
20
300
30
0
11
35
21
600
31
0
0
LINE
5
11CE4
330
11BA2
100
AcDbEntity
100
AcDbLine
8
EKP_TURKCELL_RRU
10
65
20
300
30
0
11
65
21
600
31
0
0
LWPOLYLINE
5
11CEE
330
11BA2
100
AcDbEntity
100
AcDbPolyline
8
EKP_TURKCELL_RRU
6
ByLayer
62
256
370
-1
90
4
70
1
10
1100
20
630
10
1100
20
670
10
1900
20
670
10
1900
20
630
0
LWPOLYLINE
5
11C5D
330
11BA2
100
AcDbEntity
100
AcDbPolyline
8
EKP_VODAFONE_RRU
6
ByLayer
62
256
370
-1
90
4
70
1
10
400
20
1730
10
400
20
2210
10
660
20
2210
10
660
20
1730
0
LWPOLYLINE
5
11C60
330
11BA2
100
AcDbEntity
100
AcDbPolyline
8
EKP_VODAFONE_RRU
6
ByLayer
62
256
370
-1
90
4
70
1
10
570
20
1730
10
570
20
2210
10
830
20
2210
10
830
20
1730
0
LWPOLYLINE
5
11C63
330
11BA2
100
AcDbEntity
100
AcDbPolyline
8
EKP_VODAFONE_RRU
6
ByLayer
62
256
370
-1
90
4
70
1
10
740
20
1730
10
740
20
2210
10
1000
20
2210
10
1000
20
1730
0
LWPOLYLINE
5
11C75
330
11BA2
100
AcDbEntity
100
AcDbPolyline
8
EKP_VODAFONE_RRU
6
ByLayer
62
256
370
-1
90
4
70
1
10
1500
20
1730
10
1500
20
2210
10
1760
20
2210
10
1760
20
1730
0
LWPOLYLINE
5
11C78
330
11BA2
100
AcDbEntity
100
AcDbPolyline
8
EKP_VODAFONE_RRU
6
ByLayer
62
256
370
-1
90
4
70
1
10
1670
20
1730
10
1670
20
2210
10
1930
20
2210
10
1930
20
1730
0
LWPOLYLINE
5
11C7B
330
11BA2
100
AcDbEntity
100
AcDbPolyline
8
EKP_VODAFONE_RRU
6
ByLayer
62
256
370
-1
90
4
70
1
10
1840
20
1730
10
1840
20
2210
10
2100
20
2210
10
2100
20
1730
0
LWPOLYLINE
5
11C7F
330
11BA2
100
AcDbEntity
100
AcDbPolyline
8
EKP_TURK_TELEKOM_RRU
6
ByLayer
62
256
370
-1
90
4
70
1
10
1560
20
2600
10
1560
20
3080
10
1820
20
3080
10
1820
20
2600
0
LWPOLYLINE
5
11C82
330
11BA2
100
AcDbEntity
100
AcDbPolyline
8
EKP_TURK_TELEKOM_RRU
6
ByLayer
62
256
370
-1
90
4
70
1
10
1780
20
2600
10
1780
20
3080
10
2040
20
3080
10
2040
20
2600
0
LWPOLYLINE
5
11C86
330
11BA2
100
AcDbEntity
100
AcDbPolyline
8
EKP_TURK_TELEKOM_RRU
6
ByLayer
62
256
370
-1
90
4
70
1
10
1560
20
3470
10
1560
20
3950
10
1820
20
3950
10
1820
20
3470
0
LWPOLYLINE
5
11C89
330
11BA2
100
AcDbEntity
100
AcDbPolyline
8
EKP_TURK_TELEKOM_RRU
6
ByLayer
62
256
370
-1
90
4
70
1
10
1780
20
3470
10
1780
20
3950
10
2040
20
3950
10
2040
20
3470
0
ENDSEC
0
SECTION
2
OBJECTS
0
DICTIONARY
5
11B90
330
0
100
AcDbDictionary
281
1
3
ACAD_GROUP
350
11BA6
0
DICTIONARY
5
11BA6
330
11B90
100
AcDbDictionary
281
1
0
ENDSEC
0
EOF