0
SECTION
2
HEADER
9
$HANDSEED
5
12222
9
$INSUNITS
70
4
9
$ACADVER
1
AC1021
9
$DWGCODEPAGE
3
UTF-8
0
ENDSEC
0
SECTION
2
CLASSES
0
ENDSEC
0
SECTION
2
TABLES
0
TABLE
2
LTYPE
5
12220
330
0
100
AcDbSymbolTable
70
5
0
LTYPE
5
11FC2
330
12220
100
AcDbSymbolTableRecord
100
AcDbLinetypeTableRecord
2
CONTINUOUS
3
______
70
0
72
65
73
0
40
0
0
LTYPE
5
11FC3
330
12220
100
AcDbSymbolTableRecord
100
AcDbLinetypeTableRecord
2
DASHED
3
_ _ _ 
70
0
72
65
73
2
40
10
49
5
74
0
49
-5
74
0
0
LTYPE
5
11FC4
330
12220
100
AcDbSymbolTableRecord
100
AcDbLinetypeTableRecord
2
DOTTED
3
. . . 
70
0
72
65
73
2
40
5
49
0
74
0
49
-5
74
0
0
LTYPE
5
11FC6
330
12220
100
AcDbSymbolTableRecord
100
AcDbLinetypeTableRecord
2
ByBlock
3

70
0
72
65
73
0
40
0
0
LTYPE
5
11FC7
330
12220
100
AcDbSymbolTableRecord
100
AcDbLinetypeTableRecord
2
ByLayer
3

70
0
72
65
73
0
40
0
0
ENDTAB
0
TABLE
2
LAYER
5
12221
330
0
100
AcDbSymbolTable
70
21
0
LAYER
5
11FC5
330
12221
100
AcDbSymbolTableRecord
100
AcDbLayerTableRecord
2
0
62
7
70
0
6
CONTINUOUS
390
1
0
LAYER
5
11FD8
330
12221
100
AcDbSymbolTableRecord
100
AcDbLayerTableRecord
2
ZEMIN_PLATFORM
62
8
70
0
6
CONTINUOUS
390
1
0
LAYER
5
11FD9
330
12221
100
AcDbSymbolTableRecord
100
AcDbLayerTableRecord
2
KORKULUK_KAPI
62
4
70
0
6
CONTINUOUS
390
1
0
LAYER
5
11FDA
330
12221
100
AcDbSymbolTableRecord
100
AcDbLayerTableRecord
2
CELIK_KIRIS_KOLON
62
9
70
0
6
CONTINUOUS
390
1
0
LAYER
5
11FDB
330
12221
100
AcDbSymbolTableRecord
100
AcDbLayerTableRecord
2
MONTAJ_BORULARI
62
2
70
0
6
CONTINUOUS
390
1
0
LAYER
5
11FDC
330
12221
100
AcDbSymbolTableRecord
100
AcDbLayerTableRecord
2
KABLO_TAVALARI
62
6
70
0
6
CONTINUOUS
390
1
0
LAYER
5
11FDD
330
12221
100
AcDbSymbolTableRecord
100
AcDbLayerTableRecord
2
YURUYUS_KORIDORU
62
3
70
0
6
DASHED
390
1
0
LAYER
5
11FDE
330
12221
100
AcDbSymbolTableRecord
100
AcDbLayerTableRecord
2
OLCULER
62
1
70
0
6
CONTINUOUS
390
1
0
LAYER
5
11FDF
330
12221
100
AcDbSymbolTableRecord
100
AcDbLayerTableRecord
2
METIN_BILGI
62
7
70
0
6
CONTINUOUS
390
1
0
LAYER
5
11FE0
330
12221
100
AcDbSymbolTableRecord
100
AcDbLayerTableRecord
2
EKP_TURKCELL_RRU
62
5
70
0
6
CONTINUOUS
390
1
0
LAYER
5
11FE1
330
12221
100
AcDbSymbolTableRecord
100
AcDbLayerTableRecord
2
EKP_VODAFONE_RRU
62
1
70
0
6
CONTINUOUS
390
1
0
LAYER
5
11FE2
330
12221
100
AcDbSymbolTableRecord
100
AcDbLayerTableRecord
2
EKP_TURK_TELEKOM_RRU
62
4
70
0
6
CONTINUOUS
390
1
0
LAYER
5
11FE3
330
12221
100
AcDbSymbolTableRecord
100
AcDbLayerTableRecord
2
EKP_POI_TASIYICI_SASE
62
30
70
0
6
CONTINUOUS
390
1
0
LAYER
5
11FE4
330
12221
100
AcDbSymbolTableRecord
100
AcDbLayerTableRecord
2
EKP_POI_MODULLERI
62
40
70
0
6
CONTINUOUS
390
1
0
LAYER
5
11FE5
330
12221
100
AcDbSymbolTableRecord
100
AcDbLayerTableRecord
2
EKP_RECTIFIER_ELTEK_20U
62
3
70
0
6
CONTINUOUS
390
1
0
LAYER
5
11FE6
330
12221
100
AcDbSymbolTableRecord
100
AcDbLayerTableRecord
2
EKP_RECTIFIER_MTS9304A
62
94
70
0
6
CONTINUOUS
390
1
0
LAYER
5
11FE7
330
12221
100
AcDbSymbolTableRecord
100
AcDbLayerTableRecord
2
BLOK_OZEL_PLATFORM
62
140
70
0
6
CONTINUOUS
390
1
0
LAYER
5
11FE8
330
12221
100
AcDbSymbolTableRecord
100
AcDbLayerTableRecord
2
EKP_MATSING_ANTEN
62
2
70
0
6
CONTINUOUS
390
1
0
LAYER
5
11FE9
330
12221
100
AcDbSymbolTableRecord
100
AcDbLayerTableRecord
2
EKP_PANEL_ANTEN
62
6
70
0
6
CONTINUOUS
390
1
0
LAYER
5
11FEA
330
12221
100
AcDbSymbolTableRecord
100
AcDbLayerTableRecord
2
EKP_ANTEN_TASIYICI_KOL
62
141
70
0
6
CONTINUOUS
390
1
0
LAYER
5
11FEB
330
12221
100
AcDbSymbolTableRecord
100
AcDbLayerTableRecord
2
EKP_DIGER_EKIPMANLAR
62
7
70
0
6
CONTINUOUS
390
1
0
ENDTAB
0
TABLE
2
VPORT
5
11FC8
330
0
100
AcDbSymbolTable
70
1
0
VPORT
5
11FCE
330
11FC8
100
AcDbSymbolTableRecord
100
AcDbViewportTableRecord
2
*ACTIVE
40
1000
70
0
0
ENDTAB
0
TABLE
2
STYLE
5
11FC9
330
0
100
AcDbSymbolTable
70
3
0
STYLE
5
11FCF
330
11FC9
100
AcDbSymbolTableRecord
100
AcDbTextStyleTableRecord
2
standard
70
0
40
0
41
1
50
0
71
0
42
1
3
calibrib.ttf
4

1001
ACAD
1000
Calibri
1071
33554466
0
STYLE
5
11FD0
330
11FC9
100
AcDbSymbolTableRecord
100
AcDbTextStyleTableRecord
2
STANDARD
70
0
40
0
41
1
50
0
71
0
42
1
3
calibrib.ttf
4

1001
ACAD
1000
Calibri
1071
33554466
0
STYLE
5
11FD1
330
11FC9
100
AcDbSymbolTableRecord
100
AcDbTextStyleTableRecord
2
CALIBRI_BOLD
70
0
40
0
41
1
50
0
71
0
42
1
3
calibrib.ttf
4

1001
ACAD
1000
Calibri
1071
33554466
0
ENDTAB
0
TABLE
2
VIEW
5
11FCA
330
0
100
AcDbSymbolTable
70
0
0
ENDTAB
0
TABLE
2
UCS
5
11FCB
330
0
100
AcDbSymbolTable
70
0
0
ENDTAB
0
TABLE
2
APPID
5
11FCC
330
0
100
AcDbSymbolTable
70
1
0
APPID
5
11FD2
330
11FCC
100
AcDbSymbolTableRecord
100
AcDbRegAppTableRecord
2
ACAD
70
0
0
ENDTAB
0
TABLE
2
DIMSTYLE
5
11FCD
330
0
100
AcDbSymbolTable
100
AcDbDimStyleTable
70
0
71
1
0
ENDTAB
0
TABLE
2
BLOCK_RECORD
5
1221D
330
0
100
AcDbSymbolTable
70
2
0
BLOCK_RECORD
5
1221E
330
1221D
100
AcDbSymbolTableRecord
100
AcDbBlockTableRecord
2
*Model_Space
70
0
280
0
281
1
0
BLOCK_RECORD
5
1221F
330
1221D
100
AcDbSymbolTableRecord
100
AcDbBlockTableRecord
2
*Paper_Space
70
0
280
0
281
1
0
ENDTAB
0
ENDSEC
0
SECTION
2
BLOCKS
0
BLOCK
5
11FD3
330
0
100
AcDbEntity
100
AcDbBlockBegin
2
*Model_Space
70
0
10
0
20
0
30
0
3
*Model_Space
1

0
ENDBLK
5
11FD4
330
0
100
AcDbEntity
100
AcDbBlockEnd
0
BLOCK
5
11FD5
330
0
100
AcDbEntity
100
AcDbBlockBegin
2
*Paper_Space
70
0
10
0
20
0
30
0
3
*Paper_Space
1

0
ENDBLK
5
11FD6
330
0
100
AcDbEntity
100
AcDbBlockEnd
0
ENDSEC
0
SECTION
2
ENTITIES
0
LWPOLYLINE
5
12014
330
11FD3
100
AcDbEntity
100
AcDbPolyline
8
ZEMIN_PLATFORM
6
ByLayer
62
256
370
-1
90
4
70
1
10
-1780
20
1370
10
-1780
20
1405
10
-580
20
1405
10
-580
20
1370
0
LINE
5
12015
330
11FD3
100
AcDbEntity
100
AcDbLine
8
ZEMIN_PLATFORM
10
-1720
20
1370
30
0
11
-1720
21
1405
31
0
0
LINE
5
12016
330
11FD3
100
AcDbEntity
100
AcDbLine
8
ZEMIN_PLATFORM
10
-1660
20
1370
30
0
11
-1660
21
1405
31
0
0
LINE
5
12017
330
11FD3
100
AcDbEntity
100
AcDbLine
8
ZEMIN_PLATFORM
10
-1600
20
1370
30
0
11
-1600
21
1405
31
0
0
LINE
5
12018
330
11FD3
100
AcDbEntity
100
AcDbLine
8
ZEMIN_PLATFORM
10
-1540
20
1370
30
0
11
-1540
21
1405
31
0
0
LINE
5
12019
330
11FD3
100
AcDbEntity
100
AcDbLine
8
ZEMIN_PLATFORM
10
-1480
20
1370
30
0
11
-1480
21
1405
31
0
0
LINE
5
1201A
330
11FD3
100
AcDbEntity
100
AcDbLine
8
ZEMIN_PLATFORM
10
-1420
20
1370
30
0
11
-1420
21
1405
31
0
0
LINE
5
1201B
330
11FD3
100
AcDbEntity
100
AcDbLine
8
ZEMIN_PLATFORM
10
-1360
20
1370
30
0
11
-1360
21
1405
31
0
0
LINE
5
1201C
330
11FD3
100
AcDbEntity
100
AcDbLine
8
ZEMIN_PLATFORM
10
-1300
20
1370
30
0
11
-1300
21
1405
31
0
0
LINE
5
1201D
330
11FD3
100
AcDbEntity
100
AcDbLine
8
ZEMIN_PLATFORM
10
-1240
20
1370
30
0
11
-1240
21
1405
31
0
0
LINE
5
1201E
330
11FD3
100
AcDbEntity
100
AcDbLine
8
ZEMIN_PLATFORM
10
-1180
20
1370
30
0
11
-1180
21
1405
31
0
0
LINE
5
1201F
330
11FD3
100
AcDbEntity
100
AcDbLine
8
ZEMIN_PLATFORM
10
-1120
20
1370
30
0
11
-1120
21
1405
31
0
0
LINE
5
12020
330
11FD3
100
AcDbEntity
100
AcDbLine
8
ZEMIN_PLATFORM
10
-1060
20
1370
30
0
11
-1060
21
1405
31
0
0
LINE
5
12021
330
11FD3
100
AcDbEntity
100
AcDbLine
8
ZEMIN_PLATFORM
10
-1000
20
1370
30
0
11
-1000
21
1405
31
0
0
LINE
5
12022
330
11FD3
100
AcDbEntity
100
AcDbLine
8
ZEMIN_PLATFORM
10
-940
20
1370
30
0
11
-940
21
1405
31
0
0
LINE
5
12023
330
11FD3
100
AcDbEntity
100
AcDbLine
8
ZEMIN_PLATFORM
10
-880
20
1370
30
0
11
-880
21
1405
31
0
0
LINE
5
12024
330
11FD3
100
AcDbEntity
100
AcDbLine
8
ZEMIN_PLATFORM
10
-820
20
1370
30
0
11
-820
21
1405
31
0
0
LINE
5
12025
330
11FD3
100
AcDbEntity
100
AcDbLine
8
ZEMIN_PLATFORM
10
-760
20
1370
30
0
11
-760
21
1405
31
0
0
LINE
5
12026
330
11FD3
100
AcDbEntity
100
AcDbLine
8
ZEMIN_PLATFORM
10
-700
20
1370
30
0
11
-700
21
1405
31
0
0
LINE
5
12027
330
11FD3
100
AcDbEntity
100
AcDbLine
8
ZEMIN_PLATFORM
10
-640
20
1370
30
0
11
-640
21
1405
31
0
0
LWPOLYLINE
5
120D1
330
11FD3
100
AcDbEntity
100
AcDbPolyline
8
ZEMIN_PLATFORM
6
ByLayer
62
256
370
-1
90
4
70
1
10
700
20
1370
10
700
20
1405
10
1900
20
1405
10
1900
20
1370
0
LINE
5
120D2
330
11FD3
100
AcDbEntity
100
AcDbLine
8
ZEMIN_PLATFORM
10
760
20
1370
30
0
11
760
21
1405
31
0
0
LINE
5
120D3
330
11FD3
100
AcDbEntity
100
AcDbLine
8
ZEMIN_PLATFORM
10
820
20
1370
30
0
11
820
21
1405
31
0
0
LINE
5
120D4
330
11FD3
100
AcDbEntity
100
AcDbLine
8
ZEMIN_PLATFORM
10
880
20
1370
30
0
11
880
21
1405
31
0
0
LINE
5
120D5
330
11FD3
100
AcDbEntity
100
AcDbLine
8
ZEMIN_PLATFORM
10
940
20
1370
30
0
11
940
21
1405
31
0
0
LINE
5
120D6
330
11FD3
100
AcDbEntity
100
AcDbLine
8
ZEMIN_PLATFORM
10
1000
20
1370
30
0
11
1000
21
1405
31
0
0
LINE
5
120D7
330
11FD3
100
AcDbEntity
100
AcDbLine
8
ZEMIN_PLATFORM
10
1060
20
1370
30
0
11
1060
21
1405
31
0
0
LINE
5
120D8
330
11FD3
100
AcDbEntity
100
AcDbLine
8
ZEMIN_PLATFORM
10
1120
20
1370
30
0
11
1120
21
1405
31
0
0
LINE
5
120D9
330
11FD3
100
AcDbEntity
100
AcDbLine
8
ZEMIN_PLATFORM
10
1180
20
1370
30
0
11
1180
21
1405
31
0
0
LINE
5
120DA
330
11FD3
100
AcDbEntity
100
AcDbLine
8
ZEMIN_PLATFORM
10
1240
20
1370
30
0
11
1240
21
1405
31
0
0
LINE
5
120DB
330
11FD3
100
AcDbEntity
100
AcDbLine
8
ZEMIN_PLATFORM
10
1300
20
1370
30
0
11
1300
21
1405
31
0
0
LINE
5
120DC
330
11FD3
100
AcDbEntity
100
AcDbLine
8
ZEMIN_PLATFORM
10
1360
20
1370
30
0
11
1360
21
1405
31
0
0
LINE
5
120DD
330
11FD3
100
AcDbEntity
100
AcDbLine
8
ZEMIN_PLATFORM
10
1420
20
1370
30
0
11
1420
21
1405
31
0
0
LINE
5
120DE
330
11FD3
100
AcDbEntity
100
AcDbLine
8
ZEMIN_PLATFORM
10
1480
20
1370
30
0
11
1480
21
1405
31
0
0
LINE
5
120DF
330
11FD3
100
AcDbEntity
100
AcDbLine
8
ZEMIN_PLATFORM
10
1540
20
1370
30
0
11
1540
21
1405
31
0
0
LINE
5
120E0
330
11FD3
100
AcDbEntity
100
AcDbLine
8
ZEMIN_PLATFORM
10
1600
20
1370
30
0
11
1600
21
1405
31
0
0
LINE
5
120E1
330
11FD3
100
AcDbEntity
100
AcDbLine
8
ZEMIN_PLATFORM
10
1660
20
1370
30
0
11
1660
21
1405
31
0
0
LINE
5
120E2
330
11FD3
100
AcDbEntity
100
AcDbLine
8
ZEMIN_PLATFORM
10
1720
20
1370
30
0
11
1720
21
1405
31
0
0
LINE
5
120E3
330
11FD3
100
AcDbEntity
100
AcDbLine
8
ZEMIN_PLATFORM
10
1780
20
1370
30
0
11
1780
21
1405
31
0
0
LINE
5
120E4
330
11FD3
100
AcDbEntity
100
AcDbLine
8
ZEMIN_PLATFORM
10
1840
20
1370
30
0
11
1840
21
1405
31
0
0
LWPOLYLINE
5
1202B
330
11FD3
100
AcDbEntity
100
AcDbPolyline
8
KORKULUK_KAPI
6
ByLayer
62
256
370
-1
90
4
70
1
10
-1785
20
1405
10
-1785
20
2505
10
-1750
20
2505
10
-1750
20
1405
0
CIRCLE
5
1202C
330
11FD3
100
AcDbEntity
100
AcDbCircle
8
KORKULUK_KAPI
10
-1768
20
2505
30
0
40
20
0
LWPOLYLINE
5
1202D
330
11FD3
100
AcDbEntity
100
AcDbPolyline
8
KORKULUK_KAPI
6
ByLayer
62
256
370
-1
90
4
70
1
10
-1780
20
1955
10
-1780
20
1975
10
-1755
20
1975
10
-1755
20
1955
0
LWPOLYLINE
5
1202E
330
11FD3
100
AcDbEntity
100
AcDbPolyline
8
KORKULUK_KAPI
6
ByLayer
62
256
370
-1
90
4
70
1
10
-1780
20
1405
10
-1780
20
1555
10
-1765
20
1555
10
-1765
20
1405
0
LWPOLYLINE
5
1202F
330
11FD3
100
AcDbEntity
100
AcDbPolyline
8
KORKULUK_KAPI
6
ByLayer
62
256
370
-1
90
4
70
1
10
-610
20
1405
10
-610
20
2505
10
-575
20
2505
10
-575
20
1405
0
CIRCLE
5
12030
330
11FD3
100
AcDbEntity
100
AcDbCircle
8
KORKULUK_KAPI
10
-592
20
2505
30
0
40
20
0
LWPOLYLINE
5
12031
330
11FD3
100
AcDbEntity
100
AcDbPolyline
8
KORKULUK_KAPI
6
ByLayer
62
256
370
-1
90
4
70
1
10
-600
20
1955
10
-600
20
1975
10
-575
20
1975
10
-575
20
1955
0
LWPOLYLINE
5
12032
330
11FD3
100
AcDbEntity
100
AcDbPolyline
8
KORKULUK_KAPI
6
ByLayer
62
256
370
-1
90
4
70
1
10
-595
20
1405
10
-595
20
1555
10
-580
20
1555
10
-580
20
1405
0
LWPOLYLINE
5
120E8
330
11FD3
100
AcDbEntity
100
AcDbPolyline
8
KORKULUK_KAPI
6
ByLayer
62
256
370
-1
90
4
70
1
10
695
20
1405
10
695
20
2505
10
730
20
2505
10
730
20
1405
0
CIRCLE
5
120E9
330
11FD3
100
AcDbEntity
100
AcDbCircle
8
KORKULUK_KAPI
10
712
20
2505
30
0
40
20
0
LWPOLYLINE
5
120EA
330
11FD3
100
AcDbEntity
100
AcDbPolyline
8
KORKULUK_KAPI
6
ByLayer
62
256
370
-1
90
4
70
1
10
700
20
1955
10
700
20
1975
10
725
20
1975
10
725
20
1955
0
LWPOLYLINE
5
120EB
330
11FD3
100
AcDbEntity
100
AcDbPolyline
8
KORKULUK_KAPI
6
ByLayer
62
256
370
-1
90
4
70
1
10
700
20
1405
10
700
20
1555
10
715
20
1555
10
715
20
1405
0
LWPOLYLINE
5
120EC
330
11FD3
100
AcDbEntity
100
AcDbPolyline
8
KORKULUK_KAPI
6
ByLayer
62
256
370
-1
90
4
70
1
10
1870
20
1405
10
1870
20
2505
10
1905
20
2505
10
1905
20
1405
0
CIRCLE
5
120ED
330
11FD3
100
AcDbEntity
100
AcDbCircle
8
KORKULUK_KAPI
10
1888
20
2505
30
0
40
20
0
LWPOLYLINE
5
120EE
330
11FD3
100
AcDbEntity
100
AcDbPolyline
8
KORKULUK_KAPI
6
ByLayer
62
256
370
-1
90
4
70
1
10
1880
20
1955
10
1880
20
1975
10
1905
20
1975
10
1905
20
1955
0
LWPOLYLINE
5
120EF
330
11FD3
100
AcDbEntity
100
AcDbPolyline
8
KORKULUK_KAPI
6
ByLayer
62
256
370
-1
90
4
70
1
10
1885
20
1405
10
1885
20
1555
10
1900
20
1555
10
1900
20
1405
0
LWPOLYLINE
5
11FF7
330
11FD3
100
AcDbEntity
100
AcDbPolyline
8
CELIK_KIRIS_KOLON
6
ByLayer
62
256
370
-1
90
4
70
1
10
-2450
20
1370
10
-2450
20
2570
10
-2310
20
2570
10
-2310
20
1370
0
LINE
5
11FF9
330
11FD3
100
AcDbEntity
100
AcDbLine
8
CELIK_KIRIS_KOLON
10
-2450
20
1670
30
0
11
-2580
21
2070
31
0
0
LINE
5
11FFA
330
11FD3
100
AcDbEntity
100
AcDbLine
8
CELIK_KIRIS_KOLON
10
-2450
20
2070
30
0
11
-2580
21
1670
31
0
0
LINE
5
11FFB
330
11FD3
100
AcDbEntity
100
AcDbLine
8
CELIK_KIRIS_KOLON
10
-2450
20
2070
30
0
11
-2580
21
2470
31
0
0
LWPOLYLINE
5
12028
330
11FD3
100
AcDbEntity
100
AcDbPolyline
8
CELIK_KIRIS_KOLON
6
ByLayer
62
256
370
-1
90
4
70
1
10
-1780
20
1250
10
-1780
20
1370
10
-1720
20
1370
10
-1720
20
1250
0
LWPOLYLINE
5
12029
330
11FD3
100
AcDbEntity
100
AcDbPolyline
8
CELIK_KIRIS_KOLON
6
ByLayer
62
256
370
-1
90
4
70
1
10
-640
20
1250
10
-640
20
1370
10
-580
20
1370
10
-580
20
1250
0
LWPOLYLINE
5
1202A
330
11FD3
100
AcDbEntity
100
AcDbPolyline
8
CELIK_KIRIS_KOLON
6
ByLayer
62
256
370
-1
90
4
70
1
10
-1720
20
1270
10
-1720
20
1295
10
-640
20
1295
10
-640
20
1270
0
LWPOLYLINE
5
12069
330
11FD3
100
AcDbEntity
100
AcDbPolyline
8
CELIK_KIRIS_KOLON
6
ByLayer
62
256
370
-1
90
4
70
1
10
-1230
20
1670
10
-1230
20
1750
10
-130
20
1750
10
-130
20
1670
0
LWPOLYLINE
5
1206A
330
11FD3
100
AcDbEntity
100
AcDbPolyline
8
CELIK_KIRIS_KOLON
6
ByLayer
62
256
370
-1
90
4
70
1
10
-1230
20
2320
10
-1230
20
2400
10
-130
20
2400
10
-130
20
2320
0
LWPOLYLINE
5
120CD
330
11FD3
100
AcDbEntity
100
AcDbPolyline
8
CELIK_KIRIS_KOLON
6
ByLayer
62
256
370
-1
90
4
70
1
10
130
20
1370
10
130
20
2570
10
270
20
2570
10
270
20
1370
0
LWPOLYLINE
5
120E5
330
11FD3
100
AcDbEntity
100
AcDbPolyline
8
CELIK_KIRIS_KOLON
6
ByLayer
62
256
370
-1
90
4
70
1
10
700
20
1250
10
700
20
1370
10
760
20
1370
10
760
20
1250
0
LWPOLYLINE
5
120E6
330
11FD3
100
AcDbEntity
100
AcDbPolyline
8
CELIK_KIRIS_KOLON
6
ByLayer
62
256
370
-1
90
4
70
1
10
1840
20
1250
10
1840
20
1370
10
1900
20
1370
10
1900
20
1250
0
LWPOLYLINE
5
120E7
330
11FD3
100
AcDbEntity
100
AcDbPolyline
8
CELIK_KIRIS_KOLON
6
ByLayer
62
256
370
-1
90
4
70
1
10
760
20
1270
10
760
20
1295
10
1840
20
1295
10
1840
20
1270
0
CIRCLE
5
120F3
330
11FD3
100
AcDbEntity
100
AcDbCircle
8
CELIK_KIRIS_KOLON
10
765
20
1417
30
0
40
8
0
CIRCLE
5
120F4
330
11FD3
100
AcDbEntity
100
AcDbCircle
8
CELIK_KIRIS_KOLON
10
1245
20
1417
30
0
40
8
0
LWPOLYLINE
5
12196
330
11FD3
100
AcDbEntity
100
AcDbPolyline
8
CELIK_KIRIS_KOLON
6
ByLayer
62
256
370
-1
90
4
70
1
10
-350
20
-340
10
-350
20
-280
10
-230
20
-280
10
-230
20
-340
0
LINE
5
1219F
330
11FD3
100
AcDbEntity
100
AcDbLine
8
CELIK_KIRIS_KOLON
10
-310
20
-255
30
0
11
-310
21
-370
31
0
0
CIRCLE
5
121A0
330
11FD3
100
AcDbEntity
100
AcDbCircle
8
CELIK_KIRIS_KOLON
10
-310
20
-375
30
0
40
8
0
LWPOLYLINE
5
11FFC
330
11FD3
100
AcDbEntity
100
AcDbPolyline
8
MONTAJ_BORULARI
6
ByLayer
62
256
370
-1
90
4
70
1
10
-2310
20
2025
10
-2310
20
2075
10
-2110
20
2075
10
-2110
20
2025
0
LWPOLYLINE
5
11FFE
330
11FD3
100
AcDbEntity
100
AcDbPolyline
8
MONTAJ_BORULARI
6
ByLayer
62
256
370
-1
90
4
70
1
10
-2110
20
1570
10
-2110
20
2520
10
-2050
20
2520
10
-2050
20
1570
0
CIRCLE
5
11FFF
330
11FD3
100
AcDbEntity
100
AcDbCircle
8
MONTAJ_BORULARI
10
-2080
20
2530
30
0
40
30
0
LWPOLYLINE
5
1206B
330
11FD3
100
AcDbEntity
100
AcDbPolyline
8
MONTAJ_BORULARI
6
ByLayer
62
256
370
-1
90
4
70
1
10
-1165
20
1690
10
-1165
20
2390
10
-1135
20
2390
10
-1135
20
1690
0
LWPOLYLINE
5
12073
330
11FD3
100
AcDbEntity
100
AcDbPolyline
8
MONTAJ_BORULARI
6
ByLayer
62
256
370
-1
90
4
70
1
10
-1040
20
1690
10
-1040
20
2390
10
-1010
20
2390
10
-1010
20
1690
0
LWPOLYLINE
5
1207F
330
11FD3
100
AcDbEntity
100
AcDbPolyline
8
MONTAJ_BORULARI
6
ByLayer
62
256
370
-1
90
4
70
1
10
-917.5
20
1690
10
-917.5
20
2390
10
-887.5
20
2390
10
-887.5
20
1690
0
LWPOLYLINE
5
12087
330
11FD3
100
AcDbEntity
100
AcDbPolyline
8
MONTAJ_BORULARI
6
ByLayer
62
256
370
-1
90
4
70
1
10
-797.5
20
1690
10
-797.5
20
2390
10
-767.5
20
2390
10
-767.5
20
1690
0
LWPOLYLINE
5
12093
330
11FD3
100
AcDbEntity
100
AcDbPolyline
8
MONTAJ_BORULARI
6
ByLayer
62
256
370
-1
90
4
70
1
10
-672.5
20
1690
10
-672.5
20
2390
10
-642.5
20
2390
10
-642.5
20
1690
0
LWPOLYLINE
5
1209B
330
11FD3
100
AcDbEntity
100
AcDbPolyline
8
MONTAJ_BORULARI
6
ByLayer
62
256
370
-1
90
4
70
1
10
-542.5
20
1690
10
-542.5
20
2390
10
-512.5
20
2390
10
-512.5
20
1690
0
LWPOLYLINE
5
120A3
330
11FD3
100
AcDbEntity
100
AcDbPolyline
8
MONTAJ_BORULARI
6
ByLayer
62
256
370
-1
90
4
70
1
10
-412.5
20
1690
10
-412.5
20
2390
10
-382.5
20
2390
10
-382.5
20
1690
0
LWPOLYLINE
5
120F5
330
11FD3
100
AcDbEntity
100
AcDbPolyline
8
MONTAJ_BORULARI
6
ByLayer
62
256
370
-1
90
4
70
1
10
800
20
1430
10
800
20
1448
10
900
20
1448
10
900
20
1430
0
LWPOLYLINE
5
120F6
330
11FD3
100
AcDbEntity
100
AcDbPolyline
8
MONTAJ_BORULARI
6
ByLayer
62
256
370
-1
90
4
70
1
10
825
20
1448
10
825
20
2898
10
875
20
2898
10
875
20
1448
0
CIRCLE
5
120F7
330
11FD3
100
AcDbEntity
100
AcDbCircle
8
MONTAJ_BORULARI
10
850
20
2898
30
0
40
25
0
LWPOLYLINE
5
120F8
330
11FD3
100
AcDbEntity
100
AcDbPolyline
8
MONTAJ_BORULARI
6
ByLayer
62
256
370
-1
90
4
70
1
10
1110
20
1430
10
1110
20
1448
10
1210
20
1448
10
1210
20
1430
0
LWPOLYLINE
5
120F9
330
11FD3
100
AcDbEntity
100
AcDbPolyline
8
MONTAJ_BORULARI
6
ByLayer
62
256
370
-1
90
4
70
1
10
1135
20
1448
10
1135
20
2898
10
1185
20
2898
10
1185
20
1448
0
CIRCLE
5
120FA
330
11FD3
100
AcDbEntity
100
AcDbCircle
8
MONTAJ_BORULARI
10
1160
20
2898
30
0
40
25
0
LINE
5
12102
330
11FD3
100
AcDbEntity
100
AcDbLine
8
MONTAJ_BORULARI
10
905
20
2903
30
0
11
850
21
2880
31
0
0
LINE
5
12103
330
11FD3
100
AcDbEntity
100
AcDbLine
8
MONTAJ_BORULARI
10
1105
20
2903
30
0
11
1160
21
2880
31
0
0
LWPOLYLINE
5
12126
330
11FD3
100
AcDbEntity
100
AcDbPolyline
8
MONTAJ_BORULARI
6
ByLayer
62
256
370
-1
90
4
70
1
10
1405
20
1395
10
1405
20
1413
10
1495
20
1413
10
1495
20
1395
0
LWPOLYLINE
5
12127
330
11FD3
100
AcDbEntity
100
AcDbPolyline
8
MONTAJ_BORULARI
6
ByLayer
62
256
370
-1
90
4
70
1
10
1425
20
1413
10
1425
20
2863
10
1475
20
2863
10
1475
20
1413
0
CIRCLE
5
12128
330
11FD3
100
AcDbEntity
100
AcDbCircle
8
MONTAJ_BORULARI
10
1450
20
2863
30
0
40
25
0
LWPOLYLINE
5
1212A
330
11FD3
100
AcDbEntity
100
AcDbPolyline
8
MONTAJ_BORULARI
6
ByLayer
62
256
370
-1
90
4
70
1
10
1625
20
1395
10
1625
20
1413
10
1715
20
1413
10
1715
20
1395
0
LWPOLYLINE
5
1212B
330
11FD3
100
AcDbEntity
100
AcDbPolyline
8
MONTAJ_BORULARI
6
ByLayer
62
256
370
-1
90
4
70
1
10
1645
20
1413
10
1645
20
2863
10
1695
20
2863
10
1695
20
1413
0
CIRCLE
5
1212C
330
11FD3
100
AcDbEntity
100
AcDbCircle
8
MONTAJ_BORULARI
10
1670
20
2863
30
0
40
25
0
LWPOLYLINE
5
1212E
330
11FD3
100
AcDbEntity
100
AcDbPolyline
8
MONTAJ_BORULARI
6
ByLayer
62
256
370
-1
90
4
70
1
10
1835
20
1395
10
1835
20
1413
10
1925
20
1413
10
1925
20
1395
0
LWPOLYLINE
5
1212F
330
11FD3
100
AcDbEntity
100
AcDbPolyline
8
MONTAJ_BORULARI
6
ByLayer
62
256
370
-1
90
4
70
1
10
1855
20
1413
10
1855
20
2863
10
1905
20
2863
10
1905
20
1413
0
CIRCLE
5
12130
330
11FD3
100
AcDbEntity
100
AcDbCircle
8
MONTAJ_BORULARI
10
1880
20
2863
30
0
40
25
0
LWPOLYLINE
5
12132
330
11FD3
100
AcDbEntity
100
AcDbPolyline
8
MONTAJ_BORULARI
6
ByLayer
62
256
370
-1
90
4
70
1
10
2055
20
1395
10
2055
20
1413
10
2145
20
1413
10
2145
20
1395
0
LWPOLYLINE
5
12133
330
11FD3
100
AcDbEntity
100
AcDbPolyline
8
MONTAJ_BORULARI
6
ByLayer
62
256
370
-1
90
4
70
1
10
2075
20
1413
10
2075
20
2863
10
2125
20
2863
10
2125
20
1413
0
CIRCLE
5
12134
330
11FD3
100
AcDbEntity
100
AcDbCircle
8
MONTAJ_BORULARI
10
2100
20
2863
30
0
40
25
0
LINE
5
12148
330
11FD3
100
AcDbEntity
100
AcDbLine
8
MONTAJ_BORULARI
10
1635
20
2945
30
0
11
1450
21
2870
31
0
0
LINE
5
12149
330
11FD3
100
AcDbEntity
100
AcDbLine
8
MONTAJ_BORULARI
10
1915
20
2945
30
0
11
2100
21
2870
31
0
0
LWPOLYLINE
5
1219A
330
11FD3
100
AcDbEntity
100
AcDbPolyline
8
MONTAJ_BORULARI
6
ByLayer
62
256
370
-1
90
4
70
1
10
-270
20
-255
10
-270
20
-235
10
-130
20
-235
10
-130
20
-255
0
LWPOLYLINE
5
1219B
330
11FD3
100
AcDbEntity
100
AcDbPolyline
8
MONTAJ_BORULARI
6
ByLayer
62
256
370
-1
90
4
70
1
10
-225
20
-235
10
-225
20
-115
10
-175
20
-115
10
-175
20
-235
0
CIRCLE
5
1219C
330
11FD3
100
AcDbEntity
100
AcDbCircle
8
MONTAJ_BORULARI
10
-240
20
-245
30
0
40
6
0
CIRCLE
5
1219D
330
11FD3
100
AcDbEntity
100
AcDbCircle
8
MONTAJ_BORULARI
10
-160
20
-245
30
0
40
6
0
LWPOLYLINE
5
12010
330
11FD3
100
AcDbEntity
100
AcDbPolyline
8
KABLO_TAVALARI
6
ByLayer
62
256
370
-1
90
4
70
1
10
-2070
20
1590
10
-2070
20
1650
10
-1870
20
1650
10
-1870
20
1590
0
LWPOLYLINE
5
12012
330
11FD3
100
AcDbEntity
100
AcDbPolyline
8
KABLO_TAVALARI
6
ByLayer
62
256
370
-1
90
4
70
1
10
-1870
20
1600
10
-1870
20
1640
10
-1610
20
1640
10
-1610
20
1600
0
CIRCLE
5
1206F
330
11FD3
100
AcDbEntity
100
AcDbCircle
8
KABLO_TAVALARI
10
-1166.6666666666667
20
1820
30
0
40
4
0
LINE
5
12070
330
11FD3
100
AcDbEntity
100
AcDbLine
8
KABLO_TAVALARI
10
-1166.6666666666667
20
1820
30
0
11
-1166.6666666666667
21
1630
31
0
0
CIRCLE
5
12071
330
11FD3
100
AcDbEntity
100
AcDbCircle
8
KABLO_TAVALARI
10
-1133.3333333333333
20
1820
30
0
40
4
0
LINE
5
12072
330
11FD3
100
AcDbEntity
100
AcDbLine
8
KABLO_TAVALARI
10
-1133.3333333333333
20
1820
30
0
11
-1133.3333333333333
21
1630
31
0
0
CIRCLE
5
12077
330
11FD3
100
AcDbEntity
100
AcDbCircle
8
KABLO_TAVALARI
10
-1055
20
1820
30
0
40
4
0
LINE
5
12078
330
11FD3
100
AcDbEntity
100
AcDbLine
8
KABLO_TAVALARI
10
-1055
20
1820
30
0
11
-1055
21
1630
31
0
0
CIRCLE
5
12079
330
11FD3
100
AcDbEntity
100
AcDbCircle
8
KABLO_TAVALARI
10
-1035
20
1820
30
0
40
4
0
LINE
5
1207A
330
11FD3
100
AcDbEntity
100
AcDbLine
8
KABLO_TAVALARI
10
-1035
20
1820
30
0
11
-1035
21
1630
31
0
0
CIRCLE
5
1207B
330
11FD3
100
AcDbEntity
100
AcDbCircle
8
KABLO_TAVALARI
10
-1015
20
1820
30
0
40
4
0
LINE
5
1207C
330
11FD3
100
AcDbEntity
100
AcDbLine
8
KABLO_TAVALARI
10
-1015
20
1820
30
0
11
-1015
21
1630
31
0
0
CIRCLE
5
1207D
330
11FD3
100
AcDbEntity
100
AcDbCircle
8
KABLO_TAVALARI
10
-995
20
1820
30
0
40
4
0
LINE
5
1207E
330
11FD3
100
AcDbEntity
100
AcDbLine
8
KABLO_TAVALARI
10
-995
20
1820
30
0
11
-995
21
1630
31
0
0
CIRCLE
5
12083
330
11FD3
100
AcDbEntity
100
AcDbCircle
8
KABLO_TAVALARI
10
-918.3333333333334
20
1820
30
0
40
4
0
LINE
5
12084
330
11FD3
100
AcDbEntity
100
AcDbLine
8
KABLO_TAVALARI
10
-918.3333333333334
20
1820
30
0
11
-918.3333333333334
21
1630
31
0
0
CIRCLE
5
12085
330
11FD3
100
AcDbEntity
100
AcDbCircle
8
KABLO_TAVALARI
10
-886.6666666666666
20
1820
30
0
40
4
0
LINE
5
12086
330
11FD3
100
AcDbEntity
100
AcDbLine
8
KABLO_TAVALARI
10
-886.6666666666666
20
1820
30
0
11
-886.6666666666666
21
1630
31
0
0
CIRCLE
5
1208B
330
11FD3
100
AcDbEntity
100
AcDbCircle
8
KABLO_TAVALARI
10
-811
20
1820
30
0
40
4
0
LINE
5
1208C
330
11FD3
100
AcDbEntity
100
AcDbLine
8
KABLO_TAVALARI
10
-811
20
1820
30
0
11
-811
21
1630
31
0
0
CIRCLE
5
1208D
330
11FD3
100
AcDbEntity
100
AcDbCircle
8
KABLO_TAVALARI
10
-792
20
1820
30
0
40
4
0
LINE
5
1208E
330
11FD3
100
AcDbEntity
100
AcDbLine
8
KABLO_TAVALARI
10
-792
20
1820
30
0
11
-792
21
1630
31
0
0
CIRCLE
5
1208F
330
11FD3
100
AcDbEntity
100
AcDbCircle
8
KABLO_TAVALARI
10
-773
20
1820
30
0
40
4
0
LINE
5
12090
330
11FD3
100
AcDbEntity
100
AcDbLine
8
KABLO_TAVALARI
10
-773
20
1820
30
0
11
-773
21
1630
31
0
0
CIRCLE
5
12091
330
11FD3
100
AcDbEntity
100
AcDbCircle
8
KABLO_TAVALARI
10
-754
20
1820
30
0
40
4
0
LINE
5
12092
330
11FD3
100
AcDbEntity
100
AcDbLine
8
KABLO_TAVALARI
10
-754
20
1820
30
0
11
-754
21
1630
31
0
0
CIRCLE
5
12097
330
11FD3
100
AcDbEntity
100
AcDbCircle
8
KABLO_TAVALARI
10
-675
20
1820
30
0
40
4
0
LINE
5
12098
330
11FD3
100
AcDbEntity
100
AcDbLine
8
KABLO_TAVALARI
10
-675
20
1820
30
0
11
-675
21
1630
31
0
0
CIRCLE
5
12099
330
11FD3
100
AcDbEntity
100
AcDbCircle
8
KABLO_TAVALARI
10
-640
20
1820
30
0
40
4
0
LINE
5
1209A
330
11FD3
100
AcDbEntity
100
AcDbLine
8
KABLO_TAVALARI
10
-640
20
1820
30
0
11
-640
21
1630
31
0
0
CIRCLE
5
1209F
330
11FD3
100
AcDbEntity
100
AcDbCircle
8
KABLO_TAVALARI
10
-545
20
1820
30
0
40
4
0
LINE
5
120A0
330
11FD3
100
AcDbEntity
100
AcDbLine
8
KABLO_TAVALARI
10
-545
20
1820
30
0
11
-545
21
1630
31
0
0
CIRCLE
5
120A1
330
11FD3
100
AcDbEntity
100
AcDbCircle
8
KABLO_TAVALARI
10
-510
20
1820
30
0
40
4
0
LINE
5
120A2
330
11FD3
100
AcDbEntity
100
AcDbLine
8
KABLO_TAVALARI
10
-510
20
1820
30
0
11
-510
21
1630
31
0
0
CIRCLE
5
120A7
330
11FD3
100
AcDbEntity
100
AcDbCircle
8
KABLO_TAVALARI
10
-429
20
1820
30
0
40
4
0
LINE
5
120A8
330
11FD3
100
AcDbEntity
100
AcDbLine
8
KABLO_TAVALARI
10
-429
20
1820
30
0
11
-429
21
1630
31
0
0
CIRCLE
5
120A9
330
11FD3
100
AcDbEntity
100
AcDbCircle
8
KABLO_TAVALARI
10
-408
20
1820
30
0
40
4
0
LINE
5
120AA
330
11FD3
100
AcDbEntity
100
AcDbLine
8
KABLO_TAVALARI
10
-408
20
1820
30
0
11
-408
21
1630
31
0
0
CIRCLE
5
120AB
330
11FD3
100
AcDbEntity
100
AcDbCircle
8
KABLO_TAVALARI
10
-387
20
1820
30
0
40
4
0
LINE
5
120AC
330
11FD3
100
AcDbEntity
100
AcDbLine
8
KABLO_TAVALARI
10
-387
20
1820
30
0
11
-387
21
1630
31
0
0
CIRCLE
5
120AD
330
11FD3
100
AcDbEntity
100
AcDbCircle
8
KABLO_TAVALARI
10
-366
20
1820
30
0
40
4
0
LINE
5
120AE
330
11FD3
100
AcDbEntity
100
AcDbLine
8
KABLO_TAVALARI
10
-366
20
1820
30
0
11
-366
21
1630
31
0
0
LWPOLYLINE
5
120AF
330
11FD3
100
AcDbEntity
100
AcDbPolyline
8
KABLO_TAVALARI
6
ByLayer
62
256
370
-1
90
4
70
1
10
-1210
20
1590
10
-1210
20
1630
10
-300
20
1630
10
-300
20
1590
0
LWPOLYLINE
5
12155
330
11FD3
100
AcDbEntity
100
AcDbPolyline
8
KABLO_TAVALARI
6
ByLayer
62
256
370
-1
90
4
70
1
10
2200
20
1385
10
2200
20
1410
10
2250
20
1410
10
2250
20
1385
0
LWPOLYLINE
5
121AD
330
11FD3
100
AcDbEntity
100
AcDbPolyline
8
KABLO_TAVALARI
6
ByLayer
62
256
370
-1
90
4
70
1
10
-300
20
-955
10
-300
20
-940
10
-80
20
-940
10
-80
20
-955
0
LWPOLYLINE
5
12046
330
11FD3
100
AcDbEntity
100
AcDbPolyline
8
YURUYUS_KORIDORU
6
ByLayer
62
256
370
-1
90
4
70
1
10
-1170
20
1405
10
-1170
20
2505
10
-580
20
2505
10
-580
20
1405
0
LINE
5
12047
330
11FD3
100
AcDbEntity
100
AcDbLine
8
YURUYUS_KORIDORU
10
-1160
20
1870
30
0
11
-590
21
1870
31
0
0
TEXT
5
12048
330
11FD3
100
AcDbEntity
100
AcDbText
8
YURUYUS_KORIDORU
10
-875
20
1920
30
0
40
13
1
SERBEST GECIS
50
0
7
STANDARD
72
1
11
-875
21
1920
31
0
100
AcDbText
73
0
0
TEXT
5
12049
330
11FD3
100
AcDbEntity
100
AcDbText
8
YURUYUS_KORIDORU
10
-875
20
1810
30
0
40
13
1
KORIDORU (600mm)
50
0
7
STANDARD
72
1
11
-875
21
1810
31
0
100
AcDbText
73
0
0
LWPOLYLINE
5
12104
330
11FD3
100
AcDbEntity
100
AcDbPolyline
8
YURUYUS_KORIDORU
6
ByLayer
62
256
370
-1
90
4
70
1
10
1280
20
1405
10
1280
20
2505
10
1900
20
2505
10
1900
20
1405
0
LINE
5
12105
330
11FD3
100
AcDbEntity
100
AcDbLine
8
YURUYUS_KORIDORU
10
1290
20
1870
30
0
11
1890
21
1870
31
0
0
TEXT
5
12106
330
11FD3
100
AcDbEntity
100
AcDbText
8
YURUYUS_KORIDORU
10
1590
20
1920
30
0
40
13
1
SERBEST SERVIS VE
50
0
7
STANDARD
72
1
11
1590
21
1920
31
0
100
AcDbText
73
0
0
TEXT
5
12107
330
11FD3
100
AcDbEntity
100
AcDbText
8
YURUYUS_KORIDORU
10
1590
20
1810
30
0
40
13
1
GECIS KORIDORU
50
0
7
STANDARD
72
1
11
1590
21
1810
31
0
100
AcDbText
73
0
0
TEXT
5
12108
330
11FD3
100
AcDbEntity
100
AcDbText
8
YURUYUS_KORIDORU
10
1590
20
1700
30
0
40
14
1
(NET 650mm)
50
0
7
STANDARD
72
1
11
1590
21
1700
31
0
100
AcDbText
73
0
0
LINE
5
1204A
330
11FD3
100
AcDbEntity
100
AcDbLine
8
OLCULER
10
-1780
20
1190
30
0
11
-1780
21
1090
31
0
0
LINE
5
1204B
330
11FD3
100
AcDbEntity
100
AcDbLine
8
OLCULER
10
-580
20
1190
30
0
11
-580
21
1090
31
0
0
LINE
5
1204C
330
11FD3
100
AcDbEntity
100
AcDbLine
8
OLCULER
10
-1780
20
1130
30
0
11
-580
21
1130
31
0
0
LINE
5
1204D
330
11FD3
100
AcDbEntity
100
AcDbLine
8
OLCULER
10
-1808
20
1102
30
0
11
-1752
21
1158
31
0
0
LINE
5
1204E
330
11FD3
100
AcDbEntity
100
AcDbLine
8
OLCULER
10
-608
20
1102
30
0
11
-552
21
1158
31
0
0
TEXT
5
1204F
330
11FD3
100
AcDbEntity
100
AcDbText
8
OLCULER
10
-1180
20
1046
30
0
40
60
1
1200 mm (KEDI YOLU ENI)
50
0
7
STANDARD
72
1
11
-1180
21
1046
31
0
100
AcDbText
73
2
0
LINE
5
12050
330
11FD3
100
AcDbEntity
100
AcDbLine
8
OLCULER
10
-1720
20
1290
30
0
11
-1720
21
1210
31
0
0
LINE
5
12051
330
11FD3
100
AcDbEntity
100
AcDbLine
8
OLCULER
10
-1170
20
1290
30
0
11
-1170
21
1210
31
0
0
LINE
5
12052
330
11FD3
100
AcDbEntity
100
AcDbLine
8
OLCULER
10
-1720
20
1250
30
0
11
-1170
21
1250
31
0
0
LINE
5
12053
330
11FD3
100
AcDbEntity
100
AcDbLine
8
OLCULER
10
-1748
20
1222
30
0
11
-1692
21
1278
31
0
0
LINE
5
12054
330
11FD3
100
AcDbEntity
100
AcDbLine
8
OLCULER
10
-1198
20
1222
30
0
11
-1142
21
1278
31
0
0
TEXT
5
12055
330
11FD3
100
AcDbEntity
100
AcDbText
8
OLCULER
10
-1445
20
1166
30
0
40
60
1
550 mm (POI DERINLIK)
50
0
7
STANDARD
72
1
11
-1445
21
1166
31
0
100
AcDbText
73
2
0
LINE
5
12056
330
11FD3
100
AcDbEntity
100
AcDbLine
8
OLCULER
10
-1170
20
1290
30
0
11
-1170
21
1210
31
0
0
LINE
5
12057
330
11FD3
100
AcDbEntity
100
AcDbLine
8
OLCULER
10
-580
20
1290
30
0
11
-580
21
1210
31
0
0
LINE
5
12058
330
11FD3
100
AcDbEntity
100
AcDbLine
8
OLCULER
10
-1170
20
1250
30
0
11
-580
21
1250
31
0
0
LINE
5
12059
330
11FD3
100
AcDbEntity
100
AcDbLine
8
OLCULER
10
-1198
20
1222
30
0
11
-1142
21
1278
31
0
0
LINE
5
1205A
330
11FD3
100
AcDbEntity
100
AcDbLine
8
OLCULER
10
-608
20
1222
30
0
11
-552
21
1278
31
0
0
TEXT
5
1205B
330
11FD3
100
AcDbEntity
100
AcDbText
8
OLCULER
10
-875
20
1166
30
0
40
60
1
600 mm (SERBEST GECIS)
50
0
7
STANDARD
72
1
11
-875
21
1166
31
0
100
AcDbText
73
2
0
LINE
5
1205C
330
11FD3
100
AcDbEntity
100
AcDbLine
8
OLCULER
10
-2380
20
2650
30
0
11
-2380
21
2740
31
0
0
LINE
5
1205D
330
11FD3
100
AcDbEntity
100
AcDbLine
8
OLCULER
10
-2080
20
2650
30
0
11
-2080
21
2740
31
0
0
LINE
5
1205E
330
11FD3
100
AcDbEntity
100
AcDbLine
8
OLCULER
10
-2380
20
2700
30
0
11
-2080
21
2700
31
0
0
LINE
5
1205F
330
11FD3
100
AcDbEntity
100
AcDbLine
8
OLCULER
10
-2408
20
2672
30
0
11
-2352
21
2728
31
0
0
LINE
5
12060
330
11FD3
100
AcDbEntity
100
AcDbLine
8
OLCULER
10
-2108
20
2672
30
0
11
-2052
21
2728
31
0
0
TEXT
5
12061
330
11FD3
100
AcDbEntity
100
AcDbText
8
OLCULER
10
-2230
20
2724
30
0
40
60
1
300 mm (OFSET)
50
0
7
STANDARD
72
1
11
-2230
21
2724
31
0
100
AcDbText
73
2
0
LINE
5
12062
330
11FD3
100
AcDbEntity
100
AcDbLine
8
OLCULER
10
-2380
20
2750
30
0
11
-2380
21
2850
31
0
0
LINE
5
12063
330
11FD3
100
AcDbEntity
100
AcDbLine
8
OLCULER
10
-1780
20
2750
30
0
11
-1780
21
2850
31
0
0
LINE
5
12064
330
11FD3
100
AcDbEntity
100
AcDbLine
8
OLCULER
10
-2380
20
2810
30
0
11
-1780
21
2810
31
0
0
LINE
5
12065
330
11FD3
100
AcDbEntity
100
AcDbLine
8
OLCULER
10
-2408
20
2782
30
0
11
-2352
21
2838
31
0
0
LINE
5
12066
330
11FD3
100
AcDbEntity
100
AcDbLine
8
OLCULER
10
-1808
20
2782
30
0
11
-1752
21
2838
31
0
0
TEXT
5
12067
330
11FD3
100
AcDbEntity
100
AcDbText
8
OLCULER
10
-2080
20
2834
30
0
40
60
1
600 mm (CELIK - KEDI YOLU ARASI)
50
0
7
STANDARD
72
1
11
-2080
21
2834
31
0
100
AcDbText
73
2
0
LINE
5
120BC
330
11FD3
100
AcDbEntity
100
AcDbLine
8
OLCULER
10
-1200
20
2370
30
0
11
-1200
21
2460
31
0
0
LINE
5
120BD
330
11FD3
100
AcDbEntity
100
AcDbLine
8
OLCULER
10
-345
20
2370
30
0
11
-345
21
2460
31
0
0
LINE
5
120BE
330
11FD3
100
AcDbEntity
100
AcDbLine
8
OLCULER
10
-1200
20
2420
30
0
11
-345
21
2420
31
0
0
LINE
5
120BF
330
11FD3
100
AcDbEntity
100
AcDbLine
8
OLCULER
10
-1228
20
2392
30
0
11
-1172
21
2448
31
0
0
LINE
5
120C0
330
11FD3
100
AcDbEntity
100
AcDbLine
8
OLCULER
10
-373
20
2392
30
0
11
-317
21
2448
31
0
0
TEXT
5
120C1
330
11FD3
100
AcDbEntity
100
AcDbText
8
OLCULER
10
-772.5
20
2444
30
0
40
60
1
820 mm (7 RRU BLOK BOYU)
50
0
7
STANDARD
72
1
11
-772.5
21
2444
31
0
100
AcDbText
73
2
0
LINE
5
120C2
330
11FD3
100
AcDbEntity
100
AcDbLine
8
OLCULER
10
-380
20
1310
30
0
11
-380
21
1230
31
0
0
LINE
5
120C3
330
11FD3
100
AcDbEntity
100
AcDbLine
8
OLCULER
10
-160
20
1310
30
0
11
-160
21
1230
31
0
0
LINE
5
120C4
330
11FD3
100
AcDbEntity
100
AcDbLine
8
OLCULER
10
-380
20
1270
30
0
11
-160
21
1270
31
0
0
LINE
5
120C5
330
11FD3
100
AcDbEntity
100
AcDbLine
8
OLCULER
10
-408
20
1242
30
0
11
-352
21
1298
31
0
0
LINE
5
120C6
330
11FD3
100
AcDbEntity
100
AcDbLine
8
OLCULER
10
-188
20
1242
30
0
11
-132
21
1298
31
0
0
TEXT
5
120C7
330
11FD3
100
AcDbEntity
100
AcDbText
8
OLCULER
10
-270
20
1186
30
0
40
60
1
600 mm (POI ENI)
50
0
7
STANDARD
72
1
11
-270
21
1186
31
0
100
AcDbText
73
2
0
LINE
5
12109
330
11FD3
100
AcDbEntity
100
AcDbLine
8
OLCULER
10
700
20
1190
30
0
11
700
21
1090
31
0
0
LINE
5
1210A
330
11FD3
100
AcDbEntity
100
AcDbLine
8
OLCULER
10
1900
20
1190
30
0
11
1900
21
1090
31
0
0
LINE
5
1210B
330
11FD3
100
AcDbEntity
100
AcDbLine
8
OLCULER
10
700
20
1130
30
0
11
1900
21
1130
31
0
0
LINE
5
1210C
330
11FD3
100
AcDbEntity
100
AcDbLine
8
OLCULER
10
672
20
1102
30
0
11
728
21
1158
31
0
0
LINE
5
1210D
330
11FD3
100
AcDbEntity
100
AcDbLine
8
OLCULER
10
1872
20
1102
30
0
11
1928
21
1158
31
0
0
TEXT
5
1210E
330
11FD3
100
AcDbEntity
100
AcDbText
8
OLCULER
10
1300
20
1046
30
0
40
60
1
1200 mm (KEDI YOLU ENI)
50
0
7
STANDARD
72
1
11
1300
21
1046
31
0
100
AcDbText
73
2
0
LINE
5
1210F
330
11FD3
100
AcDbEntity
100
AcDbLine
8
OLCULER
10
730
20
1290
30
0
11
730
21
1210
31
0
0
LINE
5
12110
330
11FD3
100
AcDbEntity
100
AcDbLine
8
OLCULER
10
1280
20
1290
30
0
11
1280
21
1210
31
0
0
LINE
5
12111
330
11FD3
100
AcDbEntity
100
AcDbLine
8
OLCULER
10
730
20
1250
30
0
11
1280
21
1250
31
0
0
LINE
5
12112
330
11FD3
100
AcDbEntity
100
AcDbLine
8
OLCULER
10
702
20
1222
30
0
11
758
21
1278
31
0
0
LINE
5
12113
330
11FD3
100
AcDbEntity
100
AcDbLine
8
OLCULER
10
1252
20
1222
30
0
11
1308
21
1278
31
0
0
TEXT
5
12114
330
11FD3
100
AcDbEntity
100
AcDbText
8
OLCULER
10
1005
20
1166
30
0
40
60
1
550 mm (TABLA DERINLIGI)
50
0
7
STANDARD
72
1
11
1005
21
1166
31
0
100
AcDbText
73
2
0
LINE
5
12115
330
11FD3
100
AcDbEntity
100
AcDbLine
8
OLCULER
10
1280
20
1290
30
0
11
1280
21
1210
31
0
0
LINE
5
12116
330
11FD3
100
AcDbEntity
100
AcDbLine
8
OLCULER
10
1900
20
1290
30
0
11
1900
21
1210
31
0
0
LINE
5
12117
330
11FD3
100
AcDbEntity
100
AcDbLine
8
OLCULER
10
1280
20
1250
30
0
11
1900
21
1250
31
0
0
LINE
5
12118
330
11FD3
100
AcDbEntity
100
AcDbLine
8
OLCULER
10
1252
20
1222
30
0
11
1308
21
1278
31
0
0
LINE
5
12119
330
11FD3
100
AcDbEntity
100
AcDbLine
8
OLCULER
10
1872
20
1222
30
0
11
1928
21
1278
31
0
0
TEXT
5
1211A
330
11FD3
100
AcDbEntity
100
AcDbText
8
OLCULER
10
1590
20
1166
30
0
40
60
1
650 mm (NET SERBEST GECIS)
50
0
7
STANDARD
72
1
11
1590
21
1166
31
0
100
AcDbText
73
2
0
LINE
5
1211B
330
11FD3
100
AcDbEntity
100
AcDbLine
8
OLCULER
10
730
20
2998
30
0
11
610
21
2998
31
0
0
LINE
5
1211C
330
11FD3
100
AcDbEntity
100
AcDbLine
8
OLCULER
10
730
20
1405
30
0
11
610
21
1405
31
0
0
LINE
5
1211D
330
11FD3
100
AcDbEntity
100
AcDbLine
8
OLCULER
10
650
20
2998
30
0
11
650
21
1405
31
0
0
LINE
5
1211E
330
11FD3
100
AcDbEntity
100
AcDbLine
8
OLCULER
10
622
20
2970
30
0
11
678
21
3026
31
0
0
LINE
5
1211F
330
11FD3
100
AcDbEntity
100
AcDbLine
8
OLCULER
10
622
20
1377
30
0
11
678
21
1433
31
0
0
TEXT
5
12120
330
11FD3
100
AcDbEntity
100
AcDbText
8
OLCULER
10
608
20
2201.5
30
0
40
60
1
1950 mm (BORU YUKSEKLIGI)
50
90
7
STANDARD
72
1
11
608
21
2201.5
31
0
100
AcDbText
73
2
0
LINE
5
12157
330
11FD3
100
AcDbEntity
100
AcDbLine
8
OLCULER
10
1350
20
1310
30
0
11
1350
21
1230
31
0
0
LINE
5
12158
330
11FD3
100
AcDbEntity
100
AcDbLine
8
OLCULER
10
2200
20
1310
30
0
11
2200
21
1230
31
0
0
LINE
5
12159
330
11FD3
100
AcDbEntity
100
AcDbLine
8
OLCULER
10
1350
20
1270
30
0
11
2200
21
1270
31
0
0
LINE
5
1215A
330
11FD3
100
AcDbEntity
100
AcDbLine
8
OLCULER
10
1322
20
1242
30
0
11
1378
21
1298
31
0
0
LINE
5
1215B
330
11FD3
100
AcDbEntity
100
AcDbLine
8
OLCULER
10
2172
20
1242
30
0
11
2228
21
1298
31
0
0
TEXT
5
1215C
330
11FD3
100
AcDbEntity
100
AcDbText
8
OLCULER
10
1775
20
1186
30
0
40
60
1
850 mm (TABLA BOYU)
50
0
7
STANDARD
72
1
11
1775
21
1186
31
0
100
AcDbText
73
2
0
LINE
5
1215D
330
11FD3
100
AcDbEntity
100
AcDbLine
8
OLCULER
10
2250
20
1310
30
0
11
2250
21
1230
31
0
0
LINE
5
1215E
330
11FD3
100
AcDbEntity
100
AcDbLine
8
OLCULER
10
2470
20
1310
30
0
11
2470
21
1230
31
0
0
LINE
5
1215F
330
11FD3
100
AcDbEntity
100
AcDbLine
8
OLCULER
10
2250
20
1270
30
0
11
2470
21
1270
31
0
0
LINE
5
12160
330
11FD3
100
AcDbEntity
100
AcDbLine
8
OLCULER
10
2222
20
1242
30
0
11
2278
21
1298
31
0
0
LINE
5
12161
330
11FD3
100
AcDbEntity
100
AcDbLine
8
OLCULER
10
2442
20
1242
30
0
11
2498
21
1298
31
0
0
TEXT
5
12162
330
11FD3
100
AcDbEntity
100
AcDbText
8
OLCULER
10
2360
20
1186
30
0
40
60
1
600 mm (POI ENI)
50
0
7
STANDARD
72
1
11
2360
21
1186
31
0
100
AcDbText
73
2
0
LINE
5
12163
330
11FD3
100
AcDbEntity
100
AcDbLine
8
OLCULER
10
1350
20
3120
30
0
11
1350
21
3200
31
0
0
LINE
5
12164
330
11FD3
100
AcDbEntity
100
AcDbLine
8
OLCULER
10
2200
20
3120
30
0
11
2200
21
3200
31
0
0
LINE
5
12165
330
11FD3
100
AcDbEntity
100
AcDbLine
8
OLCULER
10
1350
20
3160
30
0
11
2200
21
3160
31
0
0
LINE
5
12166
330
11FD3
100
AcDbEntity
100
AcDbLine
8
OLCULER
10
1322
20
3132
30
0
11
1378
21
3188
31
0
0
LINE
5
12167
330
11FD3
100
AcDbEntity
100
AcDbLine
8
OLCULER
10
2172
20
3132
30
0
11
2228
21
3188
31
0
0
TEXT
5
12168
330
11FD3
100
AcDbEntity
100
AcDbText
8
OLCULER
10
1775
20
3184
30
0
40
60
1
4 ADET FLANSLI BORU (O60mm)
50
0
7
STANDARD
72
1
11
1775
21
3184
31
0
100
AcDbText
73
2
0
LWPOLYLINE
5
11FEC
330
11FD3
100
AcDbEntity
100
AcDbPolyline
8
METIN_BILGI
6
ByLayer
62
256
370
-1
90
4
70
1
10
-2600
20
-1100
10
-2600
20
3200
10
2600
20
3200
10
2600
20
-1100
0
LWPOLYLINE
5
11FED
330
11FD3
100
AcDbEntity
100
AcDbPolyline
8
METIN_BILGI
6
ByLayer
62
256
370
-1
90
4
70
1
10
-2585
20
-1085
10
-2585
20
3185
10
2585
20
3185
10
2585
20
-1085
0
LWPOLYLINE
5
11FEE
330
11FD3
100
AcDbEntity
100
AcDbPolyline
8
METIN_BILGI
6
ByLayer
62
256
370
-1
90
4
70
1
10
-2575
20
3015
10
-2575
20
3130
10
2575
20
3130
10
2575
20
3015
0
TEXT
5
11FEF
330
11FD3
100
AcDbEntity
100
AcDbText
8
METIN_BILGI
10
0
20
3092
30
0
40
34
1
RAMS PARK / SEYRANTEPE STADYUMU 5G & 4.5G TELEKOMUNIKASYON KEDI YOLU SISTEMI
50
0
7
STANDARD
72
1
11
0
21
3092
31
0
100
AcDbText
73
0
0
TEXT
5
11FF0
330
11FD3
100
AcDbEntity
100
AcDbText
8
METIN_BILGI
10
0
20
3055
30
0
40
28
1
ALAN 2: SKORBOARD ARKASI RRU VE POI YERLESIM KESITLERI (DETAY PAFTASI)
50
0
7
STANDARD
72
1
11
0
21
3055
31
0
100
AcDbText
73
0
0
TEXT
5
11FF1
330
11FD3
100
AcDbEntity
100
AcDbText
8
METIN_BILGI
10
0
20
3028
30
0
40
17
1
ALTERNATIF 1 (SKORBOARD CELIGI MONTAJI) VE ALTERNATIF 2 (KEDI YOLU TABLALI MONTAJ) KARSILASTIRMALI ENKESITLERI
50
0
7
STANDARD
72
1
11
0
21
3028
31
0
100
AcDbText
73
0
0
LWPOLYLINE
5
11FF2
330
11FD3
100
AcDbEntity
100
AcDbPolyline
8
METIN_BILGI
6
ByLayer
62
256
370
-1
90
4
70
1
10
-2550
20
1250
10
-2550
20
2950
10
-50
20
2950
10
-50
20
1250
0
LWPOLYLINE
5
11FF3
330
11FD3
100
AcDbEntity
100
AcDbPolyline
8
METIN_BILGI
6
ByLayer
62
256
370
-1
90
4
70
1
10
-2550
20
2890
10
-2550
20
2950
10
-50
20
2950
10
-50
20
2890
0
TEXT
5
11FF4
330
11FD3
100
AcDbEntity
100
AcDbText
8
METIN_BILGI
10
-1300
20
2912
30
0
40
22
1
ALTERNATIF 1: SKORBOARD ARKA CELIK KAFESINE MONTAJ DUZENI (MEVCUT TASARIM)
50
0
7
STANDARD
72
1
11
-1300
21
2912
31
0
100
AcDbText
73
0
0
TEXT
5
11FF5
330
11FD3
100
AcDbEntity
100
AcDbText
8
METIN_BILGI
10
-1300
20
2895
30
0
40
12
1
SKORBOARD ARKA CELIK DIKMELERINDE 2 NOKTADA 7'SER (TOPLAM 14) RRU + 20cm TAVA + KEDI YOLUNDA POI RACK KABINI
50
0
7
STANDARD
72
1
11
-1300
21
2895
31
0
100
AcDbText
73
0
0
TEXT
5
11FF6
330
11FD3
100
AcDbEntity
100
AcDbText
8
METIN_BILGI
10
-1930
20
2855
30
0
40
18
1
GORUNUS 1-A: TIPIK ENKESIT (YANDAN KESIT - OLCEK 1:20)
50
0
7
STANDARD
72
1
11
-1930
21
2855
31
0
100
AcDbText
73
0
0
TEXT
5
11FF8
330
11FD3
100
AcDbEntity
100
AcDbText
8
METIN_BILGI
10
-2380
20
2600
30
0
40
13
1
SKORBOARD CELIK DIKMESI (140x140mm)
50
0
7
STANDARD
72
1
11
-2380
21
2600
31
0
100
AcDbText
73
0
0
TEXT
5
11FFD
330
11FD3
100
AcDbEntity
100
AcDbText
8
METIN_BILGI
10
-2210
20
2085
30
0
40
10
1
20cm OFSET KONSOLU
50
0
7
STANDARD
72
1
11
-2210
21
2085
31
0
100
AcDbText
73
0
0
TEXT
5
1200E
330
11FD3
100
AcDbEntity
100
AcDbText
8
METIN_BILGI
10
-1970
20
2060
30
0
40
14
1
RRU MODULU
50
0
7
STANDARD
72
1
11
-1970
21
2060
31
0
100
AcDbText
73
0
0
TEXT
5
1200F
330
11FD3
100
AcDbEntity
100
AcDbText
8
METIN_BILGI
10
-1970
20
2020
30
0
40
11
1
(CELIGE MONTAJ)
50
0
7
STANDARD
72
1
11
-1970
21
2020
31
0
100
AcDbText
73
0
0
TEXT
5
12011
330
11FD3
100
AcDbEntity
100
AcDbText
8
METIN_BILGI
10
-1970
20
1565
30
0
40
11
1
200x60mm BOYUNA TAVA
50
0
7
STANDARD
72
1
11
-1970
21
1565
31
0
100
AcDbText
73
0
0
TEXT
5
12013
330
11FD3
100
AcDbEntity
100
AcDbText
8
METIN_BILGI
10
-1740
20
1655
30
0
40
11
1
ENINE KOPRU TAVASI
50
0
7
STANDARD
72
1
11
-1740
21
1655
31
0
100
AcDbText
73
0
0
TEXT
5
12036
330
11FD3
100
AcDbEntity
100
AcDbText
8
METIN_BILGI
10
-1445
20
1705
30
0
40
12
1
POI MODUL 1
50
0
7
STANDARD
72
1
11
-1445
21
1705
31
0
100
AcDbText
73
0
0
TEXT
5
1203A
330
11FD3
100
AcDbEntity
100
AcDbText
8
METIN_BILGI
10
-1445
20
1975
30
0
40
12
1
POI MODUL 2
50
0
7
STANDARD
72
1
11
-1445
21
1975
31
0
100
AcDbText
73
0
0
TEXT
5
1203E
330
11FD3
100
AcDbEntity
100
AcDbText
8
METIN_BILGI
10
-1445
20
2245
30
0
40
12
1
POI MODUL 3
50
0
7
STANDARD
72
1
11
-1445
21
2245
31
0
100
AcDbText
73
0
0
TEXT
5
12042
330
11FD3
100
AcDbEntity
100
AcDbText
8
METIN_BILGI
10
-1445
20
2515
30
0
40
12
1
POI MODUL 4
50
0
7
STANDARD
72
1
11
-1445
21
2515
31
0
100
AcDbText
73
0
0
TEXT
5
12045
330
11FD3
100
AcDbEntity
100
AcDbText
8
METIN_BILGI
10
-1445
20
2890
30
0
40
14
1
POI RACK KABINI (30U/42U)
50
0
7
STANDARD
72
1
11
-1445
21
2890
31
0
100
AcDbText
73
0
0
TEXT
5
12068
330
11FD3
100
AcDbEntity
100
AcDbText
8
METIN_BILGI
10
-680
20
2855
30
0
40
18
1
GORUNUS 1-B: ONDEN GORUNUS / ELEVASYON (OLCEK 1:20)
50
0
7
STANDARD
72
1
11
-680
21
2855
31
0
100
AcDbText
73
0
0
TEXT
5
1206D
330
11FD3
100
AcDbEntity
100
AcDbText
8
METIN_BILGI
10
-1150
20
2085
30
0
40
11
1
TCELL 1
50
0
7
STANDARD
72
1
11
-1150
21
2085
31
0
100
AcDbText
73
0
0
TEXT
5
1206E
330
11FD3
100
AcDbEntity
100
AcDbText
8
METIN_BILGI
10
-1150
20
2055
30
0
40
9
1
RRU
50
0
7
STANDARD
72
1
11
-1150
21
2055
31
0
100
AcDbText
73
0
0
TEXT
5
12075
330
11FD3
100
AcDbEntity
100
AcDbText
8
METIN_BILGI
10
-1025
20
2085
30
0
40
11
1
TCELL 2
50
0
7
STANDARD
72
1
11
-1025
21
2085
31
0
100
AcDbText
73
0
0
TEXT
5
12076
330
11FD3
100
AcDbEntity
100
AcDbText
8
METIN_BILGI
10
-1025
20
2055
30
0
40
9
1
RRU
50
0
7
STANDARD
72
1
11
-1025
21
2055
31
0
100
AcDbText
73
0
0
TEXT
5
12081
330
11FD3
100
AcDbEntity
100
AcDbText
8
METIN_BILGI
10
-902.5
20
2075
30
0
40
11
1
TT 1
50
0
7
STANDARD
72
1
11
-902.5
21
2075
31
0
100
AcDbText
73
0
0
TEXT
5
12082
330
11FD3
100
AcDbEntity
100
AcDbText
8
METIN_BILGI
10
-902.5
20
2045
30
0
40
9
1
RRU
50
0
7
STANDARD
72
1
11
-902.5
21
2045
31
0
100
AcDbText
73
0
0
TEXT
5
12089
330
11FD3
100
AcDbEntity
100
AcDbText
8
METIN_BILGI
10
-782.5
20
2075
30
0
40
11
1
TT 2
50
0
7
STANDARD
72
1
11
-782.5
21
2075
31
0
100
AcDbText
73
0
0
TEXT
5
1208A
330
11FD3
100
AcDbEntity
100
AcDbText
8
METIN_BILGI
10
-782.5
20
2045
30
0
40
9
1
RRU
50
0
7
STANDARD
72
1
11
-782.5
21
2045
31
0
100
AcDbText
73
0
0
TEXT
5
12095
330
11FD3
100
AcDbEntity
100
AcDbText
8
METIN_BILGI
10
-657.5
20
2080
30
0
40
11
1
VDF 1
50
0
7
STANDARD
72
1
11
-657.5
21
2080
31
0
100
AcDbText
73
0
0
TEXT
5
12096
330
11FD3
100
AcDbEntity
100
AcDbText
8
METIN_BILGI
10
-657.5
20
2050
30
0
40
9
1
RRU
50
0
7
STANDARD
72
1
11
-657.5
21
2050
31
0
100
AcDbText
73
0
0
TEXT
5
1209D
330
11FD3
100
AcDbEntity
100
AcDbText
8
METIN_BILGI
10
-527.5
20
2080
30
0
40
11
1
VDF 2
50
0
7
STANDARD
72
1
11
-527.5
21
2080
31
0
100
AcDbText
73
0
0
TEXT
5
1209E
330
11FD3
100
AcDbEntity
100
AcDbText
8
METIN_BILGI
10
-527.5
20
2050
30
0
40
9
1
RRU
50
0
7
STANDARD
72
1
11
-527.5
21
2050
31
0
100
AcDbText
73
0
0
TEXT
5
120A5
330
11FD3
100
AcDbEntity
100
AcDbText
8
METIN_BILGI
10
-397.5
20
2080
30
0
40
11
1
VDF 3
50
0
7
STANDARD
72
1
11
-397.5
21
2080
31
0
100
AcDbText
73
0
0
TEXT
5
120A6
330
11FD3
100
AcDbEntity
100
AcDbText
8
METIN_BILGI
10
-397.5
20
2050
30
0
40
9
1
RRU
50
0
7
STANDARD
72
1
11
-397.5
21
2050
31
0
100
AcDbText
73
0
0
TEXT
5
120B0
330
11FD3
100
AcDbEntity
100
AcDbText
8
METIN_BILGI
10
-775
20
1605
30
0
40
11
1
200mm FEEDER KABLO TAVASI (20 ADET 1/2" JUMPER)
50
0
7
STANDARD
72
1
11
-775
21
1605
31
0
100
AcDbText
73
0
0
TEXT
5
120B4
330
11FD3
100
AcDbEntity
100
AcDbText
8
METIN_BILGI
10
-270
20
1660
30
0
40
11
1
POI 1
50
0
7
STANDARD
72
1
11
-270
21
1660
31
0
100
AcDbText
73
0
0
TEXT
5
120B6
330
11FD3
100
AcDbEntity
100
AcDbText
8
METIN_BILGI
10
-270
20
1930
30
0
40
11
1
POI 2
50
0
7
STANDARD
72
1
11
-270
21
1930
31
0
100
AcDbText
73
0
0
TEXT
5
120B8
330
11FD3
100
AcDbEntity
100
AcDbText
8
METIN_BILGI
10
-270
20
2200
30
0
40
11
1
POI 3
50
0
7
STANDARD
72
1
11
-270
21
2200
31
0
100
AcDbText
73
0
0
TEXT
5
120BA
330
11FD3
100
AcDbEntity
100
AcDbText
8
METIN_BILGI
10
-270
20
2470
30
0
40
11
1
POI 4
50
0
7
STANDARD
72
1
11
-270
21
2470
31
0
100
AcDbText
73
0
0
TEXT
5
120BB
330
11FD3
100
AcDbEntity
100
AcDbText
8
METIN_BILGI
10
-270
20
2850
30
0
40
13
1
POI KABINI
50
0
7
STANDARD
72
1
11
-270
21
2850
31
0
100
AcDbText
73
0
0
LWPOLYLINE
5
120C8
330
11FD3
100
AcDbEntity
100
AcDbPolyline
8
METIN_BILGI
6
ByLayer
62
256
370
-1
90
4
70
1
10
50
20
1250
10
50
20
2950
10
2550
20
2950
10
2550
20
1250
0
LWPOLYLINE
5
120C9
330
11FD3
100
AcDbEntity
100
AcDbPolyline
8
METIN_BILGI
6
ByLayer
62
256
370
-1
90
4
70
1
10
50
20
2890
10
50
20
2950
10
2550
20
2950
10
2550
20
2890
0
TEXT
5
120CA
330
11FD3
100
AcDbEntity
100
AcDbText
8
METIN_BILGI
10
1300
20
2912
30
0
40
22
1
ALTERNATIF 2: MEVCUT ALT KEDI YOLU ICI TABLALI 4 BORU 7 RRU BLOGU
50
0
7
STANDARD
72
1
11
1300
21
2912
31
0
100
AcDbText
73
0
0
TEXT
5
120CB
330
11FD3
100
AcDbEntity
100
AcDbText
8
METIN_BILGI
10
1300
20
2895
30
0
40
12
1
850x550mm TABLA + 4 ADET FLANSLI BORU + 7 RRU (2 TURKCELL + 2 TT + 3 VDF) + POI RACK KABINI
50
0
7
STANDARD
72
1
11
1300
21
2895
31
0
100
AcDbText
73
0
0
TEXT
5
120CC
330
11FD3
100
AcDbEntity
100
AcDbText
8
METIN_BILGI
10
600
20
2855
30
0
40
18
1
GORUNUS 2-A: TIPIK ENKESIT (YANDAN KESIT - OLCEK 1:20)
50
0
7
STANDARD
72
1
11
600
21
2855
31
0
100
AcDbText
73
0
0
TEXT
5
120CE
330
11FD3
100
AcDbEntity
100
AcDbText
8
METIN_BILGI
10
200
20
2600
30
0
40
12
1
SKORBOARD CELIK DIKMESI
50
0
7
STANDARD
72
1
11
200
21
2600
31
0
100
AcDbText
73
0
0
TEXT
5
120CF
330
11FD3
100
AcDbEntity
100
AcDbText
8
METIN_BILGI
10
200
20
2070
30
0
40
14
1
SERBEST / YUKSUZ CELIK
50
90
7
STANDARD
72
1
11
200
21
2070
31
0
100
AcDbText
73
0
0
TEXT
5
120D0
330
11FD3
100
AcDbEntity
100
AcDbText
8
METIN_BILGI
10
200
20
1820
30
0
40
11
1
(MONTAJ YOKTUR)
50
90
7
STANDARD
72
1
11
200
21
1820
31
0
100
AcDbText
73
0
0
TEXT
5
120FC
330
11FD3
100
AcDbEntity
100
AcDbText
8
METIN_BILGI
10
945
20
1795
30
0
40
11
1
ALT SIRA RRU
50
0
7
STANDARD
72
1
11
945
21
1795
31
0
100
AcDbText
73
0
0
TEXT
5
120FE
330
11FD3
100
AcDbEntity
100
AcDbText
8
METIN_BILGI
10
1065
20
2345
30
0
40
11
1
UST SIRA RRU
50
0
7
STANDARD
72
1
11
1065
21
2345
31
0
100
AcDbText
73
0
0
LWPOLYLINE
5
120FF
330
11FD3
100
AcDbEntity
100
AcDbPolyline
8
METIN_BILGI
6
ByLayer
62
256
370
-1
90
4
70
1
10
825
20
2903
10
825
20
2973
10
1185
20
2973
10
1185
20
2903
0
TEXT
5
12100
330
11FD3
100
AcDbEntity
100
AcDbText
8
METIN_BILGI
10
1005
20
2933
30
0
40
16
1
ALTERNATIF-2
50
0
7
STANDARD
72
1
11
1005
21
2933
31
0
100
AcDbText
73
0
0
TEXT
5
12101
330
11FD3
100
AcDbEntity
100
AcDbText
8
METIN_BILGI
10
1005
20
2913
30
0
40
11
1
(7 RRU KUMESI)
50
0
7
STANDARD
72
1
11
1005
21
2913
31
0
100
AcDbText
73
0
0
TEXT
5
12121
330
11FD3
100
AcDbEntity
100
AcDbText
8
METIN_BILGI
10
1900
20
2855
30
0
40
18
1
GORUNUS 2-B: ONDEN GORUNUS / ELEVASYON (OLCEK 1:20)
50
0
7
STANDARD
72
1
11
1900
21
2855
31
0
100
AcDbText
73
0
0
TEXT
5
12125
330
11FD3
100
AcDbEntity
100
AcDbText
8
METIN_BILGI
10
1775
20
1340
30
0
40
12
1
850x550x25mm SICAK DALDIRMA GALVANIZ CELIK TABLA
50
0
7
STANDARD
72
1
11
1775
21
1340
31
0
100
AcDbText
73
0
0
TEXT
5
12129
330
11FD3
100
AcDbEntity
100
AcDbText
8
METIN_BILGI
10
1450
20
2890
30
0
40
9
1
B1
50
0
7
STANDARD
72
1
11
1450
21
2890
31
0
100
AcDbText
73
0
0
TEXT
5
1212D
330
11FD3
100
AcDbEntity
100
AcDbText
8
METIN_BILGI
10
1670
20
2890
30
0
40
9
1
B2
50
0
7
STANDARD
72
1
11
1670
21
2890
31
0
100
AcDbText
73
0
0
TEXT
5
12131
330
11FD3
100
AcDbEntity
100
AcDbText
8
METIN_BILGI
10
1880
20
2890
30
0
40
9
1
B3
50
0
7
STANDARD
72
1
11
1880
21
2890
31
0
100
AcDbText
73
0
0
TEXT
5
12135
330
11FD3
100
AcDbEntity
100
AcDbText
8
METIN_BILGI
10
2100
20
2890
30
0
40
9
1
B4
50
0
7
STANDARD
72
1
11
2100
21
2890
31
0
100
AcDbText
73
0
0
TEXT
5
12137
330
11FD3
100
AcDbEntity
100
AcDbText
8
METIN_BILGI
10
1480
20
1715
30
0
40
10
1
TCELL 1
50
0
7
STANDARD
72
1
11
1480
21
1715
31
0
100
AcDbText
73
0
0
TEXT
5
12139
330
11FD3
100
AcDbEntity
100
AcDbText
8
METIN_BILGI
10
1670
20
1715
30
0
40
10
1
TCELL 2
50
0
7
STANDARD
72
1
11
1670
21
1715
31
0
100
AcDbText
73
0
0
TEXT
5
1213B
330
11FD3
100
AcDbEntity
100
AcDbText
8
METIN_BILGI
10
1870
20
1715
30
0
40
10
1
TT 1
50
0
7
STANDARD
72
1
11
1870
21
1715
31
0
100
AcDbText
73
0
0
TEXT
5
1213D
330
11FD3
100
AcDbEntity
100
AcDbText
8
METIN_BILGI
10
2070
20
1715
30
0
40
10
1
TT 2
50
0
7
STANDARD
72
1
11
2070
21
1715
31
0
100
AcDbText
73
0
0
TEXT
5
1213F
330
11FD3
100
AcDbEntity
100
AcDbText
8
METIN_BILGI
10
1560
20
2280
30
0
40
10
1
VODAFONE 1
50
0
7
STANDARD
72
1
11
1560
21
2280
31
0
100
AcDbText
73
0
0
TEXT
5
12141
330
11FD3
100
AcDbEntity
100
AcDbText
8
METIN_BILGI
10
1770
20
2280
30
0
40
10
1
VODAFONE 2
50
0
7
STANDARD
72
1
11
1770
21
2280
31
0
100
AcDbText
73
0
0
TEXT
5
12143
330
11FD3
100
AcDbEntity
100
AcDbText
8
METIN_BILGI
10
1980
20
2280
30
0
40
10
1
VODAFONE 3
50
0
7
STANDARD
72
1
11
1980
21
2280
31
0
100
AcDbText
73
0
0
LWPOLYLINE
5
12144
330
11FD3
100
AcDbEntity
100
AcDbPolyline
8
METIN_BILGI
6
ByLayer
62
256
370
-1
90
4
70
1
10
1555
20
2945
10
1555
20
3035
10
1995
20
3035
10
1995
20
2945
0
LWPOLYLINE
5
12145
330
11FD3
100
AcDbEntity
100
AcDbPolyline
8
METIN_BILGI
6
ByLayer
62
256
370
-1
90
4
70
1
10
1560
20
2950
10
1560
20
3030
10
1990
20
3030
10
1990
20
2950
0
TEXT
5
12146
330
11FD3
100
AcDbEntity
100
AcDbText
8
METIN_BILGI
10
1775
20
3000
30
0
40
18
1
ALTERNATIF - 2
50
0
7
STANDARD
72
1
11
1775
21
3000
31
0
100
AcDbText
73
0
0
TEXT
5
12147
330
11FD3
100
AcDbEntity
100
AcDbText
8
METIN_BILGI
10
1775
20
2970
30
0
40
11
1
TABLALI 4 BORU - 7 RRU KUMESI
50
0
7
STANDARD
72
1
11
1775
21
2970
31
0
100
AcDbText
73
0
0
TEXT
5
1214D
330
11FD3
100
AcDbEntity
100
AcDbText
8
METIN_BILGI
10
2360
20
1660
30
0
40
11
1
POI 1
50
0
7
STANDARD
72
1
11
2360
21
1660
31
0
100
AcDbText
73
0
0
TEXT
5
1214F
330
11FD3
100
AcDbEntity
100
AcDbText
8
METIN_BILGI
10
2360
20
1930
30
0
40
11
1
POI 2
50
0
7
STANDARD
72
1
11
2360
21
1930
31
0
100
AcDbText
73
0
0
TEXT
5
12151
330
11FD3
100
AcDbEntity
100
AcDbText
8
METIN_BILGI
10
2360
20
2200
30
0
40
11
1
POI 3
50
0
7
STANDARD
72
1
11
2360
21
2200
31
0
100
AcDbText
73
0
0
TEXT
5
12153
330
11FD3
100
AcDbEntity
100
AcDbText
8
METIN_BILGI
10
2360
20
2470
30
0
40
11
1
POI 4
50
0
7
STANDARD
72
1
11
2360
21
2470
31
0
100
AcDbText
73
0
0
TEXT
5
12154
330
11FD3
100
AcDbEntity
100
AcDbText
8
METIN_BILGI
10
2360
20
2850
30
0
40
13
1
POI RACK KABINI
50
0
7
STANDARD
72
1
11
2360
21
2850
31
0
100
AcDbText
73
0
0
TEXT
5
12156
330
11FD3
100
AcDbEntity
100
AcDbText
8
METIN_BILGI
10
2225
20
1425
30
0
40
9
1
TABAN JUMPERI (0.8m)
50
0
7
STANDARD
72
1
11
2225
21
1425
31
0
100
AcDbText
73
0
0
LWPOLYLINE
5
12169
330
11FD3
100
AcDbEntity
100
AcDbPolyline
8
METIN_BILGI
6
ByLayer
62
256
370
-1
90
4
70
1
10
-2550
20
-1020
10
-2550
20
-40
10
-500
20
-40
10
-500
20
-1020
0
TEXT
5
1216A
330
11FD3
100
AcDbEntity
100
AcDbText
8
METIN_BILGI
10
-1525
20
-75
30
0
40
18
1
ALTERNATIF 1 VE ALTERNATIF 2 KARSILASTIRMALI MUHENDISLIK VE UYGULAMA ANALIZI
50
0
7
STANDARD
72
1
11
-1525
21
-75
31
0
100
AcDbText
73
0
0
LWPOLYLINE
5
1216B
330
11FD3
100
AcDbEntity
100
AcDbPolyline
8
METIN_BILGI
6
ByLayer
62
256
370
-1
90
4
70
1
10
-2550
20
-115
10
-2550
20
-80
10
-500
20
-80
10
-500
20
-115
0
TEXT
5
1216C
330
11FD3
100
AcDbEntity
100
AcDbText
8
METIN_BILGI
10
-2535
20
-105
30
0
40
11
1
KRITER / DEGERLENDIRME
50
0
7
STANDARD
100
AcDbText
0
TEXT
5
1216D
330
11FD3
100
AcDbEntity
100
AcDbText
8
METIN_BILGI
10
-2085
20
-105
30
0
40
11
1
ALTERNATIF 1 (SKORBOARD CELIK MONTAJI)
50
0
7
STANDARD
100
AcDbText
0
TEXT
5
1216E
330
11FD3
100
AcDbEntity
100
AcDbText
8
METIN_BILGI
10
-1305
20
-105
30
0
40
11
1
ALTERNATIF 2 (KEDI YOLU TABLALI MONTAJ)
50
0
7
STANDARD
100
AcDbText
0
LINE
5
1216F
330
11FD3
100
AcDbEntity
100
AcDbLine
8
METIN_BILGI
10
-2550
20
-150
30
0
11
-500
21
-150
31
0
0
TEXT
5
12170
330
11FD3
100
AcDbEntity
100
AcDbText
8
METIN_BILGI
10
-2535
20
-100
30
0
40
11
1
RRU Montaj Yeri
50
0
7
STANDARD
100
AcDbText
0
TEXT
5
12171
330
11FD3
100
AcDbEntity
100
AcDbText
8
METIN_BILGI
10
-2085
20
-100
30
0
40
10
1
Skorboard arka celik kafes kirisleri (Z = -2.20m)
50
0
7
STANDARD
100
AcDbText
0
TEXT
5
12172
330
11FD3
100
AcDbEntity
100
AcDbText
8
METIN_BILGI
10
-1305
20
-100
30
0
40
10
1
Mevcut alt kedi yolu platformu uzerinde 850x550mm tabla
50
0
7
STANDARD
100
AcDbText
0
LINE
5
12173
330
11FD3
100
AcDbEntity
100
AcDbLine
8
METIN_BILGI
10
-2550
20
-242
30
0
11
-500
21
-242
31
0
0
TEXT
5
12174
330
11FD3
100
AcDbEntity
100
AcDbText
8
METIN_BILGI
10
-2535
20
-192
30
0
40
11
1
POI Kabin Varligi
50
0
7
STANDARD
100
AcDbText
0
TEXT
5
12175
330
11FD3
100
AcDbEntity
100
AcDbText
8
METIN_BILGI
10
-2085
20
-192
30
0
40
10
1
Kedi yolu uzerinde 30U/42U POI Rack mevcuttur (600x800mm)
50
0
7
STANDARD
100
AcDbText
0
TEXT
5
12176
330
11FD3
100
AcDbEntity
100
AcDbText
8
METIN_BILGI
10
-1305
20
-192
30
0
40
10
1
Kedi yolu uzerinde 30U/42U POI Rack mevcuttur (Tablaya bitisik)
50
0
7
STANDARD
100
AcDbText
0
LINE
5
12177
330
11FD3
100
AcDbEntity
100
AcDbLine
8
METIN_BILGI
10
-2550
20
-334
30
0
11
-500
21
-334
31
0
0
TEXT
5
12178
330
11FD3
100
AcDbEntity
100
AcDbText
8
METIN_BILGI
10
-2535
20
-284
30
0
40
11
1
Net Yuruyus Koridoru
50
0
7
STANDARD
100
AcDbText
0
TEXT
5
12179
330
11FD3
100
AcDbEntity
100
AcDbText
8
METIN_BILGI
10
-2085
20
-284
30
0
40
10
1
Net 600mm serbest yuruyus (POI yani haric tam acik)
50
0
7
STANDARD
100
AcDbText
0
TEXT
5
1217A
330
11FD3
100
AcDbEntity
100
AcDbText
8
METIN_BILGI
10
-1305
20
-284
30
0
40
10
1
Net 650mm serbest yuruyus ve acil kacis koridoru (EN ISO 14122)
50
0
7
STANDARD
100
AcDbText
0
LINE
5
1217B
330
11FD3
100
AcDbEntity
100
AcDbLine
8
METIN_BILGI
10
-2550
20
-426
30
0
11
-500
21
-426
31
0
0
TEXT
5
1217C
330
11FD3
100
AcDbEntity
100
AcDbText
8
METIN_BILGI
10
-2535
20
-376
30
0
40
11
1
Skorboard Statik Yuku
50
0
7
STANDARD
100
AcDbText
0
TEXT
5
1217D
330
11FD3
100
AcDbEntity
100
AcDbText
8
METIN_BILGI
10
-2085
20
-376
30
0
40
10
1
14 RRU + konsol + tava: ~380 kg ek statik ve ruzgar yuku
50
0
7
STANDARD
100
AcDbText
0
TEXT
5
1217E
330
11FD3
100
AcDbEntity
100
AcDbText
8
METIN_BILGI
10
-1305
20
-376
30
0
40
10
1
SIFIR YUK (Skorboard celigine hicbir ek yuk binmez)
50
0
7
STANDARD
100
AcDbText
0
LINE
5
1217F
330
11FD3
100
AcDbEntity
100
AcDbLine
8
METIN_BILGI
10
-2550
20
-518
30
0
11
-500
21
-518
31
0
0
TEXT
5
12180
330
11FD3
100
AcDbEntity
100
AcDbText
8
METIN_BILGI
10
-2535
20
-468
30
0
40
11
1
Kopru Tavasi Ihtiyaci
50
0
7
STANDARD
100
AcDbText
0
TEXT
5
12181
330
11FD3
100
AcDbEntity
100
AcDbText
8
METIN_BILGI
10
-2085
20
-468
30
0
40
10
1
1260mm uzunlugunda havai gecis kopru tavasi zorunludur
50
0
7
STANDARD
100
AcDbText
0
TEXT
5
12182
330
11FD3
100
AcDbEntity
100
AcDbText
8
METIN_BILGI
10
-1305
20
-468
30
0
40
10
1
KOPRU TAVASI YOKTUR (Kablolar tabandan dogrudan girer)
50
0
7
STANDARD
100
AcDbText
0
LINE
5
12183
330
11FD3
100
AcDbEntity
100
AcDbLine
8
METIN_BILGI
10
-2550
20
-610
30
0
11
-500
21
-610
31
0
0
TEXT
5
12184
330
11FD3
100
AcDbEntity
100
AcDbText
8
METIN_BILGI
10
-2535
20
-560
30
0
40
11
1
Jumper Kablo Metraji
50
0
7
STANDARD
100
AcDbText
0
TEXT
5
12185
330
11FD3
100
AcDbEntity
100
AcDbText
8
METIN_BILGI
10
-2085
20
-560
30
0
40
10
1
Ortalama 2.80m / jumper portu (20 adet feeder, sinyal kaybi yuksek)
50
0
7
STANDARD
100
AcDbText
0
TEXT
5
12186
330
11FD3
100
AcDbEntity
100
AcDbText
8
METIN_BILGI
10
-1305
20
-560
30
0
40
10
1
Ortalama 0.85m / jumper portu (Cok kisa, minimum RF sinyal kaybi)
50
0
7
STANDARD
100
AcDbText
0
LINE
5
12187
330
11FD3
100
AcDbEntity
100
AcDbLine
8
METIN_BILGI
10
-2550
20
-702
30
0
11
-500
21
-702
31
0
0
TEXT
5
12188
330
11FD3
100
AcDbEntity
100
AcDbText
8
METIN_BILGI
10
-2535
20
-652
30
0
40
11
1
Montaj & Iskele Gereksinimi
50
0
7
STANDARD
100
AcDbText
0
TEXT
5
12189
330
11FD3
100
AcDbEntity
100
AcDbText
8
METIN_BILGI
10
-2085
20
-652
30
0
40
10
1
Yuksekte ozel celik iskele / sepetli erisim gerektirir
50
0
7
STANDARD
100
AcDbText
0
TEXT
5
1218A
330
11FD3
100
AcDbEntity
100
AcDbText
8
METIN_BILGI
10
-1305
20
-652
30
0
40
10
1
Kedi yolu icinden hizli, emniyetli ve kolay montaj imkani
50
0
7
STANDARD
100
AcDbText
0
LINE
5
1218B
330
11FD3
100
AcDbEntity
100
AcDbLine
8
METIN_BILGI
10
-2550
20
-794
30
0
11
-500
21
-794
31
0
0
TEXT
5
1218C
330
11FD3
100
AcDbEntity
100
AcDbText
8
METIN_BILGI
10
-2535
20
-744
30
0
40
11
1
Bakim & Mudahale Kolayligi
50
0
7
STANDARD
100
AcDbText
0
TEXT
5
1218D
330
11FD3
100
AcDbEntity
100
AcDbText
8
METIN_BILGI
10
-2085
20
-744
30
0
40
10
1
Skorboard arkasinda calisma alani kisitli ve zordur
50
0
7
STANDARD
100
AcDbText
0
TEXT
5
1218E
330
11FD3
100
AcDbEntity
100
AcDbText
8
METIN_BILGI
10
-1305
20
-744
30
0
40
10
1
Kedi yolundan 360 derece dogrudan ve emniyetli mudahale
50
0
7
STANDARD
100
AcDbText
0
LINE
5
1218F
330
11FD3
100
AcDbEntity
100
AcDbLine
8
METIN_BILGI
10
-2550
20
-886
30
0
11
-500
21
-886
31
0
0
TEXT
5
12190
330
11FD3
100
AcDbEntity
100
AcDbText
8
METIN_BILGI
10
-2535
20
-836
30
0
40
11
1
Tavsiye Edilen Tercih
50
0
7
STANDARD
100
AcDbText
0
TEXT
5
12191
330
11FD3
100
AcDbEntity
100
AcDbText
8
METIN_BILGI
10
-2085
20
-836
30
0
40
10
1
Mevcut tasarim standardi (Mimari onayli)
50
0
7
STANDARD
100
AcDbText
0
TEXT
5
12192
330
11FD3
100
AcDbEntity
100
AcDbText
8
METIN_BILGI
10
-1305
20
-836
30
0
40
10
1
YUKSEK ONERILEN ALTERNATIF (Statik ve montaj avantaji)
50
0
7
STANDARD
100
AcDbText
0
LWPOLYLINE
5
12193
330
11FD3
100
AcDbEntity
100
AcDbPolyline
8
METIN_BILGI
6
ByLayer
62
256
370
-1
90
4
70
1
10
-450
20
-1020
10
-450
20
-40
10
550
20
-40
10
550
20
-1020
0
TEXT
5
12194
330
11FD3
100
AcDbEntity
100
AcDbText
8
METIN_BILGI
10
50
20
-75
30
0
40
17
1
IMALAT VE ANKRAJ DETAYLARI (OLCEK 1:10)
50
0
7
STANDARD
72
1
11
50
21
-75
31
0
100
AcDbText
73
0
0
TEXT
5
12195
330
11FD3
100
AcDbEntity
100
AcDbText
8
METIN_BILGI
10
-420
20
-160
30
0
40
14
1
DETAY D-1: TABAN TABLASI VE FLANS ANKRAJ DETAYI
50
0
7
STANDARD
100
AcDbText
0
TEXT
5
12197
330
11FD3
100
AcDbEntity
100
AcDbText
8
METIN_BILGI
10
-290
20
-310
30
0
40
10
1
UPN120
50
0
7
STANDARD
72
1
11
-290
21
-310
31
0
100
AcDbText
73
0
0
TEXT
5
12199
330
11FD3
100
AcDbEntity
100
AcDbText
8
METIN_BILGI
10
-200
20
-245
30
0
40
10
1
t=25mm GALVANIZ TABLA SACI
50
0
7
STANDARD
72
1
11
-200
21
-245
31
0
100
AcDbText
73
0
0
TEXT
5
1219E
330
11FD3
100
AcDbEntity
100
AcDbText
8
METIN_BILGI
10
-130
20
-180
30
0
40
10
1
O60.3mm MONTAJ BORUSU
50
0
7
STANDARD
100
AcDbText
0
TEXT
5
121A1
330
11FD3
100
AcDbEntity
100
AcDbText
8
METIN_BILGI
10
-390
20
-375
30
0
40
10
1
M16 ANKRAJ (8.8 KALITE)
50
0
7
STANDARD
100
AcDbText
0
TEXT
5
121A2
330
11FD3
100
AcDbEntity
100
AcDbText
8
METIN_BILGI
10
-420
20
-590
30
0
40
14
1
DETAY D-2: POI RACK KABINI VE JUMPER GIRIS DUZENI
50
0
7
STANDARD
100
AcDbText
0
TEXT
5
121A6
330
11FD3
100
AcDbEntity
100
AcDbText
8
METIN_BILGI
10
-190
20
-685
30
0
40
9
1
POI MODUL 1 (4.3-10 DIN)
50
0
7
STANDARD
72
1
11
-190
21
-685
31
0
100
AcDbText
73
0
0
TEXT
5
121A8
330
11FD3
100
AcDbEntity
100
AcDbText
8
METIN_BILGI
10
-190
20
-745
30
0
40
9
1
POI MODUL 2 (4.3-10 DIN)
50
0
7
STANDARD
72
1
11
-190
21
-745
31
0
100
AcDbText
73
0
0
TEXT
5
121AA
330
11FD3
100
AcDbEntity
100
AcDbText
8
METIN_BILGI
10
-190
20
-805
30
0
40
9
1
POI MODUL 3 (4.3-10 DIN)
50
0
7
STANDARD
72
1
11
-190
21
-805
31
0
100
AcDbText
73
0
0
TEXT
5
121AC
330
11FD3
100
AcDbEntity
100
AcDbText
8
METIN_BILGI
10
-190
20
-865
30
0
40
9
1
POI MODUL 4 (4.3-10 DIN)
50
0
7
STANDARD
72
1
11
-190
21
-865
31
0
100
AcDbText
73
0
0
TEXT
5
121AE
330
11FD3
100
AcDbEntity
100
AcDbText
8
METIN_BILGI
10
-190
20
-980
30
0
40
10
1
SIZDIRMAZ REKOR PLAKASI (IP65)
50
0
7
STANDARD
72
1
11
-190
21
-980
31
0
100
AcDbText
73
0
0
LWPOLYLINE
5
121AF
330
11FD3
100
AcDbEntity
100
AcDbPolyline
8
METIN_BILGI
6
ByLayer
62
256
370
-1
90
4
70
1
10
600
20
-560
10
600
20
-40
10
1600
20
-40
10
1600
20
-560
0
TEXT
5
121B0
330
11FD3
100
AcDbEntity
100
AcDbText
8
METIN_BILGI
10
1100
20
-70
30
0
40
16
1
EKIPMAN VE MALZEME LISTESI (BOM)
50
0
7
STANDARD
72
1
11
1100
21
-70
31
0
100
AcDbText
73
0
0
LWPOLYLINE
5
121B1
330
11FD3
100
AcDbEntity
100
AcDbPolyline
8
METIN_BILGI
6
ByLayer
62
256
370
-1
90
4
70
1
10
600
20
-105
10
600
20
-75
10
1600
20
-75
10
1600
20
-105
0
TEXT
5
121B2
330
11FD3
100
AcDbEntity
100
AcDbText
8
METIN_BILGI
10
610
20
-95
30
0
40
10
1
NO
50
0
7
STANDARD
100
AcDbText
0
TEXT
5
121B3
330
11FD3
100
AcDbEntity
100
AcDbText
8
METIN_BILGI
10
670
20
-95
30
0
40
10
1
EKIPMAN TANIMI
50
0
7
STANDARD
100
AcDbText
0
TEXT
5
121B4
330
11FD3
100
AcDbEntity
100
AcDbText
8
METIN_BILGI
10
1130
20
-95
30
0
40
10
1
EBAT / TEKNIK OZELLIK
50
0
7
STANDARD
100
AcDbText
0
TEXT
5
121B5
330
11FD3
100
AcDbEntity
100
AcDbText
8
METIN_BILGI
10
1450
20
-95
30
0
40
10
1
MIKTAR
50
0
7
STANDARD
100
AcDbText
0
LINE
5
121B6
330
11FD3
100
AcDbEntity
100
AcDbLine
8
METIN_BILGI
10
600
20
-135
30
0
11
1600
21
-135
31
0
0
TEXT
5
121B7
330
11FD3
100
AcDbEntity
100
AcDbText
8
METIN_BILGI
10
610
20
-125
30
0
40
10
1
01
50
0
7
STANDARD
100
AcDbText
0
TEXT
5
121B8
330
11FD3
100
AcDbEntity
100
AcDbText
8
METIN_BILGI
10
670
20
-125
30
0
40
10
1
Turkcell LTE/NR RRU Modulleri
50
0
7
STANDARD
100
AcDbText
0
TEXT
5
121B9
330
11FD3
100
AcDbEntity
100
AcDbText
8
METIN_BILGI
10
1130
20
-125
30
0
40
9
1
398 x 533 x 140 mm / 25 kg
50
0
7
STANDARD
100
AcDbText
0
TEXT
5
121BA
330
11FD3
100
AcDbEntity
100
AcDbText
8
METIN_BILGI
10
1450
20
-125
30
0
40
10
1
4 Adet
50
0
7
STANDARD
100
AcDbText
0
LINE
5
121BB
330
11FD3
100
AcDbEntity
100
AcDbLine
8
METIN_BILGI
10
600
20
-175
30
0
11
1600
21
-175
31
0
0
TEXT
5
121BC
330
11FD3
100
AcDbEntity
100
AcDbText
8
METIN_BILGI
10
610
20
-165
30
0
40
10
1
02
50
0
7
STANDARD
100
AcDbText
0
TEXT
5
121BD
330
11FD3
100
AcDbEntity
100
AcDbText
8
METIN_BILGI
10
670
20
-165
30
0
40
10
1
Turk Telekom NR/LTE RRU Modulleri
50
0
7
STANDARD
100
AcDbText
0
TEXT
5
121BE
330
11FD3
100
AcDbEntity
100
AcDbText
8
METIN_BILGI
10
1130
20
-165
30
0
40
9
1
356 x 480 x 140 mm / 25 kg
50
0
7
STANDARD
100
AcDbText
0
TEXT
5
121BF
330
11FD3
100
AcDbEntity
100
AcDbText
8
METIN_BILGI
10
1450
20
-165
30
0
40
10
1
4 Adet
50
0
7
STANDARD
100
AcDbText
0
LINE
5
121C0
330
11FD3
100
AcDbEntity
100
AcDbLine
8
METIN_BILGI
10
600
20
-215
30
0
11
1600
21
-215
31
0
0
TEXT
5
121C1
330
11FD3
100
AcDbEntity
100
AcDbText
8
METIN_BILGI
10
610
20
-205
30
0
40
10
1
03
50
0
7
STANDARD
100
AcDbText
0
TEXT
5
121C2
330
11FD3
100
AcDbEntity
100
AcDbText
8
METIN_BILGI
10
670
20
-205
30
0
40
10
1
Vodafone 5526t Cift Bant RRU Modulleri
50
0
7
STANDARD
100
AcDbText
0
TEXT
5
121C3
330
11FD3
100
AcDbEntity
100
AcDbText
8
METIN_BILGI
10
1130
20
-205
30
0
40
9
1
432 x 480 x 135 mm / 28 kg
50
0
7
STANDARD
100
AcDbText
0
TEXT
5
121C4
330
11FD3
100
AcDbEntity
100
AcDbText
8
METIN_BILGI
10
1450
20
-205
30
0
40
10
1
6 Adet
50
0
7
STANDARD
100
AcDbText
0
LINE
5
121C5
330
11FD3
100
AcDbEntity
100
AcDbLine
8
METIN_BILGI
10
600
20
-255
30
0
11
1600
21
-255
31
0
0
TEXT
5
121C6
330
11FD3
100
AcDbEntity
100
AcDbText
8
METIN_BILGI
10
610
20
-245
30
0
40
10
1
04
50
0
7
STANDARD
100
AcDbText
0
TEXT
5
121C7
330
11FD3
100
AcDbEntity
100
AcDbText
8
METIN_BILGI
10
670
20
-245
30
0
40
10
1
Canovate 19" Outdoor POI Rack Kabini
50
0
7
STANDARD
100
AcDbText
0
TEXT
5
121C8
330
11FD3
100
AcDbEntity
100
AcDbText
8
METIN_BILGI
10
1130
20
-245
30
0
40
9
1
600 x 800 x 1600 mm (IP65)
50
0
7
STANDARD
100
AcDbText
0
TEXT
5
121C9
330
11FD3
100
AcDbEntity
100
AcDbText
8
METIN_BILGI
10
1450
20
-245
30
0
40
10
1
2 Adet
50
0
7
STANDARD
100
AcDbText
0
LINE
5
121CA
330
11FD3
100
AcDbEntity
100
AcDbLine
8
METIN_BILGI
10
600
20
-295
30
0
11
1600
21
-295
31
0
0
TEXT
5
121CB
330
11FD3
100
AcDbEntity
100
AcDbText
8
METIN_BILGI
10
610
20
-285
30
0
40
10
1
05
50
0
7
STANDARD
100
AcDbText
0
TEXT
5
121CC
330
11FD3
100
AcDbEntity
100
AcDbText
8
METIN_BILGI
10
670
20
-285
30
0
40
10
1
Dortlu POI Modul Kumesi (Canovate)
50
0
7
STANDARD
100
AcDbText
0
TEXT
5
121CD
330
11FD3
100
AcDbEntity
100
AcDbText
8
METIN_BILGI
10
1130
20
-285
30
0
40
9
1
19" 3U/4U Rack Tipi Modul
50
0
7
STANDARD
100
AcDbText
0
TEXT
5
121CE
330
11FD3
100
AcDbEntity
100
AcDbText
8
METIN_BILGI
10
1450
20
-285
30
0
40
10
1
8 Modul
50
0
7
STANDARD
100
AcDbText
0
LINE
5
121CF
330
11FD3
100
AcDbEntity
100
AcDbLine
8
METIN_BILGI
10
600
20
-335
30
0
11
1600
21
-335
31
0
0
TEXT
5
121D0
330
11FD3
100
AcDbEntity
100
AcDbText
8
METIN_BILGI
10
610
20
-325
30
0
40
10
1
06
50
0
7
STANDARD
100
AcDbText
0
TEXT
5
121D1
330
11FD3
100
AcDbEntity
100
AcDbText
8
METIN_BILGI
10
670
20
-325
30
0
40
10
1
Sicak Daldirma Galvaniz Montaj Tablasi (Alt.2)
50
0
7
STANDARD
100
AcDbText
0
TEXT
5
121D2
330
11FD3
100
AcDbEntity
100
AcDbText
8
METIN_BILGI
10
1130
20
-325
30
0
40
9
1
850 x 550 x 25 mm + Bordur
50
0
7
STANDARD
100
AcDbText
0
TEXT
5
121D3
330
11FD3
100
AcDbEntity
100
AcDbText
8
METIN_BILGI
10
1450
20
-325
30
0
40
10
1
2 Adet
50
0
7
STANDARD
100
AcDbText
0
LINE
5
121D4
330
11FD3
100
AcDbEntity
100
AcDbLine
8
METIN_BILGI
10
600
20
-375
30
0
11
1600
21
-375
31
0
0
TEXT
5
121D5
330
11FD3
100
AcDbEntity
100
AcDbText
8
METIN_BILGI
10
610
20
-365
30
0
40
10
1
07
50
0
7
STANDARD
100
AcDbText
0
TEXT
5
121D6
330
11FD3
100
AcDbEntity
100
AcDbText
8
METIN_BILGI
10
670
20
-365
30
0
40
10
1
2" (O60.3mm) Flansli Montaj Borusu (Alt.2)
50
0
7
STANDARD
100
AcDbText
0
TEXT
5
121D7
330
11FD3
100
AcDbEntity
100
AcDbText
8
METIN_BILGI
10
1130
20
-365
30
0
40
9
1
t=3.65mm - L=1950mm Galv.
50
0
7
STANDARD
100
AcDbText
0
TEXT
5
121D8
330
11FD3
100
AcDbEntity
100
AcDbText
8
METIN_BILGI
10
1450
20
-365
30
0
40
10
1
8 Adet
50
0
7
STANDARD
100
AcDbText
0
LINE
5
121D9
330
11FD3
100
AcDbEntity
100
AcDbLine
8
METIN_BILGI
10
600
20
-415
30
0
11
1600
21
-415
31
0
0
TEXT
5
121DA
330
11FD3
100
AcDbEntity
100
AcDbText
8
METIN_BILGI
10
610
20
-405
30
0
40
10
1
08
50
0
7
STANDARD
100
AcDbText
0
TEXT
5
121DB
330
11FD3
100
AcDbEntity
100
AcDbText
8
METIN_BILGI
10
670
20
-405
30
0
40
10
1
200x60mm Perfore Kablo Tavasi (Alt.1)
50
0
7
STANDARD
100
AcDbText
0
TEXT
5
121DC
330
11FD3
100
AcDbEntity
100
AcDbText
8
METIN_BILGI
10
1130
20
-405
30
0
40
9
1
t=1.5mm Sicak Daldirma Galv.
50
0
7
STANDARD
100
AcDbText
0
TEXT
5
121DD
330
11FD3
100
AcDbEntity
100
AcDbText
8
METIN_BILGI
10
1450
20
-405
30
0
40
10
1
12 Metre
50
0
7
STANDARD
100
AcDbText
0
LINE
5
121DE
330
11FD3
100
AcDbEntity
100
AcDbLine
8
METIN_BILGI
10
600
20
-455
30
0
11
1600
21
-455
31
0
0
TEXT
5
121DF
330
11FD3
100
AcDbEntity
100
AcDbText
8
METIN_BILGI
10
610
20
-445
30
0
40
10
1
09
50
0
7
STANDARD
100
AcDbText
0
TEXT
5
121E0
330
11FD3
100
AcDbEntity
100
AcDbText
8
METIN_BILGI
10
670
20
-445
30
0
40
10
1
1/2" Super Esnek RF Jumper Kablo Seti
50
0
7
STANDARD
100
AcDbText
0
TEXT
5
121E1
330
11FD3
100
AcDbEntity
100
AcDbText
8
METIN_BILGI
10
1130
20
-445
30
0
40
9
1
4.3-10 DIN / L=1.0 - 2.8m
50
0
7
STANDARD
100
AcDbText
0
TEXT
5
121E2
330
11FD3
100
AcDbEntity
100
AcDbText
8
METIN_BILGI
10
1450
20
-445
30
0
40
10
1
40 Adet
50
0
7
STANDARD
100
AcDbText
0
LINE
5
121E3
330
11FD3
100
AcDbEntity
100
AcDbLine
8
METIN_BILGI
10
600
20
-495
30
0
11
1600
21
-495
31
0
0
TEXT
5
121E4
330
11FD3
100
AcDbEntity
100
AcDbText
8
METIN_BILGI
10
610
20
-485
30
0
40
10
1
10
50
0
7
STANDARD
100
AcDbText
0
TEXT
5
121E5
330
11FD3
100
AcDbEntity
100
AcDbText
8
METIN_BILGI
10
670
20
-485
30
0
40
10
1
M16 8.8 Kalite Celik Ankraj Civata Seti
50
0
7
STANDARD
100
AcDbText
0
TEXT
5
121E6
330
11FD3
100
AcDbEntity
100
AcDbText
8
METIN_BILGI
10
1130
20
-485
30
0
40
9
1
Dacromet Kaplama + Kilitli Pul
50
0
7
STANDARD
100
AcDbText
0
TEXT
5
121E7
330
11FD3
100
AcDbEntity
100
AcDbText
8
METIN_BILGI
10
1450
20
-485
30
0
40
10
1
16 Takim
50
0
7
STANDARD
100
AcDbText
0
LWPOLYLINE
5
121E8
330
11FD3
100
AcDbEntity
100
AcDbPolyline
8
METIN_BILGI
6
ByLayer
62
256
370
-1
90
4
70
1
10
600
20
-1020
10
600
20
-580
10
1600
20
-580
10
1600
20
-1020
0
TEXT
5
121E9
330
11FD3
100
AcDbEntity
100
AcDbText
8
METIN_BILGI
10
1100
20
-605
30
0
40
14
1
TEKNIK SARTNAME VE MONTAJ STANDARTLARI
50
0
7
STANDARD
72
1
11
1100
21
-605
31
0
100
AcDbText
73
0
0
TEXT
5
121EA
330
11FD3
100
AcDbEntity
100
AcDbText
8
METIN_BILGI
10
620
20
-640
30
0
40
10
1
1. GUVENLIK VE SERBEST GECIS: Kedi yolu platformu uzerinde EN ISO 14122-2 standardina uygun net yuruyus
50
0
7
STANDARD
100
AcDbText
0
TEXT
5
121EB
330
11FD3
100
AcDbEntity
100
AcDbText
8
METIN_BILGI
10
620
20
-676
30
0
40
10
1
   koridoru (Alternatif 1: 600mm, Alternatif 2: 650mm) kesintisiz ve engelsiz olarak korunacaktir.
50
0
7
STANDARD
100
AcDbText
0
TEXT
5
121EC
330
11FD3
100
AcDbEntity
100
AcDbText
8
METIN_BILGI
10
620
20
-712
30
0
40
10
1
2. GALVANIZ KAPLAMA: Tum celik montaj tablolari, flansli borular ve konsol kollari TS EN ISO 1461
50
0
7
STANDARD
100
AcDbText
0
TEXT
5
121ED
330
11FD3
100
AcDbEntity
100
AcDbText
8
METIN_BILGI
10
620
20
-748
30
0
40
10
1
   standardinda min. 85 mikron sicak daldirma galvaniz ile korozyona karsi korumalidir.
50
0
7
STANDARD
100
AcDbText
0
TEXT
5
121EE
330
11FD3
100
AcDbEntity
100
AcDbText
8
METIN_BILGI
10
620
20
-784
30
0
40
10
1
3. ANKRAJ VE CIVATA STANDARDI: Celik taban tablasi ve kedi yolu baglantilari 8.8 kalite M16 civatalar
50
0
7
STANDARD
100
AcDbText
0
TEXT
5
121EF
330
11FD3
100
AcDbEntity
100
AcDbText
8
METIN_BILGI
10
620
20
-820
30
0
40
10
1
   ve cift kilitli paslanmaz pullarla 120 Nm tork degeri ile rijit sabitlenecektir.
50
0
7
STANDARD
100
AcDbText
0
TEXT
5
121F0
330
11FD3
100
AcDbEntity
100
AcDbText
8
METIN_BILGI
10
620
20
-856
30
0
40
10
1
4. RF SIZDIRMAZLIK: Tum 4.3-10 dis ortam RF konnektorleri IP67/IP68 soguk buzusmeli tup (cold-shrink)
50
0
7
STANDARD
100
AcDbText
0
TEXT
5
121F1
330
11FD3
100
AcDbEntity
100
AcDbText
8
METIN_BILGI
10
620
20
-892
30
0
40
10
1
   ve vulkanize butil bant ile cift kademeli sizdirmazlik altina alinacaktir.
50
0
7
STANDARD
100
AcDbText
0
TEXT
5
121F2
330
11FD3
100
AcDbEntity
100
AcDbText
8
METIN_BILGI
10
620
20
-928
30
0
40
10
1
5. TOPRAKLAMA: Her iki alternatifte tum metal tablalar, borular ve RRU/POI kasalari kedi yolu es-potansiyel
50
0
7
STANDARD
100
AcDbText
0
TEXT
5
121F3
330
11FD3
100
AcDbEntity
100
AcDbText
8
METIN_BILGI
10
620
20
-964
30
0
40
10
1
   bakir barasina 16 mm2 H07V-K ile baglanacaktir (Gecis direnci R < 2 Ohm).
50
0
7
STANDARD
100
AcDbText
0
LWPOLYLINE
5
121F4
330
11FD3
100
AcDbEntity
100
AcDbPolyline
8
METIN_BILGI
6
ByLayer
62
256
370
-1
90
4
70
1
10
1630
20
-1020
10
1630
20
-40
10
2550
20
-40
10
2550
20
-1020
0
LWPOLYLINE
5
121F5
330
11FD3
100
AcDbEntity
100
AcDbPolyline
8
METIN_BILGI
6
ByLayer
62
256
370
-1
90
4
70
1
10
1630
20
-200
10
1630
20
-40
10
2550
20
-40
10
2550
20
-200
0
TEXT
5
121F6
330
11FD3
100
AcDbEntity
100
AcDbText
8
METIN_BILGI
10
2090
20
-85
30
0
40
22
1
TURK TELEKOMUNIKASYON A.S.
50
0
7
STANDARD
72
1
11
2090
21
-85
31
0
100
AcDbText
73
0
0
TEXT
5
121F7
330
11FD3
100
AcDbEntity
100
AcDbText
8
METIN_BILGI
10
2090
20
-120
30
0
40
16
1
TURKCELL - VODAFONE ORTAK ALTYAPI PROJESI
50
0
7
STANDARD
72
1
11
2090
21
-120
31
0
100
AcDbText
73
0
0
TEXT
5
121F8
330
11FD3
100
AcDbEntity
100
AcDbText
8
METIN_BILGI
10
2090
20
-155
30
0
40
14
1
SEYRANTEPE STADYUMU KEDI YOLU TESISLERI
50
0
7
STANDARD
72
1
11
2090
21
-155
31
0
100
AcDbText
73
0
0
LWPOLYLINE
5
121F9
330
11FD3
100
AcDbEntity
100
AcDbPolyline
8
METIN_BILGI
6
ByLayer
62
256
370
-1
90
4
70
1
10
1630
20
-410
10
1630
20
-200
10
2550
20
-200
10
2550
20
-410
0
TEXT
5
121FA
330
11FD3
100
AcDbEntity
100
AcDbText
8
METIN_BILGI
10
1650
20
-230
30
0
40
12
1
PROJE ADI:
50
0
7
STANDARD
100
AcDbText
0
TEXT
5
121FB
330
11FD3
100
AcDbEntity
100
AcDbText
8
METIN_BILGI
10
1660
20
-265
30
0
40
16
1
RAMS PARK / SEYRANTEPE STADYUMU 5G DONUSUMU
50
0
7
STANDARD
100
AcDbText
0
TEXT
5
121FC
330
11FD3
100
AcDbEntity
100
AcDbText
8
METIN_BILGI
10
1650
20
-310
30
0
40
12
1
PAFTA ADI:
50
0
7
STANDARD
100
AcDbText
0
TEXT
5
121FD
330
11FD3
100
AcDbEntity
100
AcDbText
8
METIN_BILGI
10
1660
20
-345
30
0
40
16
1
ALAN 2: SKORBOARD ARKASI RRU & POI KESITLERI
50
0
7
STANDARD
100
AcDbText
0
TEXT
5
121FE
330
11FD3
100
AcDbEntity
100
AcDbText
8
METIN_BILGI
10
1660
20
-378
30
0
40
13
1
ALTERNATIF 1 VE ALTERNATIF 2 KARSILASTIRMALI ENKESITLERI
50
0
7
STANDARD
100
AcDbText
0
LINE
5
121FF
330
11FD3
100
AcDbEntity
100
AcDbLine
8
METIN_BILGI
10
1630
20
-485
30
0
11
2550
21
-485
31
0
0
LINE
5
12200
330
11FD3
100
AcDbEntity
100
AcDbLine
8
METIN_BILGI
10
2090
20
-485
30
0
11
2090
21
-410
31
0
0
TEXT
5
12201
330
11FD3
100
AcDbEntity
100
AcDbText
8
METIN_BILGI
10
1645
20
-435
30
0
40
10
1
PAFTA NO:
50
0
7
STANDARD
100
AcDbText
0
TEXT
5
12202
330
11FD3
100
AcDbEntity
100
AcDbText
8
METIN_BILGI
10
1750
20
-435
30
0
40
12
1
DWG-TEL-10
50
0
7
STANDARD
100
AcDbText
0
TEXT
5
12203
330
11FD3
100
AcDbEntity
100
AcDbText
8
METIN_BILGI
10
2105
20
-435
30
0
40
10
1
TARIH:
50
0
7
STANDARD
100
AcDbText
0
TEXT
5
12204
330
11FD3
100
AcDbEntity
100
AcDbText
8
METIN_BILGI
10
2210
20
-435
30
0
40
12
1
EKIM 2026
50
0
7
STANDARD
100
AcDbText
0
LINE
5
12205
330
11FD3
100
AcDbEntity
100
AcDbLine
8
METIN_BILGI
10
1630
20
-560
30
0
11
2550
21
-560
31
0
0
LINE
5
12206
330
11FD3
100
AcDbEntity
100
AcDbLine
8
METIN_BILGI
10
2090
20
-560
30
0
11
2090
21
-485
31
0
0
TEXT
5
12207
330
11FD3
100
AcDbEntity
100
AcDbText
8
METIN_BILGI
10
1645
20
-510
30
0
40
10
1
OLCEK:
50
0
7
STANDARD
100
AcDbText
0
TEXT
5
12208
330
11FD3
100
AcDbEntity
100
AcDbText
8
METIN_BILGI
10
1750
20
-510
30
0
40
12
1
1:1 mm (CAD)
50
0
7
STANDARD
100
AcDbText
0
TEXT
5
12209
330
11FD3
100
AcDbEntity
100
AcDbText
8
METIN_BILGI
10
2105
20
-510
30
0
40
10
1
REV:
50
0
7
STANDARD
100
AcDbText
0
TEXT
5
1220A
330
11FD3
100
AcDbEntity
100
AcDbText
8
METIN_BILGI
10
2210
20
-510
30
0
40
12
1
REV-01
50
0
7
STANDARD
100
AcDbText
0
LINE
5
1220B
330
11FD3
100
AcDbEntity
100
AcDbLine
8
METIN_BILGI
10
1630
20
-635
30
0
11
2550
21
-635
31
0
0
LINE
5
1220C
330
11FD3
100
AcDbEntity
100
AcDbLine
8
METIN_BILGI
10
2090
20
-635
30
0
11
2090
21
-560
31
0
0
TEXT
5
1220D
330
11FD3
100
AcDbEntity
100
AcDbText
8
METIN_BILGI
10
1645
20
-585
30
0
40
10
1
CIZEN:
50
0
7
STANDARD
100
AcDbText
0
TEXT
5
1220E
330
11FD3
100
AcDbEntity
100
AcDbText
8
METIN_BILGI
10
1750
20
-585
30
0
40
12
1
ANTIGRAVITY CAD ENG
50
0
7
STANDARD
100
AcDbText
0
TEXT
5
1220F
330
11FD3
100
AcDbEntity
100
AcDbText
8
METIN_BILGI
10
2105
20
-585
30
0
40
10
1
KONTROL:
50
0
7
STANDARD
100
AcDbText
0
TEXT
5
12210
330
11FD3
100
AcDbEntity
100
AcDbText
8
METIN_BILGI
10
2210
20
-585
30
0
40
12
1
BAS MUHENDISLIK
50
0
7
STANDARD
100
AcDbText
0
LINE
5
12211
330
11FD3
100
AcDbEntity
100
AcDbLine
8
METIN_BILGI
10
1630
20
-710
30
0
11
2550
21
-710
31
0
0
LINE
5
12212
330
11FD3
100
AcDbEntity
100
AcDbLine
8
METIN_BILGI
10
2090
20
-710
30
0
11
2090
21
-635
31
0
0
TEXT
5
12213
330
11FD3
100
AcDbEntity
100
AcDbText
8
METIN_BILGI
10
1645
20
-660
30
0
40
10
1
STATIK ONAY:
50
0
7
STANDARD
100
AcDbText
0
TEXT
5
12214
330
11FD3
100
AcDbEntity
100
AcDbText
8
METIN_BILGI
10
1750
20
-660
30
0
40
12
1
UYGUNDUR (CE)
50
0
7
STANDARD
100
AcDbText
0
TEXT
5
12215
330
11FD3
100
AcDbEntity
100
AcDbText
8
METIN_BILGI
10
2105
20
-660
30
0
40
10
1
FORMAT:
50
0
7
STANDARD
100
AcDbText
0
TEXT
5
12216
330
11FD3
100
AcDbEntity
100
AcDbText
8
METIN_BILGI
10
2210
20
-660
30
0
40
12
1
AUTOCAD DXF / DWG
50
0
7
STANDARD
100
AcDbText
0
LINE
5
12217
330
11FD3
100
AcDbEntity
100
AcDbLine
8
METIN_BILGI
10
1630
20
-785
30
0
11
2550
21
-785
31
0
0
LINE
5
12218
330
11FD3
100
AcDbEntity
100
AcDbLine
8
METIN_BILGI
10
2090
20
-785
30
0
11
2090
21
-710
31
0
0
TEXT
5
12219
330
11FD3
100
AcDbEntity
100
AcDbText
8
METIN_BILGI
10
1645
20
-735
30
0
40
10
1
DISIPLIN:
50
0
7
STANDARD
100
AcDbText
0
TEXT
5
1221A
330
11FD3
100
AcDbEntity
100
AcDbText
8
METIN_BILGI
10
1750
20
-735
30
0
40
12
1
TELEKOM & ELEKTROMEKANIK
50
0
7
STANDARD
100
AcDbText
0
TEXT
5
1221B
330
11FD3
100
AcDbEntity
100
AcDbText
8
METIN_BILGI
10
2105
20
-735
30
0
40
10
1
DURUM:
50
0
7
STANDARD
100
AcDbText
0
TEXT
5
1221C
330
11FD3
100
AcDbEntity
100
AcDbText
8
METIN_BILGI
10
2210
20
-735
30
0
40
12
1
AS-BUILT / IMALAT
50
0
7
STANDARD
100
AcDbText
0
LWPOLYLINE
5
12000
330
11FD3
100
AcDbEntity
100
AcDbPolyline
8
EKP_TURKCELL_RRU
6
ByLayer
62
256
370
-1
90
4
70
1
10
-2050
20
1820
10
-2050
20
2300
10
-1890
20
2300
10
-1890
20
1820
0
LINE
5
12001
330
11FD3
100
AcDbEntity
100
AcDbLine
8
EKP_TURKCELL_RRU
10
-1890
20
1850
30
0
11
-1860
21
1850
31
0
0
LINE
5
12002
330
11FD3
100
AcDbEntity
100
AcDbLine
8
EKP_TURKCELL_RRU
10
-1890
20
1885
30
0
11
-1860
21
1885
31
0
0
LINE
5
12003
330
11FD3
100
AcDbEntity
100
AcDbLine
8
EKP_TURKCELL_RRU
10
-1890
20
1920
30
0
11
-1860
21
1920
31
0
0
LINE
5
12004
330
11FD3
100
AcDbEntity
100
AcDbLine
8
EKP_TURKCELL_RRU
10
-1890
20
1955
30
0
11
-1860
21
1955
31
0
0
LINE
5
12005
330
11FD3
100
AcDbEntity
100
AcDbLine
8
EKP_TURKCELL_RRU
10
-1890
20
1990
30
0
11
-1860
21
1990
31
0
0
LINE
5
12006
330
11FD3
100
AcDbEntity
100
AcDbLine
8
EKP_TURKCELL_RRU
10
-1890
20
2025
30
0
11
-1860
21
2025
31
0
0
LINE
5
12007
330
11FD3
100
AcDbEntity
100
AcDbLine
8
EKP_TURKCELL_RRU
10
-1890
20
2060
30
0
11
-1860
21
2060
31
0
0
LINE
5
12008
330
11FD3
100
AcDbEntity
100
AcDbLine
8
EKP_TURKCELL_RRU
10
-1890
20
2095
30
0
11
-1860
21
2095
31
0
0
LINE
5
12009
330
11FD3
100
AcDbEntity
100
AcDbLine
8
EKP_TURKCELL_RRU
10
-1890
20
2130
30
0
11
-1860
21
2130
31
0
0
LINE
5
1200A
330
11FD3
100
AcDbEntity
100
AcDbLine
8
EKP_TURKCELL_RRU
10
-1890
20
2165
30
0
11
-1860
21
2165
31
0
0
LINE
5
1200B
330
11FD3
100
AcDbEntity
100
AcDbLine
8
EKP_TURKCELL_RRU
10
-1890
20
2200
30
0
11
-1860
21
2200
31
0
0
LINE
5
1200C
330
11FD3
100
AcDbEntity
100
AcDbLine
8
EKP_TURKCELL_RRU
10
-1890
20
2235
30
0
11
-1860
21
2235
31
0
0
LINE
5
1200D
330
11FD3
100
AcDbEntity
100
AcDbLine
8
EKP_TURKCELL_RRU
10
-1890
20
2270
30
0
11
-1860
21
2270
31
0
0
LWPOLYLINE
5
1206C
330
11FD3
100
AcDbEntity
100
AcDbPolyline
8
EKP_TURKCELL_RRU
6
ByLayer
62
256
370
-1
90
4
70
1
10
-1200
20
1830
10
-1200
20
2310
10
-1100
20
2310
10
-1100
20
1830
0
LWPOLYLINE
5
12074
330
11FD3
100
AcDbEntity
100
AcDbPolyline
8
EKP_TURKCELL_RRU
6
ByLayer
62
256
370
-1
90
4
70
1
10
-1075
20
1830
10
-1075
20
2310
10
-975
20
2310
10
-975
20
1830
0
LWPOLYLINE
5
120FB
330
11FD3
100
AcDbEntity
100
AcDbPolyline
8
EKP_TURKCELL_RRU
6
ByLayer
62
256
370
-1
90
4
70
1
10
875
20
1555
10
875
20
2035
10
1015
20
2035
10
1015
20
1555
0
LWPOLYLINE
5
12136
330
11FD3
100
AcDbEntity
100
AcDbPolyline
8
EKP_TURKCELL_RRU
6
ByLayer
62
256
370
-1
90
4
70
1
10
1400
20
1490
10
1400
20
1940
10
1560
20
1940
10
1560
20
1490
0
LWPOLYLINE
5
12138
330
11FD3
100
AcDbEntity
100
AcDbPolyline
8
EKP_TURKCELL_RRU
6
ByLayer
62
256
370
-1
90
4
70
1
10
1590
20
1490
10
1590
20
1940
10
1750
20
1940
10
1750
20
1490
0
LWPOLYLINE
5
12094
330
11FD3
100
AcDbEntity
100
AcDbPolyline
8
EKP_VODAFONE_RRU
6
ByLayer
62
256
370
-1
90
4
70
1
10
-710
20
1830
10
-710
20
2300
10
-605
20
2300
10
-605
20
1830
0
LWPOLYLINE
5
1209C
330
11FD3
100
AcDbEntity
100
AcDbPolyline
8
EKP_VODAFONE_RRU
6
ByLayer
62
256
370
-1
90
4
70
1
10
-580
20
1830
10
-580
20
2300
10
-475
20
2300
10
-475
20
1830
0
LWPOLYLINE
5
120A4
330
11FD3
100
AcDbEntity
100
AcDbPolyline
8
EKP_VODAFONE_RRU
6
ByLayer
62
256
370
-1
90
4
70
1
10
-450
20
1830
10
-450
20
2300
10
-345
20
2300
10
-345
20
1830
0
LWPOLYLINE
5
120FD
330
11FD3
100
AcDbEntity
100
AcDbPolyline
8
EKP_VODAFONE_RRU
6
ByLayer
62
256
370
-1
90
4
70
1
10
995
20
2105
10
995
20
2585
10
1135
20
2585
10
1135
20
2105
0
LWPOLYLINE
5
1213E
330
11FD3
100
AcDbEntity
100
AcDbPolyline
8
EKP_VODAFONE_RRU
6
ByLayer
62
256
370
-1
90
4
70
1
10
1470
20
2050
10
1470
20
2510
10
1650
20
2510
10
1650
20
2050
0
LWPOLYLINE
5
12140
330
11FD3
100
AcDbEntity
100
AcDbPolyline
8
EKP_VODAFONE_RRU
6
ByLayer
62
256
370
-1
90
4
70
1
10
1680
20
2050
10
1680
20
2510
10
1860
20
2510
10
1860
20
2050
0
LWPOLYLINE
5
12142
330
11FD3
100
AcDbEntity
100
AcDbPolyline
8
EKP_VODAFONE_RRU
6
ByLayer
62
256
370
-1
90
4
70
1
10
1890
20
2050
10
1890
20
2510
10
2070
20
2510
10
2070
20
2050
0
LWPOLYLINE
5
12080
330
11FD3
100
AcDbEntity
100
AcDbPolyline
8
EKP_TURK_TELEKOM_RRU
6
ByLayer
62
256
370
-1
90
4
70
1
10
-950
20
1830
10
-950
20
2290
10
-855
20
2290
10
-855
20
1830
0
LWPOLYLINE
5
12088
330
11FD3
100
AcDbEntity
100
AcDbPolyline
8
EKP_TURK_TELEKOM_RRU
6
ByLayer
62
256
370
-1
90
4
70
1
10
-830
20
1830
10
-830
20
2290
10
-735
20
2290
10
-735
20
1830
0
LWPOLYLINE
5
1213A
330
11FD3
100
AcDbEntity
100
AcDbPolyline
8
EKP_TURK_TELEKOM_RRU
6
ByLayer
62
256
370
-1
90
4
70
1
10
1790
20
1490
10
1790
20
1940
10
1950
20
1940
10
1950
20
1490
0
LWPOLYLINE
5
1213C
330
11FD3
100
AcDbEntity
100
AcDbPolyline
8
EKP_TURK_TELEKOM_RRU
6
ByLayer
62
256
370
-1
90
4
70
1
10
1990
20
1490
10
1990
20
1940
10
2150
20
1940
10
2150
20
1490
0
LWPOLYLINE
5
12033
330
11FD3
100
AcDbEntity
100
AcDbPolyline
8
EKP_POI_TASIYICI_SASE
6
ByLayer
62
256
370
-1
90
4
70
1
10
-1720
20
1405
10
-1720
20
2855
10
-1170
20
2855
10
-1170
20
1405
0
LWPOLYLINE
5
12034
330
11FD3
100
AcDbEntity
100
AcDbPolyline
8
EKP_POI_TASIYICI_SASE
6
ByLayer
62
256
370
-1
90
4
70
1
10
-1695
20
1430
10
-1695
20
2830
10
-1195
20
2830
10
-1195
20
1430
0
LWPOLYLINE
5
120B1
330
11FD3
100
AcDbEntity
100
AcDbPolyline
8
EKP_POI_TASIYICI_SASE
6
ByLayer
62
256
370
-1
90
4
70
1
10
-380
20
1370
10
-380
20
2820
10
-160
20
2820
10
-160
20
1370
0
LWPOLYLINE
5
120B2
330
11FD3
100
AcDbEntity
100
AcDbPolyline
8
EKP_POI_TASIYICI_SASE
6
ByLayer
62
256
370
-1
90
4
70
1
10
-365
20
1385
10
-365
20
2805
10
-175
20
2805
10
-175
20
1385
0
LWPOLYLINE
5
1214A
330
11FD3
100
AcDbEntity
100
AcDbPolyline
8
EKP_POI_TASIYICI_SASE
6
ByLayer
62
256
370
-1
90
4
70
1
10
2250
20
1370
10
2250
20
2820
10
2470
20
2820
10
2470
20
1370
0
LWPOLYLINE
5
1214B
330
11FD3
100
AcDbEntity
100
AcDbPolyline
8
EKP_POI_TASIYICI_SASE
6
ByLayer
62
256
370
-1
90
4
70
1
10
2265
20
1385
10
2265
20
2805
10
2455
20
2805
10
2455
20
1385
0
LWPOLYLINE
5
121A3
330
11FD3
100
AcDbEntity
100
AcDbPolyline
8
EKP_POI_TASIYICI_SASE
6
ByLayer
62
256
370
-1
90
4
70
1
10
-350
20
-940
10
-350
20
-620
10
-30
20
-620
10
-30
20
-940
0
LWPOLYLINE
5
121A4
330
11FD3
100
AcDbEntity
100
AcDbPolyline
8
EKP_POI_TASIYICI_SASE
6
ByLayer
62
256
370
-1
90
4
70
1
10
-330
20
-920
10
-330
20
-640
10
-50
20
-640
10
-50
20
-920
0
LWPOLYLINE
5
12035
330
11FD3
100
AcDbEntity
100
AcDbPolyline
8
EKP_POI_MODULLERI
6
ByLayer
62
256
370
-1
90
4
70
1
10
-1675
20
1605
10
-1675
20
1805
10
-1215
20
1805
10
-1215
20
1605
0
CIRCLE
5
12037
330
11FD3
100
AcDbEntity
100
AcDbCircle
8
EKP_POI_MODULLERI
10
-1640
20
1655
30
0
40
10
0
CIRCLE
5
12038
330
11FD3
100
AcDbEntity
100
AcDbCircle
8
EKP_POI_MODULLERI
10
-1600
20
1655
30
0
40
10
0
LWPOLYLINE
5
12039
330
11FD3
100
AcDbEntity
100
AcDbPolyline
8
EKP_POI_MODULLERI
6
ByLayer
62
256
370
-1
90
4
70
1
10
-1675
20
1875
10
-1675
20
2075
10
-1215
20
2075
10
-1215
20
1875
0
CIRCLE
5
1203B
330
11FD3
100
AcDbEntity
100
AcDbCircle
8
EKP_POI_MODULLERI
10
-1640
20
1925
30
0
40
10
0
CIRCLE
5
1203C
330
11FD3
100
AcDbEntity
100
AcDbCircle
8
EKP_POI_MODULLERI
10
-1600
20
1925
30
0
40
10
0
LWPOLYLINE
5
1203D
330
11FD3
100
AcDbEntity
100
AcDbPolyline
8
EKP_POI_MODULLERI
6
ByLayer
62
256
370
-1
90
4
70
1
10
-1675
20
2145
10
-1675
20
2345
10
-1215
20
2345
10
-1215
20
2145
0
CIRCLE
5
1203F
330
11FD3
100
AcDbEntity
100
AcDbCircle
8
EKP_POI_MODULLERI
10
-1640
20
2195
30
0
40
10
0
CIRCLE
5
12040
330
11FD3
100
AcDbEntity
100
AcDbCircle
8
EKP_POI_MODULLERI
10
-1600
20
2195
30
0
40
10
0
LWPOLYLINE
5
12041
330
11FD3
100
AcDbEntity
100
AcDbPolyline
8
EKP_POI_MODULLERI
6
ByLayer
62
256
370
-1
90
4
70
1
10
-1675
20
2415
10
-1675
20
2615
10
-1215
20
2615
10
-1215
20
2415
0
CIRCLE
5
12043
330
11FD3
100
AcDbEntity
100
AcDbCircle
8
EKP_POI_MODULLERI
10
-1640
20
2465
30
0
40
10
0
CIRCLE
5
12044
330
11FD3
100
AcDbEntity
100
AcDbCircle
8
EKP_POI_MODULLERI
10
-1600
20
2465
30
0
40
10
0
LWPOLYLINE
5
120B3
330
11FD3
100
AcDbEntity
100
AcDbPolyline
8
EKP_POI_MODULLERI
6
ByLayer
62
256
370
-1
90
4
70
1
10
-355
20
1570
10
-355
20
1750
10
-185
20
1750
10
-185
20
1570
0
LWPOLYLINE
5
120B5
330
11FD3
100
AcDbEntity
100
AcDbPolyline
8
EKP_POI_MODULLERI
6
ByLayer
62
256
370
-1
90
4
70
1
10
-355
20
1840
10
-355
20
2020
10
-185
20
2020
10
-185
20
1840
0
LWPOLYLINE
5
120B7
330
11FD3
100
AcDbEntity
100
AcDbPolyline
8
EKP_POI_MODULLERI
6
ByLayer
62
256
370
-1
90
4
70
1
10
-355
20
2110
10
-355
20
2290
10
-185
20
2290
10
-185
20
2110
0
LWPOLYLINE
5
120B9
330
11FD3
100
AcDbEntity
100
AcDbPolyline
8
EKP_POI_MODULLERI
6
ByLayer
62
256
370
-1
90
4
70
1
10
-355
20
2380
10
-355
20
2560
10
-185
20
2560
10
-185
20
2380
0
LWPOLYLINE
5
1214C
330
11FD3
100
AcDbEntity
100
AcDbPolyline
8
EKP_POI_MODULLERI
6
ByLayer
62
256
370
-1
90
4
70
1
10
2275
20
1570
10
2275
20
1750
10
2445
20
1750
10
2445
20
1570
0
LWPOLYLINE
5
1214E
330
11FD3
100
AcDbEntity
100
AcDbPolyline
8
EKP_POI_MODULLERI
6
ByLayer
62
256
370
-1
90
4
70
1
10
2275
20
1840
10
2275
20
2020
10
2445
20
2020
10
2445
20
1840
0
LWPOLYLINE
5
12150
330
11FD3
100
AcDbEntity
100
AcDbPolyline
8
EKP_POI_MODULLERI
6
ByLayer
62
256
370
-1
90
4
70
1
10
2275
20
2110
10
2275
20
2290
10
2445
20
2290
10
2445
20
2110
0
LWPOLYLINE
5
12152
330
11FD3
100
AcDbEntity
100
AcDbPolyline
8
EKP_POI_MODULLERI
6
ByLayer
62
256
370
-1
90
4
70
1
10
2275
20
2380
10
2275
20
2560
10
2445
20
2560
10
2445
20
2380
0
LWPOLYLINE
5
121A5
330
11FD3
100
AcDbEntity
100
AcDbPolyline
8
EKP_POI_MODULLERI
6
ByLayer
62
256
370
-1
90
4
70
1
10
-310
20
-710
10
-310
20
-665
10
-70
20
-665
10
-70
20
-710
0
LWPOLYLINE
5
121A7
330
11FD3
100
AcDbEntity
100
AcDbPolyline
8
EKP_POI_MODULLERI
6
ByLayer
62
256
370
-1
90
4
70
1
10
-310
20
-770
10
-310
20
-725
10
-70
20
-725
10
-70
20
-770
0
LWPOLYLINE
5
121A9
330
11FD3
100
AcDbEntity
100
AcDbPolyline
8
EKP_POI_MODULLERI
6
ByLayer
62
256
370
-1
90
4
70
1
10
-310
20
-830
10
-310
20
-785
10
-70
20
-785
10
-70
20
-830
0
LWPOLYLINE
5
121AB
330
11FD3
100
AcDbEntity
100
AcDbPolyline
8
EKP_POI_MODULLERI
6
ByLayer
62
256
370
-1
90
4
70
1
10
-310
20
-890
10
-310
20
-845
10
-70
20
-845
10
-70
20
-890
0
LWPOLYLINE
5
120F0
330
11FD3
100
AcDbEntity
100
AcDbPolyline
8
BLOK_OZEL_PLATFORM
6
ByLayer
62
256
370
-1
90
4
70
1
10
730
20
1405
10
730
20
1430
10
1280
20
1430
10
1280
20
1405
0
LWPOLYLINE
5
120F1
330
11FD3
100
AcDbEntity
100
AcDbPolyline
8
BLOK_OZEL_PLATFORM
6
ByLayer
62
256
370
-1
90
4
70
1
10
730
20
1430
10
730
20
1465
10
745
20
1465
10
745
20
1430
0
LWPOLYLINE
5
120F2
330
11FD3
100
AcDbEntity
100
AcDbPolyline
8
BLOK_OZEL_PLATFORM
6
ByLayer
62
256
370
-1
90
4
70
1
10
1265
20
1430
10
1265
20
1465
10
1280
20
1465
10
1280
20
1430
0
LWPOLYLINE
5
12122
330
11FD3
100
AcDbEntity
100
AcDbPolyline
8
BLOK_OZEL_PLATFORM
6
ByLayer
62
256
370
-1
90
4
70
1
10
1350
20
1370
10
1350
20
1395
10
2200
20
1395
10
2200
20
1370
0
LWPOLYLINE
5
12123
330
11FD3
100
AcDbEntity
100
AcDbPolyline
8
BLOK_OZEL_PLATFORM
6
ByLayer
62
256
370
-1
90
4
70
1
10
1350
20
1395
10
1350
20
1430
10
1365
20
1430
10
1365
20
1395
0
LWPOLYLINE
5
12124
330
11FD3
100
AcDbEntity
100
AcDbPolyline
8
BLOK_OZEL_PLATFORM
6
ByLayer
62
256
370
-1
90
4
70
1
10
2185
20
1395
10
2185
20
1430
10
2200
20
1430
10
2200
20
1395
0
LWPOLYLINE
5
12198
330
11FD3
100
AcDbEntity
100
AcDbPolyline
8
BLOK_OZEL_PLATFORM
6
ByLayer
62
256
370
-1
90
4
70
1
10
-370
20
-280
10
-370
20
-255
10
-20
20
-255
10
-20
20
-280
0
ENDSEC
0
SECTION
2
OBJECTS
0
DICTIONARY
5
11FC1
330
0
100
AcDbDictionary
281
1
3
ACAD_GROUP
350
11FD7
0
DICTIONARY
5
11FD7
330
11FC1
100
AcDbDictionary
281
1
0
ENDSEC
0
EOF